0, 0, Header, 1, 17, 480
1, 0, Start_track
1, 0, Title_t, "untitled"
1, 0, Copyright_t, "Copyright © 1996 by David J. Grossman"
1, 0, Text_t, "David J. Grossman"
1, 0, SMPTE_offset, 96, 0, 3, 0, 0
1, 0, Time_signature, 4, 2, 24, 8
1, 0, Key_signature, 0, "major"
1, 0, Tempo, 666667
1, 0, Marker_t, "A"
1, 46080, Marker_t, "A'"
1, 92160, Marker_t, "B"
1, 157440, Marker_t, "B'"
1, 157440, End_track
2, 0, Start_track
2, 0, MIDI_port, 0
2, 0, Title_t, "Solo Violin"
2, 0, Program_c, 0, 40
2, 0, Control_c, 0, 7, 100
2, 0, Control_c, 0, 10, 69
2, 0, Note_on_c, 0, 69, 100
2, 120, Note_on_c, 0, 69, 0
2, 120, Note_on_c, 0, 72, 100
2, 240, Note_on_c, 0, 72, 0
2, 240, Note_on_c, 0, 76, 100
2, 360, Note_on_c, 0, 76, 0
2, 360, Note_on_c, 0, 81, 100
2, 480, Note_on_c, 0, 81, 0
2, 480, Note_on_c, 0, 76, 100
2, 600, Note_on_c, 0, 76, 0
2, 600, Note_on_c, 0, 74, 100
2, 720, Note_on_c, 0, 74, 0
2, 720, Note_on_c, 0, 72, 100
2, 840, Note_on_c, 0, 72, 0
2, 840, Note_on_c, 0, 71, 100
2, 960, Note_on_c, 0, 71, 0
2, 1920, Note_on_c, 0, 69, 100
2, 2040, Note_on_c, 0, 69, 0
2, 2040, Note_on_c, 0, 72, 100
2, 2100, Note_on_c, 0, 72, 0
2, 2100, Note_on_c, 0, 74, 100
2, 2160, Note_on_c, 0, 74, 0
2, 2160, Note_on_c, 0, 76, 100
2, 2280, Note_on_c, 0, 76, 0
2, 2280, Note_on_c, 0, 64, 100
2, 2400, Note_on_c, 0, 64, 0
2, 2400, Note_on_c, 0, 69, 100
2, 2520, Note_on_c, 0, 69, 0
2, 2520, Note_on_c, 0, 72, 100
2, 2640, Note_on_c, 0, 72, 0
2, 2640, Note_on_c, 0, 76, 100
2, 2760, Note_on_c, 0, 76, 0
2, 2760, Note_on_c, 0, 68, 100
2, 2880, Note_on_c, 0, 68, 0
2, 3840, Note_on_c, 0, 69, 100
2, 3960, Note_on_c, 0, 69, 0
2, 3960, Note_on_c, 0, 71, 100
2, 4020, Note_on_c, 0, 71, 0
2, 4020, Note_on_c, 0, 72, 100
2, 4080, Note_on_c, 0, 72, 0
2, 4080, Note_on_c, 0, 74, 100
2, 4200, Note_on_c, 0, 74, 0
2, 4200, Note_on_c, 0, 72, 100
2, 4260, Note_on_c, 0, 72, 0
2, 4260, Note_on_c, 0, 71, 100
2, 4320, Note_on_c, 0, 71, 0
2, 4320, Note_on_c, 0, 72, 100
2, 4440, Note_on_c, 0, 72, 0
2, 4440, Note_on_c, 0, 74, 100
2, 4500, Note_on_c, 0, 74, 0
2, 4500, Note_on_c, 0, 76, 100
2, 4560, Note_on_c, 0, 76, 0
2, 4560, Note_on_c, 0, 77, 100
2, 4680, Note_on_c, 0, 77, 0
2, 4680, Note_on_c, 0, 76, 100
2, 4740, Note_on_c, 0, 76, 0
2, 4740, Note_on_c, 0, 74, 100
2, 4800, Note_on_c, 0, 74, 0
2, 4800, Note_on_c, 0, 76, 100
2, 4920, Note_on_c, 0, 76, 0
2, 4920, Note_on_c, 0, 81, 100
2, 5040, Note_on_c, 0, 81, 0
2, 5040, Note_on_c, 0, 77, 100
2, 5160, Note_on_c, 0, 77, 0
2, 5160, Note_on_c, 0, 74, 100
2, 5280, Note_on_c, 0, 74, 0
2, 5280, Note_on_c, 0, 76, 100
2, 5400, Note_on_c, 0, 76, 0
2, 5400, Note_on_c, 0, 74, 100
2, 5520, Note_on_c, 0, 74, 0
2, 5520, Note_on_c, 0, 72, 100
2, 5640, Note_on_c, 0, 72, 0
2, 5640, Note_on_c, 0, 71, 100
2, 5760, Note_on_c, 0, 71, 0
2, 7680, Note_on_c, 0, 69, 100
2, 7800, Note_on_c, 0, 69, 0
2, 7800, Note_on_c, 0, 72, 100
2, 7920, Note_on_c, 0, 72, 0
2, 7920, Note_on_c, 0, 76, 100
2, 8040, Note_on_c, 0, 76, 0
2, 8040, Note_on_c, 0, 81, 100
2, 8160, Note_on_c, 0, 81, 0
2, 8160, Note_on_c, 0, 84, 100
2, 8280, Note_on_c, 0, 84, 0
2, 8280, Note_on_c, 0, 76, 100
2, 8400, Note_on_c, 0, 76, 0
2, 8400, Note_on_c, 0, 72, 100
2, 8520, Note_on_c, 0, 72, 0
2, 8520, Note_on_c, 0, 69, 100
2, 8640, Note_on_c, 0, 69, 0
2, 8640, Note_on_c, 0, 68, 100
2, 8760, Note_on_c, 0, 68, 0
2, 8760, Note_on_c, 0, 71, 100
2, 8880, Note_on_c, 0, 71, 0
2, 8880, Note_on_c, 0, 76, 100
2, 9000, Note_on_c, 0, 76, 0
2, 9000, Note_on_c, 0, 80, 100
2, 9120, Note_on_c, 0, 80, 0
2, 9120, Note_on_c, 0, 83, 100
2, 9240, Note_on_c, 0, 83, 0
2, 9240, Note_on_c, 0, 74, 100
2, 9360, Note_on_c, 0, 74, 0
2, 9360, Note_on_c, 0, 72, 100
2, 9480, Note_on_c, 0, 72, 0
2, 9480, Note_on_c, 0, 71, 100
2, 9600, Note_on_c, 0, 71, 0
2, 11520, Note_on_c, 0, 69, 100
2, 11640, Note_on_c, 0, 69, 0
2, 11640, Note_on_c, 0, 72, 100
2, 11760, Note_on_c, 0, 72, 0
2, 11760, Note_on_c, 0, 76, 100
2, 11880, Note_on_c, 0, 76, 0
2, 11880, Note_on_c, 0, 79, 100
2, 12000, Note_on_c, 0, 79, 0
2, 12000, Note_on_c, 0, 77, 100
2, 12120, Note_on_c, 0, 77, 0
2, 12120, Note_on_c, 0, 72, 100
2, 12240, Note_on_c, 0, 72, 0
2, 12240, Note_on_c, 0, 71, 100
2, 12360, Note_on_c, 0, 71, 0
2, 12360, Note_on_c, 0, 69, 100
2, 12480, Note_on_c, 0, 69, 0
2, 12480, Note_on_c, 0, 67, 100
2, 12600, Note_on_c, 0, 67, 0
2, 12600, Note_on_c, 0, 71, 100
2, 12720, Note_on_c, 0, 71, 0
2, 12720, Note_on_c, 0, 74, 100
2, 12840, Note_on_c, 0, 74, 0
2, 12840, Note_on_c, 0, 77, 100
2, 12960, Note_on_c, 0, 77, 0
2, 12960, Note_on_c, 0, 76, 100
2, 13080, Note_on_c, 0, 76, 0
2, 13080, Note_on_c, 0, 71, 100
2, 13200, Note_on_c, 0, 71, 0
2, 13200, Note_on_c, 0, 69, 100
2, 13320, Note_on_c, 0, 69, 0
2, 13320, Note_on_c, 0, 67, 100
2, 13440, Note_on_c, 0, 67, 0
2, 13440, Note_on_c, 0, 65, 100
2, 13560, Note_on_c, 0, 65, 0
2, 13560, Note_on_c, 0, 69, 100
2, 13680, Note_on_c, 0, 69, 0
2, 13680, Note_on_c, 0, 72, 100
2, 13800, Note_on_c, 0, 72, 0
2, 13800, Note_on_c, 0, 76, 100
2, 13920, Note_on_c, 0, 76, 0
2, 13920, Note_on_c, 0, 74, 100
2, 14040, Note_on_c, 0, 74, 0
2, 14040, Note_on_c, 0, 72, 100
2, 14160, Note_on_c, 0, 72, 0
2, 14160, Note_on_c, 0, 71, 100
2, 14280, Note_on_c, 0, 71, 0
2, 14280, Note_on_c, 0, 69, 100
2, 14400, Note_on_c, 0, 69, 0
2, 14400, Note_on_c, 0, 68, 100
2, 14520, Note_on_c, 0, 68, 0
2, 14520, Note_on_c, 0, 76, 100
2, 14640, Note_on_c, 0, 76, 0
2, 14640, Note_on_c, 0, 71, 100
2, 14760, Note_on_c, 0, 71, 0
2, 14760, Note_on_c, 0, 68, 100
2, 14880, Note_on_c, 0, 68, 0
2, 14880, Note_on_c, 0, 64, 100
2, 15000, Note_on_c, 0, 64, 0
2, 15000, Note_on_c, 0, 65, 100
2, 15120, Note_on_c, 0, 65, 0
2, 15120, Note_on_c, 0, 62, 100
2, 15240, Note_on_c, 0, 62, 0
2, 15240, Note_on_c, 0, 64, 100
2, 15360, Note_on_c, 0, 64, 0
2, 15360, Note_on_c, 0, 61, 100
2, 15480, Note_on_c, 0, 61, 0
2, 15480, Note_on_c, 0, 69, 100
2, 15600, Note_on_c, 0, 69, 0
2, 15600, Note_on_c, 0, 76, 100
2, 15720, Note_on_c, 0, 76, 0
2, 15720, Note_on_c, 0, 67, 100
2, 15840, Note_on_c, 0, 67, 0
2, 15840, Note_on_c, 0, 65, 100
2, 15960, Note_on_c, 0, 65, 0
2, 15960, Note_on_c, 0, 62, 100
2, 16080, Note_on_c, 0, 62, 0
2, 16080, Note_on_c, 0, 65, 100
2, 16200, Note_on_c, 0, 65, 0
2, 16200, Note_on_c, 0, 60, 100
2, 16320, Note_on_c, 0, 60, 0
2, 16320, Note_on_c, 0, 59, 100
2, 16440, Note_on_c, 0, 59, 0
2, 16440, Note_on_c, 0, 67, 100
2, 16560, Note_on_c, 0, 67, 0
2, 16560, Note_on_c, 0, 74, 100
2, 16680, Note_on_c, 0, 74, 0
2, 16680, Note_on_c, 0, 65, 100
2, 16800, Note_on_c, 0, 65, 0
2, 16800, Note_on_c, 0, 64, 100
2, 16920, Note_on_c, 0, 64, 0
2, 16920, Note_on_c, 0, 60, 100
2, 17040, Note_on_c, 0, 60, 0
2, 17040, Note_on_c, 0, 64, 100
2, 17160, Note_on_c, 0, 64, 0
2, 17160, Note_on_c, 0, 59, 100
2, 17280, Note_on_c, 0, 59, 0
2, 17280, Note_on_c, 0, 57, 100
2, 17400, Note_on_c, 0, 57, 0
2, 17400, Note_on_c, 0, 65, 100
2, 17520, Note_on_c, 0, 65, 0
2, 17520, Note_on_c, 0, 72, 100
2, 17640, Note_on_c, 0, 72, 0
2, 17640, Note_on_c, 0, 64, 100
2, 17760, Note_on_c, 0, 64, 0
2, 17760, Note_on_c, 0, 62, 100
2, 17880, Note_on_c, 0, 62, 0
2, 17880, Note_on_c, 0, 59, 100
2, 18000, Note_on_c, 0, 59, 0
2, 18000, Note_on_c, 0, 62, 100
2, 18120, Note_on_c, 0, 62, 0
2, 18120, Note_on_c, 0, 57, 100
2, 18240, Note_on_c, 0, 57, 0
2, 18240, Note_on_c, 0, 56, 100
2, 18360, Note_on_c, 0, 56, 0
2, 18360, Note_on_c, 0, 64, 100
2, 18480, Note_on_c, 0, 64, 0
2, 18480, Note_on_c, 0, 71, 100
2, 18600, Note_on_c, 0, 71, 0
2, 18600, Note_on_c, 0, 62, 100
2, 18720, Note_on_c, 0, 62, 0
2, 18720, Note_on_c, 0, 60, 100
2, 18840, Note_on_c, 0, 60, 0
2, 18840, Note_on_c, 0, 57, 100
2, 18960, Note_on_c, 0, 57, 0
2, 18960, Note_on_c, 0, 62, 100
2, 19080, Note_on_c, 0, 62, 0
2, 19080, Note_on_c, 0, 59, 100
2, 19200, Note_on_c, 0, 59, 0
2, 19200, Note_on_c, 0, 64, 100
2, 19320, Note_on_c, 0, 64, 0
2, 19320, Note_on_c, 0, 60, 100
2, 19440, Note_on_c, 0, 60, 0
2, 19440, Note_on_c, 0, 57, 100
2, 19560, Note_on_c, 0, 57, 0
2, 19560, Note_on_c, 0, 60, 100
2, 19680, Note_on_c, 0, 60, 0
2, 19680, Note_on_c, 0, 64, 100
2, 19800, Note_on_c, 0, 64, 0
2, 19800, Note_on_c, 0, 69, 100
2, 19920, Note_on_c, 0, 69, 0
2, 19920, Note_on_c, 0, 72, 100
2, 20040, Note_on_c, 0, 72, 0
2, 20040, Note_on_c, 0, 64, 100
2, 20160, Note_on_c, 0, 64, 0
2, 20160, Note_on_c, 0, 63, 100
2, 20280, Note_on_c, 0, 63, 0
2, 20280, Note_on_c, 0, 72, 100
2, 20400, Note_on_c, 0, 72, 0
2, 20400, Note_on_c, 0, 71, 100
2, 20520, Note_on_c, 0, 71, 0
2, 20520, Note_on_c, 0, 69, 100
2, 20640, Note_on_c, 0, 69, 0
2, 20640, Note_on_c, 0, 78, 100
2, 20760, Note_on_c, 0, 78, 0
2, 20760, Note_on_c, 0, 69, 100
2, 20880, Note_on_c, 0, 69, 0
2, 20880, Note_on_c, 0, 67, 100
2, 21000, Note_on_c, 0, 67, 0
2, 21000, Note_on_c, 0, 66, 100
2, 21120, Note_on_c, 0, 66, 0
2, 21120, Note_on_c, 0, 64, 100
2, 21240, Note_on_c, 0, 64, 0
2, 21240, Note_on_c, 0, 59, 100
2, 21360, Note_on_c, 0, 59, 0
2, 21360, Note_on_c, 0, 55, 100
2, 21480, Note_on_c, 0, 55, 0
2, 21480, Note_on_c, 0, 59, 100
2, 21600, Note_on_c, 0, 59, 0
2, 21600, Note_on_c, 0, 64, 100
2, 21720, Note_on_c, 0, 64, 0
2, 21720, Note_on_c, 0, 67, 100
2, 21840, Note_on_c, 0, 67, 0
2, 21840, Note_on_c, 0, 71, 100
2, 21960, Note_on_c, 0, 71, 0
2, 21960, Note_on_c, 0, 62, 100
2, 22080, Note_on_c, 0, 62, 0
2, 22080, Note_on_c, 0, 61, 100
2, 22200, Note_on_c, 0, 61, 0
2, 22200, Note_on_c, 0, 71, 100
2, 22320, Note_on_c, 0, 71, 0
2, 22320, Note_on_c, 0, 69, 100
2, 22440, Note_on_c, 0, 69, 0
2, 22440, Note_on_c, 0, 67, 100
2, 22560, Note_on_c, 0, 67, 0
2, 22560, Note_on_c, 0, 76, 100
2, 22680, Note_on_c, 0, 76, 0
2, 22680, Note_on_c, 0, 79, 100
2, 22800, Note_on_c, 0, 79, 0
2, 22800, Note_on_c, 0, 78, 100
2, 22920, Note_on_c, 0, 78, 0
2, 22920, Note_on_c, 0, 76, 100
2, 23040, Note_on_c, 0, 76, 0
2, 23040, Note_on_c, 0, 75, 100
2, 23160, Note_on_c, 0, 75, 0
2, 23160, Note_on_c, 0, 69, 100
2, 23280, Note_on_c, 0, 69, 0
2, 23280, Note_on_c, 0, 66, 100
2, 23400, Note_on_c, 0, 66, 0
2, 23400, Note_on_c, 0, 69, 100
2, 23520, Note_on_c, 0, 69, 0
2, 23520, Note_on_c, 0, 75, 100
2, 23640, Note_on_c, 0, 75, 0
2, 23640, Note_on_c, 0, 78, 100
2, 23760, Note_on_c, 0, 78, 0
2, 23760, Note_on_c, 0, 81, 100
2, 23880, Note_on_c, 0, 81, 0
2, 23880, Note_on_c, 0, 72, 100
2, 24000, Note_on_c, 0, 72, 0
2, 24000, Note_on_c, 0, 71, 100
2, 24120, Note_on_c, 0, 71, 0
2, 24120, Note_on_c, 0, 66, 100
2, 24240, Note_on_c, 0, 66, 0
2, 24240, Note_on_c, 0, 63, 100
2, 24360, Note_on_c, 0, 63, 0
2, 24360, Note_on_c, 0, 66, 100
2, 24480, Note_on_c, 0, 66, 0
2, 24480, Note_on_c, 0, 71, 100
2, 24600, Note_on_c, 0, 71, 0
2, 24600, Note_on_c, 0, 75, 100
2, 24720, Note_on_c, 0, 75, 0
2, 24720, Note_on_c, 0, 78, 100
2, 24840, Note_on_c, 0, 78, 0
2, 24840, Note_on_c, 0, 81, 100
2, 24960, Note_on_c, 0, 81, 0
2, 24960, Note_on_c, 0, 79, 100
2, 25080, Note_on_c, 0, 79, 0
2, 25080, Note_on_c, 0, 83, 100
2, 25140, Note_on_c, 0, 83, 0
2, 25140, Note_on_c, 0, 81, 100
2, 25200, Note_on_c, 0, 81, 0
2, 25200, Note_on_c, 0, 79, 100
2, 25320, Note_on_c, 0, 79, 0
2, 25320, Note_on_c, 0, 78, 100
2, 25440, Note_on_c, 0, 78, 0
2, 25440, Note_on_c, 0, 76, 100
2, 25560, Note_on_c, 0, 76, 0
2, 25560, Note_on_c, 0, 84, 100
2, 25680, Note_on_c, 0, 84, 0
2, 25680, Note_on_c, 0, 69, 100
2, 25800, Note_on_c, 0, 69, 0
2, 25800, Note_on_c, 0, 71, 100
2, 25860, Note_on_c, 0, 71, 0
2, 25860, Note_on_c, 0, 72, 100
2, 25920, Note_on_c, 0, 72, 0
2, 25920, Note_on_c, 0, 62, 100
2, 26040, Note_on_c, 0, 62, 0
2, 26040, Note_on_c, 0, 81, 100
2, 26100, Note_on_c, 0, 81, 0
2, 26100, Note_on_c, 0, 79, 100
2, 26160, Note_on_c, 0, 79, 0
2, 26160, Note_on_c, 0, 78, 100
2, 26280, Note_on_c, 0, 78, 0
2, 26280, Note_on_c, 0, 76, 100
2, 26400, Note_on_c, 0, 76, 0
2, 26400, Note_on_c, 0, 74, 100
2, 26520, Note_on_c, 0, 74, 0
2, 26520, Note_on_c, 0, 83, 100
2, 26640, Note_on_c, 0, 83, 0
2, 26640, Note_on_c, 0, 67, 100
2, 26760, Note_on_c, 0, 67, 0
2, 26760, Note_on_c, 0, 69, 100
2, 26820, Note_on_c, 0, 69, 0
2, 26820, Note_on_c, 0, 71, 100
2, 26880, Note_on_c, 0, 71, 0
2, 26880, Note_on_c, 0, 60, 100
2, 27000, Note_on_c, 0, 60, 0
2, 27000, Note_on_c, 0, 79, 100
2, 27060, Note_on_c, 0, 79, 0
2, 27060, Note_on_c, 0, 78, 100
2, 27120, Note_on_c, 0, 78, 0
2, 27120, Note_on_c, 0, 76, 100
2, 27240, Note_on_c, 0, 76, 0
2, 27240, Note_on_c, 0, 74, 100
2, 27360, Note_on_c, 0, 74, 0
2, 27360, Note_on_c, 0, 72, 100
2, 27480, Note_on_c, 0, 72, 0
2, 27480, Note_on_c, 0, 81, 100
2, 27540, Note_on_c, 0, 81, 0
2, 27540, Note_on_c, 0, 79, 100
2, 27600, Note_on_c, 0, 79, 0
2, 27600, Note_on_c, 0, 78, 100
2, 27720, Note_on_c, 0, 78, 0
2, 27720, Note_on_c, 0, 76, 100
2, 27840, Note_on_c, 0, 76, 0
2, 27840, Note_on_c, 0, 75, 100
2, 27960, Note_on_c, 0, 75, 0
2, 27960, Note_on_c, 0, 78, 100
2, 28020, Note_on_c, 0, 78, 0
2, 28020, Note_on_c, 0, 75, 100
2, 28080, Note_on_c, 0, 75, 0
2, 28080, Note_on_c, 0, 71, 100
2, 28200, Note_on_c, 0, 71, 0
2, 28200, Note_on_c, 0, 69, 100
2, 28320, Note_on_c, 0, 69, 0
2, 28320, Note_on_c, 0, 67, 100
2, 28440, Note_on_c, 0, 67, 0
2, 28440, Note_on_c, 0, 76, 100
2, 28560, Note_on_c, 0, 76, 0
2, 28560, Note_on_c, 0, 66, 100
2, 28680, Note_on_c, 0, 66, 0
2, 28680, Note_on_c, 0, 74, 100
2, 28800, Note_on_c, 0, 74, 0
2, 28800, Note_on_c, 0, 64, 100
2, 28920, Note_on_c, 0, 64, 0
2, 28920, Note_on_c, 0, 74, 100
2, 28980, Note_on_c, 0, 74, 0
2, 28980, Note_on_c, 0, 71, 100
2, 29040, Note_on_c, 0, 71, 0
2, 29040, Note_on_c, 0, 67, 100
2, 29160, Note_on_c, 0, 67, 0
2, 29160, Note_on_c, 0, 65, 100
2, 29280, Note_on_c, 0, 65, 0
2, 29280, Note_on_c, 0, 64, 100
2, 29400, Note_on_c, 0, 64, 0
2, 29400, Note_on_c, 0, 72, 100
2, 29520, Note_on_c, 0, 72, 0
2, 29520, Note_on_c, 0, 62, 100
2, 29640, Note_on_c, 0, 62, 0
2, 29640, Note_on_c, 0, 71, 100
2, 29760, Note_on_c, 0, 71, 0
2, 29760, Note_on_c, 0, 60, 100
2, 29880, Note_on_c, 0, 60, 0
2, 29880, Note_on_c, 0, 71, 100
2, 29940, Note_on_c, 0, 71, 0
2, 29940, Note_on_c, 0, 67, 100
2, 30000, Note_on_c, 0, 67, 0
2, 30000, Note_on_c, 0, 64, 100
2, 30120, Note_on_c, 0, 64, 0
2, 30120, Note_on_c, 0, 62, 100
2, 30240, Note_on_c, 0, 62, 0
2, 30240, Note_on_c, 0, 60, 100
2, 30360, Note_on_c, 0, 60, 0
2, 30360, Note_on_c, 0, 69, 100
2, 30480, Note_on_c, 0, 69, 0
2, 30480, Note_on_c, 0, 59, 100
2, 30600, Note_on_c, 0, 59, 0
2, 30600, Note_on_c, 0, 67, 100
2, 30720, Note_on_c, 0, 67, 0
2, 30720, Note_on_c, 0, 57, 100
2, 30840, Note_on_c, 0, 57, 0
2, 30840, Note_on_c, 0, 59, 100
2, 30900, Note_on_c, 0, 59, 0
2, 30900, Note_on_c, 0, 60, 100
2, 30960, Note_on_c, 0, 60, 0
2, 30960, Note_on_c, 0, 62, 100
2, 31080, Note_on_c, 0, 62, 0
2, 31080, Note_on_c, 0, 60, 100
2, 31140, Note_on_c, 0, 60, 0
2, 31140, Note_on_c, 0, 59, 100
2, 31200, Note_on_c, 0, 59, 0
2, 31200, Note_on_c, 0, 60, 100
2, 31320, Note_on_c, 0, 60, 0
2, 31320, Note_on_c, 0, 62, 100
2, 31380, Note_on_c, 0, 62, 0
2, 31380, Note_on_c, 0, 64, 100
2, 31440, Note_on_c, 0, 64, 0
2, 31440, Note_on_c, 0, 65, 100
2, 31560, Note_on_c, 0, 65, 0
2, 31560, Note_on_c, 0, 64, 100
2, 31620, Note_on_c, 0, 64, 0
2, 31620, Note_on_c, 0, 62, 100
2, 31680, Note_on_c, 0, 62, 0
2, 31680, Note_on_c, 0, 64, 100
2, 31800, Note_on_c, 0, 64, 0
2, 31800, Note_on_c, 0, 66, 100
2, 31860, Note_on_c, 0, 66, 0
2, 31860, Note_on_c, 0, 67, 100
2, 31920, Note_on_c, 0, 67, 0
2, 31920, Note_on_c, 0, 69, 100
2, 32040, Note_on_c, 0, 69, 0
2, 32040, Note_on_c, 0, 67, 100
2, 32100, Note_on_c, 0, 67, 0
2, 32100, Note_on_c, 0, 66, 100
2, 32160, Note_on_c, 0, 66, 0
2, 32160, Note_on_c, 0, 67, 100
2, 32280, Note_on_c, 0, 67, 0
2, 32280, Note_on_c, 0, 69, 100
2, 32340, Note_on_c, 0, 69, 0
2, 32340, Note_on_c, 0, 71, 100
2, 32400, Note_on_c, 0, 71, 0
2, 32400, Note_on_c, 0, 72, 100
2, 32520, Note_on_c, 0, 72, 0
2, 32520, Note_on_c, 0, 71, 100
2, 32580, Note_on_c, 0, 71, 0
2, 32580, Note_on_c, 0, 69, 100
2, 32640, Note_on_c, 0, 69, 0
2, 32640, Note_on_c, 0, 78, 100
2, 32760, Note_on_c, 0, 78, 0
2, 32760, Note_on_c, 0, 72, 100
2, 32880, Note_on_c, 0, 72, 0
2, 32880, Note_on_c, 0, 63, 100
2, 33000, Note_on_c, 0, 63, 0
2, 33000, Note_on_c, 0, 72, 100
2, 33120, Note_on_c, 0, 72, 0
2, 33120, Note_on_c, 0, 71, 100
2, 33240, Note_on_c, 0, 71, 0
2, 33240, Note_on_c, 0, 69, 100
2, 33360, Note_on_c, 0, 69, 0
2, 33360, Note_on_c, 0, 67, 100
2, 33480, Note_on_c, 0, 67, 0
2, 33480, Note_on_c, 0, 66, 100
2, 33600, Note_on_c, 0, 66, 0
2, 33600, Note_on_c, 0, 67, 100
2, 33720, Note_on_c, 0, 67, 0
2, 33720, Note_on_c, 0, 69, 100
2, 33840, Note_on_c, 0, 69, 0
2, 33840, Note_on_c, 0, 71, 100
2, 33960, Note_on_c, 0, 71, 0
2, 33960, Note_on_c, 0, 72, 100
2, 34080, Note_on_c, 0, 72, 0
2, 34080, Pitch_bend_c, 0, 12288
2, 34080, Note_on_c, 0, 66, 100
2, 34140, Pitch_bend_c, 0, 8192
2, 34200, Pitch_bend_c, 0, 12288
2, 34260, Pitch_bend_c, 0, 8192
2, 34440, Note_on_c, 0, 66, 0
2, 34440, Note_on_c, 0, 64, 100
2, 34560, Note_on_c, 0, 64, 0
2, 34560, Note_on_c, 0, 64, 100
2, 34680, Note_on_c, 0, 64, 0
2, 34680, Note_on_c, 0, 61, 100
2, 34740, Note_on_c, 0, 61, 0
2, 34740, Note_on_c, 0, 62, 100
2, 34800, Note_on_c, 0, 62, 0
2, 34800, Note_on_c, 0, 64, 100
2, 34920, Note_on_c, 0, 64, 0
2, 34920, Note_on_c, 0, 69, 100
2, 35040, Note_on_c, 0, 69, 0
2, 35040, Note_on_c, 0, 66, 100
2, 35160, Note_on_c, 0, 66, 0
2, 35160, Note_on_c, 0, 63, 100
2, 35220, Note_on_c, 0, 63, 0
2, 35220, Note_on_c, 0, 64, 100
2, 35280, Note_on_c, 0, 64, 0
2, 35280, Note_on_c, 0, 66, 100
2, 35400, Note_on_c, 0, 66, 0
2, 35400, Note_on_c, 0, 71, 100
2, 35520, Note_on_c, 0, 71, 0
2, 35520, Note_on_c, 0, 67, 100
2, 35640, Note_on_c, 0, 67, 0
2, 35640, Note_on_c, 0, 64, 100
2, 35700, Note_on_c, 0, 64, 0
2, 35700, Note_on_c, 0, 66, 100
2, 35760, Note_on_c, 0, 66, 0
2, 35760, Note_on_c, 0, 67, 100
2, 35880, Note_on_c, 0, 67, 0
2, 35880, Note_on_c, 0, 72, 100
2, 36000, Note_on_c, 0, 72, 0
2, 36000, Note_on_c, 0, 69, 100
2, 36120, Note_on_c, 0, 69, 0
2, 36120, Note_on_c, 0, 66, 100
2, 36180, Note_on_c, 0, 66, 0
2, 36180, Note_on_c, 0, 67, 100
2, 36240, Note_on_c, 0, 67, 0
2, 36240, Note_on_c, 0, 69, 100
2, 36360, Note_on_c, 0, 69, 0
2, 36360, Note_on_c, 0, 74, 100
2, 36480, Note_on_c, 0, 74, 0
2, 36480, Note_on_c, 0, 71, 100
2, 36600, Note_on_c, 0, 71, 0
2, 36600, Note_on_c, 0, 67, 100
2, 36720, Note_on_c, 0, 67, 0
2, 36720, Note_on_c, 0, 71, 100
2, 36840, Note_on_c, 0, 71, 0
2, 36840, Note_on_c, 0, 75, 100
2, 36960, Note_on_c, 0, 75, 0
2, 36960, Note_on_c, 0, 76, 100
2, 37080, Note_on_c, 0, 76, 0
2, 37080, Note_on_c, 0, 79, 100
2, 37200, Note_on_c, 0, 79, 0
2, 37200, Note_on_c, 0, 83, 100
2, 37320, Note_on_c, 0, 83, 0
2, 37320, Note_on_c, 0, 74, 100
2, 37440, Note_on_c, 0, 74, 0
2, 37440, Note_on_c, 0, 72, 100
2, 37560, Note_on_c, 0, 72, 0
2, 37560, Note_on_c, 0, 69, 100
2, 37680, Note_on_c, 0, 69, 0
2, 37680, Note_on_c, 0, 72, 100
2, 37800, Note_on_c, 0, 72, 0
2, 37800, Note_on_c, 0, 76, 100
2, 37920, Note_on_c, 0, 76, 0
2, 37920, Note_on_c, 0, 77, 100
2, 38040, Note_on_c, 0, 77, 0
2, 38040, Note_on_c, 0, 81, 100
2, 38160, Note_on_c, 0, 81, 0
2, 38160, Note_on_c, 0, 84, 100
2, 38280, Note_on_c, 0, 84, 0
2, 38280, Note_on_c, 0, 76, 100
2, 38400, Note_on_c, 0, 76, 0
2, 38400, Note_on_c, 0, 71, 100
2, 38520, Note_on_c, 0, 71, 0
2, 38520, Note_on_c, 0, 75, 100
2, 38640, Note_on_c, 0, 75, 0
2, 38640, Note_on_c, 0, 78, 100
2, 38760, Note_on_c, 0, 78, 0
2, 38760, Note_on_c, 0, 83, 100
2, 38880, Note_on_c, 0, 83, 0
2, 38880, Note_on_c, 0, 78, 100
2, 39000, Note_on_c, 0, 78, 0
2, 39000, Note_on_c, 0, 76, 100
2, 39120, Note_on_c, 0, 76, 0
2, 39120, Note_on_c, 0, 75, 100
2, 39240, Note_on_c, 0, 75, 0
2, 39240, Note_on_c, 0, 73, 100
2, 39360, Note_on_c, 0, 73, 0
2, 39360, Note_on_c, 0, 71, 100
2, 39480, Note_on_c, 0, 71, 0
2, 39480, Note_on_c, 0, 75, 100
2, 39600, Note_on_c, 0, 75, 0
2, 39600, Note_on_c, 0, 78, 100
2, 39720, Note_on_c, 0, 78, 0
2, 39720, Note_on_c, 0, 81, 100
2, 39840, Note_on_c, 0, 81, 0
2, 39840, Note_on_c, 0, 78, 100
2, 39960, Note_on_c, 0, 78, 0
2, 39960, Note_on_c, 0, 76, 100
2, 40080, Note_on_c, 0, 76, 0
2, 40080, Note_on_c, 0, 75, 100
2, 40200, Note_on_c, 0, 75, 0
2, 40200, Note_on_c, 0, 73, 100
2, 40320, Note_on_c, 0, 73, 0
2, 40320, Note_on_c, 0, 71, 100
2, 40440, Note_on_c, 0, 71, 0
2, 40440, Note_on_c, 0, 75, 100
2, 40560, Note_on_c, 0, 75, 0
2, 40560, Note_on_c, 0, 76, 100
2, 40680, Note_on_c, 0, 76, 0
2, 40680, Note_on_c, 0, 79, 100
2, 40800, Note_on_c, 0, 79, 0
2, 40800, Note_on_c, 0, 76, 100
2, 40920, Note_on_c, 0, 76, 0
2, 40920, Note_on_c, 0, 74, 100
2, 41040, Note_on_c, 0, 74, 0
2, 41040, Note_on_c, 0, 72, 100
2, 41160, Note_on_c, 0, 72, 0
2, 41160, Note_on_c, 0, 71, 100
2, 41280, Note_on_c, 0, 71, 0
2, 41280, Note_on_c, 0, 69, 100
2, 41400, Note_on_c, 0, 69, 0
2, 41400, Note_on_c, 0, 71, 100
2, 41520, Note_on_c, 0, 71, 0
2, 41520, Note_on_c, 0, 72, 100
2, 41640, Note_on_c, 0, 72, 0
2, 41640, Note_on_c, 0, 78, 100
2, 41760, Note_on_c, 0, 78, 0
2, 41760, Note_on_c, 0, 72, 100
2, 41880, Note_on_c, 0, 72, 0
2, 41880, Note_on_c, 0, 71, 100
2, 42000, Note_on_c, 0, 71, 0
2, 42000, Note_on_c, 0, 69, 100
2, 42120, Note_on_c, 0, 69, 0
2, 42120, Note_on_c, 0, 67, 100
2, 42240, Note_on_c, 0, 67, 0
2, 42240, Note_on_c, 0, 66, 100
2, 42360, Note_on_c, 0, 66, 0
2, 42360, Note_on_c, 0, 67, 100
2, 42480, Note_on_c, 0, 67, 0
2, 42480, Note_on_c, 0, 69, 100
2, 42600, Note_on_c, 0, 69, 0
2, 42600, Note_on_c, 0, 72, 100
2, 42720, Note_on_c, 0, 72, 0
2, 42720, Note_on_c, 0, 69, 100
2, 42840, Note_on_c, 0, 69, 0
2, 42840, Note_on_c, 0, 67, 100
2, 42960, Note_on_c, 0, 67, 0
2, 42960, Note_on_c, 0, 66, 100
2, 43080, Note_on_c, 0, 66, 0
2, 43080, Note_on_c, 0, 64, 100
2, 43200, Note_on_c, 0, 64, 0
2, 43200, Note_on_c, 0, 63, 100
2, 43320, Note_on_c, 0, 63, 0
2, 43320, Note_on_c, 0, 66, 100
2, 43440, Note_on_c, 0, 66, 0
2, 43440, Note_on_c, 0, 69, 100
2, 43560, Note_on_c, 0, 69, 0
2, 43560, Note_on_c, 0, 72, 100
2, 43680, Note_on_c, 0, 72, 0
2, 43680, Note_on_c, 0, 71, 100
2, 43800, Note_on_c, 0, 71, 0
2, 43800, Note_on_c, 0, 69, 100
2, 43920, Note_on_c, 0, 69, 0
2, 43920, Note_on_c, 0, 67, 100
2, 44040, Note_on_c, 0, 67, 0
2, 44040, Note_on_c, 0, 66, 100
2, 44160, Note_on_c, 0, 66, 0
2, 44160, Note_on_c, 0, 67, 100
2, 44280, Note_on_c, 0, 67, 0
2, 44280, Note_on_c, 0, 71, 100
2, 44340, Note_on_c, 0, 71, 0
2, 44340, Note_on_c, 0, 67, 100
2, 44400, Note_on_c, 0, 67, 0
2, 44400, Note_on_c, 0, 64, 100
2, 44520, Note_on_c, 0, 64, 0
2, 44520, Note_on_c, 0, 59, 100
2, 44640, Note_on_c, 0, 59, 0
2, 44640, Note_on_c, 0, 66, 100
2, 44760, Note_on_c, 0, 66, 0
2, 44760, Note_on_c, 0, 69, 100
2, 44880, Note_on_c, 0, 69, 0
2, 44880, Note_on_c, 0, 76, 100
2, 45000, Note_on_c, 0, 76, 0
2, 45000, Note_on_c, 0, 75, 100
2, 45120, Note_on_c, 0, 75, 0
2, 45120, Control_c, 0, 1, 0
2, 45120, Note_on_c, 0, 76, 100
2, 45128, Control_c, 0, 1, 0
2, 45136, Control_c, 0, 1, 1
2, 45140, Control_c, 0, 1, 2
2, 45148, Control_c, 0, 1, 3
2, 45152, Control_c, 0, 1, 4
2, 45160, Control_c, 0, 1, 5
2, 45164, Control_c, 0, 1, 6
2, 45172, Control_c, 0, 1, 7
2, 45176, Control_c, 0, 1, 8
2, 45184, Control_c, 0, 1, 9
2, 45192, Control_c, 0, 1, 10
2, 45196, Control_c, 0, 1, 11
2, 45204, Control_c, 0, 1, 12
2, 45208, Control_c, 0, 1, 13
2, 45216, Control_c, 0, 1, 14
2, 45220, Control_c, 0, 1, 15
2, 45228, Control_c, 0, 1, 16
2, 45232, Control_c, 0, 1, 17
2, 45240, Control_c, 0, 1, 18
2, 45248, Control_c, 0, 1, 19
2, 45252, Control_c, 0, 1, 20
2, 45260, Control_c, 0, 1, 21
2, 45264, Control_c, 0, 1, 22
2, 45272, Control_c, 0, 1, 23
2, 45276, Control_c, 0, 1, 24
2, 45284, Control_c, 0, 1, 25
2, 45288, Control_c, 0, 1, 26
2, 45296, Control_c, 0, 1, 27
2, 45304, Control_c, 0, 1, 28
2, 45308, Control_c, 0, 1, 29
2, 45316, Control_c, 0, 1, 30
2, 45320, Control_c, 0, 1, 31
2, 45328, Control_c, 0, 1, 32
2, 45332, Control_c, 0, 1, 33
2, 45340, Control_c, 0, 1, 34
2, 45344, Control_c, 0, 1, 35
2, 45784, Control_c, 0, 1, 32
2, 45796, Control_c, 0, 1, 31
2, 45804, Control_c, 0, 1, 30
2, 45812, Control_c, 0, 1, 29
2, 45824, Control_c, 0, 1, 28
2, 45832, Control_c, 0, 1, 27
2, 45840, Control_c, 0, 1, 26
2, 45852, Control_c, 0, 1, 25
2, 45860, Control_c, 0, 1, 24
2, 45868, Control_c, 0, 1, 23
2, 45880, Control_c, 0, 1, 22
2, 45888, Control_c, 0, 1, 21
2, 45896, Control_c, 0, 1, 20
2, 45908, Control_c, 0, 1, 19
2, 45916, Control_c, 0, 1, 18
2, 45924, Control_c, 0, 1, 17
2, 45932, Control_c, 0, 1, 16
2, 45944, Control_c, 0, 1, 15
2, 45952, Control_c, 0, 1, 14
2, 45960, Control_c, 0, 1, 13
2, 45972, Control_c, 0, 1, 12
2, 45980, Control_c, 0, 1, 11
2, 45988, Control_c, 0, 1, 10
2, 46000, Control_c, 0, 1, 9
2, 46008, Control_c, 0, 1, 8
2, 46016, Control_c, 0, 1, 7
2, 46028, Control_c, 0, 1, 6
2, 46036, Control_c, 0, 1, 5
2, 46044, Control_c, 0, 1, 4
2, 46056, Control_c, 0, 1, 3
2, 46064, Control_c, 0, 1, 2
2, 46072, Control_c, 0, 1, 1
2, 46080, Note_on_c, 0, 76, 0
2, 46080, Note_on_c, 0, 69, 100
2, 46200, Note_on_c, 0, 69, 0
2, 46200, Note_on_c, 0, 72, 100
2, 46320, Note_on_c, 0, 72, 0
2, 46320, Note_on_c, 0, 76, 100
2, 46440, Note_on_c, 0, 76, 0
2, 46440, Note_on_c, 0, 81, 100
2, 46560, Note_on_c, 0, 81, 0
2, 46560, Note_on_c, 0, 76, 100
2, 46680, Note_on_c, 0, 76, 0
2, 46680, Note_on_c, 0, 74, 100
2, 46800, Note_on_c, 0, 74, 0
2, 46800, Note_on_c, 0, 72, 100
2, 46920, Note_on_c, 0, 72, 0
2, 46920, Note_on_c, 0, 71, 100
2, 47040, Note_on_c, 0, 71, 0
2, 48000, Note_on_c, 0, 69, 100
2, 48120, Note_on_c, 0, 69, 0
2, 48120, Note_on_c, 0, 72, 100
2, 48180, Note_on_c, 0, 72, 0
2, 48180, Note_on_c, 0, 74, 100
2, 48240, Note_on_c, 0, 74, 0
2, 48240, Note_on_c, 0, 76, 100
2, 48360, Note_on_c, 0, 76, 0
2, 48360, Note_on_c, 0, 64, 100
2, 48480, Note_on_c, 0, 64, 0
2, 48480, Note_on_c, 0, 69, 100
2, 48600, Note_on_c, 0, 69, 0
2, 48600, Note_on_c, 0, 72, 100
2, 48720, Note_on_c, 0, 72, 0
2, 48720, Note_on_c, 0, 76, 100
2, 48840, Note_on_c, 0, 76, 0
2, 48840, Note_on_c, 0, 68, 100
2, 48960, Note_on_c, 0, 68, 0
2, 49920, Note_on_c, 0, 69, 100
2, 50040, Note_on_c, 0, 69, 0
2, 50040, Note_on_c, 0, 71, 100
2, 50100, Note_on_c, 0, 71, 0
2, 50100, Note_on_c, 0, 72, 100
2, 50160, Note_on_c, 0, 72, 0
2, 50160, Note_on_c, 0, 74, 100
2, 50280, Note_on_c, 0, 74, 0
2, 50280, Note_on_c, 0, 72, 100
2, 50340, Note_on_c, 0, 72, 0
2, 50340, Note_on_c, 0, 71, 100
2, 50400, Note_on_c, 0, 71, 0
2, 50400, Note_on_c, 0, 72, 100
2, 50520, Note_on_c, 0, 72, 0
2, 50520, Note_on_c, 0, 74, 100
2, 50580, Note_on_c, 0, 74, 0
2, 50580, Note_on_c, 0, 76, 100
2, 50640, Note_on_c, 0, 76, 0
2, 50640, Note_on_c, 0, 77, 100
2, 50760, Note_on_c, 0, 77, 0
2, 50760, Note_on_c, 0, 76, 100
2, 50820, Note_on_c, 0, 76, 0
2, 50820, Note_on_c, 0, 74, 100
2, 50880, Note_on_c, 0, 74, 0
2, 50880, Note_on_c, 0, 76, 100
2, 51000, Note_on_c, 0, 76, 0
2, 51000, Note_on_c, 0, 81, 100
2, 51120, Note_on_c, 0, 81, 0
2, 51120, Note_on_c, 0, 77, 100
2, 51240, Note_on_c, 0, 77, 0
2, 51240, Note_on_c, 0, 74, 100
2, 51360, Note_on_c, 0, 74, 0
2, 51360, Note_on_c, 0, 76, 100
2, 51480, Note_on_c, 0, 76, 0
2, 51480, Note_on_c, 0, 74, 100
2, 51600, Note_on_c, 0, 74, 0
2, 51600, Note_on_c, 0, 72, 100
2, 51720, Note_on_c, 0, 72, 0
2, 51720, Note_on_c, 0, 71, 100
2, 51840, Note_on_c, 0, 71, 0
2, 53760, Note_on_c, 0, 69, 100
2, 53880, Note_on_c, 0, 69, 0
2, 53880, Note_on_c, 0, 72, 100
2, 54000, Note_on_c, 0, 72, 0
2, 54000, Note_on_c, 0, 76, 100
2, 54120, Note_on_c, 0, 76, 0
2, 54120, Note_on_c, 0, 81, 100
2, 54240, Note_on_c, 0, 81, 0
2, 54240, Note_on_c, 0, 84, 100
2, 54360, Note_on_c, 0, 84, 0
2, 54360, Note_on_c, 0, 76, 100
2, 54480, Note_on_c, 0, 76, 0
2, 54480, Note_on_c, 0, 72, 100
2, 54600, Note_on_c, 0, 72, 0
2, 54600, Note_on_c, 0, 69, 100
2, 54720, Note_on_c, 0, 69, 0
2, 54720, Note_on_c, 0, 68, 100
2, 54840, Note_on_c, 0, 68, 0
2, 54840, Note_on_c, 0, 71, 100
2, 54960, Note_on_c, 0, 71, 0
2, 54960, Note_on_c, 0, 76, 100
2, 55080, Note_on_c, 0, 76, 0
2, 55080, Note_on_c, 0, 80, 100
2, 55200, Note_on_c, 0, 80, 0
2, 55200, Note_on_c, 0, 83, 100
2, 55320, Note_on_c, 0, 83, 0
2, 55320, Note_on_c, 0, 74, 100
2, 55440, Note_on_c, 0, 74, 0
2, 55440, Note_on_c, 0, 72, 100
2, 55560, Note_on_c, 0, 72, 0
2, 55560, Note_on_c, 0, 71, 100
2, 55680, Note_on_c, 0, 71, 0
2, 57600, Note_on_c, 0, 69, 100
2, 57720, Note_on_c, 0, 69, 0
2, 57720, Note_on_c, 0, 72, 100
2, 57840, Note_on_c, 0, 72, 0
2, 57840, Note_on_c, 0, 76, 100
2, 57960, Note_on_c, 0, 76, 0
2, 57960, Note_on_c, 0, 79, 100
2, 58080, Note_on_c, 0, 79, 0
2, 58080, Note_on_c, 0, 77, 100
2, 58200, Note_on_c, 0, 77, 0
2, 58200, Note_on_c, 0, 72, 100
2, 58320, Note_on_c, 0, 72, 0
2, 58320, Note_on_c, 0, 71, 100
2, 58440, Note_on_c, 0, 71, 0
2, 58440, Note_on_c, 0, 69, 100
2, 58560, Note_on_c, 0, 69, 0
2, 58560, Note_on_c, 0, 67, 100
2, 58680, Note_on_c, 0, 67, 0
2, 58680, Note_on_c, 0, 71, 100
2, 58800, Note_on_c, 0, 71, 0
2, 58800, Note_on_c, 0, 74, 100
2, 58920, Note_on_c, 0, 74, 0
2, 58920, Note_on_c, 0, 77, 100
2, 59040, Note_on_c, 0, 77, 0
2, 59040, Note_on_c, 0, 76, 100
2, 59160, Note_on_c, 0, 76, 0
2, 59160, Note_on_c, 0, 71, 100
2, 59280, Note_on_c, 0, 71, 0
2, 59280, Note_on_c, 0, 69, 100
2, 59400, Note_on_c, 0, 69, 0
2, 59400, Note_on_c, 0, 67, 100
2, 59520, Note_on_c, 0, 67, 0
2, 59520, Note_on_c, 0, 65, 100
2, 59640, Note_on_c, 0, 65, 0
2, 59640, Note_on_c, 0, 69, 100
2, 59760, Note_on_c, 0, 69, 0
2, 59760, Note_on_c, 0, 72, 100
2, 59880, Note_on_c, 0, 72, 0
2, 59880, Note_on_c, 0, 76, 100
2, 60000, Note_on_c, 0, 76, 0
2, 60000, Note_on_c, 0, 74, 100
2, 60120, Note_on_c, 0, 74, 0
2, 60120, Note_on_c, 0, 72, 100
2, 60240, Note_on_c, 0, 72, 0
2, 60240, Note_on_c, 0, 71, 100
2, 60360, Note_on_c, 0, 71, 0
2, 60360, Note_on_c, 0, 69, 100
2, 60480, Note_on_c, 0, 69, 0
2, 60480, Note_on_c, 0, 68, 100
2, 60600, Note_on_c, 0, 68, 0
2, 60600, Note_on_c, 0, 76, 100
2, 60720, Note_on_c, 0, 76, 0
2, 60720, Note_on_c, 0, 71, 100
2, 60840, Note_on_c, 0, 71, 0
2, 60840, Note_on_c, 0, 68, 100
2, 60960, Note_on_c, 0, 68, 0
2, 60960, Note_on_c, 0, 64, 100
2, 61080, Note_on_c, 0, 64, 0
2, 61080, Note_on_c, 0, 65, 100
2, 61200, Note_on_c, 0, 65, 0
2, 61200, Note_on_c, 0, 62, 100
2, 61320, Note_on_c, 0, 62, 0
2, 61320, Note_on_c, 0, 64, 100
2, 61440, Note_on_c, 0, 64, 0
2, 61440, Note_on_c, 0, 61, 100
2, 61560, Note_on_c, 0, 61, 0
2, 61560, Note_on_c, 0, 69, 100
2, 61680, Note_on_c, 0, 69, 0
2, 61680, Note_on_c, 0, 76, 100
2, 61800, Note_on_c, 0, 76, 0
2, 61800, Note_on_c, 0, 67, 100
2, 61920, Note_on_c, 0, 67, 0
2, 61920, Note_on_c, 0, 65, 100
2, 62040, Note_on_c, 0, 65, 0
2, 62040, Note_on_c, 0, 62, 100
2, 62160, Note_on_c, 0, 62, 0
2, 62160, Note_on_c, 0, 65, 100
2, 62280, Note_on_c, 0, 65, 0
2, 62280, Note_on_c, 0, 60, 100
2, 62400, Note_on_c, 0, 60, 0
2, 62400, Note_on_c, 0, 59, 100
2, 62520, Note_on_c, 0, 59, 0
2, 62520, Note_on_c, 0, 67, 100
2, 62640, Note_on_c, 0, 67, 0
2, 62640, Note_on_c, 0, 74, 100
2, 62760, Note_on_c, 0, 74, 0
2, 62760, Note_on_c, 0, 65, 100
2, 62880, Note_on_c, 0, 65, 0
2, 62880, Note_on_c, 0, 64, 100
2, 63000, Note_on_c, 0, 64, 0
2, 63000, Note_on_c, 0, 60, 100
2, 63120, Note_on_c, 0, 60, 0
2, 63120, Note_on_c, 0, 64, 100
2, 63240, Note_on_c, 0, 64, 0
2, 63240, Note_on_c, 0, 59, 100
2, 63360, Note_on_c, 0, 59, 0
2, 63360, Note_on_c, 0, 57, 100
2, 63480, Note_on_c, 0, 57, 0
2, 63480, Note_on_c, 0, 65, 100
2, 63600, Note_on_c, 0, 65, 0
2, 63600, Note_on_c, 0, 72, 100
2, 63720, Note_on_c, 0, 72, 0
2, 63720, Note_on_c, 0, 64, 100
2, 63840, Note_on_c, 0, 64, 0
2, 63840, Note_on_c, 0, 62, 100
2, 63960, Note_on_c, 0, 62, 0
2, 63960, Note_on_c, 0, 59, 100
2, 64080, Note_on_c, 0, 59, 0
2, 64080, Note_on_c, 0, 62, 100
2, 64200, Note_on_c, 0, 62, 0
2, 64200, Note_on_c, 0, 57, 100
2, 64320, Note_on_c, 0, 57, 0
2, 64320, Note_on_c, 0, 56, 100
2, 64440, Note_on_c, 0, 56, 0
2, 64440, Note_on_c, 0, 64, 100
2, 64560, Note_on_c, 0, 64, 0
2, 64560, Note_on_c, 0, 71, 100
2, 64680, Note_on_c, 0, 71, 0
2, 64680, Note_on_c, 0, 62, 100
2, 64800, Note_on_c, 0, 62, 0
2, 64800, Note_on_c, 0, 60, 100
2, 64920, Note_on_c, 0, 60, 0
2, 64920, Note_on_c, 0, 57, 100
2, 65040, Note_on_c, 0, 57, 0
2, 65040, Note_on_c, 0, 62, 100
2, 65160, Note_on_c, 0, 62, 0
2, 65160, Note_on_c, 0, 59, 100
2, 65280, Note_on_c, 0, 59, 0
2, 65280, Note_on_c, 0, 64, 100
2, 65400, Note_on_c, 0, 64, 0
2, 65400, Note_on_c, 0, 60, 100
2, 65520, Note_on_c, 0, 60, 0
2, 65520, Note_on_c, 0, 57, 100
2, 65640, Note_on_c, 0, 57, 0
2, 65640, Note_on_c, 0, 60, 100
2, 65760, Note_on_c, 0, 60, 0
2, 65760, Note_on_c, 0, 64, 100
2, 65880, Note_on_c, 0, 64, 0
2, 65880, Note_on_c, 0, 69, 100
2, 66000, Note_on_c, 0, 69, 0
2, 66000, Note_on_c, 0, 72, 100
2, 66120, Note_on_c, 0, 72, 0
2, 66120, Note_on_c, 0, 64, 100
2, 66240, Note_on_c, 0, 64, 0
2, 66240, Note_on_c, 0, 63, 100
2, 66360, Note_on_c, 0, 63, 0
2, 66360, Note_on_c, 0, 72, 100
2, 66480, Note_on_c, 0, 72, 0
2, 66480, Note_on_c, 0, 71, 100
2, 66600, Note_on_c, 0, 71, 0
2, 66600, Note_on_c, 0, 69, 100
2, 66720, Note_on_c, 0, 69, 0
2, 66720, Note_on_c, 0, 78, 100
2, 66840, Note_on_c, 0, 78, 0
2, 66840, Note_on_c, 0, 69, 100
2, 66960, Note_on_c, 0, 69, 0
2, 66960, Note_on_c, 0, 67, 100
2, 67080, Note_on_c, 0, 67, 0
2, 67080, Note_on_c, 0, 66, 100
2, 67200, Note_on_c, 0, 66, 0
2, 67200, Note_on_c, 0, 64, 100
2, 67320, Note_on_c, 0, 64, 0
2, 67320, Note_on_c, 0, 59, 100
2, 67440, Note_on_c, 0, 59, 0
2, 67440, Note_on_c, 0, 55, 100
2, 67560, Note_on_c, 0, 55, 0
2, 67560, Note_on_c, 0, 59, 100
2, 67680, Note_on_c, 0, 59, 0
2, 67680, Note_on_c, 0, 64, 100
2, 67800, Note_on_c, 0, 64, 0
2, 67800, Note_on_c, 0, 67, 100
2, 67920, Note_on_c, 0, 67, 0
2, 67920, Note_on_c, 0, 71, 100
2, 68040, Note_on_c, 0, 71, 0
2, 68040, Note_on_c, 0, 62, 100
2, 68160, Note_on_c, 0, 62, 0
2, 68160, Note_on_c, 0, 61, 100
2, 68280, Note_on_c, 0, 61, 0
2, 68280, Note_on_c, 0, 71, 100
2, 68400, Note_on_c, 0, 71, 0
2, 68400, Note_on_c, 0, 69, 100
2, 68520, Note_on_c, 0, 69, 0
2, 68520, Note_on_c, 0, 67, 100
2, 68640, Note_on_c, 0, 67, 0
2, 68640, Note_on_c, 0, 76, 100
2, 68760, Note_on_c, 0, 76, 0
2, 68760, Note_on_c, 0, 79, 100
2, 68880, Note_on_c, 0, 79, 0
2, 68880, Note_on_c, 0, 78, 100
2, 69000, Note_on_c, 0, 78, 0
2, 69000, Note_on_c, 0, 76, 100
2, 69120, Note_on_c, 0, 76, 0
2, 69120, Note_on_c, 0, 75, 100
2, 69240, Note_on_c, 0, 75, 0
2, 69240, Note_on_c, 0, 69, 100
2, 69360, Note_on_c, 0, 69, 0
2, 69360, Note_on_c, 0, 66, 100
2, 69480, Note_on_c, 0, 66, 0
2, 69480, Note_on_c, 0, 69, 100
2, 69600, Note_on_c, 0, 69, 0
2, 69600, Note_on_c, 0, 75, 100
2, 69720, Note_on_c, 0, 75, 0
2, 69720, Note_on_c, 0, 78, 100
2, 69840, Note_on_c, 0, 78, 0
2, 69840, Note_on_c, 0, 81, 100
2, 69960, Note_on_c, 0, 81, 0
2, 69960, Note_on_c, 0, 72, 100
2, 70080, Note_on_c, 0, 72, 0
2, 70080, Note_on_c, 0, 71, 100
2, 70200, Note_on_c, 0, 71, 0
2, 70200, Note_on_c, 0, 66, 100
2, 70320, Note_on_c, 0, 66, 0
2, 70320, Note_on_c, 0, 63, 100
2, 70440, Note_on_c, 0, 63, 0
2, 70440, Note_on_c, 0, 66, 100
2, 70560, Note_on_c, 0, 66, 0
2, 70560, Note_on_c, 0, 71, 100
2, 70680, Note_on_c, 0, 71, 0
2, 70680, Note_on_c, 0, 75, 100
2, 70800, Note_on_c, 0, 75, 0
2, 70800, Note_on_c, 0, 78, 100
2, 70920, Note_on_c, 0, 78, 0
2, 70920, Note_on_c, 0, 81, 100
2, 71040, Note_on_c, 0, 81, 0
2, 71040, Note_on_c, 0, 79, 100
2, 71160, Note_on_c, 0, 79, 0
2, 71160, Note_on_c, 0, 83, 100
2, 71220, Note_on_c, 0, 83, 0
2, 71220, Note_on_c, 0, 81, 100
2, 71280, Note_on_c, 0, 81, 0
2, 71280, Note_on_c, 0, 79, 100
2, 71400, Note_on_c, 0, 79, 0
2, 71400, Note_on_c, 0, 78, 100
2, 71520, Note_on_c, 0, 78, 0
2, 71520, Note_on_c, 0, 76, 100
2, 71640, Note_on_c, 0, 76, 0
2, 71640, Note_on_c, 0, 84, 100
2, 71760, Note_on_c, 0, 84, 0
2, 71760, Note_on_c, 0, 69, 100
2, 71880, Note_on_c, 0, 69, 0
2, 71880, Note_on_c, 0, 71, 100
2, 71940, Note_on_c, 0, 71, 0
2, 71940, Note_on_c, 0, 72, 100
2, 72000, Note_on_c, 0, 72, 0
2, 72000, Note_on_c, 0, 62, 100
2, 72120, Note_on_c, 0, 62, 0
2, 72120, Note_on_c, 0, 81, 100
2, 72180, Note_on_c, 0, 81, 0
2, 72180, Note_on_c, 0, 79, 100
2, 72240, Note_on_c, 0, 79, 0
2, 72240, Note_on_c, 0, 78, 100
2, 72360, Note_on_c, 0, 78, 0
2, 72360, Note_on_c, 0, 76, 100
2, 72480, Note_on_c, 0, 76, 0
2, 72480, Note_on_c, 0, 74, 100
2, 72600, Note_on_c, 0, 74, 0
2, 72600, Note_on_c, 0, 83, 100
2, 72720, Note_on_c, 0, 83, 0
2, 72720, Note_on_c, 0, 67, 100
2, 72840, Note_on_c, 0, 67, 0
2, 72840, Note_on_c, 0, 69, 100
2, 72900, Note_on_c, 0, 69, 0
2, 72900, Note_on_c, 0, 71, 100
2, 72960, Note_on_c, 0, 71, 0
2, 72960, Note_on_c, 0, 60, 100
2, 73080, Note_on_c, 0, 60, 0
2, 73080, Note_on_c, 0, 79, 100
2, 73140, Note_on_c, 0, 79, 0
2, 73140, Note_on_c, 0, 78, 100
2, 73200, Note_on_c, 0, 78, 0
2, 73200, Note_on_c, 0, 76, 100
2, 73320, Note_on_c, 0, 76, 0
2, 73320, Note_on_c, 0, 74, 100
2, 73440, Note_on_c, 0, 74, 0
2, 73440, Note_on_c, 0, 72, 100
2, 73560, Note_on_c, 0, 72, 0
2, 73560, Note_on_c, 0, 81, 100
2, 73620, Note_on_c, 0, 81, 0
2, 73620, Note_on_c, 0, 79, 100
2, 73680, Note_on_c, 0, 79, 0
2, 73680, Note_on_c, 0, 78, 100
2, 73800, Note_on_c, 0, 78, 0
2, 73800, Note_on_c, 0, 76, 100
2, 73920, Note_on_c, 0, 76, 0
2, 73920, Note_on_c, 0, 75, 100
2, 74040, Note_on_c, 0, 75, 0
2, 74040, Note_on_c, 0, 78, 100
2, 74100, Note_on_c, 0, 78, 0
2, 74100, Note_on_c, 0, 75, 100
2, 74160, Note_on_c, 0, 75, 0
2, 74160, Note_on_c, 0, 71, 100
2, 74280, Note_on_c, 0, 71, 0
2, 74280, Note_on_c, 0, 69, 100
2, 74400, Note_on_c, 0, 69, 0
2, 74400, Note_on_c, 0, 67, 100
2, 74520, Note_on_c, 0, 67, 0
2, 74520, Note_on_c, 0, 76, 100
2, 74640, Note_on_c, 0, 76, 0
2, 74640, Note_on_c, 0, 66, 100
2, 74760, Note_on_c, 0, 66, 0
2, 74760, Note_on_c, 0, 74, 100
2, 74880, Note_on_c, 0, 74, 0
2, 74880, Note_on_c, 0, 64, 100
2, 75000, Note_on_c, 0, 64, 0
2, 75000, Note_on_c, 0, 74, 100
2, 75060, Note_on_c, 0, 74, 0
2, 75060, Note_on_c, 0, 71, 100
2, 75120, Note_on_c, 0, 71, 0
2, 75120, Note_on_c, 0, 67, 100
2, 75240, Note_on_c, 0, 67, 0
2, 75240, Note_on_c, 0, 65, 100
2, 75360, Note_on_c, 0, 65, 0
2, 75360, Note_on_c, 0, 64, 100
2, 75480, Note_on_c, 0, 64, 0
2, 75480, Note_on_c, 0, 72, 100
2, 75600, Note_on_c, 0, 72, 0
2, 75600, Note_on_c, 0, 62, 100
2, 75720, Note_on_c, 0, 62, 0
2, 75720, Note_on_c, 0, 71, 100
2, 75840, Note_on_c, 0, 71, 0
2, 75840, Note_on_c, 0, 60, 100
2, 75960, Note_on_c, 0, 60, 0
2, 75960, Note_on_c, 0, 71, 100
2, 76020, Note_on_c, 0, 71, 0
2, 76020, Note_on_c, 0, 67, 100
2, 76080, Note_on_c, 0, 67, 0
2, 76080, Note_on_c, 0, 64, 100
2, 76200, Note_on_c, 0, 64, 0
2, 76200, Note_on_c, 0, 62, 100
2, 76320, Note_on_c, 0, 62, 0
2, 76320, Note_on_c, 0, 60, 100
2, 76440, Note_on_c, 0, 60, 0
2, 76440, Note_on_c, 0, 69, 100
2, 76560, Note_on_c, 0, 69, 0
2, 76560, Note_on_c, 0, 59, 100
2, 76680, Note_on_c, 0, 59, 0
2, 76680, Note_on_c, 0, 67, 100
2, 76800, Note_on_c, 0, 67, 0
2, 76800, Note_on_c, 0, 57, 100
2, 76920, Note_on_c, 0, 57, 0
2, 76920, Note_on_c, 0, 59, 100
2, 76980, Note_on_c, 0, 59, 0
2, 76980, Note_on_c, 0, 60, 100
2, 77040, Note_on_c, 0, 60, 0
2, 77040, Note_on_c, 0, 62, 100
2, 77160, Note_on_c, 0, 62, 0
2, 77160, Note_on_c, 0, 60, 100
2, 77220, Note_on_c, 0, 60, 0
2, 77220, Note_on_c, 0, 59, 100
2, 77280, Note_on_c, 0, 59, 0
2, 77280, Note_on_c, 0, 60, 100
2, 77400, Note_on_c, 0, 60, 0
2, 77400, Note_on_c, 0, 62, 100
2, 77460, Note_on_c, 0, 62, 0
2, 77460, Note_on_c, 0, 64, 100
2, 77520, Note_on_c, 0, 64, 0
2, 77520, Note_on_c, 0, 65, 100
2, 77640, Note_on_c, 0, 65, 0
2, 77640, Note_on_c, 0, 64, 100
2, 77700, Note_on_c, 0, 64, 0
2, 77700, Note_on_c, 0, 62, 100
2, 77760, Note_on_c, 0, 62, 0
2, 77760, Note_on_c, 0, 64, 100
2, 77880, Note_on_c, 0, 64, 0
2, 77880, Note_on_c, 0, 66, 100
2, 77940, Note_on_c, 0, 66, 0
2, 77940, Note_on_c, 0, 67, 100
2, 78000, Note_on_c, 0, 67, 0
2, 78000, Note_on_c, 0, 69, 100
2, 78120, Note_on_c, 0, 69, 0
2, 78120, Note_on_c, 0, 67, 100
2, 78180, Note_on_c, 0, 67, 0
2, 78180, Note_on_c, 0, 66, 100
2, 78240, Note_on_c, 0, 66, 0
2, 78240, Note_on_c, 0, 67, 100
2, 78360, Note_on_c, 0, 67, 0
2, 78360, Note_on_c, 0, 69, 100
2, 78420, Note_on_c, 0, 69, 0
2, 78420, Note_on_c, 0, 71, 100
2, 78480, Note_on_c, 0, 71, 0
2, 78480, Note_on_c, 0, 72, 100
2, 78600, Note_on_c, 0, 72, 0
2, 78600, Note_on_c, 0, 71, 100
2, 78660, Note_on_c, 0, 71, 0
2, 78660, Note_on_c, 0, 69, 100
2, 78720, Note_on_c, 0, 69, 0
2, 78720, Note_on_c, 0, 78, 100
2, 78840, Note_on_c, 0, 78, 0
2, 78840, Note_on_c, 0, 72, 100
2, 78960, Note_on_c, 0, 72, 0
2, 78960, Note_on_c, 0, 63, 100
2, 79080, Note_on_c, 0, 63, 0
2, 79080, Note_on_c, 0, 72, 100
2, 79200, Note_on_c, 0, 72, 0
2, 79200, Note_on_c, 0, 71, 100
2, 79320, Note_on_c, 0, 71, 0
2, 79320, Note_on_c, 0, 69, 100
2, 79440, Note_on_c, 0, 69, 0
2, 79440, Note_on_c, 0, 67, 100
2, 79560, Note_on_c, 0, 67, 0
2, 79560, Note_on_c, 0, 66, 100
2, 79680, Note_on_c, 0, 66, 0
2, 79680, Note_on_c, 0, 67, 100
2, 79800, Note_on_c, 0, 67, 0
2, 79800, Note_on_c, 0, 69, 100
2, 79920, Note_on_c, 0, 69, 0
2, 79920, Note_on_c, 0, 71, 100
2, 80040, Note_on_c, 0, 71, 0
2, 80040, Note_on_c, 0, 72, 100
2, 80160, Note_on_c, 0, 72, 0
2, 80160, Pitch_bend_c, 0, 12288
2, 80160, Note_on_c, 0, 66, 100
2, 80220, Pitch_bend_c, 0, 8192
2, 80280, Pitch_bend_c, 0, 12288
2, 80340, Pitch_bend_c, 0, 8192
2, 80520, Note_on_c, 0, 66, 0
2, 80520, Note_on_c, 0, 64, 100
2, 80640, Note_on_c, 0, 64, 0
2, 80640, Note_on_c, 0, 64, 100
2, 80760, Note_on_c, 0, 64, 0
2, 80760, Note_on_c, 0, 61, 100
2, 80820, Note_on_c, 0, 61, 0
2, 80820, Note_on_c, 0, 62, 100
2, 80880, Note_on_c, 0, 62, 0
2, 80880, Note_on_c, 0, 64, 100
2, 81000, Note_on_c, 0, 64, 0
2, 81000, Note_on_c, 0, 69, 100
2, 81120, Note_on_c, 0, 69, 0
2, 81120, Note_on_c, 0, 66, 100
2, 81240, Note_on_c, 0, 66, 0
2, 81240, Note_on_c, 0, 63, 100
2, 81300, Note_on_c, 0, 63, 0
2, 81300, Note_on_c, 0, 64, 100
2, 81360, Note_on_c, 0, 64, 0
2, 81360, Note_on_c, 0, 66, 100
2, 81480, Note_on_c, 0, 66, 0
2, 81480, Note_on_c, 0, 71, 100
2, 81600, Note_on_c, 0, 71, 0
2, 81600, Note_on_c, 0, 67, 100
2, 81720, Note_on_c, 0, 67, 0
2, 81720, Note_on_c, 0, 64, 100
2, 81780, Note_on_c, 0, 64, 0
2, 81780, Note_on_c, 0, 66, 100
2, 81840, Note_on_c, 0, 66, 0
2, 81840, Note_on_c, 0, 67, 100
2, 81960, Note_on_c, 0, 67, 0
2, 81960, Note_on_c, 0, 72, 100
2, 82080, Note_on_c, 0, 72, 0
2, 82080, Note_on_c, 0, 69, 100
2, 82200, Note_on_c, 0, 69, 0
2, 82200, Note_on_c, 0, 66, 100
2, 82260, Note_on_c, 0, 66, 0
2, 82260, Note_on_c, 0, 67, 100
2, 82320, Note_on_c, 0, 67, 0
2, 82320, Note_on_c, 0, 69, 100
2, 82440, Note_on_c, 0, 69, 0
2, 82440, Note_on_c, 0, 74, 100
2, 82560, Note_on_c, 0, 74, 0
2, 82560, Note_on_c, 0, 71, 100
2, 82680, Note_on_c, 0, 71, 0
2, 82680, Note_on_c, 0, 67, 100
2, 82800, Note_on_c, 0, 67, 0
2, 82800, Note_on_c, 0, 71, 100
2, 82920, Note_on_c, 0, 71, 0
2, 82920, Note_on_c, 0, 75, 100
2, 83040, Note_on_c, 0, 75, 0
2, 83040, Note_on_c, 0, 76, 100
2, 83160, Note_on_c, 0, 76, 0
2, 83160, Note_on_c, 0, 79, 100
2, 83280, Note_on_c, 0, 79, 0
2, 83280, Note_on_c, 0, 83, 100
2, 83400, Note_on_c, 0, 83, 0
2, 83400, Note_on_c, 0, 74, 100
2, 83520, Note_on_c, 0, 74, 0
2, 83520, Note_on_c, 0, 72, 100
2, 83640, Note_on_c, 0, 72, 0
2, 83640, Note_on_c, 0, 69, 100
2, 83760, Note_on_c, 0, 69, 0
2, 83760, Note_on_c, 0, 72, 100
2, 83880, Note_on_c, 0, 72, 0
2, 83880, Note_on_c, 0, 76, 100
2, 84000, Note_on_c, 0, 76, 0
2, 84000, Note_on_c, 0, 77, 100
2, 84120, Note_on_c, 0, 77, 0
2, 84120, Note_on_c, 0, 81, 100
2, 84240, Note_on_c, 0, 81, 0
2, 84240, Note_on_c, 0, 84, 100
2, 84360, Note_on_c, 0, 84, 0
2, 84360, Note_on_c, 0, 76, 100
2, 84480, Note_on_c, 0, 76, 0
2, 84480, Note_on_c, 0, 71, 100
2, 84600, Note_on_c, 0, 71, 0
2, 84600, Note_on_c, 0, 75, 100
2, 84720, Note_on_c, 0, 75, 0
2, 84720, Note_on_c, 0, 78, 100
2, 84840, Note_on_c, 0, 78, 0
2, 84840, Note_on_c, 0, 83, 100
2, 84960, Note_on_c, 0, 83, 0
2, 84960, Note_on_c, 0, 78, 100
2, 85080, Note_on_c, 0, 78, 0
2, 85080, Note_on_c, 0, 76, 100
2, 85200, Note_on_c, 0, 76, 0
2, 85200, Note_on_c, 0, 75, 100
2, 85320, Note_on_c, 0, 75, 0
2, 85320, Note_on_c, 0, 73, 100
2, 85440, Note_on_c, 0, 73, 0
2, 85440, Note_on_c, 0, 71, 100
2, 85560, Note_on_c, 0, 71, 0
2, 85560, Note_on_c, 0, 75, 100
2, 85680, Note_on_c, 0, 75, 0
2, 85680, Note_on_c, 0, 78, 100
2, 85800, Note_on_c, 0, 78, 0
2, 85800, Note_on_c, 0, 81, 100
2, 85920, Note_on_c, 0, 81, 0
2, 85920, Note_on_c, 0, 78, 100
2, 86040, Note_on_c, 0, 78, 0
2, 86040, Note_on_c, 0, 76, 100
2, 86160, Note_on_c, 0, 76, 0
2, 86160, Note_on_c, 0, 75, 100
2, 86280, Note_on_c, 0, 75, 0
2, 86280, Note_on_c, 0, 73, 100
2, 86400, Note_on_c, 0, 73, 0
2, 86400, Note_on_c, 0, 71, 100
2, 86520, Note_on_c, 0, 71, 0
2, 86520, Note_on_c, 0, 75, 100
2, 86640, Note_on_c, 0, 75, 0
2, 86640, Note_on_c, 0, 76, 100
2, 86760, Note_on_c, 0, 76, 0
2, 86760, Note_on_c, 0, 79, 100
2, 86880, Note_on_c, 0, 79, 0
2, 86880, Note_on_c, 0, 76, 100
2, 87000, Note_on_c, 0, 76, 0
2, 87000, Note_on_c, 0, 74, 100
2, 87120, Note_on_c, 0, 74, 0
2, 87120, Note_on_c, 0, 72, 100
2, 87240, Note_on_c, 0, 72, 0
2, 87240, Note_on_c, 0, 71, 100
2, 87360, Note_on_c, 0, 71, 0
2, 87360, Note_on_c, 0, 69, 100
2, 87480, Note_on_c, 0, 69, 0
2, 87480, Note_on_c, 0, 71, 100
2, 87600, Note_on_c, 0, 71, 0
2, 87600, Note_on_c, 0, 72, 100
2, 87720, Note_on_c, 0, 72, 0
2, 87720, Note_on_c, 0, 78, 100
2, 87840, Note_on_c, 0, 78, 0
2, 87840, Note_on_c, 0, 72, 100
2, 87960, Note_on_c, 0, 72, 0
2, 87960, Note_on_c, 0, 71, 100
2, 88080, Note_on_c, 0, 71, 0
2, 88080, Note_on_c, 0, 69, 100
2, 88200, Note_on_c, 0, 69, 0
2, 88200, Note_on_c, 0, 67, 100
2, 88320, Note_on_c, 0, 67, 0
2, 88320, Note_on_c, 0, 66, 100
2, 88440, Note_on_c, 0, 66, 0
2, 88440, Note_on_c, 0, 67, 100
2, 88560, Note_on_c, 0, 67, 0
2, 88560, Note_on_c, 0, 69, 100
2, 88680, Note_on_c, 0, 69, 0
2, 88680, Note_on_c, 0, 72, 100
2, 88800, Note_on_c, 0, 72, 0
2, 88800, Note_on_c, 0, 69, 100
2, 88920, Note_on_c, 0, 69, 0
2, 88920, Note_on_c, 0, 67, 100
2, 89040, Note_on_c, 0, 67, 0
2, 89040, Note_on_c, 0, 66, 100
2, 89160, Note_on_c, 0, 66, 0
2, 89160, Note_on_c, 0, 64, 100
2, 89280, Note_on_c, 0, 64, 0
2, 89280, Note_on_c, 0, 63, 100
2, 89400, Note_on_c, 0, 63, 0
2, 89400, Note_on_c, 0, 66, 100
2, 89520, Note_on_c, 0, 66, 0
2, 89520, Note_on_c, 0, 69, 100
2, 89640, Note_on_c, 0, 69, 0
2, 89640, Note_on_c, 0, 72, 100
2, 89760, Note_on_c, 0, 72, 0
2, 89760, Note_on_c, 0, 71, 100
2, 89880, Note_on_c, 0, 71, 0
2, 89880, Note_on_c, 0, 69, 100
2, 90000, Note_on_c, 0, 69, 0
2, 90000, Note_on_c, 0, 67, 100
2, 90120, Note_on_c, 0, 67, 0
2, 90120, Note_on_c, 0, 66, 100
2, 90240, Note_on_c, 0, 66, 0
2, 90240, Note_on_c, 0, 67, 100
2, 90360, Note_on_c, 0, 67, 0
2, 90360, Note_on_c, 0, 71, 100
2, 90420, Note_on_c, 0, 71, 0
2, 90420, Note_on_c, 0, 67, 100
2, 90480, Note_on_c, 0, 67, 0
2, 90480, Note_on_c, 0, 64, 100
2, 90600, Note_on_c, 0, 64, 0
2, 90600, Note_on_c, 0, 59, 100
2, 90720, Note_on_c, 0, 59, 0
2, 90720, Note_on_c, 0, 66, 100
2, 90840, Note_on_c, 0, 66, 0
2, 90840, Note_on_c, 0, 69, 100
2, 90960, Note_on_c, 0, 69, 0
2, 90960, Note_on_c, 0, 76, 100
2, 91080, Note_on_c, 0, 76, 0
2, 91080, Note_on_c, 0, 75, 100
2, 91200, Note_on_c, 0, 75, 0
2, 91200, Control_c, 0, 1, 0
2, 91200, Note_on_c, 0, 76, 100
2, 91208, Control_c, 0, 1, 0
2, 91216, Control_c, 0, 1, 1
2, 91220, Control_c, 0, 1, 2
2, 91228, Control_c, 0, 1, 3
2, 91232, Control_c, 0, 1, 4
2, 91240, Control_c, 0, 1, 5
2, 91244, Control_c, 0, 1, 6
2, 91252, Control_c, 0, 1, 7
2, 91256, Control_c, 0, 1, 8
2, 91264, Control_c, 0, 1, 9
2, 91272, Control_c, 0, 1, 10
2, 91276, Control_c, 0, 1, 11
2, 91284, Control_c, 0, 1, 12
2, 91288, Control_c, 0, 1, 13
2, 91296, Control_c, 0, 1, 14
2, 91300, Control_c, 0, 1, 15
2, 91308, Control_c, 0, 1, 16
2, 91312, Control_c, 0, 1, 17
2, 91320, Control_c, 0, 1, 18
2, 91328, Control_c, 0, 1, 19
2, 91332, Control_c, 0, 1, 20
2, 91340, Control_c, 0, 1, 21
2, 91344, Control_c, 0, 1, 22
2, 91352, Control_c, 0, 1, 23
2, 91356, Control_c, 0, 1, 24
2, 91364, Control_c, 0, 1, 25
2, 91368, Control_c, 0, 1, 26
2, 91376, Control_c, 0, 1, 27
2, 91384, Control_c, 0, 1, 28
2, 91388, Control_c, 0, 1, 29
2, 91396, Control_c, 0, 1, 30
2, 91400, Control_c, 0, 1, 31
2, 91408, Control_c, 0, 1, 32
2, 91412, Control_c, 0, 1, 33
2, 91420, Control_c, 0, 1, 34
2, 91424, Control_c, 0, 1, 35
2, 91864, Control_c, 0, 1, 32
2, 91876, Control_c, 0, 1, 31
2, 91884, Control_c, 0, 1, 30
2, 91892, Control_c, 0, 1, 29
2, 91904, Control_c, 0, 1, 28
2, 91912, Control_c, 0, 1, 27
2, 91920, Control_c, 0, 1, 26
2, 91932, Control_c, 0, 1, 25
2, 91940, Control_c, 0, 1, 24
2, 91948, Control_c, 0, 1, 23
2, 91960, Control_c, 0, 1, 22
2, 91968, Control_c, 0, 1, 21
2, 91976, Control_c, 0, 1, 20
2, 91988, Control_c, 0, 1, 19
2, 91996, Control_c, 0, 1, 18
2, 92004, Control_c, 0, 1, 17
2, 92012, Control_c, 0, 1, 16
2, 92024, Control_c, 0, 1, 15
2, 92032, Control_c, 0, 1, 14
2, 92040, Control_c, 0, 1, 13
2, 92052, Control_c, 0, 1, 12
2, 92060, Control_c, 0, 1, 11
2, 92068, Control_c, 0, 1, 10
2, 92080, Control_c, 0, 1, 9
2, 92088, Control_c, 0, 1, 8
2, 92096, Control_c, 0, 1, 7
2, 92108, Control_c, 0, 1, 6
2, 92116, Control_c, 0, 1, 5
2, 92124, Control_c, 0, 1, 4
2, 92136, Control_c, 0, 1, 3
2, 92144, Control_c, 0, 1, 2
2, 92152, Control_c, 0, 1, 1
2, 92160, Note_on_c, 0, 76, 0
2, 92160, Control_c, 0, 1, 0
2, 92160, Note_on_c, 0, 64, 100
2, 92280, Note_on_c, 0, 64, 0
2, 92280, Note_on_c, 0, 76, 100
2, 92400, Note_on_c, 0, 76, 0
2, 92400, Note_on_c, 0, 79, 100
2, 92520, Note_on_c, 0, 79, 0
2, 92520, Note_on_c, 0, 83, 100
2, 92640, Note_on_c, 0, 83, 0
2, 92640, Note_on_c, 0, 79, 100
2, 92760, Note_on_c, 0, 79, 0
2, 92760, Note_on_c, 0, 76, 100
2, 92880, Note_on_c, 0, 76, 0
2, 92880, Note_on_c, 0, 75, 100
2, 93000, Note_on_c, 0, 75, 0
2, 93000, Note_on_c, 0, 76, 100
2, 93120, Note_on_c, 0, 76, 0
2, 94080, Note_on_c, 0, 64, 100
2, 94200, Note_on_c, 0, 64, 0
2, 94200, Note_on_c, 0, 67, 100
2, 94260, Note_on_c, 0, 67, 0
2, 94260, Note_on_c, 0, 69, 100
2, 94320, Note_on_c, 0, 69, 0
2, 94320, Note_on_c, 0, 71, 100
2, 94440, Note_on_c, 0, 71, 0
2, 94440, Note_on_c, 0, 59, 100
2, 94560, Note_on_c, 0, 59, 0
2, 94560, Note_on_c, 0, 64, 100
2, 94680, Note_on_c, 0, 64, 0
2, 94680, Note_on_c, 0, 67, 100
2, 94800, Note_on_c, 0, 67, 0
2, 94800, Note_on_c, 0, 71, 100
2, 94920, Note_on_c, 0, 71, 0
2, 94920, Note_on_c, 0, 63, 100
2, 95040, Note_on_c, 0, 63, 0
2, 96000, Note_on_c, 0, 64, 100
2, 96120, Note_on_c, 0, 64, 0
2, 96120, Note_on_c, 0, 66, 100
2, 96180, Note_on_c, 0, 66, 0
2, 96180, Note_on_c, 0, 67, 100
2, 96240, Note_on_c, 0, 67, 0
2, 96240, Note_on_c, 0, 69, 100
2, 96360, Note_on_c, 0, 69, 0
2, 96360, Note_on_c, 0, 67, 100
2, 96420, Note_on_c, 0, 67, 0
2, 96420, Note_on_c, 0, 66, 100
2, 96480, Note_on_c, 0, 66, 0
2, 96480, Note_on_c, 0, 67, 100
2, 96600, Note_on_c, 0, 67, 0
2, 96600, Note_on_c, 0, 69, 100
2, 96660, Note_on_c, 0, 69, 0
2, 96660, Note_on_c, 0, 71, 100
2, 96720, Note_on_c, 0, 71, 0
2, 96720, Note_on_c, 0, 72, 100
2, 96840, Note_on_c, 0, 72, 0
2, 96840, Note_on_c, 0, 71, 100
2, 96900, Note_on_c, 0, 71, 0
2, 96900, Note_on_c, 0, 69, 100
2, 96960, Note_on_c, 0, 69, 0
2, 96960, Note_on_c, 0, 71, 100
2, 97080, Note_on_c, 0, 71, 0
2, 97080, Note_on_c, 0, 67, 100
2, 97140, Note_on_c, 0, 67, 0
2, 97140, Note_on_c, 0, 69, 100
2, 97200, Note_on_c, 0, 69, 0
2, 97200, Note_on_c, 0, 71, 100
2, 97320, Note_on_c, 0, 71, 0
2, 97320, Note_on_c, 0, 73, 100
2, 97380, Note_on_c, 0, 73, 0
2, 97380, Note_on_c, 0, 75, 100
2, 97440, Note_on_c, 0, 75, 0
2, 97440, Note_on_c, 0, 76, 100
2, 97560, Note_on_c, 0, 76, 0
2, 97560, Note_on_c, 0, 71, 100
2, 97620, Note_on_c, 0, 71, 0
2, 97620, Note_on_c, 0, 69, 100
2, 97680, Note_on_c, 0, 69, 0
2, 97680, Note_on_c, 0, 67, 100
2, 97800, Note_on_c, 0, 67, 0
2, 97800, Note_on_c, 0, 66, 100
2, 97920, Note_on_c, 0, 66, 0
2, 99840, Note_on_c, 0, 64, 100
2, 99960, Note_on_c, 0, 64, 0
2, 99960, Note_on_c, 0, 67, 100
2, 100080, Note_on_c, 0, 67, 0
2, 100080, Note_on_c, 0, 71, 100
2, 100200, Note_on_c, 0, 71, 0
2, 100200, Note_on_c, 0, 76, 100
2, 100320, Note_on_c, 0, 76, 0
2, 100320, Note_on_c, 0, 79, 100
2, 100440, Note_on_c, 0, 79, 0
2, 100440, Note_on_c, 0, 83, 100
2, 100560, Note_on_c, 0, 83, 0
2, 100560, Note_on_c, 0, 79, 100
2, 100680, Note_on_c, 0, 79, 0
2, 100680, Note_on_c, 0, 76, 100
2, 100800, Note_on_c, 0, 76, 0
2, 100800, Note_on_c, 0, 75, 100
2, 100920, Note_on_c, 0, 75, 0
2, 100920, Note_on_c, 0, 78, 100
2, 101040, Note_on_c, 0, 78, 0
2, 101040, Note_on_c, 0, 75, 100
2, 101160, Note_on_c, 0, 75, 0
2, 101160, Note_on_c, 0, 71, 100
2, 101280, Note_on_c, 0, 71, 0
2, 101280, Note_on_c, 0, 66, 100
2, 101400, Note_on_c, 0, 66, 0
2, 101400, Note_on_c, 0, 69, 100
2, 101520, Note_on_c, 0, 69, 0
2, 101520, Note_on_c, 0, 67, 100
2, 101640, Note_on_c, 0, 67, 0
2, 101640, Note_on_c, 0, 66, 100
2, 101760, Note_on_c, 0, 66, 0
2, 103680, Note_on_c, 0, 64, 100
2, 103800, Note_on_c, 0, 64, 0
2, 103800, Note_on_c, 0, 67, 100
2, 103920, Note_on_c, 0, 67, 0
2, 103920, Note_on_c, 0, 71, 100
2, 104040, Note_on_c, 0, 71, 0
2, 104040, Note_on_c, 0, 74, 100
2, 104160, Note_on_c, 0, 74, 0
2, 104160, Note_on_c, 0, 72, 100
2, 104280, Note_on_c, 0, 72, 0
2, 104280, Note_on_c, 0, 67, 100
2, 104400, Note_on_c, 0, 67, 0
2, 104400, Note_on_c, 0, 66, 100
2, 104520, Note_on_c, 0, 66, 0
2, 104520, Note_on_c, 0, 64, 100
2, 104640, Note_on_c, 0, 64, 0
2, 104640, Note_on_c, 0, 62, 100
2, 104760, Note_on_c, 0, 62, 0
2, 104760, Note_on_c, 0, 66, 100
2, 104880, Note_on_c, 0, 66, 0
2, 104880, Note_on_c, 0, 69, 100
2, 105000, Note_on_c, 0, 69, 0
2, 105000, Note_on_c, 0, 72, 100
2, 105120, Note_on_c, 0, 72, 0
2, 105120, Note_on_c, 0, 71, 100
2, 105240, Note_on_c, 0, 71, 0
2, 105240, Note_on_c, 0, 66, 100
2, 105360, Note_on_c, 0, 66, 0
2, 105360, Note_on_c, 0, 64, 100
2, 105480, Note_on_c, 0, 64, 0
2, 105480, Note_on_c, 0, 62, 100
2, 105600, Note_on_c, 0, 62, 0
2, 105600, Note_on_c, 0, 60, 100
2, 105720, Note_on_c, 0, 60, 0
2, 105720, Note_on_c, 0, 64, 100
2, 105840, Note_on_c, 0, 64, 0
2, 105840, Note_on_c, 0, 67, 100
2, 105960, Note_on_c, 0, 67, 0
2, 105960, Note_on_c, 0, 71, 100
2, 106080, Note_on_c, 0, 71, 0
2, 106080, Note_on_c, 0, 69, 100
2, 106200, Note_on_c, 0, 69, 0
2, 106200, Note_on_c, 0, 67, 100
2, 106320, Note_on_c, 0, 67, 0
2, 106320, Note_on_c, 0, 66, 100
2, 106440, Note_on_c, 0, 66, 0
2, 106440, Note_on_c, 0, 64, 100
2, 106560, Note_on_c, 0, 64, 0
2, 106560, Note_on_c, 0, 63, 100
2, 106680, Note_on_c, 0, 63, 0
2, 106680, Note_on_c, 0, 71, 100
2, 106800, Note_on_c, 0, 71, 0
2, 106800, Note_on_c, 0, 66, 100
2, 106920, Note_on_c, 0, 66, 0
2, 106920, Note_on_c, 0, 63, 100
2, 107040, Note_on_c, 0, 63, 0
2, 107040, Note_on_c, 0, 59, 100
2, 107160, Note_on_c, 0, 59, 0
2, 107160, Note_on_c, 0, 60, 100
2, 107280, Note_on_c, 0, 60, 0
2, 107280, Note_on_c, 0, 57, 100
2, 107400, Note_on_c, 0, 57, 0
2, 107400, Note_on_c, 0, 59, 100
2, 107520, Note_on_c, 0, 59, 0
2, 107520, Note_on_c, 0, 55, 100
2, 107640, Note_on_c, 0, 55, 0
2, 107640, Note_on_c, 0, 64, 100
2, 107700, Note_on_c, 0, 64, 0
2, 107700, Note_on_c, 0, 66, 100
2, 107760, Note_on_c, 0, 66, 0
2, 107760, Note_on_c, 0, 67, 100
2, 107880, Note_on_c, 0, 67, 0
2, 107880, Note_on_c, 0, 71, 100
2, 108000, Note_on_c, 0, 71, 0
2, 108000, Note_on_c, 0, 76, 100
2, 108120, Note_on_c, 0, 76, 0
2, 108120, Note_on_c, 0, 78, 100
2, 108240, Note_on_c, 0, 78, 0
2, 108240, Note_on_c, 0, 74, 100
2, 108360, Note_on_c, 0, 74, 0
2, 108360, Note_on_c, 0, 76, 100
2, 108480, Note_on_c, 0, 76, 0
2, 108480, Note_on_c, 0, 72, 100
2, 108600, Note_on_c, 0, 72, 0
2, 108600, Note_on_c, 0, 76, 100
2, 108660, Note_on_c, 0, 76, 0
2, 108660, Note_on_c, 0, 74, 100
2, 108720, Note_on_c, 0, 74, 0
2, 108720, Note_on_c, 0, 72, 100
2, 108840, Note_on_c, 0, 72, 0
2, 108840, Note_on_c, 0, 71, 100
2, 108960, Note_on_c, 0, 71, 0
2, 108960, Note_on_c, 0, 69, 100
2, 109080, Note_on_c, 0, 69, 0
2, 109080, Note_on_c, 0, 71, 100
2, 109200, Note_on_c, 0, 71, 0
2, 109200, Note_on_c, 0, 67, 100
2, 109320, Note_on_c, 0, 67, 0
2, 109320, Note_on_c, 0, 69, 100
2, 109440, Note_on_c, 0, 69, 0
2, 109440, Note_on_c, 0, 66, 100
2, 109560, Note_on_c, 0, 66, 0
2, 109560, Note_on_c, 0, 62, 100
2, 109620, Note_on_c, 0, 62, 0
2, 109620, Note_on_c, 0, 64, 100
2, 109680, Note_on_c, 0, 64, 0
2, 109680, Note_on_c, 0, 66, 100
2, 109800, Note_on_c, 0, 66, 0
2, 109800, Note_on_c, 0, 69, 100
2, 109920, Note_on_c, 0, 69, 0
2, 109920, Note_on_c, 0, 74, 100
2, 110040, Note_on_c, 0, 74, 0
2, 110040, Note_on_c, 0, 76, 100
2, 110160, Note_on_c, 0, 76, 0
2, 110160, Note_on_c, 0, 72, 100
2, 110280, Note_on_c, 0, 72, 0
2, 110280, Note_on_c, 0, 74, 100
2, 110400, Note_on_c, 0, 74, 0
2, 110400, Note_on_c, 0, 71, 100
2, 110520, Note_on_c, 0, 71, 0
2, 110520, Note_on_c, 0, 67, 100
2, 110580, Note_on_c, 0, 67, 0
2, 110580, Note_on_c, 0, 69, 100
2, 110640, Note_on_c, 0, 69, 0
2, 110640, Note_on_c, 0, 71, 100
2, 110760, Note_on_c, 0, 71, 0
2, 110760, Note_on_c, 0, 74, 100
2, 110880, Note_on_c, 0, 74, 0
2, 110880, Note_on_c, 0, 79, 100
2, 111000, Note_on_c, 0, 79, 0
2, 111000, Note_on_c, 0, 81, 100
2, 111120, Note_on_c, 0, 81, 0
2, 111120, Note_on_c, 0, 78, 100
2, 111240, Note_on_c, 0, 78, 0
2, 111240, Note_on_c, 0, 79, 100
2, 111360, Note_on_c, 0, 79, 0
2, 111360, Note_on_c, 0, 76, 100
2, 111480, Note_on_c, 0, 76, 0
2, 111480, Note_on_c, 0, 79, 100
2, 111600, Note_on_c, 0, 79, 0
2, 111600, Note_on_c, 0, 76, 100
2, 111720, Note_on_c, 0, 76, 0
2, 111720, Note_on_c, 0, 71, 100
2, 111840, Note_on_c, 0, 71, 0
2, 111840, Note_on_c, 0, 72, 100
2, 111960, Note_on_c, 0, 72, 0
2, 111960, Note_on_c, 0, 64, 100
2, 112080, Note_on_c, 0, 64, 0
2, 112080, Note_on_c, 0, 67, 100
2, 112200, Note_on_c, 0, 67, 0
2, 112200, Note_on_c, 0, 72, 100
2, 112320, Note_on_c, 0, 72, 0
2, 112320, Note_on_c, 0, 74, 100
2, 112440, Note_on_c, 0, 74, 0
2, 112440, Note_on_c, 0, 79, 100
2, 112560, Note_on_c, 0, 79, 0
2, 112560, Note_on_c, 0, 74, 100
2, 112680, Note_on_c, 0, 74, 0
2, 112680, Note_on_c, 0, 69, 100
2, 112800, Note_on_c, 0, 69, 0
2, 112800, Note_on_c, 0, 71, 100
2, 112920, Note_on_c, 0, 71, 0
2, 112920, Note_on_c, 0, 62, 100
2, 113040, Note_on_c, 0, 62, 0
2, 113040, Note_on_c, 0, 67, 100
2, 113160, Note_on_c, 0, 67, 0
2, 113160, Note_on_c, 0, 71, 100
2, 113280, Note_on_c, 0, 71, 0
2, 113280, Note_on_c, 0, 72, 100
2, 113400, Note_on_c, 0, 72, 0
2, 113400, Note_on_c, 0, 79, 100
2, 113520, Note_on_c, 0, 79, 0
2, 113520, Note_on_c, 0, 72, 100
2, 113640, Note_on_c, 0, 72, 0
2, 113640, Note_on_c, 0, 69, 100
2, 113760, Note_on_c, 0, 69, 0
2, 113760, Note_on_c, 0, 62, 100
2, 113880, Note_on_c, 0, 62, 0
2, 113880, Note_on_c, 0, 78, 100
2, 113940, Note_on_c, 0, 78, 0
2, 113940, Note_on_c, 0, 79, 100
2, 114000, Note_on_c, 0, 79, 0
2, 114000, Note_on_c, 0, 81, 100
2, 114120, Note_on_c, 0, 81, 0
2, 114120, Note_on_c, 0, 72, 100
2, 114240, Note_on_c, 0, 72, 0
2, 114240, Note_on_c, 0, 71, 100
2, 114360, Note_on_c, 0, 71, 0
2, 114360, Note_on_c, 0, 79, 100
2, 114480, Note_on_c, 0, 79, 0
2, 114480, Note_on_c, 0, 74, 100
2, 114600, Note_on_c, 0, 74, 0
2, 114600, Note_on_c, 0, 71, 100
2, 114720, Note_on_c, 0, 71, 0
2, 114720, Note_on_c, 0, 67, 100
2, 114840, Note_on_c, 0, 67, 0
2, 114840, Note_on_c, 0, 69, 100
2, 114960, Note_on_c, 0, 69, 0
2, 114960, Note_on_c, 0, 65, 100
2, 115080, Note_on_c, 0, 65, 0
2, 115080, Note_on_c, 0, 67, 100
2, 115200, Note_on_c, 0, 67, 0
2, 115200, Note_on_c, 0, 64, 100
2, 115320, Note_on_c, 0, 64, 0
2, 115320, Note_on_c, 0, 72, 100
2, 115440, Note_on_c, 0, 72, 0
2, 115440, Note_on_c, 0, 79, 100
2, 115560, Note_on_c, 0, 79, 0
2, 115560, Note_on_c, 0, 70, 100
2, 115680, Note_on_c, 0, 70, 0
2, 115680, Note_on_c, 0, 69, 100
2, 115800, Note_on_c, 0, 69, 0
2, 115800, Note_on_c, 0, 65, 100
2, 115920, Note_on_c, 0, 65, 0
2, 115920, Note_on_c, 0, 69, 100
2, 116040, Note_on_c, 0, 69, 0
2, 116040, Note_on_c, 0, 64, 100
2, 116160, Note_on_c, 0, 64, 0
2, 116160, Note_on_c, 0, 62, 100
2, 116280, Note_on_c, 0, 62, 0
2, 116280, Note_on_c, 0, 71, 100
2, 116400, Note_on_c, 0, 71, 0
2, 116400, Note_on_c, 0, 77, 100
2, 116520, Note_on_c, 0, 77, 0
2, 116520, Note_on_c, 0, 69, 100
2, 116640, Note_on_c, 0, 69, 0
2, 116640, Note_on_c, 0, 67, 100
2, 116760, Note_on_c, 0, 67, 0
2, 116760, Note_on_c, 0, 64, 100
2, 116880, Note_on_c, 0, 64, 0
2, 116880, Note_on_c, 0, 67, 100
2, 117000, Note_on_c, 0, 67, 0
2, 117000, Note_on_c, 0, 62, 100
2, 117120, Note_on_c, 0, 62, 0
2, 117120, Note_on_c, 0, 60, 100
2, 117240, Note_on_c, 0, 60, 0
2, 117240, Note_on_c, 0, 69, 100
2, 117360, Note_on_c, 0, 69, 0
2, 117360, Note_on_c, 0, 76, 100
2, 117480, Note_on_c, 0, 76, 0
2, 117480, Note_on_c, 0, 67, 100
2, 117600, Note_on_c, 0, 67, 0
2, 117600, Note_on_c, 0, 65, 100
2, 117720, Note_on_c, 0, 65, 0
2, 117720, Note_on_c, 0, 64, 100
2, 117840, Note_on_c, 0, 64, 0
2, 117840, Note_on_c, 0, 65, 100
2, 117960, Note_on_c, 0, 65, 0
2, 117960, Note_on_c, 0, 60, 100
2, 118080, Note_on_c, 0, 60, 0
2, 118080, Note_on_c, 0, 59, 100
2, 118200, Note_on_c, 0, 59, 0
2, 118200, Note_on_c, 0, 67, 100
2, 118320, Note_on_c, 0, 67, 0
2, 118320, Note_on_c, 0, 74, 100
2, 118440, Note_on_c, 0, 74, 0
2, 118440, Note_on_c, 0, 65, 100
2, 118560, Note_on_c, 0, 65, 0
2, 118560, Note_on_c, 0, 64, 100
2, 118680, Note_on_c, 0, 64, 0
2, 118680, Note_on_c, 0, 60, 100
2, 118800, Note_on_c, 0, 60, 0
2, 118800, Note_on_c, 0, 65, 100
2, 118920, Note_on_c, 0, 65, 0
2, 118920, Note_on_c, 0, 62, 100
2, 119040, Note_on_c, 0, 62, 0
2, 119040, Note_on_c, 0, 67, 100
2, 119160, Note_on_c, 0, 67, 0
2, 119160, Note_on_c, 0, 64, 100
2, 119280, Note_on_c, 0, 64, 0
2, 119280, Note_on_c, 0, 60, 100
2, 119400, Note_on_c, 0, 60, 0
2, 119400, Note_on_c, 0, 64, 100
2, 119520, Note_on_c, 0, 64, 0
2, 119520, Note_on_c, 0, 67, 100
2, 119640, Note_on_c, 0, 67, 0
2, 119640, Note_on_c, 0, 64, 100
2, 119760, Note_on_c, 0, 64, 0
2, 119760, Note_on_c, 0, 69, 100
2, 119880, Note_on_c, 0, 69, 0
2, 119880, Note_on_c, 0, 65, 100
2, 120000, Note_on_c, 0, 65, 0
2, 120000, Note_on_c, 0, 70, 100
2, 120120, Note_on_c, 0, 70, 0
2, 120120, Note_on_c, 0, 67, 100
2, 120240, Note_on_c, 0, 67, 0
2, 120240, Note_on_c, 0, 64, 100
2, 120360, Note_on_c, 0, 64, 0
2, 120360, Note_on_c, 0, 67, 100
2, 120480, Note_on_c, 0, 67, 0
2, 120480, Note_on_c, 0, 70, 100
2, 120600, Note_on_c, 0, 70, 0
2, 120600, Note_on_c, 0, 67, 100
2, 120720, Note_on_c, 0, 67, 0
2, 120720, Note_on_c, 0, 72, 100
2, 120840, Note_on_c, 0, 72, 0
2, 120840, Note_on_c, 0, 67, 100
2, 120960, Note_on_c, 0, 67, 0
2, 120960, Note_on_c, 0, 69, 100
2, 121080, Note_on_c, 0, 69, 0
2, 121080, Note_on_c, 0, 65, 100
2, 121200, Note_on_c, 0, 65, 0
2, 121200, Note_on_c, 0, 69, 100
2, 121320, Note_on_c, 0, 69, 0
2, 121320, Note_on_c, 0, 72, 100
2, 121440, Note_on_c, 0, 72, 0
2, 121440, Note_on_c, 0, 77, 100
2, 121560, Note_on_c, 0, 77, 0
2, 121560, Note_on_c, 0, 74, 100
2, 121680, Note_on_c, 0, 74, 0
2, 121680, Note_on_c, 0, 81, 100
2, 121800, Note_on_c, 0, 81, 0
2, 121800, Note_on_c, 0, 72, 100
2, 121920, Note_on_c, 0, 72, 0
2, 121920, Note_on_c, 0, 71, 100
2, 122040, Note_on_c, 0, 71, 0
2, 122040, Note_on_c, 0, 67, 100
2, 122160, Note_on_c, 0, 67, 0
2, 122160, Note_on_c, 0, 71, 100
2, 122280, Note_on_c, 0, 71, 0
2, 122280, Note_on_c, 0, 74, 100
2, 122400, Note_on_c, 0, 74, 0
2, 122400, Note_on_c, 0, 79, 100
2, 122520, Note_on_c, 0, 79, 0
2, 122520, Note_on_c, 0, 76, 100
2, 122640, Note_on_c, 0, 76, 0
2, 122640, Note_on_c, 0, 83, 100
2, 122760, Note_on_c, 0, 83, 0
2, 122760, Note_on_c, 0, 74, 100
2, 122880, Note_on_c, 0, 74, 0
2, 122880, Note_on_c, 0, 72, 100
2, 123000, Note_on_c, 0, 72, 0
2, 123000, Note_on_c, 0, 69, 100
2, 123120, Note_on_c, 0, 69, 0
2, 123120, Note_on_c, 0, 72, 100
2, 123240, Note_on_c, 0, 72, 0
2, 123240, Note_on_c, 0, 76, 100
2, 123360, Note_on_c, 0, 76, 0
2, 123360, Note_on_c, 0, 81, 100
2, 123480, Note_on_c, 0, 81, 0
2, 123480, Note_on_c, 0, 77, 100
2, 123600, Note_on_c, 0, 77, 0
2, 123600, Note_on_c, 0, 84, 100
2, 123720, Note_on_c, 0, 84, 0
2, 123720, Note_on_c, 0, 76, 100
2, 123840, Note_on_c, 0, 76, 0
2, 123840, Note_on_c, 0, 74, 100
2, 123960, Note_on_c, 0, 74, 0
2, 123960, Note_on_c, 0, 71, 100
2, 124080, Note_on_c, 0, 71, 0
2, 124080, Note_on_c, 0, 74, 100
2, 124200, Note_on_c, 0, 74, 0
2, 124200, Note_on_c, 0, 79, 100
2, 124320, Note_on_c, 0, 79, 0
2, 124320, Note_on_c, 0, 83, 100
2, 124440, Note_on_c, 0, 83, 0
2, 124440, Note_on_c, 0, 79, 100
2, 124560, Note_on_c, 0, 79, 0
2, 124560, Note_on_c, 0, 86, 100
2, 124680, Note_on_c, 0, 86, 0
2, 124680, Note_on_c, 0, 77, 100
2, 124800, Note_on_c, 0, 77, 0
2, 124800, Note_on_c, 0, 76, 100
2, 124920, Note_on_c, 0, 76, 0
2, 124920, Note_on_c, 0, 79, 100
2, 124980, Note_on_c, 0, 79, 0
2, 124980, Note_on_c, 0, 77, 100
2, 125040, Note_on_c, 0, 77, 0
2, 125040, Note_on_c, 0, 76, 100
2, 125160, Note_on_c, 0, 76, 0
2, 125160, Note_on_c, 0, 77, 100
2, 125220, Note_on_c, 0, 77, 0
2, 125220, Note_on_c, 0, 79, 100
2, 125280, Note_on_c, 0, 79, 0
2, 125280, Note_on_c, 0, 81, 100
2, 125400, Note_on_c, 0, 81, 0
2, 125400, Note_on_c, 0, 71, 100
2, 125460, Note_on_c, 0, 71, 0
2, 125460, Note_on_c, 0, 72, 100
2, 125520, Note_on_c, 0, 72, 0
2, 125520, Note_on_c, 0, 74, 100
2, 125640, Note_on_c, 0, 74, 0
2, 125640, Note_on_c, 0, 76, 100
2, 125700, Note_on_c, 0, 76, 0
2, 125700, Note_on_c, 0, 77, 100
2, 125760, Note_on_c, 0, 77, 0
2, 125760, Note_on_c, 0, 79, 100
2, 125880, Note_on_c, 0, 79, 0
2, 125880, Note_on_c, 0, 69, 100
2, 125940, Note_on_c, 0, 69, 0
2, 125940, Note_on_c, 0, 71, 100
2, 126000, Note_on_c, 0, 71, 0
2, 126000, Note_on_c, 0, 72, 100
2, 126120, Note_on_c, 0, 72, 0
2, 126120, Note_on_c, 0, 74, 100
2, 126180, Note_on_c, 0, 74, 0
2, 126180, Note_on_c, 0, 76, 100
2, 126240, Note_on_c, 0, 76, 0
2, 126240, Note_on_c, 0, 77, 100
2, 126360, Note_on_c, 0, 77, 0
2, 126360, Note_on_c, 0, 67, 100
2, 126420, Note_on_c, 0, 67, 0
2, 126420, Note_on_c, 0, 69, 100
2, 126480, Note_on_c, 0, 69, 0
2, 126480, Note_on_c, 0, 71, 100
2, 126600, Note_on_c, 0, 71, 0
2, 126600, Note_on_c, 0, 72, 100
2, 126660, Note_on_c, 0, 72, 0
2, 126660, Note_on_c, 0, 74, 100
2, 126720, Note_on_c, 0, 74, 0
2, 126720, Note_on_c, 0, 76, 100
2, 126840, Note_on_c, 0, 76, 0
2, 126840, Note_on_c, 0, 60, 100
2, 126900, Note_on_c, 0, 60, 0
2, 126900, Note_on_c, 0, 62, 100
2, 126960, Note_on_c, 0, 62, 0
2, 126960, Note_on_c, 0, 64, 100
2, 127080, Note_on_c, 0, 64, 0
2, 127080, Note_on_c, 0, 65, 100
2, 127140, Note_on_c, 0, 65, 0
2, 127140, Note_on_c, 0, 67, 100
2, 127200, Note_on_c, 0, 67, 0
2, 127200, Note_on_c, 0, 69, 100
2, 127320, Note_on_c, 0, 69, 0
2, 127320, Note_on_c, 0, 65, 100
2, 127440, Note_on_c, 0, 65, 0
2, 127440, Note_on_c, 0, 74, 100
2, 127560, Note_on_c, 0, 74, 0
2, 127560, Note_on_c, 0, 65, 100
2, 127680, Note_on_c, 0, 65, 0
2, 127680, Note_on_c, 0, 55, 100
2, 127800, Note_on_c, 0, 55, 0
2, 127800, Note_on_c, 0, 65, 100
2, 127920, Note_on_c, 0, 65, 0
2, 127920, Note_on_c, 0, 71, 100
2, 128040, Note_on_c, 0, 71, 0
2, 128040, Note_on_c, 0, 74, 100
2, 128160, Note_on_c, 0, 74, 0
2, 128160, Note_on_c, 0, 72, 100
2, 128280, Note_on_c, 0, 72, 0
2, 128280, Note_on_c, 0, 71, 100
2, 128400, Note_on_c, 0, 71, 0
2, 128400, Note_on_c, 0, 69, 100
2, 128520, Note_on_c, 0, 69, 0
2, 128520, Note_on_c, 0, 67, 100
2, 128640, Note_on_c, 0, 67, 0
2, 128640, Note_on_c, 0, 65, 100
2, 128760, Note_on_c, 0, 65, 0
2, 128760, Note_on_c, 0, 64, 100
2, 128820, Note_on_c, 0, 64, 0
2, 128820, Note_on_c, 0, 62, 100
2, 128880, Note_on_c, 0, 62, 0
2, 128880, Note_on_c, 0, 64, 100
2, 129000, Note_on_c, 0, 64, 0
2, 129000, Note_on_c, 0, 72, 100
2, 129120, Note_on_c, 0, 72, 0
2, 129120, Note_on_c, 0, 55, 100
2, 129240, Note_on_c, 0, 55, 0
2, 129240, Note_on_c, 0, 62, 100
2, 129360, Note_on_c, 0, 62, 0
2, 129360, Note_on_c, 0, 72, 100
2, 129480, Note_on_c, 0, 72, 0
2, 129480, Note_on_c, 0, 71, 100
2, 129600, Note_on_c, 0, 71, 0
2, 129600, Note_on_c, 0, 72, 100
2, 129720, Note_on_c, 0, 72, 0
2, 129720, Note_on_c, 0, 76, 100
2, 129780, Note_on_c, 0, 76, 0
2, 129780, Note_on_c, 0, 72, 100
2, 129840, Note_on_c, 0, 72, 0
2, 129840, Note_on_c, 0, 67, 100
2, 129960, Note_on_c, 0, 67, 0
2, 129960, Note_on_c, 0, 65, 100
2, 130080, Note_on_c, 0, 65, 0
2, 130080, Note_on_c, 0, 64, 100
2, 130200, Note_on_c, 0, 64, 0
2, 130200, Note_on_c, 0, 67, 100
2, 130260, Note_on_c, 0, 67, 0
2, 130260, Note_on_c, 0, 64, 100
2, 130320, Note_on_c, 0, 64, 0
2, 130320, Note_on_c, 0, 60, 100
2, 130440, Note_on_c, 0, 60, 0
2, 130440, Note_on_c, 0, 58, 100
2, 130560, Note_on_c, 0, 58, 0
2, 130560, Note_on_c, 0, 57, 100
2, 130680, Note_on_c, 0, 57, 0
2, 130680, Note_on_c, 0, 67, 100
2, 130800, Note_on_c, 0, 67, 0
2, 130800, Note_on_c, 0, 73, 100
2, 130920, Note_on_c, 0, 73, 0
2, 130920, Note_on_c, 0, 67, 100
2, 131040, Note_on_c, 0, 67, 0
2, 131040, Note_on_c, 0, 73, 100
2, 131160, Note_on_c, 0, 73, 0
2, 131160, Note_on_c, 0, 67, 100
2, 131280, Note_on_c, 0, 67, 0
2, 131280, Note_on_c, 0, 76, 100
2, 131400, Note_on_c, 0, 76, 0
2, 131400, Note_on_c, 0, 67, 100
2, 131520, Note_on_c, 0, 67, 0
2, 131520, Note_on_c, 0, 65, 100
2, 131640, Note_on_c, 0, 65, 0
2, 131640, Note_on_c, 0, 74, 100
2, 131700, Note_on_c, 0, 74, 0
2, 131700, Note_on_c, 0, 69, 100
2, 131760, Note_on_c, 0, 69, 0
2, 131760, Note_on_c, 0, 65, 100
2, 131880, Note_on_c, 0, 65, 0
2, 131880, Note_on_c, 0, 64, 100
2, 132000, Note_on_c, 0, 64, 0
2, 132000, Note_on_c, 0, 62, 100
2, 132120, Note_on_c, 0, 62, 0
2, 132120, Note_on_c, 0, 69, 100
2, 132180, Note_on_c, 0, 69, 0
2, 132180, Note_on_c, 0, 65, 100
2, 132240, Note_on_c, 0, 65, 0
2, 132240, Note_on_c, 0, 62, 100
2, 132360, Note_on_c, 0, 62, 0
2, 132360, Note_on_c, 0, 60, 100
2, 132480, Note_on_c, 0, 60, 0
2, 132480, Note_on_c, 0, 59, 100
2, 132600, Note_on_c, 0, 59, 0
2, 132600, Note_on_c, 0, 69, 100
2, 132720, Note_on_c, 0, 69, 0
2, 132720, Note_on_c, 0, 75, 100
2, 132840, Note_on_c, 0, 75, 0
2, 132840, Note_on_c, 0, 69, 100
2, 132960, Note_on_c, 0, 69, 0
2, 132960, Note_on_c, 0, 75, 100
2, 133080, Note_on_c, 0, 75, 0
2, 133080, Note_on_c, 0, 69, 100
2, 133200, Note_on_c, 0, 69, 0
2, 133200, Note_on_c, 0, 78, 100
2, 133320, Note_on_c, 0, 78, 0
2, 133320, Note_on_c, 0, 69, 100
2, 133440, Note_on_c, 0, 69, 0
2, 133440, Note_on_c, 0, 68, 100
2, 133560, Note_on_c, 0, 68, 0
2, 133560, Note_on_c, 0, 76, 100
2, 133620, Note_on_c, 0, 76, 0
2, 133620, Note_on_c, 0, 71, 100
2, 133680, Note_on_c, 0, 71, 0
2, 133680, Note_on_c, 0, 68, 100
2, 133800, Note_on_c, 0, 68, 0
2, 133800, Note_on_c, 0, 66, 100
2, 133920, Note_on_c, 0, 66, 0
2, 133920, Note_on_c, 0, 64, 100
2, 134040, Note_on_c, 0, 64, 0
2, 134040, Note_on_c, 0, 71, 100
2, 134100, Note_on_c, 0, 71, 0
2, 134100, Note_on_c, 0, 68, 100
2, 134160, Note_on_c, 0, 68, 0
2, 134160, Note_on_c, 0, 64, 100
2, 134280, Note_on_c, 0, 64, 0
2, 134280, Note_on_c, 0, 62, 100
2, 134400, Note_on_c, 0, 62, 0
2, 134400, Note_on_c, 0, 60, 100
2, 134460, Note_on_c, 0, 60, 0
2, 134460, Note_on_c, 0, 76, 100
2, 134520, Note_on_c, 0, 76, 0
2, 134520, Note_on_c, 0, 74, 100
2, 134580, Note_on_c, 0, 74, 0
2, 134580, Note_on_c, 0, 72, 100
2, 134640, Note_on_c, 0, 72, 0
2, 134640, Note_on_c, 0, 71, 100
2, 134760, Note_on_c, 0, 71, 0
2, 134760, Note_on_c, 0, 72, 100
2, 134820, Note_on_c, 0, 72, 0
2, 134820, Note_on_c, 0, 74, 100
2, 134880, Note_on_c, 0, 74, 0
2, 134880, Note_on_c, 0, 72, 100
2, 135000, Note_on_c, 0, 72, 0
2, 135000, Note_on_c, 0, 71, 100
2, 135060, Note_on_c, 0, 71, 0
2, 135060, Note_on_c, 0, 69, 100
2, 135120, Note_on_c, 0, 69, 0
2, 135120, Note_on_c, 0, 68, 100
2, 135240, Note_on_c, 0, 68, 0
2, 135240, Note_on_c, 0, 69, 100
2, 135300, Note_on_c, 0, 69, 0
2, 135300, Note_on_c, 0, 71, 100
2, 135360, Note_on_c, 0, 71, 0
2, 135360, Note_on_c, 0, 61, 100
2, 135420, Note_on_c, 0, 61, 0
2, 135420, Note_on_c, 0, 69, 100
2, 135480, Note_on_c, 0, 69, 0
2, 135480, Note_on_c, 0, 67, 100
2, 135540, Note_on_c, 0, 67, 0
2, 135540, Note_on_c, 0, 65, 100
2, 135600, Note_on_c, 0, 65, 0
2, 135600, Note_on_c, 0, 64, 100
2, 135720, Note_on_c, 0, 64, 0
2, 135720, Note_on_c, 0, 65, 100
2, 135780, Note_on_c, 0, 65, 0
2, 135780, Note_on_c, 0, 67, 100
2, 135840, Note_on_c, 0, 67, 0
2, 135840, Note_on_c, 0, 65, 100
2, 135960, Note_on_c, 0, 65, 0
2, 135960, Note_on_c, 0, 64, 100
2, 136020, Note_on_c, 0, 64, 0
2, 136020, Note_on_c, 0, 62, 100
2, 136080, Note_on_c, 0, 62, 0
2, 136080, Note_on_c, 0, 61, 100
2, 136200, Note_on_c, 0, 61, 0
2, 136200, Note_on_c, 0, 62, 100
2, 136260, Note_on_c, 0, 62, 0
2, 136260, Note_on_c, 0, 64, 100
2, 136320, Note_on_c, 0, 64, 0
2, 136320, Note_on_c, 0, 62, 100
2, 136440, Note_on_c, 0, 62, 0
2, 136440, Note_on_c, 0, 77, 100
2, 136500, Note_on_c, 0, 77, 0
2, 136500, Note_on_c, 0, 76, 100
2, 136560, Note_on_c, 0, 76, 0
2, 136560, Note_on_c, 0, 74, 100
2, 136680, Note_on_c, 0, 74, 0
2, 136680, Note_on_c, 0, 72, 100
2, 136800, Note_on_c, 0, 72, 0
2, 136800, Note_on_c, 0, 71, 100
2, 136920, Note_on_c, 0, 71, 0
2, 136920, Note_on_c, 0, 74, 100
2, 137040, Note_on_c, 0, 74, 0
2, 137040, Note_on_c, 0, 67, 100
2, 137160, Note_on_c, 0, 67, 0
2, 137160, Note_on_c, 0, 69, 100
2, 137220, Note_on_c, 0, 69, 0
2, 137220, Note_on_c, 0, 71, 100
2, 137280, Note_on_c, 0, 71, 0
2, 137280, Note_on_c, 0, 60, 100
2, 137400, Note_on_c, 0, 60, 0
2, 137400, Note_on_c, 0, 76, 100
2, 137460, Note_on_c, 0, 76, 0
2, 137460, Note_on_c, 0, 74, 100
2, 137520, Note_on_c, 0, 74, 0
2, 137520, Note_on_c, 0, 72, 100
2, 137640, Note_on_c, 0, 72, 0
2, 137640, Note_on_c, 0, 71, 100
2, 137760, Note_on_c, 0, 71, 0
2, 137760, Note_on_c, 0, 69, 100
2, 137880, Note_on_c, 0, 69, 0
2, 137880, Note_on_c, 0, 72, 100
2, 138000, Note_on_c, 0, 72, 0
2, 138000, Note_on_c, 0, 65, 100
2, 138120, Note_on_c, 0, 65, 0
2, 138120, Note_on_c, 0, 67, 100
2, 138180, Note_on_c, 0, 67, 0
2, 138180, Note_on_c, 0, 69, 100
2, 138240, Note_on_c, 0, 69, 0
2, 138240, Note_on_c, 0, 59, 100
2, 138360, Note_on_c, 0, 59, 0
2, 138360, Note_on_c, 0, 74, 100
2, 138420, Note_on_c, 0, 74, 0
2, 138420, Note_on_c, 0, 72, 100
2, 138480, Note_on_c, 0, 72, 0
2, 138480, Note_on_c, 0, 71, 100
2, 138600, Note_on_c, 0, 71, 0
2, 138600, Note_on_c, 0, 69, 100
2, 138720, Note_on_c, 0, 69, 0
2, 138720, Note_on_c, 0, 68, 100
2, 138840, Note_on_c, 0, 68, 0
2, 138840, Note_on_c, 0, 74, 100
2, 138960, Note_on_c, 0, 74, 0
2, 138960, Note_on_c, 0, 83, 100
2, 139080, Note_on_c, 0, 83, 0
2, 139080, Note_on_c, 0, 74, 100
2, 139200, Note_on_c, 0, 74, 0
2, 139200, Note_on_c, 0, 72, 100
2, 139320, Note_on_c, 0, 72, 0
2, 139320, Note_on_c, 0, 69, 100
2, 139380, Note_on_c, 0, 69, 0
2, 139380, Note_on_c, 0, 71, 100
2, 139440, Note_on_c, 0, 71, 0
2, 139440, Note_on_c, 0, 72, 100
2, 139560, Note_on_c, 0, 72, 0
2, 139560, Note_on_c, 0, 77, 100
2, 139680, Note_on_c, 0, 77, 0
2, 139680, Note_on_c, 0, 71, 100
2, 139800, Note_on_c, 0, 71, 0
2, 139800, Note_on_c, 0, 67, 100
2, 139860, Note_on_c, 0, 67, 0
2, 139860, Note_on_c, 0, 69, 100
2, 139920, Note_on_c, 0, 69, 0
2, 139920, Note_on_c, 0, 71, 100
2, 140040, Note_on_c, 0, 71, 0
2, 140040, Note_on_c, 0, 76, 100
2, 140160, Note_on_c, 0, 76, 0
2, 140160, Note_on_c, 0, 69, 100
2, 140280, Note_on_c, 0, 69, 0
2, 140280, Note_on_c, 0, 65, 100
2, 140340, Note_on_c, 0, 65, 0
2, 140340, Note_on_c, 0, 67, 100
2, 140400, Note_on_c, 0, 67, 0
2, 140400, Note_on_c, 0, 69, 100
2, 140520, Note_on_c, 0, 69, 0
2, 140520, Note_on_c, 0, 73, 100
2, 140640, Note_on_c, 0, 73, 0
2, 140640, Note_on_c, 0, 74, 100
2, 140760, Note_on_c, 0, 74, 0
2, 140760, Note_on_c, 0, 71, 100
2, 140820, Note_on_c, 0, 71, 0
2, 140820, Note_on_c, 0, 72, 100
2, 140880, Note_on_c, 0, 72, 0
2, 140880, Note_on_c, 0, 74, 100
2, 141000, Note_on_c, 0, 74, 0
2, 141000, Note_on_c, 0, 77, 100
2, 141120, Note_on_c, 0, 77, 0
2, 141120, Note_on_c, 0, 80, 100
2, 141240, Note_on_c, 0, 80, 0
2, 141240, Note_on_c, 0, 76, 100
2, 141300, Note_on_c, 0, 76, 0
2, 141300, Note_on_c, 0, 78, 100
2, 141360, Note_on_c, 0, 78, 0
2, 141360, Note_on_c, 0, 80, 100
2, 141480, Note_on_c, 0, 80, 0
2, 141480, Note_on_c, 0, 83, 100
2, 141600, Note_on_c, 0, 83, 0
2, 141600, Note_on_c, 0, 86, 100
2, 141720, Note_on_c, 0, 86, 0
2, 141720, Note_on_c, 0, 83, 100
2, 141780, Note_on_c, 0, 83, 0
2, 141780, Note_on_c, 0, 80, 100
2, 141840, Note_on_c, 0, 80, 0
2, 141840, Note_on_c, 0, 76, 100
2, 141960, Note_on_c, 0, 76, 0
2, 141960, Note_on_c, 0, 80, 100
2, 142020, Note_on_c, 0, 80, 0
2, 142020, Note_on_c, 0, 83, 100
2, 142080, Note_on_c, 0, 83, 0
2, 142080, Note_on_c, 0, 84, 100
2, 142200, Note_on_c, 0, 84, 0
2, 142200, Note_on_c, 0, 88, 100
2, 142260, Note_on_c, 0, 88, 0
2, 142260, Note_on_c, 0, 84, 100
2, 142320, Note_on_c, 0, 84, 0
2, 142320, Note_on_c, 0, 81, 100
2, 142440, Note_on_c, 0, 81, 0
2, 142440, Note_on_c, 0, 79, 100
2, 142560, Note_on_c, 0, 79, 0
2, 142560, Note_on_c, 0, 77, 100
2, 142680, Note_on_c, 0, 77, 0
2, 142680, Note_on_c, 0, 86, 100
2, 142800, Note_on_c, 0, 86, 0
2, 142800, Note_on_c, 0, 76, 100
2, 142920, Note_on_c, 0, 76, 0
2, 142920, Note_on_c, 0, 84, 100
2, 143040, Note_on_c, 0, 84, 0
2, 143040, Note_on_c, 0, 74, 100
2, 143160, Note_on_c, 0, 74, 0
2, 143160, Note_on_c, 0, 84, 100
2, 143220, Note_on_c, 0, 84, 0
2, 143220, Note_on_c, 0, 81, 100
2, 143280, Note_on_c, 0, 81, 0
2, 143280, Note_on_c, 0, 77, 100
2, 143400, Note_on_c, 0, 77, 0
2, 143400, Note_on_c, 0, 76, 100
2, 143520, Note_on_c, 0, 76, 0
2, 143520, Note_on_c, 0, 74, 100
2, 143640, Note_on_c, 0, 74, 0
2, 143640, Note_on_c, 0, 83, 100
2, 143760, Note_on_c, 0, 83, 0
2, 143760, Note_on_c, 0, 72, 100
2, 143880, Note_on_c, 0, 72, 0
2, 143880, Note_on_c, 0, 81, 100
2, 144000, Note_on_c, 0, 81, 0
2, 144000, Note_on_c, 0, 71, 100
2, 144120, Note_on_c, 0, 71, 0
2, 144120, Note_on_c, 0, 77, 100
2, 144180, Note_on_c, 0, 77, 0
2, 144180, Note_on_c, 0, 74, 100
2, 144240, Note_on_c, 0, 74, 0
2, 144240, Note_on_c, 0, 71, 100
2, 144360, Note_on_c, 0, 71, 0
2, 144360, Note_on_c, 0, 69, 100
2, 144480, Note_on_c, 0, 69, 0
2, 144480, Note_on_c, 0, 68, 100
2, 144600, Note_on_c, 0, 68, 0
2, 144600, Note_on_c, 0, 74, 100
2, 144720, Note_on_c, 0, 74, 0
2, 144720, Note_on_c, 0, 66, 100
2, 144840, Note_on_c, 0, 66, 0
2, 144840, Note_on_c, 0, 74, 100
2, 144960, Note_on_c, 0, 74, 0
2, 144960, Note_on_c, 0, 64, 100
2, 145080, Note_on_c, 0, 64, 0
2, 145080, Note_on_c, 0, 68, 100
2, 145200, Note_on_c, 0, 68, 0
2, 145200, Note_on_c, 0, 71, 100
2, 145320, Note_on_c, 0, 71, 0
2, 145320, Note_on_c, 0, 74, 100
2, 145440, Note_on_c, 0, 74, 0
2, 145440, Note_on_c, 0, 77, 100
2, 145560, Note_on_c, 0, 77, 0
2, 145560, Note_on_c, 0, 76, 100
2, 145620, Note_on_c, 0, 76, 0
2, 145620, Note_on_c, 0, 74, 100
2, 145680, Note_on_c, 0, 74, 0
2, 145680, Note_on_c, 0, 72, 100
2, 145800, Note_on_c, 0, 72, 0
2, 145800, Note_on_c, 0, 71, 100
2, 145920, Note_on_c, 0, 71, 0
2, 145920, Note_on_c, 0, 72, 100
2, 146040, Note_on_c, 0, 72, 0
2, 146040, Note_on_c, 0, 68, 100
2, 146160, Note_on_c, 0, 68, 0
2, 146160, Note_on_c, 0, 69, 100
2, 146280, Note_on_c, 0, 69, 0
2, 146280, Note_on_c, 0, 63, 100
2, 146400, Note_on_c, 0, 63, 0
2, 146400, Note_on_c, 0, 64, 100
2, 146520, Note_on_c, 0, 64, 0
2, 146520, Note_on_c, 0, 72, 100
2, 146580, Note_on_c, 0, 72, 0
2, 146580, Note_on_c, 0, 71, 100
2, 146640, Note_on_c, 0, 71, 0
2, 146640, Note_on_c, 0, 69, 100
2, 146760, Note_on_c, 0, 69, 0
2, 146760, Note_on_c, 0, 68, 100
2, 146880, Note_on_c, 0, 68, 0
2, 146880, Note_on_c, 0, 69, 100
2, 147000, Note_on_c, 0, 69, 0
2, 147000, Note_on_c, 0, 65, 100
2, 147060, Note_on_c, 0, 65, 0
2, 147060, Note_on_c, 0, 67, 100
2, 147120, Note_on_c, 0, 67, 0
2, 147120, Note_on_c, 0, 69, 100
2, 147240, Note_on_c, 0, 69, 0
2, 147240, Note_on_c, 0, 65, 100
2, 147360, Note_on_c, 0, 65, 0
2, 147360, Note_on_c, 0, 64, 100
2, 147480, Note_on_c, 0, 64, 0
2, 147480, Note_on_c, 0, 62, 100
2, 147600, Note_on_c, 0, 62, 0
2, 147600, Note_on_c, 0, 60, 100
2, 147720, Note_on_c, 0, 60, 0
2, 147720, Note_on_c, 0, 59, 100
2, 147840, Note_on_c, 0, 59, 0
2, 147840, Note_on_c, 0, 60, 100
2, 147900, Note_on_c, 0, 60, 0
2, 147900, Note_on_c, 0, 64, 100
2, 147960, Note_on_c, 0, 64, 0
2, 147960, Note_on_c, 0, 66, 100
2, 148020, Note_on_c, 0, 66, 0
2, 148020, Note_on_c, 0, 68, 100
2, 148080, Note_on_c, 0, 68, 0
2, 148080, Note_on_c, 0, 69, 100
2, 148200, Note_on_c, 0, 69, 0
2, 148200, Note_on_c, 0, 64, 100
2, 148320, Note_on_c, 0, 64, 0
2, 148320, Note_on_c, 0, 62, 100
2, 148440, Note_on_c, 0, 62, 0
2, 148440, Note_on_c, 0, 60, 100
2, 148560, Note_on_c, 0, 60, 0
2, 148560, Note_on_c, 0, 59, 100
2, 148680, Note_on_c, 0, 59, 0
2, 148680, Note_on_c, 0, 57, 100
2, 148800, Note_on_c, 0, 57, 0
2, 148800, Note_on_c, 0, 59, 100
2, 148860, Note_on_c, 0, 59, 0
2, 148860, Note_on_c, 0, 60, 100
2, 148920, Note_on_c, 0, 60, 0
2, 148920, Note_on_c, 0, 62, 100
2, 148980, Note_on_c, 0, 62, 0
2, 148980, Note_on_c, 0, 64, 100
2, 149040, Note_on_c, 0, 64, 0
2, 149040, Note_on_c, 0, 65, 100
2, 149160, Note_on_c, 0, 65, 0
2, 149160, Note_on_c, 0, 64, 100
2, 149280, Note_on_c, 0, 64, 0
2, 149280, Note_on_c, 0, 62, 100
2, 149400, Note_on_c, 0, 62, 0
2, 149400, Note_on_c, 0, 71, 100
2, 149520, Note_on_c, 0, 71, 0
2, 149520, Note_on_c, 0, 77, 100
2, 149640, Note_on_c, 0, 77, 0
2, 149640, Note_on_c, 0, 69, 100
2, 149760, Note_on_c, 0, 69, 0
2, 149760, Note_on_c, 0, 68, 100
2, 149820, Note_on_c, 0, 68, 0
2, 149820, Note_on_c, 0, 69, 100
2, 149880, Note_on_c, 0, 69, 0
2, 149880, Note_on_c, 0, 71, 100
2, 149940, Note_on_c, 0, 71, 0
2, 149940, Note_on_c, 0, 72, 100
2, 150000, Note_on_c, 0, 72, 0
2, 150000, Note_on_c, 0, 74, 100
2, 150120, Note_on_c, 0, 74, 0
2, 150120, Note_on_c, 0, 72, 100
2, 150240, Note_on_c, 0, 72, 0
2, 150240, Note_on_c, 0, 71, 100
2, 150360, Note_on_c, 0, 71, 0
2, 150360, Note_on_c, 0, 80, 100
2, 150420, Note_on_c, 0, 80, 0
2, 150420, Note_on_c, 0, 81, 100
2, 150480, Note_on_c, 0, 81, 0
2, 150480, Note_on_c, 0, 83, 100
2, 150600, Note_on_c, 0, 83, 0
2, 150600, Note_on_c, 0, 74, 100
2, 150720, Note_on_c, 0, 74, 0
2, 150720, Note_on_c, 0, 72, 100
2, 150780, Note_on_c, 0, 72, 0
2, 150780, Note_on_c, 0, 76, 100
2, 150840, Note_on_c, 0, 76, 0
2, 150840, Note_on_c, 0, 78, 100
2, 150900, Note_on_c, 0, 78, 0
2, 150900, Note_on_c, 0, 80, 100
2, 150960, Note_on_c, 0, 80, 0
2, 150960, Note_on_c, 0, 81, 100
2, 151080, Note_on_c, 0, 81, 0
2, 151080, Note_on_c, 0, 72, 100
2, 151200, Note_on_c, 0, 72, 0
2, 151200, Note_on_c, 0, 64, 100
2, 151320, Note_on_c, 0, 64, 0
2, 151320, Note_on_c, 0, 71, 100
2, 151440, Note_on_c, 0, 71, 0
2, 151440, Note_on_c, 0, 81, 100
2, 151560, Note_on_c, 0, 81, 0
2, 151560, Note_on_c, 0, 80, 100
2, 151680, Note_on_c, 0, 80, 0
2, 151680, Note_on_c, 0, 69, 100
2, 151800, Note_on_c, 0, 69, 0
2, 151800, Note_on_c, 0, 73, 100
2, 151920, Note_on_c, 0, 73, 0
2, 151920, Note_on_c, 0, 79, 100
2, 152040, Note_on_c, 0, 79, 0
2, 152040, Note_on_c, 0, 76, 100
2, 152160, Note_on_c, 0, 76, 0
2, 152160, Note_on_c, 0, 69, 100
2, 152280, Note_on_c, 0, 69, 0
2, 152280, Note_on_c, 0, 74, 100
2, 152400, Note_on_c, 0, 74, 0
2, 152400, Note_on_c, 0, 78, 100
2, 152520, Note_on_c, 0, 78, 0
2, 152520, Note_on_c, 0, 74, 100
2, 152640, Note_on_c, 0, 74, 0
2, 152640, Note_on_c, 0, 68, 100
2, 152760, Note_on_c, 0, 68, 0
2, 152760, Note_on_c, 0, 74, 100
2, 152880, Note_on_c, 0, 74, 0
2, 152880, Note_on_c, 0, 77, 100
2, 153000, Note_on_c, 0, 77, 0
2, 153000, Note_on_c, 0, 74, 100
2, 153120, Note_on_c, 0, 74, 0
2, 153120, Note_on_c, 0, 67, 100
2, 153240, Note_on_c, 0, 67, 0
2, 153240, Note_on_c, 0, 73, 100
2, 153360, Note_on_c, 0, 73, 0
2, 153360, Note_on_c, 0, 76, 100
2, 153480, Note_on_c, 0, 76, 0
2, 153480, Note_on_c, 0, 73, 100
2, 153600, Note_on_c, 0, 73, 0
2, 153600, Note_on_c, 0, 66, 100
2, 153720, Note_on_c, 0, 66, 0
2, 153720, Note_on_c, 0, 69, 100
2, 153840, Note_on_c, 0, 69, 0
2, 153840, Note_on_c, 0, 76, 100
2, 153960, Note_on_c, 0, 76, 0
2, 153960, Note_on_c, 0, 69, 100
2, 154080, Note_on_c, 0, 69, 0
2, 154080, Note_on_c, 0, 65, 100
2, 154200, Note_on_c, 0, 65, 0
2, 154200, Note_on_c, 0, 74, 100
2, 154320, Note_on_c, 0, 74, 0
2, 154320, Note_on_c, 0, 81, 100
2, 154440, Note_on_c, 0, 81, 0
2, 154440, Note_on_c, 0, 74, 100
2, 154560, Note_on_c, 0, 74, 0
2, 154560, Note_on_c, 0, 64, 100
2, 154680, Note_on_c, 0, 64, 0
2, 154680, Note_on_c, 0, 74, 100
2, 154800, Note_on_c, 0, 74, 0
2, 154800, Note_on_c, 0, 83, 100
2, 154920, Note_on_c, 0, 83, 0
2, 154920, Note_on_c, 0, 81, 100
2, 155040, Note_on_c, 0, 81, 0
2, 155040, Note_on_c, 0, 80, 100
2, 155160, Note_on_c, 0, 80, 0
2, 155160, Note_on_c, 0, 78, 100
2, 155280, Note_on_c, 0, 78, 0
2, 155280, Note_on_c, 0, 76, 100
2, 155400, Note_on_c, 0, 76, 0
2, 155400, Note_on_c, 0, 74, 100
2, 155520, Note_on_c, 0, 74, 0
2, 155520, Note_on_c, 0, 72, 100
2, 155640, Note_on_c, 0, 72, 0
2, 155640, Note_on_c, 0, 76, 100
2, 155700, Note_on_c, 0, 76, 0
2, 155700, Note_on_c, 0, 72, 100
2, 155760, Note_on_c, 0, 72, 0
2, 155760, Note_on_c, 0, 69, 100
2, 155880, Note_on_c, 0, 69, 0
2, 155880, Note_on_c, 0, 64, 100
2, 156000, Note_on_c, 0, 64, 0
2, 156000, Note_on_c, 0, 71, 100
2, 156120, Note_on_c, 0, 71, 0
2, 156120, Note_on_c, 0, 74, 100
2, 156240, Note_on_c, 0, 74, 0
2, 156240, Note_on_c, 0, 81, 100
2, 156360, Note_on_c, 0, 81, 0
2, 156360, Note_on_c, 0, 80, 100
2, 156480, Note_on_c, 0, 80, 0
2, 156480, Note_on_c, 0, 57, 100
2, 157440, Note_on_c, 0, 57, 0
2, 157440, Control_c, 0, 1, 0
2, 157440, Note_on_c, 0, 64, 100
2, 157560, Note_on_c, 0, 64, 0
2, 157560, Note_on_c, 0, 76, 100
2, 157680, Note_on_c, 0, 76, 0
2, 157680, Note_on_c, 0, 79, 100
2, 157800, Note_on_c, 0, 79, 0
2, 157800, Note_on_c, 0, 83, 100
2, 157920, Note_on_c, 0, 83, 0
2, 157920, Note_on_c, 0, 79, 100
2, 158040, Note_on_c, 0, 79, 0
2, 158040, Note_on_c, 0, 76, 100
2, 158160, Note_on_c, 0, 76, 0
2, 158160, Note_on_c, 0, 75, 100
2, 158280, Note_on_c, 0, 75, 0
2, 158280, Note_on_c, 0, 76, 100
2, 158400, Note_on_c, 0, 76, 0
2, 159360, Note_on_c, 0, 64, 100
2, 159480, Note_on_c, 0, 64, 0
2, 159480, Note_on_c, 0, 67, 100
2, 159540, Note_on_c, 0, 67, 0
2, 159540, Note_on_c, 0, 69, 100
2, 159600, Note_on_c, 0, 69, 0
2, 159600, Note_on_c, 0, 71, 100
2, 159720, Note_on_c, 0, 71, 0
2, 159720, Note_on_c, 0, 59, 100
2, 159840, Note_on_c, 0, 59, 0
2, 159840, Note_on_c, 0, 64, 100
2, 159960, Note_on_c, 0, 64, 0
2, 159960, Note_on_c, 0, 67, 100
2, 160080, Note_on_c, 0, 67, 0
2, 160080, Note_on_c, 0, 71, 100
2, 160200, Note_on_c, 0, 71, 0
2, 160200, Note_on_c, 0, 63, 100
2, 160320, Note_on_c, 0, 63, 0
2, 161280, Note_on_c, 0, 64, 100
2, 161400, Note_on_c, 0, 64, 0
2, 161400, Note_on_c, 0, 66, 100
2, 161460, Note_on_c, 0, 66, 0
2, 161460, Note_on_c, 0, 67, 100
2, 161520, Note_on_c, 0, 67, 0
2, 161520, Note_on_c, 0, 69, 100
2, 161640, Note_on_c, 0, 69, 0
2, 161640, Note_on_c, 0, 67, 100
2, 161700, Note_on_c, 0, 67, 0
2, 161700, Note_on_c, 0, 66, 100
2, 161760, Note_on_c, 0, 66, 0
2, 161760, Note_on_c, 0, 67, 100
2, 161880, Note_on_c, 0, 67, 0
2, 161880, Note_on_c, 0, 69, 100
2, 161940, Note_on_c, 0, 69, 0
2, 161940, Note_on_c, 0, 71, 100
2, 162000, Note_on_c, 0, 71, 0
2, 162000, Note_on_c, 0, 72, 100
2, 162120, Note_on_c, 0, 72, 0
2, 162120, Note_on_c, 0, 71, 100
2, 162180, Note_on_c, 0, 71, 0
2, 162180, Note_on_c, 0, 69, 100
2, 162240, Note_on_c, 0, 69, 0
2, 162240, Note_on_c, 0, 71, 100
2, 162360, Note_on_c, 0, 71, 0
2, 162360, Note_on_c, 0, 67, 100
2, 162420, Note_on_c, 0, 67, 0
2, 162420, Note_on_c, 0, 69, 100
2, 162480, Note_on_c, 0, 69, 0
2, 162480, Note_on_c, 0, 71, 100
2, 162600, Note_on_c, 0, 71, 0
2, 162600, Note_on_c, 0, 73, 100
2, 162660, Note_on_c, 0, 73, 0
2, 162660, Note_on_c, 0, 75, 100
2, 162720, Note_on_c, 0, 75, 0
2, 162720, Note_on_c, 0, 76, 100
2, 162840, Note_on_c, 0, 76, 0
2, 162840, Note_on_c, 0, 71, 100
2, 162900, Note_on_c, 0, 71, 0
2, 162900, Note_on_c, 0, 69, 100
2, 162960, Note_on_c, 0, 69, 0
2, 162960, Note_on_c, 0, 67, 100
2, 163080, Note_on_c, 0, 67, 0
2, 163080, Note_on_c, 0, 66, 100
2, 163200, Note_on_c, 0, 66, 0
2, 165120, Note_on_c, 0, 64, 100
2, 165240, Note_on_c, 0, 64, 0
2, 165240, Note_on_c, 0, 67, 100
2, 165360, Note_on_c, 0, 67, 0
2, 165360, Note_on_c, 0, 71, 100
2, 165480, Note_on_c, 0, 71, 0
2, 165480, Note_on_c, 0, 76, 100
2, 165600, Note_on_c, 0, 76, 0
2, 165600, Note_on_c, 0, 79, 100
2, 165720, Note_on_c, 0, 79, 0
2, 165720, Note_on_c, 0, 83, 100
2, 165840, Note_on_c, 0, 83, 0
2, 165840, Note_on_c, 0, 79, 100
2, 165960, Note_on_c, 0, 79, 0
2, 165960, Note_on_c, 0, 76, 100
2, 166080, Note_on_c, 0, 76, 0
2, 166080, Note_on_c, 0, 75, 100
2, 166200, Note_on_c, 0, 75, 0
2, 166200, Note_on_c, 0, 78, 100
2, 166320, Note_on_c, 0, 78, 0
2, 166320, Note_on_c, 0, 75, 100
2, 166440, Note_on_c, 0, 75, 0
2, 166440, Note_on_c, 0, 71, 100
2, 166560, Note_on_c, 0, 71, 0
2, 166560, Note_on_c, 0, 66, 100
2, 166680, Note_on_c, 0, 66, 0
2, 166680, Note_on_c, 0, 69, 100
2, 166800, Note_on_c, 0, 69, 0
2, 166800, Note_on_c, 0, 67, 100
2, 166920, Note_on_c, 0, 67, 0
2, 166920, Note_on_c, 0, 66, 100
2, 167040, Note_on_c, 0, 66, 0
2, 168960, Note_on_c, 0, 64, 100
2, 169080, Note_on_c, 0, 64, 0
2, 169080, Note_on_c, 0, 67, 100
2, 169200, Note_on_c, 0, 67, 0
2, 169200, Note_on_c, 0, 71, 100
2, 169320, Note_on_c, 0, 71, 0
2, 169320, Note_on_c, 0, 74, 100
2, 169440, Note_on_c, 0, 74, 0
2, 169440, Note_on_c, 0, 72, 100
2, 169560, Note_on_c, 0, 72, 0
2, 169560, Note_on_c, 0, 67, 100
2, 169680, Note_on_c, 0, 67, 0
2, 169680, Note_on_c, 0, 66, 100
2, 169800, Note_on_c, 0, 66, 0
2, 169800, Note_on_c, 0, 64, 100
2, 169920, Note_on_c, 0, 64, 0
2, 169920, Note_on_c, 0, 62, 100
2, 170040, Note_on_c, 0, 62, 0
2, 170040, Note_on_c, 0, 66, 100
2, 170160, Note_on_c, 0, 66, 0
2, 170160, Note_on_c, 0, 69, 100
2, 170280, Note_on_c, 0, 69, 0
2, 170280, Note_on_c, 0, 72, 100
2, 170400, Note_on_c, 0, 72, 0
2, 170400, Note_on_c, 0, 71, 100
2, 170520, Note_on_c, 0, 71, 0
2, 170520, Note_on_c, 0, 66, 100
2, 170640, Note_on_c, 0, 66, 0
2, 170640, Note_on_c, 0, 64, 100
2, 170760, Note_on_c, 0, 64, 0
2, 170760, Note_on_c, 0, 62, 100
2, 170880, Note_on_c, 0, 62, 0
2, 170880, Note_on_c, 0, 60, 100
2, 171000, Note_on_c, 0, 60, 0
2, 171000, Note_on_c, 0, 64, 100
2, 171120, Note_on_c, 0, 64, 0
2, 171120, Note_on_c, 0, 67, 100
2, 171240, Note_on_c, 0, 67, 0
2, 171240, Note_on_c, 0, 71, 100
2, 171360, Note_on_c, 0, 71, 0
2, 171360, Note_on_c, 0, 69, 100
2, 171480, Note_on_c, 0, 69, 0
2, 171480, Note_on_c, 0, 67, 100
2, 171600, Note_on_c, 0, 67, 0
2, 171600, Note_on_c, 0, 66, 100
2, 171720, Note_on_c, 0, 66, 0
2, 171720, Note_on_c, 0, 64, 100
2, 171840, Note_on_c, 0, 64, 0
2, 171840, Note_on_c, 0, 63, 100
2, 171960, Note_on_c, 0, 63, 0
2, 171960, Note_on_c, 0, 71, 100
2, 172080, Note_on_c, 0, 71, 0
2, 172080, Note_on_c, 0, 66, 100
2, 172200, Note_on_c, 0, 66, 0
2, 172200, Note_on_c, 0, 63, 100
2, 172320, Note_on_c, 0, 63, 0
2, 172320, Note_on_c, 0, 59, 100
2, 172440, Note_on_c, 0, 59, 0
2, 172440, Note_on_c, 0, 60, 100
2, 172560, Note_on_c, 0, 60, 0
2, 172560, Note_on_c, 0, 57, 100
2, 172680, Note_on_c, 0, 57, 0
2, 172680, Note_on_c, 0, 59, 100
2, 172800, Note_on_c, 0, 59, 0
2, 172800, Note_on_c, 0, 55, 100
2, 172920, Note_on_c, 0, 55, 0
2, 172920, Note_on_c, 0, 64, 100
2, 172980, Note_on_c, 0, 64, 0
2, 172980, Note_on_c, 0, 66, 100
2, 173040, Note_on_c, 0, 66, 0
2, 173040, Note_on_c, 0, 67, 100
2, 173160, Note_on_c, 0, 67, 0
2, 173160, Note_on_c, 0, 71, 100
2, 173280, Note_on_c, 0, 71, 0
2, 173280, Note_on_c, 0, 76, 100
2, 173400, Note_on_c, 0, 76, 0
2, 173400, Note_on_c, 0, 78, 100
2, 173520, Note_on_c, 0, 78, 0
2, 173520, Note_on_c, 0, 74, 100
2, 173640, Note_on_c, 0, 74, 0
2, 173640, Note_on_c, 0, 76, 100
2, 173760, Note_on_c, 0, 76, 0
2, 173760, Note_on_c, 0, 72, 100
2, 173880, Note_on_c, 0, 72, 0
2, 173880, Note_on_c, 0, 76, 100
2, 173940, Note_on_c, 0, 76, 0
2, 173940, Note_on_c, 0, 74, 100
2, 174000, Note_on_c, 0, 74, 0
2, 174000, Note_on_c, 0, 72, 100
2, 174120, Note_on_c, 0, 72, 0
2, 174120, Note_on_c, 0, 71, 100
2, 174240, Note_on_c, 0, 71, 0
2, 174240, Note_on_c, 0, 69, 100
2, 174360, Note_on_c, 0, 69, 0
2, 174360, Note_on_c, 0, 71, 100
2, 174480, Note_on_c, 0, 71, 0
2, 174480, Note_on_c, 0, 67, 100
2, 174600, Note_on_c, 0, 67, 0
2, 174600, Note_on_c, 0, 69, 100
2, 174720, Note_on_c, 0, 69, 0
2, 174720, Note_on_c, 0, 66, 100
2, 174840, Note_on_c, 0, 66, 0
2, 174840, Note_on_c, 0, 62, 100
2, 174900, Note_on_c, 0, 62, 0
2, 174900, Note_on_c, 0, 64, 100
2, 174960, Note_on_c, 0, 64, 0
2, 174960, Note_on_c, 0, 66, 100
2, 175080, Note_on_c, 0, 66, 0
2, 175080, Note_on_c, 0, 69, 100
2, 175200, Note_on_c, 0, 69, 0
2, 175200, Note_on_c, 0, 74, 100
2, 175320, Note_on_c, 0, 74, 0
2, 175320, Note_on_c, 0, 76, 100
2, 175440, Note_on_c, 0, 76, 0
2, 175440, Note_on_c, 0, 72, 100
2, 175560, Note_on_c, 0, 72, 0
2, 175560, Note_on_c, 0, 74, 100
2, 175680, Note_on_c, 0, 74, 0
2, 175680, Note_on_c, 0, 71, 100
2, 175800, Note_on_c, 0, 71, 0
2, 175800, Note_on_c, 0, 67, 100
2, 175860, Note_on_c, 0, 67, 0
2, 175860, Note_on_c, 0, 69, 100
2, 175920, Note_on_c, 0, 69, 0
2, 175920, Note_on_c, 0, 71, 100
2, 176040, Note_on_c, 0, 71, 0
2, 176040, Note_on_c, 0, 74, 100
2, 176160, Note_on_c, 0, 74, 0
2, 176160, Note_on_c, 0, 79, 100
2, 176280, Note_on_c, 0, 79, 0
2, 176280, Note_on_c, 0, 81, 100
2, 176400, Note_on_c, 0, 81, 0
2, 176400, Note_on_c, 0, 78, 100
2, 176520, Note_on_c, 0, 78, 0
2, 176520, Note_on_c, 0, 79, 100
2, 176640, Note_on_c, 0, 79, 0
2, 176640, Note_on_c, 0, 76, 100
2, 176760, Note_on_c, 0, 76, 0
2, 176760, Note_on_c, 0, 79, 100
2, 176880, Note_on_c, 0, 79, 0
2, 176880, Note_on_c, 0, 76, 100
2, 177000, Note_on_c, 0, 76, 0
2, 177000, Note_on_c, 0, 71, 100
2, 177120, Note_on_c, 0, 71, 0
2, 177120, Note_on_c, 0, 72, 100
2, 177240, Note_on_c, 0, 72, 0
2, 177240, Note_on_c, 0, 64, 100
2, 177360, Note_on_c, 0, 64, 0
2, 177360, Note_on_c, 0, 67, 100
2, 177480, Note_on_c, 0, 67, 0
2, 177480, Note_on_c, 0, 72, 100
2, 177600, Note_on_c, 0, 72, 0
2, 177600, Note_on_c, 0, 74, 100
2, 177720, Note_on_c, 0, 74, 0
2, 177720, Note_on_c, 0, 79, 100
2, 177840, Note_on_c, 0, 79, 0
2, 177840, Note_on_c, 0, 74, 100
2, 177960, Note_on_c, 0, 74, 0
2, 177960, Note_on_c, 0, 69, 100
2, 178080, Note_on_c, 0, 69, 0
2, 178080, Note_on_c, 0, 71, 100
2, 178200, Note_on_c, 0, 71, 0
2, 178200, Note_on_c, 0, 62, 100
2, 178320, Note_on_c, 0, 62, 0
2, 178320, Note_on_c, 0, 67, 100
2, 178440, Note_on_c, 0, 67, 0
2, 178440, Note_on_c, 0, 71, 100
2, 178560, Note_on_c, 0, 71, 0
2, 178560, Note_on_c, 0, 72, 100
2, 178680, Note_on_c, 0, 72, 0
2, 178680, Note_on_c, 0, 79, 100
2, 178800, Note_on_c, 0, 79, 0
2, 178800, Note_on_c, 0, 72, 100
2, 178920, Note_on_c, 0, 72, 0
2, 178920, Note_on_c, 0, 69, 100
2, 179040, Note_on_c, 0, 69, 0
2, 179040, Note_on_c, 0, 62, 100
2, 179160, Note_on_c, 0, 62, 0
2, 179160, Note_on_c, 0, 78, 100
2, 179220, Note_on_c, 0, 78, 0
2, 179220, Note_on_c, 0, 79, 100
2, 179280, Note_on_c, 0, 79, 0
2, 179280, Note_on_c, 0, 81, 100
2, 179400, Note_on_c, 0, 81, 0
2, 179400, Note_on_c, 0, 72, 100
2, 179520, Note_on_c, 0, 72, 0
2, 179520, Note_on_c, 0, 71, 100
2, 179640, Note_on_c, 0, 71, 0
2, 179640, Note_on_c, 0, 79, 100
2, 179760, Note_on_c, 0, 79, 0
2, 179760, Note_on_c, 0, 74, 100
2, 179880, Note_on_c, 0, 74, 0
2, 179880, Note_on_c, 0, 71, 100
2, 180000, Note_on_c, 0, 71, 0
2, 180000, Note_on_c, 0, 67, 100
2, 180120, Note_on_c, 0, 67, 0
2, 180120, Note_on_c, 0, 69, 100
2, 180240, Note_on_c, 0, 69, 0
2, 180240, Note_on_c, 0, 65, 100
2, 180360, Note_on_c, 0, 65, 0
2, 180360, Note_on_c, 0, 67, 100
2, 180480, Note_on_c, 0, 67, 0
2, 180480, Note_on_c, 0, 64, 100
2, 180600, Note_on_c, 0, 64, 0
2, 180600, Note_on_c, 0, 72, 100
2, 180720, Note_on_c, 0, 72, 0
2, 180720, Note_on_c, 0, 79, 100
2, 180840, Note_on_c, 0, 79, 0
2, 180840, Note_on_c, 0, 70, 100
2, 180960, Note_on_c, 0, 70, 0
2, 180960, Note_on_c, 0, 69, 100
2, 181080, Note_on_c, 0, 69, 0
2, 181080, Note_on_c, 0, 65, 100
2, 181200, Note_on_c, 0, 65, 0
2, 181200, Note_on_c, 0, 69, 100
2, 181320, Note_on_c, 0, 69, 0
2, 181320, Note_on_c, 0, 64, 100
2, 181440, Note_on_c, 0, 64, 0
2, 181440, Note_on_c, 0, 62, 100
2, 181560, Note_on_c, 0, 62, 0
2, 181560, Note_on_c, 0, 71, 100
2, 181680, Note_on_c, 0, 71, 0
2, 181680, Note_on_c, 0, 77, 100
2, 181800, Note_on_c, 0, 77, 0
2, 181800, Note_on_c, 0, 69, 100
2, 181920, Note_on_c, 0, 69, 0
2, 181920, Note_on_c, 0, 67, 100
2, 182040, Note_on_c, 0, 67, 0
2, 182040, Note_on_c, 0, 64, 100
2, 182160, Note_on_c, 0, 64, 0
2, 182160, Note_on_c, 0, 67, 100
2, 182280, Note_on_c, 0, 67, 0
2, 182280, Note_on_c, 0, 62, 100
2, 182400, Note_on_c, 0, 62, 0
2, 182400, Note_on_c, 0, 60, 100
2, 182520, Note_on_c, 0, 60, 0
2, 182520, Note_on_c, 0, 69, 100
2, 182640, Note_on_c, 0, 69, 0
2, 182640, Note_on_c, 0, 76, 100
2, 182760, Note_on_c, 0, 76, 0
2, 182760, Note_on_c, 0, 67, 100
2, 182880, Note_on_c, 0, 67, 0
2, 182880, Note_on_c, 0, 65, 100
2, 183000, Note_on_c, 0, 65, 0
2, 183000, Note_on_c, 0, 64, 100
2, 183120, Note_on_c, 0, 64, 0
2, 183120, Note_on_c, 0, 65, 100
2, 183240, Note_on_c, 0, 65, 0
2, 183240, Note_on_c, 0, 60, 100
2, 183360, Note_on_c, 0, 60, 0
2, 183360, Note_on_c, 0, 59, 100
2, 183480, Note_on_c, 0, 59, 0
2, 183480, Note_on_c, 0, 67, 100
2, 183600, Note_on_c, 0, 67, 0
2, 183600, Note_on_c, 0, 74, 100
2, 183720, Note_on_c, 0, 74, 0
2, 183720, Note_on_c, 0, 65, 100
2, 183840, Note_on_c, 0, 65, 0
2, 183840, Note_on_c, 0, 64, 100
2, 183960, Note_on_c, 0, 64, 0
2, 183960, Note_on_c, 0, 60, 100
2, 184080, Note_on_c, 0, 60, 0
2, 184080, Note_on_c, 0, 65, 100
2, 184200, Note_on_c, 0, 65, 0
2, 184200, Note_on_c, 0, 62, 100
2, 184320, Note_on_c, 0, 62, 0
2, 184320, Note_on_c, 0, 67, 100
2, 184440, Note_on_c, 0, 67, 0
2, 184440, Note_on_c, 0, 64, 100
2, 184560, Note_on_c, 0, 64, 0
2, 184560, Note_on_c, 0, 60, 100
2, 184680, Note_on_c, 0, 60, 0
2, 184680, Note_on_c, 0, 64, 100
2, 184800, Note_on_c, 0, 64, 0
2, 184800, Note_on_c, 0, 67, 100
2, 184920, Note_on_c, 0, 67, 0
2, 184920, Note_on_c, 0, 64, 100
2, 185040, Note_on_c, 0, 64, 0
2, 185040, Note_on_c, 0, 69, 100
2, 185160, Note_on_c, 0, 69, 0
2, 185160, Note_on_c, 0, 65, 100
2, 185280, Note_on_c, 0, 65, 0
2, 185280, Note_on_c, 0, 70, 100
2, 185400, Note_on_c, 0, 70, 0
2, 185400, Note_on_c, 0, 67, 100
2, 185520, Note_on_c, 0, 67, 0
2, 185520, Note_on_c, 0, 64, 100
2, 185640, Note_on_c, 0, 64, 0
2, 185640, Note_on_c, 0, 67, 100
2, 185760, Note_on_c, 0, 67, 0
2, 185760, Note_on_c, 0, 70, 100
2, 185880, Note_on_c, 0, 70, 0
2, 185880, Note_on_c, 0, 67, 100
2, 186000, Note_on_c, 0, 67, 0
2, 186000, Note_on_c, 0, 72, 100
2, 186120, Note_on_c, 0, 72, 0
2, 186120, Note_on_c, 0, 67, 100
2, 186240, Note_on_c, 0, 67, 0
2, 186240, Note_on_c, 0, 69, 100
2, 186360, Note_on_c, 0, 69, 0
2, 186360, Note_on_c, 0, 65, 100
2, 186480, Note_on_c, 0, 65, 0
2, 186480, Note_on_c, 0, 69, 100
2, 186600, Note_on_c, 0, 69, 0
2, 186600, Note_on_c, 0, 72, 100
2, 186720, Note_on_c, 0, 72, 0
2, 186720, Note_on_c, 0, 77, 100
2, 186840, Note_on_c, 0, 77, 0
2, 186840, Note_on_c, 0, 74, 100
2, 186960, Note_on_c, 0, 74, 0
2, 186960, Note_on_c, 0, 81, 100
2, 187080, Note_on_c, 0, 81, 0
2, 187080, Note_on_c, 0, 72, 100
2, 187200, Note_on_c, 0, 72, 0
2, 187200, Note_on_c, 0, 71, 100
2, 187320, Note_on_c, 0, 71, 0
2, 187320, Note_on_c, 0, 67, 100
2, 187440, Note_on_c, 0, 67, 0
2, 187440, Note_on_c, 0, 71, 100
2, 187560, Note_on_c, 0, 71, 0
2, 187560, Note_on_c, 0, 74, 100
2, 187680, Note_on_c, 0, 74, 0
2, 187680, Note_on_c, 0, 79, 100
2, 187800, Note_on_c, 0, 79, 0
2, 187800, Note_on_c, 0, 76, 100
2, 187920, Note_on_c, 0, 76, 0
2, 187920, Note_on_c, 0, 83, 100
2, 188040, Note_on_c, 0, 83, 0
2, 188040, Note_on_c, 0, 74, 100
2, 188160, Note_on_c, 0, 74, 0
2, 188160, Note_on_c, 0, 72, 100
2, 188280, Note_on_c, 0, 72, 0
2, 188280, Note_on_c, 0, 69, 100
2, 188400, Note_on_c, 0, 69, 0
2, 188400, Note_on_c, 0, 72, 100
2, 188520, Note_on_c, 0, 72, 0
2, 188520, Note_on_c, 0, 76, 100
2, 188640, Note_on_c, 0, 76, 0
2, 188640, Note_on_c, 0, 81, 100
2, 188760, Note_on_c, 0, 81, 0
2, 188760, Note_on_c, 0, 77, 100
2, 188880, Note_on_c, 0, 77, 0
2, 188880, Note_on_c, 0, 84, 100
2, 189000, Note_on_c, 0, 84, 0
2, 189000, Note_on_c, 0, 76, 100
2, 189120, Note_on_c, 0, 76, 0
2, 189120, Note_on_c, 0, 74, 100
2, 189240, Note_on_c, 0, 74, 0
2, 189240, Note_on_c, 0, 71, 100
2, 189360, Note_on_c, 0, 71, 0
2, 189360, Note_on_c, 0, 74, 100
2, 189480, Note_on_c, 0, 74, 0
2, 189480, Note_on_c, 0, 79, 100
2, 189600, Note_on_c, 0, 79, 0
2, 189600, Note_on_c, 0, 83, 100
2, 189720, Note_on_c, 0, 83, 0
2, 189720, Note_on_c, 0, 79, 100
2, 189840, Note_on_c, 0, 79, 0
2, 189840, Note_on_c, 0, 86, 100
2, 189960, Note_on_c, 0, 86, 0
2, 189960, Note_on_c, 0, 77, 100
2, 190080, Note_on_c, 0, 77, 0
2, 190080, Note_on_c, 0, 76, 100
2, 190200, Note_on_c, 0, 76, 0
2, 190200, Note_on_c, 0, 79, 100
2, 190260, Note_on_c, 0, 79, 0
2, 190260, Note_on_c, 0, 77, 100
2, 190320, Note_on_c, 0, 77, 0
2, 190320, Note_on_c, 0, 76, 100
2, 190440, Note_on_c, 0, 76, 0
2, 190440, Note_on_c, 0, 77, 100
2, 190500, Note_on_c, 0, 77, 0
2, 190500, Note_on_c, 0, 79, 100
2, 190560, Note_on_c, 0, 79, 0
2, 190560, Note_on_c, 0, 81, 100
2, 190680, Note_on_c, 0, 81, 0
2, 190680, Note_on_c, 0, 71, 100
2, 190740, Note_on_c, 0, 71, 0
2, 190740, Note_on_c, 0, 72, 100
2, 190800, Note_on_c, 0, 72, 0
2, 190800, Note_on_c, 0, 74, 100
2, 190920, Note_on_c, 0, 74, 0
2, 190920, Note_on_c, 0, 76, 100
2, 190980, Note_on_c, 0, 76, 0
2, 190980, Note_on_c, 0, 77, 100
2, 191040, Note_on_c, 0, 77, 0
2, 191040, Note_on_c, 0, 79, 100
2, 191160, Note_on_c, 0, 79, 0
2, 191160, Note_on_c, 0, 69, 100
2, 191220, Note_on_c, 0, 69, 0
2, 191220, Note_on_c, 0, 71, 100
2, 191280, Note_on_c, 0, 71, 0
2, 191280, Note_on_c, 0, 72, 100
2, 191400, Note_on_c, 0, 72, 0
2, 191400, Note_on_c, 0, 74, 100
2, 191460, Note_on_c, 0, 74, 0
2, 191460, Note_on_c, 0, 76, 100
2, 191520, Note_on_c, 0, 76, 0
2, 191520, Note_on_c, 0, 77, 100
2, 191640, Note_on_c, 0, 77, 0
2, 191640, Note_on_c, 0, 67, 100
2, 191700, Note_on_c, 0, 67, 0
2, 191700, Note_on_c, 0, 69, 100
2, 191760, Note_on_c, 0, 69, 0
2, 191760, Note_on_c, 0, 71, 100
2, 191880, Note_on_c, 0, 71, 0
2, 191880, Note_on_c, 0, 72, 100
2, 191940, Note_on_c, 0, 72, 0
2, 191940, Note_on_c, 0, 74, 100
2, 192000, Note_on_c, 0, 74, 0
2, 192000, Note_on_c, 0, 76, 100
2, 192120, Note_on_c, 0, 76, 0
2, 192120, Note_on_c, 0, 60, 100
2, 192180, Note_on_c, 0, 60, 0
2, 192180, Note_on_c, 0, 62, 100
2, 192240, Note_on_c, 0, 62, 0
2, 192240, Note_on_c, 0, 64, 100
2, 192360, Note_on_c, 0, 64, 0
2, 192360, Note_on_c, 0, 65, 100
2, 192420, Note_on_c, 0, 65, 0
2, 192420, Note_on_c, 0, 67, 100
2, 192480, Note_on_c, 0, 67, 0
2, 192480, Note_on_c, 0, 69, 100
2, 192600, Note_on_c, 0, 69, 0
2, 192600, Note_on_c, 0, 65, 100
2, 192720, Note_on_c, 0, 65, 0
2, 192720, Note_on_c, 0, 74, 100
2, 192840, Note_on_c, 0, 74, 0
2, 192840, Note_on_c, 0, 65, 100
2, 192960, Note_on_c, 0, 65, 0
2, 192960, Note_on_c, 0, 55, 100
2, 193080, Note_on_c, 0, 55, 0
2, 193080, Note_on_c, 0, 65, 100
2, 193200, Note_on_c, 0, 65, 0
2, 193200, Note_on_c, 0, 71, 100
2, 193320, Note_on_c, 0, 71, 0
2, 193320, Note_on_c, 0, 74, 100
2, 193440, Note_on_c, 0, 74, 0
2, 193440, Note_on_c, 0, 72, 100
2, 193560, Note_on_c, 0, 72, 0
2, 193560, Note_on_c, 0, 71, 100
2, 193680, Note_on_c, 0, 71, 0
2, 193680, Note_on_c, 0, 69, 100
2, 193800, Note_on_c, 0, 69, 0
2, 193800, Note_on_c, 0, 67, 100
2, 193920, Note_on_c, 0, 67, 0
2, 193920, Note_on_c, 0, 65, 100
2, 194040, Note_on_c, 0, 65, 0
2, 194040, Note_on_c, 0, 64, 100
2, 194100, Note_on_c, 0, 64, 0
2, 194100, Note_on_c, 0, 62, 100
2, 194160, Note_on_c, 0, 62, 0
2, 194160, Note_on_c, 0, 64, 100
2, 194280, Note_on_c, 0, 64, 0
2, 194280, Note_on_c, 0, 72, 100
2, 194400, Note_on_c, 0, 72, 0
2, 194400, Note_on_c, 0, 55, 100
2, 194520, Note_on_c, 0, 55, 0
2, 194520, Note_on_c, 0, 62, 100
2, 194640, Note_on_c, 0, 62, 0
2, 194640, Note_on_c, 0, 72, 100
2, 194760, Note_on_c, 0, 72, 0
2, 194760, Note_on_c, 0, 71, 100
2, 194880, Note_on_c, 0, 71, 0
2, 194880, Note_on_c, 0, 72, 100
2, 195000, Note_on_c, 0, 72, 0
2, 195000, Note_on_c, 0, 76, 100
2, 195060, Note_on_c, 0, 76, 0
2, 195060, Note_on_c, 0, 72, 100
2, 195120, Note_on_c, 0, 72, 0
2, 195120, Note_on_c, 0, 67, 100
2, 195240, Note_on_c, 0, 67, 0
2, 195240, Note_on_c, 0, 65, 100
2, 195360, Note_on_c, 0, 65, 0
2, 195360, Note_on_c, 0, 64, 100
2, 195480, Note_on_c, 0, 64, 0
2, 195480, Note_on_c, 0, 67, 100
2, 195540, Note_on_c, 0, 67, 0
2, 195540, Note_on_c, 0, 64, 100
2, 195600, Note_on_c, 0, 64, 0
2, 195600, Note_on_c, 0, 60, 100
2, 195720, Note_on_c, 0, 60, 0
2, 195720, Note_on_c, 0, 58, 100
2, 195840, Note_on_c, 0, 58, 0
2, 195840, Note_on_c, 0, 57, 100
2, 195960, Note_on_c, 0, 57, 0
2, 195960, Note_on_c, 0, 67, 100
2, 196080, Note_on_c, 0, 67, 0
2, 196080, Note_on_c, 0, 73, 100
2, 196200, Note_on_c, 0, 73, 0
2, 196200, Note_on_c, 0, 67, 100
2, 196320, Note_on_c, 0, 67, 0
2, 196320, Note_on_c, 0, 73, 100
2, 196440, Note_on_c, 0, 73, 0
2, 196440, Note_on_c, 0, 67, 100
2, 196560, Note_on_c, 0, 67, 0
2, 196560, Note_on_c, 0, 76, 100
2, 196680, Note_on_c, 0, 76, 0
2, 196680, Note_on_c, 0, 67, 100
2, 196800, Note_on_c, 0, 67, 0
2, 196800, Note_on_c, 0, 65, 100
2, 196920, Note_on_c, 0, 65, 0
2, 196920, Note_on_c, 0, 74, 100
2, 196980, Note_on_c, 0, 74, 0
2, 196980, Note_on_c, 0, 69, 100
2, 197040, Note_on_c, 0, 69, 0
2, 197040, Note_on_c, 0, 65, 100
2, 197160, Note_on_c, 0, 65, 0
2, 197160, Note_on_c, 0, 64, 100
2, 197280, Note_on_c, 0, 64, 0
2, 197280, Note_on_c, 0, 62, 100
2, 197400, Note_on_c, 0, 62, 0
2, 197400, Note_on_c, 0, 69, 100
2, 197460, Note_on_c, 0, 69, 0
2, 197460, Note_on_c, 0, 65, 100
2, 197520, Note_on_c, 0, 65, 0
2, 197520, Note_on_c, 0, 62, 100
2, 197640, Note_on_c, 0, 62, 0
2, 197640, Note_on_c, 0, 60, 100
2, 197760, Note_on_c, 0, 60, 0
2, 197760, Note_on_c, 0, 59, 100
2, 197880, Note_on_c, 0, 59, 0
2, 197880, Note_on_c, 0, 69, 100
2, 198000, Note_on_c, 0, 69, 0
2, 198000, Note_on_c, 0, 75, 100
2, 198120, Note_on_c, 0, 75, 0
2, 198120, Note_on_c, 0, 69, 100
2, 198240, Note_on_c, 0, 69, 0
2, 198240, Note_on_c, 0, 75, 100
2, 198360, Note_on_c, 0, 75, 0
2, 198360, Note_on_c, 0, 69, 100
2, 198480, Note_on_c, 0, 69, 0
2, 198480, Note_on_c, 0, 78, 100
2, 198600, Note_on_c, 0, 78, 0
2, 198600, Note_on_c, 0, 69, 100
2, 198720, Note_on_c, 0, 69, 0
2, 198720, Note_on_c, 0, 68, 100
2, 198840, Note_on_c, 0, 68, 0
2, 198840, Note_on_c, 0, 76, 100
2, 198900, Note_on_c, 0, 76, 0
2, 198900, Note_on_c, 0, 71, 100
2, 198960, Note_on_c, 0, 71, 0
2, 198960, Note_on_c, 0, 68, 100
2, 199080, Note_on_c, 0, 68, 0
2, 199080, Note_on_c, 0, 66, 100
2, 199200, Note_on_c, 0, 66, 0
2, 199200, Note_on_c, 0, 64, 100
2, 199320, Note_on_c, 0, 64, 0
2, 199320, Note_on_c, 0, 71, 100
2, 199380, Note_on_c, 0, 71, 0
2, 199380, Note_on_c, 0, 68, 100
2, 199440, Note_on_c, 0, 68, 0
2, 199440, Note_on_c, 0, 64, 100
2, 199560, Note_on_c, 0, 64, 0
2, 199560, Note_on_c, 0, 62, 100
2, 199680, Note_on_c, 0, 62, 0
2, 199680, Note_on_c, 0, 60, 100
2, 199740, Note_on_c, 0, 60, 0
2, 199740, Note_on_c, 0, 76, 100
2, 199800, Note_on_c, 0, 76, 0
2, 199800, Note_on_c, 0, 74, 100
2, 199860, Note_on_c, 0, 74, 0
2, 199860, Note_on_c, 0, 72, 100
2, 199920, Note_on_c, 0, 72, 0
2, 199920, Note_on_c, 0, 71, 100
2, 200040, Note_on_c, 0, 71, 0
2, 200040, Note_on_c, 0, 72, 100
2, 200100, Note_on_c, 0, 72, 0
2, 200100, Note_on_c, 0, 74, 100
2, 200160, Note_on_c, 0, 74, 0
2, 200160, Note_on_c, 0, 72, 100
2, 200280, Note_on_c, 0, 72, 0
2, 200280, Note_on_c, 0, 71, 100
2, 200340, Note_on_c, 0, 71, 0
2, 200340, Note_on_c, 0, 69, 100
2, 200400, Note_on_c, 0, 69, 0
2, 200400, Note_on_c, 0, 68, 100
2, 200520, Note_on_c, 0, 68, 0
2, 200520, Note_on_c, 0, 69, 100
2, 200580, Note_on_c, 0, 69, 0
2, 200580, Note_on_c, 0, 71, 100
2, 200640, Note_on_c, 0, 71, 0
2, 200640, Note_on_c, 0, 61, 100
2, 200700, Note_on_c, 0, 61, 0
2, 200700, Note_on_c, 0, 69, 100
2, 200760, Note_on_c, 0, 69, 0
2, 200760, Note_on_c, 0, 67, 100
2, 200820, Note_on_c, 0, 67, 0
2, 200820, Note_on_c, 0, 65, 100
2, 200880, Note_on_c, 0, 65, 0
2, 200880, Note_on_c, 0, 64, 100
2, 201000, Note_on_c, 0, 64, 0
2, 201000, Note_on_c, 0, 65, 100
2, 201060, Note_on_c, 0, 65, 0
2, 201060, Note_on_c, 0, 67, 100
2, 201120, Note_on_c, 0, 67, 0
2, 201120, Note_on_c, 0, 65, 100
2, 201240, Note_on_c, 0, 65, 0
2, 201240, Note_on_c, 0, 64, 100
2, 201300, Note_on_c, 0, 64, 0
2, 201300, Note_on_c, 0, 62, 100
2, 201360, Note_on_c, 0, 62, 0
2, 201360, Note_on_c, 0, 61, 100
2, 201480, Note_on_c, 0, 61, 0
2, 201480, Note_on_c, 0, 62, 100
2, 201540, Note_on_c, 0, 62, 0
2, 201540, Note_on_c, 0, 64, 100
2, 201600, Note_on_c, 0, 64, 0
2, 201600, Note_on_c, 0, 62, 100
2, 201720, Note_on_c, 0, 62, 0
2, 201720, Note_on_c, 0, 77, 100
2, 201780, Note_on_c, 0, 77, 0
2, 201780, Note_on_c, 0, 76, 100
2, 201840, Note_on_c, 0, 76, 0
2, 201840, Note_on_c, 0, 74, 100
2, 201960, Note_on_c, 0, 74, 0
2, 201960, Note_on_c, 0, 72, 100
2, 202080, Note_on_c, 0, 72, 0
2, 202080, Note_on_c, 0, 71, 100
2, 202200, Note_on_c, 0, 71, 0
2, 202200, Note_on_c, 0, 74, 100
2, 202320, Note_on_c, 0, 74, 0
2, 202320, Note_on_c, 0, 67, 100
2, 202440, Note_on_c, 0, 67, 0
2, 202440, Note_on_c, 0, 69, 100
2, 202500, Note_on_c, 0, 69, 0
2, 202500, Note_on_c, 0, 71, 100
2, 202560, Note_on_c, 0, 71, 0
2, 202560, Note_on_c, 0, 60, 100
2, 202680, Note_on_c, 0, 60, 0
2, 202680, Note_on_c, 0, 76, 100
2, 202740, Note_on_c, 0, 76, 0
2, 202740, Note_on_c, 0, 74, 100
2, 202800, Note_on_c, 0, 74, 0
2, 202800, Note_on_c, 0, 72, 100
2, 202920, Note_on_c, 0, 72, 0
2, 202920, Note_on_c, 0, 71, 100
2, 203040, Note_on_c, 0, 71, 0
2, 203040, Note_on_c, 0, 69, 100
2, 203160, Note_on_c, 0, 69, 0
2, 203160, Note_on_c, 0, 72, 100
2, 203280, Note_on_c, 0, 72, 0
2, 203280, Note_on_c, 0, 65, 100
2, 203400, Note_on_c, 0, 65, 0
2, 203400, Note_on_c, 0, 67, 100
2, 203460, Note_on_c, 0, 67, 0
2, 203460, Note_on_c, 0, 69, 100
2, 203520, Note_on_c, 0, 69, 0
2, 203520, Note_on_c, 0, 59, 100
2, 203640, Note_on_c, 0, 59, 0
2, 203640, Note_on_c, 0, 74, 100
2, 203700, Note_on_c, 0, 74, 0
2, 203700, Note_on_c, 0, 72, 100
2, 203760, Note_on_c, 0, 72, 0
2, 203760, Note_on_c, 0, 71, 100
2, 203880, Note_on_c, 0, 71, 0
2, 203880, Note_on_c, 0, 69, 100
2, 204000, Note_on_c, 0, 69, 0
2, 204000, Note_on_c, 0, 68, 100
2, 204120, Note_on_c, 0, 68, 0
2, 204120, Note_on_c, 0, 74, 100
2, 204240, Note_on_c, 0, 74, 0
2, 204240, Note_on_c, 0, 83, 100
2, 204360, Note_on_c, 0, 83, 0
2, 204360, Note_on_c, 0, 74, 100
2, 204480, Note_on_c, 0, 74, 0
2, 204480, Note_on_c, 0, 72, 100
2, 204600, Note_on_c, 0, 72, 0
2, 204600, Note_on_c, 0, 69, 100
2, 204660, Note_on_c, 0, 69, 0
2, 204660, Note_on_c, 0, 71, 100
2, 204720, Note_on_c, 0, 71, 0
2, 204720, Note_on_c, 0, 72, 100
2, 204840, Note_on_c, 0, 72, 0
2, 204840, Note_on_c, 0, 77, 100
2, 204960, Note_on_c, 0, 77, 0
2, 204960, Note_on_c, 0, 71, 100
2, 205080, Note_on_c, 0, 71, 0
2, 205080, Note_on_c, 0, 67, 100
2, 205140, Note_on_c, 0, 67, 0
2, 205140, Note_on_c, 0, 69, 100
2, 205200, Note_on_c, 0, 69, 0
2, 205200, Note_on_c, 0, 71, 100
2, 205320, Note_on_c, 0, 71, 0
2, 205320, Note_on_c, 0, 76, 100
2, 205440, Note_on_c, 0, 76, 0
2, 205440, Note_on_c, 0, 69, 100
2, 205560, Note_on_c, 0, 69, 0
2, 205560, Note_on_c, 0, 65, 100
2, 205620, Note_on_c, 0, 65, 0
2, 205620, Note_on_c, 0, 67, 100
2, 205680, Note_on_c, 0, 67, 0
2, 205680, Note_on_c, 0, 69, 100
2, 205800, Note_on_c, 0, 69, 0
2, 205800, Note_on_c, 0, 73, 100
2, 205920, Note_on_c, 0, 73, 0
2, 205920, Note_on_c, 0, 74, 100
2, 206040, Note_on_c, 0, 74, 0
2, 206040, Note_on_c, 0, 71, 100
2, 206100, Note_on_c, 0, 71, 0
2, 206100, Note_on_c, 0, 72, 100
2, 206160, Note_on_c, 0, 72, 0
2, 206160, Note_on_c, 0, 74, 100
2, 206280, Note_on_c, 0, 74, 0
2, 206280, Note_on_c, 0, 77, 100
2, 206400, Note_on_c, 0, 77, 0
2, 206400, Note_on_c, 0, 80, 100
2, 206520, Note_on_c, 0, 80, 0
2, 206520, Note_on_c, 0, 76, 100
2, 206580, Note_on_c, 0, 76, 0
2, 206580, Note_on_c, 0, 78, 100
2, 206640, Note_on_c, 0, 78, 0
2, 206640, Note_on_c, 0, 80, 100
2, 206760, Note_on_c, 0, 80, 0
2, 206760, Note_on_c, 0, 83, 100
2, 206880, Note_on_c, 0, 83, 0
2, 206880, Note_on_c, 0, 86, 100
2, 207000, Note_on_c, 0, 86, 0
2, 207000, Note_on_c, 0, 83, 100
2, 207060, Note_on_c, 0, 83, 0
2, 207060, Note_on_c, 0, 80, 100
2, 207120, Note_on_c, 0, 80, 0
2, 207120, Note_on_c, 0, 76, 100
2, 207240, Note_on_c, 0, 76, 0
2, 207240, Note_on_c, 0, 80, 100
2, 207300, Note_on_c, 0, 80, 0
2, 207300, Note_on_c, 0, 83, 100
2, 207360, Note_on_c, 0, 83, 0
2, 207360, Note_on_c, 0, 84, 100
2, 207480, Note_on_c, 0, 84, 0
2, 207480, Note_on_c, 0, 88, 100
2, 207540, Note_on_c, 0, 88, 0
2, 207540, Note_on_c, 0, 84, 100
2, 207600, Note_on_c, 0, 84, 0
2, 207600, Note_on_c, 0, 81, 100
2, 207720, Note_on_c, 0, 81, 0
2, 207720, Note_on_c, 0, 79, 100
2, 207840, Note_on_c, 0, 79, 0
2, 207840, Note_on_c, 0, 77, 100
2, 207960, Note_on_c, 0, 77, 0
2, 207960, Note_on_c, 0, 86, 100
2, 208080, Note_on_c, 0, 86, 0
2, 208080, Note_on_c, 0, 76, 100
2, 208200, Note_on_c, 0, 76, 0
2, 208200, Note_on_c, 0, 84, 100
2, 208320, Note_on_c, 0, 84, 0
2, 208320, Note_on_c, 0, 74, 100
2, 208440, Note_on_c, 0, 74, 0
2, 208440, Note_on_c, 0, 84, 100
2, 208500, Note_on_c, 0, 84, 0
2, 208500, Note_on_c, 0, 81, 100
2, 208560, Note_on_c, 0, 81, 0
2, 208560, Note_on_c, 0, 77, 100
2, 208680, Note_on_c, 0, 77, 0
2, 208680, Note_on_c, 0, 76, 100
2, 208800, Note_on_c, 0, 76, 0
2, 208800, Note_on_c, 0, 74, 100
2, 208920, Note_on_c, 0, 74, 0
2, 208920, Note_on_c, 0, 83, 100
2, 209040, Note_on_c, 0, 83, 0
2, 209040, Note_on_c, 0, 72, 100
2, 209160, Note_on_c, 0, 72, 0
2, 209160, Note_on_c, 0, 81, 100
2, 209280, Note_on_c, 0, 81, 0
2, 209280, Note_on_c, 0, 71, 100
2, 209400, Note_on_c, 0, 71, 0
2, 209400, Note_on_c, 0, 77, 100
2, 209460, Note_on_c, 0, 77, 0
2, 209460, Note_on_c, 0, 74, 100
2, 209520, Note_on_c, 0, 74, 0
2, 209520, Note_on_c, 0, 71, 100
2, 209640, Note_on_c, 0, 71, 0
2, 209640, Note_on_c, 0, 69, 100
2, 209760, Note_on_c, 0, 69, 0
2, 209760, Note_on_c, 0, 68, 100
2, 209880, Note_on_c, 0, 68, 0
2, 209880, Note_on_c, 0, 74, 100
2, 210000, Note_on_c, 0, 74, 0
2, 210000, Note_on_c, 0, 66, 100
2, 210120, Note_on_c, 0, 66, 0
2, 210120, Note_on_c, 0, 74, 100
2, 210240, Note_on_c, 0, 74, 0
2, 210240, Note_on_c, 0, 64, 100
2, 210360, Note_on_c, 0, 64, 0
2, 210360, Note_on_c, 0, 68, 100
2, 210480, Note_on_c, 0, 68, 0
2, 210480, Note_on_c, 0, 71, 100
2, 210600, Note_on_c, 0, 71, 0
2, 210600, Note_on_c, 0, 74, 100
2, 210720, Note_on_c, 0, 74, 0
2, 210720, Note_on_c, 0, 77, 100
2, 210840, Note_on_c, 0, 77, 0
2, 210840, Note_on_c, 0, 76, 100
2, 210900, Note_on_c, 0, 76, 0
2, 210900, Note_on_c, 0, 74, 100
2, 210960, Note_on_c, 0, 74, 0
2, 210960, Note_on_c, 0, 72, 100
2, 211080, Note_on_c, 0, 72, 0
2, 211080, Note_on_c, 0, 71, 100
2, 211200, Note_on_c, 0, 71, 0
2, 211200, Note_on_c, 0, 72, 100
2, 211320, Note_on_c, 0, 72, 0
2, 211320, Note_on_c, 0, 68, 100
2, 211440, Note_on_c, 0, 68, 0
2, 211440, Note_on_c, 0, 69, 100
2, 211560, Note_on_c, 0, 69, 0
2, 211560, Note_on_c, 0, 63, 100
2, 211680, Note_on_c, 0, 63, 0
2, 211680, Note_on_c, 0, 64, 100
2, 211800, Note_on_c, 0, 64, 0
2, 211800, Note_on_c, 0, 72, 100
2, 211860, Note_on_c, 0, 72, 0
2, 211860, Note_on_c, 0, 71, 100
2, 211920, Note_on_c, 0, 71, 0
2, 211920, Note_on_c, 0, 69, 100
2, 212040, Note_on_c, 0, 69, 0
2, 212040, Note_on_c, 0, 68, 100
2, 212160, Note_on_c, 0, 68, 0
2, 212160, Note_on_c, 0, 69, 100
2, 212280, Note_on_c, 0, 69, 0
2, 212280, Note_on_c, 0, 65, 100
2, 212340, Note_on_c, 0, 65, 0
2, 212340, Note_on_c, 0, 67, 100
2, 212400, Note_on_c, 0, 67, 0
2, 212400, Note_on_c, 0, 69, 100
2, 212520, Note_on_c, 0, 69, 0
2, 212520, Note_on_c, 0, 65, 100
2, 212640, Note_on_c, 0, 65, 0
2, 212640, Note_on_c, 0, 64, 100
2, 212760, Note_on_c, 0, 64, 0
2, 212760, Note_on_c, 0, 62, 100
2, 212880, Note_on_c, 0, 62, 0
2, 212880, Note_on_c, 0, 60, 100
2, 213000, Note_on_c, 0, 60, 0
2, 213000, Note_on_c, 0, 59, 100
2, 213120, Note_on_c, 0, 59, 0
2, 213120, Note_on_c, 0, 60, 100
2, 213180, Note_on_c, 0, 60, 0
2, 213180, Note_on_c, 0, 64, 100
2, 213240, Note_on_c, 0, 64, 0
2, 213240, Note_on_c, 0, 66, 100
2, 213300, Note_on_c, 0, 66, 0
2, 213300, Note_on_c, 0, 68, 100
2, 213360, Note_on_c, 0, 68, 0
2, 213360, Note_on_c, 0, 69, 100
2, 213480, Note_on_c, 0, 69, 0
2, 213480, Note_on_c, 0, 64, 100
2, 213600, Note_on_c, 0, 64, 0
2, 213600, Note_on_c, 0, 62, 100
2, 213720, Note_on_c, 0, 62, 0
2, 213720, Note_on_c, 0, 60, 100
2, 213840, Note_on_c, 0, 60, 0
2, 213840, Note_on_c, 0, 59, 100
2, 213960, Note_on_c, 0, 59, 0
2, 213960, Note_on_c, 0, 57, 100
2, 214080, Note_on_c, 0, 57, 0
2, 214080, Note_on_c, 0, 59, 100
2, 214140, Note_on_c, 0, 59, 0
2, 214140, Note_on_c, 0, 60, 100
2, 214200, Note_on_c, 0, 60, 0
2, 214200, Note_on_c, 0, 62, 100
2, 214260, Note_on_c, 0, 62, 0
2, 214260, Note_on_c, 0, 64, 100
2, 214320, Note_on_c, 0, 64, 0
2, 214320, Note_on_c, 0, 65, 100
2, 214440, Note_on_c, 0, 65, 0
2, 214440, Note_on_c, 0, 64, 100
2, 214560, Note_on_c, 0, 64, 0
2, 214560, Note_on_c, 0, 62, 100
2, 214680, Note_on_c, 0, 62, 0
2, 214680, Note_on_c, 0, 71, 100
2, 214800, Note_on_c, 0, 71, 0
2, 214800, Note_on_c, 0, 77, 100
2, 214920, Note_on_c, 0, 77, 0
2, 214920, Note_on_c, 0, 69, 100
2, 215040, Note_on_c, 0, 69, 0
2, 215040, Note_on_c, 0, 68, 100
2, 215100, Note_on_c, 0, 68, 0
2, 215100, Note_on_c, 0, 69, 100
2, 215160, Note_on_c, 0, 69, 0
2, 215160, Note_on_c, 0, 71, 100
2, 215220, Note_on_c, 0, 71, 0
2, 215220, Note_on_c, 0, 72, 100
2, 215280, Note_on_c, 0, 72, 0
2, 215280, Note_on_c, 0, 74, 100
2, 215400, Note_on_c, 0, 74, 0
2, 215400, Note_on_c, 0, 72, 100
2, 215520, Note_on_c, 0, 72, 0
2, 215520, Note_on_c, 0, 71, 100
2, 215640, Note_on_c, 0, 71, 0
2, 215640, Note_on_c, 0, 80, 100
2, 215700, Note_on_c, 0, 80, 0
2, 215700, Note_on_c, 0, 81, 100
2, 215760, Note_on_c, 0, 81, 0
2, 215760, Note_on_c, 0, 83, 100
2, 215880, Note_on_c, 0, 83, 0
2, 215880, Note_on_c, 0, 74, 100
2, 216000, Note_on_c, 0, 74, 0
2, 216000, Note_on_c, 0, 72, 100
2, 216060, Note_on_c, 0, 72, 0
2, 216060, Note_on_c, 0, 76, 100
2, 216120, Note_on_c, 0, 76, 0
2, 216120, Note_on_c, 0, 78, 100
2, 216180, Note_on_c, 0, 78, 0
2, 216180, Note_on_c, 0, 80, 100
2, 216240, Note_on_c, 0, 80, 0
2, 216240, Note_on_c, 0, 81, 100
2, 216360, Note_on_c, 0, 81, 0
2, 216360, Note_on_c, 0, 72, 100
2, 216480, Note_on_c, 0, 72, 0
2, 216480, Note_on_c, 0, 64, 100
2, 216600, Note_on_c, 0, 64, 0
2, 216600, Note_on_c, 0, 71, 100
2, 216720, Note_on_c, 0, 71, 0
2, 216720, Note_on_c, 0, 81, 100
2, 216840, Note_on_c, 0, 81, 0
2, 216840, Note_on_c, 0, 80, 100
2, 216960, Note_on_c, 0, 80, 0
2, 216960, Note_on_c, 0, 69, 100
2, 217080, Note_on_c, 0, 69, 0
2, 217080, Note_on_c, 0, 73, 100
2, 217200, Note_on_c, 0, 73, 0
2, 217200, Note_on_c, 0, 79, 100
2, 217320, Note_on_c, 0, 79, 0
2, 217320, Note_on_c, 0, 76, 100
2, 217440, Note_on_c, 0, 76, 0
2, 217440, Note_on_c, 0, 69, 100
2, 217560, Note_on_c, 0, 69, 0
2, 217560, Note_on_c, 0, 74, 100
2, 217680, Note_on_c, 0, 74, 0
2, 217680, Note_on_c, 0, 78, 100
2, 217800, Note_on_c, 0, 78, 0
2, 217800, Note_on_c, 0, 74, 100
2, 217920, Note_on_c, 0, 74, 0
2, 217920, Note_on_c, 0, 68, 100
2, 218040, Note_on_c, 0, 68, 0
2, 218040, Note_on_c, 0, 74, 100
2, 218160, Note_on_c, 0, 74, 0
2, 218160, Note_on_c, 0, 77, 100
2, 218280, Note_on_c, 0, 77, 0
2, 218280, Note_on_c, 0, 74, 100
2, 218400, Note_on_c, 0, 74, 0
2, 218400, Note_on_c, 0, 67, 100
2, 218520, Note_on_c, 0, 67, 0
2, 218520, Note_on_c, 0, 73, 100
2, 218640, Note_on_c, 0, 73, 0
2, 218640, Note_on_c, 0, 76, 100
2, 218760, Note_on_c, 0, 76, 0
2, 218760, Note_on_c, 0, 73, 100
2, 218880, Note_on_c, 0, 73, 0
2, 218880, Note_on_c, 0, 66, 100
2, 219000, Note_on_c, 0, 66, 0
2, 219000, Note_on_c, 0, 69, 100
2, 219120, Note_on_c, 0, 69, 0
2, 219120, Note_on_c, 0, 76, 100
2, 219240, Note_on_c, 0, 76, 0
2, 219240, Note_on_c, 0, 69, 100
2, 219360, Note_on_c, 0, 69, 0
2, 219360, Note_on_c, 0, 65, 100
2, 219480, Note_on_c, 0, 65, 0
2, 219480, Note_on_c, 0, 74, 100
2, 219600, Note_on_c, 0, 74, 0
2, 219600, Note_on_c, 0, 81, 100
2, 219720, Note_on_c, 0, 81, 0
2, 219720, Note_on_c, 0, 74, 100
2, 219840, Note_on_c, 0, 74, 0
2, 219840, Note_on_c, 0, 64, 100
2, 219960, Note_on_c, 0, 64, 0
2, 219960, Note_on_c, 0, 74, 100
2, 220080, Note_on_c, 0, 74, 0
2, 220080, Note_on_c, 0, 83, 100
2, 220200, Note_on_c, 0, 83, 0
2, 220200, Note_on_c, 0, 81, 100
2, 220320, Note_on_c, 0, 81, 0
2, 220320, Note_on_c, 0, 80, 100
2, 220440, Note_on_c, 0, 80, 0
2, 220440, Note_on_c, 0, 78, 100
2, 220560, Note_on_c, 0, 78, 0
2, 220560, Note_on_c, 0, 76, 100
2, 220680, Note_on_c, 0, 76, 0
2, 220680, Note_on_c, 0, 74, 100
2, 220800, Note_on_c, 0, 74, 0
2, 220800, Note_on_c, 0, 72, 100
2, 220920, Note_on_c, 0, 72, 0
2, 220920, Note_on_c, 0, 76, 100
2, 220980, Note_on_c, 0, 76, 0
2, 220980, Note_on_c, 0, 72, 100
2, 221040, Note_on_c, 0, 72, 0
2, 221040, Note_on_c, 0, 69, 100
2, 221160, Note_on_c, 0, 69, 0
2, 221160, Note_on_c, 0, 64, 100
2, 221280, Note_on_c, 0, 64, 0
2, 221280, Note_on_c, 0, 71, 100
2, 221400, Note_on_c, 0, 71, 0
2, 221400, Note_on_c, 0, 74, 100
2, 221520, Note_on_c, 0, 74, 0
2, 221520, Note_on_c, 0, 81, 100
2, 221640, Note_on_c, 0, 81, 0
2, 221640, Note_on_c, 0, 80, 100
2, 221760, Note_on_c, 0, 80, 0
2, 221760, Note_on_c, 0, 57, 100
2, 222720, Note_on_c, 0, 57, 0
2, 222720, End_track
3, 0, Start_track
3, 0, MIDI_port, 0
3, 0, Title_t, "--------------------------------------"
3, 0, Program_c, 1, 40
3, 0, Control_c, 1, 7, 100
3, 0, Control_c, 1, 10, 59
3, 960, Note_on_c, 1, 69, 75
3, 1080, Note_on_c, 1, 69, 0
3, 1080, Note_on_c, 1, 72, 75
3, 1200, Note_on_c, 1, 72, 0
3, 1200, Note_on_c, 1, 76, 75
3, 1320, Note_on_c, 1, 76, 0
3, 1320, Note_on_c, 1, 81, 75
3, 1440, Note_on_c, 1, 81, 0
3, 1440, Note_on_c, 1, 76, 75
3, 1560, Note_on_c, 1, 76, 0
3, 1560, Note_on_c, 1, 74, 75
3, 1680, Note_on_c, 1, 74, 0
3, 1680, Note_on_c, 1, 72, 75
3, 1800, Note_on_c, 1, 72, 0
3, 1800, Note_on_c, 1, 71, 75
3, 1920, Note_on_c, 1, 71, 0
3, 2880, Note_on_c, 1, 69, 75
3, 3000, Note_on_c, 1, 69, 0
3, 3000, Note_on_c, 1, 72, 75
3, 3060, Note_on_c, 1, 72, 0
3, 3060, Note_on_c, 1, 74, 75
3, 3120, Note_on_c, 1, 74, 0
3, 3120, Note_on_c, 1, 76, 75
3, 3240, Note_on_c, 1, 76, 0
3, 3240, Note_on_c, 1, 64, 75
3, 3360, Note_on_c, 1, 64, 0
3, 3360, Note_on_c, 1, 69, 75
3, 3480, Note_on_c, 1, 69, 0
3, 3480, Note_on_c, 1, 72, 75
3, 3600, Note_on_c, 1, 72, 0
3, 3600, Note_on_c, 1, 76, 75
3, 3720, Note_on_c, 1, 76, 0
3, 3720, Note_on_c, 1, 68, 75
3, 3840, Note_on_c, 1, 68, 0
3, 5760, Note_on_c, 1, 69, 75
3, 5880, Note_on_c, 1, 69, 0
3, 5880, Note_on_c, 1, 71, 75
3, 5940, Note_on_c, 1, 71, 0
3, 5940, Note_on_c, 1, 72, 75
3, 6000, Note_on_c, 1, 72, 0
3, 6000, Note_on_c, 1, 74, 75
3, 6120, Note_on_c, 1, 74, 0
3, 6120, Note_on_c, 1, 72, 75
3, 6180, Note_on_c, 1, 72, 0
3, 6180, Note_on_c, 1, 71, 75
3, 6240, Note_on_c, 1, 71, 0
3, 6240, Note_on_c, 1, 72, 75
3, 6360, Note_on_c, 1, 72, 0
3, 6360, Note_on_c, 1, 74, 75
3, 6420, Note_on_c, 1, 74, 0
3, 6420, Note_on_c, 1, 76, 75
3, 6480, Note_on_c, 1, 76, 0
3, 6480, Note_on_c, 1, 77, 75
3, 6600, Note_on_c, 1, 77, 0
3, 6600, Note_on_c, 1, 76, 75
3, 6660, Note_on_c, 1, 76, 0
3, 6660, Note_on_c, 1, 74, 75
3, 6720, Note_on_c, 1, 74, 0
3, 6720, Note_on_c, 1, 76, 75
3, 6840, Note_on_c, 1, 76, 0
3, 6840, Note_on_c, 1, 81, 75
3, 6960, Note_on_c, 1, 81, 0
3, 6960, Note_on_c, 1, 77, 75
3, 7080, Note_on_c, 1, 77, 0
3, 7080, Note_on_c, 1, 74, 75
3, 7200, Note_on_c, 1, 74, 0
3, 7200, Note_on_c, 1, 76, 75
3, 7320, Note_on_c, 1, 76, 0
3, 7320, Note_on_c, 1, 74, 75
3, 7440, Note_on_c, 1, 74, 0
3, 7440, Note_on_c, 1, 72, 75
3, 7560, Note_on_c, 1, 72, 0
3, 7560, Note_on_c, 1, 71, 75
3, 7680, Note_on_c, 1, 71, 0
3, 9600, Note_on_c, 1, 69, 75
3, 9720, Note_on_c, 1, 69, 0
3, 9720, Note_on_c, 1, 72, 75
3, 9840, Note_on_c, 1, 72, 0
3, 9840, Note_on_c, 1, 76, 75
3, 9960, Note_on_c, 1, 76, 0
3, 9960, Note_on_c, 1, 81, 75
3, 10080, Note_on_c, 1, 81, 0
3, 10080, Note_on_c, 1, 84, 75
3, 10200, Note_on_c, 1, 84, 0
3, 10200, Note_on_c, 1, 76, 75
3, 10320, Note_on_c, 1, 76, 0
3, 10320, Note_on_c, 1, 72, 75
3, 10440, Note_on_c, 1, 72, 0
3, 10440, Note_on_c, 1, 69, 75
3, 10560, Note_on_c, 1, 69, 0
3, 10560, Note_on_c, 1, 68, 75
3, 10680, Note_on_c, 1, 68, 0
3, 10680, Note_on_c, 1, 71, 75
3, 10800, Note_on_c, 1, 71, 0
3, 10800, Note_on_c, 1, 76, 75
3, 10920, Note_on_c, 1, 76, 0
3, 10920, Note_on_c, 1, 80, 75
3, 11040, Note_on_c, 1, 80, 0
3, 11040, Note_on_c, 1, 83, 75
3, 11160, Note_on_c, 1, 83, 0
3, 11160, Note_on_c, 1, 74, 75
3, 11280, Note_on_c, 1, 74, 0
3, 11280, Note_on_c, 1, 72, 75
3, 11400, Note_on_c, 1, 72, 0
3, 11400, Note_on_c, 1, 71, 75
3, 11520, Note_on_c, 1, 71, 0
3, 34080, Note_on_c, 1, 59, 100
3, 34560, Note_on_c, 1, 59, 0
3, 47040, Note_on_c, 1, 69, 75
3, 47160, Note_on_c, 1, 69, 0
3, 47160, Note_on_c, 1, 72, 75
3, 47280, Note_on_c, 1, 72, 0
3, 47280, Note_on_c, 1, 76, 75
3, 47400, Note_on_c, 1, 76, 0
3, 47400, Note_on_c, 1, 81, 75
3, 47520, Note_on_c, 1, 81, 0
3, 47520, Note_on_c, 1, 76, 75
3, 47640, Note_on_c, 1, 76, 0
3, 47640, Note_on_c, 1, 74, 75
3, 47760, Note_on_c, 1, 74, 0
3, 47760, Note_on_c, 1, 72, 75
3, 47880, Note_on_c, 1, 72, 0
3, 47880, Note_on_c, 1, 71, 75
3, 48000, Note_on_c, 1, 71, 0
3, 48960, Note_on_c, 1, 69, 75
3, 49080, Note_on_c, 1, 69, 0
3, 49080, Note_on_c, 1, 72, 75
3, 49140, Note_on_c, 1, 72, 0
3, 49140, Note_on_c, 1, 74, 75
3, 49200, Note_on_c, 1, 74, 0
3, 49200, Note_on_c, 1, 76, 75
3, 49320, Note_on_c, 1, 76, 0
3, 49320, Note_on_c, 1, 64, 75
3, 49440, Note_on_c, 1, 64, 0
3, 49440, Note_on_c, 1, 69, 75
3, 49560, Note_on_c, 1, 69, 0
3, 49560, Note_on_c, 1, 72, 75
3, 49680, Note_on_c, 1, 72, 0
3, 49680, Note_on_c, 1, 76, 75
3, 49800, Note_on_c, 1, 76, 0
3, 49800, Note_on_c, 1, 68, 75
3, 49920, Note_on_c, 1, 68, 0
3, 51840, Note_on_c, 1, 69, 75
3, 51960, Note_on_c, 1, 69, 0
3, 51960, Note_on_c, 1, 71, 75
3, 52020, Note_on_c, 1, 71, 0
3, 52020, Note_on_c, 1, 72, 75
3, 52080, Note_on_c, 1, 72, 0
3, 52080, Note_on_c, 1, 74, 75
3, 52200, Note_on_c, 1, 74, 0
3, 52200, Note_on_c, 1, 72, 75
3, 52260, Note_on_c, 1, 72, 0
3, 52260, Note_on_c, 1, 71, 75
3, 52320, Note_on_c, 1, 71, 0
3, 52320, Note_on_c, 1, 72, 75
3, 52440, Note_on_c, 1, 72, 0
3, 52440, Note_on_c, 1, 74, 75
3, 52500, Note_on_c, 1, 74, 0
3, 52500, Note_on_c, 1, 76, 75
3, 52560, Note_on_c, 1, 76, 0
3, 52560, Note_on_c, 1, 77, 75
3, 52680, Note_on_c, 1, 77, 0
3, 52680, Note_on_c, 1, 76, 75
3, 52740, Note_on_c, 1, 76, 0
3, 52740, Note_on_c, 1, 74, 75
3, 52800, Note_on_c, 1, 74, 0
3, 52800, Note_on_c, 1, 76, 75
3, 52920, Note_on_c, 1, 76, 0
3, 52920, Note_on_c, 1, 81, 75
3, 53040, Note_on_c, 1, 81, 0
3, 53040, Note_on_c, 1, 77, 75
3, 53160, Note_on_c, 1, 77, 0
3, 53160, Note_on_c, 1, 74, 75
3, 53280, Note_on_c, 1, 74, 0
3, 53280, Note_on_c, 1, 76, 75
3, 53400, Note_on_c, 1, 76, 0
3, 53400, Note_on_c, 1, 74, 75
3, 53520, Note_on_c, 1, 74, 0
3, 53520, Note_on_c, 1, 72, 75
3, 53640, Note_on_c, 1, 72, 0
3, 53640, Note_on_c, 1, 71, 75
3, 53760, Note_on_c, 1, 71, 0
3, 55680, Note_on_c, 1, 69, 75
3, 55800, Note_on_c, 1, 69, 0
3, 55800, Note_on_c, 1, 72, 75
3, 55920, Note_on_c, 1, 72, 0
3, 55920, Note_on_c, 1, 76, 75
3, 56040, Note_on_c, 1, 76, 0
3, 56040, Note_on_c, 1, 81, 75
3, 56160, Note_on_c, 1, 81, 0
3, 56160, Note_on_c, 1, 84, 75
3, 56280, Note_on_c, 1, 84, 0
3, 56280, Note_on_c, 1, 76, 75
3, 56400, Note_on_c, 1, 76, 0
3, 56400, Note_on_c, 1, 72, 75
3, 56520, Note_on_c, 1, 72, 0
3, 56520, Note_on_c, 1, 69, 75
3, 56640, Note_on_c, 1, 69, 0
3, 56640, Note_on_c, 1, 68, 75
3, 56760, Note_on_c, 1, 68, 0
3, 56760, Note_on_c, 1, 71, 75
3, 56880, Note_on_c, 1, 71, 0
3, 56880, Note_on_c, 1, 76, 75
3, 57000, Note_on_c, 1, 76, 0
3, 57000, Note_on_c, 1, 80, 75
3, 57120, Note_on_c, 1, 80, 0
3, 57120, Note_on_c, 1, 83, 75
3, 57240, Note_on_c, 1, 83, 0
3, 57240, Note_on_c, 1, 74, 75
3, 57360, Note_on_c, 1, 74, 0
3, 57360, Note_on_c, 1, 72, 75
3, 57480, Note_on_c, 1, 72, 0
3, 57480, Note_on_c, 1, 71, 75
3, 57600, Note_on_c, 1, 71, 0
3, 80160, Note_on_c, 1, 59, 100
3, 80640, Note_on_c, 1, 59, 0
3, 93120, Note_on_c, 1, 64, 75
3, 93240, Note_on_c, 1, 64, 0
3, 93240, Note_on_c, 1, 76, 75
3, 93360, Note_on_c, 1, 76, 0
3, 93360, Note_on_c, 1, 79, 75
3, 93480, Note_on_c, 1, 79, 0
3, 93480, Note_on_c, 1, 83, 75
3, 93600, Note_on_c, 1, 83, 0
3, 93600, Note_on_c, 1, 79, 75
3, 93720, Note_on_c, 1, 79, 0
3, 93720, Note_on_c, 1, 76, 75
3, 93840, Note_on_c, 1, 76, 0
3, 93840, Note_on_c, 1, 75, 75
3, 93960, Note_on_c, 1, 75, 0
3, 93960, Note_on_c, 1, 76, 75
3, 94080, Note_on_c, 1, 76, 0
3, 95040, Note_on_c, 1, 64, 75
3, 95160, Note_on_c, 1, 64, 0
3, 95160, Note_on_c, 1, 67, 75
3, 95220, Note_on_c, 1, 67, 0
3, 95220, Note_on_c, 1, 69, 75
3, 95280, Note_on_c, 1, 69, 0
3, 95280, Note_on_c, 1, 71, 75
3, 95400, Note_on_c, 1, 71, 0
3, 95400, Note_on_c, 1, 59, 75
3, 95520, Note_on_c, 1, 59, 0
3, 95520, Note_on_c, 1, 64, 75
3, 95640, Note_on_c, 1, 64, 0
3, 95640, Note_on_c, 1, 67, 75
3, 95760, Note_on_c, 1, 67, 0
3, 95760, Note_on_c, 1, 71, 75
3, 95880, Note_on_c, 1, 71, 0
3, 95880, Note_on_c, 1, 63, 75
3, 96000, Note_on_c, 1, 63, 0
3, 97920, Note_on_c, 1, 64, 75
3, 98040, Note_on_c, 1, 64, 0
3, 98040, Note_on_c, 1, 66, 75
3, 98100, Note_on_c, 1, 66, 0
3, 98100, Note_on_c, 1, 67, 75
3, 98160, Note_on_c, 1, 67, 0
3, 98160, Note_on_c, 1, 69, 75
3, 98280, Note_on_c, 1, 69, 0
3, 98280, Note_on_c, 1, 67, 75
3, 98340, Note_on_c, 1, 67, 0
3, 98340, Note_on_c, 1, 66, 75
3, 98400, Note_on_c, 1, 66, 0
3, 98400, Note_on_c, 1, 67, 75
3, 98520, Note_on_c, 1, 67, 0
3, 98520, Note_on_c, 1, 69, 75
3, 98580, Note_on_c, 1, 69, 0
3, 98580, Note_on_c, 1, 71, 75
3, 98640, Note_on_c, 1, 71, 0
3, 98640, Note_on_c, 1, 72, 75
3, 98760, Note_on_c, 1, 72, 0
3, 98760, Note_on_c, 1, 71, 75
3, 98820, Note_on_c, 1, 71, 0
3, 98820, Note_on_c, 1, 69, 75
3, 98880, Note_on_c, 1, 69, 0
3, 98880, Note_on_c, 1, 71, 75
3, 99000, Note_on_c, 1, 71, 0
3, 99000, Note_on_c, 1, 67, 75
3, 99060, Note_on_c, 1, 67, 0
3, 99060, Note_on_c, 1, 69, 75
3, 99120, Note_on_c, 1, 69, 0
3, 99120, Note_on_c, 1, 71, 75
3, 99240, Note_on_c, 1, 71, 0
3, 99240, Note_on_c, 1, 73, 75
3, 99300, Note_on_c, 1, 73, 0
3, 99300, Note_on_c, 1, 75, 75
3, 99360, Note_on_c, 1, 75, 0
3, 99360, Note_on_c, 1, 76, 75
3, 99480, Note_on_c, 1, 76, 0
3, 99480, Note_on_c, 1, 71, 75
3, 99540, Note_on_c, 1, 71, 0
3, 99540, Note_on_c, 1, 69, 75
3, 99600, Note_on_c, 1, 69, 0
3, 99600, Note_on_c, 1, 67, 75
3, 99720, Note_on_c, 1, 67, 0
3, 99720, Note_on_c, 1, 66, 75
3, 99840, Note_on_c, 1, 66, 0
3, 101760, Note_on_c, 1, 64, 75
3, 101880, Note_on_c, 1, 64, 0
3, 101880, Note_on_c, 1, 67, 75
3, 102000, Note_on_c, 1, 67, 0
3, 102000, Note_on_c, 1, 71, 75
3, 102120, Note_on_c, 1, 71, 0
3, 102120, Note_on_c, 1, 76, 75
3, 102240, Note_on_c, 1, 76, 0
3, 102240, Note_on_c, 1, 79, 75
3, 102360, Note_on_c, 1, 79, 0
3, 102360, Note_on_c, 1, 83, 75
3, 102480, Note_on_c, 1, 83, 0
3, 102480, Note_on_c, 1, 79, 75
3, 102600, Note_on_c, 1, 79, 0
3, 102600, Note_on_c, 1, 76, 75
3, 102720, Note_on_c, 1, 76, 0
3, 102720, Note_on_c, 1, 75, 75
3, 102840, Note_on_c, 1, 75, 0
3, 102840, Note_on_c, 1, 78, 75
3, 102960, Note_on_c, 1, 78, 0
3, 102960, Note_on_c, 1, 75, 75
3, 103080, Note_on_c, 1, 75, 0
3, 103080, Note_on_c, 1, 71, 75
3, 103200, Note_on_c, 1, 71, 0
3, 103200, Note_on_c, 1, 66, 75
3, 103320, Note_on_c, 1, 66, 0
3, 103320, Note_on_c, 1, 69, 75
3, 103440, Note_on_c, 1, 69, 0
3, 103440, Note_on_c, 1, 67, 75
3, 103560, Note_on_c, 1, 67, 0
3, 103560, Note_on_c, 1, 66, 75
3, 103680, Note_on_c, 1, 66, 0
3, 158400, Note_on_c, 1, 64, 75
3, 158520, Note_on_c, 1, 64, 0
3, 158520, Note_on_c, 1, 76, 75
3, 158640, Note_on_c, 1, 76, 0
3, 158640, Note_on_c, 1, 79, 75
3, 158760, Note_on_c, 1, 79, 0
3, 158760, Note_on_c, 1, 83, 75
3, 158880, Note_on_c, 1, 83, 0
3, 158880, Note_on_c, 1, 79, 75
3, 159000, Note_on_c, 1, 79, 0
3, 159000, Note_on_c, 1, 76, 75
3, 159120, Note_on_c, 1, 76, 0
3, 159120, Note_on_c, 1, 75, 75
3, 159240, Note_on_c, 1, 75, 0
3, 159240, Note_on_c, 1, 76, 75
3, 159360, Note_on_c, 1, 76, 0
3, 160320, Note_on_c, 1, 64, 75
3, 160440, Note_on_c, 1, 64, 0
3, 160440, Note_on_c, 1, 67, 75
3, 160500, Note_on_c, 1, 67, 0
3, 160500, Note_on_c, 1, 69, 75
3, 160560, Note_on_c, 1, 69, 0
3, 160560, Note_on_c, 1, 71, 75
3, 160680, Note_on_c, 1, 71, 0
3, 160680, Note_on_c, 1, 59, 75
3, 160800, Note_on_c, 1, 59, 0
3, 160800, Note_on_c, 1, 64, 75
3, 160920, Note_on_c, 1, 64, 0
3, 160920, Note_on_c, 1, 67, 75
3, 161040, Note_on_c, 1, 67, 0
3, 161040, Note_on_c, 1, 71, 75
3, 161160, Note_on_c, 1, 71, 0
3, 161160, Note_on_c, 1, 63, 75
3, 161280, Note_on_c, 1, 63, 0
3, 163200, Note_on_c, 1, 64, 75
3, 163320, Note_on_c, 1, 64, 0
3, 163320, Note_on_c, 1, 66, 75
3, 163380, Note_on_c, 1, 66, 0
3, 163380, Note_on_c, 1, 67, 75
3, 163440, Note_on_c, 1, 67, 0
3, 163440, Note_on_c, 1, 69, 75
3, 163560, Note_on_c, 1, 69, 0
3, 163560, Note_on_c, 1, 67, 75
3, 163620, Note_on_c, 1, 67, 0
3, 163620, Note_on_c, 1, 66, 75
3, 163680, Note_on_c, 1, 66, 0
3, 163680, Note_on_c, 1, 67, 75
3, 163800, Note_on_c, 1, 67, 0
3, 163800, Note_on_c, 1, 69, 75
3, 163860, Note_on_c, 1, 69, 0
3, 163860, Note_on_c, 1, 71, 75
3, 163920, Note_on_c, 1, 71, 0
3, 163920, Note_on_c, 1, 72, 75
3, 164040, Note_on_c, 1, 72, 0
3, 164040, Note_on_c, 1, 71, 75
3, 164100, Note_on_c, 1, 71, 0
3, 164100, Note_on_c, 1, 69, 75
3, 164160, Note_on_c, 1, 69, 0
3, 164160, Note_on_c, 1, 71, 75
3, 164280, Note_on_c, 1, 71, 0
3, 164280, Note_on_c, 1, 67, 75
3, 164340, Note_on_c, 1, 67, 0
3, 164340, Note_on_c, 1, 69, 75
3, 164400, Note_on_c, 1, 69, 0
3, 164400, Note_on_c, 1, 71, 75
3, 164520, Note_on_c, 1, 71, 0
3, 164520, Note_on_c, 1, 73, 75
3, 164580, Note_on_c, 1, 73, 0
3, 164580, Note_on_c, 1, 75, 75
3, 164640, Note_on_c, 1, 75, 0
3, 164640, Note_on_c, 1, 76, 75
3, 164760, Note_on_c, 1, 76, 0
3, 164760, Note_on_c, 1, 71, 75
3, 164820, Note_on_c, 1, 71, 0
3, 164820, Note_on_c, 1, 69, 75
3, 164880, Note_on_c, 1, 69, 0
3, 164880, Note_on_c, 1, 67, 75
3, 165000, Note_on_c, 1, 67, 0
3, 165000, Note_on_c, 1, 66, 75
3, 165120, Note_on_c, 1, 66, 0
3, 167040, Note_on_c, 1, 64, 75
3, 167160, Note_on_c, 1, 64, 0
3, 167160, Note_on_c, 1, 67, 75
3, 167280, Note_on_c, 1, 67, 0
3, 167280, Note_on_c, 1, 71, 75
3, 167400, Note_on_c, 1, 71, 0
3, 167400, Note_on_c, 1, 76, 75
3, 167520, Note_on_c, 1, 76, 0
3, 167520, Note_on_c, 1, 79, 75
3, 167640, Note_on_c, 1, 79, 0
3, 167640, Note_on_c, 1, 83, 75
3, 167760, Note_on_c, 1, 83, 0
3, 167760, Note_on_c, 1, 79, 75
3, 167880, Note_on_c, 1, 79, 0
3, 167880, Note_on_c, 1, 76, 75
3, 168000, Note_on_c, 1, 76, 0
3, 168000, Note_on_c, 1, 75, 75
3, 168120, Note_on_c, 1, 75, 0
3, 168120, Note_on_c, 1, 78, 75
3, 168240, Note_on_c, 1, 78, 0
3, 168240, Note_on_c, 1, 75, 75
3, 168360, Note_on_c, 1, 75, 0
3, 168360, Note_on_c, 1, 71, 75
3, 168480, Note_on_c, 1, 71, 0
3, 168480, Note_on_c, 1, 66, 75
3, 168600, Note_on_c, 1, 66, 0
3, 168600, Note_on_c, 1, 69, 75
3, 168720, Note_on_c, 1, 69, 0
3, 168720, Note_on_c, 1, 67, 75
3, 168840, Note_on_c, 1, 67, 0
3, 168840, Note_on_c, 1, 66, 75
3, 168960, Note_on_c, 1, 66, 0
3, 168960, End_track
4, 0, Start_track
4, 0, MIDI_port, 0
4, 0, Title_t, "Johann Sebastian Bach  (1685-1750)"
4, 0, End_track
5, 0, Start_track
5, 0, MIDI_port, 0
5, 0, Title_t, "Six Sonatas and Partitas for Solo Violin"
5, 0, End_track
6, 0, Start_track
6, 0, MIDI_port, 0
6, 0, Title_t, "--------------------------------------"
6, 0, End_track
7, 0, Start_track
7, 0, MIDI_port, 0
7, 0, Title_t, "Sonata No. 2 in A minor - BWV 1003"
7, 0, End_track
8, 0, Start_track
8, 0, MIDI_port, 0
8, 0, Title_t, "4th Movement: Allegro"
8, 0, End_track
9, 0, Start_track
9, 0, MIDI_port, 0
9, 0, Title_t, "--------------------------------------"
9, 0, End_track
10, 0, Start_track
10, 0, MIDI_port, 0
10, 0, Title_t, "Sequenced with Cakewalk Pro Audio by"
10, 0, End_track
11, 0, Start_track
11, 0, MIDI_port, 0
11, 0, Title_t, "David J. Grossman - dave@unpronounceable.com"
11, 0, End_track
12, 0, Start_track
12, 0, MIDI_port, 0
12, 0, Title_t, "This and other Bach MIDI files can be found at:"
12, 0, End_track
13, 0, Start_track
13, 0, MIDI_port, 0
13, 0, Title_t, "Dave's J.S. Bach Page"
13, 0, End_track
14, 0, Start_track
14, 0, MIDI_port, 0
14, 0, Title_t, "http://www.unpronounceable.com/bach"
14, 0, End_track
15, 0, Start_track
15, 0, MIDI_port, 0
15, 0, Title_t, "--------------------------------------"
15, 0, End_track
16, 0, Start_track
16, 0, MIDI_port, 0
16, 0, Title_t, "Original Filename: vs2-4alg.mid"
16, 0, End_track
17, 0, Start_track
17, 0, MIDI_port, 0
17, 0, Title_t, "Last Modified: February 22, 1997"
17, 0, End_track
0, 0, End_of_file
