0, 0, Header, 1, 17, 480
1, 0, Start_track
1, 0, Title_t, "untitled"
1, 0, Copyright_t, "Copyright © 1995 by David Grossman"
1, 0, Text_t, "David Grossman"
1, 0, SMPTE_offset, 96, 0, 3, 0, 0
1, 0, Time_signature, 3, 2, 24, 8
1, 0, Key_signature, 0, "major"
1, 0, Tempo, 2222222
1, 0, Marker_t, "A"
1, 14400, Marker_t, "1."
1, 15840, Marker_t, "A'"
1, 30240, Marker_t, "2."
1, 33120, Marker_t, "B"
1, 51840, Marker_t, "1."
1, 54720, Marker_t, "B'"
1, 73440, Marker_t, "2."
1, 73440, End_track
2, 0, Start_track
2, 0, MIDI_port, 0
2, 0, Title_t, "Solo Violin"
2, 0, Program_c, 0, 40
2, 0, Control_c, 0, 7, 100
2, 0, Control_c, 0, 10, 69
2, 0, Note_on_c, 0, 64, 100
2, 480, Note_on_c, 0, 64, 0
2, 720, Note_on_c, 0, 64, 100
2, 960, Note_on_c, 0, 64, 0
2, 960, Note_on_c, 0, 65, 100
2, 1080, Note_on_c, 0, 65, 0
2, 1080, Note_on_c, 0, 64, 100
2, 1200, Note_on_c, 0, 64, 0
2, 1200, Note_on_c, 0, 62, 100
2, 1320, Note_on_c, 0, 62, 0
2, 1320, Note_on_c, 0, 60, 100
2, 1440, Note_on_c, 0, 60, 0
2, 1440, Note_on_c, 0, 67, 100
2, 1560, Note_on_c, 0, 67, 0
2, 1560, Note_on_c, 0, 62, 100
2, 1680, Note_on_c, 0, 62, 0
2, 1680, Note_on_c, 0, 65, 100
2, 2160, Note_on_c, 0, 65, 0
2, 2160, Note_on_c, 0, 69, 100
2, 2400, Note_on_c, 0, 69, 0
2, 2400, Note_on_c, 0, 67, 100
2, 2520, Note_on_c, 0, 67, 0
2, 2520, Note_on_c, 0, 65, 100
2, 2640, Note_on_c, 0, 65, 0
2, 2640, Note_on_c, 0, 64, 100
2, 2760, Note_on_c, 0, 64, 0
2, 2760, Note_on_c, 0, 62, 100
2, 2880, Note_on_c, 0, 62, 0
2, 2880, Note_on_c, 0, 64, 100
2, 3000, Note_on_c, 0, 64, 0
2, 3000, Note_on_c, 0, 67, 100
2, 3120, Note_on_c, 0, 67, 0
2, 3120, Note_on_c, 0, 69, 100
2, 3240, Note_on_c, 0, 69, 0
2, 3240, Note_on_c, 0, 71, 100
2, 3360, Note_on_c, 0, 71, 0
2, 3360, Note_on_c, 0, 72, 100
2, 3600, Note_on_c, 0, 72, 0
2, 5040, Note_on_c, 0, 76, 100
2, 5160, Note_on_c, 0, 76, 0
2, 5160, Note_on_c, 0, 74, 100
2, 5280, Note_on_c, 0, 74, 0
2, 5280, Note_on_c, 0, 76, 100
2, 5400, Note_on_c, 0, 76, 0
2, 5400, Note_on_c, 0, 74, 100
2, 5520, Note_on_c, 0, 74, 0
2, 5520, Note_on_c, 0, 72, 100
2, 5640, Note_on_c, 0, 72, 0
2, 5640, Note_on_c, 0, 71, 100
2, 5760, Note_on_c, 0, 71, 0
2, 5760, Note_on_c, 0, 69, 100
2, 6240, Note_on_c, 0, 69, 0
2, 6480, Note_on_c, 0, 74, 100
2, 6600, Note_on_c, 0, 74, 0
2, 6600, Note_on_c, 0, 76, 100
2, 6720, Note_on_c, 0, 76, 0
2, 6720, Note_on_c, 0, 74, 100
2, 6840, Note_on_c, 0, 74, 0
2, 6840, Note_on_c, 0, 72, 100
2, 6960, Note_on_c, 0, 72, 0
2, 6960, Note_on_c, 0, 71, 100
2, 7080, Note_on_c, 0, 71, 0
2, 7080, Note_on_c, 0, 69, 100
2, 7200, Note_on_c, 0, 69, 0
2, 7200, Note_on_c, 0, 71, 100
2, 7320, Note_on_c, 0, 71, 0
2, 7320, Note_on_c, 0, 74, 100
2, 7440, Note_on_c, 0, 74, 0
2, 7440, Note_on_c, 0, 76, 100
2, 7560, Note_on_c, 0, 76, 0
2, 7560, Note_on_c, 0, 77, 100
2, 7680, Note_on_c, 0, 77, 0
2, 7680, Note_on_c, 0, 79, 100
2, 7920, Note_on_c, 0, 79, 0
2, 8760, Note_on_c, 0, 72, 100
2, 8880, Note_on_c, 0, 72, 0
2, 8880, Note_on_c, 0, 74, 100
2, 9000, Note_on_c, 0, 74, 0
2, 9000, Note_on_c, 0, 69, 100
2, 9120, Note_on_c, 0, 69, 0
2, 9120, Note_on_c, 0, 71, 100
2, 9240, Note_on_c, 0, 71, 0
2, 9240, Note_on_c, 0, 72, 100
2, 9360, Note_on_c, 0, 72, 0
2, 9360, Note_on_c, 0, 74, 100
2, 9480, Note_on_c, 0, 74, 0
2, 9480, Note_on_c, 0, 76, 100
2, 9600, Note_on_c, 0, 76, 0
2, 9600, Note_on_c, 0, 77, 100
2, 9720, Note_on_c, 0, 77, 0
2, 9720, Note_on_c, 0, 81, 100
2, 9840, Note_on_c, 0, 81, 0
2, 9840, Note_on_c, 0, 79, 100
2, 9960, Note_on_c, 0, 79, 0
2, 9960, Note_on_c, 0, 77, 100
2, 10080, Note_on_c, 0, 77, 0
2, 10080, Note_on_c, 0, 76, 100
2, 10320, Note_on_c, 0, 76, 0
2, 10680, Note_on_c, 0, 74, 100
2, 10800, Note_on_c, 0, 74, 0
2, 10800, Note_on_c, 0, 72, 100
2, 10920, Note_on_c, 0, 72, 0
2, 10920, Note_on_c, 0, 71, 100
2, 11040, Note_on_c, 0, 71, 0
2, 11040, Note_on_c, 0, 69, 100
2, 11160, Note_on_c, 0, 69, 0
2, 11160, Note_on_c, 0, 67, 100
2, 11280, Note_on_c, 0, 67, 0
2, 11280, Note_on_c, 0, 66, 100
2, 11340, Note_on_c, 0, 66, 0
2, 11340, Note_on_c, 0, 67, 100
2, 11400, Note_on_c, 0, 67, 0
2, 11400, Note_on_c, 0, 64, 100
2, 11520, Note_on_c, 0, 64, 0
2, 11520, Note_on_c, 0, 66, 100
2, 11640, Note_on_c, 0, 66, 0
2, 11640, Note_on_c, 0, 62, 100
2, 11760, Note_on_c, 0, 62, 0
2, 11760, Note_on_c, 0, 64, 100
2, 11880, Note_on_c, 0, 64, 0
2, 11880, Note_on_c, 0, 66, 100
2, 12000, Note_on_c, 0, 66, 0
2, 12000, Note_on_c, 0, 67, 100
2, 12060, Note_on_c, 0, 67, 0
2, 12060, Note_on_c, 0, 71, 100
2, 12120, Note_on_c, 0, 71, 0
2, 12120, Note_on_c, 0, 69, 100
2, 12180, Note_on_c, 0, 69, 0
2, 12180, Note_on_c, 0, 72, 100
2, 12240, Note_on_c, 0, 72, 0
2, 12240, Note_on_c, 0, 71, 100
2, 12300, Note_on_c, 0, 71, 0
2, 12300, Note_on_c, 0, 74, 100
2, 12360, Note_on_c, 0, 74, 0
2, 12360, Note_on_c, 0, 72, 100
2, 12420, Note_on_c, 0, 72, 0
2, 12420, Note_on_c, 0, 76, 100
2, 12480, Note_on_c, 0, 76, 0
2, 12480, Note_on_c, 0, 74, 100
2, 12960, Note_on_c, 0, 74, 0
2, 13440, Note_on_c, 0, 71, 100
2, 13740, Note_on_c, 0, 71, 0
2, 13740, Note_on_c, 0, 72, 100
2, 13770, Note_on_c, 0, 72, 0
2, 13770, Note_on_c, 0, 71, 100
2, 13800, Note_on_c, 0, 71, 0
2, 13800, Note_on_c, 0, 69, 100
2, 13860, Note_on_c, 0, 69, 0
2, 13860, Note_on_c, 0, 71, 100
2, 13920, Note_on_c, 0, 71, 0
2, 13920, Note_on_c, 0, 72, 100
2, 14160, Note_on_c, 0, 72, 0
2, 14160, Pitch_bend_c, 0, 16383
2, 14160, Note_on_c, 0, 69, 100
2, 14174, Pitch_bend_c, 0, 8192
2, 14190, Pitch_bend_c, 0, 16383
2, 14204, Pitch_bend_c, 0, 8192
2, 14220, Pitch_bend_c, 0, 16383
2, 14234, Pitch_bend_c, 0, 8192
2, 14250, Pitch_bend_c, 0, 16383
2, 14264, Pitch_bend_c, 0, 8192
2, 14400, Note_on_c, 0, 69, 0
2, 14400, Note_on_c, 0, 67, 100
2, 14880, Note_on_c, 0, 67, 0
2, 15000, Note_on_c, 0, 67, 100
2, 15120, Note_on_c, 0, 67, 0
2, 15120, Note_on_c, 0, 65, 100
2, 15240, Note_on_c, 0, 65, 0
2, 15240, Note_on_c, 0, 64, 100
2, 15360, Note_on_c, 0, 64, 0
2, 15360, Note_on_c, 0, 62, 100
2, 15480, Note_on_c, 0, 62, 0
2, 15480, Note_on_c, 0, 69, 100
2, 15600, Note_on_c, 0, 69, 0
2, 15600, Note_on_c, 0, 67, 100
2, 15720, Note_on_c, 0, 67, 0
2, 15720, Note_on_c, 0, 65, 100
2, 15840, Note_on_c, 0, 65, 0
2, 15840, Note_on_c, 0, 64, 100
2, 16320, Note_on_c, 0, 64, 0
2, 16560, Note_on_c, 0, 64, 100
2, 16800, Note_on_c, 0, 64, 0
2, 16800, Note_on_c, 0, 65, 100
2, 16920, Note_on_c, 0, 65, 0
2, 16920, Note_on_c, 0, 64, 100
2, 17040, Note_on_c, 0, 64, 0
2, 17040, Note_on_c, 0, 62, 100
2, 17160, Note_on_c, 0, 62, 0
2, 17160, Note_on_c, 0, 60, 100
2, 17280, Note_on_c, 0, 60, 0
2, 17280, Note_on_c, 0, 67, 100
2, 17400, Note_on_c, 0, 67, 0
2, 17400, Note_on_c, 0, 62, 100
2, 17520, Note_on_c, 0, 62, 0
2, 17520, Note_on_c, 0, 65, 100
2, 18000, Note_on_c, 0, 65, 0
2, 18000, Note_on_c, 0, 69, 100
2, 18240, Note_on_c, 0, 69, 0
2, 18240, Note_on_c, 0, 67, 100
2, 18360, Note_on_c, 0, 67, 0
2, 18360, Note_on_c, 0, 65, 100
2, 18480, Note_on_c, 0, 65, 0
2, 18480, Note_on_c, 0, 64, 100
2, 18600, Note_on_c, 0, 64, 0
2, 18600, Note_on_c, 0, 62, 100
2, 18720, Note_on_c, 0, 62, 0
2, 18720, Note_on_c, 0, 64, 100
2, 18840, Note_on_c, 0, 64, 0
2, 18840, Note_on_c, 0, 67, 100
2, 18960, Note_on_c, 0, 67, 0
2, 18960, Note_on_c, 0, 69, 100
2, 19080, Note_on_c, 0, 69, 0
2, 19080, Note_on_c, 0, 71, 100
2, 19200, Note_on_c, 0, 71, 0
2, 19200, Note_on_c, 0, 72, 100
2, 19440, Note_on_c, 0, 72, 0
2, 20880, Note_on_c, 0, 76, 100
2, 21000, Note_on_c, 0, 76, 0
2, 21000, Note_on_c, 0, 74, 100
2, 21120, Note_on_c, 0, 74, 0
2, 21120, Note_on_c, 0, 76, 100
2, 21240, Note_on_c, 0, 76, 0
2, 21240, Note_on_c, 0, 74, 100
2, 21360, Note_on_c, 0, 74, 0
2, 21360, Note_on_c, 0, 72, 100
2, 21480, Note_on_c, 0, 72, 0
2, 21480, Note_on_c, 0, 71, 100
2, 21600, Note_on_c, 0, 71, 0
2, 21600, Note_on_c, 0, 69, 100
2, 22080, Note_on_c, 0, 69, 0
2, 22320, Note_on_c, 0, 74, 100
2, 22440, Note_on_c, 0, 74, 0
2, 22440, Note_on_c, 0, 76, 100
2, 22560, Note_on_c, 0, 76, 0
2, 22560, Note_on_c, 0, 74, 100
2, 22680, Note_on_c, 0, 74, 0
2, 22680, Note_on_c, 0, 72, 100
2, 22800, Note_on_c, 0, 72, 0
2, 22800, Note_on_c, 0, 71, 100
2, 22920, Note_on_c, 0, 71, 0
2, 22920, Note_on_c, 0, 69, 100
2, 23040, Note_on_c, 0, 69, 0
2, 23040, Note_on_c, 0, 71, 100
2, 23160, Note_on_c, 0, 71, 0
2, 23160, Note_on_c, 0, 74, 100
2, 23280, Note_on_c, 0, 74, 0
2, 23280, Note_on_c, 0, 76, 100
2, 23400, Note_on_c, 0, 76, 0
2, 23400, Note_on_c, 0, 77, 100
2, 23520, Note_on_c, 0, 77, 0
2, 23520, Note_on_c, 0, 79, 100
2, 23760, Note_on_c, 0, 79, 0
2, 24600, Note_on_c, 0, 72, 100
2, 24720, Note_on_c, 0, 72, 0
2, 24720, Note_on_c, 0, 74, 100
2, 24840, Note_on_c, 0, 74, 0
2, 24840, Note_on_c, 0, 69, 100
2, 24960, Note_on_c, 0, 69, 0
2, 24960, Note_on_c, 0, 71, 100
2, 25080, Note_on_c, 0, 71, 0
2, 25080, Note_on_c, 0, 72, 100
2, 25200, Note_on_c, 0, 72, 0
2, 25200, Note_on_c, 0, 74, 100
2, 25320, Note_on_c, 0, 74, 0
2, 25320, Note_on_c, 0, 76, 100
2, 25440, Note_on_c, 0, 76, 0
2, 25440, Note_on_c, 0, 77, 100
2, 25560, Note_on_c, 0, 77, 0
2, 25560, Note_on_c, 0, 81, 100
2, 25680, Note_on_c, 0, 81, 0
2, 25680, Note_on_c, 0, 79, 100
2, 25800, Note_on_c, 0, 79, 0
2, 25800, Note_on_c, 0, 77, 100
2, 25920, Note_on_c, 0, 77, 0
2, 25920, Note_on_c, 0, 76, 100
2, 26160, Note_on_c, 0, 76, 0
2, 26520, Note_on_c, 0, 74, 100
2, 26640, Note_on_c, 0, 74, 0
2, 26640, Note_on_c, 0, 72, 100
2, 26760, Note_on_c, 0, 72, 0
2, 26760, Note_on_c, 0, 71, 100
2, 26880, Note_on_c, 0, 71, 0
2, 26880, Note_on_c, 0, 69, 100
2, 27000, Note_on_c, 0, 69, 0
2, 27000, Note_on_c, 0, 67, 100
2, 27120, Note_on_c, 0, 67, 0
2, 27120, Note_on_c, 0, 66, 100
2, 27180, Note_on_c, 0, 66, 0
2, 27180, Note_on_c, 0, 67, 100
2, 27240, Note_on_c, 0, 67, 0
2, 27240, Note_on_c, 0, 64, 100
2, 27360, Note_on_c, 0, 64, 0
2, 27360, Note_on_c, 0, 66, 100
2, 27480, Note_on_c, 0, 66, 0
2, 27480, Note_on_c, 0, 62, 100
2, 27600, Note_on_c, 0, 62, 0
2, 27600, Note_on_c, 0, 64, 100
2, 27720, Note_on_c, 0, 64, 0
2, 27720, Note_on_c, 0, 66, 100
2, 27840, Note_on_c, 0, 66, 0
2, 27840, Note_on_c, 0, 67, 100
2, 27900, Note_on_c, 0, 67, 0
2, 27900, Note_on_c, 0, 71, 100
2, 27960, Note_on_c, 0, 71, 0
2, 27960, Note_on_c, 0, 69, 100
2, 28020, Note_on_c, 0, 69, 0
2, 28020, Note_on_c, 0, 72, 100
2, 28080, Note_on_c, 0, 72, 0
2, 28080, Note_on_c, 0, 71, 100
2, 28140, Note_on_c, 0, 71, 0
2, 28140, Note_on_c, 0, 74, 100
2, 28200, Note_on_c, 0, 74, 0
2, 28200, Note_on_c, 0, 72, 100
2, 28260, Note_on_c, 0, 72, 0
2, 28260, Note_on_c, 0, 76, 100
2, 28320, Note_on_c, 0, 76, 0
2, 28320, Note_on_c, 0, 74, 100
2, 28800, Note_on_c, 0, 74, 0
2, 29280, Note_on_c, 0, 71, 100
2, 29580, Note_on_c, 0, 71, 0
2, 29580, Note_on_c, 0, 72, 100
2, 29610, Note_on_c, 0, 72, 0
2, 29610, Note_on_c, 0, 71, 100
2, 29640, Note_on_c, 0, 71, 0
2, 29640, Note_on_c, 0, 69, 100
2, 29700, Note_on_c, 0, 69, 0
2, 29700, Note_on_c, 0, 71, 100
2, 29760, Note_on_c, 0, 71, 0
2, 29760, Note_on_c, 0, 72, 100
2, 30000, Note_on_c, 0, 72, 0
2, 30000, Pitch_bend_c, 0, 16383
2, 30000, Note_on_c, 0, 69, 100
2, 30014, Pitch_bend_c, 0, 8192
2, 30030, Pitch_bend_c, 0, 16383
2, 30044, Pitch_bend_c, 0, 8192
2, 30060, Pitch_bend_c, 0, 16383
2, 30074, Pitch_bend_c, 0, 8192
2, 30090, Pitch_bend_c, 0, 16383
2, 30104, Pitch_bend_c, 0, 8192
2, 30240, Note_on_c, 0, 69, 0
2, 30240, Note_on_c, 0, 67, 100
2, 31680, Note_on_c, 0, 67, 0
2, 31680, Note_on_c, 0, 74, 100
2, 32160, Note_on_c, 0, 74, 0
2, 32400, Note_on_c, 0, 74, 100
2, 32640, Note_on_c, 0, 74, 0
2, 32640, Note_on_c, 0, 76, 100
2, 32760, Note_on_c, 0, 76, 0
2, 32760, Note_on_c, 0, 74, 100
2, 32880, Note_on_c, 0, 74, 0
2, 32880, Note_on_c, 0, 72, 100
2, 33000, Note_on_c, 0, 72, 0
2, 33000, Note_on_c, 0, 71, 100
2, 33120, Note_on_c, 0, 71, 0
2, 33120, Note_on_c, 0, 76, 100
2, 33240, Note_on_c, 0, 76, 0
2, 33240, Note_on_c, 0, 71, 100
2, 33360, Note_on_c, 0, 71, 0
2, 33360, Note_on_c, 0, 74, 100
2, 33840, Note_on_c, 0, 74, 0
2, 33840, Note_on_c, 0, 77, 100
2, 34080, Note_on_c, 0, 77, 0
2, 34080, Note_on_c, 0, 76, 100
2, 34200, Note_on_c, 0, 76, 0
2, 34200, Note_on_c, 0, 74, 100
2, 34320, Note_on_c, 0, 74, 0
2, 34320, Note_on_c, 0, 72, 100
2, 34440, Note_on_c, 0, 72, 0
2, 34440, Note_on_c, 0, 71, 100
2, 34560, Note_on_c, 0, 71, 0
2, 34560, Note_on_c, 0, 72, 100
2, 34680, Note_on_c, 0, 72, 0
2, 34680, Note_on_c, 0, 74, 100
2, 34800, Note_on_c, 0, 74, 0
2, 34800, Note_on_c, 0, 76, 100
2, 35280, Note_on_c, 0, 76, 0
2, 35280, Note_on_c, 0, 76, 100
2, 35520, Note_on_c, 0, 76, 0
2, 35520, Note_on_c, 0, 74, 100
2, 35640, Note_on_c, 0, 74, 0
2, 35640, Note_on_c, 0, 72, 100
2, 35760, Note_on_c, 0, 72, 0
2, 35760, Note_on_c, 0, 71, 100
2, 35880, Note_on_c, 0, 71, 0
2, 35880, Note_on_c, 0, 69, 100
2, 36000, Note_on_c, 0, 69, 0
2, 36000, Note_on_c, 0, 81, 100
2, 36120, Note_on_c, 0, 81, 0
2, 36120, Note_on_c, 0, 78, 100
2, 36240, Note_on_c, 0, 78, 0
2, 36240, Note_on_c, 0, 80, 100
2, 36480, Note_on_c, 0, 80, 0
2, 36720, Note_on_c, 0, 80, 100
2, 36840, Note_on_c, 0, 80, 0
2, 36840, Note_on_c, 0, 83, 100
2, 36960, Note_on_c, 0, 83, 0
2, 36960, Note_on_c, 0, 83, 100
2, 37080, Note_on_c, 0, 83, 0
2, 37080, Note_on_c, 0, 80, 100
2, 37200, Note_on_c, 0, 80, 0
2, 37200, Note_on_c, 0, 80, 100
2, 37320, Note_on_c, 0, 80, 0
2, 37320, Note_on_c, 0, 76, 100
2, 37440, Note_on_c, 0, 76, 0
2, 37440, Note_on_c, 0, 81, 100
2, 38040, Note_on_c, 0, 81, 0
2, 38040, Note_on_c, 0, 83, 100
2, 38160, Note_on_c, 0, 83, 0
2, 38160, Note_on_c, 0, 81, 100
2, 38280, Note_on_c, 0, 81, 0
2, 38280, Note_on_c, 0, 79, 100
2, 38400, Note_on_c, 0, 79, 0
2, 38400, Note_on_c, 0, 78, 100
2, 38520, Note_on_c, 0, 78, 0
2, 38520, Note_on_c, 0, 76, 100
2, 38640, Note_on_c, 0, 76, 0
2, 38640, Note_on_c, 0, 75, 100
2, 38760, Note_on_c, 0, 75, 0
2, 38760, Note_on_c, 0, 76, 100
2, 38880, Note_on_c, 0, 76, 0
2, 38880, Note_on_c, 0, 81, 100
2, 39000, Note_on_c, 0, 81, 0
2, 39000, Note_on_c, 0, 83, 100
2, 39120, Note_on_c, 0, 83, 0
2, 39120, Note_on_c, 0, 84, 100
2, 39600, Note_on_c, 0, 84, 0
2, 39600, Note_on_c, 0, 84, 100
2, 39720, Note_on_c, 0, 84, 0
2, 39720, Note_on_c, 0, 83, 100
2, 39840, Note_on_c, 0, 83, 0
2, 39840, Note_on_c, 0, 81, 100
2, 39960, Note_on_c, 0, 81, 0
2, 39960, Note_on_c, 0, 79, 100
2, 40080, Note_on_c, 0, 79, 0
2, 40080, Note_on_c, 0, 81, 100
2, 40200, Note_on_c, 0, 81, 0
2, 40200, Note_on_c, 0, 78, 100
2, 40320, Note_on_c, 0, 78, 0
2, 40320, Note_on_c, 0, 79, 100
2, 40440, Note_on_c, 0, 79, 0
2, 40440, Note_on_c, 0, 76, 100
2, 40560, Note_on_c, 0, 76, 0
2, 40560, Note_on_c, 0, 75, 100
2, 40680, Note_on_c, 0, 75, 0
2, 40680, Note_on_c, 0, 76, 100
2, 40800, Note_on_c, 0, 76, 0
2, 40800, Note_on_c, 0, 83, 100
2, 41040, Note_on_c, 0, 83, 0
2, 41040, Note_on_c, 0, 81, 100
2, 41280, Note_on_c, 0, 81, 0
2, 41280, Note_on_c, 0, 81, 100
2, 41400, Note_on_c, 0, 81, 0
2, 41400, Note_on_c, 0, 79, 100
2, 41520, Note_on_c, 0, 79, 0
2, 41520, Note_on_c, 0, 81, 100
2, 41640, Note_on_c, 0, 81, 0
2, 41640, Note_on_c, 0, 78, 100
2, 41760, Note_on_c, 0, 78, 0
2, 41760, Note_on_c, 0, 78, 100
2, 42000, Note_on_c, 0, 78, 0
2, 42000, Note_on_c, 0, 76, 100
2, 42240, Note_on_c, 0, 76, 0
2, 42480, Note_on_c, 0, 76, 100
2, 42600, Note_on_c, 0, 76, 0
2, 42600, Note_on_c, 0, 77, 100
2, 42720, Note_on_c, 0, 77, 0
2, 42720, Note_on_c, 0, 79, 100
2, 42840, Note_on_c, 0, 79, 0
2, 42840, Note_on_c, 0, 81, 100
2, 42960, Note_on_c, 0, 81, 0
2, 42960, Note_on_c, 0, 82, 100
2, 43440, Note_on_c, 0, 82, 0
2, 43440, Note_on_c, 0, 81, 100
2, 43680, Note_on_c, 0, 81, 0
2, 43920, Note_on_c, 0, 79, 100
2, 44160, Note_on_c, 0, 79, 0
2, 44160, Note_on_c, 0, 79, 100
2, 44280, Note_on_c, 0, 79, 0
2, 44280, Note_on_c, 0, 77, 100
2, 44400, Note_on_c, 0, 77, 0
2, 44400, Note_on_c, 0, 79, 100
2, 44520, Note_on_c, 0, 79, 0
2, 44520, Note_on_c, 0, 76, 100
2, 44640, Note_on_c, 0, 76, 0
2, 44640, Note_on_c, 0, 76, 100
2, 44880, Note_on_c, 0, 76, 0
2, 44880, Note_on_c, 0, 77, 100
2, 45120, Note_on_c, 0, 77, 0
2, 45360, Note_on_c, 0, 74, 100
2, 45480, Note_on_c, 0, 74, 0
2, 45480, Note_on_c, 0, 76, 100
2, 45600, Note_on_c, 0, 76, 0
2, 45600, Note_on_c, 0, 77, 100
2, 45720, Note_on_c, 0, 77, 0
2, 45720, Note_on_c, 0, 79, 100
2, 45840, Note_on_c, 0, 79, 0
2, 45840, Note_on_c, 0, 81, 100
2, 46080, Note_on_c, 0, 81, 0
2, 46080, Note_on_c, 0, 71, 100
2, 46320, Note_on_c, 0, 71, 0
2, 46320, Note_on_c, 0, 72, 100
2, 46560, Note_on_c, 0, 72, 0
2, 46800, Note_on_c, 0, 72, 100
2, 47040, Note_on_c, 0, 72, 0
2, 47040, Note_on_c, 0, 76, 100
2, 47160, Note_on_c, 0, 76, 0
2, 47160, Note_on_c, 0, 74, 100
2, 47280, Note_on_c, 0, 74, 0
2, 47280, Note_on_c, 0, 76, 100
2, 47400, Note_on_c, 0, 76, 0
2, 47400, Note_on_c, 0, 72, 100
2, 47520, Note_on_c, 0, 72, 0
2, 47520, Note_on_c, 0, 71, 100
2, 48000, Note_on_c, 0, 71, 0
2, 48120, Note_on_c, 0, 71, 100
2, 48240, Note_on_c, 0, 71, 0
2, 48240, Note_on_c, 0, 72, 100
2, 48360, Note_on_c, 0, 72, 0
2, 48360, Note_on_c, 0, 71, 100
2, 48480, Note_on_c, 0, 71, 0
2, 48480, Note_on_c, 0, 69, 100
2, 48600, Note_on_c, 0, 69, 0
2, 48600, Note_on_c, 0, 67, 100
2, 48720, Note_on_c, 0, 67, 0
2, 48720, Note_on_c, 0, 65, 100
2, 48840, Note_on_c, 0, 65, 0
2, 48840, Note_on_c, 0, 64, 100
2, 48960, Note_on_c, 0, 64, 0
2, 48960, Note_on_c, 0, 65, 100
2, 49080, Note_on_c, 0, 65, 0
2, 49080, Note_on_c, 0, 75, 100
2, 49200, Note_on_c, 0, 75, 0
2, 49200, Note_on_c, 0, 74, 100
2, 49320, Note_on_c, 0, 74, 0
2, 49320, Note_on_c, 0, 72, 100
2, 49440, Note_on_c, 0, 72, 0
2, 49440, Note_on_c, 0, 71, 100
2, 49560, Note_on_c, 0, 71, 0
2, 49560, Note_on_c, 0, 72, 100
2, 49680, Note_on_c, 0, 72, 0
2, 49680, Note_on_c, 0, 80, 100
2, 49800, Note_on_c, 0, 80, 0
2, 49800, Note_on_c, 0, 79, 100
2, 49920, Note_on_c, 0, 79, 0
2, 49920, Note_on_c, 0, 78, 100
2, 50040, Note_on_c, 0, 78, 0
2, 50040, Note_on_c, 0, 72, 100
2, 50100, Note_on_c, 0, 72, 0
2, 50100, Note_on_c, 0, 71, 100
2, 50160, Note_on_c, 0, 71, 0
2, 50160, Note_on_c, 0, 72, 100
2, 50280, Note_on_c, 0, 72, 0
2, 50280, Note_on_c, 0, 78, 100
2, 50400, Note_on_c, 0, 78, 0
2, 50400, Note_on_c, 0, 79, 100
2, 50580, Note_on_c, 0, 79, 0
2, 50580, Note_on_c, 0, 81, 100
2, 50640, Note_on_c, 0, 81, 0
2, 50640, Note_on_c, 0, 79, 100
2, 50700, Note_on_c, 0, 79, 0
2, 50700, Note_on_c, 0, 77, 100
2, 50760, Note_on_c, 0, 77, 0
2, 50760, Note_on_c, 0, 76, 100
2, 50790, Note_on_c, 0, 76, 0
2, 50790, Note_on_c, 0, 77, 100
2, 50820, Note_on_c, 0, 77, 0
2, 50820, Note_on_c, 0, 79, 100
2, 50880, Note_on_c, 0, 79, 0
2, 50880, Note_on_c, 0, 72, 100
2, 51180, Note_on_c, 0, 72, 0
2, 51180, Note_on_c, 0, 71, 100
2, 51240, Note_on_c, 0, 71, 0
2, 51240, Note_on_c, 0, 69, 100
2, 51300, Note_on_c, 0, 69, 0
2, 51300, Note_on_c, 0, 71, 100
2, 51360, Note_on_c, 0, 71, 0
2, 51360, Pitch_bend_c, 0, 12288
2, 51360, Note_on_c, 0, 71, 100
2, 51380, Pitch_bend_c, 0, 8192
2, 51400, Pitch_bend_c, 0, 12288
2, 51420, Pitch_bend_c, 0, 8192
2, 51440, Pitch_bend_c, 0, 12288
2, 51460, Pitch_bend_c, 0, 8192
2, 51480, Pitch_bend_c, 0, 12288
2, 51500, Pitch_bend_c, 0, 8192
2, 51720, Note_on_c, 0, 71, 0
2, 51720, Note_on_c, 0, 69, 100
2, 51780, Note_on_c, 0, 69, 0
2, 51780, Note_on_c, 0, 71, 100
2, 51840, Note_on_c, 0, 71, 0
2, 51840, Note_on_c, 0, 72, 100
2, 52320, Note_on_c, 0, 72, 0
2, 53280, Note_on_c, 0, 71, 100
2, 53400, Note_on_c, 0, 71, 0
2, 53400, Note_on_c, 0, 72, 100
2, 53520, Note_on_c, 0, 72, 0
2, 53520, Note_on_c, 0, 74, 100
2, 53760, Note_on_c, 0, 74, 0
2, 54000, Note_on_c, 0, 74, 100
2, 54240, Note_on_c, 0, 74, 0
2, 54240, Note_on_c, 0, 76, 100
2, 54360, Note_on_c, 0, 76, 0
2, 54360, Note_on_c, 0, 74, 100
2, 54480, Note_on_c, 0, 74, 0
2, 54480, Note_on_c, 0, 72, 100
2, 54600, Note_on_c, 0, 72, 0
2, 54600, Note_on_c, 0, 71, 100
2, 54720, Note_on_c, 0, 71, 0
2, 54720, Note_on_c, 0, 76, 100
2, 54840, Note_on_c, 0, 76, 0
2, 54840, Note_on_c, 0, 71, 100
2, 54960, Note_on_c, 0, 71, 0
2, 54960, Note_on_c, 0, 74, 100
2, 55440, Note_on_c, 0, 74, 0
2, 55440, Note_on_c, 0, 77, 100
2, 55680, Note_on_c, 0, 77, 0
2, 55680, Note_on_c, 0, 76, 100
2, 55800, Note_on_c, 0, 76, 0
2, 55800, Note_on_c, 0, 74, 100
2, 55920, Note_on_c, 0, 74, 0
2, 55920, Note_on_c, 0, 72, 100
2, 56040, Note_on_c, 0, 72, 0
2, 56040, Note_on_c, 0, 71, 100
2, 56160, Note_on_c, 0, 71, 0
2, 56160, Note_on_c, 0, 72, 100
2, 56280, Note_on_c, 0, 72, 0
2, 56280, Note_on_c, 0, 74, 100
2, 56400, Note_on_c, 0, 74, 0
2, 56400, Note_on_c, 0, 76, 100
2, 56880, Note_on_c, 0, 76, 0
2, 56880, Note_on_c, 0, 76, 100
2, 57120, Note_on_c, 0, 76, 0
2, 57120, Note_on_c, 0, 74, 100
2, 57240, Note_on_c, 0, 74, 0
2, 57240, Note_on_c, 0, 72, 100
2, 57360, Note_on_c, 0, 72, 0
2, 57360, Note_on_c, 0, 71, 100
2, 57480, Note_on_c, 0, 71, 0
2, 57480, Note_on_c, 0, 69, 100
2, 57600, Note_on_c, 0, 69, 0
2, 57600, Note_on_c, 0, 81, 100
2, 57720, Note_on_c, 0, 81, 0
2, 57720, Note_on_c, 0, 78, 100
2, 57840, Note_on_c, 0, 78, 0
2, 57840, Note_on_c, 0, 80, 100
2, 58080, Note_on_c, 0, 80, 0
2, 58320, Note_on_c, 0, 80, 100
2, 58440, Note_on_c, 0, 80, 0
2, 58440, Note_on_c, 0, 83, 100
2, 58560, Note_on_c, 0, 83, 0
2, 58560, Note_on_c, 0, 83, 100
2, 58680, Note_on_c, 0, 83, 0
2, 58680, Note_on_c, 0, 80, 100
2, 58800, Note_on_c, 0, 80, 0
2, 58800, Note_on_c, 0, 80, 100
2, 58920, Note_on_c, 0, 80, 0
2, 58920, Note_on_c, 0, 76, 100
2, 59040, Note_on_c, 0, 76, 0
2, 59040, Note_on_c, 0, 81, 100
2, 59640, Note_on_c, 0, 81, 0
2, 59640, Note_on_c, 0, 83, 100
2, 59760, Note_on_c, 0, 83, 0
2, 59760, Note_on_c, 0, 81, 100
2, 59880, Note_on_c, 0, 81, 0
2, 59880, Note_on_c, 0, 79, 100
2, 60000, Note_on_c, 0, 79, 0
2, 60000, Note_on_c, 0, 78, 100
2, 60120, Note_on_c, 0, 78, 0
2, 60120, Note_on_c, 0, 76, 100
2, 60240, Note_on_c, 0, 76, 0
2, 60240, Note_on_c, 0, 75, 100
2, 60360, Note_on_c, 0, 75, 0
2, 60360, Note_on_c, 0, 76, 100
2, 60480, Note_on_c, 0, 76, 0
2, 60480, Note_on_c, 0, 81, 100
2, 60600, Note_on_c, 0, 81, 0
2, 60600, Note_on_c, 0, 83, 100
2, 60720, Note_on_c, 0, 83, 0
2, 60720, Note_on_c, 0, 84, 100
2, 61200, Note_on_c, 0, 84, 0
2, 61200, Note_on_c, 0, 84, 100
2, 61320, Note_on_c, 0, 84, 0
2, 61320, Note_on_c, 0, 83, 100
2, 61440, Note_on_c, 0, 83, 0
2, 61440, Note_on_c, 0, 81, 100
2, 61560, Note_on_c, 0, 81, 0
2, 61560, Note_on_c, 0, 79, 100
2, 61680, Note_on_c, 0, 79, 0
2, 61680, Note_on_c, 0, 81, 100
2, 61800, Note_on_c, 0, 81, 0
2, 61800, Note_on_c, 0, 78, 100
2, 61920, Note_on_c, 0, 78, 0
2, 61920, Note_on_c, 0, 79, 100
2, 62040, Note_on_c, 0, 79, 0
2, 62040, Note_on_c, 0, 76, 100
2, 62160, Note_on_c, 0, 76, 0
2, 62160, Note_on_c, 0, 75, 100
2, 62280, Note_on_c, 0, 75, 0
2, 62280, Note_on_c, 0, 76, 100
2, 62400, Note_on_c, 0, 76, 0
2, 62400, Note_on_c, 0, 83, 100
2, 62640, Note_on_c, 0, 83, 0
2, 62640, Note_on_c, 0, 81, 100
2, 62880, Note_on_c, 0, 81, 0
2, 62880, Note_on_c, 0, 81, 100
2, 63000, Note_on_c, 0, 81, 0
2, 63000, Note_on_c, 0, 79, 100
2, 63120, Note_on_c, 0, 79, 0
2, 63120, Note_on_c, 0, 81, 100
2, 63240, Note_on_c, 0, 81, 0
2, 63240, Note_on_c, 0, 78, 100
2, 63360, Note_on_c, 0, 78, 0
2, 63360, Note_on_c, 0, 78, 100
2, 63600, Note_on_c, 0, 78, 0
2, 63600, Note_on_c, 0, 76, 100
2, 63840, Note_on_c, 0, 76, 0
2, 64080, Note_on_c, 0, 76, 100
2, 64200, Note_on_c, 0, 76, 0
2, 64200, Note_on_c, 0, 77, 100
2, 64320, Note_on_c, 0, 77, 0
2, 64320, Note_on_c, 0, 79, 100
2, 64440, Note_on_c, 0, 79, 0
2, 64440, Note_on_c, 0, 81, 100
2, 64560, Note_on_c, 0, 81, 0
2, 64560, Note_on_c, 0, 82, 100
2, 65040, Note_on_c, 0, 82, 0
2, 65040, Note_on_c, 0, 81, 100
2, 65280, Note_on_c, 0, 81, 0
2, 65520, Note_on_c, 0, 79, 100
2, 65760, Note_on_c, 0, 79, 0
2, 65760, Note_on_c, 0, 79, 100
2, 65880, Note_on_c, 0, 79, 0
2, 65880, Note_on_c, 0, 77, 100
2, 66000, Note_on_c, 0, 77, 0
2, 66000, Note_on_c, 0, 79, 100
2, 66120, Note_on_c, 0, 79, 0
2, 66120, Note_on_c, 0, 76, 100
2, 66240, Note_on_c, 0, 76, 0
2, 66240, Note_on_c, 0, 76, 100
2, 66480, Note_on_c, 0, 76, 0
2, 66480, Note_on_c, 0, 77, 100
2, 66720, Note_on_c, 0, 77, 0
2, 66960, Note_on_c, 0, 74, 100
2, 67080, Note_on_c, 0, 74, 0
2, 67080, Note_on_c, 0, 76, 100
2, 67200, Note_on_c, 0, 76, 0
2, 67200, Note_on_c, 0, 77, 100
2, 67320, Note_on_c, 0, 77, 0
2, 67320, Note_on_c, 0, 79, 100
2, 67440, Note_on_c, 0, 79, 0
2, 67440, Note_on_c, 0, 81, 100
2, 67680, Note_on_c, 0, 81, 0
2, 67680, Note_on_c, 0, 71, 100
2, 67920, Note_on_c, 0, 71, 0
2, 67920, Note_on_c, 0, 72, 100
2, 68160, Note_on_c, 0, 72, 0
2, 68400, Note_on_c, 0, 72, 100
2, 68640, Note_on_c, 0, 72, 0
2, 68640, Note_on_c, 0, 76, 100
2, 68760, Note_on_c, 0, 76, 0
2, 68760, Note_on_c, 0, 74, 100
2, 68880, Note_on_c, 0, 74, 0
2, 68880, Note_on_c, 0, 76, 100
2, 69000, Note_on_c, 0, 76, 0
2, 69000, Note_on_c, 0, 72, 100
2, 69120, Note_on_c, 0, 72, 0
2, 69120, Note_on_c, 0, 71, 100
2, 69600, Note_on_c, 0, 71, 0
2, 69720, Note_on_c, 0, 71, 100
2, 69840, Note_on_c, 0, 71, 0
2, 69840, Note_on_c, 0, 72, 100
2, 69960, Note_on_c, 0, 72, 0
2, 69960, Note_on_c, 0, 71, 100
2, 70080, Note_on_c, 0, 71, 0
2, 70080, Note_on_c, 0, 69, 100
2, 70200, Note_on_c, 0, 69, 0
2, 70200, Note_on_c, 0, 67, 100
2, 70320, Note_on_c, 0, 67, 0
2, 70320, Note_on_c, 0, 65, 100
2, 70440, Note_on_c, 0, 65, 0
2, 70440, Note_on_c, 0, 64, 100
2, 70560, Note_on_c, 0, 64, 0
2, 70560, Note_on_c, 0, 65, 100
2, 70680, Note_on_c, 0, 65, 0
2, 70680, Note_on_c, 0, 75, 100
2, 70800, Note_on_c, 0, 75, 0
2, 70800, Note_on_c, 0, 74, 100
2, 70920, Note_on_c, 0, 74, 0
2, 70920, Note_on_c, 0, 72, 100
2, 71040, Note_on_c, 0, 72, 0
2, 71040, Note_on_c, 0, 71, 100
2, 71160, Note_on_c, 0, 71, 0
2, 71160, Note_on_c, 0, 72, 100
2, 71280, Note_on_c, 0, 72, 0
2, 71280, Note_on_c, 0, 80, 100
2, 71400, Note_on_c, 0, 80, 0
2, 71400, Note_on_c, 0, 79, 100
2, 71520, Note_on_c, 0, 79, 0
2, 71520, Note_on_c, 0, 78, 100
2, 71640, Note_on_c, 0, 78, 0
2, 71640, Note_on_c, 0, 72, 100
2, 71700, Note_on_c, 0, 72, 0
2, 71700, Note_on_c, 0, 71, 100
2, 71760, Note_on_c, 0, 71, 0
2, 71760, Note_on_c, 0, 72, 100
2, 71880, Note_on_c, 0, 72, 0
2, 71880, Note_on_c, 0, 78, 100
2, 72000, Note_on_c, 0, 78, 0
2, 72000, Note_on_c, 0, 79, 100
2, 72180, Note_on_c, 0, 79, 0
2, 72180, Note_on_c, 0, 81, 100
2, 72240, Note_on_c, 0, 81, 0
2, 72240, Note_on_c, 0, 79, 100
2, 72300, Note_on_c, 0, 79, 0
2, 72300, Note_on_c, 0, 77, 100
2, 72360, Note_on_c, 0, 77, 0
2, 72360, Note_on_c, 0, 76, 100
2, 72390, Note_on_c, 0, 76, 0
2, 72390, Note_on_c, 0, 77, 100
2, 72420, Note_on_c, 0, 77, 0
2, 72420, Note_on_c, 0, 79, 100
2, 72480, Note_on_c, 0, 79, 0
2, 72480, Note_on_c, 0, 72, 100
2, 72780, Note_on_c, 0, 72, 0
2, 72780, Note_on_c, 0, 71, 100
2, 72840, Note_on_c, 0, 71, 0
2, 72840, Note_on_c, 0, 69, 100
2, 72900, Note_on_c, 0, 69, 0
2, 72900, Note_on_c, 0, 71, 100
2, 72960, Note_on_c, 0, 71, 0
2, 72960, Pitch_bend_c, 0, 12288
2, 72960, Note_on_c, 0, 71, 100
2, 72980, Pitch_bend_c, 0, 8192
2, 73000, Pitch_bend_c, 0, 12288
2, 73020, Pitch_bend_c, 0, 8192
2, 73040, Pitch_bend_c, 0, 12288
2, 73060, Pitch_bend_c, 0, 8192
2, 73080, Pitch_bend_c, 0, 12288
2, 73100, Pitch_bend_c, 0, 8192
2, 73320, Note_on_c, 0, 71, 0
2, 73320, Note_on_c, 0, 69, 100
2, 73380, Note_on_c, 0, 69, 0
2, 73380, Note_on_c, 0, 71, 100
2, 73440, Note_on_c, 0, 71, 0
2, 73440, Note_on_c, 0, 72, 100
2, 74880, Note_on_c, 0, 72, 0
2, 74880, End_track
3, 0, Start_track
3, 0, MIDI_port, 0
3, 0, Title_t, "--------------------------------------"
3, 0, Program_c, 1, 40
3, 0, Control_c, 1, 7, 100
3, 0, Control_c, 1, 10, 59
3, 3480, Note_on_c, 1, 67, 100
3, 3600, Note_on_c, 1, 67, 0
3, 3600, Note_on_c, 1, 69, 100
3, 3720, Note_on_c, 1, 69, 0
3, 3720, Note_on_c, 1, 64, 100
3, 3840, Note_on_c, 1, 64, 0
3, 3840, Note_on_c, 1, 66, 100
3, 3960, Note_on_c, 1, 66, 0
3, 3960, Note_on_c, 1, 69, 100
3, 4080, Note_on_c, 1, 69, 0
3, 4080, Note_on_c, 1, 71, 100
3, 4200, Note_on_c, 1, 71, 0
3, 4200, Note_on_c, 1, 72, 100
3, 4320, Note_on_c, 1, 72, 0
3, 4320, Note_on_c, 1, 71, 100
3, 4440, Note_on_c, 1, 71, 0
3, 4440, Note_on_c, 1, 69, 100
3, 4560, Note_on_c, 1, 69, 0
3, 4560, Note_on_c, 1, 67, 100
3, 4800, Note_on_c, 1, 67, 0
3, 7800, Note_on_c, 1, 74, 100
3, 7920, Note_on_c, 1, 74, 0
3, 7920, Note_on_c, 1, 76, 100
3, 8040, Note_on_c, 1, 76, 0
3, 8040, Note_on_c, 1, 71, 100
3, 8160, Note_on_c, 1, 71, 0
3, 8160, Note_on_c, 1, 72, 100
3, 8280, Note_on_c, 1, 72, 0
3, 8280, Note_on_c, 1, 76, 100
3, 8400, Note_on_c, 1, 76, 0
3, 8400, Note_on_c, 1, 81, 100
3, 8520, Note_on_c, 1, 81, 0
3, 8520, Note_on_c, 1, 79, 100
3, 8640, Note_on_c, 1, 79, 0
3, 8640, Note_on_c, 1, 77, 100
3, 8880, Note_on_c, 1, 77, 0
3, 9600, Note_on_c, 1, 71, 100
3, 9840, Note_on_c, 1, 71, 0
3, 9840, Note_on_c, 1, 71, 100
3, 10080, Note_on_c, 1, 71, 0
3, 10080, Note_on_c, 1, 72, 100
3, 10320, Note_on_c, 1, 72, 0
3, 10800, Note_on_c, 1, 64, 100
3, 11040, Note_on_c, 1, 64, 0
3, 11040, Note_on_c, 1, 64, 100
3, 11280, Note_on_c, 1, 64, 0
3, 12480, Note_on_c, 1, 67, 100
3, 12960, Note_on_c, 1, 67, 0
3, 19320, Note_on_c, 1, 67, 100
3, 19440, Note_on_c, 1, 67, 0
3, 19440, Note_on_c, 1, 69, 100
3, 19560, Note_on_c, 1, 69, 0
3, 19560, Note_on_c, 1, 64, 100
3, 19680, Note_on_c, 1, 64, 0
3, 19680, Note_on_c, 1, 66, 100
3, 19800, Note_on_c, 1, 66, 0
3, 19800, Note_on_c, 1, 69, 100
3, 19920, Note_on_c, 1, 69, 0
3, 19920, Note_on_c, 1, 71, 100
3, 20040, Note_on_c, 1, 71, 0
3, 20040, Note_on_c, 1, 72, 100
3, 20160, Note_on_c, 1, 72, 0
3, 20160, Note_on_c, 1, 71, 100
3, 20280, Note_on_c, 1, 71, 0
3, 20280, Note_on_c, 1, 69, 100
3, 20400, Note_on_c, 1, 69, 0
3, 20400, Note_on_c, 1, 67, 100
3, 20640, Note_on_c, 1, 67, 0
3, 23640, Note_on_c, 1, 74, 100
3, 23760, Note_on_c, 1, 74, 0
3, 23760, Note_on_c, 1, 76, 100
3, 23880, Note_on_c, 1, 76, 0
3, 23880, Note_on_c, 1, 71, 100
3, 24000, Note_on_c, 1, 71, 0
3, 24000, Note_on_c, 1, 72, 100
3, 24120, Note_on_c, 1, 72, 0
3, 24120, Note_on_c, 1, 76, 100
3, 24240, Note_on_c, 1, 76, 0
3, 24240, Note_on_c, 1, 81, 100
3, 24360, Note_on_c, 1, 81, 0
3, 24360, Note_on_c, 1, 79, 100
3, 24480, Note_on_c, 1, 79, 0
3, 24480, Note_on_c, 1, 77, 100
3, 24720, Note_on_c, 1, 77, 0
3, 25440, Note_on_c, 1, 71, 100
3, 25680, Note_on_c, 1, 71, 0
3, 25680, Note_on_c, 1, 71, 100
3, 25920, Note_on_c, 1, 71, 0
3, 25920, Note_on_c, 1, 72, 100
3, 26160, Note_on_c, 1, 72, 0
3, 26640, Note_on_c, 1, 64, 100
3, 26880, Note_on_c, 1, 64, 0
3, 26880, Note_on_c, 1, 64, 100
3, 27120, Note_on_c, 1, 64, 0
3, 28320, Note_on_c, 1, 67, 100
3, 28800, Note_on_c, 1, 67, 0
3, 33840, Note_on_c, 1, 74, 100
3, 34080, Note_on_c, 1, 74, 0
3, 34080, Note_on_c, 1, 71, 100
3, 34320, Note_on_c, 1, 71, 0
3, 36000, Note_on_c, 1, 71, 100
3, 36240, Note_on_c, 1, 71, 0
3, 36240, Note_on_c, 1, 71, 100
3, 36480, Note_on_c, 1, 71, 0
3, 38880, Note_on_c, 1, 66, 100
3, 39120, Note_on_c, 1, 66, 0
3, 39120, Note_on_c, 1, 66, 100
3, 39360, Note_on_c, 1, 66, 0
3, 40320, Note_on_c, 1, 71, 100
3, 40560, Note_on_c, 1, 71, 0
3, 40800, Note_on_c, 1, 76, 100
3, 41040, Note_on_c, 1, 76, 0
3, 45600, Note_on_c, 1, 69, 100
3, 45840, Note_on_c, 1, 69, 0
3, 45840, Note_on_c, 1, 71, 100
3, 46080, Note_on_c, 1, 71, 0
3, 49920, Note_on_c, 1, 72, 100
3, 50040, Note_on_c, 1, 72, 0
3, 50400, Note_on_c, 1, 72, 100
3, 50640, Note_on_c, 1, 72, 0
3, 51840, Note_on_c, 1, 64, 100
3, 52080, Note_on_c, 1, 64, 0
3, 52080, Note_on_c, 1, 64, 100
3, 52320, Note_on_c, 1, 64, 0
3, 52320, Note_on_c, 1, 64, 100
3, 52560, Note_on_c, 1, 64, 0
3, 52560, Note_on_c, 1, 64, 100
3, 52800, Note_on_c, 1, 64, 0
3, 52800, Note_on_c, 1, 66, 100
3, 53040, Note_on_c, 1, 66, 0
3, 53040, Note_on_c, 1, 66, 100
3, 53280, Note_on_c, 1, 66, 0
3, 53280, Note_on_c, 1, 67, 100
3, 53520, Note_on_c, 1, 67, 0
3, 53520, Note_on_c, 1, 67, 100
3, 53760, Note_on_c, 1, 67, 0
3, 53760, Note_on_c, 1, 67, 100
3, 54000, Note_on_c, 1, 67, 0
3, 54000, Note_on_c, 1, 67, 100
3, 54240, Note_on_c, 1, 67, 0
3, 54240, Note_on_c, 1, 67, 100
3, 54480, Note_on_c, 1, 67, 0
3, 54480, Note_on_c, 1, 67, 100
3, 54720, Note_on_c, 1, 67, 0
3, 55440, Note_on_c, 1, 74, 100
3, 55680, Note_on_c, 1, 74, 0
3, 55680, Note_on_c, 1, 71, 100
3, 55920, Note_on_c, 1, 71, 0
3, 57600, Note_on_c, 1, 71, 100
3, 57840, Note_on_c, 1, 71, 0
3, 57840, Note_on_c, 1, 71, 100
3, 58080, Note_on_c, 1, 71, 0
3, 60480, Note_on_c, 1, 66, 100
3, 60720, Note_on_c, 1, 66, 0
3, 60720, Note_on_c, 1, 66, 100
3, 60960, Note_on_c, 1, 66, 0
3, 61920, Note_on_c, 1, 71, 100
3, 62160, Note_on_c, 1, 71, 0
3, 62400, Note_on_c, 1, 76, 100
3, 62640, Note_on_c, 1, 76, 0
3, 67200, Note_on_c, 1, 69, 100
3, 67440, Note_on_c, 1, 69, 0
3, 67440, Note_on_c, 1, 71, 100
3, 67680, Note_on_c, 1, 71, 0
3, 71520, Note_on_c, 1, 72, 100
3, 71640, Note_on_c, 1, 72, 0
3, 72000, Note_on_c, 1, 72, 100
3, 72240, Note_on_c, 1, 72, 0
3, 72240, End_track
4, 0, Start_track
4, 0, MIDI_port, 0
4, 0, Title_t, "Johann Sebastian Bach  (1685-1750)"
4, 0, Program_c, 2, 40
4, 0, Control_c, 2, 7, 100
4, 0, Control_c, 2, 10, 79
4, 0, Note_on_c, 2, 60, 100
4, 240, Note_on_c, 2, 60, 0
4, 240, Note_on_c, 2, 60, 100
4, 480, Note_on_c, 2, 60, 0
4, 480, Note_on_c, 2, 60, 100
4, 720, Note_on_c, 2, 60, 0
4, 720, Note_on_c, 2, 60, 100
4, 960, Note_on_c, 2, 60, 0
4, 960, Note_on_c, 2, 60, 100
4, 1200, Note_on_c, 2, 60, 0
4, 1200, Note_on_c, 2, 60, 100
4, 1440, Note_on_c, 2, 60, 0
4, 1440, Note_on_c, 2, 59, 100
4, 1680, Note_on_c, 2, 59, 0
4, 1680, Note_on_c, 2, 59, 100
4, 1920, Note_on_c, 2, 59, 0
4, 1920, Note_on_c, 2, 59, 100
4, 2160, Note_on_c, 2, 59, 0
4, 2160, Note_on_c, 2, 59, 100
4, 2400, Note_on_c, 2, 59, 0
4, 2400, Note_on_c, 2, 59, 100
4, 2640, Note_on_c, 2, 59, 0
4, 2640, Note_on_c, 2, 59, 100
4, 2880, Note_on_c, 2, 59, 0
4, 2880, Note_on_c, 2, 60, 100
4, 3120, Note_on_c, 2, 60, 0
4, 3120, Note_on_c, 2, 60, 100
4, 3360, Note_on_c, 2, 60, 0
4, 3360, Note_on_c, 2, 57, 100
4, 3600, Note_on_c, 2, 57, 0
4, 3600, Note_on_c, 2, 57, 100
4, 3840, Note_on_c, 2, 57, 0
4, 3840, Note_on_c, 2, 62, 100
4, 4080, Note_on_c, 2, 62, 0
4, 4080, Note_on_c, 2, 62, 100
4, 4320, Note_on_c, 2, 62, 0
4, 4320, Note_on_c, 2, 55, 100
4, 4560, Note_on_c, 2, 55, 0
4, 4560, Note_on_c, 2, 55, 100
4, 4800, Note_on_c, 2, 55, 0
4, 4800, Note_on_c, 2, 67, 100
4, 5040, Note_on_c, 2, 67, 0
4, 5040, Note_on_c, 2, 67, 100
4, 5280, Note_on_c, 2, 67, 0
4, 5280, Note_on_c, 2, 67, 100
4, 5520, Note_on_c, 2, 67, 0
4, 5520, Note_on_c, 2, 67, 100
4, 5760, Note_on_c, 2, 67, 0
4, 5760, Note_on_c, 2, 67, 100
4, 6000, Note_on_c, 2, 67, 0
4, 6000, Note_on_c, 2, 67, 100
4, 6240, Note_on_c, 2, 67, 0
4, 6240, Note_on_c, 2, 65, 100
4, 6480, Note_on_c, 2, 65, 0
4, 6480, Note_on_c, 2, 65, 100
4, 6720, Note_on_c, 2, 65, 0
4, 6720, Note_on_c, 2, 65, 100
4, 6960, Note_on_c, 2, 65, 0
4, 6960, Note_on_c, 2, 65, 100
4, 7200, Note_on_c, 2, 65, 0
4, 7200, Note_on_c, 2, 65, 100
4, 7440, Note_on_c, 2, 65, 0
4, 7440, Note_on_c, 2, 65, 100
4, 7680, Note_on_c, 2, 65, 0
4, 7680, Note_on_c, 2, 64, 100
4, 7920, Note_on_c, 2, 64, 0
4, 7920, Note_on_c, 2, 64, 100
4, 8160, Note_on_c, 2, 64, 0
4, 8160, Note_on_c, 2, 69, 100
4, 8400, Note_on_c, 2, 69, 0
4, 8400, Note_on_c, 2, 69, 100
4, 8640, Note_on_c, 2, 69, 0
4, 8640, Note_on_c, 2, 62, 100
4, 8880, Note_on_c, 2, 62, 0
4, 8880, Note_on_c, 2, 62, 100
4, 9120, Note_on_c, 2, 62, 0
4, 9120, Note_on_c, 2, 67, 100
4, 9360, Note_on_c, 2, 67, 0
4, 9360, Note_on_c, 2, 67, 100
4, 9600, Note_on_c, 2, 67, 0
4, 9600, Note_on_c, 2, 55, 100
4, 9840, Note_on_c, 2, 55, 0
4, 9840, Note_on_c, 2, 55, 100
4, 10080, Note_on_c, 2, 55, 0
4, 10080, Note_on_c, 2, 60, 100
4, 10320, Note_on_c, 2, 60, 0
4, 10320, Note_on_c, 2, 60, 100
4, 10560, Note_on_c, 2, 60, 0
4, 10560, Note_on_c, 2, 60, 100
4, 10800, Note_on_c, 2, 60, 0
4, 10800, Note_on_c, 2, 60, 100
4, 11040, Note_on_c, 2, 60, 0
4, 11040, Note_on_c, 2, 60, 100
4, 11280, Note_on_c, 2, 60, 0
4, 11280, Note_on_c, 2, 60, 100
4, 11520, Note_on_c, 2, 60, 0
4, 11520, Note_on_c, 2, 60, 100
4, 11760, Note_on_c, 2, 60, 0
4, 12480, Note_on_c, 2, 59, 100
4, 12960, Note_on_c, 2, 59, 0
4, 12960, Note_on_c, 2, 60, 100
4, 13080, Note_on_c, 2, 60, 0
4, 13080, Note_on_c, 2, 76, 100
4, 13140, Note_on_c, 2, 76, 0
4, 13140, Note_on_c, 2, 74, 100
4, 13200, Note_on_c, 2, 74, 0
4, 13200, Note_on_c, 2, 72, 100
4, 13260, Note_on_c, 2, 72, 0
4, 13260, Note_on_c, 2, 74, 100
4, 13320, Note_on_c, 2, 74, 0
4, 13320, Note_on_c, 2, 76, 100
4, 13440, Note_on_c, 2, 76, 0
4, 13440, Note_on_c, 2, 62, 100
4, 14400, Note_on_c, 2, 62, 0
4, 14400, Note_on_c, 2, 55, 100
4, 14640, Note_on_c, 2, 55, 0
4, 14640, Note_on_c, 2, 55, 100
4, 14880, Note_on_c, 2, 55, 0
4, 14880, Note_on_c, 2, 57, 100
4, 15120, Note_on_c, 2, 57, 0
4, 15120, Note_on_c, 2, 57, 100
4, 15360, Note_on_c, 2, 57, 0
4, 15360, Note_on_c, 2, 59, 100
4, 15600, Note_on_c, 2, 59, 0
4, 15600, Note_on_c, 2, 59, 100
4, 15840, Note_on_c, 2, 59, 0
4, 15840, Note_on_c, 2, 60, 100
4, 16080, Note_on_c, 2, 60, 0
4, 16080, Note_on_c, 2, 60, 100
4, 16320, Note_on_c, 2, 60, 0
4, 16320, Note_on_c, 2, 60, 100
4, 16560, Note_on_c, 2, 60, 0
4, 16560, Note_on_c, 2, 60, 100
4, 16800, Note_on_c, 2, 60, 0
4, 16800, Note_on_c, 2, 60, 100
4, 17040, Note_on_c, 2, 60, 0
4, 17040, Note_on_c, 2, 60, 100
4, 17280, Note_on_c, 2, 60, 0
4, 17280, Note_on_c, 2, 59, 100
4, 17520, Note_on_c, 2, 59, 0
4, 17520, Note_on_c, 2, 59, 100
4, 17760, Note_on_c, 2, 59, 0
4, 17760, Note_on_c, 2, 59, 100
4, 18000, Note_on_c, 2, 59, 0
4, 18000, Note_on_c, 2, 59, 100
4, 18240, Note_on_c, 2, 59, 0
4, 18240, Note_on_c, 2, 59, 100
4, 18480, Note_on_c, 2, 59, 0
4, 18480, Note_on_c, 2, 59, 100
4, 18720, Note_on_c, 2, 59, 0
4, 18720, Note_on_c, 2, 60, 100
4, 18960, Note_on_c, 2, 60, 0
4, 18960, Note_on_c, 2, 60, 100
4, 19200, Note_on_c, 2, 60, 0
4, 19200, Note_on_c, 2, 57, 100
4, 19440, Note_on_c, 2, 57, 0
4, 19440, Note_on_c, 2, 57, 100
4, 19680, Note_on_c, 2, 57, 0
4, 19680, Note_on_c, 2, 62, 100
4, 19920, Note_on_c, 2, 62, 0
4, 19920, Note_on_c, 2, 62, 100
4, 20160, Note_on_c, 2, 62, 0
4, 20160, Note_on_c, 2, 55, 100
4, 20400, Note_on_c, 2, 55, 0
4, 20400, Note_on_c, 2, 55, 100
4, 20640, Note_on_c, 2, 55, 0
4, 20640, Note_on_c, 2, 67, 100
4, 20880, Note_on_c, 2, 67, 0
4, 20880, Note_on_c, 2, 67, 100
4, 21120, Note_on_c, 2, 67, 0
4, 21120, Note_on_c, 2, 67, 100
4, 21360, Note_on_c, 2, 67, 0
4, 21360, Note_on_c, 2, 67, 100
4, 21600, Note_on_c, 2, 67, 0
4, 21600, Note_on_c, 2, 67, 100
4, 21840, Note_on_c, 2, 67, 0
4, 21840, Note_on_c, 2, 67, 100
4, 22080, Note_on_c, 2, 67, 0
4, 22080, Note_on_c, 2, 65, 100
4, 22320, Note_on_c, 2, 65, 0
4, 22320, Note_on_c, 2, 65, 100
4, 22560, Note_on_c, 2, 65, 0
4, 22560, Note_on_c, 2, 65, 100
4, 22800, Note_on_c, 2, 65, 0
4, 22800, Note_on_c, 2, 65, 100
4, 23040, Note_on_c, 2, 65, 0
4, 23040, Note_on_c, 2, 65, 100
4, 23280, Note_on_c, 2, 65, 0
4, 23280, Note_on_c, 2, 65, 100
4, 23520, Note_on_c, 2, 65, 0
4, 23520, Note_on_c, 2, 64, 100
4, 23760, Note_on_c, 2, 64, 0
4, 23760, Note_on_c, 2, 64, 100
4, 24000, Note_on_c, 2, 64, 0
4, 24000, Note_on_c, 2, 69, 100
4, 24240, Note_on_c, 2, 69, 0
4, 24240, Note_on_c, 2, 69, 100
4, 24480, Note_on_c, 2, 69, 0
4, 24480, Note_on_c, 2, 62, 100
4, 24720, Note_on_c, 2, 62, 0
4, 24720, Note_on_c, 2, 62, 100
4, 24960, Note_on_c, 2, 62, 0
4, 24960, Note_on_c, 2, 67, 100
4, 25200, Note_on_c, 2, 67, 0
4, 25200, Note_on_c, 2, 67, 100
4, 25440, Note_on_c, 2, 67, 0
4, 25440, Note_on_c, 2, 55, 100
4, 25680, Note_on_c, 2, 55, 0
4, 25680, Note_on_c, 2, 55, 100
4, 25920, Note_on_c, 2, 55, 0
4, 25920, Note_on_c, 2, 60, 100
4, 26160, Note_on_c, 2, 60, 0
4, 26160, Note_on_c, 2, 60, 100
4, 26400, Note_on_c, 2, 60, 0
4, 26400, Note_on_c, 2, 60, 100
4, 26640, Note_on_c, 2, 60, 0
4, 26640, Note_on_c, 2, 60, 100
4, 26880, Note_on_c, 2, 60, 0
4, 26880, Note_on_c, 2, 60, 100
4, 27120, Note_on_c, 2, 60, 0
4, 27120, Note_on_c, 2, 60, 100
4, 27360, Note_on_c, 2, 60, 0
4, 27360, Note_on_c, 2, 60, 100
4, 27600, Note_on_c, 2, 60, 0
4, 28320, Note_on_c, 2, 59, 100
4, 28800, Note_on_c, 2, 59, 0
4, 28800, Note_on_c, 2, 60, 100
4, 28920, Note_on_c, 2, 60, 0
4, 28920, Note_on_c, 2, 76, 100
4, 28980, Note_on_c, 2, 76, 0
4, 28980, Note_on_c, 2, 74, 100
4, 29040, Note_on_c, 2, 74, 0
4, 29040, Note_on_c, 2, 72, 100
4, 29100, Note_on_c, 2, 72, 0
4, 29100, Note_on_c, 2, 74, 100
4, 29160, Note_on_c, 2, 74, 0
4, 29160, Note_on_c, 2, 76, 100
4, 29280, Note_on_c, 2, 76, 0
4, 29280, Note_on_c, 2, 62, 100
4, 30240, Note_on_c, 2, 62, 0
4, 30240, Note_on_c, 2, 55, 100
4, 31680, Note_on_c, 2, 55, 0
4, 31680, Note_on_c, 2, 67, 100
4, 31920, Note_on_c, 2, 67, 0
4, 31920, Note_on_c, 2, 67, 100
4, 32160, Note_on_c, 2, 67, 0
4, 32160, Note_on_c, 2, 67, 100
4, 32400, Note_on_c, 2, 67, 0
4, 32400, Note_on_c, 2, 67, 100
4, 32640, Note_on_c, 2, 67, 0
4, 32640, Note_on_c, 2, 67, 100
4, 32880, Note_on_c, 2, 67, 0
4, 32880, Note_on_c, 2, 67, 100
4, 33120, Note_on_c, 2, 67, 0
4, 33120, Note_on_c, 2, 68, 100
4, 33360, Note_on_c, 2, 68, 0
4, 33360, Note_on_c, 2, 68, 100
4, 33600, Note_on_c, 2, 68, 0
4, 33600, Note_on_c, 2, 68, 100
4, 33840, Note_on_c, 2, 68, 0
4, 33840, Note_on_c, 2, 68, 100
4, 34080, Note_on_c, 2, 68, 0
4, 34080, Note_on_c, 2, 68, 100
4, 34320, Note_on_c, 2, 68, 0
4, 34320, Note_on_c, 2, 68, 100
4, 34560, Note_on_c, 2, 68, 0
4, 34560, Note_on_c, 2, 69, 100
4, 34800, Note_on_c, 2, 69, 0
4, 34800, Note_on_c, 2, 69, 100
4, 35040, Note_on_c, 2, 69, 0
4, 35040, Note_on_c, 2, 65, 100
4, 35280, Note_on_c, 2, 65, 0
4, 35280, Note_on_c, 2, 65, 100
4, 35520, Note_on_c, 2, 65, 0
4, 35520, Note_on_c, 2, 65, 100
4, 35760, Note_on_c, 2, 65, 0
4, 35760, Note_on_c, 2, 65, 100
4, 36000, Note_on_c, 2, 65, 0
4, 36000, Note_on_c, 2, 64, 100
4, 36240, Note_on_c, 2, 64, 0
4, 36240, Note_on_c, 2, 64, 100
4, 36480, Note_on_c, 2, 64, 0
4, 36480, Note_on_c, 2, 74, 100
4, 36720, Note_on_c, 2, 74, 0
4, 36720, Note_on_c, 2, 74, 100
4, 36960, Note_on_c, 2, 74, 0
4, 36960, Note_on_c, 2, 74, 100
4, 37200, Note_on_c, 2, 74, 0
4, 37200, Note_on_c, 2, 74, 100
4, 37440, Note_on_c, 2, 74, 0
4, 37440, Note_on_c, 2, 72, 100
4, 37680, Note_on_c, 2, 72, 0
4, 37680, Note_on_c, 2, 72, 100
4, 37920, Note_on_c, 2, 72, 0
4, 37920, Note_on_c, 2, 72, 100
4, 38160, Note_on_c, 2, 72, 0
4, 38160, Note_on_c, 2, 72, 100
4, 38400, Note_on_c, 2, 72, 0
4, 38400, Note_on_c, 2, 72, 100
4, 38640, Note_on_c, 2, 72, 0
4, 38640, Note_on_c, 2, 69, 100
4, 38880, Note_on_c, 2, 69, 0
4, 38880, Note_on_c, 2, 75, 100
4, 39120, Note_on_c, 2, 75, 0
4, 39120, Note_on_c, 2, 75, 100
4, 39360, Note_on_c, 2, 75, 0
4, 39360, Note_on_c, 2, 75, 100
4, 39600, Note_on_c, 2, 75, 0
4, 39600, Note_on_c, 2, 75, 100
4, 39840, Note_on_c, 2, 75, 0
4, 39840, Note_on_c, 2, 71, 100
4, 40080, Note_on_c, 2, 71, 0
4, 40080, Note_on_c, 2, 71, 100
4, 40320, Note_on_c, 2, 71, 0
4, 40320, Note_on_c, 2, 64, 100
4, 40560, Note_on_c, 2, 64, 0
4, 40560, Note_on_c, 2, 66, 100
4, 40800, Note_on_c, 2, 66, 0
4, 40800, Note_on_c, 2, 67, 100
4, 41040, Note_on_c, 2, 67, 0
4, 41040, Note_on_c, 2, 69, 100
4, 41280, Note_on_c, 2, 69, 0
4, 41280, Note_on_c, 2, 71, 100
4, 41520, Note_on_c, 2, 71, 0
4, 41520, Note_on_c, 2, 71, 100
4, 41760, Note_on_c, 2, 71, 0
4, 41760, Note_on_c, 2, 76, 100
4, 42000, Note_on_c, 2, 76, 0
4, 42000, Note_on_c, 2, 76, 100
4, 42240, Note_on_c, 2, 76, 0
4, 42240, Note_on_c, 2, 74, 100
4, 42480, Note_on_c, 2, 74, 0
4, 42480, Note_on_c, 2, 74, 100
4, 42720, Note_on_c, 2, 74, 0
4, 42720, Note_on_c, 2, 74, 100
4, 42960, Note_on_c, 2, 74, 0
4, 42960, Note_on_c, 2, 74, 100
4, 43200, Note_on_c, 2, 74, 0
4, 43200, Note_on_c, 2, 73, 100
4, 43440, Note_on_c, 2, 73, 0
4, 43440, Note_on_c, 2, 73, 100
4, 43680, Note_on_c, 2, 73, 0
4, 43680, Note_on_c, 2, 69, 100
4, 43920, Note_on_c, 2, 69, 0
4, 43920, Note_on_c, 2, 69, 100
4, 44160, Note_on_c, 2, 69, 0
4, 44160, Note_on_c, 2, 69, 100
4, 44400, Note_on_c, 2, 69, 0
4, 44400, Note_on_c, 2, 69, 100
4, 44640, Note_on_c, 2, 69, 0
4, 44640, Note_on_c, 2, 74, 100
4, 44880, Note_on_c, 2, 74, 0
4, 44880, Note_on_c, 2, 74, 100
4, 45120, Note_on_c, 2, 74, 0
4, 45120, Note_on_c, 2, 62, 100
4, 45360, Note_on_c, 2, 62, 0
4, 45360, Note_on_c, 2, 62, 100
4, 45600, Note_on_c, 2, 62, 0
4, 45600, Note_on_c, 2, 62, 100
4, 45840, Note_on_c, 2, 62, 0
4, 45840, Note_on_c, 2, 62, 100
4, 46080, Note_on_c, 2, 62, 0
4, 46080, Note_on_c, 2, 64, 100
4, 46320, Note_on_c, 2, 64, 0
4, 46320, Note_on_c, 2, 64, 100
4, 46560, Note_on_c, 2, 64, 0
4, 46560, Note_on_c, 2, 66, 100
4, 46800, Note_on_c, 2, 66, 0
4, 46800, Note_on_c, 2, 66, 100
4, 47040, Note_on_c, 2, 66, 0
4, 47040, Note_on_c, 2, 66, 100
4, 47280, Note_on_c, 2, 66, 0
4, 47280, Note_on_c, 2, 66, 100
4, 47520, Note_on_c, 2, 66, 0
4, 47520, Note_on_c, 2, 67, 100
4, 47760, Note_on_c, 2, 67, 0
4, 47760, Note_on_c, 2, 67, 100
4, 48000, Note_on_c, 2, 67, 0
4, 48000, Note_on_c, 2, 67, 100
4, 48240, Note_on_c, 2, 67, 0
4, 48240, Note_on_c, 2, 67, 100
4, 48480, Note_on_c, 2, 67, 0
4, 48480, Note_on_c, 2, 55, 100
4, 48720, Note_on_c, 2, 55, 0
4, 48720, Note_on_c, 2, 55, 100
4, 48960, Note_on_c, 2, 55, 0
4, 48960, Note_on_c, 2, 56, 100
4, 49080, Note_on_c, 2, 56, 0
4, 49920, Note_on_c, 2, 57, 100
4, 50040, Note_on_c, 2, 57, 0
4, 50400, Note_on_c, 2, 55, 100
4, 50640, Note_on_c, 2, 55, 0
4, 50880, Note_on_c, 2, 55, 100
4, 51360, Note_on_c, 2, 55, 0
4, 51840, Note_on_c, 2, 60, 100
4, 52080, Note_on_c, 2, 60, 0
4, 52080, Note_on_c, 2, 60, 100
4, 52320, Note_on_c, 2, 60, 0
4, 52320, Note_on_c, 2, 59, 100
4, 52560, Note_on_c, 2, 59, 0
4, 52560, Note_on_c, 2, 59, 100
4, 52800, Note_on_c, 2, 59, 0
4, 52800, Note_on_c, 2, 57, 100
4, 53040, Note_on_c, 2, 57, 0
4, 53040, Note_on_c, 2, 57, 100
4, 53280, Note_on_c, 2, 57, 0
4, 53280, Note_on_c, 2, 55, 100
4, 53520, Note_on_c, 2, 55, 0
4, 53520, Note_on_c, 2, 55, 100
4, 53760, Note_on_c, 2, 55, 0
4, 54720, Note_on_c, 2, 68, 100
4, 54960, Note_on_c, 2, 68, 0
4, 54960, Note_on_c, 2, 68, 100
4, 55200, Note_on_c, 2, 68, 0
4, 55200, Note_on_c, 2, 68, 100
4, 55440, Note_on_c, 2, 68, 0
4, 55440, Note_on_c, 2, 68, 100
4, 55680, Note_on_c, 2, 68, 0
4, 55680, Note_on_c, 2, 68, 100
4, 55920, Note_on_c, 2, 68, 0
4, 55920, Note_on_c, 2, 68, 100
4, 56160, Note_on_c, 2, 68, 0
4, 56160, Note_on_c, 2, 69, 100
4, 56400, Note_on_c, 2, 69, 0
4, 56400, Note_on_c, 2, 69, 100
4, 56640, Note_on_c, 2, 69, 0
4, 56640, Note_on_c, 2, 65, 100
4, 56880, Note_on_c, 2, 65, 0
4, 56880, Note_on_c, 2, 65, 100
4, 57120, Note_on_c, 2, 65, 0
4, 57120, Note_on_c, 2, 65, 100
4, 57360, Note_on_c, 2, 65, 0
4, 57360, Note_on_c, 2, 65, 100
4, 57600, Note_on_c, 2, 65, 0
4, 57600, Note_on_c, 2, 64, 100
4, 57840, Note_on_c, 2, 64, 0
4, 57840, Note_on_c, 2, 64, 100
4, 58080, Note_on_c, 2, 64, 0
4, 58080, Note_on_c, 2, 74, 100
4, 58320, Note_on_c, 2, 74, 0
4, 58320, Note_on_c, 2, 74, 100
4, 58560, Note_on_c, 2, 74, 0
4, 58560, Note_on_c, 2, 74, 100
4, 58800, Note_on_c, 2, 74, 0
4, 58800, Note_on_c, 2, 74, 100
4, 59040, Note_on_c, 2, 74, 0
4, 59040, Note_on_c, 2, 72, 100
4, 59280, Note_on_c, 2, 72, 0
4, 59280, Note_on_c, 2, 72, 100
4, 59520, Note_on_c, 2, 72, 0
4, 59520, Note_on_c, 2, 72, 100
4, 59760, Note_on_c, 2, 72, 0
4, 59760, Note_on_c, 2, 72, 100
4, 60000, Note_on_c, 2, 72, 0
4, 60000, Note_on_c, 2, 72, 100
4, 60240, Note_on_c, 2, 72, 0
4, 60240, Note_on_c, 2, 69, 100
4, 60480, Note_on_c, 2, 69, 0
4, 60480, Note_on_c, 2, 75, 100
4, 60720, Note_on_c, 2, 75, 0
4, 60720, Note_on_c, 2, 75, 100
4, 60960, Note_on_c, 2, 75, 0
4, 60960, Note_on_c, 2, 75, 100
4, 61200, Note_on_c, 2, 75, 0
4, 61200, Note_on_c, 2, 75, 100
4, 61440, Note_on_c, 2, 75, 0
4, 61440, Note_on_c, 2, 71, 100
4, 61680, Note_on_c, 2, 71, 0
4, 61680, Note_on_c, 2, 71, 100
4, 61920, Note_on_c, 2, 71, 0
4, 61920, Note_on_c, 2, 64, 100
4, 62160, Note_on_c, 2, 64, 0
4, 62160, Note_on_c, 2, 66, 100
4, 62400, Note_on_c, 2, 66, 0
4, 62400, Note_on_c, 2, 67, 100
4, 62640, Note_on_c, 2, 67, 0
4, 62640, Note_on_c, 2, 69, 100
4, 62880, Note_on_c, 2, 69, 0
4, 62880, Note_on_c, 2, 71, 100
4, 63120, Note_on_c, 2, 71, 0
4, 63120, Note_on_c, 2, 71, 100
4, 63360, Note_on_c, 2, 71, 0
4, 63360, Note_on_c, 2, 76, 100
4, 63600, Note_on_c, 2, 76, 0
4, 63600, Note_on_c, 2, 76, 100
4, 63840, Note_on_c, 2, 76, 0
4, 63840, Note_on_c, 2, 74, 100
4, 64080, Note_on_c, 2, 74, 0
4, 64080, Note_on_c, 2, 74, 100
4, 64320, Note_on_c, 2, 74, 0
4, 64320, Note_on_c, 2, 74, 100
4, 64560, Note_on_c, 2, 74, 0
4, 64560, Note_on_c, 2, 74, 100
4, 64800, Note_on_c, 2, 74, 0
4, 64800, Note_on_c, 2, 73, 100
4, 65040, Note_on_c, 2, 73, 0
4, 65040, Note_on_c, 2, 73, 100
4, 65280, Note_on_c, 2, 73, 0
4, 65280, Note_on_c, 2, 69, 100
4, 65520, Note_on_c, 2, 69, 0
4, 65520, Note_on_c, 2, 69, 100
4, 65760, Note_on_c, 2, 69, 0
4, 65760, Note_on_c, 2, 69, 100
4, 66000, Note_on_c, 2, 69, 0
4, 66000, Note_on_c, 2, 69, 100
4, 66240, Note_on_c, 2, 69, 0
4, 66240, Note_on_c, 2, 74, 100
4, 66480, Note_on_c, 2, 74, 0
4, 66480, Note_on_c, 2, 74, 100
4, 66720, Note_on_c, 2, 74, 0
4, 66720, Note_on_c, 2, 62, 100
4, 66960, Note_on_c, 2, 62, 0
4, 66960, Note_on_c, 2, 62, 100
4, 67200, Note_on_c, 2, 62, 0
4, 67200, Note_on_c, 2, 62, 100
4, 67440, Note_on_c, 2, 62, 0
4, 67440, Note_on_c, 2, 62, 100
4, 67680, Note_on_c, 2, 62, 0
4, 67680, Note_on_c, 2, 64, 100
4, 67920, Note_on_c, 2, 64, 0
4, 67920, Note_on_c, 2, 64, 100
4, 68160, Note_on_c, 2, 64, 0
4, 68160, Note_on_c, 2, 66, 100
4, 68400, Note_on_c, 2, 66, 0
4, 68400, Note_on_c, 2, 66, 100
4, 68640, Note_on_c, 2, 66, 0
4, 68640, Note_on_c, 2, 66, 100
4, 68880, Note_on_c, 2, 66, 0
4, 68880, Note_on_c, 2, 66, 100
4, 69120, Note_on_c, 2, 66, 0
4, 69120, Note_on_c, 2, 67, 100
4, 69360, Note_on_c, 2, 67, 0
4, 69360, Note_on_c, 2, 67, 100
4, 69600, Note_on_c, 2, 67, 0
4, 69600, Note_on_c, 2, 67, 100
4, 69840, Note_on_c, 2, 67, 0
4, 69840, Note_on_c, 2, 67, 100
4, 70080, Note_on_c, 2, 67, 0
4, 70080, Note_on_c, 2, 55, 100
4, 70320, Note_on_c, 2, 55, 0
4, 70320, Note_on_c, 2, 55, 100
4, 70560, Note_on_c, 2, 55, 0
4, 70560, Note_on_c, 2, 56, 100
4, 70680, Note_on_c, 2, 56, 0
4, 71520, Note_on_c, 2, 57, 100
4, 71640, Note_on_c, 2, 57, 0
4, 72000, Note_on_c, 2, 55, 100
4, 72240, Note_on_c, 2, 55, 0
4, 72480, Note_on_c, 2, 55, 100
4, 72960, Note_on_c, 2, 55, 0
4, 73440, Note_on_c, 2, 60, 100
4, 74880, Note_on_c, 2, 60, 0
4, 74880, End_track
5, 0, Start_track
5, 0, MIDI_port, 0
5, 0, Title_t, "Six Sonatas and Partitas for Solo Violin"
5, 0, Program_c, 3, 40
5, 0, Control_c, 3, 7, 100
5, 0, Control_c, 3, 10, 49
5, 3360, Note_on_c, 3, 67, 100
5, 3480, Note_on_c, 3, 67, 0
5, 4320, Note_on_c, 3, 62, 100
5, 4560, Note_on_c, 3, 62, 0
5, 7680, Note_on_c, 3, 74, 100
5, 7800, Note_on_c, 3, 74, 0
5, 8640, Note_on_c, 3, 72, 100
5, 8760, Note_on_c, 3, 72, 0
5, 9600, Note_on_c, 3, 62, 100
5, 9840, Note_on_c, 3, 62, 0
5, 9840, Note_on_c, 3, 62, 100
5, 10080, Note_on_c, 3, 62, 0
5, 10080, Note_on_c, 3, 67, 100
5, 10320, Note_on_c, 3, 67, 0
5, 19200, Note_on_c, 3, 67, 100
5, 19320, Note_on_c, 3, 67, 0
5, 20160, Note_on_c, 3, 62, 100
5, 20400, Note_on_c, 3, 62, 0
5, 23520, Note_on_c, 3, 74, 100
5, 23640, Note_on_c, 3, 74, 0
5, 24480, Note_on_c, 3, 72, 100
5, 24600, Note_on_c, 3, 72, 0
5, 25440, Note_on_c, 3, 62, 100
5, 25680, Note_on_c, 3, 62, 0
5, 25680, Note_on_c, 3, 62, 100
5, 25920, Note_on_c, 3, 62, 0
5, 25920, Note_on_c, 3, 67, 100
5, 26160, Note_on_c, 3, 67, 0
5, 49920, Note_on_c, 3, 62, 100
5, 50040, Note_on_c, 3, 62, 0
5, 50400, Note_on_c, 3, 64, 100
5, 50640, Note_on_c, 3, 64, 0
5, 50880, Note_on_c, 3, 62, 100
5, 51360, Note_on_c, 3, 62, 0
5, 71520, Note_on_c, 3, 62, 100
5, 71640, Note_on_c, 3, 62, 0
5, 72000, Note_on_c, 3, 64, 100
5, 72240, Note_on_c, 3, 64, 0
5, 72480, Note_on_c, 3, 62, 100
5, 72960, Note_on_c, 3, 62, 0
5, 73440, Note_on_c, 3, 64, 100
5, 74880, Note_on_c, 3, 64, 0
5, 74880, End_track
6, 0, Start_track
6, 0, MIDI_port, 0
6, 0, Title_t, "--------------------------------------"
6, 0, End_track
7, 0, Start_track
7, 0, MIDI_port, 0
7, 0, Title_t, "Sonata No. 2 in A minor - BWV 1003"
7, 0, End_track
8, 0, Start_track
8, 0, MIDI_port, 0
8, 0, Title_t, "3rd Movement: Andante"
8, 0, End_track
9, 0, Start_track
9, 0, MIDI_port, 0
9, 0, Title_t, "--------------------------------------"
9, 0, End_track
10, 0, Start_track
10, 0, MIDI_port, 0
10, 0, Title_t, "Sequenced with Cakewalk Pro Audio by"
10, 0, End_track
11, 0, Start_track
11, 0, MIDI_port, 0
11, 0, Title_t, "David J. Grossman - dave@unpronounceable.com"
11, 0, End_track
12, 0, Start_track
12, 0, MIDI_port, 0
12, 0, Title_t, "This and other Bach MIDI files can be found at:"
12, 0, End_track
13, 0, Start_track
13, 0, MIDI_port, 0
13, 0, Title_t, "Dave's J.S. Bach Page"
13, 0, End_track
14, 0, Start_track
14, 0, MIDI_port, 0
14, 0, Title_t, "http://www.unpronounceable.com/bach"
14, 0, End_track
15, 0, Start_track
15, 0, MIDI_port, 0
15, 0, Title_t, "--------------------------------------"
15, 0, End_track
16, 0, Start_track
16, 0, MIDI_port, 0
16, 0, Title_t, "Original Filename: vs2-3and.mid"
16, 0, End_track
17, 0, Start_track
17, 0, MIDI_port, 0
17, 0, Title_t, "Last Modified: February 22, 1997"
17, 0, End_track
0, 0, End_of_file
