0, 0, Header, 1, 17, 480
1, 0, Start_track
1, 0, Title_t, "untitled"
1, 0, Copyright_t, "Copyright © 1996 by David J. Grossman"
1, 0, Text_t, "David J. Grossman"
1, 0, SMPTE_offset, 96, 0, 3, 0, 0
1, 0, Time_signature, 4, 2, 24, 8
1, 0, Key_signature, 0, "major"
1, 0, Tempo, 2307692
1, 0, End_track
2, 0, Start_track
2, 0, MIDI_port, 0
2, 0, Title_t, "Solo Violin"
2, 0, Program_c, 0, 40
2, 0, Control_c, 0, 7, 100
2, 0, Control_c, 0, 10, 69
2, 0, Note_on_c, 0, 76, 100
2, 480, Note_on_c, 0, 76, 0
2, 540, Note_on_c, 0, 77, 100
2, 600, Note_on_c, 0, 77, 0
2, 600, Note_on_c, 0, 76, 100
2, 660, Note_on_c, 0, 76, 0
2, 660, Note_on_c, 0, 74, 100
2, 690, Note_on_c, 0, 74, 0
2, 690, Note_on_c, 0, 72, 100
2, 720, Note_on_c, 0, 72, 0
2, 720, Pitch_bend_c, 0, 12288
2, 720, Note_on_c, 0, 71, 100
2, 735, Pitch_bend_c, 0, 8192
2, 750, Pitch_bend_c, 0, 12288
2, 765, Pitch_bend_c, 0, 8192
2, 840, Note_on_c, 0, 71, 0
2, 840, Note_on_c, 0, 69, 100
2, 960, Note_on_c, 0, 69, 0
2, 960, Note_on_c, 0, 69, 100
2, 1080, Note_on_c, 0, 69, 0
2, 1080, Note_on_c, 0, 68, 100
2, 1200, Note_on_c, 0, 68, 0
2, 1200, Note_on_c, 0, 69, 100
2, 1560, Note_on_c, 0, 69, 0
2, 1560, Note_on_c, 0, 69, 100
2, 1620, Note_on_c, 0, 69, 0
2, 1620, Note_on_c, 0, 71, 100
2, 1680, Note_on_c, 0, 71, 0
2, 1680, Note_on_c, 0, 72, 100
2, 1740, Note_on_c, 0, 72, 0
2, 1740, Note_on_c, 0, 74, 100
2, 1800, Note_on_c, 0, 74, 0
2, 1800, Note_on_c, 0, 76, 100
2, 1920, Note_on_c, 0, 76, 0
2, 1920, Note_on_c, 0, 77, 100
2, 2100, Note_on_c, 0, 77, 0
2, 2100, Note_on_c, 0, 76, 100
2, 2160, Note_on_c, 0, 76, 0
2, 2160, Note_on_c, 0, 74, 100
2, 2280, Note_on_c, 0, 74, 0
2, 2280, Note_on_c, 0, 72, 100
2, 2340, Note_on_c, 0, 72, 0
2, 2340, Note_on_c, 0, 71, 100
2, 2400, Note_on_c, 0, 71, 0
2, 2400, Note_on_c, 0, 71, 100
2, 2640, Note_on_c, 0, 71, 0
2, 2640, Pitch_bend_c, 0, 16383
2, 2640, Note_on_c, 0, 69, 100
2, 2655, Pitch_bend_c, 0, 8192
2, 2670, Pitch_bend_c, 0, 16383
2, 2685, Pitch_bend_c, 0, 8192
2, 2700, Note_on_c, 0, 69, 0
2, 2700, Note_on_c, 0, 68, 100
2, 2760, Note_on_c, 0, 68, 0
2, 2760, Note_on_c, 0, 69, 100
2, 2880, Note_on_c, 0, 69, 0
2, 2880, Pitch_bend_c, 0, 12288
2, 2880, Note_on_c, 0, 68, 100
2, 2895, Pitch_bend_c, 0, 8192
2, 2910, Pitch_bend_c, 0, 12288
2, 2925, Pitch_bend_c, 0, 8192
2, 2940, Pitch_bend_c, 0, 12288
2, 2955, Pitch_bend_c, 0, 8192
2, 2970, Pitch_bend_c, 0, 12288
2, 2985, Pitch_bend_c, 0, 8192
2, 3000, Pitch_bend_c, 0, 12288
2, 3015, Pitch_bend_c, 0, 8192
2, 3030, Pitch_bend_c, 0, 12288
2, 3045, Pitch_bend_c, 0, 8192
2, 3060, Pitch_bend_c, 0, 12288
2, 3075, Pitch_bend_c, 0, 8192
2, 3090, Pitch_bend_c, 0, 12288
2, 3105, Pitch_bend_c, 0, 8192
2, 3120, Note_on_c, 0, 68, 0
2, 3120, Note_on_c, 0, 66, 100
2, 3240, Note_on_c, 0, 66, 0
2, 3240, Note_on_c, 0, 64, 100
2, 3360, Note_on_c, 0, 64, 0
2, 3360, Note_on_c, 0, 62, 100
2, 3540, Note_on_c, 0, 62, 0
2, 3540, Note_on_c, 0, 65, 100
2, 3600, Note_on_c, 0, 65, 0
2, 3600, Note_on_c, 0, 64, 100
2, 3660, Note_on_c, 0, 64, 0
2, 3660, Note_on_c, 0, 62, 100
2, 3720, Note_on_c, 0, 62, 0
2, 3720, Note_on_c, 0, 60, 100
2, 3780, Note_on_c, 0, 60, 0
2, 3780, Note_on_c, 0, 62, 100
2, 3810, Note_on_c, 0, 62, 0
2, 3810, Note_on_c, 0, 59, 100
2, 3840, Note_on_c, 0, 59, 0
2, 3840, Note_on_c, 0, 60, 100
2, 3900, Note_on_c, 0, 60, 0
2, 3900, Note_on_c, 0, 57, 100
2, 3960, Note_on_c, 0, 57, 0
2, 3960, Note_on_c, 0, 60, 100
2, 4020, Note_on_c, 0, 60, 0
2, 4020, Note_on_c, 0, 64, 100
2, 4080, Note_on_c, 0, 64, 0
2, 4080, Note_on_c, 0, 69, 100
2, 4140, Note_on_c, 0, 69, 0
2, 4140, Note_on_c, 0, 72, 100
2, 4200, Note_on_c, 0, 72, 0
2, 4200, Note_on_c, 0, 76, 100
2, 4260, Note_on_c, 0, 76, 0
2, 4260, Note_on_c, 0, 77, 100
2, 4320, Note_on_c, 0, 77, 0
2, 4320, Note_on_c, 0, 77, 100
2, 4320, Pitch_bend_c, 0, 16383
2, 4335, Pitch_bend_c, 0, 8192
2, 4350, Pitch_bend_c, 0, 16383
2, 4365, Pitch_bend_c, 0, 8192
2, 4380, Pitch_bend_c, 0, 16383
2, 4395, Pitch_bend_c, 0, 8192
2, 4410, Pitch_bend_c, 0, 16383
2, 4425, Pitch_bend_c, 0, 8192
2, 4440, Pitch_bend_c, 0, 16383
2, 4455, Pitch_bend_c, 0, 8192
2, 4470, Pitch_bend_c, 0, 16383
2, 4485, Pitch_bend_c, 0, 8192
2, 4500, Pitch_bend_c, 0, 16383
2, 4515, Pitch_bend_c, 0, 8192
2, 4530, Pitch_bend_c, 0, 16383
2, 4545, Pitch_bend_c, 0, 8192
2, 4560, Pitch_bend_c, 0, 16383
2, 4575, Pitch_bend_c, 0, 8192
2, 4590, Pitch_bend_c, 0, 16383
2, 4605, Pitch_bend_c, 0, 8192
2, 4620, Pitch_bend_c, 0, 16383
2, 4635, Pitch_bend_c, 0, 8192
2, 4650, Pitch_bend_c, 0, 16383
2, 4665, Pitch_bend_c, 0, 8192
2, 4680, Note_on_c, 0, 77, 0
2, 4680, Note_on_c, 0, 76, 100
2, 4740, Note_on_c, 0, 76, 0
2, 4740, Note_on_c, 0, 77, 100
2, 4800, Note_on_c, 0, 77, 0
2, 4800, Note_on_c, 0, 79, 100
2, 4980, Note_on_c, 0, 79, 0
2, 4980, Note_on_c, 0, 77, 100
2, 5040, Note_on_c, 0, 77, 0
2, 5040, Note_on_c, 0, 76, 100
2, 5160, Note_on_c, 0, 76, 0
2, 5160, Note_on_c, 0, 74, 100
2, 5220, Note_on_c, 0, 74, 0
2, 5220, Note_on_c, 0, 72, 100
2, 5280, Note_on_c, 0, 72, 0
2, 5280, Note_on_c, 0, 72, 100
2, 5520, Note_on_c, 0, 72, 0
2, 5520, Note_on_c, 0, 70, 100
2, 5520, Pitch_bend_c, 0, 16383
2, 5535, Pitch_bend_c, 0, 8192
2, 5550, Pitch_bend_c, 0, 16383
2, 5565, Pitch_bend_c, 0, 8192
2, 5580, Note_on_c, 0, 70, 0
2, 5580, Note_on_c, 0, 69, 100
2, 5640, Note_on_c, 0, 69, 0
2, 5640, Note_on_c, 0, 70, 100
2, 5760, Note_on_c, 0, 70, 0
2, 5760, Note_on_c, 0, 69, 100
2, 6120, Note_on_c, 0, 69, 0
2, 6120, Note_on_c, 0, 81, 100
2, 6240, Note_on_c, 0, 81, 0
2, 6240, Note_on_c, 0, 79, 100
2, 6300, Note_on_c, 0, 79, 0
2, 6300, Note_on_c, 0, 77, 100
2, 6420, Note_on_c, 0, 77, 0
2, 6420, Note_on_c, 0, 76, 100
2, 6480, Note_on_c, 0, 76, 0
2, 6480, Note_on_c, 0, 74, 100
2, 6600, Note_on_c, 0, 74, 0
2, 6600, Note_on_c, 0, 76, 100
2, 6660, Note_on_c, 0, 76, 0
2, 6660, Note_on_c, 0, 72, 100
2, 6720, Note_on_c, 0, 72, 0
2, 6720, Note_on_c, 0, 71, 100
2, 6810, Note_on_c, 0, 71, 0
2, 6810, Note_on_c, 0, 67, 100
2, 6840, Note_on_c, 0, 67, 0
2, 6840, Note_on_c, 0, 69, 100
2, 6900, Note_on_c, 0, 69, 0
2, 6900, Note_on_c, 0, 71, 100
2, 6960, Note_on_c, 0, 71, 0
2, 6960, Note_on_c, 0, 72, 100
2, 7020, Note_on_c, 0, 72, 0
2, 7020, Note_on_c, 0, 74, 100
2, 7080, Note_on_c, 0, 74, 0
2, 7080, Note_on_c, 0, 76, 100
2, 7110, Note_on_c, 0, 76, 0
2, 7110, Note_on_c, 0, 77, 100
2, 7140, Note_on_c, 0, 77, 0
2, 7140, Note_on_c, 0, 79, 100
2, 7170, Note_on_c, 0, 79, 0
2, 7170, Note_on_c, 0, 71, 100
2, 7200, Note_on_c, 0, 71, 0
2, 7200, Note_on_c, 0, 72, 100
2, 7200, Pitch_bend_c, 0, 16383
2, 7215, Pitch_bend_c, 0, 8192
2, 7230, Pitch_bend_c, 0, 16383
2, 7245, Pitch_bend_c, 0, 8192
2, 7260, Pitch_bend_c, 0, 16383
2, 7275, Pitch_bend_c, 0, 8192
2, 7290, Pitch_bend_c, 0, 16383
2, 7305, Pitch_bend_c, 0, 8192
2, 7320, Pitch_bend_c, 0, 16383
2, 7335, Pitch_bend_c, 0, 8192
2, 7350, Pitch_bend_c, 0, 16383
2, 7365, Pitch_bend_c, 0, 8192
2, 7380, Pitch_bend_c, 0, 16383
2, 7395, Pitch_bend_c, 0, 8192
2, 7410, Pitch_bend_c, 0, 16383
2, 7425, Pitch_bend_c, 0, 8192
2, 7440, Pitch_bend_c, 0, 16383
2, 7455, Pitch_bend_c, 0, 8192
2, 7470, Pitch_bend_c, 0, 16383
2, 7485, Pitch_bend_c, 0, 8192
2, 7500, Pitch_bend_c, 0, 16383
2, 7515, Pitch_bend_c, 0, 8192
2, 7530, Pitch_bend_c, 0, 16383
2, 7545, Pitch_bend_c, 0, 8192
2, 7560, Note_on_c, 0, 72, 0
2, 7560, Note_on_c, 0, 71, 100
2, 7620, Note_on_c, 0, 71, 0
2, 7620, Note_on_c, 0, 72, 100
2, 7680, Note_on_c, 0, 72, 0
2, 7680, Note_on_c, 0, 74, 100
2, 8040, Note_on_c, 0, 74, 0
2, 8040, Note_on_c, 0, 67, 100
2, 8160, Note_on_c, 0, 67, 0
2, 8160, Note_on_c, 0, 65, 100
2, 8240, Note_on_c, 0, 65, 0
2, 8240, Note_on_c, 0, 64, 100
2, 8320, Note_on_c, 0, 64, 0
2, 8320, Note_on_c, 0, 62, 100
2, 8400, Note_on_c, 0, 62, 0
2, 8400, Note_on_c, 0, 69, 100
2, 8480, Note_on_c, 0, 69, 0
2, 8480, Note_on_c, 0, 67, 100
2, 8560, Note_on_c, 0, 67, 0
2, 8560, Note_on_c, 0, 65, 100
2, 8640, Note_on_c, 0, 65, 0
2, 8640, Note_on_c, 0, 64, 100
2, 8790, Note_on_c, 0, 64, 0
2, 8790, Note_on_c, 0, 67, 100
2, 8820, Note_on_c, 0, 67, 0
2, 8820, Note_on_c, 0, 69, 100
2, 8850, Note_on_c, 0, 69, 0
2, 8850, Note_on_c, 0, 71, 100
2, 8880, Note_on_c, 0, 71, 0
2, 8880, Note_on_c, 0, 72, 100
2, 9030, Note_on_c, 0, 72, 0
2, 9030, Note_on_c, 0, 67, 100
2, 9060, Note_on_c, 0, 67, 0
2, 9060, Note_on_c, 0, 69, 100
2, 9090, Note_on_c, 0, 69, 0
2, 9090, Note_on_c, 0, 71, 100
2, 9120, Note_on_c, 0, 71, 0
2, 9120, Note_on_c, 0, 72, 100
2, 9150, Note_on_c, 0, 72, 0
2, 9150, Note_on_c, 0, 74, 100
2, 9180, Note_on_c, 0, 74, 0
2, 9180, Note_on_c, 0, 76, 100
2, 9300, Note_on_c, 0, 76, 0
2, 9300, Note_on_c, 0, 71, 100
2, 9360, Note_on_c, 0, 71, 0
2, 9360, Note_on_c, 0, 72, 100
2, 9420, Note_on_c, 0, 72, 0
2, 9420, Note_on_c, 0, 74, 100
2, 9480, Note_on_c, 0, 74, 0
2, 9480, Note_on_c, 0, 76, 100
2, 9540, Note_on_c, 0, 76, 0
2, 9540, Note_on_c, 0, 79, 100
2, 9570, Note_on_c, 0, 79, 0
2, 9570, Note_on_c, 0, 78, 100
2, 9600, Note_on_c, 0, 78, 0
2, 9600, Note_on_c, 0, 78, 100
2, 9720, Note_on_c, 0, 78, 0
2, 9720, Note_on_c, 0, 81, 100
2, 9840, Note_on_c, 0, 81, 0
2, 9840, Note_on_c, 0, 84, 100
2, 9960, Note_on_c, 0, 84, 0
2, 9960, Note_on_c, 0, 86, 100
2, 10020, Note_on_c, 0, 86, 0
2, 10020, Note_on_c, 0, 83, 100
2, 10080, Note_on_c, 0, 83, 0
2, 10080, Note_on_c, 0, 84, 100
2, 10200, Note_on_c, 0, 84, 0
2, 10200, Note_on_c, 0, 77, 100
2, 10260, Note_on_c, 0, 77, 0
2, 10260, Note_on_c, 0, 76, 100
2, 10320, Note_on_c, 0, 76, 0
2, 10320, Note_on_c, 0, 77, 100
2, 10560, Note_on_c, 0, 77, 0
2, 10560, Note_on_c, 0, 76, 100
2, 10800, Note_on_c, 0, 76, 0
2, 10920, Note_on_c, 0, 81, 100
2, 11040, Note_on_c, 0, 81, 0
2, 20160, Note_on_c, 0, 71, 100
2, 20400, Note_on_c, 0, 71, 0
2, 23040, Note_on_c, 0, 69, 100
2, 23340, Note_on_c, 0, 69, 0
2, 23340, Note_on_c, 0, 64, 100
2, 23400, Note_on_c, 0, 64, 0
2, 23400, Note_on_c, 0, 66, 100
2, 23460, Note_on_c, 0, 66, 0
2, 23460, Note_on_c, 0, 68, 100
2, 23520, Note_on_c, 0, 68, 0
2, 23520, Note_on_c, 0, 69, 100
2, 23580, Note_on_c, 0, 69, 0
2, 23580, Note_on_c, 0, 71, 100
2, 23640, Note_on_c, 0, 71, 0
2, 23640, Note_on_c, 0, 72, 100
2, 23700, Note_on_c, 0, 72, 0
2, 23700, Note_on_c, 0, 74, 100
2, 23760, Note_on_c, 0, 74, 0
2, 23760, Note_on_c, 0, 76, 100
2, 23820, Note_on_c, 0, 76, 0
2, 23820, Note_on_c, 0, 77, 100
2, 23880, Note_on_c, 0, 77, 0
2, 23880, Note_on_c, 0, 79, 100
2, 23940, Note_on_c, 0, 79, 0
2, 23940, Note_on_c, 0, 82, 100
2, 23970, Note_on_c, 0, 82, 0
2, 23970, Note_on_c, 0, 81, 100
2, 24000, Note_on_c, 0, 81, 0
2, 24000, Note_on_c, 0, 82, 100
2, 24120, Note_on_c, 0, 82, 0
2, 24120, Note_on_c, 0, 81, 100
2, 24240, Note_on_c, 0, 81, 0
2, 24240, Note_on_c, 0, 81, 100
2, 24360, Note_on_c, 0, 81, 0
2, 24360, Note_on_c, 0, 79, 100
2, 24480, Note_on_c, 0, 79, 0
2, 24480, Note_on_c, 0, 79, 100
2, 24600, Note_on_c, 0, 79, 0
2, 24600, Note_on_c, 0, 77, 100
2, 24720, Note_on_c, 0, 77, 0
2, 24720, Note_on_c, 0, 79, 100
2, 24840, Note_on_c, 0, 79, 0
2, 24840, Note_on_c, 0, 76, 100
2, 24960, Note_on_c, 0, 76, 0
2, 24960, Note_on_c, 0, 77, 100
2, 25080, Note_on_c, 0, 77, 0
2, 25080, Note_on_c, 0, 81, 100
2, 25140, Note_on_c, 0, 81, 0
2, 25140, Note_on_c, 0, 79, 100
2, 25200, Note_on_c, 0, 79, 0
2, 25200, Note_on_c, 0, 81, 100
2, 25440, Note_on_c, 0, 81, 0
2, 25500, Note_on_c, 0, 82, 100
2, 25560, Note_on_c, 0, 82, 0
2, 25560, Note_on_c, 0, 81, 100
2, 25620, Note_on_c, 0, 81, 0
2, 25620, Note_on_c, 0, 79, 100
2, 25680, Note_on_c, 0, 79, 0
2, 25680, Note_on_c, 0, 77, 100
2, 25740, Note_on_c, 0, 77, 0
2, 25740, Note_on_c, 0, 76, 100
2, 25800, Note_on_c, 0, 76, 0
2, 25800, Note_on_c, 0, 74, 100
2, 25860, Note_on_c, 0, 74, 0
2, 25860, Note_on_c, 0, 76, 100
2, 25890, Note_on_c, 0, 76, 0
2, 25890, Note_on_c, 0, 73, 100
2, 25920, Note_on_c, 0, 73, 0
2, 25920, Note_on_c, 0, 74, 100
2, 25980, Note_on_c, 0, 74, 0
2, 25980, Note_on_c, 0, 69, 100
2, 26040, Note_on_c, 0, 69, 0
2, 26040, Note_on_c, 0, 70, 100
2, 26100, Note_on_c, 0, 70, 0
2, 26100, Note_on_c, 0, 67, 100
2, 26160, Note_on_c, 0, 67, 0
2, 26160, Note_on_c, 0, 64, 100
2, 26220, Note_on_c, 0, 64, 0
2, 26220, Note_on_c, 0, 61, 100
2, 26280, Note_on_c, 0, 61, 0
2, 26280, Note_on_c, 0, 62, 100
2, 26340, Note_on_c, 0, 62, 0
2, 26340, Note_on_c, 0, 58, 100
2, 26400, Note_on_c, 0, 58, 0
2, 26400, Note_on_c, 0, 57, 100
2, 26460, Note_on_c, 0, 57, 0
2, 26460, Note_on_c, 0, 62, 100
2, 26520, Note_on_c, 0, 62, 0
2, 26520, Note_on_c, 0, 66, 100
2, 26580, Note_on_c, 0, 66, 0
2, 26580, Note_on_c, 0, 69, 100
2, 26640, Note_on_c, 0, 69, 0
2, 26640, Note_on_c, 0, 72, 100
2, 26700, Note_on_c, 0, 72, 0
2, 26700, Note_on_c, 0, 75, 100
2, 26760, Note_on_c, 0, 75, 0
2, 26760, Note_on_c, 0, 74, 100
2, 26820, Note_on_c, 0, 74, 0
2, 26820, Note_on_c, 0, 69, 100
2, 26880, Note_on_c, 0, 69, 0
2, 26880, Note_on_c, 0, 70, 100
2, 26940, Note_on_c, 0, 70, 0
2, 26940, Note_on_c, 0, 66, 100
2, 27000, Note_on_c, 0, 66, 0
2, 27000, Note_on_c, 0, 67, 100
2, 27060, Note_on_c, 0, 67, 0
2, 27060, Note_on_c, 0, 70, 100
2, 27120, Note_on_c, 0, 70, 0
2, 27120, Note_on_c, 0, 74, 100
2, 27180, Note_on_c, 0, 74, 0
2, 27180, Note_on_c, 0, 78, 100
2, 27240, Note_on_c, 0, 78, 0
2, 27240, Note_on_c, 0, 79, 100
2, 27300, Note_on_c, 0, 79, 0
2, 27300, Note_on_c, 0, 82, 100
2, 27360, Note_on_c, 0, 82, 0
2, 27360, Note_on_c, 0, 77, 100
2, 27480, Note_on_c, 0, 77, 0
2, 27480, Note_on_c, 0, 76, 100
2, 27480, Pitch_bend_c, 0, 12288
2, 27495, Pitch_bend_c, 0, 8192
2, 27510, Pitch_bend_c, 0, 12288
2, 27525, Pitch_bend_c, 0, 8192
2, 27600, Note_on_c, 0, 76, 0
2, 27600, Note_on_c, 0, 68, 100
2, 27660, Note_on_c, 0, 68, 0
2, 27660, Note_on_c, 0, 74, 100
2, 27720, Note_on_c, 0, 74, 0
2, 27720, Note_on_c, 0, 73, 100
2, 27780, Note_on_c, 0, 73, 0
2, 27780, Note_on_c, 0, 74, 100
2, 27840, Note_on_c, 0, 74, 0
2, 27840, Note_on_c, 0, 72, 100
2, 28020, Note_on_c, 0, 72, 0
2, 28020, Note_on_c, 0, 74, 100
2, 28080, Note_on_c, 0, 74, 0
2, 28080, Note_on_c, 0, 76, 100
2, 28140, Note_on_c, 0, 76, 0
2, 28140, Note_on_c, 0, 77, 100
2, 28200, Note_on_c, 0, 77, 0
2, 28200, Note_on_c, 0, 79, 100
2, 28260, Note_on_c, 0, 79, 0
2, 28260, Note_on_c, 0, 76, 100
2, 28320, Note_on_c, 0, 76, 0
2, 28320, Note_on_c, 0, 70, 100
2, 28500, Note_on_c, 0, 70, 0
2, 28500, Note_on_c, 0, 61, 100
2, 28530, Note_on_c, 0, 61, 0
2, 28530, Note_on_c, 0, 62, 100
2, 28560, Note_on_c, 0, 62, 0
2, 28560, Note_on_c, 0, 64, 100
2, 28620, Note_on_c, 0, 64, 0
2, 28620, Note_on_c, 0, 65, 100
2, 28680, Note_on_c, 0, 65, 0
2, 28680, Note_on_c, 0, 67, 100
2, 28740, Note_on_c, 0, 67, 0
2, 28740, Note_on_c, 0, 64, 100
2, 28800, Note_on_c, 0, 64, 0
2, 28800, Note_on_c, 0, 65, 100
2, 28860, Note_on_c, 0, 65, 0
2, 28860, Note_on_c, 0, 68, 100
2, 28920, Note_on_c, 0, 68, 0
2, 28920, Note_on_c, 0, 69, 100
2, 28980, Note_on_c, 0, 69, 0
2, 28980, Note_on_c, 0, 74, 100
2, 29040, Note_on_c, 0, 74, 0
2, 29040, Note_on_c, 0, 77, 100
2, 29100, Note_on_c, 0, 77, 0
2, 29100, Note_on_c, 0, 80, 100
2, 29160, Note_on_c, 0, 80, 0
2, 29160, Note_on_c, 0, 81, 100
2, 29220, Note_on_c, 0, 81, 0
2, 29220, Note_on_c, 0, 82, 100
2, 29280, Note_on_c, 0, 82, 0
2, 29280, Note_on_c, 0, 74, 100
2, 29520, Note_on_c, 0, 74, 0
2, 29520, Note_on_c, 0, 73, 100
2, 29700, Note_on_c, 0, 73, 0
2, 29700, Note_on_c, 0, 74, 100
2, 29760, Note_on_c, 0, 74, 0
2, 29760, Note_on_c, 0, 74, 100
2, 29940, Note_on_c, 0, 74, 0
2, 29940, Note_on_c, 0, 72, 100
2, 29970, Note_on_c, 0, 72, 0
2, 29970, Note_on_c, 0, 70, 100
2, 30000, Note_on_c, 0, 70, 0
2, 30000, Note_on_c, 0, 69, 100
2, 30060, Note_on_c, 0, 69, 0
2, 30060, Note_on_c, 0, 67, 100
2, 30120, Note_on_c, 0, 67, 0
2, 30120, Note_on_c, 0, 65, 100
2, 30180, Note_on_c, 0, 65, 0
2, 30180, Note_on_c, 0, 67, 100
2, 30210, Note_on_c, 0, 67, 0
2, 30210, Note_on_c, 0, 69, 100
2, 30240, Note_on_c, 0, 69, 0
2, 30240, Note_on_c, 0, 62, 100
2, 30300, Note_on_c, 0, 62, 0
2, 30300, Note_on_c, 0, 65, 100
2, 30360, Note_on_c, 0, 65, 0
2, 30360, Note_on_c, 0, 69, 100
2, 30420, Note_on_c, 0, 69, 0
2, 30420, Note_on_c, 0, 74, 100
2, 30480, Note_on_c, 0, 74, 0
2, 30480, Note_on_c, 0, 77, 100
2, 30540, Note_on_c, 0, 77, 0
2, 30540, Note_on_c, 0, 81, 100
2, 30600, Note_on_c, 0, 81, 0
2, 30600, Note_on_c, 0, 79, 100
2, 30630, Note_on_c, 0, 79, 0
2, 30630, Note_on_c, 0, 76, 100
2, 30660, Note_on_c, 0, 76, 0
2, 30660, Note_on_c, 0, 77, 100
2, 30720, Note_on_c, 0, 77, 0
2, 30720, Note_on_c, 0, 77, 100
2, 30990, Note_on_c, 0, 77, 0
2, 30990, Note_on_c, 0, 74, 100
2, 31020, Note_on_c, 0, 74, 0
2, 31020, Note_on_c, 0, 76, 100
2, 31050, Note_on_c, 0, 76, 0
2, 31050, Note_on_c, 0, 77, 100
2, 31080, Note_on_c, 0, 77, 0
2, 31080, Note_on_c, 0, 79, 100
2, 31110, Note_on_c, 0, 79, 0
2, 31110, Note_on_c, 0, 81, 100
2, 31140, Note_on_c, 0, 81, 0
2, 31140, Note_on_c, 0, 83, 100
2, 31170, Note_on_c, 0, 83, 0
2, 31170, Note_on_c, 0, 84, 100
2, 31200, Note_on_c, 0, 84, 0
2, 31200, Note_on_c, 0, 86, 100
2, 31320, Note_on_c, 0, 86, 0
2, 31320, Note_on_c, 0, 83, 100
2, 31380, Note_on_c, 0, 83, 0
2, 31380, Note_on_c, 0, 79, 100
2, 31440, Note_on_c, 0, 79, 0
2, 31440, Pitch_bend_c, 0, 16383
2, 31440, Note_on_c, 0, 77, 100
2, 31460, Pitch_bend_c, 0, 8192
2, 31480, Pitch_bend_c, 0, 16383
2, 31500, Pitch_bend_c, 0, 8192
2, 31560, Note_on_c, 0, 77, 0
2, 31560, Note_on_c, 0, 76, 100
2, 31680, Note_on_c, 0, 76, 0
2, 31680, Note_on_c, 0, 76, 100
2, 31920, Note_on_c, 0, 76, 0
2, 32640, Note_on_c, 0, 74, 100
2, 32760, Note_on_c, 0, 74, 0
2, 32760, Note_on_c, 0, 76, 100
2, 32820, Note_on_c, 0, 76, 0
2, 32820, Note_on_c, 0, 77, 100
2, 32880, Note_on_c, 0, 77, 0
2, 32880, Note_on_c, 0, 68, 100
2, 33000, Note_on_c, 0, 68, 0
2, 33000, Note_on_c, 0, 76, 100
2, 33120, Note_on_c, 0, 76, 0
2, 33120, Note_on_c, 0, 74, 100
2, 33360, Note_on_c, 0, 74, 0
2, 33360, Pitch_bend_c, 0, 16383
2, 33360, Note_on_c, 0, 72, 100
2, 33380, Pitch_bend_c, 0, 8192
2, 33400, Pitch_bend_c, 0, 16383
2, 33420, Pitch_bend_c, 0, 8192
2, 33440, Pitch_bend_c, 0, 16383
2, 33460, Pitch_bend_c, 0, 8192
2, 33480, Pitch_bend_c, 0, 16383
2, 33500, Pitch_bend_c, 0, 8192
2, 33520, Pitch_bend_c, 0, 16383
2, 33540, Note_on_c, 0, 72, 0
2, 33540, Note_on_c, 0, 71, 100
2, 33540, Pitch_bend_c, 0, 8192
2, 33570, Note_on_c, 0, 71, 0
2, 33570, Note_on_c, 0, 72, 100
2, 33600, Note_on_c, 0, 72, 0
2, 33600, Note_on_c, 0, 71, 100
2, 33870, Note_on_c, 0, 71, 0
2, 33900, Note_on_c, 0, 80, 100
2, 33960, Note_on_c, 0, 80, 0
2, 33960, Note_on_c, 0, 81, 100
2, 34020, Note_on_c, 0, 81, 0
2, 34020, Note_on_c, 0, 83, 100
2, 34080, Note_on_c, 0, 83, 0
2, 34080, Note_on_c, 0, 81, 100
2, 34140, Note_on_c, 0, 81, 0
2, 34140, Note_on_c, 0, 80, 100
2, 34200, Note_on_c, 0, 80, 0
2, 34200, Note_on_c, 0, 78, 100
2, 34260, Note_on_c, 0, 78, 0
2, 34260, Note_on_c, 0, 76, 100
2, 34320, Note_on_c, 0, 76, 0
2, 34320, Note_on_c, 0, 74, 100
2, 34380, Note_on_c, 0, 74, 0
2, 34380, Note_on_c, 0, 71, 100
2, 34440, Note_on_c, 0, 71, 0
2, 34440, Note_on_c, 0, 68, 100
2, 34500, Note_on_c, 0, 68, 0
2, 34500, Note_on_c, 0, 64, 100
2, 34560, Note_on_c, 0, 64, 0
2, 34560, Note_on_c, 0, 61, 100
2, 34680, Note_on_c, 0, 61, 0
2, 34680, Note_on_c, 0, 67, 100
2, 34740, Note_on_c, 0, 67, 0
2, 34740, Note_on_c, 0, 69, 100
2, 34800, Note_on_c, 0, 69, 0
2, 34800, Note_on_c, 0, 70, 100
2, 34920, Note_on_c, 0, 70, 0
2, 34920, Note_on_c, 0, 69, 100
2, 35040, Note_on_c, 0, 69, 0
2, 35040, Note_on_c, 0, 67, 100
2, 35100, Note_on_c, 0, 67, 0
2, 35100, Note_on_c, 0, 66, 100
2, 35160, Note_on_c, 0, 66, 0
2, 35160, Note_on_c, 0, 67, 100
2, 35280, Note_on_c, 0, 67, 0
2, 35280, Note_on_c, 0, 76, 100
2, 35400, Note_on_c, 0, 76, 0
2, 35400, Note_on_c, 0, 67, 100
2, 35520, Note_on_c, 0, 67, 0
2, 35520, Note_on_c, 0, 66, 100
2, 35610, Note_on_c, 0, 66, 0
2, 35610, Note_on_c, 0, 69, 100
2, 35640, Note_on_c, 0, 69, 0
2, 35640, Note_on_c, 0, 71, 100
2, 35700, Note_on_c, 0, 71, 0
2, 35700, Note_on_c, 0, 72, 100
2, 35760, Note_on_c, 0, 72, 0
2, 35760, Note_on_c, 0, 74, 100
2, 35820, Note_on_c, 0, 74, 0
2, 35820, Note_on_c, 0, 76, 100
2, 35880, Note_on_c, 0, 76, 0
2, 35880, Note_on_c, 0, 77, 100
2, 35940, Note_on_c, 0, 77, 0
2, 35940, Note_on_c, 0, 79, 100
2, 36000, Note_on_c, 0, 79, 0
2, 36000, Note_on_c, 0, 77, 100
2, 36060, Note_on_c, 0, 77, 0
2, 36060, Note_on_c, 0, 76, 100
2, 36120, Note_on_c, 0, 76, 0
2, 36120, Note_on_c, 0, 77, 100
2, 36180, Note_on_c, 0, 77, 0
2, 36180, Note_on_c, 0, 74, 100
2, 36240, Note_on_c, 0, 74, 0
2, 36240, Note_on_c, 0, 68, 100
2, 36360, Note_on_c, 0, 68, 0
2, 36360, Note_on_c, 0, 77, 100
2, 36480, Note_on_c, 0, 77, 0
2, 36480, Note_on_c, 0, 76, 100
2, 36840, Note_on_c, 0, 76, 0
2, 36840, Note_on_c, 0, 74, 100
2, 36960, Note_on_c, 0, 74, 0
2, 36960, Note_on_c, 0, 74, 100
2, 37080, Note_on_c, 0, 74, 0
2, 37080, Note_on_c, 0, 72, 100
2, 37200, Note_on_c, 0, 72, 0
2, 37200, Note_on_c, 0, 74, 100
2, 37320, Note_on_c, 0, 74, 0
2, 37320, Note_on_c, 0, 71, 100
2, 37440, Note_on_c, 0, 71, 0
2, 37440, Note_on_c, 0, 72, 100
2, 37800, Note_on_c, 0, 72, 0
2, 37800, End_track
3, 0, Start_track
3, 0, MIDI_port, 0
3, 0, Title_t, "--------------------------------------"
3, 0, Program_c, 1, 40
3, 0, Control_c, 1, 7, 100
3, 0, Control_c, 1, 10, 59
3, 0, Note_on_c, 1, 72, 100
3, 480, Note_on_c, 1, 72, 0
3, 5760, Note_on_c, 1, 65, 100
3, 6000, Note_on_c, 1, 65, 0
3, 6720, Note_on_c, 1, 65, 100
3, 6960, Note_on_c, 1, 65, 0
3, 7200, Note_on_c, 1, 64, 100
3, 7680, Note_on_c, 1, 64, 0
3, 7680, Note_on_c, 1, 67, 100
3, 7920, Note_on_c, 1, 67, 0
3, 9600, Note_on_c, 1, 69, 100
3, 9840, Note_on_c, 1, 69, 0
3, 10320, Note_on_c, 1, 69, 100
3, 10560, Note_on_c, 1, 69, 0
3, 10560, Note_on_c, 1, 67, 100
3, 10800, Note_on_c, 1, 67, 0
3, 10800, Note_on_c, 1, 65, 100
3, 11040, Note_on_c, 1, 65, 0
3, 11040, Note_on_c, 1, 67, 100
3, 11520, Note_on_c, 1, 67, 0
3, 11520, Note_on_c, 1, 60, 100
3, 11760, Note_on_c, 1, 60, 0
3, 12480, Note_on_c, 1, 59, 100
3, 12720, Note_on_c, 1, 59, 0
3, 13440, Note_on_c, 1, 57, 100
3, 13680, Note_on_c, 1, 57, 0
3, 14400, Note_on_c, 1, 63, 100
3, 14760, Note_on_c, 1, 63, 0
3, 15120, Note_on_c, 1, 64, 100
3, 15360, Note_on_c, 1, 64, 0
3, 15360, Note_on_c, 1, 59, 100
3, 15600, Note_on_c, 1, 59, 0
3, 18240, Note_on_c, 1, 76, 100
3, 18480, Note_on_c, 1, 76, 0
3, 20160, Note_on_c, 1, 67, 100
3, 20400, Note_on_c, 1, 67, 0
3, 20640, Note_on_c, 1, 66, 100
3, 20880, Note_on_c, 1, 66, 0
3, 21120, Note_on_c, 1, 64, 100
3, 21600, Note_on_c, 1, 64, 0
3, 22080, Note_on_c, 1, 62, 100
3, 22320, Note_on_c, 1, 62, 0
3, 23040, Note_on_c, 1, 64, 100
3, 23280, Note_on_c, 1, 64, 0
3, 24000, Note_on_c, 1, 64, 100
3, 24240, Note_on_c, 1, 64, 0
3, 24720, Note_on_c, 1, 69, 100
3, 24960, Note_on_c, 1, 69, 0
3, 24960, Note_on_c, 1, 69, 100
3, 25200, Note_on_c, 1, 69, 0
3, 27840, Note_on_c, 1, 69, 100
3, 28080, Note_on_c, 1, 69, 0
3, 29280, Note_on_c, 1, 64, 100
3, 29520, Note_on_c, 1, 64, 0
3, 30720, Note_on_c, 1, 62, 100
3, 30960, Note_on_c, 1, 62, 0
3, 35520, Note_on_c, 1, 60, 100
3, 35760, Note_on_c, 1, 60, 0
3, 36240, Note_on_c, 1, 59, 100
3, 36480, Note_on_c, 1, 59, 0
3, 36480, Note_on_c, 1, 60, 100
3, 36720, Note_on_c, 1, 60, 0
3, 36720, Note_on_c, 1, 62, 100
3, 36960, Note_on_c, 1, 62, 0
3, 36960, Note_on_c, 1, 64, 100
3, 37200, Note_on_c, 1, 64, 0
3, 37440, Note_on_c, 1, 63, 100
3, 37800, Note_on_c, 1, 63, 0
3, 38400, Note_on_c, 1, 64, 100
3, 38640, Note_on_c, 1, 64, 0
3, 38640, Note_on_c, 1, 62, 100
3, 38760, Note_on_c, 1, 62, 0
3, 38760, Note_on_c, 1, 74, 100
3, 38880, Note_on_c, 1, 74, 0
3, 38880, Pitch_bend_c, 1, 12288
3, 38880, Note_on_c, 1, 71, 100
3, 38900, Pitch_bend_c, 1, 8192
3, 38920, Pitch_bend_c, 1, 12288
3, 38940, Pitch_bend_c, 1, 8192
3, 39240, Note_on_c, 1, 71, 0
3, 39240, Note_on_c, 1, 69, 100
3, 39360, Note_on_c, 1, 69, 0
3, 39360, Note_on_c, 1, 57, 100
3, 39480, Note_on_c, 1, 57, 0
3, 39480, Note_on_c, 1, 69, 100
3, 39540, Note_on_c, 1, 69, 0
3, 39540, Note_on_c, 1, 68, 100
3, 39600, Note_on_c, 1, 68, 0
3, 39600, Note_on_c, 1, 69, 100
3, 39660, Note_on_c, 1, 69, 0
3, 39660, Note_on_c, 1, 72, 100
3, 39720, Note_on_c, 1, 72, 0
3, 39720, Note_on_c, 1, 77, 100
3, 39840, Note_on_c, 1, 77, 0
3, 39840, Note_on_c, 1, 55, 100
3, 39960, Note_on_c, 1, 55, 0
3, 39960, Note_on_c, 1, 67, 100
3, 40020, Note_on_c, 1, 67, 0
3, 40020, Note_on_c, 1, 66, 100
3, 40080, Note_on_c, 1, 66, 0
3, 40080, Note_on_c, 1, 67, 100
3, 40140, Note_on_c, 1, 67, 0
3, 40140, Note_on_c, 1, 71, 100
3, 40200, Note_on_c, 1, 71, 0
3, 40200, Note_on_c, 1, 76, 100
3, 40230, Note_on_c, 1, 76, 0
3, 40230, Note_on_c, 1, 75, 100
3, 40260, Note_on_c, 1, 75, 0
3, 40260, Note_on_c, 1, 76, 100
3, 40320, Note_on_c, 1, 76, 0
3, 40320, Note_on_c, 1, 65, 100
3, 40380, Note_on_c, 1, 65, 0
3, 40380, Note_on_c, 1, 76, 100
3, 40440, Note_on_c, 1, 76, 0
3, 40440, Note_on_c, 1, 81, 100
3, 40500, Note_on_c, 1, 81, 0
3, 40500, Note_on_c, 1, 80, 100
3, 40560, Note_on_c, 1, 80, 0
3, 40560, Note_on_c, 1, 81, 100
3, 40620, Note_on_c, 1, 81, 0
3, 40620, Note_on_c, 1, 84, 100
3, 40680, Note_on_c, 1, 84, 0
3, 40680, Note_on_c, 1, 83, 100
3, 40740, Note_on_c, 1, 83, 0
3, 40740, Note_on_c, 1, 86, 100
3, 40800, Note_on_c, 1, 86, 0
3, 40800, Note_on_c, 1, 80, 100
3, 40860, Note_on_c, 1, 80, 0
3, 40860, Note_on_c, 1, 81, 100
3, 40920, Note_on_c, 1, 81, 0
3, 40920, Note_on_c, 1, 76, 100
3, 40980, Note_on_c, 1, 76, 0
3, 40980, Note_on_c, 1, 72, 100
3, 41040, Note_on_c, 1, 72, 0
3, 41040, Note_on_c, 1, 69, 100
3, 41100, Note_on_c, 1, 69, 0
3, 41100, Note_on_c, 1, 65, 100
3, 41160, Note_on_c, 1, 65, 0
3, 41160, Note_on_c, 1, 69, 100
3, 41220, Note_on_c, 1, 69, 0
3, 41220, Note_on_c, 1, 73, 100
3, 41280, Note_on_c, 1, 73, 0
3, 41280, Control_c, 1, 1, 127
3, 41280, Control_c, 1, 1, 127
3, 41280, Note_on_c, 1, 74, 100
3, 41760, Note_on_c, 1, 74, 0
3, 41760, Pitch_bend_c, 1, 12288
3, 41760, Control_c, 1, 1, 0
3, 41760, Control_c, 1, 1, 0
3, 41760, Note_on_c, 1, 75, 100
3, 41780, Pitch_bend_c, 1, 8192
3, 41800, Pitch_bend_c, 1, 12288
3, 41820, Pitch_bend_c, 1, 8192
3, 41840, Pitch_bend_c, 1, 12288
3, 41860, Pitch_bend_c, 1, 8192
3, 41880, Pitch_bend_c, 1, 12288
3, 41900, Pitch_bend_c, 1, 8192
3, 41920, Pitch_bend_c, 1, 12288
3, 41940, Pitch_bend_c, 1, 8192
3, 41960, Pitch_bend_c, 1, 12288
3, 41980, Pitch_bend_c, 1, 8192
3, 42000, Pitch_bend_c, 1, 12288
3, 42020, Pitch_bend_c, 1, 8192
3, 42040, Pitch_bend_c, 1, 12288
3, 42060, Pitch_bend_c, 1, 8192
3, 42080, Pitch_bend_c, 1, 12288
3, 42100, Pitch_bend_c, 1, 8192
3, 42120, Pitch_bend_c, 1, 12288
3, 42140, Pitch_bend_c, 1, 8192
3, 42160, Pitch_bend_c, 1, 12288
3, 42180, Pitch_bend_c, 1, 8192
3, 42200, Pitch_bend_c, 1, 12288
3, 42220, Pitch_bend_c, 1, 8192
3, 42240, Note_on_c, 1, 75, 0
3, 42240, Note_on_c, 1, 76, 100
3, 44160, Note_on_c, 1, 76, 0
3, 44160, End_track
4, 0, Start_track
4, 0, MIDI_port, 0
4, 0, Title_t, "Johann Sebastian Bach  (1685-1750)"
4, 0, Program_c, 2, 40
4, 0, Control_c, 2, 7, 100
4, 0, Control_c, 2, 10, 79
4, 0, Note_on_c, 2, 69, 100
4, 480, Note_on_c, 2, 69, 0
4, 1920, Note_on_c, 2, 69, 100
4, 2160, Note_on_c, 2, 69, 0
4, 4800, Note_on_c, 2, 72, 100
4, 5040, Note_on_c, 2, 72, 0
4, 7680, Note_on_c, 2, 59, 100
4, 7920, Note_on_c, 2, 59, 0
4, 8640, Note_on_c, 2, 60, 100
4, 9120, Note_on_c, 2, 60, 0
4, 10320, Note_on_c, 2, 72, 100
4, 10560, Note_on_c, 2, 72, 0
4, 10560, Note_on_c, 2, 72, 100
4, 10800, Note_on_c, 2, 72, 0
4, 11040, Note_on_c, 2, 71, 100
4, 11400, Note_on_c, 2, 71, 0
4, 11400, Note_on_c, 2, 72, 100
4, 11520, Note_on_c, 2, 72, 0
4, 11520, Note_on_c, 2, 72, 100
4, 11820, Note_on_c, 2, 72, 0
4, 11820, Note_on_c, 2, 67, 100
4, 11880, Note_on_c, 2, 67, 0
4, 11880, Note_on_c, 2, 69, 100
4, 11940, Note_on_c, 2, 69, 0
4, 11940, Note_on_c, 2, 71, 100
4, 12000, Note_on_c, 2, 71, 0
4, 12000, Note_on_c, 2, 72, 100
4, 12060, Note_on_c, 2, 72, 0
4, 12060, Note_on_c, 2, 74, 100
4, 12120, Note_on_c, 2, 74, 0
4, 12120, Note_on_c, 2, 76, 100
4, 12180, Note_on_c, 2, 76, 0
4, 12180, Note_on_c, 2, 77, 100
4, 12240, Note_on_c, 2, 77, 0
4, 12240, Note_on_c, 2, 76, 100
4, 12300, Note_on_c, 2, 76, 0
4, 12300, Note_on_c, 2, 74, 100
4, 12360, Note_on_c, 2, 74, 0
4, 12360, Note_on_c, 2, 72, 100
4, 12420, Note_on_c, 2, 72, 0
4, 12420, Note_on_c, 2, 71, 100
4, 12450, Note_on_c, 2, 71, 0
4, 12450, Note_on_c, 2, 69, 100
4, 12480, Note_on_c, 2, 69, 0
4, 12480, Note_on_c, 2, 68, 100
4, 12540, Note_on_c, 2, 68, 0
4, 12540, Note_on_c, 2, 64, 100
4, 12600, Note_on_c, 2, 64, 0
4, 12600, Note_on_c, 2, 68, 100
4, 12660, Note_on_c, 2, 68, 0
4, 12660, Note_on_c, 2, 71, 100
4, 12720, Note_on_c, 2, 71, 0
4, 12720, Note_on_c, 2, 74, 100
4, 12780, Note_on_c, 2, 74, 0
4, 12780, Note_on_c, 2, 69, 100
4, 12840, Note_on_c, 2, 69, 0
4, 12840, Note_on_c, 2, 65, 100
4, 12900, Note_on_c, 2, 65, 0
4, 12900, Note_on_c, 2, 57, 100
4, 12960, Note_on_c, 2, 57, 0
4, 12960, Note_on_c, 2, 56, 100
4, 13140, Note_on_c, 2, 56, 0
4, 13140, Note_on_c, 2, 77, 100
4, 13200, Note_on_c, 2, 77, 0
4, 13200, Note_on_c, 2, 76, 100
4, 13260, Note_on_c, 2, 76, 0
4, 13260, Note_on_c, 2, 74, 100
4, 13320, Note_on_c, 2, 74, 0
4, 13320, Note_on_c, 2, 72, 100
4, 13380, Note_on_c, 2, 72, 0
4, 13380, Note_on_c, 2, 74, 100
4, 13410, Note_on_c, 2, 74, 0
4, 13410, Note_on_c, 2, 71, 100
4, 13440, Note_on_c, 2, 71, 0
4, 13440, Note_on_c, 2, 72, 100
4, 13680, Note_on_c, 2, 72, 0
4, 13680, Note_on_c, 2, 71, 100
4, 13800, Note_on_c, 2, 71, 0
4, 13800, Note_on_c, 2, 69, 100
4, 13920, Note_on_c, 2, 69, 0
4, 13920, Note_on_c, 2, 78, 100
4, 14280, Note_on_c, 2, 78, 0
4, 14280, Note_on_c, 2, 78, 100
4, 14400, Note_on_c, 2, 78, 0
4, 14400, Note_on_c, 2, 78, 100
4, 14760, Note_on_c, 2, 78, 0
4, 14760, Note_on_c, 2, 79, 100
4, 14820, Note_on_c, 2, 79, 0
4, 14820, Note_on_c, 2, 81, 100
4, 14880, Note_on_c, 2, 81, 0
4, 14880, Note_on_c, 2, 79, 100
4, 15000, Note_on_c, 2, 79, 0
4, 15000, Note_on_c, 2, 78, 100
4, 15120, Note_on_c, 2, 78, 0
4, 15120, Note_on_c, 2, 79, 100
4, 15240, Note_on_c, 2, 79, 0
4, 15240, Note_on_c, 2, 76, 100
4, 15360, Note_on_c, 2, 76, 0
4, 15360, Note_on_c, 2, 76, 100
4, 15480, Note_on_c, 2, 76, 0
4, 15480, Note_on_c, 2, 75, 100
4, 15600, Note_on_c, 2, 75, 0
4, 15600, Note_on_c, 2, 73, 100
4, 15720, Note_on_c, 2, 73, 0
4, 15720, Note_on_c, 2, 71, 100
4, 15840, Note_on_c, 2, 71, 0
4, 15840, Note_on_c, 2, 83, 100
4, 16020, Note_on_c, 2, 83, 0
4, 16020, Note_on_c, 2, 71, 100
4, 16050, Note_on_c, 2, 71, 0
4, 16050, Note_on_c, 2, 72, 100
4, 16080, Note_on_c, 2, 72, 0
4, 16080, Note_on_c, 2, 74, 100
4, 16140, Note_on_c, 2, 74, 0
4, 16140, Note_on_c, 2, 76, 100
4, 16200, Note_on_c, 2, 76, 0
4, 16200, Note_on_c, 2, 77, 100
4, 16260, Note_on_c, 2, 77, 0
4, 16260, Note_on_c, 2, 74, 100
4, 16320, Note_on_c, 2, 74, 0
4, 16320, Note_on_c, 2, 68, 100
4, 16440, Note_on_c, 2, 68, 0
4, 16440, Note_on_c, 2, 77, 100
4, 16620, Note_on_c, 2, 77, 0
4, 16620, Note_on_c, 2, 79, 100
4, 16680, Note_on_c, 2, 79, 0
4, 16680, Note_on_c, 2, 77, 100
4, 16740, Note_on_c, 2, 77, 0
4, 16740, Note_on_c, 2, 76, 100
4, 16800, Note_on_c, 2, 76, 0
4, 16800, Note_on_c, 2, 74, 100
4, 16860, Note_on_c, 2, 74, 0
4, 16860, Note_on_c, 2, 73, 100
4, 16920, Note_on_c, 2, 73, 0
4, 16920, Note_on_c, 2, 74, 100
4, 17040, Note_on_c, 2, 74, 0
4, 17040, Note_on_c, 2, 83, 100
4, 17160, Note_on_c, 2, 83, 0
4, 17160, Note_on_c, 2, 74, 100
4, 17280, Note_on_c, 2, 74, 0
4, 17280, Note_on_c, 2, 73, 100
4, 17460, Note_on_c, 2, 73, 0
4, 17460, Note_on_c, 2, 76, 100
4, 17520, Note_on_c, 2, 76, 0
4, 17520, Note_on_c, 2, 78, 100
4, 17580, Note_on_c, 2, 78, 0
4, 17580, Note_on_c, 2, 79, 100
4, 17640, Note_on_c, 2, 79, 0
4, 17640, Note_on_c, 2, 81, 100
4, 17700, Note_on_c, 2, 81, 0
4, 17700, Note_on_c, 2, 83, 100
4, 17760, Note_on_c, 2, 83, 0
4, 17760, Note_on_c, 2, 84, 100
4, 17820, Note_on_c, 2, 84, 0
4, 17820, Note_on_c, 2, 83, 100
4, 17880, Note_on_c, 2, 83, 0
4, 17880, Note_on_c, 2, 84, 100
4, 18000, Note_on_c, 2, 84, 0
4, 18000, Note_on_c, 2, 75, 100
4, 18120, Note_on_c, 2, 75, 0
4, 18120, Note_on_c, 2, 84, 100
4, 18240, Note_on_c, 2, 84, 0
4, 18240, Note_on_c, 2, 83, 100
4, 18600, Note_on_c, 2, 83, 0
4, 18600, Note_on_c, 2, 81, 100
4, 18720, Note_on_c, 2, 81, 0
4, 18720, Note_on_c, 2, 81, 100
4, 18840, Note_on_c, 2, 81, 0
4, 18840, Note_on_c, 2, 79, 100
4, 18960, Note_on_c, 2, 79, 0
4, 18960, Note_on_c, 2, 81, 100
4, 19080, Note_on_c, 2, 81, 0
4, 19080, Note_on_c, 2, 78, 100
4, 19200, Note_on_c, 2, 78, 0
4, 19200, Note_on_c, 2, 76, 100
4, 19440, Note_on_c, 2, 76, 0
4, 20160, Note_on_c, 2, 76, 100
4, 20520, Note_on_c, 2, 76, 0
4, 20520, Note_on_c, 2, 78, 100
4, 20640, Note_on_c, 2, 78, 0
4, 20640, Note_on_c, 2, 75, 100
4, 21000, Note_on_c, 2, 75, 0
4, 21000, Note_on_c, 2, 76, 100
4, 21120, Note_on_c, 2, 76, 0
4, 21120, Note_on_c, 2, 76, 100
4, 21720, Note_on_c, 2, 76, 0
4, 21720, Note_on_c, 2, 77, 100
4, 21780, Note_on_c, 2, 77, 0
4, 21780, Note_on_c, 2, 76, 100
4, 21840, Note_on_c, 2, 76, 0
4, 21840, Note_on_c, 2, 74, 100
4, 21900, Note_on_c, 2, 74, 0
4, 21900, Note_on_c, 2, 72, 100
4, 21960, Note_on_c, 2, 72, 0
4, 21960, Note_on_c, 2, 71, 100
4, 22020, Note_on_c, 2, 71, 0
4, 22020, Note_on_c, 2, 72, 100
4, 22050, Note_on_c, 2, 72, 0
4, 22050, Note_on_c, 2, 69, 100
4, 22080, Note_on_c, 2, 69, 0
4, 22080, Note_on_c, 2, 68, 100
4, 22380, Note_on_c, 2, 68, 0
4, 22380, Note_on_c, 2, 69, 100
4, 22440, Note_on_c, 2, 69, 0
4, 22440, Note_on_c, 2, 71, 100
4, 22500, Note_on_c, 2, 71, 0
4, 22500, Note_on_c, 2, 69, 100
4, 22560, Note_on_c, 2, 69, 0
4, 22560, Note_on_c, 2, 68, 100
4, 22620, Note_on_c, 2, 68, 0
4, 22620, Note_on_c, 2, 66, 100
4, 22680, Note_on_c, 2, 66, 0
4, 22680, Note_on_c, 2, 64, 100
4, 22740, Note_on_c, 2, 64, 0
4, 22740, Note_on_c, 2, 62, 100
4, 22800, Note_on_c, 2, 62, 0
4, 22800, Note_on_c, 2, 60, 100
4, 22920, Note_on_c, 2, 60, 0
4, 22920, Note_on_c, 2, 62, 100
4, 22980, Note_on_c, 2, 62, 0
4, 22980, Note_on_c, 2, 59, 100
4, 23040, Note_on_c, 2, 59, 0
4, 23040, Note_on_c, 2, 60, 100
4, 23280, Note_on_c, 2, 60, 0
4, 24000, Note_on_c, 2, 57, 100
4, 24240, Note_on_c, 2, 57, 0
4, 24960, Note_on_c, 2, 62, 100
4, 25200, Note_on_c, 2, 62, 0
4, 25440, Note_on_c, 2, 60, 100
4, 25500, Note_on_c, 2, 60, 0
4, 29280, Note_on_c, 2, 57, 100
4, 29520, Note_on_c, 2, 57, 0
4, 29760, Note_on_c, 2, 62, 100
4, 30000, Note_on_c, 2, 62, 0
4, 30720, Note_on_c, 2, 55, 100
4, 30960, Note_on_c, 2, 55, 0
4, 31680, Note_on_c, 2, 60, 100
4, 31920, Note_on_c, 2, 60, 0
4, 32640, Note_on_c, 2, 59, 100
4, 32880, Note_on_c, 2, 59, 0
4, 33120, Note_on_c, 2, 57, 100
4, 33360, Note_on_c, 2, 57, 0
4, 36480, Note_on_c, 2, 69, 100
4, 36720, Note_on_c, 2, 69, 0
4, 37440, Note_on_c, 2, 81, 100
4, 37800, Note_on_c, 2, 81, 0
4, 37800, Note_on_c, 2, 83, 100
4, 37860, Note_on_c, 2, 83, 0
4, 37860, Note_on_c, 2, 84, 100
4, 37920, Note_on_c, 2, 84, 0
4, 37920, Note_on_c, 2, 83, 100
4, 37980, Note_on_c, 2, 83, 0
4, 37980, Note_on_c, 2, 80, 100
4, 38040, Note_on_c, 2, 80, 0
4, 38040, Note_on_c, 2, 81, 100
4, 38100, Note_on_c, 2, 81, 0
4, 38100, Note_on_c, 2, 77, 100
4, 38160, Note_on_c, 2, 77, 0
4, 38160, Note_on_c, 2, 76, 100
4, 38220, Note_on_c, 2, 76, 0
4, 38220, Note_on_c, 2, 75, 100
4, 38280, Note_on_c, 2, 75, 0
4, 38280, Note_on_c, 2, 76, 100
4, 38340, Note_on_c, 2, 76, 0
4, 38340, Note_on_c, 2, 69, 100
4, 38400, Note_on_c, 2, 69, 0
4, 38400, Note_on_c, 2, 69, 100
4, 38430, Note_on_c, 2, 69, 0
4, 38430, Note_on_c, 2, 71, 100
4, 38460, Note_on_c, 2, 71, 0
4, 38460, Note_on_c, 2, 72, 100
4, 38640, Note_on_c, 2, 72, 0
4, 38880, Note_on_c, 2, 64, 100
4, 39360, Note_on_c, 2, 64, 0
4, 41280, Note_on_c, 2, 65, 100
4, 41760, Note_on_c, 2, 65, 0
4, 41760, Note_on_c, 2, 65, 100
4, 42240, Note_on_c, 2, 65, 0
4, 42240, Note_on_c, 2, 64, 100
4, 44160, Note_on_c, 2, 64, 0
4, 44160, End_track
5, 0, Start_track
5, 0, MIDI_port, 0
5, 0, Title_t, "Six Sonatas and Partitas for Solo Violin"
5, 0, Program_c, 3, 40
5, 0, Control_c, 3, 7, 100
5, 0, Control_c, 3, 10, 49
5, 0, Note_on_c, 3, 57, 100
5, 480, Note_on_c, 3, 57, 0
5, 480, Note_on_c, 3, 55, 100
5, 540, Note_on_c, 3, 55, 0
5, 960, Note_on_c, 3, 65, 100
5, 1200, Note_on_c, 3, 65, 0
5, 1440, Note_on_c, 3, 64, 100
5, 1680, Note_on_c, 3, 64, 0
5, 1920, Note_on_c, 3, 62, 100
5, 2160, Note_on_c, 3, 62, 0
5, 2400, Note_on_c, 3, 63, 100
5, 2640, Note_on_c, 3, 63, 0
5, 3360, Note_on_c, 3, 56, 100
5, 3600, Note_on_c, 3, 56, 0
5, 4800, Note_on_c, 3, 64, 100
5, 5040, Note_on_c, 3, 64, 0
5, 11520, Note_on_c, 3, 64, 100
5, 11760, Note_on_c, 3, 64, 0
5, 13440, Note_on_c, 3, 64, 100
5, 13680, Note_on_c, 3, 64, 0
5, 14400, Note_on_c, 3, 72, 100
5, 14760, Note_on_c, 3, 72, 0
5, 15120, Note_on_c, 3, 71, 100
5, 15240, Note_on_c, 3, 71, 0
5, 15240, Note_on_c, 3, 67, 100
5, 15360, Note_on_c, 3, 67, 0
5, 15360, Note_on_c, 3, 66, 100
5, 15600, Note_on_c, 3, 66, 0
5, 17280, Note_on_c, 3, 67, 100
5, 17520, Note_on_c, 3, 67, 0
5, 18000, Note_on_c, 3, 66, 100
5, 18240, Note_on_c, 3, 66, 0
5, 18240, Note_on_c, 3, 67, 100
5, 18480, Note_on_c, 3, 67, 0
5, 18480, Note_on_c, 3, 69, 100
5, 18720, Note_on_c, 3, 69, 0
5, 18720, Note_on_c, 3, 71, 100
5, 18960, Note_on_c, 3, 71, 0
5, 19200, Note_on_c, 3, 70, 100
5, 19500, Note_on_c, 3, 70, 0
5, 19500, Note_on_c, 3, 71, 100
5, 19560, Note_on_c, 3, 71, 0
5, 19560, Note_on_c, 3, 73, 100
5, 19620, Note_on_c, 3, 73, 0
5, 19620, Note_on_c, 3, 75, 100
5, 19680, Note_on_c, 3, 75, 0
5, 19680, Note_on_c, 3, 76, 100
5, 19740, Note_on_c, 3, 76, 0
5, 19740, Note_on_c, 3, 73, 100
5, 19800, Note_on_c, 3, 73, 0
5, 19800, Note_on_c, 3, 70, 100
5, 19860, Note_on_c, 3, 70, 0
5, 19860, Note_on_c, 3, 67, 100
5, 19920, Note_on_c, 3, 67, 0
5, 19920, Note_on_c, 3, 66, 100
5, 19980, Note_on_c, 3, 66, 0
5, 19980, Note_on_c, 3, 64, 100
5, 20040, Note_on_c, 3, 64, 0
5, 20040, Note_on_c, 3, 66, 100
5, 20100, Note_on_c, 3, 66, 0
5, 20100, Note_on_c, 3, 58, 100
5, 20160, Note_on_c, 3, 58, 0
5, 20160, Note_on_c, 3, 59, 100
5, 20400, Note_on_c, 3, 59, 0
5, 24000, Note_on_c, 3, 73, 100
5, 24240, Note_on_c, 3, 73, 0
5, 30720, Note_on_c, 3, 71, 100
5, 30960, Note_on_c, 3, 71, 0
5, 31680, Note_on_c, 3, 71, 100
5, 31980, Note_on_c, 3, 71, 0
5, 31980, Note_on_c, 3, 74, 100
5, 32040, Note_on_c, 3, 74, 0
5, 32040, Note_on_c, 3, 72, 100
5, 32100, Note_on_c, 3, 72, 0
5, 32100, Note_on_c, 3, 71, 100
5, 32160, Note_on_c, 3, 71, 0
5, 32160, Note_on_c, 3, 69, 100
5, 32220, Note_on_c, 3, 69, 0
5, 32220, Note_on_c, 3, 68, 100
5, 32280, Note_on_c, 3, 68, 0
5, 32280, Note_on_c, 3, 69, 100
5, 32340, Note_on_c, 3, 69, 0
5, 32340, Note_on_c, 3, 72, 100
5, 32400, Note_on_c, 3, 72, 0
5, 32400, Note_on_c, 3, 76, 100
5, 32460, Note_on_c, 3, 76, 0
5, 32460, Note_on_c, 3, 72, 100
5, 32520, Note_on_c, 3, 72, 0
5, 32520, Note_on_c, 3, 69, 100
5, 32580, Note_on_c, 3, 69, 0
5, 32580, Note_on_c, 3, 65, 100
5, 32640, Note_on_c, 3, 65, 0
5, 32640, Note_on_c, 3, 69, 100
5, 32880, Note_on_c, 3, 69, 0
5, 33120, Note_on_c, 3, 69, 100
5, 33360, Note_on_c, 3, 69, 0
5, 33600, Note_on_c, 3, 64, 100
5, 33840, Note_on_c, 3, 64, 0
5, 33840, End_track
6, 0, Start_track
6, 0, MIDI_port, 0
6, 0, Title_t, "--------------------------------------"
6, 0, End_track
7, 0, Start_track
7, 0, MIDI_port, 0
7, 0, Title_t, "Sonata No. 2 in A minor - BWV 1003"
7, 0, End_track
8, 0, Start_track
8, 0, MIDI_port, 0
8, 0, Title_t, "1st Movement: Grave"
8, 0, End_track
9, 0, Start_track
9, 0, MIDI_port, 0
9, 0, Title_t, "--------------------------------------"
9, 0, End_track
10, 0, Start_track
10, 0, MIDI_port, 0
10, 0, Title_t, "Sequenced with Cakewalk Pro Audio by"
10, 0, End_track
11, 0, Start_track
11, 0, MIDI_port, 0
11, 0, Title_t, "David J. Grossman - dave@unpronounceable.com"
11, 0, End_track
12, 0, Start_track
12, 0, MIDI_port, 0
12, 0, Title_t, "This and other Bach MIDI files can be found at:"
12, 0, End_track
13, 0, Start_track
13, 0, MIDI_port, 0
13, 0, Title_t, "Dave's J.S. Bach Page"
13, 0, End_track
14, 0, Start_track
14, 0, MIDI_port, 0
14, 0, Title_t, "http://www.unpronounceable.com/bach"
14, 0, End_track
15, 0, Start_track
15, 0, MIDI_port, 0
15, 0, Title_t, "--------------------------------------"
15, 0, End_track
16, 0, Start_track
16, 0, MIDI_port, 0
16, 0, Title_t, "Original Filename: vs2-1gra.mid"
16, 0, End_track
17, 0, Start_track
17, 0, MIDI_port, 0
17, 0, Title_t, "Last Modified: February 22, 1997"
17, 0, End_track
0, 0, End_of_file
