0, 0, Header, 1, 17, 480
1, 0, Start_track
1, 0, Title_t, "untitled"
1, 0, Copyright_t, "Copyright © 1996 by David Grossman"
1, 0, Text_t, "David Grossman"
1, 0, SMPTE_offset, 96, 0, 3, 0, 0
1, 0, Time_signature, 2, 2, 24, 8
1, 0, Key_signature, 0, "major"
1, 0, Tempo, 750000
1, 272640, Tempo, 750000
1, 272760, Tempo, 759494
1, 272880, Tempo, 769231
1, 273000, Tempo, 779221
1, 273120, Tempo, 789474
1, 273240, Tempo, 800000
1, 273360, Tempo, 810811
1, 273480, Tempo, 821918
1, 273600, Tempo, 833333
1, 273720, Tempo, 845070
1, 273840, Tempo, 857143
1, 273960, Tempo, 869565
1, 274080, Tempo, 882353
1, 274200, Tempo, 895522
1, 274320, Tempo, 909091
1, 274440, Tempo, 923077
1, 274540, Tempo, 937500
1, 274660, Tempo, 952381
1, 274780, Tempo, 967742
1, 274900, Tempo, 983607
1, 275020, Tempo, 1000000
1, 275140, Tempo, 1016949
1, 275260, Tempo, 1034483
1, 275380, Tempo, 1052632
1, 275500, Tempo, 1071429
1, 275620, Tempo, 1090909
1, 275740, Tempo, 1111111
1, 275860, Tempo, 1132075
1, 275980, Tempo, 1153846
1, 276100, Tempo, 1176471
1, 276220, Tempo, 1200000
1, 276320, Tempo, 1224490
1, 276480, Tempo, 1621622
1, 276480, End_track
2, 0, Start_track
2, 0, MIDI_port, 0
2, 0, Title_t, "Solo Violin"
2, 0, Program_c, 0, 40
2, 0, Control_c, 0, 7, 100
2, 0, Control_c, 0, 10, 69
2, 240, Note_on_c, 0, 76, 100
2, 360, Note_on_c, 0, 76, 0
2, 360, Note_on_c, 0, 75, 100
2, 480, Note_on_c, 0, 75, 0
2, 480, Note_on_c, 0, 76, 100
2, 720, Note_on_c, 0, 76, 0
2, 720, Note_on_c, 0, 64, 100
2, 960, Note_on_c, 0, 64, 0
2, 960, Note_on_c, 0, 69, 100
2, 1200, Note_on_c, 0, 69, 0
2, 1200, Note_on_c, 0, 72, 100
2, 1440, Note_on_c, 0, 72, 0
2, 1440, Note_on_c, 0, 71, 100
2, 1680, Note_on_c, 0, 71, 0
2, 1680, Note_on_c, 0, 74, 100
2, 1920, Note_on_c, 0, 74, 0
2, 1920, Note_on_c, 0, 72, 100
2, 2160, Note_on_c, 0, 72, 0
2, 3120, Note_on_c, 0, 76, 100
2, 3360, Note_on_c, 0, 76, 0
2, 3360, Note_on_c, 0, 76, 100
2, 3600, Note_on_c, 0, 76, 0
2, 3600, Note_on_c, 0, 75, 100
2, 3840, Note_on_c, 0, 75, 0
2, 3840, Note_on_c, 0, 76, 100
2, 4080, Note_on_c, 0, 76, 0
2, 4080, Note_on_c, 0, 71, 100
2, 4200, Note_on_c, 0, 71, 0
2, 4200, Note_on_c, 0, 69, 100
2, 4320, Note_on_c, 0, 69, 0
2, 4320, Note_on_c, 0, 71, 100
2, 4560, Note_on_c, 0, 71, 0
2, 4560, Note_on_c, 0, 73, 100
2, 4800, Note_on_c, 0, 73, 0
2, 4800, Note_on_c, 0, 74, 100
2, 5040, Note_on_c, 0, 74, 0
2, 5040, Note_on_c, 0, 69, 100
2, 5160, Note_on_c, 0, 69, 0
2, 5160, Note_on_c, 0, 68, 100
2, 5280, Note_on_c, 0, 68, 0
2, 5280, Note_on_c, 0, 69, 100
2, 5520, Note_on_c, 0, 69, 0
2, 5520, Note_on_c, 0, 71, 100
2, 5760, Note_on_c, 0, 71, 0
2, 5760, Note_on_c, 0, 72, 100
2, 6240, Note_on_c, 0, 72, 0
2, 11520, Note_on_c, 0, 72, 100
2, 11640, Note_on_c, 0, 72, 0
2, 37440, Note_on_c, 0, 57, 100
2, 37680, Note_on_c, 0, 57, 0
2, 37680, Note_on_c, 0, 61, 100
2, 37920, Note_on_c, 0, 61, 0
2, 37920, Note_on_c, 0, 59, 100
2, 38160, Note_on_c, 0, 59, 0
2, 38160, Note_on_c, 0, 62, 100
2, 38400, Note_on_c, 0, 62, 0
2, 38400, Note_on_c, 0, 61, 100
2, 38640, Note_on_c, 0, 61, 0
2, 39120, Note_on_c, 0, 61, 100
2, 39360, Note_on_c, 0, 61, 0
2, 39360, Note_on_c, 0, 62, 100
2, 39600, Note_on_c, 0, 62, 0
2, 40080, Note_on_c, 0, 62, 100
2, 40320, Note_on_c, 0, 62, 0
2, 40320, Note_on_c, 0, 62, 100
2, 40560, Note_on_c, 0, 62, 0
2, 40560, Note_on_c, 0, 59, 100
2, 40800, Note_on_c, 0, 59, 0
2, 40800, Note_on_c, 0, 60, 100
2, 41040, Note_on_c, 0, 60, 0
2, 41040, Note_on_c, 0, 62, 100
2, 41280, Note_on_c, 0, 62, 0
2, 41280, Note_on_c, 0, 64, 100
2, 41520, Note_on_c, 0, 64, 0
2, 41520, Note_on_c, 0, 62, 100
2, 41760, Note_on_c, 0, 62, 0
2, 41760, Note_on_c, 0, 64, 100
2, 42240, Note_on_c, 0, 64, 0
2, 42240, Note_on_c, 0, 57, 100
2, 42360, Note_on_c, 0, 57, 0
2, 51960, Note_on_c, 0, 83, 75
2, 52080, Note_on_c, 0, 83, 0
2, 52080, Note_on_c, 0, 79, 75
2, 52200, Note_on_c, 0, 79, 0
2, 52200, Note_on_c, 0, 76, 75
2, 52320, Note_on_c, 0, 76, 0
2, 52320, Note_on_c, 0, 75, 75
2, 52440, Note_on_c, 0, 75, 0
2, 52560, Note_on_c, 0, 76, 75
2, 52680, Note_on_c, 0, 76, 0
2, 52800, Note_on_c, 0, 71, 75
2, 52920, Note_on_c, 0, 71, 0
2, 53040, Note_on_c, 0, 72, 75
2, 53160, Note_on_c, 0, 72, 0
2, 53280, Note_on_c, 0, 71, 75
2, 53400, Note_on_c, 0, 71, 0
2, 53520, Note_on_c, 0, 69, 75
2, 53640, Note_on_c, 0, 69, 0
2, 53760, Note_on_c, 0, 71, 75
2, 53880, Note_on_c, 0, 71, 0
2, 54000, Note_on_c, 0, 75, 100
2, 54120, Note_on_c, 0, 75, 0
2, 54240, Note_on_c, 0, 78, 100
2, 54360, Note_on_c, 0, 78, 0
2, 54480, Note_on_c, 0, 75, 100
2, 54600, Note_on_c, 0, 75, 0
2, 54720, Note_on_c, 0, 69, 100
2, 54840, Note_on_c, 0, 69, 0
2, 54960, Note_on_c, 0, 75, 75
2, 55080, Note_on_c, 0, 75, 0
2, 55200, Note_on_c, 0, 78, 75
2, 55320, Note_on_c, 0, 78, 0
2, 55440, Note_on_c, 0, 75, 75
2, 55560, Note_on_c, 0, 75, 0
2, 55680, Note_on_c, 0, 71, 100
2, 55800, Note_on_c, 0, 71, 0
2, 55800, Note_on_c, 0, 83, 100
2, 55920, Note_on_c, 0, 83, 0
2, 55920, Note_on_c, 0, 79, 100
2, 56040, Note_on_c, 0, 79, 0
2, 56040, Note_on_c, 0, 76, 100
2, 56160, Note_on_c, 0, 76, 0
2, 56160, Note_on_c, 0, 75, 100
2, 56280, Note_on_c, 0, 75, 0
2, 56400, Note_on_c, 0, 76, 100
2, 56520, Note_on_c, 0, 76, 0
2, 56640, Note_on_c, 0, 72, 100
2, 56760, Note_on_c, 0, 72, 0
2, 56880, Note_on_c, 0, 71, 100
2, 57000, Note_on_c, 0, 71, 0
2, 57120, Note_on_c, 0, 69, 100
2, 57240, Note_on_c, 0, 69, 0
2, 57360, Note_on_c, 0, 72, 100
2, 57480, Note_on_c, 0, 72, 0
2, 57600, Note_on_c, 0, 71, 100
2, 57840, Note_on_c, 0, 71, 0
2, 57840, Note_on_c, 0, 83, 100
2, 57960, Note_on_c, 0, 83, 0
2, 57960, Note_on_c, 0, 81, 100
2, 58080, Note_on_c, 0, 81, 0
2, 58080, Note_on_c, 0, 83, 100
2, 58320, Note_on_c, 0, 83, 0
2, 58320, Note_on_c, 0, 71, 100
2, 58560, Note_on_c, 0, 71, 0
2, 58560, Note_on_c, 0, 76, 100
2, 58800, Note_on_c, 0, 76, 0
2, 58800, Note_on_c, 0, 79, 100
2, 59040, Note_on_c, 0, 79, 0
2, 59040, Note_on_c, 0, 78, 100
2, 59280, Note_on_c, 0, 78, 0
2, 59280, Note_on_c, 0, 81, 100
2, 59520, Note_on_c, 0, 81, 0
2, 59520, Note_on_c, 0, 79, 100
2, 59760, Note_on_c, 0, 79, 0
2, 60240, Note_on_c, 0, 79, 100
2, 60480, Note_on_c, 0, 79, 0
2, 60480, Note_on_c, 0, 78, 100
2, 60960, Note_on_c, 0, 78, 0
2, 60960, Note_on_c, 0, 77, 100
2, 61440, Note_on_c, 0, 77, 0
2, 64440, Note_on_c, 0, 64, 100
2, 64560, Note_on_c, 0, 64, 0
2, 64680, Note_on_c, 0, 64, 100
2, 64800, Note_on_c, 0, 64, 0
2, 64920, Note_on_c, 0, 64, 100
2, 65040, Note_on_c, 0, 64, 0
2, 65160, Note_on_c, 0, 64, 100
2, 65280, Note_on_c, 0, 64, 0
2, 65280, Note_on_c, 0, 69, 100
2, 65520, Note_on_c, 0, 69, 0
2, 65520, Note_on_c, 0, 78, 100
2, 65640, Note_on_c, 0, 78, 0
2, 65640, Note_on_c, 0, 76, 100
2, 65760, Note_on_c, 0, 76, 0
2, 65760, Note_on_c, 0, 78, 100
2, 66000, Note_on_c, 0, 78, 0
2, 66000, Note_on_c, 0, 66, 100
2, 66240, Note_on_c, 0, 66, 0
2, 66240, Note_on_c, 0, 71, 100
2, 66480, Note_on_c, 0, 71, 0
2, 66480, Note_on_c, 0, 74, 100
2, 66720, Note_on_c, 0, 74, 0
2, 66720, Note_on_c, 0, 73, 100
2, 66960, Note_on_c, 0, 73, 0
2, 66960, Note_on_c, 0, 76, 100
2, 67200, Note_on_c, 0, 76, 0
2, 67200, Note_on_c, 0, 75, 100
2, 67440, Note_on_c, 0, 75, 0
2, 67440, Note_on_c, 0, 78, 100
2, 67680, Note_on_c, 0, 78, 0
2, 67680, Note_on_c, 0, 83, 100
2, 67920, Note_on_c, 0, 83, 0
2, 67920, Note_on_c, 0, 81, 100
2, 68160, Note_on_c, 0, 81, 0
2, 68160, Note_on_c, 0, 79, 100
2, 68520, Note_on_c, 0, 79, 0
2, 68520, Note_on_c, 0, 81, 100
2, 68640, Note_on_c, 0, 81, 0
2, 68640, Note_on_c, 0, 78, 100
2, 68640, Pitch_bend_c, 0, 12288
2, 68680, Pitch_bend_c, 0, 8192
2, 68720, Pitch_bend_c, 0, 12288
2, 68760, Pitch_bend_c, 0, 8192
2, 69000, Note_on_c, 0, 78, 0
2, 69000, Note_on_c, 0, 76, 100
2, 69120, Note_on_c, 0, 76, 0
2, 69120, Note_on_c, 0, 76, 100
2, 69360, Note_on_c, 0, 76, 0
2, 69600, Note_on_c, 0, 76, 100
2, 70080, Note_on_c, 0, 76, 0
2, 70080, Note_on_c, 0, 75, 100
2, 70560, Note_on_c, 0, 75, 0
2, 70560, Note_on_c, 0, 74, 100
2, 71040, Note_on_c, 0, 74, 0
2, 71040, Note_on_c, 0, 73, 100
2, 71280, Note_on_c, 0, 73, 0
2, 71280, Note_on_c, 0, 72, 100
2, 71400, Note_on_c, 0, 72, 0
2, 71400, Note_on_c, 0, 71, 100
2, 71520, Note_on_c, 0, 71, 0
2, 71520, Note_on_c, 0, 72, 100
2, 71760, Note_on_c, 0, 72, 0
2, 71760, Note_on_c, 0, 74, 100
2, 72000, Note_on_c, 0, 74, 0
2, 72000, Note_on_c, 0, 76, 100
2, 72240, Note_on_c, 0, 76, 0
2, 72240, Note_on_c, 0, 71, 100
2, 72360, Note_on_c, 0, 71, 0
2, 72360, Note_on_c, 0, 69, 100
2, 72480, Note_on_c, 0, 69, 0
2, 72480, Note_on_c, 0, 71, 100
2, 72720, Note_on_c, 0, 71, 0
2, 72720, Note_on_c, 0, 73, 100
2, 72960, Note_on_c, 0, 73, 0
2, 72960, Note_on_c, 0, 74, 100
2, 73440, Note_on_c, 0, 74, 0
2, 73440, Note_on_c, 0, 74, 100
2, 73920, Note_on_c, 0, 74, 0
2, 73920, Note_on_c, 0, 73, 100
2, 74400, Note_on_c, 0, 73, 0
2, 74400, Note_on_c, 0, 72, 100
2, 74880, Note_on_c, 0, 72, 0
2, 74880, Note_on_c, 0, 71, 100
2, 75120, Note_on_c, 0, 71, 0
2, 75120, Note_on_c, 0, 71, 100
2, 75240, Note_on_c, 0, 71, 0
2, 75240, Note_on_c, 0, 69, 100
2, 75360, Note_on_c, 0, 69, 0
2, 75360, Note_on_c, 0, 71, 100
2, 75600, Note_on_c, 0, 71, 0
2, 75600, Note_on_c, 0, 72, 100
2, 75840, Note_on_c, 0, 72, 0
2, 75840, Note_on_c, 0, 74, 100
2, 76080, Note_on_c, 0, 74, 0
2, 76080, Note_on_c, 0, 69, 100
2, 76200, Note_on_c, 0, 69, 0
2, 76200, Note_on_c, 0, 67, 100
2, 76320, Note_on_c, 0, 67, 0
2, 76320, Note_on_c, 0, 69, 100
2, 76560, Note_on_c, 0, 69, 0
2, 76560, Note_on_c, 0, 71, 100
2, 76800, Note_on_c, 0, 71, 0
2, 76800, Note_on_c, 0, 72, 100
2, 77040, Note_on_c, 0, 72, 0
2, 77760, Note_on_c, 0, 67, 100
2, 78000, Note_on_c, 0, 67, 0
2, 78240, Note_on_c, 0, 67, 100
2, 78480, Note_on_c, 0, 67, 0
2, 78720, Note_on_c, 0, 72, 100
2, 78960, Note_on_c, 0, 72, 0
2, 79200, Note_on_c, 0, 71, 100
2, 79440, Note_on_c, 0, 71, 0
2, 79680, Note_on_c, 0, 72, 100
2, 79920, Note_on_c, 0, 72, 0
2, 80640, Note_on_c, 0, 72, 100
2, 80880, Note_on_c, 0, 72, 0
2, 80880, Note_on_c, 0, 77, 100
2, 81000, Note_on_c, 0, 77, 0
2, 81000, Note_on_c, 0, 76, 100
2, 81120, Note_on_c, 0, 76, 0
2, 81120, Note_on_c, 0, 77, 100
2, 81360, Note_on_c, 0, 77, 0
2, 81360, Note_on_c, 0, 72, 100
2, 81600, Note_on_c, 0, 72, 0
2, 81600, Note_on_c, 0, 74, 100
2, 81840, Note_on_c, 0, 74, 0
2, 82560, Note_on_c, 0, 74, 100
2, 82800, Note_on_c, 0, 74, 0
2, 82800, Note_on_c, 0, 79, 100
2, 82920, Note_on_c, 0, 79, 0
2, 82920, Note_on_c, 0, 78, 100
2, 83040, Note_on_c, 0, 78, 0
2, 83040, Note_on_c, 0, 79, 100
2, 83280, Note_on_c, 0, 79, 0
2, 83280, Note_on_c, 0, 67, 100
2, 83520, Note_on_c, 0, 67, 0
2, 83520, Note_on_c, 0, 72, 100
2, 83760, Note_on_c, 0, 72, 0
2, 83760, Note_on_c, 0, 76, 100
2, 84000, Note_on_c, 0, 76, 0
2, 84000, Note_on_c, 0, 74, 100
2, 84240, Note_on_c, 0, 74, 0
2, 84240, Note_on_c, 0, 77, 100
2, 84480, Note_on_c, 0, 77, 0
2, 84480, Note_on_c, 0, 76, 100
2, 84720, Note_on_c, 0, 76, 0
2, 86640, Note_on_c, 0, 67, 100
2, 86760, Note_on_c, 0, 67, 0
2, 86760, Note_on_c, 0, 66, 100
2, 86880, Note_on_c, 0, 66, 0
2, 86880, Note_on_c, 0, 67, 100
2, 87120, Note_on_c, 0, 67, 0
2, 87120, Note_on_c, 0, 55, 100
2, 87360, Note_on_c, 0, 55, 0
2, 87360, Note_on_c, 0, 60, 100
2, 87600, Note_on_c, 0, 60, 0
2, 87600, Note_on_c, 0, 64, 100
2, 87840, Note_on_c, 0, 64, 0
2, 87840, Note_on_c, 0, 62, 100
2, 88080, Note_on_c, 0, 62, 0
2, 88080, Note_on_c, 0, 65, 100
2, 88320, Note_on_c, 0, 65, 0
2, 88320, Note_on_c, 0, 64, 100
2, 88560, Note_on_c, 0, 64, 0
2, 88560, Note_on_c, 0, 67, 100
2, 88800, Note_on_c, 0, 67, 0
2, 88800, Note_on_c, 0, 65, 100
2, 89040, Note_on_c, 0, 65, 0
2, 89040, Note_on_c, 0, 69, 100
2, 89280, Note_on_c, 0, 69, 0
2, 89280, Note_on_c, 0, 67, 100
2, 89520, Note_on_c, 0, 67, 0
2, 90240, Note_on_c, 0, 64, 100
2, 90480, Note_on_c, 0, 64, 0
2, 91200, Note_on_c, 0, 65, 100
2, 91440, Note_on_c, 0, 65, 0
2, 92160, Note_on_c, 0, 69, 100
2, 92400, Note_on_c, 0, 69, 0
2, 94080, Note_on_c, 0, 67, 100
2, 94320, Note_on_c, 0, 67, 0
2, 94800, Note_on_c, 0, 67, 100
2, 95040, Note_on_c, 0, 67, 0
2, 95040, Note_on_c, 0, 65, 100
2, 95280, Note_on_c, 0, 65, 0
2, 96000, Note_on_c, 0, 65, 100
2, 96120, Note_on_c, 0, 65, 0
2, 97920, Note_on_c, 0, 64, 100
2, 98160, Note_on_c, 0, 64, 0
2, 100800, Note_on_c, 0, 64, 100
2, 101040, Note_on_c, 0, 64, 0
2, 101760, Note_on_c, 0, 62, 100
2, 102000, Note_on_c, 0, 62, 0
2, 102720, Note_on_c, 0, 64, 100
2, 102960, Note_on_c, 0, 64, 0
2, 103680, Note_on_c, 0, 64, 100
2, 103920, Note_on_c, 0, 64, 0
2, 103920, Note_on_c, 0, 69, 100
2, 104040, Note_on_c, 0, 69, 0
2, 104040, Note_on_c, 0, 67, 100
2, 104160, Note_on_c, 0, 67, 0
2, 104160, Note_on_c, 0, 69, 100
2, 104280, Note_on_c, 0, 69, 0
2, 104280, Note_on_c, 0, 65, 100
2, 104400, Note_on_c, 0, 65, 0
2, 104400, Note_on_c, 0, 67, 100
2, 104520, Note_on_c, 0, 67, 0
2, 104520, Note_on_c, 0, 64, 100
2, 104640, Note_on_c, 0, 64, 0
2, 104640, Note_on_c, 0, 65, 100
2, 104880, Note_on_c, 0, 65, 0
2, 137520, Note_on_c, 0, 81, 100
2, 137760, Note_on_c, 0, 81, 0
2, 137760, Note_on_c, 0, 81, 100
2, 138000, Note_on_c, 0, 81, 0
2, 138000, Note_on_c, 0, 80, 100
2, 138240, Note_on_c, 0, 80, 0
2, 138240, Note_on_c, 0, 81, 100
2, 138480, Note_on_c, 0, 81, 0
2, 138480, Note_on_c, 0, 72, 100
2, 138600, Note_on_c, 0, 72, 0
2, 138600, Note_on_c, 0, 71, 100
2, 138720, Note_on_c, 0, 71, 0
2, 138720, Note_on_c, 0, 72, 100
2, 138960, Note_on_c, 0, 72, 0
2, 138960, Note_on_c, 0, 72, 100
2, 139200, Note_on_c, 0, 72, 0
2, 139200, Note_on_c, 0, 72, 100
2, 139440, Note_on_c, 0, 72, 0
2, 139440, Note_on_c, 0, 74, 100
2, 139560, Note_on_c, 0, 74, 0
2, 139560, Note_on_c, 0, 72, 100
2, 139680, Note_on_c, 0, 72, 0
2, 139680, Note_on_c, 0, 74, 100
2, 139920, Note_on_c, 0, 74, 0
2, 139920, Note_on_c, 0, 69, 100
2, 140160, Note_on_c, 0, 69, 0
2, 140160, Note_on_c, 0, 71, 100
2, 140400, Note_on_c, 0, 71, 0
2, 140880, Note_on_c, 0, 70, 100
2, 141120, Note_on_c, 0, 70, 0
2, 141120, Note_on_c, 0, 70, 100
2, 141360, Note_on_c, 0, 70, 0
2, 141360, Note_on_c, 0, 72, 100
2, 141480, Note_on_c, 0, 72, 0
2, 141480, Note_on_c, 0, 70, 100
2, 141600, Note_on_c, 0, 70, 0
2, 141600, Note_on_c, 0, 72, 100
2, 141840, Note_on_c, 0, 72, 0
2, 141840, Note_on_c, 0, 67, 100
2, 142080, Note_on_c, 0, 67, 0
2, 142080, Note_on_c, 0, 69, 100
2, 142320, Note_on_c, 0, 69, 0
2, 142320, Note_on_c, 0, 77, 100
2, 142440, Note_on_c, 0, 77, 0
2, 142440, Note_on_c, 0, 79, 100
2, 142560, Note_on_c, 0, 79, 0
2, 142560, Note_on_c, 0, 77, 100
2, 142800, Note_on_c, 0, 77, 0
2, 142800, Note_on_c, 0, 76, 100
2, 143040, Note_on_c, 0, 76, 0
2, 143040, Note_on_c, 0, 74, 100
2, 143280, Note_on_c, 0, 74, 0
2, 143280, Note_on_c, 0, 79, 100
2, 143400, Note_on_c, 0, 79, 0
2, 143400, Note_on_c, 0, 81, 100
2, 143520, Note_on_c, 0, 81, 0
2, 143520, Note_on_c, 0, 79, 100
2, 143760, Note_on_c, 0, 79, 0
2, 143760, Note_on_c, 0, 77, 100
2, 144000, Note_on_c, 0, 77, 0
2, 144000, Note_on_c, 0, 76, 100
2, 144240, Note_on_c, 0, 76, 0
2, 144480, Note_on_c, 0, 79, 100
2, 144720, Note_on_c, 0, 79, 0
2, 144960, Note_on_c, 0, 81, 100
2, 145200, Note_on_c, 0, 81, 0
2, 145440, Note_on_c, 0, 81, 100
2, 145680, Note_on_c, 0, 81, 0
2, 146160, Note_on_c, 0, 79, 100
2, 146280, Note_on_c, 0, 79, 0
2, 146280, Note_on_c, 0, 81, 100
2, 146400, Note_on_c, 0, 81, 0
2, 146400, Note_on_c, 0, 79, 100
2, 146640, Note_on_c, 0, 79, 0
2, 146640, Note_on_c, 0, 77, 100
2, 146880, Note_on_c, 0, 77, 0
2, 146880, Note_on_c, 0, 76, 100
2, 147120, Note_on_c, 0, 76, 0
2, 147120, Note_on_c, 0, 81, 100
2, 147240, Note_on_c, 0, 81, 0
2, 147240, Note_on_c, 0, 82, 100
2, 147360, Note_on_c, 0, 82, 0
2, 147360, Note_on_c, 0, 81, 100
2, 147600, Note_on_c, 0, 81, 0
2, 147600, Note_on_c, 0, 79, 100
2, 147840, Note_on_c, 0, 79, 0
2, 147840, Note_on_c, 0, 77, 100
2, 148080, Note_on_c, 0, 77, 0
2, 148320, Note_on_c, 0, 78, 100
2, 148560, Note_on_c, 0, 78, 0
2, 148800, Note_on_c, 0, 79, 100
2, 149040, Note_on_c, 0, 79, 0
2, 149280, Note_on_c, 0, 80, 100
2, 149520, Note_on_c, 0, 80, 0
2, 149760, Note_on_c, 0, 81, 100
2, 150000, Note_on_c, 0, 81, 0
2, 150000, Note_on_c, 0, 83, 100
2, 150240, Note_on_c, 0, 83, 0
2, 150240, Note_on_c, 0, 84, 100
2, 150480, Note_on_c, 0, 84, 0
2, 150960, Note_on_c, 0, 84, 100
2, 151200, Note_on_c, 0, 84, 0
2, 151200, Note_on_c, 0, 83, 100
2, 151440, Note_on_c, 0, 83, 0
2, 151440, Note_on_c, 0, 81, 100
2, 151680, Note_on_c, 0, 81, 0
2, 151680, Note_on_c, 0, 80, 100
2, 151920, Note_on_c, 0, 80, 0
2, 151920, Note_on_c, 0, 81, 100
2, 152160, Note_on_c, 0, 81, 0
2, 152160, Note_on_c, 0, 83, 100
2, 152400, Note_on_c, 0, 83, 0
2, 152880, Note_on_c, 0, 83, 100
2, 153120, Note_on_c, 0, 83, 0
2, 153120, Note_on_c, 0, 81, 100
2, 153360, Note_on_c, 0, 81, 0
2, 153360, Note_on_c, 0, 79, 100
2, 153600, Note_on_c, 0, 79, 0
2, 153600, Note_on_c, 0, 78, 100
2, 153840, Note_on_c, 0, 78, 0
2, 153840, Note_on_c, 0, 79, 100
2, 154080, Note_on_c, 0, 79, 0
2, 154080, Note_on_c, 0, 81, 100
2, 154320, Note_on_c, 0, 81, 0
2, 154800, Note_on_c, 0, 79, 100
2, 154920, Note_on_c, 0, 79, 0
2, 154920, Note_on_c, 0, 78, 100
2, 155040, Note_on_c, 0, 78, 0
2, 155040, Note_on_c, 0, 79, 100
2, 155280, Note_on_c, 0, 79, 0
2, 155280, Note_on_c, 0, 71, 100
2, 155520, Note_on_c, 0, 71, 0
2, 155520, Note_on_c, 0, 72, 100
2, 155760, Note_on_c, 0, 72, 0
2, 155760, Note_on_c, 0, 76, 100
2, 156000, Note_on_c, 0, 76, 0
2, 156000, Note_on_c, 0, 74, 100
2, 156240, Note_on_c, 0, 74, 0
2, 156240, Note_on_c, 0, 77, 100
2, 156480, Note_on_c, 0, 77, 0
2, 156480, Note_on_c, 0, 76, 100
2, 156720, Note_on_c, 0, 76, 0
2, 156720, Note_on_c, 0, 78, 100
2, 156960, Note_on_c, 0, 78, 0
2, 156960, Note_on_c, 0, 79, 100
2, 157200, Note_on_c, 0, 79, 0
2, 157440, Note_on_c, 0, 79, 100
2, 157800, Note_on_c, 0, 79, 0
2, 157800, Note_on_c, 0, 81, 100
2, 157920, Note_on_c, 0, 81, 0
2, 157920, Note_on_c, 0, 78, 100
2, 157920, Pitch_bend_c, 0, 12288
2, 157960, Pitch_bend_c, 0, 8192
2, 158000, Pitch_bend_c, 0, 12288
2, 158040, Pitch_bend_c, 0, 8192
2, 158280, Note_on_c, 0, 78, 0
2, 158280, Note_on_c, 0, 79, 100
2, 158400, Note_on_c, 0, 79, 0
2, 158400, Note_on_c, 0, 79, 100
2, 158640, Note_on_c, 0, 79, 0
2, 158640, Note_on_c, 0, 83, 100
2, 158760, Note_on_c, 0, 83, 0
2, 158760, Note_on_c, 0, 81, 100
2, 158880, Note_on_c, 0, 81, 0
2, 158880, Note_on_c, 0, 83, 100
2, 159120, Note_on_c, 0, 83, 0
2, 159120, Note_on_c, 0, 71, 100
2, 159360, Note_on_c, 0, 71, 0
2, 159360, Note_on_c, 0, 73, 100
2, 159480, Note_on_c, 0, 73, 0
2, 159480, Note_on_c, 0, 76, 100
2, 159600, Note_on_c, 0, 76, 0
2, 159600, Note_on_c, 0, 78, 100
2, 159720, Note_on_c, 0, 78, 0
2, 159720, Note_on_c, 0, 79, 100
2, 159840, Note_on_c, 0, 79, 0
2, 159840, Note_on_c, 0, 81, 100
2, 159960, Note_on_c, 0, 81, 0
2, 159960, Note_on_c, 0, 71, 100
2, 160080, Note_on_c, 0, 71, 0
2, 160080, Note_on_c, 0, 69, 100
2, 160200, Note_on_c, 0, 69, 0
2, 160200, Note_on_c, 0, 67, 100
2, 160320, Note_on_c, 0, 67, 0
2, 160320, Note_on_c, 0, 66, 100
2, 160560, Note_on_c, 0, 66, 0
2, 160560, Note_on_c, 0, 81, 100
2, 160680, Note_on_c, 0, 81, 0
2, 160680, Note_on_c, 0, 79, 100
2, 160800, Note_on_c, 0, 79, 0
2, 160800, Note_on_c, 0, 81, 100
2, 161040, Note_on_c, 0, 81, 0
2, 161040, Note_on_c, 0, 73, 100
2, 161280, Note_on_c, 0, 73, 0
2, 161280, Note_on_c, 0, 75, 100
2, 161400, Note_on_c, 0, 75, 0
2, 161400, Note_on_c, 0, 76, 100
2, 161520, Note_on_c, 0, 76, 0
2, 161520, Note_on_c, 0, 75, 100
2, 161640, Note_on_c, 0, 75, 0
2, 161640, Note_on_c, 0, 76, 100
2, 161760, Note_on_c, 0, 76, 0
2, 161760, Note_on_c, 0, 78, 100
2, 161880, Note_on_c, 0, 78, 0
2, 161880, Note_on_c, 0, 79, 100
2, 162000, Note_on_c, 0, 79, 0
2, 162000, Note_on_c, 0, 69, 100
2, 162120, Note_on_c, 0, 69, 0
2, 162120, Note_on_c, 0, 71, 100
2, 162240, Note_on_c, 0, 71, 0
2, 162240, Note_on_c, 0, 72, 100
2, 162360, Note_on_c, 0, 72, 0
2, 162360, Note_on_c, 0, 74, 100
2, 162480, Note_on_c, 0, 74, 0
2, 162480, Note_on_c, 0, 66, 100
2, 162600, Note_on_c, 0, 66, 0
2, 162600, Note_on_c, 0, 67, 100
2, 162720, Note_on_c, 0, 67, 0
2, 162720, Note_on_c, 0, 69, 100
2, 162840, Note_on_c, 0, 69, 0
2, 162840, Note_on_c, 0, 71, 100
2, 162960, Note_on_c, 0, 71, 0
2, 162960, Note_on_c, 0, 63, 100
2, 163080, Note_on_c, 0, 63, 0
2, 163080, Note_on_c, 0, 64, 100
2, 163200, Note_on_c, 0, 64, 0
2, 163200, Note_on_c, 0, 66, 100
2, 163320, Note_on_c, 0, 66, 0
2, 163320, Note_on_c, 0, 67, 100
2, 163440, Note_on_c, 0, 67, 0
2, 163440, Note_on_c, 0, 69, 100
2, 163560, Note_on_c, 0, 69, 0
2, 163560, Note_on_c, 0, 71, 100
2, 163680, Note_on_c, 0, 71, 0
2, 163680, Note_on_c, 0, 73, 100
2, 163800, Note_on_c, 0, 73, 0
2, 163800, Note_on_c, 0, 75, 100
2, 163920, Note_on_c, 0, 75, 0
2, 163920, Note_on_c, 0, 76, 100
2, 164040, Note_on_c, 0, 76, 0
2, 164040, Note_on_c, 0, 78, 100
2, 164160, Note_on_c, 0, 78, 0
2, 164160, Note_on_c, 0, 79, 100
2, 164280, Note_on_c, 0, 79, 0
2, 164280, Note_on_c, 0, 81, 100
2, 164400, Note_on_c, 0, 81, 0
2, 164400, Note_on_c, 0, 79, 100
2, 164520, Note_on_c, 0, 79, 0
2, 164520, Note_on_c, 0, 81, 100
2, 164640, Note_on_c, 0, 81, 0
2, 164640, Note_on_c, 0, 83, 100
2, 164880, Note_on_c, 0, 83, 0
2, 164880, Note_on_c, 0, 71, 100
2, 165120, Note_on_c, 0, 71, 0
2, 165120, Note_on_c, 0, 76, 100
2, 165360, Note_on_c, 0, 76, 0
2, 166080, Note_on_c, 0, 75, 100
2, 166320, Note_on_c, 0, 75, 0
2, 166320, Note_on_c, 0, 71, 100
2, 166440, Note_on_c, 0, 71, 0
2, 166440, Note_on_c, 0, 72, 100
2, 166560, Note_on_c, 0, 72, 0
2, 166560, Note_on_c, 0, 71, 100
2, 166800, Note_on_c, 0, 71, 0
2, 166800, Note_on_c, 0, 83, 100
2, 167040, Note_on_c, 0, 83, 0
2, 167040, Note_on_c, 0, 76, 100
2, 167280, Note_on_c, 0, 76, 0
2, 167280, Note_on_c, 0, 72, 100
2, 167520, Note_on_c, 0, 72, 0
2, 167520, Note_on_c, 0, 74, 100
2, 167760, Note_on_c, 0, 74, 0
2, 167760, Note_on_c, 0, 71, 100
2, 168000, Note_on_c, 0, 71, 0
2, 168000, Note_on_c, 0, 72, 100
2, 168480, Note_on_c, 0, 72, 0
2, 168480, Note_on_c, 0, 71, 100
2, 168960, Note_on_c, 0, 71, 0
2, 168960, Note_on_c, 0, 69, 100
2, 169200, Note_on_c, 0, 69, 0
2, 169200, Note_on_c, 0, 71, 100
2, 169440, Note_on_c, 0, 71, 0
2, 169440, Note_on_c, 0, 72, 100
2, 170160, Note_on_c, 0, 72, 0
2, 170160, Note_on_c, 0, 78, 100
2, 170280, Note_on_c, 0, 78, 0
2, 170280, Note_on_c, 0, 72, 100
2, 170400, Note_on_c, 0, 72, 0
2, 170400, Note_on_c, 0, 71, 100
2, 170520, Note_on_c, 0, 71, 0
2, 170520, Note_on_c, 0, 69, 100
2, 170640, Note_on_c, 0, 69, 0
2, 170640, Note_on_c, 0, 67, 100
2, 170760, Note_on_c, 0, 67, 0
2, 170760, Note_on_c, 0, 66, 100
2, 170880, Note_on_c, 0, 66, 0
2, 170880, Note_on_c, 0, 67, 100
2, 171000, Note_on_c, 0, 67, 0
2, 171000, Note_on_c, 0, 63, 100
2, 171120, Note_on_c, 0, 63, 0
2, 171120, Note_on_c, 0, 64, 100
2, 171240, Note_on_c, 0, 64, 0
2, 171240, Note_on_c, 0, 67, 100
2, 171360, Note_on_c, 0, 67, 0
2, 171360, Note_on_c, 0, 72, 100
2, 171480, Note_on_c, 0, 72, 0
2, 171480, Note_on_c, 0, 64, 100
2, 171600, Note_on_c, 0, 64, 0
2, 171600, Note_on_c, 0, 62, 100
2, 171720, Note_on_c, 0, 62, 0
2, 171720, Note_on_c, 0, 71, 100
2, 171840, Note_on_c, 0, 71, 0
2, 171840, Note_on_c, 0, 69, 100
2, 171960, Note_on_c, 0, 69, 0
2, 171960, Note_on_c, 0, 64, 100
2, 172080, Note_on_c, 0, 64, 0
2, 172080, Note_on_c, 0, 60, 100
2, 172200, Note_on_c, 0, 60, 0
2, 172200, Note_on_c, 0, 64, 100
2, 172320, Note_on_c, 0, 64, 0
2, 172320, Note_on_c, 0, 69, 100
2, 172440, Note_on_c, 0, 69, 0
2, 172440, Note_on_c, 0, 60, 100
2, 172560, Note_on_c, 0, 60, 0
2, 172560, Note_on_c, 0, 59, 100
2, 172680, Note_on_c, 0, 59, 0
2, 172680, Note_on_c, 0, 67, 100
2, 172800, Note_on_c, 0, 67, 0
2, 172800, Note_on_c, 0, 65, 100
2, 172920, Note_on_c, 0, 65, 0
2, 172920, Note_on_c, 0, 60, 100
2, 173040, Note_on_c, 0, 60, 0
2, 173040, Note_on_c, 0, 57, 100
2, 173160, Note_on_c, 0, 57, 0
2, 173160, Note_on_c, 0, 60, 100
2, 173280, Note_on_c, 0, 60, 0
2, 173280, Note_on_c, 0, 65, 100
2, 173400, Note_on_c, 0, 65, 0
2, 173400, Note_on_c, 0, 57, 100
2, 173520, Note_on_c, 0, 57, 0
2, 173520, Note_on_c, 0, 55, 100
2, 173640, Note_on_c, 0, 55, 0
2, 173640, Note_on_c, 0, 64, 100
2, 173760, Note_on_c, 0, 64, 0
2, 173760, Note_on_c, 0, 63, 100
2, 173880, Note_on_c, 0, 63, 0
2, 173880, Note_on_c, 0, 66, 100
2, 174000, Note_on_c, 0, 66, 0
2, 174000, Note_on_c, 0, 69, 100
2, 174120, Note_on_c, 0, 69, 0
2, 174120, Note_on_c, 0, 72, 100
2, 174240, Note_on_c, 0, 72, 0
2, 174240, Note_on_c, 0, 78, 100
2, 174360, Note_on_c, 0, 78, 0
2, 174360, Note_on_c, 0, 71, 100
2, 174480, Note_on_c, 0, 71, 0
2, 174480, Note_on_c, 0, 69, 100
2, 174600, Note_on_c, 0, 69, 0
2, 174600, Note_on_c, 0, 78, 100
2, 174720, Note_on_c, 0, 78, 0
2, 174720, Note_on_c, 0, 67, 100
2, 174840, Note_on_c, 0, 67, 0
2, 174840, Note_on_c, 0, 66, 100
2, 174960, Note_on_c, 0, 66, 0
2, 174960, Note_on_c, 0, 67, 100
2, 175080, Note_on_c, 0, 67, 0
2, 175080, Note_on_c, 0, 71, 100
2, 175200, Note_on_c, 0, 71, 0
2, 175200, Note_on_c, 0, 76, 100
2, 175320, Note_on_c, 0, 76, 0
2, 175320, Note_on_c, 0, 69, 100
2, 175440, Note_on_c, 0, 69, 0
2, 175440, Note_on_c, 0, 68, 100
2, 175560, Note_on_c, 0, 68, 0
2, 175560, Note_on_c, 0, 74, 100
2, 175680, Note_on_c, 0, 74, 0
2, 175680, Note_on_c, 0, 72, 100
2, 175800, Note_on_c, 0, 72, 0
2, 175800, Note_on_c, 0, 71, 100
2, 175920, Note_on_c, 0, 71, 0
2, 175920, Note_on_c, 0, 72, 100
2, 176040, Note_on_c, 0, 72, 0
2, 176040, Note_on_c, 0, 76, 100
2, 176160, Note_on_c, 0, 76, 0
2, 176160, Note_on_c, 0, 77, 100
2, 176280, Note_on_c, 0, 77, 0
2, 176280, Note_on_c, 0, 69, 100
2, 176400, Note_on_c, 0, 69, 0
2, 176400, Note_on_c, 0, 67, 100
2, 176520, Note_on_c, 0, 67, 0
2, 176520, Note_on_c, 0, 76, 100
2, 176640, Note_on_c, 0, 76, 0
2, 176640, Note_on_c, 0, 75, 100
2, 176760, Note_on_c, 0, 75, 0
2, 176760, Note_on_c, 0, 76, 100
2, 176880, Note_on_c, 0, 76, 0
2, 176880, Note_on_c, 0, 78, 100
2, 177000, Note_on_c, 0, 78, 0
2, 177000, Note_on_c, 0, 79, 100
2, 177120, Note_on_c, 0, 79, 0
2, 177120, Note_on_c, 0, 81, 100
2, 177240, Note_on_c, 0, 81, 0
2, 177240, Note_on_c, 0, 66, 100
2, 177360, Note_on_c, 0, 66, 0
2, 177360, Note_on_c, 0, 64, 100
2, 177480, Note_on_c, 0, 64, 0
2, 177480, Note_on_c, 0, 72, 100
2, 177600, Note_on_c, 0, 72, 0
2, 177600, Note_on_c, 0, 63, 100
2, 177720, Note_on_c, 0, 63, 0
2, 177720, Note_on_c, 0, 64, 100
2, 177840, Note_on_c, 0, 64, 0
2, 177840, Note_on_c, 0, 66, 100
2, 177960, Note_on_c, 0, 66, 0
2, 177960, Note_on_c, 0, 67, 100
2, 178080, Note_on_c, 0, 67, 0
2, 178080, Note_on_c, 0, 69, 100
2, 178200, Note_on_c, 0, 69, 0
2, 178200, Note_on_c, 0, 59, 100
2, 178320, Note_on_c, 0, 59, 0
2, 178320, Note_on_c, 0, 63, 100
2, 178440, Note_on_c, 0, 63, 0
2, 178440, Note_on_c, 0, 66, 100
2, 178560, Note_on_c, 0, 66, 0
2, 178560, Note_on_c, 0, 67, 100
2, 178680, Note_on_c, 0, 67, 0
2, 178680, Note_on_c, 0, 72, 100
2, 178800, Note_on_c, 0, 72, 0
2, 178800, Note_on_c, 0, 71, 100
2, 178920, Note_on_c, 0, 71, 0
2, 178920, Note_on_c, 0, 75, 100
2, 179040, Note_on_c, 0, 75, 0
2, 179040, Note_on_c, 0, 76, 100
2, 179160, Note_on_c, 0, 76, 0
2, 179160, Note_on_c, 0, 79, 100
2, 179280, Note_on_c, 0, 79, 0
2, 179280, Note_on_c, 0, 78, 100
2, 179400, Note_on_c, 0, 78, 0
2, 179400, Note_on_c, 0, 82, 100
2, 179520, Note_on_c, 0, 82, 0
2, 179520, Note_on_c, 0, 83, 100
2, 179760, Note_on_c, 0, 83, 0
2, 179760, Note_on_c, 0, 76, 100
2, 180000, Note_on_c, 0, 76, 0
2, 180000, Note_on_c, 0, 79, 100
2, 180120, Note_on_c, 0, 79, 0
2, 180120, Note_on_c, 0, 78, 100
2, 180240, Note_on_c, 0, 78, 0
2, 180240, Note_on_c, 0, 76, 100
2, 180360, Note_on_c, 0, 76, 0
2, 180360, Note_on_c, 0, 75, 100
2, 180480, Note_on_c, 0, 75, 0
2, 180480, Note_on_c, 0, 76, 100
2, 180720, Note_on_c, 0, 76, 0
2, 180720, Note_on_c, 0, 67, 100
2, 180840, Note_on_c, 0, 67, 0
2, 180840, Note_on_c, 0, 69, 100
2, 180960, Note_on_c, 0, 69, 0
2, 180960, Note_on_c, 0, 67, 100
2, 181200, Note_on_c, 0, 67, 0
2, 181200, Note_on_c, 0, 79, 100
2, 181440, Note_on_c, 0, 79, 0
2, 181440, Note_on_c, 0, 79, 100
2, 181680, Note_on_c, 0, 79, 0
2, 181920, Note_on_c, 0, 73, 100
2, 182400, Note_on_c, 0, 73, 0
2, 182400, Note_on_c, 0, 74, 100
2, 182640, Note_on_c, 0, 74, 0
2, 183360, Note_on_c, 0, 71, 100
2, 183600, Note_on_c, 0, 71, 0
2, 183600, Note_on_c, 0, 67, 100
2, 183840, Note_on_c, 0, 67, 0
2, 183840, Note_on_c, 0, 68, 100
2, 184080, Note_on_c, 0, 68, 0
2, 184080, Note_on_c, 0, 65, 100
2, 184320, Note_on_c, 0, 65, 0
2, 184320, Note_on_c, 0, 64, 100
2, 184440, Note_on_c, 0, 64, 0
2, 184440, Note_on_c, 0, 62, 100
2, 184560, Note_on_c, 0, 62, 0
2, 184560, Note_on_c, 0, 60, 100
2, 184680, Note_on_c, 0, 60, 0
2, 184680, Note_on_c, 0, 62, 100
2, 184800, Note_on_c, 0, 62, 0
2, 184800, Note_on_c, 0, 64, 100
2, 184920, Note_on_c, 0, 64, 0
2, 184920, Note_on_c, 0, 66, 100
2, 185040, Note_on_c, 0, 66, 0
2, 185040, Note_on_c, 0, 68, 100
2, 185160, Note_on_c, 0, 68, 0
2, 185160, Note_on_c, 0, 69, 100
2, 185280, Note_on_c, 0, 69, 0
2, 185280, Note_on_c, 0, 71, 100
2, 185520, Note_on_c, 0, 71, 0
2, 191040, Note_on_c, 0, 72, 100
2, 191280, Note_on_c, 0, 72, 0
2, 191760, Note_on_c, 0, 72, 100
2, 192000, Note_on_c, 0, 72, 0
2, 192000, Note_on_c, 0, 72, 100
2, 192240, Note_on_c, 0, 72, 0
2, 192720, Note_on_c, 0, 72, 100
2, 192960, Note_on_c, 0, 72, 0
2, 192960, Note_on_c, 0, 72, 100
2, 193200, Note_on_c, 0, 72, 0
2, 193200, Note_on_c, 0, 70, 100
2, 193320, Note_on_c, 0, 70, 0
2, 193320, Note_on_c, 0, 69, 100
2, 193440, Note_on_c, 0, 69, 0
2, 193440, Note_on_c, 0, 70, 100
2, 193680, Note_on_c, 0, 70, 0
2, 193680, Note_on_c, 0, 72, 100
2, 193920, Note_on_c, 0, 72, 0
2, 193920, Note_on_c, 0, 72, 100
2, 194160, Note_on_c, 0, 72, 0
2, 220560, Note_on_c, 0, 67, 100
2, 220800, Note_on_c, 0, 67, 0
2, 220800, Note_on_c, 0, 65, 100
2, 221040, Note_on_c, 0, 65, 0
2, 245760, Note_on_c, 0, 64, 100
2, 246000, Note_on_c, 0, 64, 0
2, 246240, Note_on_c, 0, 69, 100
2, 246480, Note_on_c, 0, 69, 0
2, 247200, Note_on_c, 0, 69, 100
2, 247440, Note_on_c, 0, 69, 0
2, 266160, Note_on_c, 0, 74, 100
2, 266400, Note_on_c, 0, 74, 0
2, 266400, Note_on_c, 0, 72, 100
2, 266640, Note_on_c, 0, 72, 0
2, 269760, Note_on_c, 0, 64, 100
2, 270000, Note_on_c, 0, 64, 0
2, 270720, Note_on_c, 0, 64, 100
2, 270960, Note_on_c, 0, 64, 0
2, 272640, Note_on_c, 0, 81, 100
2, 272880, Note_on_c, 0, 81, 0
2, 272880, Note_on_c, 0, 77, 100
2, 273120, Note_on_c, 0, 77, 0
2, 273120, Note_on_c, 0, 79, 100
2, 273360, Note_on_c, 0, 79, 0
2, 273360, Note_on_c, 0, 76, 100
2, 273600, Note_on_c, 0, 76, 0
2, 273600, Note_on_c, 0, 77, 100
2, 273660, Note_on_c, 0, 77, 0
2, 273660, Note_on_c, 0, 79, 100
2, 273720, Note_on_c, 0, 79, 0
2, 273720, Note_on_c, 0, 81, 100
2, 273780, Note_on_c, 0, 81, 0
2, 273780, Note_on_c, 0, 79, 100
2, 273840, Note_on_c, 0, 79, 0
2, 273840, Note_on_c, 0, 77, 100
2, 273900, Note_on_c, 0, 77, 0
2, 273900, Note_on_c, 0, 76, 100
2, 273960, Note_on_c, 0, 76, 0
2, 273960, Note_on_c, 0, 74, 100
2, 274020, Note_on_c, 0, 74, 0
2, 274020, Note_on_c, 0, 73, 100
2, 274080, Note_on_c, 0, 73, 0
2, 274080, Note_on_c, 0, 74, 100
2, 274140, Note_on_c, 0, 74, 0
2, 274140, Note_on_c, 0, 76, 100
2, 274200, Note_on_c, 0, 76, 0
2, 274200, Note_on_c, 0, 77, 100
2, 274260, Note_on_c, 0, 77, 0
2, 274260, Note_on_c, 0, 76, 100
2, 274320, Note_on_c, 0, 76, 0
2, 274320, Note_on_c, 0, 74, 100
2, 274380, Note_on_c, 0, 74, 0
2, 274380, Note_on_c, 0, 72, 100
2, 274440, Note_on_c, 0, 72, 0
2, 274440, Note_on_c, 0, 71, 100
2, 274500, Note_on_c, 0, 71, 0
2, 274500, Note_on_c, 0, 69, 100
2, 274560, Note_on_c, 0, 69, 0
2, 274560, Note_on_c, 0, 71, 100
2, 274620, Note_on_c, 0, 71, 0
2, 274620, Note_on_c, 0, 72, 100
2, 274680, Note_on_c, 0, 72, 0
2, 274680, Note_on_c, 0, 74, 100
2, 274740, Note_on_c, 0, 74, 0
2, 274740, Note_on_c, 0, 72, 100
2, 274800, Note_on_c, 0, 72, 0
2, 274800, Note_on_c, 0, 71, 100
2, 274860, Note_on_c, 0, 71, 0
2, 274860, Note_on_c, 0, 69, 100
2, 274920, Note_on_c, 0, 69, 0
2, 274920, Note_on_c, 0, 68, 100
2, 274980, Note_on_c, 0, 68, 0
2, 274980, Note_on_c, 0, 66, 100
2, 275040, Note_on_c, 0, 66, 0
2, 275040, Note_on_c, 0, 68, 100
2, 275100, Note_on_c, 0, 68, 0
2, 275100, Note_on_c, 0, 69, 100
2, 275160, Note_on_c, 0, 69, 0
2, 275160, Note_on_c, 0, 71, 100
2, 275220, Note_on_c, 0, 71, 0
2, 275220, Note_on_c, 0, 69, 100
2, 275280, Note_on_c, 0, 69, 0
2, 275280, Note_on_c, 0, 68, 100
2, 275340, Note_on_c, 0, 68, 0
2, 275340, Note_on_c, 0, 66, 100
2, 275400, Note_on_c, 0, 66, 0
2, 275400, Note_on_c, 0, 64, 100
2, 275460, Note_on_c, 0, 64, 0
2, 275460, Note_on_c, 0, 62, 100
2, 275520, Note_on_c, 0, 62, 0
2, 275520, Note_on_c, 0, 60, 100
2, 275760, Note_on_c, 0, 60, 0
2, 275760, Note_on_c, 0, 57, 100
2, 276000, Note_on_c, 0, 57, 0
2, 276000, Note_on_c, 0, 64, 100
2, 276240, Note_on_c, 0, 64, 0
2, 276240, Note_on_c, 0, 64, 100
2, 276480, Note_on_c, 0, 64, 0
2, 276480, Note_on_c, 0, 57, 100
2, 277440, Note_on_c, 0, 57, 0
2, 277440, End_track
3, 0, Start_track
3, 0, MIDI_port, 0
3, 0, Title_t, "--------------------------------------"
3, 0, Program_c, 1, 40
3, 0, Control_c, 1, 7, 100
3, 0, Control_c, 1, 10, 59
3, 2160, Note_on_c, 1, 69, 100
3, 2280, Note_on_c, 1, 69, 0
3, 2280, Note_on_c, 1, 68, 100
3, 2400, Note_on_c, 1, 68, 0
3, 2400, Note_on_c, 1, 69, 100
3, 2640, Note_on_c, 1, 69, 0
3, 2640, Note_on_c, 1, 57, 100
3, 2880, Note_on_c, 1, 57, 0
3, 2880, Note_on_c, 1, 64, 100
3, 3120, Note_on_c, 1, 64, 0
3, 3120, Note_on_c, 1, 67, 100
3, 3360, Note_on_c, 1, 67, 0
3, 3360, Note_on_c, 1, 66, 100
3, 3600, Note_on_c, 1, 66, 0
3, 3600, Note_on_c, 1, 69, 100
3, 3840, Note_on_c, 1, 69, 0
3, 3840, Note_on_c, 1, 68, 100
3, 4320, Note_on_c, 1, 68, 0
3, 4320, Note_on_c, 1, 67, 100
3, 4800, Note_on_c, 1, 67, 0
3, 4800, Note_on_c, 1, 66, 100
3, 5280, Note_on_c, 1, 66, 0
3, 5280, Note_on_c, 1, 65, 100
3, 5760, Note_on_c, 1, 65, 0
3, 5760, Note_on_c, 1, 64, 100
3, 6240, Note_on_c, 1, 64, 0
3, 6480, Note_on_c, 1, 66, 100
3, 6720, Note_on_c, 1, 66, 0
3, 6720, Note_on_c, 1, 67, 100
3, 7200, Note_on_c, 1, 67, 0
3, 7200, Note_on_c, 1, 63, 100
3, 7680, Note_on_c, 1, 63, 0
3, 7680, Note_on_c, 1, 64, 100
3, 8160, Note_on_c, 1, 64, 0
3, 8400, Note_on_c, 1, 64, 100
3, 8640, Note_on_c, 1, 64, 0
3, 8640, Note_on_c, 1, 69, 100
3, 9120, Note_on_c, 1, 69, 0
3, 9360, Note_on_c, 1, 69, 100
3, 9600, Note_on_c, 1, 69, 0
3, 9600, Note_on_c, 1, 69, 100
3, 9840, Note_on_c, 1, 69, 0
3, 9840, Note_on_c, 1, 74, 100
3, 9960, Note_on_c, 1, 74, 0
3, 9960, Note_on_c, 1, 73, 100
3, 10080, Note_on_c, 1, 73, 0
3, 10080, Note_on_c, 1, 74, 100
3, 10320, Note_on_c, 1, 74, 0
3, 10320, Note_on_c, 1, 69, 100
3, 10560, Note_on_c, 1, 69, 0
3, 10560, Note_on_c, 1, 71, 100
3, 11040, Note_on_c, 1, 71, 0
3, 11520, Note_on_c, 1, 60, 100
3, 11640, Note_on_c, 1, 60, 0
3, 12480, Note_on_c, 1, 60, 100
3, 12720, Note_on_c, 1, 60, 0
3, 13200, Note_on_c, 1, 60, 100
3, 13440, Note_on_c, 1, 60, 0
3, 13440, Note_on_c, 1, 59, 100
3, 13680, Note_on_c, 1, 59, 0
3, 14160, Note_on_c, 1, 57, 100
3, 14400, Note_on_c, 1, 57, 0
3, 14400, Note_on_c, 1, 56, 100
3, 14640, Note_on_c, 1, 56, 0
3, 15360, Note_on_c, 1, 57, 100
3, 15480, Note_on_c, 1, 57, 0
3, 29760, Note_on_c, 1, 67, 100
3, 30000, Note_on_c, 1, 67, 0
3, 30000, Note_on_c, 1, 79, 100
3, 30120, Note_on_c, 1, 79, 0
3, 30120, Note_on_c, 1, 78, 100
3, 30240, Note_on_c, 1, 78, 0
3, 30240, Note_on_c, 1, 79, 100
3, 30480, Note_on_c, 1, 79, 0
3, 30480, Note_on_c, 1, 67, 100
3, 30720, Note_on_c, 1, 67, 0
3, 30720, Note_on_c, 1, 60, 100
3, 30960, Note_on_c, 1, 60, 0
3, 30960, Note_on_c, 1, 82, 100
3, 31080, Note_on_c, 1, 82, 0
3, 31080, Note_on_c, 1, 79, 100
3, 31200, Note_on_c, 1, 79, 0
3, 31200, Note_on_c, 1, 77, 100
3, 31320, Note_on_c, 1, 77, 0
3, 31320, Note_on_c, 1, 76, 100
3, 31440, Note_on_c, 1, 76, 0
3, 31440, Note_on_c, 1, 74, 100
3, 31560, Note_on_c, 1, 74, 0
3, 31560, Note_on_c, 1, 72, 100
3, 31680, Note_on_c, 1, 72, 0
3, 31680, Note_on_c, 1, 72, 100
3, 31920, Note_on_c, 1, 72, 0
3, 32640, Note_on_c, 1, 79, 100
3, 32880, Note_on_c, 1, 79, 0
3, 32880, Note_on_c, 1, 79, 100
3, 33000, Note_on_c, 1, 79, 0
3, 33000, Note_on_c, 1, 76, 100
3, 33120, Note_on_c, 1, 76, 0
3, 33120, Note_on_c, 1, 74, 100
3, 33240, Note_on_c, 1, 74, 0
3, 33240, Note_on_c, 1, 73, 100
3, 33360, Note_on_c, 1, 73, 0
3, 33360, Note_on_c, 1, 71, 100
3, 33480, Note_on_c, 1, 71, 0
3, 33480, Note_on_c, 1, 69, 100
3, 33600, Note_on_c, 1, 69, 0
3, 33600, Note_on_c, 1, 77, 100
3, 33720, Note_on_c, 1, 77, 0
3, 33720, Note_on_c, 1, 79, 100
3, 33840, Note_on_c, 1, 79, 0
3, 33840, Note_on_c, 1, 77, 100
3, 33960, Note_on_c, 1, 77, 0
3, 33960, Note_on_c, 1, 76, 100
3, 34080, Note_on_c, 1, 76, 0
3, 34080, Note_on_c, 1, 74, 100
3, 34200, Note_on_c, 1, 74, 0
3, 34200, Note_on_c, 1, 72, 100
3, 34320, Note_on_c, 1, 72, 0
3, 34320, Note_on_c, 1, 70, 100
3, 34440, Note_on_c, 1, 70, 0
3, 34440, Note_on_c, 1, 69, 100
3, 34560, Note_on_c, 1, 69, 0
3, 34560, Note_on_c, 1, 70, 100
3, 34800, Note_on_c, 1, 70, 0
3, 35520, Note_on_c, 1, 80, 100
3, 35760, Note_on_c, 1, 80, 0
3, 35760, Note_on_c, 1, 81, 100
3, 35880, Note_on_c, 1, 81, 0
3, 35880, Note_on_c, 1, 80, 100
3, 36000, Note_on_c, 1, 80, 0
3, 36000, Note_on_c, 1, 81, 100
3, 36240, Note_on_c, 1, 81, 0
3, 36240, Note_on_c, 1, 81, 100
3, 36480, Note_on_c, 1, 81, 0
3, 36480, Note_on_c, 1, 81, 100
3, 36720, Note_on_c, 1, 81, 0
3, 37200, Note_on_c, 1, 80, 100
3, 37440, Note_on_c, 1, 80, 0
3, 37440, Note_on_c, 1, 79, 100
3, 37680, Note_on_c, 1, 79, 0
3, 37920, Note_on_c, 1, 77, 100
3, 38160, Note_on_c, 1, 77, 0
3, 38400, Note_on_c, 1, 76, 100
3, 38640, Note_on_c, 1, 76, 0
3, 39120, Note_on_c, 1, 76, 100
3, 39360, Note_on_c, 1, 76, 0
3, 39360, Note_on_c, 1, 76, 100
3, 39600, Note_on_c, 1, 76, 0
3, 39600, Note_on_c, 1, 74, 100
3, 39720, Note_on_c, 1, 74, 0
3, 39720, Note_on_c, 1, 73, 100
3, 39840, Note_on_c, 1, 73, 0
3, 39840, Note_on_c, 1, 74, 100
3, 40080, Note_on_c, 1, 74, 0
3, 40080, Note_on_c, 1, 70, 100
3, 40320, Note_on_c, 1, 70, 0
3, 40560, Note_on_c, 1, 74, 100
3, 40800, Note_on_c, 1, 74, 0
3, 40800, Note_on_c, 1, 72, 100
3, 41040, Note_on_c, 1, 72, 0
3, 42840, Note_on_c, 1, 69, 100
3, 42960, Note_on_c, 1, 69, 0
3, 43080, Note_on_c, 1, 69, 100
3, 43200, Note_on_c, 1, 69, 0
3, 43320, Note_on_c, 1, 69, 100
3, 43440, Note_on_c, 1, 69, 0
3, 43560, Note_on_c, 1, 69, 100
3, 43680, Note_on_c, 1, 69, 0
3, 43800, Note_on_c, 1, 69, 100
3, 43920, Note_on_c, 1, 69, 0
3, 44040, Note_on_c, 1, 69, 100
3, 44160, Note_on_c, 1, 69, 0
3, 44160, Note_on_c, 1, 69, 75
3, 44280, Note_on_c, 1, 69, 0
3, 44760, Note_on_c, 1, 69, 75
3, 44880, Note_on_c, 1, 69, 0
3, 45000, Note_on_c, 1, 69, 75
3, 45120, Note_on_c, 1, 69, 0
3, 45240, Note_on_c, 1, 69, 75
3, 45360, Note_on_c, 1, 69, 0
3, 45480, Note_on_c, 1, 69, 75
3, 45600, Note_on_c, 1, 69, 0
3, 45720, Note_on_c, 1, 69, 75
3, 45840, Note_on_c, 1, 69, 0
3, 45960, Note_on_c, 1, 69, 75
3, 46080, Note_on_c, 1, 69, 0
3, 46200, Note_on_c, 1, 69, 100
3, 46320, Note_on_c, 1, 69, 0
3, 46440, Note_on_c, 1, 69, 100
3, 46560, Note_on_c, 1, 69, 0
3, 46680, Note_on_c, 1, 69, 100
3, 46800, Note_on_c, 1, 69, 0
3, 46920, Note_on_c, 1, 69, 100
3, 47040, Note_on_c, 1, 69, 0
3, 47160, Note_on_c, 1, 69, 75
3, 47280, Note_on_c, 1, 69, 0
3, 47400, Note_on_c, 1, 69, 75
3, 47520, Note_on_c, 1, 69, 0
3, 47640, Note_on_c, 1, 69, 75
3, 47760, Note_on_c, 1, 69, 0
3, 47880, Note_on_c, 1, 69, 75
3, 48000, Note_on_c, 1, 69, 0
3, 48600, Note_on_c, 1, 69, 100
3, 48720, Note_on_c, 1, 69, 0
3, 48840, Note_on_c, 1, 69, 100
3, 48960, Note_on_c, 1, 69, 0
3, 49560, Note_on_c, 1, 69, 75
3, 49680, Note_on_c, 1, 69, 0
3, 49800, Note_on_c, 1, 69, 75
3, 49920, Note_on_c, 1, 69, 0
3, 50520, Note_on_c, 1, 76, 100
3, 50640, Note_on_c, 1, 76, 0
3, 50760, Note_on_c, 1, 76, 100
3, 50880, Note_on_c, 1, 76, 0
3, 51000, Note_on_c, 1, 76, 100
3, 51120, Note_on_c, 1, 76, 0
3, 51240, Note_on_c, 1, 76, 100
3, 51360, Note_on_c, 1, 76, 0
3, 51480, Note_on_c, 1, 76, 100
3, 51600, Note_on_c, 1, 76, 0
3, 51720, Note_on_c, 1, 76, 100
3, 51840, Note_on_c, 1, 76, 0
3, 51840, Note_on_c, 1, 76, 75
3, 51960, Note_on_c, 1, 76, 0
3, 52440, Note_on_c, 1, 76, 75
3, 52560, Note_on_c, 1, 76, 0
3, 52680, Note_on_c, 1, 76, 75
3, 52800, Note_on_c, 1, 76, 0
3, 52920, Note_on_c, 1, 76, 75
3, 53040, Note_on_c, 1, 76, 0
3, 53160, Note_on_c, 1, 76, 75
3, 53280, Note_on_c, 1, 76, 0
3, 53400, Note_on_c, 1, 76, 75
3, 53520, Note_on_c, 1, 76, 0
3, 53640, Note_on_c, 1, 76, 75
3, 53760, Note_on_c, 1, 76, 0
3, 53880, Note_on_c, 1, 76, 100
3, 54000, Note_on_c, 1, 76, 0
3, 54120, Note_on_c, 1, 76, 100
3, 54240, Note_on_c, 1, 76, 0
3, 54360, Note_on_c, 1, 76, 100
3, 54480, Note_on_c, 1, 76, 0
3, 54600, Note_on_c, 1, 76, 100
3, 54720, Note_on_c, 1, 76, 0
3, 54840, Note_on_c, 1, 76, 75
3, 54960, Note_on_c, 1, 76, 0
3, 55080, Note_on_c, 1, 76, 75
3, 55200, Note_on_c, 1, 76, 0
3, 55320, Note_on_c, 1, 76, 75
3, 55440, Note_on_c, 1, 76, 0
3, 55560, Note_on_c, 1, 76, 75
3, 55680, Note_on_c, 1, 76, 0
3, 56280, Note_on_c, 1, 76, 100
3, 56400, Note_on_c, 1, 76, 0
3, 56520, Note_on_c, 1, 76, 100
3, 56640, Note_on_c, 1, 76, 0
3, 56760, Note_on_c, 1, 76, 100
3, 56880, Note_on_c, 1, 76, 0
3, 57000, Note_on_c, 1, 76, 100
3, 57120, Note_on_c, 1, 76, 0
3, 57240, Note_on_c, 1, 81, 100
3, 57360, Note_on_c, 1, 81, 0
3, 57480, Note_on_c, 1, 81, 100
3, 57600, Note_on_c, 1, 81, 0
3, 59520, Note_on_c, 1, 71, 100
3, 59760, Note_on_c, 1, 71, 0
3, 60240, Note_on_c, 1, 71, 100
3, 60480, Note_on_c, 1, 71, 0
3, 61440, Note_on_c, 1, 76, 100
3, 61680, Note_on_c, 1, 76, 0
3, 61680, Note_on_c, 1, 81, 100
3, 61800, Note_on_c, 1, 81, 0
3, 61800, Note_on_c, 1, 80, 100
3, 61920, Note_on_c, 1, 80, 0
3, 61920, Note_on_c, 1, 81, 100
3, 62040, Note_on_c, 1, 81, 0
3, 62040, Note_on_c, 1, 78, 100
3, 62160, Note_on_c, 1, 78, 0
3, 62160, Note_on_c, 1, 79, 100
3, 62280, Note_on_c, 1, 79, 0
3, 62280, Note_on_c, 1, 76, 100
3, 62400, Note_on_c, 1, 76, 0
3, 62400, Note_on_c, 1, 75, 100
3, 62640, Note_on_c, 1, 75, 0
3, 63120, Note_on_c, 1, 78, 100
3, 63360, Note_on_c, 1, 78, 0
3, 63360, Note_on_c, 1, 71, 100
3, 63600, Note_on_c, 1, 71, 0
3, 63600, Note_on_c, 1, 76, 100
3, 63720, Note_on_c, 1, 76, 0
3, 63720, Note_on_c, 1, 75, 100
3, 63840, Note_on_c, 1, 75, 0
3, 63840, Note_on_c, 1, 76, 100
3, 63960, Note_on_c, 1, 76, 0
3, 63960, Note_on_c, 1, 72, 100
3, 64080, Note_on_c, 1, 72, 0
3, 64080, Note_on_c, 1, 74, 100
3, 64200, Note_on_c, 1, 74, 0
3, 64200, Note_on_c, 1, 71, 100
3, 64320, Note_on_c, 1, 71, 0
3, 64320, Note_on_c, 1, 72, 100
3, 64560, Note_on_c, 1, 72, 0
3, 64560, Note_on_c, 1, 71, 100
3, 64800, Note_on_c, 1, 71, 0
3, 64800, Note_on_c, 1, 70, 100
3, 65040, Note_on_c, 1, 70, 0
3, 65280, Note_on_c, 1, 63, 100
3, 65520, Note_on_c, 1, 63, 0
3, 66000, Note_on_c, 1, 63, 100
3, 66240, Note_on_c, 1, 63, 0
3, 66240, Note_on_c, 1, 64, 100
3, 66480, Note_on_c, 1, 64, 0
3, 66720, Note_on_c, 1, 57, 100
3, 66960, Note_on_c, 1, 57, 0
3, 67200, Note_on_c, 1, 57, 100
3, 67440, Note_on_c, 1, 57, 0
3, 67680, Note_on_c, 1, 55, 100
3, 67920, Note_on_c, 1, 55, 0
3, 67920, Note_on_c, 1, 57, 100
3, 68160, Note_on_c, 1, 57, 0
3, 68160, Note_on_c, 1, 59, 100
3, 68400, Note_on_c, 1, 59, 0
3, 68640, Note_on_c, 1, 63, 100
3, 68880, Note_on_c, 1, 63, 0
3, 69120, Note_on_c, 1, 64, 100
3, 69360, Note_on_c, 1, 64, 0
3, 69360, Note_on_c, 1, 67, 100
3, 69480, Note_on_c, 1, 67, 0
3, 69480, Note_on_c, 1, 66, 100
3, 69600, Note_on_c, 1, 66, 0
3, 69600, Note_on_c, 1, 67, 100
3, 69840, Note_on_c, 1, 67, 0
3, 69840, Note_on_c, 1, 69, 100
3, 70080, Note_on_c, 1, 69, 0
3, 70080, Note_on_c, 1, 71, 100
3, 70320, Note_on_c, 1, 71, 0
3, 70320, Note_on_c, 1, 66, 100
3, 70440, Note_on_c, 1, 66, 0
3, 70440, Note_on_c, 1, 64, 100
3, 70560, Note_on_c, 1, 64, 0
3, 70560, Note_on_c, 1, 66, 100
3, 70800, Note_on_c, 1, 66, 0
3, 70800, Note_on_c, 1, 68, 100
3, 71040, Note_on_c, 1, 68, 0
3, 71040, Note_on_c, 1, 69, 100
3, 71520, Note_on_c, 1, 69, 0
3, 71520, Note_on_c, 1, 69, 100
3, 72000, Note_on_c, 1, 69, 0
3, 72000, Note_on_c, 1, 68, 100
3, 72480, Note_on_c, 1, 68, 0
3, 72480, Note_on_c, 1, 67, 100
3, 72960, Note_on_c, 1, 67, 0
3, 72960, Note_on_c, 1, 66, 100
3, 73200, Note_on_c, 1, 66, 0
3, 73200, Note_on_c, 1, 65, 100
3, 73320, Note_on_c, 1, 65, 0
3, 73320, Note_on_c, 1, 64, 100
3, 73440, Note_on_c, 1, 64, 0
3, 73440, Note_on_c, 1, 65, 100
3, 73680, Note_on_c, 1, 65, 0
3, 73680, Note_on_c, 1, 67, 100
3, 73920, Note_on_c, 1, 67, 0
3, 73920, Note_on_c, 1, 69, 100
3, 74160, Note_on_c, 1, 69, 0
3, 74160, Note_on_c, 1, 64, 100
3, 74280, Note_on_c, 1, 64, 0
3, 74280, Note_on_c, 1, 62, 100
3, 74400, Note_on_c, 1, 62, 0
3, 74400, Note_on_c, 1, 64, 100
3, 74640, Note_on_c, 1, 64, 0
3, 74640, Note_on_c, 1, 66, 100
3, 74880, Note_on_c, 1, 66, 0
3, 74880, Note_on_c, 1, 67, 100
3, 75360, Note_on_c, 1, 67, 0
3, 75360, Note_on_c, 1, 67, 100
3, 75840, Note_on_c, 1, 67, 0
3, 75840, Note_on_c, 1, 66, 100
3, 76320, Note_on_c, 1, 66, 0
3, 76320, Note_on_c, 1, 65, 100
3, 76800, Note_on_c, 1, 65, 0
3, 76800, Note_on_c, 1, 64, 100
3, 77040, Note_on_c, 1, 64, 0
3, 77520, Note_on_c, 1, 60, 100
3, 77760, Note_on_c, 1, 60, 0
3, 77760, Note_on_c, 1, 57, 100
3, 78000, Note_on_c, 1, 57, 0
3, 78240, Note_on_c, 1, 59, 100
3, 78480, Note_on_c, 1, 59, 0
3, 78720, Note_on_c, 1, 60, 100
3, 78960, Note_on_c, 1, 60, 0
3, 79200, Note_on_c, 1, 62, 100
3, 79440, Note_on_c, 1, 62, 0
3, 79680, Note_on_c, 1, 64, 100
3, 79920, Note_on_c, 1, 64, 0
3, 80640, Note_on_c, 1, 65, 100
3, 80880, Note_on_c, 1, 65, 0
3, 81600, Note_on_c, 1, 66, 100
3, 81840, Note_on_c, 1, 66, 0
3, 82560, Note_on_c, 1, 67, 100
3, 82800, Note_on_c, 1, 67, 0
3, 85680, Note_on_c, 1, 79, 100
3, 85920, Note_on_c, 1, 79, 0
3, 85920, Note_on_c, 1, 79, 100
3, 86160, Note_on_c, 1, 79, 0
3, 86160, Note_on_c, 1, 78, 100
3, 86400, Note_on_c, 1, 78, 0
3, 86400, Note_on_c, 1, 79, 100
3, 86640, Note_on_c, 1, 79, 0
3, 87120, Note_on_c, 1, 74, 100
3, 87360, Note_on_c, 1, 74, 0
3, 87360, Note_on_c, 1, 76, 100
3, 87600, Note_on_c, 1, 76, 0
3, 87840, Note_on_c, 1, 77, 100
3, 88080, Note_on_c, 1, 77, 0
3, 90240, Note_on_c, 1, 72, 100
3, 90480, Note_on_c, 1, 72, 0
3, 92160, Note_on_c, 1, 62, 100
3, 92400, Note_on_c, 1, 62, 0
3, 93120, Note_on_c, 1, 59, 100
3, 93360, Note_on_c, 1, 59, 0
3, 94080, Note_on_c, 1, 60, 100
3, 94320, Note_on_c, 1, 60, 0
3, 94320, Note_on_c, 1, 58, 100
3, 94440, Note_on_c, 1, 58, 0
3, 94440, Note_on_c, 1, 57, 100
3, 94560, Note_on_c, 1, 57, 0
3, 94560, Note_on_c, 1, 58, 100
3, 94800, Note_on_c, 1, 58, 0
3, 94800, Note_on_c, 1, 55, 100
3, 95040, Note_on_c, 1, 55, 0
3, 95040, Note_on_c, 1, 57, 100
3, 95280, Note_on_c, 1, 57, 0
3, 96000, Note_on_c, 1, 55, 100
3, 96120, Note_on_c, 1, 55, 0
3, 97920, Note_on_c, 1, 60, 100
3, 98160, Note_on_c, 1, 60, 0
3, 98640, Note_on_c, 1, 60, 100
3, 98880, Note_on_c, 1, 60, 0
3, 98880, Note_on_c, 1, 60, 100
3, 99120, Note_on_c, 1, 60, 0
3, 99360, Note_on_c, 1, 59, 100
3, 99600, Note_on_c, 1, 59, 0
3, 99840, Note_on_c, 1, 57, 100
3, 100080, Note_on_c, 1, 57, 0
3, 100320, Note_on_c, 1, 59, 100
3, 100560, Note_on_c, 1, 59, 0
3, 100800, Note_on_c, 1, 60, 100
3, 101040, Note_on_c, 1, 60, 0
3, 101760, Note_on_c, 1, 60, 100
3, 102000, Note_on_c, 1, 60, 0
3, 102000, Note_on_c, 1, 62, 100
3, 102120, Note_on_c, 1, 62, 0
3, 102120, Note_on_c, 1, 60, 100
3, 102240, Note_on_c, 1, 60, 0
3, 102240, Note_on_c, 1, 62, 100
3, 102360, Note_on_c, 1, 62, 0
3, 102360, Note_on_c, 1, 59, 100
3, 102480, Note_on_c, 1, 59, 0
3, 102480, Note_on_c, 1, 60, 100
3, 102600, Note_on_c, 1, 60, 0
3, 102600, Note_on_c, 1, 57, 100
3, 102720, Note_on_c, 1, 57, 0
3, 102720, Note_on_c, 1, 59, 100
3, 102960, Note_on_c, 1, 59, 0
3, 103680, Note_on_c, 1, 57, 100
3, 103920, Note_on_c, 1, 57, 0
3, 104640, Note_on_c, 1, 57, 100
3, 104880, Note_on_c, 1, 57, 0
3, 125520, Note_on_c, 1, 72, 100
3, 125760, Note_on_c, 1, 72, 0
3, 125760, Note_on_c, 1, 72, 100
3, 126000, Note_on_c, 1, 72, 0
3, 126240, Note_on_c, 1, 55, 100
3, 126480, Note_on_c, 1, 55, 0
3, 126720, Note_on_c, 1, 60, 100
3, 126960, Note_on_c, 1, 60, 0
3, 128880, Note_on_c, 1, 75, 100
3, 129120, Note_on_c, 1, 75, 0
3, 129120, Note_on_c, 1, 76, 100
3, 129360, Note_on_c, 1, 76, 0
3, 137280, Note_on_c, 1, 60, 100
3, 137520, Note_on_c, 1, 60, 0
3, 138240, Note_on_c, 1, 57, 100
3, 138480, Note_on_c, 1, 57, 0
3, 138960, Note_on_c, 1, 57, 100
3, 139200, Note_on_c, 1, 57, 0
3, 139200, Note_on_c, 1, 62, 100
3, 139440, Note_on_c, 1, 62, 0
3, 139920, Note_on_c, 1, 62, 100
3, 140160, Note_on_c, 1, 62, 0
3, 140160, Note_on_c, 1, 55, 100
3, 140400, Note_on_c, 1, 55, 0
3, 140880, Note_on_c, 1, 55, 100
3, 141120, Note_on_c, 1, 55, 0
3, 141120, Note_on_c, 1, 60, 100
3, 141360, Note_on_c, 1, 60, 0
3, 141840, Note_on_c, 1, 60, 100
3, 142080, Note_on_c, 1, 60, 0
3, 142080, Note_on_c, 1, 65, 100
3, 142320, Note_on_c, 1, 65, 0
3, 142560, Note_on_c, 1, 69, 100
3, 142800, Note_on_c, 1, 69, 0
3, 143040, Note_on_c, 1, 70, 100
3, 143280, Note_on_c, 1, 70, 0
3, 143520, Note_on_c, 1, 71, 100
3, 143760, Note_on_c, 1, 71, 0
3, 144000, Note_on_c, 1, 72, 100
3, 144240, Note_on_c, 1, 72, 0
3, 144240, Note_on_c, 1, 72, 100
3, 144360, Note_on_c, 1, 72, 0
3, 144360, Note_on_c, 1, 74, 100
3, 144480, Note_on_c, 1, 74, 0
3, 144480, Note_on_c, 1, 72, 100
3, 144720, Note_on_c, 1, 72, 0
3, 144720, Note_on_c, 1, 71, 100
3, 144960, Note_on_c, 1, 71, 0
3, 144960, Note_on_c, 1, 69, 100
3, 145200, Note_on_c, 1, 69, 0
3, 145200, Note_on_c, 1, 74, 100
3, 145320, Note_on_c, 1, 74, 0
3, 145320, Note_on_c, 1, 76, 100
3, 145440, Note_on_c, 1, 76, 0
3, 145440, Note_on_c, 1, 74, 100
3, 145680, Note_on_c, 1, 74, 0
3, 145680, Note_on_c, 1, 72, 100
3, 145920, Note_on_c, 1, 72, 0
3, 145920, Note_on_c, 1, 71, 100
3, 146160, Note_on_c, 1, 71, 0
3, 146400, Note_on_c, 1, 71, 100
3, 146640, Note_on_c, 1, 71, 0
3, 146880, Note_on_c, 1, 72, 100
3, 147120, Note_on_c, 1, 72, 0
3, 147360, Note_on_c, 1, 73, 100
3, 147600, Note_on_c, 1, 73, 0
3, 147840, Note_on_c, 1, 62, 100
3, 148080, Note_on_c, 1, 62, 0
3, 148320, Note_on_c, 1, 62, 100
3, 148560, Note_on_c, 1, 62, 0
3, 148800, Note_on_c, 1, 64, 100
3, 149040, Note_on_c, 1, 64, 0
3, 149280, Note_on_c, 1, 64, 100
3, 149520, Note_on_c, 1, 64, 0
3, 149760, Note_on_c, 1, 65, 100
3, 150000, Note_on_c, 1, 65, 0
3, 151680, Note_on_c, 1, 64, 100
3, 151920, Note_on_c, 1, 64, 0
3, 153600, Note_on_c, 1, 62, 100
3, 153840, Note_on_c, 1, 62, 0
3, 156000, Note_on_c, 1, 59, 100
3, 156240, Note_on_c, 1, 59, 0
3, 156480, Note_on_c, 1, 60, 100
3, 156720, Note_on_c, 1, 60, 0
3, 158400, Note_on_c, 1, 55, 100
3, 158640, Note_on_c, 1, 55, 0
3, 159120, Note_on_c, 1, 55, 100
3, 159360, Note_on_c, 1, 55, 0
3, 159360, Note_on_c, 1, 57, 100
3, 159600, Note_on_c, 1, 57, 0
3, 160320, Note_on_c, 1, 57, 100
3, 160560, Note_on_c, 1, 57, 0
3, 161280, Note_on_c, 1, 59, 100
3, 161400, Note_on_c, 1, 59, 0
3, 164160, Note_on_c, 1, 64, 100
3, 164400, Note_on_c, 1, 64, 0
3, 164880, Note_on_c, 1, 62, 100
3, 165120, Note_on_c, 1, 62, 0
3, 165120, Note_on_c, 1, 60, 100
3, 165360, Note_on_c, 1, 60, 0
3, 166080, Note_on_c, 1, 59, 100
3, 166320, Note_on_c, 1, 59, 0
3, 166800, Note_on_c, 1, 57, 100
3, 167040, Note_on_c, 1, 57, 0
3, 167040, Note_on_c, 1, 55, 100
3, 167280, Note_on_c, 1, 55, 0
3, 167520, Note_on_c, 1, 56, 100
3, 167760, Note_on_c, 1, 56, 0
3, 168000, Note_on_c, 1, 57, 100
3, 168240, Note_on_c, 1, 57, 0
3, 179760, Note_on_c, 1, 67, 100
3, 180000, Note_on_c, 1, 67, 0
3, 180000, Note_on_c, 1, 69, 100
3, 180240, Note_on_c, 1, 69, 0
3, 180240, Note_on_c, 1, 71, 100
3, 180480, Note_on_c, 1, 71, 0
3, 180480, Note_on_c, 1, 64, 100
3, 180720, Note_on_c, 1, 64, 0
3, 181200, Note_on_c, 1, 64, 100
3, 181440, Note_on_c, 1, 64, 0
3, 181440, Note_on_c, 1, 64, 100
3, 181680, Note_on_c, 1, 64, 0
3, 183360, Note_on_c, 1, 62, 100
3, 183600, Note_on_c, 1, 62, 0
3, 185280, Note_on_c, 1, 64, 100
3, 185400, Note_on_c, 1, 64, 0
3, 185400, Note_on_c, 1, 65, 100
3, 185520, Note_on_c, 1, 65, 0
3, 185520, Note_on_c, 1, 64, 100
3, 185640, Note_on_c, 1, 64, 0
3, 185640, Note_on_c, 1, 60, 100
3, 185760, Note_on_c, 1, 60, 0
3, 185760, Note_on_c, 1, 62, 100
3, 185880, Note_on_c, 1, 62, 0
3, 185880, Note_on_c, 1, 64, 100
3, 186000, Note_on_c, 1, 64, 0
3, 186000, Note_on_c, 1, 62, 100
3, 186120, Note_on_c, 1, 62, 0
3, 186120, Note_on_c, 1, 59, 100
3, 186240, Note_on_c, 1, 59, 0
3, 186240, Note_on_c, 1, 60, 100
3, 186360, Note_on_c, 1, 60, 0
3, 186360, Note_on_c, 1, 62, 100
3, 186480, Note_on_c, 1, 62, 0
3, 186480, Note_on_c, 1, 60, 100
3, 186600, Note_on_c, 1, 60, 0
3, 186600, Note_on_c, 1, 57, 100
3, 186720, Note_on_c, 1, 57, 0
3, 186720, Note_on_c, 1, 64, 100
3, 186840, Note_on_c, 1, 64, 0
3, 186840, Note_on_c, 1, 65, 100
3, 186960, Note_on_c, 1, 65, 0
3, 186960, Note_on_c, 1, 64, 100
3, 187080, Note_on_c, 1, 64, 0
3, 187080, Note_on_c, 1, 60, 100
3, 187200, Note_on_c, 1, 60, 0
3, 187200, Note_on_c, 1, 69, 100
3, 187320, Note_on_c, 1, 69, 0
3, 187320, Note_on_c, 1, 71, 100
3, 187440, Note_on_c, 1, 71, 0
3, 187440, Note_on_c, 1, 69, 100
3, 187560, Note_on_c, 1, 69, 0
3, 187560, Note_on_c, 1, 64, 100
3, 187680, Note_on_c, 1, 64, 0
3, 187680, Note_on_c, 1, 72, 100
3, 187800, Note_on_c, 1, 72, 0
3, 187800, Note_on_c, 1, 74, 100
3, 187920, Note_on_c, 1, 74, 0
3, 187920, Note_on_c, 1, 72, 100
3, 188040, Note_on_c, 1, 72, 0
3, 188040, Note_on_c, 1, 69, 100
3, 188160, Note_on_c, 1, 69, 0
3, 188160, Note_on_c, 1, 70, 100
3, 188400, Note_on_c, 1, 70, 0
3, 188400, Note_on_c, 1, 79, 100
3, 188520, Note_on_c, 1, 79, 0
3, 188520, Note_on_c, 1, 77, 100
3, 188640, Note_on_c, 1, 77, 0
3, 188640, Note_on_c, 1, 79, 100
3, 188880, Note_on_c, 1, 79, 0
3, 188880, Note_on_c, 1, 67, 100
3, 189120, Note_on_c, 1, 67, 0
3, 189120, Note_on_c, 1, 69, 100
3, 189240, Note_on_c, 1, 69, 0
3, 189240, Note_on_c, 1, 72, 100
3, 189360, Note_on_c, 1, 72, 0
3, 189360, Note_on_c, 1, 70, 100
3, 189480, Note_on_c, 1, 70, 0
3, 189480, Note_on_c, 1, 69, 100
3, 189600, Note_on_c, 1, 69, 0
3, 189600, Note_on_c, 1, 70, 100
3, 189720, Note_on_c, 1, 70, 0
3, 189720, Note_on_c, 1, 74, 100
3, 189840, Note_on_c, 1, 74, 0
3, 189840, Note_on_c, 1, 72, 100
3, 189960, Note_on_c, 1, 72, 0
3, 189960, Note_on_c, 1, 70, 100
3, 190080, Note_on_c, 1, 70, 0
3, 190080, Note_on_c, 1, 72, 100
3, 190200, Note_on_c, 1, 72, 0
3, 190200, Note_on_c, 1, 75, 100
3, 190320, Note_on_c, 1, 75, 0
3, 190320, Note_on_c, 1, 74, 100
3, 190440, Note_on_c, 1, 74, 0
3, 190440, Note_on_c, 1, 72, 100
3, 190560, Note_on_c, 1, 72, 0
3, 190560, Note_on_c, 1, 74, 100
3, 190680, Note_on_c, 1, 74, 0
3, 190680, Note_on_c, 1, 77, 100
3, 190800, Note_on_c, 1, 77, 0
3, 190800, Note_on_c, 1, 76, 100
3, 190920, Note_on_c, 1, 76, 0
3, 190920, Note_on_c, 1, 74, 100
3, 191040, Note_on_c, 1, 74, 0
3, 191040, Note_on_c, 1, 76, 100
3, 191280, Note_on_c, 1, 76, 0
3, 191760, Note_on_c, 1, 76, 100
3, 192000, Note_on_c, 1, 76, 0
3, 192000, Note_on_c, 1, 77, 100
3, 192240, Note_on_c, 1, 77, 0
3, 192720, Note_on_c, 1, 77, 100
3, 192960, Note_on_c, 1, 77, 0
3, 192960, Note_on_c, 1, 79, 100
3, 193200, Note_on_c, 1, 79, 0
3, 193680, Note_on_c, 1, 79, 100
3, 193920, Note_on_c, 1, 79, 0
3, 193920, Note_on_c, 1, 81, 100
3, 194160, Note_on_c, 1, 81, 0
3, 194160, Note_on_c, 1, 79, 100
3, 194400, Note_on_c, 1, 79, 0
3, 194400, Note_on_c, 1, 82, 100
3, 194640, Note_on_c, 1, 82, 0
3, 194640, Note_on_c, 1, 81, 100
3, 194880, Note_on_c, 1, 81, 0
3, 194880, Note_on_c, 1, 79, 100
3, 195120, Note_on_c, 1, 79, 0
3, 195120, Note_on_c, 1, 77, 100
3, 195240, Note_on_c, 1, 77, 0
3, 195240, Note_on_c, 1, 76, 100
3, 195360, Note_on_c, 1, 76, 0
3, 195360, Note_on_c, 1, 77, 100
3, 195480, Note_on_c, 1, 77, 0
3, 195480, Note_on_c, 1, 81, 100
3, 195600, Note_on_c, 1, 81, 0
3, 195600, Note_on_c, 1, 79, 100
3, 195720, Note_on_c, 1, 79, 0
3, 195720, Note_on_c, 1, 77, 100
3, 195840, Note_on_c, 1, 77, 0
3, 195840, Note_on_c, 1, 76, 100
3, 195960, Note_on_c, 1, 76, 0
3, 195960, Note_on_c, 1, 79, 100
3, 196080, Note_on_c, 1, 79, 0
3, 196080, Note_on_c, 1, 77, 100
3, 196200, Note_on_c, 1, 77, 0
3, 196200, Note_on_c, 1, 76, 100
3, 196320, Note_on_c, 1, 76, 0
3, 196320, Note_on_c, 1, 74, 100
3, 196440, Note_on_c, 1, 74, 0
3, 196440, Note_on_c, 1, 72, 100
3, 196560, Note_on_c, 1, 72, 0
3, 196560, Note_on_c, 1, 70, 100
3, 196680, Note_on_c, 1, 70, 0
3, 196680, Note_on_c, 1, 69, 100
3, 196800, Note_on_c, 1, 69, 0
3, 196800, Note_on_c, 1, 70, 100
3, 196920, Note_on_c, 1, 70, 0
3, 196920, Note_on_c, 1, 69, 100
3, 197040, Note_on_c, 1, 69, 0
3, 197040, Note_on_c, 1, 70, 100
3, 197160, Note_on_c, 1, 70, 0
3, 197160, Note_on_c, 1, 62, 100
3, 197280, Note_on_c, 1, 62, 0
3, 197280, Note_on_c, 1, 65, 100
3, 197400, Note_on_c, 1, 65, 0
3, 197400, Note_on_c, 1, 70, 100
3, 197520, Note_on_c, 1, 70, 0
3, 197520, Note_on_c, 1, 74, 100
3, 197640, Note_on_c, 1, 74, 0
3, 197640, Note_on_c, 1, 77, 100
3, 197760, Note_on_c, 1, 77, 0
3, 197760, Note_on_c, 1, 82, 100
3, 197880, Note_on_c, 1, 82, 0
3, 197880, Note_on_c, 1, 81, 100
3, 198000, Note_on_c, 1, 81, 0
3, 198000, Note_on_c, 1, 82, 100
3, 198120, Note_on_c, 1, 82, 0
3, 198120, Note_on_c, 1, 77, 100
3, 198240, Note_on_c, 1, 77, 0
3, 198240, Note_on_c, 1, 74, 100
3, 198360, Note_on_c, 1, 74, 0
3, 198360, Note_on_c, 1, 70, 100
3, 198480, Note_on_c, 1, 70, 0
3, 198480, Note_on_c, 1, 65, 100
3, 198600, Note_on_c, 1, 65, 0
3, 198600, Note_on_c, 1, 62, 100
3, 198720, Note_on_c, 1, 62, 0
3, 198720, Note_on_c, 1, 72, 100
3, 198840, Note_on_c, 1, 72, 0
3, 198840, Note_on_c, 1, 70, 100
3, 198960, Note_on_c, 1, 70, 0
3, 198960, Note_on_c, 1, 72, 100
3, 199080, Note_on_c, 1, 72, 0
3, 199080, Note_on_c, 1, 64, 100
3, 199200, Note_on_c, 1, 64, 0
3, 199200, Note_on_c, 1, 67, 100
3, 199320, Note_on_c, 1, 67, 0
3, 199320, Note_on_c, 1, 72, 100
3, 199440, Note_on_c, 1, 72, 0
3, 199440, Note_on_c, 1, 76, 100
3, 199560, Note_on_c, 1, 76, 0
3, 199560, Note_on_c, 1, 79, 100
3, 199680, Note_on_c, 1, 79, 0
3, 199680, Note_on_c, 1, 82, 100
3, 199800, Note_on_c, 1, 82, 0
3, 199800, Note_on_c, 1, 81, 100
3, 199920, Note_on_c, 1, 81, 0
3, 199920, Note_on_c, 1, 82, 100
3, 200040, Note_on_c, 1, 82, 0
3, 200040, Note_on_c, 1, 79, 100
3, 200160, Note_on_c, 1, 79, 0
3, 200160, Note_on_c, 1, 76, 100
3, 200280, Note_on_c, 1, 76, 0
3, 200280, Note_on_c, 1, 72, 100
3, 200400, Note_on_c, 1, 72, 0
3, 200400, Note_on_c, 1, 67, 100
3, 200520, Note_on_c, 1, 67, 0
3, 200520, Note_on_c, 1, 64, 100
3, 200640, Note_on_c, 1, 64, 0
3, 200640, Note_on_c, 1, 72, 100
3, 200760, Note_on_c, 1, 72, 0
3, 200760, Note_on_c, 1, 70, 100
3, 200880, Note_on_c, 1, 70, 0
3, 200880, Note_on_c, 1, 72, 100
3, 201000, Note_on_c, 1, 72, 0
3, 201000, Note_on_c, 1, 65, 100
3, 201120, Note_on_c, 1, 65, 0
3, 201120, Note_on_c, 1, 69, 100
3, 201240, Note_on_c, 1, 69, 0
3, 201240, Note_on_c, 1, 72, 100
3, 201360, Note_on_c, 1, 72, 0
3, 201360, Note_on_c, 1, 77, 100
3, 201480, Note_on_c, 1, 77, 0
3, 201480, Note_on_c, 1, 79, 100
3, 201600, Note_on_c, 1, 79, 0
3, 201600, Note_on_c, 1, 81, 100
3, 201720, Note_on_c, 1, 81, 0
3, 201720, Note_on_c, 1, 79, 100
3, 201840, Note_on_c, 1, 79, 0
3, 201840, Note_on_c, 1, 81, 100
3, 201960, Note_on_c, 1, 81, 0
3, 201960, Note_on_c, 1, 77, 100
3, 202080, Note_on_c, 1, 77, 0
3, 202080, Note_on_c, 1, 72, 100
3, 202200, Note_on_c, 1, 72, 0
3, 202200, Note_on_c, 1, 69, 100
3, 202320, Note_on_c, 1, 69, 0
3, 202320, Note_on_c, 1, 65, 100
3, 202440, Note_on_c, 1, 65, 0
3, 202440, Note_on_c, 1, 69, 100
3, 202560, Note_on_c, 1, 69, 0
3, 202560, Note_on_c, 1, 72, 100
3, 202680, Note_on_c, 1, 72, 0
3, 202680, Note_on_c, 1, 70, 100
3, 202800, Note_on_c, 1, 70, 0
3, 202800, Note_on_c, 1, 72, 100
3, 202920, Note_on_c, 1, 72, 0
3, 202920, Note_on_c, 1, 66, 100
3, 203040, Note_on_c, 1, 66, 0
3, 203040, Note_on_c, 1, 69, 100
3, 203160, Note_on_c, 1, 69, 0
3, 203160, Note_on_c, 1, 72, 100
3, 203280, Note_on_c, 1, 72, 0
3, 203280, Note_on_c, 1, 75, 100
3, 203400, Note_on_c, 1, 75, 0
3, 203400, Note_on_c, 1, 78, 100
3, 203520, Note_on_c, 1, 78, 0
3, 203520, Note_on_c, 1, 81, 100
3, 203640, Note_on_c, 1, 81, 0
3, 203640, Note_on_c, 1, 79, 100
3, 203760, Note_on_c, 1, 79, 0
3, 203760, Note_on_c, 1, 81, 100
3, 203880, Note_on_c, 1, 81, 0
3, 203880, Note_on_c, 1, 75, 100
3, 204000, Note_on_c, 1, 75, 0
3, 204000, Note_on_c, 1, 72, 100
3, 204120, Note_on_c, 1, 72, 0
3, 204120, Note_on_c, 1, 69, 100
3, 204240, Note_on_c, 1, 69, 0
3, 204240, Note_on_c, 1, 66, 100
3, 204360, Note_on_c, 1, 66, 0
3, 204360, Note_on_c, 1, 69, 100
3, 204480, Note_on_c, 1, 69, 0
3, 204480, Note_on_c, 1, 70, 100
3, 204600, Note_on_c, 1, 70, 0
3, 204600, Note_on_c, 1, 69, 100
3, 204720, Note_on_c, 1, 69, 0
3, 204720, Note_on_c, 1, 70, 100
3, 204840, Note_on_c, 1, 70, 0
3, 204840, Note_on_c, 1, 67, 100
3, 204960, Note_on_c, 1, 67, 0
3, 204960, Note_on_c, 1, 70, 100
3, 205080, Note_on_c, 1, 70, 0
3, 205080, Note_on_c, 1, 74, 100
3, 205200, Note_on_c, 1, 74, 0
3, 205200, Note_on_c, 1, 78, 100
3, 205320, Note_on_c, 1, 78, 0
3, 205320, Note_on_c, 1, 81, 100
3, 205440, Note_on_c, 1, 81, 0
3, 205440, Note_on_c, 1, 79, 100
3, 205560, Note_on_c, 1, 79, 0
3, 205560, Note_on_c, 1, 78, 100
3, 205680, Note_on_c, 1, 78, 0
3, 205680, Note_on_c, 1, 79, 100
3, 205800, Note_on_c, 1, 79, 0
3, 205800, Note_on_c, 1, 74, 100
3, 205920, Note_on_c, 1, 74, 0
3, 205920, Note_on_c, 1, 70, 100
3, 206040, Note_on_c, 1, 70, 0
3, 206040, Note_on_c, 1, 67, 100
3, 206160, Note_on_c, 1, 67, 0
3, 206160, Note_on_c, 1, 63, 100
3, 206280, Note_on_c, 1, 63, 0
3, 206280, Note_on_c, 1, 62, 100
3, 206400, Note_on_c, 1, 62, 0
3, 206400, Note_on_c, 1, 61, 100
3, 206520, Note_on_c, 1, 61, 0
3, 206520, Note_on_c, 1, 59, 100
3, 206640, Note_on_c, 1, 59, 0
3, 206640, Note_on_c, 1, 61, 100
3, 206760, Note_on_c, 1, 61, 0
3, 206760, Note_on_c, 1, 64, 100
3, 206880, Note_on_c, 1, 64, 0
3, 206880, Note_on_c, 1, 69, 100
3, 207000, Note_on_c, 1, 69, 0
3, 207000, Note_on_c, 1, 73, 100
3, 207120, Note_on_c, 1, 73, 0
3, 207120, Note_on_c, 1, 76, 100
3, 207240, Note_on_c, 1, 76, 0
3, 207240, Note_on_c, 1, 77, 100
3, 207360, Note_on_c, 1, 77, 0
3, 207360, Note_on_c, 1, 79, 100
3, 207480, Note_on_c, 1, 79, 0
3, 207480, Note_on_c, 1, 77, 100
3, 207600, Note_on_c, 1, 77, 0
3, 207600, Note_on_c, 1, 79, 100
3, 207720, Note_on_c, 1, 79, 0
3, 207720, Note_on_c, 1, 76, 100
3, 207840, Note_on_c, 1, 76, 0
3, 207840, Note_on_c, 1, 73, 100
3, 207960, Note_on_c, 1, 73, 0
3, 207960, Note_on_c, 1, 69, 100
3, 208080, Note_on_c, 1, 69, 0
3, 208080, Note_on_c, 1, 64, 100
3, 208200, Note_on_c, 1, 64, 0
3, 208200, Note_on_c, 1, 61, 100
3, 208320, Note_on_c, 1, 61, 0
3, 208320, Note_on_c, 1, 62, 100
3, 208440, Note_on_c, 1, 62, 0
3, 208440, Note_on_c, 1, 61, 100
3, 208560, Note_on_c, 1, 61, 0
3, 208560, Note_on_c, 1, 62, 100
3, 208680, Note_on_c, 1, 62, 0
3, 208680, Note_on_c, 1, 65, 100
3, 208800, Note_on_c, 1, 65, 0
3, 208800, Note_on_c, 1, 69, 100
3, 208920, Note_on_c, 1, 69, 0
3, 208920, Note_on_c, 1, 74, 100
3, 209040, Note_on_c, 1, 74, 0
3, 209040, Note_on_c, 1, 77, 100
3, 209160, Note_on_c, 1, 77, 0
3, 209160, Note_on_c, 1, 60, 100
3, 209280, Note_on_c, 1, 60, 0
3, 209280, Note_on_c, 1, 58, 100
3, 209400, Note_on_c, 1, 58, 0
3, 209400, Note_on_c, 1, 57, 100
3, 209520, Note_on_c, 1, 57, 0
3, 209520, Note_on_c, 1, 58, 100
3, 209640, Note_on_c, 1, 58, 0
3, 209640, Note_on_c, 1, 65, 100
3, 209760, Note_on_c, 1, 65, 0
3, 209760, Note_on_c, 1, 70, 100
3, 209880, Note_on_c, 1, 70, 0
3, 209880, Note_on_c, 1, 74, 100
3, 210000, Note_on_c, 1, 74, 0
3, 210000, Note_on_c, 1, 77, 100
3, 210120, Note_on_c, 1, 77, 0
3, 210120, Note_on_c, 1, 57, 100
3, 210240, Note_on_c, 1, 57, 0
3, 210240, Note_on_c, 1, 55, 100
3, 210360, Note_on_c, 1, 55, 0
3, 210360, Note_on_c, 1, 62, 100
3, 210480, Note_on_c, 1, 62, 0
3, 210480, Note_on_c, 1, 67, 100
3, 210600, Note_on_c, 1, 67, 0
3, 210600, Note_on_c, 1, 69, 100
3, 210720, Note_on_c, 1, 69, 0
3, 210720, Note_on_c, 1, 70, 100
3, 210840, Note_on_c, 1, 70, 0
3, 210840, Note_on_c, 1, 74, 100
3, 210960, Note_on_c, 1, 74, 0
3, 210960, Note_on_c, 1, 75, 100
3, 211080, Note_on_c, 1, 75, 0
3, 211080, Note_on_c, 1, 79, 100
3, 211200, Note_on_c, 1, 79, 0
3, 211200, Note_on_c, 1, 73, 100
3, 211440, Note_on_c, 1, 73, 0
3, 211440, Note_on_c, 1, 81, 100
3, 211560, Note_on_c, 1, 81, 0
3, 211560, Note_on_c, 1, 79, 100
3, 211680, Note_on_c, 1, 79, 0
3, 211680, Note_on_c, 1, 81, 100
3, 211920, Note_on_c, 1, 81, 0
3, 211920, Note_on_c, 1, 69, 100
3, 212160, Note_on_c, 1, 69, 0
3, 212160, Note_on_c, 1, 74, 100
3, 212400, Note_on_c, 1, 74, 0
3, 212400, Note_on_c, 1, 77, 100
3, 212640, Note_on_c, 1, 77, 0
3, 212640, Note_on_c, 1, 76, 100
3, 212880, Note_on_c, 1, 76, 0
3, 212880, Note_on_c, 1, 79, 100
3, 213120, Note_on_c, 1, 79, 0
3, 213120, Note_on_c, 1, 77, 100
3, 213360, Note_on_c, 1, 77, 0
3, 213840, Note_on_c, 1, 77, 100
3, 214080, Note_on_c, 1, 77, 0
3, 214080, Note_on_c, 1, 76, 100
3, 214320, Note_on_c, 1, 76, 0
3, 214560, Note_on_c, 1, 75, 100
3, 214800, Note_on_c, 1, 75, 0
3, 215040, Note_on_c, 1, 75, 100
3, 215280, Note_on_c, 1, 75, 0
3, 215280, Note_on_c, 1, 74, 100
3, 215400, Note_on_c, 1, 74, 0
3, 215400, Note_on_c, 1, 73, 100
3, 215520, Note_on_c, 1, 73, 0
3, 215520, Note_on_c, 1, 74, 100
3, 215760, Note_on_c, 1, 74, 0
3, 215760, Note_on_c, 1, 86, 100
3, 216000, Note_on_c, 1, 86, 0
3, 216000, Note_on_c, 1, 79, 100
3, 216120, Note_on_c, 1, 79, 0
3, 216120, Note_on_c, 1, 77, 100
3, 216240, Note_on_c, 1, 77, 0
3, 216240, Note_on_c, 1, 76, 100
3, 216360, Note_on_c, 1, 76, 0
3, 216360, Note_on_c, 1, 79, 100
3, 216480, Note_on_c, 1, 79, 0
3, 216480, Note_on_c, 1, 77, 100
3, 216600, Note_on_c, 1, 77, 0
3, 216600, Note_on_c, 1, 76, 100
3, 216720, Note_on_c, 1, 76, 0
3, 216720, Note_on_c, 1, 74, 100
3, 216840, Note_on_c, 1, 74, 0
3, 216840, Note_on_c, 1, 77, 100
3, 216960, Note_on_c, 1, 77, 0
3, 216960, Note_on_c, 1, 75, 100
3, 217080, Note_on_c, 1, 75, 0
3, 217080, Note_on_c, 1, 74, 100
3, 217200, Note_on_c, 1, 74, 0
3, 217200, Note_on_c, 1, 73, 100
3, 217320, Note_on_c, 1, 73, 0
3, 217320, Note_on_c, 1, 74, 100
3, 217440, Note_on_c, 1, 74, 0
3, 217440, Note_on_c, 1, 82, 100
3, 217680, Note_on_c, 1, 82, 0
3, 217680, Note_on_c, 1, 81, 100
3, 217920, Note_on_c, 1, 81, 0
3, 217920, Note_on_c, 1, 75, 100
3, 218040, Note_on_c, 1, 75, 0
3, 218040, Note_on_c, 1, 73, 100
3, 218160, Note_on_c, 1, 73, 0
3, 218160, Note_on_c, 1, 74, 100
3, 218400, Note_on_c, 1, 74, 0
3, 218400, Note_on_c, 1, 82, 100
3, 218640, Note_on_c, 1, 82, 0
3, 218640, Note_on_c, 1, 81, 100
3, 218880, Note_on_c, 1, 81, 0
3, 218880, Note_on_c, 1, 74, 100
3, 219120, Note_on_c, 1, 74, 0
3, 219120, Note_on_c, 1, 73, 100
3, 219360, Note_on_c, 1, 73, 0
3, 219360, Note_on_c, 1, 79, 100
3, 219600, Note_on_c, 1, 79, 0
3, 219600, Note_on_c, 1, 70, 100
3, 219840, Note_on_c, 1, 70, 0
3, 219840, Note_on_c, 1, 69, 100
3, 220080, Note_on_c, 1, 69, 0
3, 220080, Note_on_c, 1, 79, 100
3, 220320, Note_on_c, 1, 79, 0
3, 220320, Note_on_c, 1, 77, 100
3, 220560, Note_on_c, 1, 77, 0
3, 220560, Note_on_c, 1, 76, 100
3, 220800, Note_on_c, 1, 76, 0
3, 220800, Note_on_c, 1, 69, 100
3, 221040, Note_on_c, 1, 69, 0
3, 221040, Note_on_c, 1, 74, 100
3, 221280, Note_on_c, 1, 74, 0
3, 221280, Note_on_c, 1, 64, 100
3, 221520, Note_on_c, 1, 64, 0
3, 221520, Note_on_c, 1, 73, 100
3, 221760, Note_on_c, 1, 73, 0
3, 221760, Note_on_c, 1, 74, 100
3, 222000, Note_on_c, 1, 74, 0
3, 222000, Note_on_c, 1, 65, 100
3, 222120, Note_on_c, 1, 65, 0
3, 222120, Note_on_c, 1, 64, 100
3, 222240, Note_on_c, 1, 64, 0
3, 222240, Note_on_c, 1, 65, 100
3, 222480, Note_on_c, 1, 65, 0
3, 222480, Note_on_c, 1, 67, 100
3, 222720, Note_on_c, 1, 67, 0
3, 222720, Note_on_c, 1, 69, 100
3, 222960, Note_on_c, 1, 69, 0
3, 222960, Note_on_c, 1, 64, 100
3, 223080, Note_on_c, 1, 64, 0
3, 223080, Note_on_c, 1, 62, 100
3, 223200, Note_on_c, 1, 62, 0
3, 223200, Note_on_c, 1, 64, 100
3, 223440, Note_on_c, 1, 64, 0
3, 223440, Note_on_c, 1, 66, 100
3, 223680, Note_on_c, 1, 66, 0
3, 223680, Note_on_c, 1, 67, 100
3, 224160, Note_on_c, 1, 67, 0
3, 224160, Note_on_c, 1, 67, 100
3, 224640, Note_on_c, 1, 67, 0
3, 224640, Note_on_c, 1, 66, 100
3, 225120, Note_on_c, 1, 66, 0
3, 225120, Note_on_c, 1, 65, 100
3, 225600, Note_on_c, 1, 65, 0
3, 225600, Note_on_c, 1, 64, 100
3, 225840, Note_on_c, 1, 64, 0
3, 225840, Note_on_c, 1, 64, 100
3, 225960, Note_on_c, 1, 64, 0
3, 225960, Note_on_c, 1, 62, 100
3, 226080, Note_on_c, 1, 62, 0
3, 226080, Note_on_c, 1, 64, 100
3, 226320, Note_on_c, 1, 64, 0
3, 226320, Note_on_c, 1, 65, 100
3, 226560, Note_on_c, 1, 65, 0
3, 226560, Note_on_c, 1, 67, 100
3, 226800, Note_on_c, 1, 67, 0
3, 226800, Note_on_c, 1, 62, 100
3, 226920, Note_on_c, 1, 62, 0
3, 226920, Note_on_c, 1, 60, 100
3, 227040, Note_on_c, 1, 60, 0
3, 227040, Note_on_c, 1, 62, 100
3, 227280, Note_on_c, 1, 62, 0
3, 227280, Note_on_c, 1, 64, 100
3, 227520, Note_on_c, 1, 64, 0
3, 227520, Note_on_c, 1, 65, 100
3, 228000, Note_on_c, 1, 65, 0
3, 228000, Note_on_c, 1, 65, 100
3, 228480, Note_on_c, 1, 65, 0
3, 228480, Note_on_c, 1, 64, 100
3, 228960, Note_on_c, 1, 64, 0
3, 228960, Note_on_c, 1, 63, 100
3, 229440, Note_on_c, 1, 63, 0
3, 229440, Note_on_c, 1, 62, 100
3, 229680, Note_on_c, 1, 62, 0
3, 229680, Note_on_c, 1, 70, 100
3, 229800, Note_on_c, 1, 70, 0
3, 229800, Note_on_c, 1, 72, 100
3, 229920, Note_on_c, 1, 72, 0
3, 229920, Note_on_c, 1, 70, 100
3, 230160, Note_on_c, 1, 70, 0
3, 230160, Note_on_c, 1, 69, 100
3, 230400, Note_on_c, 1, 69, 0
3, 230400, Note_on_c, 1, 67, 100
3, 230640, Note_on_c, 1, 67, 0
3, 230640, Note_on_c, 1, 72, 100
3, 230760, Note_on_c, 1, 72, 0
3, 230760, Note_on_c, 1, 74, 100
3, 230880, Note_on_c, 1, 74, 0
3, 230880, Note_on_c, 1, 72, 100
3, 231120, Note_on_c, 1, 72, 0
3, 231120, Note_on_c, 1, 70, 100
3, 231360, Note_on_c, 1, 70, 0
3, 231360, Note_on_c, 1, 69, 100
3, 231840, Note_on_c, 1, 69, 0
3, 231840, Note_on_c, 1, 69, 100
3, 232320, Note_on_c, 1, 69, 0
3, 232320, Note_on_c, 1, 70, 100
3, 232800, Note_on_c, 1, 70, 0
3, 232800, Note_on_c, 1, 71, 100
3, 233280, Note_on_c, 1, 71, 0
3, 233280, Note_on_c, 1, 72, 100
3, 233520, Note_on_c, 1, 72, 0
3, 233520, Note_on_c, 1, 72, 100
3, 233640, Note_on_c, 1, 72, 0
3, 233640, Note_on_c, 1, 74, 100
3, 233760, Note_on_c, 1, 74, 0
3, 233760, Note_on_c, 1, 72, 100
3, 234000, Note_on_c, 1, 72, 0
3, 234000, Note_on_c, 1, 70, 100
3, 234240, Note_on_c, 1, 70, 0
3, 234240, Note_on_c, 1, 69, 100
3, 234480, Note_on_c, 1, 69, 0
3, 234480, Note_on_c, 1, 74, 100
3, 234600, Note_on_c, 1, 74, 0
3, 234600, Note_on_c, 1, 76, 100
3, 234720, Note_on_c, 1, 76, 0
3, 234720, Note_on_c, 1, 74, 100
3, 234960, Note_on_c, 1, 74, 0
3, 234960, Note_on_c, 1, 72, 100
3, 235200, Note_on_c, 1, 72, 0
3, 235200, Note_on_c, 1, 70, 100
3, 235680, Note_on_c, 1, 70, 0
3, 235680, Note_on_c, 1, 71, 100
3, 236160, Note_on_c, 1, 71, 0
3, 236160, Note_on_c, 1, 72, 100
3, 236640, Note_on_c, 1, 72, 0
3, 236640, Note_on_c, 1, 73, 100
3, 237120, Note_on_c, 1, 73, 0
3, 237120, Note_on_c, 1, 74, 100
3, 237360, Note_on_c, 1, 74, 0
3, 237360, Note_on_c, 1, 69, 100
3, 237480, Note_on_c, 1, 69, 0
3, 237480, Note_on_c, 1, 70, 100
3, 237600, Note_on_c, 1, 70, 0
3, 237600, Note_on_c, 1, 69, 100
3, 237840, Note_on_c, 1, 69, 0
3, 237840, Note_on_c, 1, 81, 100
3, 238080, Note_on_c, 1, 81, 0
3, 238080, Note_on_c, 1, 74, 100
3, 238320, Note_on_c, 1, 74, 0
3, 238320, Note_on_c, 1, 70, 100
3, 238560, Note_on_c, 1, 70, 0
3, 238560, Note_on_c, 1, 72, 100
3, 238800, Note_on_c, 1, 72, 0
3, 238800, Note_on_c, 1, 69, 100
3, 239040, Note_on_c, 1, 69, 0
3, 239040, Note_on_c, 1, 70, 100
3, 239160, Note_on_c, 1, 70, 0
3, 239160, Note_on_c, 1, 69, 100
3, 239280, Note_on_c, 1, 69, 0
3, 239280, Note_on_c, 1, 67, 100
3, 239400, Note_on_c, 1, 67, 0
3, 239400, Note_on_c, 1, 69, 100
3, 239520, Note_on_c, 1, 69, 0
3, 239520, Note_on_c, 1, 70, 100
3, 239760, Note_on_c, 1, 70, 0
3, 239760, Note_on_c, 1, 79, 100
3, 240000, Note_on_c, 1, 79, 0
3, 240000, Note_on_c, 1, 72, 100
3, 240240, Note_on_c, 1, 72, 0
3, 240240, Note_on_c, 1, 69, 100
3, 240480, Note_on_c, 1, 69, 0
3, 240480, Note_on_c, 1, 70, 100
3, 240720, Note_on_c, 1, 70, 0
3, 240720, Note_on_c, 1, 67, 100
3, 240960, Note_on_c, 1, 67, 0
3, 240960, Note_on_c, 1, 69, 100
3, 241200, Note_on_c, 1, 69, 0
3, 241200, Note_on_c, 1, 72, 100
3, 241320, Note_on_c, 1, 72, 0
3, 241320, Note_on_c, 1, 70, 100
3, 241440, Note_on_c, 1, 70, 0
3, 241440, Note_on_c, 1, 72, 100
3, 241680, Note_on_c, 1, 72, 0
3, 242160, Note_on_c, 1, 77, 100
3, 242400, Note_on_c, 1, 77, 0
3, 242640, Note_on_c, 1, 75, 100
3, 242880, Note_on_c, 1, 75, 0
3, 243120, Note_on_c, 1, 74, 100
3, 243240, Note_on_c, 1, 74, 0
3, 243240, Note_on_c, 1, 72, 100
3, 243360, Note_on_c, 1, 72, 0
3, 243360, Note_on_c, 1, 74, 100
3, 243600, Note_on_c, 1, 74, 0
3, 244080, Note_on_c, 1, 79, 100
3, 244320, Note_on_c, 1, 79, 0
3, 244560, Note_on_c, 1, 77, 100
3, 244800, Note_on_c, 1, 77, 0
3, 245040, Note_on_c, 1, 76, 100
3, 245160, Note_on_c, 1, 76, 0
3, 245160, Note_on_c, 1, 77, 100
3, 245280, Note_on_c, 1, 77, 0
3, 245280, Note_on_c, 1, 79, 100
3, 245520, Note_on_c, 1, 79, 0
3, 245520, Note_on_c, 1, 81, 100
3, 245760, Note_on_c, 1, 81, 0
3, 245760, Note_on_c, 1, 82, 100
3, 246000, Note_on_c, 1, 82, 0
3, 246000, Note_on_c, 1, 81, 100
3, 246240, Note_on_c, 1, 81, 0
3, 246240, Note_on_c, 1, 81, 100
3, 246480, Note_on_c, 1, 81, 0
3, 246480, Note_on_c, 1, 79, 100
3, 246720, Note_on_c, 1, 79, 0
3, 246720, Note_on_c, 1, 79, 100
3, 246960, Note_on_c, 1, 79, 0
3, 246960, Note_on_c, 1, 77, 100
3, 247200, Note_on_c, 1, 77, 0
3, 247200, Note_on_c, 1, 77, 100
3, 247440, Note_on_c, 1, 77, 0
3, 247440, Note_on_c, 1, 76, 100
3, 247680, Note_on_c, 1, 76, 0
3, 247680, Note_on_c, 1, 74, 100
3, 247800, Note_on_c, 1, 74, 0
3, 247800, Note_on_c, 1, 76, 100
3, 247920, Note_on_c, 1, 76, 0
3, 247920, Note_on_c, 1, 74, 100
3, 248040, Note_on_c, 1, 74, 0
3, 248040, Note_on_c, 1, 76, 100
3, 248160, Note_on_c, 1, 76, 0
3, 248160, Note_on_c, 1, 77, 100
3, 248400, Note_on_c, 1, 77, 0
3, 248400, Note_on_c, 1, 57, 100
3, 248640, Note_on_c, 1, 57, 0
3, 248640, Note_on_c, 1, 56, 100
3, 248640, Pitch_bend_c, 1, 12288
3, 248680, Pitch_bend_c, 1, 8192
3, 248720, Pitch_bend_c, 1, 12288
3, 248760, Pitch_bend_c, 1, 8192
3, 249000, Note_on_c, 1, 56, 0
3, 249000, Note_on_c, 1, 77, 100
3, 249120, Note_on_c, 1, 77, 0
3, 249120, Note_on_c, 1, 76, 100
3, 249240, Note_on_c, 1, 76, 0
3, 249240, Note_on_c, 1, 74, 100
3, 249360, Note_on_c, 1, 74, 0
3, 249360, Note_on_c, 1, 72, 100
3, 249480, Note_on_c, 1, 72, 0
3, 249480, Note_on_c, 1, 71, 100
3, 249600, Note_on_c, 1, 71, 0
3, 249600, Note_on_c, 1, 72, 100
3, 249720, Note_on_c, 1, 72, 0
3, 249720, Note_on_c, 1, 69, 100
3, 249840, Note_on_c, 1, 69, 0
3, 249840, Note_on_c, 1, 65, 100
3, 249960, Note_on_c, 1, 65, 0
3, 249960, Note_on_c, 1, 76, 100
3, 250080, Note_on_c, 1, 76, 0
3, 250080, Note_on_c, 1, 74, 100
3, 250200, Note_on_c, 1, 74, 0
3, 250200, Note_on_c, 1, 72, 100
3, 250320, Note_on_c, 1, 72, 0
3, 250320, Note_on_c, 1, 71, 100
3, 250440, Note_on_c, 1, 71, 0
3, 250440, Note_on_c, 1, 69, 100
3, 250560, Note_on_c, 1, 69, 0
3, 250560, Note_on_c, 1, 68, 100
3, 250800, Note_on_c, 1, 68, 0
3, 250800, Note_on_c, 1, 83, 100
3, 250920, Note_on_c, 1, 83, 0
3, 250920, Note_on_c, 1, 81, 100
3, 251040, Note_on_c, 1, 81, 0
3, 251040, Note_on_c, 1, 83, 100
3, 251280, Note_on_c, 1, 83, 0
3, 251280, Note_on_c, 1, 74, 100
3, 251520, Note_on_c, 1, 74, 0
3, 251520, Note_on_c, 1, 72, 100
3, 251640, Note_on_c, 1, 72, 0
3, 251640, Note_on_c, 1, 83, 100
3, 251760, Note_on_c, 1, 83, 0
3, 251760, Note_on_c, 1, 81, 100
3, 251880, Note_on_c, 1, 81, 0
3, 251880, Note_on_c, 1, 80, 100
3, 252000, Note_on_c, 1, 80, 0
3, 252000, Note_on_c, 1, 81, 100
3, 252240, Note_on_c, 1, 81, 0
3, 252240, Note_on_c, 1, 72, 100
3, 252480, Note_on_c, 1, 72, 0
3, 252480, Note_on_c, 1, 71, 100
3, 252720, Note_on_c, 1, 71, 0
3, 252720, Note_on_c, 1, 81, 100
3, 252960, Note_on_c, 1, 81, 0
3, 252960, Note_on_c, 1, 79, 100
3, 253200, Note_on_c, 1, 79, 0
3, 253200, Note_on_c, 1, 70, 100
3, 253440, Note_on_c, 1, 70, 0
3, 253440, Note_on_c, 1, 69, 100
3, 253560, Note_on_c, 1, 69, 0
3, 253560, Note_on_c, 1, 79, 100
3, 253680, Note_on_c, 1, 79, 0
3, 253680, Note_on_c, 1, 77, 100
3, 253800, Note_on_c, 1, 77, 0
3, 253800, Note_on_c, 1, 76, 100
3, 253920, Note_on_c, 1, 76, 0
3, 253920, Note_on_c, 1, 77, 100
3, 254160, Note_on_c, 1, 77, 0
3, 254160, Note_on_c, 1, 69, 100
3, 254400, Note_on_c, 1, 69, 0
3, 254400, Note_on_c, 1, 67, 100
3, 254640, Note_on_c, 1, 67, 0
3, 254640, Note_on_c, 1, 77, 100
3, 254880, Note_on_c, 1, 77, 0
3, 254880, Note_on_c, 1, 76, 100
3, 255120, Note_on_c, 1, 76, 0
3, 255120, Note_on_c, 1, 67, 100
3, 255360, Note_on_c, 1, 67, 0
3, 255360, Note_on_c, 1, 65, 100
3, 255480, Note_on_c, 1, 65, 0
3, 255480, Note_on_c, 1, 76, 100
3, 255600, Note_on_c, 1, 76, 0
3, 255600, Note_on_c, 1, 74, 100
3, 255720, Note_on_c, 1, 74, 0
3, 255720, Note_on_c, 1, 72, 100
3, 255840, Note_on_c, 1, 72, 0
3, 255840, Note_on_c, 1, 74, 100
3, 256080, Note_on_c, 1, 74, 0
3, 256080, Note_on_c, 1, 65, 100
3, 256320, Note_on_c, 1, 65, 0
3, 256320, Note_on_c, 1, 64, 100
3, 256560, Note_on_c, 1, 64, 0
3, 256560, Note_on_c, 1, 74, 100
3, 256800, Note_on_c, 1, 74, 0
3, 256800, Note_on_c, 1, 72, 100
3, 257040, Note_on_c, 1, 72, 0
3, 257040, Note_on_c, 1, 64, 100
3, 257280, Note_on_c, 1, 64, 0
3, 257280, Note_on_c, 1, 65, 100
3, 257520, Note_on_c, 1, 65, 0
3, 257520, Note_on_c, 1, 70, 100
3, 257640, Note_on_c, 1, 70, 0
3, 257640, Note_on_c, 1, 69, 100
3, 257760, Note_on_c, 1, 69, 0
3, 257760, Note_on_c, 1, 70, 100
3, 258000, Note_on_c, 1, 70, 0
3, 258000, Note_on_c, 1, 74, 100
3, 258240, Note_on_c, 1, 74, 0
3, 258240, Note_on_c, 1, 74, 100
3, 258480, Note_on_c, 1, 74, 0
3, 258480, Note_on_c, 1, 77, 100
3, 258720, Note_on_c, 1, 77, 0
3, 258720, Note_on_c, 1, 77, 100
3, 258960, Note_on_c, 1, 77, 0
3, 258960, Note_on_c, 1, 82, 100
3, 259200, Note_on_c, 1, 82, 0
3, 259200, Note_on_c, 1, 80, 100
3, 259440, Note_on_c, 1, 80, 0
3, 259440, Note_on_c, 1, 77, 100
3, 259560, Note_on_c, 1, 77, 0
3, 259560, Note_on_c, 1, 76, 100
3, 259680, Note_on_c, 1, 76, 0
3, 259680, Note_on_c, 1, 81, 100
3, 259920, Note_on_c, 1, 81, 0
3, 260160, Note_on_c, 1, 81, 100
3, 260400, Note_on_c, 1, 81, 0
3, 260880, Note_on_c, 1, 80, 100
3, 261120, Note_on_c, 1, 80, 0
3, 261120, Note_on_c, 1, 81, 100
3, 261360, Note_on_c, 1, 81, 0
3, 261600, Note_on_c, 1, 76, 100
3, 261840, Note_on_c, 1, 76, 0
3, 262080, Note_on_c, 1, 81, 100
3, 262320, Note_on_c, 1, 81, 0
3, 262560, Note_on_c, 1, 79, 100
3, 262800, Note_on_c, 1, 79, 0
3, 263040, Note_on_c, 1, 77, 100
3, 263280, Note_on_c, 1, 77, 0
3, 263280, Note_on_c, 1, 76, 100
3, 263520, Note_on_c, 1, 76, 0
3, 263520, Note_on_c, 1, 76, 100
3, 263760, Note_on_c, 1, 76, 0
3, 263760, Note_on_c, 1, 74, 100
3, 264000, Note_on_c, 1, 74, 0
3, 264000, Note_on_c, 1, 74, 100
3, 264240, Note_on_c, 1, 74, 0
3, 264720, Note_on_c, 1, 72, 100
3, 264960, Note_on_c, 1, 72, 0
3, 264960, Note_on_c, 1, 70, 100
3, 265080, Note_on_c, 1, 70, 0
3, 265080, Note_on_c, 1, 72, 100
3, 265200, Note_on_c, 1, 72, 0
3, 265200, Note_on_c, 1, 74, 100
3, 265320, Note_on_c, 1, 74, 0
3, 265320, Note_on_c, 1, 76, 100
3, 265440, Note_on_c, 1, 76, 0
3, 265440, Note_on_c, 1, 77, 100
3, 265680, Note_on_c, 1, 77, 0
3, 265680, Note_on_c, 1, 69, 100
3, 265920, Note_on_c, 1, 69, 0
3, 265920, Note_on_c, 1, 68, 100
3, 266160, Note_on_c, 1, 68, 0
3, 266160, Note_on_c, 1, 77, 100
3, 266400, Note_on_c, 1, 77, 0
3, 266400, Note_on_c, 1, 76, 100
3, 266640, Note_on_c, 1, 76, 0
3, 266640, Note_on_c, 1, 74, 100
3, 266880, Note_on_c, 1, 74, 0
3, 266880, Note_on_c, 1, 72, 100
3, 267240, Note_on_c, 1, 72, 0
3, 267240, Note_on_c, 1, 74, 100
3, 267360, Note_on_c, 1, 74, 0
3, 267360, Note_on_c, 1, 71, 100
3, 267360, Pitch_bend_c, 1, 12288
3, 267400, Pitch_bend_c, 1, 8192
3, 267440, Pitch_bend_c, 1, 12288
3, 267480, Pitch_bend_c, 1, 8192
3, 267720, Note_on_c, 1, 71, 0
3, 267720, Note_on_c, 1, 69, 100
3, 267840, Note_on_c, 1, 69, 0
3, 267840, Note_on_c, 1, 69, 100
3, 268080, Note_on_c, 1, 69, 0
3, 268800, Note_on_c, 1, 72, 100
3, 269040, Note_on_c, 1, 72, 0
3, 269280, Note_on_c, 1, 71, 100
3, 269520, Note_on_c, 1, 71, 0
3, 269760, Note_on_c, 1, 69, 100
3, 270000, Note_on_c, 1, 69, 0
3, 270720, Note_on_c, 1, 69, 100
3, 270960, Note_on_c, 1, 69, 0
3, 271200, Note_on_c, 1, 68, 100
3, 271440, Note_on_c, 1, 68, 0
3, 271680, Note_on_c, 1, 69, 100
3, 271920, Note_on_c, 1, 69, 0
3, 271920, Note_on_c, 1, 65, 100
3, 272160, Note_on_c, 1, 65, 0
3, 272160, Note_on_c, 1, 67, 100
3, 272400, Note_on_c, 1, 67, 0
3, 272400, Note_on_c, 1, 64, 100
3, 272640, Note_on_c, 1, 64, 0
3, 272640, Note_on_c, 1, 65, 100
3, 272880, Note_on_c, 1, 65, 0
3, 273120, Note_on_c, 1, 64, 100
3, 273360, Note_on_c, 1, 64, 0
3, 273600, Note_on_c, 1, 69, 100
3, 273720, Note_on_c, 1, 69, 0
3, 275760, Note_on_c, 1, 81, 100
3, 276000, Note_on_c, 1, 81, 0
3, 276000, Note_on_c, 1, 81, 100
3, 276240, Note_on_c, 1, 81, 0
3, 276240, Note_on_c, 1, 80, 100
3, 276480, Note_on_c, 1, 80, 0
3, 276480, Note_on_c, 1, 81, 100
3, 277440, Note_on_c, 1, 81, 0
3, 277440, End_track
4, 0, Start_track
4, 0, MIDI_port, 0
4, 0, Title_t, "Johann Sebastian Bach  (1685-1750)"
4, 0, Program_c, 2, 40
4, 0, Control_c, 2, 7, 100
4, 0, Control_c, 2, 10, 79
4, 6000, Note_on_c, 2, 81, 100
4, 6120, Note_on_c, 2, 81, 0
4, 6120, Note_on_c, 2, 80, 100
4, 6240, Note_on_c, 2, 80, 0
4, 6240, Note_on_c, 2, 81, 100
4, 6480, Note_on_c, 2, 81, 0
4, 6480, Note_on_c, 2, 69, 100
4, 6720, Note_on_c, 2, 69, 0
4, 6720, Note_on_c, 2, 76, 100
4, 6960, Note_on_c, 2, 76, 0
4, 6960, Note_on_c, 2, 79, 100
4, 7200, Note_on_c, 2, 79, 0
4, 7200, Note_on_c, 2, 78, 100
4, 7440, Note_on_c, 2, 78, 0
4, 7440, Note_on_c, 2, 81, 100
4, 7680, Note_on_c, 2, 81, 0
4, 7680, Note_on_c, 2, 79, 100
4, 8160, Note_on_c, 2, 79, 0
4, 8400, Note_on_c, 2, 79, 100
4, 8640, Note_on_c, 2, 79, 0
4, 8640, Note_on_c, 2, 79, 100
4, 8880, Note_on_c, 2, 79, 0
4, 8880, Note_on_c, 2, 81, 100
4, 9000, Note_on_c, 2, 81, 0
4, 9000, Note_on_c, 2, 79, 100
4, 9120, Note_on_c, 2, 79, 0
4, 9120, Note_on_c, 2, 81, 100
4, 9360, Note_on_c, 2, 81, 0
4, 9360, Note_on_c, 2, 76, 100
4, 9600, Note_on_c, 2, 76, 0
4, 9600, Note_on_c, 2, 77, 100
4, 10080, Note_on_c, 2, 77, 0
4, 10320, Note_on_c, 2, 77, 100
4, 10560, Note_on_c, 2, 77, 0
4, 10560, Note_on_c, 2, 77, 100
4, 10800, Note_on_c, 2, 77, 0
4, 10800, Note_on_c, 2, 79, 100
4, 10920, Note_on_c, 2, 79, 0
4, 10920, Note_on_c, 2, 77, 100
4, 11040, Note_on_c, 2, 77, 0
4, 11040, Note_on_c, 2, 79, 100
4, 11280, Note_on_c, 2, 79, 0
4, 11280, Note_on_c, 2, 74, 100
4, 11520, Note_on_c, 2, 74, 0
4, 11520, Note_on_c, 2, 76, 100
4, 11640, Note_on_c, 2, 76, 0
4, 11640, Note_on_c, 2, 77, 100
4, 11760, Note_on_c, 2, 77, 0
4, 11760, Note_on_c, 2, 76, 100
4, 11880, Note_on_c, 2, 76, 0
4, 11880, Note_on_c, 2, 74, 100
4, 12000, Note_on_c, 2, 74, 0
4, 12000, Note_on_c, 2, 72, 100
4, 12120, Note_on_c, 2, 72, 0
4, 12120, Note_on_c, 2, 71, 100
4, 12240, Note_on_c, 2, 71, 0
4, 12240, Note_on_c, 2, 69, 100
4, 12360, Note_on_c, 2, 69, 0
4, 12360, Note_on_c, 2, 67, 100
4, 12480, Note_on_c, 2, 67, 0
4, 12480, Note_on_c, 2, 66, 100
4, 12720, Note_on_c, 2, 66, 0
4, 12720, Note_on_c, 2, 74, 100
4, 12840, Note_on_c, 2, 74, 0
4, 12840, Note_on_c, 2, 72, 100
4, 12960, Note_on_c, 2, 72, 0
4, 12960, Note_on_c, 2, 74, 100
4, 13200, Note_on_c, 2, 74, 0
4, 13200, Note_on_c, 2, 66, 100
4, 13440, Note_on_c, 2, 66, 0
4, 13440, Note_on_c, 2, 68, 100
4, 13560, Note_on_c, 2, 68, 0
4, 13560, Note_on_c, 2, 69, 100
4, 13680, Note_on_c, 2, 69, 0
4, 13680, Note_on_c, 2, 71, 100
4, 13800, Note_on_c, 2, 71, 0
4, 13800, Note_on_c, 2, 72, 100
4, 13920, Note_on_c, 2, 72, 0
4, 13920, Note_on_c, 2, 74, 100
4, 14160, Note_on_c, 2, 74, 0
4, 14160, Note_on_c, 2, 65, 100
4, 14400, Note_on_c, 2, 65, 0
4, 14400, Note_on_c, 2, 64, 100
4, 14640, Note_on_c, 2, 64, 0
4, 14640, Note_on_c, 2, 74, 100
4, 14760, Note_on_c, 2, 74, 0
4, 14760, Note_on_c, 2, 72, 100
4, 14880, Note_on_c, 2, 72, 0
4, 14880, Note_on_c, 2, 74, 100
4, 15000, Note_on_c, 2, 74, 0
4, 15000, Note_on_c, 2, 77, 100
4, 15120, Note_on_c, 2, 77, 0
4, 15120, Note_on_c, 2, 76, 100
4, 15240, Note_on_c, 2, 76, 0
4, 15240, Note_on_c, 2, 74, 100
4, 15360, Note_on_c, 2, 74, 0
4, 15360, Note_on_c, 2, 72, 100
4, 15480, Note_on_c, 2, 72, 0
4, 15480, Note_on_c, 2, 74, 100
4, 15600, Note_on_c, 2, 74, 0
4, 15600, Note_on_c, 2, 72, 100
4, 15720, Note_on_c, 2, 72, 0
4, 15720, Note_on_c, 2, 74, 100
4, 15840, Note_on_c, 2, 74, 0
4, 15840, Pitch_bend_c, 2, 16383
4, 15840, Note_on_c, 2, 74, 100
4, 15900, Pitch_bend_c, 2, 8192
4, 15960, Pitch_bend_c, 2, 16383
4, 16020, Pitch_bend_c, 2, 8192
4, 16080, Pitch_bend_c, 2, 16383
4, 16120, Pitch_bend_c, 2, 8192
4, 16160, Pitch_bend_c, 2, 16383
4, 16200, Note_on_c, 2, 74, 0
4, 16200, Note_on_c, 2, 72, 100
4, 16200, Pitch_bend_c, 2, 8192
4, 16260, Note_on_c, 2, 72, 0
4, 16260, Note_on_c, 2, 74, 100
4, 16320, Note_on_c, 2, 74, 0
4, 16320, Note_on_c, 2, 76, 100
4, 16560, Note_on_c, 2, 76, 0
4, 16800, Note_on_c, 2, 79, 100
4, 17280, Note_on_c, 2, 79, 0
4, 17280, Note_on_c, 2, 78, 100
4, 17760, Note_on_c, 2, 78, 0
4, 17760, Note_on_c, 2, 77, 100
4, 18240, Note_on_c, 2, 77, 0
4, 18240, Note_on_c, 2, 76, 100
4, 18720, Note_on_c, 2, 76, 0
4, 18720, Note_on_c, 2, 81, 100
4, 19200, Note_on_c, 2, 81, 0
4, 19200, Note_on_c, 2, 80, 100
4, 19680, Note_on_c, 2, 80, 0
4, 19680, Note_on_c, 2, 79, 100
4, 20160, Note_on_c, 2, 79, 0
4, 20160, Note_on_c, 2, 78, 100
4, 20640, Note_on_c, 2, 78, 0
4, 20640, Note_on_c, 2, 83, 100
4, 21120, Note_on_c, 2, 83, 0
4, 21120, Note_on_c, 2, 82, 100
4, 21600, Note_on_c, 2, 82, 0
4, 21600, Note_on_c, 2, 81, 100
4, 22080, Note_on_c, 2, 81, 0
4, 22080, Note_on_c, 2, 80, 100
4, 22320, Note_on_c, 2, 80, 0
4, 22320, Note_on_c, 2, 79, 100
4, 22440, Note_on_c, 2, 79, 0
4, 22440, Note_on_c, 2, 78, 100
4, 22560, Note_on_c, 2, 78, 0
4, 22560, Note_on_c, 2, 79, 100
4, 22800, Note_on_c, 2, 79, 0
4, 22800, Note_on_c, 2, 81, 100
4, 23040, Note_on_c, 2, 81, 0
4, 23040, Note_on_c, 2, 83, 100
4, 23280, Note_on_c, 2, 83, 0
4, 23280, Note_on_c, 2, 78, 100
4, 23400, Note_on_c, 2, 78, 0
4, 23400, Note_on_c, 2, 76, 100
4, 23520, Note_on_c, 2, 76, 0
4, 23520, Note_on_c, 2, 78, 100
4, 23760, Note_on_c, 2, 78, 0
4, 23760, Note_on_c, 2, 80, 100
4, 24000, Note_on_c, 2, 80, 0
4, 24000, Note_on_c, 2, 81, 100
4, 24240, Note_on_c, 2, 81, 0
4, 24240, Note_on_c, 2, 81, 100
4, 24360, Note_on_c, 2, 81, 0
4, 24360, Note_on_c, 2, 80, 100
4, 24480, Note_on_c, 2, 80, 0
4, 24480, Note_on_c, 2, 81, 100
4, 24720, Note_on_c, 2, 81, 0
4, 24720, Note_on_c, 2, 83, 100
4, 24960, Note_on_c, 2, 83, 0
4, 24960, Note_on_c, 2, 84, 100
4, 25200, Note_on_c, 2, 84, 0
4, 25200, Note_on_c, 2, 79, 100
4, 25320, Note_on_c, 2, 79, 0
4, 25320, Note_on_c, 2, 78, 100
4, 25440, Note_on_c, 2, 78, 0
4, 25440, Note_on_c, 2, 79, 100
4, 25680, Note_on_c, 2, 79, 0
4, 25680, Note_on_c, 2, 81, 100
4, 25920, Note_on_c, 2, 81, 0
4, 25920, Note_on_c, 2, 83, 100
4, 26160, Note_on_c, 2, 83, 0
4, 26160, Note_on_c, 2, 83, 100
4, 26280, Note_on_c, 2, 83, 0
4, 26280, Note_on_c, 2, 81, 100
4, 26400, Note_on_c, 2, 81, 0
4, 26400, Note_on_c, 2, 83, 100
4, 26640, Note_on_c, 2, 83, 0
4, 26640, Note_on_c, 2, 84, 100
4, 26880, Note_on_c, 2, 84, 0
4, 26880, Note_on_c, 2, 86, 100
4, 27120, Note_on_c, 2, 86, 0
4, 27120, Note_on_c, 2, 81, 100
4, 27240, Note_on_c, 2, 81, 0
4, 27240, Note_on_c, 2, 80, 100
4, 27360, Note_on_c, 2, 80, 0
4, 27360, Note_on_c, 2, 81, 100
4, 27600, Note_on_c, 2, 81, 0
4, 27600, Note_on_c, 2, 83, 100
4, 27840, Note_on_c, 2, 83, 0
4, 27840, Note_on_c, 2, 84, 100
4, 28080, Note_on_c, 2, 84, 0
4, 29760, Note_on_c, 2, 83, 100
4, 30000, Note_on_c, 2, 83, 0
4, 31680, Note_on_c, 2, 81, 100
4, 31920, Note_on_c, 2, 81, 0
4, 31920, Note_on_c, 2, 81, 100
4, 32040, Note_on_c, 2, 81, 0
4, 32040, Note_on_c, 2, 77, 100
4, 32160, Note_on_c, 2, 77, 0
4, 32160, Note_on_c, 2, 76, 100
4, 32280, Note_on_c, 2, 76, 0
4, 32280, Note_on_c, 2, 74, 100
4, 32400, Note_on_c, 2, 74, 0
4, 32400, Note_on_c, 2, 73, 100
4, 32520, Note_on_c, 2, 73, 0
4, 32520, Note_on_c, 2, 71, 100
4, 32640, Note_on_c, 2, 71, 0
4, 32640, Note_on_c, 2, 73, 100
4, 32880, Note_on_c, 2, 73, 0
4, 33600, Note_on_c, 2, 74, 100
4, 33720, Note_on_c, 2, 74, 0
4, 34560, Note_on_c, 2, 77, 100
4, 34800, Note_on_c, 2, 77, 0
4, 34800, Note_on_c, 2, 82, 100
4, 34920, Note_on_c, 2, 82, 0
4, 34920, Note_on_c, 2, 77, 100
4, 35040, Note_on_c, 2, 77, 0
4, 35040, Note_on_c, 2, 76, 100
4, 35160, Note_on_c, 2, 76, 0
4, 35160, Note_on_c, 2, 74, 100
4, 35280, Note_on_c, 2, 74, 0
4, 35280, Note_on_c, 2, 72, 100
4, 35400, Note_on_c, 2, 72, 0
4, 35400, Note_on_c, 2, 71, 100
4, 35520, Note_on_c, 2, 71, 0
4, 35520, Note_on_c, 2, 71, 100
4, 35760, Note_on_c, 2, 71, 0
4, 35760, Note_on_c, 2, 72, 100
4, 35880, Note_on_c, 2, 72, 0
4, 35880, Note_on_c, 2, 71, 100
4, 36000, Note_on_c, 2, 71, 0
4, 36000, Note_on_c, 2, 72, 100
4, 36240, Note_on_c, 2, 72, 0
4, 36240, Note_on_c, 2, 72, 100
4, 36480, Note_on_c, 2, 72, 0
4, 36480, Note_on_c, 2, 71, 100
4, 36720, Note_on_c, 2, 71, 0
4, 37200, Note_on_c, 2, 74, 100
4, 37440, Note_on_c, 2, 74, 0
4, 37440, Note_on_c, 2, 73, 100
4, 37680, Note_on_c, 2, 73, 0
4, 37920, Note_on_c, 2, 74, 100
4, 38160, Note_on_c, 2, 74, 0
4, 38400, Note_on_c, 2, 69, 100
4, 38640, Note_on_c, 2, 69, 0
4, 39120, Note_on_c, 2, 69, 100
4, 39360, Note_on_c, 2, 69, 0
4, 39360, Note_on_c, 2, 69, 100
4, 39600, Note_on_c, 2, 69, 0
4, 40560, Note_on_c, 2, 67, 100
4, 40800, Note_on_c, 2, 67, 0
4, 40800, Note_on_c, 2, 69, 100
4, 41040, Note_on_c, 2, 69, 0
4, 43440, Note_on_c, 2, 62, 100
4, 43680, Note_on_c, 2, 62, 0
4, 43680, Note_on_c, 2, 60, 100
4, 43920, Note_on_c, 2, 60, 0
4, 43920, Note_on_c, 2, 59, 100
4, 44160, Note_on_c, 2, 59, 0
4, 44160, Note_on_c, 2, 57, 75
4, 44280, Note_on_c, 2, 57, 0
4, 45360, Note_on_c, 2, 62, 75
4, 45600, Note_on_c, 2, 62, 0
4, 45600, Note_on_c, 2, 60, 75
4, 45840, Note_on_c, 2, 60, 0
4, 45840, Note_on_c, 2, 59, 75
4, 46080, Note_on_c, 2, 59, 0
4, 46080, Note_on_c, 2, 57, 75
4, 46200, Note_on_c, 2, 57, 0
4, 47040, Note_on_c, 2, 59, 100
4, 47160, Note_on_c, 2, 59, 0
4, 48000, Note_on_c, 2, 60, 75
4, 48120, Note_on_c, 2, 60, 0
4, 51120, Note_on_c, 2, 69, 100
4, 51360, Note_on_c, 2, 69, 0
4, 51360, Note_on_c, 2, 67, 100
4, 51600, Note_on_c, 2, 67, 0
4, 51600, Note_on_c, 2, 66, 100
4, 51840, Note_on_c, 2, 66, 0
4, 51840, Note_on_c, 2, 64, 75
4, 51960, Note_on_c, 2, 64, 0
4, 53040, Note_on_c, 2, 69, 75
4, 53280, Note_on_c, 2, 69, 0
4, 53280, Note_on_c, 2, 67, 75
4, 53520, Note_on_c, 2, 67, 0
4, 53520, Note_on_c, 2, 66, 75
4, 53760, Note_on_c, 2, 66, 0
4, 53760, Note_on_c, 2, 64, 75
4, 54000, Note_on_c, 2, 64, 0
4, 54720, Note_on_c, 2, 66, 100
4, 54840, Note_on_c, 2, 66, 0
4, 55680, Note_on_c, 2, 67, 100
4, 55800, Note_on_c, 2, 67, 0
4, 56640, Note_on_c, 2, 69, 100
4, 56880, Note_on_c, 2, 69, 0
4, 56880, Note_on_c, 2, 67, 100
4, 57120, Note_on_c, 2, 67, 0
4, 57120, Note_on_c, 2, 66, 100
4, 57360, Note_on_c, 2, 66, 0
4, 57360, Note_on_c, 2, 64, 100
4, 57600, Note_on_c, 2, 64, 0
4, 57600, Note_on_c, 2, 63, 100
4, 57840, Note_on_c, 2, 63, 0
4, 58320, Note_on_c, 2, 69, 100
4, 58560, Note_on_c, 2, 69, 0
4, 58560, Note_on_c, 2, 67, 100
4, 58800, Note_on_c, 2, 67, 0
4, 59040, Note_on_c, 2, 71, 100
4, 59280, Note_on_c, 2, 71, 0
4, 59520, Note_on_c, 2, 64, 100
4, 59760, Note_on_c, 2, 64, 0
4, 59760, Note_on_c, 2, 76, 100
4, 59880, Note_on_c, 2, 76, 0
4, 59880, Note_on_c, 2, 75, 100
4, 60000, Note_on_c, 2, 75, 0
4, 60000, Note_on_c, 2, 76, 100
4, 60240, Note_on_c, 2, 76, 0
4, 60240, Note_on_c, 2, 64, 100
4, 60480, Note_on_c, 2, 64, 0
4, 60480, Note_on_c, 2, 69, 100
4, 60720, Note_on_c, 2, 69, 0
4, 60720, Note_on_c, 2, 72, 100
4, 60960, Note_on_c, 2, 72, 0
4, 60960, Note_on_c, 2, 71, 100
4, 61200, Note_on_c, 2, 71, 0
4, 61200, Note_on_c, 2, 74, 100
4, 61440, Note_on_c, 2, 74, 0
4, 61440, Note_on_c, 2, 72, 100
4, 61680, Note_on_c, 2, 72, 0
4, 62160, Note_on_c, 2, 69, 100
4, 62400, Note_on_c, 2, 69, 0
4, 62400, Note_on_c, 2, 69, 100
4, 62640, Note_on_c, 2, 69, 0
4, 62640, Note_on_c, 2, 71, 100
4, 62760, Note_on_c, 2, 71, 0
4, 62760, Note_on_c, 2, 69, 100
4, 62880, Note_on_c, 2, 69, 0
4, 62880, Note_on_c, 2, 71, 100
4, 63000, Note_on_c, 2, 71, 0
4, 63000, Note_on_c, 2, 67, 100
4, 63120, Note_on_c, 2, 67, 0
4, 63120, Note_on_c, 2, 69, 100
4, 63240, Note_on_c, 2, 69, 0
4, 63240, Note_on_c, 2, 66, 100
4, 63360, Note_on_c, 2, 66, 0
4, 63360, Note_on_c, 2, 67, 100
4, 63600, Note_on_c, 2, 67, 0
4, 64080, Note_on_c, 2, 68, 100
4, 64320, Note_on_c, 2, 68, 0
4, 64320, Note_on_c, 2, 69, 100
4, 64440, Note_on_c, 2, 69, 0
4, 64560, Note_on_c, 2, 67, 100
4, 64680, Note_on_c, 2, 67, 0
4, 64800, Note_on_c, 2, 66, 100
4, 64920, Note_on_c, 2, 66, 0
4, 65040, Note_on_c, 2, 63, 100
4, 65160, Note_on_c, 2, 63, 0
4, 66240, Note_on_c, 2, 67, 100
4, 66480, Note_on_c, 2, 67, 0
4, 66720, Note_on_c, 2, 67, 100
4, 66960, Note_on_c, 2, 67, 0
4, 67200, Note_on_c, 2, 66, 100
4, 67440, Note_on_c, 2, 66, 0
4, 67680, Note_on_c, 2, 71, 100
4, 67920, Note_on_c, 2, 71, 0
4, 67920, Note_on_c, 2, 72, 100
4, 68160, Note_on_c, 2, 72, 0
4, 68160, Note_on_c, 2, 71, 100
4, 68400, Note_on_c, 2, 71, 0
4, 68640, Note_on_c, 2, 69, 100
4, 68880, Note_on_c, 2, 69, 0
4, 77040, Note_on_c, 2, 79, 100
4, 77160, Note_on_c, 2, 79, 0
4, 77160, Note_on_c, 2, 77, 100
4, 77280, Note_on_c, 2, 77, 0
4, 77280, Note_on_c, 2, 79, 100
4, 77520, Note_on_c, 2, 79, 0
4, 77520, Note_on_c, 2, 67, 100
4, 77760, Note_on_c, 2, 67, 0
4, 77760, Note_on_c, 2, 72, 100
4, 78000, Note_on_c, 2, 72, 0
4, 78000, Note_on_c, 2, 76, 100
4, 78240, Note_on_c, 2, 76, 0
4, 78240, Note_on_c, 2, 74, 100
4, 78480, Note_on_c, 2, 74, 0
4, 78480, Note_on_c, 2, 77, 100
4, 78720, Note_on_c, 2, 77, 0
4, 78720, Note_on_c, 2, 76, 100
4, 78960, Note_on_c, 2, 76, 0
4, 78960, Note_on_c, 2, 79, 100
4, 79200, Note_on_c, 2, 79, 0
4, 79200, Note_on_c, 2, 77, 100
4, 79440, Note_on_c, 2, 77, 0
4, 79440, Note_on_c, 2, 81, 100
4, 79680, Note_on_c, 2, 81, 0
4, 79680, Note_on_c, 2, 79, 100
4, 79920, Note_on_c, 2, 79, 0
4, 79920, Note_on_c, 2, 72, 100
4, 80040, Note_on_c, 2, 72, 0
4, 80040, Note_on_c, 2, 71, 100
4, 80160, Note_on_c, 2, 71, 0
4, 80160, Note_on_c, 2, 72, 100
4, 80280, Note_on_c, 2, 72, 0
4, 80280, Note_on_c, 2, 74, 100
4, 80400, Note_on_c, 2, 74, 0
4, 80400, Note_on_c, 2, 76, 100
4, 80520, Note_on_c, 2, 76, 0
4, 80520, Note_on_c, 2, 77, 100
4, 80580, Note_on_c, 2, 77, 0
4, 80580, Note_on_c, 2, 79, 100
4, 80640, Note_on_c, 2, 79, 0
4, 80640, Note_on_c, 2, 81, 100
4, 80880, Note_on_c, 2, 81, 0
4, 81600, Note_on_c, 2, 81, 100
4, 81840, Note_on_c, 2, 81, 0
4, 81840, Note_on_c, 2, 74, 100
4, 81960, Note_on_c, 2, 74, 0
4, 81960, Note_on_c, 2, 76, 100
4, 82080, Note_on_c, 2, 76, 0
4, 82080, Note_on_c, 2, 78, 100
4, 82200, Note_on_c, 2, 78, 0
4, 82200, Note_on_c, 2, 79, 100
4, 82320, Note_on_c, 2, 79, 0
4, 82320, Note_on_c, 2, 81, 100
4, 82440, Note_on_c, 2, 81, 0
4, 82440, Note_on_c, 2, 83, 100
4, 82500, Note_on_c, 2, 83, 0
4, 82500, Note_on_c, 2, 84, 100
4, 82560, Note_on_c, 2, 84, 0
4, 82560, Note_on_c, 2, 83, 100
4, 82800, Note_on_c, 2, 83, 0
4, 83760, Note_on_c, 2, 84, 100
4, 84000, Note_on_c, 2, 84, 0
4, 84000, Note_on_c, 2, 84, 100
4, 84240, Note_on_c, 2, 84, 0
4, 84240, Note_on_c, 2, 83, 100
4, 84480, Note_on_c, 2, 83, 0
4, 84480, Note_on_c, 2, 84, 100
4, 84720, Note_on_c, 2, 84, 0
4, 84720, Note_on_c, 2, 84, 100
4, 84840, Note_on_c, 2, 84, 0
4, 84840, Note_on_c, 2, 83, 100
4, 84960, Note_on_c, 2, 83, 0
4, 84960, Note_on_c, 2, 84, 100
4, 85080, Note_on_c, 2, 84, 0
4, 85080, Note_on_c, 2, 79, 100
4, 85200, Note_on_c, 2, 79, 0
4, 85200, Note_on_c, 2, 76, 100
4, 85320, Note_on_c, 2, 76, 0
4, 85320, Note_on_c, 2, 72, 100
4, 85440, Note_on_c, 2, 72, 0
4, 85440, Note_on_c, 2, 79, 100
4, 85680, Note_on_c, 2, 79, 0
4, 85680, Note_on_c, 2, 83, 100
4, 85920, Note_on_c, 2, 83, 0
4, 85920, Note_on_c, 2, 81, 100
4, 86160, Note_on_c, 2, 81, 0
4, 86160, Note_on_c, 2, 84, 100
4, 86400, Note_on_c, 2, 84, 0
4, 86400, Note_on_c, 2, 83, 100
4, 86640, Note_on_c, 2, 83, 0
4, 87120, Note_on_c, 2, 83, 100
4, 87360, Note_on_c, 2, 83, 0
4, 87360, Note_on_c, 2, 84, 100
4, 87600, Note_on_c, 2, 84, 0
4, 87840, Note_on_c, 2, 83, 100
4, 88080, Note_on_c, 2, 83, 0
4, 88320, Note_on_c, 2, 82, 100
4, 88560, Note_on_c, 2, 82, 0
4, 88800, Note_on_c, 2, 81, 100
4, 89040, Note_on_c, 2, 81, 0
4, 94080, Note_on_c, 2, 72, 100
4, 94320, Note_on_c, 2, 72, 0
4, 94800, Note_on_c, 2, 72, 100
4, 95040, Note_on_c, 2, 72, 0
4, 95040, Note_on_c, 2, 72, 100
4, 95280, Note_on_c, 2, 72, 0
4, 98880, Note_on_c, 2, 69, 100
4, 99000, Note_on_c, 2, 69, 0
4, 99000, Note_on_c, 2, 71, 100
4, 99120, Note_on_c, 2, 71, 0
4, 99120, Note_on_c, 2, 72, 100
4, 99240, Note_on_c, 2, 72, 0
4, 99240, Note_on_c, 2, 69, 100
4, 99360, Note_on_c, 2, 69, 0
4, 99360, Note_on_c, 2, 71, 100
4, 99480, Note_on_c, 2, 71, 0
4, 99480, Note_on_c, 2, 72, 100
4, 99600, Note_on_c, 2, 72, 0
4, 99600, Note_on_c, 2, 74, 100
4, 99720, Note_on_c, 2, 74, 0
4, 99720, Note_on_c, 2, 71, 100
4, 99840, Note_on_c, 2, 71, 0
4, 99840, Note_on_c, 2, 72, 100
4, 99960, Note_on_c, 2, 72, 0
4, 99960, Note_on_c, 2, 74, 100
4, 100080, Note_on_c, 2, 74, 0
4, 100080, Note_on_c, 2, 76, 100
4, 100200, Note_on_c, 2, 76, 0
4, 100200, Note_on_c, 2, 72, 100
4, 100320, Note_on_c, 2, 72, 0
4, 100320, Note_on_c, 2, 74, 100
4, 100440, Note_on_c, 2, 74, 0
4, 100440, Note_on_c, 2, 76, 100
4, 100560, Note_on_c, 2, 76, 0
4, 100560, Note_on_c, 2, 77, 100
4, 100680, Note_on_c, 2, 77, 0
4, 100680, Note_on_c, 2, 74, 100
4, 100800, Note_on_c, 2, 74, 0
4, 100800, Note_on_c, 2, 76, 100
4, 101040, Note_on_c, 2, 76, 0
4, 101040, Note_on_c, 2, 81, 100
4, 101160, Note_on_c, 2, 81, 0
4, 101160, Note_on_c, 2, 80, 100
4, 101280, Note_on_c, 2, 80, 0
4, 101280, Note_on_c, 2, 81, 100
4, 101400, Note_on_c, 2, 81, 0
4, 101400, Note_on_c, 2, 78, 100
4, 101520, Note_on_c, 2, 78, 0
4, 101520, Note_on_c, 2, 79, 100
4, 101640, Note_on_c, 2, 79, 0
4, 101640, Note_on_c, 2, 76, 100
4, 101760, Note_on_c, 2, 76, 0
4, 101760, Note_on_c, 2, 78, 100
4, 102000, Note_on_c, 2, 78, 0
4, 102720, Note_on_c, 2, 80, 100
4, 102960, Note_on_c, 2, 80, 0
4, 103680, Note_on_c, 2, 81, 100
4, 103920, Note_on_c, 2, 81, 0
4, 104640, Note_on_c, 2, 83, 100
4, 104880, Note_on_c, 2, 83, 0
4, 119040, Note_on_c, 2, 76, 100
4, 119280, Note_on_c, 2, 76, 0
4, 119280, Note_on_c, 2, 64, 100
4, 119400, Note_on_c, 2, 64, 0
4, 119400, Note_on_c, 2, 65, 100
4, 119520, Note_on_c, 2, 65, 0
4, 119520, Note_on_c, 2, 64, 100
4, 119760, Note_on_c, 2, 64, 0
4, 119760, Note_on_c, 2, 76, 100
4, 120000, Note_on_c, 2, 76, 0
4, 120000, Note_on_c, 2, 69, 100
4, 120240, Note_on_c, 2, 69, 0
4, 120240, Note_on_c, 2, 65, 100
4, 120480, Note_on_c, 2, 65, 0
4, 120480, Note_on_c, 2, 67, 100
4, 120720, Note_on_c, 2, 67, 0
4, 120720, Note_on_c, 2, 64, 100
4, 120960, Note_on_c, 2, 64, 0
4, 120960, Note_on_c, 2, 65, 100
4, 121200, Note_on_c, 2, 65, 0
4, 121200, Note_on_c, 2, 62, 100
4, 121320, Note_on_c, 2, 62, 0
4, 121320, Note_on_c, 2, 64, 100
4, 121440, Note_on_c, 2, 64, 0
4, 121440, Note_on_c, 2, 62, 100
4, 121680, Note_on_c, 2, 62, 0
4, 121680, Note_on_c, 2, 74, 100
4, 121920, Note_on_c, 2, 74, 0
4, 121920, Note_on_c, 2, 67, 100
4, 122160, Note_on_c, 2, 67, 0
4, 122160, Note_on_c, 2, 64, 100
4, 122400, Note_on_c, 2, 64, 0
4, 122400, Note_on_c, 2, 65, 100
4, 122640, Note_on_c, 2, 65, 0
4, 122640, Note_on_c, 2, 62, 100
4, 122880, Note_on_c, 2, 62, 0
4, 122880, Note_on_c, 2, 64, 100
4, 123360, Note_on_c, 2, 64, 0
4, 123600, Note_on_c, 2, 76, 100
4, 124080, Note_on_c, 2, 76, 0
4, 124080, Note_on_c, 2, 74, 100
4, 124560, Note_on_c, 2, 74, 0
4, 124560, Note_on_c, 2, 72, 100
4, 124800, Note_on_c, 2, 72, 0
4, 124800, Note_on_c, 2, 65, 100
4, 125040, Note_on_c, 2, 65, 0
4, 125040, Note_on_c, 2, 67, 100
4, 125280, Note_on_c, 2, 67, 0
4, 125280, Note_on_c, 2, 69, 100
4, 125520, Note_on_c, 2, 69, 0
4, 125520, Note_on_c, 2, 65, 100
4, 125760, Note_on_c, 2, 65, 0
4, 125760, Note_on_c, 2, 67, 100
4, 126000, Note_on_c, 2, 67, 0
4, 126240, Note_on_c, 2, 65, 100
4, 126480, Note_on_c, 2, 65, 0
4, 126480, Note_on_c, 2, 62, 100
4, 126720, Note_on_c, 2, 62, 0
4, 126720, Note_on_c, 2, 64, 100
4, 126960, Note_on_c, 2, 64, 0
4, 127680, Note_on_c, 2, 63, 100
4, 127920, Note_on_c, 2, 63, 0
4, 128400, Note_on_c, 2, 69, 100
4, 128640, Note_on_c, 2, 69, 0
4, 128640, Note_on_c, 2, 67, 100
4, 128880, Note_on_c, 2, 67, 0
4, 128880, Note_on_c, 2, 66, 100
4, 129120, Note_on_c, 2, 66, 0
4, 129120, Note_on_c, 2, 67, 100
4, 129360, Note_on_c, 2, 67, 0
4, 129360, Note_on_c, 2, 69, 100
4, 129600, Note_on_c, 2, 69, 0
4, 129600, Note_on_c, 2, 71, 100
4, 129840, Note_on_c, 2, 71, 0
4, 129840, Note_on_c, 2, 69, 100
4, 130080, Note_on_c, 2, 69, 0
4, 130080, Note_on_c, 2, 71, 100
4, 130560, Note_on_c, 2, 71, 0
4, 130560, Note_on_c, 2, 64, 100
4, 130800, Note_on_c, 2, 64, 0
4, 131760, Note_on_c, 2, 76, 100
4, 132000, Note_on_c, 2, 76, 0
4, 132000, Note_on_c, 2, 76, 100
4, 132240, Note_on_c, 2, 76, 0
4, 132240, Note_on_c, 2, 75, 100
4, 132480, Note_on_c, 2, 75, 0
4, 132480, Note_on_c, 2, 76, 100
4, 132720, Note_on_c, 2, 76, 0
4, 132720, Note_on_c, 2, 64, 100
4, 132840, Note_on_c, 2, 64, 0
4, 132840, Note_on_c, 2, 66, 100
4, 132960, Note_on_c, 2, 66, 0
4, 132960, Note_on_c, 2, 64, 100
4, 133200, Note_on_c, 2, 64, 0
4, 133200, Note_on_c, 2, 76, 100
4, 133440, Note_on_c, 2, 76, 0
4, 133440, Note_on_c, 2, 71, 100
4, 133680, Note_on_c, 2, 71, 0
4, 133680, Note_on_c, 2, 67, 100
4, 133920, Note_on_c, 2, 67, 0
4, 133920, Note_on_c, 2, 69, 100
4, 134160, Note_on_c, 2, 69, 0
4, 134160, Note_on_c, 2, 66, 100
4, 134400, Note_on_c, 2, 66, 0
4, 134400, Note_on_c, 2, 67, 100
4, 134640, Note_on_c, 2, 67, 0
4, 135360, Note_on_c, 2, 68, 100
4, 135600, Note_on_c, 2, 68, 0
4, 135840, Note_on_c, 2, 64, 100
4, 136080, Note_on_c, 2, 64, 0
4, 136320, Note_on_c, 2, 69, 100
4, 136560, Note_on_c, 2, 69, 0
4, 137040, Note_on_c, 2, 62, 100
4, 137280, Note_on_c, 2, 62, 0
4, 137280, Note_on_c, 2, 64, 100
4, 137520, Note_on_c, 2, 64, 0
4, 137760, Note_on_c, 2, 64, 100
4, 138000, Note_on_c, 2, 64, 0
4, 138240, Note_on_c, 2, 64, 100
4, 138480, Note_on_c, 2, 64, 0
4, 138480, Note_on_c, 2, 69, 100
4, 138600, Note_on_c, 2, 69, 0
4, 138600, Note_on_c, 2, 68, 100
4, 138720, Note_on_c, 2, 68, 0
4, 138720, Note_on_c, 2, 69, 100
4, 138960, Note_on_c, 2, 69, 0
4, 138960, Note_on_c, 2, 64, 100
4, 139200, Note_on_c, 2, 64, 0
4, 139200, Note_on_c, 2, 66, 100
4, 139440, Note_on_c, 2, 66, 0
4, 139920, Note_on_c, 2, 66, 100
4, 140160, Note_on_c, 2, 66, 0
4, 140160, Note_on_c, 2, 62, 100
4, 140400, Note_on_c, 2, 62, 0
4, 140400, Note_on_c, 2, 67, 100
4, 140520, Note_on_c, 2, 67, 0
4, 140520, Note_on_c, 2, 66, 100
4, 140640, Note_on_c, 2, 66, 0
4, 140640, Note_on_c, 2, 67, 100
4, 140880, Note_on_c, 2, 67, 0
4, 140880, Note_on_c, 2, 62, 100
4, 141120, Note_on_c, 2, 62, 0
4, 141120, Note_on_c, 2, 64, 100
4, 141360, Note_on_c, 2, 64, 0
4, 144480, Note_on_c, 2, 64, 100
4, 144720, Note_on_c, 2, 64, 0
4, 144960, Note_on_c, 2, 65, 100
4, 145200, Note_on_c, 2, 65, 0
4, 145440, Note_on_c, 2, 66, 100
4, 145680, Note_on_c, 2, 66, 0
4, 145920, Note_on_c, 2, 67, 100
4, 146160, Note_on_c, 2, 67, 0
4, 146400, Note_on_c, 2, 64, 100
4, 146640, Note_on_c, 2, 64, 0
4, 146880, Note_on_c, 2, 69, 100
4, 147120, Note_on_c, 2, 69, 0
4, 147360, Note_on_c, 2, 64, 100
4, 147600, Note_on_c, 2, 64, 0
4, 147840, Note_on_c, 2, 69, 100
4, 148080, Note_on_c, 2, 69, 0
4, 148080, Note_on_c, 2, 74, 100
4, 148200, Note_on_c, 2, 74, 0
4, 148200, Note_on_c, 2, 76, 100
4, 148320, Note_on_c, 2, 76, 0
4, 148320, Note_on_c, 2, 74, 100
4, 148560, Note_on_c, 2, 74, 0
4, 148560, Note_on_c, 2, 72, 100
4, 148800, Note_on_c, 2, 72, 0
4, 148800, Note_on_c, 2, 71, 100
4, 149040, Note_on_c, 2, 71, 0
4, 149040, Note_on_c, 2, 76, 100
4, 149160, Note_on_c, 2, 76, 0
4, 149160, Note_on_c, 2, 77, 100
4, 149280, Note_on_c, 2, 77, 0
4, 149280, Note_on_c, 2, 76, 100
4, 149520, Note_on_c, 2, 76, 0
4, 149520, Note_on_c, 2, 74, 100
4, 149760, Note_on_c, 2, 74, 0
4, 149760, Note_on_c, 2, 72, 100
4, 150000, Note_on_c, 2, 72, 0
4, 150000, Note_on_c, 2, 74, 100
4, 150240, Note_on_c, 2, 74, 0
4, 150240, Note_on_c, 2, 76, 100
4, 150480, Note_on_c, 2, 76, 0
4, 150480, Note_on_c, 2, 64, 100
4, 150720, Note_on_c, 2, 64, 0
4, 150720, Note_on_c, 2, 62, 100
4, 150960, Note_on_c, 2, 62, 0
4, 150960, Note_on_c, 2, 76, 100
4, 151200, Note_on_c, 2, 76, 0
4, 151200, Note_on_c, 2, 74, 100
4, 151440, Note_on_c, 2, 74, 0
4, 151440, Note_on_c, 2, 72, 100
4, 151680, Note_on_c, 2, 72, 0
4, 151680, Note_on_c, 2, 71, 100
4, 151920, Note_on_c, 2, 71, 0
4, 151920, Note_on_c, 2, 72, 100
4, 152160, Note_on_c, 2, 72, 0
4, 152160, Note_on_c, 2, 74, 100
4, 152400, Note_on_c, 2, 74, 0
4, 152400, Note_on_c, 2, 64, 100
4, 152640, Note_on_c, 2, 64, 0
4, 152640, Note_on_c, 2, 57, 100
4, 152880, Note_on_c, 2, 57, 0
4, 152880, Note_on_c, 2, 74, 100
4, 153120, Note_on_c, 2, 74, 0
4, 153120, Note_on_c, 2, 72, 100
4, 153360, Note_on_c, 2, 72, 0
4, 153360, Note_on_c, 2, 71, 100
4, 153600, Note_on_c, 2, 71, 0
4, 153600, Note_on_c, 2, 69, 100
4, 153840, Note_on_c, 2, 69, 0
4, 153840, Note_on_c, 2, 71, 100
4, 154080, Note_on_c, 2, 71, 0
4, 154080, Note_on_c, 2, 72, 100
4, 154320, Note_on_c, 2, 72, 0
4, 154320, Note_on_c, 2, 62, 100
4, 154560, Note_on_c, 2, 62, 0
4, 154560, Note_on_c, 2, 55, 100
4, 154800, Note_on_c, 2, 55, 0
4, 154800, Note_on_c, 2, 71, 100
4, 154920, Note_on_c, 2, 71, 0
4, 154920, Note_on_c, 2, 69, 100
4, 155040, Note_on_c, 2, 69, 0
4, 155040, Note_on_c, 2, 71, 100
4, 155280, Note_on_c, 2, 71, 0
4, 155280, Note_on_c, 2, 65, 100
4, 155520, Note_on_c, 2, 65, 0
4, 155520, Note_on_c, 2, 64, 100
4, 155760, Note_on_c, 2, 64, 0
4, 156000, Note_on_c, 2, 67, 100
4, 156240, Note_on_c, 2, 67, 0
4, 156480, Note_on_c, 2, 67, 100
4, 156720, Note_on_c, 2, 67, 0
4, 156720, Note_on_c, 2, 69, 100
4, 156960, Note_on_c, 2, 69, 0
4, 156960, Note_on_c, 2, 70, 100
4, 157200, Note_on_c, 2, 70, 0
4, 157200, Note_on_c, 2, 61, 100
4, 157440, Note_on_c, 2, 61, 0
4, 157440, Note_on_c, 2, 62, 100
4, 157680, Note_on_c, 2, 62, 0
4, 158400, Note_on_c, 2, 62, 100
4, 158640, Note_on_c, 2, 62, 0
4, 159120, Note_on_c, 2, 67, 100
4, 159360, Note_on_c, 2, 67, 0
4, 159360, Note_on_c, 2, 67, 100
4, 159600, Note_on_c, 2, 67, 0
4, 161280, Note_on_c, 2, 66, 100
4, 161400, Note_on_c, 2, 66, 0
4, 164160, Note_on_c, 2, 71, 100
4, 164400, Note_on_c, 2, 71, 0
4, 165120, Note_on_c, 2, 64, 100
4, 165360, Note_on_c, 2, 64, 0
4, 166800, Note_on_c, 2, 75, 100
4, 167040, Note_on_c, 2, 75, 0
4, 167040, Note_on_c, 2, 71, 100
4, 167280, Note_on_c, 2, 71, 0
4, 181200, Note_on_c, 2, 71, 100
4, 181440, Note_on_c, 2, 71, 0
4, 181440, Note_on_c, 2, 73, 100
4, 181680, Note_on_c, 2, 73, 0
4, 181680, Note_on_c, 2, 69, 100
4, 181920, Note_on_c, 2, 69, 0
4, 181920, Note_on_c, 2, 70, 100
4, 182160, Note_on_c, 2, 70, 0
4, 182160, Note_on_c, 2, 67, 100
4, 182400, Note_on_c, 2, 67, 0
4, 182400, Note_on_c, 2, 65, 100
4, 182520, Note_on_c, 2, 65, 0
4, 182520, Note_on_c, 2, 64, 100
4, 182640, Note_on_c, 2, 64, 0
4, 182640, Note_on_c, 2, 62, 100
4, 182760, Note_on_c, 2, 62, 0
4, 182760, Note_on_c, 2, 64, 100
4, 182880, Note_on_c, 2, 64, 0
4, 182880, Note_on_c, 2, 65, 100
4, 183000, Note_on_c, 2, 65, 0
4, 183000, Note_on_c, 2, 69, 100
4, 183120, Note_on_c, 2, 69, 0
4, 183120, Note_on_c, 2, 74, 100
4, 183240, Note_on_c, 2, 74, 0
4, 183240, Note_on_c, 2, 77, 100
4, 183360, Note_on_c, 2, 77, 0
4, 183360, Note_on_c, 2, 77, 100
4, 183600, Note_on_c, 2, 77, 0
4, 183840, Note_on_c, 2, 71, 100
4, 184320, Note_on_c, 2, 71, 0
4, 184320, Note_on_c, 2, 72, 100
4, 184560, Note_on_c, 2, 72, 0
4, 188160, Note_on_c, 2, 64, 100
4, 188400, Note_on_c, 2, 64, 0
4, 188880, Note_on_c, 2, 60, 100
4, 189120, Note_on_c, 2, 60, 0
4, 189120, Note_on_c, 2, 65, 100
4, 189360, Note_on_c, 2, 65, 0
4, 189600, Note_on_c, 2, 65, 100
4, 189840, Note_on_c, 2, 65, 0
4, 190080, Note_on_c, 2, 65, 100
4, 190320, Note_on_c, 2, 65, 0
4, 190560, Note_on_c, 2, 65, 100
4, 190800, Note_on_c, 2, 65, 0
4, 191040, Note_on_c, 2, 67, 100
4, 191280, Note_on_c, 2, 67, 0
4, 191280, Note_on_c, 2, 58, 100
4, 191400, Note_on_c, 2, 58, 0
4, 191400, Note_on_c, 2, 57, 100
4, 191520, Note_on_c, 2, 57, 0
4, 191520, Note_on_c, 2, 58, 100
4, 191760, Note_on_c, 2, 58, 0
4, 191760, Note_on_c, 2, 67, 100
4, 192000, Note_on_c, 2, 67, 0
4, 192000, Note_on_c, 2, 69, 100
4, 192240, Note_on_c, 2, 69, 0
4, 192240, Note_on_c, 2, 57, 100
4, 192360, Note_on_c, 2, 57, 0
4, 192360, Note_on_c, 2, 55, 100
4, 192480, Note_on_c, 2, 55, 0
4, 192480, Note_on_c, 2, 57, 100
4, 192720, Note_on_c, 2, 57, 0
4, 192720, Note_on_c, 2, 69, 100
4, 192960, Note_on_c, 2, 69, 0
4, 192960, Note_on_c, 2, 64, 100
4, 193200, Note_on_c, 2, 64, 0
4, 193680, Note_on_c, 2, 64, 100
4, 193920, Note_on_c, 2, 64, 0
4, 193920, Note_on_c, 2, 65, 100
4, 194160, Note_on_c, 2, 65, 0
4, 194160, Note_on_c, 2, 76, 100
4, 194400, Note_on_c, 2, 76, 0
4, 194400, Note_on_c, 2, 74, 100
4, 194640, Note_on_c, 2, 74, 0
4, 194640, Note_on_c, 2, 72, 100
4, 194880, Note_on_c, 2, 72, 0
4, 194880, Note_on_c, 2, 70, 100
4, 195120, Note_on_c, 2, 70, 0
4, 195360, Note_on_c, 2, 71, 100
4, 195600, Note_on_c, 2, 71, 0
4, 195840, Note_on_c, 2, 72, 100
4, 196080, Note_on_c, 2, 72, 0
4, 211200, Note_on_c, 2, 64, 100
4, 211440, Note_on_c, 2, 64, 0
4, 211920, Note_on_c, 2, 67, 100
4, 212160, Note_on_c, 2, 67, 0
4, 212160, Note_on_c, 2, 65, 100
4, 212400, Note_on_c, 2, 65, 0
4, 212640, Note_on_c, 2, 69, 100
4, 212880, Note_on_c, 2, 69, 0
4, 213120, Note_on_c, 2, 69, 100
4, 213360, Note_on_c, 2, 69, 0
4, 213840, Note_on_c, 2, 69, 100
4, 214080, Note_on_c, 2, 69, 0
4, 214080, Note_on_c, 2, 70, 100
4, 214320, Note_on_c, 2, 70, 0
4, 215040, Note_on_c, 2, 58, 100
4, 215280, Note_on_c, 2, 58, 0
4, 219840, Note_on_c, 2, 61, 100
4, 220080, Note_on_c, 2, 61, 0
4, 220320, Note_on_c, 2, 62, 100
4, 220560, Note_on_c, 2, 62, 0
4, 220560, Note_on_c, 2, 55, 100
4, 220800, Note_on_c, 2, 55, 0
4, 220800, Note_on_c, 2, 57, 100
4, 221040, Note_on_c, 2, 57, 0
4, 221280, Note_on_c, 2, 57, 100
4, 221520, Note_on_c, 2, 57, 0
4, 221760, Note_on_c, 2, 62, 100
4, 222000, Note_on_c, 2, 62, 0
4, 222240, Note_on_c, 2, 62, 100
4, 222720, Note_on_c, 2, 62, 0
4, 222720, Note_on_c, 2, 61, 100
4, 223200, Note_on_c, 2, 61, 0
4, 223200, Note_on_c, 2, 60, 100
4, 223680, Note_on_c, 2, 60, 0
4, 223680, Note_on_c, 2, 59, 100
4, 223920, Note_on_c, 2, 59, 0
4, 223920, Note_on_c, 2, 59, 100
4, 224040, Note_on_c, 2, 59, 0
4, 224040, Note_on_c, 2, 57, 100
4, 224160, Note_on_c, 2, 57, 0
4, 224160, Note_on_c, 2, 59, 100
4, 224400, Note_on_c, 2, 59, 0
4, 224400, Note_on_c, 2, 61, 100
4, 224640, Note_on_c, 2, 61, 0
4, 224640, Note_on_c, 2, 62, 100
4, 224880, Note_on_c, 2, 62, 0
4, 224880, Note_on_c, 2, 57, 100
4, 225000, Note_on_c, 2, 57, 0
4, 225000, Note_on_c, 2, 55, 100
4, 225120, Note_on_c, 2, 55, 0
4, 225120, Note_on_c, 2, 57, 100
4, 225360, Note_on_c, 2, 57, 0
4, 225360, Note_on_c, 2, 59, 100
4, 225600, Note_on_c, 2, 59, 0
4, 225600, Note_on_c, 2, 60, 100
4, 226080, Note_on_c, 2, 60, 0
4, 226080, Note_on_c, 2, 60, 100
4, 226560, Note_on_c, 2, 60, 0
4, 226560, Note_on_c, 2, 59, 100
4, 227040, Note_on_c, 2, 59, 0
4, 227040, Note_on_c, 2, 58, 100
4, 227520, Note_on_c, 2, 58, 0
4, 227520, Note_on_c, 2, 57, 100
4, 227760, Note_on_c, 2, 57, 0
4, 227760, Note_on_c, 2, 57, 100
4, 227880, Note_on_c, 2, 57, 0
4, 227880, Note_on_c, 2, 55, 100
4, 228000, Note_on_c, 2, 55, 0
4, 228000, Note_on_c, 2, 57, 100
4, 228240, Note_on_c, 2, 57, 0
4, 228240, Note_on_c, 2, 59, 100
4, 228480, Note_on_c, 2, 59, 0
4, 228480, Note_on_c, 2, 60, 100
4, 228720, Note_on_c, 2, 60, 0
4, 228720, Note_on_c, 2, 55, 100
4, 228840, Note_on_c, 2, 55, 0
4, 228840, Note_on_c, 2, 57, 100
4, 228960, Note_on_c, 2, 57, 0
4, 228960, Note_on_c, 2, 55, 100
4, 229200, Note_on_c, 2, 55, 0
4, 229200, Note_on_c, 2, 57, 100
4, 229440, Note_on_c, 2, 57, 0
4, 229440, Note_on_c, 2, 58, 100
4, 229680, Note_on_c, 2, 58, 0
4, 229920, Note_on_c, 2, 62, 100
4, 230400, Note_on_c, 2, 62, 0
4, 230400, Note_on_c, 2, 63, 100
4, 230880, Note_on_c, 2, 63, 0
4, 230880, Note_on_c, 2, 64, 100
4, 231360, Note_on_c, 2, 64, 0
4, 231360, Note_on_c, 2, 65, 100
4, 231600, Note_on_c, 2, 65, 0
4, 231600, Note_on_c, 2, 65, 100
4, 231720, Note_on_c, 2, 65, 0
4, 231720, Note_on_c, 2, 67, 100
4, 231840, Note_on_c, 2, 67, 0
4, 231840, Note_on_c, 2, 65, 100
4, 232080, Note_on_c, 2, 65, 0
4, 232080, Note_on_c, 2, 63, 100
4, 232320, Note_on_c, 2, 63, 0
4, 232320, Note_on_c, 2, 62, 100
4, 232560, Note_on_c, 2, 62, 0
4, 232560, Note_on_c, 2, 67, 100
4, 232680, Note_on_c, 2, 67, 0
4, 232680, Note_on_c, 2, 69, 100
4, 232800, Note_on_c, 2, 69, 0
4, 232800, Note_on_c, 2, 67, 100
4, 233040, Note_on_c, 2, 67, 0
4, 233040, Note_on_c, 2, 65, 100
4, 233280, Note_on_c, 2, 65, 0
4, 233280, Note_on_c, 2, 64, 100
4, 233760, Note_on_c, 2, 64, 0
4, 233760, Note_on_c, 2, 64, 100
4, 234240, Note_on_c, 2, 64, 0
4, 234240, Note_on_c, 2, 65, 100
4, 234720, Note_on_c, 2, 65, 0
4, 234720, Note_on_c, 2, 66, 100
4, 235200, Note_on_c, 2, 66, 0
4, 235200, Note_on_c, 2, 67, 100
4, 235440, Note_on_c, 2, 67, 0
4, 235440, Note_on_c, 2, 67, 100
4, 235560, Note_on_c, 2, 67, 0
4, 235560, Note_on_c, 2, 69, 100
4, 235680, Note_on_c, 2, 69, 0
4, 235680, Note_on_c, 2, 67, 100
4, 235920, Note_on_c, 2, 67, 0
4, 235920, Note_on_c, 2, 65, 100
4, 236160, Note_on_c, 2, 65, 0
4, 236160, Note_on_c, 2, 64, 100
4, 236400, Note_on_c, 2, 64, 0
4, 236400, Note_on_c, 2, 69, 100
4, 236520, Note_on_c, 2, 69, 0
4, 236520, Note_on_c, 2, 70, 100
4, 236640, Note_on_c, 2, 70, 0
4, 236640, Note_on_c, 2, 69, 100
4, 236880, Note_on_c, 2, 69, 0
4, 236880, Note_on_c, 2, 67, 100
4, 237120, Note_on_c, 2, 67, 0
4, 237120, Note_on_c, 2, 65, 100
4, 237360, Note_on_c, 2, 65, 0
4, 238080, Note_on_c, 2, 66, 100
4, 238320, Note_on_c, 2, 66, 0
4, 238560, Note_on_c, 2, 62, 100
4, 238800, Note_on_c, 2, 62, 0
4, 239040, Note_on_c, 2, 67, 100
4, 239280, Note_on_c, 2, 67, 0
4, 240000, Note_on_c, 2, 64, 100
4, 240240, Note_on_c, 2, 64, 0
4, 240480, Note_on_c, 2, 60, 100
4, 240720, Note_on_c, 2, 60, 0
4, 240960, Note_on_c, 2, 65, 100
4, 241200, Note_on_c, 2, 65, 0
4, 241200, Note_on_c, 2, 69, 100
4, 241320, Note_on_c, 2, 69, 0
4, 241320, Note_on_c, 2, 67, 100
4, 241440, Note_on_c, 2, 67, 0
4, 241440, Note_on_c, 2, 65, 100
4, 241680, Note_on_c, 2, 65, 0
4, 241680, Note_on_c, 2, 63, 100
4, 241920, Note_on_c, 2, 63, 0
4, 241920, Note_on_c, 2, 62, 100
4, 242160, Note_on_c, 2, 62, 0
4, 242160, Note_on_c, 2, 70, 100
4, 242400, Note_on_c, 2, 70, 0
4, 242400, Note_on_c, 2, 60, 100
4, 242640, Note_on_c, 2, 60, 0
4, 242640, Note_on_c, 2, 69, 100
4, 242880, Note_on_c, 2, 69, 0
4, 242880, Note_on_c, 2, 58, 100
4, 243120, Note_on_c, 2, 58, 0
4, 243120, Note_on_c, 2, 70, 100
4, 243240, Note_on_c, 2, 70, 0
4, 243240, Note_on_c, 2, 69, 100
4, 243360, Note_on_c, 2, 69, 0
4, 243360, Note_on_c, 2, 67, 100
4, 243600, Note_on_c, 2, 67, 0
4, 243600, Note_on_c, 2, 65, 100
4, 243840, Note_on_c, 2, 65, 0
4, 243840, Note_on_c, 2, 64, 100
4, 244080, Note_on_c, 2, 64, 0
4, 244080, Note_on_c, 2, 72, 100
4, 244320, Note_on_c, 2, 72, 0
4, 244320, Note_on_c, 2, 62, 100
4, 244560, Note_on_c, 2, 62, 0
4, 244560, Note_on_c, 2, 71, 100
4, 244800, Note_on_c, 2, 71, 0
4, 244800, Note_on_c, 2, 60, 100
4, 245040, Note_on_c, 2, 60, 0
4, 245040, Note_on_c, 2, 72, 100
4, 245160, Note_on_c, 2, 72, 0
4, 245160, Note_on_c, 2, 74, 100
4, 245280, Note_on_c, 2, 74, 0
4, 245280, Note_on_c, 2, 76, 100
4, 245520, Note_on_c, 2, 76, 0
4, 245520, Note_on_c, 2, 74, 100
4, 245760, Note_on_c, 2, 74, 0
4, 245760, Note_on_c, 2, 73, 100
4, 246000, Note_on_c, 2, 73, 0
4, 246240, Note_on_c, 2, 73, 100
4, 246480, Note_on_c, 2, 73, 0
4, 246720, Note_on_c, 2, 69, 100
4, 246960, Note_on_c, 2, 69, 0
4, 247200, Note_on_c, 2, 69, 100
4, 247440, Note_on_c, 2, 69, 0
4, 247680, Note_on_c, 2, 68, 100
4, 247920, Note_on_c, 2, 68, 0
4, 250560, Note_on_c, 2, 64, 100
4, 250800, Note_on_c, 2, 64, 0
4, 251520, Note_on_c, 2, 64, 100
4, 251760, Note_on_c, 2, 64, 0
4, 252480, Note_on_c, 2, 64, 100
4, 252960, Note_on_c, 2, 64, 0
4, 253200, Note_on_c, 2, 62, 100
4, 253440, Note_on_c, 2, 62, 0
4, 253440, Note_on_c, 2, 61, 100
4, 253560, Note_on_c, 2, 61, 0
4, 253920, Note_on_c, 2, 74, 100
4, 254160, Note_on_c, 2, 74, 0
4, 254160, Note_on_c, 2, 60, 100
4, 254400, Note_on_c, 2, 60, 0
4, 254400, Note_on_c, 2, 59, 100
4, 254640, Note_on_c, 2, 59, 0
4, 254640, Note_on_c, 2, 74, 100
4, 254880, Note_on_c, 2, 74, 0
4, 254880, Note_on_c, 2, 72, 100
4, 255120, Note_on_c, 2, 72, 0
4, 255120, Note_on_c, 2, 59, 100
4, 255360, Note_on_c, 2, 59, 0
4, 255360, Note_on_c, 2, 57, 100
4, 255480, Note_on_c, 2, 57, 0
4, 256080, Note_on_c, 2, 57, 100
4, 256320, Note_on_c, 2, 57, 0
4, 256320, Note_on_c, 2, 56, 100
4, 256560, Note_on_c, 2, 56, 0
4, 256800, Note_on_c, 2, 69, 100
4, 257040, Note_on_c, 2, 69, 0
4, 257040, Note_on_c, 2, 57, 100
4, 257280, Note_on_c, 2, 57, 0
4, 257280, Note_on_c, 2, 62, 100
4, 257520, Note_on_c, 2, 62, 0
4, 258000, Note_on_c, 2, 65, 100
4, 258240, Note_on_c, 2, 65, 0
4, 258240, Note_on_c, 2, 65, 100
4, 258480, Note_on_c, 2, 65, 0
4, 258480, Note_on_c, 2, 70, 100
4, 258720, Note_on_c, 2, 70, 0
4, 258720, Note_on_c, 2, 70, 100
4, 258960, Note_on_c, 2, 70, 0
4, 258960, Note_on_c, 2, 74, 100
4, 259200, Note_on_c, 2, 74, 0
4, 259200, Note_on_c, 2, 74, 100
4, 259440, Note_on_c, 2, 74, 0
4, 259680, Note_on_c, 2, 72, 100
4, 259920, Note_on_c, 2, 72, 0
4, 259920, Note_on_c, 2, 71, 100
4, 260040, Note_on_c, 2, 71, 0
4, 260040, Note_on_c, 2, 69, 100
4, 260160, Note_on_c, 2, 69, 0
4, 260160, Note_on_c, 2, 71, 100
4, 260400, Note_on_c, 2, 71, 0
4, 260880, Note_on_c, 2, 74, 100
4, 261120, Note_on_c, 2, 74, 0
4, 261120, Note_on_c, 2, 72, 100
4, 261360, Note_on_c, 2, 72, 0
4, 261600, Note_on_c, 2, 73, 100
4, 261840, Note_on_c, 2, 73, 0
4, 262080, Note_on_c, 2, 74, 100
4, 262320, Note_on_c, 2, 74, 0
4, 262560, Note_on_c, 2, 73, 100
4, 262800, Note_on_c, 2, 73, 0
4, 263040, Note_on_c, 2, 69, 100
4, 263280, Note_on_c, 2, 69, 0
4, 263280, Note_on_c, 2, 67, 100
4, 263520, Note_on_c, 2, 67, 0
4, 263520, Note_on_c, 2, 67, 100
4, 263760, Note_on_c, 2, 67, 0
4, 263760, Note_on_c, 2, 65, 100
4, 264000, Note_on_c, 2, 65, 0
4, 264000, Note_on_c, 2, 65, 100
4, 264240, Note_on_c, 2, 65, 0
4, 264240, Note_on_c, 2, 69, 100
4, 264360, Note_on_c, 2, 69, 0
4, 264360, Note_on_c, 2, 67, 100
4, 264480, Note_on_c, 2, 67, 0
4, 264480, Note_on_c, 2, 65, 100
4, 264720, Note_on_c, 2, 65, 0
4, 264720, Note_on_c, 2, 64, 100
4, 264960, Note_on_c, 2, 64, 0
4, 264960, Note_on_c, 2, 62, 100
4, 265440, Note_on_c, 2, 62, 0
4, 265680, Note_on_c, 2, 62, 100
4, 265920, Note_on_c, 2, 62, 0
4, 265920, Note_on_c, 2, 62, 100
4, 266160, Note_on_c, 2, 62, 0
4, 266160, Note_on_c, 2, 59, 100
4, 266400, Note_on_c, 2, 59, 0
4, 266400, Note_on_c, 2, 60, 100
4, 266640, Note_on_c, 2, 60, 0
4, 266640, Note_on_c, 2, 62, 100
4, 266880, Note_on_c, 2, 62, 0
4, 266880, Note_on_c, 2, 64, 100
4, 267120, Note_on_c, 2, 64, 0
4, 267120, Note_on_c, 2, 62, 100
4, 267360, Note_on_c, 2, 62, 0
4, 267360, Note_on_c, 2, 64, 100
4, 267840, Note_on_c, 2, 64, 0
4, 267840, Note_on_c, 2, 69, 100
4, 268080, Note_on_c, 2, 69, 0
4, 268080, Note_on_c, 2, 57, 100
4, 268200, Note_on_c, 2, 57, 0
4, 268200, Note_on_c, 2, 59, 100
4, 268320, Note_on_c, 2, 59, 0
4, 268320, Note_on_c, 2, 57, 100
4, 268560, Note_on_c, 2, 57, 0
4, 268560, Note_on_c, 2, 69, 100
4, 268800, Note_on_c, 2, 69, 0
4, 268800, Note_on_c, 2, 64, 100
4, 269040, Note_on_c, 2, 64, 0
4, 269040, Note_on_c, 2, 60, 100
4, 269280, Note_on_c, 2, 60, 0
4, 269280, Note_on_c, 2, 62, 100
4, 269520, Note_on_c, 2, 62, 0
4, 269520, Note_on_c, 2, 59, 100
4, 269760, Note_on_c, 2, 59, 0
4, 269760, Note_on_c, 2, 60, 100
4, 270000, Note_on_c, 2, 60, 0
4, 270720, Note_on_c, 2, 60, 100
4, 270960, Note_on_c, 2, 60, 0
4, 271200, Note_on_c, 2, 59, 100
4, 271440, Note_on_c, 2, 59, 0
4, 271680, Note_on_c, 2, 57, 100
4, 271920, Note_on_c, 2, 57, 0
4, 272640, Note_on_c, 2, 57, 100
4, 272880, Note_on_c, 2, 57, 0
4, 273600, Note_on_c, 2, 62, 100
4, 273720, Note_on_c, 2, 62, 0
4, 275760, Note_on_c, 2, 72, 100
4, 276000, Note_on_c, 2, 72, 0
4, 276000, Note_on_c, 2, 71, 100
4, 276240, Note_on_c, 2, 71, 0
4, 276240, Note_on_c, 2, 74, 100
4, 276480, Note_on_c, 2, 74, 0
4, 276480, Note_on_c, 2, 73, 100
4, 277440, Note_on_c, 2, 73, 0
4, 277440, End_track
5, 0, Start_track
5, 0, MIDI_port, 0
5, 0, Title_t, "Six Sonatas and Partitas for Solo Violin"
5, 0, Program_c, 3, 40
5, 0, Control_c, 3, 7, 100
5, 0, Control_c, 3, 10, 49
5, 6720, Note_on_c, 3, 71, 100
5, 7200, Note_on_c, 3, 71, 0
5, 7200, Note_on_c, 3, 71, 100
5, 7680, Note_on_c, 3, 71, 0
5, 7680, Note_on_c, 3, 71, 100
5, 7920, Note_on_c, 3, 71, 0
5, 7920, Note_on_c, 3, 76, 100
5, 8040, Note_on_c, 3, 76, 0
5, 8040, Note_on_c, 3, 75, 100
5, 8160, Note_on_c, 3, 75, 0
5, 8160, Note_on_c, 3, 76, 100
5, 8400, Note_on_c, 3, 76, 0
5, 8400, Note_on_c, 3, 71, 100
5, 8640, Note_on_c, 3, 71, 0
5, 8640, Note_on_c, 3, 73, 100
5, 9120, Note_on_c, 3, 73, 0
5, 9360, Note_on_c, 3, 73, 100
5, 9600, Note_on_c, 3, 73, 0
5, 9600, Note_on_c, 3, 62, 100
5, 10080, Note_on_c, 3, 62, 0
5, 10320, Note_on_c, 3, 62, 100
5, 10560, Note_on_c, 3, 62, 0
5, 10560, Note_on_c, 3, 67, 100
5, 11040, Note_on_c, 3, 67, 0
5, 11280, Note_on_c, 3, 67, 100
5, 11520, Note_on_c, 3, 67, 0
5, 11520, Note_on_c, 3, 67, 100
5, 11640, Note_on_c, 3, 67, 0
5, 15360, Note_on_c, 3, 64, 100
5, 15480, Note_on_c, 3, 64, 0
5, 15840, Note_on_c, 3, 65, 100
5, 16320, Note_on_c, 3, 65, 0
5, 16320, Note_on_c, 3, 64, 100
5, 16560, Note_on_c, 3, 64, 0
5, 16560, Note_on_c, 3, 71, 100
5, 16680, Note_on_c, 3, 71, 0
5, 16680, Note_on_c, 3, 69, 100
5, 16800, Note_on_c, 3, 69, 0
5, 16800, Note_on_c, 3, 71, 100
5, 17040, Note_on_c, 3, 71, 0
5, 17040, Note_on_c, 3, 73, 100
5, 17280, Note_on_c, 3, 73, 0
5, 17280, Note_on_c, 3, 74, 100
5, 17520, Note_on_c, 3, 74, 0
5, 17520, Note_on_c, 3, 69, 100
5, 17640, Note_on_c, 3, 69, 0
5, 17640, Note_on_c, 3, 67, 100
5, 17760, Note_on_c, 3, 67, 0
5, 17760, Note_on_c, 3, 69, 100
5, 18000, Note_on_c, 3, 69, 0
5, 18000, Note_on_c, 3, 71, 100
5, 18240, Note_on_c, 3, 71, 0
5, 18240, Note_on_c, 3, 72, 100
5, 18480, Note_on_c, 3, 72, 0
5, 18480, Note_on_c, 3, 72, 100
5, 18600, Note_on_c, 3, 72, 0
5, 18600, Note_on_c, 3, 71, 100
5, 18720, Note_on_c, 3, 71, 0
5, 18720, Note_on_c, 3, 72, 100
5, 18960, Note_on_c, 3, 72, 0
5, 18960, Note_on_c, 3, 74, 100
5, 19200, Note_on_c, 3, 74, 0
5, 19200, Note_on_c, 3, 76, 100
5, 19440, Note_on_c, 3, 76, 0
5, 19440, Note_on_c, 3, 71, 100
5, 19560, Note_on_c, 3, 71, 0
5, 19560, Note_on_c, 3, 69, 100
5, 19680, Note_on_c, 3, 69, 0
5, 19680, Note_on_c, 3, 71, 100
5, 19920, Note_on_c, 3, 71, 0
5, 19920, Note_on_c, 3, 73, 100
5, 20160, Note_on_c, 3, 73, 0
5, 20160, Note_on_c, 3, 74, 100
5, 20400, Note_on_c, 3, 74, 0
5, 20400, Note_on_c, 3, 74, 100
5, 20520, Note_on_c, 3, 74, 0
5, 20520, Note_on_c, 3, 73, 100
5, 20640, Note_on_c, 3, 73, 0
5, 20640, Note_on_c, 3, 74, 100
5, 20880, Note_on_c, 3, 74, 0
5, 20880, Note_on_c, 3, 76, 100
5, 21120, Note_on_c, 3, 76, 0
5, 21120, Note_on_c, 3, 78, 100
5, 21360, Note_on_c, 3, 78, 0
5, 21360, Note_on_c, 3, 73, 100
5, 21480, Note_on_c, 3, 73, 0
5, 21480, Note_on_c, 3, 71, 100
5, 21600, Note_on_c, 3, 71, 0
5, 21600, Note_on_c, 3, 73, 100
5, 21840, Note_on_c, 3, 73, 0
5, 21840, Note_on_c, 3, 75, 100
5, 22080, Note_on_c, 3, 75, 0
5, 22080, Note_on_c, 3, 76, 100
5, 22560, Note_on_c, 3, 76, 0
5, 22560, Note_on_c, 3, 76, 100
5, 23040, Note_on_c, 3, 76, 0
5, 23040, Note_on_c, 3, 75, 100
5, 23520, Note_on_c, 3, 75, 0
5, 23520, Note_on_c, 3, 74, 100
5, 24000, Note_on_c, 3, 74, 0
5, 24000, Note_on_c, 3, 72, 100
5, 24480, Note_on_c, 3, 72, 0
5, 24480, Note_on_c, 3, 77, 100
5, 24960, Note_on_c, 3, 77, 0
5, 24960, Note_on_c, 3, 76, 100
5, 25440, Note_on_c, 3, 76, 0
5, 25440, Note_on_c, 3, 75, 100
5, 25920, Note_on_c, 3, 75, 0
5, 25920, Note_on_c, 3, 74, 100
5, 26400, Note_on_c, 3, 74, 0
5, 26400, Note_on_c, 3, 79, 100
5, 26880, Note_on_c, 3, 79, 0
5, 26880, Note_on_c, 3, 78, 100
5, 27360, Note_on_c, 3, 78, 0
5, 27360, Note_on_c, 3, 77, 100
5, 27840, Note_on_c, 3, 77, 0
5, 27840, Note_on_c, 3, 76, 100
5, 28080, Note_on_c, 3, 76, 0
5, 28080, Note_on_c, 3, 81, 100
5, 28200, Note_on_c, 3, 81, 0
5, 28200, Note_on_c, 3, 80, 100
5, 28320, Note_on_c, 3, 80, 0
5, 28320, Note_on_c, 3, 81, 100
5, 28560, Note_on_c, 3, 81, 0
5, 28560, Note_on_c, 3, 69, 100
5, 28800, Note_on_c, 3, 69, 0
5, 28800, Note_on_c, 3, 62, 100
5, 29040, Note_on_c, 3, 62, 0
5, 29040, Note_on_c, 3, 84, 100
5, 29160, Note_on_c, 3, 84, 0
5, 29160, Note_on_c, 3, 81, 100
5, 29280, Note_on_c, 3, 81, 0
5, 29280, Note_on_c, 3, 79, 100
5, 29400, Note_on_c, 3, 79, 0
5, 29400, Note_on_c, 3, 78, 100
5, 29520, Note_on_c, 3, 78, 0
5, 29520, Note_on_c, 3, 76, 100
5, 29640, Note_on_c, 3, 76, 0
5, 29640, Note_on_c, 3, 74, 100
5, 29760, Note_on_c, 3, 74, 0
5, 29760, Note_on_c, 3, 74, 100
5, 30000, Note_on_c, 3, 74, 0
5, 31680, Note_on_c, 3, 65, 100
5, 31920, Note_on_c, 3, 65, 0
5, 32640, Note_on_c, 3, 64, 100
5, 32880, Note_on_c, 3, 64, 0
5, 33600, Note_on_c, 3, 62, 100
5, 33720, Note_on_c, 3, 62, 0
5, 34560, Note_on_c, 3, 62, 100
5, 34800, Note_on_c, 3, 62, 0
5, 35520, Note_on_c, 3, 62, 100
5, 35760, Note_on_c, 3, 62, 0
5, 36240, Note_on_c, 3, 63, 100
5, 36480, Note_on_c, 3, 63, 0
5, 36480, Note_on_c, 3, 64, 100
5, 36720, Note_on_c, 3, 64, 0
5, 36720, Note_on_c, 3, 76, 100
5, 36840, Note_on_c, 3, 76, 0
5, 36840, Note_on_c, 3, 75, 100
5, 36960, Note_on_c, 3, 75, 0
5, 36960, Note_on_c, 3, 76, 100
5, 37200, Note_on_c, 3, 76, 0
5, 37200, Note_on_c, 3, 64, 100
5, 37440, Note_on_c, 3, 64, 0
5, 37440, Note_on_c, 3, 64, 100
5, 37680, Note_on_c, 3, 64, 0
5, 37920, Note_on_c, 3, 69, 100
5, 38160, Note_on_c, 3, 69, 0
5, 38400, Note_on_c, 3, 67, 100
5, 38640, Note_on_c, 3, 67, 0
5, 38640, Note_on_c, 3, 67, 100
5, 38760, Note_on_c, 3, 67, 0
5, 38760, Note_on_c, 3, 65, 100
5, 38880, Note_on_c, 3, 65, 0
5, 38880, Note_on_c, 3, 67, 100
5, 39120, Note_on_c, 3, 67, 0
5, 39120, Note_on_c, 3, 64, 100
5, 39360, Note_on_c, 3, 64, 0
5, 39360, Note_on_c, 3, 65, 100
5, 39600, Note_on_c, 3, 65, 0
5, 40080, Note_on_c, 3, 65, 100
5, 40320, Note_on_c, 3, 65, 0
5, 40320, Note_on_c, 3, 68, 100
5, 40560, Note_on_c, 3, 68, 0
5, 40560, Note_on_c, 3, 77, 100
5, 40800, Note_on_c, 3, 77, 0
5, 40800, Note_on_c, 3, 76, 100
5, 41040, Note_on_c, 3, 76, 0
5, 41040, Note_on_c, 3, 74, 100
5, 41280, Note_on_c, 3, 74, 0
5, 41280, Note_on_c, 3, 72, 100
5, 41640, Note_on_c, 3, 72, 0
5, 41640, Note_on_c, 3, 74, 100
5, 41760, Note_on_c, 3, 74, 0
5, 41760, Note_on_c, 3, 71, 100
5, 41760, Pitch_bend_c, 3, 12288
5, 41800, Pitch_bend_c, 3, 8192
5, 41840, Pitch_bend_c, 3, 12288
5, 41880, Pitch_bend_c, 3, 8192
5, 42120, Note_on_c, 3, 71, 0
5, 42120, Note_on_c, 3, 69, 100
5, 42240, Note_on_c, 3, 69, 0
5, 42240, Note_on_c, 3, 69, 100
5, 42360, Note_on_c, 3, 69, 0
5, 42360, Note_on_c, 3, 76, 100
5, 42480, Note_on_c, 3, 76, 0
5, 42480, Note_on_c, 3, 72, 100
5, 42600, Note_on_c, 3, 72, 0
5, 42600, Note_on_c, 3, 69, 100
5, 42720, Note_on_c, 3, 69, 0
5, 42720, Note_on_c, 3, 68, 100
5, 42840, Note_on_c, 3, 68, 0
5, 42960, Note_on_c, 3, 69, 100
5, 43080, Note_on_c, 3, 69, 0
5, 43200, Note_on_c, 3, 64, 100
5, 43320, Note_on_c, 3, 64, 0
5, 43440, Note_on_c, 3, 65, 100
5, 43560, Note_on_c, 3, 65, 0
5, 43680, Note_on_c, 3, 64, 100
5, 43800, Note_on_c, 3, 64, 0
5, 43920, Note_on_c, 3, 62, 100
5, 44040, Note_on_c, 3, 62, 0
5, 44160, Note_on_c, 3, 64, 75
5, 44280, Note_on_c, 3, 64, 0
5, 44280, Note_on_c, 3, 76, 75
5, 44400, Note_on_c, 3, 76, 0
5, 44400, Note_on_c, 3, 72, 75
5, 44520, Note_on_c, 3, 72, 0
5, 44520, Note_on_c, 3, 69, 75
5, 44640, Note_on_c, 3, 69, 0
5, 44640, Note_on_c, 3, 68, 75
5, 44760, Note_on_c, 3, 68, 0
5, 44880, Note_on_c, 3, 69, 75
5, 45000, Note_on_c, 3, 69, 0
5, 45120, Note_on_c, 3, 64, 75
5, 45240, Note_on_c, 3, 64, 0
5, 45360, Note_on_c, 3, 65, 75
5, 45480, Note_on_c, 3, 65, 0
5, 45600, Note_on_c, 3, 64, 75
5, 45720, Note_on_c, 3, 64, 0
5, 45840, Note_on_c, 3, 62, 75
5, 45960, Note_on_c, 3, 62, 0
5, 46080, Note_on_c, 3, 64, 75
5, 46200, Note_on_c, 3, 64, 0
5, 46320, Note_on_c, 3, 68, 100
5, 46440, Note_on_c, 3, 68, 0
5, 46560, Note_on_c, 3, 71, 100
5, 46680, Note_on_c, 3, 71, 0
5, 46800, Note_on_c, 3, 68, 100
5, 46920, Note_on_c, 3, 68, 0
5, 47040, Note_on_c, 3, 62, 100
5, 47160, Note_on_c, 3, 62, 0
5, 47280, Note_on_c, 3, 68, 75
5, 47400, Note_on_c, 3, 68, 0
5, 47520, Note_on_c, 3, 71, 75
5, 47640, Note_on_c, 3, 71, 0
5, 47760, Note_on_c, 3, 68, 75
5, 47880, Note_on_c, 3, 68, 0
5, 48000, Note_on_c, 3, 64, 75
5, 48120, Note_on_c, 3, 64, 0
5, 48120, Note_on_c, 3, 76, 100
5, 48240, Note_on_c, 3, 76, 0
5, 48240, Note_on_c, 3, 72, 100
5, 48360, Note_on_c, 3, 72, 0
5, 48360, Note_on_c, 3, 69, 100
5, 48480, Note_on_c, 3, 69, 0
5, 48480, Note_on_c, 3, 68, 100
5, 48600, Note_on_c, 3, 68, 0
5, 48720, Note_on_c, 3, 69, 100
5, 48840, Note_on_c, 3, 69, 0
5, 48960, Note_on_c, 3, 63, 75
5, 49080, Note_on_c, 3, 63, 0
5, 49080, Note_on_c, 3, 78, 75
5, 49200, Note_on_c, 3, 78, 0
5, 49200, Note_on_c, 3, 72, 75
5, 49320, Note_on_c, 3, 72, 0
5, 49320, Note_on_c, 3, 69, 75
5, 49440, Note_on_c, 3, 69, 0
5, 49440, Note_on_c, 3, 68, 75
5, 49560, Note_on_c, 3, 68, 0
5, 49680, Note_on_c, 3, 63, 75
5, 49800, Note_on_c, 3, 63, 0
5, 49920, Note_on_c, 3, 64, 75
5, 50040, Note_on_c, 3, 64, 0
5, 50040, Note_on_c, 3, 83, 100
5, 50160, Note_on_c, 3, 83, 0
5, 50160, Note_on_c, 3, 79, 100
5, 50280, Note_on_c, 3, 79, 0
5, 50280, Note_on_c, 3, 76, 100
5, 50400, Note_on_c, 3, 76, 0
5, 50400, Note_on_c, 3, 75, 100
5, 50520, Note_on_c, 3, 75, 0
5, 50640, Note_on_c, 3, 76, 100
5, 50760, Note_on_c, 3, 76, 0
5, 50880, Note_on_c, 3, 71, 100
5, 51000, Note_on_c, 3, 71, 0
5, 51120, Note_on_c, 3, 72, 100
5, 51240, Note_on_c, 3, 72, 0
5, 51360, Note_on_c, 3, 71, 100
5, 51480, Note_on_c, 3, 71, 0
5, 51600, Note_on_c, 3, 69, 100
5, 51720, Note_on_c, 3, 69, 0
5, 51840, Note_on_c, 3, 71, 75
5, 51960, Note_on_c, 3, 71, 0
5, 67680, Note_on_c, 3, 64, 100
5, 67920, Note_on_c, 3, 64, 0
5, 67920, Note_on_c, 3, 64, 100
5, 68160, Note_on_c, 3, 64, 0
5, 68160, Note_on_c, 3, 64, 100
5, 68400, Note_on_c, 3, 64, 0
5, 78720, Note_on_c, 3, 67, 100
5, 78960, Note_on_c, 3, 67, 0
5, 87120, Note_on_c, 3, 67, 100
5, 87360, Note_on_c, 3, 67, 0
5, 87360, Note_on_c, 3, 67, 100
5, 87600, Note_on_c, 3, 67, 0
5, 88320, Note_on_c, 3, 72, 100
5, 88560, Note_on_c, 3, 72, 0
5, 88800, Note_on_c, 3, 72, 100
5, 89040, Note_on_c, 3, 72, 0
5, 89280, Note_on_c, 3, 71, 100
5, 89400, Note_on_c, 3, 71, 0
5, 89400, Note_on_c, 3, 72, 100
5, 89520, Note_on_c, 3, 72, 0
5, 89520, Note_on_c, 3, 74, 100
5, 89640, Note_on_c, 3, 74, 0
5, 89640, Note_on_c, 3, 76, 100
5, 89760, Note_on_c, 3, 76, 0
5, 89760, Note_on_c, 3, 77, 100
5, 89880, Note_on_c, 3, 77, 0
5, 89880, Note_on_c, 3, 79, 100
5, 90000, Note_on_c, 3, 79, 0
5, 90000, Note_on_c, 3, 81, 100
5, 90120, Note_on_c, 3, 81, 0
5, 90120, Note_on_c, 3, 77, 100
5, 90240, Note_on_c, 3, 77, 0
5, 90240, Note_on_c, 3, 79, 100
5, 90360, Note_on_c, 3, 79, 0
5, 90360, Note_on_c, 3, 81, 100
5, 90480, Note_on_c, 3, 81, 0
5, 90480, Note_on_c, 3, 79, 100
5, 90600, Note_on_c, 3, 79, 0
5, 90600, Note_on_c, 3, 77, 100
5, 90720, Note_on_c, 3, 77, 0
5, 90720, Note_on_c, 3, 76, 100
5, 90840, Note_on_c, 3, 76, 0
5, 90840, Note_on_c, 3, 74, 100
5, 90960, Note_on_c, 3, 74, 0
5, 90960, Note_on_c, 3, 72, 100
5, 91080, Note_on_c, 3, 72, 0
5, 91080, Note_on_c, 3, 76, 100
5, 91200, Note_on_c, 3, 76, 0
5, 91200, Note_on_c, 3, 69, 100
5, 91320, Note_on_c, 3, 69, 0
5, 91320, Note_on_c, 3, 71, 100
5, 91440, Note_on_c, 3, 71, 0
5, 91440, Note_on_c, 3, 72, 100
5, 91560, Note_on_c, 3, 72, 0
5, 91560, Note_on_c, 3, 74, 100
5, 91680, Note_on_c, 3, 74, 0
5, 91680, Note_on_c, 3, 76, 100
5, 91800, Note_on_c, 3, 76, 0
5, 91800, Note_on_c, 3, 77, 100
5, 91920, Note_on_c, 3, 77, 0
5, 91920, Note_on_c, 3, 79, 100
5, 92040, Note_on_c, 3, 79, 0
5, 92040, Note_on_c, 3, 76, 100
5, 92160, Note_on_c, 3, 76, 0
5, 92160, Note_on_c, 3, 77, 100
5, 92280, Note_on_c, 3, 77, 0
5, 92280, Note_on_c, 3, 79, 100
5, 92400, Note_on_c, 3, 79, 0
5, 92400, Note_on_c, 3, 77, 100
5, 92520, Note_on_c, 3, 77, 0
5, 92520, Note_on_c, 3, 76, 100
5, 92640, Note_on_c, 3, 76, 0
5, 92640, Note_on_c, 3, 74, 100
5, 92760, Note_on_c, 3, 74, 0
5, 92760, Note_on_c, 3, 72, 100
5, 92880, Note_on_c, 3, 72, 0
5, 92880, Note_on_c, 3, 71, 100
5, 93000, Note_on_c, 3, 71, 0
5, 93000, Note_on_c, 3, 74, 100
5, 93120, Note_on_c, 3, 74, 0
5, 93120, Note_on_c, 3, 67, 100
5, 93240, Note_on_c, 3, 67, 0
5, 93240, Note_on_c, 3, 69, 100
5, 93360, Note_on_c, 3, 69, 0
5, 93360, Note_on_c, 3, 71, 100
5, 93480, Note_on_c, 3, 71, 0
5, 93480, Note_on_c, 3, 72, 100
5, 93600, Note_on_c, 3, 72, 0
5, 93600, Note_on_c, 3, 74, 100
5, 93720, Note_on_c, 3, 74, 0
5, 93720, Note_on_c, 3, 76, 100
5, 93840, Note_on_c, 3, 76, 0
5, 93840, Note_on_c, 3, 77, 100
5, 93960, Note_on_c, 3, 77, 0
5, 93960, Note_on_c, 3, 74, 100
5, 94080, Note_on_c, 3, 74, 0
5, 94080, Note_on_c, 3, 76, 100
5, 94320, Note_on_c, 3, 76, 0
5, 94800, Note_on_c, 3, 76, 100
5, 95040, Note_on_c, 3, 76, 0
5, 95040, Note_on_c, 3, 76, 100
5, 95280, Note_on_c, 3, 76, 0
5, 95280, Note_on_c, 3, 81, 100
5, 95400, Note_on_c, 3, 81, 0
5, 95400, Note_on_c, 3, 79, 100
5, 95520, Note_on_c, 3, 79, 0
5, 95520, Note_on_c, 3, 77, 100
5, 95640, Note_on_c, 3, 77, 0
5, 95640, Note_on_c, 3, 76, 100
5, 95760, Note_on_c, 3, 76, 0
5, 95760, Note_on_c, 3, 74, 100
5, 95880, Note_on_c, 3, 74, 0
5, 95880, Note_on_c, 3, 77, 100
5, 96000, Note_on_c, 3, 77, 0
5, 96000, Note_on_c, 3, 71, 100
5, 96120, Note_on_c, 3, 71, 0
5, 96120, Note_on_c, 3, 74, 100
5, 96240, Note_on_c, 3, 74, 0
5, 96240, Note_on_c, 3, 72, 100
5, 96360, Note_on_c, 3, 72, 0
5, 96360, Note_on_c, 3, 71, 100
5, 96480, Note_on_c, 3, 71, 0
5, 96480, Note_on_c, 3, 69, 100
5, 96600, Note_on_c, 3, 69, 0
5, 96600, Note_on_c, 3, 67, 100
5, 96720, Note_on_c, 3, 67, 0
5, 96720, Note_on_c, 3, 65, 100
5, 96840, Note_on_c, 3, 65, 0
5, 96840, Note_on_c, 3, 74, 100
5, 96960, Note_on_c, 3, 74, 0
5, 96960, Note_on_c, 3, 64, 100
5, 97080, Note_on_c, 3, 64, 0
5, 97080, Note_on_c, 3, 72, 100
5, 97200, Note_on_c, 3, 72, 0
5, 97200, Note_on_c, 3, 62, 100
5, 97320, Note_on_c, 3, 62, 0
5, 97320, Note_on_c, 3, 60, 100
5, 97440, Note_on_c, 3, 60, 0
5, 97440, Note_on_c, 3, 55, 100
5, 97560, Note_on_c, 3, 55, 0
5, 97560, Note_on_c, 3, 62, 100
5, 97680, Note_on_c, 3, 62, 0
5, 97680, Note_on_c, 3, 72, 100
5, 97800, Note_on_c, 3, 72, 0
5, 97800, Note_on_c, 3, 71, 100
5, 97920, Note_on_c, 3, 71, 0
5, 97920, Note_on_c, 3, 72, 100
5, 98160, Note_on_c, 3, 72, 0
5, 98160, Note_on_c, 3, 76, 100
5, 98280, Note_on_c, 3, 76, 0
5, 98280, Note_on_c, 3, 74, 100
5, 98400, Note_on_c, 3, 74, 0
5, 98400, Note_on_c, 3, 76, 100
5, 98640, Note_on_c, 3, 76, 0
5, 98640, Note_on_c, 3, 64, 100
5, 98880, Note_on_c, 3, 64, 0
5, 98880, Note_on_c, 3, 66, 100
5, 99120, Note_on_c, 3, 66, 0
5, 99360, Note_on_c, 3, 68, 100
5, 99600, Note_on_c, 3, 68, 0
5, 99840, Note_on_c, 3, 69, 100
5, 100080, Note_on_c, 3, 69, 0
5, 100320, Note_on_c, 3, 69, 100
5, 100560, Note_on_c, 3, 69, 0
5, 100800, Note_on_c, 3, 69, 100
5, 101040, Note_on_c, 3, 69, 0
5, 101760, Note_on_c, 3, 69, 100
5, 102000, Note_on_c, 3, 69, 0
5, 102720, Note_on_c, 3, 74, 100
5, 102960, Note_on_c, 3, 74, 0
5, 102960, Note_on_c, 3, 76, 100
5, 103080, Note_on_c, 3, 76, 0
5, 103080, Note_on_c, 3, 74, 100
5, 103200, Note_on_c, 3, 74, 0
5, 103200, Note_on_c, 3, 76, 100
5, 103320, Note_on_c, 3, 76, 0
5, 103320, Note_on_c, 3, 72, 100
5, 103440, Note_on_c, 3, 72, 0
5, 103440, Note_on_c, 3, 74, 100
5, 103560, Note_on_c, 3, 74, 0
5, 103560, Note_on_c, 3, 71, 100
5, 103680, Note_on_c, 3, 71, 0
5, 103680, Note_on_c, 3, 72, 100
5, 103920, Note_on_c, 3, 72, 0
5, 104640, Note_on_c, 3, 74, 100
5, 104760, Note_on_c, 3, 74, 0
5, 104760, Note_on_c, 3, 76, 100
5, 104880, Note_on_c, 3, 76, 0
5, 104880, Note_on_c, 3, 77, 100
5, 105000, Note_on_c, 3, 77, 0
5, 105000, Note_on_c, 3, 76, 100
5, 105120, Note_on_c, 3, 76, 0
5, 105120, Note_on_c, 3, 74, 100
5, 105240, Note_on_c, 3, 74, 0
5, 105240, Note_on_c, 3, 72, 100
5, 105360, Note_on_c, 3, 72, 0
5, 105360, Note_on_c, 3, 71, 100
5, 105480, Note_on_c, 3, 71, 0
5, 105480, Note_on_c, 3, 69, 100
5, 105600, Note_on_c, 3, 69, 0
5, 105600, Note_on_c, 3, 68, 100
5, 105720, Note_on_c, 3, 68, 0
5, 105720, Note_on_c, 3, 71, 100
5, 105840, Note_on_c, 3, 71, 0
5, 105840, Note_on_c, 3, 76, 100
5, 105960, Note_on_c, 3, 76, 0
5, 105960, Note_on_c, 3, 80, 100
5, 106080, Note_on_c, 3, 80, 0
5, 106080, Note_on_c, 3, 83, 100
5, 106200, Note_on_c, 3, 83, 0
5, 106200, Note_on_c, 3, 84, 100
5, 106320, Note_on_c, 3, 84, 0
5, 106320, Note_on_c, 3, 86, 100
5, 106440, Note_on_c, 3, 86, 0
5, 106440, Note_on_c, 3, 83, 100
5, 106560, Note_on_c, 3, 83, 0
5, 106560, Note_on_c, 3, 84, 100
5, 106680, Note_on_c, 3, 84, 0
5, 106680, Note_on_c, 3, 81, 100
5, 106800, Note_on_c, 3, 81, 0
5, 106800, Note_on_c, 3, 77, 100
5, 106920, Note_on_c, 3, 77, 0
5, 106920, Note_on_c, 3, 76, 100
5, 107040, Note_on_c, 3, 76, 0
5, 107040, Note_on_c, 3, 77, 100
5, 107160, Note_on_c, 3, 77, 0
5, 107160, Note_on_c, 3, 72, 100
5, 107280, Note_on_c, 3, 72, 0
5, 107280, Note_on_c, 3, 69, 100
5, 107400, Note_on_c, 3, 69, 0
5, 107400, Note_on_c, 3, 72, 100
5, 107520, Note_on_c, 3, 72, 0
5, 107520, Note_on_c, 3, 83, 100
5, 107640, Note_on_c, 3, 83, 0
5, 107640, Note_on_c, 3, 77, 100
5, 107760, Note_on_c, 3, 77, 0
5, 107760, Note_on_c, 3, 74, 100
5, 107880, Note_on_c, 3, 74, 0
5, 107880, Note_on_c, 3, 72, 100
5, 108000, Note_on_c, 3, 72, 0
5, 108000, Note_on_c, 3, 74, 100
5, 108120, Note_on_c, 3, 74, 0
5, 108120, Note_on_c, 3, 71, 100
5, 108240, Note_on_c, 3, 71, 0
5, 108240, Note_on_c, 3, 68, 100
5, 108360, Note_on_c, 3, 68, 0
5, 108360, Note_on_c, 3, 71, 100
5, 108480, Note_on_c, 3, 71, 0
5, 108480, Note_on_c, 3, 72, 100
5, 108600, Note_on_c, 3, 72, 0
5, 108600, Note_on_c, 3, 76, 100
5, 108720, Note_on_c, 3, 76, 0
5, 108720, Note_on_c, 3, 81, 100
5, 108840, Note_on_c, 3, 81, 0
5, 108840, Note_on_c, 3, 80, 100
5, 108960, Note_on_c, 3, 80, 0
5, 108960, Note_on_c, 3, 81, 100
5, 109080, Note_on_c, 3, 81, 0
5, 109080, Note_on_c, 3, 76, 100
5, 109200, Note_on_c, 3, 76, 0
5, 109200, Note_on_c, 3, 72, 100
5, 109320, Note_on_c, 3, 72, 0
5, 109320, Note_on_c, 3, 76, 100
5, 109440, Note_on_c, 3, 76, 0
5, 109440, Note_on_c, 3, 79, 100
5, 109560, Note_on_c, 3, 79, 0
5, 109560, Note_on_c, 3, 76, 100
5, 109680, Note_on_c, 3, 76, 0
5, 109680, Note_on_c, 3, 73, 100
5, 109800, Note_on_c, 3, 73, 0
5, 109800, Note_on_c, 3, 71, 100
5, 109920, Note_on_c, 3, 71, 0
5, 109920, Note_on_c, 3, 73, 100
5, 110040, Note_on_c, 3, 73, 0
5, 110040, Note_on_c, 3, 69, 100
5, 110160, Note_on_c, 3, 69, 0
5, 110160, Note_on_c, 3, 64, 100
5, 110280, Note_on_c, 3, 64, 0
5, 110280, Note_on_c, 3, 67, 100
5, 110400, Note_on_c, 3, 67, 0
5, 110400, Note_on_c, 3, 65, 100
5, 110520, Note_on_c, 3, 65, 0
5, 110520, Note_on_c, 3, 74, 100
5, 110640, Note_on_c, 3, 74, 0
5, 110640, Note_on_c, 3, 69, 100
5, 110760, Note_on_c, 3, 69, 0
5, 110760, Note_on_c, 3, 67, 100
5, 110880, Note_on_c, 3, 67, 0
5, 110880, Note_on_c, 3, 69, 100
5, 111000, Note_on_c, 3, 69, 0
5, 111000, Note_on_c, 3, 65, 100
5, 111120, Note_on_c, 3, 65, 0
5, 111120, Note_on_c, 3, 62, 100
5, 111240, Note_on_c, 3, 62, 0
5, 111240, Note_on_c, 3, 65, 100
5, 111360, Note_on_c, 3, 65, 0
5, 111360, Note_on_c, 3, 59, 100
5, 111480, Note_on_c, 3, 59, 0
5, 111480, Note_on_c, 3, 62, 100
5, 111600, Note_on_c, 3, 62, 0
5, 111600, Note_on_c, 3, 68, 100
5, 111720, Note_on_c, 3, 68, 0
5, 111720, Note_on_c, 3, 66, 100
5, 111840, Note_on_c, 3, 66, 0
5, 111840, Note_on_c, 3, 68, 100
5, 111960, Note_on_c, 3, 68, 0
5, 111960, Note_on_c, 3, 71, 100
5, 112080, Note_on_c, 3, 71, 0
5, 112080, Note_on_c, 3, 74, 100
5, 112200, Note_on_c, 3, 74, 0
5, 112200, Note_on_c, 3, 72, 100
5, 112320, Note_on_c, 3, 72, 0
5, 112320, Note_on_c, 3, 74, 100
5, 112440, Note_on_c, 3, 74, 0
5, 112440, Note_on_c, 3, 77, 100
5, 112560, Note_on_c, 3, 77, 0
5, 112560, Note_on_c, 3, 83, 100
5, 112680, Note_on_c, 3, 83, 0
5, 112680, Note_on_c, 3, 81, 100
5, 112800, Note_on_c, 3, 81, 0
5, 112800, Note_on_c, 3, 83, 100
5, 112920, Note_on_c, 3, 83, 0
5, 112920, Note_on_c, 3, 77, 100
5, 113040, Note_on_c, 3, 77, 0
5, 113040, Note_on_c, 3, 76, 100
5, 113160, Note_on_c, 3, 76, 0
5, 113160, Note_on_c, 3, 74, 100
5, 113280, Note_on_c, 3, 74, 0
5, 113280, Note_on_c, 3, 72, 100
5, 113400, Note_on_c, 3, 72, 0
5, 113400, Note_on_c, 3, 71, 100
5, 113520, Note_on_c, 3, 71, 0
5, 113520, Note_on_c, 3, 69, 100
5, 113640, Note_on_c, 3, 69, 0
5, 113640, Note_on_c, 3, 68, 100
5, 113760, Note_on_c, 3, 68, 0
5, 113760, Note_on_c, 3, 69, 100
5, 113880, Note_on_c, 3, 69, 0
5, 113880, Note_on_c, 3, 72, 100
5, 114000, Note_on_c, 3, 72, 0
5, 114000, Note_on_c, 3, 77, 100
5, 114120, Note_on_c, 3, 77, 0
5, 114120, Note_on_c, 3, 72, 100
5, 114240, Note_on_c, 3, 72, 0
5, 114240, Note_on_c, 3, 71, 100
5, 114360, Note_on_c, 3, 71, 0
5, 114360, Note_on_c, 3, 69, 100
5, 114480, Note_on_c, 3, 69, 0
5, 114480, Note_on_c, 3, 67, 100
5, 114600, Note_on_c, 3, 67, 0
5, 114600, Note_on_c, 3, 66, 100
5, 114720, Note_on_c, 3, 66, 0
5, 114720, Note_on_c, 3, 67, 100
5, 114840, Note_on_c, 3, 67, 0
5, 114840, Note_on_c, 3, 71, 100
5, 114960, Note_on_c, 3, 71, 0
5, 114960, Note_on_c, 3, 76, 100
5, 115080, Note_on_c, 3, 76, 0
5, 115080, Note_on_c, 3, 71, 100
5, 115200, Note_on_c, 3, 71, 0
5, 115200, Note_on_c, 3, 69, 100
5, 115320, Note_on_c, 3, 69, 0
5, 115320, Note_on_c, 3, 67, 100
5, 115440, Note_on_c, 3, 67, 0
5, 115440, Note_on_c, 3, 65, 100
5, 115560, Note_on_c, 3, 65, 0
5, 115560, Note_on_c, 3, 64, 100
5, 115680, Note_on_c, 3, 64, 0
5, 115680, Note_on_c, 3, 65, 100
5, 115800, Note_on_c, 3, 65, 0
5, 115800, Note_on_c, 3, 69, 100
5, 115920, Note_on_c, 3, 69, 0
5, 115920, Note_on_c, 3, 74, 100
5, 116040, Note_on_c, 3, 74, 0
5, 116040, Note_on_c, 3, 69, 100
5, 116160, Note_on_c, 3, 69, 0
5, 116160, Note_on_c, 3, 68, 100
5, 116280, Note_on_c, 3, 68, 0
5, 116280, Note_on_c, 3, 69, 100
5, 116400, Note_on_c, 3, 69, 0
5, 116400, Note_on_c, 3, 71, 100
5, 116520, Note_on_c, 3, 71, 0
5, 116520, Note_on_c, 3, 72, 100
5, 116640, Note_on_c, 3, 72, 0
5, 116640, Note_on_c, 3, 74, 100
5, 116760, Note_on_c, 3, 74, 0
5, 116760, Note_on_c, 3, 76, 100
5, 116880, Note_on_c, 3, 76, 0
5, 116880, Note_on_c, 3, 77, 100
5, 117000, Note_on_c, 3, 77, 0
5, 117000, Note_on_c, 3, 76, 100
5, 117120, Note_on_c, 3, 76, 0
5, 117120, Note_on_c, 3, 77, 100
5, 117240, Note_on_c, 3, 77, 0
5, 117240, Note_on_c, 3, 76, 100
5, 117360, Note_on_c, 3, 76, 0
5, 117360, Note_on_c, 3, 74, 100
5, 117480, Note_on_c, 3, 74, 0
5, 117480, Note_on_c, 3, 73, 100
5, 117600, Note_on_c, 3, 73, 0
5, 117600, Note_on_c, 3, 74, 100
5, 117720, Note_on_c, 3, 74, 0
5, 117720, Note_on_c, 3, 80, 100
5, 117840, Note_on_c, 3, 80, 0
5, 117840, Note_on_c, 3, 81, 100
5, 117960, Note_on_c, 3, 81, 0
5, 117960, Note_on_c, 3, 83, 100
5, 118080, Note_on_c, 3, 83, 0
5, 118080, Note_on_c, 3, 72, 100
5, 118200, Note_on_c, 3, 72, 0
5, 118200, Note_on_c, 3, 71, 100
5, 118320, Note_on_c, 3, 71, 0
5, 118320, Note_on_c, 3, 69, 100
5, 118440, Note_on_c, 3, 69, 0
5, 118440, Note_on_c, 3, 72, 100
5, 118560, Note_on_c, 3, 72, 0
5, 118560, Note_on_c, 3, 65, 100
5, 118680, Note_on_c, 3, 65, 0
5, 118680, Note_on_c, 3, 76, 100
5, 118800, Note_on_c, 3, 76, 0
5, 118800, Note_on_c, 3, 81, 100
5, 118920, Note_on_c, 3, 81, 0
5, 118920, Note_on_c, 3, 74, 100
5, 119040, Note_on_c, 3, 74, 0
5, 119040, Note_on_c, 3, 80, 100
5, 119280, Note_on_c, 3, 80, 0
5, 119760, Note_on_c, 3, 79, 100
5, 120000, Note_on_c, 3, 79, 0
5, 120000, Note_on_c, 3, 72, 100
5, 120480, Note_on_c, 3, 72, 0
5, 120480, Note_on_c, 3, 73, 100
5, 120960, Note_on_c, 3, 73, 0
5, 120960, Note_on_c, 3, 74, 100
5, 121200, Note_on_c, 3, 74, 0
5, 121680, Note_on_c, 3, 77, 100
5, 121920, Note_on_c, 3, 77, 0
5, 121920, Note_on_c, 3, 71, 100
5, 122400, Note_on_c, 3, 71, 0
5, 122400, Note_on_c, 3, 74, 100
5, 123120, Note_on_c, 3, 74, 0
5, 123120, Note_on_c, 3, 72, 100
5, 123240, Note_on_c, 3, 72, 0
5, 123240, Note_on_c, 3, 74, 100
5, 123360, Note_on_c, 3, 74, 0
5, 123360, Note_on_c, 3, 72, 100
5, 123600, Note_on_c, 3, 72, 0
5, 123600, Note_on_c, 3, 84, 100
5, 123840, Note_on_c, 3, 84, 0
5, 123840, Note_on_c, 3, 77, 100
5, 124320, Note_on_c, 3, 77, 0
5, 124320, Note_on_c, 3, 76, 100
5, 124800, Note_on_c, 3, 76, 0
5, 124800, Note_on_c, 3, 74, 100
5, 125040, Note_on_c, 3, 74, 0
5, 125040, Note_on_c, 3, 72, 100
5, 125160, Note_on_c, 3, 72, 0
5, 125160, Note_on_c, 3, 71, 100
5, 125280, Note_on_c, 3, 71, 0
5, 125280, Note_on_c, 3, 72, 100
5, 125520, Note_on_c, 3, 72, 0
5, 125520, Note_on_c, 3, 81, 100
5, 125760, Note_on_c, 3, 81, 0
5, 125760, Note_on_c, 3, 76, 100
5, 126000, Note_on_c, 3, 76, 0
5, 126000, Note_on_c, 3, 74, 100
5, 126120, Note_on_c, 3, 74, 0
5, 126120, Note_on_c, 3, 72, 100
5, 126240, Note_on_c, 3, 72, 0
5, 126240, Note_on_c, 3, 74, 100
5, 126480, Note_on_c, 3, 74, 0
5, 126480, Note_on_c, 3, 71, 100
5, 126720, Note_on_c, 3, 71, 0
5, 126720, Note_on_c, 3, 72, 100
5, 126960, Note_on_c, 3, 72, 0
5, 126960, Note_on_c, 3, 76, 100
5, 127200, Note_on_c, 3, 76, 0
5, 127200, Note_on_c, 3, 81, 100
5, 127440, Note_on_c, 3, 81, 0
5, 127440, Note_on_c, 3, 72, 100
5, 127680, Note_on_c, 3, 72, 0
5, 127680, Note_on_c, 3, 71, 100
5, 127920, Note_on_c, 3, 71, 0
5, 127920, Note_on_c, 3, 81, 100
5, 128040, Note_on_c, 3, 81, 0
5, 128040, Note_on_c, 3, 79, 100
5, 128160, Note_on_c, 3, 79, 0
5, 128160, Note_on_c, 3, 81, 100
5, 128400, Note_on_c, 3, 81, 0
5, 128400, Note_on_c, 3, 75, 100
5, 128640, Note_on_c, 3, 75, 0
5, 128640, Note_on_c, 3, 76, 100
5, 128880, Note_on_c, 3, 76, 0
5, 128880, Note_on_c, 3, 84, 100
5, 129120, Note_on_c, 3, 84, 0
5, 129120, Note_on_c, 3, 83, 100
5, 129360, Note_on_c, 3, 83, 0
5, 129360, Note_on_c, 3, 81, 100
5, 129600, Note_on_c, 3, 81, 0
5, 129600, Note_on_c, 3, 79, 100
5, 129960, Note_on_c, 3, 79, 0
5, 129960, Note_on_c, 3, 81, 100
5, 130080, Note_on_c, 3, 81, 0
5, 130080, Note_on_c, 3, 78, 100
5, 130080, Pitch_bend_c, 3, 12288
5, 130120, Pitch_bend_c, 3, 8192
5, 130160, Pitch_bend_c, 3, 12288
5, 130200, Pitch_bend_c, 3, 8192
5, 130440, Note_on_c, 3, 78, 0
5, 130440, Note_on_c, 3, 76, 100
5, 130560, Note_on_c, 3, 76, 0
5, 130560, Note_on_c, 3, 76, 100
5, 130800, Note_on_c, 3, 76, 0
5, 130800, Note_on_c, 3, 83, 100
5, 130920, Note_on_c, 3, 83, 0
5, 130920, Note_on_c, 3, 81, 100
5, 131040, Note_on_c, 3, 81, 0
5, 131040, Note_on_c, 3, 83, 100
5, 131280, Note_on_c, 3, 83, 0
5, 131280, Note_on_c, 3, 71, 100
5, 131520, Note_on_c, 3, 71, 0
5, 131520, Note_on_c, 3, 76, 100
5, 131760, Note_on_c, 3, 76, 0
5, 131760, Note_on_c, 3, 79, 100
5, 132000, Note_on_c, 3, 79, 0
5, 132000, Note_on_c, 3, 78, 100
5, 132240, Note_on_c, 3, 78, 0
5, 132240, Note_on_c, 3, 81, 100
5, 132480, Note_on_c, 3, 81, 0
5, 132480, Note_on_c, 3, 79, 100
5, 132720, Note_on_c, 3, 79, 0
5, 133680, Note_on_c, 3, 76, 100
5, 133920, Note_on_c, 3, 76, 0
5, 133920, Note_on_c, 3, 76, 100
5, 134160, Note_on_c, 3, 76, 0
5, 134160, Note_on_c, 3, 75, 100
5, 134400, Note_on_c, 3, 75, 0
5, 134400, Note_on_c, 3, 76, 100
5, 134640, Note_on_c, 3, 76, 0
5, 134640, Note_on_c, 3, 71, 100
5, 134760, Note_on_c, 3, 71, 0
5, 134760, Note_on_c, 3, 72, 100
5, 134880, Note_on_c, 3, 72, 0
5, 134880, Note_on_c, 3, 71, 100
5, 135120, Note_on_c, 3, 71, 0
5, 135120, Note_on_c, 3, 83, 100
5, 135360, Note_on_c, 3, 83, 0
5, 135360, Note_on_c, 3, 76, 100
5, 135600, Note_on_c, 3, 76, 0
5, 135600, Note_on_c, 3, 72, 100
5, 135840, Note_on_c, 3, 72, 0
5, 135840, Note_on_c, 3, 74, 100
5, 136080, Note_on_c, 3, 74, 0
5, 136080, Note_on_c, 3, 71, 100
5, 136320, Note_on_c, 3, 71, 0
5, 136320, Note_on_c, 3, 72, 100
5, 136560, Note_on_c, 3, 72, 0
5, 136560, Note_on_c, 3, 76, 100
5, 136680, Note_on_c, 3, 76, 0
5, 136680, Note_on_c, 3, 75, 100
5, 136800, Note_on_c, 3, 75, 0
5, 136800, Note_on_c, 3, 76, 100
5, 137040, Note_on_c, 3, 76, 0
5, 137040, Note_on_c, 3, 64, 100
5, 137280, Note_on_c, 3, 64, 0
5, 137280, Note_on_c, 3, 69, 100
5, 137520, Note_on_c, 3, 69, 0
5, 137520, Note_on_c, 3, 72, 100
5, 137760, Note_on_c, 3, 72, 0
5, 137760, Note_on_c, 3, 71, 100
5, 138000, Note_on_c, 3, 71, 0
5, 138000, Note_on_c, 3, 74, 100
5, 138240, Note_on_c, 3, 74, 0
5, 138240, Note_on_c, 3, 72, 100
5, 138480, Note_on_c, 3, 72, 0
5, 147360, Note_on_c, 3, 57, 100
5, 147600, Note_on_c, 3, 57, 0
5, 148320, Note_on_c, 3, 59, 100
5, 148560, Note_on_c, 3, 59, 0
5, 156480, Note_on_c, 3, 72, 100
5, 156720, Note_on_c, 3, 72, 0
5, 157440, Note_on_c, 3, 69, 100
5, 157680, Note_on_c, 3, 69, 0
5, 157680, Note_on_c, 3, 71, 100
5, 157920, Note_on_c, 3, 71, 0
5, 157920, Note_on_c, 3, 72, 100
5, 158400, Note_on_c, 3, 72, 0
5, 158400, Note_on_c, 3, 71, 100
5, 158640, Note_on_c, 3, 71, 0
5, 165120, Note_on_c, 3, 71, 100
5, 165360, Note_on_c, 3, 71, 0
5, 165360, Note_on_c, 3, 72, 100
5, 165480, Note_on_c, 3, 72, 0
5, 165480, Note_on_c, 3, 71, 100
5, 165600, Note_on_c, 3, 71, 0
5, 165600, Note_on_c, 3, 69, 100
5, 165720, Note_on_c, 3, 69, 0
5, 165720, Note_on_c, 3, 67, 100
5, 165840, Note_on_c, 3, 67, 0
5, 165840, Note_on_c, 3, 66, 100
5, 165960, Note_on_c, 3, 66, 0
5, 165960, Note_on_c, 3, 64, 100
5, 166080, Note_on_c, 3, 64, 0
5, 166080, Note_on_c, 3, 66, 100
5, 166320, Note_on_c, 3, 66, 0
5, 166800, Note_on_c, 3, 66, 100
5, 167040, Note_on_c, 3, 66, 0
5, 167040, Note_on_c, 3, 64, 100
5, 167280, Note_on_c, 3, 64, 0
5, 167520, Note_on_c, 3, 64, 100
5, 167760, Note_on_c, 3, 64, 0
5, 168000, Note_on_c, 3, 69, 100
5, 168240, Note_on_c, 3, 69, 0
5, 168240, Note_on_c, 3, 66, 100
5, 168480, Note_on_c, 3, 66, 0
5, 168480, Note_on_c, 3, 67, 100
5, 168720, Note_on_c, 3, 67, 0
5, 168720, Note_on_c, 3, 64, 100
5, 168960, Note_on_c, 3, 64, 0
5, 168960, Note_on_c, 3, 66, 100
5, 169680, Note_on_c, 3, 66, 0
5, 169680, Note_on_c, 3, 64, 100
5, 169920, Note_on_c, 3, 64, 0
5, 169920, Note_on_c, 3, 63, 100
5, 170160, Note_on_c, 3, 63, 0
5, 181440, Note_on_c, 3, 57, 100
5, 181680, Note_on_c, 3, 57, 0
5, 183360, Note_on_c, 3, 55, 100
5, 183600, Note_on_c, 3, 55, 0
5, 185280, Note_on_c, 3, 56, 100
5, 185520, Note_on_c, 3, 56, 0
5, 189600, Note_on_c, 3, 62, 100
5, 189840, Note_on_c, 3, 62, 0
5, 190080, Note_on_c, 3, 57, 100
5, 190320, Note_on_c, 3, 57, 0
5, 190560, Note_on_c, 3, 58, 100
5, 190800, Note_on_c, 3, 58, 0
5, 211200, Note_on_c, 3, 55, 100
5, 211440, Note_on_c, 3, 55, 0
5, 213120, Note_on_c, 3, 62, 100
5, 213360, Note_on_c, 3, 62, 0
5, 213360, Note_on_c, 3, 74, 100
5, 213480, Note_on_c, 3, 74, 0
5, 213480, Note_on_c, 3, 73, 100
5, 213600, Note_on_c, 3, 73, 0
5, 213600, Note_on_c, 3, 74, 100
5, 213840, Note_on_c, 3, 74, 0
5, 213840, Note_on_c, 3, 62, 100
5, 214080, Note_on_c, 3, 62, 0
5, 214080, Note_on_c, 3, 67, 100
5, 214320, Note_on_c, 3, 67, 0
5, 214320, Note_on_c, 3, 70, 100
5, 214560, Note_on_c, 3, 70, 0
5, 214560, Note_on_c, 3, 69, 100
5, 214800, Note_on_c, 3, 69, 0
5, 214800, Note_on_c, 3, 72, 100
5, 215040, Note_on_c, 3, 72, 0
5, 215040, Note_on_c, 3, 65, 100
5, 215280, Note_on_c, 3, 65, 0
5, 216000, Note_on_c, 3, 70, 100
5, 216240, Note_on_c, 3, 70, 0
5, 216480, Note_on_c, 3, 69, 100
5, 216720, Note_on_c, 3, 69, 0
5, 216960, Note_on_c, 3, 67, 100
5, 217200, Note_on_c, 3, 67, 0
5, 217920, Note_on_c, 3, 65, 100
5, 218160, Note_on_c, 3, 65, 0
5, 218880, Note_on_c, 3, 64, 100
5, 219120, Note_on_c, 3, 64, 0
5, 219600, Note_on_c, 3, 62, 100
5, 219840, Note_on_c, 3, 62, 0
5, 219840, Note_on_c, 3, 64, 100
5, 220080, Note_on_c, 3, 64, 0
5, 220320, Note_on_c, 3, 69, 100
5, 220560, Note_on_c, 3, 69, 0
5, 220560, Note_on_c, 3, 70, 100
5, 220800, Note_on_c, 3, 70, 0
5, 240480, Note_on_c, 3, 64, 100
5, 240720, Note_on_c, 3, 64, 0
5, 245760, Note_on_c, 3, 57, 100
5, 246000, Note_on_c, 3, 57, 0
5, 246720, Note_on_c, 3, 62, 100
5, 246960, Note_on_c, 3, 62, 0
5, 247200, Note_on_c, 3, 60, 100
5, 247440, Note_on_c, 3, 60, 0
5, 247680, Note_on_c, 3, 59, 100
5, 247920, Note_on_c, 3, 59, 0
5, 259200, Note_on_c, 3, 64, 100
5, 259440, Note_on_c, 3, 64, 0
5, 260400, Note_on_c, 3, 64, 100
5, 260520, Note_on_c, 3, 64, 0
5, 260520, Note_on_c, 3, 65, 100
5, 260640, Note_on_c, 3, 65, 0
5, 260640, Note_on_c, 3, 64, 100
5, 260880, Note_on_c, 3, 64, 0
5, 260880, Note_on_c, 3, 64, 100
5, 261120, Note_on_c, 3, 64, 0
5, 261120, Note_on_c, 3, 69, 100
5, 261360, Note_on_c, 3, 69, 0
5, 261360, Note_on_c, 3, 65, 100
5, 261600, Note_on_c, 3, 65, 0
5, 261600, Note_on_c, 3, 67, 100
5, 261840, Note_on_c, 3, 67, 0
5, 261840, Note_on_c, 3, 64, 100
5, 262080, Note_on_c, 3, 64, 0
5, 262080, Note_on_c, 3, 65, 100
5, 262320, Note_on_c, 3, 65, 0
5, 262320, Note_on_c, 3, 62, 100
5, 262560, Note_on_c, 3, 62, 0
5, 262560, Note_on_c, 3, 64, 100
5, 262800, Note_on_c, 3, 64, 0
5, 262800, Note_on_c, 3, 57, 100
5, 263040, Note_on_c, 3, 57, 0
5, 263040, Note_on_c, 3, 62, 100
5, 263280, Note_on_c, 3, 62, 0
5, 266160, Note_on_c, 3, 68, 100
5, 266400, Note_on_c, 3, 68, 0
5, 266400, Note_on_c, 3, 69, 100
5, 266640, Note_on_c, 3, 69, 0
5, 268800, Note_on_c, 3, 81, 100
5, 269040, Note_on_c, 3, 81, 0
5, 269280, Note_on_c, 3, 80, 100
5, 269520, Note_on_c, 3, 80, 0
5, 269760, Note_on_c, 3, 81, 100
5, 270000, Note_on_c, 3, 81, 0
5, 270000, Note_on_c, 3, 69, 100
5, 270120, Note_on_c, 3, 69, 0
5, 270120, Note_on_c, 3, 71, 100
5, 270240, Note_on_c, 3, 71, 0
5, 270240, Note_on_c, 3, 69, 100
5, 270480, Note_on_c, 3, 69, 0
5, 270480, Note_on_c, 3, 81, 100
5, 270720, Note_on_c, 3, 81, 0
5, 270720, Note_on_c, 3, 76, 100
5, 270960, Note_on_c, 3, 76, 0
5, 270960, Note_on_c, 3, 72, 100
5, 271200, Note_on_c, 3, 72, 0
5, 271200, Note_on_c, 3, 74, 100
5, 271440, Note_on_c, 3, 74, 0
5, 271440, Note_on_c, 3, 71, 100
5, 271680, Note_on_c, 3, 71, 0
5, 271680, Note_on_c, 3, 72, 100
5, 271920, Note_on_c, 3, 72, 0
5, 272160, Note_on_c, 3, 73, 100
5, 272400, Note_on_c, 3, 73, 0
5, 272640, Note_on_c, 3, 74, 100
5, 272880, Note_on_c, 3, 74, 0
5, 273120, Note_on_c, 3, 73, 100
5, 273360, Note_on_c, 3, 73, 0
5, 275760, Note_on_c, 3, 64, 100
5, 276000, Note_on_c, 3, 64, 0
5, 276480, Note_on_c, 3, 64, 100
5, 277440, Note_on_c, 3, 64, 0
5, 277440, End_track
6, 0, Start_track
6, 0, MIDI_port, 0
6, 0, Title_t, "--------------------------------------"
6, 0, End_track
7, 0, Start_track
7, 0, MIDI_port, 0
7, 0, Title_t, "Sonata No. 2 in A minor - BWV 1003"
7, 0, End_track
8, 0, Start_track
8, 0, MIDI_port, 0
8, 0, Title_t, "2nd Movement: Fuga"
8, 0, End_track
9, 0, Start_track
9, 0, MIDI_port, 0
9, 0, Title_t, "--------------------------------------"
9, 0, End_track
10, 0, Start_track
10, 0, MIDI_port, 0
10, 0, Title_t, "Sequenced with Cakewalk Pro Audio by"
10, 0, End_track
11, 0, Start_track
11, 0, MIDI_port, 0
11, 0, Title_t, "David J. Grossman - dave@unpronounceable.com"
11, 0, End_track
12, 0, Start_track
12, 0, MIDI_port, 0
12, 0, Title_t, "This and other Bach MIDI files can be found at:"
12, 0, End_track
13, 0, Start_track
13, 0, MIDI_port, 0
13, 0, Title_t, "Dave's J.S. Bach Page"
13, 0, End_track
14, 0, Start_track
14, 0, MIDI_port, 0
14, 0, Title_t, "http://www.unpronounceable.com/bach"
14, 0, End_track
15, 0, Start_track
15, 0, MIDI_port, 0
15, 0, Title_t, "--------------------------------------"
15, 0, End_track
16, 0, Start_track
16, 0, MIDI_port, 0
16, 0, Title_t, "Original Filename: vs2-2fug.mid"
16, 0, End_track
17, 0, Start_track
17, 0, MIDI_port, 0
17, 0, Title_t, "Last Modified: February 22, 1997"
17, 0, End_track
0, 0, End_of_file
