0, 0, Header, 1, 17, 480
1, 0, Start_track
1, 0, Title_t, "untitled"
1, 0, SMPTE_offset, 96, 0, 3, 0, 0
1, 0, Time_signature, 4, 2, 24, 8
1, 0, Key_signature, 0, "major"
1, 0, Tempo, 428571
1, 569280, Marker_t, "->"
1, 679680, Tempo, 1395349
1, 679680, End_track
2, 0, Start_track
2, 0, MIDI_port, 0
2, 0, Title_t, "Solo Violin"
2, 0, Program_c, 0, 40
2, 0, Control_c, 0, 7, 100
2, 0, Control_c, 0, 10, 69
2, 960, Note_on_c, 0, 67, 100
2, 1920, Note_on_c, 0, 67, 0
2, 1920, Note_on_c, 0, 69, 100
2, 2400, Note_on_c, 0, 69, 0
2, 2400, Note_on_c, 0, 67, 100
2, 2640, Note_on_c, 0, 67, 0
2, 2640, Note_on_c, 0, 65, 100
2, 2880, Note_on_c, 0, 65, 0
2, 2880, Note_on_c, 0, 64, 100
2, 3360, Note_on_c, 0, 64, 0
2, 3360, Note_on_c, 0, 65, 100
2, 3840, Note_on_c, 0, 65, 0
2, 3840, Note_on_c, 0, 67, 100
2, 4800, Note_on_c, 0, 67, 0
2, 4800, Note_on_c, 0, 62, 100
2, 5280, Note_on_c, 0, 62, 0
2, 5280, Note_on_c, 0, 64, 100
2, 5760, Note_on_c, 0, 64, 0
2, 5760, Note_on_c, 0, 65, 100
2, 6240, Note_on_c, 0, 65, 0
2, 6240, Note_on_c, 0, 64, 100
2, 6720, Note_on_c, 0, 64, 0
2, 6720, Note_on_c, 0, 65, 100
2, 7200, Note_on_c, 0, 65, 0
2, 7200, Note_on_c, 0, 67, 100
2, 7440, Note_on_c, 0, 67, 0
2, 7440, Note_on_c, 0, 65, 100
2, 7680, Note_on_c, 0, 65, 0
2, 7680, Note_on_c, 0, 64, 100
2, 8160, Note_on_c, 0, 64, 0
2, 8160, Note_on_c, 0, 65, 100
2, 8400, Note_on_c, 0, 65, 0
2, 8400, Note_on_c, 0, 67, 100
2, 8640, Note_on_c, 0, 67, 0
2, 8640, Note_on_c, 0, 69, 100
2, 9600, Note_on_c, 0, 69, 0
2, 9600, Note_on_c, 0, 68, 100
2, 10560, Note_on_c, 0, 68, 0
2, 10560, Note_on_c, 0, 67, 100
2, 11520, Note_on_c, 0, 67, 0
2, 11520, Note_on_c, 0, 66, 100
2, 12480, Note_on_c, 0, 66, 0
2, 12480, Note_on_c, 0, 65, 100
2, 13440, Note_on_c, 0, 65, 0
2, 13440, Note_on_c, 0, 64, 100
2, 13920, Note_on_c, 0, 64, 0
2, 13920, Note_on_c, 0, 62, 100
2, 14400, Note_on_c, 0, 62, 0
2, 14400, Note_on_c, 0, 64, 100
2, 14880, Note_on_c, 0, 64, 0
2, 14880, Note_on_c, 0, 66, 100
2, 15360, Note_on_c, 0, 66, 0
2, 15360, Note_on_c, 0, 67, 100
2, 15840, Note_on_c, 0, 67, 0
2, 15840, Note_on_c, 0, 65, 100
2, 16320, Note_on_c, 0, 65, 0
2, 16320, Note_on_c, 0, 67, 100
2, 16800, Note_on_c, 0, 67, 0
2, 16800, Note_on_c, 0, 64, 100
2, 17280, Note_on_c, 0, 64, 0
2, 17280, Note_on_c, 0, 65, 100
2, 17760, Note_on_c, 0, 65, 0
2, 17760, Note_on_c, 0, 64, 100
2, 18240, Note_on_c, 0, 64, 0
2, 18240, Note_on_c, 0, 65, 100
2, 18720, Note_on_c, 0, 65, 0
2, 18720, Note_on_c, 0, 62, 100
2, 19200, Note_on_c, 0, 62, 0
2, 19200, Note_on_c, 0, 64, 100
2, 20160, Note_on_c, 0, 64, 0
2, 20160, Note_on_c, 0, 64, 100
2, 21120, Note_on_c, 0, 64, 0
2, 21120, Note_on_c, 0, 64, 100
2, 22080, Note_on_c, 0, 64, 0
2, 22080, Note_on_c, 0, 69, 100
2, 23040, Note_on_c, 0, 69, 0
2, 23040, Note_on_c, 0, 62, 100
2, 24000, Note_on_c, 0, 62, 0
2, 24960, Note_on_c, 0, 62, 100
2, 26880, Note_on_c, 0, 62, 0
2, 26880, Note_on_c, 0, 64, 100
2, 27840, Note_on_c, 0, 64, 0
2, 27840, Note_on_c, 0, 69, 100
2, 28800, Note_on_c, 0, 69, 0
2, 28800, Note_on_c, 0, 64, 100
2, 29760, Note_on_c, 0, 64, 0
2, 29760, Note_on_c, 0, 64, 100
2, 30720, Note_on_c, 0, 64, 0
2, 30720, Note_on_c, 0, 62, 100
2, 31680, Note_on_c, 0, 62, 0
2, 31680, Note_on_c, 0, 65, 100
2, 32640, Note_on_c, 0, 65, 0
2, 32640, Note_on_c, 0, 64, 100
2, 33600, Note_on_c, 0, 64, 0
2, 34560, Note_on_c, 0, 62, 100
2, 35520, Note_on_c, 0, 62, 0
2, 36480, Note_on_c, 0, 69, 100
2, 37440, Note_on_c, 0, 69, 0
2, 37440, Note_on_c, 0, 62, 100
2, 38400, Note_on_c, 0, 62, 0
2, 38400, Note_on_c, 0, 67, 100
2, 39360, Note_on_c, 0, 67, 0
2, 40320, Note_on_c, 0, 67, 100
2, 40800, Note_on_c, 0, 67, 0
2, 41760, Note_on_c, 0, 67, 100
2, 42240, Note_on_c, 0, 67, 0
2, 42240, Note_on_c, 0, 65, 100
2, 42720, Note_on_c, 0, 65, 0
2, 44160, Note_on_c, 0, 65, 100
2, 44640, Note_on_c, 0, 65, 0
2, 45600, Note_on_c, 0, 65, 100
2, 46080, Note_on_c, 0, 65, 0
2, 46080, Note_on_c, 0, 64, 100
2, 46560, Note_on_c, 0, 64, 0
2, 46560, Note_on_c, 0, 65, 100
2, 47040, Note_on_c, 0, 65, 0
2, 47040, Note_on_c, 0, 67, 100
2, 48000, Note_on_c, 0, 67, 0
2, 48000, Note_on_c, 0, 66, 100
2, 48960, Note_on_c, 0, 66, 0
2, 48960, Note_on_c, 0, 65, 100
2, 49920, Note_on_c, 0, 65, 0
2, 49920, Note_on_c, 0, 64, 100
2, 50880, Note_on_c, 0, 64, 0
2, 50880, Note_on_c, 0, 63, 100
2, 51840, Note_on_c, 0, 63, 0
2, 51840, Note_on_c, 0, 62, 100
2, 52800, Note_on_c, 0, 62, 0
2, 52800, Note_on_c, 0, 64, 100
2, 53760, Note_on_c, 0, 64, 0
2, 53760, Note_on_c, 0, 65, 100
2, 54240, Note_on_c, 0, 65, 0
2, 54240, Note_on_c, 0, 64, 100
2, 54720, Note_on_c, 0, 64, 0
2, 54720, Note_on_c, 0, 65, 100
2, 55200, Note_on_c, 0, 65, 0
2, 55200, Note_on_c, 0, 67, 100
2, 55440, Note_on_c, 0, 67, 0
2, 55440, Note_on_c, 0, 65, 100
2, 55680, Note_on_c, 0, 65, 0
2, 55680, Note_on_c, 0, 64, 100
2, 56640, Note_on_c, 0, 64, 0
2, 56640, Note_on_c, 0, 66, 100
2, 57600, Note_on_c, 0, 66, 0
2, 57600, Note_on_c, 0, 67, 100
2, 58560, Note_on_c, 0, 67, 0
2, 58560, Note_on_c, 0, 67, 100
2, 59520, Note_on_c, 0, 67, 0
2, 59520, Note_on_c, 0, 69, 100
2, 60000, Note_on_c, 0, 69, 0
2, 60000, Note_on_c, 0, 67, 100
2, 60240, Note_on_c, 0, 67, 0
2, 60240, Note_on_c, 0, 65, 100
2, 60480, Note_on_c, 0, 65, 0
2, 60480, Note_on_c, 0, 64, 100
2, 60960, Note_on_c, 0, 64, 0
2, 60960, Note_on_c, 0, 66, 100
2, 61440, Note_on_c, 0, 66, 0
2, 61440, Note_on_c, 0, 67, 100
2, 62400, Note_on_c, 0, 67, 0
2, 62400, Note_on_c, 0, 62, 100
2, 62880, Note_on_c, 0, 62, 0
2, 62880, Note_on_c, 0, 64, 100
2, 63360, Note_on_c, 0, 64, 0
2, 63360, Note_on_c, 0, 65, 100
2, 63840, Note_on_c, 0, 65, 0
2, 63840, Note_on_c, 0, 64, 100
2, 64320, Note_on_c, 0, 64, 0
2, 64320, Note_on_c, 0, 65, 100
2, 64800, Note_on_c, 0, 65, 0
2, 64800, Note_on_c, 0, 67, 100
2, 65040, Note_on_c, 0, 67, 0
2, 65040, Note_on_c, 0, 65, 100
2, 65280, Note_on_c, 0, 65, 0
2, 65280, Note_on_c, 0, 64, 100
2, 65760, Note_on_c, 0, 64, 0
2, 65760, Note_on_c, 0, 72, 100
2, 66000, Note_on_c, 0, 72, 0
2, 66000, Note_on_c, 0, 71, 100
2, 66240, Note_on_c, 0, 71, 0
2, 66240, Note_on_c, 0, 69, 100
2, 66720, Note_on_c, 0, 69, 0
2, 66720, Note_on_c, 0, 67, 100
2, 67200, Note_on_c, 0, 67, 0
2, 67200, Note_on_c, 0, 66, 100
2, 67680, Note_on_c, 0, 66, 0
2, 67680, Note_on_c, 0, 74, 100
2, 67920, Note_on_c, 0, 74, 0
2, 67920, Note_on_c, 0, 72, 100
2, 68160, Note_on_c, 0, 72, 0
2, 68160, Note_on_c, 0, 74, 100
2, 68640, Note_on_c, 0, 74, 0
2, 68640, Note_on_c, 0, 66, 100
2, 69120, Note_on_c, 0, 66, 0
2, 69120, Note_on_c, 0, 67, 100
2, 69600, Note_on_c, 0, 67, 0
2, 69600, Note_on_c, 0, 70, 100
2, 69840, Note_on_c, 0, 70, 0
2, 69840, Note_on_c, 0, 69, 100
2, 70080, Note_on_c, 0, 69, 0
2, 70080, Note_on_c, 0, 67, 100
2, 70560, Note_on_c, 0, 67, 0
2, 70560, Note_on_c, 0, 65, 100
2, 71040, Note_on_c, 0, 65, 0
2, 71040, Note_on_c, 0, 64, 100
2, 71520, Note_on_c, 0, 64, 0
2, 71520, Note_on_c, 0, 72, 100
2, 71760, Note_on_c, 0, 72, 0
2, 71760, Note_on_c, 0, 70, 100
2, 72000, Note_on_c, 0, 70, 0
2, 72000, Note_on_c, 0, 72, 100
2, 72480, Note_on_c, 0, 72, 0
2, 72480, Note_on_c, 0, 64, 100
2, 72960, Note_on_c, 0, 64, 0
2, 72960, Note_on_c, 0, 65, 100
2, 73440, Note_on_c, 0, 65, 0
2, 73440, Note_on_c, 0, 69, 100
2, 73680, Note_on_c, 0, 69, 0
2, 73680, Note_on_c, 0, 67, 100
2, 73920, Note_on_c, 0, 67, 0
2, 73920, Note_on_c, 0, 65, 100
2, 74160, Note_on_c, 0, 65, 0
2, 74160, Note_on_c, 0, 67, 100
2, 74400, Note_on_c, 0, 67, 0
2, 74400, Note_on_c, 0, 64, 100
2, 74640, Note_on_c, 0, 64, 0
2, 74640, Note_on_c, 0, 65, 100
2, 74880, Note_on_c, 0, 65, 0
2, 74880, Note_on_c, 0, 62, 100
2, 75120, Note_on_c, 0, 62, 0
2, 75120, Note_on_c, 0, 69, 100
2, 75360, Note_on_c, 0, 69, 0
2, 75360, Note_on_c, 0, 74, 100
2, 75600, Note_on_c, 0, 74, 0
2, 75600, Note_on_c, 0, 72, 100
2, 75840, Note_on_c, 0, 72, 0
2, 75840, Note_on_c, 0, 71, 100
2, 76080, Note_on_c, 0, 71, 0
2, 76080, Note_on_c, 0, 69, 100
2, 76320, Note_on_c, 0, 69, 0
2, 76320, Note_on_c, 0, 67, 100
2, 76560, Note_on_c, 0, 67, 0
2, 76560, Note_on_c, 0, 65, 100
2, 76800, Note_on_c, 0, 65, 0
2, 76800, Note_on_c, 0, 64, 100
2, 77280, Note_on_c, 0, 64, 0
2, 77280, Note_on_c, 0, 72, 100
2, 77520, Note_on_c, 0, 72, 0
2, 77520, Note_on_c, 0, 71, 100
2, 77760, Note_on_c, 0, 71, 0
2, 77760, Note_on_c, 0, 69, 100
2, 78000, Note_on_c, 0, 69, 0
2, 78000, Note_on_c, 0, 72, 100
2, 78240, Note_on_c, 0, 72, 0
2, 78240, Note_on_c, 0, 76, 100
2, 78480, Note_on_c, 0, 76, 0
2, 78480, Note_on_c, 0, 67, 100
2, 78720, Note_on_c, 0, 67, 0
2, 78720, Note_on_c, 0, 65, 100
2, 78960, Note_on_c, 0, 65, 0
2, 78960, Note_on_c, 0, 69, 100
2, 79200, Note_on_c, 0, 69, 0
2, 79200, Note_on_c, 0, 77, 100
2, 79440, Note_on_c, 0, 77, 0
2, 79440, Note_on_c, 0, 76, 100
2, 79680, Note_on_c, 0, 76, 0
2, 79680, Note_on_c, 0, 74, 100
2, 79920, Note_on_c, 0, 74, 0
2, 79920, Note_on_c, 0, 72, 100
2, 80160, Note_on_c, 0, 72, 0
2, 80160, Note_on_c, 0, 71, 100
2, 80400, Note_on_c, 0, 71, 0
2, 80400, Note_on_c, 0, 69, 100
2, 80640, Note_on_c, 0, 69, 0
2, 80640, Note_on_c, 0, 67, 100
2, 80880, Note_on_c, 0, 67, 0
2, 80880, Note_on_c, 0, 69, 100
2, 81000, Note_on_c, 0, 69, 0
2, 81000, Note_on_c, 0, 71, 100
2, 81120, Note_on_c, 0, 71, 0
2, 81120, Note_on_c, 0, 72, 100
2, 81360, Note_on_c, 0, 72, 0
2, 81360, Note_on_c, 0, 74, 100
2, 81600, Note_on_c, 0, 74, 0
2, 81600, Note_on_c, 0, 76, 100
2, 81840, Note_on_c, 0, 76, 0
2, 81840, Note_on_c, 0, 77, 100
2, 82080, Note_on_c, 0, 77, 0
2, 82080, Note_on_c, 0, 79, 100
2, 82320, Note_on_c, 0, 79, 0
2, 82320, Note_on_c, 0, 70, 100
2, 82560, Note_on_c, 0, 70, 0
2, 82560, Note_on_c, 0, 69, 100
2, 82800, Note_on_c, 0, 69, 0
2, 82800, Note_on_c, 0, 76, 100
2, 83040, Note_on_c, 0, 76, 0
2, 83040, Note_on_c, 0, 81, 100
2, 83280, Note_on_c, 0, 81, 0
2, 83280, Note_on_c, 0, 79, 100
2, 83520, Note_on_c, 0, 79, 0
2, 83520, Note_on_c, 0, 77, 100
2, 83760, Note_on_c, 0, 77, 0
2, 83760, Note_on_c, 0, 79, 100
2, 83880, Note_on_c, 0, 79, 0
2, 83880, Note_on_c, 0, 81, 100
2, 84000, Note_on_c, 0, 81, 0
2, 84000, Note_on_c, 0, 74, 100
2, 84240, Note_on_c, 0, 74, 0
2, 84240, Note_on_c, 0, 76, 100
2, 84360, Note_on_c, 0, 76, 0
2, 84360, Note_on_c, 0, 77, 100
2, 84480, Note_on_c, 0, 77, 0
2, 84480, Note_on_c, 0, 71, 100
2, 84720, Note_on_c, 0, 71, 0
2, 84720, Note_on_c, 0, 74, 100
2, 84960, Note_on_c, 0, 74, 0
2, 84960, Note_on_c, 0, 76, 100
2, 85200, Note_on_c, 0, 76, 0
2, 85200, Note_on_c, 0, 77, 100
2, 85440, Note_on_c, 0, 77, 0
2, 85440, Note_on_c, 0, 79, 100
2, 86400, Note_on_c, 0, 79, 0
2, 87360, Note_on_c, 0, 69, 100
2, 87840, Note_on_c, 0, 69, 0
2, 88320, Note_on_c, 0, 67, 100
2, 88560, Note_on_c, 0, 67, 0
2, 88560, Note_on_c, 0, 79, 100
2, 88800, Note_on_c, 0, 79, 0
2, 88800, Note_on_c, 0, 77, 100
2, 89040, Note_on_c, 0, 77, 0
2, 89040, Note_on_c, 0, 76, 100
2, 89280, Note_on_c, 0, 76, 0
2, 89280, Note_on_c, 0, 74, 100
2, 89760, Note_on_c, 0, 74, 0
2, 89760, Note_on_c, 0, 76, 100
2, 90240, Note_on_c, 0, 76, 0
2, 90240, Note_on_c, 0, 76, 100
2, 90720, Note_on_c, 0, 76, 0
2, 90720, Note_on_c, 0, 77, 100
2, 90960, Note_on_c, 0, 77, 0
2, 90960, Note_on_c, 0, 76, 100
2, 91200, Note_on_c, 0, 76, 0
2, 91200, Note_on_c, 0, 77, 100
2, 91680, Note_on_c, 0, 77, 0
2, 91680, Note_on_c, 0, 79, 100
2, 91920, Note_on_c, 0, 79, 0
2, 91920, Note_on_c, 0, 77, 100
2, 92160, Note_on_c, 0, 77, 0
2, 92160, Note_on_c, 0, 76, 100
2, 92640, Note_on_c, 0, 76, 0
2, 94080, Note_on_c, 0, 76, 100
2, 94560, Note_on_c, 0, 76, 0
2, 95040, Note_on_c, 0, 74, 100
2, 95520, Note_on_c, 0, 74, 0
2, 96000, Note_on_c, 0, 74, 100
2, 96480, Note_on_c, 0, 74, 0
2, 96480, Note_on_c, 0, 72, 100
2, 96720, Note_on_c, 0, 72, 0
2, 96720, Note_on_c, 0, 71, 100
2, 96960, Note_on_c, 0, 71, 0
2, 96960, Note_on_c, 0, 72, 100
2, 97440, Note_on_c, 0, 72, 0
2, 97440, Note_on_c, 0, 74, 100
2, 97680, Note_on_c, 0, 74, 0
2, 97680, Note_on_c, 0, 76, 100
2, 97920, Note_on_c, 0, 76, 0
2, 97920, Note_on_c, 0, 77, 100
2, 98400, Note_on_c, 0, 77, 0
2, 98400, Note_on_c, 0, 77, 100
2, 98640, Note_on_c, 0, 77, 0
2, 98640, Note_on_c, 0, 76, 100
2, 98880, Note_on_c, 0, 76, 0
2, 98880, Note_on_c, 0, 77, 100
2, 99360, Note_on_c, 0, 77, 0
2, 99360, Note_on_c, 0, 79, 100
2, 99600, Note_on_c, 0, 79, 0
2, 99600, Note_on_c, 0, 77, 100
2, 99840, Note_on_c, 0, 77, 0
2, 99840, Note_on_c, 0, 76, 100
2, 100320, Note_on_c, 0, 76, 0
2, 101760, Note_on_c, 0, 76, 100
2, 102240, Note_on_c, 0, 76, 0
2, 103200, Note_on_c, 0, 76, 100
2, 103680, Note_on_c, 0, 76, 0
2, 103680, Note_on_c, 0, 77, 100
2, 104160, Note_on_c, 0, 77, 0
2, 105600, Note_on_c, 0, 78, 100
2, 106080, Note_on_c, 0, 78, 0
2, 107040, Note_on_c, 0, 78, 100
2, 107520, Note_on_c, 0, 78, 0
2, 107520, Note_on_c, 0, 79, 100
2, 108000, Note_on_c, 0, 79, 0
2, 108480, Note_on_c, 0, 79, 100
2, 109440, Note_on_c, 0, 79, 0
2, 109440, Note_on_c, 0, 79, 100
2, 110400, Note_on_c, 0, 79, 0
2, 110400, Note_on_c, 0, 77, 100
2, 111360, Note_on_c, 0, 77, 0
2, 111360, Note_on_c, 0, 77, 100
2, 112320, Note_on_c, 0, 77, 0
2, 112320, Note_on_c, 0, 76, 100
2, 113280, Note_on_c, 0, 76, 0
2, 113280, Note_on_c, 0, 76, 100
2, 113760, Note_on_c, 0, 76, 0
2, 189120, Note_on_c, 0, 81, 100
2, 190080, Note_on_c, 0, 81, 0
2, 190080, Note_on_c, 0, 82, 100
2, 190560, Note_on_c, 0, 82, 0
2, 190560, Note_on_c, 0, 81, 100
2, 190800, Note_on_c, 0, 81, 0
2, 190800, Note_on_c, 0, 79, 100
2, 191040, Note_on_c, 0, 79, 0
2, 191040, Note_on_c, 0, 77, 100
2, 191520, Note_on_c, 0, 77, 0
2, 191520, Note_on_c, 0, 79, 100
2, 192000, Note_on_c, 0, 79, 0
2, 192000, Note_on_c, 0, 81, 100
2, 192960, Note_on_c, 0, 81, 0
2, 192960, Note_on_c, 0, 76, 100
2, 193440, Note_on_c, 0, 76, 0
2, 193440, Note_on_c, 0, 77, 100
2, 193920, Note_on_c, 0, 77, 0
2, 193920, Note_on_c, 0, 79, 100
2, 194400, Note_on_c, 0, 79, 0
2, 194400, Note_on_c, 0, 77, 100
2, 194880, Note_on_c, 0, 77, 0
2, 194880, Note_on_c, 0, 79, 100
2, 195360, Note_on_c, 0, 79, 0
2, 195360, Note_on_c, 0, 81, 100
2, 195600, Note_on_c, 0, 81, 0
2, 195600, Note_on_c, 0, 79, 100
2, 195840, Note_on_c, 0, 79, 0
2, 195840, Note_on_c, 0, 77, 100
2, 196800, Note_on_c, 0, 77, 0
2, 196800, Note_on_c, 0, 82, 100
2, 198240, Note_on_c, 0, 82, 0
2, 198240, Note_on_c, 0, 81, 100
2, 198480, Note_on_c, 0, 81, 0
2, 198480, Note_on_c, 0, 79, 100
2, 198720, Note_on_c, 0, 79, 0
2, 198720, Note_on_c, 0, 81, 100
2, 198960, Note_on_c, 0, 81, 0
2, 198960, Note_on_c, 0, 82, 100
2, 199200, Note_on_c, 0, 82, 0
2, 199200, Note_on_c, 0, 81, 100
2, 199440, Note_on_c, 0, 81, 0
2, 199440, Note_on_c, 0, 79, 100
2, 199680, Note_on_c, 0, 79, 0
2, 199680, Note_on_c, 0, 78, 100
2, 200640, Note_on_c, 0, 78, 0
2, 200640, Note_on_c, 0, 79, 100
2, 202080, Note_on_c, 0, 79, 0
2, 202080, Note_on_c, 0, 77, 100
2, 202320, Note_on_c, 0, 77, 0
2, 202320, Note_on_c, 0, 76, 100
2, 202560, Note_on_c, 0, 76, 0
2, 202560, Note_on_c, 0, 77, 100
2, 203520, Note_on_c, 0, 77, 0
2, 203520, Note_on_c, 0, 76, 100
2, 204480, Note_on_c, 0, 76, 0
2, 204480, Note_on_c, 0, 81, 100
2, 205440, Note_on_c, 0, 81, 0
2, 210240, Note_on_c, 0, 64, 100
2, 210720, Note_on_c, 0, 64, 0
2, 213120, Note_on_c, 0, 66, 100
2, 214080, Note_on_c, 0, 66, 0
2, 214080, Note_on_c, 0, 65, 100
2, 215040, Note_on_c, 0, 65, 0
2, 215040, Note_on_c, 0, 64, 100
2, 216000, Note_on_c, 0, 64, 0
2, 216000, Note_on_c, 0, 66, 100
2, 216960, Note_on_c, 0, 66, 0
2, 216960, Note_on_c, 0, 67, 100
2, 217920, Note_on_c, 0, 67, 0
2, 217920, Note_on_c, 0, 67, 100
2, 218880, Note_on_c, 0, 67, 0
2, 218880, Note_on_c, 0, 69, 100
2, 219360, Note_on_c, 0, 69, 0
2, 219360, Note_on_c, 0, 67, 100
2, 219600, Note_on_c, 0, 67, 0
2, 219600, Note_on_c, 0, 65, 100
2, 219840, Note_on_c, 0, 65, 0
2, 219840, Note_on_c, 0, 64, 100
2, 220320, Note_on_c, 0, 64, 0
2, 220320, Note_on_c, 0, 66, 100
2, 220800, Note_on_c, 0, 66, 0
2, 220800, Note_on_c, 0, 67, 100
2, 221760, Note_on_c, 0, 67, 0
2, 221760, Note_on_c, 0, 62, 100
2, 222240, Note_on_c, 0, 62, 0
2, 222240, Note_on_c, 0, 64, 100
2, 222720, Note_on_c, 0, 64, 0
2, 222720, Note_on_c, 0, 65, 100
2, 223200, Note_on_c, 0, 65, 0
2, 223200, Note_on_c, 0, 64, 100
2, 223680, Note_on_c, 0, 64, 0
2, 223680, Note_on_c, 0, 65, 100
2, 224160, Note_on_c, 0, 65, 0
2, 224160, Note_on_c, 0, 67, 100
2, 224400, Note_on_c, 0, 67, 0
2, 224400, Note_on_c, 0, 65, 100
2, 224640, Note_on_c, 0, 65, 0
2, 224640, Note_on_c, 0, 64, 100
2, 225600, Note_on_c, 0, 64, 0
2, 225600, Note_on_c, 0, 64, 100
2, 226080, Note_on_c, 0, 64, 0
2, 226080, Note_on_c, 0, 66, 100
2, 226560, Note_on_c, 0, 66, 0
2, 226560, Note_on_c, 0, 67, 100
2, 227040, Note_on_c, 0, 67, 0
2, 227040, Note_on_c, 0, 66, 100
2, 227520, Note_on_c, 0, 66, 0
2, 227520, Note_on_c, 0, 67, 100
2, 228000, Note_on_c, 0, 67, 0
2, 228000, Note_on_c, 0, 69, 100
2, 228240, Note_on_c, 0, 69, 0
2, 228240, Note_on_c, 0, 67, 100
2, 228480, Note_on_c, 0, 67, 0
2, 228480, Note_on_c, 0, 65, 100
2, 229440, Note_on_c, 0, 65, 0
2, 229440, Note_on_c, 0, 65, 100
2, 229920, Note_on_c, 0, 65, 0
2, 229920, Note_on_c, 0, 67, 100
2, 230160, Note_on_c, 0, 67, 0
2, 230160, Note_on_c, 0, 65, 100
2, 230400, Note_on_c, 0, 65, 0
2, 230400, Note_on_c, 0, 64, 100
2, 231360, Note_on_c, 0, 64, 0
2, 231360, Note_on_c, 0, 64, 100
2, 231840, Note_on_c, 0, 64, 0
2, 231840, Note_on_c, 0, 65, 100
2, 232080, Note_on_c, 0, 65, 0
2, 232080, Note_on_c, 0, 64, 100
2, 232320, Note_on_c, 0, 64, 0
2, 232320, Note_on_c, 0, 62, 100
2, 233280, Note_on_c, 0, 62, 0
2, 233280, Note_on_c, 0, 67, 100
2, 234240, Note_on_c, 0, 67, 0
2, 234240, Note_on_c, 0, 67, 100
2, 234720, Note_on_c, 0, 67, 0
2, 241920, Note_on_c, 0, 64, 100
2, 242880, Note_on_c, 0, 64, 0
2, 243840, Note_on_c, 0, 68, 100
2, 244800, Note_on_c, 0, 68, 0
2, 244800, Note_on_c, 0, 64, 100
2, 245760, Note_on_c, 0, 64, 0
2, 245760, Note_on_c, 0, 66, 100
2, 246240, Note_on_c, 0, 66, 0
2, 246240, Note_on_c, 0, 64, 100
2, 246720, Note_on_c, 0, 64, 0
2, 246720, Note_on_c, 0, 66, 100
2, 247200, Note_on_c, 0, 66, 0
2, 247200, Note_on_c, 0, 68, 100
2, 247680, Note_on_c, 0, 68, 0
2, 247680, Note_on_c, 0, 69, 100
2, 248640, Note_on_c, 0, 69, 0
2, 248640, Note_on_c, 0, 64, 100
2, 249120, Note_on_c, 0, 64, 0
2, 249120, Note_on_c, 0, 66, 100
2, 249600, Note_on_c, 0, 66, 0
2, 249600, Note_on_c, 0, 67, 100
2, 250080, Note_on_c, 0, 67, 0
2, 250080, Note_on_c, 0, 66, 100
2, 250560, Note_on_c, 0, 66, 0
2, 250560, Note_on_c, 0, 67, 100
2, 251040, Note_on_c, 0, 67, 0
2, 251040, Note_on_c, 0, 69, 100
2, 251280, Note_on_c, 0, 69, 0
2, 251280, Note_on_c, 0, 67, 100
2, 251520, Note_on_c, 0, 67, 0
2, 251520, Note_on_c, 0, 66, 100
2, 252480, Note_on_c, 0, 66, 0
2, 252480, Note_on_c, 0, 65, 100
2, 253440, Note_on_c, 0, 65, 0
2, 253440, Note_on_c, 0, 64, 100
2, 254400, Note_on_c, 0, 64, 0
2, 254400, Note_on_c, 0, 66, 100
2, 255360, Note_on_c, 0, 66, 0
2, 255360, Note_on_c, 0, 67, 100
2, 255840, Note_on_c, 0, 67, 0
2, 255840, Note_on_c, 0, 65, 100
2, 256080, Note_on_c, 0, 65, 0
2, 256080, Note_on_c, 0, 64, 100
2, 256320, Note_on_c, 0, 64, 0
2, 256320, Note_on_c, 0, 62, 100
2, 256800, Note_on_c, 0, 62, 0
2, 256800, Note_on_c, 0, 64, 100
2, 257280, Note_on_c, 0, 64, 0
2, 257280, Note_on_c, 0, 65, 100
2, 257760, Note_on_c, 0, 65, 0
2, 257760, Note_on_c, 0, 64, 100
2, 258240, Note_on_c, 0, 64, 0
2, 258240, Note_on_c, 0, 65, 100
2, 258720, Note_on_c, 0, 65, 0
2, 258720, Note_on_c, 0, 67, 100
2, 258960, Note_on_c, 0, 67, 0
2, 258960, Note_on_c, 0, 65, 100
2, 259200, Note_on_c, 0, 65, 0
2, 259200, Note_on_c, 0, 64, 100
2, 260160, Note_on_c, 0, 64, 0
2, 260160, Note_on_c, 0, 62, 100
2, 260640, Note_on_c, 0, 62, 0
2, 260640, Note_on_c, 0, 64, 100
2, 261120, Note_on_c, 0, 64, 0
2, 261120, Note_on_c, 0, 65, 100
2, 261600, Note_on_c, 0, 65, 0
2, 261600, Note_on_c, 0, 67, 100
2, 262080, Note_on_c, 0, 67, 0
2, 262080, Note_on_c, 0, 69, 100
2, 263040, Note_on_c, 0, 69, 0
2, 263040, Note_on_c, 0, 62, 100
2, 264000, Note_on_c, 0, 62, 0
2, 265920, Note_on_c, 0, 69, 100
2, 266400, Note_on_c, 0, 69, 0
2, 266400, Note_on_c, 0, 71, 100
2, 266880, Note_on_c, 0, 71, 0
2, 266880, Note_on_c, 0, 72, 100
2, 267360, Note_on_c, 0, 72, 0
2, 267360, Note_on_c, 0, 71, 100
2, 267840, Note_on_c, 0, 71, 0
2, 267840, Note_on_c, 0, 64, 100
2, 268320, Note_on_c, 0, 64, 0
2, 268320, Note_on_c, 0, 65, 100
2, 268800, Note_on_c, 0, 65, 0
2, 268800, Note_on_c, 0, 67, 100
2, 269280, Note_on_c, 0, 67, 0
2, 269280, Note_on_c, 0, 65, 100
2, 269760, Note_on_c, 0, 65, 0
2, 269760, Note_on_c, 0, 59, 100
2, 270240, Note_on_c, 0, 59, 0
2, 270240, Note_on_c, 0, 60, 100
2, 270720, Note_on_c, 0, 60, 0
2, 270720, Note_on_c, 0, 62, 100
2, 271200, Note_on_c, 0, 62, 0
2, 271200, Note_on_c, 0, 60, 100
2, 271680, Note_on_c, 0, 60, 0
2, 271680, Note_on_c, 0, 62, 100
2, 272160, Note_on_c, 0, 62, 0
2, 272160, Note_on_c, 0, 64, 100
2, 272400, Note_on_c, 0, 64, 0
2, 272400, Note_on_c, 0, 62, 100
2, 272640, Note_on_c, 0, 62, 0
2, 272640, Note_on_c, 0, 60, 100
2, 273120, Note_on_c, 0, 60, 0
2, 273120, Note_on_c, 0, 58, 100
2, 273600, Note_on_c, 0, 58, 0
2, 273600, Note_on_c, 0, 60, 100
2, 274080, Note_on_c, 0, 60, 0
2, 274080, Note_on_c, 0, 62, 100
2, 274320, Note_on_c, 0, 62, 0
2, 274320, Note_on_c, 0, 60, 100
2, 274560, Note_on_c, 0, 60, 0
2, 274560, Note_on_c, 0, 58, 100
2, 275520, Note_on_c, 0, 58, 0
2, 275520, Note_on_c, 0, 58, 100
2, 276480, Note_on_c, 0, 58, 0
2, 276480, Note_on_c, 0, 57, 100
2, 277440, Note_on_c, 0, 57, 0
2, 277440, Note_on_c, 0, 55, 100
2, 278400, Note_on_c, 0, 55, 0
2, 278400, Note_on_c, 0, 55, 100
2, 278880, Note_on_c, 0, 55, 0
2, 278880, Note_on_c, 0, 57, 100
2, 279360, Note_on_c, 0, 57, 0
2, 279360, Note_on_c, 0, 58, 100
2, 280320, Note_on_c, 0, 58, 0
2, 280320, Note_on_c, 0, 55, 100
2, 281280, Note_on_c, 0, 55, 0
2, 281280, Note_on_c, 0, 57, 100
2, 282240, Note_on_c, 0, 57, 0
2, 282240, Note_on_c, 0, 62, 100
2, 283200, Note_on_c, 0, 62, 0
2, 296640, Note_on_c, 0, 55, 100
2, 297600, Note_on_c, 0, 55, 0
2, 297600, Note_on_c, 0, 62, 100
2, 298560, Note_on_c, 0, 62, 0
2, 298560, Note_on_c, 0, 55, 100
2, 299520, Note_on_c, 0, 55, 0
2, 299520, Note_on_c, 0, 60, 100
2, 300480, Note_on_c, 0, 60, 0
2, 300480, Note_on_c, 0, 60, 100
2, 301440, Note_on_c, 0, 60, 0
2, 301440, Note_on_c, 0, 59, 100
2, 302400, Note_on_c, 0, 59, 0
2, 302400, Note_on_c, 0, 59, 100
2, 303360, Note_on_c, 0, 59, 0
2, 303360, Note_on_c, 0, 57, 100
2, 304320, Note_on_c, 0, 57, 0
2, 304320, Note_on_c, 0, 60, 100
2, 305280, Note_on_c, 0, 60, 0
2, 305280, Note_on_c, 0, 55, 100
2, 306240, Note_on_c, 0, 55, 0
2, 306240, Note_on_c, 0, 59, 100
2, 307200, Note_on_c, 0, 59, 0
2, 307200, Note_on_c, 0, 57, 100
2, 308160, Note_on_c, 0, 57, 0
2, 308160, Note_on_c, 0, 59, 100
2, 309120, Note_on_c, 0, 59, 0
2, 311040, Note_on_c, 0, 64, 100
2, 312000, Note_on_c, 0, 64, 0
2, 312960, Note_on_c, 0, 64, 100
2, 313920, Note_on_c, 0, 64, 0
2, 314400, Note_on_c, 0, 64, 100
2, 314880, Note_on_c, 0, 64, 0
2, 314880, Note_on_c, 0, 64, 100
2, 315840, Note_on_c, 0, 64, 0
2, 358080, Note_on_c, 0, 79, 100
2, 358560, Note_on_c, 0, 79, 0
2, 358560, Note_on_c, 0, 81, 100
2, 359040, Note_on_c, 0, 81, 0
2, 359040, Note_on_c, 0, 83, 100
2, 359520, Note_on_c, 0, 83, 0
2, 359520, Note_on_c, 0, 81, 100
2, 359760, Note_on_c, 0, 81, 0
2, 359760, Note_on_c, 0, 79, 100
2, 360000, Note_on_c, 0, 79, 0
2, 360000, Note_on_c, 0, 78, 100
2, 360480, Note_on_c, 0, 78, 0
2, 360480, Note_on_c, 0, 79, 100
2, 360960, Note_on_c, 0, 79, 0
2, 360960, Note_on_c, 0, 81, 100
2, 361920, Note_on_c, 0, 81, 0
2, 361920, Note_on_c, 0, 76, 100
2, 362400, Note_on_c, 0, 76, 0
2, 362400, Note_on_c, 0, 78, 100
2, 362880, Note_on_c, 0, 78, 0
2, 362880, Note_on_c, 0, 79, 100
2, 363360, Note_on_c, 0, 79, 0
2, 363360, Note_on_c, 0, 78, 100
2, 363840, Note_on_c, 0, 78, 0
2, 363840, Note_on_c, 0, 79, 100
2, 364320, Note_on_c, 0, 79, 0
2, 364320, Note_on_c, 0, 81, 100
2, 364560, Note_on_c, 0, 81, 0
2, 364560, Note_on_c, 0, 79, 100
2, 364800, Note_on_c, 0, 79, 0
2, 364800, Note_on_c, 0, 78, 100
2, 365280, Note_on_c, 0, 78, 0
2, 365280, Note_on_c, 0, 79, 100
2, 365760, Note_on_c, 0, 79, 0
2, 365760, Note_on_c, 0, 81, 100
2, 366240, Note_on_c, 0, 81, 0
2, 366240, Note_on_c, 0, 81, 100
2, 366720, Note_on_c, 0, 81, 0
2, 366720, Note_on_c, 0, 79, 100
2, 367200, Note_on_c, 0, 79, 0
2, 367200, Note_on_c, 0, 81, 100
2, 367680, Note_on_c, 0, 81, 0
2, 367680, Note_on_c, 0, 83, 100
2, 368160, Note_on_c, 0, 83, 0
2, 368160, Note_on_c, 0, 83, 100
2, 368640, Note_on_c, 0, 83, 0
2, 368640, Note_on_c, 0, 81, 100
2, 369120, Note_on_c, 0, 81, 0
2, 369120, Note_on_c, 0, 83, 100
2, 369600, Note_on_c, 0, 83, 0
2, 369600, Note_on_c, 0, 84, 100
2, 370080, Note_on_c, 0, 84, 0
2, 370080, Note_on_c, 0, 84, 100
2, 370560, Note_on_c, 0, 84, 0
2, 370560, Note_on_c, 0, 83, 100
2, 371040, Note_on_c, 0, 83, 0
2, 371040, Note_on_c, 0, 84, 100
2, 371520, Note_on_c, 0, 84, 0
2, 371520, Note_on_c, 0, 86, 100
2, 372000, Note_on_c, 0, 86, 0
2, 372000, Note_on_c, 0, 86, 100
2, 372480, Note_on_c, 0, 86, 0
2, 372480, Note_on_c, 0, 88, 100
2, 372960, Note_on_c, 0, 88, 0
2, 372960, Note_on_c, 0, 86, 100
2, 373200, Note_on_c, 0, 86, 0
2, 373200, Note_on_c, 0, 84, 100
2, 373440, Note_on_c, 0, 84, 0
2, 373440, Note_on_c, 0, 83, 100
2, 373920, Note_on_c, 0, 83, 0
2, 373920, Note_on_c, 0, 85, 100
2, 374400, Note_on_c, 0, 85, 0
2, 374400, Note_on_c, 0, 86, 100
2, 374880, Note_on_c, 0, 86, 0
2, 374880, Note_on_c, 0, 86, 100
2, 375360, Note_on_c, 0, 86, 0
2, 375360, Note_on_c, 0, 81, 100
2, 375840, Note_on_c, 0, 81, 0
2, 375840, Note_on_c, 0, 83, 100
2, 376320, Note_on_c, 0, 83, 0
2, 376320, Note_on_c, 0, 84, 100
2, 376800, Note_on_c, 0, 84, 0
2, 376800, Note_on_c, 0, 83, 100
2, 377280, Note_on_c, 0, 83, 0
2, 377280, Note_on_c, 0, 84, 100
2, 377760, Note_on_c, 0, 84, 0
2, 377760, Note_on_c, 0, 86, 100
2, 378000, Note_on_c, 0, 86, 0
2, 378000, Note_on_c, 0, 84, 100
2, 378240, Note_on_c, 0, 84, 0
2, 378240, Note_on_c, 0, 83, 100
2, 378720, Note_on_c, 0, 83, 0
2, 378720, Note_on_c, 0, 81, 100
2, 379200, Note_on_c, 0, 81, 0
2, 379200, Note_on_c, 0, 83, 100
2, 379680, Note_on_c, 0, 83, 0
2, 379680, Note_on_c, 0, 83, 100
2, 380160, Note_on_c, 0, 83, 0
2, 380160, Note_on_c, 0, 83, 100
2, 380640, Note_on_c, 0, 83, 0
2, 380640, Note_on_c, 0, 83, 100
2, 381120, Note_on_c, 0, 83, 0
2, 381120, Note_on_c, 0, 81, 100
2, 381600, Note_on_c, 0, 81, 0
2, 381600, Note_on_c, 0, 81, 100
2, 382080, Note_on_c, 0, 81, 0
2, 382080, Note_on_c, 0, 81, 100
2, 382560, Note_on_c, 0, 81, 0
2, 382560, Note_on_c, 0, 81, 100
2, 383040, Note_on_c, 0, 81, 0
2, 383040, Note_on_c, 0, 79, 100
2, 383520, Note_on_c, 0, 79, 0
2, 383520, Note_on_c, 0, 79, 100
2, 384000, Note_on_c, 0, 79, 0
2, 384000, Note_on_c, 0, 79, 100
2, 384480, Note_on_c, 0, 79, 0
2, 384480, Note_on_c, 0, 79, 100
2, 384960, Note_on_c, 0, 79, 0
2, 384960, Note_on_c, 0, 78, 100
2, 385440, Note_on_c, 0, 78, 0
2, 385440, Note_on_c, 0, 78, 100
2, 385920, Note_on_c, 0, 78, 0
2, 385920, Note_on_c, 0, 79, 100
2, 386880, Note_on_c, 0, 79, 0
2, 402240, Note_on_c, 0, 79, 100
2, 403200, Note_on_c, 0, 79, 0
2, 403200, Note_on_c, 0, 76, 100
2, 403680, Note_on_c, 0, 76, 0
2, 403680, Note_on_c, 0, 77, 100
2, 403920, Note_on_c, 0, 77, 0
2, 403920, Note_on_c, 0, 79, 100
2, 404160, Note_on_c, 0, 79, 0
2, 404160, Note_on_c, 0, 81, 100
2, 404640, Note_on_c, 0, 81, 0
2, 404640, Note_on_c, 0, 79, 100
2, 405120, Note_on_c, 0, 79, 0
2, 405120, Note_on_c, 0, 77, 100
2, 406080, Note_on_c, 0, 77, 0
2, 406080, Note_on_c, 0, 82, 100
2, 406560, Note_on_c, 0, 82, 0
2, 406560, Note_on_c, 0, 81, 100
2, 407040, Note_on_c, 0, 81, 0
2, 407040, Note_on_c, 0, 79, 100
2, 407520, Note_on_c, 0, 79, 0
2, 407520, Note_on_c, 0, 81, 100
2, 407760, Note_on_c, 0, 81, 0
2, 407760, Note_on_c, 0, 79, 100
2, 408000, Note_on_c, 0, 79, 0
2, 408000, Note_on_c, 0, 77, 100
2, 408480, Note_on_c, 0, 77, 0
2, 408480, Note_on_c, 0, 79, 100
2, 408960, Note_on_c, 0, 79, 0
2, 408960, Note_on_c, 0, 81, 100
2, 409920, Note_on_c, 0, 81, 0
2, 411840, Note_on_c, 0, 79, 100
2, 412800, Note_on_c, 0, 79, 0
2, 412800, Note_on_c, 0, 80, 100
2, 413760, Note_on_c, 0, 80, 0
2, 413760, Note_on_c, 0, 81, 100
2, 414720, Note_on_c, 0, 81, 0
2, 414720, Note_on_c, 0, 82, 100
2, 415680, Note_on_c, 0, 82, 0
2, 416160, Note_on_c, 0, 83, 100
2, 416640, Note_on_c, 0, 83, 0
2, 416640, Note_on_c, 0, 84, 100
2, 417120, Note_on_c, 0, 84, 0
2, 417120, Note_on_c, 0, 82, 100
2, 417600, Note_on_c, 0, 82, 0
2, 417600, Note_on_c, 0, 81, 100
2, 418080, Note_on_c, 0, 81, 0
2, 418080, Note_on_c, 0, 79, 100
2, 418560, Note_on_c, 0, 79, 0
2, 418560, Note_on_c, 0, 78, 100
2, 419040, Note_on_c, 0, 78, 0
2, 419040, Note_on_c, 0, 76, 100
2, 419280, Note_on_c, 0, 76, 0
2, 419280, Note_on_c, 0, 74, 100
2, 419520, Note_on_c, 0, 74, 0
2, 419520, Note_on_c, 0, 79, 100
2, 420480, Note_on_c, 0, 79, 0
2, 420480, Note_on_c, 0, 64, 100
2, 421440, Note_on_c, 0, 64, 0
2, 421920, Note_on_c, 0, 64, 100
2, 422400, Note_on_c, 0, 64, 0
2, 422400, Note_on_c, 0, 62, 100
2, 423360, Note_on_c, 0, 62, 0
2, 423360, Note_on_c, 0, 62, 100
2, 424320, Note_on_c, 0, 62, 0
2, 424320, Note_on_c, 0, 62, 100
2, 425280, Note_on_c, 0, 62, 0
2, 425280, Note_on_c, 0, 60, 100
2, 425760, Note_on_c, 0, 60, 0
2, 425760, Note_on_c, 0, 59, 100
2, 426000, Note_on_c, 0, 59, 0
2, 426000, Note_on_c, 0, 57, 100
2, 426240, Note_on_c, 0, 57, 0
2, 426240, Note_on_c, 0, 63, 100
2, 427200, Note_on_c, 0, 63, 0
2, 427680, Note_on_c, 0, 63, 100
2, 428160, Note_on_c, 0, 63, 0
2, 428160, Note_on_c, 0, 64, 100
2, 428640, Note_on_c, 0, 64, 0
2, 430080, Note_on_c, 0, 64, 100
2, 431040, Note_on_c, 0, 64, 0
2, 433920, Note_on_c, 0, 64, 100
2, 434880, Note_on_c, 0, 64, 0
2, 434880, Note_on_c, 0, 62, 100
2, 435840, Note_on_c, 0, 62, 0
2, 435840, Note_on_c, 0, 59, 100
2, 436800, Note_on_c, 0, 59, 0
2, 436800, Note_on_c, 0, 60, 100
2, 437760, Note_on_c, 0, 60, 0
2, 438720, Note_on_c, 0, 55, 100
2, 439680, Note_on_c, 0, 55, 0
2, 456000, Note_on_c, 0, 79, 100
2, 456480, Note_on_c, 0, 79, 0
2, 456480, Note_on_c, 0, 77, 100
2, 456960, Note_on_c, 0, 77, 0
2, 456960, Note_on_c, 0, 76, 100
2, 457440, Note_on_c, 0, 76, 0
2, 457440, Note_on_c, 0, 77, 100
2, 457680, Note_on_c, 0, 77, 0
2, 457680, Note_on_c, 0, 76, 100
2, 457920, Note_on_c, 0, 76, 0
2, 457920, Note_on_c, 0, 74, 100
2, 458400, Note_on_c, 0, 74, 0
2, 458400, Note_on_c, 0, 76, 100
2, 458880, Note_on_c, 0, 76, 0
2, 458880, Note_on_c, 0, 77, 100
2, 459840, Note_on_c, 0, 77, 0
2, 459840, Note_on_c, 0, 77, 100
2, 460320, Note_on_c, 0, 77, 0
2, 460320, Note_on_c, 0, 77, 100
2, 460800, Note_on_c, 0, 77, 0
2, 460800, Note_on_c, 0, 77, 100
2, 461280, Note_on_c, 0, 77, 0
2, 461760, Note_on_c, 0, 76, 100
2, 462240, Note_on_c, 0, 76, 0
2, 462720, Note_on_c, 0, 75, 100
2, 463200, Note_on_c, 0, 75, 0
2, 463200, Note_on_c, 0, 74, 100
2, 463440, Note_on_c, 0, 74, 0
2, 463440, Note_on_c, 0, 72, 100
2, 463680, Note_on_c, 0, 72, 0
2, 463680, Note_on_c, 0, 81, 100
2, 464160, Note_on_c, 0, 81, 0
2, 464160, Note_on_c, 0, 79, 100
2, 464640, Note_on_c, 0, 79, 0
2, 464640, Note_on_c, 0, 78, 100
2, 465120, Note_on_c, 0, 78, 0
2, 465120, Note_on_c, 0, 79, 100
2, 465360, Note_on_c, 0, 79, 0
2, 465360, Note_on_c, 0, 78, 100
2, 465600, Note_on_c, 0, 78, 0
2, 465600, Note_on_c, 0, 76, 100
2, 465840, Note_on_c, 0, 76, 0
2, 465840, Note_on_c, 0, 79, 100
2, 466080, Note_on_c, 0, 79, 0
2, 466080, Note_on_c, 0, 78, 100
2, 466320, Note_on_c, 0, 78, 0
2, 466320, Note_on_c, 0, 81, 100
2, 466560, Note_on_c, 0, 81, 0
2, 466560, Note_on_c, 0, 79, 100
2, 467040, Note_on_c, 0, 79, 0
2, 467040, Note_on_c, 0, 74, 100
2, 467520, Note_on_c, 0, 74, 0
2, 467520, Note_on_c, 0, 72, 100
2, 468000, Note_on_c, 0, 72, 0
2, 468000, Note_on_c, 0, 72, 100
2, 468480, Note_on_c, 0, 72, 0
2, 468480, Note_on_c, 0, 72, 100
2, 469200, Note_on_c, 0, 72, 0
2, 469200, Note_on_c, 0, 74, 100
2, 469440, Note_on_c, 0, 74, 0
2, 469440, Note_on_c, 0, 71, 100
2, 469440, Pitch_bend_c, 0, 12288
2, 469520, Pitch_bend_c, 0, 8192
2, 469600, Pitch_bend_c, 0, 12288
2, 469680, Pitch_bend_c, 0, 8192
2, 470160, Note_on_c, 0, 71, 0
2, 470160, Note_on_c, 0, 72, 100
2, 470400, Note_on_c, 0, 72, 0
2, 470400, Note_on_c, 0, 72, 100
2, 470880, Note_on_c, 0, 72, 0
2, 551520, Note_on_c, 0, 79, 100
2, 552000, Note_on_c, 0, 79, 0
2, 552000, Note_on_c, 0, 79, 100
2, 552480, Note_on_c, 0, 79, 0
2, 552480, Note_on_c, 0, 78, 100
2, 552960, Note_on_c, 0, 78, 0
2, 552960, Note_on_c, 0, 79, 100
2, 553920, Note_on_c, 0, 79, 0
2, 561600, Note_on_c, 0, 72, 100
2, 562080, Note_on_c, 0, 72, 0
2, 562080, Note_on_c, 0, 74, 100
2, 562560, Note_on_c, 0, 74, 0
2, 562560, Note_on_c, 0, 76, 100
2, 563040, Note_on_c, 0, 76, 0
2, 563040, Note_on_c, 0, 74, 100
2, 563280, Note_on_c, 0, 74, 0
2, 563280, Note_on_c, 0, 72, 100
2, 563520, Note_on_c, 0, 72, 0
2, 563520, Note_on_c, 0, 71, 100
2, 564000, Note_on_c, 0, 71, 0
2, 564000, Note_on_c, 0, 72, 100
2, 564480, Note_on_c, 0, 72, 0
2, 564480, Note_on_c, 0, 74, 100
2, 565440, Note_on_c, 0, 74, 0
2, 565440, Note_on_c, 0, 69, 100
2, 565920, Note_on_c, 0, 69, 0
2, 565920, Note_on_c, 0, 71, 100
2, 566400, Note_on_c, 0, 71, 0
2, 566400, Note_on_c, 0, 72, 100
2, 566880, Note_on_c, 0, 72, 0
2, 566880, Note_on_c, 0, 71, 100
2, 567360, Note_on_c, 0, 71, 0
2, 567360, Note_on_c, 0, 72, 100
2, 567840, Note_on_c, 0, 72, 0
2, 567840, Note_on_c, 0, 74, 100
2, 568080, Note_on_c, 0, 74, 0
2, 568080, Note_on_c, 0, 72, 100
2, 568320, Note_on_c, 0, 72, 0
2, 568320, Note_on_c, 0, 71, 100
2, 569280, Note_on_c, 0, 71, 0
2, 569280, Note_on_c, 0, 76, 100
2, 571200, Note_on_c, 0, 76, 0
2, 571200, Note_on_c, 0, 74, 100
2, 572640, Note_on_c, 0, 74, 0
2, 572640, Note_on_c, 0, 71, 100
2, 573120, Note_on_c, 0, 71, 0
2, 573120, Note_on_c, 0, 76, 100
2, 573600, Note_on_c, 0, 76, 0
2, 573600, Note_on_c, 0, 74, 100
2, 574080, Note_on_c, 0, 74, 0
2, 574080, Note_on_c, 0, 73, 100
2, 575040, Note_on_c, 0, 73, 0
2, 575040, Note_on_c, 0, 72, 100
2, 576000, Note_on_c, 0, 72, 0
2, 576000, Note_on_c, 0, 71, 100
2, 576960, Note_on_c, 0, 71, 0
2, 576960, Note_on_c, 0, 70, 100
2, 577920, Note_on_c, 0, 70, 0
2, 577920, Note_on_c, 0, 69, 100
2, 578400, Note_on_c, 0, 69, 0
2, 578400, Note_on_c, 0, 67, 100
2, 578880, Note_on_c, 0, 67, 0
2, 578880, Note_on_c, 0, 69, 100
2, 579360, Note_on_c, 0, 69, 0
2, 579360, Note_on_c, 0, 71, 100
2, 579840, Note_on_c, 0, 71, 0
2, 579840, Note_on_c, 0, 72, 100
2, 580800, Note_on_c, 0, 72, 0
2, 580800, Note_on_c, 0, 72, 100
2, 581760, Note_on_c, 0, 72, 0
2, 581760, Note_on_c, 0, 71, 100
2, 582720, Note_on_c, 0, 71, 0
2, 582720, Note_on_c, 0, 73, 100
2, 583680, Note_on_c, 0, 73, 0
2, 583680, Note_on_c, 0, 74, 100
2, 584640, Note_on_c, 0, 74, 0
2, 584640, Note_on_c, 0, 72, 100
2, 585120, Note_on_c, 0, 72, 0
2, 585120, Note_on_c, 0, 74, 100
2, 585600, Note_on_c, 0, 74, 0
2, 585600, Note_on_c, 0, 76, 100
2, 586080, Note_on_c, 0, 76, 0
2, 586080, Note_on_c, 0, 74, 100
2, 586320, Note_on_c, 0, 74, 0
2, 586320, Note_on_c, 0, 72, 100
2, 586560, Note_on_c, 0, 72, 0
2, 586560, Note_on_c, 0, 71, 100
2, 587040, Note_on_c, 0, 71, 0
2, 587040, Note_on_c, 0, 73, 100
2, 587520, Note_on_c, 0, 73, 0
2, 587520, Note_on_c, 0, 74, 100
2, 588480, Note_on_c, 0, 74, 0
2, 588480, Note_on_c, 0, 69, 100
2, 588960, Note_on_c, 0, 69, 0
2, 588960, Note_on_c, 0, 71, 100
2, 589440, Note_on_c, 0, 71, 0
2, 589440, Note_on_c, 0, 72, 100
2, 589920, Note_on_c, 0, 72, 0
2, 589920, Note_on_c, 0, 71, 100
2, 590400, Note_on_c, 0, 71, 0
2, 590400, Note_on_c, 0, 72, 100
2, 590880, Note_on_c, 0, 72, 0
2, 590880, Note_on_c, 0, 74, 100
2, 591120, Note_on_c, 0, 74, 0
2, 591120, Note_on_c, 0, 72, 100
2, 591360, Note_on_c, 0, 72, 0
2, 591360, Note_on_c, 0, 71, 100
2, 592320, Note_on_c, 0, 71, 0
2, 611520, Note_on_c, 0, 74, 100
2, 612480, Note_on_c, 0, 74, 0
2, 612480, Note_on_c, 0, 73, 100
2, 613440, Note_on_c, 0, 73, 0
2, 613440, Note_on_c, 0, 72, 100
2, 614400, Note_on_c, 0, 72, 0
2, 614400, Note_on_c, 0, 71, 100
2, 615360, Note_on_c, 0, 71, 0
2, 615360, Note_on_c, 0, 70, 100
2, 616320, Note_on_c, 0, 70, 0
2, 616320, Note_on_c, 0, 69, 100
2, 617280, Note_on_c, 0, 69, 0
2, 617280, Note_on_c, 0, 71, 100
2, 618240, Note_on_c, 0, 71, 0
2, 638400, Note_on_c, 0, 72, 100
2, 638880, Note_on_c, 0, 72, 0
2, 638880, Note_on_c, 0, 70, 100
2, 639360, Note_on_c, 0, 70, 0
2, 639360, Note_on_c, 0, 69, 100
2, 639600, Note_on_c, 0, 69, 0
2, 639600, Note_on_c, 0, 81, 100
2, 639840, Note_on_c, 0, 81, 0
2, 639840, Note_on_c, 0, 79, 100
2, 640080, Note_on_c, 0, 79, 0
2, 640080, Note_on_c, 0, 77, 100
2, 640320, Note_on_c, 0, 77, 0
2, 640320, Note_on_c, 0, 76, 100
2, 640800, Note_on_c, 0, 76, 0
2, 640800, Note_on_c, 0, 78, 100
2, 641280, Note_on_c, 0, 78, 0
2, 641280, Note_on_c, 0, 74, 100
2, 641520, Note_on_c, 0, 74, 0
2, 642720, Note_on_c, 0, 76, 100
2, 643200, Note_on_c, 0, 76, 0
2, 643200, Note_on_c, 0, 76, 100
2, 643680, Note_on_c, 0, 76, 0
2, 643680, Note_on_c, 0, 77, 100
2, 643920, Note_on_c, 0, 77, 0
2, 643920, Note_on_c, 0, 76, 100
2, 644160, Note_on_c, 0, 76, 0
2, 644160, Note_on_c, 0, 77, 100
2, 644640, Note_on_c, 0, 77, 0
2, 644640, Note_on_c, 0, 79, 100
2, 644880, Note_on_c, 0, 79, 0
2, 644880, Note_on_c, 0, 77, 100
2, 645120, Note_on_c, 0, 77, 0
2, 645120, Note_on_c, 0, 76, 100
2, 645600, Note_on_c, 0, 76, 0
2, 647040, Note_on_c, 0, 76, 100
2, 647520, Note_on_c, 0, 76, 0
2, 648000, Note_on_c, 0, 74, 100
2, 648480, Note_on_c, 0, 74, 0
2, 648960, Note_on_c, 0, 74, 100
2, 649440, Note_on_c, 0, 74, 0
2, 649440, Note_on_c, 0, 72, 100
2, 649680, Note_on_c, 0, 72, 0
2, 649680, Note_on_c, 0, 71, 100
2, 649920, Note_on_c, 0, 71, 0
2, 649920, Note_on_c, 0, 72, 100
2, 650400, Note_on_c, 0, 72, 0
2, 650400, Note_on_c, 0, 74, 100
2, 650640, Note_on_c, 0, 74, 0
2, 650640, Note_on_c, 0, 76, 100
2, 650880, Note_on_c, 0, 76, 0
2, 650880, Note_on_c, 0, 77, 100
2, 651360, Note_on_c, 0, 77, 0
2, 651360, Note_on_c, 0, 77, 100
2, 651600, Note_on_c, 0, 77, 0
2, 651600, Note_on_c, 0, 76, 100
2, 651840, Note_on_c, 0, 76, 0
2, 651840, Note_on_c, 0, 77, 100
2, 652320, Note_on_c, 0, 77, 0
2, 652320, Note_on_c, 0, 79, 100
2, 652560, Note_on_c, 0, 79, 0
2, 652560, Note_on_c, 0, 77, 100
2, 652800, Note_on_c, 0, 77, 0
2, 652800, Note_on_c, 0, 76, 100
2, 653280, Note_on_c, 0, 76, 0
2, 654720, Note_on_c, 0, 76, 100
2, 655200, Note_on_c, 0, 76, 0
2, 656160, Note_on_c, 0, 76, 100
2, 656640, Note_on_c, 0, 76, 0
2, 656640, Note_on_c, 0, 77, 100
2, 657120, Note_on_c, 0, 77, 0
2, 658560, Note_on_c, 0, 78, 100
2, 659040, Note_on_c, 0, 78, 0
2, 660000, Note_on_c, 0, 78, 100
2, 660480, Note_on_c, 0, 78, 0
2, 660480, Note_on_c, 0, 79, 100
2, 660960, Note_on_c, 0, 79, 0
2, 661440, Note_on_c, 0, 79, 100
2, 662400, Note_on_c, 0, 79, 0
2, 662400, Note_on_c, 0, 79, 100
2, 663360, Note_on_c, 0, 79, 0
2, 663360, Note_on_c, 0, 77, 100
2, 664320, Note_on_c, 0, 77, 0
2, 664320, Note_on_c, 0, 77, 100
2, 665280, Note_on_c, 0, 77, 0
2, 665280, Note_on_c, 0, 76, 100
2, 666240, Note_on_c, 0, 76, 0
2, 666240, Note_on_c, 0, 76, 100
2, 666720, Note_on_c, 0, 76, 0
2, 679680, Note_on_c, 0, 79, 100
2, 680640, Note_on_c, 0, 79, 0
2, 680640, End_track
3, 0, Start_track
3, 0, MIDI_port, 0
3, 0, Title_t, "--------------------------------------"
3, 0, Program_c, 1, 40
3, 0, Control_c, 1, 7, 100
3, 0, Control_c, 1, 10, 59
3, 8640, Note_on_c, 1, 72, 100
3, 9600, Note_on_c, 1, 72, 0
3, 9600, Note_on_c, 1, 76, 100
3, 10080, Note_on_c, 1, 76, 0
3, 10080, Note_on_c, 1, 74, 100
3, 10320, Note_on_c, 1, 74, 0
3, 10320, Note_on_c, 1, 72, 100
3, 10560, Note_on_c, 1, 72, 0
3, 10560, Note_on_c, 1, 71, 100
3, 11040, Note_on_c, 1, 71, 0
3, 11040, Note_on_c, 1, 73, 100
3, 11520, Note_on_c, 1, 73, 0
3, 11520, Note_on_c, 1, 74, 100
3, 12480, Note_on_c, 1, 74, 0
3, 12480, Note_on_c, 1, 69, 100
3, 12960, Note_on_c, 1, 69, 0
3, 12960, Note_on_c, 1, 71, 100
3, 13440, Note_on_c, 1, 71, 0
3, 13440, Note_on_c, 1, 72, 100
3, 13920, Note_on_c, 1, 72, 0
3, 13920, Note_on_c, 1, 71, 100
3, 14400, Note_on_c, 1, 71, 0
3, 14400, Note_on_c, 1, 72, 100
3, 14880, Note_on_c, 1, 72, 0
3, 14880, Note_on_c, 1, 74, 100
3, 15120, Note_on_c, 1, 74, 0
3, 15120, Note_on_c, 1, 72, 100
3, 15360, Note_on_c, 1, 72, 0
3, 15360, Note_on_c, 1, 71, 100
3, 15840, Note_on_c, 1, 71, 0
3, 15840, Note_on_c, 1, 72, 100
3, 16080, Note_on_c, 1, 72, 0
3, 16080, Note_on_c, 1, 74, 100
3, 16320, Note_on_c, 1, 74, 0
3, 16320, Note_on_c, 1, 76, 100
3, 18240, Note_on_c, 1, 76, 0
3, 18240, Note_on_c, 1, 74, 100
3, 19680, Note_on_c, 1, 74, 0
3, 19680, Note_on_c, 1, 71, 100
3, 20160, Note_on_c, 1, 71, 0
3, 20160, Note_on_c, 1, 76, 100
3, 20640, Note_on_c, 1, 76, 0
3, 20640, Note_on_c, 1, 74, 100
3, 21120, Note_on_c, 1, 74, 0
3, 21120, Note_on_c, 1, 73, 100
3, 22080, Note_on_c, 1, 73, 0
3, 22080, Note_on_c, 1, 72, 100
3, 23040, Note_on_c, 1, 72, 0
3, 23040, Note_on_c, 1, 71, 100
3, 24000, Note_on_c, 1, 71, 0
3, 24000, Note_on_c, 1, 70, 100
3, 24960, Note_on_c, 1, 70, 0
3, 24960, Note_on_c, 1, 69, 100
3, 25440, Note_on_c, 1, 69, 0
3, 25440, Note_on_c, 1, 67, 100
3, 25920, Note_on_c, 1, 67, 0
3, 25920, Note_on_c, 1, 69, 100
3, 26400, Note_on_c, 1, 69, 0
3, 26400, Note_on_c, 1, 71, 100
3, 26880, Note_on_c, 1, 71, 0
3, 26880, Note_on_c, 1, 72, 100
3, 27840, Note_on_c, 1, 72, 0
3, 27840, Note_on_c, 1, 72, 100
3, 28800, Note_on_c, 1, 72, 0
3, 28800, Note_on_c, 1, 71, 100
3, 29760, Note_on_c, 1, 71, 0
3, 29760, Note_on_c, 1, 73, 100
3, 30720, Note_on_c, 1, 73, 0
3, 30720, Note_on_c, 1, 74, 100
3, 31680, Note_on_c, 1, 74, 0
3, 31680, Note_on_c, 1, 72, 100
3, 32160, Note_on_c, 1, 72, 0
3, 32160, Note_on_c, 1, 74, 100
3, 32640, Note_on_c, 1, 74, 0
3, 32640, Note_on_c, 1, 76, 100
3, 33120, Note_on_c, 1, 76, 0
3, 33120, Note_on_c, 1, 74, 100
3, 33360, Note_on_c, 1, 74, 0
3, 33360, Note_on_c, 1, 72, 100
3, 33600, Note_on_c, 1, 72, 0
3, 33600, Note_on_c, 1, 71, 100
3, 34080, Note_on_c, 1, 71, 0
3, 34080, Note_on_c, 1, 73, 100
3, 34560, Note_on_c, 1, 73, 0
3, 34560, Note_on_c, 1, 74, 100
3, 35520, Note_on_c, 1, 74, 0
3, 35520, Note_on_c, 1, 69, 100
3, 36000, Note_on_c, 1, 69, 0
3, 36000, Note_on_c, 1, 71, 100
3, 36480, Note_on_c, 1, 71, 0
3, 36480, Note_on_c, 1, 72, 100
3, 36960, Note_on_c, 1, 72, 0
3, 36960, Note_on_c, 1, 71, 100
3, 37440, Note_on_c, 1, 71, 0
3, 37440, Note_on_c, 1, 72, 100
3, 37920, Note_on_c, 1, 72, 0
3, 37920, Note_on_c, 1, 74, 100
3, 38160, Note_on_c, 1, 74, 0
3, 38160, Note_on_c, 1, 72, 100
3, 38400, Note_on_c, 1, 72, 0
3, 38400, Note_on_c, 1, 71, 100
3, 39360, Note_on_c, 1, 71, 0
3, 47040, Note_on_c, 1, 60, 100
3, 48000, Note_on_c, 1, 60, 0
3, 48000, Note_on_c, 1, 62, 100
3, 48480, Note_on_c, 1, 62, 0
3, 48480, Note_on_c, 1, 60, 100
3, 48720, Note_on_c, 1, 60, 0
3, 48720, Note_on_c, 1, 59, 100
3, 48960, Note_on_c, 1, 59, 0
3, 48960, Note_on_c, 1, 57, 100
3, 49440, Note_on_c, 1, 57, 0
3, 49440, Note_on_c, 1, 59, 100
3, 49920, Note_on_c, 1, 59, 0
3, 49920, Note_on_c, 1, 60, 100
3, 50880, Note_on_c, 1, 60, 0
3, 50880, Note_on_c, 1, 55, 100
3, 51360, Note_on_c, 1, 55, 0
3, 51360, Note_on_c, 1, 57, 100
3, 51840, Note_on_c, 1, 57, 0
3, 51840, Note_on_c, 1, 58, 100
3, 52320, Note_on_c, 1, 58, 0
3, 52320, Note_on_c, 1, 57, 100
3, 52800, Note_on_c, 1, 57, 0
3, 52800, Note_on_c, 1, 58, 100
3, 53280, Note_on_c, 1, 58, 0
3, 53280, Note_on_c, 1, 60, 100
3, 53520, Note_on_c, 1, 60, 0
3, 53520, Note_on_c, 1, 58, 100
3, 53760, Note_on_c, 1, 58, 0
3, 53760, Note_on_c, 1, 57, 100
3, 54720, Note_on_c, 1, 57, 0
3, 54720, Note_on_c, 1, 59, 100
3, 55680, Note_on_c, 1, 59, 0
3, 55680, Note_on_c, 1, 60, 100
3, 56160, Note_on_c, 1, 60, 0
3, 56160, Note_on_c, 1, 59, 100
3, 56640, Note_on_c, 1, 59, 0
3, 56640, Note_on_c, 1, 60, 100
3, 57120, Note_on_c, 1, 60, 0
3, 57120, Note_on_c, 1, 62, 100
3, 57360, Note_on_c, 1, 62, 0
3, 57360, Note_on_c, 1, 60, 100
3, 57600, Note_on_c, 1, 60, 0
3, 57600, Note_on_c, 1, 59, 100
3, 58080, Note_on_c, 1, 59, 0
3, 58080, Note_on_c, 1, 57, 100
3, 58560, Note_on_c, 1, 57, 0
3, 58560, Note_on_c, 1, 58, 100
3, 59520, Note_on_c, 1, 58, 0
3, 59520, Note_on_c, 1, 57, 100
3, 60480, Note_on_c, 1, 57, 0
3, 61440, Note_on_c, 1, 55, 100
3, 62400, Note_on_c, 1, 55, 0
3, 63360, Note_on_c, 1, 62, 100
3, 64320, Note_on_c, 1, 62, 0
3, 64320, Note_on_c, 1, 55, 100
3, 65280, Note_on_c, 1, 55, 0
3, 65280, Note_on_c, 1, 60, 100
3, 65760, Note_on_c, 1, 60, 0
3, 67200, Note_on_c, 1, 60, 100
3, 67680, Note_on_c, 1, 60, 0
3, 68640, Note_on_c, 1, 60, 100
3, 69120, Note_on_c, 1, 60, 0
3, 69120, Note_on_c, 1, 58, 100
3, 69600, Note_on_c, 1, 58, 0
3, 71040, Note_on_c, 1, 58, 100
3, 71520, Note_on_c, 1, 58, 0
3, 72480, Note_on_c, 1, 58, 100
3, 72960, Note_on_c, 1, 58, 0
3, 72960, Note_on_c, 1, 57, 100
3, 73440, Note_on_c, 1, 57, 0
3, 74880, Note_on_c, 1, 59, 100
3, 75120, Note_on_c, 1, 59, 0
3, 76800, Note_on_c, 1, 60, 100
3, 77280, Note_on_c, 1, 60, 0
3, 78720, Note_on_c, 1, 62, 100
3, 78960, Note_on_c, 1, 62, 0
3, 80640, Note_on_c, 1, 64, 100
3, 80880, Note_on_c, 1, 64, 0
3, 82560, Note_on_c, 1, 65, 100
3, 82800, Note_on_c, 1, 65, 0
3, 84480, Note_on_c, 1, 65, 100
3, 84720, Note_on_c, 1, 65, 0
3, 85440, Note_on_c, 1, 64, 100
3, 85920, Note_on_c, 1, 64, 0
3, 85920, Note_on_c, 1, 62, 100
3, 86400, Note_on_c, 1, 62, 0
3, 86400, Note_on_c, 1, 61, 100
3, 86640, Note_on_c, 1, 61, 0
3, 87360, Note_on_c, 1, 60, 100
3, 87840, Note_on_c, 1, 60, 0
3, 88320, Note_on_c, 1, 59, 100
3, 88800, Note_on_c, 1, 59, 0
3, 89280, Note_on_c, 1, 58, 100
3, 89760, Note_on_c, 1, 58, 0
3, 90240, Note_on_c, 1, 57, 100
3, 90720, Note_on_c, 1, 57, 0
3, 92160, Note_on_c, 1, 55, 100
3, 92640, Note_on_c, 1, 55, 0
3, 100320, Note_on_c, 1, 60, 100
3, 100560, Note_on_c, 1, 60, 0
3, 100560, Note_on_c, 1, 62, 100
3, 100800, Note_on_c, 1, 62, 0
3, 100800, Note_on_c, 1, 64, 100
3, 101040, Note_on_c, 1, 64, 0
3, 101040, Note_on_c, 1, 67, 100
3, 101280, Note_on_c, 1, 67, 0
3, 101280, Note_on_c, 1, 65, 100
3, 101520, Note_on_c, 1, 65, 0
3, 101520, Note_on_c, 1, 69, 100
3, 101760, Note_on_c, 1, 69, 0
3, 101760, Note_on_c, 1, 67, 100
3, 102240, Note_on_c, 1, 67, 0
3, 102240, Note_on_c, 1, 58, 100
3, 102480, Note_on_c, 1, 58, 0
3, 102480, Note_on_c, 1, 57, 100
3, 102720, Note_on_c, 1, 57, 0
3, 102720, Note_on_c, 1, 58, 100
3, 103200, Note_on_c, 1, 58, 0
3, 103200, Note_on_c, 1, 67, 100
3, 103680, Note_on_c, 1, 67, 0
3, 103680, Note_on_c, 1, 69, 100
3, 104160, Note_on_c, 1, 69, 0
3, 108000, Note_on_c, 1, 59, 100
3, 108480, Note_on_c, 1, 59, 0
3, 108480, Note_on_c, 1, 64, 100
3, 108960, Note_on_c, 1, 64, 0
3, 108960, Note_on_c, 1, 62, 100
3, 109440, Note_on_c, 1, 62, 0
3, 109440, Note_on_c, 1, 61, 100
3, 109920, Note_on_c, 1, 61, 0
3, 109920, Note_on_c, 1, 57, 100
3, 110400, Note_on_c, 1, 57, 0
3, 110400, Note_on_c, 1, 62, 100
3, 110880, Note_on_c, 1, 62, 0
3, 110880, Note_on_c, 1, 60, 100
3, 111360, Note_on_c, 1, 60, 0
3, 111360, Note_on_c, 1, 59, 100
3, 111840, Note_on_c, 1, 59, 0
3, 111840, Note_on_c, 1, 55, 100
3, 112320, Note_on_c, 1, 55, 0
3, 112320, Note_on_c, 1, 60, 100
3, 112800, Note_on_c, 1, 60, 0
3, 112800, Note_on_c, 1, 58, 100
3, 113280, Note_on_c, 1, 58, 0
3, 113280, Note_on_c, 1, 57, 100
3, 113760, Note_on_c, 1, 57, 0
3, 115200, Note_on_c, 1, 55, 100
3, 115440, Note_on_c, 1, 55, 0
3, 119040, Note_on_c, 1, 56, 100
3, 119280, Note_on_c, 1, 56, 0
3, 126240, Note_on_c, 1, 71, 100
3, 126720, Note_on_c, 1, 71, 0
3, 126720, Note_on_c, 1, 72, 100
3, 126960, Note_on_c, 1, 72, 0
3, 126960, Note_on_c, 1, 79, 100
3, 127080, Note_on_c, 1, 79, 0
3, 127080, Note_on_c, 1, 77, 100
3, 127200, Note_on_c, 1, 77, 0
3, 127200, Note_on_c, 1, 76, 100
3, 127440, Note_on_c, 1, 76, 0
3, 127440, Note_on_c, 1, 79, 100
3, 127680, Note_on_c, 1, 79, 0
3, 127680, Note_on_c, 1, 72, 100
3, 127920, Note_on_c, 1, 72, 0
3, 127920, Note_on_c, 1, 76, 100
3, 128160, Note_on_c, 1, 76, 0
3, 128160, Note_on_c, 1, 67, 100
3, 128400, Note_on_c, 1, 67, 0
3, 128400, Note_on_c, 1, 72, 100
3, 128640, Note_on_c, 1, 72, 0
3, 128640, Note_on_c, 1, 64, 100
3, 128880, Note_on_c, 1, 64, 0
3, 128880, Note_on_c, 1, 67, 100
3, 129120, Note_on_c, 1, 67, 0
3, 129120, Note_on_c, 1, 60, 100
3, 129360, Note_on_c, 1, 60, 0
3, 129360, Note_on_c, 1, 64, 100
3, 129600, Note_on_c, 1, 64, 0
3, 129600, Note_on_c, 1, 55, 100
3, 129840, Note_on_c, 1, 55, 0
3, 129840, Note_on_c, 1, 76, 100
3, 130080, Note_on_c, 1, 76, 0
3, 130080, Note_on_c, 1, 74, 100
3, 130320, Note_on_c, 1, 74, 0
3, 130320, Note_on_c, 1, 72, 100
3, 130560, Note_on_c, 1, 72, 0
3, 130560, Note_on_c, 1, 71, 100
3, 130680, Note_on_c, 1, 71, 0
3, 130680, Note_on_c, 1, 79, 100
3, 130800, Note_on_c, 1, 79, 0
3, 130800, Note_on_c, 1, 78, 100
3, 130920, Note_on_c, 1, 78, 0
3, 130920, Note_on_c, 1, 76, 100
3, 131040, Note_on_c, 1, 76, 0
3, 131040, Note_on_c, 1, 74, 100
3, 131280, Note_on_c, 1, 74, 0
3, 131280, Note_on_c, 1, 79, 100
3, 131520, Note_on_c, 1, 79, 0
3, 131520, Note_on_c, 1, 71, 100
3, 131760, Note_on_c, 1, 71, 0
3, 131760, Note_on_c, 1, 74, 100
3, 132000, Note_on_c, 1, 74, 0
3, 132000, Note_on_c, 1, 67, 100
3, 132240, Note_on_c, 1, 67, 0
3, 132240, Note_on_c, 1, 71, 100
3, 132480, Note_on_c, 1, 71, 0
3, 132480, Note_on_c, 1, 62, 100
3, 132720, Note_on_c, 1, 62, 0
3, 132720, Note_on_c, 1, 67, 100
3, 132960, Note_on_c, 1, 67, 0
3, 132960, Note_on_c, 1, 59, 100
3, 133200, Note_on_c, 1, 59, 0
3, 133200, Note_on_c, 1, 62, 100
3, 133440, Note_on_c, 1, 62, 0
3, 133440, Note_on_c, 1, 55, 100
3, 133680, Note_on_c, 1, 55, 0
3, 133680, Note_on_c, 1, 74, 100
3, 133920, Note_on_c, 1, 74, 0
3, 133920, Note_on_c, 1, 72, 100
3, 134160, Note_on_c, 1, 72, 0
3, 134160, Note_on_c, 1, 71, 100
3, 134400, Note_on_c, 1, 71, 0
3, 134400, Note_on_c, 1, 72, 100
3, 134640, Note_on_c, 1, 72, 0
3, 134640, Note_on_c, 1, 81, 100
3, 134760, Note_on_c, 1, 81, 0
3, 134760, Note_on_c, 1, 79, 100
3, 134880, Note_on_c, 1, 79, 0
3, 134880, Note_on_c, 1, 78, 100
3, 135120, Note_on_c, 1, 78, 0
3, 135120, Note_on_c, 1, 81, 100
3, 135360, Note_on_c, 1, 81, 0
3, 135360, Note_on_c, 1, 72, 100
3, 135600, Note_on_c, 1, 72, 0
3, 135600, Note_on_c, 1, 78, 100
3, 135840, Note_on_c, 1, 78, 0
3, 135840, Note_on_c, 1, 69, 100
3, 136080, Note_on_c, 1, 69, 0
3, 136080, Note_on_c, 1, 72, 100
3, 136320, Note_on_c, 1, 72, 0
3, 136320, Note_on_c, 1, 66, 100
3, 136560, Note_on_c, 1, 66, 0
3, 136560, Note_on_c, 1, 69, 100
3, 136800, Note_on_c, 1, 69, 0
3, 136800, Note_on_c, 1, 62, 100
3, 137040, Note_on_c, 1, 62, 0
3, 137040, Note_on_c, 1, 66, 100
3, 137280, Note_on_c, 1, 66, 0
3, 137280, Note_on_c, 1, 69, 100
3, 137520, Note_on_c, 1, 69, 0
3, 137520, Note_on_c, 1, 72, 100
3, 137760, Note_on_c, 1, 72, 0
3, 137760, Note_on_c, 1, 78, 100
3, 138000, Note_on_c, 1, 78, 0
3, 138000, Note_on_c, 1, 81, 100
3, 138240, Note_on_c, 1, 81, 0
3, 138240, Note_on_c, 1, 55, 100
3, 138480, Note_on_c, 1, 55, 0
3, 138480, Note_on_c, 1, 62, 100
3, 138720, Note_on_c, 1, 62, 0
3, 138720, Note_on_c, 1, 66, 100
3, 138960, Note_on_c, 1, 66, 0
3, 138960, Note_on_c, 1, 72, 100
3, 139200, Note_on_c, 1, 72, 0
3, 139200, Note_on_c, 1, 71, 100
3, 139440, Note_on_c, 1, 71, 0
3, 139440, Note_on_c, 1, 67, 100
3, 139680, Note_on_c, 1, 67, 0
3, 139680, Note_on_c, 1, 64, 100
3, 139920, Note_on_c, 1, 64, 0
3, 139920, Note_on_c, 1, 67, 100
3, 140160, Note_on_c, 1, 67, 0
3, 140160, Note_on_c, 1, 61, 100
3, 140400, Note_on_c, 1, 61, 0
3, 140400, Note_on_c, 1, 64, 100
3, 140520, Note_on_c, 1, 64, 0
3, 140520, Note_on_c, 1, 65, 100
3, 140640, Note_on_c, 1, 65, 0
3, 140640, Note_on_c, 1, 67, 100
3, 140880, Note_on_c, 1, 67, 0
3, 140880, Note_on_c, 1, 64, 100
3, 141120, Note_on_c, 1, 64, 0
3, 141120, Note_on_c, 1, 70, 100
3, 141360, Note_on_c, 1, 70, 0
3, 141360, Note_on_c, 1, 67, 100
3, 141600, Note_on_c, 1, 67, 0
3, 141600, Note_on_c, 1, 73, 100
3, 141840, Note_on_c, 1, 73, 0
3, 141840, Note_on_c, 1, 76, 100
3, 142080, Note_on_c, 1, 76, 0
3, 142080, Note_on_c, 1, 65, 100
3, 142320, Note_on_c, 1, 65, 0
3, 142320, Note_on_c, 1, 69, 100
3, 142560, Note_on_c, 1, 69, 0
3, 142560, Note_on_c, 1, 79, 100
3, 142800, Note_on_c, 1, 79, 0
3, 142800, Note_on_c, 1, 73, 100
3, 143040, Note_on_c, 1, 73, 0
3, 143040, Note_on_c, 1, 74, 100
3, 143280, Note_on_c, 1, 74, 0
3, 143280, Note_on_c, 1, 69, 100
3, 143520, Note_on_c, 1, 69, 0
3, 143520, Note_on_c, 1, 70, 100
3, 143760, Note_on_c, 1, 70, 0
3, 143760, Note_on_c, 1, 74, 100
3, 144000, Note_on_c, 1, 74, 0
3, 144000, Note_on_c, 1, 68, 100
3, 144240, Note_on_c, 1, 68, 0
3, 144240, Note_on_c, 1, 71, 100
3, 144360, Note_on_c, 1, 71, 0
3, 144360, Note_on_c, 1, 72, 100
3, 144480, Note_on_c, 1, 72, 0
3, 144480, Note_on_c, 1, 74, 100
3, 144720, Note_on_c, 1, 74, 0
3, 144720, Note_on_c, 1, 71, 100
3, 144960, Note_on_c, 1, 71, 0
3, 144960, Note_on_c, 1, 77, 100
3, 145200, Note_on_c, 1, 77, 0
3, 145200, Note_on_c, 1, 74, 100
3, 145440, Note_on_c, 1, 74, 0
3, 145440, Note_on_c, 1, 80, 100
3, 145680, Note_on_c, 1, 80, 0
3, 145680, Note_on_c, 1, 83, 100
3, 145920, Note_on_c, 1, 83, 0
3, 145920, Note_on_c, 1, 64, 100
3, 146160, Note_on_c, 1, 64, 0
3, 146160, Note_on_c, 1, 72, 100
3, 146400, Note_on_c, 1, 72, 0
3, 146400, Note_on_c, 1, 76, 100
3, 146640, Note_on_c, 1, 76, 0
3, 146640, Note_on_c, 1, 80, 100
3, 146880, Note_on_c, 1, 80, 0
3, 146880, Note_on_c, 1, 81, 100
3, 147120, Note_on_c, 1, 81, 0
3, 147120, Note_on_c, 1, 84, 100
3, 147360, Note_on_c, 1, 84, 0
3, 147360, Note_on_c, 1, 78, 100
3, 147600, Note_on_c, 1, 78, 0
3, 147600, Note_on_c, 1, 81, 100
3, 147840, Note_on_c, 1, 81, 0
3, 147840, Note_on_c, 1, 75, 100
3, 148080, Note_on_c, 1, 75, 0
3, 148080, Note_on_c, 1, 78, 100
3, 148200, Note_on_c, 1, 78, 0
3, 148200, Note_on_c, 1, 79, 100
3, 148320, Note_on_c, 1, 79, 0
3, 148320, Note_on_c, 1, 81, 100
3, 148560, Note_on_c, 1, 81, 0
3, 148560, Note_on_c, 1, 78, 100
3, 148800, Note_on_c, 1, 78, 0
3, 148800, Note_on_c, 1, 75, 100
3, 149040, Note_on_c, 1, 75, 0
3, 149040, Note_on_c, 1, 71, 100
3, 149280, Note_on_c, 1, 71, 0
3, 149280, Note_on_c, 1, 72, 100
3, 149520, Note_on_c, 1, 72, 0
3, 149520, Note_on_c, 1, 63, 100
3, 149760, Note_on_c, 1, 63, 0
3, 149760, Note_on_c, 1, 64, 100
3, 150000, Note_on_c, 1, 64, 0
3, 150000, Note_on_c, 1, 71, 100
3, 150240, Note_on_c, 1, 71, 0
3, 150240, Note_on_c, 1, 75, 100
3, 150480, Note_on_c, 1, 75, 0
3, 150480, Note_on_c, 1, 81, 100
3, 150720, Note_on_c, 1, 81, 0
3, 150720, Note_on_c, 1, 79, 100
3, 150960, Note_on_c, 1, 79, 0
3, 150960, Note_on_c, 1, 83, 100
3, 151080, Note_on_c, 1, 83, 0
3, 151080, Note_on_c, 1, 81, 100
3, 151200, Note_on_c, 1, 81, 0
3, 151200, Note_on_c, 1, 79, 100
3, 151440, Note_on_c, 1, 79, 0
3, 151440, Note_on_c, 1, 76, 100
3, 151680, Note_on_c, 1, 76, 0
3, 151680, Note_on_c, 1, 73, 100
3, 151920, Note_on_c, 1, 73, 0
3, 151920, Note_on_c, 1, 70, 100
3, 152040, Note_on_c, 1, 70, 0
3, 152040, Note_on_c, 1, 69, 100
3, 152160, Note_on_c, 1, 69, 0
3, 152160, Note_on_c, 1, 67, 100
3, 152400, Note_on_c, 1, 67, 0
3, 152400, Note_on_c, 1, 64, 100
3, 152640, Note_on_c, 1, 64, 0
3, 152640, Note_on_c, 1, 61, 100
3, 152880, Note_on_c, 1, 61, 0
3, 152880, Note_on_c, 1, 62, 100
3, 153000, Note_on_c, 1, 62, 0
3, 153000, Note_on_c, 1, 64, 100
3, 153120, Note_on_c, 1, 64, 0
3, 153120, Note_on_c, 1, 57, 100
3, 153360, Note_on_c, 1, 57, 0
3, 153360, Note_on_c, 1, 59, 100
3, 153480, Note_on_c, 1, 59, 0
3, 153480, Note_on_c, 1, 61, 100
3, 153600, Note_on_c, 1, 61, 0
3, 153600, Note_on_c, 1, 62, 100
3, 153840, Note_on_c, 1, 62, 0
3, 153840, Note_on_c, 1, 69, 100
3, 154080, Note_on_c, 1, 69, 0
3, 154080, Note_on_c, 1, 73, 100
3, 154320, Note_on_c, 1, 73, 0
3, 154320, Note_on_c, 1, 79, 100
3, 154560, Note_on_c, 1, 79, 0
3, 154560, Note_on_c, 1, 77, 100
3, 154800, Note_on_c, 1, 77, 0
3, 154800, Note_on_c, 1, 81, 100
3, 154920, Note_on_c, 1, 81, 0
3, 154920, Note_on_c, 1, 79, 100
3, 155040, Note_on_c, 1, 79, 0
3, 155040, Note_on_c, 1, 77, 100
3, 155280, Note_on_c, 1, 77, 0
3, 155280, Note_on_c, 1, 74, 100
3, 155520, Note_on_c, 1, 74, 0
3, 155520, Note_on_c, 1, 71, 100
3, 155760, Note_on_c, 1, 71, 0
3, 155760, Note_on_c, 1, 68, 100
3, 155880, Note_on_c, 1, 68, 0
3, 155880, Note_on_c, 1, 67, 100
3, 156000, Note_on_c, 1, 67, 0
3, 156000, Note_on_c, 1, 65, 100
3, 156240, Note_on_c, 1, 65, 0
3, 156240, Note_on_c, 1, 62, 100
3, 156480, Note_on_c, 1, 62, 0
3, 156480, Note_on_c, 1, 59, 100
3, 156720, Note_on_c, 1, 59, 0
3, 156720, Note_on_c, 1, 60, 100
3, 156840, Note_on_c, 1, 60, 0
3, 156840, Note_on_c, 1, 62, 100
3, 156960, Note_on_c, 1, 62, 0
3, 156960, Note_on_c, 1, 55, 100
3, 157200, Note_on_c, 1, 55, 0
3, 157200, Note_on_c, 1, 57, 100
3, 157320, Note_on_c, 1, 57, 0
3, 157320, Note_on_c, 1, 59, 100
3, 157440, Note_on_c, 1, 59, 0
3, 157440, Note_on_c, 1, 60, 100
3, 157680, Note_on_c, 1, 60, 0
3, 157680, Note_on_c, 1, 67, 100
3, 157920, Note_on_c, 1, 67, 0
3, 157920, Note_on_c, 1, 71, 100
3, 158160, Note_on_c, 1, 71, 0
3, 158160, Note_on_c, 1, 77, 100
3, 158400, Note_on_c, 1, 77, 0
3, 158400, Note_on_c, 1, 76, 100
3, 158640, Note_on_c, 1, 76, 0
3, 158640, Note_on_c, 1, 79, 100
3, 158760, Note_on_c, 1, 79, 0
3, 158760, Note_on_c, 1, 77, 100
3, 158880, Note_on_c, 1, 77, 0
3, 158880, Note_on_c, 1, 76, 100
3, 159120, Note_on_c, 1, 76, 0
3, 159120, Note_on_c, 1, 72, 100
3, 159360, Note_on_c, 1, 72, 0
3, 159360, Note_on_c, 1, 77, 100
3, 159600, Note_on_c, 1, 77, 0
3, 159600, Note_on_c, 1, 74, 100
3, 159720, Note_on_c, 1, 74, 0
3, 159720, Note_on_c, 1, 72, 100
3, 159840, Note_on_c, 1, 72, 0
3, 159840, Note_on_c, 1, 71, 100
3, 160080, Note_on_c, 1, 71, 0
3, 160080, Note_on_c, 1, 74, 100
3, 160320, Note_on_c, 1, 74, 0
3, 160320, Note_on_c, 1, 68, 100
3, 160560, Note_on_c, 1, 68, 0
3, 160560, Note_on_c, 1, 69, 100
3, 160680, Note_on_c, 1, 69, 0
3, 160680, Note_on_c, 1, 71, 100
3, 160800, Note_on_c, 1, 71, 0
3, 160800, Note_on_c, 1, 64, 100
3, 161040, Note_on_c, 1, 64, 0
3, 161040, Note_on_c, 1, 66, 100
3, 161160, Note_on_c, 1, 66, 0
3, 161160, Note_on_c, 1, 68, 100
3, 161280, Note_on_c, 1, 68, 0
3, 161280, Note_on_c, 1, 57, 100
3, 161520, Note_on_c, 1, 57, 0
3, 161520, Note_on_c, 1, 64, 100
3, 161760, Note_on_c, 1, 64, 0
3, 161760, Note_on_c, 1, 68, 100
3, 162000, Note_on_c, 1, 68, 0
3, 162000, Note_on_c, 1, 74, 100
3, 162240, Note_on_c, 1, 74, 0
3, 162240, Note_on_c, 1, 72, 100
3, 162480, Note_on_c, 1, 72, 0
3, 162480, Note_on_c, 1, 69, 100
3, 162720, Note_on_c, 1, 69, 0
3, 162720, Note_on_c, 1, 65, 100
3, 162960, Note_on_c, 1, 65, 0
3, 162960, Note_on_c, 1, 69, 100
3, 163200, Note_on_c, 1, 69, 0
3, 163200, Note_on_c, 1, 59, 100
3, 163440, Note_on_c, 1, 59, 0
3, 163440, Note_on_c, 1, 62, 100
3, 163680, Note_on_c, 1, 62, 0
3, 163680, Note_on_c, 1, 68, 100
3, 163920, Note_on_c, 1, 68, 0
3, 163920, Note_on_c, 1, 76, 100
3, 164160, Note_on_c, 1, 76, 0
3, 164160, Note_on_c, 1, 74, 100
3, 164400, Note_on_c, 1, 74, 0
3, 164400, Note_on_c, 1, 71, 100
3, 164640, Note_on_c, 1, 71, 0
3, 164640, Note_on_c, 1, 68, 100
3, 164880, Note_on_c, 1, 68, 0
3, 164880, Note_on_c, 1, 71, 100
3, 165120, Note_on_c, 1, 71, 0
3, 165120, Note_on_c, 1, 60, 100
3, 165360, Note_on_c, 1, 60, 0
3, 165360, Note_on_c, 1, 64, 100
3, 165600, Note_on_c, 1, 64, 0
3, 165600, Note_on_c, 1, 68, 100
3, 165840, Note_on_c, 1, 68, 0
3, 165840, Note_on_c, 1, 77, 100
3, 166080, Note_on_c, 1, 77, 0
3, 166080, Note_on_c, 1, 76, 100
3, 166320, Note_on_c, 1, 76, 0
3, 166320, Note_on_c, 1, 72, 100
3, 166560, Note_on_c, 1, 72, 0
3, 166560, Note_on_c, 1, 69, 100
3, 166800, Note_on_c, 1, 69, 0
3, 166800, Note_on_c, 1, 72, 100
3, 167040, Note_on_c, 1, 72, 0
3, 167040, Note_on_c, 1, 62, 100
3, 167280, Note_on_c, 1, 62, 0
3, 167280, Note_on_c, 1, 81, 100
3, 167400, Note_on_c, 1, 81, 0
3, 167400, Note_on_c, 1, 79, 100
3, 167520, Note_on_c, 1, 79, 0
3, 167520, Note_on_c, 1, 77, 100
3, 167760, Note_on_c, 1, 77, 0
3, 167760, Note_on_c, 1, 76, 100
3, 168000, Note_on_c, 1, 76, 0
3, 168000, Note_on_c, 1, 74, 100
3, 168240, Note_on_c, 1, 74, 0
3, 168240, Note_on_c, 1, 82, 100
3, 168360, Note_on_c, 1, 82, 0
3, 168360, Note_on_c, 1, 81, 100
3, 168480, Note_on_c, 1, 81, 0
3, 168480, Note_on_c, 1, 82, 100
3, 168720, Note_on_c, 1, 82, 0
3, 168720, Note_on_c, 1, 74, 100
3, 168960, Note_on_c, 1, 74, 0
3, 168960, Note_on_c, 1, 64, 100
3, 169200, Note_on_c, 1, 64, 0
3, 169200, Note_on_c, 1, 74, 100
3, 169320, Note_on_c, 1, 74, 0
3, 169320, Note_on_c, 1, 76, 100
3, 169440, Note_on_c, 1, 76, 0
3, 169440, Note_on_c, 1, 77, 100
3, 169680, Note_on_c, 1, 77, 0
3, 169680, Note_on_c, 1, 74, 100
3, 169920, Note_on_c, 1, 74, 0
3, 169920, Note_on_c, 1, 80, 100
3, 170160, Note_on_c, 1, 80, 0
3, 170160, Note_on_c, 1, 74, 100
3, 170400, Note_on_c, 1, 74, 0
3, 170400, Note_on_c, 1, 83, 100
3, 170640, Note_on_c, 1, 83, 0
3, 170640, Note_on_c, 1, 74, 100
3, 170880, Note_on_c, 1, 74, 0
3, 170880, Note_on_c, 1, 64, 100
3, 171120, Note_on_c, 1, 64, 0
3, 171120, Note_on_c, 1, 72, 100
3, 171240, Note_on_c, 1, 72, 0
3, 171240, Note_on_c, 1, 74, 100
3, 171360, Note_on_c, 1, 74, 0
3, 171360, Note_on_c, 1, 76, 100
3, 171600, Note_on_c, 1, 76, 0
3, 171600, Note_on_c, 1, 72, 100
3, 171840, Note_on_c, 1, 72, 0
3, 171840, Note_on_c, 1, 81, 100
3, 172080, Note_on_c, 1, 81, 0
3, 172080, Note_on_c, 1, 76, 100
3, 172320, Note_on_c, 1, 76, 0
3, 172320, Note_on_c, 1, 84, 100
3, 172560, Note_on_c, 1, 84, 0
3, 172560, Note_on_c, 1, 76, 100
3, 172800, Note_on_c, 1, 76, 0
3, 172800, Note_on_c, 1, 64, 100
3, 173040, Note_on_c, 1, 64, 0
3, 173040, Note_on_c, 1, 71, 100
3, 173160, Note_on_c, 1, 71, 0
3, 173160, Note_on_c, 1, 72, 100
3, 173280, Note_on_c, 1, 72, 0
3, 173280, Note_on_c, 1, 74, 100
3, 173520, Note_on_c, 1, 74, 0
3, 173520, Note_on_c, 1, 71, 100
3, 173760, Note_on_c, 1, 71, 0
3, 173760, Note_on_c, 1, 80, 100
3, 174000, Note_on_c, 1, 80, 0
3, 174000, Note_on_c, 1, 76, 100
3, 174240, Note_on_c, 1, 76, 0
3, 174240, Note_on_c, 1, 86, 100
3, 174480, Note_on_c, 1, 86, 0
3, 174480, Note_on_c, 1, 76, 100
3, 174720, Note_on_c, 1, 76, 0
3, 174720, Note_on_c, 1, 64, 100
3, 174960, Note_on_c, 1, 64, 0
3, 174960, Note_on_c, 1, 69, 100
3, 175080, Note_on_c, 1, 69, 0
3, 175080, Note_on_c, 1, 71, 100
3, 175200, Note_on_c, 1, 71, 0
3, 175200, Note_on_c, 1, 72, 100
3, 175440, Note_on_c, 1, 72, 0
3, 175440, Note_on_c, 1, 75, 100
3, 175680, Note_on_c, 1, 75, 0
3, 175680, Note_on_c, 1, 78, 100
3, 175920, Note_on_c, 1, 78, 0
3, 175920, Note_on_c, 1, 81, 100
3, 176160, Note_on_c, 1, 81, 0
3, 176160, Note_on_c, 1, 84, 100
3, 176400, Note_on_c, 1, 84, 0
3, 176400, Note_on_c, 1, 87, 100
3, 176640, Note_on_c, 1, 87, 0
3, 176640, Note_on_c, 1, 88, 100
3, 176880, Note_on_c, 1, 88, 0
3, 176880, Note_on_c, 1, 83, 100
3, 177120, Note_on_c, 1, 83, 0
3, 177120, Note_on_c, 1, 80, 100
3, 177360, Note_on_c, 1, 80, 0
3, 177360, Note_on_c, 1, 76, 100
3, 177600, Note_on_c, 1, 76, 0
3, 177600, Note_on_c, 1, 64, 100
3, 178080, Note_on_c, 1, 64, 0
3, 178080, Note_on_c, 1, 76, 100
3, 178560, Note_on_c, 1, 76, 0
3, 178560, Note_on_c, 1, 77, 100
3, 179040, Note_on_c, 1, 77, 0
3, 179040, Note_on_c, 1, 76, 100
3, 179280, Note_on_c, 1, 76, 0
3, 179280, Note_on_c, 1, 74, 100
3, 179520, Note_on_c, 1, 74, 0
3, 179520, Note_on_c, 1, 72, 100
3, 180000, Note_on_c, 1, 72, 0
3, 180000, Note_on_c, 1, 74, 100
3, 180480, Note_on_c, 1, 74, 0
3, 180480, Note_on_c, 1, 76, 100
3, 181440, Note_on_c, 1, 76, 0
3, 181440, Note_on_c, 1, 71, 100
3, 181920, Note_on_c, 1, 71, 0
3, 181920, Note_on_c, 1, 72, 100
3, 182400, Note_on_c, 1, 72, 0
3, 182400, Note_on_c, 1, 74, 100
3, 182880, Note_on_c, 1, 74, 0
3, 182880, Note_on_c, 1, 72, 100
3, 183360, Note_on_c, 1, 72, 0
3, 183360, Note_on_c, 1, 74, 100
3, 183840, Note_on_c, 1, 74, 0
3, 183840, Note_on_c, 1, 76, 100
3, 184080, Note_on_c, 1, 76, 0
3, 184080, Note_on_c, 1, 74, 100
3, 184320, Note_on_c, 1, 74, 0
3, 184320, Note_on_c, 1, 72, 100
3, 185280, Note_on_c, 1, 72, 0
3, 185280, Note_on_c, 1, 77, 100
3, 186720, Note_on_c, 1, 77, 0
3, 186720, Note_on_c, 1, 76, 100
3, 186960, Note_on_c, 1, 76, 0
3, 186960, Note_on_c, 1, 77, 100
3, 187200, Note_on_c, 1, 77, 0
3, 187200, Note_on_c, 1, 79, 100
3, 187440, Note_on_c, 1, 79, 0
3, 187440, Note_on_c, 1, 76, 100
3, 187680, Note_on_c, 1, 76, 0
3, 187680, Note_on_c, 1, 77, 100
3, 187920, Note_on_c, 1, 77, 0
3, 187920, Note_on_c, 1, 79, 100
3, 188160, Note_on_c, 1, 79, 0
3, 188160, Note_on_c, 1, 73, 100
3, 188640, Note_on_c, 1, 73, 0
3, 188640, Note_on_c, 1, 71, 100
3, 188880, Note_on_c, 1, 71, 0
3, 188880, Note_on_c, 1, 69, 100
3, 189120, Note_on_c, 1, 69, 0
3, 189120, Note_on_c, 1, 74, 100
3, 190080, Note_on_c, 1, 74, 0
3, 190080, Note_on_c, 1, 74, 100
3, 190560, Note_on_c, 1, 74, 0
3, 191040, Note_on_c, 1, 62, 100
3, 192000, Note_on_c, 1, 62, 0
3, 192000, Note_on_c, 1, 65, 100
3, 192480, Note_on_c, 1, 65, 0
3, 192480, Note_on_c, 1, 64, 100
3, 192720, Note_on_c, 1, 64, 0
3, 192720, Note_on_c, 1, 62, 100
3, 192960, Note_on_c, 1, 62, 0
3, 192960, Note_on_c, 1, 64, 100
3, 193440, Note_on_c, 1, 64, 0
3, 197760, Note_on_c, 1, 82, 0
3, 198240, Note_on_c, 1, 82, 0
3, 201600, Note_on_c, 1, 79, 0
3, 202080, Note_on_c, 1, 79, 0
3, 210240, Note_on_c, 1, 60, 100
3, 210720, Note_on_c, 1, 60, 0
3, 210720, Note_on_c, 1, 62, 100
3, 211200, Note_on_c, 1, 62, 0
3, 211200, Note_on_c, 1, 64, 100
3, 211680, Note_on_c, 1, 64, 0
3, 211680, Note_on_c, 1, 62, 100
3, 211920, Note_on_c, 1, 62, 0
3, 211920, Note_on_c, 1, 60, 100
3, 212160, Note_on_c, 1, 60, 0
3, 212160, Note_on_c, 1, 59, 100
3, 212640, Note_on_c, 1, 59, 0
3, 212640, Note_on_c, 1, 60, 100
3, 213120, Note_on_c, 1, 60, 0
3, 213120, Note_on_c, 1, 62, 100
3, 214080, Note_on_c, 1, 62, 0
3, 214080, Note_on_c, 1, 57, 100
3, 214560, Note_on_c, 1, 57, 0
3, 214560, Note_on_c, 1, 59, 100
3, 215040, Note_on_c, 1, 59, 0
3, 215040, Note_on_c, 1, 60, 100
3, 215520, Note_on_c, 1, 60, 0
3, 215520, Note_on_c, 1, 59, 100
3, 216000, Note_on_c, 1, 59, 0
3, 216000, Note_on_c, 1, 60, 100
3, 216480, Note_on_c, 1, 60, 0
3, 216480, Note_on_c, 1, 62, 100
3, 216720, Note_on_c, 1, 62, 0
3, 216720, Note_on_c, 1, 60, 100
3, 216960, Note_on_c, 1, 60, 0
3, 216960, Note_on_c, 1, 59, 100
3, 217440, Note_on_c, 1, 59, 0
3, 217440, Note_on_c, 1, 60, 100
3, 217680, Note_on_c, 1, 60, 0
3, 217680, Note_on_c, 1, 62, 100
3, 217920, Note_on_c, 1, 62, 0
3, 217920, Note_on_c, 1, 64, 100
3, 218400, Note_on_c, 1, 64, 0
3, 218400, Note_on_c, 1, 62, 100
3, 218880, Note_on_c, 1, 62, 0
3, 218880, Note_on_c, 1, 61, 100
3, 219840, Note_on_c, 1, 61, 0
3, 219840, Note_on_c, 1, 60, 100
3, 220800, Note_on_c, 1, 60, 0
3, 220800, Note_on_c, 1, 59, 100
3, 221760, Note_on_c, 1, 59, 0
3, 221760, Note_on_c, 1, 58, 100
3, 222720, Note_on_c, 1, 58, 0
3, 222720, Note_on_c, 1, 57, 100
3, 223680, Note_on_c, 1, 57, 0
3, 223680, Note_on_c, 1, 62, 100
3, 225120, Note_on_c, 1, 62, 0
3, 225120, Note_on_c, 1, 60, 100
3, 225360, Note_on_c, 1, 60, 0
3, 225360, Note_on_c, 1, 59, 100
3, 225600, Note_on_c, 1, 59, 0
3, 225600, Note_on_c, 1, 60, 100
3, 226560, Note_on_c, 1, 60, 0
3, 226560, Note_on_c, 1, 59, 100
3, 227520, Note_on_c, 1, 59, 0
3, 227520, Note_on_c, 1, 64, 100
3, 228960, Note_on_c, 1, 64, 0
3, 228960, Note_on_c, 1, 62, 100
3, 229200, Note_on_c, 1, 62, 0
3, 229200, Note_on_c, 1, 60, 100
3, 229440, Note_on_c, 1, 60, 0
3, 229440, Note_on_c, 1, 62, 100
3, 230880, Note_on_c, 1, 62, 0
3, 230880, Note_on_c, 1, 60, 100
3, 231120, Note_on_c, 1, 60, 0
3, 231120, Note_on_c, 1, 59, 100
3, 231360, Note_on_c, 1, 59, 0
3, 231360, Note_on_c, 1, 60, 100
3, 232800, Note_on_c, 1, 60, 0
3, 232800, Note_on_c, 1, 59, 100
3, 233040, Note_on_c, 1, 59, 0
3, 233040, Note_on_c, 1, 57, 100
3, 233280, Note_on_c, 1, 57, 0
3, 233280, Note_on_c, 1, 59, 100
3, 233760, Note_on_c, 1, 59, 0
3, 233760, Note_on_c, 1, 55, 100
3, 234240, Note_on_c, 1, 55, 0
3, 234240, Note_on_c, 1, 60, 100
3, 234720, Note_on_c, 1, 60, 0
3, 234720, Note_on_c, 1, 62, 100
3, 235200, Note_on_c, 1, 62, 0
3, 235200, Note_on_c, 1, 64, 100
3, 236160, Note_on_c, 1, 64, 0
3, 236160, Note_on_c, 1, 62, 100
3, 237120, Note_on_c, 1, 62, 0
3, 238080, Note_on_c, 1, 69, 100
3, 239040, Note_on_c, 1, 69, 0
3, 239040, Note_on_c, 1, 62, 100
3, 240000, Note_on_c, 1, 62, 0
3, 240000, Note_on_c, 1, 67, 100
3, 240960, Note_on_c, 1, 67, 0
3, 240960, Note_on_c, 1, 64, 100
3, 241920, Note_on_c, 1, 64, 0
3, 241920, Note_on_c, 1, 61, 100
3, 242880, Note_on_c, 1, 61, 0
3, 242880, Note_on_c, 1, 62, 100
3, 243840, Note_on_c, 1, 62, 0
3, 243840, Note_on_c, 1, 62, 100
3, 244320, Note_on_c, 1, 62, 0
3, 244320, Note_on_c, 1, 60, 100
3, 244560, Note_on_c, 1, 60, 0
3, 244560, Note_on_c, 1, 59, 100
3, 244800, Note_on_c, 1, 59, 0
3, 244800, Note_on_c, 1, 60, 100
3, 245280, Note_on_c, 1, 60, 0
3, 245280, Note_on_c, 1, 62, 100
3, 245520, Note_on_c, 1, 62, 0
3, 245520, Note_on_c, 1, 60, 100
3, 245760, Note_on_c, 1, 60, 0
3, 245760, Note_on_c, 1, 59, 100
3, 246720, Note_on_c, 1, 59, 0
3, 246720, Note_on_c, 1, 59, 100
3, 247680, Note_on_c, 1, 59, 0
3, 247680, Note_on_c, 1, 57, 100
3, 248640, Note_on_c, 1, 57, 0
3, 248640, Note_on_c, 1, 57, 100
3, 249600, Note_on_c, 1, 57, 0
3, 249600, Note_on_c, 1, 55, 100
3, 250560, Note_on_c, 1, 55, 0
3, 250560, Note_on_c, 1, 57, 100
3, 251520, Note_on_c, 1, 57, 0
3, 251520, Note_on_c, 1, 62, 100
3, 252480, Note_on_c, 1, 62, 0
3, 252480, Note_on_c, 1, 62, 100
3, 253440, Note_on_c, 1, 62, 0
3, 253440, Note_on_c, 1, 57, 100
3, 254400, Note_on_c, 1, 57, 0
3, 254400, Note_on_c, 1, 62, 100
3, 255360, Note_on_c, 1, 62, 0
3, 255360, Note_on_c, 1, 55, 100
3, 256320, Note_on_c, 1, 55, 0
3, 256320, Note_on_c, 1, 55, 100
3, 257280, Note_on_c, 1, 55, 0
3, 257280, Note_on_c, 1, 62, 100
3, 258240, Note_on_c, 1, 62, 0
3, 258240, Note_on_c, 1, 55, 100
3, 259200, Note_on_c, 1, 55, 0
3, 259200, Note_on_c, 1, 60, 100
3, 260160, Note_on_c, 1, 60, 0
3, 260160, Note_on_c, 1, 58, 100
3, 261120, Note_on_c, 1, 58, 0
3, 261120, Note_on_c, 1, 57, 100
3, 261600, Note_on_c, 1, 57, 0
3, 262080, Note_on_c, 1, 57, 100
3, 263040, Note_on_c, 1, 57, 0
3, 263040, Note_on_c, 1, 55, 100
3, 264000, Note_on_c, 1, 55, 0
3, 277440, Note_on_c, 1, 62, 100
3, 278400, Note_on_c, 1, 62, 0
3, 278400, Note_on_c, 1, 67, 100
3, 278880, Note_on_c, 1, 67, 0
3, 278880, Note_on_c, 1, 67, 100
3, 279360, Note_on_c, 1, 67, 0
3, 279360, Note_on_c, 1, 65, 100
3, 279840, Note_on_c, 1, 65, 0
3, 279840, Note_on_c, 1, 67, 100
3, 280080, Note_on_c, 1, 67, 0
3, 280080, Note_on_c, 1, 65, 100
3, 280320, Note_on_c, 1, 65, 0
3, 280320, Note_on_c, 1, 64, 100
3, 280800, Note_on_c, 1, 64, 0
3, 280800, Note_on_c, 1, 65, 100
3, 281280, Note_on_c, 1, 65, 0
3, 281280, Note_on_c, 1, 67, 100
3, 281760, Note_on_c, 1, 67, 0
3, 281760, Note_on_c, 1, 69, 100
3, 282000, Note_on_c, 1, 69, 0
3, 282000, Note_on_c, 1, 67, 100
3, 282240, Note_on_c, 1, 67, 0
3, 282240, Note_on_c, 1, 66, 100
3, 283200, Note_on_c, 1, 66, 0
3, 285120, Note_on_c, 1, 79, 100
3, 286080, Note_on_c, 1, 79, 0
3, 286080, Note_on_c, 1, 83, 100
3, 286560, Note_on_c, 1, 83, 0
3, 286560, Note_on_c, 1, 81, 100
3, 286800, Note_on_c, 1, 81, 0
3, 286800, Note_on_c, 1, 79, 100
3, 287040, Note_on_c, 1, 79, 0
3, 287040, Note_on_c, 1, 78, 100
3, 287520, Note_on_c, 1, 78, 0
3, 287520, Note_on_c, 1, 79, 100
3, 288000, Note_on_c, 1, 79, 0
3, 288000, Note_on_c, 1, 81, 100
3, 288960, Note_on_c, 1, 81, 0
3, 288960, Note_on_c, 1, 76, 100
3, 289440, Note_on_c, 1, 76, 0
3, 289440, Note_on_c, 1, 78, 100
3, 289920, Note_on_c, 1, 78, 0
3, 289920, Note_on_c, 1, 79, 100
3, 290400, Note_on_c, 1, 79, 0
3, 290400, Note_on_c, 1, 78, 100
3, 290880, Note_on_c, 1, 78, 0
3, 290880, Note_on_c, 1, 79, 100
3, 291360, Note_on_c, 1, 79, 0
3, 291360, Note_on_c, 1, 81, 100
3, 291600, Note_on_c, 1, 81, 0
3, 291600, Note_on_c, 1, 79, 100
3, 291840, Note_on_c, 1, 79, 0
3, 291840, Note_on_c, 1, 78, 100
3, 292320, Note_on_c, 1, 78, 0
3, 292320, Note_on_c, 1, 79, 100
3, 292560, Note_on_c, 1, 79, 0
3, 292560, Note_on_c, 1, 81, 100
3, 292800, Note_on_c, 1, 81, 0
3, 292800, Note_on_c, 1, 83, 100
3, 293760, Note_on_c, 1, 83, 0
3, 293760, Note_on_c, 1, 76, 100
3, 294720, Note_on_c, 1, 76, 0
3, 294720, Note_on_c, 1, 81, 100
3, 295680, Note_on_c, 1, 81, 0
3, 295920, Note_on_c, 1, 81, 100
3, 296160, Note_on_c, 1, 81, 0
3, 296160, Note_on_c, 1, 79, 100
3, 296400, Note_on_c, 1, 79, 0
3, 296400, Note_on_c, 1, 78, 100
3, 296640, Note_on_c, 1, 78, 0
3, 296640, Note_on_c, 1, 79, 100
3, 297600, Note_on_c, 1, 79, 0
3, 297600, Note_on_c, 1, 77, 100
3, 298560, Note_on_c, 1, 77, 0
3, 299520, Note_on_c, 1, 76, 100
3, 300000, Note_on_c, 1, 76, 0
3, 300000, Note_on_c, 1, 75, 100
3, 300480, Note_on_c, 1, 75, 0
3, 300480, Note_on_c, 1, 76, 100
3, 300960, Note_on_c, 1, 76, 0
3, 300960, Note_on_c, 1, 78, 100
3, 301200, Note_on_c, 1, 78, 0
3, 301200, Note_on_c, 1, 76, 100
3, 301440, Note_on_c, 1, 76, 0
3, 301440, Note_on_c, 1, 75, 100
3, 302400, Note_on_c, 1, 75, 0
3, 302400, Note_on_c, 1, 74, 100
3, 303360, Note_on_c, 1, 74, 0
3, 303360, Note_on_c, 1, 72, 100
3, 304320, Note_on_c, 1, 72, 0
3, 304320, Note_on_c, 1, 72, 100
3, 305280, Note_on_c, 1, 72, 0
3, 305280, Note_on_c, 1, 71, 100
3, 306240, Note_on_c, 1, 71, 0
3, 306240, Note_on_c, 1, 75, 100
3, 307200, Note_on_c, 1, 75, 0
3, 307200, Note_on_c, 1, 73, 100
3, 308160, Note_on_c, 1, 73, 0
3, 308160, Note_on_c, 1, 75, 100
3, 309120, Note_on_c, 1, 75, 0
3, 309120, Note_on_c, 1, 76, 100
3, 309600, Note_on_c, 1, 76, 0
3, 309600, Note_on_c, 1, 74, 100
3, 310080, Note_on_c, 1, 74, 0
3, 310080, Note_on_c, 1, 72, 100
3, 310560, Note_on_c, 1, 72, 0
3, 310560, Note_on_c, 1, 71, 100
3, 311040, Note_on_c, 1, 71, 0
3, 311040, Note_on_c, 1, 69, 100
3, 312000, Note_on_c, 1, 69, 0
3, 312960, Note_on_c, 1, 71, 100
3, 313920, Note_on_c, 1, 71, 0
3, 314400, Note_on_c, 1, 72, 100
3, 314880, Note_on_c, 1, 72, 0
3, 314880, Note_on_c, 1, 71, 100
3, 315840, Note_on_c, 1, 71, 0
3, 315840, Note_on_c, 1, 69, 100
3, 316800, Note_on_c, 1, 69, 0
3, 317280, Note_on_c, 1, 79, 100
3, 317520, Note_on_c, 1, 79, 0
3, 317520, Note_on_c, 1, 77, 100
3, 317760, Note_on_c, 1, 77, 0
3, 317760, Note_on_c, 1, 76, 100
3, 318000, Note_on_c, 1, 76, 0
3, 318000, Note_on_c, 1, 79, 100
3, 318240, Note_on_c, 1, 79, 0
3, 318240, Note_on_c, 1, 74, 100
3, 318480, Note_on_c, 1, 74, 0
3, 318480, Note_on_c, 1, 79, 100
3, 318720, Note_on_c, 1, 79, 0
3, 318720, Note_on_c, 1, 73, 100
3, 318960, Note_on_c, 1, 73, 0
3, 318960, Note_on_c, 1, 83, 100
3, 319200, Note_on_c, 1, 83, 0
3, 319200, Note_on_c, 1, 79, 100
3, 319440, Note_on_c, 1, 79, 0
3, 319440, Note_on_c, 1, 76, 100
3, 319680, Note_on_c, 1, 76, 0
3, 319680, Note_on_c, 1, 73, 100
3, 319920, Note_on_c, 1, 73, 0
3, 319920, Note_on_c, 1, 76, 100
3, 320160, Note_on_c, 1, 76, 0
3, 320160, Note_on_c, 1, 69, 100
3, 320400, Note_on_c, 1, 69, 0
3, 320400, Note_on_c, 1, 73, 100
3, 320640, Note_on_c, 1, 73, 0
3, 320640, Note_on_c, 1, 62, 100
3, 320880, Note_on_c, 1, 62, 0
3, 320880, Note_on_c, 1, 69, 100
3, 321120, Note_on_c, 1, 69, 0
3, 321120, Note_on_c, 1, 73, 100
3, 321360, Note_on_c, 1, 73, 0
3, 321360, Note_on_c, 1, 79, 100
3, 321600, Note_on_c, 1, 79, 0
3, 321600, Note_on_c, 1, 77, 100
3, 321840, Note_on_c, 1, 77, 0
3, 321840, Note_on_c, 1, 76, 100
3, 322080, Note_on_c, 1, 76, 0
3, 322080, Note_on_c, 1, 74, 100
3, 322320, Note_on_c, 1, 74, 0
3, 322320, Note_on_c, 1, 72, 100
3, 322560, Note_on_c, 1, 72, 0
3, 322560, Note_on_c, 1, 71, 100
3, 322800, Note_on_c, 1, 71, 0
3, 322800, Note_on_c, 1, 68, 100
3, 323040, Note_on_c, 1, 68, 0
3, 323040, Note_on_c, 1, 65, 100
3, 323280, Note_on_c, 1, 65, 0
3, 323280, Note_on_c, 1, 62, 100
3, 323520, Note_on_c, 1, 62, 0
3, 323520, Note_on_c, 1, 59, 100
3, 323760, Note_on_c, 1, 59, 0
3, 323760, Note_on_c, 1, 62, 100
3, 324000, Note_on_c, 1, 62, 0
3, 324000, Note_on_c, 1, 55, 100
3, 324240, Note_on_c, 1, 55, 0
3, 324240, Note_on_c, 1, 65, 100
3, 324480, Note_on_c, 1, 65, 0
3, 324480, Note_on_c, 1, 60, 100
3, 324720, Note_on_c, 1, 60, 0
3, 324720, Note_on_c, 1, 64, 100
3, 324960, Note_on_c, 1, 64, 0
3, 324960, Note_on_c, 1, 57, 100
3, 325200, Note_on_c, 1, 57, 0
3, 325200, Note_on_c, 1, 67, 100
3, 325440, Note_on_c, 1, 67, 0
3, 325440, Note_on_c, 1, 62, 100
3, 325680, Note_on_c, 1, 62, 0
3, 325680, Note_on_c, 1, 65, 100
3, 325920, Note_on_c, 1, 65, 0
3, 325920, Note_on_c, 1, 59, 100
3, 326160, Note_on_c, 1, 59, 0
3, 326160, Note_on_c, 1, 69, 100
3, 326400, Note_on_c, 1, 69, 0
3, 326400, Note_on_c, 1, 64, 100
3, 326640, Note_on_c, 1, 64, 0
3, 326640, Note_on_c, 1, 67, 100
3, 326880, Note_on_c, 1, 67, 0
3, 326880, Note_on_c, 1, 60, 100
3, 327120, Note_on_c, 1, 60, 0
3, 327120, Note_on_c, 1, 70, 100
3, 327360, Note_on_c, 1, 70, 0
3, 327360, Note_on_c, 1, 65, 100
3, 327600, Note_on_c, 1, 65, 0
3, 327600, Note_on_c, 1, 69, 100
3, 327840, Note_on_c, 1, 69, 0
3, 327840, Note_on_c, 1, 62, 100
3, 328080, Note_on_c, 1, 62, 0
3, 328080, Note_on_c, 1, 72, 100
3, 328320, Note_on_c, 1, 72, 0
3, 328320, Note_on_c, 1, 67, 100
3, 328560, Note_on_c, 1, 67, 0
3, 328560, Note_on_c, 1, 71, 100
3, 328800, Note_on_c, 1, 71, 0
3, 328800, Note_on_c, 1, 74, 100
3, 329040, Note_on_c, 1, 74, 0
3, 329040, Note_on_c, 1, 79, 100
3, 329280, Note_on_c, 1, 79, 0
3, 329280, Note_on_c, 1, 74, 100
3, 329520, Note_on_c, 1, 74, 0
3, 329520, Note_on_c, 1, 71, 100
3, 329760, Note_on_c, 1, 71, 0
3, 329760, Note_on_c, 1, 67, 100
3, 330000, Note_on_c, 1, 67, 0
3, 330000, Note_on_c, 1, 64, 100
3, 330240, Note_on_c, 1, 64, 0
3, 330240, Note_on_c, 1, 61, 100
3, 330480, Note_on_c, 1, 61, 0
3, 330480, Note_on_c, 1, 69, 100
3, 330720, Note_on_c, 1, 69, 0
3, 330720, Note_on_c, 1, 67, 100
3, 330960, Note_on_c, 1, 67, 0
3, 330960, Note_on_c, 1, 65, 100
3, 331200, Note_on_c, 1, 65, 0
3, 331200, Note_on_c, 1, 64, 100
3, 331440, Note_on_c, 1, 64, 0
3, 331440, Note_on_c, 1, 60, 100
3, 331680, Note_on_c, 1, 60, 0
3, 331680, Note_on_c, 1, 66, 100
3, 331920, Note_on_c, 1, 66, 0
3, 331920, Note_on_c, 1, 60, 100
3, 332160, Note_on_c, 1, 60, 0
3, 332160, Note_on_c, 1, 59, 100
3, 332400, Note_on_c, 1, 59, 0
3, 332400, Note_on_c, 1, 67, 100
3, 332640, Note_on_c, 1, 67, 0
3, 332640, Note_on_c, 1, 65, 100
3, 332880, Note_on_c, 1, 65, 0
3, 332880, Note_on_c, 1, 64, 100
3, 333120, Note_on_c, 1, 64, 0
3, 333120, Note_on_c, 1, 62, 100
3, 333360, Note_on_c, 1, 62, 0
3, 333360, Note_on_c, 1, 58, 100
3, 333600, Note_on_c, 1, 58, 0
3, 333600, Note_on_c, 1, 64, 100
3, 333840, Note_on_c, 1, 64, 0
3, 333840, Note_on_c, 1, 58, 100
3, 334080, Note_on_c, 1, 58, 0
3, 334080, Note_on_c, 1, 57, 100
3, 334320, Note_on_c, 1, 57, 0
3, 334320, Note_on_c, 1, 60, 100
3, 334560, Note_on_c, 1, 60, 0
3, 334560, Note_on_c, 1, 62, 100
3, 334800, Note_on_c, 1, 62, 0
3, 334800, Note_on_c, 1, 64, 100
3, 335040, Note_on_c, 1, 64, 0
3, 335040, Note_on_c, 1, 65, 100
3, 335280, Note_on_c, 1, 65, 0
3, 335280, Note_on_c, 1, 57, 100
3, 335520, Note_on_c, 1, 57, 0
3, 335520, Note_on_c, 1, 59, 100
3, 335760, Note_on_c, 1, 59, 0
3, 335760, Note_on_c, 1, 65, 100
3, 336000, Note_on_c, 1, 65, 0
3, 336000, Note_on_c, 1, 60, 100
3, 336240, Note_on_c, 1, 60, 0
3, 336240, Note_on_c, 1, 64, 100
3, 336480, Note_on_c, 1, 64, 0
3, 336480, Note_on_c, 1, 66, 100
3, 336720, Note_on_c, 1, 66, 0
3, 336720, Note_on_c, 1, 68, 100
3, 336960, Note_on_c, 1, 68, 0
3, 336960, Note_on_c, 1, 69, 100
3, 337200, Note_on_c, 1, 69, 0
3, 337200, Note_on_c, 1, 61, 100
3, 337440, Note_on_c, 1, 61, 0
3, 337440, Note_on_c, 1, 63, 100
3, 337680, Note_on_c, 1, 63, 0
3, 337680, Note_on_c, 1, 69, 100
3, 337920, Note_on_c, 1, 69, 0
3, 337920, Note_on_c, 1, 64, 100
3, 338160, Note_on_c, 1, 64, 0
3, 338160, Note_on_c, 1, 67, 100
3, 338400, Note_on_c, 1, 67, 0
3, 338400, Note_on_c, 1, 69, 100
3, 338640, Note_on_c, 1, 69, 0
3, 338640, Note_on_c, 1, 71, 100
3, 338880, Note_on_c, 1, 71, 0
3, 338880, Note_on_c, 1, 72, 100
3, 339120, Note_on_c, 1, 72, 0
3, 339120, Note_on_c, 1, 64, 100
3, 339360, Note_on_c, 1, 64, 0
3, 339360, Note_on_c, 1, 66, 100
3, 339600, Note_on_c, 1, 66, 0
3, 339600, Note_on_c, 1, 72, 100
3, 339840, Note_on_c, 1, 72, 0
3, 339840, Note_on_c, 1, 67, 100
3, 340080, Note_on_c, 1, 67, 0
3, 340080, Note_on_c, 1, 71, 100
3, 340320, Note_on_c, 1, 71, 0
3, 340320, Note_on_c, 1, 73, 100
3, 340560, Note_on_c, 1, 73, 0
3, 340560, Note_on_c, 1, 75, 100
3, 340800, Note_on_c, 1, 75, 0
3, 340800, Note_on_c, 1, 76, 100
3, 341040, Note_on_c, 1, 76, 0
3, 341040, Note_on_c, 1, 68, 100
3, 341280, Note_on_c, 1, 68, 0
3, 341280, Note_on_c, 1, 70, 100
3, 341520, Note_on_c, 1, 70, 0
3, 341520, Note_on_c, 1, 76, 100
3, 341760, Note_on_c, 1, 76, 0
3, 341760, Note_on_c, 1, 71, 100
3, 342000, Note_on_c, 1, 71, 0
3, 342000, Note_on_c, 1, 74, 100
3, 342240, Note_on_c, 1, 74, 0
3, 342240, Note_on_c, 1, 76, 100
3, 342480, Note_on_c, 1, 76, 0
3, 342480, Note_on_c, 1, 78, 100
3, 342720, Note_on_c, 1, 78, 0
3, 342720, Note_on_c, 1, 79, 100
3, 342960, Note_on_c, 1, 79, 0
3, 342960, Note_on_c, 1, 71, 100
3, 343200, Note_on_c, 1, 71, 0
3, 343200, Note_on_c, 1, 73, 100
3, 343440, Note_on_c, 1, 73, 0
3, 343440, Note_on_c, 1, 79, 100
3, 343680, Note_on_c, 1, 79, 0
3, 343680, Note_on_c, 1, 74, 100
3, 343920, Note_on_c, 1, 74, 0
3, 343920, Note_on_c, 1, 78, 100
3, 344160, Note_on_c, 1, 78, 0
3, 344160, Note_on_c, 1, 81, 100
3, 344400, Note_on_c, 1, 81, 0
3, 344400, Note_on_c, 1, 86, 100
3, 344640, Note_on_c, 1, 86, 0
3, 344640, Note_on_c, 1, 81, 100
3, 344880, Note_on_c, 1, 81, 0
3, 344880, Note_on_c, 1, 78, 100
3, 345120, Note_on_c, 1, 78, 0
3, 345120, Note_on_c, 1, 74, 100
3, 345360, Note_on_c, 1, 74, 0
3, 345360, Note_on_c, 1, 71, 100
3, 345600, Note_on_c, 1, 71, 0
3, 345600, Note_on_c, 1, 68, 100
3, 345840, Note_on_c, 1, 68, 0
3, 345840, Note_on_c, 1, 76, 100
3, 346080, Note_on_c, 1, 76, 0
3, 346080, Note_on_c, 1, 74, 100
3, 346320, Note_on_c, 1, 74, 0
3, 346320, Note_on_c, 1, 72, 100
3, 346560, Note_on_c, 1, 72, 0
3, 346560, Note_on_c, 1, 71, 100
3, 346800, Note_on_c, 1, 71, 0
3, 346800, Note_on_c, 1, 67, 100
3, 347040, Note_on_c, 1, 67, 0
3, 347040, Note_on_c, 1, 73, 100
3, 347280, Note_on_c, 1, 73, 0
3, 347280, Note_on_c, 1, 67, 100
3, 347520, Note_on_c, 1, 67, 0
3, 347520, Note_on_c, 1, 66, 100
3, 347760, Note_on_c, 1, 66, 0
3, 347760, Note_on_c, 1, 74, 100
3, 348000, Note_on_c, 1, 74, 0
3, 348000, Note_on_c, 1, 72, 100
3, 348240, Note_on_c, 1, 72, 0
3, 348240, Note_on_c, 1, 71, 100
3, 348480, Note_on_c, 1, 71, 0
3, 348480, Note_on_c, 1, 69, 100
3, 348720, Note_on_c, 1, 69, 0
3, 348720, Note_on_c, 1, 65, 100
3, 348960, Note_on_c, 1, 65, 0
3, 348960, Note_on_c, 1, 71, 100
3, 349200, Note_on_c, 1, 71, 0
3, 349200, Note_on_c, 1, 65, 100
3, 349440, Note_on_c, 1, 65, 0
3, 349440, Note_on_c, 1, 64, 100
3, 349680, Note_on_c, 1, 64, 0
3, 349680, Note_on_c, 1, 67, 100
3, 349920, Note_on_c, 1, 67, 0
3, 349920, Note_on_c, 1, 69, 100
3, 350160, Note_on_c, 1, 69, 0
3, 350160, Note_on_c, 1, 71, 100
3, 350400, Note_on_c, 1, 71, 0
3, 350400, Note_on_c, 1, 72, 100
3, 350640, Note_on_c, 1, 72, 0
3, 350640, Note_on_c, 1, 64, 100
3, 350880, Note_on_c, 1, 64, 0
3, 350880, Note_on_c, 1, 66, 100
3, 351120, Note_on_c, 1, 66, 0
3, 351120, Note_on_c, 1, 72, 100
3, 351360, Note_on_c, 1, 72, 0
3, 351360, Note_on_c, 1, 67, 100
3, 351600, Note_on_c, 1, 67, 0
3, 351600, Note_on_c, 1, 71, 100
3, 351840, Note_on_c, 1, 71, 0
3, 351840, Note_on_c, 1, 64, 100
3, 352080, Note_on_c, 1, 64, 0
3, 352080, Note_on_c, 1, 74, 100
3, 352320, Note_on_c, 1, 74, 0
3, 352320, Note_on_c, 1, 69, 100
3, 352560, Note_on_c, 1, 69, 0
3, 352560, Note_on_c, 1, 72, 100
3, 352800, Note_on_c, 1, 72, 0
3, 352800, Note_on_c, 1, 66, 100
3, 353040, Note_on_c, 1, 66, 0
3, 353040, Note_on_c, 1, 76, 100
3, 353280, Note_on_c, 1, 76, 0
3, 353280, Note_on_c, 1, 71, 100
3, 353520, Note_on_c, 1, 71, 0
3, 353520, Note_on_c, 1, 74, 100
3, 353760, Note_on_c, 1, 74, 0
3, 353760, Note_on_c, 1, 67, 100
3, 354000, Note_on_c, 1, 67, 0
3, 354000, Note_on_c, 1, 77, 100
3, 354240, Note_on_c, 1, 77, 0
3, 354240, Note_on_c, 1, 72, 100
3, 354480, Note_on_c, 1, 72, 0
3, 354480, Note_on_c, 1, 76, 100
3, 354720, Note_on_c, 1, 76, 0
3, 354720, Note_on_c, 1, 69, 100
3, 354960, Note_on_c, 1, 69, 0
3, 354960, Note_on_c, 1, 79, 100
3, 355200, Note_on_c, 1, 79, 0
3, 355200, Note_on_c, 1, 74, 100
3, 355440, Note_on_c, 1, 74, 0
3, 355440, Note_on_c, 1, 78, 100
3, 355680, Note_on_c, 1, 78, 0
3, 355680, Note_on_c, 1, 69, 100
3, 355920, Note_on_c, 1, 69, 0
3, 355920, Note_on_c, 1, 74, 100
3, 356160, Note_on_c, 1, 74, 0
3, 356160, Note_on_c, 1, 66, 100
3, 356400, Note_on_c, 1, 66, 0
3, 356400, Note_on_c, 1, 69, 100
3, 356640, Note_on_c, 1, 69, 0
3, 356640, Note_on_c, 1, 62, 100
3, 356880, Note_on_c, 1, 62, 0
3, 356880, Note_on_c, 1, 72, 100
3, 357120, Note_on_c, 1, 72, 0
3, 357120, Note_on_c, 1, 71, 100
3, 357360, Note_on_c, 1, 71, 0
3, 357360, Note_on_c, 1, 76, 100
3, 357600, Note_on_c, 1, 76, 0
3, 357600, Note_on_c, 1, 74, 100
3, 357840, Note_on_c, 1, 74, 0
3, 357840, Note_on_c, 1, 72, 100
3, 358080, Note_on_c, 1, 72, 0
3, 358080, Note_on_c, 1, 71, 100
3, 358320, Note_on_c, 1, 71, 0
3, 358560, Note_on_c, 1, 72, 100
3, 358800, Note_on_c, 1, 72, 0
3, 359040, Note_on_c, 1, 74, 100
3, 359280, Note_on_c, 1, 74, 0
3, 359520, Note_on_c, 1, 72, 100
3, 359760, Note_on_c, 1, 72, 0
3, 359760, Note_on_c, 1, 71, 100
3, 360000, Note_on_c, 1, 71, 0
3, 360000, Note_on_c, 1, 69, 100
3, 360240, Note_on_c, 1, 69, 0
3, 360480, Note_on_c, 1, 71, 100
3, 360720, Note_on_c, 1, 71, 0
3, 360960, Note_on_c, 1, 72, 100
3, 361200, Note_on_c, 1, 72, 0
3, 361440, Note_on_c, 1, 71, 100
3, 361680, Note_on_c, 1, 71, 0
3, 361920, Note_on_c, 1, 72, 100
3, 362160, Note_on_c, 1, 72, 0
3, 362400, Note_on_c, 1, 74, 100
3, 362640, Note_on_c, 1, 74, 0
3, 362640, Note_on_c, 1, 72, 100
3, 362880, Note_on_c, 1, 72, 0
3, 362880, Note_on_c, 1, 71, 100
3, 363120, Note_on_c, 1, 71, 0
3, 363360, Note_on_c, 1, 69, 100
3, 363600, Note_on_c, 1, 69, 0
3, 363840, Note_on_c, 1, 71, 100
3, 364080, Note_on_c, 1, 71, 0
3, 364320, Note_on_c, 1, 73, 100
3, 364800, Note_on_c, 1, 73, 0
3, 364800, Note_on_c, 1, 74, 100
3, 365040, Note_on_c, 1, 74, 0
3, 365280, Note_on_c, 1, 74, 100
3, 365520, Note_on_c, 1, 74, 0
3, 365760, Note_on_c, 1, 72, 100
3, 366000, Note_on_c, 1, 72, 0
3, 366240, Note_on_c, 1, 74, 100
3, 366480, Note_on_c, 1, 74, 0
3, 366720, Note_on_c, 1, 76, 100
3, 366960, Note_on_c, 1, 76, 0
3, 367200, Note_on_c, 1, 76, 100
3, 367440, Note_on_c, 1, 76, 0
3, 367680, Note_on_c, 1, 74, 100
3, 367920, Note_on_c, 1, 74, 0
3, 368160, Note_on_c, 1, 76, 100
3, 368400, Note_on_c, 1, 76, 0
3, 368640, Note_on_c, 1, 78, 100
3, 368880, Note_on_c, 1, 78, 0
3, 369120, Note_on_c, 1, 78, 100
3, 369360, Note_on_c, 1, 78, 0
3, 369600, Note_on_c, 1, 76, 100
3, 369840, Note_on_c, 1, 76, 0
3, 370080, Note_on_c, 1, 78, 100
3, 370320, Note_on_c, 1, 78, 0
3, 370560, Note_on_c, 1, 79, 100
3, 370800, Note_on_c, 1, 79, 0
3, 371040, Note_on_c, 1, 79, 100
3, 371280, Note_on_c, 1, 79, 0
3, 371520, Note_on_c, 1, 78, 100
3, 371760, Note_on_c, 1, 78, 0
3, 372000, Note_on_c, 1, 77, 100
3, 372240, Note_on_c, 1, 77, 0
3, 372480, Note_on_c, 1, 76, 100
3, 372720, Note_on_c, 1, 76, 0
3, 372960, Note_on_c, 1, 78, 100
3, 373440, Note_on_c, 1, 78, 0
3, 373440, Note_on_c, 1, 79, 100
3, 373680, Note_on_c, 1, 79, 0
3, 373920, Note_on_c, 1, 79, 100
3, 374160, Note_on_c, 1, 79, 0
3, 374400, Note_on_c, 1, 78, 100
3, 374640, Note_on_c, 1, 78, 0
3, 374880, Note_on_c, 1, 78, 100
3, 375120, Note_on_c, 1, 78, 0
3, 375360, Note_on_c, 1, 77, 100
3, 375600, Note_on_c, 1, 77, 0
3, 375840, Note_on_c, 1, 77, 100
3, 376080, Note_on_c, 1, 77, 0
3, 376320, Note_on_c, 1, 76, 100
3, 376560, Note_on_c, 1, 76, 0
3, 376800, Note_on_c, 1, 76, 100
3, 377040, Note_on_c, 1, 76, 0
3, 377280, Note_on_c, 1, 75, 100
3, 377520, Note_on_c, 1, 75, 0
3, 377760, Note_on_c, 1, 75, 100
3, 378240, Note_on_c, 1, 75, 0
3, 378240, Note_on_c, 1, 74, 100
3, 378480, Note_on_c, 1, 74, 0
3, 378720, Note_on_c, 1, 72, 100
3, 378960, Note_on_c, 1, 72, 0
3, 379200, Note_on_c, 1, 74, 100
3, 379440, Note_on_c, 1, 74, 0
3, 379680, Note_on_c, 1, 76, 100
3, 379920, Note_on_c, 1, 76, 0
3, 379920, Note_on_c, 1, 74, 100
3, 380160, Note_on_c, 1, 74, 0
3, 380160, Note_on_c, 1, 73, 100
3, 380400, Note_on_c, 1, 73, 0
3, 380640, Note_on_c, 1, 71, 100
3, 380880, Note_on_c, 1, 71, 0
3, 381120, Note_on_c, 1, 72, 100
3, 381360, Note_on_c, 1, 72, 0
3, 381600, Note_on_c, 1, 74, 100
3, 381840, Note_on_c, 1, 74, 0
3, 381840, Note_on_c, 1, 72, 100
3, 382080, Note_on_c, 1, 72, 0
3, 382080, Note_on_c, 1, 71, 100
3, 382320, Note_on_c, 1, 71, 0
3, 382560, Note_on_c, 1, 69, 100
3, 382800, Note_on_c, 1, 69, 0
3, 383040, Note_on_c, 1, 70, 100
3, 383280, Note_on_c, 1, 70, 0
3, 383520, Note_on_c, 1, 72, 100
3, 383760, Note_on_c, 1, 72, 0
3, 383760, Note_on_c, 1, 70, 100
3, 384000, Note_on_c, 1, 70, 0
3, 384000, Note_on_c, 1, 69, 100
3, 384240, Note_on_c, 1, 69, 0
3, 384480, Note_on_c, 1, 71, 100
3, 384720, Note_on_c, 1, 71, 0
3, 384960, Note_on_c, 1, 72, 100
3, 385200, Note_on_c, 1, 72, 0
3, 385440, Note_on_c, 1, 74, 100
3, 385680, Note_on_c, 1, 74, 0
3, 385680, Note_on_c, 1, 72, 100
3, 385920, Note_on_c, 1, 72, 0
3, 385920, Note_on_c, 1, 71, 100
3, 386880, Note_on_c, 1, 71, 0
3, 394560, Note_on_c, 1, 67, 100
3, 395520, Note_on_c, 1, 67, 0
3, 395520, Note_on_c, 1, 66, 100
3, 396000, Note_on_c, 1, 66, 0
3, 396000, Note_on_c, 1, 67, 100
3, 396240, Note_on_c, 1, 67, 0
3, 396240, Note_on_c, 1, 69, 100
3, 396480, Note_on_c, 1, 69, 0
3, 396480, Note_on_c, 1, 71, 100
3, 396960, Note_on_c, 1, 71, 0
3, 396960, Note_on_c, 1, 69, 100
3, 397440, Note_on_c, 1, 69, 0
3, 397440, Note_on_c, 1, 67, 100
3, 398400, Note_on_c, 1, 67, 0
3, 398400, Note_on_c, 1, 72, 100
3, 398880, Note_on_c, 1, 72, 0
3, 398880, Note_on_c, 1, 71, 100
3, 399360, Note_on_c, 1, 71, 0
3, 399360, Note_on_c, 1, 69, 100
3, 399840, Note_on_c, 1, 69, 0
3, 399840, Note_on_c, 1, 71, 100
3, 400080, Note_on_c, 1, 71, 0
3, 400080, Note_on_c, 1, 69, 100
3, 400320, Note_on_c, 1, 69, 0
3, 400320, Note_on_c, 1, 67, 100
3, 400800, Note_on_c, 1, 67, 0
3, 400800, Note_on_c, 1, 69, 100
3, 401280, Note_on_c, 1, 69, 0
3, 401280, Note_on_c, 1, 71, 100
3, 402240, Note_on_c, 1, 71, 0
3, 402240, Note_on_c, 1, 71, 100
3, 403200, Note_on_c, 1, 71, 0
3, 403200, Note_on_c, 1, 72, 100
3, 404160, Note_on_c, 1, 72, 0
3, 404160, Note_on_c, 1, 73, 100
3, 405120, Note_on_c, 1, 73, 0
3, 405120, Note_on_c, 1, 74, 100
3, 406080, Note_on_c, 1, 74, 0
3, 406080, Note_on_c, 1, 74, 100
3, 407040, Note_on_c, 1, 74, 0
3, 407040, Note_on_c, 1, 75, 100
3, 408000, Note_on_c, 1, 75, 0
3, 408480, Note_on_c, 1, 76, 100
3, 408960, Note_on_c, 1, 76, 0
3, 408960, Note_on_c, 1, 77, 100
3, 409440, Note_on_c, 1, 77, 0
3, 409440, Note_on_c, 1, 76, 100
3, 409920, Note_on_c, 1, 76, 0
3, 409920, Note_on_c, 1, 74, 100
3, 410400, Note_on_c, 1, 74, 0
3, 410400, Note_on_c, 1, 72, 100
3, 410880, Note_on_c, 1, 72, 0
3, 410880, Note_on_c, 1, 71, 100
3, 411360, Note_on_c, 1, 71, 0
3, 411360, Note_on_c, 1, 72, 100
3, 411600, Note_on_c, 1, 72, 0
3, 411600, Note_on_c, 1, 74, 100
3, 411840, Note_on_c, 1, 74, 0
3, 411840, Note_on_c, 1, 76, 100
3, 412320, Note_on_c, 1, 76, 0
3, 412320, Note_on_c, 1, 74, 100
3, 412800, Note_on_c, 1, 74, 0
3, 412800, Note_on_c, 1, 72, 100
3, 413760, Note_on_c, 1, 72, 0
3, 413760, Note_on_c, 1, 77, 100
3, 414240, Note_on_c, 1, 77, 0
3, 414240, Note_on_c, 1, 76, 100
3, 414720, Note_on_c, 1, 76, 0
3, 414720, Note_on_c, 1, 74, 100
3, 415200, Note_on_c, 1, 74, 0
3, 415200, Note_on_c, 1, 76, 100
3, 415440, Note_on_c, 1, 76, 0
3, 415440, Note_on_c, 1, 74, 100
3, 415680, Note_on_c, 1, 74, 0
3, 415680, Note_on_c, 1, 72, 100
3, 416160, Note_on_c, 1, 72, 0
3, 416160, Note_on_c, 1, 74, 100
3, 416640, Note_on_c, 1, 74, 0
3, 416640, Note_on_c, 1, 76, 100
3, 417600, Note_on_c, 1, 76, 0
3, 417600, Note_on_c, 1, 72, 100
3, 418560, Note_on_c, 1, 72, 0
3, 418560, Note_on_c, 1, 72, 100
3, 419520, Note_on_c, 1, 72, 0
3, 419520, Note_on_c, 1, 70, 100
3, 420000, Note_on_c, 1, 70, 0
3, 420000, Note_on_c, 1, 69, 100
3, 420240, Note_on_c, 1, 69, 0
3, 420240, Note_on_c, 1, 67, 100
3, 420480, Note_on_c, 1, 67, 0
3, 420480, Note_on_c, 1, 73, 100
3, 421440, Note_on_c, 1, 73, 0
3, 421920, Note_on_c, 1, 73, 100
3, 422400, Note_on_c, 1, 73, 0
3, 422400, Note_on_c, 1, 74, 100
3, 422880, Note_on_c, 1, 74, 0
3, 422880, Note_on_c, 1, 72, 100
3, 423360, Note_on_c, 1, 72, 0
3, 423360, Note_on_c, 1, 70, 100
3, 423840, Note_on_c, 1, 70, 0
3, 423840, Note_on_c, 1, 69, 100
3, 424320, Note_on_c, 1, 69, 0
3, 424320, Note_on_c, 1, 68, 100
3, 424800, Note_on_c, 1, 68, 0
3, 424800, Note_on_c, 1, 66, 100
3, 425040, Note_on_c, 1, 66, 0
3, 425040, Note_on_c, 1, 64, 100
3, 425280, Note_on_c, 1, 64, 0
3, 425280, Note_on_c, 1, 69, 100
3, 426240, Note_on_c, 1, 69, 0
3, 426240, Note_on_c, 1, 69, 100
3, 426720, Note_on_c, 1, 69, 0
3, 426720, Note_on_c, 1, 71, 100
3, 426960, Note_on_c, 1, 71, 0
3, 426960, Note_on_c, 1, 72, 100
3, 427200, Note_on_c, 1, 72, 0
3, 427200, Note_on_c, 1, 71, 100
3, 427680, Note_on_c, 1, 71, 0
3, 427680, Note_on_c, 1, 69, 100
3, 428160, Note_on_c, 1, 69, 0
3, 428160, Note_on_c, 1, 67, 100
3, 428640, Note_on_c, 1, 67, 0
3, 428640, Note_on_c, 1, 65, 100
3, 429120, Note_on_c, 1, 65, 0
3, 429120, Note_on_c, 1, 64, 100
3, 429600, Note_on_c, 1, 64, 0
3, 429600, Note_on_c, 1, 62, 100
3, 430080, Note_on_c, 1, 62, 0
3, 430080, Note_on_c, 1, 61, 100
3, 430560, Note_on_c, 1, 61, 0
3, 430560, Note_on_c, 1, 59, 100
3, 430800, Note_on_c, 1, 59, 0
3, 430800, Note_on_c, 1, 57, 100
3, 431040, Note_on_c, 1, 57, 0
3, 431040, Note_on_c, 1, 62, 100
3, 432000, Note_on_c, 1, 62, 0
3, 432000, Note_on_c, 1, 62, 100
3, 432480, Note_on_c, 1, 62, 0
3, 432480, Note_on_c, 1, 64, 100
3, 432720, Note_on_c, 1, 64, 0
3, 432720, Note_on_c, 1, 65, 100
3, 432960, Note_on_c, 1, 65, 0
3, 432960, Note_on_c, 1, 64, 100
3, 433440, Note_on_c, 1, 64, 0
3, 433440, Note_on_c, 1, 62, 100
3, 433920, Note_on_c, 1, 62, 0
3, 433920, Note_on_c, 1, 61, 100
3, 434880, Note_on_c, 1, 61, 0
3, 435840, Note_on_c, 1, 67, 100
3, 436800, Note_on_c, 1, 67, 0
3, 436800, Note_on_c, 1, 67, 100
3, 437760, Note_on_c, 1, 67, 0
3, 437760, Note_on_c, 1, 65, 100
3, 438240, Note_on_c, 1, 65, 0
3, 438240, Note_on_c, 1, 64, 100
3, 438720, Note_on_c, 1, 64, 0
3, 438720, Note_on_c, 1, 62, 100
3, 439680, Note_on_c, 1, 62, 0
3, 439680, Note_on_c, 1, 60, 100
3, 440640, Note_on_c, 1, 60, 0
3, 452160, Note_on_c, 1, 55, 100
3, 453120, Note_on_c, 1, 55, 0
3, 453120, Note_on_c, 1, 56, 100
3, 454080, Note_on_c, 1, 56, 0
3, 454080, Note_on_c, 1, 57, 100
3, 455040, Note_on_c, 1, 57, 0
3, 455040, Note_on_c, 1, 58, 100
3, 456000, Note_on_c, 1, 58, 0
3, 456480, Note_on_c, 1, 59, 100
3, 456960, Note_on_c, 1, 59, 0
3, 456960, Note_on_c, 1, 60, 100
3, 457920, Note_on_c, 1, 60, 0
3, 458400, Note_on_c, 1, 61, 100
3, 458880, Note_on_c, 1, 61, 0
3, 458880, Note_on_c, 1, 62, 100
3, 459840, Note_on_c, 1, 62, 0
3, 459840, Note_on_c, 1, 62, 100
3, 460320, Note_on_c, 1, 62, 0
3, 460320, Note_on_c, 1, 60, 100
3, 460800, Note_on_c, 1, 60, 0
3, 460800, Note_on_c, 1, 59, 100
3, 461280, Note_on_c, 1, 59, 0
3, 461280, Note_on_c, 1, 60, 100
3, 461520, Note_on_c, 1, 60, 0
3, 461520, Note_on_c, 1, 62, 100
3, 461760, Note_on_c, 1, 62, 0
3, 461760, Note_on_c, 1, 60, 100
3, 462240, Note_on_c, 1, 60, 0
3, 462240, Note_on_c, 1, 58, 100
3, 462720, Note_on_c, 1, 58, 0
3, 462720, Note_on_c, 1, 57, 100
3, 463680, Note_on_c, 1, 57, 0
3, 464640, Note_on_c, 1, 60, 100
3, 465600, Note_on_c, 1, 60, 0
3, 467040, Note_on_c, 1, 59, 100
3, 467520, Note_on_c, 1, 59, 0
3, 467520, Note_on_c, 1, 60, 100
3, 468000, Note_on_c, 1, 60, 0
3, 468000, Note_on_c, 1, 57, 100
3, 468480, Note_on_c, 1, 57, 0
3, 468480, Note_on_c, 1, 55, 100
3, 469440, Note_on_c, 1, 55, 0
3, 469440, Note_on_c, 1, 55, 100
3, 470400, Note_on_c, 1, 55, 0
3, 470880, Note_on_c, 1, 60, 100
3, 471120, Note_on_c, 1, 60, 0
3, 471120, Note_on_c, 1, 62, 100
3, 471360, Note_on_c, 1, 62, 0
3, 471360, Note_on_c, 1, 64, 100
3, 471600, Note_on_c, 1, 64, 0
3, 471600, Note_on_c, 1, 60, 100
3, 471840, Note_on_c, 1, 60, 0
3, 471840, Note_on_c, 1, 65, 100
3, 472080, Note_on_c, 1, 65, 0
3, 472080, Note_on_c, 1, 62, 100
3, 472320, Note_on_c, 1, 62, 0
3, 472320, Note_on_c, 1, 67, 100
3, 472560, Note_on_c, 1, 67, 0
3, 472560, Note_on_c, 1, 64, 100
3, 472800, Note_on_c, 1, 64, 0
3, 472800, Note_on_c, 1, 60, 100
3, 473040, Note_on_c, 1, 60, 0
3, 473040, Note_on_c, 1, 64, 100
3, 473280, Note_on_c, 1, 64, 0
3, 473280, Note_on_c, 1, 67, 100
3, 473520, Note_on_c, 1, 67, 0
3, 473520, Note_on_c, 1, 70, 100
3, 473760, Note_on_c, 1, 70, 0
3, 473760, Note_on_c, 1, 69, 100
3, 474000, Note_on_c, 1, 69, 0
3, 474000, Note_on_c, 1, 67, 100
3, 474240, Note_on_c, 1, 67, 0
3, 474240, Note_on_c, 1, 69, 100
3, 474480, Note_on_c, 1, 69, 0
3, 474480, Note_on_c, 1, 65, 100
3, 474720, Note_on_c, 1, 65, 0
3, 474720, Note_on_c, 1, 62, 100
3, 474960, Note_on_c, 1, 62, 0
3, 474960, Note_on_c, 1, 64, 100
3, 475200, Note_on_c, 1, 64, 0
3, 475200, Note_on_c, 1, 66, 100
3, 475440, Note_on_c, 1, 66, 0
3, 475440, Note_on_c, 1, 62, 100
3, 475680, Note_on_c, 1, 62, 0
3, 475680, Note_on_c, 1, 67, 100
3, 475920, Note_on_c, 1, 67, 0
3, 475920, Note_on_c, 1, 64, 100
3, 476160, Note_on_c, 1, 64, 0
3, 476160, Note_on_c, 1, 69, 100
3, 476400, Note_on_c, 1, 69, 0
3, 476400, Note_on_c, 1, 66, 100
3, 476640, Note_on_c, 1, 66, 0
3, 476640, Note_on_c, 1, 62, 100
3, 476880, Note_on_c, 1, 62, 0
3, 476880, Note_on_c, 1, 66, 100
3, 477120, Note_on_c, 1, 66, 0
3, 477120, Note_on_c, 1, 69, 100
3, 477360, Note_on_c, 1, 69, 0
3, 477360, Note_on_c, 1, 72, 100
3, 477600, Note_on_c, 1, 72, 0
3, 477600, Note_on_c, 1, 71, 100
3, 477840, Note_on_c, 1, 71, 0
3, 477840, Note_on_c, 1, 69, 100
3, 478080, Note_on_c, 1, 69, 0
3, 478080, Note_on_c, 1, 71, 100
3, 478320, Note_on_c, 1, 71, 0
3, 478320, Note_on_c, 1, 74, 100
3, 478560, Note_on_c, 1, 74, 0
3, 478560, Note_on_c, 1, 67, 100
3, 478800, Note_on_c, 1, 67, 0
3, 478800, Note_on_c, 1, 69, 100
3, 479040, Note_on_c, 1, 69, 0
3, 479040, Note_on_c, 1, 71, 100
3, 479280, Note_on_c, 1, 71, 0
3, 479280, Note_on_c, 1, 67, 100
3, 479520, Note_on_c, 1, 67, 0
3, 479520, Note_on_c, 1, 72, 100
3, 479760, Note_on_c, 1, 72, 0
3, 479760, Note_on_c, 1, 69, 100
3, 480000, Note_on_c, 1, 69, 0
3, 480000, Note_on_c, 1, 74, 100
3, 480240, Note_on_c, 1, 74, 0
3, 480240, Note_on_c, 1, 71, 100
3, 480480, Note_on_c, 1, 71, 0
3, 480480, Note_on_c, 1, 67, 100
3, 480720, Note_on_c, 1, 67, 0
3, 480720, Note_on_c, 1, 71, 100
3, 480960, Note_on_c, 1, 71, 0
3, 480960, Note_on_c, 1, 74, 100
3, 481200, Note_on_c, 1, 74, 0
3, 481200, Note_on_c, 1, 77, 100
3, 481440, Note_on_c, 1, 77, 0
3, 481440, Note_on_c, 1, 76, 100
3, 481680, Note_on_c, 1, 76, 0
3, 481680, Note_on_c, 1, 74, 100
3, 481920, Note_on_c, 1, 74, 0
3, 481920, Note_on_c, 1, 76, 100
3, 482160, Note_on_c, 1, 76, 0
3, 482160, Note_on_c, 1, 72, 100
3, 482400, Note_on_c, 1, 72, 0
3, 482400, Note_on_c, 1, 67, 100
3, 482640, Note_on_c, 1, 67, 0
3, 482640, Note_on_c, 1, 72, 100
3, 482880, Note_on_c, 1, 72, 0
3, 482880, Note_on_c, 1, 76, 100
3, 483120, Note_on_c, 1, 76, 0
3, 483120, Note_on_c, 1, 79, 100
3, 483360, Note_on_c, 1, 79, 0
3, 483360, Note_on_c, 1, 78, 100
3, 483600, Note_on_c, 1, 78, 0
3, 483600, Note_on_c, 1, 76, 100
3, 483840, Note_on_c, 1, 76, 0
3, 483840, Note_on_c, 1, 78, 100
3, 484080, Note_on_c, 1, 78, 0
3, 484080, Note_on_c, 1, 72, 100
3, 484320, Note_on_c, 1, 72, 0
3, 484320, Note_on_c, 1, 69, 100
3, 484560, Note_on_c, 1, 69, 0
3, 484560, Note_on_c, 1, 72, 100
3, 484800, Note_on_c, 1, 72, 0
3, 484800, Note_on_c, 1, 78, 100
3, 485040, Note_on_c, 1, 78, 0
3, 485040, Note_on_c, 1, 81, 100
3, 485280, Note_on_c, 1, 81, 0
3, 485280, Note_on_c, 1, 79, 100
3, 485520, Note_on_c, 1, 79, 0
3, 485520, Note_on_c, 1, 78, 100
3, 485760, Note_on_c, 1, 78, 0
3, 485760, Note_on_c, 1, 79, 100
3, 486000, Note_on_c, 1, 79, 0
3, 486000, Note_on_c, 1, 74, 100
3, 486240, Note_on_c, 1, 74, 0
3, 486240, Note_on_c, 1, 71, 100
3, 486480, Note_on_c, 1, 71, 0
3, 486480, Note_on_c, 1, 74, 100
3, 486720, Note_on_c, 1, 74, 0
3, 486720, Note_on_c, 1, 79, 100
3, 486960, Note_on_c, 1, 79, 0
3, 486960, Note_on_c, 1, 83, 100
3, 487200, Note_on_c, 1, 83, 0
3, 487200, Note_on_c, 1, 81, 100
3, 487440, Note_on_c, 1, 81, 0
3, 487440, Note_on_c, 1, 79, 100
3, 487680, Note_on_c, 1, 79, 0
3, 487680, Note_on_c, 1, 81, 100
3, 487920, Note_on_c, 1, 81, 0
3, 487920, Note_on_c, 1, 78, 100
3, 488160, Note_on_c, 1, 78, 0
3, 488160, Note_on_c, 1, 72, 100
3, 488400, Note_on_c, 1, 72, 0
3, 488400, Note_on_c, 1, 78, 100
3, 488640, Note_on_c, 1, 78, 0
3, 488640, Note_on_c, 1, 81, 100
3, 488880, Note_on_c, 1, 81, 0
3, 488880, Note_on_c, 1, 84, 100
3, 489120, Note_on_c, 1, 84, 0
3, 489120, Note_on_c, 1, 83, 100
3, 489360, Note_on_c, 1, 83, 0
3, 489360, Note_on_c, 1, 81, 100
3, 489600, Note_on_c, 1, 81, 0
3, 489600, Note_on_c, 1, 83, 100
3, 489840, Note_on_c, 1, 83, 0
3, 489840, Note_on_c, 1, 79, 100
3, 490080, Note_on_c, 1, 79, 0
3, 490080, Note_on_c, 1, 74, 100
3, 490320, Note_on_c, 1, 74, 0
3, 490320, Note_on_c, 1, 79, 100
3, 490560, Note_on_c, 1, 79, 0
3, 490560, Note_on_c, 1, 83, 100
3, 490800, Note_on_c, 1, 83, 0
3, 490800, Note_on_c, 1, 86, 100
3, 491040, Note_on_c, 1, 86, 0
3, 491040, Note_on_c, 1, 79, 100
3, 491280, Note_on_c, 1, 79, 0
3, 491280, Note_on_c, 1, 83, 100
3, 491520, Note_on_c, 1, 83, 0
3, 491520, Note_on_c, 1, 84, 100
3, 491760, Note_on_c, 1, 84, 0
3, 491760, Note_on_c, 1, 81, 100
3, 492000, Note_on_c, 1, 81, 0
3, 492000, Note_on_c, 1, 79, 100
3, 492240, Note_on_c, 1, 79, 0
3, 492240, Note_on_c, 1, 77, 100
3, 492480, Note_on_c, 1, 77, 0
3, 492480, Note_on_c, 1, 76, 100
3, 492720, Note_on_c, 1, 76, 0
3, 492720, Note_on_c, 1, 84, 100
3, 492960, Note_on_c, 1, 84, 0
3, 492960, Note_on_c, 1, 78, 100
3, 493200, Note_on_c, 1, 78, 0
3, 493200, Note_on_c, 1, 84, 100
3, 493440, Note_on_c, 1, 84, 0
3, 493440, Note_on_c, 1, 83, 100
3, 493680, Note_on_c, 1, 83, 0
3, 493680, Note_on_c, 1, 79, 100
3, 493920, Note_on_c, 1, 79, 0
3, 493920, Note_on_c, 1, 77, 100
3, 494160, Note_on_c, 1, 77, 0
3, 494160, Note_on_c, 1, 76, 100
3, 494400, Note_on_c, 1, 76, 0
3, 494400, Note_on_c, 1, 74, 100
3, 494640, Note_on_c, 1, 74, 0
3, 494640, Note_on_c, 1, 82, 100
3, 494880, Note_on_c, 1, 82, 0
3, 494880, Note_on_c, 1, 76, 100
3, 495120, Note_on_c, 1, 76, 0
3, 495120, Note_on_c, 1, 82, 100
3, 495360, Note_on_c, 1, 82, 0
3, 495360, Note_on_c, 1, 77, 100
3, 495600, Note_on_c, 1, 77, 0
3, 495600, Note_on_c, 1, 82, 100
3, 495840, Note_on_c, 1, 82, 0
3, 495840, Note_on_c, 1, 81, 100
3, 496080, Note_on_c, 1, 81, 0
3, 496080, Note_on_c, 1, 79, 100
3, 496320, Note_on_c, 1, 79, 0
3, 496320, Note_on_c, 1, 81, 100
3, 496560, Note_on_c, 1, 81, 0
3, 496560, Note_on_c, 1, 77, 100
3, 496800, Note_on_c, 1, 77, 0
3, 496800, Note_on_c, 1, 83, 100
3, 497040, Note_on_c, 1, 83, 0
3, 497040, Note_on_c, 1, 77, 100
3, 497280, Note_on_c, 1, 77, 0
3, 497280, Note_on_c, 1, 76, 100
3, 497520, Note_on_c, 1, 76, 0
3, 497520, Note_on_c, 1, 79, 100
3, 497760, Note_on_c, 1, 79, 0
3, 497760, Note_on_c, 1, 81, 100
3, 498000, Note_on_c, 1, 81, 0
3, 498000, Note_on_c, 1, 83, 100
3, 498240, Note_on_c, 1, 83, 0
3, 498240, Note_on_c, 1, 84, 100
3, 498480, Note_on_c, 1, 84, 0
3, 498480, Note_on_c, 1, 81, 100
3, 498720, Note_on_c, 1, 81, 0
3, 498720, Note_on_c, 1, 84, 100
3, 498960, Note_on_c, 1, 84, 0
3, 498960, Note_on_c, 1, 79, 100
3, 499200, Note_on_c, 1, 79, 0
3, 499200, Note_on_c, 1, 77, 100
3, 499440, Note_on_c, 1, 77, 0
3, 499440, Note_on_c, 1, 81, 100
3, 499680, Note_on_c, 1, 81, 0
3, 499680, Note_on_c, 1, 83, 100
3, 499920, Note_on_c, 1, 83, 0
3, 499920, Note_on_c, 1, 84, 100
3, 500160, Note_on_c, 1, 84, 0
3, 500160, Note_on_c, 1, 86, 100
3, 500400, Note_on_c, 1, 86, 0
3, 500400, Note_on_c, 1, 83, 100
3, 500640, Note_on_c, 1, 83, 0
3, 500640, Note_on_c, 1, 86, 100
3, 500880, Note_on_c, 1, 86, 0
3, 500880, Note_on_c, 1, 81, 100
3, 501120, Note_on_c, 1, 81, 0
3, 501120, Note_on_c, 1, 79, 100
3, 501360, Note_on_c, 1, 79, 0
3, 501360, Note_on_c, 1, 83, 100
3, 501600, Note_on_c, 1, 83, 0
3, 501600, Note_on_c, 1, 84, 100
3, 501840, Note_on_c, 1, 84, 0
3, 501840, Note_on_c, 1, 86, 100
3, 502080, Note_on_c, 1, 86, 0
3, 502080, Note_on_c, 1, 88, 100
3, 502320, Note_on_c, 1, 88, 0
3, 502320, Note_on_c, 1, 84, 100
3, 502560, Note_on_c, 1, 84, 0
3, 502560, Note_on_c, 1, 88, 100
3, 502800, Note_on_c, 1, 88, 0
3, 502800, Note_on_c, 1, 82, 100
3, 503040, Note_on_c, 1, 82, 0
3, 503040, Note_on_c, 1, 81, 100
3, 503280, Note_on_c, 1, 81, 0
3, 503280, Note_on_c, 1, 84, 100
3, 503520, Note_on_c, 1, 84, 0
3, 503520, Note_on_c, 1, 86, 100
3, 503760, Note_on_c, 1, 86, 0
3, 503760, Note_on_c, 1, 88, 100
3, 504000, Note_on_c, 1, 88, 0
3, 504000, Note_on_c, 1, 89, 100
3, 504240, Note_on_c, 1, 89, 0
3, 504240, Note_on_c, 1, 86, 100
3, 504480, Note_on_c, 1, 86, 0
3, 504480, Note_on_c, 1, 89, 100
3, 504720, Note_on_c, 1, 89, 0
3, 504720, Note_on_c, 1, 84, 100
3, 504960, Note_on_c, 1, 84, 0
3, 504960, Note_on_c, 1, 83, 100
3, 505200, Note_on_c, 1, 83, 0
3, 505200, Note_on_c, 1, 86, 100
3, 505440, Note_on_c, 1, 86, 0
3, 505440, Note_on_c, 1, 88, 100
3, 505680, Note_on_c, 1, 88, 0
3, 505680, Note_on_c, 1, 89, 100
3, 505920, Note_on_c, 1, 89, 0
3, 505920, Note_on_c, 1, 91, 100
3, 506160, Note_on_c, 1, 91, 0
3, 506160, Note_on_c, 1, 88, 100
3, 506400, Note_on_c, 1, 88, 0
3, 506400, Note_on_c, 1, 91, 100
3, 506640, Note_on_c, 1, 91, 0
3, 506640, Note_on_c, 1, 86, 100
3, 506880, Note_on_c, 1, 86, 0
3, 506880, Note_on_c, 1, 84, 100
3, 507120, Note_on_c, 1, 84, 0
3, 507120, Note_on_c, 1, 81, 100
3, 507360, Note_on_c, 1, 81, 0
3, 507360, Note_on_c, 1, 89, 100
3, 507600, Note_on_c, 1, 89, 0
3, 507600, Note_on_c, 1, 86, 100
3, 507840, Note_on_c, 1, 86, 0
3, 507840, Note_on_c, 1, 83, 100
3, 508080, Note_on_c, 1, 83, 0
3, 508080, Note_on_c, 1, 79, 100
3, 508320, Note_on_c, 1, 79, 0
3, 508320, Note_on_c, 1, 88, 100
3, 508560, Note_on_c, 1, 88, 0
3, 508560, Note_on_c, 1, 84, 100
3, 508800, Note_on_c, 1, 84, 0
3, 508800, Note_on_c, 1, 81, 100
3, 509040, Note_on_c, 1, 81, 0
3, 509040, Note_on_c, 1, 77, 100
3, 509280, Note_on_c, 1, 77, 0
3, 509280, Note_on_c, 1, 86, 100
3, 509520, Note_on_c, 1, 86, 0
3, 509520, Note_on_c, 1, 83, 100
3, 509760, Note_on_c, 1, 83, 0
3, 509760, Note_on_c, 1, 79, 100
3, 510000, Note_on_c, 1, 79, 0
3, 510000, Note_on_c, 1, 76, 100
3, 510240, Note_on_c, 1, 76, 0
3, 510240, Note_on_c, 1, 84, 100
3, 510480, Note_on_c, 1, 84, 0
3, 510480, Note_on_c, 1, 81, 100
3, 510720, Note_on_c, 1, 81, 0
3, 510720, Note_on_c, 1, 77, 100
3, 510960, Note_on_c, 1, 77, 0
3, 510960, Note_on_c, 1, 86, 100
3, 511200, Note_on_c, 1, 86, 0
3, 511200, Note_on_c, 1, 84, 100
3, 511440, Note_on_c, 1, 84, 0
3, 511440, Note_on_c, 1, 83, 100
3, 511680, Note_on_c, 1, 83, 0
3, 511680, Note_on_c, 1, 81, 100
3, 511920, Note_on_c, 1, 81, 0
3, 511920, Note_on_c, 1, 77, 100
3, 512160, Note_on_c, 1, 77, 0
3, 512160, Note_on_c, 1, 83, 100
3, 512400, Note_on_c, 1, 83, 0
3, 512400, Note_on_c, 1, 77, 100
3, 512640, Note_on_c, 1, 77, 0
3, 512640, Note_on_c, 1, 76, 100
3, 512880, Note_on_c, 1, 76, 0
3, 512880, Note_on_c, 1, 84, 100
3, 513120, Note_on_c, 1, 84, 0
3, 513120, Note_on_c, 1, 83, 100
3, 513360, Note_on_c, 1, 83, 0
3, 513360, Note_on_c, 1, 81, 100
3, 513600, Note_on_c, 1, 81, 0
3, 513600, Note_on_c, 1, 79, 100
3, 513840, Note_on_c, 1, 79, 0
3, 513840, Note_on_c, 1, 75, 100
3, 514080, Note_on_c, 1, 75, 0
3, 514080, Note_on_c, 1, 81, 100
3, 514320, Note_on_c, 1, 81, 0
3, 514320, Note_on_c, 1, 75, 100
3, 514560, Note_on_c, 1, 75, 0
3, 514560, Note_on_c, 1, 74, 100
3, 514800, Note_on_c, 1, 74, 0
3, 514800, Note_on_c, 1, 82, 100
3, 515040, Note_on_c, 1, 82, 0
3, 515040, Note_on_c, 1, 81, 100
3, 515280, Note_on_c, 1, 81, 0
3, 515280, Note_on_c, 1, 79, 100
3, 515520, Note_on_c, 1, 79, 0
3, 515520, Note_on_c, 1, 78, 100
3, 515760, Note_on_c, 1, 78, 0
3, 515760, Note_on_c, 1, 74, 100
3, 516000, Note_on_c, 1, 74, 0
3, 516000, Note_on_c, 1, 79, 100
3, 516240, Note_on_c, 1, 79, 0
3, 516240, Note_on_c, 1, 74, 100
3, 516480, Note_on_c, 1, 74, 0
3, 516480, Note_on_c, 1, 72, 100
3, 516720, Note_on_c, 1, 72, 0
3, 516720, Note_on_c, 1, 81, 100
3, 516960, Note_on_c, 1, 81, 0
3, 516960, Note_on_c, 1, 79, 100
3, 517200, Note_on_c, 1, 79, 0
3, 517200, Note_on_c, 1, 77, 100
3, 517440, Note_on_c, 1, 77, 0
3, 517440, Note_on_c, 1, 76, 100
3, 517680, Note_on_c, 1, 76, 0
3, 517680, Note_on_c, 1, 72, 100
3, 517920, Note_on_c, 1, 72, 0
3, 517920, Note_on_c, 1, 78, 100
3, 518160, Note_on_c, 1, 78, 0
3, 518160, Note_on_c, 1, 72, 100
3, 518400, Note_on_c, 1, 72, 0
3, 518400, Note_on_c, 1, 71, 100
3, 518640, Note_on_c, 1, 71, 0
3, 518640, Note_on_c, 1, 79, 100
3, 518880, Note_on_c, 1, 79, 0
3, 518880, Note_on_c, 1, 78, 100
3, 519120, Note_on_c, 1, 78, 0
3, 519120, Note_on_c, 1, 76, 100
3, 519360, Note_on_c, 1, 76, 0
3, 519360, Note_on_c, 1, 74, 100
3, 519600, Note_on_c, 1, 74, 0
3, 519600, Note_on_c, 1, 72, 100
3, 519840, Note_on_c, 1, 72, 0
3, 519840, Note_on_c, 1, 71, 100
3, 520080, Note_on_c, 1, 71, 0
3, 520080, Note_on_c, 1, 69, 100
3, 520320, Note_on_c, 1, 69, 0
3, 520320, Note_on_c, 1, 71, 100
3, 520560, Note_on_c, 1, 71, 0
3, 520560, Note_on_c, 1, 67, 100
3, 520800, Note_on_c, 1, 67, 0
3, 520800, Note_on_c, 1, 74, 100
3, 521040, Note_on_c, 1, 74, 0
3, 521040, Note_on_c, 1, 66, 100
3, 521280, Note_on_c, 1, 66, 0
3, 521280, Note_on_c, 1, 67, 100
3, 521520, Note_on_c, 1, 67, 0
3, 521520, Note_on_c, 1, 62, 100
3, 521760, Note_on_c, 1, 62, 0
3, 521760, Note_on_c, 1, 71, 100
3, 522000, Note_on_c, 1, 71, 0
3, 522000, Note_on_c, 1, 67, 100
3, 522240, Note_on_c, 1, 67, 0
3, 522240, Note_on_c, 1, 74, 100
3, 522480, Note_on_c, 1, 74, 0
3, 522480, Note_on_c, 1, 71, 100
3, 522720, Note_on_c, 1, 71, 0
3, 522720, Note_on_c, 1, 79, 100
3, 522960, Note_on_c, 1, 79, 0
3, 522960, Note_on_c, 1, 74, 100
3, 523200, Note_on_c, 1, 74, 0
3, 523200, Note_on_c, 1, 71, 100
3, 523440, Note_on_c, 1, 71, 0
3, 523440, Note_on_c, 1, 67, 100
3, 523680, Note_on_c, 1, 67, 0
3, 523680, Note_on_c, 1, 62, 100
3, 523920, Note_on_c, 1, 62, 0
3, 523920, Note_on_c, 1, 59, 100
3, 524160, Note_on_c, 1, 59, 0
3, 524160, Note_on_c, 1, 55, 100
3, 524400, Note_on_c, 1, 55, 0
3, 525360, Note_on_c, 1, 55, 100
3, 525600, Note_on_c, 1, 55, 0
3, 525840, Note_on_c, 1, 55, 100
3, 526080, Note_on_c, 1, 55, 0
3, 526320, Note_on_c, 1, 55, 100
3, 526560, Note_on_c, 1, 55, 0
3, 527280, Note_on_c, 1, 55, 100
3, 527520, Note_on_c, 1, 55, 0
3, 527760, Note_on_c, 1, 55, 100
3, 528000, Note_on_c, 1, 55, 0
3, 528240, Note_on_c, 1, 55, 100
3, 528480, Note_on_c, 1, 55, 0
3, 528720, Note_on_c, 1, 55, 100
3, 528960, Note_on_c, 1, 55, 0
3, 529200, Note_on_c, 1, 55, 100
3, 529440, Note_on_c, 1, 55, 0
3, 530160, Note_on_c, 1, 55, 100
3, 530400, Note_on_c, 1, 55, 0
3, 530640, Note_on_c, 1, 55, 100
3, 530880, Note_on_c, 1, 55, 0
3, 531120, Note_on_c, 1, 55, 100
3, 531360, Note_on_c, 1, 55, 0
3, 532080, Note_on_c, 1, 55, 100
3, 532320, Note_on_c, 1, 55, 0
3, 532560, Note_on_c, 1, 55, 100
3, 532800, Note_on_c, 1, 55, 0
3, 533040, Note_on_c, 1, 55, 100
3, 533280, Note_on_c, 1, 55, 0
3, 533520, Note_on_c, 1, 55, 100
3, 533760, Note_on_c, 1, 55, 0
3, 534000, Note_on_c, 1, 55, 100
3, 534240, Note_on_c, 1, 55, 0
3, 534480, Note_on_c, 1, 55, 100
3, 534720, Note_on_c, 1, 55, 0
3, 534960, Note_on_c, 1, 55, 100
3, 535200, Note_on_c, 1, 55, 0
3, 535440, Note_on_c, 1, 55, 100
3, 535680, Note_on_c, 1, 55, 0
3, 535920, Note_on_c, 1, 55, 100
3, 536160, Note_on_c, 1, 55, 0
3, 536400, Note_on_c, 1, 55, 100
3, 536640, Note_on_c, 1, 55, 0
3, 536880, Note_on_c, 1, 55, 100
3, 537120, Note_on_c, 1, 55, 0
3, 537360, Note_on_c, 1, 55, 100
3, 537600, Note_on_c, 1, 55, 0
3, 537840, Note_on_c, 1, 55, 100
3, 538080, Note_on_c, 1, 55, 0
3, 538320, Note_on_c, 1, 55, 100
3, 538560, Note_on_c, 1, 55, 0
3, 538800, Note_on_c, 1, 55, 100
3, 539040, Note_on_c, 1, 55, 0
3, 539280, Note_on_c, 1, 55, 100
3, 539520, Note_on_c, 1, 55, 0
3, 539760, Note_on_c, 1, 55, 100
3, 540000, Note_on_c, 1, 55, 0
3, 540720, Note_on_c, 1, 55, 100
3, 540960, Note_on_c, 1, 55, 0
3, 541200, Note_on_c, 1, 55, 100
3, 541440, Note_on_c, 1, 55, 0
3, 541680, Note_on_c, 1, 55, 100
3, 541920, Note_on_c, 1, 55, 0
3, 542160, Note_on_c, 1, 55, 100
3, 542400, Note_on_c, 1, 55, 0
3, 542640, Note_on_c, 1, 55, 100
3, 542880, Note_on_c, 1, 55, 0
3, 543120, Note_on_c, 1, 55, 100
3, 543360, Note_on_c, 1, 55, 0
3, 543600, Note_on_c, 1, 55, 100
3, 543840, Note_on_c, 1, 55, 0
3, 544080, Note_on_c, 1, 55, 100
3, 544320, Note_on_c, 1, 55, 0
3, 544560, Note_on_c, 1, 55, 100
3, 544800, Note_on_c, 1, 55, 0
3, 545520, Note_on_c, 1, 55, 100
3, 545760, Note_on_c, 1, 55, 0
3, 546000, Note_on_c, 1, 55, 100
3, 546240, Note_on_c, 1, 55, 0
3, 546480, Note_on_c, 1, 55, 100
3, 546720, Note_on_c, 1, 55, 0
3, 547440, Note_on_c, 1, 55, 100
3, 547680, Note_on_c, 1, 55, 0
3, 547920, Note_on_c, 1, 55, 100
3, 548160, Note_on_c, 1, 55, 0
3, 548400, Note_on_c, 1, 55, 100
3, 548640, Note_on_c, 1, 55, 0
3, 549360, Note_on_c, 1, 55, 100
3, 549600, Note_on_c, 1, 55, 0
3, 549840, Note_on_c, 1, 55, 100
3, 550080, Note_on_c, 1, 55, 0
3, 550320, Note_on_c, 1, 55, 100
3, 550560, Note_on_c, 1, 55, 0
3, 551280, Note_on_c, 1, 55, 100
3, 551520, Note_on_c, 1, 55, 0
3, 551760, Note_on_c, 1, 55, 100
3, 552000, Note_on_c, 1, 55, 0
3, 552240, Note_on_c, 1, 55, 100
3, 552480, Note_on_c, 1, 55, 0
3, 552720, Note_on_c, 1, 55, 100
3, 552960, Note_on_c, 1, 55, 0
3, 552960, Note_on_c, 1, 55, 100
3, 553920, Note_on_c, 1, 55, 0
3, 555840, Note_on_c, 1, 60, 100
3, 556800, Note_on_c, 1, 60, 0
3, 556800, Note_on_c, 1, 59, 100
3, 557760, Note_on_c, 1, 59, 0
3, 557760, Note_on_c, 1, 58, 100
3, 558720, Note_on_c, 1, 58, 0
3, 558720, Note_on_c, 1, 57, 100
3, 559200, Note_on_c, 1, 57, 0
3, 559200, Note_on_c, 1, 55, 100
3, 559680, Note_on_c, 1, 55, 0
3, 559680, Note_on_c, 1, 57, 100
3, 560160, Note_on_c, 1, 57, 0
3, 560160, Note_on_c, 1, 59, 100
3, 560640, Note_on_c, 1, 59, 0
3, 560640, Note_on_c, 1, 60, 100
3, 561120, Note_on_c, 1, 60, 0
3, 561120, Note_on_c, 1, 59, 100
3, 561600, Note_on_c, 1, 59, 0
3, 561600, Note_on_c, 1, 57, 100
3, 562560, Note_on_c, 1, 57, 0
3, 562560, Note_on_c, 1, 55, 100
3, 563520, Note_on_c, 1, 55, 0
3, 563520, Note_on_c, 1, 55, 100
3, 564000, Note_on_c, 1, 55, 0
3, 564000, Note_on_c, 1, 57, 100
3, 564480, Note_on_c, 1, 57, 0
3, 564480, Note_on_c, 1, 59, 100
3, 564960, Note_on_c, 1, 59, 0
3, 564960, Note_on_c, 1, 60, 100
3, 565440, Note_on_c, 1, 60, 0
3, 565440, Note_on_c, 1, 62, 100
3, 566400, Note_on_c, 1, 62, 0
3, 566400, Note_on_c, 1, 57, 100
3, 567360, Note_on_c, 1, 57, 0
3, 567360, Note_on_c, 1, 57, 100
3, 568320, Note_on_c, 1, 57, 0
3, 568320, Note_on_c, 1, 55, 100
3, 569280, Note_on_c, 1, 55, 0
3, 574080, Note_on_c, 1, 57, 100
3, 575040, Note_on_c, 1, 57, 0
3, 575040, Note_on_c, 1, 57, 100
3, 576000, Note_on_c, 1, 57, 0
3, 576000, Note_on_c, 1, 55, 100
3, 576960, Note_on_c, 1, 55, 0
3, 576960, Note_on_c, 1, 55, 100
3, 577920, Note_on_c, 1, 55, 0
3, 579840, Note_on_c, 1, 57, 100
3, 580800, Note_on_c, 1, 57, 0
3, 582720, Note_on_c, 1, 64, 100
3, 583680, Note_on_c, 1, 64, 0
3, 600000, Note_on_c, 1, 67, 100
3, 600960, Note_on_c, 1, 67, 0
3, 600960, Note_on_c, 1, 66, 100
3, 601920, Note_on_c, 1, 66, 0
3, 601920, Note_on_c, 1, 65, 100
3, 602880, Note_on_c, 1, 65, 0
3, 602880, Note_on_c, 1, 64, 100
3, 603840, Note_on_c, 1, 64, 0
3, 603840, Note_on_c, 1, 63, 100
3, 604800, Note_on_c, 1, 63, 0
3, 604800, Note_on_c, 1, 62, 100
3, 605760, Note_on_c, 1, 62, 0
3, 605760, Note_on_c, 1, 64, 100
3, 606720, Note_on_c, 1, 64, 0
3, 606720, Note_on_c, 1, 65, 100
3, 607200, Note_on_c, 1, 65, 0
3, 607200, Note_on_c, 1, 64, 100
3, 607680, Note_on_c, 1, 64, 0
3, 607680, Note_on_c, 1, 65, 100
3, 608160, Note_on_c, 1, 65, 0
3, 608160, Note_on_c, 1, 67, 100
3, 608400, Note_on_c, 1, 67, 0
3, 608400, Note_on_c, 1, 65, 100
3, 608640, Note_on_c, 1, 65, 0
3, 608640, Note_on_c, 1, 64, 100
3, 609600, Note_on_c, 1, 64, 0
3, 609600, Note_on_c, 1, 66, 100
3, 610560, Note_on_c, 1, 66, 0
3, 610560, Note_on_c, 1, 67, 100
3, 611520, Note_on_c, 1, 67, 0
3, 611520, Note_on_c, 1, 67, 100
3, 612480, Note_on_c, 1, 67, 0
3, 612480, Note_on_c, 1, 69, 100
3, 612960, Note_on_c, 1, 69, 0
3, 612960, Note_on_c, 1, 67, 100
3, 613200, Note_on_c, 1, 67, 0
3, 613200, Note_on_c, 1, 65, 100
3, 613440, Note_on_c, 1, 65, 0
3, 613440, Note_on_c, 1, 64, 100
3, 613920, Note_on_c, 1, 64, 0
3, 613920, Note_on_c, 1, 66, 100
3, 614400, Note_on_c, 1, 66, 0
3, 614400, Note_on_c, 1, 67, 100
3, 615360, Note_on_c, 1, 67, 0
3, 616320, Note_on_c, 1, 65, 100
3, 616800, Note_on_c, 1, 65, 0
3, 616800, Note_on_c, 1, 64, 100
3, 617280, Note_on_c, 1, 64, 0
3, 617280, Note_on_c, 1, 65, 100
3, 617760, Note_on_c, 1, 65, 0
3, 617760, Note_on_c, 1, 67, 100
3, 618000, Note_on_c, 1, 67, 0
3, 618000, Note_on_c, 1, 65, 100
3, 618240, Note_on_c, 1, 65, 0
3, 618240, Note_on_c, 1, 64, 100
3, 618720, Note_on_c, 1, 64, 0
3, 618720, Note_on_c, 1, 72, 100
3, 618960, Note_on_c, 1, 72, 0
3, 618960, Note_on_c, 1, 71, 100
3, 619200, Note_on_c, 1, 71, 0
3, 619200, Note_on_c, 1, 69, 100
3, 619680, Note_on_c, 1, 69, 0
3, 619680, Note_on_c, 1, 67, 100
3, 620160, Note_on_c, 1, 67, 0
3, 620160, Note_on_c, 1, 66, 100
3, 620640, Note_on_c, 1, 66, 0
3, 620640, Note_on_c, 1, 74, 100
3, 620880, Note_on_c, 1, 74, 0
3, 620880, Note_on_c, 1, 72, 100
3, 621120, Note_on_c, 1, 72, 0
3, 621120, Note_on_c, 1, 74, 100
3, 621600, Note_on_c, 1, 74, 0
3, 621600, Note_on_c, 1, 66, 100
3, 622080, Note_on_c, 1, 66, 0
3, 622080, Note_on_c, 1, 67, 100
3, 622560, Note_on_c, 1, 67, 0
3, 622560, Note_on_c, 1, 70, 100
3, 622800, Note_on_c, 1, 70, 0
3, 622800, Note_on_c, 1, 69, 100
3, 623040, Note_on_c, 1, 69, 0
3, 623040, Note_on_c, 1, 67, 100
3, 623520, Note_on_c, 1, 67, 0
3, 623520, Note_on_c, 1, 65, 100
3, 624000, Note_on_c, 1, 65, 0
3, 624000, Note_on_c, 1, 64, 100
3, 624480, Note_on_c, 1, 64, 0
3, 624480, Note_on_c, 1, 72, 100
3, 624720, Note_on_c, 1, 72, 0
3, 624720, Note_on_c, 1, 70, 100
3, 624960, Note_on_c, 1, 70, 0
3, 624960, Note_on_c, 1, 72, 100
3, 625440, Note_on_c, 1, 72, 0
3, 625440, Note_on_c, 1, 64, 100
3, 625920, Note_on_c, 1, 64, 0
3, 625920, Note_on_c, 1, 65, 100
3, 626400, Note_on_c, 1, 65, 0
3, 626400, Note_on_c, 1, 69, 100
3, 626640, Note_on_c, 1, 69, 0
3, 626640, Note_on_c, 1, 67, 100
3, 626880, Note_on_c, 1, 67, 0
3, 626880, Note_on_c, 1, 65, 100
3, 627120, Note_on_c, 1, 65, 0
3, 627120, Note_on_c, 1, 67, 100
3, 627360, Note_on_c, 1, 67, 0
3, 627360, Note_on_c, 1, 64, 100
3, 627600, Note_on_c, 1, 64, 0
3, 627600, Note_on_c, 1, 65, 100
3, 627840, Note_on_c, 1, 65, 0
3, 627840, Note_on_c, 1, 62, 100
3, 628080, Note_on_c, 1, 62, 0
3, 628080, Note_on_c, 1, 69, 100
3, 628320, Note_on_c, 1, 69, 0
3, 628320, Note_on_c, 1, 74, 100
3, 628560, Note_on_c, 1, 74, 0
3, 628560, Note_on_c, 1, 72, 100
3, 628800, Note_on_c, 1, 72, 0
3, 628800, Note_on_c, 1, 71, 100
3, 629040, Note_on_c, 1, 71, 0
3, 629040, Note_on_c, 1, 69, 100
3, 629280, Note_on_c, 1, 69, 0
3, 629280, Note_on_c, 1, 67, 100
3, 629520, Note_on_c, 1, 67, 0
3, 629520, Note_on_c, 1, 65, 100
3, 629760, Note_on_c, 1, 65, 0
3, 629760, Note_on_c, 1, 64, 100
3, 630240, Note_on_c, 1, 64, 0
3, 630240, Note_on_c, 1, 72, 100
3, 630480, Note_on_c, 1, 72, 0
3, 630480, Note_on_c, 1, 71, 100
3, 630720, Note_on_c, 1, 71, 0
3, 630720, Note_on_c, 1, 69, 100
3, 630960, Note_on_c, 1, 69, 0
3, 630960, Note_on_c, 1, 72, 100
3, 631200, Note_on_c, 1, 72, 0
3, 631200, Note_on_c, 1, 76, 100
3, 631440, Note_on_c, 1, 76, 0
3, 631440, Note_on_c, 1, 67, 100
3, 631680, Note_on_c, 1, 67, 0
3, 631680, Note_on_c, 1, 65, 100
3, 631920, Note_on_c, 1, 65, 0
3, 631920, Note_on_c, 1, 69, 100
3, 632160, Note_on_c, 1, 69, 0
3, 632160, Note_on_c, 1, 77, 100
3, 632400, Note_on_c, 1, 77, 0
3, 632400, Note_on_c, 1, 76, 100
3, 632640, Note_on_c, 1, 76, 0
3, 632640, Note_on_c, 1, 74, 100
3, 632880, Note_on_c, 1, 74, 0
3, 632880, Note_on_c, 1, 72, 100
3, 633120, Note_on_c, 1, 72, 0
3, 633120, Note_on_c, 1, 71, 100
3, 633360, Note_on_c, 1, 71, 0
3, 633360, Note_on_c, 1, 69, 100
3, 633600, Note_on_c, 1, 69, 0
3, 633600, Note_on_c, 1, 67, 100
3, 633840, Note_on_c, 1, 67, 0
3, 633840, Note_on_c, 1, 69, 100
3, 633960, Note_on_c, 1, 69, 0
3, 633960, Note_on_c, 1, 71, 100
3, 634080, Note_on_c, 1, 71, 0
3, 634080, Note_on_c, 1, 72, 100
3, 634320, Note_on_c, 1, 72, 0
3, 634320, Note_on_c, 1, 74, 100
3, 634560, Note_on_c, 1, 74, 0
3, 634560, Note_on_c, 1, 76, 100
3, 634800, Note_on_c, 1, 76, 0
3, 634800, Note_on_c, 1, 77, 100
3, 635040, Note_on_c, 1, 77, 0
3, 635040, Note_on_c, 1, 79, 100
3, 635280, Note_on_c, 1, 79, 0
3, 635280, Note_on_c, 1, 70, 100
3, 635520, Note_on_c, 1, 70, 0
3, 635520, Note_on_c, 1, 69, 100
3, 635760, Note_on_c, 1, 69, 0
3, 635760, Note_on_c, 1, 76, 100
3, 636000, Note_on_c, 1, 76, 0
3, 636000, Note_on_c, 1, 81, 100
3, 636240, Note_on_c, 1, 81, 0
3, 636240, Note_on_c, 1, 79, 100
3, 636480, Note_on_c, 1, 79, 0
3, 636480, Note_on_c, 1, 77, 100
3, 636720, Note_on_c, 1, 77, 0
3, 636720, Note_on_c, 1, 79, 100
3, 636840, Note_on_c, 1, 79, 0
3, 636840, Note_on_c, 1, 81, 100
3, 636960, Note_on_c, 1, 81, 0
3, 636960, Note_on_c, 1, 74, 100
3, 637200, Note_on_c, 1, 74, 0
3, 637200, Note_on_c, 1, 76, 100
3, 637320, Note_on_c, 1, 76, 0
3, 637320, Note_on_c, 1, 77, 100
3, 637440, Note_on_c, 1, 77, 0
3, 637440, Note_on_c, 1, 71, 100
3, 637680, Note_on_c, 1, 71, 0
3, 637680, Note_on_c, 1, 74, 100
3, 637920, Note_on_c, 1, 74, 0
3, 637920, Note_on_c, 1, 76, 100
3, 638160, Note_on_c, 1, 76, 0
3, 638160, Note_on_c, 1, 77, 100
3, 638400, Note_on_c, 1, 77, 0
3, 638400, Note_on_c, 1, 79, 100
3, 639360, Note_on_c, 1, 79, 0
3, 640320, Note_on_c, 1, 69, 100
3, 640800, Note_on_c, 1, 69, 0
3, 641280, Note_on_c, 1, 67, 100
3, 641520, Note_on_c, 1, 67, 0
3, 641520, Note_on_c, 1, 79, 100
3, 641760, Note_on_c, 1, 79, 0
3, 641760, Note_on_c, 1, 77, 100
3, 642000, Note_on_c, 1, 77, 0
3, 642000, Note_on_c, 1, 76, 100
3, 642240, Note_on_c, 1, 76, 0
3, 642240, Note_on_c, 1, 74, 100
3, 642720, Note_on_c, 1, 74, 0
3, 643200, Note_on_c, 1, 72, 100
3, 643680, Note_on_c, 1, 72, 0
3, 645120, Note_on_c, 1, 72, 100
3, 645600, Note_on_c, 1, 72, 0
3, 653280, Note_on_c, 1, 60, 100
3, 653520, Note_on_c, 1, 60, 0
3, 653520, Note_on_c, 1, 62, 100
3, 653760, Note_on_c, 1, 62, 0
3, 653760, Note_on_c, 1, 64, 100
3, 654000, Note_on_c, 1, 64, 0
3, 654000, Note_on_c, 1, 67, 100
3, 654240, Note_on_c, 1, 67, 0
3, 654240, Note_on_c, 1, 65, 100
3, 654480, Note_on_c, 1, 65, 0
3, 654480, Note_on_c, 1, 69, 100
3, 654720, Note_on_c, 1, 69, 0
3, 654720, Note_on_c, 1, 67, 100
3, 655200, Note_on_c, 1, 67, 0
3, 655200, Note_on_c, 1, 58, 100
3, 655440, Note_on_c, 1, 58, 0
3, 655440, Note_on_c, 1, 57, 100
3, 655680, Note_on_c, 1, 57, 0
3, 655680, Note_on_c, 1, 58, 100
3, 656160, Note_on_c, 1, 58, 0
3, 656160, Note_on_c, 1, 67, 100
3, 656640, Note_on_c, 1, 67, 0
3, 656640, Note_on_c, 1, 69, 100
3, 657120, Note_on_c, 1, 69, 0
3, 660960, Note_on_c, 1, 59, 100
3, 661440, Note_on_c, 1, 59, 0
3, 661440, Note_on_c, 1, 64, 100
3, 661920, Note_on_c, 1, 64, 0
3, 661920, Note_on_c, 1, 62, 100
3, 662400, Note_on_c, 1, 62, 0
3, 662400, Note_on_c, 1, 61, 100
3, 662880, Note_on_c, 1, 61, 0
3, 662880, Note_on_c, 1, 57, 100
3, 663360, Note_on_c, 1, 57, 0
3, 663360, Note_on_c, 1, 62, 100
3, 663840, Note_on_c, 1, 62, 0
3, 663840, Note_on_c, 1, 60, 100
3, 664320, Note_on_c, 1, 60, 0
3, 664320, Note_on_c, 1, 59, 100
3, 664800, Note_on_c, 1, 59, 0
3, 664800, Note_on_c, 1, 55, 100
3, 665280, Note_on_c, 1, 55, 0
3, 665280, Note_on_c, 1, 60, 100
3, 665760, Note_on_c, 1, 60, 0
3, 665760, Note_on_c, 1, 58, 100
3, 666240, Note_on_c, 1, 58, 0
3, 666240, Note_on_c, 1, 57, 100
3, 666720, Note_on_c, 1, 57, 0
3, 668160, Note_on_c, 1, 55, 100
3, 668400, Note_on_c, 1, 55, 0
3, 672000, Note_on_c, 1, 56, 100
3, 672240, Note_on_c, 1, 56, 0
3, 679680, Note_on_c, 1, 60, 100
3, 680640, Note_on_c, 1, 60, 0
3, 680640, End_track
4, 0, Start_track
4, 0, MIDI_port, 0
4, 0, Title_t, "Johann Sebastian Bach  (1685-1750)"
4, 0, Program_c, 2, 40
4, 0, Control_c, 2, 7, 100
4, 0, Control_c, 2, 10, 79
4, 20160, Note_on_c, 2, 79, 100
4, 21120, Note_on_c, 2, 79, 0
4, 21120, Note_on_c, 2, 81, 100
4, 21600, Note_on_c, 2, 81, 0
4, 21600, Note_on_c, 2, 79, 100
4, 21840, Note_on_c, 2, 79, 0
4, 21840, Note_on_c, 2, 77, 100
4, 22080, Note_on_c, 2, 77, 0
4, 22080, Note_on_c, 2, 76, 100
4, 22560, Note_on_c, 2, 76, 0
4, 22560, Note_on_c, 2, 78, 100
4, 23040, Note_on_c, 2, 78, 0
4, 23040, Note_on_c, 2, 79, 100
4, 24000, Note_on_c, 2, 79, 0
4, 24000, Note_on_c, 2, 74, 100
4, 24480, Note_on_c, 2, 74, 0
4, 24480, Note_on_c, 2, 76, 100
4, 24960, Note_on_c, 2, 76, 0
4, 24960, Note_on_c, 2, 77, 100
4, 25440, Note_on_c, 2, 77, 0
4, 25440, Note_on_c, 2, 76, 100
4, 25920, Note_on_c, 2, 76, 0
4, 25920, Note_on_c, 2, 77, 100
4, 26400, Note_on_c, 2, 77, 0
4, 26400, Note_on_c, 2, 79, 100
4, 26640, Note_on_c, 2, 79, 0
4, 26640, Note_on_c, 2, 77, 100
4, 26880, Note_on_c, 2, 77, 0
4, 26880, Note_on_c, 2, 76, 100
4, 27360, Note_on_c, 2, 76, 0
4, 27360, Note_on_c, 2, 74, 100
4, 27840, Note_on_c, 2, 74, 0
4, 27840, Note_on_c, 2, 76, 100
4, 28320, Note_on_c, 2, 76, 0
4, 28320, Note_on_c, 2, 77, 100
4, 28800, Note_on_c, 2, 77, 0
4, 28800, Note_on_c, 2, 79, 100
4, 29280, Note_on_c, 2, 79, 0
4, 29280, Note_on_c, 2, 77, 100
4, 29760, Note_on_c, 2, 77, 0
4, 29760, Note_on_c, 2, 79, 100
4, 30240, Note_on_c, 2, 79, 0
4, 30240, Note_on_c, 2, 81, 100
4, 30480, Note_on_c, 2, 81, 0
4, 30480, Note_on_c, 2, 79, 100
4, 30720, Note_on_c, 2, 79, 0
4, 30720, Note_on_c, 2, 77, 100
4, 31200, Note_on_c, 2, 77, 0
4, 31200, Note_on_c, 2, 79, 100
4, 31680, Note_on_c, 2, 79, 0
4, 31680, Note_on_c, 2, 81, 100
4, 32640, Note_on_c, 2, 81, 0
4, 32640, Note_on_c, 2, 80, 100
4, 33600, Note_on_c, 2, 80, 0
4, 33600, Note_on_c, 2, 79, 100
4, 34560, Note_on_c, 2, 79, 0
4, 34560, Note_on_c, 2, 78, 100
4, 35520, Note_on_c, 2, 78, 0
4, 35520, Note_on_c, 2, 77, 100
4, 36480, Note_on_c, 2, 77, 0
4, 36480, Note_on_c, 2, 76, 100
4, 37440, Note_on_c, 2, 76, 0
4, 37440, Note_on_c, 2, 78, 100
4, 38400, Note_on_c, 2, 78, 0
4, 38880, Note_on_c, 2, 79, 100
4, 39120, Note_on_c, 2, 79, 0
4, 39120, Note_on_c, 2, 77, 100
4, 39360, Note_on_c, 2, 77, 0
4, 39360, Note_on_c, 2, 76, 100
4, 39840, Note_on_c, 2, 76, 0
4, 39840, Note_on_c, 2, 74, 100
4, 40320, Note_on_c, 2, 74, 0
4, 40320, Note_on_c, 2, 73, 100
4, 40800, Note_on_c, 2, 73, 0
4, 40800, Note_on_c, 2, 81, 100
4, 41040, Note_on_c, 2, 81, 0
4, 41040, Note_on_c, 2, 79, 100
4, 41280, Note_on_c, 2, 79, 0
4, 41280, Note_on_c, 2, 81, 100
4, 41760, Note_on_c, 2, 81, 0
4, 41760, Note_on_c, 2, 73, 100
4, 42240, Note_on_c, 2, 73, 0
4, 42240, Note_on_c, 2, 74, 100
4, 42720, Note_on_c, 2, 74, 0
4, 42720, Note_on_c, 2, 77, 100
4, 42960, Note_on_c, 2, 77, 0
4, 42960, Note_on_c, 2, 76, 100
4, 43200, Note_on_c, 2, 76, 0
4, 43200, Note_on_c, 2, 74, 100
4, 43680, Note_on_c, 2, 74, 0
4, 43680, Note_on_c, 2, 72, 100
4, 44160, Note_on_c, 2, 72, 0
4, 44160, Note_on_c, 2, 71, 100
4, 44640, Note_on_c, 2, 71, 0
4, 44640, Note_on_c, 2, 79, 100
4, 44880, Note_on_c, 2, 79, 0
4, 44880, Note_on_c, 2, 77, 100
4, 45120, Note_on_c, 2, 77, 0
4, 45120, Note_on_c, 2, 79, 100
4, 45600, Note_on_c, 2, 79, 0
4, 45600, Note_on_c, 2, 71, 100
4, 46080, Note_on_c, 2, 71, 0
4, 46080, Note_on_c, 2, 72, 100
4, 46560, Note_on_c, 2, 72, 0
4, 46560, Note_on_c, 2, 74, 100
4, 47040, Note_on_c, 2, 74, 0
4, 47040, Note_on_c, 2, 76, 100
4, 48000, Note_on_c, 2, 76, 0
4, 48000, Note_on_c, 2, 69, 100
4, 48960, Note_on_c, 2, 69, 0
4, 48960, Note_on_c, 2, 74, 100
4, 49920, Note_on_c, 2, 74, 0
4, 50160, Note_on_c, 2, 67, 100
4, 50400, Note_on_c, 2, 67, 0
4, 50400, Note_on_c, 2, 69, 100
4, 50640, Note_on_c, 2, 69, 0
4, 50640, Note_on_c, 2, 71, 100
4, 50880, Note_on_c, 2, 71, 0
4, 50880, Note_on_c, 2, 72, 100
4, 51840, Note_on_c, 2, 72, 0
4, 58560, Note_on_c, 2, 74, 100
4, 59520, Note_on_c, 2, 74, 0
4, 59520, Note_on_c, 2, 73, 100
4, 60480, Note_on_c, 2, 73, 0
4, 60480, Note_on_c, 2, 72, 100
4, 61440, Note_on_c, 2, 72, 0
4, 61440, Note_on_c, 2, 71, 100
4, 62400, Note_on_c, 2, 71, 0
4, 62400, Note_on_c, 2, 70, 100
4, 63360, Note_on_c, 2, 70, 0
4, 63360, Note_on_c, 2, 69, 100
4, 64320, Note_on_c, 2, 69, 0
4, 64320, Note_on_c, 2, 71, 100
4, 65280, Note_on_c, 2, 71, 0
4, 85440, Note_on_c, 2, 72, 100
4, 85920, Note_on_c, 2, 72, 0
4, 85920, Note_on_c, 2, 70, 100
4, 86400, Note_on_c, 2, 70, 0
4, 86400, Note_on_c, 2, 69, 100
4, 86640, Note_on_c, 2, 69, 0
4, 86640, Note_on_c, 2, 81, 100
4, 86880, Note_on_c, 2, 81, 0
4, 86880, Note_on_c, 2, 79, 100
4, 87120, Note_on_c, 2, 79, 0
4, 87120, Note_on_c, 2, 77, 100
4, 87360, Note_on_c, 2, 77, 0
4, 87360, Note_on_c, 2, 76, 100
4, 87840, Note_on_c, 2, 76, 0
4, 87840, Note_on_c, 2, 78, 100
4, 88320, Note_on_c, 2, 78, 0
4, 88320, Note_on_c, 2, 74, 100
4, 88560, Note_on_c, 2, 74, 0
4, 89280, Note_on_c, 2, 67, 100
4, 89760, Note_on_c, 2, 67, 0
4, 90240, Note_on_c, 2, 65, 100
4, 90720, Note_on_c, 2, 65, 0
4, 92160, Note_on_c, 2, 67, 100
4, 92640, Note_on_c, 2, 67, 0
4, 92640, Note_on_c, 2, 67, 100
4, 92880, Note_on_c, 2, 67, 0
4, 92880, Note_on_c, 2, 65, 100
4, 93120, Note_on_c, 2, 65, 0
4, 93120, Note_on_c, 2, 67, 100
4, 93600, Note_on_c, 2, 67, 0
4, 93600, Note_on_c, 2, 69, 100
4, 93840, Note_on_c, 2, 69, 0
4, 93840, Note_on_c, 2, 67, 100
4, 94080, Note_on_c, 2, 67, 0
4, 94080, Note_on_c, 2, 65, 100
4, 94560, Note_on_c, 2, 65, 0
4, 94560, Note_on_c, 2, 65, 100
4, 94800, Note_on_c, 2, 65, 0
4, 94800, Note_on_c, 2, 64, 100
4, 95040, Note_on_c, 2, 64, 0
4, 95040, Note_on_c, 2, 65, 100
4, 95520, Note_on_c, 2, 65, 0
4, 95520, Note_on_c, 2, 67, 100
4, 95760, Note_on_c, 2, 67, 0
4, 95760, Note_on_c, 2, 65, 100
4, 96000, Note_on_c, 2, 65, 0
4, 96000, Note_on_c, 2, 64, 100
4, 96480, Note_on_c, 2, 64, 0
4, 97920, Note_on_c, 2, 62, 100
4, 98400, Note_on_c, 2, 62, 0
4, 98880, Note_on_c, 2, 67, 100
4, 99360, Note_on_c, 2, 67, 0
4, 103680, Note_on_c, 2, 57, 100
4, 104160, Note_on_c, 2, 57, 0
4, 104160, Note_on_c, 2, 62, 100
4, 104400, Note_on_c, 2, 62, 0
4, 104400, Note_on_c, 2, 64, 100
4, 104640, Note_on_c, 2, 64, 0
4, 104640, Note_on_c, 2, 65, 100
4, 104880, Note_on_c, 2, 65, 0
4, 104880, Note_on_c, 2, 67, 100
4, 105120, Note_on_c, 2, 67, 0
4, 105120, Note_on_c, 2, 65, 100
4, 105360, Note_on_c, 2, 65, 0
4, 105360, Note_on_c, 2, 67, 100
4, 105600, Note_on_c, 2, 67, 0
4, 105600, Note_on_c, 2, 69, 100
4, 106080, Note_on_c, 2, 69, 0
4, 106080, Note_on_c, 2, 60, 100
4, 106320, Note_on_c, 2, 60, 0
4, 106320, Note_on_c, 2, 59, 100
4, 106560, Note_on_c, 2, 59, 0
4, 106560, Note_on_c, 2, 60, 100
4, 107040, Note_on_c, 2, 60, 0
4, 107040, Note_on_c, 2, 69, 100
4, 107520, Note_on_c, 2, 69, 0
4, 107520, Note_on_c, 2, 71, 100
4, 108000, Note_on_c, 2, 71, 0
4, 108480, Note_on_c, 2, 71, 100
4, 109440, Note_on_c, 2, 71, 0
4, 109440, Note_on_c, 2, 69, 100
4, 110400, Note_on_c, 2, 69, 0
4, 110400, Note_on_c, 2, 69, 100
4, 111360, Note_on_c, 2, 69, 0
4, 111360, Note_on_c, 2, 67, 100
4, 112320, Note_on_c, 2, 67, 0
4, 112320, Note_on_c, 2, 67, 100
4, 113280, Note_on_c, 2, 67, 0
4, 113280, Note_on_c, 2, 65, 100
4, 113760, Note_on_c, 2, 65, 0
4, 115200, Note_on_c, 2, 65, 100
4, 115440, Note_on_c, 2, 65, 0
4, 119040, Note_on_c, 2, 63, 100
4, 119280, Note_on_c, 2, 63, 0
4, 126240, Note_on_c, 2, 65, 100
4, 126720, Note_on_c, 2, 65, 0
4, 126720, Note_on_c, 2, 64, 100
4, 126960, Note_on_c, 2, 64, 0
4, 179520, Note_on_c, 2, 69, 100
4, 180480, Note_on_c, 2, 69, 0
4, 180480, Note_on_c, 2, 72, 100
4, 180960, Note_on_c, 2, 72, 0
4, 180960, Note_on_c, 2, 71, 100
4, 181200, Note_on_c, 2, 71, 0
4, 181200, Note_on_c, 2, 69, 100
4, 181440, Note_on_c, 2, 69, 0
4, 181440, Note_on_c, 2, 68, 100
4, 181920, Note_on_c, 2, 68, 0
4, 181920, Note_on_c, 2, 69, 100
4, 182400, Note_on_c, 2, 69, 0
4, 182400, Note_on_c, 2, 71, 100
4, 183360, Note_on_c, 2, 71, 0
4, 183360, Note_on_c, 2, 66, 100
4, 183840, Note_on_c, 2, 66, 0
4, 183840, Note_on_c, 2, 68, 100
4, 184320, Note_on_c, 2, 68, 0
4, 184320, Note_on_c, 2, 69, 100
4, 184800, Note_on_c, 2, 69, 0
4, 184800, Note_on_c, 2, 67, 100
4, 185280, Note_on_c, 2, 67, 0
4, 185280, Note_on_c, 2, 69, 100
4, 185760, Note_on_c, 2, 69, 0
4, 185760, Note_on_c, 2, 70, 100
4, 186000, Note_on_c, 2, 70, 0
4, 186000, Note_on_c, 2, 69, 100
4, 186240, Note_on_c, 2, 69, 0
4, 186240, Note_on_c, 2, 67, 100
4, 186720, Note_on_c, 2, 67, 0
4, 188160, Note_on_c, 2, 67, 100
4, 189120, Note_on_c, 2, 67, 0
4, 189120, Note_on_c, 2, 65, 100
4, 189600, Note_on_c, 2, 65, 0
4, 189600, Note_on_c, 2, 64, 100
4, 189840, Note_on_c, 2, 64, 0
4, 189840, Note_on_c, 2, 62, 100
4, 190080, Note_on_c, 2, 62, 0
4, 190080, Note_on_c, 2, 67, 100
4, 190560, Note_on_c, 2, 67, 0
4, 190560, Note_on_c, 2, 69, 100
4, 191040, Note_on_c, 2, 69, 0
4, 191040, Note_on_c, 2, 70, 100
4, 192000, Note_on_c, 2, 70, 0
4, 192000, Note_on_c, 2, 69, 100
4, 192960, Note_on_c, 2, 69, 0
4, 192960, Note_on_c, 2, 69, 100
4, 193440, Note_on_c, 2, 69, 0
4, 193440, Note_on_c, 2, 69, 100
4, 193920, Note_on_c, 2, 69, 0
4, 193920, Note_on_c, 2, 73, 100
4, 194400, Note_on_c, 2, 73, 0
4, 194400, Note_on_c, 2, 74, 100
4, 194640, Note_on_c, 2, 74, 0
4, 194640, Note_on_c, 2, 73, 100
4, 194880, Note_on_c, 2, 73, 0
4, 194880, Note_on_c, 2, 71, 100
4, 195360, Note_on_c, 2, 71, 0
4, 195360, Note_on_c, 2, 73, 100
4, 195840, Note_on_c, 2, 73, 0
4, 195840, Note_on_c, 2, 74, 100
4, 196320, Note_on_c, 2, 74, 0
4, 196320, Note_on_c, 2, 72, 100
4, 196800, Note_on_c, 2, 72, 0
4, 196800, Note_on_c, 2, 74, 100
4, 197280, Note_on_c, 2, 74, 0
4, 197280, Note_on_c, 2, 75, 100
4, 197520, Note_on_c, 2, 75, 0
4, 197520, Note_on_c, 2, 74, 100
4, 197760, Note_on_c, 2, 74, 0
4, 197760, Note_on_c, 2, 73, 100
4, 198720, Note_on_c, 2, 73, 0
4, 198720, Note_on_c, 2, 72, 100
4, 199680, Note_on_c, 2, 72, 0
4, 199680, Note_on_c, 2, 72, 100
4, 200160, Note_on_c, 2, 72, 0
4, 200160, Note_on_c, 2, 70, 100
4, 200400, Note_on_c, 2, 70, 0
4, 200400, Note_on_c, 2, 69, 100
4, 200640, Note_on_c, 2, 69, 0
4, 200640, Note_on_c, 2, 70, 100
4, 200880, Note_on_c, 2, 70, 0
4, 200880, Note_on_c, 2, 74, 100
4, 201120, Note_on_c, 2, 74, 0
4, 201120, Note_on_c, 2, 72, 100
4, 201360, Note_on_c, 2, 72, 0
4, 201360, Note_on_c, 2, 70, 100
4, 201600, Note_on_c, 2, 70, 0
4, 201600, Note_on_c, 2, 69, 100
4, 202560, Note_on_c, 2, 69, 0
4, 202560, Note_on_c, 2, 69, 100
4, 203040, Note_on_c, 2, 69, 0
4, 203040, Note_on_c, 2, 71, 100
4, 203520, Note_on_c, 2, 71, 0
4, 203520, Note_on_c, 2, 72, 100
4, 204000, Note_on_c, 2, 72, 0
4, 204000, Note_on_c, 2, 71, 100
4, 204480, Note_on_c, 2, 71, 0
4, 204480, Note_on_c, 2, 72, 100
4, 204960, Note_on_c, 2, 72, 0
4, 204960, Note_on_c, 2, 74, 100
4, 205200, Note_on_c, 2, 74, 0
4, 205200, Note_on_c, 2, 72, 100
4, 205440, Note_on_c, 2, 72, 0
4, 205440, Note_on_c, 2, 71, 100
4, 205920, Note_on_c, 2, 71, 0
4, 205920, Note_on_c, 2, 72, 100
4, 206400, Note_on_c, 2, 72, 0
4, 206400, Note_on_c, 2, 74, 100
4, 206880, Note_on_c, 2, 74, 0
4, 206880, Note_on_c, 2, 76, 100
4, 207360, Note_on_c, 2, 76, 0
4, 207360, Note_on_c, 2, 77, 100
4, 207840, Note_on_c, 2, 77, 0
4, 207840, Note_on_c, 2, 76, 100
4, 208320, Note_on_c, 2, 76, 0
4, 208320, Note_on_c, 2, 77, 100
4, 208800, Note_on_c, 2, 77, 0
4, 208800, Note_on_c, 2, 79, 100
4, 209040, Note_on_c, 2, 79, 0
4, 209040, Note_on_c, 2, 77, 100
4, 209280, Note_on_c, 2, 77, 0
4, 209280, Note_on_c, 2, 76, 100
4, 210240, Note_on_c, 2, 76, 0
4, 210240, Note_on_c, 2, 76, 100
4, 210720, Note_on_c, 2, 76, 0
4, 210720, Note_on_c, 2, 74, 100
4, 210960, Note_on_c, 2, 74, 0
4, 210960, Note_on_c, 2, 72, 100
4, 211200, Note_on_c, 2, 72, 0
4, 211200, Note_on_c, 2, 71, 100
4, 211680, Note_on_c, 2, 71, 0
4, 211680, Note_on_c, 2, 72, 100
4, 212160, Note_on_c, 2, 72, 0
4, 212160, Note_on_c, 2, 74, 100
4, 213120, Note_on_c, 2, 74, 0
4, 233280, Note_on_c, 2, 74, 100
4, 234240, Note_on_c, 2, 74, 0
4, 234240, Note_on_c, 2, 76, 100
4, 234720, Note_on_c, 2, 76, 0
4, 234720, Note_on_c, 2, 74, 100
4, 234960, Note_on_c, 2, 74, 0
4, 234960, Note_on_c, 2, 72, 100
4, 235200, Note_on_c, 2, 72, 0
4, 235200, Note_on_c, 2, 71, 100
4, 235680, Note_on_c, 2, 71, 0
4, 235680, Note_on_c, 2, 72, 100
4, 236160, Note_on_c, 2, 72, 0
4, 236160, Note_on_c, 2, 74, 100
4, 237120, Note_on_c, 2, 74, 0
4, 237120, Note_on_c, 2, 69, 100
4, 237600, Note_on_c, 2, 69, 0
4, 237600, Note_on_c, 2, 71, 100
4, 238080, Note_on_c, 2, 71, 0
4, 238080, Note_on_c, 2, 72, 100
4, 238560, Note_on_c, 2, 72, 0
4, 238560, Note_on_c, 2, 71, 100
4, 239040, Note_on_c, 2, 71, 0
4, 239040, Note_on_c, 2, 72, 100
4, 239520, Note_on_c, 2, 72, 0
4, 239520, Note_on_c, 2, 74, 100
4, 239760, Note_on_c, 2, 74, 0
4, 239760, Note_on_c, 2, 72, 100
4, 240000, Note_on_c, 2, 72, 0
4, 240000, Note_on_c, 2, 71, 100
4, 240480, Note_on_c, 2, 71, 0
4, 240480, Note_on_c, 2, 69, 100
4, 240960, Note_on_c, 2, 69, 0
4, 240960, Note_on_c, 2, 71, 100
4, 241440, Note_on_c, 2, 71, 0
4, 241440, Note_on_c, 2, 72, 100
4, 241680, Note_on_c, 2, 72, 0
4, 241680, Note_on_c, 2, 71, 100
4, 241920, Note_on_c, 2, 71, 0
4, 241920, Note_on_c, 2, 69, 100
4, 242880, Note_on_c, 2, 69, 0
4, 242880, Note_on_c, 2, 69, 100
4, 243840, Note_on_c, 2, 69, 0
4, 243840, Note_on_c, 2, 71, 100
4, 244800, Note_on_c, 2, 71, 0
4, 244800, Note_on_c, 2, 69, 100
4, 245760, Note_on_c, 2, 69, 0
4, 260160, Note_on_c, 2, 79, 100
4, 261120, Note_on_c, 2, 79, 0
4, 261120, Note_on_c, 2, 81, 100
4, 261600, Note_on_c, 2, 81, 0
4, 261600, Note_on_c, 2, 79, 100
4, 261840, Note_on_c, 2, 79, 0
4, 261840, Note_on_c, 2, 77, 100
4, 262080, Note_on_c, 2, 77, 0
4, 262080, Note_on_c, 2, 76, 100
4, 262560, Note_on_c, 2, 76, 0
4, 262560, Note_on_c, 2, 78, 100
4, 263040, Note_on_c, 2, 78, 0
4, 263040, Note_on_c, 2, 79, 100
4, 264000, Note_on_c, 2, 79, 0
4, 275520, Note_on_c, 2, 74, 100
4, 276000, Note_on_c, 2, 74, 0
4, 276000, Note_on_c, 2, 76, 100
4, 276480, Note_on_c, 2, 76, 0
4, 276480, Note_on_c, 2, 77, 100
4, 276960, Note_on_c, 2, 77, 0
4, 276960, Note_on_c, 2, 76, 100
4, 277440, Note_on_c, 2, 76, 0
4, 277440, Note_on_c, 2, 77, 100
4, 277920, Note_on_c, 2, 77, 0
4, 277920, Note_on_c, 2, 79, 100
4, 278160, Note_on_c, 2, 79, 0
4, 278160, Note_on_c, 2, 77, 100
4, 278400, Note_on_c, 2, 77, 0
4, 278400, Note_on_c, 2, 76, 100
4, 278880, Note_on_c, 2, 76, 0
4, 283200, Note_on_c, 2, 74, 100
4, 284160, Note_on_c, 2, 74, 0
4, 284160, Note_on_c, 2, 76, 100
4, 284640, Note_on_c, 2, 76, 0
4, 284640, Note_on_c, 2, 74, 100
4, 284880, Note_on_c, 2, 74, 0
4, 284880, Note_on_c, 2, 72, 100
4, 285120, Note_on_c, 2, 72, 0
4, 285120, Note_on_c, 2, 71, 100
4, 285600, Note_on_c, 2, 71, 0
4, 285600, Note_on_c, 2, 72, 100
4, 286080, Note_on_c, 2, 72, 0
4, 286080, Note_on_c, 2, 74, 100
4, 287040, Note_on_c, 2, 74, 0
4, 287040, Note_on_c, 2, 69, 100
4, 287520, Note_on_c, 2, 69, 0
4, 287520, Note_on_c, 2, 71, 100
4, 288000, Note_on_c, 2, 71, 0
4, 288000, Note_on_c, 2, 72, 100
4, 288480, Note_on_c, 2, 72, 0
4, 288480, Note_on_c, 2, 71, 100
4, 288960, Note_on_c, 2, 71, 0
4, 288960, Note_on_c, 2, 72, 100
4, 289440, Note_on_c, 2, 72, 0
4, 289440, Note_on_c, 2, 74, 100
4, 289680, Note_on_c, 2, 74, 0
4, 289680, Note_on_c, 2, 72, 100
4, 289920, Note_on_c, 2, 72, 0
4, 289920, Note_on_c, 2, 71, 100
4, 290880, Note_on_c, 2, 71, 0
4, 290880, Note_on_c, 2, 76, 100
4, 292800, Note_on_c, 2, 76, 0
4, 292800, Note_on_c, 2, 74, 100
4, 293760, Note_on_c, 2, 74, 0
4, 293760, Note_on_c, 2, 73, 100
4, 294720, Note_on_c, 2, 73, 0
4, 294720, Note_on_c, 2, 72, 100
4, 295680, Note_on_c, 2, 72, 0
4, 295680, Note_on_c, 2, 71, 100
4, 296640, Note_on_c, 2, 71, 0
4, 296640, Note_on_c, 2, 70, 100
4, 297600, Note_on_c, 2, 70, 0
4, 297600, Note_on_c, 2, 69, 100
4, 298560, Note_on_c, 2, 69, 0
4, 298560, Note_on_c, 2, 71, 100
4, 299520, Note_on_c, 2, 71, 0
4, 299520, Note_on_c, 2, 71, 100
4, 300480, Note_on_c, 2, 71, 0
4, 300480, Note_on_c, 2, 69, 100
4, 301440, Note_on_c, 2, 69, 0
4, 302400, Note_on_c, 2, 83, 100
4, 303360, Note_on_c, 2, 83, 0
4, 303360, Note_on_c, 2, 84, 100
4, 303840, Note_on_c, 2, 84, 0
4, 303840, Note_on_c, 2, 83, 100
4, 304080, Note_on_c, 2, 83, 0
4, 304080, Note_on_c, 2, 81, 100
4, 304320, Note_on_c, 2, 81, 0
4, 304320, Note_on_c, 2, 79, 100
4, 304800, Note_on_c, 2, 79, 0
4, 304800, Note_on_c, 2, 81, 100
4, 305280, Note_on_c, 2, 81, 0
4, 305280, Note_on_c, 2, 83, 100
4, 306240, Note_on_c, 2, 83, 0
4, 306240, Note_on_c, 2, 78, 100
4, 306720, Note_on_c, 2, 78, 0
4, 306720, Note_on_c, 2, 79, 100
4, 307200, Note_on_c, 2, 79, 0
4, 307200, Note_on_c, 2, 81, 100
4, 307680, Note_on_c, 2, 81, 0
4, 307680, Note_on_c, 2, 79, 100
4, 308160, Note_on_c, 2, 79, 0
4, 308160, Note_on_c, 2, 81, 100
4, 308640, Note_on_c, 2, 81, 0
4, 308640, Note_on_c, 2, 83, 100
4, 308880, Note_on_c, 2, 83, 0
4, 308880, Note_on_c, 2, 81, 100
4, 309120, Note_on_c, 2, 81, 0
4, 309120, Note_on_c, 2, 79, 100
4, 310080, Note_on_c, 2, 79, 0
4, 310080, Note_on_c, 2, 79, 100
4, 311520, Note_on_c, 2, 79, 0
4, 311520, Note_on_c, 2, 81, 100
4, 311760, Note_on_c, 2, 81, 0
4, 311760, Note_on_c, 2, 79, 100
4, 312000, Note_on_c, 2, 79, 0
4, 312000, Note_on_c, 2, 78, 100
4, 312480, Note_on_c, 2, 78, 0
4, 312480, Note_on_c, 2, 79, 100
4, 312720, Note_on_c, 2, 79, 0
4, 312720, Note_on_c, 2, 76, 100
4, 312960, Note_on_c, 2, 76, 0
4, 312960, Note_on_c, 2, 83, 100
4, 313680, Note_on_c, 2, 83, 0
4, 313680, Note_on_c, 2, 84, 100
4, 313920, Note_on_c, 2, 84, 0
4, 313920, Note_on_c, 2, 83, 100
4, 314400, Note_on_c, 2, 83, 0
4, 314400, Note_on_c, 2, 81, 100
4, 314880, Note_on_c, 2, 81, 0
4, 314880, Note_on_c, 2, 79, 100
4, 315840, Note_on_c, 2, 79, 0
4, 315840, Note_on_c, 2, 78, 100
4, 315840, Pitch_bend_c, 2, 12288
4, 315960, Pitch_bend_c, 2, 8192
4, 316080, Pitch_bend_c, 2, 12288
4, 316200, Pitch_bend_c, 2, 8192
4, 316800, Note_on_c, 2, 78, 0
4, 316800, Note_on_c, 2, 76, 100
4, 317280, Note_on_c, 2, 76, 0
4, 385920, Note_on_c, 2, 62, 100
4, 386880, Note_on_c, 2, 62, 0
4, 386880, Note_on_c, 2, 62, 100
4, 387840, Note_on_c, 2, 62, 0
4, 387840, Note_on_c, 2, 59, 100
4, 388320, Note_on_c, 2, 59, 0
4, 388320, Note_on_c, 2, 60, 100
4, 388560, Note_on_c, 2, 60, 0
4, 388560, Note_on_c, 2, 62, 100
4, 388800, Note_on_c, 2, 62, 0
4, 388800, Note_on_c, 2, 64, 100
4, 389280, Note_on_c, 2, 64, 0
4, 389280, Note_on_c, 2, 62, 100
4, 389760, Note_on_c, 2, 62, 0
4, 389760, Note_on_c, 2, 60, 100
4, 390720, Note_on_c, 2, 60, 0
4, 390720, Note_on_c, 2, 65, 100
4, 391200, Note_on_c, 2, 65, 0
4, 391200, Note_on_c, 2, 64, 100
4, 391680, Note_on_c, 2, 64, 0
4, 391680, Note_on_c, 2, 62, 100
4, 392160, Note_on_c, 2, 62, 0
4, 392160, Note_on_c, 2, 64, 100
4, 392400, Note_on_c, 2, 64, 0
4, 392400, Note_on_c, 2, 62, 100
4, 392640, Note_on_c, 2, 62, 0
4, 392640, Note_on_c, 2, 60, 100
4, 393120, Note_on_c, 2, 60, 0
4, 393120, Note_on_c, 2, 62, 100
4, 393600, Note_on_c, 2, 62, 0
4, 393600, Note_on_c, 2, 64, 100
4, 394080, Note_on_c, 2, 64, 0
4, 394080, Note_on_c, 2, 62, 100
4, 394320, Note_on_c, 2, 62, 0
4, 394320, Note_on_c, 2, 60, 100
4, 394560, Note_on_c, 2, 60, 0
4, 394560, Note_on_c, 2, 59, 100
4, 395040, Note_on_c, 2, 59, 0
4, 395040, Note_on_c, 2, 60, 100
4, 395520, Note_on_c, 2, 60, 0
4, 395520, Note_on_c, 2, 62, 100
4, 396480, Note_on_c, 2, 62, 0
4, 396480, Note_on_c, 2, 63, 100
4, 397440, Note_on_c, 2, 63, 0
4, 397440, Note_on_c, 2, 64, 100
4, 398400, Note_on_c, 2, 64, 0
4, 398400, Note_on_c, 2, 64, 100
4, 399360, Note_on_c, 2, 64, 0
4, 399360, Note_on_c, 2, 65, 100
4, 400320, Note_on_c, 2, 65, 0
4, 400800, Note_on_c, 2, 66, 100
4, 401280, Note_on_c, 2, 66, 0
4, 401280, Note_on_c, 2, 67, 100
4, 401760, Note_on_c, 2, 67, 0
4, 401760, Note_on_c, 2, 65, 100
4, 402240, Note_on_c, 2, 65, 0
4, 402240, Note_on_c, 2, 64, 100
4, 402720, Note_on_c, 2, 64, 0
4, 402720, Note_on_c, 2, 62, 100
4, 403200, Note_on_c, 2, 62, 0
4, 403200, Note_on_c, 2, 60, 100
4, 404160, Note_on_c, 2, 60, 0
4, 404160, Note_on_c, 2, 57, 100
4, 405120, Note_on_c, 2, 57, 0
4, 405120, Note_on_c, 2, 62, 100
4, 406080, Note_on_c, 2, 62, 0
4, 406080, Note_on_c, 2, 55, 100
4, 407040, Note_on_c, 2, 55, 0
4, 407040, Note_on_c, 2, 60, 100
4, 408000, Note_on_c, 2, 60, 0
4, 408480, Note_on_c, 2, 60, 100
4, 408960, Note_on_c, 2, 60, 0
4, 411840, Note_on_c, 2, 60, 100
4, 412800, Note_on_c, 2, 60, 0
4, 416640, Note_on_c, 2, 60, 100
4, 417600, Note_on_c, 2, 60, 0
4, 420480, Note_on_c, 2, 79, 100
4, 420960, Note_on_c, 2, 79, 0
4, 420960, Note_on_c, 2, 81, 100
4, 421200, Note_on_c, 2, 81, 0
4, 421200, Note_on_c, 2, 82, 100
4, 421440, Note_on_c, 2, 82, 0
4, 421440, Note_on_c, 2, 81, 100
4, 421920, Note_on_c, 2, 81, 0
4, 421920, Note_on_c, 2, 79, 100
4, 422400, Note_on_c, 2, 79, 0
4, 422400, Note_on_c, 2, 77, 100
4, 423360, Note_on_c, 2, 77, 0
4, 423360, Note_on_c, 2, 77, 100
4, 424320, Note_on_c, 2, 77, 0
4, 424320, Note_on_c, 2, 76, 100
4, 425280, Note_on_c, 2, 76, 0
4, 425280, Note_on_c, 2, 76, 100
4, 426240, Note_on_c, 2, 76, 0
4, 426240, Note_on_c, 2, 78, 100
4, 427200, Note_on_c, 2, 78, 0
4, 429120, Note_on_c, 2, 71, 100
4, 430080, Note_on_c, 2, 71, 0
4, 430080, Note_on_c, 2, 69, 100
4, 431040, Note_on_c, 2, 69, 0
4, 431040, Note_on_c, 2, 69, 100
4, 432000, Note_on_c, 2, 69, 0
4, 432000, Note_on_c, 2, 71, 100
4, 432960, Note_on_c, 2, 71, 0
4, 433440, Note_on_c, 2, 70, 100
4, 433920, Note_on_c, 2, 70, 0
4, 433920, Note_on_c, 2, 69, 100
4, 434880, Note_on_c, 2, 69, 0
4, 434880, Note_on_c, 2, 69, 100
4, 435360, Note_on_c, 2, 69, 0
4, 435360, Note_on_c, 2, 71, 100
4, 435600, Note_on_c, 2, 71, 0
4, 435600, Note_on_c, 2, 72, 100
4, 435840, Note_on_c, 2, 72, 0
4, 435840, Note_on_c, 2, 74, 100
4, 436800, Note_on_c, 2, 74, 0
4, 436800, Note_on_c, 2, 72, 100
4, 437760, Note_on_c, 2, 72, 0
4, 438720, Note_on_c, 2, 71, 100
4, 439680, Note_on_c, 2, 71, 0
4, 439680, Note_on_c, 2, 67, 100
4, 440160, Note_on_c, 2, 67, 0
4, 440160, Note_on_c, 2, 69, 100
4, 440400, Note_on_c, 2, 69, 0
4, 440400, Note_on_c, 2, 71, 100
4, 440640, Note_on_c, 2, 71, 0
4, 440640, Note_on_c, 2, 72, 100
4, 441120, Note_on_c, 2, 72, 0
4, 441120, Note_on_c, 2, 71, 100
4, 441600, Note_on_c, 2, 71, 0
4, 441600, Note_on_c, 2, 69, 100
4, 442560, Note_on_c, 2, 69, 0
4, 442560, Note_on_c, 2, 74, 100
4, 443040, Note_on_c, 2, 74, 0
4, 443040, Note_on_c, 2, 72, 100
4, 443520, Note_on_c, 2, 72, 0
4, 443520, Note_on_c, 2, 71, 100
4, 444000, Note_on_c, 2, 71, 0
4, 444000, Note_on_c, 2, 72, 100
4, 444240, Note_on_c, 2, 72, 0
4, 444240, Note_on_c, 2, 71, 100
4, 444480, Note_on_c, 2, 71, 0
4, 444480, Note_on_c, 2, 69, 100
4, 444960, Note_on_c, 2, 69, 0
4, 444960, Note_on_c, 2, 71, 100
4, 445440, Note_on_c, 2, 71, 0
4, 445440, Note_on_c, 2, 72, 100
4, 446400, Note_on_c, 2, 72, 0
4, 446880, Note_on_c, 2, 70, 100
4, 447360, Note_on_c, 2, 70, 0
4, 447360, Note_on_c, 2, 69, 100
4, 447840, Note_on_c, 2, 69, 0
4, 447840, Note_on_c, 2, 70, 100
4, 448080, Note_on_c, 2, 70, 0
4, 448080, Note_on_c, 2, 69, 100
4, 448320, Note_on_c, 2, 69, 0
4, 448320, Note_on_c, 2, 67, 100
4, 448800, Note_on_c, 2, 67, 0
4, 448800, Note_on_c, 2, 69, 100
4, 449040, Note_on_c, 2, 69, 0
4, 449040, Note_on_c, 2, 67, 100
4, 449280, Note_on_c, 2, 67, 0
4, 449280, Note_on_c, 2, 65, 100
4, 449760, Note_on_c, 2, 65, 0
4, 449760, Note_on_c, 2, 67, 100
4, 450000, Note_on_c, 2, 67, 0
4, 450000, Note_on_c, 2, 65, 100
4, 450240, Note_on_c, 2, 65, 0
4, 450240, Note_on_c, 2, 64, 100
4, 450720, Note_on_c, 2, 64, 0
4, 450720, Note_on_c, 2, 65, 100
4, 450960, Note_on_c, 2, 65, 0
4, 450960, Note_on_c, 2, 64, 100
4, 451200, Note_on_c, 2, 64, 0
4, 451200, Note_on_c, 2, 62, 100
4, 452160, Note_on_c, 2, 62, 0
4, 452160, Note_on_c, 2, 67, 100
4, 453120, Note_on_c, 2, 67, 0
4, 453120, Note_on_c, 2, 67, 100
4, 454080, Note_on_c, 2, 67, 0
4, 454080, Note_on_c, 2, 65, 100
4, 455040, Note_on_c, 2, 65, 0
4, 455040, Note_on_c, 2, 65, 100
4, 456000, Note_on_c, 2, 65, 0
4, 456480, Note_on_c, 2, 67, 100
4, 456960, Note_on_c, 2, 67, 0
4, 456960, Note_on_c, 2, 67, 100
4, 457920, Note_on_c, 2, 67, 0
4, 458400, Note_on_c, 2, 67, 100
4, 458880, Note_on_c, 2, 67, 0
4, 458880, Note_on_c, 2, 65, 100
4, 459840, Note_on_c, 2, 65, 0
4, 460320, Note_on_c, 2, 62, 100
4, 460800, Note_on_c, 2, 62, 0
4, 460800, Note_on_c, 2, 67, 100
4, 461280, Note_on_c, 2, 67, 0
4, 461760, Note_on_c, 2, 67, 100
4, 462240, Note_on_c, 2, 67, 0
4, 462720, Note_on_c, 2, 66, 100
4, 463680, Note_on_c, 2, 66, 0
4, 464640, Note_on_c, 2, 69, 100
4, 465600, Note_on_c, 2, 69, 0
4, 467040, Note_on_c, 2, 67, 100
4, 467520, Note_on_c, 2, 67, 0
4, 467520, Note_on_c, 2, 67, 100
4, 468000, Note_on_c, 2, 67, 0
4, 468000, Note_on_c, 2, 66, 100
4, 468480, Note_on_c, 2, 66, 0
4, 468480, Note_on_c, 2, 67, 100
4, 469440, Note_on_c, 2, 67, 0
4, 469440, Note_on_c, 2, 62, 100
4, 470400, Note_on_c, 2, 62, 0
4, 525120, Note_on_c, 2, 72, 100
4, 525600, Note_on_c, 2, 72, 0
4, 525600, Note_on_c, 2, 74, 100
4, 526080, Note_on_c, 2, 74, 0
4, 526080, Note_on_c, 2, 76, 100
4, 526560, Note_on_c, 2, 76, 0
4, 526560, Note_on_c, 2, 74, 100
4, 526800, Note_on_c, 2, 74, 0
4, 526800, Note_on_c, 2, 72, 100
4, 527040, Note_on_c, 2, 72, 0
4, 527040, Note_on_c, 2, 71, 100
4, 527520, Note_on_c, 2, 71, 0
4, 527520, Note_on_c, 2, 72, 100
4, 528000, Note_on_c, 2, 72, 0
4, 528000, Note_on_c, 2, 74, 100
4, 528960, Note_on_c, 2, 74, 0
4, 528960, Note_on_c, 2, 69, 100
4, 529440, Note_on_c, 2, 69, 0
4, 529440, Note_on_c, 2, 71, 100
4, 529920, Note_on_c, 2, 71, 0
4, 529920, Note_on_c, 2, 72, 100
4, 530400, Note_on_c, 2, 72, 0
4, 530400, Note_on_c, 2, 71, 100
4, 530880, Note_on_c, 2, 71, 0
4, 530880, Note_on_c, 2, 72, 100
4, 531360, Note_on_c, 2, 72, 0
4, 531360, Note_on_c, 2, 74, 100
4, 531600, Note_on_c, 2, 74, 0
4, 531600, Note_on_c, 2, 72, 100
4, 531840, Note_on_c, 2, 72, 0
4, 531840, Note_on_c, 2, 71, 100
4, 532320, Note_on_c, 2, 71, 0
4, 532320, Note_on_c, 2, 72, 100
4, 532800, Note_on_c, 2, 72, 0
4, 532800, Note_on_c, 2, 74, 100
4, 533280, Note_on_c, 2, 74, 0
4, 533280, Note_on_c, 2, 74, 100
4, 533760, Note_on_c, 2, 74, 0
4, 533760, Note_on_c, 2, 72, 100
4, 534240, Note_on_c, 2, 72, 0
4, 534240, Note_on_c, 2, 74, 100
4, 534720, Note_on_c, 2, 74, 0
4, 534720, Note_on_c, 2, 76, 100
4, 535200, Note_on_c, 2, 76, 0
4, 535200, Note_on_c, 2, 76, 100
4, 535680, Note_on_c, 2, 76, 0
4, 535680, Note_on_c, 2, 74, 100
4, 536160, Note_on_c, 2, 74, 0
4, 536160, Note_on_c, 2, 76, 100
4, 536640, Note_on_c, 2, 76, 0
4, 536640, Note_on_c, 2, 77, 100
4, 537120, Note_on_c, 2, 77, 0
4, 537120, Note_on_c, 2, 77, 100
4, 537600, Note_on_c, 2, 77, 0
4, 537600, Note_on_c, 2, 76, 100
4, 538080, Note_on_c, 2, 76, 0
4, 538080, Note_on_c, 2, 78, 100
4, 538560, Note_on_c, 2, 78, 0
4, 538560, Note_on_c, 2, 79, 100
4, 539040, Note_on_c, 2, 79, 0
4, 539040, Note_on_c, 2, 79, 100
4, 539520, Note_on_c, 2, 79, 0
4, 539520, Note_on_c, 2, 81, 100
4, 540000, Note_on_c, 2, 81, 0
4, 540000, Note_on_c, 2, 79, 100
4, 540240, Note_on_c, 2, 79, 0
4, 540240, Note_on_c, 2, 77, 100
4, 540480, Note_on_c, 2, 77, 0
4, 540480, Note_on_c, 2, 76, 100
4, 540960, Note_on_c, 2, 76, 0
4, 540960, Note_on_c, 2, 78, 100
4, 541440, Note_on_c, 2, 78, 0
4, 541440, Note_on_c, 2, 79, 100
4, 541920, Note_on_c, 2, 79, 0
4, 541920, Note_on_c, 2, 79, 100
4, 542400, Note_on_c, 2, 79, 0
4, 542400, Note_on_c, 2, 74, 100
4, 542880, Note_on_c, 2, 74, 0
4, 542880, Note_on_c, 2, 76, 100
4, 543360, Note_on_c, 2, 76, 0
4, 543360, Note_on_c, 2, 77, 100
4, 543840, Note_on_c, 2, 77, 0
4, 543840, Note_on_c, 2, 76, 100
4, 544320, Note_on_c, 2, 76, 0
4, 544320, Note_on_c, 2, 77, 100
4, 544800, Note_on_c, 2, 77, 0
4, 544800, Note_on_c, 2, 79, 100
4, 545040, Note_on_c, 2, 79, 0
4, 545040, Note_on_c, 2, 77, 100
4, 545280, Note_on_c, 2, 77, 0
4, 545280, Note_on_c, 2, 76, 100
4, 545760, Note_on_c, 2, 76, 0
4, 545760, Note_on_c, 2, 74, 100
4, 546240, Note_on_c, 2, 74, 0
4, 546240, Note_on_c, 2, 76, 100
4, 546720, Note_on_c, 2, 76, 0
4, 546720, Note_on_c, 2, 76, 100
4, 547200, Note_on_c, 2, 76, 0
4, 547200, Note_on_c, 2, 76, 100
4, 547680, Note_on_c, 2, 76, 0
4, 547680, Note_on_c, 2, 76, 100
4, 548160, Note_on_c, 2, 76, 0
4, 548160, Note_on_c, 2, 74, 100
4, 548640, Note_on_c, 2, 74, 0
4, 548640, Note_on_c, 2, 74, 100
4, 549120, Note_on_c, 2, 74, 0
4, 549120, Note_on_c, 2, 74, 100
4, 549600, Note_on_c, 2, 74, 0
4, 549600, Note_on_c, 2, 74, 100
4, 550080, Note_on_c, 2, 74, 0
4, 550080, Note_on_c, 2, 72, 100
4, 550560, Note_on_c, 2, 72, 0
4, 550560, Note_on_c, 2, 76, 100
4, 550800, Note_on_c, 2, 76, 0
4, 550800, Note_on_c, 2, 74, 100
4, 551040, Note_on_c, 2, 74, 0
4, 551040, Note_on_c, 2, 72, 100
4, 551520, Note_on_c, 2, 72, 0
4, 551520, Note_on_c, 2, 71, 100
4, 552000, Note_on_c, 2, 71, 0
4, 552000, Note_on_c, 2, 72, 100
4, 552480, Note_on_c, 2, 72, 0
4, 552480, Note_on_c, 2, 69, 100
4, 552960, Note_on_c, 2, 69, 0
4, 552960, Note_on_c, 2, 71, 100
4, 553920, Note_on_c, 2, 71, 0
4, 553920, Note_on_c, 2, 67, 100
4, 554880, Note_on_c, 2, 67, 0
4, 554880, Note_on_c, 2, 69, 100
4, 555360, Note_on_c, 2, 69, 0
4, 555360, Note_on_c, 2, 67, 100
4, 555600, Note_on_c, 2, 67, 0
4, 555600, Note_on_c, 2, 65, 100
4, 555840, Note_on_c, 2, 65, 0
4, 555840, Note_on_c, 2, 64, 100
4, 556320, Note_on_c, 2, 64, 0
4, 556320, Note_on_c, 2, 65, 100
4, 556800, Note_on_c, 2, 65, 0
4, 556800, Note_on_c, 2, 67, 100
4, 557760, Note_on_c, 2, 67, 0
4, 557760, Note_on_c, 2, 62, 100
4, 558240, Note_on_c, 2, 62, 0
4, 558240, Note_on_c, 2, 64, 100
4, 558720, Note_on_c, 2, 64, 0
4, 558720, Note_on_c, 2, 65, 100
4, 559200, Note_on_c, 2, 65, 0
4, 559200, Note_on_c, 2, 64, 100
4, 559680, Note_on_c, 2, 64, 0
4, 559680, Note_on_c, 2, 65, 100
4, 560160, Note_on_c, 2, 65, 0
4, 560160, Note_on_c, 2, 67, 100
4, 560400, Note_on_c, 2, 67, 0
4, 560400, Note_on_c, 2, 65, 100
4, 560640, Note_on_c, 2, 65, 0
4, 560640, Note_on_c, 2, 64, 100
4, 561120, Note_on_c, 2, 64, 0
4, 561120, Note_on_c, 2, 62, 100
4, 561600, Note_on_c, 2, 62, 0
4, 561600, Note_on_c, 2, 64, 100
4, 562080, Note_on_c, 2, 64, 0
4, 562080, Note_on_c, 2, 66, 100
4, 562560, Note_on_c, 2, 66, 0
4, 562560, Note_on_c, 2, 67, 100
4, 563520, Note_on_c, 2, 67, 0
4, 563520, Note_on_c, 2, 67, 100
4, 564000, Note_on_c, 2, 67, 0
4, 564000, Note_on_c, 2, 67, 100
4, 564480, Note_on_c, 2, 67, 0
4, 564480, Note_on_c, 2, 66, 100
4, 565440, Note_on_c, 2, 66, 0
4, 565440, Note_on_c, 2, 65, 100
4, 566400, Note_on_c, 2, 65, 0
4, 566400, Note_on_c, 2, 64, 100
4, 566880, Note_on_c, 2, 64, 0
4, 566880, Note_on_c, 2, 62, 100
4, 567360, Note_on_c, 2, 62, 0
4, 567360, Note_on_c, 2, 64, 100
4, 567840, Note_on_c, 2, 64, 0
4, 567840, Note_on_c, 2, 66, 100
4, 568320, Note_on_c, 2, 66, 0
4, 568320, Note_on_c, 2, 67, 100
4, 568800, Note_on_c, 2, 67, 0
4, 568800, Note_on_c, 2, 65, 100
4, 569280, Note_on_c, 2, 65, 0
4, 569280, Note_on_c, 2, 67, 100
4, 569760, Note_on_c, 2, 67, 0
4, 569760, Note_on_c, 2, 64, 100
4, 570240, Note_on_c, 2, 64, 0
4, 570240, Note_on_c, 2, 65, 100
4, 570720, Note_on_c, 2, 65, 0
4, 570720, Note_on_c, 2, 64, 100
4, 571200, Note_on_c, 2, 64, 0
4, 571200, Note_on_c, 2, 65, 100
4, 571680, Note_on_c, 2, 65, 0
4, 571680, Note_on_c, 2, 62, 100
4, 572160, Note_on_c, 2, 62, 0
4, 572160, Note_on_c, 2, 64, 100
4, 573120, Note_on_c, 2, 64, 0
4, 573120, Note_on_c, 2, 64, 100
4, 574080, Note_on_c, 2, 64, 0
4, 574080, Note_on_c, 2, 64, 100
4, 575040, Note_on_c, 2, 64, 0
4, 575040, Note_on_c, 2, 69, 100
4, 576000, Note_on_c, 2, 69, 0
4, 576000, Note_on_c, 2, 62, 100
4, 576960, Note_on_c, 2, 62, 0
4, 577920, Note_on_c, 2, 62, 100
4, 579840, Note_on_c, 2, 62, 0
4, 579840, Note_on_c, 2, 64, 100
4, 580800, Note_on_c, 2, 64, 0
4, 580800, Note_on_c, 2, 69, 100
4, 581760, Note_on_c, 2, 69, 0
4, 581760, Note_on_c, 2, 64, 100
4, 582720, Note_on_c, 2, 64, 0
4, 582720, Note_on_c, 2, 57, 100
4, 583680, Note_on_c, 2, 57, 0
4, 583680, Note_on_c, 2, 62, 100
4, 584640, Note_on_c, 2, 62, 0
4, 584640, Note_on_c, 2, 65, 100
4, 585600, Note_on_c, 2, 65, 0
4, 585600, Note_on_c, 2, 64, 100
4, 586560, Note_on_c, 2, 64, 0
4, 587520, Note_on_c, 2, 62, 100
4, 588480, Note_on_c, 2, 62, 0
4, 589440, Note_on_c, 2, 69, 100
4, 590400, Note_on_c, 2, 69, 0
4, 590400, Note_on_c, 2, 62, 100
4, 591360, Note_on_c, 2, 62, 0
4, 591360, Note_on_c, 2, 67, 100
4, 592320, Note_on_c, 2, 67, 0
4, 593280, Note_on_c, 2, 67, 100
4, 593760, Note_on_c, 2, 67, 0
4, 594720, Note_on_c, 2, 67, 100
4, 595200, Note_on_c, 2, 67, 0
4, 595200, Note_on_c, 2, 65, 100
4, 595680, Note_on_c, 2, 65, 0
4, 597120, Note_on_c, 2, 65, 100
4, 597600, Note_on_c, 2, 65, 0
4, 598560, Note_on_c, 2, 65, 100
4, 599040, Note_on_c, 2, 65, 0
4, 599040, Note_on_c, 2, 64, 100
4, 599520, Note_on_c, 2, 64, 0
4, 599520, Note_on_c, 2, 65, 100
4, 600000, Note_on_c, 2, 65, 0
4, 600000, Note_on_c, 2, 60, 100
4, 600960, Note_on_c, 2, 60, 0
4, 600960, Note_on_c, 2, 62, 100
4, 601440, Note_on_c, 2, 62, 0
4, 601440, Note_on_c, 2, 60, 100
4, 601680, Note_on_c, 2, 60, 0
4, 601680, Note_on_c, 2, 59, 100
4, 601920, Note_on_c, 2, 59, 0
4, 601920, Note_on_c, 2, 57, 100
4, 602400, Note_on_c, 2, 57, 0
4, 602400, Note_on_c, 2, 59, 100
4, 602880, Note_on_c, 2, 59, 0
4, 602880, Note_on_c, 2, 60, 100
4, 603840, Note_on_c, 2, 60, 0
4, 603840, Note_on_c, 2, 55, 100
4, 604320, Note_on_c, 2, 55, 0
4, 604320, Note_on_c, 2, 57, 100
4, 604800, Note_on_c, 2, 57, 0
4, 604800, Note_on_c, 2, 58, 100
4, 605280, Note_on_c, 2, 58, 0
4, 605280, Note_on_c, 2, 57, 100
4, 605760, Note_on_c, 2, 57, 0
4, 605760, Note_on_c, 2, 58, 100
4, 606240, Note_on_c, 2, 58, 0
4, 606240, Note_on_c, 2, 60, 100
4, 606480, Note_on_c, 2, 60, 0
4, 606480, Note_on_c, 2, 58, 100
4, 606720, Note_on_c, 2, 58, 0
4, 606720, Note_on_c, 2, 57, 100
4, 607680, Note_on_c, 2, 57, 0
4, 607680, Note_on_c, 2, 59, 100
4, 608640, Note_on_c, 2, 59, 0
4, 608640, Note_on_c, 2, 60, 100
4, 609120, Note_on_c, 2, 60, 0
4, 609120, Note_on_c, 2, 59, 100
4, 609600, Note_on_c, 2, 59, 0
4, 609600, Note_on_c, 2, 60, 100
4, 610080, Note_on_c, 2, 60, 0
4, 610080, Note_on_c, 2, 62, 100
4, 610320, Note_on_c, 2, 62, 0
4, 610320, Note_on_c, 2, 60, 100
4, 610560, Note_on_c, 2, 60, 0
4, 610560, Note_on_c, 2, 59, 100
4, 611040, Note_on_c, 2, 59, 0
4, 611040, Note_on_c, 2, 57, 100
4, 611520, Note_on_c, 2, 57, 0
4, 611520, Note_on_c, 2, 58, 100
4, 612480, Note_on_c, 2, 58, 0
4, 612480, Note_on_c, 2, 57, 100
4, 613440, Note_on_c, 2, 57, 0
4, 614400, Note_on_c, 2, 55, 100
4, 615360, Note_on_c, 2, 55, 0
4, 615360, Note_on_c, 2, 62, 100
4, 615840, Note_on_c, 2, 62, 0
4, 615840, Note_on_c, 2, 64, 100
4, 616320, Note_on_c, 2, 64, 0
4, 616320, Note_on_c, 2, 62, 100
4, 617280, Note_on_c, 2, 62, 0
4, 617280, Note_on_c, 2, 55, 100
4, 618240, Note_on_c, 2, 55, 0
4, 618240, Note_on_c, 2, 60, 100
4, 618720, Note_on_c, 2, 60, 0
4, 620160, Note_on_c, 2, 60, 100
4, 620640, Note_on_c, 2, 60, 0
4, 621600, Note_on_c, 2, 60, 100
4, 622080, Note_on_c, 2, 60, 0
4, 622080, Note_on_c, 2, 58, 100
4, 622560, Note_on_c, 2, 58, 0
4, 624000, Note_on_c, 2, 58, 100
4, 624480, Note_on_c, 2, 58, 0
4, 625440, Note_on_c, 2, 58, 100
4, 625920, Note_on_c, 2, 58, 0
4, 625920, Note_on_c, 2, 57, 100
4, 626400, Note_on_c, 2, 57, 0
4, 627840, Note_on_c, 2, 59, 100
4, 628080, Note_on_c, 2, 59, 0
4, 629760, Note_on_c, 2, 60, 100
4, 630240, Note_on_c, 2, 60, 0
4, 631680, Note_on_c, 2, 62, 100
4, 631920, Note_on_c, 2, 62, 0
4, 633600, Note_on_c, 2, 64, 100
4, 633840, Note_on_c, 2, 64, 0
4, 635520, Note_on_c, 2, 65, 100
4, 635760, Note_on_c, 2, 65, 0
4, 637440, Note_on_c, 2, 65, 100
4, 637680, Note_on_c, 2, 65, 0
4, 638400, Note_on_c, 2, 64, 100
4, 638880, Note_on_c, 2, 64, 0
4, 638880, Note_on_c, 2, 62, 100
4, 639360, Note_on_c, 2, 62, 0
4, 639360, Note_on_c, 2, 61, 100
4, 639600, Note_on_c, 2, 61, 0
4, 640320, Note_on_c, 2, 60, 100
4, 640800, Note_on_c, 2, 60, 0
4, 641280, Note_on_c, 2, 59, 100
4, 641520, Note_on_c, 2, 59, 0
4, 642240, Note_on_c, 2, 58, 100
4, 642720, Note_on_c, 2, 58, 0
4, 643200, Note_on_c, 2, 57, 100
4, 643680, Note_on_c, 2, 57, 0
4, 645120, Note_on_c, 2, 55, 100
4, 645600, Note_on_c, 2, 55, 0
4, 647040, Note_on_c, 2, 65, 100
4, 647520, Note_on_c, 2, 65, 0
4, 647520, Note_on_c, 2, 65, 100
4, 647760, Note_on_c, 2, 65, 0
4, 647760, Note_on_c, 2, 64, 100
4, 648000, Note_on_c, 2, 64, 0
4, 648000, Note_on_c, 2, 65, 100
4, 648480, Note_on_c, 2, 65, 0
4, 648480, Note_on_c, 2, 67, 100
4, 648720, Note_on_c, 2, 67, 0
4, 648720, Note_on_c, 2, 65, 100
4, 648960, Note_on_c, 2, 65, 0
4, 648960, Note_on_c, 2, 64, 100
4, 649440, Note_on_c, 2, 64, 0
4, 649920, Note_on_c, 2, 69, 100
4, 650400, Note_on_c, 2, 69, 0
4, 650880, Note_on_c, 2, 72, 100
4, 651360, Note_on_c, 2, 72, 0
4, 651840, Note_on_c, 2, 71, 100
4, 652320, Note_on_c, 2, 71, 0
4, 652800, Note_on_c, 2, 72, 100
4, 653280, Note_on_c, 2, 72, 0
4, 654720, Note_on_c, 2, 72, 100
4, 655200, Note_on_c, 2, 72, 0
4, 656160, Note_on_c, 2, 72, 100
4, 656640, Note_on_c, 2, 72, 0
4, 656640, Note_on_c, 2, 72, 100
4, 657120, Note_on_c, 2, 72, 0
4, 658560, Note_on_c, 2, 74, 100
4, 659040, Note_on_c, 2, 74, 0
4, 660000, Note_on_c, 2, 72, 100
4, 660480, Note_on_c, 2, 72, 0
4, 662400, Note_on_c, 2, 64, 100
4, 663360, Note_on_c, 2, 64, 0
4, 664320, Note_on_c, 2, 67, 100
4, 665280, Note_on_c, 2, 67, 0
4, 665280, Note_on_c, 2, 67, 100
4, 666240, Note_on_c, 2, 67, 0
4, 666240, Note_on_c, 2, 65, 100
4, 666720, Note_on_c, 2, 65, 0
4, 668160, Note_on_c, 2, 65, 100
4, 668400, Note_on_c, 2, 65, 0
4, 672000, Note_on_c, 2, 63, 100
4, 672240, Note_on_c, 2, 63, 0
4, 679200, Note_on_c, 2, 71, 100
4, 679680, Note_on_c, 2, 71, 0
4, 679680, Note_on_c, 2, 72, 100
4, 680640, Note_on_c, 2, 72, 0
4, 680640, End_track
5, 0, Start_track
5, 0, MIDI_port, 0
5, 0, Title_t, "Six Sonatas and Partitas for Solo Violin"
5, 0, Program_c, 3, 40
5, 0, Control_c, 3, 7, 100
5, 0, Control_c, 3, 10, 49
5, 21120, Note_on_c, 3, 57, 100
5, 22080, Note_on_c, 3, 57, 0
5, 22080, Note_on_c, 3, 57, 100
5, 23040, Note_on_c, 3, 57, 0
5, 23040, Note_on_c, 3, 55, 100
5, 24000, Note_on_c, 3, 55, 0
5, 24000, Note_on_c, 3, 55, 100
5, 24960, Note_on_c, 3, 55, 0
5, 26880, Note_on_c, 3, 57, 100
5, 27840, Note_on_c, 3, 57, 0
5, 29760, Note_on_c, 3, 57, 100
5, 30720, Note_on_c, 3, 57, 0
5, 86400, Note_on_c, 3, 64, 100
5, 86640, Note_on_c, 3, 64, 0
5, 87360, Note_on_c, 3, 64, 100
5, 87840, Note_on_c, 3, 64, 0
5, 90240, Note_on_c, 3, 72, 100
5, 90720, Note_on_c, 3, 72, 0
5, 92160, Note_on_c, 3, 72, 100
5, 92640, Note_on_c, 3, 72, 0
5, 94080, Note_on_c, 3, 69, 100
5, 94560, Note_on_c, 3, 69, 0
5, 96960, Note_on_c, 3, 69, 100
5, 97440, Note_on_c, 3, 69, 0
5, 97920, Note_on_c, 3, 72, 100
5, 98400, Note_on_c, 3, 72, 0
5, 98880, Note_on_c, 3, 71, 100
5, 99360, Note_on_c, 3, 71, 0
5, 99840, Note_on_c, 3, 72, 100
5, 100320, Note_on_c, 3, 72, 0
5, 101760, Note_on_c, 3, 72, 100
5, 102240, Note_on_c, 3, 72, 0
5, 103200, Note_on_c, 3, 72, 100
5, 103680, Note_on_c, 3, 72, 0
5, 103680, Note_on_c, 3, 72, 100
5, 104160, Note_on_c, 3, 72, 0
5, 105600, Note_on_c, 3, 74, 100
5, 106080, Note_on_c, 3, 74, 0
5, 107040, Note_on_c, 3, 72, 100
5, 107520, Note_on_c, 3, 72, 0
5, 109440, Note_on_c, 3, 64, 100
5, 110400, Note_on_c, 3, 64, 0
5, 111360, Note_on_c, 3, 74, 100
5, 112320, Note_on_c, 3, 74, 0
5, 112320, Note_on_c, 3, 72, 100
5, 113280, Note_on_c, 3, 72, 0
5, 113280, Note_on_c, 3, 72, 100
5, 113760, Note_on_c, 3, 72, 0
5, 113760, Note_on_c, 3, 74, 100
5, 114000, Note_on_c, 3, 74, 0
5, 114000, Note_on_c, 3, 76, 100
5, 114240, Note_on_c, 3, 76, 0
5, 114240, Note_on_c, 3, 77, 100
5, 114480, Note_on_c, 3, 77, 0
5, 114480, Note_on_c, 3, 79, 100
5, 114720, Note_on_c, 3, 79, 0
5, 114720, Note_on_c, 3, 81, 100
5, 114960, Note_on_c, 3, 81, 0
5, 114960, Note_on_c, 3, 72, 100
5, 115200, Note_on_c, 3, 72, 0
5, 115200, Note_on_c, 3, 71, 100
5, 115440, Note_on_c, 3, 71, 0
5, 115440, Note_on_c, 3, 74, 100
5, 115680, Note_on_c, 3, 74, 0
5, 115680, Note_on_c, 3, 72, 100
5, 115920, Note_on_c, 3, 72, 0
5, 115920, Note_on_c, 3, 71, 100
5, 116160, Note_on_c, 3, 71, 0
5, 116160, Note_on_c, 3, 69, 100
5, 116400, Note_on_c, 3, 69, 0
5, 116400, Note_on_c, 3, 67, 100
5, 116640, Note_on_c, 3, 67, 0
5, 116640, Note_on_c, 3, 65, 100
5, 116880, Note_on_c, 3, 65, 0
5, 116880, Note_on_c, 3, 74, 100
5, 117120, Note_on_c, 3, 74, 0
5, 117120, Note_on_c, 3, 79, 100
5, 117360, Note_on_c, 3, 79, 0
5, 117360, Note_on_c, 3, 71, 100
5, 117600, Note_on_c, 3, 71, 0
5, 117600, Note_on_c, 3, 72, 100
5, 117840, Note_on_c, 3, 72, 0
5, 117840, Note_on_c, 3, 64, 100
5, 118080, Note_on_c, 3, 64, 0
5, 118080, Note_on_c, 3, 62, 100
5, 118320, Note_on_c, 3, 62, 0
5, 118320, Note_on_c, 3, 72, 100
5, 118560, Note_on_c, 3, 72, 0
5, 118560, Note_on_c, 3, 77, 100
5, 118800, Note_on_c, 3, 77, 0
5, 118800, Note_on_c, 3, 71, 100
5, 119040, Note_on_c, 3, 71, 0
5, 119040, Note_on_c, 3, 72, 100
5, 119280, Note_on_c, 3, 72, 0
5, 119280, Note_on_c, 3, 74, 100
5, 119520, Note_on_c, 3, 74, 0
5, 119520, Note_on_c, 3, 75, 100
5, 119760, Note_on_c, 3, 75, 0
5, 119760, Note_on_c, 3, 77, 100
5, 120000, Note_on_c, 3, 77, 0
5, 120000, Note_on_c, 3, 79, 100
5, 120240, Note_on_c, 3, 79, 0
5, 120240, Note_on_c, 3, 81, 100
5, 120480, Note_on_c, 3, 81, 0
5, 120480, Note_on_c, 3, 83, 100
5, 120720, Note_on_c, 3, 83, 0
5, 120720, Note_on_c, 3, 84, 100
5, 120960, Note_on_c, 3, 84, 0
5, 120960, Note_on_c, 3, 78, 100
5, 121200, Note_on_c, 3, 78, 0
5, 121200, Note_on_c, 3, 75, 100
5, 121440, Note_on_c, 3, 75, 0
5, 121440, Note_on_c, 3, 74, 100
5, 121680, Note_on_c, 3, 74, 0
5, 121680, Note_on_c, 3, 72, 100
5, 121920, Note_on_c, 3, 72, 0
5, 121920, Note_on_c, 3, 71, 100
5, 122160, Note_on_c, 3, 71, 0
5, 122160, Note_on_c, 3, 72, 100
5, 122400, Note_on_c, 3, 72, 0
5, 122400, Note_on_c, 3, 66, 100
5, 122640, Note_on_c, 3, 66, 0
5, 122640, Note_on_c, 3, 57, 100
5, 122880, Note_on_c, 3, 57, 0
5, 122880, Note_on_c, 3, 55, 100
5, 123120, Note_on_c, 3, 55, 0
5, 123120, Note_on_c, 3, 60, 100
5, 123360, Note_on_c, 3, 60, 0
5, 123360, Note_on_c, 3, 64, 100
5, 123600, Note_on_c, 3, 64, 0
5, 123600, Note_on_c, 3, 67, 100
5, 123840, Note_on_c, 3, 67, 0
5, 123840, Note_on_c, 3, 72, 100
5, 124080, Note_on_c, 3, 72, 0
5, 124080, Note_on_c, 3, 76, 100
5, 124320, Note_on_c, 3, 76, 0
5, 124320, Note_on_c, 3, 79, 100
5, 124560, Note_on_c, 3, 79, 0
5, 124560, Note_on_c, 3, 76, 100
5, 124800, Note_on_c, 3, 76, 0
5, 124800, Note_on_c, 3, 72, 100
5, 125040, Note_on_c, 3, 72, 0
5, 125040, Note_on_c, 3, 67, 100
5, 125280, Note_on_c, 3, 67, 0
5, 125280, Note_on_c, 3, 64, 100
5, 125520, Note_on_c, 3, 64, 0
5, 125520, Note_on_c, 3, 60, 100
5, 125760, Note_on_c, 3, 60, 0
5, 125760, Note_on_c, 3, 55, 100
5, 126240, Note_on_c, 3, 55, 0
5, 126720, Note_on_c, 3, 60, 100
5, 126960, Note_on_c, 3, 60, 0
5, 192960, Note_on_c, 3, 61, 100
5, 193440, Note_on_c, 3, 61, 0
5, 193440, Note_on_c, 3, 62, 100
5, 193920, Note_on_c, 3, 62, 0
5, 193920, Note_on_c, 3, 64, 100
5, 194880, Note_on_c, 3, 64, 0
5, 194880, Note_on_c, 3, 64, 100
5, 195840, Note_on_c, 3, 64, 0
5, 195840, Note_on_c, 3, 62, 100
5, 196800, Note_on_c, 3, 62, 0
5, 196800, Note_on_c, 3, 67, 100
5, 197760, Note_on_c, 3, 67, 0
5, 197760, Note_on_c, 3, 64, 100
5, 198720, Note_on_c, 3, 64, 0
5, 198720, Note_on_c, 3, 63, 100
5, 199680, Note_on_c, 3, 63, 0
5, 199680, Note_on_c, 3, 62, 100
5, 200640, Note_on_c, 3, 62, 0
5, 201600, Note_on_c, 3, 62, 100
5, 202560, Note_on_c, 3, 62, 0
5, 202560, Note_on_c, 3, 62, 100
5, 203520, Note_on_c, 3, 62, 0
5, 203520, Note_on_c, 3, 64, 100
5, 204000, Note_on_c, 3, 64, 0
5, 204000, Note_on_c, 3, 62, 100
5, 204480, Note_on_c, 3, 62, 0
5, 204480, Note_on_c, 3, 64, 100
5, 204960, Note_on_c, 3, 64, 0
5, 204960, Note_on_c, 3, 66, 100
5, 205440, Note_on_c, 3, 66, 0
5, 205440, Note_on_c, 3, 67, 100
5, 206400, Note_on_c, 3, 67, 0
5, 206880, Note_on_c, 3, 67, 100
5, 207360, Note_on_c, 3, 67, 0
5, 207360, Note_on_c, 3, 69, 100
5, 207840, Note_on_c, 3, 69, 0
5, 207840, Note_on_c, 3, 67, 100
5, 208320, Note_on_c, 3, 67, 0
5, 208320, Note_on_c, 3, 69, 100
5, 208800, Note_on_c, 3, 69, 0
5, 208800, Note_on_c, 3, 71, 100
5, 209280, Note_on_c, 3, 71, 0
5, 209280, Note_on_c, 3, 72, 100
5, 209760, Note_on_c, 3, 72, 0
5, 209760, Note_on_c, 3, 71, 100
5, 210240, Note_on_c, 3, 71, 0
5, 210240, Note_on_c, 3, 69, 100
5, 210720, Note_on_c, 3, 69, 0
5, 211200, Note_on_c, 3, 68, 100
5, 211680, Note_on_c, 3, 68, 0
5, 212160, Note_on_c, 3, 67, 100
5, 213120, Note_on_c, 3, 67, 0
5, 213120, Note_on_c, 3, 69, 100
5, 214080, Note_on_c, 3, 69, 0
5, 235200, Note_on_c, 3, 79, 100
5, 236160, Note_on_c, 3, 79, 0
5, 236160, Note_on_c, 3, 78, 100
5, 237120, Note_on_c, 3, 78, 0
5, 237120, Note_on_c, 3, 77, 100
5, 238080, Note_on_c, 3, 77, 0
5, 238080, Note_on_c, 3, 76, 100
5, 239040, Note_on_c, 3, 76, 0
5, 239040, Note_on_c, 3, 78, 100
5, 240000, Note_on_c, 3, 78, 0
5, 240000, Note_on_c, 3, 79, 100
5, 240960, Note_on_c, 3, 79, 0
5, 240960, Note_on_c, 3, 79, 100
5, 241920, Note_on_c, 3, 79, 0
5, 241920, Note_on_c, 3, 79, 100
5, 242400, Note_on_c, 3, 79, 0
5, 242400, Note_on_c, 3, 77, 100
5, 242640, Note_on_c, 3, 77, 0
5, 242640, Note_on_c, 3, 76, 100
5, 242880, Note_on_c, 3, 76, 0
5, 242880, Note_on_c, 3, 77, 100
5, 243360, Note_on_c, 3, 77, 0
5, 243360, Note_on_c, 3, 79, 100
5, 243600, Note_on_c, 3, 79, 0
5, 243600, Note_on_c, 3, 77, 100
5, 243840, Note_on_c, 3, 77, 0
5, 243840, Note_on_c, 3, 76, 100
5, 244800, Note_on_c, 3, 76, 0
5, 244800, Note_on_c, 3, 76, 100
5, 245760, Note_on_c, 3, 76, 0
5, 245760, Note_on_c, 3, 75, 100
5, 246720, Note_on_c, 3, 75, 0
5, 246720, Note_on_c, 3, 74, 100
5, 247680, Note_on_c, 3, 74, 0
5, 247680, Note_on_c, 3, 73, 100
5, 248640, Note_on_c, 3, 73, 0
5, 248640, Note_on_c, 3, 72, 100
5, 249600, Note_on_c, 3, 72, 0
5, 249600, Note_on_c, 3, 71, 100
5, 250560, Note_on_c, 3, 71, 0
5, 250560, Note_on_c, 3, 73, 100
5, 251520, Note_on_c, 3, 73, 0
5, 251520, Note_on_c, 3, 74, 100
5, 252000, Note_on_c, 3, 74, 0
5, 252000, Note_on_c, 3, 72, 100
5, 252240, Note_on_c, 3, 72, 0
5, 252240, Note_on_c, 3, 71, 100
5, 252480, Note_on_c, 3, 71, 0
5, 252480, Note_on_c, 3, 69, 100
5, 252960, Note_on_c, 3, 69, 0
5, 252960, Note_on_c, 3, 71, 100
5, 253440, Note_on_c, 3, 71, 0
5, 253440, Note_on_c, 3, 72, 100
5, 253920, Note_on_c, 3, 72, 0
5, 253920, Note_on_c, 3, 71, 100
5, 254400, Note_on_c, 3, 71, 0
5, 254400, Note_on_c, 3, 72, 100
5, 254880, Note_on_c, 3, 72, 0
5, 254880, Note_on_c, 3, 74, 100
5, 255120, Note_on_c, 3, 74, 0
5, 255120, Note_on_c, 3, 72, 100
5, 255360, Note_on_c, 3, 72, 0
5, 255360, Note_on_c, 3, 71, 100
5, 256320, Note_on_c, 3, 71, 0
5, 256320, Note_on_c, 3, 70, 100
5, 257280, Note_on_c, 3, 70, 0
5, 257280, Note_on_c, 3, 69, 100
5, 258240, Note_on_c, 3, 69, 0
5, 258240, Note_on_c, 3, 71, 100
5, 259200, Note_on_c, 3, 71, 0
5, 259200, Note_on_c, 3, 72, 100
5, 260160, Note_on_c, 3, 72, 0
5, 260160, Note_on_c, 3, 74, 100
5, 261120, Note_on_c, 3, 74, 0
5, 261120, Note_on_c, 3, 74, 100
5, 261600, Note_on_c, 3, 74, 0
5, 261600, Note_on_c, 3, 74, 100
5, 262080, Note_on_c, 3, 74, 0
5, 262080, Note_on_c, 3, 72, 100
5, 263040, Note_on_c, 3, 72, 0
5, 263040, Note_on_c, 3, 71, 100
5, 264000, Note_on_c, 3, 71, 0
5, 264000, Note_on_c, 3, 74, 100
5, 264480, Note_on_c, 3, 74, 0
5, 264480, Note_on_c, 3, 76, 100
5, 264960, Note_on_c, 3, 76, 0
5, 264960, Note_on_c, 3, 77, 100
5, 265440, Note_on_c, 3, 77, 0
5, 265440, Note_on_c, 3, 76, 100
5, 265920, Note_on_c, 3, 76, 0
5, 265920, Note_on_c, 3, 77, 100
5, 266400, Note_on_c, 3, 77, 0
5, 266400, Note_on_c, 3, 79, 100
5, 266640, Note_on_c, 3, 79, 0
5, 266640, Note_on_c, 3, 77, 100
5, 266880, Note_on_c, 3, 77, 0
5, 266880, Note_on_c, 3, 76, 100
5, 267840, Note_on_c, 3, 76, 0
5, 267840, Note_on_c, 3, 72, 100
5, 268320, Note_on_c, 3, 72, 0
5, 268320, Note_on_c, 3, 74, 100
5, 268560, Note_on_c, 3, 74, 0
5, 268560, Note_on_c, 3, 72, 100
5, 268800, Note_on_c, 3, 72, 0
5, 268800, Note_on_c, 3, 71, 100
5, 269760, Note_on_c, 3, 71, 0
5, 269760, Note_on_c, 3, 67, 100
5, 270240, Note_on_c, 3, 67, 0
5, 270240, Note_on_c, 3, 69, 100
5, 270480, Note_on_c, 3, 69, 0
5, 270480, Note_on_c, 3, 67, 100
5, 270720, Note_on_c, 3, 67, 0
5, 270720, Note_on_c, 3, 65, 100
5, 271680, Note_on_c, 3, 65, 0
5, 271680, Note_on_c, 3, 70, 100
5, 273600, Note_on_c, 3, 70, 0
5, 273600, Note_on_c, 3, 69, 100
5, 275520, Note_on_c, 3, 69, 0
5, 275520, Note_on_c, 3, 67, 100
5, 276480, Note_on_c, 3, 67, 0
5, 276480, Note_on_c, 3, 69, 100
5, 277440, Note_on_c, 3, 69, 0
5, 277440, Note_on_c, 3, 70, 100
5, 278400, Note_on_c, 3, 70, 0
5, 278400, Note_on_c, 3, 70, 100
5, 278880, Note_on_c, 3, 70, 0
5, 278880, Note_on_c, 3, 73, 100
5, 279360, Note_on_c, 3, 73, 0
5, 279360, Note_on_c, 3, 74, 100
5, 280320, Note_on_c, 3, 74, 0
5, 280320, Note_on_c, 3, 74, 100
5, 281280, Note_on_c, 3, 74, 0
5, 281280, Note_on_c, 3, 73, 100
5, 282240, Note_on_c, 3, 73, 0
5, 282240, Note_on_c, 3, 74, 100
5, 283200, Note_on_c, 3, 74, 0
5, 292800, Note_on_c, 3, 67, 100
5, 293760, Note_on_c, 3, 67, 0
5, 293760, Note_on_c, 3, 69, 100
5, 294240, Note_on_c, 3, 69, 0
5, 294240, Note_on_c, 3, 67, 100
5, 294480, Note_on_c, 3, 67, 0
5, 294480, Note_on_c, 3, 65, 100
5, 294720, Note_on_c, 3, 65, 0
5, 294720, Note_on_c, 3, 64, 100
5, 295200, Note_on_c, 3, 64, 0
5, 295200, Note_on_c, 3, 66, 100
5, 295680, Note_on_c, 3, 66, 0
5, 295680, Note_on_c, 3, 67, 100
5, 296640, Note_on_c, 3, 67, 0
5, 296640, Note_on_c, 3, 62, 100
5, 297120, Note_on_c, 3, 62, 0
5, 297120, Note_on_c, 3, 64, 100
5, 297600, Note_on_c, 3, 64, 0
5, 297600, Note_on_c, 3, 65, 100
5, 298080, Note_on_c, 3, 65, 0
5, 298080, Note_on_c, 3, 64, 100
5, 298560, Note_on_c, 3, 64, 0
5, 298560, Note_on_c, 3, 65, 100
5, 299040, Note_on_c, 3, 65, 0
5, 299040, Note_on_c, 3, 67, 100
5, 299280, Note_on_c, 3, 67, 0
5, 299280, Note_on_c, 3, 65, 100
5, 299520, Note_on_c, 3, 65, 0
5, 299520, Note_on_c, 3, 64, 100
5, 300480, Note_on_c, 3, 64, 0
5, 300480, Note_on_c, 3, 64, 100
5, 301440, Note_on_c, 3, 64, 0
5, 301440, Note_on_c, 3, 66, 100
5, 301920, Note_on_c, 3, 66, 0
5, 301920, Note_on_c, 3, 64, 100
5, 302400, Note_on_c, 3, 64, 0
5, 302400, Note_on_c, 3, 66, 100
5, 302880, Note_on_c, 3, 66, 0
5, 302880, Note_on_c, 3, 68, 100
5, 303360, Note_on_c, 3, 68, 0
5, 303360, Note_on_c, 3, 69, 100
5, 304320, Note_on_c, 3, 69, 0
5, 304320, Note_on_c, 3, 64, 100
5, 305280, Note_on_c, 3, 64, 0
5, 305280, Note_on_c, 3, 64, 100
5, 306240, Note_on_c, 3, 64, 0
5, 306240, Note_on_c, 3, 66, 100
5, 307200, Note_on_c, 3, 66, 0
5, 307200, Note_on_c, 3, 66, 100
5, 308160, Note_on_c, 3, 66, 0
5, 308160, Note_on_c, 3, 66, 100
5, 309120, Note_on_c, 3, 66, 0
5, 309120, Note_on_c, 3, 64, 100
5, 310080, Note_on_c, 3, 64, 0
5, 310080, Note_on_c, 3, 64, 100
5, 310560, Note_on_c, 3, 64, 0
5, 310560, Note_on_c, 3, 62, 100
5, 311040, Note_on_c, 3, 62, 0
5, 311040, Note_on_c, 3, 60, 100
5, 312000, Note_on_c, 3, 60, 0
5, 312960, Note_on_c, 3, 55, 100
5, 313920, Note_on_c, 3, 55, 0
5, 314400, Note_on_c, 3, 57, 100
5, 314880, Note_on_c, 3, 57, 0
5, 314880, Note_on_c, 3, 59, 100
5, 315840, Note_on_c, 3, 59, 0
5, 315840, Note_on_c, 3, 63, 100
5, 316800, Note_on_c, 3, 63, 0
5, 316800, Note_on_c, 3, 64, 100
5, 317280, Note_on_c, 3, 64, 0
5, 358320, Note_on_c, 3, 62, 100
5, 358560, Note_on_c, 3, 62, 0
5, 358800, Note_on_c, 3, 62, 100
5, 359040, Note_on_c, 3, 62, 0
5, 359280, Note_on_c, 3, 62, 100
5, 359520, Note_on_c, 3, 62, 0
5, 360240, Note_on_c, 3, 62, 100
5, 360480, Note_on_c, 3, 62, 0
5, 360720, Note_on_c, 3, 62, 100
5, 360960, Note_on_c, 3, 62, 0
5, 361200, Note_on_c, 3, 62, 100
5, 361440, Note_on_c, 3, 62, 0
5, 361680, Note_on_c, 3, 62, 100
5, 361920, Note_on_c, 3, 62, 0
5, 362160, Note_on_c, 3, 62, 100
5, 362400, Note_on_c, 3, 62, 0
5, 363120, Note_on_c, 3, 62, 100
5, 363360, Note_on_c, 3, 62, 0
5, 363600, Note_on_c, 3, 62, 100
5, 363840, Note_on_c, 3, 62, 0
5, 364080, Note_on_c, 3, 62, 100
5, 364320, Note_on_c, 3, 62, 0
5, 365040, Note_on_c, 3, 62, 100
5, 365280, Note_on_c, 3, 62, 0
5, 365520, Note_on_c, 3, 62, 100
5, 365760, Note_on_c, 3, 62, 0
5, 366000, Note_on_c, 3, 62, 100
5, 366240, Note_on_c, 3, 62, 0
5, 366480, Note_on_c, 3, 62, 100
5, 366720, Note_on_c, 3, 62, 0
5, 366960, Note_on_c, 3, 62, 100
5, 367200, Note_on_c, 3, 62, 0
5, 367440, Note_on_c, 3, 62, 100
5, 367680, Note_on_c, 3, 62, 0
5, 367920, Note_on_c, 3, 62, 100
5, 368160, Note_on_c, 3, 62, 0
5, 368400, Note_on_c, 3, 62, 100
5, 368640, Note_on_c, 3, 62, 0
5, 368880, Note_on_c, 3, 62, 100
5, 369120, Note_on_c, 3, 62, 0
5, 369360, Note_on_c, 3, 62, 100
5, 369600, Note_on_c, 3, 62, 0
5, 369840, Note_on_c, 3, 62, 100
5, 370080, Note_on_c, 3, 62, 0
5, 370320, Note_on_c, 3, 62, 100
5, 370560, Note_on_c, 3, 62, 0
5, 370800, Note_on_c, 3, 62, 100
5, 371040, Note_on_c, 3, 62, 0
5, 371280, Note_on_c, 3, 62, 100
5, 371520, Note_on_c, 3, 62, 0
5, 371760, Note_on_c, 3, 62, 100
5, 372000, Note_on_c, 3, 62, 0
5, 372240, Note_on_c, 3, 62, 100
5, 372480, Note_on_c, 3, 62, 0
5, 372720, Note_on_c, 3, 62, 100
5, 372960, Note_on_c, 3, 62, 0
5, 373680, Note_on_c, 3, 62, 100
5, 373920, Note_on_c, 3, 62, 0
5, 374160, Note_on_c, 3, 62, 100
5, 374400, Note_on_c, 3, 62, 0
5, 374640, Note_on_c, 3, 62, 100
5, 374880, Note_on_c, 3, 62, 0
5, 375120, Note_on_c, 3, 62, 100
5, 375360, Note_on_c, 3, 62, 0
5, 375600, Note_on_c, 3, 62, 100
5, 375840, Note_on_c, 3, 62, 0
5, 376080, Note_on_c, 3, 62, 100
5, 376320, Note_on_c, 3, 62, 0
5, 376560, Note_on_c, 3, 62, 100
5, 376800, Note_on_c, 3, 62, 0
5, 377040, Note_on_c, 3, 62, 100
5, 377280, Note_on_c, 3, 62, 0
5, 377520, Note_on_c, 3, 62, 100
5, 377760, Note_on_c, 3, 62, 0
5, 378480, Note_on_c, 3, 62, 100
5, 378720, Note_on_c, 3, 62, 0
5, 378960, Note_on_c, 3, 62, 100
5, 379200, Note_on_c, 3, 62, 0
5, 379440, Note_on_c, 3, 62, 100
5, 379680, Note_on_c, 3, 62, 0
5, 380400, Note_on_c, 3, 62, 100
5, 380640, Note_on_c, 3, 62, 0
5, 380880, Note_on_c, 3, 62, 100
5, 381120, Note_on_c, 3, 62, 0
5, 381360, Note_on_c, 3, 62, 100
5, 381600, Note_on_c, 3, 62, 0
5, 382320, Note_on_c, 3, 62, 100
5, 382560, Note_on_c, 3, 62, 0
5, 382800, Note_on_c, 3, 62, 100
5, 383040, Note_on_c, 3, 62, 0
5, 383280, Note_on_c, 3, 62, 100
5, 383520, Note_on_c, 3, 62, 0
5, 384240, Note_on_c, 3, 62, 100
5, 384480, Note_on_c, 3, 62, 0
5, 384720, Note_on_c, 3, 62, 100
5, 384960, Note_on_c, 3, 62, 0
5, 385200, Note_on_c, 3, 62, 100
5, 385440, Note_on_c, 3, 62, 0
5, 385920, Note_on_c, 3, 55, 100
5, 386880, Note_on_c, 3, 55, 0
5, 403200, Note_on_c, 3, 64, 100
5, 404160, Note_on_c, 3, 64, 0
5, 404160, Note_on_c, 3, 64, 100
5, 405120, Note_on_c, 3, 64, 0
5, 406080, Note_on_c, 3, 67, 100
5, 407040, Note_on_c, 3, 67, 0
5, 407040, Note_on_c, 3, 67, 100
5, 408000, Note_on_c, 3, 67, 0
5, 408480, Note_on_c, 3, 67, 100
5, 408960, Note_on_c, 3, 67, 0
5, 408960, Note_on_c, 3, 65, 100
5, 409920, Note_on_c, 3, 65, 0
5, 409920, Note_on_c, 3, 66, 100
5, 410880, Note_on_c, 3, 66, 0
5, 410880, Note_on_c, 3, 67, 100
5, 411840, Note_on_c, 3, 67, 0
5, 411840, Note_on_c, 3, 67, 100
5, 412800, Note_on_c, 3, 67, 0
5, 412800, Note_on_c, 3, 65, 100
5, 413760, Note_on_c, 3, 65, 0
5, 413760, Note_on_c, 3, 62, 100
5, 414720, Note_on_c, 3, 62, 0
5, 414720, Note_on_c, 3, 67, 100
5, 415680, Note_on_c, 3, 67, 0
5, 416640, Note_on_c, 3, 67, 100
5, 417600, Note_on_c, 3, 67, 0
5, 417600, Note_on_c, 3, 63, 100
5, 418560, Note_on_c, 3, 63, 0
5, 418560, Note_on_c, 3, 62, 100
5, 419520, Note_on_c, 3, 62, 0
5, 421920, Note_on_c, 3, 57, 100
5, 422400, Note_on_c, 3, 57, 0
5, 424320, Note_on_c, 3, 71, 100
5, 425280, Note_on_c, 3, 71, 0
5, 425280, Note_on_c, 3, 69, 100
5, 426240, Note_on_c, 3, 69, 0
5, 429120, Note_on_c, 3, 79, 100
5, 430080, Note_on_c, 3, 79, 0
5, 430080, Note_on_c, 3, 79, 100
5, 431040, Note_on_c, 3, 79, 0
5, 431040, Note_on_c, 3, 77, 100
5, 431520, Note_on_c, 3, 77, 0
5, 431520, Note_on_c, 3, 76, 100
5, 431760, Note_on_c, 3, 76, 0
5, 431760, Note_on_c, 3, 74, 100
5, 432000, Note_on_c, 3, 74, 0
5, 432000, Note_on_c, 3, 80, 100
5, 432960, Note_on_c, 3, 80, 0
5, 433440, Note_on_c, 3, 79, 100
5, 433920, Note_on_c, 3, 79, 0
5, 433920, Note_on_c, 3, 79, 100
5, 434400, Note_on_c, 3, 79, 0
5, 434400, Note_on_c, 3, 77, 100
5, 434640, Note_on_c, 3, 77, 0
5, 434640, Note_on_c, 3, 76, 100
5, 434880, Note_on_c, 3, 76, 0
5, 434880, Note_on_c, 3, 77, 100
5, 435840, Note_on_c, 3, 77, 0
5, 435840, Note_on_c, 3, 77, 100
5, 436320, Note_on_c, 3, 77, 0
5, 436320, Note_on_c, 3, 76, 100
5, 436560, Note_on_c, 3, 76, 0
5, 436560, Note_on_c, 3, 74, 100
5, 436800, Note_on_c, 3, 74, 0
5, 436800, Note_on_c, 3, 76, 100
5, 437280, Note_on_c, 3, 76, 0
5, 437280, Note_on_c, 3, 77, 100
5, 437520, Note_on_c, 3, 77, 0
5, 437520, Note_on_c, 3, 76, 100
5, 437760, Note_on_c, 3, 76, 0
5, 437760, Note_on_c, 3, 74, 100
5, 438240, Note_on_c, 3, 74, 0
5, 438240, Note_on_c, 3, 76, 100
5, 438480, Note_on_c, 3, 76, 0
5, 438480, Note_on_c, 3, 77, 100
5, 438720, Note_on_c, 3, 77, 0
5, 438720, Note_on_c, 3, 79, 100
5, 439200, Note_on_c, 3, 79, 0
5, 439200, Note_on_c, 3, 77, 100
5, 439680, Note_on_c, 3, 77, 0
5, 439680, Note_on_c, 3, 76, 100
5, 440640, Note_on_c, 3, 76, 0
5, 440640, Note_on_c, 3, 81, 100
5, 441120, Note_on_c, 3, 81, 0
5, 441120, Note_on_c, 3, 79, 100
5, 441600, Note_on_c, 3, 79, 0
5, 441600, Note_on_c, 3, 78, 100
5, 442080, Note_on_c, 3, 78, 0
5, 442080, Note_on_c, 3, 79, 100
5, 442320, Note_on_c, 3, 79, 0
5, 442320, Note_on_c, 3, 78, 100
5, 442560, Note_on_c, 3, 78, 0
5, 442560, Note_on_c, 3, 76, 100
5, 443040, Note_on_c, 3, 76, 0
5, 443040, Note_on_c, 3, 78, 100
5, 443520, Note_on_c, 3, 78, 0
5, 443520, Note_on_c, 3, 79, 100
5, 444480, Note_on_c, 3, 79, 0
5, 444480, Note_on_c, 3, 79, 100
5, 444960, Note_on_c, 3, 79, 0
5, 444960, Note_on_c, 3, 77, 100
5, 445440, Note_on_c, 3, 77, 0
5, 445440, Note_on_c, 3, 76, 100
5, 445920, Note_on_c, 3, 76, 0
5, 445920, Note_on_c, 3, 77, 100
5, 446160, Note_on_c, 3, 77, 0
5, 446160, Note_on_c, 3, 76, 100
5, 446400, Note_on_c, 3, 76, 0
5, 446400, Note_on_c, 3, 74, 100
5, 446880, Note_on_c, 3, 74, 0
5, 446880, Note_on_c, 3, 76, 100
5, 447360, Note_on_c, 3, 76, 0
5, 447360, Note_on_c, 3, 77, 100
5, 447840, Note_on_c, 3, 77, 0
5, 447840, Note_on_c, 3, 79, 100
5, 448080, Note_on_c, 3, 79, 0
5, 448080, Note_on_c, 3, 77, 100
5, 448320, Note_on_c, 3, 77, 0
5, 448320, Note_on_c, 3, 76, 100
5, 448800, Note_on_c, 3, 76, 0
5, 448800, Note_on_c, 3, 77, 100
5, 449040, Note_on_c, 3, 77, 0
5, 449040, Note_on_c, 3, 76, 100
5, 449280, Note_on_c, 3, 76, 0
5, 449280, Note_on_c, 3, 74, 100
5, 449760, Note_on_c, 3, 74, 0
5, 449760, Note_on_c, 3, 76, 100
5, 450000, Note_on_c, 3, 76, 0
5, 450000, Note_on_c, 3, 74, 100
5, 450240, Note_on_c, 3, 74, 0
5, 450240, Note_on_c, 3, 72, 100
5, 451680, Note_on_c, 3, 72, 0
5, 451680, Note_on_c, 3, 74, 100
5, 451920, Note_on_c, 3, 74, 0
5, 451920, Note_on_c, 3, 72, 100
5, 452160, Note_on_c, 3, 72, 0
5, 452160, Note_on_c, 3, 71, 100
5, 452640, Note_on_c, 3, 71, 0
5, 452640, Note_on_c, 3, 69, 100
5, 452880, Note_on_c, 3, 69, 0
5, 452880, Note_on_c, 3, 71, 100
5, 453120, Note_on_c, 3, 71, 0
5, 453120, Note_on_c, 3, 72, 100
5, 453600, Note_on_c, 3, 72, 0
5, 453600, Note_on_c, 3, 74, 100
5, 453840, Note_on_c, 3, 74, 0
5, 453840, Note_on_c, 3, 75, 100
5, 454080, Note_on_c, 3, 75, 0
5, 454080, Note_on_c, 3, 77, 100
5, 454560, Note_on_c, 3, 77, 0
5, 454560, Note_on_c, 3, 75, 100
5, 455040, Note_on_c, 3, 75, 0
5, 455040, Note_on_c, 3, 74, 100
5, 456000, Note_on_c, 3, 74, 0
5, 456480, Note_on_c, 3, 74, 100
5, 456960, Note_on_c, 3, 74, 0
5, 456960, Note_on_c, 3, 72, 100
5, 457920, Note_on_c, 3, 72, 0
5, 458400, Note_on_c, 3, 70, 100
5, 458880, Note_on_c, 3, 70, 0
5, 458880, Note_on_c, 3, 69, 100
5, 459360, Note_on_c, 3, 69, 0
5, 459360, Note_on_c, 3, 71, 100
5, 459600, Note_on_c, 3, 71, 0
5, 459600, Note_on_c, 3, 72, 100
5, 459840, Note_on_c, 3, 72, 0
5, 459840, Note_on_c, 3, 71, 100
5, 460320, Note_on_c, 3, 71, 0
5, 460320, Note_on_c, 3, 69, 100
5, 460800, Note_on_c, 3, 69, 0
5, 460800, Note_on_c, 3, 74, 100
5, 461280, Note_on_c, 3, 74, 0
5, 461760, Note_on_c, 3, 72, 100
5, 462240, Note_on_c, 3, 72, 0
5, 464640, Note_on_c, 3, 62, 100
5, 465600, Note_on_c, 3, 62, 0
5, 467520, Note_on_c, 3, 76, 100
5, 468000, Note_on_c, 3, 76, 0
5, 524400, Note_on_c, 3, 69, 100
5, 524640, Note_on_c, 3, 69, 0
5, 524640, Note_on_c, 3, 67, 100
5, 524880, Note_on_c, 3, 67, 0
5, 524880, Note_on_c, 3, 65, 100
5, 525120, Note_on_c, 3, 65, 0
5, 525120, Note_on_c, 3, 64, 100
5, 525360, Note_on_c, 3, 64, 0
5, 525600, Note_on_c, 3, 65, 100
5, 525840, Note_on_c, 3, 65, 0
5, 526080, Note_on_c, 3, 67, 100
5, 526320, Note_on_c, 3, 67, 0
5, 526560, Note_on_c, 3, 65, 100
5, 526800, Note_on_c, 3, 65, 0
5, 526800, Note_on_c, 3, 64, 100
5, 527040, Note_on_c, 3, 64, 0
5, 527040, Note_on_c, 3, 62, 100
5, 527280, Note_on_c, 3, 62, 0
5, 527520, Note_on_c, 3, 64, 100
5, 527760, Note_on_c, 3, 64, 0
5, 528000, Note_on_c, 3, 65, 100
5, 528240, Note_on_c, 3, 65, 0
5, 528480, Note_on_c, 3, 64, 100
5, 528720, Note_on_c, 3, 64, 0
5, 528960, Note_on_c, 3, 65, 100
5, 529200, Note_on_c, 3, 65, 0
5, 529440, Note_on_c, 3, 67, 100
5, 529680, Note_on_c, 3, 67, 0
5, 529680, Note_on_c, 3, 65, 100
5, 529920, Note_on_c, 3, 65, 0
5, 529920, Note_on_c, 3, 64, 100
5, 530160, Note_on_c, 3, 64, 0
5, 530400, Note_on_c, 3, 62, 100
5, 530640, Note_on_c, 3, 62, 0
5, 530880, Note_on_c, 3, 64, 100
5, 531120, Note_on_c, 3, 64, 0
5, 531360, Note_on_c, 3, 66, 100
5, 531840, Note_on_c, 3, 66, 0
5, 531840, Note_on_c, 3, 67, 100
5, 532080, Note_on_c, 3, 67, 0
5, 532320, Note_on_c, 3, 67, 100
5, 532560, Note_on_c, 3, 67, 0
5, 532800, Note_on_c, 3, 65, 100
5, 533040, Note_on_c, 3, 65, 0
5, 533280, Note_on_c, 3, 67, 100
5, 533520, Note_on_c, 3, 67, 0
5, 533760, Note_on_c, 3, 69, 100
5, 534000, Note_on_c, 3, 69, 0
5, 534240, Note_on_c, 3, 69, 100
5, 534480, Note_on_c, 3, 69, 0
5, 534720, Note_on_c, 3, 67, 100
5, 534960, Note_on_c, 3, 67, 0
5, 535200, Note_on_c, 3, 69, 100
5, 535440, Note_on_c, 3, 69, 0
5, 535680, Note_on_c, 3, 71, 100
5, 535920, Note_on_c, 3, 71, 0
5, 536160, Note_on_c, 3, 70, 100
5, 536400, Note_on_c, 3, 70, 0
5, 536640, Note_on_c, 3, 69, 100
5, 536880, Note_on_c, 3, 69, 0
5, 537120, Note_on_c, 3, 71, 100
5, 537360, Note_on_c, 3, 71, 0
5, 537600, Note_on_c, 3, 72, 100
5, 537840, Note_on_c, 3, 72, 0
5, 538080, Note_on_c, 3, 72, 100
5, 538320, Note_on_c, 3, 72, 0
5, 538560, Note_on_c, 3, 71, 100
5, 538800, Note_on_c, 3, 71, 0
5, 539040, Note_on_c, 3, 70, 100
5, 539280, Note_on_c, 3, 70, 0
5, 539520, Note_on_c, 3, 69, 100
5, 539760, Note_on_c, 3, 69, 0
5, 540000, Note_on_c, 3, 71, 100
5, 540480, Note_on_c, 3, 71, 0
5, 540480, Note_on_c, 3, 72, 100
5, 540720, Note_on_c, 3, 72, 0
5, 540960, Note_on_c, 3, 72, 100
5, 541200, Note_on_c, 3, 72, 0
5, 541440, Note_on_c, 3, 71, 100
5, 541680, Note_on_c, 3, 71, 0
5, 541920, Note_on_c, 3, 71, 100
5, 542160, Note_on_c, 3, 71, 0
5, 542400, Note_on_c, 3, 70, 100
5, 542640, Note_on_c, 3, 70, 0
5, 542880, Note_on_c, 3, 70, 100
5, 543120, Note_on_c, 3, 70, 0
5, 543360, Note_on_c, 3, 69, 100
5, 543600, Note_on_c, 3, 69, 0
5, 543840, Note_on_c, 3, 69, 100
5, 544080, Note_on_c, 3, 69, 0
5, 544320, Note_on_c, 3, 68, 100
5, 544560, Note_on_c, 3, 68, 0
5, 544800, Note_on_c, 3, 68, 100
5, 545280, Note_on_c, 3, 68, 0
5, 545280, Note_on_c, 3, 67, 100
5, 545520, Note_on_c, 3, 67, 0
5, 545760, Note_on_c, 3, 65, 100
5, 546000, Note_on_c, 3, 65, 0
5, 546240, Note_on_c, 3, 67, 100
5, 546480, Note_on_c, 3, 67, 0
5, 546720, Note_on_c, 3, 69, 100
5, 546960, Note_on_c, 3, 69, 0
5, 546960, Note_on_c, 3, 67, 100
5, 547200, Note_on_c, 3, 67, 0
5, 547200, Note_on_c, 3, 65, 100
5, 547440, Note_on_c, 3, 65, 0
5, 547680, Note_on_c, 3, 64, 100
5, 547920, Note_on_c, 3, 64, 0
5, 548160, Note_on_c, 3, 65, 100
5, 548400, Note_on_c, 3, 65, 0
5, 548640, Note_on_c, 3, 67, 100
5, 548880, Note_on_c, 3, 67, 0
5, 548880, Note_on_c, 3, 65, 100
5, 549120, Note_on_c, 3, 65, 0
5, 549120, Note_on_c, 3, 64, 100
5, 549360, Note_on_c, 3, 64, 0
5, 549600, Note_on_c, 3, 62, 100
5, 549840, Note_on_c, 3, 62, 0
5, 550080, Note_on_c, 3, 64, 100
5, 550320, Note_on_c, 3, 64, 0
5, 550560, Note_on_c, 3, 67, 100
5, 550800, Note_on_c, 3, 67, 0
5, 550800, Note_on_c, 3, 65, 100
5, 551040, Note_on_c, 3, 65, 0
5, 551040, Note_on_c, 3, 64, 100
5, 551280, Note_on_c, 3, 64, 0
5, 551520, Note_on_c, 3, 62, 100
5, 551760, Note_on_c, 3, 62, 0
5, 552000, Note_on_c, 3, 64, 100
5, 552240, Note_on_c, 3, 64, 0
5, 552480, Note_on_c, 3, 63, 100
5, 552720, Note_on_c, 3, 63, 0
5, 552960, Note_on_c, 3, 62, 100
5, 553920, Note_on_c, 3, 62, 0
5, 573120, Note_on_c, 3, 79, 100
5, 574080, Note_on_c, 3, 79, 0
5, 574080, Note_on_c, 3, 81, 100
5, 574560, Note_on_c, 3, 81, 0
5, 574560, Note_on_c, 3, 79, 100
5, 574800, Note_on_c, 3, 79, 0
5, 574800, Note_on_c, 3, 77, 100
5, 575040, Note_on_c, 3, 77, 0
5, 575040, Note_on_c, 3, 76, 100
5, 575520, Note_on_c, 3, 76, 0
5, 575520, Note_on_c, 3, 78, 100
5, 576000, Note_on_c, 3, 78, 0
5, 576000, Note_on_c, 3, 79, 100
5, 576960, Note_on_c, 3, 79, 0
5, 576960, Note_on_c, 3, 74, 100
5, 577440, Note_on_c, 3, 74, 0
5, 577440, Note_on_c, 3, 76, 100
5, 577920, Note_on_c, 3, 76, 0
5, 577920, Note_on_c, 3, 77, 100
5, 578400, Note_on_c, 3, 77, 0
5, 578400, Note_on_c, 3, 76, 100
5, 578880, Note_on_c, 3, 76, 0
5, 578880, Note_on_c, 3, 77, 100
5, 579360, Note_on_c, 3, 77, 0
5, 579360, Note_on_c, 3, 79, 100
5, 579600, Note_on_c, 3, 79, 0
5, 579600, Note_on_c, 3, 77, 100
5, 579840, Note_on_c, 3, 77, 0
5, 579840, Note_on_c, 3, 76, 100
5, 580320, Note_on_c, 3, 76, 0
5, 580320, Note_on_c, 3, 74, 100
5, 580800, Note_on_c, 3, 74, 0
5, 580800, Note_on_c, 3, 76, 100
5, 581280, Note_on_c, 3, 76, 0
5, 581280, Note_on_c, 3, 77, 100
5, 581760, Note_on_c, 3, 77, 0
5, 581760, Note_on_c, 3, 79, 100
5, 582240, Note_on_c, 3, 79, 0
5, 582240, Note_on_c, 3, 77, 100
5, 582720, Note_on_c, 3, 77, 0
5, 582720, Note_on_c, 3, 79, 100
5, 583200, Note_on_c, 3, 79, 0
5, 583200, Note_on_c, 3, 81, 100
5, 583440, Note_on_c, 3, 81, 0
5, 583440, Note_on_c, 3, 79, 100
5, 583680, Note_on_c, 3, 79, 0
5, 583680, Note_on_c, 3, 77, 100
5, 584160, Note_on_c, 3, 77, 0
5, 584160, Note_on_c, 3, 79, 100
5, 584640, Note_on_c, 3, 79, 0
5, 584640, Note_on_c, 3, 81, 100
5, 585600, Note_on_c, 3, 81, 0
5, 585600, Note_on_c, 3, 80, 100
5, 586560, Note_on_c, 3, 80, 0
5, 586560, Note_on_c, 3, 79, 100
5, 587520, Note_on_c, 3, 79, 0
5, 587520, Note_on_c, 3, 78, 100
5, 588480, Note_on_c, 3, 78, 0
5, 588480, Note_on_c, 3, 77, 100
5, 589440, Note_on_c, 3, 77, 0
5, 589440, Note_on_c, 3, 76, 100
5, 590400, Note_on_c, 3, 76, 0
5, 590400, Note_on_c, 3, 78, 100
5, 591360, Note_on_c, 3, 78, 0
5, 591840, Note_on_c, 3, 79, 100
5, 592080, Note_on_c, 3, 79, 0
5, 592080, Note_on_c, 3, 77, 100
5, 592320, Note_on_c, 3, 77, 0
5, 592320, Note_on_c, 3, 76, 100
5, 592800, Note_on_c, 3, 76, 0
5, 592800, Note_on_c, 3, 74, 100
5, 593280, Note_on_c, 3, 74, 0
5, 593280, Note_on_c, 3, 73, 100
5, 593760, Note_on_c, 3, 73, 0
5, 593760, Note_on_c, 3, 81, 100
5, 594000, Note_on_c, 3, 81, 0
5, 594000, Note_on_c, 3, 79, 100
5, 594240, Note_on_c, 3, 79, 0
5, 594240, Note_on_c, 3, 81, 100
5, 594720, Note_on_c, 3, 81, 0
5, 594720, Note_on_c, 3, 73, 100
5, 595200, Note_on_c, 3, 73, 0
5, 595200, Note_on_c, 3, 74, 100
5, 595680, Note_on_c, 3, 74, 0
5, 595680, Note_on_c, 3, 77, 100
5, 595920, Note_on_c, 3, 77, 0
5, 595920, Note_on_c, 3, 76, 100
5, 596160, Note_on_c, 3, 76, 0
5, 596160, Note_on_c, 3, 74, 100
5, 596640, Note_on_c, 3, 74, 0
5, 596640, Note_on_c, 3, 72, 100
5, 597120, Note_on_c, 3, 72, 0
5, 597120, Note_on_c, 3, 71, 100
5, 597600, Note_on_c, 3, 71, 0
5, 597600, Note_on_c, 3, 79, 100
5, 597840, Note_on_c, 3, 79, 0
5, 597840, Note_on_c, 3, 77, 100
5, 598080, Note_on_c, 3, 77, 0
5, 598080, Note_on_c, 3, 79, 100
5, 598560, Note_on_c, 3, 79, 0
5, 598560, Note_on_c, 3, 71, 100
5, 599040, Note_on_c, 3, 71, 0
5, 599040, Note_on_c, 3, 72, 100
5, 599520, Note_on_c, 3, 72, 0
5, 599520, Note_on_c, 3, 74, 100
5, 600000, Note_on_c, 3, 74, 0
5, 600000, Note_on_c, 3, 76, 100
5, 600960, Note_on_c, 3, 76, 0
5, 600960, Note_on_c, 3, 69, 100
5, 601920, Note_on_c, 3, 69, 0
5, 601920, Note_on_c, 3, 74, 100
5, 602880, Note_on_c, 3, 74, 0
5, 603120, Note_on_c, 3, 67, 100
5, 603360, Note_on_c, 3, 67, 0
5, 603360, Note_on_c, 3, 69, 100
5, 603600, Note_on_c, 3, 69, 0
5, 603600, Note_on_c, 3, 71, 100
5, 603840, Note_on_c, 3, 71, 0
5, 603840, Note_on_c, 3, 72, 100
5, 604800, Note_on_c, 3, 72, 0
5, 639360, Note_on_c, 3, 64, 100
5, 639600, Note_on_c, 3, 64, 0
5, 640320, Note_on_c, 3, 64, 100
5, 640800, Note_on_c, 3, 64, 0
5, 642240, Note_on_c, 3, 67, 100
5, 642720, Note_on_c, 3, 67, 0
5, 643200, Note_on_c, 3, 65, 100
5, 643680, Note_on_c, 3, 65, 0
5, 645120, Note_on_c, 3, 67, 100
5, 645600, Note_on_c, 3, 67, 0
5, 645600, Note_on_c, 3, 67, 100
5, 645840, Note_on_c, 3, 67, 0
5, 645840, Note_on_c, 3, 65, 100
5, 646080, Note_on_c, 3, 65, 0
5, 646080, Note_on_c, 3, 67, 100
5, 646560, Note_on_c, 3, 67, 0
5, 646560, Note_on_c, 3, 69, 100
5, 646800, Note_on_c, 3, 69, 0
5, 646800, Note_on_c, 3, 67, 100
5, 647040, Note_on_c, 3, 67, 0
5, 647040, Note_on_c, 3, 69, 100
5, 647520, Note_on_c, 3, 69, 0
5, 650880, Note_on_c, 3, 62, 100
5, 651360, Note_on_c, 3, 62, 0
5, 651840, Note_on_c, 3, 67, 100
5, 652320, Note_on_c, 3, 67, 0
5, 656640, Note_on_c, 3, 57, 100
5, 657120, Note_on_c, 3, 57, 0
5, 657120, Note_on_c, 3, 62, 100
5, 657360, Note_on_c, 3, 62, 0
5, 657360, Note_on_c, 3, 64, 100
5, 657600, Note_on_c, 3, 64, 0
5, 657600, Note_on_c, 3, 65, 100
5, 657840, Note_on_c, 3, 65, 0
5, 657840, Note_on_c, 3, 67, 100
5, 658080, Note_on_c, 3, 67, 0
5, 658080, Note_on_c, 3, 65, 100
5, 658320, Note_on_c, 3, 65, 0
5, 658320, Note_on_c, 3, 67, 100
5, 658560, Note_on_c, 3, 67, 0
5, 658560, Note_on_c, 3, 69, 100
5, 659040, Note_on_c, 3, 69, 0
5, 659040, Note_on_c, 3, 60, 100
5, 659280, Note_on_c, 3, 60, 0
5, 659280, Note_on_c, 3, 59, 100
5, 659520, Note_on_c, 3, 59, 0
5, 659520, Note_on_c, 3, 60, 100
5, 660000, Note_on_c, 3, 60, 0
5, 660000, Note_on_c, 3, 69, 100
5, 660480, Note_on_c, 3, 69, 0
5, 660480, Note_on_c, 3, 71, 100
5, 660960, Note_on_c, 3, 71, 0
5, 661440, Note_on_c, 3, 71, 100
5, 662400, Note_on_c, 3, 71, 0
5, 662400, Note_on_c, 3, 69, 100
5, 663360, Note_on_c, 3, 69, 0
5, 663360, Note_on_c, 3, 69, 100
5, 664320, Note_on_c, 3, 69, 0
5, 664320, Note_on_c, 3, 74, 100
5, 665280, Note_on_c, 3, 74, 0
5, 665280, Note_on_c, 3, 72, 100
5, 666240, Note_on_c, 3, 72, 0
5, 666240, Note_on_c, 3, 72, 100
5, 666720, Note_on_c, 3, 72, 0
5, 666720, Note_on_c, 3, 74, 100
5, 666960, Note_on_c, 3, 74, 0
5, 666960, Note_on_c, 3, 76, 100
5, 667200, Note_on_c, 3, 76, 0
5, 667200, Note_on_c, 3, 77, 100
5, 667440, Note_on_c, 3, 77, 0
5, 667440, Note_on_c, 3, 79, 100
5, 667680, Note_on_c, 3, 79, 0
5, 667680, Note_on_c, 3, 81, 100
5, 667920, Note_on_c, 3, 81, 0
5, 667920, Note_on_c, 3, 72, 100
5, 668160, Note_on_c, 3, 72, 0
5, 668160, Note_on_c, 3, 71, 100
5, 668400, Note_on_c, 3, 71, 0
5, 668400, Note_on_c, 3, 74, 100
5, 668640, Note_on_c, 3, 74, 0
5, 668640, Note_on_c, 3, 72, 100
5, 668880, Note_on_c, 3, 72, 0
5, 668880, Note_on_c, 3, 71, 100
5, 669120, Note_on_c, 3, 71, 0
5, 669120, Note_on_c, 3, 69, 100
5, 669360, Note_on_c, 3, 69, 0
5, 669360, Note_on_c, 3, 67, 100
5, 669600, Note_on_c, 3, 67, 0
5, 669600, Note_on_c, 3, 65, 100
5, 669840, Note_on_c, 3, 65, 0
5, 669840, Note_on_c, 3, 74, 100
5, 670080, Note_on_c, 3, 74, 0
5, 670080, Note_on_c, 3, 79, 100
5, 670320, Note_on_c, 3, 79, 0
5, 670320, Note_on_c, 3, 71, 100
5, 670560, Note_on_c, 3, 71, 0
5, 670560, Note_on_c, 3, 72, 100
5, 670800, Note_on_c, 3, 72, 0
5, 670800, Note_on_c, 3, 64, 100
5, 671040, Note_on_c, 3, 64, 0
5, 671040, Note_on_c, 3, 62, 100
5, 671280, Note_on_c, 3, 62, 0
5, 671280, Note_on_c, 3, 72, 100
5, 671520, Note_on_c, 3, 72, 0
5, 671520, Note_on_c, 3, 77, 100
5, 671760, Note_on_c, 3, 77, 0
5, 671760, Note_on_c, 3, 71, 100
5, 672000, Note_on_c, 3, 71, 0
5, 672000, Note_on_c, 3, 72, 100
5, 672240, Note_on_c, 3, 72, 0
5, 672240, Note_on_c, 3, 74, 100
5, 672480, Note_on_c, 3, 74, 0
5, 672480, Note_on_c, 3, 75, 100
5, 672720, Note_on_c, 3, 75, 0
5, 672720, Note_on_c, 3, 77, 100
5, 672960, Note_on_c, 3, 77, 0
5, 672960, Note_on_c, 3, 79, 100
5, 673200, Note_on_c, 3, 79, 0
5, 673200, Note_on_c, 3, 81, 100
5, 673440, Note_on_c, 3, 81, 0
5, 673440, Note_on_c, 3, 83, 100
5, 673680, Note_on_c, 3, 83, 0
5, 673680, Note_on_c, 3, 84, 100
5, 673920, Note_on_c, 3, 84, 0
5, 673920, Note_on_c, 3, 78, 100
5, 674160, Note_on_c, 3, 78, 0
5, 674160, Note_on_c, 3, 75, 100
5, 674400, Note_on_c, 3, 75, 0
5, 674400, Note_on_c, 3, 74, 100
5, 674640, Note_on_c, 3, 74, 0
5, 674640, Note_on_c, 3, 72, 100
5, 674880, Note_on_c, 3, 72, 0
5, 674880, Note_on_c, 3, 71, 100
5, 675120, Note_on_c, 3, 71, 0
5, 675120, Note_on_c, 3, 72, 100
5, 675360, Note_on_c, 3, 72, 0
5, 675360, Note_on_c, 3, 66, 100
5, 675600, Note_on_c, 3, 66, 0
5, 675600, Note_on_c, 3, 57, 100
5, 675840, Note_on_c, 3, 57, 0
5, 675840, Note_on_c, 3, 55, 100
5, 676080, Note_on_c, 3, 55, 0
5, 676080, Note_on_c, 3, 60, 100
5, 676320, Note_on_c, 3, 60, 0
5, 676320, Note_on_c, 3, 64, 100
5, 676560, Note_on_c, 3, 64, 0
5, 676560, Note_on_c, 3, 67, 100
5, 676800, Note_on_c, 3, 67, 0
5, 676800, Note_on_c, 3, 72, 100
5, 677040, Note_on_c, 3, 72, 0
5, 677040, Note_on_c, 3, 76, 100
5, 677280, Note_on_c, 3, 76, 0
5, 677280, Note_on_c, 3, 79, 100
5, 677520, Note_on_c, 3, 79, 0
5, 677520, Note_on_c, 3, 76, 100
5, 677760, Note_on_c, 3, 76, 0
5, 677760, Note_on_c, 3, 72, 100
5, 678000, Note_on_c, 3, 72, 0
5, 678000, Note_on_c, 3, 67, 100
5, 678240, Note_on_c, 3, 67, 0
5, 678240, Note_on_c, 3, 64, 100
5, 678480, Note_on_c, 3, 64, 0
5, 678480, Note_on_c, 3, 60, 100
5, 678720, Note_on_c, 3, 60, 0
5, 678720, Note_on_c, 3, 55, 100
5, 679200, Note_on_c, 3, 55, 0
5, 679200, Note_on_c, 3, 65, 100
5, 679680, Note_on_c, 3, 65, 0
5, 679680, Note_on_c, 3, 64, 100
5, 680640, Note_on_c, 3, 64, 0
5, 680640, End_track
6, 0, Start_track
6, 0, MIDI_port, 0
6, 0, Title_t, "--------------------------------------"
6, 0, End_track
7, 0, Start_track
7, 0, MIDI_port, 0
7, 0, Title_t, "Sonata No. 3 in C major - BWV 1005"
7, 0, End_track
8, 0, Start_track
8, 0, MIDI_port, 0
8, 0, Title_t, "2nd Movement: Fugue"
8, 0, End_track
9, 0, Start_track
9, 0, MIDI_port, 0
9, 0, Title_t, "--------------------------------------"
9, 0, End_track
10, 0, Start_track
10, 0, MIDI_port, 0
10, 0, Title_t, "Sequenced with Cakewalk Pro Audio by"
10, 0, End_track
11, 0, Start_track
11, 0, MIDI_port, 0
11, 0, Title_t, "David J. Grossman - dave@unpronounceable.com"
11, 0, End_track
12, 0, Start_track
12, 0, MIDI_port, 0
12, 0, Title_t, "This and other Bach MIDI files can be found at:"
12, 0, End_track
13, 0, Start_track
13, 0, MIDI_port, 0
13, 0, Title_t, "Dave's J.S. Bach Page"
13, 0, End_track
14, 0, Start_track
14, 0, MIDI_port, 0
14, 0, Title_t, "http://www.unpronounceable.com/bach"
14, 0, End_track
15, 0, Start_track
15, 0, MIDI_port, 0
15, 0, Title_t, "--------------------------------------"
15, 0, End_track
16, 0, Start_track
16, 0, MIDI_port, 0
16, 0, Title_t, "Original Filename: vs3-2fug.mid"
16, 0, End_track
17, 0, Start_track
17, 0, MIDI_port, 0
17, 0, Title_t, "Last Modified: February 22, 1997"
17, 0, End_track
0, 0, End_of_file
