0, 0, Header, 1, 17, 480
1, 0, Start_track
1, 0, Title_t, "untitled"
1, 0, SMPTE_offset, 96, 0, 3, 0, 0
1, 0, Time_signature, 3, 2, 24, 8
1, 0, Key_signature, 0, "major"
1, 0, Tempo, 1333333
1, 66240, Tempo, 1621622
1, 66240, End_track
2, 0, Start_track
2, 0, MIDI_port, 0
2, 0, Title_t, "Solo Violin"
2, 0, Program_c, 0, 40
2, 0, Control_c, 0, 7, 100
2, 0, Control_c, 0, 10, 79
2, 0, Control_c, 0, 7, 127
2, 0, Control_c, 0, 7, 127
2, 0, Control_c, 0, 7, 127
2, 0, Control_c, 0, 7, 127
2, 0, Control_c, 0, 7, 127
2, 0, Control_c, 0, 7, 127
2, 0, Control_c, 0, 7, 127
2, 0, Note_on_c, 0, 60, 100
2, 360, Note_on_c, 0, 60, 0
2, 360, Note_on_c, 0, 62, 100
2, 480, Note_on_c, 0, 62, 0
2, 480, Note_on_c, 0, 60, 100
2, 840, Note_on_c, 0, 60, 0
2, 840, Note_on_c, 0, 62, 100
2, 960, Note_on_c, 0, 62, 0
2, 960, Note_on_c, 0, 60, 100
2, 1320, Note_on_c, 0, 60, 0
2, 1320, Note_on_c, 0, 62, 100
2, 1440, Note_on_c, 0, 62, 0
2, 1440, Note_on_c, 0, 60, 100
2, 1920, Note_on_c, 0, 60, 0
2, 1920, Note_on_c, 0, 60, 100
2, 2400, Note_on_c, 0, 60, 0
2, 2400, Note_on_c, 0, 60, 100
2, 2880, Note_on_c, 0, 60, 0
2, 2880, Note_on_c, 0, 59, 100
2, 3360, Note_on_c, 0, 59, 0
2, 3360, Note_on_c, 0, 59, 100
2, 3840, Note_on_c, 0, 59, 0
2, 3840, Note_on_c, 0, 59, 100
2, 4320, Note_on_c, 0, 59, 0
2, 4320, Note_on_c, 0, 58, 100
2, 4800, Note_on_c, 0, 58, 0
2, 4800, Note_on_c, 0, 58, 100
2, 5280, Note_on_c, 0, 58, 0
2, 5280, Note_on_c, 0, 58, 100
2, 5760, Note_on_c, 0, 58, 0
2, 5760, Note_on_c, 0, 57, 100
2, 6240, Note_on_c, 0, 57, 0
2, 6240, Note_on_c, 0, 57, 100
2, 6720, Note_on_c, 0, 57, 0
2, 6720, Note_on_c, 0, 57, 100
2, 7200, Note_on_c, 0, 57, 0
2, 7200, Note_on_c, 0, 62, 100
2, 7680, Note_on_c, 0, 62, 0
2, 7680, Note_on_c, 0, 62, 100
2, 8160, Note_on_c, 0, 62, 0
2, 8160, Note_on_c, 0, 62, 100
2, 8640, Note_on_c, 0, 62, 0
2, 8640, Note_on_c, 0, 62, 100
2, 9120, Note_on_c, 0, 62, 0
2, 9120, Note_on_c, 0, 62, 100
2, 9600, Note_on_c, 0, 62, 0
2, 9600, Note_on_c, 0, 62, 100
2, 10080, Note_on_c, 0, 62, 0
2, 10080, Note_on_c, 0, 63, 100
2, 10560, Note_on_c, 0, 63, 0
2, 10560, Note_on_c, 0, 63, 100
2, 11040, Note_on_c, 0, 63, 0
2, 11040, Note_on_c, 0, 63, 100
2, 11520, Note_on_c, 0, 63, 0
2, 11520, Note_on_c, 0, 63, 100
2, 12000, Note_on_c, 0, 63, 0
2, 12000, Note_on_c, 0, 63, 100
2, 12480, Note_on_c, 0, 63, 0
2, 12480, Note_on_c, 0, 63, 100
2, 12960, Note_on_c, 0, 63, 0
2, 12960, Note_on_c, 0, 63, 100
2, 13440, Note_on_c, 0, 63, 0
2, 13440, Note_on_c, 0, 64, 100
2, 13920, Note_on_c, 0, 64, 0
2, 13920, Note_on_c, 0, 63, 100
2, 14400, Note_on_c, 0, 63, 0
2, 14400, Note_on_c, 0, 62, 100
2, 14880, Note_on_c, 0, 62, 0
2, 14880, Note_on_c, 0, 62, 100
2, 15840, Note_on_c, 0, 62, 0
2, 27360, Note_on_c, 0, 74, 100
2, 27720, Note_on_c, 0, 74, 0
2, 27720, Note_on_c, 0, 72, 100
2, 27840, Note_on_c, 0, 72, 0
2, 27840, Note_on_c, 0, 74, 100
2, 28200, Note_on_c, 0, 74, 0
2, 28200, Note_on_c, 0, 72, 100
2, 28320, Note_on_c, 0, 72, 0
2, 28320, Note_on_c, 0, 74, 100
2, 28680, Note_on_c, 0, 74, 0
2, 28680, Note_on_c, 0, 71, 100
2, 28800, Note_on_c, 0, 71, 0
2, 28800, Note_on_c, 0, 72, 100
2, 29280, Note_on_c, 0, 72, 0
2, 29280, Note_on_c, 0, 72, 100
2, 29760, Note_on_c, 0, 72, 0
2, 29760, Note_on_c, 0, 72, 100
2, 30240, Note_on_c, 0, 72, 0
2, 30240, Note_on_c, 0, 72, 100
2, 30600, Note_on_c, 0, 72, 0
2, 30600, Note_on_c, 0, 70, 100
2, 30720, Note_on_c, 0, 70, 0
2, 30720, Note_on_c, 0, 72, 100
2, 31080, Note_on_c, 0, 72, 0
2, 31080, Note_on_c, 0, 70, 100
2, 31200, Note_on_c, 0, 70, 0
2, 31200, Note_on_c, 0, 72, 100
2, 31560, Note_on_c, 0, 72, 0
2, 31560, Note_on_c, 0, 69, 100
2, 31680, Note_on_c, 0, 69, 0
2, 31680, Note_on_c, 0, 70, 100
2, 32040, Note_on_c, 0, 70, 0
2, 32040, Note_on_c, 0, 69, 100
2, 32160, Note_on_c, 0, 69, 0
2, 32160, Note_on_c, 0, 70, 100
2, 32520, Note_on_c, 0, 70, 0
2, 32520, Note_on_c, 0, 69, 100
2, 32640, Note_on_c, 0, 69, 0
2, 32640, Note_on_c, 0, 70, 100
2, 33120, Note_on_c, 0, 70, 0
2, 33120, Note_on_c, 0, 64, 100
2, 33600, Note_on_c, 0, 64, 0
2, 34080, Note_on_c, 0, 69, 100
2, 34560, Note_on_c, 0, 69, 0
2, 34560, Note_on_c, 0, 69, 100
2, 35040, Note_on_c, 0, 69, 0
2, 36000, Note_on_c, 0, 62, 100
2, 36480, Note_on_c, 0, 62, 0
2, 36480, Note_on_c, 0, 62, 100
2, 36960, Note_on_c, 0, 62, 0
2, 36960, Note_on_c, 0, 62, 100
2, 37440, Note_on_c, 0, 62, 0
2, 37440, Note_on_c, 0, 64, 100
2, 37800, Note_on_c, 0, 64, 0
2, 37800, Note_on_c, 0, 62, 100
2, 37920, Note_on_c, 0, 62, 0
2, 37920, Note_on_c, 0, 64, 100
2, 38280, Note_on_c, 0, 64, 0
2, 38280, Note_on_c, 0, 65, 100
2, 38400, Note_on_c, 0, 65, 0
2, 38400, Note_on_c, 0, 67, 100
2, 38880, Note_on_c, 0, 67, 0
2, 38880, Note_on_c, 0, 65, 100
2, 39240, Note_on_c, 0, 65, 0
2, 39240, Note_on_c, 0, 64, 100
2, 39360, Note_on_c, 0, 64, 0
2, 39360, Note_on_c, 0, 65, 100
2, 39720, Note_on_c, 0, 65, 0
2, 39720, Note_on_c, 0, 64, 100
2, 39840, Note_on_c, 0, 64, 0
2, 39840, Note_on_c, 0, 62, 100
2, 40200, Note_on_c, 0, 62, 0
2, 40200, Note_on_c, 0, 60, 100
2, 40320, Note_on_c, 0, 60, 0
2, 40320, Note_on_c, 0, 59, 100
2, 40800, Note_on_c, 0, 59, 0
2, 41280, Note_on_c, 0, 60, 100
2, 41640, Note_on_c, 0, 60, 0
2, 41640, Note_on_c, 0, 59, 100
2, 41760, Note_on_c, 0, 59, 0
2, 41760, Note_on_c, 0, 57, 100
2, 42240, Note_on_c, 0, 57, 0
2, 42240, Note_on_c, 0, 57, 100
2, 42720, Note_on_c, 0, 57, 0
2, 42720, Note_on_c, 0, 57, 100
2, 43200, Note_on_c, 0, 57, 0
2, 43200, Note_on_c, 0, 55, 100
2, 43680, Note_on_c, 0, 55, 0
2, 43680, Note_on_c, 0, 55, 100
2, 44160, Note_on_c, 0, 55, 0
2, 44160, Note_on_c, 0, 55, 100
2, 44640, Note_on_c, 0, 55, 0
2, 44640, Note_on_c, 0, 55, 100
2, 45120, Note_on_c, 0, 55, 0
2, 45120, Note_on_c, 0, 55, 100
2, 45600, Note_on_c, 0, 55, 0
2, 45600, Note_on_c, 0, 55, 100
2, 46080, Note_on_c, 0, 55, 0
2, 46080, Note_on_c, 0, 55, 100
2, 46560, Note_on_c, 0, 55, 0
2, 46560, Note_on_c, 0, 55, 100
2, 47040, Note_on_c, 0, 55, 0
2, 47040, Note_on_c, 0, 55, 100
2, 47520, Note_on_c, 0, 55, 0
2, 47520, Note_on_c, 0, 55, 100
2, 48000, Note_on_c, 0, 55, 0
2, 54720, Note_on_c, 0, 67, 100
2, 54960, Note_on_c, 0, 67, 0
2, 55200, Note_on_c, 0, 67, 100
2, 55680, Note_on_c, 0, 67, 0
2, 55680, Note_on_c, 0, 62, 100
2, 56160, Note_on_c, 0, 62, 0
2, 56160, Note_on_c, 0, 62, 100
2, 56760, Note_on_c, 0, 62, 0
2, 56760, Note_on_c, 0, 63, 100
2, 56880, Note_on_c, 0, 63, 0
2, 56880, Note_on_c, 0, 65, 100
2, 57000, Note_on_c, 0, 65, 0
2, 57000, Note_on_c, 0, 67, 100
2, 57120, Note_on_c, 0, 67, 0
2, 57120, Note_on_c, 0, 69, 100
2, 57240, Note_on_c, 0, 69, 0
2, 57240, Note_on_c, 0, 71, 100
2, 57360, Note_on_c, 0, 71, 0
2, 57360, Note_on_c, 0, 72, 100
2, 57420, Note_on_c, 0, 72, 0
2, 57420, Note_on_c, 0, 74, 100
2, 57480, Note_on_c, 0, 74, 0
2, 57480, Note_on_c, 0, 75, 100
2, 57540, Note_on_c, 0, 75, 0
2, 57540, Note_on_c, 0, 71, 100
2, 57600, Note_on_c, 0, 71, 0
2, 57600, Note_on_c, 0, 72, 100
2, 58200, Note_on_c, 0, 72, 0
2, 59040, Note_on_c, 0, 74, 100
2, 59640, Note_on_c, 0, 74, 0
2, 59640, Note_on_c, 0, 75, 100
2, 59760, Note_on_c, 0, 75, 0
2, 59760, Note_on_c, 0, 74, 100
2, 59880, Note_on_c, 0, 74, 0
2, 59880, Note_on_c, 0, 72, 100
2, 60000, Note_on_c, 0, 72, 0
2, 60000, Note_on_c, 0, 71, 100
2, 60060, Note_on_c, 0, 71, 0
2, 60060, Note_on_c, 0, 69, 100
2, 60120, Note_on_c, 0, 69, 0
2, 60120, Note_on_c, 0, 67, 100
2, 60180, Note_on_c, 0, 67, 0
2, 60180, Note_on_c, 0, 65, 100
2, 60240, Note_on_c, 0, 65, 0
2, 60240, Note_on_c, 0, 63, 100
2, 60300, Note_on_c, 0, 63, 0
2, 60300, Note_on_c, 0, 65, 100
2, 60360, Note_on_c, 0, 65, 0
2, 60360, Note_on_c, 0, 62, 100
2, 60480, Note_on_c, 0, 62, 0
2, 60480, Note_on_c, 0, 63, 100
2, 60840, Note_on_c, 0, 63, 0
2, 60840, Note_on_c, 0, 62, 100
2, 60960, Note_on_c, 0, 62, 0
2, 60960, Note_on_c, 0, 63, 100
2, 61320, Note_on_c, 0, 63, 0
2, 61320, Note_on_c, 0, 62, 100
2, 61440, Note_on_c, 0, 62, 0
2, 61440, Note_on_c, 0, 63, 100
2, 61800, Note_on_c, 0, 63, 0
2, 61800, Note_on_c, 0, 71, 100
2, 61920, Note_on_c, 0, 71, 0
2, 61920, Note_on_c, 0, 72, 100
2, 62160, Note_on_c, 0, 72, 0
2, 62160, Note_on_c, 0, 75, 100
2, 62280, Note_on_c, 0, 75, 0
2, 62280, Note_on_c, 0, 74, 100
2, 62400, Note_on_c, 0, 74, 0
2, 62400, Note_on_c, 0, 72, 100
2, 62880, Note_on_c, 0, 72, 0
2, 62880, Pitch_bend_c, 0, 12288
2, 62880, Note_on_c, 0, 71, 100
2, 62920, Pitch_bend_c, 0, 8192
2, 62960, Pitch_bend_c, 0, 12288
2, 63000, Pitch_bend_c, 0, 8192
2, 63240, Note_on_c, 0, 71, 0
2, 63240, Note_on_c, 0, 72, 100
2, 63360, Note_on_c, 0, 72, 0
2, 63360, Note_on_c, 0, 72, 100
2, 63600, Note_on_c, 0, 72, 0
2, 66240, Note_on_c, 0, 67, 100
2, 67680, Note_on_c, 0, 67, 0
2, 67680, End_track
3, 0, Start_track
3, 0, MIDI_port, 0
3, 0, Title_t, "--------------------------------------"
3, 0, Program_c, 1, 40
3, 0, Control_c, 1, 7, 100
3, 0, Control_c, 1, 10, 69
3, 1440, Note_on_c, 1, 62, 100
3, 1800, Note_on_c, 1, 62, 0
3, 1800, Note_on_c, 1, 64, 100
3, 1920, Note_on_c, 1, 64, 0
3, 1920, Note_on_c, 1, 62, 100
3, 2280, Note_on_c, 1, 62, 0
3, 2280, Note_on_c, 1, 64, 100
3, 2400, Note_on_c, 1, 64, 0
3, 2400, Note_on_c, 1, 62, 100
3, 2760, Note_on_c, 1, 62, 0
3, 2760, Note_on_c, 1, 64, 100
3, 2880, Note_on_c, 1, 64, 0
3, 2880, Note_on_c, 1, 65, 100
3, 3360, Note_on_c, 1, 65, 0
3, 3360, Note_on_c, 1, 62, 100
3, 3840, Note_on_c, 1, 62, 0
3, 3840, Note_on_c, 1, 67, 100
3, 4320, Note_on_c, 1, 67, 0
3, 4320, Note_on_c, 1, 67, 100
3, 4800, Note_on_c, 1, 67, 0
3, 4800, Note_on_c, 1, 67, 100
3, 5280, Note_on_c, 1, 67, 0
3, 5280, Note_on_c, 1, 67, 100
3, 5760, Note_on_c, 1, 67, 0
3, 5760, Note_on_c, 1, 67, 100
3, 6240, Note_on_c, 1, 67, 0
3, 6240, Note_on_c, 1, 67, 100
3, 6720, Note_on_c, 1, 67, 0
3, 6720, Note_on_c, 1, 67, 100
3, 7200, Note_on_c, 1, 67, 0
3, 7200, Note_on_c, 1, 69, 100
3, 7560, Note_on_c, 1, 69, 0
3, 7560, Note_on_c, 1, 71, 100
3, 7680, Note_on_c, 1, 71, 0
3, 7680, Note_on_c, 1, 69, 100
3, 8040, Note_on_c, 1, 69, 0
3, 8040, Note_on_c, 1, 71, 100
3, 8160, Note_on_c, 1, 71, 0
3, 8160, Note_on_c, 1, 69, 100
3, 8520, Note_on_c, 1, 69, 0
3, 8520, Note_on_c, 1, 71, 100
3, 8640, Note_on_c, 1, 71, 0
3, 8640, Note_on_c, 1, 72, 100
3, 8880, Note_on_c, 1, 72, 0
3, 8880, Note_on_c, 1, 75, 100
3, 9120, Note_on_c, 1, 75, 0
3, 9120, Note_on_c, 1, 75, 100
3, 9360, Note_on_c, 1, 75, 0
3, 9360, Note_on_c, 1, 74, 100
3, 9600, Note_on_c, 1, 74, 0
3, 9600, Note_on_c, 1, 74, 100
3, 9840, Note_on_c, 1, 74, 0
3, 9840, Note_on_c, 1, 72, 100
3, 10080, Note_on_c, 1, 72, 0
3, 10080, Note_on_c, 1, 71, 100
3, 10560, Note_on_c, 1, 71, 0
3, 10560, Note_on_c, 1, 71, 100
3, 11040, Note_on_c, 1, 71, 0
3, 11040, Note_on_c, 1, 71, 100
3, 11520, Note_on_c, 1, 71, 0
3, 11520, Note_on_c, 1, 72, 100
3, 12000, Note_on_c, 1, 72, 0
3, 12000, Note_on_c, 1, 69, 100
3, 12480, Note_on_c, 1, 69, 0
3, 12480, Note_on_c, 1, 71, 100
3, 12960, Note_on_c, 1, 71, 0
3, 12960, Note_on_c, 1, 72, 100
3, 13440, Note_on_c, 1, 72, 0
3, 13440, Note_on_c, 1, 73, 100
3, 13920, Note_on_c, 1, 73, 0
3, 13920, Note_on_c, 1, 72, 100
3, 14400, Note_on_c, 1, 72, 0
3, 14400, Note_on_c, 1, 71, 100
3, 14640, Note_on_c, 1, 71, 0
3, 14640, Note_on_c, 1, 72, 100
3, 14880, Note_on_c, 1, 72, 0
3, 14880, Note_on_c, 1, 69, 100
3, 15840, Note_on_c, 1, 69, 0
3, 17280, Note_on_c, 1, 67, 100
3, 17640, Note_on_c, 1, 67, 0
3, 17640, Note_on_c, 1, 66, 100
3, 17760, Note_on_c, 1, 66, 0
3, 17760, Note_on_c, 1, 67, 100
3, 18120, Note_on_c, 1, 67, 0
3, 18120, Note_on_c, 1, 66, 100
3, 18240, Note_on_c, 1, 66, 0
3, 18240, Note_on_c, 1, 67, 100
3, 18720, Note_on_c, 1, 67, 0
3, 19200, Note_on_c, 1, 62, 100
3, 20160, Note_on_c, 1, 62, 0
3, 20160, Note_on_c, 1, 55, 100
3, 20520, Note_on_c, 1, 55, 0
3, 20520, Note_on_c, 1, 57, 100
3, 20640, Note_on_c, 1, 57, 0
3, 20640, Note_on_c, 1, 55, 100
3, 21000, Note_on_c, 1, 55, 0
3, 21000, Note_on_c, 1, 57, 100
3, 21120, Note_on_c, 1, 57, 0
3, 21120, Note_on_c, 1, 55, 100
3, 21480, Note_on_c, 1, 55, 0
3, 21480, Note_on_c, 1, 59, 100
3, 21600, Note_on_c, 1, 59, 0
3, 21600, Note_on_c, 1, 57, 100
3, 22080, Note_on_c, 1, 57, 0
3, 22080, Note_on_c, 1, 57, 100
3, 22560, Note_on_c, 1, 57, 0
3, 22560, Note_on_c, 1, 57, 100
3, 23040, Note_on_c, 1, 57, 0
3, 23040, Note_on_c, 1, 57, 100
3, 23520, Note_on_c, 1, 57, 0
3, 23520, Note_on_c, 1, 57, 100
3, 24000, Note_on_c, 1, 57, 0
3, 24000, Note_on_c, 1, 57, 100
3, 24480, Note_on_c, 1, 57, 0
3, 24480, Note_on_c, 1, 57, 100
3, 24840, Note_on_c, 1, 57, 0
3, 24840, Note_on_c, 1, 59, 100
3, 24960, Note_on_c, 1, 59, 0
3, 24960, Note_on_c, 1, 57, 100
3, 25320, Note_on_c, 1, 57, 0
3, 25320, Note_on_c, 1, 59, 100
3, 25440, Note_on_c, 1, 59, 0
3, 25440, Note_on_c, 1, 57, 100
3, 25800, Note_on_c, 1, 57, 0
3, 25800, Note_on_c, 1, 60, 100
3, 25920, Note_on_c, 1, 60, 0
3, 25920, Note_on_c, 1, 59, 100
3, 26400, Note_on_c, 1, 59, 0
3, 26400, Note_on_c, 1, 59, 100
3, 26880, Note_on_c, 1, 59, 0
3, 26880, Note_on_c, 1, 59, 100
3, 27360, Note_on_c, 1, 59, 0
3, 27360, Note_on_c, 1, 60, 100
3, 27840, Note_on_c, 1, 60, 0
3, 27840, Note_on_c, 1, 60, 100
3, 28320, Note_on_c, 1, 60, 0
3, 28320, Note_on_c, 1, 60, 100
3, 28800, Note_on_c, 1, 60, 0
3, 28800, Note_on_c, 1, 58, 100
3, 29280, Note_on_c, 1, 58, 0
3, 29280, Note_on_c, 1, 58, 100
3, 29760, Note_on_c, 1, 58, 0
3, 29760, Note_on_c, 1, 58, 100
3, 30240, Note_on_c, 1, 58, 0
3, 30240, Note_on_c, 1, 57, 100
3, 30720, Note_on_c, 1, 57, 0
3, 31200, Note_on_c, 1, 62, 100
3, 31680, Note_on_c, 1, 62, 0
3, 31680, Note_on_c, 1, 55, 100
3, 32160, Note_on_c, 1, 55, 0
3, 32640, Note_on_c, 1, 55, 100
3, 33120, Note_on_c, 1, 55, 0
3, 33120, Note_on_c, 1, 61, 100
3, 33600, Note_on_c, 1, 61, 0
3, 34080, Note_on_c, 1, 61, 100
3, 34560, Note_on_c, 1, 61, 0
3, 34560, Note_on_c, 1, 62, 100
3, 35040, Note_on_c, 1, 62, 0
3, 36000, Note_on_c, 1, 55, 100
3, 36480, Note_on_c, 1, 55, 0
3, 36480, Note_on_c, 1, 55, 100
3, 36960, Note_on_c, 1, 55, 0
3, 36960, Note_on_c, 1, 55, 100
3, 37440, Note_on_c, 1, 55, 0
3, 37440, Note_on_c, 1, 60, 100
3, 37920, Note_on_c, 1, 60, 0
3, 38400, Note_on_c, 1, 60, 100
3, 38880, Note_on_c, 1, 60, 0
3, 40320, Note_on_c, 1, 74, 100
3, 40800, Note_on_c, 1, 74, 0
3, 41280, Note_on_c, 1, 67, 100
3, 41640, Note_on_c, 1, 67, 0
3, 41640, Note_on_c, 1, 67, 100
3, 41760, Note_on_c, 1, 67, 0
3, 41760, Note_on_c, 1, 66, 100
3, 42120, Note_on_c, 1, 66, 0
3, 42120, Note_on_c, 1, 69, 100
3, 42240, Note_on_c, 1, 69, 0
3, 42240, Note_on_c, 1, 72, 100
3, 42600, Note_on_c, 1, 72, 0
3, 42600, Note_on_c, 1, 76, 100
3, 42720, Note_on_c, 1, 76, 0
3, 42720, Note_on_c, 1, 74, 100
3, 43080, Note_on_c, 1, 74, 0
3, 43080, Note_on_c, 1, 72, 100
3, 43200, Note_on_c, 1, 72, 0
3, 43200, Note_on_c, 1, 71, 100
3, 43560, Note_on_c, 1, 71, 0
3, 43560, Note_on_c, 1, 72, 100
3, 43680, Note_on_c, 1, 72, 0
3, 43680, Note_on_c, 1, 74, 100
3, 44160, Note_on_c, 1, 74, 0
3, 44160, Note_on_c, 1, 74, 100
3, 44640, Note_on_c, 1, 74, 0
3, 44640, Note_on_c, 1, 74, 100
3, 45000, Note_on_c, 1, 74, 0
3, 45000, Note_on_c, 1, 72, 100
3, 45120, Note_on_c, 1, 72, 0
3, 45120, Note_on_c, 1, 74, 100
3, 45480, Note_on_c, 1, 74, 0
3, 45480, Note_on_c, 1, 71, 100
3, 45600, Note_on_c, 1, 71, 0
3, 45600, Note_on_c, 1, 72, 100
3, 45960, Note_on_c, 1, 72, 0
3, 45960, Note_on_c, 1, 74, 100
3, 46080, Note_on_c, 1, 74, 0
3, 46080, Note_on_c, 1, 76, 100
3, 46440, Note_on_c, 1, 76, 0
3, 46440, Note_on_c, 1, 78, 100
3, 46560, Note_on_c, 1, 78, 0
3, 46560, Note_on_c, 1, 78, 100
3, 46920, Note_on_c, 1, 78, 0
3, 46920, Note_on_c, 1, 79, 100
3, 47040, Note_on_c, 1, 79, 0
3, 47040, Note_on_c, 1, 76, 100
3, 47400, Note_on_c, 1, 76, 0
3, 47400, Note_on_c, 1, 78, 100
3, 47520, Note_on_c, 1, 78, 0
3, 47520, Note_on_c, 1, 79, 100
3, 48000, Note_on_c, 1, 79, 0
3, 48000, Note_on_c, 1, 79, 100
3, 49440, Note_on_c, 1, 79, 0
3, 49440, Note_on_c, 1, 77, 100
3, 50880, Note_on_c, 1, 77, 0
3, 50880, Note_on_c, 1, 76, 100
3, 51840, Note_on_c, 1, 76, 0
3, 51840, Note_on_c, 1, 81, 100
3, 52320, Note_on_c, 1, 81, 0
3, 52680, Note_on_c, 1, 81, 100
3, 52800, Note_on_c, 1, 81, 0
3, 52800, Note_on_c, 1, 83, 100
3, 53160, Note_on_c, 1, 83, 0
3, 53160, Note_on_c, 1, 84, 100
3, 53280, Note_on_c, 1, 84, 0
3, 53280, Note_on_c, 1, 79, 100
3, 54000, Note_on_c, 1, 79, 0
3, 54000, Note_on_c, 1, 81, 100
3, 54240, Note_on_c, 1, 81, 0
3, 54240, Note_on_c, 1, 79, 100
3, 54360, Note_on_c, 1, 79, 0
3, 54360, Note_on_c, 1, 77, 100
3, 54720, Note_on_c, 1, 77, 0
3, 54720, Note_on_c, 1, 76, 100
3, 54900, Note_on_c, 1, 76, 0
3, 54900, Note_on_c, 1, 77, 100
3, 54960, Note_on_c, 1, 77, 0
3, 54960, Note_on_c, 1, 79, 100
3, 55020, Note_on_c, 1, 79, 0
3, 55020, Note_on_c, 1, 81, 100
3, 55080, Note_on_c, 1, 81, 0
3, 55080, Note_on_c, 1, 78, 100
3, 55140, Note_on_c, 1, 78, 0
3, 55140, Note_on_c, 1, 79, 100
3, 55200, Note_on_c, 1, 79, 0
3, 55200, Note_on_c, 1, 72, 100
3, 55500, Note_on_c, 1, 72, 0
3, 55500, Note_on_c, 1, 71, 100
3, 55560, Note_on_c, 1, 71, 0
3, 55560, Note_on_c, 1, 69, 100
3, 55620, Note_on_c, 1, 69, 0
3, 55620, Note_on_c, 1, 71, 100
3, 55680, Note_on_c, 1, 71, 0
3, 55680, Pitch_bend_c, 1, 12288
3, 55680, Note_on_c, 1, 71, 100
3, 55720, Pitch_bend_c, 1, 8192
3, 55760, Pitch_bend_c, 1, 12288
3, 55800, Pitch_bend_c, 1, 8192
3, 56040, Note_on_c, 1, 71, 0
3, 56040, Note_on_c, 1, 72, 100
3, 56160, Note_on_c, 1, 72, 0
3, 56160, Note_on_c, 1, 72, 100
3, 56760, Note_on_c, 1, 72, 0
3, 57600, Note_on_c, 1, 66, 100
3, 58200, Note_on_c, 1, 66, 0
3, 59040, Note_on_c, 1, 59, 100
3, 59640, Note_on_c, 1, 59, 0
3, 60480, Note_on_c, 1, 60, 100
3, 60840, Note_on_c, 1, 60, 0
3, 60840, Note_on_c, 1, 59, 100
3, 60960, Note_on_c, 1, 59, 0
3, 60960, Note_on_c, 1, 60, 100
3, 61320, Note_on_c, 1, 60, 0
3, 61320, Note_on_c, 1, 59, 100
3, 61440, Note_on_c, 1, 59, 0
3, 61440, Note_on_c, 1, 60, 100
3, 61800, Note_on_c, 1, 60, 0
3, 61800, Note_on_c, 1, 62, 100
3, 61920, Note_on_c, 1, 62, 0
3, 61920, Note_on_c, 1, 63, 100
3, 62160, Note_on_c, 1, 63, 0
3, 62160, Note_on_c, 1, 66, 100
3, 62400, Note_on_c, 1, 66, 0
3, 62400, Note_on_c, 1, 67, 100
3, 62880, Note_on_c, 1, 67, 0
3, 63360, Note_on_c, 1, 64, 100
3, 63600, Note_on_c, 1, 64, 0
3, 66240, Note_on_c, 1, 55, 100
3, 67680, Note_on_c, 1, 55, 0
3, 67680, End_track
4, 0, Start_track
4, 0, MIDI_port, 0
4, 0, Title_t, "Johann Sebastian Bach  (1685-1750)"
4, 0, Program_c, 2, 40
4, 0, Control_c, 2, 7, 100
4, 0, Control_c, 2, 10, 59
4, 2880, Note_on_c, 2, 74, 100
4, 3240, Note_on_c, 2, 74, 0
4, 3240, Note_on_c, 2, 76, 100
4, 3360, Note_on_c, 2, 76, 0
4, 3360, Note_on_c, 2, 74, 100
4, 3720, Note_on_c, 2, 74, 0
4, 3720, Note_on_c, 2, 76, 100
4, 3840, Note_on_c, 2, 76, 0
4, 3840, Note_on_c, 2, 74, 100
4, 4200, Note_on_c, 2, 74, 0
4, 4200, Note_on_c, 2, 77, 100
4, 4320, Note_on_c, 2, 77, 0
4, 4320, Note_on_c, 2, 74, 100
4, 4800, Note_on_c, 2, 74, 0
4, 4800, Note_on_c, 2, 74, 100
4, 5280, Note_on_c, 2, 74, 0
4, 5280, Note_on_c, 2, 74, 100
4, 5760, Note_on_c, 2, 74, 0
4, 5760, Note_on_c, 2, 73, 100
4, 6240, Note_on_c, 2, 73, 0
4, 6240, Note_on_c, 2, 73, 100
4, 6720, Note_on_c, 2, 73, 0
4, 6720, Note_on_c, 2, 73, 100
4, 7200, Note_on_c, 2, 73, 0
4, 21600, Note_on_c, 2, 72, 100
4, 22080, Note_on_c, 2, 72, 0
4, 22080, Note_on_c, 2, 72, 100
4, 22560, Note_on_c, 2, 72, 0
4, 22560, Note_on_c, 2, 72, 100
4, 23040, Note_on_c, 2, 72, 0
4, 23040, Note_on_c, 2, 72, 100
4, 23400, Note_on_c, 2, 72, 0
4, 23400, Note_on_c, 2, 74, 100
4, 23520, Note_on_c, 2, 74, 0
4, 23520, Note_on_c, 2, 72, 100
4, 23880, Note_on_c, 2, 72, 0
4, 23880, Note_on_c, 2, 74, 100
4, 24000, Note_on_c, 2, 74, 0
4, 24000, Note_on_c, 2, 72, 100
4, 24360, Note_on_c, 2, 72, 0
4, 24360, Note_on_c, 2, 76, 100
4, 24480, Note_on_c, 2, 76, 0
4, 24480, Note_on_c, 2, 74, 100
4, 24960, Note_on_c, 2, 74, 0
4, 24960, Note_on_c, 2, 74, 100
4, 25440, Note_on_c, 2, 74, 0
4, 25440, Note_on_c, 2, 74, 100
4, 25920, Note_on_c, 2, 74, 0
4, 25920, Note_on_c, 2, 74, 100
4, 26280, Note_on_c, 2, 74, 0
4, 26280, Note_on_c, 2, 76, 100
4, 26400, Note_on_c, 2, 76, 0
4, 26400, Note_on_c, 2, 74, 100
4, 26760, Note_on_c, 2, 74, 0
4, 26760, Note_on_c, 2, 76, 100
4, 26880, Note_on_c, 2, 76, 0
4, 26880, Note_on_c, 2, 74, 100
4, 27240, Note_on_c, 2, 74, 0
4, 27240, Note_on_c, 2, 77, 100
4, 27360, Note_on_c, 2, 77, 0
4, 27360, Note_on_c, 2, 76, 100
4, 27840, Note_on_c, 2, 76, 0
4, 27840, Note_on_c, 2, 76, 100
4, 28320, Note_on_c, 2, 76, 0
4, 28320, Note_on_c, 2, 76, 100
4, 28800, Note_on_c, 2, 76, 0
4, 28800, Note_on_c, 2, 76, 100
4, 29160, Note_on_c, 2, 76, 0
4, 29160, Note_on_c, 2, 77, 100
4, 29280, Note_on_c, 2, 77, 0
4, 29280, Note_on_c, 2, 76, 100
4, 29640, Note_on_c, 2, 76, 0
4, 29640, Note_on_c, 2, 77, 100
4, 29760, Note_on_c, 2, 77, 0
4, 29760, Note_on_c, 2, 76, 100
4, 30120, Note_on_c, 2, 76, 0
4, 30120, Note_on_c, 2, 79, 100
4, 30240, Note_on_c, 2, 79, 0
4, 30240, Note_on_c, 2, 77, 100
4, 30720, Note_on_c, 2, 77, 0
4, 31200, Note_on_c, 2, 77, 100
4, 31680, Note_on_c, 2, 77, 0
4, 31680, Note_on_c, 2, 77, 100
4, 32160, Note_on_c, 2, 77, 0
4, 32640, Note_on_c, 2, 76, 100
4, 33000, Note_on_c, 2, 76, 0
4, 33000, Note_on_c, 2, 77, 100
4, 33120, Note_on_c, 2, 77, 0
4, 33120, Note_on_c, 2, 79, 100
4, 33480, Note_on_c, 2, 79, 0
4, 33480, Note_on_c, 2, 77, 100
4, 33600, Note_on_c, 2, 77, 0
4, 33600, Note_on_c, 2, 79, 100
4, 33960, Note_on_c, 2, 79, 0
4, 33960, Note_on_c, 2, 77, 100
4, 34080, Note_on_c, 2, 77, 0
4, 34080, Note_on_c, 2, 79, 100
4, 34440, Note_on_c, 2, 79, 0
4, 34440, Note_on_c, 2, 76, 100
4, 34560, Note_on_c, 2, 76, 0
4, 34560, Note_on_c, 2, 77, 100
4, 34920, Note_on_c, 2, 77, 0
4, 34920, Note_on_c, 2, 76, 100
4, 35040, Note_on_c, 2, 76, 0
4, 35040, Note_on_c, 2, 77, 100
4, 35400, Note_on_c, 2, 77, 0
4, 35400, Note_on_c, 2, 76, 100
4, 35520, Note_on_c, 2, 76, 0
4, 35520, Note_on_c, 2, 77, 100
4, 36000, Note_on_c, 2, 77, 0
4, 36000, Note_on_c, 2, 77, 100
4, 36360, Note_on_c, 2, 77, 0
4, 36360, Note_on_c, 2, 76, 100
4, 36480, Note_on_c, 2, 76, 0
4, 36480, Note_on_c, 2, 77, 100
4, 36840, Note_on_c, 2, 77, 0
4, 36840, Note_on_c, 2, 81, 100
4, 36960, Note_on_c, 2, 81, 0
4, 36960, Note_on_c, 2, 79, 100
4, 37320, Note_on_c, 2, 79, 0
4, 37320, Note_on_c, 2, 77, 100
4, 37440, Note_on_c, 2, 77, 0
4, 37440, Note_on_c, 2, 76, 100
4, 37920, Note_on_c, 2, 76, 0
4, 38400, Note_on_c, 2, 76, 100
4, 38880, Note_on_c, 2, 76, 0
4, 38880, Note_on_c, 2, 76, 100
4, 39360, Note_on_c, 2, 76, 0
4, 39360, Note_on_c, 2, 74, 100
4, 39720, Note_on_c, 2, 74, 0
4, 39720, Note_on_c, 2, 76, 100
4, 39840, Note_on_c, 2, 76, 0
4, 39840, Note_on_c, 2, 77, 100
4, 40320, Note_on_c, 2, 77, 0
4, 40320, Note_on_c, 2, 77, 100
4, 40680, Note_on_c, 2, 77, 0
4, 40680, Note_on_c, 2, 76, 100
4, 40800, Note_on_c, 2, 76, 0
4, 40800, Note_on_c, 2, 77, 100
4, 41160, Note_on_c, 2, 77, 0
4, 41160, Note_on_c, 2, 74, 100
4, 41280, Note_on_c, 2, 74, 0
4, 41280, Note_on_c, 2, 76, 100
4, 41640, Note_on_c, 2, 76, 0
4, 46080, Note_on_c, 2, 72, 100
4, 46560, Note_on_c, 2, 72, 0
4, 46560, Note_on_c, 2, 72, 100
4, 47040, Note_on_c, 2, 72, 0
4, 47040, Note_on_c, 2, 72, 100
4, 47520, Note_on_c, 2, 72, 0
4, 47520, Note_on_c, 2, 71, 100
4, 48000, Note_on_c, 2, 71, 0
4, 48000, Note_on_c, 2, 76, 100
4, 48360, Note_on_c, 2, 76, 0
4, 48360, Note_on_c, 2, 74, 100
4, 48480, Note_on_c, 2, 74, 0
4, 48480, Note_on_c, 2, 76, 100
4, 48840, Note_on_c, 2, 76, 0
4, 48840, Note_on_c, 2, 74, 100
4, 48960, Note_on_c, 2, 74, 0
4, 48960, Note_on_c, 2, 73, 100
4, 49320, Note_on_c, 2, 73, 0
4, 49320, Note_on_c, 2, 69, 100
4, 49440, Note_on_c, 2, 69, 0
4, 49440, Note_on_c, 2, 74, 100
4, 49800, Note_on_c, 2, 74, 0
4, 49800, Note_on_c, 2, 72, 100
4, 49920, Note_on_c, 2, 72, 0
4, 49920, Note_on_c, 2, 74, 100
4, 50280, Note_on_c, 2, 74, 0
4, 50280, Note_on_c, 2, 72, 100
4, 50400, Note_on_c, 2, 72, 0
4, 50400, Note_on_c, 2, 71, 100
4, 50760, Note_on_c, 2, 71, 0
4, 50760, Note_on_c, 2, 67, 100
4, 50880, Note_on_c, 2, 67, 0
4, 50880, Note_on_c, 2, 72, 100
4, 51240, Note_on_c, 2, 72, 0
4, 51240, Note_on_c, 2, 70, 100
4, 51360, Note_on_c, 2, 70, 0
4, 51360, Note_on_c, 2, 69, 100
4, 51720, Note_on_c, 2, 69, 0
4, 51720, Note_on_c, 2, 67, 100
4, 51840, Note_on_c, 2, 67, 0
4, 51840, Note_on_c, 2, 65, 100
4, 52320, Note_on_c, 2, 65, 0
4, 54000, Note_on_c, 2, 64, 100
4, 54240, Note_on_c, 2, 64, 0
4, 54240, Note_on_c, 2, 62, 100
4, 54720, Note_on_c, 2, 62, 0
4, 54720, Note_on_c, 2, 60, 100
4, 54960, Note_on_c, 2, 60, 0
4, 55680, Note_on_c, 2, 55, 100
4, 56160, Note_on_c, 2, 55, 0
4, 56160, Note_on_c, 2, 56, 100
4, 56640, Note_on_c, 2, 56, 0
4, 57600, Note_on_c, 2, 57, 100
4, 58200, Note_on_c, 2, 57, 0
4, 58200, Note_on_c, 2, 55, 100
4, 58320, Note_on_c, 2, 55, 0
4, 58320, Note_on_c, 2, 57, 100
4, 58440, Note_on_c, 2, 57, 0
4, 58440, Note_on_c, 2, 59, 100
4, 58560, Note_on_c, 2, 59, 0
4, 58560, Note_on_c, 2, 60, 100
4, 58680, Note_on_c, 2, 60, 0
4, 58680, Note_on_c, 2, 62, 100
4, 58800, Note_on_c, 2, 62, 0
4, 58800, Note_on_c, 2, 63, 100
4, 58920, Note_on_c, 2, 63, 0
4, 58920, Note_on_c, 2, 65, 100
4, 58980, Note_on_c, 2, 65, 0
4, 58980, Note_on_c, 2, 67, 100
4, 59040, Note_on_c, 2, 67, 0
4, 59040, Note_on_c, 2, 68, 100
4, 59640, Note_on_c, 2, 68, 0
4, 62160, Note_on_c, 2, 57, 100
4, 62400, Note_on_c, 2, 57, 0
4, 62400, Note_on_c, 2, 55, 100
4, 62880, Note_on_c, 2, 55, 0
4, 62880, Note_on_c, 2, 62, 100
4, 63360, Note_on_c, 2, 62, 0
4, 63360, Note_on_c, 2, 60, 100
4, 63600, Note_on_c, 2, 60, 0
4, 63600, Note_on_c, 2, 64, 100
4, 63840, Note_on_c, 2, 64, 0
4, 63840, Note_on_c, 2, 69, 100
4, 64080, Note_on_c, 2, 69, 0
4, 64080, Note_on_c, 2, 60, 100
4, 64320, Note_on_c, 2, 60, 0
4, 64320, Note_on_c, 2, 59, 100
4, 64560, Note_on_c, 2, 59, 0
4, 64560, Note_on_c, 2, 69, 100
4, 64800, Note_on_c, 2, 69, 0
4, 64800, Note_on_c, 2, 74, 100
4, 64920, Note_on_c, 2, 74, 0
4, 64920, Note_on_c, 2, 71, 100
4, 65040, Note_on_c, 2, 71, 0
4, 65040, Note_on_c, 2, 69, 100
4, 65160, Note_on_c, 2, 69, 0
4, 65160, Note_on_c, 2, 67, 100
4, 65280, Note_on_c, 2, 67, 0
4, 65280, Note_on_c, 2, 57, 100
4, 65400, Note_on_c, 2, 57, 0
4, 65400, Note_on_c, 2, 67, 100
4, 65520, Note_on_c, 2, 67, 0
4, 65520, Note_on_c, 2, 72, 100
4, 65640, Note_on_c, 2, 72, 0
4, 65640, Note_on_c, 2, 64, 100
4, 65760, Note_on_c, 2, 64, 0
4, 65760, Note_on_c, 2, 66, 100
4, 65880, Note_on_c, 2, 66, 0
4, 65880, Note_on_c, 2, 72, 100
4, 66000, Note_on_c, 2, 72, 0
4, 66000, Note_on_c, 2, 81, 100
4, 66120, Note_on_c, 2, 81, 0
4, 66120, Note_on_c, 2, 72, 100
4, 66240, Note_on_c, 2, 72, 0
4, 66240, Note_on_c, 2, 71, 100
4, 67680, Note_on_c, 2, 71, 0
4, 67680, End_track
5, 0, Start_track
5, 0, MIDI_port, 0
5, 0, Title_t, "Six Sonatas and Partitas for Solo Violin"
5, 0, Program_c, 3, 40
5, 0, Control_c, 3, 7, 100
5, 0, Control_c, 3, 10, 49
5, 4320, Note_on_c, 3, 76, 100
5, 4680, Note_on_c, 3, 76, 0
5, 4680, Note_on_c, 3, 77, 100
5, 4800, Note_on_c, 3, 77, 0
5, 4800, Note_on_c, 3, 76, 100
5, 5160, Note_on_c, 3, 76, 0
5, 5160, Note_on_c, 3, 77, 100
5, 5280, Note_on_c, 3, 77, 0
5, 5280, Note_on_c, 3, 76, 100
5, 5640, Note_on_c, 3, 76, 0
5, 5640, Note_on_c, 3, 77, 100
5, 5760, Note_on_c, 3, 77, 0
5, 5760, Note_on_c, 3, 79, 100
5, 6000, Note_on_c, 3, 79, 0
5, 6000, Note_on_c, 3, 82, 100
5, 6240, Note_on_c, 3, 82, 0
5, 6240, Note_on_c, 3, 82, 100
5, 6480, Note_on_c, 3, 82, 0
5, 6480, Note_on_c, 3, 81, 100
5, 6720, Note_on_c, 3, 81, 0
5, 6720, Note_on_c, 3, 81, 100
5, 6960, Note_on_c, 3, 81, 0
5, 6960, Note_on_c, 3, 79, 100
5, 7200, Note_on_c, 3, 79, 0
5, 7200, Note_on_c, 3, 77, 100
5, 7680, Note_on_c, 3, 77, 0
5, 7680, Note_on_c, 3, 77, 100
5, 8160, Note_on_c, 3, 77, 0
5, 8160, Note_on_c, 3, 77, 100
5, 8640, Note_on_c, 3, 77, 0
5, 8640, Note_on_c, 3, 78, 100
5, 9120, Note_on_c, 3, 78, 0
5, 9120, Note_on_c, 3, 78, 100
5, 9600, Note_on_c, 3, 78, 0
5, 9600, Note_on_c, 3, 78, 100
5, 10080, Note_on_c, 3, 78, 0
5, 10080, Note_on_c, 3, 78, 100
5, 10440, Note_on_c, 3, 78, 0
5, 10440, Note_on_c, 3, 79, 100
5, 10560, Note_on_c, 3, 79, 0
5, 10560, Note_on_c, 3, 78, 100
5, 10920, Note_on_c, 3, 78, 0
5, 10920, Note_on_c, 3, 79, 100
5, 11040, Note_on_c, 3, 79, 0
5, 11040, Note_on_c, 3, 78, 100
5, 11400, Note_on_c, 3, 78, 0
5, 11400, Note_on_c, 3, 79, 100
5, 11520, Note_on_c, 3, 79, 0
5, 11520, Note_on_c, 3, 81, 100
5, 11760, Note_on_c, 3, 81, 0
5, 11760, Note_on_c, 3, 84, 100
5, 12000, Note_on_c, 3, 84, 0
5, 12000, Note_on_c, 3, 84, 100
5, 12240, Note_on_c, 3, 84, 0
5, 12240, Note_on_c, 3, 83, 100
5, 12480, Note_on_c, 3, 83, 0
5, 12480, Note_on_c, 3, 83, 100
5, 12720, Note_on_c, 3, 83, 0
5, 12720, Note_on_c, 3, 81, 100
5, 12960, Note_on_c, 3, 81, 0
5, 12960, Note_on_c, 3, 81, 100
5, 13320, Note_on_c, 3, 81, 0
5, 13320, Note_on_c, 3, 78, 100
5, 13440, Note_on_c, 3, 78, 0
5, 13440, Note_on_c, 3, 79, 100
5, 13800, Note_on_c, 3, 79, 0
5, 13800, Note_on_c, 3, 82, 100
5, 13920, Note_on_c, 3, 82, 0
5, 13920, Note_on_c, 3, 81, 100
5, 14040, Note_on_c, 3, 81, 0
5, 14040, Note_on_c, 3, 79, 100
5, 14160, Note_on_c, 3, 79, 0
5, 14160, Note_on_c, 3, 81, 100
5, 14280, Note_on_c, 3, 81, 0
5, 14280, Note_on_c, 3, 78, 100
5, 14400, Note_on_c, 3, 78, 0
5, 14400, Note_on_c, 3, 79, 100
5, 14640, Note_on_c, 3, 79, 0
5, 14640, Note_on_c, 3, 81, 100
5, 14880, Note_on_c, 3, 81, 0
5, 14880, Note_on_c, 3, 78, 100
5, 15600, Note_on_c, 3, 78, 0
5, 15600, Note_on_c, 3, 79, 100
5, 15840, Note_on_c, 3, 79, 0
5, 15840, Note_on_c, 3, 70, 100
5, 16020, Note_on_c, 3, 70, 0
5, 16020, Note_on_c, 3, 69, 100
5, 16080, Note_on_c, 3, 69, 0
5, 16080, Note_on_c, 3, 67, 100
5, 16140, Note_on_c, 3, 67, 0
5, 16140, Note_on_c, 3, 66, 100
5, 16200, Note_on_c, 3, 66, 0
5, 16200, Note_on_c, 3, 67, 100
5, 16320, Note_on_c, 3, 67, 0
5, 16320, Note_on_c, 3, 61, 100
5, 16860, Note_on_c, 3, 61, 0
5, 16860, Note_on_c, 3, 62, 100
5, 16920, Note_on_c, 3, 62, 0
5, 16920, Note_on_c, 3, 64, 100
5, 16980, Note_on_c, 3, 64, 0
5, 16980, Note_on_c, 3, 66, 100
5, 17040, Note_on_c, 3, 66, 0
5, 17040, Note_on_c, 3, 67, 100
5, 17100, Note_on_c, 3, 67, 0
5, 17100, Note_on_c, 3, 69, 100
5, 17160, Note_on_c, 3, 69, 0
5, 17160, Note_on_c, 3, 70, 100
5, 17190, Note_on_c, 3, 70, 0
5, 17190, Note_on_c, 3, 72, 100
5, 17220, Note_on_c, 3, 72, 0
5, 17220, Note_on_c, 3, 69, 100
5, 17280, Note_on_c, 3, 69, 0
5, 17280, Note_on_c, 3, 70, 100
5, 17640, Note_on_c, 3, 70, 0
5, 17640, Note_on_c, 3, 69, 100
5, 17760, Note_on_c, 3, 69, 0
5, 17760, Note_on_c, 3, 70, 100
5, 18120, Note_on_c, 3, 70, 0
5, 18120, Note_on_c, 3, 69, 100
5, 18240, Note_on_c, 3, 69, 0
5, 18240, Note_on_c, 3, 70, 100
5, 18480, Note_on_c, 3, 70, 0
5, 18480, Note_on_c, 3, 75, 100
5, 18720, Note_on_c, 3, 75, 0
5, 18720, Note_on_c, 3, 74, 100
5, 19080, Note_on_c, 3, 74, 0
5, 19080, Note_on_c, 3, 75, 100
5, 19140, Note_on_c, 3, 75, 0
5, 19140, Note_on_c, 3, 72, 100
5, 19200, Note_on_c, 3, 72, 0
5, 19200, Note_on_c, 3, 70, 100
5, 19680, Note_on_c, 3, 70, 0
5, 19680, Pitch_bend_c, 3, 12288
5, 19680, Note_on_c, 3, 69, 100
5, 19720, Pitch_bend_c, 3, 8192
5, 19760, Pitch_bend_c, 3, 12288
5, 19800, Pitch_bend_c, 3, 8192
5, 20040, Note_on_c, 3, 69, 0
5, 20040, Note_on_c, 3, 67, 100
5, 20160, Note_on_c, 3, 67, 0
5, 20160, Note_on_c, 3, 67, 100
5, 20640, Note_on_c, 3, 67, 0
5, 20640, Note_on_c, 3, 67, 100
5, 21120, Note_on_c, 3, 67, 0
5, 21120, Note_on_c, 3, 67, 100
5, 21600, Note_on_c, 3, 67, 0
5, 21600, Note_on_c, 3, 67, 100
5, 21960, Note_on_c, 3, 67, 0
5, 21960, Note_on_c, 3, 69, 100
5, 22080, Note_on_c, 3, 69, 0
5, 22080, Note_on_c, 3, 67, 100
5, 22440, Note_on_c, 3, 67, 0
5, 22440, Note_on_c, 3, 69, 100
5, 22560, Note_on_c, 3, 69, 0
5, 22560, Note_on_c, 3, 67, 100
5, 22920, Note_on_c, 3, 67, 0
5, 22920, Note_on_c, 3, 69, 100
5, 23040, Note_on_c, 3, 69, 0
5, 23040, Note_on_c, 3, 65, 100
5, 23520, Note_on_c, 3, 65, 0
5, 23520, Note_on_c, 3, 65, 100
5, 24000, Note_on_c, 3, 65, 0
5, 24000, Note_on_c, 3, 65, 100
5, 24480, Note_on_c, 3, 65, 0
5, 24480, Note_on_c, 3, 66, 100
5, 24960, Note_on_c, 3, 66, 0
5, 24960, Note_on_c, 3, 66, 100
5, 25440, Note_on_c, 3, 66, 0
5, 25440, Note_on_c, 3, 66, 100
5, 25920, Note_on_c, 3, 66, 0
5, 25920, Note_on_c, 3, 67, 100
5, 26400, Note_on_c, 3, 67, 0
5, 26400, Note_on_c, 3, 67, 100
5, 26880, Note_on_c, 3, 67, 0
5, 26880, Note_on_c, 3, 67, 100
5, 27360, Note_on_c, 3, 67, 0
5, 27360, Note_on_c, 3, 67, 100
5, 27840, Note_on_c, 3, 67, 0
5, 27840, Note_on_c, 3, 67, 100
5, 28320, Note_on_c, 3, 67, 0
5, 28320, Note_on_c, 3, 67, 100
5, 28800, Note_on_c, 3, 67, 0
5, 28800, Note_on_c, 3, 67, 100
5, 29280, Note_on_c, 3, 67, 0
5, 29280, Note_on_c, 3, 67, 100
5, 29760, Note_on_c, 3, 67, 0
5, 29760, Note_on_c, 3, 67, 100
5, 30240, Note_on_c, 3, 67, 0
5, 30240, Note_on_c, 3, 69, 100
5, 30600, Note_on_c, 3, 69, 0
5, 30600, Note_on_c, 3, 67, 100
5, 30720, Note_on_c, 3, 67, 0
5, 30720, Note_on_c, 3, 69, 100
5, 31080, Note_on_c, 3, 69, 0
5, 31080, Note_on_c, 3, 67, 100
5, 31200, Note_on_c, 3, 67, 0
5, 31200, Note_on_c, 3, 69, 100
5, 31560, Note_on_c, 3, 69, 0
5, 31560, Note_on_c, 3, 65, 100
5, 31680, Note_on_c, 3, 65, 0
5, 31680, Note_on_c, 3, 67, 100
5, 32040, Note_on_c, 3, 67, 0
5, 32040, Note_on_c, 3, 65, 100
5, 32160, Note_on_c, 3, 65, 0
5, 32160, Note_on_c, 3, 67, 100
5, 32520, Note_on_c, 3, 67, 0
5, 32520, Note_on_c, 3, 65, 100
5, 32640, Note_on_c, 3, 65, 0
5, 32640, Note_on_c, 3, 67, 100
5, 33120, Note_on_c, 3, 67, 0
5, 33120, Note_on_c, 3, 69, 100
5, 33600, Note_on_c, 3, 69, 0
5, 34080, Note_on_c, 3, 76, 100
5, 34560, Note_on_c, 3, 76, 0
5, 34560, Note_on_c, 3, 74, 100
5, 34920, Note_on_c, 3, 74, 0
5, 34920, Note_on_c, 3, 73, 100
5, 35040, Note_on_c, 3, 73, 0
5, 35040, Note_on_c, 3, 74, 100
5, 35400, Note_on_c, 3, 74, 0
5, 35400, Note_on_c, 3, 73, 100
5, 35520, Note_on_c, 3, 73, 0
5, 35520, Note_on_c, 3, 74, 100
5, 35880, Note_on_c, 3, 74, 0
5, 35880, Note_on_c, 3, 72, 100
5, 36000, Note_on_c, 3, 72, 0
5, 36000, Note_on_c, 3, 71, 100
5, 36480, Note_on_c, 3, 71, 0
5, 36480, Note_on_c, 3, 71, 100
5, 36960, Note_on_c, 3, 71, 0
5, 36960, Note_on_c, 3, 71, 100
5, 37440, Note_on_c, 3, 71, 0
5, 37440, Note_on_c, 3, 72, 100
5, 37800, Note_on_c, 3, 72, 0
5, 37800, Note_on_c, 3, 71, 100
5, 37920, Note_on_c, 3, 71, 0
5, 37920, Note_on_c, 3, 72, 100
5, 38280, Note_on_c, 3, 72, 0
5, 38280, Note_on_c, 3, 74, 100
5, 38400, Note_on_c, 3, 74, 0
5, 38400, Note_on_c, 3, 72, 100
5, 38760, Note_on_c, 3, 72, 0
5, 38760, Note_on_c, 3, 70, 100
5, 38880, Note_on_c, 3, 70, 0
5, 38880, Note_on_c, 3, 69, 100
5, 39360, Note_on_c, 3, 69, 0
5, 39720, Note_on_c, 3, 72, 100
5, 39840, Note_on_c, 3, 72, 0
5, 39840, Note_on_c, 3, 71, 100
5, 40200, Note_on_c, 3, 71, 0
5, 40200, Note_on_c, 3, 69, 100
5, 40320, Note_on_c, 3, 69, 0
5, 40320, Note_on_c, 3, 67, 100
5, 40800, Note_on_c, 3, 67, 0
5, 41280, Note_on_c, 3, 72, 100
5, 41640, Note_on_c, 3, 72, 0
5, 42240, Note_on_c, 3, 66, 100
5, 42720, Note_on_c, 3, 66, 0
5, 42720, Note_on_c, 3, 66, 100
5, 43200, Note_on_c, 3, 66, 0
5, 43200, Note_on_c, 3, 67, 100
5, 43680, Note_on_c, 3, 67, 0
5, 43680, Note_on_c, 3, 65, 100
5, 44040, Note_on_c, 3, 65, 0
5, 44040, Note_on_c, 3, 64, 100
5, 44160, Note_on_c, 3, 64, 0
5, 44160, Note_on_c, 3, 65, 100
5, 44520, Note_on_c, 3, 65, 0
5, 44520, Note_on_c, 3, 62, 100
5, 44640, Note_on_c, 3, 62, 0
5, 44640, Note_on_c, 3, 64, 100
5, 45120, Note_on_c, 3, 64, 0
5, 45120, Note_on_c, 3, 64, 100
5, 45480, Note_on_c, 3, 64, 0
5, 45480, Note_on_c, 3, 62, 100
5, 45600, Note_on_c, 3, 62, 0
5, 45600, Note_on_c, 3, 64, 100
5, 45960, Note_on_c, 3, 64, 0
5, 45960, Note_on_c, 3, 65, 100
5, 46080, Note_on_c, 3, 65, 0
5, 46080, Note_on_c, 3, 67, 100
5, 46560, Note_on_c, 3, 67, 0
5, 46560, Note_on_c, 3, 69, 100
5, 47040, Note_on_c, 3, 69, 0
5, 47040, Note_on_c, 3, 69, 100
5, 47520, Note_on_c, 3, 69, 0
5, 47520, Note_on_c, 3, 62, 100
5, 48000, Note_on_c, 3, 62, 0
5, 51840, Note_on_c, 3, 76, 100
5, 52200, Note_on_c, 3, 76, 0
5, 52200, Note_on_c, 3, 74, 100
5, 52320, Note_on_c, 3, 74, 0
5, 52320, Note_on_c, 3, 76, 100
5, 52680, Note_on_c, 3, 76, 0
5, 52680, Note_on_c, 3, 72, 100
5, 52800, Note_on_c, 3, 72, 0
5, 52800, Note_on_c, 3, 74, 100
5, 53160, Note_on_c, 3, 74, 0
5, 53160, Note_on_c, 3, 76, 100
5, 53280, Note_on_c, 3, 76, 0
5, 53280, Note_on_c, 3, 71, 100
5, 54000, Note_on_c, 3, 71, 0
5, 54000, Note_on_c, 3, 72, 100
5, 54240, Note_on_c, 3, 72, 0
5, 54240, Note_on_c, 3, 71, 100
5, 54720, Note_on_c, 3, 71, 0
5, 54720, Note_on_c, 3, 72, 100
5, 54960, Note_on_c, 3, 72, 0
5, 54960, End_track
6, 0, Start_track
6, 0, MIDI_port, 0
6, 0, Title_t, "--------------------------------------"
6, 0, End_track
7, 0, Start_track
7, 0, MIDI_port, 0
7, 0, Title_t, "Sonata No. 3 in C major - BWV 1005"
7, 0, End_track
8, 0, Start_track
8, 0, MIDI_port, 0
8, 0, Title_t, "1st Movement: Adagio"
8, 0, End_track
9, 0, Start_track
9, 0, MIDI_port, 0
9, 0, Title_t, "--------------------------------------"
9, 0, End_track
10, 0, Start_track
10, 0, MIDI_port, 0
10, 0, Title_t, "Sequenced with Cakewalk Pro Audio by"
10, 0, End_track
11, 0, Start_track
11, 0, MIDI_port, 0
11, 0, Title_t, "David J. Grossman - dave@unpronounceable.com"
11, 0, End_track
12, 0, Start_track
12, 0, MIDI_port, 0
12, 0, Title_t, "This and other Bach MIDI files can be found at:"
12, 0, End_track
13, 0, Start_track
13, 0, MIDI_port, 0
13, 0, Title_t, "Dave's J.S. Bach Page"
13, 0, End_track
14, 0, Start_track
14, 0, MIDI_port, 0
14, 0, Title_t, "http://www.unpronounceable.com/bach"
14, 0, End_track
15, 0, Start_track
15, 0, MIDI_port, 0
15, 0, Title_t, "--------------------------------------"
15, 0, End_track
16, 0, Start_track
16, 0, MIDI_port, 0
16, 0, Title_t, "Original Filename: vs3-1ada.mid"
16, 0, End_track
17, 0, Start_track
17, 0, MIDI_port, 0
17, 0, Title_t, "Last Modified: February 22, 1997"
17, 0, End_track
0, 0, End_of_file
