0, 0, Header, 1, 17, 480
1, 0, Start_track
1, 0, Title_t, "untitled"
1, 0, Copyright_t, "Copyright © 1996 by David J. Grossman"
1, 0, Text_t, "David J. Grossman"
1, 0, SMPTE_offset, 96, 0, 3, 0, 0
1, 0, Time_signature, 4, 2, 24, 8
1, 0, Key_signature, -1, "major"
1, 0, Tempo, 1764706
1, 0, End_track
2, 0, Start_track
2, 0, MIDI_port, 0
2, 0, Title_t, "Solo Violin"
2, 0, Program_c, 0, 40
2, 0, Control_c, 0, 7, 100
2, 0, Control_c, 0, 10, 69
2, 0, Note_on_c, 0, 69, 100
2, 120, Note_on_c, 0, 69, 0
2, 120, Note_on_c, 0, 70, 100
2, 240, Note_on_c, 0, 70, 0
2, 240, Note_on_c, 0, 72, 100
2, 360, Note_on_c, 0, 72, 0
2, 360, Note_on_c, 0, 77, 100
2, 480, Note_on_c, 0, 77, 0
2, 480, Note_on_c, 0, 79, 100
2, 600, Note_on_c, 0, 79, 0
2, 600, Note_on_c, 0, 76, 100
2, 720, Note_on_c, 0, 76, 0
2, 720, Note_on_c, 0, 77, 100
2, 840, Note_on_c, 0, 77, 0
2, 840, Note_on_c, 0, 69, 100
2, 960, Note_on_c, 0, 69, 0
2, 960, Note_on_c, 0, 74, 100
2, 1080, Note_on_c, 0, 74, 0
2, 1080, Note_on_c, 0, 70, 100
2, 1200, Note_on_c, 0, 70, 0
2, 1200, Note_on_c, 0, 72, 100
2, 1440, Note_on_c, 0, 72, 0
2, 1560, Note_on_c, 0, 70, 100
2, 1680, Note_on_c, 0, 70, 0
2, 1680, Note_on_c, 0, 69, 100
2, 1800, Note_on_c, 0, 69, 0
2, 1800, Note_on_c, 0, 67, 100
2, 1920, Note_on_c, 0, 67, 0
2, 1920, Note_on_c, 0, 65, 100
2, 2040, Note_on_c, 0, 65, 0
2, 2040, Note_on_c, 0, 64, 100
2, 2160, Note_on_c, 0, 64, 0
2, 2160, Note_on_c, 0, 62, 100
2, 2280, Note_on_c, 0, 62, 0
2, 2280, Note_on_c, 0, 65, 100
2, 2400, Note_on_c, 0, 65, 0
2, 2400, Note_on_c, 0, 67, 100
2, 2520, Note_on_c, 0, 67, 0
2, 2520, Note_on_c, 0, 69, 100
2, 2640, Note_on_c, 0, 69, 0
2, 2640, Note_on_c, 0, 70, 100
2, 2760, Note_on_c, 0, 70, 0
2, 2760, Note_on_c, 0, 74, 100
2, 2880, Note_on_c, 0, 74, 0
2, 2880, Pitch_bend_c, 0, 16383
2, 2880, Note_on_c, 0, 70, 100
2, 2910, Pitch_bend_c, 0, 8192
2, 2940, Pitch_bend_c, 0, 16383
2, 2970, Pitch_bend_c, 0, 8192
2, 3000, Note_on_c, 0, 70, 0
2, 3000, Note_on_c, 0, 69, 100
2, 3120, Note_on_c, 0, 69, 0
2, 3120, Note_on_c, 0, 69, 100
2, 3360, Note_on_c, 0, 69, 0
2, 3480, Note_on_c, 0, 69, 100
2, 3600, Note_on_c, 0, 69, 0
2, 3600, Note_on_c, 0, 70, 100
2, 3720, Note_on_c, 0, 70, 0
2, 3720, Note_on_c, 0, 72, 100
2, 3840, Note_on_c, 0, 72, 0
2, 3840, Note_on_c, 0, 74, 100
2, 3960, Note_on_c, 0, 74, 0
2, 3960, Note_on_c, 0, 69, 100
2, 4080, Note_on_c, 0, 69, 0
2, 4080, Note_on_c, 0, 70, 100
2, 4200, Note_on_c, 0, 70, 0
2, 4200, Note_on_c, 0, 74, 100
2, 4320, Note_on_c, 0, 74, 0
2, 4320, Note_on_c, 0, 79, 100
2, 4440, Note_on_c, 0, 79, 0
2, 4440, Note_on_c, 0, 81, 100
2, 4560, Note_on_c, 0, 81, 0
2, 4560, Note_on_c, 0, 82, 100
2, 4680, Note_on_c, 0, 82, 0
2, 4680, Note_on_c, 0, 79, 100
2, 4800, Note_on_c, 0, 79, 0
2, 4800, Note_on_c, 0, 77, 100
2, 4920, Note_on_c, 0, 77, 0
2, 4920, Note_on_c, 0, 76, 100
2, 5040, Note_on_c, 0, 76, 0
2, 5040, Note_on_c, 0, 74, 100
2, 5160, Note_on_c, 0, 74, 0
2, 5160, Note_on_c, 0, 72, 100
2, 5280, Note_on_c, 0, 72, 0
2, 5280, Note_on_c, 0, 77, 100
2, 5400, Note_on_c, 0, 77, 0
2, 5400, Note_on_c, 0, 65, 100
2, 5520, Note_on_c, 0, 65, 0
2, 5520, Note_on_c, 0, 64, 100
2, 5640, Note_on_c, 0, 64, 0
2, 5640, Note_on_c, 0, 65, 100
2, 5760, Note_on_c, 0, 65, 0
2, 5760, Note_on_c, 0, 67, 100
2, 5880, Note_on_c, 0, 67, 0
2, 5880, Note_on_c, 0, 64, 100
2, 6000, Note_on_c, 0, 64, 0
2, 6000, Note_on_c, 0, 65, 100
2, 6120, Note_on_c, 0, 65, 0
2, 6120, Note_on_c, 0, 74, 100
2, 6240, Note_on_c, 0, 74, 0
2, 6240, Note_on_c, 0, 64, 100
2, 6360, Note_on_c, 0, 64, 0
2, 6360, Note_on_c, 0, 67, 100
2, 6480, Note_on_c, 0, 67, 0
2, 6480, Note_on_c, 0, 72, 100
2, 6600, Note_on_c, 0, 72, 0
2, 6600, Note_on_c, 0, 70, 100
2, 6720, Note_on_c, 0, 70, 0
2, 6720, Pitch_bend_c, 0, 12288
2, 6720, Note_on_c, 0, 69, 100
2, 6760, Pitch_bend_c, 0, 8192
2, 6800, Pitch_bend_c, 0, 12288
2, 6840, Pitch_bend_c, 0, 8192
2, 6960, Note_on_c, 0, 69, 0
2, 6960, Note_on_c, 0, 67, 100
2, 7080, Note_on_c, 0, 67, 0
2, 7080, Note_on_c, 0, 65, 100
2, 7200, Note_on_c, 0, 65, 0
2, 7200, Note_on_c, 0, 74, 100
2, 7440, Note_on_c, 0, 74, 0
2, 7440, Note_on_c, 0, 74, 100
2, 7680, Note_on_c, 0, 74, 0
2, 7680, Note_on_c, 0, 74, 100
2, 7920, Note_on_c, 0, 74, 0
2, 7920, Note_on_c, 0, 72, 100
2, 8160, Note_on_c, 0, 72, 0
2, 8160, Note_on_c, 0, 77, 100
2, 8400, Note_on_c, 0, 77, 0
2, 8400, Note_on_c, 0, 77, 100
2, 8640, Note_on_c, 0, 77, 0
2, 8640, Note_on_c, 0, 77, 100
2, 8880, Note_on_c, 0, 77, 0
2, 8880, Note_on_c, 0, 76, 100
2, 9240, Note_on_c, 0, 76, 0
2, 9240, Note_on_c, 0, 81, 100
2, 9360, Note_on_c, 0, 81, 0
2, 9360, Note_on_c, 0, 74, 100
2, 9480, Note_on_c, 0, 74, 0
2, 9480, Note_on_c, 0, 72, 100
2, 9600, Note_on_c, 0, 72, 0
2, 9600, Note_on_c, 0, 71, 100
2, 9720, Note_on_c, 0, 71, 0
2, 9720, Note_on_c, 0, 67, 100
2, 9840, Note_on_c, 0, 67, 0
2, 9840, Note_on_c, 0, 79, 100
2, 10080, Note_on_c, 0, 79, 0
2, 10200, Note_on_c, 0, 72, 100
2, 10320, Note_on_c, 0, 72, 0
2, 10320, Note_on_c, 0, 74, 100
2, 10440, Note_on_c, 0, 74, 0
2, 10440, Note_on_c, 0, 76, 100
2, 10560, Note_on_c, 0, 76, 0
2, 10560, Note_on_c, 0, 76, 100
2, 10680, Note_on_c, 0, 76, 0
2, 10680, Note_on_c, 0, 72, 100
2, 10800, Note_on_c, 0, 72, 0
2, 10800, Pitch_bend_c, 0, 12288
2, 10800, Note_on_c, 0, 71, 100
2, 10830, Pitch_bend_c, 0, 8192
2, 10860, Pitch_bend_c, 0, 12288
2, 10890, Pitch_bend_c, 0, 8192
2, 10920, Note_on_c, 0, 71, 0
2, 10920, Note_on_c, 0, 69, 100
2, 11040, Note_on_c, 0, 69, 0
2, 11160, Note_on_c, 0, 74, 100
2, 11280, Note_on_c, 0, 74, 0
2, 11280, Note_on_c, 0, 76, 100
2, 11400, Note_on_c, 0, 76, 0
2, 11400, Note_on_c, 0, 77, 100
2, 11520, Note_on_c, 0, 77, 0
2, 11520, Note_on_c, 0, 77, 100
2, 11640, Note_on_c, 0, 77, 0
2, 11640, Note_on_c, 0, 74, 100
2, 11760, Note_on_c, 0, 74, 0
2, 11760, Note_on_c, 0, 72, 100
2, 11760, Pitch_bend_c, 0, 16383
2, 11790, Pitch_bend_c, 0, 8192
2, 11820, Pitch_bend_c, 0, 16383
2, 11850, Pitch_bend_c, 0, 8192
2, 11880, Note_on_c, 0, 72, 0
2, 11880, Note_on_c, 0, 71, 100
2, 12000, Note_on_c, 0, 71, 0
2, 12000, Note_on_c, 0, 81, 100
2, 12120, Note_on_c, 0, 81, 0
2, 12120, Note_on_c, 0, 77, 100
2, 12240, Note_on_c, 0, 77, 0
2, 12240, Note_on_c, 0, 79, 100
2, 12360, Note_on_c, 0, 79, 0
2, 12360, Note_on_c, 0, 71, 100
2, 12480, Note_on_c, 0, 71, 0
2, 12480, Note_on_c, 0, 72, 100
2, 12720, Note_on_c, 0, 72, 0
2, 12840, Note_on_c, 0, 81, 100
2, 12960, Note_on_c, 0, 81, 0
2, 13440, Note_on_c, 0, 64, 100
2, 13560, Note_on_c, 0, 64, 0
2, 13560, Note_on_c, 0, 65, 100
2, 13680, Note_on_c, 0, 65, 0
2, 13680, Note_on_c, 0, 67, 100
2, 13800, Note_on_c, 0, 67, 0
2, 13800, Note_on_c, 0, 72, 100
2, 13920, Note_on_c, 0, 72, 0
2, 13920, Note_on_c, 0, 74, 100
2, 14040, Note_on_c, 0, 74, 0
2, 14040, Note_on_c, 0, 71, 100
2, 14160, Note_on_c, 0, 71, 0
2, 14160, Note_on_c, 0, 72, 100
2, 14280, Note_on_c, 0, 72, 0
2, 14280, Note_on_c, 0, 69, 100
2, 14400, Note_on_c, 0, 69, 0
2, 14400, Pitch_bend_c, 0, 16383
2, 14400, Note_on_c, 0, 65, 100
2, 14430, Pitch_bend_c, 0, 8192
2, 14460, Pitch_bend_c, 0, 16383
2, 14490, Pitch_bend_c, 0, 8192
2, 14520, Note_on_c, 0, 65, 0
2, 14520, Note_on_c, 0, 64, 100
2, 14640, Note_on_c, 0, 64, 0
2, 14640, Note_on_c, 0, 65, 100
2, 14880, Note_on_c, 0, 65, 0
2, 15000, Note_on_c, 0, 62, 100
2, 15120, Note_on_c, 0, 62, 0
2, 15120, Note_on_c, 0, 65, 100
2, 15240, Note_on_c, 0, 65, 0
2, 15240, Note_on_c, 0, 69, 100
2, 15360, Note_on_c, 0, 69, 0
2, 15360, Note_on_c, 0, 74, 100
2, 15480, Note_on_c, 0, 74, 0
2, 15480, Note_on_c, 0, 77, 100
2, 15600, Note_on_c, 0, 77, 0
2, 15600, Note_on_c, 0, 74, 100
2, 15720, Note_on_c, 0, 74, 0
2, 15720, Note_on_c, 0, 71, 100
2, 15840, Note_on_c, 0, 71, 0
2, 15840, Note_on_c, 0, 67, 100
2, 16080, Note_on_c, 0, 67, 0
2, 16080, Note_on_c, 0, 65, 100
2, 16080, Pitch_bend_c, 0, 16383
2, 16110, Pitch_bend_c, 0, 8192
2, 16140, Pitch_bend_c, 0, 16383
2, 16170, Pitch_bend_c, 0, 8192
2, 16200, Note_on_c, 0, 65, 0
2, 16200, Note_on_c, 0, 64, 100
2, 16260, Note_on_c, 0, 64, 0
2, 16260, Note_on_c, 0, 65, 100
2, 16320, Note_on_c, 0, 65, 0
2, 16320, Note_on_c, 0, 64, 100
2, 16320, Pitch_bend_c, 0, 12288
2, 16360, Pitch_bend_c, 0, 8192
2, 16400, Pitch_bend_c, 0, 12288
2, 16440, Pitch_bend_c, 0, 8192
2, 16560, Note_on_c, 0, 64, 0
2, 16560, Note_on_c, 0, 62, 100
2, 16680, Note_on_c, 0, 62, 0
2, 16680, Note_on_c, 0, 60, 100
2, 16800, Note_on_c, 0, 60, 0
2, 16800, Note_on_c, 0, 70, 100
2, 17040, Note_on_c, 0, 70, 0
2, 17040, Note_on_c, 0, 70, 100
2, 17280, Note_on_c, 0, 70, 0
2, 17280, Note_on_c, 0, 70, 100
2, 17400, Note_on_c, 0, 70, 0
2, 17400, Note_on_c, 0, 67, 100
2, 17520, Note_on_c, 0, 67, 0
2, 17520, Note_on_c, 0, 69, 100
2, 17640, Note_on_c, 0, 69, 0
2, 17640, Note_on_c, 0, 72, 100
2, 17700, Note_on_c, 0, 72, 0
2, 17700, Note_on_c, 0, 70, 100
2, 17760, Note_on_c, 0, 70, 0
2, 17760, Note_on_c, 0, 72, 100
2, 18000, Note_on_c, 0, 72, 0
2, 18000, Note_on_c, 0, 72, 100
2, 18240, Note_on_c, 0, 72, 0
2, 18240, Note_on_c, 0, 72, 100
2, 18360, Note_on_c, 0, 72, 0
2, 18360, Note_on_c, 0, 69, 100
2, 18480, Note_on_c, 0, 69, 0
2, 18480, Note_on_c, 0, 70, 100
2, 18600, Note_on_c, 0, 70, 0
2, 18600, Note_on_c, 0, 74, 100
2, 18720, Note_on_c, 0, 74, 0
2, 18720, Note_on_c, 0, 75, 100
2, 18840, Note_on_c, 0, 75, 0
2, 18840, Note_on_c, 0, 74, 100
2, 18960, Note_on_c, 0, 74, 0
2, 18960, Note_on_c, 0, 75, 100
2, 19080, Note_on_c, 0, 75, 0
2, 19080, Note_on_c, 0, 82, 100
2, 19200, Note_on_c, 0, 82, 0
2, 19200, Note_on_c, 0, 81, 100
2, 19320, Note_on_c, 0, 81, 0
2, 19320, Note_on_c, 0, 79, 100
2, 19440, Note_on_c, 0, 79, 0
2, 19440, Note_on_c, 0, 81, 100
2, 19560, Note_on_c, 0, 81, 0
2, 19560, Note_on_c, 0, 72, 100
2, 19680, Note_on_c, 0, 72, 0
2, 19680, Note_on_c, 0, 74, 100
2, 19800, Note_on_c, 0, 74, 0
2, 19800, Note_on_c, 0, 72, 100
2, 19920, Note_on_c, 0, 72, 0
2, 19920, Note_on_c, 0, 74, 100
2, 20040, Note_on_c, 0, 74, 0
2, 20040, Note_on_c, 0, 80, 100
2, 20160, Note_on_c, 0, 80, 0
2, 20160, Note_on_c, 0, 79, 100
2, 20280, Note_on_c, 0, 79, 0
2, 20280, Note_on_c, 0, 78, 100
2, 20400, Note_on_c, 0, 78, 0
2, 20400, Note_on_c, 0, 79, 100
2, 20520, Note_on_c, 0, 79, 0
2, 20520, Note_on_c, 0, 71, 100
2, 20640, Note_on_c, 0, 71, 0
2, 20640, Note_on_c, 0, 72, 100
2, 20760, Note_on_c, 0, 72, 0
2, 20760, Note_on_c, 0, 71, 100
2, 20880, Note_on_c, 0, 71, 0
2, 20880, Note_on_c, 0, 72, 100
2, 21000, Note_on_c, 0, 72, 0
2, 21000, Note_on_c, 0, 75, 100
2, 21120, Note_on_c, 0, 75, 0
2, 21120, Note_on_c, 0, 66, 100
2, 21240, Note_on_c, 0, 66, 0
2, 21240, Note_on_c, 0, 69, 100
2, 21360, Note_on_c, 0, 69, 0
2, 21360, Note_on_c, 0, 72, 100
2, 21600, Note_on_c, 0, 72, 0
2, 21720, Note_on_c, 0, 75, 100
2, 21840, Note_on_c, 0, 75, 0
2, 21840, Note_on_c, 0, 74, 100
2, 21960, Note_on_c, 0, 74, 0
2, 21960, Note_on_c, 0, 72, 100
2, 22080, Note_on_c, 0, 72, 0
2, 22080, Note_on_c, 0, 70, 100
2, 22200, Note_on_c, 0, 70, 0
2, 22200, Note_on_c, 0, 72, 100
2, 22320, Note_on_c, 0, 72, 0
2, 22320, Note_on_c, 0, 74, 100
2, 22440, Note_on_c, 0, 74, 0
2, 22440, Note_on_c, 0, 82, 100
2, 22560, Note_on_c, 0, 82, 0
2, 22560, Note_on_c, 0, 81, 100
2, 22800, Note_on_c, 0, 81, 0
2, 22800, Pitch_bend_c, 0, 16383
2, 22800, Note_on_c, 0, 79, 100
2, 22820, Pitch_bend_c, 0, 8192
2, 22840, Pitch_bend_c, 0, 16383
2, 22860, Note_on_c, 0, 79, 0
2, 22860, Note_on_c, 0, 78, 100
2, 22860, Pitch_bend_c, 0, 8192
2, 22920, Note_on_c, 0, 78, 0
2, 22920, Note_on_c, 0, 79, 100
2, 23040, Note_on_c, 0, 79, 0
2, 23040, Note_on_c, 0, 79, 100
2, 23160, Note_on_c, 0, 79, 0
2, 23160, Note_on_c, 0, 82, 100
2, 23220, Note_on_c, 0, 82, 0
2, 23220, Note_on_c, 0, 81, 100
2, 23280, Note_on_c, 0, 81, 0
2, 23280, Note_on_c, 0, 82, 100
2, 23520, Note_on_c, 0, 82, 0
2, 28800, Note_on_c, 0, 72, 100
2, 29040, Note_on_c, 0, 72, 0
2, 37440, Note_on_c, 0, 77, 100
2, 37560, Note_on_c, 0, 77, 0
2, 37560, Note_on_c, 0, 80, 100
2, 37620, Note_on_c, 0, 80, 0
2, 37620, Note_on_c, 0, 79, 100
2, 37680, Note_on_c, 0, 79, 0
2, 37680, Note_on_c, 0, 80, 100
2, 37920, Note_on_c, 0, 80, 0
2, 37920, Note_on_c, 0, 71, 100
2, 38100, Note_on_c, 0, 71, 0
2, 38100, Note_on_c, 0, 80, 100
2, 38160, Note_on_c, 0, 80, 0
2, 38160, Note_on_c, 0, 79, 100
2, 38220, Note_on_c, 0, 79, 0
2, 38220, Note_on_c, 0, 77, 100
2, 38280, Note_on_c, 0, 77, 0
2, 38280, Note_on_c, 0, 76, 100
2, 38340, Note_on_c, 0, 76, 0
2, 38340, Note_on_c, 0, 77, 100
2, 38400, Note_on_c, 0, 77, 0
2, 38400, Note_on_c, 0, 72, 100
2, 38460, Note_on_c, 0, 72, 0
2, 38460, Note_on_c, 0, 76, 100
2, 38520, Note_on_c, 0, 76, 0
2, 38520, Note_on_c, 0, 77, 100
2, 38580, Note_on_c, 0, 77, 0
2, 38580, Note_on_c, 0, 82, 100
2, 38640, Note_on_c, 0, 82, 0
2, 38640, Note_on_c, 0, 81, 100
2, 38700, Note_on_c, 0, 81, 0
2, 38700, Note_on_c, 0, 79, 100
2, 38760, Note_on_c, 0, 79, 0
2, 38760, Note_on_c, 0, 76, 100
2, 38820, Note_on_c, 0, 76, 0
2, 38820, Note_on_c, 0, 77, 100
2, 38880, Note_on_c, 0, 77, 0
2, 38880, Pitch_bend_c, 0, 12288
2, 38880, Note_on_c, 0, 76, 100
2, 38910, Pitch_bend_c, 0, 8192
2, 38940, Pitch_bend_c, 0, 12288
2, 38970, Pitch_bend_c, 0, 8192
2, 39000, Pitch_bend_c, 0, 12288
2, 39020, Pitch_bend_c, 0, 8192
2, 39040, Pitch_bend_c, 0, 12288
2, 39060, Pitch_bend_c, 0, 8192
2, 39240, Note_on_c, 0, 76, 0
2, 39240, Note_on_c, 0, 77, 100
2, 39360, Note_on_c, 0, 77, 0
2, 39360, Note_on_c, 0, 77, 100
2, 40320, Note_on_c, 0, 77, 0
2, 40320, End_track
3, 0, Start_track
3, 0, MIDI_port, 0
3, 0, Title_t, "--------------------------------------"
3, 0, Program_c, 1, 40
3, 0, Control_c, 1, 7, 100
3, 0, Control_c, 1, 10, 59
3, 0, Note_on_c, 1, 65, 100
3, 240, Note_on_c, 1, 65, 0
3, 960, Note_on_c, 1, 64, 100
3, 1200, Note_on_c, 1, 64, 0
3, 1920, Note_on_c, 1, 62, 100
3, 2160, Note_on_c, 1, 62, 0
3, 2880, Note_on_c, 1, 64, 100
3, 3120, Note_on_c, 1, 64, 0
3, 3840, Note_on_c, 1, 65, 100
3, 4080, Note_on_c, 1, 65, 0
3, 4800, Note_on_c, 1, 70, 100
3, 5040, Note_on_c, 1, 70, 0
3, 11520, Note_on_c, 1, 71, 100
3, 11760, Note_on_c, 1, 71, 0
3, 12840, Note_on_c, 1, 72, 100
3, 12960, Note_on_c, 1, 72, 0
3, 12960, Pitch_bend_c, 1, 12288
3, 12960, Note_on_c, 1, 71, 100
3, 12990, Pitch_bend_c, 1, 8192
3, 13020, Pitch_bend_c, 1, 12288
3, 13050, Pitch_bend_c, 1, 8192
3, 13080, Pitch_bend_c, 1, 12288
3, 13100, Pitch_bend_c, 1, 8192
3, 13120, Pitch_bend_c, 1, 12288
3, 13140, Pitch_bend_c, 1, 8192
3, 13320, Note_on_c, 1, 71, 0
3, 13320, Note_on_c, 1, 72, 100
3, 13440, Note_on_c, 1, 72, 0
3, 13440, Note_on_c, 1, 72, 100
3, 13680, Note_on_c, 1, 72, 0
3, 19200, Note_on_c, 1, 75, 100
3, 19440, Note_on_c, 1, 75, 0
3, 20160, Note_on_c, 1, 74, 100
3, 20400, Note_on_c, 1, 74, 0
3, 22560, Note_on_c, 1, 72, 100
3, 22800, Note_on_c, 1, 72, 0
3, 23040, Note_on_c, 1, 70, 100
3, 23280, Note_on_c, 1, 70, 0
3, 24000, Note_on_c, 1, 64, 100
3, 24240, Note_on_c, 1, 64, 0
3, 24960, Note_on_c, 1, 72, 100
3, 25200, Note_on_c, 1, 72, 0
3, 28800, Note_on_c, 1, 67, 100
3, 29040, Note_on_c, 1, 67, 0
3, 29760, Note_on_c, 1, 62, 100
3, 30000, Note_on_c, 1, 62, 0
3, 30720, Note_on_c, 1, 64, 100
3, 30960, Note_on_c, 1, 64, 0
3, 32040, Note_on_c, 1, 74, 100
3, 32160, Note_on_c, 1, 74, 0
3, 37440, Note_on_c, 1, 74, 100
3, 37560, Note_on_c, 1, 74, 0
3, 38880, Note_on_c, 1, 70, 100
3, 39360, Note_on_c, 1, 70, 0
3, 39360, End_track
4, 0, Start_track
4, 0, MIDI_port, 0
4, 0, Title_t, "Johann Sebastian Bach  (1685-1750)"
4, 0, Program_c, 2, 40
4, 0, Control_c, 2, 7, 100
4, 0, Control_c, 2, 10, 79
4, 2880, Note_on_c, 2, 60, 100
4, 3120, Note_on_c, 2, 60, 0
4, 3840, Note_on_c, 2, 58, 100
4, 4080, Note_on_c, 2, 58, 0
4, 5520, Note_on_c, 2, 57, 100
4, 5760, Note_on_c, 2, 57, 0
4, 5760, Note_on_c, 2, 58, 100
4, 6000, Note_on_c, 2, 58, 0
4, 6240, Note_on_c, 2, 60, 100
4, 6480, Note_on_c, 2, 60, 0
4, 6720, Note_on_c, 2, 65, 100
4, 6960, Note_on_c, 2, 65, 0
4, 7320, Note_on_c, 2, 64, 100
4, 7440, Note_on_c, 2, 64, 0
4, 7440, Note_on_c, 2, 65, 100
4, 7560, Note_on_c, 2, 65, 0
4, 7560, Note_on_c, 2, 62, 100
4, 7680, Note_on_c, 2, 62, 0
4, 7680, Note_on_c, 2, 64, 100
4, 7800, Note_on_c, 2, 64, 0
4, 7800, Note_on_c, 2, 57, 100
4, 7920, Note_on_c, 2, 57, 0
4, 7920, Note_on_c, 2, 69, 100
4, 8160, Note_on_c, 2, 69, 0
4, 8280, Note_on_c, 2, 67, 100
4, 8400, Note_on_c, 2, 67, 0
4, 8400, Note_on_c, 2, 69, 100
4, 8520, Note_on_c, 2, 69, 0
4, 8520, Note_on_c, 2, 65, 100
4, 8640, Note_on_c, 2, 65, 0
4, 8640, Note_on_c, 2, 67, 100
4, 8760, Note_on_c, 2, 67, 0
4, 8760, Note_on_c, 2, 60, 100
4, 8880, Note_on_c, 2, 60, 0
4, 8880, Note_on_c, 2, 72, 100
4, 9120, Note_on_c, 2, 72, 0
4, 9120, Note_on_c, 2, 65, 100
4, 9360, Note_on_c, 2, 65, 0
4, 9600, Note_on_c, 2, 65, 100
4, 9840, Note_on_c, 2, 65, 0
4, 10080, Note_on_c, 2, 64, 100
4, 10320, Note_on_c, 2, 64, 0
4, 10560, Note_on_c, 2, 65, 100
4, 10800, Note_on_c, 2, 65, 0
4, 11040, Note_on_c, 2, 65, 100
4, 11280, Note_on_c, 2, 65, 0
4, 11520, Note_on_c, 2, 67, 100
4, 11760, Note_on_c, 2, 67, 0
4, 12360, Note_on_c, 2, 65, 100
4, 12480, Note_on_c, 2, 65, 0
4, 12480, Note_on_c, 2, 64, 100
4, 12600, Note_on_c, 2, 64, 0
4, 12600, Note_on_c, 2, 62, 100
4, 12720, Note_on_c, 2, 62, 0
4, 12720, Note_on_c, 2, 60, 100
4, 12840, Note_on_c, 2, 60, 0
4, 12840, Note_on_c, 2, 65, 100
4, 12960, Note_on_c, 2, 65, 0
4, 12960, Note_on_c, 2, 67, 100
4, 13440, Note_on_c, 2, 67, 0
4, 13440, Note_on_c, 2, 60, 100
4, 13680, Note_on_c, 2, 60, 0
4, 14400, Note_on_c, 2, 60, 100
4, 14640, Note_on_c, 2, 60, 0
4, 15840, Note_on_c, 2, 59, 100
4, 16080, Note_on_c, 2, 59, 0
4, 16320, Note_on_c, 2, 60, 100
4, 16560, Note_on_c, 2, 60, 0
4, 16920, Note_on_c, 2, 62, 100
4, 17040, Note_on_c, 2, 62, 0
4, 17040, Note_on_c, 2, 64, 100
4, 17160, Note_on_c, 2, 64, 0
4, 17160, Note_on_c, 2, 60, 100
4, 17280, Note_on_c, 2, 60, 0
4, 17280, Note_on_c, 2, 65, 100
4, 17520, Note_on_c, 2, 65, 0
4, 17880, Note_on_c, 2, 64, 100
4, 18000, Note_on_c, 2, 64, 0
4, 18000, Note_on_c, 2, 66, 100
4, 18120, Note_on_c, 2, 66, 0
4, 18120, Note_on_c, 2, 62, 100
4, 18240, Note_on_c, 2, 62, 0
4, 18240, Note_on_c, 2, 67, 100
4, 18480, Note_on_c, 2, 67, 0
4, 19200, Note_on_c, 2, 65, 100
4, 19440, Note_on_c, 2, 65, 0
4, 20160, Note_on_c, 2, 63, 100
4, 20400, Note_on_c, 2, 63, 0
4, 21120, Note_on_c, 2, 57, 100
4, 21360, Note_on_c, 2, 57, 0
4, 21600, Note_on_c, 2, 66, 100
4, 21840, Note_on_c, 2, 66, 0
4, 22080, Note_on_c, 2, 67, 100
4, 22320, Note_on_c, 2, 67, 0
4, 22560, Note_on_c, 2, 62, 100
4, 22800, Note_on_c, 2, 62, 0
4, 23040, Note_on_c, 2, 62, 100
4, 23280, Note_on_c, 2, 62, 0
4, 23520, Note_on_c, 2, 65, 100
4, 23700, Note_on_c, 2, 65, 0
4, 23700, Note_on_c, 2, 81, 100
4, 23760, Note_on_c, 2, 81, 0
4, 23760, Note_on_c, 2, 79, 100
4, 23820, Note_on_c, 2, 79, 0
4, 23820, Note_on_c, 2, 77, 100
4, 23880, Note_on_c, 2, 77, 0
4, 23880, Note_on_c, 2, 76, 100
4, 23940, Note_on_c, 2, 76, 0
4, 23940, Note_on_c, 2, 74, 100
4, 24000, Note_on_c, 2, 74, 0
4, 24000, Note_on_c, 2, 72, 100
4, 24120, Note_on_c, 2, 72, 0
4, 24120, Note_on_c, 2, 71, 100
4, 24240, Note_on_c, 2, 71, 0
4, 24240, Note_on_c, 2, 72, 100
4, 24360, Note_on_c, 2, 72, 0
4, 24360, Note_on_c, 2, 74, 100
4, 24480, Note_on_c, 2, 74, 0
4, 24480, Note_on_c, 2, 76, 100
4, 24600, Note_on_c, 2, 76, 0
4, 24600, Note_on_c, 2, 79, 100
4, 24660, Note_on_c, 2, 79, 0
4, 24660, Note_on_c, 2, 77, 100
4, 24720, Note_on_c, 2, 77, 0
4, 24720, Note_on_c, 2, 79, 100
4, 24840, Note_on_c, 2, 79, 0
4, 24840, Note_on_c, 2, 81, 100
4, 24960, Note_on_c, 2, 81, 0
4, 24960, Note_on_c, 2, 82, 100
4, 25080, Note_on_c, 2, 82, 0
4, 25080, Note_on_c, 2, 79, 100
4, 25200, Note_on_c, 2, 79, 0
4, 25200, Note_on_c, 2, 81, 100
4, 25440, Note_on_c, 2, 81, 0
4, 25440, Note_on_c, 2, 64, 100
4, 25620, Note_on_c, 2, 64, 0
4, 25620, Note_on_c, 2, 79, 100
4, 25680, Note_on_c, 2, 79, 0
4, 25680, Note_on_c, 2, 77, 100
4, 25740, Note_on_c, 2, 77, 0
4, 25740, Note_on_c, 2, 76, 100
4, 25800, Note_on_c, 2, 76, 0
4, 25800, Note_on_c, 2, 74, 100
4, 25860, Note_on_c, 2, 74, 0
4, 25860, Note_on_c, 2, 72, 100
4, 25920, Note_on_c, 2, 72, 0
4, 25920, Note_on_c, 2, 70, 100
4, 26040, Note_on_c, 2, 70, 0
4, 26040, Note_on_c, 2, 69, 100
4, 26160, Note_on_c, 2, 69, 0
4, 26160, Note_on_c, 2, 70, 100
4, 26280, Note_on_c, 2, 70, 0
4, 26280, Note_on_c, 2, 74, 100
4, 26400, Note_on_c, 2, 74, 0
4, 26400, Note_on_c, 2, 79, 100
4, 26520, Note_on_c, 2, 79, 0
4, 26520, Note_on_c, 2, 76, 100
4, 26640, Note_on_c, 2, 76, 0
4, 26640, Note_on_c, 2, 77, 100
4, 26760, Note_on_c, 2, 77, 0
4, 26760, Note_on_c, 2, 70, 100
4, 26880, Note_on_c, 2, 70, 0
4, 26880, Note_on_c, 2, 69, 100
4, 27000, Note_on_c, 2, 69, 0
4, 27000, Note_on_c, 2, 67, 100
4, 27120, Note_on_c, 2, 67, 0
4, 27120, Note_on_c, 2, 69, 100
4, 27240, Note_on_c, 2, 69, 0
4, 27240, Note_on_c, 2, 72, 100
4, 27360, Note_on_c, 2, 72, 0
4, 27360, Note_on_c, 2, 79, 100
4, 27480, Note_on_c, 2, 79, 0
4, 27480, Note_on_c, 2, 76, 100
4, 27600, Note_on_c, 2, 76, 0
4, 27600, Note_on_c, 2, 77, 100
4, 27720, Note_on_c, 2, 77, 0
4, 27720, Note_on_c, 2, 69, 100
4, 27840, Note_on_c, 2, 69, 0
4, 27840, Note_on_c, 2, 67, 100
4, 27960, Note_on_c, 2, 67, 0
4, 27960, Note_on_c, 2, 71, 100
4, 28080, Note_on_c, 2, 71, 0
4, 28080, Note_on_c, 2, 74, 100
4, 28200, Note_on_c, 2, 74, 0
4, 28200, Note_on_c, 2, 77, 100
4, 28320, Note_on_c, 2, 77, 0
4, 28320, Note_on_c, 2, 81, 100
4, 28440, Note_on_c, 2, 81, 0
4, 28440, Note_on_c, 2, 79, 100
4, 28500, Note_on_c, 2, 79, 0
4, 28500, Note_on_c, 2, 77, 100
4, 28560, Note_on_c, 2, 77, 0
4, 28560, Note_on_c, 2, 76, 100
4, 28680, Note_on_c, 2, 76, 0
4, 28680, Note_on_c, 2, 77, 100
4, 28800, Note_on_c, 2, 77, 0
4, 28800, Note_on_c, 2, 76, 100
4, 28920, Note_on_c, 2, 76, 0
4, 28920, Note_on_c, 2, 77, 100
4, 28980, Note_on_c, 2, 77, 0
4, 28980, Note_on_c, 2, 76, 100
4, 29040, Note_on_c, 2, 76, 0
4, 29040, Note_on_c, 2, 74, 100
4, 29160, Note_on_c, 2, 74, 0
4, 29160, Note_on_c, 2, 72, 100
4, 29280, Note_on_c, 2, 72, 0
4, 29400, Note_on_c, 2, 65, 100
4, 29520, Note_on_c, 2, 65, 0
4, 29520, Note_on_c, 2, 67, 100
4, 29640, Note_on_c, 2, 67, 0
4, 29640, Note_on_c, 2, 69, 100
4, 29760, Note_on_c, 2, 69, 0
4, 29760, Note_on_c, 2, 69, 100
4, 29880, Note_on_c, 2, 69, 0
4, 29880, Note_on_c, 2, 65, 100
4, 30000, Note_on_c, 2, 65, 0
4, 30000, Pitch_bend_c, 2, 12288
4, 30000, Note_on_c, 2, 64, 100
4, 30030, Pitch_bend_c, 2, 8192
4, 30060, Pitch_bend_c, 2, 12288
4, 30090, Pitch_bend_c, 2, 8192
4, 30120, Note_on_c, 2, 64, 0
4, 30120, Note_on_c, 2, 62, 100
4, 30240, Note_on_c, 2, 62, 0
4, 30360, Note_on_c, 2, 67, 100
4, 30480, Note_on_c, 2, 67, 0
4, 30480, Note_on_c, 2, 69, 100
4, 30600, Note_on_c, 2, 69, 0
4, 30600, Note_on_c, 2, 70, 100
4, 30720, Note_on_c, 2, 70, 0
4, 30720, Note_on_c, 2, 70, 100
4, 30840, Note_on_c, 2, 70, 0
4, 30840, Note_on_c, 2, 67, 100
4, 30960, Note_on_c, 2, 67, 0
4, 30960, Note_on_c, 2, 65, 100
4, 30960, Pitch_bend_c, 2, 16383
4, 30990, Pitch_bend_c, 2, 8192
4, 31020, Pitch_bend_c, 2, 16383
4, 31050, Pitch_bend_c, 2, 8192
4, 31080, Note_on_c, 2, 65, 0
4, 31080, Note_on_c, 2, 64, 100
4, 31200, Note_on_c, 2, 64, 0
4, 31200, Note_on_c, 2, 74, 100
4, 31320, Note_on_c, 2, 74, 0
4, 31320, Note_on_c, 2, 70, 100
4, 31440, Note_on_c, 2, 70, 0
4, 31440, Note_on_c, 2, 72, 100
4, 31560, Note_on_c, 2, 72, 0
4, 31560, Note_on_c, 2, 64, 100
4, 31680, Note_on_c, 2, 64, 0
4, 31680, Note_on_c, 2, 65, 100
4, 31920, Note_on_c, 2, 65, 0
4, 32040, Note_on_c, 2, 65, 100
4, 32160, Note_on_c, 2, 65, 0
4, 32160, Note_on_c, 2, 64, 100
4, 32160, Pitch_bend_c, 2, 12288
4, 32190, Pitch_bend_c, 2, 8192
4, 32220, Pitch_bend_c, 2, 12288
4, 32250, Pitch_bend_c, 2, 8192
4, 32280, Pitch_bend_c, 2, 12288
4, 32300, Pitch_bend_c, 2, 8192
4, 32320, Pitch_bend_c, 2, 12288
4, 32340, Pitch_bend_c, 2, 8192
4, 32520, Note_on_c, 2, 64, 0
4, 32520, Note_on_c, 2, 65, 100
4, 32640, Note_on_c, 2, 65, 0
4, 32640, Note_on_c, 2, 65, 100
4, 32760, Note_on_c, 2, 65, 0
4, 32760, Note_on_c, 2, 67, 100
4, 32880, Note_on_c, 2, 67, 0
4, 32880, Note_on_c, 2, 69, 100
4, 33000, Note_on_c, 2, 69, 0
4, 33000, Note_on_c, 2, 72, 100
4, 33120, Note_on_c, 2, 72, 0
4, 33120, Note_on_c, 2, 63, 100
4, 33240, Note_on_c, 2, 63, 0
4, 33240, Note_on_c, 2, 62, 100
4, 33360, Note_on_c, 2, 62, 0
4, 33360, Note_on_c, 2, 63, 100
4, 33480, Note_on_c, 2, 63, 0
4, 33480, Note_on_c, 2, 72, 100
4, 33600, Note_on_c, 2, 72, 0
4, 33600, Note_on_c, 2, 62, 100
4, 33660, Note_on_c, 2, 62, 0
4, 33660, Note_on_c, 2, 65, 100
4, 33720, Note_on_c, 2, 65, 0
4, 33720, Note_on_c, 2, 67, 100
4, 33780, Note_on_c, 2, 67, 0
4, 33780, Note_on_c, 2, 69, 100
4, 33840, Note_on_c, 2, 69, 0
4, 33840, Note_on_c, 2, 70, 100
4, 33960, Note_on_c, 2, 70, 0
4, 33960, Note_on_c, 2, 74, 100
4, 34080, Note_on_c, 2, 74, 0
4, 34080, Note_on_c, 2, 79, 100
4, 34200, Note_on_c, 2, 79, 0
4, 34200, Note_on_c, 2, 74, 100
4, 34320, Note_on_c, 2, 74, 0
4, 34320, Note_on_c, 2, 71, 100
4, 34440, Note_on_c, 2, 71, 0
4, 34440, Note_on_c, 2, 65, 100
4, 34560, Note_on_c, 2, 65, 0
4, 34560, Note_on_c, 2, 64, 100
4, 34620, Note_on_c, 2, 64, 0
4, 34620, Note_on_c, 2, 67, 100
4, 34680, Note_on_c, 2, 67, 0
4, 34680, Note_on_c, 2, 69, 100
4, 34740, Note_on_c, 2, 69, 0
4, 34740, Note_on_c, 2, 71, 100
4, 34800, Note_on_c, 2, 71, 0
4, 34800, Note_on_c, 2, 72, 100
4, 34860, Note_on_c, 2, 72, 0
4, 34860, Note_on_c, 2, 74, 100
4, 34920, Note_on_c, 2, 74, 0
4, 34920, Note_on_c, 2, 76, 100
4, 34980, Note_on_c, 2, 76, 0
4, 34980, Note_on_c, 2, 77, 100
4, 35040, Note_on_c, 2, 77, 0
4, 35040, Note_on_c, 2, 79, 100
4, 35100, Note_on_c, 2, 79, 0
4, 35100, Note_on_c, 2, 76, 100
4, 35160, Note_on_c, 2, 76, 0
4, 35160, Note_on_c, 2, 72, 100
4, 35220, Note_on_c, 2, 72, 0
4, 35220, Note_on_c, 2, 74, 100
4, 35280, Note_on_c, 2, 74, 0
4, 35280, Note_on_c, 2, 76, 100
4, 35340, Note_on_c, 2, 76, 0
4, 35340, Note_on_c, 2, 77, 100
4, 35400, Note_on_c, 2, 77, 0
4, 35400, Note_on_c, 2, 79, 100
4, 35460, Note_on_c, 2, 79, 0
4, 35460, Note_on_c, 2, 81, 100
4, 35520, Note_on_c, 2, 81, 0
4, 35520, Note_on_c, 2, 82, 100
4, 35580, Note_on_c, 2, 82, 0
4, 35580, Note_on_c, 2, 81, 100
4, 35640, Note_on_c, 2, 81, 0
4, 35640, Note_on_c, 2, 82, 100
4, 35700, Note_on_c, 2, 82, 0
4, 35700, Note_on_c, 2, 86, 100
4, 35760, Note_on_c, 2, 86, 0
4, 35760, Note_on_c, 2, 84, 100
4, 36000, Note_on_c, 2, 84, 0
4, 36000, Note_on_c, 2, 70, 100
4, 36180, Note_on_c, 2, 70, 0
4, 36180, Note_on_c, 2, 76, 100
4, 36240, Note_on_c, 2, 76, 0
4, 36240, Note_on_c, 2, 77, 100
4, 36300, Note_on_c, 2, 77, 0
4, 36300, Note_on_c, 2, 76, 100
4, 36360, Note_on_c, 2, 76, 0
4, 36360, Note_on_c, 2, 74, 100
4, 36420, Note_on_c, 2, 74, 0
4, 36420, Note_on_c, 2, 72, 100
4, 36480, Note_on_c, 2, 72, 0
4, 36480, Note_on_c, 2, 77, 100
4, 36600, Note_on_c, 2, 77, 0
4, 36600, Note_on_c, 2, 76, 100
4, 36660, Note_on_c, 2, 76, 0
4, 36660, Note_on_c, 2, 74, 100
4, 36720, Note_on_c, 2, 74, 0
4, 36720, Note_on_c, 2, 72, 100
4, 36840, Note_on_c, 2, 72, 0
4, 36840, Note_on_c, 2, 74, 100
4, 36960, Note_on_c, 2, 74, 0
4, 36960, Note_on_c, 2, 69, 100
4, 37200, Note_on_c, 2, 69, 0
4, 37200, Note_on_c, 2, 67, 100
4, 37260, Note_on_c, 2, 67, 0
4, 37260, Note_on_c, 2, 65, 100
4, 37320, Note_on_c, 2, 65, 0
4, 37320, Note_on_c, 2, 67, 100
4, 37440, Note_on_c, 2, 67, 0
4, 37440, Note_on_c, 2, 68, 100
4, 37560, Note_on_c, 2, 68, 0
4, 38400, Note_on_c, 2, 69, 100
4, 38640, Note_on_c, 2, 69, 0
4, 38880, Note_on_c, 2, 67, 100
4, 39360, Note_on_c, 2, 67, 0
4, 39360, Note_on_c, 2, 69, 100
4, 40320, Note_on_c, 2, 69, 0
4, 40320, End_track
5, 0, Start_track
5, 0, MIDI_port, 0
5, 0, Title_t, "Six Sonatas and Partitas for Solo Violin"
5, 0, Program_c, 3, 40
5, 0, Control_c, 3, 7, 100
5, 0, Control_c, 3, 10, 49
5, 23040, Note_on_c, 3, 55, 100
5, 23280, Note_on_c, 3, 55, 0
5, 24960, Note_on_c, 3, 65, 100
5, 25200, Note_on_c, 3, 65, 0
5, 25920, Note_on_c, 3, 62, 100
5, 26160, Note_on_c, 3, 62, 0
5, 26880, Note_on_c, 3, 60, 100
5, 27120, Note_on_c, 3, 60, 0
5, 27840, Note_on_c, 3, 59, 100
5, 28080, Note_on_c, 3, 59, 0
5, 28800, Note_on_c, 3, 58, 100
5, 29040, Note_on_c, 3, 58, 0
5, 29280, Note_on_c, 3, 57, 100
5, 29520, Note_on_c, 3, 57, 0
5, 29760, Note_on_c, 3, 58, 100
5, 30000, Note_on_c, 3, 58, 0
5, 30240, Note_on_c, 3, 58, 100
5, 30480, Note_on_c, 3, 58, 0
5, 30720, Note_on_c, 3, 60, 100
5, 30960, Note_on_c, 3, 60, 0
5, 31560, Note_on_c, 3, 58, 100
5, 31680, Note_on_c, 3, 58, 0
5, 31680, Note_on_c, 3, 57, 100
5, 31800, Note_on_c, 3, 57, 0
5, 31800, Note_on_c, 3, 55, 100
5, 31920, Note_on_c, 3, 55, 0
5, 31920, Note_on_c, 3, 57, 100
5, 32040, Note_on_c, 3, 57, 0
5, 32040, Note_on_c, 3, 58, 100
5, 32160, Note_on_c, 3, 58, 0
5, 32160, Note_on_c, 3, 60, 100
5, 32640, Note_on_c, 3, 60, 0
5, 36480, Note_on_c, 3, 69, 100
5, 36720, Note_on_c, 3, 69, 0
5, 36840, Note_on_c, 3, 65, 100
5, 36960, Note_on_c, 3, 65, 0
5, 36960, Note_on_c, 3, 60, 100
5, 37440, Note_on_c, 3, 60, 0
5, 37440, Note_on_c, 3, 59, 100
5, 37560, Note_on_c, 3, 59, 0
5, 38400, Note_on_c, 3, 60, 100
5, 38640, Note_on_c, 3, 60, 0
5, 38880, Note_on_c, 3, 60, 100
5, 39360, Note_on_c, 3, 60, 0
5, 39360, Note_on_c, 3, 65, 100
5, 40320, Note_on_c, 3, 65, 0
5, 40320, End_track
6, 0, Start_track
6, 0, MIDI_port, 0
6, 0, Title_t, "--------------------------------------"
6, 0, End_track
7, 0, Start_track
7, 0, MIDI_port, 0
7, 0, Title_t, "Sonata No. 3 in C major - BWV 1005"
7, 0, End_track
8, 0, Start_track
8, 0, MIDI_port, 0
8, 0, Title_t, "3rd Movement: Largo"
8, 0, End_track
9, 0, Start_track
9, 0, MIDI_port, 0
9, 0, Title_t, "--------------------------------------"
9, 0, End_track
10, 0, Start_track
10, 0, MIDI_port, 0
10, 0, Title_t, "Sequenced with Cakewalk Pro Audio by"
10, 0, End_track
11, 0, Start_track
11, 0, MIDI_port, 0
11, 0, Title_t, "David J. Grossman - dave@unpronounceable.com"
11, 0, End_track
12, 0, Start_track
12, 0, MIDI_port, 0
12, 0, Title_t, "This and other Bach MIDI files can be found at:"
12, 0, End_track
13, 0, Start_track
13, 0, MIDI_port, 0
13, 0, Title_t, "Dave's J.S. Bach Page"
13, 0, End_track
14, 0, Start_track
14, 0, MIDI_port, 0
14, 0, Title_t, "http://www.unpronounceable.com/bach"
14, 0, End_track
15, 0, Start_track
15, 0, MIDI_port, 0
15, 0, Title_t, "--------------------------------------"
15, 0, End_track
16, 0, Start_track
16, 0, MIDI_port, 0
16, 0, Title_t, "Original Filename: vs3-3lar.mid"
16, 0, End_track
17, 0, Start_track
17, 0, MIDI_port, 0
17, 0, Title_t, "Last Modified: February 22, 1997"
17, 0, End_track
0, 0, End_of_file
