0, 0, Header, 1, 11, 480
1, 0, Start_track
1, 0, Title_t, "Sonate Nr. 23 Op. 57"
1, 0, Title_t, "Appassionata"
1, 0, Copyright_t, "Copyright © 2001 by Bernd Krueger"
1, 0, Text_t, "Ludwig van Beethoven"
1, 0, Text_t, "Andante con moto"
1, 0, Text_t, "Fertiggestellt am 22.10.2001\012"
1, 0, Text_t, "Normierung: 23.12.2002\012"
1, 0, Text_t, "Update: 25.7.2012\012"
1, 0, Text_t, "Dauer: 6:13 Minuten\012"
1, 0, SMPTE_offset, 96, 0, 3, 0, 0
1, 0, Time_signature, 2, 2, 24, 8
1, 0, Key_signature, -5, "major"
1, 0, Tempo, 1419782
1, 0, Marker_t, "Teil 1"
1, 480, Tempo, 1447527
1, 960, Tempo, 1295896
1, 1680, Tempo, 1370802
1, 1920, Tempo, 1419782
1, 2400, Tempo, 1355320
1, 2880, Tempo, 1132075
1, 3240, Tempo, 1256545
1, 3360, Tempo, 1314348
1, 3600, Tempo, 1361470
1, 3720, Tempo, 1610306
1, 3840, Tempo, 1361470
1, 4320, Tempo, 1545595
1, 4800, Tempo, 1216792
1, 5280, Tempo, 1419782
1, 6240, Tempo, 1466276
1, 6720, Tempo, 1314348
1, 6920, Tempo, 1361470
1, 7080, Tempo, 1566171
1, 7140, Tempo, 1545595
1, 7200, Tempo, 1361470
1, 7680, Tempo, 1419782
1, 7680, Marker_t, "Teil 1 Wiederholung"
1, 8160, Tempo, 1466276
1, 8640, Tempo, 1295896
1, 9120, Tempo, 1224490
1, 9360, Tempo, 1318681
1, 9600, Tempo, 1419782
1, 10080, Tempo, 1355320
1, 10560, Tempo, 1132075
1, 10920, Tempo, 1200000
1, 11040, Tempo, 1314348
1, 11280, Tempo, 1361470
1, 11400, Tempo, 1610306
1, 11520, Tempo, 1318681
1, 12000, Tempo, 1578947
1, 12480, Tempo, 1216792
1, 12960, Tempo, 1419782
1, 13920, Tempo, 1466276
1, 14400, Tempo, 1314348
1, 14600, Tempo, 1361470
1, 14760, Tempo, 1566171
1, 14820, Tempo, 1545595
1, 14880, Tempo, 1361470
1, 15360, Tempo, 1419782
1, 15360, Marker_t, "Teil 2"
1, 15840, Tempo, 1345291
1, 16200, Tempo, 1610306
1, 16320, Tempo, 1377727
1, 16680, Tempo, 1299264
1, 16800, Tempo, 1429252
1, 17040, Tempo, 1370802
1, 17280, Tempo, 1419782
1, 17760, Tempo, 1345291
1, 18120, Tempo, 1610306
1, 18240, Tempo, 1377727
1, 18480, Tempo, 1610306
1, 18600, Tempo, 1411765
1, 18720, Tempo, 1299264
1, 18840, Tempo, 1394700
1, 18960, Tempo, 1466276
1, 19200, Tempo, 1419782
1, 19680, Tempo, 1466276
1, 20040, Tempo, 1610306
1, 20160, Tempo, 1377727
1, 20400, Tempo, 1466276
1, 20520, Tempo, 1411765
1, 20640, Tempo, 1284797
1, 20760, Tempo, 1361470
1, 20880, Tempo, 1370802
1, 21120, Tempo, 1429252
1, 21600, Tempo, 1466276
1, 22080, Tempo, 1314348
1, 22280, Tempo, 1361470
1, 22440, Tempo, 1566171
1, 22500, Tempo, 1545595
1, 22560, Tempo, 1361470
1, 23040, Tempo, 1419782
1, 23043, Marker_t, "Teil 2 Wiederholung"
1, 23520, Tempo, 1345291
1, 23880, Tempo, 1610306
1, 24000, Tempo, 1411765
1, 24360, Tempo, 1333333
1, 24480, Tempo, 1429252
1, 24720, Tempo, 1370802
1, 24960, Tempo, 1419782
1, 25440, Tempo, 1345291
1, 25800, Tempo, 1610306
1, 25920, Tempo, 1377727
1, 26160, Tempo, 1610306
1, 26280, Tempo, 1445783
1, 26400, Tempo, 1299264
1, 26520, Tempo, 1394700
1, 26640, Tempo, 1466276
1, 26880, Tempo, 1419782
1, 27360, Tempo, 1466276
1, 27720, Tempo, 1643836
1, 27840, Tempo, 1481481
1, 28080, Tempo, 1466276
1, 28200, Tempo, 1411765
1, 28320, Tempo, 1284797
1, 28440, Tempo, 1361470
1, 28560, Tempo, 1370802
1, 28800, Tempo, 1429252
1, 29280, Tempo, 1466276
1, 29760, Tempo, 1314348
1, 29960, Tempo, 1361470
1, 30120, Tempo, 1566171
1, 30180, Tempo, 1545595
1, 30240, Tempo, 1361470
1, 30720, Tempo, 1299264
1, 30720, Marker_t, "Teil 3"
1, 30960, Tempo, 1411765
1, 31200, Tempo, 1314348
1, 31440, Tempo, 1361470
1, 31680, Tempo, 1256545
1, 31920, Tempo, 1284797
1, 32400, Tempo, 1329787
1, 32640, Tempo, 1270648
1, 32880, Tempo, 1329787
1, 33120, Tempo, 1284797
1, 33360, Tempo, 1243008
1, 33580, Tempo, 1154957
1, 33680, Tempo, 1166861
1, 33780, Tempo, 1178782
1, 33860, Tempo, 1190949
1, 33960, Tempo, 1203611
1, 34040, Tempo, 1216545
1, 34140, Tempo, 1229508
1, 34220, Tempo, 1243008
1, 34320, Tempo, 1256545
1, 34560, Tempo, 1243008
1, 34800, Tempo, 1329787
1, 35040, Tempo, 1284797
1, 35280, Tempo, 1361470
1, 35520, Tempo, 1256545
1, 35760, Tempo, 1284797
1, 36240, Tempo, 1329787
1, 36480, Tempo, 1270648
1, 36720, Tempo, 1329787
1, 36960, Tempo, 1284797
1, 37200, Tempo, 1243008
1, 37420, Tempo, 1154957
1, 37520, Tempo, 1166861
1, 37620, Tempo, 1178782
1, 37700, Tempo, 1190949
1, 37800, Tempo, 1203611
1, 37880, Tempo, 1216545
1, 37980, Tempo, 1229508
1, 38060, Tempo, 1243008
1, 38160, Tempo, 1256545
1, 38240, Tempo, 1270648
1, 38400, Tempo, 1263158
1, 38400, Marker_t, "Teil 3 Wiederholung"
1, 38640, Tempo, 1304348
1, 38880, Tempo, 1237113
1, 39120, Tempo, 1304348
1, 39360, Tempo, 1224490
1, 39600, Tempo, 1263158
1, 40080, Tempo, 1329787
1, 40320, Tempo, 1270648
1, 40560, Tempo, 1304348
1, 40800, Tempo, 1263158
1, 41040, Tempo, 1243008
1, 41260, Tempo, 1154957
1, 41280, Tempo, 1142857
1, 41400, Tempo, 1153846
1, 41520, Tempo, 1165049
1, 41640, Tempo, 1176471
1, 41760, Tempo, 1188119
1, 41800, Tempo, 1224490
1, 41820, Tempo, 1229508
1, 41840, Tempo, 1200000
1, 41880, Tempo, 1212121
1, 41920, Tempo, 1224490
1, 42000, Tempo, 1256545
1, 42240, Tempo, 1243008
1, 42480, Tempo, 1290323
1, 42720, Tempo, 1250000
1, 42960, Tempo, 1304348
1, 43200, Tempo, 1224490
1, 43440, Tempo, 1263158
1, 43920, Tempo, 1329787
1, 44160, Tempo, 1250000
1, 44400, Tempo, 1329787
1, 44640, Tempo, 1284797
1, 44880, Tempo, 1243008
1, 45100, Tempo, 1154957
1, 45200, Tempo, 1166861
1, 45300, Tempo, 1178782
1, 45380, Tempo, 1190949
1, 45480, Tempo, 1203611
1, 45560, Tempo, 1216545
1, 45660, Tempo, 1229508
1, 45740, Tempo, 1243008
1, 45840, Tempo, 1256545
1, 46080, Tempo, 1203611
1, 46080, Marker_t, "Teil 4"
1, 46320, Tempo, 1270648
1, 46560, Tempo, 1216545
1, 46800, Tempo, 1203611
1, 47020, Tempo, 1154957
1, 47120, Tempo, 1166861
1, 48000, Tempo, 1203611
1, 48240, Tempo, 1270648
1, 48480, Tempo, 1216545
1, 48720, Tempo, 1203611
1, 48940, Tempo, 1154957
1, 49800, Tempo, 1284797
1, 49920, Tempo, 1203611
1, 50160, Tempo, 1270648
1, 50400, Tempo, 1216545
1, 50640, Tempo, 1203611
1, 50860, Tempo, 1154957
1, 51720, Tempo, 1345291
1, 51840, Tempo, 1270648
1, 51860, Tempo, 1216545
1, 52080, Tempo, 1270648
1, 52320, Tempo, 1229508
1, 52560, Tempo, 1178782
1, 52780, Tempo, 1154957
1, 52880, Tempo, 1166861
1, 52980, Tempo, 1178782
1, 53060, Tempo, 1190949
1, 53160, Tempo, 1203611
1, 53240, Tempo, 1216545
1, 53340, Tempo, 1229508
1, 53420, Tempo, 1243008
1, 53520, Tempo, 1256545
1, 53760, Tempo, 1203611
1, 53760, Marker_t, "Teil 4 Wiederholung"
1, 54000, Tempo, 1270648
1, 54240, Tempo, 1216545
1, 54480, Tempo, 1203611
1, 54700, Tempo, 1154957
1, 54800, Tempo, 1166861
1, 55200, Tempo, 1153846
1, 55680, Tempo, 1203611
1, 55920, Tempo, 1270648
1, 56160, Tempo, 1216545
1, 56400, Tempo, 1203611
1, 56620, Tempo, 1154957
1, 57120, Tempo, 1132075
1, 57480, Tempo, 1318681
1, 57600, Tempo, 1203611
1, 57840, Tempo, 1270648
1, 58080, Tempo, 1216545
1, 58320, Tempo, 1203611
1, 58540, Tempo, 1154957
1, 59040, Tempo, 1132075
1, 59400, Tempo, 1348315
1, 59520, Tempo, 1270648
1, 59540, Tempo, 1216545
1, 59760, Tempo, 1270648
1, 60000, Tempo, 1229508
1, 60240, Tempo, 1178782
1, 60460, Tempo, 1154957
1, 60560, Tempo, 1166861
1, 60660, Tempo, 1178782
1, 60740, Tempo, 1190949
1, 60840, Tempo, 1203611
1, 60920, Tempo, 1216545
1, 61020, Tempo, 1229508
1, 61100, Tempo, 1243008
1, 61200, Tempo, 1256545
1, 61440, Tempo, 1121076
1, 61440, Marker_t, "Teil 5"
1, 61560, Tempo, 1166861
1, 61680, Tempo, 1132075
1, 61800, Tempo, 1132075
1, 61920, Tempo, 1132075
1, 62040, Tempo, 1166861
1, 62160, Tempo, 1166861
1, 62400, Tempo, 1132075
1, 62520, Tempo, 1166861
1, 62640, Tempo, 1132075
1, 62760, Tempo, 1154957
1, 62880, Tempo, 1121076
1, 63000, Tempo, 1143511
1, 63240, Tempo, 1203611
1, 63360, Tempo, 1166861
1, 63480, Tempo, 1154957
1, 63880, Tempo, 1216545
1, 63960, Tempo, 1143511
1, 64320, Tempo, 1166861
1, 64440, Tempo, 1121076
1, 64680, Tempo, 1166861
1, 64800, Tempo, 1132075
1, 64920, Tempo, 1121076
1, 65040, Tempo, 1165049
1, 65160, Tempo, 1200000
1, 65280, Tempo, 1121076
1, 65400, Tempo, 1166861
1, 65520, Tempo, 1121076
1, 65640, Tempo, 1166861
1, 65760, Tempo, 1166861
1, 66000, Tempo, 1166861
1, 66240, Tempo, 1132075
1, 66360, Tempo, 1154957
1, 66720, Tempo, 1203611
1, 66840, Tempo, 1143511
1, 67080, Tempo, 1203611
1, 67200, Tempo, 1166861
1, 67320, Tempo, 1154957
1, 67720, Tempo, 1216545
1, 67800, Tempo, 1143511
1, 68160, Tempo, 1166861
1, 68280, Tempo, 1121076
1, 68520, Tempo, 1132075
1, 68640, Tempo, 1190949
1, 68660, Tempo, 1143511
1, 68720, Tempo, 1154957
1, 68760, Tempo, 1166861
1, 68800, Tempo, 1178782
1, 68840, Tempo, 1190949
1, 68900, Tempo, 1203611
1, 68940, Tempo, 1216545
1, 68980, Tempo, 1229508
1, 69020, Tempo, 1243008
1, 69060, Tempo, 1256545
1, 69120, Tempo, 1121076
1, 69120, Marker_t, "Teil 5 Wiederholung"
1, 69240, Tempo, 1166861
1, 69360, Tempo, 1132075
1, 69480, Tempo, 1132075
1, 69600, Tempo, 1132075
1, 69720, Tempo, 1166861
1, 69840, Tempo, 1166861
1, 70080, Tempo, 1132075
1, 70200, Tempo, 1166861
1, 70320, Tempo, 1132075
1, 70440, Tempo, 1154957
1, 70560, Tempo, 1090909
1, 70680, Tempo, 1132075
1, 70920, Tempo, 1203611
1, 71040, Tempo, 1121495
1, 71160, Tempo, 1153846
1, 71520, Tempo, 1121495
1, 71560, Tempo, 1216545
1, 71640, Tempo, 1143511
1, 72000, Tempo, 1166861
1, 72120, Tempo, 1121076
1, 72240, Tempo, 1081081
1, 72360, Tempo, 1166861
1, 72480, Tempo, 1132075
1, 72600, Tempo, 1121076
1, 72720, Tempo, 1165049
1, 72840, Tempo, 1200000
1, 72960, Tempo, 1121076
1, 73080, Tempo, 1166861
1, 73200, Tempo, 1121076
1, 73320, Tempo, 1166861
1, 73440, Tempo, 1166861
1, 73680, Tempo, 1166861
1, 73920, Tempo, 1132075
1, 74040, Tempo, 1154957
1, 74400, Tempo, 1203611
1, 74520, Tempo, 1143511
1, 74640, Tempo, 1100917
1, 74760, Tempo, 1203611
1, 74880, Tempo, 1121495
1, 75000, Tempo, 1153846
1, 75400, Tempo, 1216545
1, 75480, Tempo, 1143511
1, 75840, Tempo, 1166861
1, 75960, Tempo, 1121076
1, 76200, Tempo, 1132075
1, 76320, Tempo, 1190949
1, 76340, Tempo, 1143511
1, 76400, Tempo, 1154957
1, 76440, Tempo, 1166861
1, 76480, Tempo, 1178782
1, 76520, Tempo, 1190949
1, 76580, Tempo, 1203611
1, 76620, Tempo, 1216545
1, 76660, Tempo, 1229508
1, 76700, Tempo, 1243008
1, 76740, Tempo, 1256545
1, 76800, Tempo, 1121076
1, 76800, Marker_t, "Teil 6"
1, 76920, Tempo, 1166861
1, 77040, Tempo, 1132075
1, 77160, Tempo, 1132075
1, 77280, Tempo, 1132075
1, 77400, Tempo, 1166861
1, 77520, Tempo, 1166861
1, 77760, Tempo, 1132075
1, 77880, Tempo, 1166861
1, 78000, Tempo, 1132075
1, 78120, Tempo, 1190949
1, 78240, Tempo, 1121076
1, 78360, Tempo, 1143511
1, 78600, Tempo, 1203611
1, 78720, Tempo, 1121076
1, 78840, Tempo, 1166861
1, 78960, Tempo, 1132075
1, 79080, Tempo, 1132075
1, 79200, Tempo, 1132075
1, 79320, Tempo, 1166861
1, 79440, Tempo, 1166861
1, 79680, Tempo, 1132075
1, 79800, Tempo, 1166861
1, 79920, Tempo, 1132075
1, 80040, Tempo, 1203611
1, 80160, Tempo, 1121076
1, 80280, Tempo, 1143511
1, 80520, Tempo, 1203611
1, 80640, Tempo, 1121076
1, 80760, Tempo, 1166861
1, 80880, Tempo, 1132075
1, 81000, Tempo, 1132075
1, 81120, Tempo, 1132075
1, 81240, Tempo, 1166861
1, 81360, Tempo, 1166861
1, 81600, Tempo, 1132075
1, 81720, Tempo, 1166861
1, 81840, Tempo, 1132075
1, 81960, Tempo, 1216545
1, 82080, Tempo, 1121076
1, 82200, Tempo, 1143511
1, 82440, Tempo, 1203611
1, 82560, Tempo, 1166861
1, 82680, Tempo, 1154957
1, 83080, Tempo, 1216545
1, 83160, Tempo, 1143511
1, 83520, Tempo, 1166861
1, 83640, Tempo, 1121076
1, 83880, Tempo, 1166861
1, 84000, Tempo, 1190949
1, 84020, Tempo, 1143511
1, 84080, Tempo, 1154957
1, 84120, Tempo, 1166861
1, 84160, Tempo, 1178782
1, 84200, Tempo, 1190949
1, 84260, Tempo, 1203611
1, 84300, Tempo, 1216545
1, 84340, Tempo, 1229508
1, 84380, Tempo, 1243008
1, 84420, Tempo, 1256545
1, 84480, Tempo, 1121076
1, 84480, Marker_t, "Teil 6 Wiederholung"
1, 84600, Tempo, 1166861
1, 84720, Tempo, 1132075
1, 84840, Tempo, 1132075
1, 84960, Tempo, 1132075
1, 85080, Tempo, 1166861
1, 85200, Tempo, 1166861
1, 85440, Tempo, 1132075
1, 85560, Tempo, 1081081
1, 85680, Tempo, 1165049
1, 85800, Tempo, 1190949
1, 85920, Tempo, 1100917
1, 86040, Tempo, 1143511
1, 86280, Tempo, 1203611
1, 86400, Tempo, 1121076
1, 86520, Tempo, 1166861
1, 86640, Tempo, 1100917
1, 86760, Tempo, 1132075
1, 86880, Tempo, 1132075
1, 87000, Tempo, 1166861
1, 87120, Tempo, 1166861
1, 87360, Tempo, 1132075
1, 87480, Tempo, 1081081
1, 87600, Tempo, 1132075
1, 87720, Tempo, 1203611
1, 87840, Tempo, 1121076
1, 87960, Tempo, 1143511
1, 88200, Tempo, 1203611
1, 88320, Tempo, 1121076
1, 88440, Tempo, 1166861
1, 88560, Tempo, 1132075
1, 88680, Tempo, 1132075
1, 88800, Tempo, 1132075
1, 88920, Tempo, 1166861
1, 89040, Tempo, 1166861
1, 89160, Tempo, 1111111
1, 89280, Tempo, 1081081
1, 89400, Tempo, 1166861
1, 89520, Tempo, 1111111
1, 89640, Tempo, 1216545
1, 89760, Tempo, 1121076
1, 89880, Tempo, 1143511
1, 90120, Tempo, 1203611
1, 90240, Tempo, 1166861
1, 90360, Tempo, 1154957
1, 90760, Tempo, 1216545
1, 90840, Tempo, 1143511
1, 91200, Tempo, 1166861
1, 91320, Tempo, 1121076
1, 91560, Tempo, 1166861
1, 91680, Tempo, 1190949
1, 91700, Tempo, 1143511
1, 91760, Tempo, 1154957
1, 91800, Tempo, 1166861
1, 91840, Tempo, 1178782
1, 91880, Tempo, 1190949
1, 91940, Tempo, 1203611
1, 91980, Tempo, 1216545
1, 92020, Tempo, 1229508
1, 92060, Tempo, 1243008
1, 92100, Tempo, 1256545
1, 92160, Tempo, 1203611
1, 92160, Marker_t, "Teil 7"
1, 92280, Tempo, 1178782
1, 92760, Tempo, 1256545
1, 92880, Tempo, 1178782
1, 93840, Tempo, 1143511
1, 94080, Tempo, 1142857
1, 94560, Tempo, 1153846
1, 95040, Tempo, 1190949
1, 95160, Tempo, 1178782
1, 95280, Tempo, 1166861
1, 95400, Tempo, 1154957
1, 95500, Tempo, 1143511
1, 95540, Tempo, 1143511
1, 95600, Tempo, 1154957
1, 95640, Tempo, 1166861
1, 95700, Tempo, 1178782
1, 95740, Tempo, 1190949
1, 95800, Tempo, 1203611
1, 95840, Tempo, 1216545
1, 95900, Tempo, 1229508
1, 95940, Tempo, 1243008
1, 95980, Tempo, 1256545
1, 96000, Tempo, 1203611
1, 96120, Tempo, 1178782
1, 96600, Tempo, 1256545
1, 96720, Tempo, 1178782
1, 97680, Tempo, 1154957
1, 97920, Tempo, 1132075
1, 98160, Tempo, 1154957
1, 98400, Tempo, 1166861
1, 98900, Tempo, 1190949
1, 99060, Tempo, 1178782
1, 99200, Tempo, 1166861
1, 99340, Tempo, 1154957
1, 99420, Tempo, 1166861
1, 99500, Tempo, 1178782
1, 99580, Tempo, 1190949
1, 99660, Tempo, 1203611
1, 99740, Tempo, 1216545
1, 99800, Tempo, 1229508
1, 99840, Tempo, 1203611
1, 99960, Tempo, 1178782
1, 100440, Tempo, 1256545
1, 100560, Tempo, 1178782
1, 101520, Tempo, 1132075
1, 101760, Tempo, 1153846
1, 102240, Tempo, 1153846
1, 102740, Tempo, 1190949
1, 102900, Tempo, 1178782
1, 103040, Tempo, 1166861
1, 103180, Tempo, 1154957
1, 103260, Tempo, 1166861
1, 103340, Tempo, 1178782
1, 103420, Tempo, 1190949
1, 103500, Tempo, 1203611
1, 103580, Tempo, 1216545
1, 103640, Tempo, 1229508
1, 103680, Tempo, 1203611
1, 103800, Tempo, 1178782
1, 104280, Tempo, 1256545
1, 104400, Tempo, 1178782
1, 105360, Tempo, 1143511
1, 105600, Tempo, 1166861
1, 106320, Tempo, 1190949
1, 106560, Tempo, 1190949
1, 106680, Tempo, 1178782
1, 106800, Tempo, 1166861
1, 106920, Tempo, 1154957
1, 107020, Tempo, 1143511
1, 107060, Tempo, 1143511
1, 107120, Tempo, 1154957
1, 107160, Tempo, 1166861
1, 107220, Tempo, 1178782
1, 107260, Tempo, 1190949
1, 107320, Tempo, 1203611
1, 107360, Tempo, 1216545
1, 107420, Tempo, 1229508
1, 107460, Tempo, 1243008
1, 107500, Tempo, 1256545
1, 107520, Tempo, 1203611
1, 107640, Tempo, 1178782
1, 108000, Tempo, 1121076
1, 108240, Tempo, 1178782
1, 108480, Tempo, 1143511
1, 108720, Tempo, 1178782
1, 108960, Tempo, 1143511
1, 109200, Tempo, 1178782
1, 109440, Tempo, 1110083
1, 109560, Tempo, 1178782
1, 109920, Tempo, 1121076
1, 110160, Tempo, 1178782
1, 110400, Tempo, 1143511
1, 110640, Tempo, 1178782
1, 110880, Tempo, 1143511
1, 111120, Tempo, 1178782
1, 111360, Tempo, 1154957
1, 111840, Tempo, 1121076
1, 112080, Tempo, 1165049
1, 112320, Tempo, 1110083
1, 112440, Tempo, 1153846
1, 112800, Tempo, 1121076
1, 113040, Tempo, 1178782
1, 114240, Tempo, 1190949
1, 114360, Tempo, 1178782
1, 114480, Tempo, 1166861
1, 114600, Tempo, 1154957
1, 114700, Tempo, 1143511
1, 114740, Tempo, 1143511
1, 114800, Tempo, 1154957
1, 114840, Tempo, 1166861
1, 114900, Tempo, 1178782
1, 114940, Tempo, 1190949
1, 115000, Tempo, 1203611
1, 115040, Tempo, 1216545
1, 115100, Tempo, 1229508
1, 115140, Tempo, 1243008
1, 115180, Tempo, 1256545
1, 115200, Tempo, 1203611
1, 115320, Tempo, 1132075
1, 115440, Tempo, 1142857
1, 115680, Tempo, 1200000
1, 115800, Tempo, 1153846
1, 115920, Tempo, 1153846
1, 116160, Tempo, 1142857
1, 116280, Tempo, 1121076
1, 116400, Tempo, 1132075
1, 116640, Tempo, 1121076
1, 116880, Tempo, 1178782
1, 117120, Tempo, 1203611
1, 117240, Tempo, 1132075
1, 117360, Tempo, 1153846
1, 117600, Tempo, 1176471
1, 117720, Tempo, 1142857
1, 118080, Tempo, 1142857
1, 118200, Tempo, 1121076
1, 118320, Tempo, 1121495
1, 118560, Tempo, 1121076
1, 118800, Tempo, 1178782
1, 119040, Tempo, 1203611
1, 119160, Tempo, 1132075
1, 119280, Tempo, 1178782
1, 119520, Tempo, 1229508
1, 119640, Tempo, 1166861
1, 119760, Tempo, 1178782
1, 120000, Tempo, 1229508
1, 120120, Tempo, 1121076
1, 120240, Tempo, 1178782
1, 120480, Tempo, 1143511
1, 120720, Tempo, 1178782
1, 120740, Tempo, 1190949
1, 120820, Tempo, 1203611
1, 120900, Tempo, 1216545
1, 120960, Tempo, 1166861
1, 121020, Tempo, 1394700
1, 121080, Tempo, 1229508
1, 121140, Tempo, 1190949
1, 121200, Tempo, 1229508
1, 121920, Tempo, 1256545
1, 122160, Tempo, 1270648
1, 122380, Tempo, 1299264
1, 122400, Tempo, 1270648
1, 122420, Tempo, 1284797
1, 122440, Tempo, 1299264
1, 122460, Tempo, 1314348
1, 122480, Tempo, 1329787
1, 122500, Tempo, 1345291
1, 122520, Tempo, 1377727
1, 122540, Tempo, 1394700
1, 122560, Tempo, 1411765
1, 122580, Tempo, 1429252
1, 122600, Tempo, 1447527
1, 122620, Tempo, 1466276
1, 122640, Tempo, 1504891
1, 122660, Tempo, 1545595
1, 122680, Tempo, 1587722
1, 122700, Tempo, 1633542
1, 122760, Tempo, 1759015
1, 122820, Tempo, 2158273
1, 122880, Tempo, 1485149
1, 123360, Tempo, 1610306
1, 123840, Tempo, 1329787
1, 124560, Tempo, 1377727
1, 124800, Tempo, 1419782
1, 125280, Tempo, 1314348
1, 125760, Tempo, 1299264
1, 126240, Tempo, 1329787
1, 126260, Tempo, 1329787
1, 126300, Tempo, 1345291
1, 126340, Tempo, 1361470
1, 126380, Tempo, 1377727
1, 126420, Tempo, 1394700
1, 126460, Tempo, 1411765
1, 126500, Tempo, 1429252
1, 126540, Tempo, 1447527
1, 126580, Tempo, 1466276
1, 126600, Tempo, 1485149
1, 126620, Tempo, 1587722
1, 126720, Tempo, 1504891
1, 127200, Tempo, 1681614
1, 127680, Tempo, 1377727
1, 128160, Tempo, 1419782
1, 129120, Tempo, 1377727
1, 129600, Tempo, 1394700
1, 130060, Tempo, 1377727
1, 130120, Tempo, 1361470
1, 130160, Tempo, 1377727
1, 130200, Tempo, 1411765
1, 130240, Tempo, 1429252
1, 130280, Tempo, 1466276
1, 130320, Tempo, 1504891
1, 130360, Tempo, 1524778
1, 130400, Tempo, 1566171
1, 130440, Tempo, 1587722
1, 130480, Tempo, 1633542
1, 130520, Tempo, 1681614
1, 130560, Tempo, 1504891
1, 131040, Tempo, 1429252
1, 131400, Tempo, 1610306
1, 131520, Tempo, 1545595
1, 131880, Tempo, 1485149
1, 132000, Tempo, 1566171
1, 132240, Tempo, 1485149
1, 132480, Tempo, 1524778
1, 132960, Tempo, 1466276
1, 133320, Tempo, 1610306
1, 133440, Tempo, 1485149
1, 133680, Tempo, 1610306
1, 133800, Tempo, 1447527
1, 133920, Tempo, 1345291
1, 134040, Tempo, 1429252
1, 134160, Tempo, 1524778
1, 134400, Tempo, 1466276
1, 134880, Tempo, 1566171
1, 135240, Tempo, 1610306
1, 135360, Tempo, 1466276
1, 135600, Tempo, 1466276
1, 135720, Tempo, 1411765
1, 135840, Tempo, 1361470
1, 135960, Tempo, 1361470
1, 136080, Tempo, 1370802
1, 136200, Tempo, 1504891
1, 136320, Tempo, 1485149
1, 136800, Tempo, 1587722
1, 137280, Tempo, 1524778
1, 137760, Tempo, 2242152
1, 138240, Tempo, 937061
1, 138480, Tempo, 2858504
1, 139200, Tempo, 1200000
1, 139200, End_track
2, 0, Start_track
2, 0, Title_t, "Piano right"
2, 0, Program_c, 0, 0
2, 0, Control_c, 0, 7, 100
2, 0, Control_c, 0, 10, 64
2, 0, Note_on_c, 0, 49, 39
2, 0, Note_on_c, 0, 53, 39
2, 0, Note_on_c, 0, 56, 47
2, 0, Text_t, "bdca426d104a26ac9dcb070447587523"
2, 0, Control_c, 0, 91, 127
2, 480, Note_on_c, 0, 56, 0
2, 480, Note_on_c, 0, 53, 0
2, 480, Note_on_c, 0, 49, 0
2, 480, Note_on_c, 0, 49, 37
2, 480, Note_on_c, 0, 58, 44
2, 480, Note_on_c, 0, 54, 44
2, 960, Note_on_c, 0, 54, 0
2, 960, Note_on_c, 0, 58, 0
2, 960, Note_on_c, 0, 49, 0
2, 960, Note_on_c, 0, 49, 37
2, 960, Note_on_c, 0, 53, 37
2, 960, Note_on_c, 0, 56, 44
2, 1680, Note_on_c, 0, 56, 0
2, 1680, Note_on_c, 0, 53, 0
2, 1680, Note_on_c, 0, 49, 0
2, 1680, Note_on_c, 0, 58, 44
2, 1680, Note_on_c, 0, 51, 37
2, 1680, Note_on_c, 0, 49, 37
2, 1920, Note_on_c, 0, 49, 0
2, 1920, Note_on_c, 0, 51, 0
2, 1920, Note_on_c, 0, 58, 0
2, 1920, Note_on_c, 0, 49, 39
2, 1920, Note_on_c, 0, 51, 39
2, 1920, Note_on_c, 0, 56, 47
2, 2400, Note_on_c, 0, 56, 0
2, 2400, Note_on_c, 0, 51, 0
2, 2400, Note_on_c, 0, 49, 0
2, 2400, Note_on_c, 0, 56, 46
2, 2400, Note_on_c, 0, 48, 38
2, 2400, Note_on_c, 0, 51, 38
2, 2880, Note_on_c, 0, 51, 0
2, 2880, Note_on_c, 0, 48, 0
2, 2880, Note_on_c, 0, 56, 0
2, 2880, Note_on_c, 0, 49, 39
2, 2880, Note_on_c, 0, 53, 39
2, 2880, Note_on_c, 0, 56, 47
2, 3840, Note_on_c, 0, 56, 0
2, 3840, Note_on_c, 0, 53, 0
2, 3840, Note_on_c, 0, 49, 0
2, 3840, Note_on_c, 0, 61, 54
2, 3840, Note_on_c, 0, 56, 45
2, 3840, Note_on_c, 0, 53, 45
2, 4320, Note_on_c, 0, 53, 0
2, 4320, Note_on_c, 0, 56, 0
2, 4320, Note_on_c, 0, 61, 0
2, 4320, Note_on_c, 0, 54, 47
2, 4320, Note_on_c, 0, 58, 47
2, 4320, Note_on_c, 0, 61, 56
2, 4800, Note_on_c, 0, 61, 0
2, 4800, Note_on_c, 0, 58, 0
2, 4800, Note_on_c, 0, 54, 0
2, 4800, Note_on_c, 0, 56, 36
2, 4800, Note_on_c, 0, 53, 36
2, 4800, Note_on_c, 0, 61, 44
2, 5520, Note_on_c, 0, 61, 0
2, 5520, Note_on_c, 0, 53, 0
2, 5520, Note_on_c, 0, 56, 0
2, 5520, Note_on_c, 0, 52, 37
2, 5520, Note_on_c, 0, 61, 44
2, 5520, Note_on_c, 0, 55, 37
2, 5760, Note_on_c, 0, 55, 0
2, 5760, Note_on_c, 0, 61, 0
2, 5760, Note_on_c, 0, 52, 0
2, 5760, Note_on_c, 0, 54, 39
2, 5760, Note_on_c, 0, 51, 39
2, 5760, Note_on_c, 0, 61, 47
2, 6240, Note_on_c, 0, 61, 0
2, 6240, Note_on_c, 0, 51, 0
2, 6240, Note_on_c, 0, 54, 0
2, 6240, Note_on_c, 0, 51, 37
2, 6240, Note_on_c, 0, 60, 43
2, 6240, Note_on_c, 0, 54, 37
2, 6720, Note_on_c, 0, 54, 0
2, 6720, Note_on_c, 0, 60, 0
2, 6720, Note_on_c, 0, 51, 0
2, 6720, Note_on_c, 0, 49, 37
2, 6720, Note_on_c, 0, 53, 37
2, 6720, Note_on_c, 0, 61, 43
2, 7440, Note_on_c, 0, 61, 0
2, 7440, Note_on_c, 0, 53, 0
2, 7440, Note_on_c, 0, 49, 0
2, 7680, Note_on_c, 0, 49, 39
2, 7680, Note_on_c, 0, 53, 39
2, 7680, Note_on_c, 0, 56, 47
2, 8160, Note_on_c, 0, 56, 0
2, 8160, Note_on_c, 0, 53, 0
2, 8160, Note_on_c, 0, 49, 0
2, 8160, Note_on_c, 0, 49, 37
2, 8160, Note_on_c, 0, 54, 44
2, 8160, Note_on_c, 0, 58, 44
2, 8640, Note_on_c, 0, 58, 0
2, 8640, Note_on_c, 0, 54, 0
2, 8640, Note_on_c, 0, 49, 0
2, 8640, Note_on_c, 0, 49, 37
2, 8640, Note_on_c, 0, 53, 37
2, 8640, Note_on_c, 0, 56, 44
2, 9360, Note_on_c, 0, 56, 0
2, 9360, Note_on_c, 0, 53, 0
2, 9360, Note_on_c, 0, 49, 0
2, 9360, Note_on_c, 0, 49, 37
2, 9360, Note_on_c, 0, 51, 37
2, 9360, Note_on_c, 0, 58, 44
2, 9600, Note_on_c, 0, 58, 0
2, 9600, Note_on_c, 0, 51, 0
2, 9600, Note_on_c, 0, 49, 0
2, 9600, Note_on_c, 0, 49, 39
2, 9600, Note_on_c, 0, 51, 39
2, 9600, Note_on_c, 0, 56, 47
2, 10080, Note_on_c, 0, 56, 0
2, 10080, Note_on_c, 0, 51, 0
2, 10080, Note_on_c, 0, 49, 0
2, 10080, Note_on_c, 0, 48, 38
2, 10080, Note_on_c, 0, 51, 38
2, 10080, Note_on_c, 0, 56, 46
2, 10560, Note_on_c, 0, 56, 0
2, 10560, Note_on_c, 0, 51, 0
2, 10560, Note_on_c, 0, 48, 0
2, 10560, Note_on_c, 0, 49, 39
2, 10560, Note_on_c, 0, 53, 39
2, 10560, Note_on_c, 0, 56, 47
2, 11520, Note_on_c, 0, 56, 0
2, 11520, Note_on_c, 0, 53, 0
2, 11520, Note_on_c, 0, 49, 0
2, 11520, Note_on_c, 0, 53, 45
2, 11520, Note_on_c, 0, 56, 45
2, 11520, Note_on_c, 0, 61, 54
2, 12000, Note_on_c, 0, 61, 0
2, 12000, Note_on_c, 0, 56, 0
2, 12000, Note_on_c, 0, 53, 0
2, 12000, Note_on_c, 0, 54, 47
2, 12000, Note_on_c, 0, 58, 47
2, 12000, Note_on_c, 0, 61, 56
2, 12480, Note_on_c, 0, 61, 0
2, 12480, Note_on_c, 0, 58, 0
2, 12480, Note_on_c, 0, 54, 0
2, 12480, Note_on_c, 0, 53, 34
2, 12480, Note_on_c, 0, 56, 34
2, 12480, Note_on_c, 0, 61, 41
2, 13200, Note_on_c, 0, 61, 0
2, 13200, Note_on_c, 0, 56, 0
2, 13200, Note_on_c, 0, 53, 0
2, 13200, Note_on_c, 0, 52, 37
2, 13200, Note_on_c, 0, 55, 37
2, 13200, Note_on_c, 0, 61, 44
2, 13440, Note_on_c, 0, 61, 0
2, 13440, Note_on_c, 0, 55, 0
2, 13440, Note_on_c, 0, 52, 0
2, 13440, Note_on_c, 0, 51, 39
2, 13440, Note_on_c, 0, 54, 39
2, 13440, Note_on_c, 0, 61, 47
2, 13920, Note_on_c, 0, 61, 0
2, 13920, Note_on_c, 0, 54, 0
2, 13920, Note_on_c, 0, 51, 0
2, 13920, Note_on_c, 0, 51, 37
2, 13920, Note_on_c, 0, 54, 37
2, 13920, Note_on_c, 0, 60, 43
2, 14400, Note_on_c, 0, 60, 0
2, 14400, Note_on_c, 0, 54, 0
2, 14400, Note_on_c, 0, 51, 0
2, 14400, Note_on_c, 0, 49, 37
2, 14400, Note_on_c, 0, 53, 37
2, 14400, Note_on_c, 0, 61, 43
2, 15120, Note_on_c, 0, 61, 0
2, 15120, Note_on_c, 0, 53, 0
2, 15120, Note_on_c, 0, 49, 0
2, 15360, Note_on_c, 0, 48, 39
2, 15360, Note_on_c, 0, 51, 39
2, 15360, Note_on_c, 0, 56, 47
2, 15840, Note_on_c, 0, 56, 0
2, 15840, Note_on_c, 0, 51, 0
2, 15840, Note_on_c, 0, 48, 0
2, 15840, Note_on_c, 0, 48, 37
2, 15840, Note_on_c, 0, 54, 44
2, 15840, Note_on_c, 0, 56, 44
2, 16260, Note_on_c, 0, 56, 0
2, 16260, Note_on_c, 0, 54, 0
2, 16260, Note_on_c, 0, 48, 0
2, 16260, Note_on_c, 0, 48, 37
2, 16260, Note_on_c, 0, 51, 44
2, 16260, Note_on_c, 0, 56, 44
2, 16320, Note_on_c, 0, 56, 0
2, 16320, Note_on_c, 0, 51, 0
2, 16320, Note_on_c, 0, 48, 0
2, 16320, Note_on_c, 0, 49, 39
2, 16320, Note_on_c, 0, 53, 39
2, 16320, Note_on_c, 0, 56, 47
2, 16680, Note_on_c, 0, 56, 0
2, 16680, Note_on_c, 0, 53, 0
2, 16680, Note_on_c, 0, 49, 0
2, 16680, Note_on_c, 0, 53, 45
2, 16680, Note_on_c, 0, 56, 45
2, 16680, Note_on_c, 0, 61, 53
2, 16800, Note_on_c, 0, 61, 0
2, 16800, Note_on_c, 0, 56, 0
2, 16800, Note_on_c, 0, 53, 0
2, 16800, Note_on_c, 0, 56, 41
2, 16800, Note_on_c, 0, 54, 41
2, 16800, Note_on_c, 0, 60, 49
2, 17040, Note_on_c, 0, 60, 0
2, 17040, Note_on_c, 0, 54, 0
2, 17040, Note_on_c, 0, 56, 0
2, 17040, Note_on_c, 0, 53, 31
2, 17040, Note_on_c, 0, 56, 31
2, 17040, Note_on_c, 0, 61, 37
2, 17280, Note_on_c, 0, 61, 0
2, 17280, Note_on_c, 0, 56, 0
2, 17280, Note_on_c, 0, 53, 0
2, 17280, Note_on_c, 0, 48, 39
2, 17280, Note_on_c, 0, 51, 39
2, 17280, Note_on_c, 0, 56, 47
2, 17760, Note_on_c, 0, 56, 0
2, 17760, Note_on_c, 0, 51, 0
2, 17760, Note_on_c, 0, 48, 0
2, 17760, Note_on_c, 0, 48, 37
2, 17760, Note_on_c, 0, 54, 44
2, 17760, Note_on_c, 0, 56, 44
2, 18180, Note_on_c, 0, 56, 0
2, 18180, Note_on_c, 0, 54, 0
2, 18180, Note_on_c, 0, 48, 0
2, 18180, Note_on_c, 0, 48, 37
2, 18180, Note_on_c, 0, 51, 44
2, 18180, Note_on_c, 0, 56, 44
2, 18240, Note_on_c, 0, 56, 0
2, 18240, Note_on_c, 0, 51, 0
2, 18240, Note_on_c, 0, 48, 0
2, 18240, Note_on_c, 0, 49, 39
2, 18240, Note_on_c, 0, 53, 39
2, 18240, Note_on_c, 0, 56, 47
2, 18600, Note_on_c, 0, 56, 0
2, 18600, Note_on_c, 0, 53, 0
2, 18600, Note_on_c, 0, 49, 0
2, 18600, Note_on_c, 0, 53, 45
2, 18600, Note_on_c, 0, 56, 45
2, 18600, Note_on_c, 0, 65, 55
2, 18720, Note_on_c, 0, 65, 0
2, 18720, Note_on_c, 0, 56, 0
2, 18720, Note_on_c, 0, 53, 0
2, 18720, Note_on_c, 0, 56, 45
2, 18720, Note_on_c, 0, 54, 45
2, 18720, Note_on_c, 0, 65, 58
2, 18840, Note_on_c, 0, 65, 0
2, 18840, Note_on_c, 0, 63, 51
2, 18960, Note_on_c, 0, 63, 0
2, 18960, Note_on_c, 0, 54, 0
2, 18960, Note_on_c, 0, 56, 0
2, 18960, Note_on_c, 0, 53, 31
2, 18960, Note_on_c, 0, 56, 31
2, 18960, Note_on_c, 0, 61, 37
2, 19200, Note_on_c, 0, 61, 0
2, 19200, Note_on_c, 0, 56, 0
2, 19200, Note_on_c, 0, 53, 0
2, 19200, Note_on_c, 0, 48, 46
2, 19200, Note_on_c, 0, 51, 46
2, 19200, Note_on_c, 0, 56, 56
2, 19680, Note_on_c, 0, 56, 0
2, 19680, Note_on_c, 0, 51, 0
2, 19680, Note_on_c, 0, 48, 0
2, 19680, Note_on_c, 0, 48, 52
2, 19680, Note_on_c, 0, 54, 62
2, 19680, Note_on_c, 0, 56, 62
2, 20100, Note_on_c, 0, 56, 0
2, 20100, Note_on_c, 0, 54, 0
2, 20100, Note_on_c, 0, 48, 0
2, 20100, Note_on_c, 0, 48, 57
2, 20100, Note_on_c, 0, 51, 68
2, 20100, Note_on_c, 0, 56, 68
2, 20160, Note_on_c, 0, 56, 0
2, 20160, Note_on_c, 0, 51, 0
2, 20160, Note_on_c, 0, 48, 0
2, 20160, Note_on_c, 0, 56, 70
2, 20160, Note_on_c, 0, 61, 70
2, 20160, Note_on_c, 0, 68, 87
2, 20520, Note_on_c, 0, 68, 0
2, 20520, Note_on_c, 0, 61, 0
2, 20520, Note_on_c, 0, 56, 0
2, 20520, Note_on_c, 0, 61, 60
2, 20520, Note_on_c, 0, 65, 60
2, 20520, Note_on_c, 0, 68, 72
2, 20640, Note_on_c, 0, 68, 0
2, 20640, Note_on_c, 0, 65, 0
2, 20640, Note_on_c, 0, 61, 0
2, 20640, Note_on_c, 0, 63, 61
2, 20640, Note_on_c, 0, 60, 61
2, 20640, Note_on_c, 0, 68, 79
2, 20760, Note_on_c, 0, 68, 0
2, 20760, Note_on_c, 0, 66, 66
2, 20880, Note_on_c, 0, 66, 0
2, 20880, Note_on_c, 0, 60, 0
2, 20880, Note_on_c, 0, 63, 0
2, 20880, Note_on_c, 0, 56, 44
2, 20880, Note_on_c, 0, 61, 44
2, 20880, Note_on_c, 0, 65, 55
2, 21120, Note_on_c, 0, 65, 0
2, 21120, Note_on_c, 0, 61, 0
2, 21120, Note_on_c, 0, 56, 0
2, 21120, Note_on_c, 0, 54, 39
2, 21120, Note_on_c, 0, 58, 39
2, 21120, Note_on_c, 0, 63, 47
2, 21600, Note_on_c, 0, 63, 0
2, 21600, Note_on_c, 0, 58, 0
2, 21600, Note_on_c, 0, 54, 0
2, 21600, Note_on_c, 0, 48, 37
2, 21600, Note_on_c, 0, 51, 37
2, 21600, Note_on_c, 0, 56, 43
2, 22080, Note_on_c, 0, 56, 0
2, 22080, Note_on_c, 0, 51, 0
2, 22080, Note_on_c, 0, 48, 0
2, 22080, Note_on_c, 0, 49, 37
2, 22080, Note_on_c, 0, 53, 37
2, 22080, Note_on_c, 0, 61, 43
2, 22800, Note_on_c, 0, 61, 0
2, 22800, Note_on_c, 0, 53, 0
2, 22800, Note_on_c, 0, 49, 0
2, 23040, Note_on_c, 0, 48, 39
2, 23040, Note_on_c, 0, 51, 39
2, 23040, Note_on_c, 0, 56, 47
2, 23520, Note_on_c, 0, 56, 0
2, 23520, Note_on_c, 0, 51, 0
2, 23520, Note_on_c, 0, 48, 0
2, 23520, Note_on_c, 0, 48, 37
2, 23520, Note_on_c, 0, 54, 44
2, 23520, Note_on_c, 0, 56, 44
2, 23940, Note_on_c, 0, 56, 0
2, 23940, Note_on_c, 0, 54, 0
2, 23940, Note_on_c, 0, 48, 0
2, 23940, Note_on_c, 0, 48, 37
2, 23940, Note_on_c, 0, 51, 44
2, 23940, Note_on_c, 0, 56, 44
2, 24000, Note_on_c, 0, 56, 0
2, 24000, Note_on_c, 0, 51, 0
2, 24000, Note_on_c, 0, 48, 0
2, 24000, Note_on_c, 0, 49, 39
2, 24000, Note_on_c, 0, 53, 39
2, 24000, Note_on_c, 0, 56, 47
2, 24360, Note_on_c, 0, 56, 0
2, 24360, Note_on_c, 0, 53, 0
2, 24360, Note_on_c, 0, 49, 0
2, 24360, Note_on_c, 0, 53, 45
2, 24360, Note_on_c, 0, 56, 45
2, 24360, Note_on_c, 0, 61, 53
2, 24480, Note_on_c, 0, 61, 0
2, 24480, Note_on_c, 0, 56, 0
2, 24480, Note_on_c, 0, 53, 0
2, 24480, Note_on_c, 0, 56, 41
2, 24480, Note_on_c, 0, 54, 41
2, 24480, Note_on_c, 0, 60, 49
2, 24720, Note_on_c, 0, 60, 0
2, 24720, Note_on_c, 0, 54, 0
2, 24720, Note_on_c, 0, 56, 0
2, 24720, Note_on_c, 0, 53, 31
2, 24720, Note_on_c, 0, 56, 31
2, 24720, Note_on_c, 0, 61, 37
2, 24960, Note_on_c, 0, 61, 0
2, 24960, Note_on_c, 0, 56, 0
2, 24960, Note_on_c, 0, 53, 0
2, 24960, Note_on_c, 0, 48, 39
2, 24960, Note_on_c, 0, 51, 39
2, 24960, Note_on_c, 0, 56, 47
2, 25440, Note_on_c, 0, 56, 0
2, 25440, Note_on_c, 0, 51, 0
2, 25440, Note_on_c, 0, 48, 0
2, 25440, Note_on_c, 0, 48, 37
2, 25440, Note_on_c, 0, 54, 44
2, 25440, Note_on_c, 0, 56, 44
2, 25860, Note_on_c, 0, 56, 0
2, 25860, Note_on_c, 0, 54, 0
2, 25860, Note_on_c, 0, 48, 0
2, 25860, Note_on_c, 0, 48, 37
2, 25860, Note_on_c, 0, 51, 44
2, 25860, Note_on_c, 0, 56, 44
2, 25920, Note_on_c, 0, 56, 0
2, 25920, Note_on_c, 0, 51, 0
2, 25920, Note_on_c, 0, 48, 0
2, 25920, Note_on_c, 0, 49, 39
2, 25920, Note_on_c, 0, 53, 39
2, 25920, Note_on_c, 0, 56, 47
2, 26280, Note_on_c, 0, 56, 0
2, 26280, Note_on_c, 0, 53, 0
2, 26280, Note_on_c, 0, 49, 0
2, 26280, Note_on_c, 0, 53, 45
2, 26280, Note_on_c, 0, 56, 45
2, 26280, Note_on_c, 0, 65, 55
2, 26400, Note_on_c, 0, 65, 0
2, 26400, Note_on_c, 0, 56, 0
2, 26400, Note_on_c, 0, 53, 0
2, 26400, Note_on_c, 0, 56, 45
2, 26400, Note_on_c, 0, 54, 45
2, 26400, Note_on_c, 0, 65, 58
2, 26520, Note_on_c, 0, 65, 0
2, 26520, Note_on_c, 0, 63, 51
2, 26640, Note_on_c, 0, 63, 0
2, 26640, Note_on_c, 0, 54, 0
2, 26640, Note_on_c, 0, 56, 0
2, 26640, Note_on_c, 0, 53, 31
2, 26640, Note_on_c, 0, 56, 31
2, 26640, Note_on_c, 0, 61, 37
2, 26880, Note_on_c, 0, 61, 0
2, 26880, Note_on_c, 0, 56, 0
2, 26880, Note_on_c, 0, 53, 0
2, 26880, Note_on_c, 0, 48, 46
2, 26880, Note_on_c, 0, 51, 46
2, 26880, Note_on_c, 0, 56, 56
2, 27360, Note_on_c, 0, 56, 0
2, 27360, Note_on_c, 0, 51, 0
2, 27360, Note_on_c, 0, 48, 0
2, 27360, Note_on_c, 0, 48, 52
2, 27360, Note_on_c, 0, 54, 62
2, 27360, Note_on_c, 0, 56, 62
2, 27780, Note_on_c, 0, 56, 0
2, 27780, Note_on_c, 0, 54, 0
2, 27780, Note_on_c, 0, 48, 0
2, 27780, Note_on_c, 0, 48, 57
2, 27780, Note_on_c, 0, 51, 68
2, 27780, Note_on_c, 0, 56, 68
2, 27840, Note_on_c, 0, 56, 0
2, 27840, Note_on_c, 0, 51, 0
2, 27840, Note_on_c, 0, 48, 0
2, 27840, Note_on_c, 0, 56, 70
2, 27840, Note_on_c, 0, 61, 70
2, 27840, Note_on_c, 0, 68, 87
2, 28200, Note_on_c, 0, 68, 0
2, 28200, Note_on_c, 0, 61, 0
2, 28200, Note_on_c, 0, 56, 0
2, 28200, Note_on_c, 0, 61, 61
2, 28200, Note_on_c, 0, 65, 61
2, 28200, Note_on_c, 0, 68, 73
2, 28320, Note_on_c, 0, 68, 0
2, 28320, Note_on_c, 0, 65, 0
2, 28320, Note_on_c, 0, 61, 0
2, 28320, Note_on_c, 0, 63, 61
2, 28320, Note_on_c, 0, 60, 61
2, 28320, Note_on_c, 0, 68, 79
2, 28440, Note_on_c, 0, 68, 0
2, 28440, Note_on_c, 0, 66, 66
2, 28560, Note_on_c, 0, 66, 0
2, 28560, Note_on_c, 0, 60, 0
2, 28560, Note_on_c, 0, 63, 0
2, 28560, Note_on_c, 0, 56, 44
2, 28560, Note_on_c, 0, 61, 44
2, 28560, Note_on_c, 0, 65, 55
2, 28800, Note_on_c, 0, 65, 0
2, 28800, Note_on_c, 0, 61, 0
2, 28800, Note_on_c, 0, 56, 0
2, 28800, Note_on_c, 0, 54, 39
2, 28800, Note_on_c, 0, 58, 39
2, 28800, Note_on_c, 0, 63, 47
2, 29280, Note_on_c, 0, 63, 0
2, 29280, Note_on_c, 0, 58, 0
2, 29280, Note_on_c, 0, 54, 0
2, 29280, Note_on_c, 0, 48, 37
2, 29280, Note_on_c, 0, 51, 37
2, 29280, Note_on_c, 0, 56, 43
2, 29760, Note_on_c, 0, 56, 0
2, 29760, Note_on_c, 0, 51, 0
2, 29760, Note_on_c, 0, 48, 0
2, 29760, Note_on_c, 0, 49, 37
2, 29760, Note_on_c, 0, 53, 37
2, 29760, Note_on_c, 0, 61, 43
2, 30480, Note_on_c, 0, 61, 0
2, 30480, Note_on_c, 0, 53, 0
2, 30480, Note_on_c, 0, 49, 0
2, 30720, Note_on_c, 0, 49, 39
2, 30720, Note_on_c, 0, 53, 39
2, 30720, Note_on_c, 0, 56, 47
2, 30960, Note_on_c, 0, 56, 0
2, 30960, Note_on_c, 0, 53, 0
2, 30960, Note_on_c, 0, 49, 0
2, 31200, Note_on_c, 0, 49, 37
2, 31200, Note_on_c, 0, 54, 37
2, 31200, Note_on_c, 0, 58, 44
2, 31440, Note_on_c, 0, 58, 0
2, 31440, Note_on_c, 0, 54, 0
2, 31440, Note_on_c, 0, 49, 0
2, 31680, Note_on_c, 0, 49, 39
2, 31680, Note_on_c, 0, 53, 39
2, 31680, Note_on_c, 0, 56, 47
2, 31920, Note_on_c, 0, 56, 0
2, 31920, Note_on_c, 0, 53, 0
2, 31920, Note_on_c, 0, 49, 0
2, 32160, Note_on_c, 0, 49, 37
2, 32160, Note_on_c, 0, 51, 37
2, 32160, Note_on_c, 0, 58, 44
2, 32400, Note_on_c, 0, 58, 0
2, 32400, Note_on_c, 0, 51, 0
2, 32400, Note_on_c, 0, 49, 0
2, 32640, Note_on_c, 0, 49, 39
2, 32640, Note_on_c, 0, 51, 39
2, 32640, Note_on_c, 0, 56, 47
2, 32880, Note_on_c, 0, 56, 0
2, 32880, Note_on_c, 0, 51, 0
2, 32880, Note_on_c, 0, 49, 0
2, 33120, Note_on_c, 0, 48, 38
2, 33120, Note_on_c, 0, 51, 38
2, 33120, Note_on_c, 0, 56, 46
2, 33360, Note_on_c, 0, 56, 0
2, 33360, Note_on_c, 0, 51, 0
2, 33360, Note_on_c, 0, 48, 0
2, 33600, Note_on_c, 0, 54, 38
2, 33720, Note_on_c, 0, 54, 0
2, 33840, Note_on_c, 0, 53, 37
2, 33960, Note_on_c, 0, 53, 0
2, 34080, Note_on_c, 0, 51, 36
2, 34200, Note_on_c, 0, 51, 0
2, 34320, Note_on_c, 0, 49, 35
2, 34440, Note_on_c, 0, 49, 0
2, 34560, Note_on_c, 0, 53, 40
2, 34560, Note_on_c, 0, 56, 40
2, 34560, Note_on_c, 0, 61, 49
2, 34800, Note_on_c, 0, 61, 0
2, 34800, Note_on_c, 0, 56, 0
2, 34800, Note_on_c, 0, 53, 0
2, 35040, Note_on_c, 0, 54, 38
2, 35040, Note_on_c, 0, 58, 46
2, 35040, Note_on_c, 0, 61, 46
2, 35280, Note_on_c, 0, 61, 0
2, 35280, Note_on_c, 0, 58, 0
2, 35280, Note_on_c, 0, 54, 0
2, 35520, Note_on_c, 0, 53, 40
2, 35520, Note_on_c, 0, 56, 40
2, 35520, Note_on_c, 0, 61, 49
2, 35760, Note_on_c, 0, 61, 0
2, 35760, Note_on_c, 0, 56, 0
2, 35760, Note_on_c, 0, 53, 0
2, 36000, Note_on_c, 0, 52, 38
2, 36000, Note_on_c, 0, 55, 38
2, 36000, Note_on_c, 0, 61, 46
2, 36240, Note_on_c, 0, 61, 0
2, 36240, Note_on_c, 0, 55, 0
2, 36240, Note_on_c, 0, 52, 0
2, 36480, Note_on_c, 0, 51, 39
2, 36480, Note_on_c, 0, 54, 39
2, 36480, Note_on_c, 0, 61, 47
2, 36720, Note_on_c, 0, 61, 0
2, 36720, Note_on_c, 0, 54, 0
2, 36720, Note_on_c, 0, 51, 0
2, 36960, Note_on_c, 0, 51, 38
2, 36960, Note_on_c, 0, 54, 38
2, 36960, Note_on_c, 0, 60, 46
2, 37200, Note_on_c, 0, 60, 0
2, 37200, Note_on_c, 0, 54, 0
2, 37200, Note_on_c, 0, 51, 0
2, 37440, Note_on_c, 0, 49, 35
2, 37440, Note_on_c, 0, 53, 35
2, 37440, Note_on_c, 0, 61, 42
2, 37560, Note_on_c, 0, 61, 0
2, 37560, Note_on_c, 0, 53, 0
2, 37560, Note_on_c, 0, 49, 0
2, 37680, Note_on_c, 0, 56, 39
2, 37800, Note_on_c, 0, 56, 0
2, 37920, Note_on_c, 0, 53, 42
2, 38040, Note_on_c, 0, 53, 0
2, 38160, Note_on_c, 0, 51, 39
2, 38280, Note_on_c, 0, 51, 0
2, 38400, Note_on_c, 0, 49, 39
2, 38400, Note_on_c, 0, 53, 39
2, 38400, Note_on_c, 0, 56, 47
2, 38640, Note_on_c, 0, 56, 0
2, 38640, Note_on_c, 0, 53, 0
2, 38640, Note_on_c, 0, 49, 0
2, 38880, Note_on_c, 0, 49, 37
2, 38880, Note_on_c, 0, 54, 37
2, 38880, Note_on_c, 0, 58, 44
2, 39120, Note_on_c, 0, 58, 0
2, 39120, Note_on_c, 0, 54, 0
2, 39120, Note_on_c, 0, 49, 0
2, 39360, Note_on_c, 0, 49, 39
2, 39360, Note_on_c, 0, 53, 39
2, 39360, Note_on_c, 0, 56, 47
2, 39600, Note_on_c, 0, 56, 0
2, 39600, Note_on_c, 0, 53, 0
2, 39600, Note_on_c, 0, 49, 0
2, 39840, Note_on_c, 0, 49, 37
2, 39840, Note_on_c, 0, 51, 37
2, 39840, Note_on_c, 0, 58, 44
2, 40080, Note_on_c, 0, 58, 0
2, 40080, Note_on_c, 0, 51, 0
2, 40080, Note_on_c, 0, 49, 0
2, 40320, Note_on_c, 0, 49, 39
2, 40320, Note_on_c, 0, 51, 39
2, 40320, Note_on_c, 0, 56, 47
2, 40560, Note_on_c, 0, 56, 0
2, 40560, Note_on_c, 0, 51, 0
2, 40560, Note_on_c, 0, 49, 0
2, 40800, Note_on_c, 0, 48, 38
2, 40800, Note_on_c, 0, 51, 38
2, 40800, Note_on_c, 0, 56, 46
2, 41040, Note_on_c, 0, 56, 0
2, 41040, Note_on_c, 0, 51, 0
2, 41040, Note_on_c, 0, 48, 0
2, 41280, Note_on_c, 0, 54, 39
2, 41400, Note_on_c, 0, 54, 0
2, 41520, Note_on_c, 0, 53, 38
2, 41640, Note_on_c, 0, 53, 0
2, 41760, Note_on_c, 0, 51, 38
2, 41880, Note_on_c, 0, 51, 0
2, 42000, Note_on_c, 0, 49, 37
2, 42120, Note_on_c, 0, 49, 0
2, 42240, Note_on_c, 0, 53, 40
2, 42240, Note_on_c, 0, 56, 40
2, 42240, Note_on_c, 0, 61, 49
2, 42480, Note_on_c, 0, 61, 0
2, 42480, Note_on_c, 0, 56, 0
2, 42480, Note_on_c, 0, 53, 0
2, 42720, Note_on_c, 0, 54, 38
2, 42720, Note_on_c, 0, 58, 46
2, 42720, Note_on_c, 0, 61, 46
2, 42960, Note_on_c, 0, 61, 0
2, 42960, Note_on_c, 0, 58, 0
2, 42960, Note_on_c, 0, 54, 0
2, 43200, Note_on_c, 0, 53, 40
2, 43200, Note_on_c, 0, 56, 40
2, 43200, Note_on_c, 0, 61, 49
2, 43440, Note_on_c, 0, 61, 0
2, 43440, Note_on_c, 0, 56, 0
2, 43440, Note_on_c, 0, 53, 0
2, 43680, Note_on_c, 0, 52, 38
2, 43680, Note_on_c, 0, 55, 38
2, 43680, Note_on_c, 0, 61, 46
2, 43920, Note_on_c, 0, 61, 0
2, 43920, Note_on_c, 0, 55, 0
2, 43920, Note_on_c, 0, 52, 0
2, 44160, Note_on_c, 0, 51, 39
2, 44160, Note_on_c, 0, 54, 39
2, 44160, Note_on_c, 0, 61, 47
2, 44400, Note_on_c, 0, 61, 0
2, 44400, Note_on_c, 0, 54, 0
2, 44400, Note_on_c, 0, 51, 0
2, 44640, Note_on_c, 0, 51, 38
2, 44640, Note_on_c, 0, 54, 38
2, 44640, Note_on_c, 0, 60, 46
2, 44880, Note_on_c, 0, 60, 0
2, 44880, Note_on_c, 0, 54, 0
2, 44880, Note_on_c, 0, 51, 0
2, 45120, Note_on_c, 0, 49, 35
2, 45120, Note_on_c, 0, 53, 35
2, 45120, Note_on_c, 0, 61, 42
2, 45240, Note_on_c, 0, 61, 0
2, 45240, Note_on_c, 0, 53, 0
2, 45240, Note_on_c, 0, 49, 0
2, 45360, Note_on_c, 0, 56, 39
2, 45480, Note_on_c, 0, 56, 0
2, 45600, Note_on_c, 0, 53, 42
2, 45720, Note_on_c, 0, 53, 0
2, 45840, Note_on_c, 0, 49, 39
2, 45960, Note_on_c, 0, 49, 0
2, 46080, Note_on_c, 0, 48, 39
2, 46080, Note_on_c, 0, 51, 39
2, 46080, Note_on_c, 0, 56, 47
2, 46320, Note_on_c, 0, 56, 0
2, 46320, Note_on_c, 0, 51, 0
2, 46320, Note_on_c, 0, 48, 0
2, 46560, Note_on_c, 0, 48, 38
2, 46560, Note_on_c, 0, 51, 38
2, 46560, Note_on_c, 0, 56, 46
2, 46800, Note_on_c, 0, 56, 0
2, 46800, Note_on_c, 0, 51, 0
2, 46800, Note_on_c, 0, 48, 0
2, 47040, Note_on_c, 0, 49, 42
2, 47040, Note_on_c, 0, 53, 42
2, 47040, Note_on_c, 0, 56, 42
2, 47280, Note_on_c, 0, 56, 0
2, 47280, Note_on_c, 0, 53, 0
2, 47280, Note_on_c, 0, 49, 0
2, 47280, Note_on_c, 0, 53, 45
2, 47400, Note_on_c, 0, 53, 0
2, 47520, Note_on_c, 0, 54, 52
2, 47640, Note_on_c, 0, 54, 0
2, 47760, Note_on_c, 0, 56, 54
2, 47880, Note_on_c, 0, 56, 0
2, 48000, Note_on_c, 0, 48, 50
2, 48000, Note_on_c, 0, 51, 50
2, 48000, Note_on_c, 0, 56, 61
2, 48240, Note_on_c, 0, 56, 0
2, 48240, Note_on_c, 0, 51, 0
2, 48240, Note_on_c, 0, 48, 0
2, 48480, Note_on_c, 0, 51, 49
2, 48480, Note_on_c, 0, 56, 49
2, 48480, Note_on_c, 0, 60, 60
2, 48720, Note_on_c, 0, 60, 0
2, 48720, Note_on_c, 0, 56, 0
2, 48720, Note_on_c, 0, 51, 0
2, 48960, Note_on_c, 0, 53, 60
2, 48960, Note_on_c, 0, 56, 60
2, 48960, Note_on_c, 0, 61, 60
2, 49200, Note_on_c, 0, 61, 0
2, 49200, Note_on_c, 0, 56, 0
2, 49200, Note_on_c, 0, 53, 0
2, 49200, Note_on_c, 0, 56, 67
2, 49320, Note_on_c, 0, 56, 0
2, 49440, Note_on_c, 0, 60, 73
2, 49560, Note_on_c, 0, 60, 0
2, 49680, Note_on_c, 0, 61, 75
2, 49800, Note_on_c, 0, 61, 0
2, 49920, Note_on_c, 0, 48, 77
2, 49920, Note_on_c, 0, 51, 77
2, 49920, Note_on_c, 0, 56, 91
2, 50160, Note_on_c, 0, 56, 0
2, 50160, Note_on_c, 0, 51, 0
2, 50160, Note_on_c, 0, 48, 0
2, 50400, Note_on_c, 0, 54, 57
2, 50400, Note_on_c, 0, 60, 57
2, 50400, Note_on_c, 0, 63, 84
2, 50640, Note_on_c, 0, 63, 0
2, 50640, Note_on_c, 0, 60, 0
2, 50640, Note_on_c, 0, 54, 0
2, 50880, Note_on_c, 0, 53, 74
2, 50880, Note_on_c, 0, 61, 74
2, 50880, Note_on_c, 0, 65, 89
2, 51120, Note_on_c, 0, 65, 0
2, 51120, Note_on_c, 0, 61, 0
2, 51120, Note_on_c, 0, 53, 0
2, 51120, Note_on_c, 0, 65, 73
2, 51120, Note_on_c, 0, 53, 61
2, 51240, Note_on_c, 0, 53, 0
2, 51240, Note_on_c, 0, 65, 0
2, 51360, Note_on_c, 0, 66, 78
2, 51360, Note_on_c, 0, 54, 66
2, 51480, Note_on_c, 0, 54, 0
2, 51480, Note_on_c, 0, 66, 0
2, 51600, Note_on_c, 0, 68, 75
2, 51600, Note_on_c, 0, 56, 65
2, 51720, Note_on_c, 0, 56, 0
2, 51720, Note_on_c, 0, 68, 0
2, 51840, Note_on_c, 0, 58, 58
2, 51840, Note_on_c, 0, 70, 58
2, 52080, Note_on_c, 0, 70, 0
2, 52080, Note_on_c, 0, 58, 0
2, 52320, Note_on_c, 0, 48, 38
2, 52320, Note_on_c, 0, 51, 38
2, 52320, Note_on_c, 0, 56, 46
2, 52560, Note_on_c, 0, 56, 0
2, 52560, Note_on_c, 0, 51, 0
2, 52560, Note_on_c, 0, 48, 0
2, 52800, Note_on_c, 0, 54, 40
2, 52920, Note_on_c, 0, 54, 0
2, 53040, Note_on_c, 0, 53, 39
2, 53160, Note_on_c, 0, 53, 0
2, 53280, Note_on_c, 0, 51, 38
2, 53400, Note_on_c, 0, 51, 0
2, 53520, Note_on_c, 0, 49, 37
2, 53640, Note_on_c, 0, 49, 0
2, 53760, Note_on_c, 0, 48, 39
2, 53760, Note_on_c, 0, 51, 39
2, 53760, Note_on_c, 0, 56, 47
2, 54000, Note_on_c, 0, 56, 0
2, 54000, Note_on_c, 0, 51, 0
2, 54000, Note_on_c, 0, 48, 0
2, 54240, Note_on_c, 0, 48, 38
2, 54240, Note_on_c, 0, 51, 38
2, 54240, Note_on_c, 0, 56, 46
2, 54480, Note_on_c, 0, 56, 0
2, 54480, Note_on_c, 0, 51, 0
2, 54480, Note_on_c, 0, 48, 0
2, 54720, Note_on_c, 0, 49, 42
2, 54720, Note_on_c, 0, 53, 42
2, 54720, Note_on_c, 0, 56, 42
2, 54960, Note_on_c, 0, 56, 0
2, 54960, Note_on_c, 0, 53, 0
2, 54960, Note_on_c, 0, 49, 0
2, 54960, Note_on_c, 0, 53, 45
2, 55080, Note_on_c, 0, 53, 0
2, 55200, Note_on_c, 0, 54, 52
2, 55320, Note_on_c, 0, 54, 0
2, 55440, Note_on_c, 0, 56, 54
2, 55560, Note_on_c, 0, 56, 0
2, 55680, Note_on_c, 0, 48, 50
2, 55680, Note_on_c, 0, 51, 50
2, 55680, Note_on_c, 0, 56, 61
2, 55920, Note_on_c, 0, 56, 0
2, 55920, Note_on_c, 0, 51, 0
2, 55920, Note_on_c, 0, 48, 0
2, 56160, Note_on_c, 0, 51, 49
2, 56160, Note_on_c, 0, 56, 49
2, 56160, Note_on_c, 0, 60, 60
2, 56400, Note_on_c, 0, 60, 0
2, 56400, Note_on_c, 0, 56, 0
2, 56400, Note_on_c, 0, 51, 0
2, 56640, Note_on_c, 0, 53, 60
2, 56640, Note_on_c, 0, 56, 60
2, 56640, Note_on_c, 0, 61, 60
2, 56880, Note_on_c, 0, 61, 0
2, 56880, Note_on_c, 0, 56, 0
2, 56880, Note_on_c, 0, 53, 0
2, 56880, Note_on_c, 0, 56, 67
2, 57000, Note_on_c, 0, 56, 0
2, 57120, Note_on_c, 0, 60, 73
2, 57240, Note_on_c, 0, 60, 0
2, 57360, Note_on_c, 0, 61, 75
2, 57480, Note_on_c, 0, 61, 0
2, 57600, Note_on_c, 0, 48, 77
2, 57600, Note_on_c, 0, 51, 77
2, 57600, Note_on_c, 0, 56, 91
2, 57840, Note_on_c, 0, 56, 0
2, 57840, Note_on_c, 0, 51, 0
2, 57840, Note_on_c, 0, 48, 0
2, 58080, Note_on_c, 0, 54, 57
2, 58080, Note_on_c, 0, 60, 57
2, 58080, Note_on_c, 0, 63, 84
2, 58320, Note_on_c, 0, 63, 0
2, 58320, Note_on_c, 0, 60, 0
2, 58320, Note_on_c, 0, 54, 0
2, 58560, Note_on_c, 0, 53, 74
2, 58560, Note_on_c, 0, 61, 74
2, 58560, Note_on_c, 0, 65, 89
2, 58800, Note_on_c, 0, 65, 0
2, 58800, Note_on_c, 0, 61, 0
2, 58800, Note_on_c, 0, 53, 0
2, 58800, Note_on_c, 0, 65, 73
2, 58800, Note_on_c, 0, 53, 61
2, 58920, Note_on_c, 0, 53, 0
2, 58920, Note_on_c, 0, 65, 0
2, 59040, Note_on_c, 0, 66, 78
2, 59040, Note_on_c, 0, 54, 66
2, 59160, Note_on_c, 0, 54, 0
2, 59160, Note_on_c, 0, 66, 0
2, 59280, Note_on_c, 0, 68, 75
2, 59280, Note_on_c, 0, 56, 65
2, 59400, Note_on_c, 0, 56, 0
2, 59400, Note_on_c, 0, 68, 0
2, 59520, Note_on_c, 0, 58, 58
2, 59520, Note_on_c, 0, 70, 58
2, 59760, Note_on_c, 0, 70, 0
2, 59760, Note_on_c, 0, 58, 0
2, 60000, Note_on_c, 0, 48, 38
2, 60000, Note_on_c, 0, 51, 38
2, 60000, Note_on_c, 0, 56, 46
2, 60240, Note_on_c, 0, 56, 0
2, 60240, Note_on_c, 0, 51, 0
2, 60240, Note_on_c, 0, 48, 0
2, 60480, Note_on_c, 0, 53, 42
2, 60600, Note_on_c, 0, 53, 0
2, 60720, Note_on_c, 0, 51, 39
2, 60840, Note_on_c, 0, 51, 0
2, 60960, Note_on_c, 0, 49, 37
2, 61080, Note_on_c, 0, 49, 0
2, 61440, Note_on_c, 0, 68, 47
2, 61560, Note_on_c, 0, 68, 0
2, 61560, Note_on_c, 0, 65, 40
2, 61680, Note_on_c, 0, 65, 0
2, 61680, Note_on_c, 0, 61, 43
2, 61800, Note_on_c, 0, 61, 0
2, 61800, Note_on_c, 0, 68, 39
2, 61920, Note_on_c, 0, 68, 0
2, 61920, Note_on_c, 0, 61, 44
2, 62040, Note_on_c, 0, 61, 0
2, 62040, Note_on_c, 0, 70, 40
2, 62160, Note_on_c, 0, 70, 0
2, 62160, Note_on_c, 0, 66, 40
2, 62280, Note_on_c, 0, 66, 0
2, 62280, Note_on_c, 0, 61, 38
2, 62400, Note_on_c, 0, 61, 0
2, 62400, Note_on_c, 0, 68, 47
2, 62520, Note_on_c, 0, 68, 0
2, 62520, Note_on_c, 0, 65, 43
2, 62640, Note_on_c, 0, 65, 0
2, 62640, Note_on_c, 0, 61, 43
2, 62760, Note_on_c, 0, 61, 0
2, 62760, Note_on_c, 0, 68, 44
2, 62880, Note_on_c, 0, 68, 0
2, 62880, Note_on_c, 0, 61, 42
2, 63000, Note_on_c, 0, 61, 0
2, 63000, Note_on_c, 0, 68, 39
2, 63120, Note_on_c, 0, 68, 0
2, 63120, Note_on_c, 0, 61, 44
2, 63120, Note_on_c, 0, 63, 44
2, 63240, Note_on_c, 0, 63, 0
2, 63240, Note_on_c, 0, 61, 0
2, 63240, Note_on_c, 0, 70, 40
2, 63360, Note_on_c, 0, 70, 0
2, 63360, Note_on_c, 0, 68, 47
2, 63480, Note_on_c, 0, 68, 0
2, 63480, Note_on_c, 0, 63, 43
2, 63600, Note_on_c, 0, 63, 0
2, 63600, Note_on_c, 0, 61, 40
2, 63720, Note_on_c, 0, 61, 0
2, 63720, Note_on_c, 0, 68, 40
2, 63840, Note_on_c, 0, 68, 0
2, 63840, Note_on_c, 0, 60, 46
2, 63960, Note_on_c, 0, 60, 0
2, 63960, Note_on_c, 0, 68, 40
2, 64080, Note_on_c, 0, 68, 0
2, 64080, Note_on_c, 0, 63, 43
2, 64200, Note_on_c, 0, 63, 0
2, 64200, Note_on_c, 0, 60, 43
2, 64320, Note_on_c, 0, 60, 0
2, 64320, Note_on_c, 0, 68, 47
2, 64440, Note_on_c, 0, 68, 0
2, 64440, Note_on_c, 0, 65, 44
2, 64560, Note_on_c, 0, 65, 0
2, 64560, Note_on_c, 0, 61, 43
2, 64680, Note_on_c, 0, 61, 0
2, 64680, Note_on_c, 0, 68, 43
2, 64800, Note_on_c, 0, 68, 0
2, 64800, Note_on_c, 0, 65, 47
2, 64920, Note_on_c, 0, 65, 0
2, 64920, Note_on_c, 0, 73, 44
2, 65040, Note_on_c, 0, 73, 0
2, 65040, Note_on_c, 0, 68, 41
2, 65160, Note_on_c, 0, 68, 0
2, 65160, Note_on_c, 0, 65, 38
2, 65280, Note_on_c, 0, 65, 0
2, 65280, Note_on_c, 0, 73, 47
2, 65400, Note_on_c, 0, 73, 0
2, 65400, Note_on_c, 0, 68, 43
2, 65520, Note_on_c, 0, 68, 0
2, 65520, Note_on_c, 0, 65, 43
2, 65640, Note_on_c, 0, 65, 0
2, 65640, Note_on_c, 0, 73, 39
2, 65760, Note_on_c, 0, 73, 0
2, 65760, Note_on_c, 0, 66, 64
2, 65880, Note_on_c, 0, 66, 0
2, 65880, Note_on_c, 0, 73, 43
2, 66000, Note_on_c, 0, 73, 0
2, 66000, Note_on_c, 0, 70, 47
2, 66120, Note_on_c, 0, 70, 0
2, 66120, Note_on_c, 0, 66, 38
2, 66240, Note_on_c, 0, 66, 0
2, 66240, Note_on_c, 0, 73, 47
2, 66360, Note_on_c, 0, 73, 0
2, 66360, Note_on_c, 0, 68, 43
2, 66480, Note_on_c, 0, 68, 0
2, 66480, Note_on_c, 0, 65, 43
2, 66600, Note_on_c, 0, 65, 0
2, 66600, Note_on_c, 0, 73, 44
2, 66720, Note_on_c, 0, 73, 0
2, 66720, Note_on_c, 0, 65, 42
2, 66840, Note_on_c, 0, 65, 0
2, 66840, Note_on_c, 0, 73, 39
2, 66960, Note_on_c, 0, 73, 0
2, 66960, Note_on_c, 0, 64, 44
2, 66960, Note_on_c, 0, 67, 44
2, 67080, Note_on_c, 0, 67, 0
2, 67080, Note_on_c, 0, 64, 0
2, 67080, Note_on_c, 0, 73, 40
2, 67200, Note_on_c, 0, 73, 0
2, 67200, Note_on_c, 0, 63, 47
2, 67320, Note_on_c, 0, 63, 0
2, 67320, Note_on_c, 0, 73, 43
2, 67440, Note_on_c, 0, 73, 0
2, 67440, Note_on_c, 0, 66, 43
2, 67560, Note_on_c, 0, 66, 0
2, 67560, Note_on_c, 0, 63, 39
2, 67680, Note_on_c, 0, 63, 0
2, 67680, Note_on_c, 0, 72, 46
2, 67800, Note_on_c, 0, 72, 0
2, 67800, Note_on_c, 0, 66, 43
2, 67920, Note_on_c, 0, 66, 0
2, 67920, Note_on_c, 0, 63, 43
2, 68040, Note_on_c, 0, 63, 0
2, 68040, Note_on_c, 0, 72, 39
2, 68160, Note_on_c, 0, 72, 0
2, 68160, Note_on_c, 0, 73, 47
2, 68280, Note_on_c, 0, 73, 0
2, 68280, Note_on_c, 0, 68, 44
2, 68400, Note_on_c, 0, 68, 0
2, 68400, Note_on_c, 0, 65, 43
2, 68520, Note_on_c, 0, 65, 0
2, 68520, Note_on_c, 0, 73, 43
2, 68640, Note_on_c, 0, 73, 0
2, 68640, Note_on_c, 0, 68, 47
2, 68760, Note_on_c, 0, 68, 0
2, 68760, Note_on_c, 0, 65, 40
2, 68880, Note_on_c, 0, 65, 0
2, 68880, Note_on_c, 0, 61, 41
2, 69000, Note_on_c, 0, 61, 0
2, 69000, Note_on_c, 0, 68, 38
2, 69120, Note_on_c, 0, 68, 0
2, 69120, Note_on_c, 0, 68, 47
2, 69240, Note_on_c, 0, 68, 0
2, 69240, Note_on_c, 0, 65, 40
2, 69360, Note_on_c, 0, 65, 0
2, 69360, Note_on_c, 0, 61, 43
2, 69480, Note_on_c, 0, 61, 0
2, 69480, Note_on_c, 0, 68, 39
2, 69600, Note_on_c, 0, 68, 0
2, 69600, Note_on_c, 0, 61, 44
2, 69720, Note_on_c, 0, 61, 0
2, 69720, Note_on_c, 0, 70, 40
2, 69840, Note_on_c, 0, 70, 0
2, 69840, Note_on_c, 0, 66, 40
2, 69960, Note_on_c, 0, 66, 0
2, 69960, Note_on_c, 0, 61, 38
2, 70080, Note_on_c, 0, 61, 0
2, 70080, Note_on_c, 0, 68, 47
2, 70200, Note_on_c, 0, 68, 0
2, 70200, Note_on_c, 0, 65, 43
2, 70320, Note_on_c, 0, 65, 0
2, 70320, Note_on_c, 0, 61, 43
2, 70440, Note_on_c, 0, 61, 0
2, 70440, Note_on_c, 0, 68, 44
2, 70560, Note_on_c, 0, 68, 0
2, 70560, Note_on_c, 0, 61, 42
2, 70680, Note_on_c, 0, 61, 0
2, 70680, Note_on_c, 0, 68, 39
2, 70800, Note_on_c, 0, 68, 0
2, 70800, Note_on_c, 0, 61, 44
2, 70800, Note_on_c, 0, 63, 44
2, 70920, Note_on_c, 0, 63, 0
2, 70920, Note_on_c, 0, 61, 0
2, 70920, Note_on_c, 0, 70, 40
2, 71040, Note_on_c, 0, 70, 0
2, 71040, Note_on_c, 0, 68, 47
2, 71160, Note_on_c, 0, 68, 0
2, 71160, Note_on_c, 0, 63, 43
2, 71280, Note_on_c, 0, 63, 0
2, 71280, Note_on_c, 0, 61, 40
2, 71400, Note_on_c, 0, 61, 0
2, 71400, Note_on_c, 0, 68, 40
2, 71520, Note_on_c, 0, 68, 0
2, 71520, Note_on_c, 0, 60, 46
2, 71640, Note_on_c, 0, 60, 0
2, 71640, Note_on_c, 0, 68, 40
2, 71760, Note_on_c, 0, 68, 0
2, 71760, Note_on_c, 0, 63, 43
2, 71880, Note_on_c, 0, 63, 0
2, 71880, Note_on_c, 0, 60, 43
2, 72000, Note_on_c, 0, 60, 0
2, 72000, Note_on_c, 0, 68, 47
2, 72120, Note_on_c, 0, 68, 0
2, 72120, Note_on_c, 0, 65, 44
2, 72240, Note_on_c, 0, 65, 0
2, 72240, Note_on_c, 0, 61, 43
2, 72360, Note_on_c, 0, 61, 0
2, 72360, Note_on_c, 0, 68, 43
2, 72480, Note_on_c, 0, 68, 0
2, 72480, Note_on_c, 0, 65, 47
2, 72600, Note_on_c, 0, 65, 0
2, 72600, Note_on_c, 0, 73, 44
2, 72720, Note_on_c, 0, 73, 0
2, 72720, Note_on_c, 0, 68, 41
2, 72840, Note_on_c, 0, 68, 0
2, 72840, Note_on_c, 0, 65, 38
2, 72960, Note_on_c, 0, 65, 0
2, 72960, Note_on_c, 0, 73, 47
2, 73080, Note_on_c, 0, 73, 0
2, 73080, Note_on_c, 0, 68, 43
2, 73200, Note_on_c, 0, 68, 0
2, 73200, Note_on_c, 0, 65, 43
2, 73320, Note_on_c, 0, 65, 0
2, 73320, Note_on_c, 0, 73, 39
2, 73440, Note_on_c, 0, 73, 0
2, 73440, Note_on_c, 0, 66, 59
2, 73560, Note_on_c, 0, 66, 0
2, 73560, Note_on_c, 0, 73, 43
2, 73680, Note_on_c, 0, 73, 0
2, 73680, Note_on_c, 0, 70, 47
2, 73800, Note_on_c, 0, 70, 0
2, 73800, Note_on_c, 0, 66, 38
2, 73920, Note_on_c, 0, 66, 0
2, 73920, Note_on_c, 0, 73, 47
2, 74040, Note_on_c, 0, 73, 0
2, 74040, Note_on_c, 0, 68, 43
2, 74160, Note_on_c, 0, 68, 0
2, 74160, Note_on_c, 0, 65, 43
2, 74280, Note_on_c, 0, 65, 0
2, 74280, Note_on_c, 0, 73, 44
2, 74400, Note_on_c, 0, 73, 0
2, 74400, Note_on_c, 0, 65, 42
2, 74520, Note_on_c, 0, 65, 0
2, 74520, Note_on_c, 0, 73, 39
2, 74640, Note_on_c, 0, 73, 0
2, 74640, Note_on_c, 0, 64, 44
2, 74640, Note_on_c, 0, 67, 44
2, 74760, Note_on_c, 0, 67, 0
2, 74760, Note_on_c, 0, 64, 0
2, 74760, Note_on_c, 0, 73, 40
2, 74880, Note_on_c, 0, 73, 0
2, 74880, Note_on_c, 0, 63, 47
2, 75000, Note_on_c, 0, 63, 0
2, 75000, Note_on_c, 0, 73, 43
2, 75120, Note_on_c, 0, 73, 0
2, 75120, Note_on_c, 0, 66, 43
2, 75240, Note_on_c, 0, 66, 0
2, 75240, Note_on_c, 0, 63, 39
2, 75360, Note_on_c, 0, 63, 0
2, 75360, Note_on_c, 0, 72, 46
2, 75480, Note_on_c, 0, 72, 0
2, 75480, Note_on_c, 0, 66, 43
2, 75600, Note_on_c, 0, 66, 0
2, 75600, Note_on_c, 0, 63, 43
2, 75720, Note_on_c, 0, 63, 0
2, 75720, Note_on_c, 0, 72, 39
2, 75840, Note_on_c, 0, 72, 0
2, 75840, Note_on_c, 0, 73, 47
2, 75960, Note_on_c, 0, 73, 0
2, 75960, Note_on_c, 0, 68, 44
2, 76080, Note_on_c, 0, 68, 0
2, 76080, Note_on_c, 0, 65, 43
2, 76200, Note_on_c, 0, 65, 0
2, 76200, Note_on_c, 0, 73, 43
2, 76320, Note_on_c, 0, 73, 0
2, 76320, Note_on_c, 0, 68, 47
2, 76440, Note_on_c, 0, 68, 0
2, 76440, Note_on_c, 0, 65, 40
2, 76560, Note_on_c, 0, 65, 0
2, 76560, Note_on_c, 0, 61, 41
2, 76680, Note_on_c, 0, 61, 0
2, 76680, Note_on_c, 0, 68, 38
2, 76800, Note_on_c, 0, 68, 0
2, 76800, Note_on_c, 0, 68, 47
2, 76920, Note_on_c, 0, 68, 0
2, 76920, Note_on_c, 0, 63, 40
2, 77040, Note_on_c, 0, 63, 0
2, 77040, Note_on_c, 0, 60, 43
2, 77160, Note_on_c, 0, 60, 0
2, 77160, Note_on_c, 0, 68, 39
2, 77280, Note_on_c, 0, 68, 0
2, 77280, Note_on_c, 0, 60, 44
2, 77400, Note_on_c, 0, 60, 0
2, 77400, Note_on_c, 0, 68, 40
2, 77520, Note_on_c, 0, 68, 0
2, 77520, Note_on_c, 0, 66, 40
2, 77640, Note_on_c, 0, 66, 0
2, 77640, Note_on_c, 0, 60, 38
2, 77760, Note_on_c, 0, 60, 0
2, 77760, Note_on_c, 0, 61, 49
2, 77880, Note_on_c, 0, 61, 0
2, 77880, Note_on_c, 0, 65, 49
2, 78000, Note_on_c, 0, 65, 0
2, 78000, Note_on_c, 0, 68, 53
2, 78120, Note_on_c, 0, 68, 0
2, 78120, Note_on_c, 0, 73, 57
2, 78240, Note_on_c, 0, 73, 0
2, 78240, Note_on_c, 0, 72, 62
2, 78360, Note_on_c, 0, 72, 0
2, 78360, Note_on_c, 0, 66, 49
2, 78480, Note_on_c, 0, 66, 0
2, 78480, Note_on_c, 0, 73, 55
2, 78600, Note_on_c, 0, 73, 0
2, 78600, Note_on_c, 0, 65, 43
2, 78720, Note_on_c, 0, 65, 0
2, 78720, Note_on_c, 0, 68, 47
2, 78840, Note_on_c, 0, 68, 0
2, 78840, Note_on_c, 0, 63, 40
2, 78960, Note_on_c, 0, 63, 0
2, 78960, Note_on_c, 0, 60, 43
2, 79080, Note_on_c, 0, 60, 0
2, 79080, Note_on_c, 0, 68, 39
2, 79200, Note_on_c, 0, 68, 0
2, 79200, Note_on_c, 0, 60, 44
2, 79320, Note_on_c, 0, 60, 0
2, 79320, Note_on_c, 0, 68, 40
2, 79440, Note_on_c, 0, 68, 0
2, 79440, Note_on_c, 0, 66, 40
2, 79560, Note_on_c, 0, 66, 0
2, 79560, Note_on_c, 0, 60, 38
2, 79680, Note_on_c, 0, 60, 0
2, 79680, Note_on_c, 0, 61, 49
2, 79800, Note_on_c, 0, 61, 0
2, 79800, Note_on_c, 0, 65, 49
2, 79920, Note_on_c, 0, 65, 0
2, 79920, Note_on_c, 0, 68, 53
2, 80040, Note_on_c, 0, 68, 0
2, 80040, Note_on_c, 0, 77, 55
2, 80160, Note_on_c, 0, 77, 0
2, 80160, Note_on_c, 0, 75, 62
2, 80280, Note_on_c, 0, 75, 0
2, 80280, Note_on_c, 0, 66, 49
2, 80400, Note_on_c, 0, 66, 0
2, 80400, Note_on_c, 0, 73, 55
2, 80520, Note_on_c, 0, 73, 0
2, 80520, Note_on_c, 0, 65, 43
2, 80640, Note_on_c, 0, 65, 0
2, 80640, Note_on_c, 0, 68, 58
2, 80760, Note_on_c, 0, 68, 0
2, 80760, Note_on_c, 0, 63, 50
2, 80880, Note_on_c, 0, 63, 0
2, 80880, Note_on_c, 0, 60, 58
2, 81000, Note_on_c, 0, 60, 0
2, 81000, Note_on_c, 0, 68, 53
2, 81120, Note_on_c, 0, 68, 0
2, 81120, Note_on_c, 0, 60, 67
2, 81240, Note_on_c, 0, 60, 0
2, 81240, Note_on_c, 0, 68, 62
2, 81360, Note_on_c, 0, 68, 0
2, 81360, Note_on_c, 0, 66, 67
2, 81480, Note_on_c, 0, 66, 0
2, 81480, Note_on_c, 0, 60, 63
2, 81600, Note_on_c, 0, 60, 0
2, 81720, Note_on_c, 0, 80, 73
2, 81840, Note_on_c, 0, 80, 0
2, 81840, Note_on_c, 0, 68, 74
2, 81960, Note_on_c, 0, 68, 0
2, 81960, Note_on_c, 0, 80, 65
2, 82080, Note_on_c, 0, 80, 0
2, 82080, Note_on_c, 0, 78, 70
2, 82200, Note_on_c, 0, 78, 0
2, 82200, Note_on_c, 0, 68, 58
2, 82320, Note_on_c, 0, 68, 0
2, 82320, Note_on_c, 0, 77, 63
2, 82440, Note_on_c, 0, 77, 0
2, 82440, Note_on_c, 0, 68, 48
2, 82560, Note_on_c, 0, 68, 0
2, 82560, Note_on_c, 0, 75, 47
2, 82680, Note_on_c, 0, 75, 0
2, 82680, Note_on_c, 0, 70, 43
2, 82800, Note_on_c, 0, 70, 0
2, 82800, Note_on_c, 0, 66, 43
2, 82920, Note_on_c, 0, 66, 0
2, 82920, Note_on_c, 0, 75, 39
2, 83040, Note_on_c, 0, 75, 0
2, 83040, Note_on_c, 0, 68, 46
2, 83160, Note_on_c, 0, 68, 0
2, 83160, Note_on_c, 0, 66, 43
2, 83280, Note_on_c, 0, 66, 0
2, 83280, Note_on_c, 0, 63, 43
2, 83400, Note_on_c, 0, 63, 0
2, 83400, Note_on_c, 0, 68, 39
2, 83520, Note_on_c, 0, 68, 0
2, 83520, Note_on_c, 0, 65, 47
2, 83640, Note_on_c, 0, 65, 0
2, 83640, Note_on_c, 0, 73, 44
2, 83760, Note_on_c, 0, 73, 0
2, 83760, Note_on_c, 0, 68, 43
2, 83880, Note_on_c, 0, 68, 0
2, 83880, Note_on_c, 0, 65, 43
2, 84000, Note_on_c, 0, 65, 0
2, 84000, Note_on_c, 0, 61, 47
2, 84120, Note_on_c, 0, 61, 0
2, 84480, Note_on_c, 0, 68, 47
2, 84600, Note_on_c, 0, 68, 0
2, 84600, Note_on_c, 0, 63, 40
2, 84720, Note_on_c, 0, 63, 0
2, 84720, Note_on_c, 0, 60, 43
2, 84840, Note_on_c, 0, 60, 0
2, 84840, Note_on_c, 0, 68, 39
2, 84960, Note_on_c, 0, 68, 0
2, 84960, Note_on_c, 0, 60, 44
2, 85080, Note_on_c, 0, 60, 0
2, 85080, Note_on_c, 0, 68, 40
2, 85200, Note_on_c, 0, 68, 0
2, 85200, Note_on_c, 0, 66, 40
2, 85320, Note_on_c, 0, 66, 0
2, 85320, Note_on_c, 0, 60, 38
2, 85440, Note_on_c, 0, 60, 0
2, 85440, Note_on_c, 0, 61, 49
2, 85560, Note_on_c, 0, 61, 0
2, 85560, Note_on_c, 0, 65, 49
2, 85680, Note_on_c, 0, 65, 0
2, 85680, Note_on_c, 0, 68, 53
2, 85800, Note_on_c, 0, 68, 0
2, 85800, Note_on_c, 0, 73, 57
2, 85920, Note_on_c, 0, 73, 0
2, 85920, Note_on_c, 0, 72, 62
2, 86040, Note_on_c, 0, 72, 0
2, 86040, Note_on_c, 0, 66, 49
2, 86160, Note_on_c, 0, 66, 0
2, 86160, Note_on_c, 0, 73, 55
2, 86280, Note_on_c, 0, 73, 0
2, 86280, Note_on_c, 0, 65, 43
2, 86400, Note_on_c, 0, 65, 0
2, 86400, Note_on_c, 0, 68, 47
2, 86520, Note_on_c, 0, 68, 0
2, 86520, Note_on_c, 0, 63, 40
2, 86640, Note_on_c, 0, 63, 0
2, 86640, Note_on_c, 0, 60, 43
2, 86760, Note_on_c, 0, 60, 0
2, 86760, Note_on_c, 0, 68, 39
2, 86880, Note_on_c, 0, 68, 0
2, 86880, Note_on_c, 0, 60, 44
2, 87000, Note_on_c, 0, 60, 0
2, 87000, Note_on_c, 0, 68, 40
2, 87120, Note_on_c, 0, 68, 0
2, 87120, Note_on_c, 0, 66, 40
2, 87240, Note_on_c, 0, 66, 0
2, 87240, Note_on_c, 0, 60, 38
2, 87360, Note_on_c, 0, 60, 0
2, 87360, Note_on_c, 0, 61, 49
2, 87480, Note_on_c, 0, 61, 0
2, 87480, Note_on_c, 0, 65, 49
2, 87600, Note_on_c, 0, 65, 0
2, 87600, Note_on_c, 0, 68, 53
2, 87720, Note_on_c, 0, 68, 0
2, 87720, Note_on_c, 0, 77, 54
2, 87840, Note_on_c, 0, 77, 0
2, 87840, Note_on_c, 0, 75, 62
2, 87960, Note_on_c, 0, 75, 0
2, 87960, Note_on_c, 0, 66, 49
2, 88080, Note_on_c, 0, 66, 0
2, 88080, Note_on_c, 0, 73, 55
2, 88200, Note_on_c, 0, 73, 0
2, 88200, Note_on_c, 0, 65, 43
2, 88320, Note_on_c, 0, 65, 0
2, 88320, Note_on_c, 0, 68, 58
2, 88440, Note_on_c, 0, 68, 0
2, 88440, Note_on_c, 0, 63, 50
2, 88560, Note_on_c, 0, 63, 0
2, 88560, Note_on_c, 0, 60, 58
2, 88680, Note_on_c, 0, 60, 0
2, 88680, Note_on_c, 0, 68, 53
2, 88800, Note_on_c, 0, 68, 0
2, 88800, Note_on_c, 0, 60, 67
2, 88920, Note_on_c, 0, 60, 0
2, 88920, Note_on_c, 0, 68, 62
2, 89040, Note_on_c, 0, 68, 0
2, 89040, Note_on_c, 0, 66, 67
2, 89160, Note_on_c, 0, 66, 0
2, 89160, Note_on_c, 0, 60, 64
2, 89280, Note_on_c, 0, 60, 0
2, 89400, Note_on_c, 0, 80, 74
2, 89520, Note_on_c, 0, 80, 0
2, 89520, Note_on_c, 0, 68, 74
2, 89640, Note_on_c, 0, 68, 0
2, 89640, Note_on_c, 0, 80, 66
2, 89760, Note_on_c, 0, 80, 0
2, 89760, Note_on_c, 0, 78, 73
2, 89880, Note_on_c, 0, 78, 0
2, 89880, Note_on_c, 0, 68, 58
2, 90000, Note_on_c, 0, 68, 0
2, 90000, Note_on_c, 0, 77, 63
2, 90120, Note_on_c, 0, 77, 0
2, 90120, Note_on_c, 0, 68, 48
2, 90240, Note_on_c, 0, 68, 0
2, 90240, Note_on_c, 0, 75, 47
2, 90360, Note_on_c, 0, 75, 0
2, 90360, Note_on_c, 0, 70, 43
2, 90480, Note_on_c, 0, 70, 0
2, 90480, Note_on_c, 0, 66, 43
2, 90600, Note_on_c, 0, 66, 0
2, 90600, Note_on_c, 0, 75, 39
2, 90720, Note_on_c, 0, 75, 0
2, 90720, Note_on_c, 0, 68, 46
2, 90840, Note_on_c, 0, 68, 0
2, 90840, Note_on_c, 0, 66, 43
2, 90960, Note_on_c, 0, 66, 0
2, 90960, Note_on_c, 0, 63, 43
2, 91080, Note_on_c, 0, 63, 0
2, 91080, Note_on_c, 0, 68, 39
2, 91200, Note_on_c, 0, 68, 0
2, 91200, Note_on_c, 0, 65, 47
2, 91320, Note_on_c, 0, 65, 0
2, 91320, Note_on_c, 0, 73, 44
2, 91440, Note_on_c, 0, 73, 0
2, 91440, Note_on_c, 0, 68, 43
2, 91560, Note_on_c, 0, 68, 0
2, 91560, Note_on_c, 0, 65, 43
2, 91680, Note_on_c, 0, 65, 0
2, 91680, Note_on_c, 0, 61, 47
2, 91800, Note_on_c, 0, 61, 0
2, 92400, Note_on_c, 0, 80, 72
2, 92880, Note_on_c, 0, 80, 0
2, 92880, Note_on_c, 0, 82, 74
2, 93360, Note_on_c, 0, 82, 0
2, 93360, Note_on_c, 0, 80, 72
2, 93840, Note_on_c, 0, 80, 0
2, 93840, Note_on_c, 0, 73, 65
2, 93840, Note_on_c, 0, 75, 65
2, 93840, Note_on_c, 0, 82, 77
2, 94080, Note_on_c, 0, 82, 0
2, 94080, Note_on_c, 0, 75, 0
2, 94080, Note_on_c, 0, 73, 0
2, 94080, Note_on_c, 0, 73, 68
2, 94080, Note_on_c, 0, 75, 68
2, 94080, Note_on_c, 0, 80, 80
2, 94320, Note_on_c, 0, 80, 0
2, 94320, Note_on_c, 0, 75, 0
2, 94320, Note_on_c, 0, 73, 0
2, 94320, Note_on_c, 0, 73, 65
2, 94320, Note_on_c, 0, 75, 65
2, 94320, Note_on_c, 0, 80, 77
2, 94560, Note_on_c, 0, 80, 0
2, 94560, Note_on_c, 0, 75, 0
2, 94560, Note_on_c, 0, 73, 0
2, 94560, Note_on_c, 0, 72, 69
2, 94560, Note_on_c, 0, 75, 69
2, 94560, Note_on_c, 0, 80, 81
2, 94800, Note_on_c, 0, 80, 0
2, 94800, Note_on_c, 0, 75, 0
2, 94800, Note_on_c, 0, 72, 0
2, 94800, Note_on_c, 0, 72, 65
2, 94800, Note_on_c, 0, 75, 65
2, 94800, Note_on_c, 0, 80, 76
2, 95040, Note_on_c, 0, 80, 0
2, 95040, Note_on_c, 0, 75, 0
2, 95040, Note_on_c, 0, 72, 0
2, 95040, Note_on_c, 0, 73, 68
2, 95040, Note_on_c, 0, 77, 68
2, 95040, Note_on_c, 0, 80, 80
2, 95280, Note_on_c, 0, 80, 0
2, 95280, Note_on_c, 0, 77, 0
2, 95280, Note_on_c, 0, 73, 0
2, 96240, Note_on_c, 0, 85, 72
2, 96240, Note_on_c, 0, 80, 60
2, 96720, Note_on_c, 0, 80, 0
2, 96720, Note_on_c, 0, 85, 0
2, 96720, Note_on_c, 0, 85, 73
2, 96720, Note_on_c, 0, 82, 61
2, 97200, Note_on_c, 0, 82, 0
2, 97200, Note_on_c, 0, 85, 0
2, 97200, Note_on_c, 0, 85, 74
2, 97200, Note_on_c, 0, 80, 63
2, 97680, Note_on_c, 0, 80, 0
2, 97680, Note_on_c, 0, 85, 0
2, 97680, Note_on_c, 0, 73, 65
2, 97680, Note_on_c, 0, 79, 65
2, 97680, Note_on_c, 0, 85, 77
2, 97920, Note_on_c, 0, 85, 0
2, 97920, Note_on_c, 0, 79, 0
2, 97920, Note_on_c, 0, 73, 0
2, 97920, Note_on_c, 0, 73, 68
2, 97920, Note_on_c, 0, 78, 68
2, 97920, Note_on_c, 0, 85, 80
2, 98160, Note_on_c, 0, 85, 0
2, 98160, Note_on_c, 0, 78, 0
2, 98160, Note_on_c, 0, 73, 0
2, 98160, Note_on_c, 0, 73, 65
2, 98160, Note_on_c, 0, 78, 65
2, 98160, Note_on_c, 0, 85, 77
2, 98400, Note_on_c, 0, 85, 0
2, 98400, Note_on_c, 0, 78, 0
2, 98400, Note_on_c, 0, 73, 0
2, 98400, Note_on_c, 0, 72, 69
2, 98400, Note_on_c, 0, 78, 69
2, 98400, Note_on_c, 0, 84, 81
2, 98640, Note_on_c, 0, 84, 0
2, 98640, Note_on_c, 0, 78, 0
2, 98640, Note_on_c, 0, 72, 0
2, 98640, Note_on_c, 0, 72, 65
2, 98640, Note_on_c, 0, 78, 65
2, 98640, Note_on_c, 0, 84, 76
2, 98880, Note_on_c, 0, 84, 0
2, 98880, Note_on_c, 0, 78, 0
2, 98880, Note_on_c, 0, 72, 0
2, 98880, Note_on_c, 0, 85, 66
2, 98940, Note_on_c, 0, 85, 0
2, 98940, Note_on_c, 0, 87, 57
2, 99000, Note_on_c, 0, 87, 0
2, 99000, Note_on_c, 0, 89, 59
2, 99060, Note_on_c, 0, 89, 0
2, 99060, Note_on_c, 0, 84, 60
2, 99120, Note_on_c, 0, 84, 0
2, 99120, Note_on_c, 0, 85, 66
2, 99180, Note_on_c, 0, 85, 0
2, 99180, Note_on_c, 0, 80, 56
2, 99240, Note_on_c, 0, 80, 0
2, 99240, Note_on_c, 0, 82, 58
2, 99300, Note_on_c, 0, 82, 0
2, 99300, Note_on_c, 0, 78, 57
2, 99360, Note_on_c, 0, 78, 0
2, 99360, Note_on_c, 0, 77, 51
2, 99420, Note_on_c, 0, 77, 0
2, 99420, Note_on_c, 0, 80, 54
2, 99480, Note_on_c, 0, 80, 0
2, 99480, Note_on_c, 0, 78, 55
2, 99540, Note_on_c, 0, 78, 0
2, 99540, Note_on_c, 0, 75, 56
2, 99600, Note_on_c, 0, 75, 0
2, 99600, Note_on_c, 0, 73, 63
2, 99660, Note_on_c, 0, 73, 0
2, 99660, Note_on_c, 0, 77, 53
2, 99720, Note_on_c, 0, 77, 0
2, 99720, Note_on_c, 0, 75, 57
2, 99780, Note_on_c, 0, 75, 0
2, 99780, Note_on_c, 0, 72, 53
2, 99840, Note_on_c, 0, 72, 0
2, 99840, Note_on_c, 0, 73, 52
2, 99900, Note_on_c, 0, 73, 0
2, 99900, Note_on_c, 0, 75, 46
2, 99960, Note_on_c, 0, 75, 0
2, 99960, Note_on_c, 0, 73, 46
2, 100020, Note_on_c, 0, 73, 0
2, 100020, Note_on_c, 0, 72, 46
2, 100080, Note_on_c, 0, 72, 0
2, 100080, Note_on_c, 0, 73, 52
2, 100140, Note_on_c, 0, 73, 0
2, 100140, Note_on_c, 0, 80, 46
2, 100200, Note_on_c, 0, 80, 0
2, 100200, Note_on_c, 0, 79, 46
2, 100260, Note_on_c, 0, 79, 0
2, 100260, Note_on_c, 0, 80, 46
2, 100320, Note_on_c, 0, 80, 0
2, 100320, Note_on_c, 0, 73, 52
2, 100380, Note_on_c, 0, 73, 0
2, 100380, Note_on_c, 0, 75, 45
2, 100440, Note_on_c, 0, 75, 0
2, 100440, Note_on_c, 0, 73, 48
2, 100500, Note_on_c, 0, 73, 0
2, 100500, Note_on_c, 0, 72, 48
2, 100560, Note_on_c, 0, 72, 0
2, 100560, Note_on_c, 0, 73, 52
2, 100620, Note_on_c, 0, 73, 0
2, 100620, Note_on_c, 0, 82, 48
2, 100680, Note_on_c, 0, 82, 0
2, 100680, Note_on_c, 0, 81, 48
2, 100740, Note_on_c, 0, 81, 0
2, 100740, Note_on_c, 0, 82, 48
2, 100800, Note_on_c, 0, 82, 0
2, 100800, Note_on_c, 0, 73, 52
2, 100860, Note_on_c, 0, 73, 0
2, 100860, Note_on_c, 0, 75, 48
2, 100920, Note_on_c, 0, 75, 0
2, 100920, Note_on_c, 0, 73, 48
2, 100980, Note_on_c, 0, 73, 0
2, 100980, Note_on_c, 0, 72, 48
2, 101040, Note_on_c, 0, 72, 0
2, 101040, Note_on_c, 0, 73, 52
2, 101100, Note_on_c, 0, 73, 0
2, 101100, Note_on_c, 0, 80, 48
2, 101160, Note_on_c, 0, 80, 0
2, 101160, Note_on_c, 0, 79, 48
2, 101220, Note_on_c, 0, 79, 0
2, 101220, Note_on_c, 0, 80, 48
2, 101280, Note_on_c, 0, 80, 0
2, 101280, Note_on_c, 0, 73, 52
2, 101340, Note_on_c, 0, 73, 0
2, 101340, Note_on_c, 0, 80, 48
2, 101400, Note_on_c, 0, 80, 0
2, 101400, Note_on_c, 0, 79, 48
2, 101460, Note_on_c, 0, 79, 0
2, 101460, Note_on_c, 0, 80, 48
2, 101520, Note_on_c, 0, 80, 0
2, 101520, Note_on_c, 0, 73, 73
2, 101580, Note_on_c, 0, 73, 0
2, 101580, Note_on_c, 0, 82, 63
2, 101640, Note_on_c, 0, 82, 0
2, 101640, Note_on_c, 0, 81, 63
2, 101700, Note_on_c, 0, 81, 0
2, 101700, Note_on_c, 0, 82, 63
2, 101760, Note_on_c, 0, 82, 0
2, 101760, Note_on_c, 0, 73, 80
2, 101820, Note_on_c, 0, 73, 0
2, 101820, Note_on_c, 0, 80, 66
2, 101880, Note_on_c, 0, 80, 0
2, 101880, Note_on_c, 0, 79, 67
2, 101940, Note_on_c, 0, 79, 0
2, 101940, Note_on_c, 0, 80, 67
2, 102000, Note_on_c, 0, 80, 0
2, 102000, Note_on_c, 0, 73, 80
2, 102060, Note_on_c, 0, 73, 0
2, 102060, Note_on_c, 0, 80, 66
2, 102120, Note_on_c, 0, 80, 0
2, 102120, Note_on_c, 0, 79, 66
2, 102180, Note_on_c, 0, 79, 0
2, 102180, Note_on_c, 0, 80, 66
2, 102240, Note_on_c, 0, 80, 0
2, 102240, Note_on_c, 0, 72, 83
2, 102300, Note_on_c, 0, 72, 0
2, 102300, Note_on_c, 0, 80, 67
2, 102360, Note_on_c, 0, 80, 0
2, 102360, Note_on_c, 0, 79, 67
2, 102420, Note_on_c, 0, 79, 0
2, 102420, Note_on_c, 0, 80, 67
2, 102480, Note_on_c, 0, 80, 0
2, 102480, Note_on_c, 0, 72, 81
2, 102540, Note_on_c, 0, 72, 0
2, 102540, Note_on_c, 0, 80, 63
2, 102600, Note_on_c, 0, 80, 0
2, 102600, Note_on_c, 0, 79, 63
2, 102660, Note_on_c, 0, 79, 0
2, 102660, Note_on_c, 0, 80, 63
2, 102720, Note_on_c, 0, 80, 0
2, 102720, Note_on_c, 0, 80, 53
2, 102780, Note_on_c, 0, 80, 0
2, 102780, Note_on_c, 0, 78, 54
2, 102840, Note_on_c, 0, 78, 0
2, 102840, Note_on_c, 0, 77, 55
2, 102900, Note_on_c, 0, 77, 0
2, 102900, Note_on_c, 0, 75, 56
2, 102960, Note_on_c, 0, 75, 0
2, 102960, Note_on_c, 0, 73, 60
2, 103020, Note_on_c, 0, 73, 0
2, 103020, Note_on_c, 0, 75, 56
2, 103080, Note_on_c, 0, 75, 0
2, 103080, Note_on_c, 0, 77, 58
2, 103140, Note_on_c, 0, 77, 0
2, 103140, Note_on_c, 0, 78, 57
2, 103200, Note_on_c, 0, 78, 0
2, 103200, Note_on_c, 0, 80, 51
2, 103260, Note_on_c, 0, 80, 0
2, 103260, Note_on_c, 0, 78, 54
2, 103320, Note_on_c, 0, 78, 0
2, 103320, Note_on_c, 0, 77, 55
2, 103380, Note_on_c, 0, 77, 0
2, 103380, Note_on_c, 0, 78, 56
2, 103440, Note_on_c, 0, 78, 0
2, 103440, Note_on_c, 0, 80, 63
2, 103500, Note_on_c, 0, 80, 0
2, 103500, Note_on_c, 0, 82, 53
2, 103560, Note_on_c, 0, 82, 0
2, 103560, Note_on_c, 0, 84, 57
2, 103620, Note_on_c, 0, 84, 0
2, 103620, Note_on_c, 0, 85, 53
2, 103680, Note_on_c, 0, 85, 0
2, 103680, Note_on_c, 0, 77, 52
2, 103740, Note_on_c, 0, 77, 0
2, 103740, Note_on_c, 0, 78, 46
2, 103800, Note_on_c, 0, 78, 0
2, 103800, Note_on_c, 0, 77, 46
2, 103860, Note_on_c, 0, 77, 0
2, 103860, Note_on_c, 0, 76, 46
2, 103920, Note_on_c, 0, 76, 0
2, 103920, Note_on_c, 0, 77, 52
2, 103980, Note_on_c, 0, 77, 0
2, 103980, Note_on_c, 0, 85, 46
2, 104040, Note_on_c, 0, 85, 0
2, 104040, Note_on_c, 0, 84, 46
2, 104100, Note_on_c, 0, 84, 0
2, 104100, Note_on_c, 0, 85, 46
2, 104160, Note_on_c, 0, 85, 0
2, 104160, Note_on_c, 0, 78, 52
2, 104220, Note_on_c, 0, 78, 0
2, 104220, Note_on_c, 0, 80, 45
2, 104280, Note_on_c, 0, 80, 0
2, 104280, Note_on_c, 0, 78, 48
2, 104340, Note_on_c, 0, 78, 0
2, 104340, Note_on_c, 0, 77, 48
2, 104400, Note_on_c, 0, 77, 0
2, 104400, Note_on_c, 0, 78, 52
2, 104460, Note_on_c, 0, 78, 0
2, 104460, Note_on_c, 0, 85, 48
2, 104520, Note_on_c, 0, 85, 0
2, 104520, Note_on_c, 0, 84, 48
2, 104580, Note_on_c, 0, 84, 0
2, 104580, Note_on_c, 0, 85, 48
2, 104640, Note_on_c, 0, 85, 0
2, 104640, Note_on_c, 0, 77, 52
2, 104700, Note_on_c, 0, 77, 0
2, 104700, Note_on_c, 0, 78, 48
2, 104760, Note_on_c, 0, 78, 0
2, 104760, Note_on_c, 0, 77, 48
2, 104820, Note_on_c, 0, 77, 0
2, 104820, Note_on_c, 0, 76, 48
2, 104880, Note_on_c, 0, 76, 0
2, 104880, Note_on_c, 0, 77, 52
2, 104940, Note_on_c, 0, 77, 0
2, 104940, Note_on_c, 0, 85, 48
2, 105000, Note_on_c, 0, 85, 0
2, 105000, Note_on_c, 0, 84, 48
2, 105060, Note_on_c, 0, 84, 0
2, 105060, Note_on_c, 0, 85, 48
2, 105120, Note_on_c, 0, 85, 0
2, 105120, Note_on_c, 0, 77, 52
2, 105180, Note_on_c, 0, 77, 0
2, 105180, Note_on_c, 0, 85, 48
2, 105240, Note_on_c, 0, 85, 0
2, 105240, Note_on_c, 0, 84, 48
2, 105300, Note_on_c, 0, 84, 0
2, 105300, Note_on_c, 0, 85, 48
2, 105360, Note_on_c, 0, 85, 0
2, 105360, Note_on_c, 0, 79, 73
2, 105360, Note_on_c, 0, 76, 60
2, 105420, Note_on_c, 0, 76, 0
2, 105420, Note_on_c, 0, 79, 0
2, 105420, Note_on_c, 0, 85, 63
2, 105480, Note_on_c, 0, 85, 0
2, 105480, Note_on_c, 0, 84, 63
2, 105540, Note_on_c, 0, 84, 0
2, 105540, Note_on_c, 0, 85, 63
2, 105600, Note_on_c, 0, 85, 0
2, 105600, Note_on_c, 0, 78, 80
2, 105600, Note_on_c, 0, 75, 66
2, 105660, Note_on_c, 0, 75, 0
2, 105660, Note_on_c, 0, 78, 0
2, 105660, Note_on_c, 0, 85, 66
2, 105720, Note_on_c, 0, 85, 0
2, 105720, Note_on_c, 0, 84, 66
2, 105780, Note_on_c, 0, 84, 0
2, 105780, Note_on_c, 0, 85, 66
2, 105840, Note_on_c, 0, 85, 0
2, 105840, Note_on_c, 0, 78, 80
2, 105840, Note_on_c, 0, 75, 66
2, 105900, Note_on_c, 0, 75, 0
2, 105900, Note_on_c, 0, 78, 0
2, 105900, Note_on_c, 0, 85, 67
2, 105960, Note_on_c, 0, 85, 0
2, 105960, Note_on_c, 0, 84, 67
2, 106020, Note_on_c, 0, 84, 0
2, 106020, Note_on_c, 0, 85, 67
2, 106080, Note_on_c, 0, 85, 0
2, 106080, Note_on_c, 0, 78, 83
2, 106080, Note_on_c, 0, 75, 68
2, 106140, Note_on_c, 0, 75, 0
2, 106140, Note_on_c, 0, 78, 0
2, 106140, Note_on_c, 0, 84, 67
2, 106200, Note_on_c, 0, 84, 0
2, 106200, Note_on_c, 0, 83, 67
2, 106260, Note_on_c, 0, 83, 0
2, 106260, Note_on_c, 0, 84, 67
2, 106320, Note_on_c, 0, 84, 0
2, 106320, Note_on_c, 0, 78, 81
2, 106320, Note_on_c, 0, 75, 68
2, 106380, Note_on_c, 0, 75, 0
2, 106380, Note_on_c, 0, 78, 0
2, 106380, Note_on_c, 0, 84, 67
2, 106440, Note_on_c, 0, 84, 0
2, 106440, Note_on_c, 0, 83, 67
2, 106500, Note_on_c, 0, 83, 0
2, 106500, Note_on_c, 0, 84, 67
2, 106560, Note_on_c, 0, 84, 0
2, 106560, Note_on_c, 0, 73, 74
2, 106560, Note_on_c, 0, 77, 74
2, 106560, Note_on_c, 0, 85, 87
2, 106800, Note_on_c, 0, 85, 0
2, 106800, Note_on_c, 0, 77, 0
2, 106800, Note_on_c, 0, 73, 0
2, 107760, Note_on_c, 0, 80, 69
2, 108240, Note_on_c, 0, 80, 0
2, 108240, Note_on_c, 0, 80, 59
2, 108480, Note_on_c, 0, 80, 0
2, 108480, Note_on_c, 0, 80, 59
2, 108720, Note_on_c, 0, 80, 0
2, 108720, Note_on_c, 0, 80, 55
2, 108960, Note_on_c, 0, 80, 0
2, 108960, Note_on_c, 0, 80, 59
2, 109200, Note_on_c, 0, 80, 0
2, 109200, Note_on_c, 0, 80, 56
2, 109440, Note_on_c, 0, 80, 0
2, 109680, Note_on_c, 0, 80, 69
2, 110160, Note_on_c, 0, 80, 0
2, 110160, Note_on_c, 0, 80, 57
2, 110400, Note_on_c, 0, 80, 0
2, 110400, Note_on_c, 0, 80, 60
2, 110640, Note_on_c, 0, 80, 0
2, 110640, Note_on_c, 0, 80, 56
2, 110880, Note_on_c, 0, 80, 0
2, 110880, Note_on_c, 0, 80, 59
2, 111120, Note_on_c, 0, 80, 0
2, 111120, Note_on_c, 0, 80, 56
2, 111360, Note_on_c, 0, 80, 0
2, 111600, Note_on_c, 0, 84, 67
2, 111840, Note_on_c, 0, 84, 0
2, 111840, Note_on_c, 0, 83, 72
2, 112080, Note_on_c, 0, 83, 0
2, 112080, Note_on_c, 0, 84, 70
2, 112320, Note_on_c, 0, 84, 0
2, 112320, Note_on_c, 0, 85, 77
2, 112560, Note_on_c, 0, 85, 0
2, 112560, Note_on_c, 0, 89, 75
2, 112800, Note_on_c, 0, 89, 0
2, 112800, Note_on_c, 0, 87, 86
2, 113040, Note_on_c, 0, 87, 0
2, 113040, Note_on_c, 0, 85, 82
2, 113280, Note_on_c, 0, 85, 0
2, 113280, Note_on_c, 0, 90, 94
2, 113760, Note_on_c, 0, 90, 0
2, 113760, Note_on_c, 0, 75, 69
2, 113760, Note_on_c, 0, 78, 69
2, 113760, Note_on_c, 0, 80, 81
2, 114240, Note_on_c, 0, 80, 0
2, 114240, Note_on_c, 0, 78, 0
2, 114240, Note_on_c, 0, 75, 0
2, 114240, Note_on_c, 0, 77, 50
2, 114240, Note_on_c, 0, 80, 50
2, 114300, Note_on_c, 0, 80, 0
2, 114300, Note_on_c, 0, 77, 0
2, 114300, Note_on_c, 0, 82, 45
2, 114360, Note_on_c, 0, 82, 0
2, 114360, Note_on_c, 0, 80, 45
2, 114420, Note_on_c, 0, 80, 0
2, 114420, Note_on_c, 0, 78, 44
2, 114480, Note_on_c, 0, 78, 0
2, 114480, Note_on_c, 0, 77, 41
2, 114540, Note_on_c, 0, 77, 0
2, 114540, Note_on_c, 0, 78, 45
2, 114600, Note_on_c, 0, 78, 0
2, 114600, Note_on_c, 0, 80, 47
2, 114660, Note_on_c, 0, 80, 0
2, 114660, Note_on_c, 0, 82, 50
2, 114720, Note_on_c, 0, 82, 0
2, 114720, Note_on_c, 0, 84, 52
2, 114780, Note_on_c, 0, 84, 0
2, 114780, Note_on_c, 0, 85, 50
2, 114840, Note_on_c, 0, 85, 0
2, 114840, Note_on_c, 0, 80, 48
2, 114900, Note_on_c, 0, 80, 0
2, 114900, Note_on_c, 0, 78, 49
2, 114960, Note_on_c, 0, 78, 0
2, 114960, Note_on_c, 0, 77, 50
2, 115020, Note_on_c, 0, 77, 0
2, 115020, Note_on_c, 0, 80, 45
2, 115080, Note_on_c, 0, 80, 0
2, 115080, Note_on_c, 0, 77, 46
2, 115140, Note_on_c, 0, 77, 0
2, 115140, Note_on_c, 0, 73, 46
2, 115200, Note_on_c, 0, 73, 0
2, 115200, Note_on_c, 0, 72, 55
2, 115260, Note_on_c, 0, 72, 0
2, 115260, Note_on_c, 0, 80, 42
2, 115320, Note_on_c, 0, 80, 0
2, 115320, Note_on_c, 0, 82, 42
2, 115380, Note_on_c, 0, 82, 0
2, 115380, Note_on_c, 0, 80, 42
2, 115440, Note_on_c, 0, 80, 0
2, 115440, Note_on_c, 0, 84, 51
2, 115500, Note_on_c, 0, 84, 0
2, 115500, Note_on_c, 0, 80, 42
2, 115560, Note_on_c, 0, 80, 0
2, 115560, Note_on_c, 0, 82, 42
2, 115620, Note_on_c, 0, 82, 0
2, 115620, Note_on_c, 0, 80, 42
2, 115680, Note_on_c, 0, 80, 0
2, 115680, Note_on_c, 0, 87, 55
2, 115740, Note_on_c, 0, 87, 0
2, 115740, Note_on_c, 0, 80, 41
2, 115800, Note_on_c, 0, 80, 0
2, 115800, Note_on_c, 0, 82, 44
2, 115860, Note_on_c, 0, 82, 0
2, 115860, Note_on_c, 0, 80, 44
2, 115920, Note_on_c, 0, 80, 0
2, 115920, Note_on_c, 0, 84, 48
2, 115980, Note_on_c, 0, 84, 0
2, 115980, Note_on_c, 0, 80, 44
2, 116040, Note_on_c, 0, 80, 0
2, 116040, Note_on_c, 0, 82, 44
2, 116100, Note_on_c, 0, 82, 0
2, 116100, Note_on_c, 0, 80, 44
2, 116160, Note_on_c, 0, 80, 0
2, 116160, Note_on_c, 0, 85, 53
2, 116220, Note_on_c, 0, 85, 0
2, 116220, Note_on_c, 0, 80, 44
2, 116280, Note_on_c, 0, 80, 0
2, 116280, Note_on_c, 0, 82, 44
2, 116340, Note_on_c, 0, 82, 0
2, 116340, Note_on_c, 0, 80, 44
2, 116400, Note_on_c, 0, 80, 0
2, 116400, Note_on_c, 0, 85, 55
2, 116460, Note_on_c, 0, 85, 0
2, 116460, Note_on_c, 0, 80, 44
2, 116520, Note_on_c, 0, 80, 0
2, 116520, Note_on_c, 0, 82, 44
2, 116580, Note_on_c, 0, 82, 0
2, 116580, Note_on_c, 0, 80, 44
2, 116640, Note_on_c, 0, 80, 0
2, 116640, Note_on_c, 0, 78, 48
2, 116700, Note_on_c, 0, 78, 0
2, 116700, Note_on_c, 0, 80, 44
2, 116760, Note_on_c, 0, 80, 0
2, 116760, Note_on_c, 0, 82, 44
2, 116820, Note_on_c, 0, 82, 0
2, 116820, Note_on_c, 0, 80, 44
2, 116880, Note_on_c, 0, 80, 0
2, 116880, Note_on_c, 0, 77, 48
2, 116940, Note_on_c, 0, 77, 0
2, 116940, Note_on_c, 0, 80, 45
2, 117000, Note_on_c, 0, 80, 0
2, 117000, Note_on_c, 0, 82, 45
2, 117060, Note_on_c, 0, 82, 0
2, 117060, Note_on_c, 0, 80, 45
2, 117120, Note_on_c, 0, 80, 0
2, 117120, Note_on_c, 0, 72, 55
2, 117180, Note_on_c, 0, 72, 0
2, 117180, Note_on_c, 0, 80, 42
2, 117240, Note_on_c, 0, 80, 0
2, 117240, Note_on_c, 0, 82, 42
2, 117300, Note_on_c, 0, 82, 0
2, 117300, Note_on_c, 0, 80, 42
2, 117360, Note_on_c, 0, 80, 0
2, 117360, Note_on_c, 0, 84, 51
2, 117420, Note_on_c, 0, 84, 0
2, 117420, Note_on_c, 0, 80, 42
2, 117480, Note_on_c, 0, 80, 0
2, 117480, Note_on_c, 0, 82, 42
2, 117540, Note_on_c, 0, 82, 0
2, 117540, Note_on_c, 0, 80, 42
2, 117600, Note_on_c, 0, 80, 0
2, 117600, Note_on_c, 0, 87, 55
2, 117660, Note_on_c, 0, 87, 0
2, 117660, Note_on_c, 0, 80, 41
2, 117720, Note_on_c, 0, 80, 0
2, 117720, Note_on_c, 0, 82, 44
2, 117780, Note_on_c, 0, 82, 0
2, 117780, Note_on_c, 0, 80, 44
2, 117840, Note_on_c, 0, 80, 0
2, 117840, Note_on_c, 0, 82, 48
2, 117900, Note_on_c, 0, 82, 0
2, 117900, Note_on_c, 0, 80, 44
2, 117960, Note_on_c, 0, 80, 0
2, 117960, Note_on_c, 0, 82, 44
2, 118020, Note_on_c, 0, 82, 0
2, 118020, Note_on_c, 0, 80, 44
2, 118080, Note_on_c, 0, 80, 0
2, 118080, Note_on_c, 0, 82, 53
2, 118140, Note_on_c, 0, 82, 0
2, 118140, Note_on_c, 0, 80, 44
2, 118200, Note_on_c, 0, 80, 0
2, 118200, Note_on_c, 0, 82, 44
2, 118260, Note_on_c, 0, 82, 0
2, 118260, Note_on_c, 0, 80, 44
2, 118320, Note_on_c, 0, 80, 0
2, 118320, Note_on_c, 0, 85, 55
2, 118380, Note_on_c, 0, 85, 0
2, 118380, Note_on_c, 0, 80, 44
2, 118440, Note_on_c, 0, 80, 0
2, 118440, Note_on_c, 0, 82, 44
2, 118500, Note_on_c, 0, 82, 0
2, 118500, Note_on_c, 0, 80, 44
2, 118560, Note_on_c, 0, 80, 0
2, 118560, Note_on_c, 0, 87, 59
2, 118620, Note_on_c, 0, 87, 0
2, 118620, Note_on_c, 0, 80, 47
2, 118680, Note_on_c, 0, 80, 0
2, 118680, Note_on_c, 0, 82, 47
2, 118740, Note_on_c, 0, 82, 0
2, 118740, Note_on_c, 0, 80, 44
2, 118800, Note_on_c, 0, 80, 0
2, 118800, Note_on_c, 0, 89, 57
2, 118860, Note_on_c, 0, 89, 0
2, 118860, Note_on_c, 0, 80, 47
2, 118920, Note_on_c, 0, 80, 0
2, 118920, Note_on_c, 0, 82, 47
2, 118980, Note_on_c, 0, 82, 0
2, 118980, Note_on_c, 0, 80, 48
2, 119040, Note_on_c, 0, 80, 0
2, 119040, Note_on_c, 0, 87, 71
2, 119100, Note_on_c, 0, 87, 0
2, 119100, Note_on_c, 0, 84, 58
2, 119160, Note_on_c, 0, 84, 0
2, 119160, Note_on_c, 0, 85, 58
2, 119220, Note_on_c, 0, 85, 0
2, 119220, Note_on_c, 0, 84, 58
2, 119280, Note_on_c, 0, 84, 0
2, 119280, Note_on_c, 0, 87, 72
2, 119340, Note_on_c, 0, 87, 0
2, 119340, Note_on_c, 0, 84, 58
2, 119400, Note_on_c, 0, 84, 0
2, 119400, Note_on_c, 0, 85, 59
2, 119460, Note_on_c, 0, 85, 0
2, 119460, Note_on_c, 0, 84, 61
2, 119520, Note_on_c, 0, 84, 0
2, 119520, Note_on_c, 0, 92, 75
2, 119580, Note_on_c, 0, 92, 0
2, 119580, Note_on_c, 0, 84, 57
2, 119640, Note_on_c, 0, 84, 0
2, 119640, Note_on_c, 0, 85, 61
2, 119700, Note_on_c, 0, 85, 0
2, 119700, Note_on_c, 0, 84, 61
2, 119760, Note_on_c, 0, 84, 0
2, 119760, Note_on_c, 0, 92, 78
2, 119820, Note_on_c, 0, 92, 0
2, 119820, Note_on_c, 0, 84, 68
2, 119880, Note_on_c, 0, 84, 0
2, 119880, Note_on_c, 0, 85, 69
2, 119940, Note_on_c, 0, 85, 0
2, 119940, Note_on_c, 0, 84, 70
2, 120000, Note_on_c, 0, 84, 0
2, 120000, Note_on_c, 0, 92, 82
2, 120060, Note_on_c, 0, 92, 0
2, 120060, Note_on_c, 0, 84, 72
2, 120120, Note_on_c, 0, 84, 0
2, 120120, Note_on_c, 0, 85, 73
2, 120180, Note_on_c, 0, 85, 0
2, 120180, Note_on_c, 0, 84, 74
2, 120240, Note_on_c, 0, 84, 0
2, 120240, Note_on_c, 0, 92, 90
2, 120300, Note_on_c, 0, 92, 0
2, 120300, Note_on_c, 0, 85, 78
2, 120360, Note_on_c, 0, 85, 0
2, 120360, Note_on_c, 0, 87, 78
2, 120420, Note_on_c, 0, 87, 0
2, 120420, Note_on_c, 0, 85, 80
2, 120480, Note_on_c, 0, 85, 0
2, 120480, Note_on_c, 0, 92, 97
2, 120540, Note_on_c, 0, 92, 0
2, 120540, Note_on_c, 0, 87, 81
2, 120600, Note_on_c, 0, 87, 0
2, 120600, Note_on_c, 0, 89, 82
2, 120660, Note_on_c, 0, 89, 0
2, 120660, Note_on_c, 0, 87, 84
2, 120720, Note_on_c, 0, 87, 0
2, 120720, Note_on_c, 0, 92, 99
2, 120780, Note_on_c, 0, 92, 0
2, 120780, Note_on_c, 0, 89, 84
2, 120840, Note_on_c, 0, 89, 0
2, 120840, Note_on_c, 0, 90, 85
2, 120900, Note_on_c, 0, 90, 0
2, 120900, Note_on_c, 0, 89, 88
2, 120960, Note_on_c, 0, 89, 0
2, 120960, Note_on_c, 0, 94, 104
2, 121020, Note_on_c, 0, 94, 0
2, 121020, Note_on_c, 0, 90, 92
2, 121080, Note_on_c, 0, 90, 0
2, 121080, Note_on_c, 0, 94, 97
2, 121140, Note_on_c, 0, 94, 0
2, 121140, Note_on_c, 0, 92, 86
2, 121200, Note_on_c, 0, 92, 0
2, 121200, Note_on_c, 0, 90, 97
2, 121260, Note_on_c, 0, 90, 0
2, 121260, Note_on_c, 0, 89, 83
2, 121320, Note_on_c, 0, 89, 0
2, 121320, Note_on_c, 0, 87, 90
2, 121380, Note_on_c, 0, 87, 0
2, 121380, Note_on_c, 0, 85, 78
2, 121440, Note_on_c, 0, 85, 0
2, 121440, Note_on_c, 0, 84, 86
2, 121500, Note_on_c, 0, 84, 0
2, 121500, Note_on_c, 0, 82, 79
2, 121560, Note_on_c, 0, 82, 0
2, 121560, Note_on_c, 0, 80, 82
2, 121620, Note_on_c, 0, 80, 0
2, 121620, Note_on_c, 0, 78, 75
2, 121680, Note_on_c, 0, 78, 0
2, 121680, Note_on_c, 0, 77, 79
2, 121740, Note_on_c, 0, 77, 0
2, 121740, Note_on_c, 0, 75, 72
2, 121800, Note_on_c, 0, 75, 0
2, 121800, Note_on_c, 0, 73, 75
2, 121860, Note_on_c, 0, 73, 0
2, 121860, Note_on_c, 0, 72, 69
2, 121920, Note_on_c, 0, 72, 0
2, 121920, Note_on_c, 0, 73, 72
2, 121980, Note_on_c, 0, 73, 0
2, 121980, Note_on_c, 0, 70, 70
2, 122040, Note_on_c, 0, 70, 0
2, 122040, Note_on_c, 0, 68, 69
2, 122100, Note_on_c, 0, 68, 0
2, 122100, Note_on_c, 0, 66, 67
2, 122160, Note_on_c, 0, 66, 0
2, 122160, Note_on_c, 0, 65, 64
2, 122220, Note_on_c, 0, 65, 0
2, 122220, Note_on_c, 0, 63, 63
2, 122280, Note_on_c, 0, 63, 0
2, 122280, Note_on_c, 0, 61, 61
2, 122340, Note_on_c, 0, 61, 0
2, 122340, Note_on_c, 0, 60, 60
2, 122400, Note_on_c, 0, 60, 0
2, 122880, Note_on_c, 0, 49, 39
2, 122880, Note_on_c, 0, 53, 39
2, 122880, Note_on_c, 0, 56, 47
2, 123360, Note_on_c, 0, 56, 0
2, 123360, Note_on_c, 0, 53, 0
2, 123360, Note_on_c, 0, 49, 0
2, 123360, Note_on_c, 0, 49, 37
2, 123360, Note_on_c, 0, 54, 44
2, 123360, Note_on_c, 0, 58, 44
2, 123840, Note_on_c, 0, 58, 0
2, 123840, Note_on_c, 0, 54, 0
2, 123840, Note_on_c, 0, 49, 0
2, 123840, Note_on_c, 0, 49, 37
2, 123840, Note_on_c, 0, 53, 37
2, 123840, Note_on_c, 0, 56, 44
2, 124560, Note_on_c, 0, 56, 0
2, 124560, Note_on_c, 0, 53, 0
2, 124560, Note_on_c, 0, 49, 0
2, 124560, Note_on_c, 0, 61, 37
2, 124560, Note_on_c, 0, 63, 37
2, 124560, Note_on_c, 0, 70, 44
2, 124800, Note_on_c, 0, 70, 0
2, 124800, Note_on_c, 0, 63, 0
2, 124800, Note_on_c, 0, 61, 0
2, 124800, Note_on_c, 0, 61, 39
2, 124800, Note_on_c, 0, 63, 39
2, 124800, Note_on_c, 0, 68, 47
2, 125280, Note_on_c, 0, 68, 0
2, 125280, Note_on_c, 0, 63, 0
2, 125280, Note_on_c, 0, 61, 0
2, 125280, Note_on_c, 0, 60, 38
2, 125280, Note_on_c, 0, 63, 38
2, 125280, Note_on_c, 0, 68, 46
2, 125760, Note_on_c, 0, 68, 0
2, 125760, Note_on_c, 0, 63, 0
2, 125760, Note_on_c, 0, 60, 0
2, 125760, Note_on_c, 0, 61, 39
2, 125760, Note_on_c, 0, 65, 39
2, 125760, Note_on_c, 0, 68, 47
2, 126000, Note_on_c, 0, 68, 0
2, 126000, Note_on_c, 0, 65, 0
2, 126000, Note_on_c, 0, 61, 0
2, 126720, Note_on_c, 0, 53, 45
2, 126720, Note_on_c, 0, 56, 45
2, 126720, Note_on_c, 0, 61, 54
2, 127200, Note_on_c, 0, 61, 0
2, 127200, Note_on_c, 0, 56, 0
2, 127200, Note_on_c, 0, 53, 0
2, 127200, Note_on_c, 0, 54, 47
2, 127200, Note_on_c, 0, 58, 47
2, 127200, Note_on_c, 0, 61, 56
2, 127680, Note_on_c, 0, 61, 0
2, 127680, Note_on_c, 0, 58, 0
2, 127680, Note_on_c, 0, 54, 0
2, 127680, Note_on_c, 0, 53, 36
2, 127680, Note_on_c, 0, 56, 36
2, 127680, Note_on_c, 0, 61, 44
2, 128400, Note_on_c, 0, 61, 0
2, 128400, Note_on_c, 0, 56, 0
2, 128400, Note_on_c, 0, 53, 0
2, 128400, Note_on_c, 0, 64, 37
2, 128400, Note_on_c, 0, 67, 37
2, 128400, Note_on_c, 0, 73, 44
2, 128640, Note_on_c, 0, 73, 0
2, 128640, Note_on_c, 0, 67, 0
2, 128640, Note_on_c, 0, 64, 0
2, 128640, Note_on_c, 0, 63, 39
2, 128640, Note_on_c, 0, 66, 39
2, 128640, Note_on_c, 0, 73, 47
2, 129120, Note_on_c, 0, 73, 0
2, 129120, Note_on_c, 0, 66, 0
2, 129120, Note_on_c, 0, 63, 0
2, 129120, Note_on_c, 0, 63, 37
2, 129120, Note_on_c, 0, 66, 37
2, 129120, Note_on_c, 0, 72, 43
2, 129600, Note_on_c, 0, 72, 0
2, 129600, Note_on_c, 0, 66, 0
2, 129600, Note_on_c, 0, 63, 0
2, 129600, Note_on_c, 0, 61, 37
2, 129600, Note_on_c, 0, 65, 37
2, 129600, Note_on_c, 0, 73, 43
2, 129840, Note_on_c, 0, 73, 0
2, 129840, Note_on_c, 0, 65, 0
2, 129840, Note_on_c, 0, 61, 0
2, 130560, Note_on_c, 0, 48, 39
2, 130560, Note_on_c, 0, 51, 39
2, 130560, Note_on_c, 0, 56, 47
2, 131040, Note_on_c, 0, 56, 0
2, 131040, Note_on_c, 0, 51, 0
2, 131040, Note_on_c, 0, 48, 0
2, 131040, Note_on_c, 0, 48, 37
2, 131040, Note_on_c, 0, 54, 44
2, 131040, Note_on_c, 0, 56, 44
2, 131460, Note_on_c, 0, 56, 0
2, 131460, Note_on_c, 0, 54, 0
2, 131460, Note_on_c, 0, 48, 0
2, 131460, Note_on_c, 0, 48, 37
2, 131460, Note_on_c, 0, 51, 44
2, 131460, Note_on_c, 0, 56, 44
2, 131520, Note_on_c, 0, 56, 0
2, 131520, Note_on_c, 0, 51, 0
2, 131520, Note_on_c, 0, 48, 0
2, 131520, Note_on_c, 0, 49, 39
2, 131520, Note_on_c, 0, 53, 39
2, 131520, Note_on_c, 0, 56, 47
2, 131880, Note_on_c, 0, 56, 0
2, 131880, Note_on_c, 0, 53, 0
2, 131880, Note_on_c, 0, 49, 0
2, 131880, Note_on_c, 0, 65, 45
2, 131880, Note_on_c, 0, 68, 45
2, 131880, Note_on_c, 0, 73, 53
2, 132000, Note_on_c, 0, 73, 0
2, 132000, Note_on_c, 0, 68, 0
2, 132000, Note_on_c, 0, 65, 0
2, 132000, Note_on_c, 0, 68, 41
2, 132000, Note_on_c, 0, 66, 41
2, 132000, Note_on_c, 0, 72, 49
2, 132240, Note_on_c, 0, 72, 0
2, 132240, Note_on_c, 0, 66, 0
2, 132240, Note_on_c, 0, 68, 0
2, 132240, Note_on_c, 0, 65, 31
2, 132240, Note_on_c, 0, 68, 31
2, 132240, Note_on_c, 0, 73, 37
2, 132480, Note_on_c, 0, 73, 0
2, 132480, Note_on_c, 0, 68, 0
2, 132480, Note_on_c, 0, 65, 0
2, 132480, Note_on_c, 0, 48, 39
2, 132480, Note_on_c, 0, 51, 39
2, 132480, Note_on_c, 0, 56, 47
2, 132960, Note_on_c, 0, 56, 0
2, 132960, Note_on_c, 0, 51, 0
2, 132960, Note_on_c, 0, 48, 0
2, 132960, Note_on_c, 0, 48, 37
2, 132960, Note_on_c, 0, 54, 44
2, 132960, Note_on_c, 0, 56, 44
2, 133380, Note_on_c, 0, 56, 0
2, 133380, Note_on_c, 0, 54, 0
2, 133380, Note_on_c, 0, 48, 0
2, 133380, Note_on_c, 0, 48, 37
2, 133380, Note_on_c, 0, 51, 44
2, 133380, Note_on_c, 0, 56, 44
2, 133440, Note_on_c, 0, 56, 0
2, 133440, Note_on_c, 0, 51, 0
2, 133440, Note_on_c, 0, 48, 0
2, 133440, Note_on_c, 0, 49, 39
2, 133440, Note_on_c, 0, 53, 39
2, 133440, Note_on_c, 0, 56, 47
2, 133800, Note_on_c, 0, 56, 0
2, 133800, Note_on_c, 0, 53, 0
2, 133800, Note_on_c, 0, 49, 0
2, 133800, Note_on_c, 0, 65, 45
2, 133800, Note_on_c, 0, 68, 45
2, 133800, Note_on_c, 0, 77, 55
2, 133920, Note_on_c, 0, 77, 0
2, 133920, Note_on_c, 0, 68, 0
2, 133920, Note_on_c, 0, 65, 0
2, 133920, Note_on_c, 0, 68, 45
2, 133920, Note_on_c, 0, 66, 45
2, 133920, Note_on_c, 0, 77, 58
2, 134040, Note_on_c, 0, 77, 0
2, 134040, Note_on_c, 0, 75, 51
2, 134160, Note_on_c, 0, 75, 0
2, 134160, Note_on_c, 0, 66, 0
2, 134160, Note_on_c, 0, 68, 0
2, 134160, Note_on_c, 0, 65, 31
2, 134160, Note_on_c, 0, 68, 31
2, 134160, Note_on_c, 0, 73, 37
2, 134400, Note_on_c, 0, 73, 0
2, 134400, Note_on_c, 0, 68, 0
2, 134400, Note_on_c, 0, 65, 0
2, 134400, Note_on_c, 0, 48, 53
2, 134400, Note_on_c, 0, 51, 53
2, 134400, Note_on_c, 0, 56, 66
2, 134880, Note_on_c, 0, 56, 0
2, 134880, Note_on_c, 0, 51, 0
2, 134880, Note_on_c, 0, 48, 0
2, 134880, Note_on_c, 0, 48, 61
2, 134880, Note_on_c, 0, 54, 72
2, 134880, Note_on_c, 0, 56, 72
2, 135300, Note_on_c, 0, 56, 0
2, 135300, Note_on_c, 0, 54, 0
2, 135300, Note_on_c, 0, 48, 0
2, 135300, Note_on_c, 0, 48, 65
2, 135300, Note_on_c, 0, 51, 77
2, 135300, Note_on_c, 0, 56, 77
2, 135360, Note_on_c, 0, 56, 0
2, 135360, Note_on_c, 0, 51, 0
2, 135360, Note_on_c, 0, 48, 0
2, 135360, Note_on_c, 0, 68, 80
2, 135360, Note_on_c, 0, 73, 80
2, 135360, Note_on_c, 0, 80, 98
2, 135720, Note_on_c, 0, 80, 0
2, 135720, Note_on_c, 0, 73, 0
2, 135720, Note_on_c, 0, 68, 0
2, 135720, Note_on_c, 0, 73, 70
2, 135720, Note_on_c, 0, 77, 70
2, 135720, Note_on_c, 0, 80, 83
2, 135840, Note_on_c, 0, 80, 0
2, 135840, Note_on_c, 0, 77, 0
2, 135840, Note_on_c, 0, 73, 0
2, 135840, Note_on_c, 0, 75, 70
2, 135840, Note_on_c, 0, 72, 70
2, 135840, Note_on_c, 0, 80, 87
2, 135960, Note_on_c, 0, 80, 0
2, 135960, Note_on_c, 0, 78, 68
2, 136080, Note_on_c, 0, 78, 0
2, 136080, Note_on_c, 0, 72, 0
2, 136080, Note_on_c, 0, 75, 0
2, 136080, Note_on_c, 0, 73, 57
2, 136080, Note_on_c, 0, 77, 71
2, 136320, Note_on_c, 0, 77, 0
2, 136320, Note_on_c, 0, 73, 0
2, 136320, Note_on_c, 0, 66, 39
2, 136320, Note_on_c, 0, 70, 39
2, 136320, Note_on_c, 0, 75, 47
2, 136800, Note_on_c, 0, 75, 0
2, 136800, Note_on_c, 0, 70, 0
2, 136800, Note_on_c, 0, 66, 0
2, 136800, Note_on_c, 0, 63, 37
2, 136800, Note_on_c, 0, 68, 43
2, 137280, Note_on_c, 0, 68, 0
2, 137280, Note_on_c, 0, 63, 0
2, 137580, Note_on_c, 0, 61, 30
2, 137640, Note_on_c, 0, 64, 32
2, 137700, Note_on_c, 0, 67, 34
2, 137760, Note_on_c, 0, 73, 38
2, 138240, Note_on_c, 0, 73, 0
2, 138240, Note_on_c, 0, 61, 0
2, 138240, Note_on_c, 0, 64, 0
2, 138240, Note_on_c, 0, 67, 0
2, 138480, Note_on_c, 0, 85, 102
2, 138480, Note_on_c, 0, 79, 86
2, 138480, Note_on_c, 0, 76, 86
2, 138480, Note_on_c, 0, 73, 86
2, 139200, Note_on_c, 0, 73, 0
2, 139200, Note_on_c, 0, 85, 0
2, 139200, Note_on_c, 0, 79, 0
2, 139200, Note_on_c, 0, 76, 0
2, 139200, End_track
3, 0, Start_track
3, 0, Title_t, "Piano left"
3, 0, Program_c, 0, 0
3, 0, Control_c, 0, 7, 100
3, 0, Control_c, 0, 10, 64
3, 0, Note_on_c, 0, 37, 47
3, 480, Note_on_c, 0, 37, 0
3, 480, Note_on_c, 0, 30, 35
3, 960, Note_on_c, 0, 30, 0
3, 960, Note_on_c, 0, 37, 37
3, 1680, Note_on_c, 0, 37, 0
3, 1680, Note_on_c, 0, 30, 35
3, 1920, Note_on_c, 0, 30, 0
3, 1920, Note_on_c, 0, 32, 40
3, 2400, Note_on_c, 0, 32, 0
3, 2400, Note_on_c, 0, 44, 40
3, 2820, Note_on_c, 0, 44, 0
3, 2820, Note_on_c, 0, 42, 36
3, 2880, Note_on_c, 0, 42, 0
3, 2880, Note_on_c, 0, 41, 43
3, 3240, Note_on_c, 0, 41, 0
3, 3240, Note_on_c, 0, 42, 36
3, 3360, Note_on_c, 0, 42, 0
3, 3360, Note_on_c, 0, 44, 41
3, 3540, Note_on_c, 0, 44, 0
3, 3540, Note_on_c, 0, 42, 37
3, 3600, Note_on_c, 0, 42, 0
3, 3600, Note_on_c, 0, 41, 40
3, 3780, Note_on_c, 0, 41, 0
3, 3780, Note_on_c, 0, 39, 40
3, 3840, Note_on_c, 0, 39, 0
3, 3840, Note_on_c, 0, 37, 39
3, 3840, Note_on_c, 0, 49, 46
3, 4320, Note_on_c, 0, 49, 0
3, 4320, Note_on_c, 0, 37, 0
3, 4320, Note_on_c, 0, 42, 48
3, 4320, Note_on_c, 0, 30, 40
3, 4800, Note_on_c, 0, 30, 0
3, 4800, Note_on_c, 0, 42, 0
3, 4800, Note_on_c, 0, 37, 27
3, 4800, Note_on_c, 0, 49, 32
3, 5520, Note_on_c, 0, 49, 0
3, 5520, Note_on_c, 0, 37, 0
3, 5520, Note_on_c, 0, 33, 30
3, 5520, Note_on_c, 0, 45, 36
3, 5760, Note_on_c, 0, 45, 0
3, 5760, Note_on_c, 0, 33, 0
3, 5760, Note_on_c, 0, 32, 31
3, 5760, Note_on_c, 0, 44, 37
3, 6240, Note_on_c, 0, 44, 0
3, 6240, Note_on_c, 0, 32, 0
3, 6240, Note_on_c, 0, 44, 34
3, 6900, Note_on_c, 0, 44, 0
3, 6900, Note_on_c, 0, 42, 28
3, 6960, Note_on_c, 0, 42, 0
3, 6960, Note_on_c, 0, 41, 32
3, 7140, Note_on_c, 0, 41, 0
3, 7140, Note_on_c, 0, 39, 27
3, 7200, Note_on_c, 0, 39, 0
3, 7200, Note_on_c, 0, 37, 27
3, 7440, Note_on_c, 0, 37, 0
3, 7680, Note_on_c, 0, 37, 47
3, 8160, Note_on_c, 0, 37, 0
3, 8160, Note_on_c, 0, 30, 35
3, 8640, Note_on_c, 0, 30, 0
3, 8640, Note_on_c, 0, 37, 37
3, 9360, Note_on_c, 0, 37, 0
3, 9360, Note_on_c, 0, 30, 35
3, 9600, Note_on_c, 0, 30, 0
3, 9600, Note_on_c, 0, 32, 40
3, 10080, Note_on_c, 0, 32, 0
3, 10080, Note_on_c, 0, 44, 40
3, 10500, Note_on_c, 0, 44, 0
3, 10500, Note_on_c, 0, 42, 36
3, 10560, Note_on_c, 0, 42, 0
3, 10560, Note_on_c, 0, 41, 43
3, 10920, Note_on_c, 0, 41, 0
3, 10920, Note_on_c, 0, 42, 36
3, 11040, Note_on_c, 0, 42, 0
3, 11040, Note_on_c, 0, 44, 41
3, 11220, Note_on_c, 0, 44, 0
3, 11220, Note_on_c, 0, 42, 37
3, 11280, Note_on_c, 0, 42, 0
3, 11280, Note_on_c, 0, 41, 40
3, 11460, Note_on_c, 0, 41, 0
3, 11460, Note_on_c, 0, 39, 40
3, 11520, Note_on_c, 0, 39, 0
3, 11520, Note_on_c, 0, 37, 39
3, 11520, Note_on_c, 0, 49, 46
3, 12000, Note_on_c, 0, 49, 0
3, 12000, Note_on_c, 0, 37, 0
3, 12000, Note_on_c, 0, 30, 40
3, 12000, Note_on_c, 0, 42, 48
3, 12480, Note_on_c, 0, 42, 0
3, 12480, Note_on_c, 0, 30, 0
3, 12480, Note_on_c, 0, 37, 25
3, 12480, Note_on_c, 0, 49, 30
3, 13200, Note_on_c, 0, 49, 0
3, 13200, Note_on_c, 0, 37, 0
3, 13200, Note_on_c, 0, 33, 30
3, 13200, Note_on_c, 0, 45, 36
3, 13440, Note_on_c, 0, 45, 0
3, 13440, Note_on_c, 0, 33, 0
3, 13440, Note_on_c, 0, 32, 31
3, 13440, Note_on_c, 0, 44, 37
3, 13920, Note_on_c, 0, 44, 0
3, 13920, Note_on_c, 0, 32, 0
3, 13920, Note_on_c, 0, 44, 34
3, 14580, Note_on_c, 0, 44, 0
3, 14580, Note_on_c, 0, 42, 28
3, 14640, Note_on_c, 0, 42, 0
3, 14640, Note_on_c, 0, 41, 31
3, 14820, Note_on_c, 0, 41, 0
3, 14820, Note_on_c, 0, 39, 27
3, 14880, Note_on_c, 0, 39, 0
3, 14880, Note_on_c, 0, 37, 27
3, 15120, Note_on_c, 0, 37, 0
3, 15360, Note_on_c, 0, 42, 40
3, 15360, Note_on_c, 0, 44, 40
3, 15840, Note_on_c, 0, 44, 0
3, 15840, Note_on_c, 0, 42, 0
3, 15840, Note_on_c, 0, 39, 35
3, 15840, Note_on_c, 0, 44, 35
3, 16260, Note_on_c, 0, 44, 0
3, 16260, Note_on_c, 0, 39, 0
3, 16260, Note_on_c, 0, 42, 35
3, 16260, Note_on_c, 0, 44, 35
3, 16320, Note_on_c, 0, 44, 0
3, 16320, Note_on_c, 0, 42, 0
3, 16320, Note_on_c, 0, 41, 33
3, 16320, Note_on_c, 0, 44, 39
3, 16680, Note_on_c, 0, 44, 0
3, 16680, Note_on_c, 0, 41, 0
3, 16680, Note_on_c, 0, 37, 39
3, 16680, Note_on_c, 0, 44, 46
3, 16800, Note_on_c, 0, 44, 0
3, 16800, Note_on_c, 0, 37, 0
3, 16800, Note_on_c, 0, 39, 37
3, 16800, Note_on_c, 0, 44, 44
3, 17040, Note_on_c, 0, 44, 0
3, 17040, Note_on_c, 0, 39, 0
3, 17040, Note_on_c, 0, 37, 28
3, 17040, Note_on_c, 0, 44, 34
3, 17280, Note_on_c, 0, 44, 0
3, 17280, Note_on_c, 0, 37, 0
3, 17280, Note_on_c, 0, 42, 40
3, 17280, Note_on_c, 0, 44, 40
3, 17760, Note_on_c, 0, 44, 0
3, 17760, Note_on_c, 0, 42, 0
3, 17760, Note_on_c, 0, 39, 35
3, 17760, Note_on_c, 0, 44, 35
3, 18180, Note_on_c, 0, 44, 0
3, 18180, Note_on_c, 0, 39, 0
3, 18180, Note_on_c, 0, 42, 35
3, 18180, Note_on_c, 0, 44, 35
3, 18240, Note_on_c, 0, 44, 0
3, 18240, Note_on_c, 0, 42, 0
3, 18240, Note_on_c, 0, 41, 33
3, 18240, Note_on_c, 0, 44, 39
3, 18600, Note_on_c, 0, 44, 0
3, 18600, Note_on_c, 0, 41, 0
3, 18600, Note_on_c, 0, 37, 39
3, 18600, Note_on_c, 0, 44, 46
3, 18720, Note_on_c, 0, 44, 0
3, 18720, Note_on_c, 0, 37, 0
3, 18720, Note_on_c, 0, 36, 37
3, 18720, Note_on_c, 0, 44, 44
3, 18960, Note_on_c, 0, 44, 0
3, 18960, Note_on_c, 0, 36, 0
3, 18960, Note_on_c, 0, 37, 28
3, 18960, Note_on_c, 0, 44, 34
3, 19200, Note_on_c, 0, 44, 0
3, 19200, Note_on_c, 0, 37, 0
3, 19200, Note_on_c, 0, 42, 48
3, 19200, Note_on_c, 0, 44, 48
3, 19680, Note_on_c, 0, 44, 0
3, 19680, Note_on_c, 0, 42, 0
3, 19680, Note_on_c, 0, 39, 49
3, 19680, Note_on_c, 0, 44, 49
3, 20100, Note_on_c, 0, 44, 0
3, 20100, Note_on_c, 0, 39, 0
3, 20100, Note_on_c, 0, 42, 55
3, 20100, Note_on_c, 0, 44, 55
3, 20160, Note_on_c, 0, 44, 0
3, 20160, Note_on_c, 0, 42, 0
3, 20160, Note_on_c, 0, 41, 73
3, 20160, Note_on_c, 0, 53, 73
3, 20520, Note_on_c, 0, 53, 0
3, 20520, Note_on_c, 0, 41, 0
3, 20520, Note_on_c, 0, 37, 48
3, 20520, Note_on_c, 0, 49, 53
3, 20640, Note_on_c, 0, 49, 0
3, 20640, Note_on_c, 0, 37, 0
3, 20640, Note_on_c, 0, 39, 52
3, 20640, Note_on_c, 0, 51, 62
3, 20880, Note_on_c, 0, 51, 0
3, 20880, Note_on_c, 0, 39, 0
3, 20880, Note_on_c, 0, 41, 36
3, 20880, Note_on_c, 0, 53, 42
3, 21120, Note_on_c, 0, 53, 0
3, 21120, Note_on_c, 0, 41, 0
3, 21120, Note_on_c, 0, 42, 37
3, 21600, Note_on_c, 0, 42, 0
3, 21600, Note_on_c, 0, 44, 34
3, 22260, Note_on_c, 0, 44, 0
3, 22260, Note_on_c, 0, 42, 28
3, 22320, Note_on_c, 0, 42, 0
3, 22320, Note_on_c, 0, 41, 30
3, 22500, Note_on_c, 0, 41, 0
3, 22500, Note_on_c, 0, 39, 27
3, 22560, Note_on_c, 0, 39, 0
3, 22560, Note_on_c, 0, 37, 26
3, 22800, Note_on_c, 0, 37, 0
3, 23040, Note_on_c, 0, 42, 40
3, 23040, Note_on_c, 0, 44, 40
3, 23520, Note_on_c, 0, 44, 0
3, 23520, Note_on_c, 0, 42, 0
3, 23520, Note_on_c, 0, 39, 35
3, 23520, Note_on_c, 0, 44, 35
3, 23940, Note_on_c, 0, 44, 0
3, 23940, Note_on_c, 0, 39, 0
3, 23940, Note_on_c, 0, 42, 35
3, 23940, Note_on_c, 0, 44, 35
3, 24000, Note_on_c, 0, 44, 0
3, 24000, Note_on_c, 0, 42, 0
3, 24000, Note_on_c, 0, 41, 33
3, 24000, Note_on_c, 0, 44, 39
3, 24360, Note_on_c, 0, 44, 0
3, 24360, Note_on_c, 0, 41, 0
3, 24360, Note_on_c, 0, 37, 39
3, 24360, Note_on_c, 0, 44, 46
3, 24480, Note_on_c, 0, 44, 0
3, 24480, Note_on_c, 0, 37, 0
3, 24480, Note_on_c, 0, 39, 37
3, 24480, Note_on_c, 0, 44, 44
3, 24720, Note_on_c, 0, 44, 0
3, 24720, Note_on_c, 0, 39, 0
3, 24720, Note_on_c, 0, 37, 28
3, 24720, Note_on_c, 0, 44, 34
3, 24960, Note_on_c, 0, 44, 0
3, 24960, Note_on_c, 0, 37, 0
3, 24960, Note_on_c, 0, 42, 40
3, 24960, Note_on_c, 0, 44, 40
3, 25440, Note_on_c, 0, 44, 0
3, 25440, Note_on_c, 0, 42, 0
3, 25440, Note_on_c, 0, 39, 35
3, 25440, Note_on_c, 0, 44, 35
3, 25860, Note_on_c, 0, 44, 0
3, 25860, Note_on_c, 0, 39, 0
3, 25860, Note_on_c, 0, 42, 35
3, 25860, Note_on_c, 0, 44, 35
3, 25920, Note_on_c, 0, 44, 0
3, 25920, Note_on_c, 0, 42, 0
3, 25920, Note_on_c, 0, 41, 33
3, 25920, Note_on_c, 0, 44, 39
3, 26280, Note_on_c, 0, 44, 0
3, 26280, Note_on_c, 0, 41, 0
3, 26280, Note_on_c, 0, 37, 39
3, 26280, Note_on_c, 0, 44, 46
3, 26400, Note_on_c, 0, 44, 0
3, 26400, Note_on_c, 0, 37, 0
3, 26400, Note_on_c, 0, 36, 37
3, 26400, Note_on_c, 0, 44, 44
3, 26640, Note_on_c, 0, 44, 0
3, 26640, Note_on_c, 0, 36, 0
3, 26640, Note_on_c, 0, 37, 28
3, 26640, Note_on_c, 0, 44, 34
3, 26880, Note_on_c, 0, 44, 0
3, 26880, Note_on_c, 0, 37, 0
3, 26880, Note_on_c, 0, 42, 48
3, 26880, Note_on_c, 0, 44, 48
3, 27360, Note_on_c, 0, 44, 0
3, 27360, Note_on_c, 0, 42, 0
3, 27360, Note_on_c, 0, 39, 49
3, 27360, Note_on_c, 0, 44, 49
3, 27780, Note_on_c, 0, 44, 0
3, 27780, Note_on_c, 0, 39, 0
3, 27780, Note_on_c, 0, 42, 55
3, 27780, Note_on_c, 0, 44, 55
3, 27840, Note_on_c, 0, 44, 0
3, 27840, Note_on_c, 0, 42, 0
3, 27840, Note_on_c, 0, 41, 73
3, 27840, Note_on_c, 0, 53, 73
3, 28200, Note_on_c, 0, 53, 0
3, 28200, Note_on_c, 0, 41, 0
3, 28200, Note_on_c, 0, 37, 49
3, 28200, Note_on_c, 0, 49, 55
3, 28320, Note_on_c, 0, 49, 0
3, 28320, Note_on_c, 0, 37, 0
3, 28320, Note_on_c, 0, 39, 52
3, 28320, Note_on_c, 0, 51, 62
3, 28560, Note_on_c, 0, 51, 0
3, 28560, Note_on_c, 0, 39, 0
3, 28560, Note_on_c, 0, 41, 36
3, 28560, Note_on_c, 0, 53, 42
3, 28800, Note_on_c, 0, 53, 0
3, 28800, Note_on_c, 0, 41, 0
3, 28800, Note_on_c, 0, 42, 37
3, 29280, Note_on_c, 0, 42, 0
3, 29280, Note_on_c, 0, 44, 34
3, 29940, Note_on_c, 0, 44, 0
3, 29940, Note_on_c, 0, 42, 28
3, 30000, Note_on_c, 0, 42, 0
3, 30000, Note_on_c, 0, 41, 30
3, 30180, Note_on_c, 0, 41, 0
3, 30180, Note_on_c, 0, 39, 28
3, 30240, Note_on_c, 0, 39, 0
3, 30240, Note_on_c, 0, 37, 26
3, 30480, Note_on_c, 0, 37, 0
3, 30960, Note_on_c, 0, 37, 40
3, 31440, Note_on_c, 0, 37, 0
3, 31440, Note_on_c, 0, 30, 31
3, 31920, Note_on_c, 0, 30, 0
3, 31920, Note_on_c, 0, 32, 39
3, 32400, Note_on_c, 0, 32, 0
3, 32400, Note_on_c, 0, 31, 35
3, 32880, Note_on_c, 0, 31, 0
3, 32880, Note_on_c, 0, 32, 40
3, 33360, Note_on_c, 0, 32, 0
3, 33360, Note_on_c, 0, 42, 38
3, 33720, Note_on_c, 0, 42, 0
3, 33720, Note_on_c, 0, 41, 31
3, 33960, Note_on_c, 0, 41, 0
3, 33960, Note_on_c, 0, 39, 29
3, 34200, Note_on_c, 0, 39, 0
3, 34200, Note_on_c, 0, 37, 28
3, 34440, Note_on_c, 0, 37, 0
3, 34440, Note_on_c, 0, 36, 26
3, 34800, Note_on_c, 0, 36, 0
3, 34800, Note_on_c, 0, 37, 42
3, 35280, Note_on_c, 0, 37, 0
3, 35280, Note_on_c, 0, 42, 32
3, 35760, Note_on_c, 0, 42, 0
3, 35760, Note_on_c, 0, 44, 40
3, 36240, Note_on_c, 0, 44, 0
3, 36240, Note_on_c, 0, 45, 36
3, 36720, Note_on_c, 0, 45, 0
3, 36720, Note_on_c, 0, 44, 40
3, 37200, Note_on_c, 0, 44, 0
3, 37200, Note_on_c, 0, 32, 38
3, 37560, Note_on_c, 0, 32, 0
3, 37560, Note_on_c, 0, 37, 34
3, 37800, Note_on_c, 0, 37, 0
3, 37800, Note_on_c, 0, 44, 30
3, 38040, Note_on_c, 0, 44, 0
3, 38040, Note_on_c, 0, 41, 34
3, 38280, Note_on_c, 0, 41, 0
3, 38280, Note_on_c, 0, 39, 31
3, 38640, Note_on_c, 0, 39, 0
3, 38640, Note_on_c, 0, 37, 40
3, 39120, Note_on_c, 0, 37, 0
3, 39120, Note_on_c, 0, 30, 31
3, 39600, Note_on_c, 0, 30, 0
3, 39600, Note_on_c, 0, 32, 39
3, 40080, Note_on_c, 0, 32, 0
3, 40080, Note_on_c, 0, 31, 35
3, 40560, Note_on_c, 0, 31, 0
3, 40560, Note_on_c, 0, 32, 40
3, 41040, Note_on_c, 0, 32, 0
3, 41040, Note_on_c, 0, 42, 38
3, 41400, Note_on_c, 0, 42, 0
3, 41400, Note_on_c, 0, 41, 31
3, 41640, Note_on_c, 0, 41, 0
3, 41640, Note_on_c, 0, 39, 30
3, 41880, Note_on_c, 0, 39, 0
3, 41880, Note_on_c, 0, 37, 29
3, 42120, Note_on_c, 0, 37, 0
3, 42120, Note_on_c, 0, 36, 28
3, 42480, Note_on_c, 0, 36, 0
3, 42480, Note_on_c, 0, 37, 42
3, 42960, Note_on_c, 0, 37, 0
3, 42960, Note_on_c, 0, 42, 32
3, 43440, Note_on_c, 0, 42, 0
3, 43440, Note_on_c, 0, 44, 40
3, 43920, Note_on_c, 0, 44, 0
3, 43920, Note_on_c, 0, 45, 36
3, 44400, Note_on_c, 0, 45, 0
3, 44400, Note_on_c, 0, 44, 40
3, 44880, Note_on_c, 0, 44, 0
3, 44880, Note_on_c, 0, 32, 38
3, 45240, Note_on_c, 0, 32, 0
3, 45240, Note_on_c, 0, 37, 34
3, 45480, Note_on_c, 0, 37, 0
3, 45480, Note_on_c, 0, 44, 30
3, 45720, Note_on_c, 0, 44, 0
3, 45720, Note_on_c, 0, 41, 34
3, 45960, Note_on_c, 0, 41, 0
3, 45960, Note_on_c, 0, 37, 31
3, 46080, Note_on_c, 0, 37, 0
3, 46320, Note_on_c, 0, 42, 40
3, 46800, Note_on_c, 0, 42, 0
3, 46800, Note_on_c, 0, 66, 57
3, 47160, Note_on_c, 0, 66, 0
3, 47160, Note_on_c, 0, 65, 38
3, 47280, Note_on_c, 0, 65, 0
3, 47400, Note_on_c, 0, 49, 38
3, 47520, Note_on_c, 0, 49, 0
3, 47640, Note_on_c, 0, 51, 45
3, 47760, Note_on_c, 0, 51, 0
3, 47880, Note_on_c, 0, 53, 45
3, 48000, Note_on_c, 0, 53, 0
3, 48240, Note_on_c, 0, 42, 59
3, 48720, Note_on_c, 0, 42, 0
3, 48720, Note_on_c, 0, 68, 63
3, 48720, Note_on_c, 0, 66, 52
3, 49080, Note_on_c, 0, 66, 0
3, 49080, Note_on_c, 0, 68, 0
3, 49080, Note_on_c, 0, 65, 60
3, 49200, Note_on_c, 0, 65, 0
3, 49320, Note_on_c, 0, 53, 55
3, 49320, Note_on_c, 0, 49, 45
3, 49440, Note_on_c, 0, 49, 0
3, 49440, Note_on_c, 0, 53, 0
3, 49560, Note_on_c, 0, 54, 63
3, 49560, Note_on_c, 0, 51, 52
3, 49680, Note_on_c, 0, 51, 0
3, 49680, Note_on_c, 0, 54, 0
3, 49800, Note_on_c, 0, 56, 62
3, 49800, Note_on_c, 0, 53, 51
3, 49918, Note_on_c, 0, 53, 0
3, 49918, Note_on_c, 0, 56, 0
3, 50160, Note_on_c, 0, 30, 61
3, 50160, Note_on_c, 0, 42, 73
3, 50640, Note_on_c, 0, 42, 0
3, 50640, Note_on_c, 0, 30, 0
3, 50640, Note_on_c, 0, 75, 85
3, 50640, Note_on_c, 0, 72, 58
3, 51000, Note_on_c, 0, 72, 0
3, 51000, Note_on_c, 0, 75, 0
3, 51000, Note_on_c, 0, 73, 61
3, 51000, Note_on_c, 0, 77, 72
3, 51120, Note_on_c, 0, 77, 0
3, 51120, Note_on_c, 0, 73, 0
3, 51240, Note_on_c, 0, 49, 66
3, 51240, Note_on_c, 0, 37, 55
3, 51360, Note_on_c, 0, 37, 0
3, 51360, Note_on_c, 0, 49, 0
3, 51480, Note_on_c, 0, 51, 70
3, 51480, Note_on_c, 0, 39, 58
3, 51600, Note_on_c, 0, 39, 0
3, 51600, Note_on_c, 0, 51, 0
3, 51720, Note_on_c, 0, 53, 66
3, 51720, Note_on_c, 0, 41, 45
3, 52080, Note_on_c, 0, 41, 0
3, 52080, Note_on_c, 0, 53, 0
3, 52080, Note_on_c, 0, 42, 42
3, 52560, Note_on_c, 0, 42, 0
3, 52560, Note_on_c, 0, 44, 38
3, 52920, Note_on_c, 0, 44, 0
3, 52920, Note_on_c, 0, 42, 31
3, 53160, Note_on_c, 0, 42, 0
3, 53160, Note_on_c, 0, 41, 30
3, 53400, Note_on_c, 0, 41, 0
3, 53400, Note_on_c, 0, 39, 28
3, 53640, Note_on_c, 0, 39, 0
3, 53640, Note_on_c, 0, 37, 27
3, 53760, Note_on_c, 0, 37, 0
3, 54000, Note_on_c, 0, 42, 40
3, 54480, Note_on_c, 0, 42, 0
3, 54480, Note_on_c, 0, 66, 57
3, 54840, Note_on_c, 0, 66, 0
3, 54840, Note_on_c, 0, 65, 38
3, 54960, Note_on_c, 0, 65, 0
3, 55080, Note_on_c, 0, 49, 38
3, 55200, Note_on_c, 0, 49, 0
3, 55320, Note_on_c, 0, 51, 45
3, 55440, Note_on_c, 0, 51, 0
3, 55560, Note_on_c, 0, 53, 45
3, 55680, Note_on_c, 0, 53, 0
3, 55920, Note_on_c, 0, 42, 59
3, 56400, Note_on_c, 0, 42, 0
3, 56400, Note_on_c, 0, 68, 63
3, 56400, Note_on_c, 0, 66, 52
3, 56760, Note_on_c, 0, 66, 0
3, 56760, Note_on_c, 0, 68, 0
3, 56760, Note_on_c, 0, 65, 60
3, 56880, Note_on_c, 0, 65, 0
3, 57000, Note_on_c, 0, 53, 55
3, 57000, Note_on_c, 0, 49, 45
3, 57120, Note_on_c, 0, 49, 0
3, 57120, Note_on_c, 0, 53, 0
3, 57240, Note_on_c, 0, 54, 63
3, 57240, Note_on_c, 0, 51, 52
3, 57360, Note_on_c, 0, 51, 0
3, 57360, Note_on_c, 0, 54, 0
3, 57480, Note_on_c, 0, 56, 62
3, 57480, Note_on_c, 0, 53, 51
3, 57598, Note_on_c, 0, 53, 0
3, 57598, Note_on_c, 0, 56, 0
3, 57840, Note_on_c, 0, 30, 61
3, 57840, Note_on_c, 0, 42, 73
3, 58320, Note_on_c, 0, 42, 0
3, 58320, Note_on_c, 0, 30, 0
3, 58320, Note_on_c, 0, 75, 85
3, 58320, Note_on_c, 0, 72, 58
3, 58680, Note_on_c, 0, 72, 0
3, 58680, Note_on_c, 0, 75, 0
3, 58680, Note_on_c, 0, 73, 61
3, 58680, Note_on_c, 0, 77, 72
3, 58800, Note_on_c, 0, 77, 0
3, 58800, Note_on_c, 0, 73, 0
3, 58920, Note_on_c, 0, 49, 66
3, 58920, Note_on_c, 0, 37, 55
3, 59040, Note_on_c, 0, 37, 0
3, 59040, Note_on_c, 0, 49, 0
3, 59160, Note_on_c, 0, 51, 70
3, 59160, Note_on_c, 0, 39, 58
3, 59280, Note_on_c, 0, 39, 0
3, 59280, Note_on_c, 0, 51, 0
3, 59400, Note_on_c, 0, 53, 66
3, 59400, Note_on_c, 0, 41, 45
3, 59760, Note_on_c, 0, 41, 0
3, 59760, Note_on_c, 0, 53, 0
3, 59760, Note_on_c, 0, 42, 42
3, 60240, Note_on_c, 0, 42, 0
3, 60240, Note_on_c, 0, 44, 38
3, 60600, Note_on_c, 0, 44, 0
3, 60600, Note_on_c, 0, 41, 30
3, 60840, Note_on_c, 0, 41, 0
3, 60840, Note_on_c, 0, 39, 27
3, 61200, Note_on_c, 0, 39, 0
3, 61200, Note_on_c, 0, 37, 26
3, 61440, Note_on_c, 0, 37, 0
3, 61440, Note_on_c, 0, 49, 51
3, 61920, Note_on_c, 0, 49, 0
3, 61920, Note_on_c, 0, 42, 38
3, 62400, Note_on_c, 0, 42, 0
3, 62400, Note_on_c, 0, 49, 42
3, 63120, Note_on_c, 0, 49, 0
3, 63120, Note_on_c, 0, 42, 38
3, 63360, Note_on_c, 0, 42, 0
3, 63360, Note_on_c, 0, 44, 44
3, 63840, Note_on_c, 0, 44, 0
3, 63840, Note_on_c, 0, 56, 44
3, 64560, Note_on_c, 0, 56, 0
3, 64560, Note_on_c, 0, 54, 39
3, 64680, Note_on_c, 0, 54, 0
3, 64680, Note_on_c, 0, 53, 39
3, 64800, Note_on_c, 0, 53, 0
3, 64800, Note_on_c, 0, 51, 41
3, 65040, Note_on_c, 0, 51, 0
3, 65040, Note_on_c, 0, 49, 38
3, 65280, Note_on_c, 0, 49, 0
3, 65280, Note_on_c, 0, 61, 51
3, 65760, Note_on_c, 0, 61, 0
3, 65760, Note_on_c, 0, 54, 58
3, 66240, Note_on_c, 0, 54, 0
3, 66240, Note_on_c, 0, 61, 42
3, 66960, Note_on_c, 0, 61, 0
3, 66960, Note_on_c, 0, 57, 38
3, 67200, Note_on_c, 0, 57, 0
3, 67200, Note_on_c, 0, 56, 44
3, 67680, Note_on_c, 0, 56, 0
3, 67680, Note_on_c, 0, 44, 44
3, 68400, Note_on_c, 0, 44, 0
3, 68400, Note_on_c, 0, 37, 36
3, 68520, Note_on_c, 0, 37, 0
3, 68520, Note_on_c, 0, 41, 36
3, 68640, Note_on_c, 0, 41, 0
3, 68640, Note_on_c, 0, 44, 38
3, 68760, Note_on_c, 0, 44, 0
3, 68760, Note_on_c, 0, 49, 34
3, 68880, Note_on_c, 0, 49, 0
3, 68880, Note_on_c, 0, 53, 35
3, 69000, Note_on_c, 0, 53, 0
3, 69000, Note_on_c, 0, 51, 30
3, 69120, Note_on_c, 0, 51, 0
3, 69120, Note_on_c, 0, 49, 51
3, 69600, Note_on_c, 0, 49, 0
3, 69600, Note_on_c, 0, 42, 38
3, 70080, Note_on_c, 0, 42, 0
3, 70080, Note_on_c, 0, 49, 42
3, 70800, Note_on_c, 0, 49, 0
3, 70800, Note_on_c, 0, 42, 38
3, 71040, Note_on_c, 0, 42, 0
3, 71040, Note_on_c, 0, 44, 44
3, 71520, Note_on_c, 0, 44, 0
3, 71520, Note_on_c, 0, 56, 44
3, 72240, Note_on_c, 0, 56, 0
3, 72240, Note_on_c, 0, 54, 39
3, 72360, Note_on_c, 0, 54, 0
3, 72360, Note_on_c, 0, 53, 39
3, 72480, Note_on_c, 0, 53, 0
3, 72480, Note_on_c, 0, 51, 41
3, 72720, Note_on_c, 0, 51, 0
3, 72720, Note_on_c, 0, 49, 38
3, 72960, Note_on_c, 0, 49, 0
3, 72960, Note_on_c, 0, 61, 51
3, 73440, Note_on_c, 0, 61, 0
3, 73440, Note_on_c, 0, 54, 58
3, 73920, Note_on_c, 0, 54, 0
3, 73920, Note_on_c, 0, 61, 42
3, 74640, Note_on_c, 0, 61, 0
3, 74640, Note_on_c, 0, 57, 38
3, 74880, Note_on_c, 0, 57, 0
3, 74880, Note_on_c, 0, 56, 44
3, 75360, Note_on_c, 0, 56, 0
3, 75360, Note_on_c, 0, 44, 44
3, 76080, Note_on_c, 0, 44, 0
3, 76080, Note_on_c, 0, 49, 36
3, 76200, Note_on_c, 0, 49, 0
3, 76200, Note_on_c, 0, 53, 36
3, 76320, Note_on_c, 0, 53, 0
3, 76320, Note_on_c, 0, 53, 38
3, 76440, Note_on_c, 0, 53, 0
3, 76440, Note_on_c, 0, 49, 34
3, 76560, Note_on_c, 0, 49, 0
3, 76560, Note_on_c, 0, 53, 35
3, 76680, Note_on_c, 0, 53, 0
3, 76680, Note_on_c, 0, 56, 30
3, 76800, Note_on_c, 0, 56, 0
3, 76800, Note_on_c, 0, 56, 51
3, 76800, Note_on_c, 0, 54, 51
3, 77280, Note_on_c, 0, 54, 0
3, 77280, Note_on_c, 0, 51, 38
3, 77760, Note_on_c, 0, 51, 0
3, 77760, Note_on_c, 0, 56, 0
3, 77760, Note_on_c, 0, 53, 38
3, 77760, Note_on_c, 0, 56, 46
3, 78000, Note_on_c, 0, 56, 0
3, 78000, Note_on_c, 0, 53, 0
3, 78000, Note_on_c, 0, 51, 41
3, 78000, Note_on_c, 0, 56, 49
3, 78120, Note_on_c, 0, 56, 0
3, 78120, Note_on_c, 0, 51, 0
3, 78120, Note_on_c, 0, 53, 45
3, 78120, Note_on_c, 0, 56, 54
3, 78240, Note_on_c, 0, 56, 0
3, 78240, Note_on_c, 0, 53, 0
3, 78240, Note_on_c, 0, 51, 49
3, 78240, Note_on_c, 0, 56, 59
3, 78480, Note_on_c, 0, 56, 0
3, 78480, Note_on_c, 0, 51, 0
3, 78480, Note_on_c, 0, 49, 42
3, 78480, Note_on_c, 0, 56, 50
3, 78720, Note_on_c, 0, 56, 0
3, 78720, Note_on_c, 0, 49, 0
3, 78720, Note_on_c, 0, 56, 51
3, 78720, Note_on_c, 0, 54, 51
3, 79200, Note_on_c, 0, 54, 0
3, 79200, Note_on_c, 0, 51, 38
3, 79680, Note_on_c, 0, 51, 0
3, 79680, Note_on_c, 0, 56, 0
3, 79680, Note_on_c, 0, 53, 38
3, 79680, Note_on_c, 0, 56, 46
3, 79920, Note_on_c, 0, 56, 0
3, 79920, Note_on_c, 0, 53, 0
3, 79920, Note_on_c, 0, 51, 41
3, 79920, Note_on_c, 0, 56, 49
3, 80040, Note_on_c, 0, 56, 0
3, 80040, Note_on_c, 0, 51, 0
3, 80040, Note_on_c, 0, 49, 45
3, 80040, Note_on_c, 0, 56, 54
3, 80160, Note_on_c, 0, 56, 0
3, 80160, Note_on_c, 0, 49, 0
3, 80160, Note_on_c, 0, 48, 49
3, 80160, Note_on_c, 0, 56, 59
3, 80400, Note_on_c, 0, 56, 0
3, 80400, Note_on_c, 0, 48, 0
3, 80400, Note_on_c, 0, 49, 42
3, 80400, Note_on_c, 0, 56, 50
3, 80640, Note_on_c, 0, 56, 0
3, 80640, Note_on_c, 0, 49, 0
3, 80640, Note_on_c, 0, 56, 58
3, 80640, Note_on_c, 0, 54, 58
3, 81120, Note_on_c, 0, 54, 0
3, 81120, Note_on_c, 0, 51, 62
3, 81600, Note_on_c, 0, 51, 0
3, 81600, Note_on_c, 0, 56, 0
3, 81600, Note_on_c, 0, 53, 59
3, 81600, Note_on_c, 0, 56, 59
3, 81600, Note_on_c, 0, 61, 73
3, 81840, Note_on_c, 0, 61, 0
3, 81840, Note_on_c, 0, 56, 0
3, 81840, Note_on_c, 0, 53, 0
3, 81840, Note_on_c, 0, 54, 55
3, 81840, Note_on_c, 0, 51, 55
3, 81840, Note_on_c, 0, 61, 65
3, 81960, Note_on_c, 0, 61, 0
3, 81960, Note_on_c, 0, 51, 0
3, 81960, Note_on_c, 0, 54, 0
3, 81960, Note_on_c, 0, 49, 49
3, 81960, Note_on_c, 0, 53, 49
3, 81960, Note_on_c, 0, 61, 59
3, 82080, Note_on_c, 0, 61, 0
3, 82080, Note_on_c, 0, 53, 0
3, 82080, Note_on_c, 0, 49, 0
3, 82080, Note_on_c, 0, 54, 56
3, 82080, Note_on_c, 0, 51, 56
3, 82080, Note_on_c, 0, 60, 66
3, 82320, Note_on_c, 0, 60, 0
3, 82320, Note_on_c, 0, 51, 0
3, 82320, Note_on_c, 0, 54, 0
3, 82320, Note_on_c, 0, 56, 40
3, 82320, Note_on_c, 0, 53, 40
3, 82320, Note_on_c, 0, 61, 58
3, 82560, Note_on_c, 0, 61, 0
3, 82560, Note_on_c, 0, 53, 0
3, 82560, Note_on_c, 0, 56, 0
3, 82560, Note_on_c, 0, 54, 34
3, 82560, Note_on_c, 0, 58, 34
3, 82560, Note_on_c, 0, 63, 40
3, 83040, Note_on_c, 0, 63, 0
3, 83040, Note_on_c, 0, 58, 0
3, 83040, Note_on_c, 0, 54, 0
3, 83040, Note_on_c, 0, 56, 34
3, 83040, Note_on_c, 0, 60, 40
3, 83520, Note_on_c, 0, 60, 0
3, 83520, Note_on_c, 0, 56, 0
3, 83520, Note_on_c, 0, 56, 34
3, 83520, Note_on_c, 0, 61, 40
3, 83760, Note_on_c, 0, 61, 0
3, 83760, Note_on_c, 0, 56, 0
3, 83760, Note_on_c, 0, 49, 36
3, 83880, Note_on_c, 0, 49, 0
3, 83880, Note_on_c, 0, 51, 36
3, 84000, Note_on_c, 0, 51, 0
3, 84000, Note_on_c, 0, 53, 38
3, 84120, Note_on_c, 0, 53, 0
3, 84120, Note_on_c, 0, 49, 28
3, 84120, Note_on_c, 0, 56, 34
3, 84240, Note_on_c, 0, 56, 0
3, 84240, Note_on_c, 0, 49, 0
3, 84240, Note_on_c, 0, 51, 29
3, 84240, Note_on_c, 0, 56, 35
3, 84360, Note_on_c, 0, 56, 0
3, 84360, Note_on_c, 0, 51, 0
3, 84360, Note_on_c, 0, 53, 25
3, 84360, Note_on_c, 0, 56, 30
3, 84480, Note_on_c, 0, 56, 0
3, 84480, Note_on_c, 0, 53, 0
3, 84480, Note_on_c, 0, 56, 51
3, 84480, Note_on_c, 0, 54, 51
3, 84960, Note_on_c, 0, 54, 0
3, 84960, Note_on_c, 0, 51, 38
3, 85440, Note_on_c, 0, 51, 0
3, 85440, Note_on_c, 0, 56, 0
3, 85440, Note_on_c, 0, 53, 38
3, 85440, Note_on_c, 0, 56, 46
3, 85680, Note_on_c, 0, 56, 0
3, 85680, Note_on_c, 0, 53, 0
3, 85680, Note_on_c, 0, 51, 41
3, 85680, Note_on_c, 0, 56, 49
3, 85800, Note_on_c, 0, 56, 0
3, 85800, Note_on_c, 0, 51, 0
3, 85800, Note_on_c, 0, 53, 45
3, 85800, Note_on_c, 0, 56, 54
3, 85920, Note_on_c, 0, 56, 0
3, 85920, Note_on_c, 0, 53, 0
3, 85920, Note_on_c, 0, 51, 49
3, 85920, Note_on_c, 0, 56, 59
3, 86160, Note_on_c, 0, 56, 0
3, 86160, Note_on_c, 0, 51, 0
3, 86160, Note_on_c, 0, 49, 42
3, 86160, Note_on_c, 0, 56, 50
3, 86400, Note_on_c, 0, 56, 0
3, 86400, Note_on_c, 0, 49, 0
3, 86400, Note_on_c, 0, 56, 51
3, 86400, Note_on_c, 0, 54, 51
3, 86880, Note_on_c, 0, 54, 0
3, 86880, Note_on_c, 0, 51, 38
3, 87360, Note_on_c, 0, 51, 0
3, 87360, Note_on_c, 0, 56, 0
3, 87360, Note_on_c, 0, 53, 38
3, 87360, Note_on_c, 0, 56, 46
3, 87600, Note_on_c, 0, 56, 0
3, 87600, Note_on_c, 0, 53, 0
3, 87600, Note_on_c, 0, 51, 41
3, 87600, Note_on_c, 0, 56, 49
3, 87720, Note_on_c, 0, 56, 0
3, 87720, Note_on_c, 0, 51, 0
3, 87720, Note_on_c, 0, 49, 45
3, 87720, Note_on_c, 0, 56, 54
3, 87840, Note_on_c, 0, 56, 0
3, 87840, Note_on_c, 0, 49, 0
3, 87840, Note_on_c, 0, 48, 49
3, 87840, Note_on_c, 0, 56, 59
3, 88080, Note_on_c, 0, 56, 0
3, 88080, Note_on_c, 0, 48, 0
3, 88080, Note_on_c, 0, 49, 42
3, 88080, Note_on_c, 0, 56, 50
3, 88320, Note_on_c, 0, 56, 0
3, 88320, Note_on_c, 0, 49, 0
3, 88320, Note_on_c, 0, 56, 58
3, 88320, Note_on_c, 0, 54, 58
3, 88800, Note_on_c, 0, 54, 0
3, 88800, Note_on_c, 0, 51, 62
3, 89280, Note_on_c, 0, 51, 0
3, 89280, Note_on_c, 0, 56, 0
3, 89280, Note_on_c, 0, 53, 59
3, 89280, Note_on_c, 0, 56, 59
3, 89280, Note_on_c, 0, 61, 73
3, 89520, Note_on_c, 0, 61, 0
3, 89520, Note_on_c, 0, 56, 0
3, 89520, Note_on_c, 0, 53, 0
3, 89520, Note_on_c, 0, 54, 55
3, 89520, Note_on_c, 0, 51, 55
3, 89520, Note_on_c, 0, 61, 65
3, 89640, Note_on_c, 0, 61, 0
3, 89640, Note_on_c, 0, 51, 0
3, 89640, Note_on_c, 0, 54, 0
3, 89640, Note_on_c, 0, 49, 49
3, 89640, Note_on_c, 0, 53, 49
3, 89640, Note_on_c, 0, 61, 59
3, 89760, Note_on_c, 0, 61, 0
3, 89760, Note_on_c, 0, 53, 0
3, 89760, Note_on_c, 0, 49, 0
3, 89760, Note_on_c, 0, 54, 56
3, 89760, Note_on_c, 0, 51, 56
3, 89760, Note_on_c, 0, 60, 66
3, 90000, Note_on_c, 0, 60, 0
3, 90000, Note_on_c, 0, 51, 0
3, 90000, Note_on_c, 0, 54, 0
3, 90000, Note_on_c, 0, 56, 40
3, 90000, Note_on_c, 0, 53, 40
3, 90000, Note_on_c, 0, 61, 58
3, 90240, Note_on_c, 0, 61, 0
3, 90240, Note_on_c, 0, 53, 0
3, 90240, Note_on_c, 0, 56, 0
3, 90240, Note_on_c, 0, 54, 34
3, 90240, Note_on_c, 0, 58, 34
3, 90240, Note_on_c, 0, 63, 40
3, 90720, Note_on_c, 0, 63, 0
3, 90720, Note_on_c, 0, 58, 0
3, 90720, Note_on_c, 0, 54, 0
3, 90720, Note_on_c, 0, 56, 34
3, 90720, Note_on_c, 0, 60, 40
3, 91200, Note_on_c, 0, 60, 0
3, 91200, Note_on_c, 0, 56, 0
3, 91200, Note_on_c, 0, 56, 34
3, 91200, Note_on_c, 0, 61, 40
3, 91440, Note_on_c, 0, 61, 0
3, 91440, Note_on_c, 0, 56, 0
3, 91440, Note_on_c, 0, 49, 36
3, 91680, Note_on_c, 0, 49, 0
3, 91740, Note_on_c, 0, 68, 40
3, 91800, Note_on_c, 0, 68, 0
3, 91800, Note_on_c, 0, 65, 37
3, 91860, Note_on_c, 0, 65, 0
3, 91860, Note_on_c, 0, 68, 37
3, 91920, Note_on_c, 0, 68, 0
3, 91920, Note_on_c, 0, 64, 40
3, 91980, Note_on_c, 0, 64, 0
3, 91980, Note_on_c, 0, 68, 37
3, 92040, Note_on_c, 0, 68, 0
3, 92040, Note_on_c, 0, 65, 37
3, 92100, Note_on_c, 0, 65, 0
3, 92100, Note_on_c, 0, 68, 37
3, 92160, Note_on_c, 0, 68, 0
3, 92160, Note_on_c, 0, 61, 40
3, 92220, Note_on_c, 0, 61, 0
3, 92220, Note_on_c, 0, 68, 36
3, 92280, Note_on_c, 0, 68, 0
3, 92280, Note_on_c, 0, 65, 36
3, 92340, Note_on_c, 0, 65, 0
3, 92340, Note_on_c, 0, 68, 36
3, 92400, Note_on_c, 0, 68, 0
3, 92400, Note_on_c, 0, 73, 40
3, 92460, Note_on_c, 0, 73, 0
3, 92460, Note_on_c, 0, 68, 36
3, 92520, Note_on_c, 0, 68, 0
3, 92520, Note_on_c, 0, 65, 36
3, 92580, Note_on_c, 0, 65, 0
3, 92580, Note_on_c, 0, 68, 36
3, 92640, Note_on_c, 0, 68, 0
3, 92640, Note_on_c, 0, 61, 40
3, 92700, Note_on_c, 0, 61, 0
3, 92700, Note_on_c, 0, 70, 35
3, 92760, Note_on_c, 0, 70, 0
3, 92760, Note_on_c, 0, 66, 37
3, 92820, Note_on_c, 0, 66, 0
3, 92820, Note_on_c, 0, 70, 37
3, 92880, Note_on_c, 0, 70, 0
3, 92880, Note_on_c, 0, 73, 40
3, 92940, Note_on_c, 0, 73, 0
3, 92940, Note_on_c, 0, 70, 37
3, 93000, Note_on_c, 0, 70, 0
3, 93000, Note_on_c, 0, 66, 37
3, 93060, Note_on_c, 0, 66, 0
3, 93060, Note_on_c, 0, 70, 37
3, 93120, Note_on_c, 0, 70, 0
3, 93120, Note_on_c, 0, 61, 40
3, 93180, Note_on_c, 0, 61, 0
3, 93180, Note_on_c, 0, 68, 37
3, 93240, Note_on_c, 0, 68, 0
3, 93240, Note_on_c, 0, 65, 37
3, 93300, Note_on_c, 0, 65, 0
3, 93300, Note_on_c, 0, 68, 37
3, 93360, Note_on_c, 0, 68, 0
3, 93360, Note_on_c, 0, 73, 40
3, 93420, Note_on_c, 0, 73, 0
3, 93420, Note_on_c, 0, 68, 37
3, 93480, Note_on_c, 0, 68, 0
3, 93480, Note_on_c, 0, 65, 37
3, 93540, Note_on_c, 0, 65, 0
3, 93540, Note_on_c, 0, 68, 37
3, 93600, Note_on_c, 0, 68, 0
3, 93600, Note_on_c, 0, 61, 40
3, 93660, Note_on_c, 0, 61, 0
3, 93660, Note_on_c, 0, 68, 37
3, 93720, Note_on_c, 0, 68, 0
3, 93720, Note_on_c, 0, 65, 37
3, 93780, Note_on_c, 0, 65, 0
3, 93780, Note_on_c, 0, 68, 37
3, 93840, Note_on_c, 0, 68, 0
3, 93840, Note_on_c, 0, 54, 52
3, 93900, Note_on_c, 0, 54, 0
3, 93900, Note_on_c, 0, 66, 46
3, 93960, Note_on_c, 0, 66, 0
3, 93960, Note_on_c, 0, 63, 46
3, 94020, Note_on_c, 0, 63, 0
3, 94020, Note_on_c, 0, 66, 46
3, 94080, Note_on_c, 0, 66, 0
3, 94080, Note_on_c, 0, 56, 57
3, 94140, Note_on_c, 0, 56, 0
3, 94140, Note_on_c, 0, 66, 46
3, 94200, Note_on_c, 0, 66, 0
3, 94200, Note_on_c, 0, 63, 46
3, 94260, Note_on_c, 0, 63, 0
3, 94260, Note_on_c, 0, 66, 46
3, 94320, Note_on_c, 0, 66, 0
3, 94320, Note_on_c, 0, 56, 57
3, 94380, Note_on_c, 0, 56, 0
3, 94380, Note_on_c, 0, 66, 46
3, 94440, Note_on_c, 0, 66, 0
3, 94440, Note_on_c, 0, 63, 46
3, 94500, Note_on_c, 0, 63, 0
3, 94500, Note_on_c, 0, 66, 46
3, 94560, Note_on_c, 0, 66, 0
3, 94560, Note_on_c, 0, 56, 59
3, 94620, Note_on_c, 0, 56, 0
3, 94620, Note_on_c, 0, 66, 46
3, 94680, Note_on_c, 0, 66, 0
3, 94680, Note_on_c, 0, 63, 46
3, 94740, Note_on_c, 0, 63, 0
3, 94740, Note_on_c, 0, 66, 46
3, 94800, Note_on_c, 0, 66, 0
3, 94800, Note_on_c, 0, 56, 58
3, 94860, Note_on_c, 0, 56, 0
3, 94860, Note_on_c, 0, 66, 46
3, 94920, Note_on_c, 0, 66, 0
3, 94920, Note_on_c, 0, 63, 46
3, 94980, Note_on_c, 0, 63, 0
3, 94980, Note_on_c, 0, 66, 46
3, 95040, Note_on_c, 0, 66, 0
3, 95040, Note_on_c, 0, 61, 46
3, 95100, Note_on_c, 0, 61, 0
3, 95100, Note_on_c, 0, 63, 47
3, 95160, Note_on_c, 0, 63, 0
3, 95160, Note_on_c, 0, 65, 48
3, 95220, Note_on_c, 0, 65, 0
3, 95220, Note_on_c, 0, 66, 49
3, 95280, Note_on_c, 0, 66, 0
3, 95280, Note_on_c, 0, 68, 52
3, 95340, Note_on_c, 0, 68, 0
3, 95340, Note_on_c, 0, 70, 49
3, 95400, Note_on_c, 0, 70, 0
3, 95400, Note_on_c, 0, 68, 51
3, 95460, Note_on_c, 0, 68, 0
3, 95460, Note_on_c, 0, 66, 50
3, 95520, Note_on_c, 0, 66, 0
3, 95520, Note_on_c, 0, 65, 45
3, 95580, Note_on_c, 0, 65, 0
3, 95580, Note_on_c, 0, 66, 47
3, 95640, Note_on_c, 0, 66, 0
3, 95640, Note_on_c, 0, 68, 48
3, 95700, Note_on_c, 0, 68, 0
3, 95700, Note_on_c, 0, 70, 49
3, 95760, Note_on_c, 0, 70, 0
3, 95760, Note_on_c, 0, 72, 54
3, 95820, Note_on_c, 0, 72, 0
3, 95820, Note_on_c, 0, 73, 46
3, 95880, Note_on_c, 0, 73, 0
3, 95880, Note_on_c, 0, 68, 50
3, 95940, Note_on_c, 0, 68, 0
3, 95940, Note_on_c, 0, 66, 46
3, 96000, Note_on_c, 0, 66, 0
3, 96000, Note_on_c, 0, 65, 40
3, 96060, Note_on_c, 0, 65, 0
3, 96060, Note_on_c, 0, 73, 36
3, 96120, Note_on_c, 0, 73, 0
3, 96120, Note_on_c, 0, 68, 36
3, 96180, Note_on_c, 0, 68, 0
3, 96180, Note_on_c, 0, 73, 36
3, 96240, Note_on_c, 0, 73, 0
3, 96240, Note_on_c, 0, 77, 40
3, 96300, Note_on_c, 0, 77, 0
3, 96300, Note_on_c, 0, 73, 36
3, 96360, Note_on_c, 0, 73, 0
3, 96360, Note_on_c, 0, 68, 36
3, 96420, Note_on_c, 0, 68, 0
3, 96420, Note_on_c, 0, 73, 36
3, 96480, Note_on_c, 0, 73, 0
3, 96480, Note_on_c, 0, 66, 40
3, 96540, Note_on_c, 0, 66, 0
3, 96540, Note_on_c, 0, 73, 35
3, 96600, Note_on_c, 0, 73, 0
3, 96600, Note_on_c, 0, 70, 37
3, 96660, Note_on_c, 0, 70, 0
3, 96660, Note_on_c, 0, 73, 37
3, 96720, Note_on_c, 0, 73, 0
3, 96720, Note_on_c, 0, 78, 40
3, 96780, Note_on_c, 0, 78, 0
3, 96780, Note_on_c, 0, 73, 37
3, 96840, Note_on_c, 0, 73, 0
3, 96840, Note_on_c, 0, 70, 37
3, 96900, Note_on_c, 0, 70, 0
3, 96900, Note_on_c, 0, 73, 37
3, 96960, Note_on_c, 0, 73, 0
3, 96960, Note_on_c, 0, 65, 40
3, 97020, Note_on_c, 0, 65, 0
3, 97020, Note_on_c, 0, 73, 37
3, 97080, Note_on_c, 0, 73, 0
3, 97080, Note_on_c, 0, 68, 37
3, 97140, Note_on_c, 0, 68, 0
3, 97140, Note_on_c, 0, 73, 37
3, 97200, Note_on_c, 0, 73, 0
3, 97200, Note_on_c, 0, 77, 40
3, 97260, Note_on_c, 0, 77, 0
3, 97260, Note_on_c, 0, 73, 37
3, 97320, Note_on_c, 0, 73, 0
3, 97320, Note_on_c, 0, 68, 37
3, 97380, Note_on_c, 0, 68, 0
3, 97380, Note_on_c, 0, 73, 37
3, 97440, Note_on_c, 0, 73, 0
3, 97440, Note_on_c, 0, 65, 40
3, 97500, Note_on_c, 0, 65, 0
3, 97500, Note_on_c, 0, 73, 37
3, 97560, Note_on_c, 0, 73, 0
3, 97560, Note_on_c, 0, 68, 37
3, 97620, Note_on_c, 0, 68, 0
3, 97620, Note_on_c, 0, 73, 37
3, 97680, Note_on_c, 0, 73, 0
3, 97680, Note_on_c, 0, 64, 52
3, 97740, Note_on_c, 0, 64, 0
3, 97740, Note_on_c, 0, 70, 46
3, 97800, Note_on_c, 0, 70, 0
3, 97800, Note_on_c, 0, 67, 46
3, 97860, Note_on_c, 0, 67, 0
3, 97860, Note_on_c, 0, 70, 46
3, 97920, Note_on_c, 0, 70, 0
3, 97920, Note_on_c, 0, 63, 57
3, 97980, Note_on_c, 0, 63, 0
3, 97980, Note_on_c, 0, 69, 46
3, 98040, Note_on_c, 0, 69, 0
3, 98040, Note_on_c, 0, 66, 46
3, 98100, Note_on_c, 0, 66, 0
3, 98100, Note_on_c, 0, 69, 46
3, 98160, Note_on_c, 0, 69, 0
3, 98160, Note_on_c, 0, 63, 57
3, 98220, Note_on_c, 0, 63, 0
3, 98220, Note_on_c, 0, 69, 46
3, 98280, Note_on_c, 0, 69, 0
3, 98280, Note_on_c, 0, 66, 46
3, 98340, Note_on_c, 0, 66, 0
3, 98340, Note_on_c, 0, 69, 46
3, 98400, Note_on_c, 0, 69, 0
3, 98400, Note_on_c, 0, 63, 59
3, 98460, Note_on_c, 0, 63, 0
3, 98460, Note_on_c, 0, 68, 46
3, 98520, Note_on_c, 0, 68, 0
3, 98520, Note_on_c, 0, 66, 46
3, 98580, Note_on_c, 0, 66, 0
3, 98580, Note_on_c, 0, 68, 46
3, 98640, Note_on_c, 0, 68, 0
3, 98640, Note_on_c, 0, 63, 58
3, 98700, Note_on_c, 0, 63, 0
3, 98700, Note_on_c, 0, 68, 46
3, 98760, Note_on_c, 0, 68, 0
3, 98760, Note_on_c, 0, 66, 46
3, 98820, Note_on_c, 0, 66, 0
3, 98820, Note_on_c, 0, 68, 46
3, 98880, Note_on_c, 0, 68, 0
3, 98880, Note_on_c, 0, 61, 68
3, 98880, Note_on_c, 0, 65, 68
3, 98880, Note_on_c, 0, 68, 80
3, 99120, Note_on_c, 0, 68, 0
3, 99120, Note_on_c, 0, 65, 0
3, 99120, Note_on_c, 0, 61, 0
3, 100080, Note_on_c, 0, 61, 52
3, 100080, Note_on_c, 0, 68, 62
3, 100080, Note_on_c, 0, 65, 52
3, 100560, Note_on_c, 0, 65, 0
3, 100560, Note_on_c, 0, 68, 0
3, 100560, Note_on_c, 0, 61, 0
3, 100560, Note_on_c, 0, 61, 53
3, 100560, Note_on_c, 0, 70, 63
3, 100560, Note_on_c, 0, 66, 53
3, 101040, Note_on_c, 0, 66, 0
3, 101040, Note_on_c, 0, 70, 0
3, 101040, Note_on_c, 0, 61, 0
3, 101040, Note_on_c, 0, 61, 54
3, 101040, Note_on_c, 0, 68, 63
3, 101040, Note_on_c, 0, 65, 54
3, 101520, Note_on_c, 0, 65, 0
3, 101520, Note_on_c, 0, 68, 0
3, 101520, Note_on_c, 0, 61, 0
3, 101520, Note_on_c, 0, 63, 58
3, 101520, Note_on_c, 0, 54, 58
3, 101520, Note_on_c, 0, 61, 58
3, 101520, Note_on_c, 0, 66, 71
3, 101760, Note_on_c, 0, 66, 0
3, 101760, Note_on_c, 0, 63, 0
3, 101760, Note_on_c, 0, 54, 0
3, 101760, Note_on_c, 0, 61, 0
3, 101760, Note_on_c, 0, 61, 62
3, 101760, Note_on_c, 0, 56, 62
3, 101760, Note_on_c, 0, 63, 62
3, 101760, Note_on_c, 0, 66, 75
3, 102000, Note_on_c, 0, 66, 0
3, 102000, Note_on_c, 0, 61, 0
3, 102000, Note_on_c, 0, 56, 0
3, 102000, Note_on_c, 0, 63, 0
3, 102000, Note_on_c, 0, 61, 58
3, 102000, Note_on_c, 0, 56, 58
3, 102000, Note_on_c, 0, 63, 58
3, 102000, Note_on_c, 0, 66, 71
3, 102240, Note_on_c, 0, 66, 0
3, 102240, Note_on_c, 0, 61, 0
3, 102240, Note_on_c, 0, 56, 0
3, 102240, Note_on_c, 0, 63, 0
3, 102240, Note_on_c, 0, 60, 55
3, 102240, Note_on_c, 0, 56, 54
3, 102240, Note_on_c, 0, 63, 60
3, 102240, Note_on_c, 0, 66, 73
3, 102480, Note_on_c, 0, 66, 0
3, 102480, Note_on_c, 0, 60, 0
3, 102480, Note_on_c, 0, 56, 0
3, 102480, Note_on_c, 0, 63, 0
3, 102480, Note_on_c, 0, 60, 53
3, 102480, Note_on_c, 0, 56, 52
3, 102480, Note_on_c, 0, 63, 57
3, 102480, Note_on_c, 0, 66, 67
3, 102720, Note_on_c, 0, 66, 0
3, 102720, Note_on_c, 0, 60, 0
3, 102720, Note_on_c, 0, 56, 0
3, 102720, Note_on_c, 0, 63, 0
3, 102720, Note_on_c, 0, 61, 65
3, 102720, Note_on_c, 0, 65, 76
3, 102960, Note_on_c, 0, 65, 0
3, 102960, Note_on_c, 0, 61, 0
3, 103920, Note_on_c, 0, 73, 62
3, 103920, Note_on_c, 0, 68, 52
3, 104400, Note_on_c, 0, 68, 0
3, 104400, Note_on_c, 0, 73, 0
3, 104400, Note_on_c, 0, 73, 63
3, 104400, Note_on_c, 0, 70, 53
3, 104880, Note_on_c, 0, 70, 0
3, 104880, Note_on_c, 0, 73, 0
3, 104880, Note_on_c, 0, 73, 63
3, 104880, Note_on_c, 0, 68, 54
3, 105360, Note_on_c, 0, 68, 0
3, 105360, Note_on_c, 0, 73, 0
3, 105360, Note_on_c, 0, 69, 71
3, 105600, Note_on_c, 0, 69, 0
3, 105600, Note_on_c, 0, 68, 75
3, 105840, Note_on_c, 0, 68, 0
3, 105840, Note_on_c, 0, 68, 71
3, 106080, Note_on_c, 0, 68, 0
3, 106080, Note_on_c, 0, 56, 76
3, 106320, Note_on_c, 0, 56, 0
3, 106320, Note_on_c, 0, 56, 70
3, 106560, Note_on_c, 0, 56, 0
3, 106560, Note_on_c, 0, 56, 54
3, 106620, Note_on_c, 0, 56, 0
3, 106620, Note_on_c, 0, 58, 55
3, 106680, Note_on_c, 0, 58, 0
3, 106680, Note_on_c, 0, 60, 57
3, 106740, Note_on_c, 0, 60, 0
3, 106740, Note_on_c, 0, 61, 58
3, 106800, Note_on_c, 0, 61, 0
3, 106800, Note_on_c, 0, 60, 59
3, 106860, Note_on_c, 0, 60, 0
3, 106860, Note_on_c, 0, 61, 53
3, 106920, Note_on_c, 0, 61, 0
3, 106920, Note_on_c, 0, 63, 56
3, 106980, Note_on_c, 0, 63, 0
3, 106980, Note_on_c, 0, 65, 53
3, 107040, Note_on_c, 0, 65, 0
3, 107040, Note_on_c, 0, 63, 48
3, 107100, Note_on_c, 0, 63, 0
3, 107100, Note_on_c, 0, 65, 49
3, 107160, Note_on_c, 0, 65, 0
3, 107160, Note_on_c, 0, 66, 50
3, 107220, Note_on_c, 0, 66, 0
3, 107220, Note_on_c, 0, 68, 51
3, 107280, Note_on_c, 0, 68, 0
3, 107280, Note_on_c, 0, 70, 54
3, 107340, Note_on_c, 0, 70, 0
3, 107340, Note_on_c, 0, 72, 46
3, 107400, Note_on_c, 0, 72, 0
3, 107400, Note_on_c, 0, 73, 50
3, 107460, Note_on_c, 0, 73, 0
3, 107460, Note_on_c, 0, 68, 46
3, 107520, Note_on_c, 0, 68, 0
3, 107520, Note_on_c, 0, 66, 40
3, 107580, Note_on_c, 0, 66, 0
3, 107580, Note_on_c, 0, 75, 36
3, 107640, Note_on_c, 0, 75, 0
3, 107640, Note_on_c, 0, 72, 36
3, 107700, Note_on_c, 0, 72, 0
3, 107700, Note_on_c, 0, 75, 36
3, 107760, Note_on_c, 0, 75, 0
3, 107760, Note_on_c, 0, 71, 40
3, 107820, Note_on_c, 0, 71, 0
3, 107820, Note_on_c, 0, 75, 36
3, 107880, Note_on_c, 0, 75, 0
3, 107880, Note_on_c, 0, 72, 36
3, 107940, Note_on_c, 0, 72, 0
3, 107940, Note_on_c, 0, 75, 36
3, 108000, Note_on_c, 0, 75, 0
3, 108000, Note_on_c, 0, 78, 57
3, 108060, Note_on_c, 0, 78, 0
3, 108060, Note_on_c, 0, 75, 35
3, 108120, Note_on_c, 0, 75, 0
3, 108120, Note_on_c, 0, 72, 37
3, 108180, Note_on_c, 0, 72, 0
3, 108180, Note_on_c, 0, 75, 37
3, 108240, Note_on_c, 0, 75, 0
3, 108240, Note_on_c, 0, 66, 40
3, 108300, Note_on_c, 0, 66, 0
3, 108300, Note_on_c, 0, 75, 37
3, 108360, Note_on_c, 0, 75, 0
3, 108360, Note_on_c, 0, 72, 37
3, 108420, Note_on_c, 0, 72, 0
3, 108420, Note_on_c, 0, 75, 37
3, 108480, Note_on_c, 0, 75, 0
3, 108480, Note_on_c, 0, 65, 40
3, 108540, Note_on_c, 0, 65, 0
3, 108540, Note_on_c, 0, 73, 37
3, 108600, Note_on_c, 0, 73, 0
3, 108600, Note_on_c, 0, 68, 37
3, 108660, Note_on_c, 0, 68, 0
3, 108660, Note_on_c, 0, 73, 37
3, 108720, Note_on_c, 0, 73, 0
3, 108720, Note_on_c, 0, 65, 40
3, 108780, Note_on_c, 0, 65, 0
3, 108780, Note_on_c, 0, 73, 37
3, 108840, Note_on_c, 0, 73, 0
3, 108840, Note_on_c, 0, 68, 37
3, 108900, Note_on_c, 0, 68, 0
3, 108900, Note_on_c, 0, 73, 37
3, 108960, Note_on_c, 0, 73, 0
3, 108960, Note_on_c, 0, 63, 40
3, 109020, Note_on_c, 0, 63, 0
3, 109020, Note_on_c, 0, 72, 37
3, 109080, Note_on_c, 0, 72, 0
3, 109080, Note_on_c, 0, 66, 37
3, 109140, Note_on_c, 0, 66, 0
3, 109140, Note_on_c, 0, 72, 37
3, 109200, Note_on_c, 0, 72, 0
3, 109200, Note_on_c, 0, 61, 40
3, 109260, Note_on_c, 0, 61, 0
3, 109260, Note_on_c, 0, 73, 38
3, 109320, Note_on_c, 0, 73, 0
3, 109320, Note_on_c, 0, 65, 38
3, 109380, Note_on_c, 0, 65, 0
3, 109380, Note_on_c, 0, 73, 38
3, 109440, Note_on_c, 0, 73, 0
3, 109440, Note_on_c, 0, 66, 40
3, 109500, Note_on_c, 0, 66, 0
3, 109500, Note_on_c, 0, 75, 36
3, 109560, Note_on_c, 0, 75, 0
3, 109560, Note_on_c, 0, 72, 36
3, 109620, Note_on_c, 0, 72, 0
3, 109620, Note_on_c, 0, 75, 36
3, 109680, Note_on_c, 0, 75, 0
3, 109680, Note_on_c, 0, 71, 40
3, 109740, Note_on_c, 0, 71, 0
3, 109740, Note_on_c, 0, 75, 36
3, 109800, Note_on_c, 0, 75, 0
3, 109800, Note_on_c, 0, 72, 36
3, 109860, Note_on_c, 0, 72, 0
3, 109860, Note_on_c, 0, 75, 36
3, 109920, Note_on_c, 0, 75, 0
3, 109920, Note_on_c, 0, 78, 58
3, 109980, Note_on_c, 0, 78, 0
3, 109980, Note_on_c, 0, 75, 35
3, 110040, Note_on_c, 0, 75, 0
3, 110040, Note_on_c, 0, 72, 37
3, 110100, Note_on_c, 0, 72, 0
3, 110100, Note_on_c, 0, 75, 37
3, 110160, Note_on_c, 0, 75, 0
3, 110160, Note_on_c, 0, 66, 40
3, 110220, Note_on_c, 0, 66, 0
3, 110220, Note_on_c, 0, 75, 37
3, 110280, Note_on_c, 0, 75, 0
3, 110280, Note_on_c, 0, 72, 37
3, 110340, Note_on_c, 0, 72, 0
3, 110340, Note_on_c, 0, 75, 37
3, 110400, Note_on_c, 0, 75, 0
3, 110400, Note_on_c, 0, 65, 40
3, 110460, Note_on_c, 0, 65, 0
3, 110460, Note_on_c, 0, 77, 37
3, 110520, Note_on_c, 0, 77, 0
3, 110520, Note_on_c, 0, 73, 37
3, 110580, Note_on_c, 0, 73, 0
3, 110580, Note_on_c, 0, 77, 37
3, 110640, Note_on_c, 0, 77, 0
3, 110640, Note_on_c, 0, 68, 40
3, 110700, Note_on_c, 0, 68, 0
3, 110700, Note_on_c, 0, 77, 37
3, 110760, Note_on_c, 0, 77, 0
3, 110760, Note_on_c, 0, 73, 37
3, 110820, Note_on_c, 0, 73, 0
3, 110820, Note_on_c, 0, 77, 37
3, 110880, Note_on_c, 0, 77, 0
3, 110880, Note_on_c, 0, 66, 40
3, 110940, Note_on_c, 0, 66, 0
3, 110940, Note_on_c, 0, 75, 37
3, 111000, Note_on_c, 0, 75, 0
3, 111000, Note_on_c, 0, 72, 37
3, 111060, Note_on_c, 0, 72, 0
3, 111060, Note_on_c, 0, 75, 37
3, 111120, Note_on_c, 0, 75, 0
3, 111120, Note_on_c, 0, 65, 40
3, 111180, Note_on_c, 0, 65, 0
3, 111180, Note_on_c, 0, 73, 38
3, 111240, Note_on_c, 0, 73, 0
3, 111240, Note_on_c, 0, 68, 38
3, 111300, Note_on_c, 0, 68, 0
3, 111300, Note_on_c, 0, 73, 38
3, 111360, Note_on_c, 0, 73, 0
3, 111360, Note_on_c, 0, 72, 48
3, 111420, Note_on_c, 0, 72, 0
3, 111420, Note_on_c, 0, 78, 47
3, 111480, Note_on_c, 0, 78, 0
3, 111480, Note_on_c, 0, 75, 47
3, 111540, Note_on_c, 0, 75, 0
3, 111540, Note_on_c, 0, 78, 47
3, 111600, Note_on_c, 0, 78, 0
3, 111600, Note_on_c, 0, 80, 53
3, 111660, Note_on_c, 0, 80, 0
3, 111660, Note_on_c, 0, 78, 48
3, 111720, Note_on_c, 0, 78, 0
3, 111720, Note_on_c, 0, 75, 48
3, 111780, Note_on_c, 0, 75, 0
3, 111780, Note_on_c, 0, 78, 48
3, 111840, Note_on_c, 0, 78, 0
3, 111840, Note_on_c, 0, 80, 55
3, 111900, Note_on_c, 0, 80, 0
3, 111900, Note_on_c, 0, 78, 48
3, 111960, Note_on_c, 0, 78, 0
3, 111960, Note_on_c, 0, 75, 50
3, 112020, Note_on_c, 0, 75, 0
3, 112020, Note_on_c, 0, 78, 50
3, 112080, Note_on_c, 0, 78, 0
3, 112080, Note_on_c, 0, 80, 56
3, 112140, Note_on_c, 0, 80, 0
3, 112140, Note_on_c, 0, 78, 52
3, 112200, Note_on_c, 0, 78, 0
3, 112200, Note_on_c, 0, 75, 52
3, 112260, Note_on_c, 0, 75, 0
3, 112260, Note_on_c, 0, 78, 53
3, 112320, Note_on_c, 0, 78, 0
3, 112320, Note_on_c, 0, 77, 57
3, 112380, Note_on_c, 0, 77, 0
3, 112380, Note_on_c, 0, 80, 52
3, 112440, Note_on_c, 0, 80, 0
3, 112440, Note_on_c, 0, 77, 53
3, 112500, Note_on_c, 0, 77, 0
3, 112500, Note_on_c, 0, 80, 53
3, 112560, Note_on_c, 0, 80, 0
3, 112560, Note_on_c, 0, 85, 60
3, 112620, Note_on_c, 0, 85, 0
3, 112620, Note_on_c, 0, 80, 53
3, 112680, Note_on_c, 0, 80, 0
3, 112680, Note_on_c, 0, 85, 55
3, 112740, Note_on_c, 0, 85, 0
3, 112740, Note_on_c, 0, 80, 55
3, 112800, Note_on_c, 0, 80, 0
3, 112800, Note_on_c, 0, 84, 61
3, 112860, Note_on_c, 0, 84, 0
3, 112860, Note_on_c, 0, 78, 53
3, 112920, Note_on_c, 0, 78, 0
3, 112920, Note_on_c, 0, 84, 57
3, 112980, Note_on_c, 0, 84, 0
3, 112980, Note_on_c, 0, 78, 57
3, 113040, Note_on_c, 0, 78, 0
3, 113040, Note_on_c, 0, 77, 67
3, 113100, Note_on_c, 0, 77, 0
3, 113100, Note_on_c, 0, 80, 62
3, 113160, Note_on_c, 0, 80, 0
3, 113160, Note_on_c, 0, 77, 62
3, 113220, Note_on_c, 0, 77, 0
3, 113220, Note_on_c, 0, 80, 62
3, 113280, Note_on_c, 0, 80, 0
3, 113280, Note_on_c, 0, 82, 81
3, 113340, Note_on_c, 0, 82, 0
3, 113340, Note_on_c, 0, 78, 69
3, 113400, Note_on_c, 0, 78, 0
3, 113400, Note_on_c, 0, 82, 74
3, 113460, Note_on_c, 0, 82, 0
3, 113460, Note_on_c, 0, 80, 61
3, 113520, Note_on_c, 0, 80, 0
3, 113520, Note_on_c, 0, 78, 68
3, 113580, Note_on_c, 0, 78, 0
3, 113580, Note_on_c, 0, 77, 60
3, 113640, Note_on_c, 0, 77, 0
3, 113640, Note_on_c, 0, 75, 63
3, 113700, Note_on_c, 0, 75, 0
3, 113700, Note_on_c, 0, 73, 61
3, 113760, Note_on_c, 0, 73, 0
3, 113760, Note_on_c, 0, 72, 60
3, 113820, Note_on_c, 0, 72, 0
3, 113820, Note_on_c, 0, 70, 59
3, 113880, Note_on_c, 0, 70, 0
3, 113880, Note_on_c, 0, 68, 57
3, 113940, Note_on_c, 0, 68, 0
3, 113940, Note_on_c, 0, 66, 56
3, 114000, Note_on_c, 0, 66, 0
3, 114000, Note_on_c, 0, 65, 55
3, 114060, Note_on_c, 0, 65, 0
3, 114060, Note_on_c, 0, 63, 52
3, 114120, Note_on_c, 0, 63, 0
3, 114120, Note_on_c, 0, 61, 51
3, 114180, Note_on_c, 0, 61, 0
3, 114180, Note_on_c, 0, 60, 49
3, 114240, Note_on_c, 0, 60, 0
3, 114240, Note_on_c, 0, 61, 55
3, 114480, Note_on_c, 0, 61, 0
3, 115440, Note_on_c, 0, 54, 66
3, 115920, Note_on_c, 0, 54, 0
3, 115920, Note_on_c, 0, 66, 55
3, 115920, Note_on_c, 0, 68, 55
3, 115920, Note_on_c, 0, 75, 66
3, 116400, Note_on_c, 0, 75, 0
3, 116400, Note_on_c, 0, 68, 0
3, 116400, Note_on_c, 0, 66, 0
3, 116400, Note_on_c, 0, 65, 49
3, 116400, Note_on_c, 0, 68, 49
3, 116400, Note_on_c, 0, 73, 58
3, 116520, Note_on_c, 0, 73, 0
3, 116520, Note_on_c, 0, 68, 0
3, 116520, Note_on_c, 0, 65, 0
3, 116640, Note_on_c, 0, 63, 46
3, 116640, Note_on_c, 0, 68, 46
3, 116640, Note_on_c, 0, 72, 56
3, 116760, Note_on_c, 0, 72, 0
3, 116760, Note_on_c, 0, 68, 0
3, 116760, Note_on_c, 0, 63, 0
3, 116880, Note_on_c, 0, 61, 42
3, 116880, Note_on_c, 0, 68, 42
3, 116880, Note_on_c, 0, 73, 50
3, 117000, Note_on_c, 0, 73, 0
3, 117000, Note_on_c, 0, 68, 0
3, 117000, Note_on_c, 0, 61, 0
3, 117360, Note_on_c, 0, 54, 66
3, 117840, Note_on_c, 0, 54, 0
3, 117840, Note_on_c, 0, 72, 55
3, 117840, Note_on_c, 0, 75, 55
3, 117840, Note_on_c, 0, 78, 66
3, 118320, Note_on_c, 0, 78, 0
3, 118320, Note_on_c, 0, 75, 0
3, 118320, Note_on_c, 0, 72, 0
3, 118320, Note_on_c, 0, 68, 42
3, 118320, Note_on_c, 0, 73, 42
3, 118320, Note_on_c, 0, 77, 61
3, 118440, Note_on_c, 0, 77, 0
3, 118440, Note_on_c, 0, 73, 0
3, 118440, Note_on_c, 0, 68, 0
3, 118560, Note_on_c, 0, 66, 48
3, 118560, Note_on_c, 0, 72, 48
3, 118560, Note_on_c, 0, 75, 58
3, 118680, Note_on_c, 0, 75, 0
3, 118680, Note_on_c, 0, 72, 0
3, 118680, Note_on_c, 0, 66, 0
3, 118800, Note_on_c, 0, 65, 45
3, 118800, Note_on_c, 0, 68, 45
3, 118800, Note_on_c, 0, 73, 53
3, 118920, Note_on_c, 0, 73, 0
3, 118920, Note_on_c, 0, 68, 0
3, 118920, Note_on_c, 0, 65, 0
3, 119280, Note_on_c, 0, 66, 74
3, 119280, Note_on_c, 0, 72, 74
3, 119280, Note_on_c, 0, 75, 74
3, 119760, Note_on_c, 0, 75, 0
3, 119760, Note_on_c, 0, 72, 0
3, 119760, Note_on_c, 0, 66, 0
3, 119760, Note_on_c, 0, 75, 68
3, 119760, Note_on_c, 0, 78, 68
3, 119760, Note_on_c, 0, 80, 81
3, 120240, Note_on_c, 0, 80, 0
3, 120240, Note_on_c, 0, 78, 0
3, 120240, Note_on_c, 0, 75, 0
3, 120240, Note_on_c, 0, 73, 52
3, 120240, Note_on_c, 0, 77, 52
3, 120240, Note_on_c, 0, 80, 75
3, 120360, Note_on_c, 0, 80, 0
3, 120360, Note_on_c, 0, 77, 0
3, 120360, Note_on_c, 0, 73, 0
3, 120480, Note_on_c, 0, 72, 61
3, 120480, Note_on_c, 0, 66, 61
3, 120480, Note_on_c, 0, 75, 61
3, 120480, Note_on_c, 0, 78, 74
3, 120600, Note_on_c, 0, 78, 0
3, 120600, Note_on_c, 0, 72, 0
3, 120600, Note_on_c, 0, 66, 0
3, 120600, Note_on_c, 0, 75, 0
3, 120720, Note_on_c, 0, 68, 60
3, 120720, Note_on_c, 0, 65, 60
3, 120720, Note_on_c, 0, 73, 60
3, 120720, Note_on_c, 0, 77, 72
3, 120840, Note_on_c, 0, 77, 0
3, 120840, Note_on_c, 0, 68, 0
3, 120840, Note_on_c, 0, 65, 0
3, 120840, Note_on_c, 0, 73, 0
3, 121200, Note_on_c, 0, 63, 68
3, 121200, Note_on_c, 0, 66, 68
3, 121200, Note_on_c, 0, 70, 68
3, 121200, Note_on_c, 0, 73, 81
3, 121320, Note_on_c, 0, 73, 0
3, 121320, Note_on_c, 0, 63, 0
3, 121320, Note_on_c, 0, 66, 0
3, 121320, Note_on_c, 0, 70, 0
3, 121680, Note_on_c, 0, 56, 69
3, 121680, Note_on_c, 0, 60, 69
3, 121680, Note_on_c, 0, 63, 69
3, 121680, Note_on_c, 0, 66, 82
3, 121800, Note_on_c, 0, 66, 0
3, 121800, Note_on_c, 0, 56, 0
3, 121800, Note_on_c, 0, 60, 0
3, 121800, Note_on_c, 0, 63, 0
3, 122400, Note_on_c, 0, 58, 54
3, 122460, Note_on_c, 0, 58, 0
3, 122460, Note_on_c, 0, 56, 53
3, 122520, Note_on_c, 0, 56, 0
3, 122520, Note_on_c, 0, 54, 51
3, 122580, Note_on_c, 0, 54, 0
3, 122580, Note_on_c, 0, 53, 50
3, 122640, Note_on_c, 0, 53, 0
3, 122640, Note_on_c, 0, 51, 48
3, 122700, Note_on_c, 0, 51, 0
3, 122700, Note_on_c, 0, 49, 47
3, 122760, Note_on_c, 0, 49, 0
3, 122760, Note_on_c, 0, 44, 45
3, 122820, Note_on_c, 0, 44, 0
3, 122820, Note_on_c, 0, 41, 44
3, 122880, Note_on_c, 0, 41, 0
3, 122880, Note_on_c, 0, 37, 47
3, 123360, Note_on_c, 0, 37, 0
3, 123360, Note_on_c, 0, 30, 35
3, 123840, Note_on_c, 0, 30, 0
3, 123840, Note_on_c, 0, 37, 37
3, 124560, Note_on_c, 0, 37, 0
3, 124560, Note_on_c, 0, 54, 35
3, 124800, Note_on_c, 0, 54, 0
3, 124800, Note_on_c, 0, 56, 40
3, 125400, Note_on_c, 0, 56, 0
3, 125400, Note_on_c, 0, 54, 38
3, 125520, Note_on_c, 0, 54, 0
3, 125520, Note_on_c, 0, 53, 38
3, 125640, Note_on_c, 0, 53, 0
3, 125640, Note_on_c, 0, 51, 38
3, 125760, Note_on_c, 0, 51, 0
3, 125760, Note_on_c, 0, 49, 40
3, 125880, Note_on_c, 0, 49, 0
3, 125880, Note_on_c, 0, 46, 37
3, 126000, Note_on_c, 0, 46, 0
3, 126000, Note_on_c, 0, 44, 37
3, 126120, Note_on_c, 0, 44, 0
3, 126120, Note_on_c, 0, 42, 37
3, 126240, Note_on_c, 0, 42, 0
3, 126240, Note_on_c, 0, 41, 40
3, 126360, Note_on_c, 0, 41, 0
3, 126360, Note_on_c, 0, 44, 38
3, 126480, Note_on_c, 0, 44, 0
3, 126480, Note_on_c, 0, 42, 38
3, 126600, Note_on_c, 0, 42, 0
3, 126600, Note_on_c, 0, 39, 38
3, 126720, Note_on_c, 0, 39, 0
3, 126720, Note_on_c, 0, 37, 39
3, 126720, Note_on_c, 0, 49, 46
3, 127200, Note_on_c, 0, 49, 0
3, 127200, Note_on_c, 0, 37, 0
3, 127200, Note_on_c, 0, 30, 40
3, 127200, Note_on_c, 0, 42, 48
3, 127680, Note_on_c, 0, 42, 0
3, 127680, Note_on_c, 0, 30, 0
3, 127680, Note_on_c, 0, 37, 27
3, 127680, Note_on_c, 0, 49, 32
3, 128400, Note_on_c, 0, 49, 0
3, 128400, Note_on_c, 0, 37, 0
3, 128400, Note_on_c, 0, 57, 36
3, 128640, Note_on_c, 0, 57, 0
3, 128640, Note_on_c, 0, 56, 37
3, 129240, Note_on_c, 0, 56, 0
3, 129240, Note_on_c, 0, 54, 37
3, 129360, Note_on_c, 0, 54, 0
3, 129360, Note_on_c, 0, 51, 37
3, 129480, Note_on_c, 0, 51, 0
3, 129480, Note_on_c, 0, 48, 37
3, 129600, Note_on_c, 0, 48, 0
3, 129600, Note_on_c, 0, 44, 40
3, 129720, Note_on_c, 0, 44, 0
3, 129720, Note_on_c, 0, 41, 37
3, 129840, Note_on_c, 0, 41, 0
3, 129840, Note_on_c, 0, 39, 37
3, 129960, Note_on_c, 0, 39, 0
3, 129960, Note_on_c, 0, 37, 37
3, 130080, Note_on_c, 0, 37, 0
3, 130080, Note_on_c, 0, 36, 40
3, 130200, Note_on_c, 0, 36, 0
3, 130200, Note_on_c, 0, 37, 37
3, 130320, Note_on_c, 0, 37, 0
3, 130320, Note_on_c, 0, 41, 37
3, 130440, Note_on_c, 0, 41, 0
3, 130440, Note_on_c, 0, 37, 37
3, 130560, Note_on_c, 0, 37, 0
3, 130560, Note_on_c, 0, 42, 40
3, 130560, Note_on_c, 0, 44, 40
3, 131040, Note_on_c, 0, 44, 0
3, 131040, Note_on_c, 0, 42, 0
3, 131040, Note_on_c, 0, 39, 35
3, 131040, Note_on_c, 0, 44, 35
3, 131460, Note_on_c, 0, 44, 0
3, 131460, Note_on_c, 0, 39, 0
3, 131460, Note_on_c, 0, 42, 35
3, 131460, Note_on_c, 0, 44, 35
3, 131520, Note_on_c, 0, 44, 0
3, 131520, Note_on_c, 0, 42, 0
3, 131520, Note_on_c, 0, 41, 33
3, 131520, Note_on_c, 0, 44, 39
3, 131880, Note_on_c, 0, 44, 0
3, 131880, Note_on_c, 0, 41, 0
3, 131880, Note_on_c, 0, 61, 46
3, 132000, Note_on_c, 0, 61, 0
3, 132000, Note_on_c, 0, 63, 44
3, 132240, Note_on_c, 0, 63, 0
3, 132240, Note_on_c, 0, 61, 34
3, 132480, Note_on_c, 0, 61, 0
3, 132480, Note_on_c, 0, 42, 40
3, 132480, Note_on_c, 0, 44, 40
3, 132960, Note_on_c, 0, 44, 0
3, 132960, Note_on_c, 0, 42, 0
3, 132960, Note_on_c, 0, 39, 35
3, 132960, Note_on_c, 0, 44, 35
3, 133380, Note_on_c, 0, 44, 0
3, 133380, Note_on_c, 0, 39, 0
3, 133380, Note_on_c, 0, 42, 35
3, 133380, Note_on_c, 0, 44, 35
3, 133440, Note_on_c, 0, 44, 0
3, 133440, Note_on_c, 0, 42, 0
3, 133440, Note_on_c, 0, 41, 33
3, 133440, Note_on_c, 0, 44, 39
3, 133800, Note_on_c, 0, 44, 0
3, 133800, Note_on_c, 0, 41, 0
3, 133800, Note_on_c, 0, 61, 46
3, 133920, Note_on_c, 0, 61, 0
3, 133920, Note_on_c, 0, 60, 44
3, 134160, Note_on_c, 0, 60, 0
3, 134160, Note_on_c, 0, 61, 34
3, 134400, Note_on_c, 0, 61, 0
3, 134400, Note_on_c, 0, 42, 56
3, 134400, Note_on_c, 0, 44, 56
3, 134880, Note_on_c, 0, 44, 0
3, 134880, Note_on_c, 0, 42, 0
3, 134880, Note_on_c, 0, 39, 57
3, 134880, Note_on_c, 0, 44, 57
3, 135300, Note_on_c, 0, 44, 0
3, 135300, Note_on_c, 0, 39, 0
3, 135300, Note_on_c, 0, 42, 62
3, 135300, Note_on_c, 0, 44, 62
3, 135360, Note_on_c, 0, 44, 0
3, 135360, Note_on_c, 0, 42, 0
3, 135360, Note_on_c, 0, 65, 82
3, 135720, Note_on_c, 0, 65, 0
3, 135720, Note_on_c, 0, 61, 56
3, 135720, Note_on_c, 0, 65, 63
3, 135840, Note_on_c, 0, 65, 0
3, 135840, Note_on_c, 0, 61, 0
3, 135840, Note_on_c, 0, 63, 59
3, 135840, Note_on_c, 0, 66, 71
3, 136080, Note_on_c, 0, 66, 0
3, 136080, Note_on_c, 0, 63, 0
3, 136080, Note_on_c, 0, 65, 47
3, 136080, Note_on_c, 0, 68, 53
3, 136200, Note_on_c, 0, 68, 0
3, 136200, Note_on_c, 0, 65, 0
3, 136200, Note_on_c, 0, 61, 37
3, 136200, Note_on_c, 0, 65, 50
3, 136320, Note_on_c, 0, 65, 0
3, 136320, Note_on_c, 0, 61, 0
3, 136320, Note_on_c, 0, 54, 37
3, 136320, Note_on_c, 0, 58, 37
3, 136800, Note_on_c, 0, 58, 0
3, 136800, Note_on_c, 0, 54, 0
3, 136800, Note_on_c, 0, 60, 34
3, 136800, Note_on_c, 0, 56, 34
3, 137280, Note_on_c, 0, 56, 0
3, 137280, Note_on_c, 0, 60, 0
3, 137280, Note_on_c, 0, 46, 27
3, 137340, Note_on_c, 0, 49, 28
3, 137400, Note_on_c, 0, 52, 30
3, 137460, Note_on_c, 0, 55, 31
3, 137520, Note_on_c, 0, 58, 34
3, 138240, Note_on_c, 0, 58, 0
3, 138240, Note_on_c, 0, 52, 0
3, 138240, Note_on_c, 0, 46, 0
3, 138240, Note_on_c, 0, 49, 0
3, 138240, Note_on_c, 0, 55, 0
3, 138240, Note_on_c, 0, 58, 74
3, 138300, Note_on_c, 0, 61, 79
3, 138360, Note_on_c, 0, 64, 82
3, 138420, Note_on_c, 0, 67, 86
3, 138480, Note_on_c, 0, 70, 90
3, 139200, Note_on_c, 0, 70, 0
3, 139200, Note_on_c, 0, 64, 0
3, 139200, Note_on_c, 0, 58, 0
3, 139200, Note_on_c, 0, 61, 0
3, 139200, Note_on_c, 0, 67, 0
3, 139200, End_track
4, 0, Start_track
4, 0, Title_t, "Pedal"
4, 0, Control_c, 0, 64, 127
4, 494, Control_c, 0, 64, 0
4, 800, Control_c, 0, 64, 127
4, 974, Control_c, 0, 64, 0
4, 1112, Control_c, 0, 64, 127
4, 1693, Control_c, 0, 64, 0
4, 1991, Control_c, 0, 64, 127
4, 2414, Control_c, 0, 64, 0
4, 2485, Control_c, 0, 64, 127
4, 2891, Control_c, 0, 64, 0
4, 2979, Control_c, 0, 64, 127
4, 3374, Control_c, 0, 64, 0
4, 3452, Control_c, 0, 64, 127
4, 3614, Control_c, 0, 64, 0
4, 3688, Control_c, 0, 64, 127
4, 3852, Control_c, 0, 64, 0
4, 4027, Control_c, 0, 64, 127
4, 4337, Control_c, 0, 64, 0
4, 4560, Control_c, 0, 64, 127
4, 4817, Control_c, 0, 64, 0
4, 4915, Control_c, 0, 64, 127
4, 5530, Control_c, 0, 64, 0
4, 5920, Control_c, 0, 64, 127
4, 6258, Control_c, 0, 64, 0
4, 6480, Control_c, 0, 64, 127
4, 6733, Control_c, 0, 64, 0
4, 6780, Control_c, 0, 64, 127
4, 6974, Control_c, 0, 64, 0
4, 7013, Control_c, 0, 64, 127
4, 7211, Control_c, 0, 64, 0
4, 7253, Control_c, 0, 64, 127
4, 7472, Control_c, 0, 64, 0
4, 7680, Control_c, 0, 64, 127
4, 8174, Control_c, 0, 64, 0
4, 8480, Control_c, 0, 64, 127
4, 8654, Control_c, 0, 64, 0
4, 8792, Control_c, 0, 64, 127
4, 9373, Control_c, 0, 64, 0
4, 9671, Control_c, 0, 64, 127
4, 10094, Control_c, 0, 64, 0
4, 10165, Control_c, 0, 64, 127
4, 10571, Control_c, 0, 64, 0
4, 10659, Control_c, 0, 64, 127
4, 11054, Control_c, 0, 64, 0
4, 11132, Control_c, 0, 64, 127
4, 11294, Control_c, 0, 64, 0
4, 11368, Control_c, 0, 64, 127
4, 11532, Control_c, 0, 64, 0
4, 11707, Control_c, 0, 64, 127
4, 12017, Control_c, 0, 64, 0
4, 12240, Control_c, 0, 64, 127
4, 12497, Control_c, 0, 64, 0
4, 12595, Control_c, 0, 64, 127
4, 13210, Control_c, 0, 64, 0
4, 13600, Control_c, 0, 64, 127
4, 13938, Control_c, 0, 64, 0
4, 14160, Control_c, 0, 64, 127
4, 14413, Control_c, 0, 64, 0
4, 14460, Control_c, 0, 64, 127
4, 14654, Control_c, 0, 64, 0
4, 14693, Control_c, 0, 64, 127
4, 14891, Control_c, 0, 64, 0
4, 14933, Control_c, 0, 64, 127
4, 15152, Control_c, 0, 64, 0
4, 15360, Control_c, 0, 64, 127
4, 15855, Control_c, 0, 64, 0
4, 16004, Control_c, 0, 64, 127
4, 16339, Control_c, 0, 64, 0
4, 16447, Control_c, 0, 64, 127
4, 16817, Control_c, 0, 64, 0
4, 16906, Control_c, 0, 64, 127
4, 17056, Control_c, 0, 64, 0
4, 17132, Control_c, 0, 64, 127
4, 17291, Control_c, 0, 64, 0
4, 17356, Control_c, 0, 64, 127
4, 17779, Control_c, 0, 64, 0
4, 17864, Control_c, 0, 64, 127
4, 18251, Control_c, 0, 64, 0
4, 18304, Control_c, 0, 64, 127
4, 18736, Control_c, 0, 64, 0
4, 18819, Control_c, 0, 64, 127
4, 18974, Control_c, 0, 64, 0
4, 19059, Control_c, 0, 64, 127
4, 19215, Control_c, 0, 64, 0
4, 19260, Control_c, 0, 64, 127
4, 19699, Control_c, 0, 64, 0
4, 19800, Control_c, 0, 64, 127
4, 20171, Control_c, 0, 64, 0
4, 20259, Control_c, 0, 64, 127
4, 20654, Control_c, 0, 64, 0
4, 20746, Control_c, 0, 64, 127
4, 20896, Control_c, 0, 64, 0
4, 20972, Control_c, 0, 64, 127
4, 21130, Control_c, 0, 64, 0
4, 21360, Control_c, 0, 64, 127
4, 21619, Control_c, 0, 64, 0
4, 21840, Control_c, 0, 64, 127
4, 22097, Control_c, 0, 64, 0
4, 22126, Control_c, 0, 64, 127
4, 22335, Control_c, 0, 64, 0
4, 22370, Control_c, 0, 64, 127
4, 22577, Control_c, 0, 64, 0
4, 22617, Control_c, 0, 64, 127
4, 22839, Control_c, 0, 64, 0
4, 23040, Control_c, 0, 64, 127
4, 23535, Control_c, 0, 64, 0
4, 23684, Control_c, 0, 64, 127
4, 24019, Control_c, 0, 64, 0
4, 24127, Control_c, 0, 64, 127
4, 24497, Control_c, 0, 64, 0
4, 24586, Control_c, 0, 64, 127
4, 24736, Control_c, 0, 64, 0
4, 24812, Control_c, 0, 64, 127
4, 24971, Control_c, 0, 64, 0
4, 25036, Control_c, 0, 64, 127
4, 25459, Control_c, 0, 64, 0
4, 25544, Control_c, 0, 64, 127
4, 25931, Control_c, 0, 64, 0
4, 25984, Control_c, 0, 64, 127
4, 26416, Control_c, 0, 64, 0
4, 26499, Control_c, 0, 64, 127
4, 26654, Control_c, 0, 64, 0
4, 26739, Control_c, 0, 64, 127
4, 26895, Control_c, 0, 64, 0
4, 26940, Control_c, 0, 64, 127
4, 27379, Control_c, 0, 64, 0
4, 27480, Control_c, 0, 64, 127
4, 27851, Control_c, 0, 64, 0
4, 27939, Control_c, 0, 64, 127
4, 28334, Control_c, 0, 64, 0
4, 28426, Control_c, 0, 64, 127
4, 28576, Control_c, 0, 64, 0
4, 28652, Control_c, 0, 64, 127
4, 28810, Control_c, 0, 64, 0
4, 29040, Control_c, 0, 64, 127
4, 29299, Control_c, 0, 64, 0
4, 29520, Control_c, 0, 64, 127
4, 29777, Control_c, 0, 64, 0
4, 29806, Control_c, 0, 64, 127
4, 30015, Control_c, 0, 64, 0
4, 30050, Control_c, 0, 64, 127
4, 30257, Control_c, 0, 64, 0
4, 30297, Control_c, 0, 64, 127
4, 30519, Control_c, 0, 64, 0
4, 30720, Control_c, 0, 64, 127
4, 31216, Control_c, 0, 64, 0
4, 31370, Control_c, 0, 64, 127
4, 31689, Control_c, 0, 64, 0
4, 31806, Control_c, 0, 64, 127
4, 32179, Control_c, 0, 64, 0
4, 32343, Control_c, 0, 64, 127
4, 32655, Control_c, 0, 64, 0
4, 32800, Control_c, 0, 64, 127
4, 33138, Control_c, 0, 64, 0
4, 33257, Control_c, 0, 64, 127
4, 33611, Control_c, 0, 64, 0
4, 33667, Control_c, 0, 64, 127
4, 34099, Control_c, 0, 64, 0
4, 34147, Control_c, 0, 64, 127
4, 34333, Control_c, 0, 64, 0
4, 34387, Control_c, 0, 64, 127
4, 34567, Control_c, 0, 64, 0
4, 34730, Control_c, 0, 64, 127
4, 35056, Control_c, 0, 64, 0
4, 35210, Control_c, 0, 64, 127
4, 35529, Control_c, 0, 64, 0
4, 35646, Control_c, 0, 64, 127
4, 36019, Control_c, 0, 64, 0
4, 36183, Control_c, 0, 64, 127
4, 36495, Control_c, 0, 64, 0
4, 36640, Control_c, 0, 64, 127
4, 36978, Control_c, 0, 64, 0
4, 37097, Control_c, 0, 64, 127
4, 37451, Control_c, 0, 64, 0
4, 37507, Control_c, 0, 64, 127
4, 37939, Control_c, 0, 64, 0
4, 37987, Control_c, 0, 64, 127
4, 38173, Control_c, 0, 64, 0
4, 38227, Control_c, 0, 64, 127
4, 38407, Control_c, 0, 64, 0
4, 38541, Control_c, 0, 64, 127
4, 38896, Control_c, 0, 64, 0
4, 39050, Control_c, 0, 64, 127
4, 39369, Control_c, 0, 64, 0
4, 39486, Control_c, 0, 64, 127
4, 39859, Control_c, 0, 64, 0
4, 40023, Control_c, 0, 64, 127
4, 40335, Control_c, 0, 64, 0
4, 40480, Control_c, 0, 64, 127
4, 40818, Control_c, 0, 64, 0
4, 40937, Control_c, 0, 64, 127
4, 41291, Control_c, 0, 64, 0
4, 41347, Control_c, 0, 64, 127
4, 41779, Control_c, 0, 64, 0
4, 41827, Control_c, 0, 64, 127
4, 42013, Control_c, 0, 64, 0
4, 42067, Control_c, 0, 64, 127
4, 42247, Control_c, 0, 64, 0
4, 42410, Control_c, 0, 64, 127
4, 42736, Control_c, 0, 64, 0
4, 42890, Control_c, 0, 64, 127
4, 43209, Control_c, 0, 64, 0
4, 43326, Control_c, 0, 64, 127
4, 43699, Control_c, 0, 64, 0
4, 43863, Control_c, 0, 64, 127
4, 44175, Control_c, 0, 64, 0
4, 44320, Control_c, 0, 64, 127
4, 44658, Control_c, 0, 64, 0
4, 44777, Control_c, 0, 64, 127
4, 45131, Control_c, 0, 64, 0
4, 45187, Control_c, 0, 64, 127
4, 45619, Control_c, 0, 64, 0
4, 45667, Control_c, 0, 64, 127
4, 45853, Control_c, 0, 64, 0
4, 45907, Control_c, 0, 64, 127
4, 46087, Control_c, 0, 64, 0
4, 46221, Control_c, 0, 64, 127
4, 46577, Control_c, 0, 64, 0
4, 46758, Control_c, 0, 64, 127
4, 47056, Control_c, 0, 64, 0
4, 47160, Control_c, 0, 64, 127
4, 47538, Control_c, 0, 64, 0
4, 47647, Control_c, 0, 64, 127
4, 47775, Control_c, 0, 64, 0
4, 47838, Control_c, 0, 64, 127
4, 48023, Control_c, 0, 64, 0
4, 48190, Control_c, 0, 64, 127
4, 48499, Control_c, 0, 64, 0
4, 48682, Control_c, 0, 64, 127
4, 48978, Control_c, 0, 64, 0
4, 49036, Control_c, 0, 64, 127
4, 49458, Control_c, 0, 64, 0
4, 49535, Control_c, 0, 64, 127
4, 49698, Control_c, 0, 64, 0
4, 49762, Control_c, 0, 64, 127
4, 49938, Control_c, 0, 64, 0
4, 50090, Control_c, 0, 64, 127
4, 50414, Control_c, 0, 64, 0
4, 50541, Control_c, 0, 64, 127
4, 50891, Control_c, 0, 64, 0
4, 50965, Control_c, 0, 64, 127
4, 51379, Control_c, 0, 64, 0
4, 51452, Control_c, 0, 64, 127
4, 51616, Control_c, 0, 64, 0
4, 51685, Control_c, 0, 64, 127
4, 51851, Control_c, 0, 64, 0
4, 52024, Control_c, 0, 64, 127
4, 52339, Control_c, 0, 64, 0
4, 52490, Control_c, 0, 64, 127
4, 52813, Control_c, 0, 64, 0
4, 52860, Control_c, 0, 64, 127
4, 53298, Control_c, 0, 64, 0
4, 53358, Control_c, 0, 64, 127
4, 53535, Control_c, 0, 64, 0
4, 53584, Control_c, 0, 64, 127
4, 53768, Control_c, 0, 64, 0
4, 53901, Control_c, 0, 64, 127
4, 54257, Control_c, 0, 64, 0
4, 54438, Control_c, 0, 64, 127
4, 54736, Control_c, 0, 64, 0
4, 54840, Control_c, 0, 64, 127
4, 55218, Control_c, 0, 64, 0
4, 55327, Control_c, 0, 64, 127
4, 55455, Control_c, 0, 64, 0
4, 55518, Control_c, 0, 64, 127
4, 55703, Control_c, 0, 64, 0
4, 55870, Control_c, 0, 64, 127
4, 56179, Control_c, 0, 64, 0
4, 56362, Control_c, 0, 64, 127
4, 56658, Control_c, 0, 64, 0
4, 56716, Control_c, 0, 64, 127
4, 57138, Control_c, 0, 64, 0
4, 57215, Control_c, 0, 64, 127
4, 57378, Control_c, 0, 64, 0
4, 57442, Control_c, 0, 64, 127
4, 57618, Control_c, 0, 64, 0
4, 57770, Control_c, 0, 64, 127
4, 58094, Control_c, 0, 64, 0
4, 58221, Control_c, 0, 64, 127
4, 58571, Control_c, 0, 64, 0
4, 58645, Control_c, 0, 64, 127
4, 59059, Control_c, 0, 64, 0
4, 59132, Control_c, 0, 64, 127
4, 59296, Control_c, 0, 64, 0
4, 59365, Control_c, 0, 64, 127
4, 59531, Control_c, 0, 64, 0
4, 59704, Control_c, 0, 64, 127
4, 60019, Control_c, 0, 64, 0
4, 60170, Control_c, 0, 64, 127
4, 60493, Control_c, 0, 64, 0
4, 60540, Control_c, 0, 64, 127
4, 60978, Control_c, 0, 64, 0
4, 61038, Control_c, 0, 64, 127
4, 61215, Control_c, 0, 64, 0
4, 61264, Control_c, 0, 64, 127
4, 61448, Control_c, 0, 64, 0
4, 61525, Control_c, 0, 64, 127
4, 61935, Control_c, 0, 64, 0
4, 62033, Control_c, 0, 64, 127
4, 62415, Control_c, 0, 64, 0
4, 62501, Control_c, 0, 64, 127
4, 63136, Control_c, 0, 64, 0
4, 63209, Control_c, 0, 64, 127
4, 63377, Control_c, 0, 64, 0
4, 63466, Control_c, 0, 64, 127
4, 63854, Control_c, 0, 64, 0
4, 63953, Control_c, 0, 64, 127
4, 64330, Control_c, 0, 64, 0
4, 64405, Control_c, 0, 64, 127
4, 64814, Control_c, 0, 64, 0
4, 64885, Control_c, 0, 64, 127
4, 65054, Control_c, 0, 64, 0
4, 65125, Control_c, 0, 64, 127
4, 65291, Control_c, 0, 64, 0
4, 65358, Control_c, 0, 64, 127
4, 65775, Control_c, 0, 64, 0
4, 65859, Control_c, 0, 64, 127
4, 66256, Control_c, 0, 64, 0
4, 66320, Control_c, 0, 64, 127
4, 66977, Control_c, 0, 64, 0
4, 67075, Control_c, 0, 64, 127
4, 67217, Control_c, 0, 64, 0
4, 67292, Control_c, 0, 64, 127
4, 67691, Control_c, 0, 64, 0
4, 67765, Control_c, 0, 64, 127
4, 68174, Control_c, 0, 64, 0
4, 68266, Control_c, 0, 64, 127
4, 68658, Control_c, 0, 64, 0
4, 68739, Control_c, 0, 64, 127
4, 69137, Control_c, 0, 64, 0
4, 69205, Control_c, 0, 64, 127
4, 69616, Control_c, 0, 64, 0
4, 69714, Control_c, 0, 64, 127
4, 70096, Control_c, 0, 64, 0
4, 70182, Control_c, 0, 64, 127
4, 70817, Control_c, 0, 64, 0
4, 70889, Control_c, 0, 64, 127
4, 71058, Control_c, 0, 64, 0
4, 71147, Control_c, 0, 64, 127
4, 71535, Control_c, 0, 64, 0
4, 71634, Control_c, 0, 64, 127
4, 72011, Control_c, 0, 64, 0
4, 72085, Control_c, 0, 64, 127
4, 72495, Control_c, 0, 64, 0
4, 72565, Control_c, 0, 64, 127
4, 72735, Control_c, 0, 64, 0
4, 72805, Control_c, 0, 64, 127
4, 72972, Control_c, 0, 64, 0
4, 73038, Control_c, 0, 64, 127
4, 73456, Control_c, 0, 64, 0
4, 73540, Control_c, 0, 64, 127
4, 73937, Control_c, 0, 64, 0
4, 74001, Control_c, 0, 64, 127
4, 74658, Control_c, 0, 64, 0
4, 74755, Control_c, 0, 64, 127
4, 74898, Control_c, 0, 64, 0
4, 74973, Control_c, 0, 64, 127
4, 75372, Control_c, 0, 64, 0
4, 75445, Control_c, 0, 64, 127
4, 75855, Control_c, 0, 64, 0
4, 75947, Control_c, 0, 64, 127
4, 76339, Control_c, 0, 64, 0
4, 76420, Control_c, 0, 64, 127
4, 76818, Control_c, 0, 64, 0
4, 76885, Control_c, 0, 64, 127
4, 77297, Control_c, 0, 64, 0
4, 77379, Control_c, 0, 64, 127
4, 77772, Control_c, 0, 64, 0
4, 77831, Control_c, 0, 64, 127
4, 78250, Control_c, 0, 64, 0
4, 78332, Control_c, 0, 64, 127
4, 78490, Control_c, 0, 64, 0
4, 78565, Control_c, 0, 64, 127
4, 78738, Control_c, 0, 64, 0
4, 78833, Control_c, 0, 64, 127
4, 79218, Control_c, 0, 64, 0
4, 79299, Control_c, 0, 64, 127
4, 79697, Control_c, 0, 64, 0
4, 79737, Control_c, 0, 64, 127
4, 80178, Control_c, 0, 64, 0
4, 80252, Control_c, 0, 64, 127
4, 80413, Control_c, 0, 64, 0
4, 80471, Control_c, 0, 64, 127
4, 80658, Control_c, 0, 64, 0
4, 80711, Control_c, 0, 64, 127
4, 81138, Control_c, 0, 64, 0
4, 81219, Control_c, 0, 64, 127
4, 81615, Control_c, 0, 64, 0
4, 81685, Control_c, 0, 64, 127
4, 82094, Control_c, 0, 64, 0
4, 82165, Control_c, 0, 64, 127
4, 82336, Control_c, 0, 64, 0
4, 82433, Control_c, 0, 64, 127
4, 82572, Control_c, 0, 64, 0
4, 82652, Control_c, 0, 64, 127
4, 83053, Control_c, 0, 64, 0
4, 83146, Control_c, 0, 64, 127
4, 83535, Control_c, 0, 64, 0
4, 83598, Control_c, 0, 64, 127
4, 84013, Control_c, 0, 64, 0
4, 84099, Control_c, 0, 64, 127
4, 84255, Control_c, 0, 64, 0
4, 84318, Control_c, 0, 64, 127
4, 84489, Control_c, 0, 64, 0
4, 84565, Control_c, 0, 64, 127
4, 84978, Control_c, 0, 64, 0
4, 85060, Control_c, 0, 64, 127
4, 85453, Control_c, 0, 64, 0
4, 85511, Control_c, 0, 64, 127
4, 85931, Control_c, 0, 64, 0
4, 86013, Control_c, 0, 64, 127
4, 86171, Control_c, 0, 64, 0
4, 86245, Control_c, 0, 64, 127
4, 86419, Control_c, 0, 64, 0
4, 86514, Control_c, 0, 64, 127
4, 86899, Control_c, 0, 64, 0
4, 86980, Control_c, 0, 64, 127
4, 87378, Control_c, 0, 64, 0
4, 87417, Control_c, 0, 64, 127
4, 87859, Control_c, 0, 64, 0
4, 87933, Control_c, 0, 64, 127
4, 88094, Control_c, 0, 64, 0
4, 88151, Control_c, 0, 64, 127
4, 88339, Control_c, 0, 64, 0
4, 88391, Control_c, 0, 64, 127
4, 88819, Control_c, 0, 64, 0
4, 88900, Control_c, 0, 64, 127
4, 89296, Control_c, 0, 64, 0
4, 89365, Control_c, 0, 64, 127
4, 89775, Control_c, 0, 64, 0
4, 89845, Control_c, 0, 64, 127
4, 90017, Control_c, 0, 64, 0
4, 90114, Control_c, 0, 64, 127
4, 90253, Control_c, 0, 64, 0
4, 90333, Control_c, 0, 64, 127
4, 90734, Control_c, 0, 64, 0
4, 90827, Control_c, 0, 64, 127
4, 91216, Control_c, 0, 64, 0
4, 91278, Control_c, 0, 64, 127
4, 91694, Control_c, 0, 64, 0
4, 91780, Control_c, 0, 64, 127
4, 91936, Control_c, 0, 64, 0
4, 91998, Control_c, 0, 64, 127
4, 92170, Control_c, 0, 64, 0
4, 92220, Control_c, 0, 64, 127
4, 92650, Control_c, 0, 64, 0
4, 92707, Control_c, 0, 64, 127
4, 93134, Control_c, 0, 64, 0
4, 93170, Control_c, 0, 64, 127
4, 93617, Control_c, 0, 64, 0
4, 93664, Control_c, 0, 64, 127
4, 93849, Control_c, 0, 64, 0
4, 93886, Control_c, 0, 64, 127
4, 94091, Control_c, 0, 64, 0
4, 94126, Control_c, 0, 64, 127
4, 94581, Control_c, 0, 64, 0
4, 94613, Control_c, 0, 64, 127
4, 95043, Control_c, 0, 64, 0
4, 95083, Control_c, 0, 64, 127
4, 95292, Control_c, 0, 64, 0
4, 95340, Control_c, 0, 64, 127
4, 95534, Control_c, 0, 64, 0
4, 95577, Control_c, 0, 64, 127
4, 95765, Control_c, 0, 64, 0
4, 95806, Control_c, 0, 64, 127
4, 96013, Control_c, 0, 64, 0
4, 96036, Control_c, 0, 64, 127
4, 96497, Control_c, 0, 64, 0
4, 96537, Control_c, 0, 64, 127
4, 96973, Control_c, 0, 64, 0
4, 97000, Control_c, 0, 64, 127
4, 97453, Control_c, 0, 64, 0
4, 97486, Control_c, 0, 64, 127
4, 97689, Control_c, 0, 64, 0
4, 97715, Control_c, 0, 64, 127
4, 97935, Control_c, 0, 64, 0
4, 97963, Control_c, 0, 64, 127
4, 98415, Control_c, 0, 64, 0
4, 98449, Control_c, 0, 64, 127
4, 98889, Control_c, 0, 64, 0
4, 98944, Control_c, 0, 64, 127
4, 99374, Control_c, 0, 64, 0
4, 99424, Control_c, 0, 64, 127
4, 99851, Control_c, 0, 64, 0
4, 99880, Control_c, 0, 64, 127
4, 100088, Control_c, 0, 64, 0
4, 100132, Control_c, 0, 64, 127
4, 100572, Control_c, 0, 64, 0
4, 100615, Control_c, 0, 64, 127
4, 101053, Control_c, 0, 64, 0
4, 101089, Control_c, 0, 64, 127
4, 101532, Control_c, 0, 64, 0
4, 101580, Control_c, 0, 64, 127
4, 101774, Control_c, 0, 64, 0
4, 101815, Control_c, 0, 64, 127
4, 102252, Control_c, 0, 64, 0
4, 102289, Control_c, 0, 64, 127
4, 102732, Control_c, 0, 64, 0
4, 102766, Control_c, 0, 64, 127
4, 103213, Control_c, 0, 64, 0
4, 103267, Control_c, 0, 64, 127
4, 103690, Control_c, 0, 64, 0
4, 103723, Control_c, 0, 64, 127
4, 103934, Control_c, 0, 64, 0
4, 103963, Control_c, 0, 64, 127
4, 104412, Control_c, 0, 64, 0
4, 104437, Control_c, 0, 64, 127
4, 104893, Control_c, 0, 64, 0
4, 104935, Control_c, 0, 64, 127
4, 105363, Control_c, 0, 64, 0
4, 105403, Control_c, 0, 64, 127
4, 105613, Control_c, 0, 64, 0
4, 105649, Control_c, 0, 64, 127
4, 106092, Control_c, 0, 64, 0
4, 106126, Control_c, 0, 64, 127
4, 106574, Control_c, 0, 64, 0
4, 106599, Control_c, 0, 64, 127
4, 106807, Control_c, 0, 64, 0
4, 106853, Control_c, 0, 64, 127
4, 107057, Control_c, 0, 64, 0
4, 107104, Control_c, 0, 64, 127
4, 107284, Control_c, 0, 64, 0
4, 107323, Control_c, 0, 64, 127
4, 107533, Control_c, 0, 64, 0
4, 107560, Control_c, 0, 64, 127
4, 108015, Control_c, 0, 64, 0
4, 108049, Control_c, 0, 64, 127
4, 108499, Control_c, 0, 64, 0
4, 108526, Control_c, 0, 64, 127
4, 108972, Control_c, 0, 64, 0
4, 109010, Control_c, 0, 64, 127
4, 109204, Control_c, 0, 64, 0
4, 109243, Control_c, 0, 64, 127
4, 109452, Control_c, 0, 64, 0
4, 109492, Control_c, 0, 64, 127
4, 109934, Control_c, 0, 64, 0
4, 109975, Control_c, 0, 64, 127
4, 110418, Control_c, 0, 64, 0
4, 110439, Control_c, 0, 64, 127
4, 110891, Control_c, 0, 64, 0
4, 110933, Control_c, 0, 64, 127
4, 111131, Control_c, 0, 64, 0
4, 111170, Control_c, 0, 64, 127
4, 111370, Control_c, 0, 64, 0
4, 111403, Control_c, 0, 64, 127
4, 111850, Control_c, 0, 64, 0
4, 111890, Control_c, 0, 64, 127
4, 112341, Control_c, 0, 64, 0
4, 112352, Control_c, 0, 64, 127
4, 112809, Control_c, 0, 64, 0
4, 112846, Control_c, 0, 64, 127
4, 113294, Control_c, 0, 64, 0
4, 113326, Control_c, 0, 64, 127
4, 113776, Control_c, 0, 64, 0
4, 113806, Control_c, 0, 64, 127
4, 114255, Control_c, 0, 64, 0
4, 114293, Control_c, 0, 64, 127
4, 114735, Control_c, 0, 64, 0
4, 114777, Control_c, 0, 64, 127
4, 115212, Control_c, 0, 64, 0
4, 115250, Control_c, 0, 64, 127
4, 115706, Control_c, 0, 64, 0
4, 115754, Control_c, 0, 64, 127
4, 116177, Control_c, 0, 64, 0
4, 116199, Control_c, 0, 64, 127
4, 116412, Control_c, 0, 64, 0
4, 116453, Control_c, 0, 64, 127
4, 116657, Control_c, 0, 64, 0
4, 117170, Control_c, 0, 64, 127
4, 117622, Control_c, 0, 64, 0
4, 117671, Control_c, 0, 64, 127
4, 118089, Control_c, 0, 64, 0
4, 118130, Control_c, 0, 64, 127
4, 118332, Control_c, 0, 64, 0
4, 118373, Control_c, 0, 64, 127
4, 118572, Control_c, 0, 64, 0
4, 119083, Control_c, 0, 64, 127
4, 119533, Control_c, 0, 64, 0
4, 119580, Control_c, 0, 64, 127
4, 120018, Control_c, 0, 64, 0
4, 120046, Control_c, 0, 64, 127
4, 120249, Control_c, 0, 64, 0
4, 120314, Control_c, 0, 64, 127
4, 120495, Control_c, 0, 64, 0
4, 120544, Control_c, 0, 64, 127
4, 120738, Control_c, 0, 64, 0
4, 120780, Control_c, 0, 64, 127
4, 120973, Control_c, 0, 64, 0
4, 120992, Control_c, 0, 64, 127
4, 121458, Control_c, 0, 64, 0
4, 121507, Control_c, 0, 64, 127
4, 121945, Control_c, 0, 64, 0
4, 121977, Control_c, 0, 64, 127
4, 122889, Control_c, 0, 64, 0
4, 123094, Control_c, 0, 64, 127
4, 123378, Control_c, 0, 64, 0
4, 123627, Control_c, 0, 64, 127
4, 123850, Control_c, 0, 64, 0
4, 123967, Control_c, 0, 64, 127
4, 124576, Control_c, 0, 64, 0
4, 124864, Control_c, 0, 64, 127
4, 125298, Control_c, 0, 64, 0
4, 125386, Control_c, 0, 64, 127
4, 125774, Control_c, 0, 64, 0
4, 125838, Control_c, 0, 64, 127
4, 126258, Control_c, 0, 64, 0
4, 126304, Control_c, 0, 64, 127
4, 126497, Control_c, 0, 64, 0
4, 126544, Control_c, 0, 64, 127
4, 126727, Control_c, 0, 64, 0
4, 126907, Control_c, 0, 64, 127
4, 127219, Control_c, 0, 64, 0
4, 127414, Control_c, 0, 64, 127
4, 127691, Control_c, 0, 64, 0
4, 127786, Control_c, 0, 64, 127
4, 128409, Control_c, 0, 64, 0
4, 128753, Control_c, 0, 64, 127
4, 129138, Control_c, 0, 64, 0
4, 129240, Control_c, 0, 64, 127
4, 129617, Control_c, 0, 64, 0
4, 129671, Control_c, 0, 64, 127
4, 129854, Control_c, 0, 64, 0
4, 129918, Control_c, 0, 64, 127
4, 130096, Control_c, 0, 64, 0
4, 130158, Control_c, 0, 64, 127
4, 130234, Control_c, 0, 64, 0
4, 130608, Control_c, 0, 64, 127
4, 131053, Control_c, 0, 64, 0
4, 131186, Control_c, 0, 64, 127
4, 131539, Control_c, 0, 64, 0
4, 131591, Control_c, 0, 64, 127
4, 132022, Control_c, 0, 64, 0
4, 132113, Control_c, 0, 64, 127
4, 132247, Control_c, 0, 64, 0
4, 132325, Control_c, 0, 64, 127
4, 132495, Control_c, 0, 64, 0
4, 132524, Control_c, 0, 64, 127
4, 132977, Control_c, 0, 64, 0
4, 133118, Control_c, 0, 64, 127
4, 133454, Control_c, 0, 64, 0
4, 133518, Control_c, 0, 64, 127
4, 133936, Control_c, 0, 64, 0
4, 133998, Control_c, 0, 64, 127
4, 134167, Control_c, 0, 64, 0
4, 134224, Control_c, 0, 64, 127
4, 134411, Control_c, 0, 64, 0
4, 134457, Control_c, 0, 64, 127
4, 134899, Control_c, 0, 64, 0
4, 135010, Control_c, 0, 64, 127
4, 135378, Control_c, 0, 64, 0
4, 135508, Control_c, 0, 64, 127
4, 135858, Control_c, 0, 64, 0
4, 135932, Control_c, 0, 64, 127
4, 136094, Control_c, 0, 64, 0
4, 136158, Control_c, 0, 64, 127
4, 136330, Control_c, 0, 64, 0
4, 136534, Control_c, 0, 64, 127
4, 136816, Control_c, 0, 64, 0
4, 137040, Control_c, 0, 64, 127
4, 137292, Control_c, 0, 64, 0
4, 137337, Control_c, 0, 64, 127
4, 138252, Control_c, 0, 64, 0
4, 138289, Control_c, 0, 64, 127
4, 139244, Control_c, 0, 64, 0
4, 139244, End_track
5, 0, Start_track
5, 0, Title_t, "Beethoven: Sonate Op. 57 (Appassionata) 2. Satz"
5, 0, End_track
6, 0, Start_track
6, 0, Title_t, "Copyright © 2001 by Bernd Krüger"
6, 0, End_track
7, 0, Start_track
7, 0, Title_t, "http://www.piano-midi.de"
7, 0, End_track
8, 0, Start_track
8, 0, Title_t, "Edition: 2012-07-25"
8, 0, End_track
9, 0, Start_track
9, 0, Title_t, "Spur 8"
9, 0, End_track
10, 0, Start_track
10, 0, Title_t, "Spur 9"
10, 0, End_track
11, 0, Start_track
11, 0, Title_t, "Spur 10"
11, 0, End_track
0, 0, End_of_file
