0, 0, Header, 1, 17, 480
1, 0, Start_track
1, 0, Title_t, "Grande Sonate Opus 22 - 4. movement"
1, 0, Copyright_t, "Copyright © 2009 by Bernd Krueger"
1, 0, Text_t, "Ludwig von Beethoven"
1, 0, Text_t, "Erstellt: 13.11.2009\012"
1, 0, Text_t, "Update: 31.5.2012\012"
1, 0, Text_t, "Dauer: 4:42 Minuten\012"
1, 0, Time_signature, 2, 2, 24, 8
1, 0, Key_signature, -2, "major"
1, 0, Tempo, 701754
1, 600, Tempo, 731707
1, 720, Tempo, 701754
1, 1800, Tempo, 789474
1, 1920, Tempo, 697674
1, 2160, Tempo, 689655
1, 2280, Tempo, 705882
1, 2400, Tempo, 710059
1, 2520, Tempo, 718563
1, 2640, Tempo, 681818
1, 2760, Tempo, 689655
1, 2880, Tempo, 693642
1, 3720, Tempo, 769231
1, 3840, Tempo, 697674
1, 3960, Tempo, 685714
1, 4080, Tempo, 693642
1, 4200, Tempo, 681818
1, 4320, Tempo, 693642
1, 4440, Tempo, 722892
1, 4560, Tempo, 681818
1, 4680, Tempo, 697674
1, 4920, Tempo, 685714
1, 5040, Tempo, 689655
1, 5160, Tempo, 689655
1, 5280, Tempo, 697674
1, 5400, Tempo, 689655
1, 5520, Tempo, 693642
1, 5640, Tempo, 727273
1, 5760, Tempo, 697674
1, 6360, Tempo, 685714
1, 6720, Tempo, 689655
1, 7200, Tempo, 693642
1, 7560, Tempo, 800000
1, 7680, Tempo, 693642
1, 7920, Tempo, 705882
1, 8280, Tempo, 805369
1, 8400, Tempo, 701754
1, 9480, Tempo, 789474
1, 9600, Tempo, 697674
1, 10200, Tempo, 727273
1, 10320, Tempo, 681818
1, 10440, Tempo, 689655
1, 10560, Tempo, 693642
1, 11400, Tempo, 769231
1, 11520, Tempo, 697674
1, 12120, Tempo, 722892
1, 12240, Tempo, 681818
1, 12360, Tempo, 697674
1, 13320, Tempo, 727273
1, 13440, Tempo, 697674
1, 14040, Tempo, 685714
1, 14400, Tempo, 689655
1, 14760, Tempo, 774194
1, 14880, Tempo, 689655
1, 15240, Tempo, 827586
1, 15360, Tempo, 693642
1, 15629, Tempo, 714286
1, 15744, Tempo, 710059
1, 15840, Tempo, 705882
1, 15955, Tempo, 701754
1, 16051, Tempo, 697674
1, 16147, Tempo, 693642
1, 16262, Tempo, 689655
1, 16358, Tempo, 685714
1, 16474, Tempo, 681818
1, 16570, Tempo, 677966
1, 16666, Tempo, 674157
1, 16800, Tempo, 689655
1, 17160, Tempo, 810811
1, 17299, Tempo, 689655
1, 18227, Tempo, 701754
1, 18284, Tempo, 697674
1, 18323, Tempo, 693642
1, 18380, Tempo, 689655
1, 18419, Tempo, 685714
1, 18600, Tempo, 718563
1, 18720, Tempo, 718563
1, 18960, Tempo, 740741
1, 19200, Tempo, 701754
1, 19440, Tempo, 745342
1, 19666, Tempo, 689655
1, 19680, Tempo, 705882
1, 20133, Tempo, 701754
1, 20280, Tempo, 659341
1, 20520, Tempo, 705882
1, 20640, Tempo, 705882
1, 20760, Tempo, 662983
1, 21000, Tempo, 759494
1, 21120, Tempo, 789474
1, 21360, Tempo, 740741
1, 21586, Tempo, 689655
1, 21720, Tempo, 652174
1, 21960, Tempo, 774194
1, 22080, Tempo, 685714
1, 22200, Tempo, 652174
1, 22440, Tempo, 764331
1, 22560, Tempo, 681818
1, 22680, Tempo, 648649
1, 22920, Tempo, 750000
1, 23040, Tempo, 677966
1, 23160, Tempo, 648649
1, 23400, Tempo, 863309
1, 23520, Tempo, 722892
1, 23760, Tempo, 662983
1, 24000, Tempo, 677966
1, 24480, Tempo, 722892
1, 24600, Tempo, 827586
1, 24720, Tempo, 662983
1, 24960, Tempo, 677966
1, 25440, Tempo, 722892
1, 25560, Tempo, 769231
1, 25680, Tempo, 662983
1, 25920, Tempo, 681818
1, 26160, Tempo, 670391
1, 26400, Tempo, 666667
1, 26760, Tempo, 845070
1, 26880, Tempo, 714286
1, 27360, Tempo, 722892
1, 27600, Tempo, 685714
1, 27840, Tempo, 714286
1, 28320, Tempo, 722892
1, 28560, Tempo, 685714
1, 28800, Tempo, 714286
1, 30234, Tempo, 701754
1, 30292, Tempo, 705882
1, 30330, Tempo, 710059
1, 30369, Tempo, 714286
1, 30407, Tempo, 718563
1, 30446, Tempo, 722892
1, 30503, Tempo, 727273
1, 30542, Tempo, 731707
1, 30580, Tempo, 736196
1, 30618, Tempo, 740741
1, 30657, Tempo, 745342
1, 30720, Tempo, 710059
1, 30780, Tempo, 685714
1, 31620, Tempo, 800000
1, 31680, Tempo, 705882
1, 31800, Tempo, 689655
1, 32580, Tempo, 784314
1, 32640, Tempo, 710059
1, 32700, Tempo, 685714
1, 33540, Tempo, 800000
1, 33600, Tempo, 705882
1, 33720, Tempo, 689655
1, 34500, Tempo, 784314
1, 34560, Tempo, 710059
1, 34620, Tempo, 685714
1, 35460, Tempo, 944882
1, 35520, Tempo, 710059
1, 35580, Tempo, 685714
1, 36420, Tempo, 960000
1, 36480, Tempo, 710059
1, 36540, Tempo, 685714
1, 37380, Tempo, 1061947
1, 37440, Tempo, 697674
1, 37500, Tempo, 693642
1, 38340, Tempo, 821918
1, 38400, Tempo, 697674
1, 39000, Tempo, 731707
1, 39120, Tempo, 697674
1, 39720, Tempo, 774194
1, 39840, Tempo, 697674
1, 39960, Tempo, 731707
1, 40080, Tempo, 697674
1, 40680, Tempo, 774194
1, 40800, Tempo, 697674
1, 40920, Tempo, 731707
1, 41040, Tempo, 697674
1, 41640, Tempo, 774194
1, 41760, Tempo, 697674
1, 41880, Tempo, 731707
1, 42000, Tempo, 697674
1, 42600, Tempo, 774194
1, 42720, Tempo, 697674
1, 42840, Tempo, 731707
1, 42960, Tempo, 697674
1, 43560, Tempo, 774194
1, 43680, Tempo, 697674
1, 43800, Tempo, 731707
1, 43920, Tempo, 697674
1, 44640, Tempo, 697674
1, 44760, Tempo, 731707
1, 44880, Tempo, 693642
1, 45480, Tempo, 718563
1, 45600, Tempo, 681818
1, 46200, Tempo, 722892
1, 46320, Tempo, 685714
1, 46560, Tempo, 718563
1, 46680, Tempo, 685714
1, 46920, Tempo, 745342
1, 47040, Tempo, 689655
1, 47280, Tempo, 779221
1, 47400, Tempo, 689655
1, 47404, Tempo, 727273
1, 47442, Tempo, 722892
1, 47462, Tempo, 718563
1, 47500, Tempo, 714286
1, 47519, Tempo, 710059
1, 47538, Tempo, 705882
1, 47577, Tempo, 701754
1, 47596, Tempo, 697674
1, 47634, Tempo, 693642
1, 47654, Tempo, 689655
1, 47673, Tempo, 685714
1, 47700, Tempo, 930233
1, 47760, Tempo, 745342
1, 47880, Tempo, 701754
1, 48840, Tempo, 789474
1, 48960, Tempo, 697674
1, 49560, Tempo, 718563
1, 49680, Tempo, 681818
1, 49800, Tempo, 689655
1, 49920, Tempo, 693642
1, 50760, Tempo, 769231
1, 50880, Tempo, 697674
1, 51480, Tempo, 722892
1, 51600, Tempo, 681818
1, 51720, Tempo, 697674
1, 52680, Tempo, 727273
1, 52800, Tempo, 697674
1, 53400, Tempo, 685714
1, 53760, Tempo, 689655
1, 54240, Tempo, 693642
1, 54600, Tempo, 800000
1, 54720, Tempo, 693642
1, 55320, Tempo, 827586
1, 55440, Tempo, 701754
1, 56520, Tempo, 789474
1, 56640, Tempo, 697674
1, 57240, Tempo, 727273
1, 57360, Tempo, 681818
1, 57480, Tempo, 689655
1, 57600, Tempo, 693642
1, 58440, Tempo, 769231
1, 58560, Tempo, 697674
1, 59160, Tempo, 722892
1, 59280, Tempo, 681818
1, 59400, Tempo, 697674
1, 60360, Tempo, 727273
1, 60480, Tempo, 697674
1, 61080, Tempo, 685714
1, 61440, Tempo, 689655
1, 61800, Tempo, 794702
1, 61920, Tempo, 693642
1, 62280, Tempo, 800000
1, 62400, Tempo, 693642
1, 62669, Tempo, 714286
1, 62784, Tempo, 710059
1, 62880, Tempo, 705882
1, 62995, Tempo, 701754
1, 63091, Tempo, 697674
1, 63187, Tempo, 693642
1, 63302, Tempo, 689655
1, 63398, Tempo, 685714
1, 63514, Tempo, 681818
1, 63610, Tempo, 677966
1, 63706, Tempo, 674157
1, 63840, Tempo, 689655
1, 64200, Tempo, 810811
1, 64339, Tempo, 689655
1, 64800, Tempo, 689655
1, 64860, Tempo, 701754
1, 65267, Tempo, 701754
1, 65280, Tempo, 705882
1, 65324, Tempo, 697674
1, 65760, Tempo, 710059
1, 66000, Tempo, 745342
1, 66240, Tempo, 697674
1, 66480, Tempo, 740741
1, 66720, Tempo, 701754
1, 67200, Tempo, 714286
1, 68160, Tempo, 731707
1, 68340, Tempo, 710059
1, 68880, Tempo, 750000
1, 69120, Tempo, 754717
1, 69240, Tempo, 701754
1, 69480, Tempo, 693642
1, 69960, Tempo, 759494
1, 70080, Tempo, 701754
1, 70200, Tempo, 689655
1, 70920, Tempo, 731707
1, 71040, Tempo, 697674
1, 71160, Tempo, 685714
1, 71880, Tempo, 727273
1, 72000, Tempo, 754717
1, 72120, Tempo, 685714
1, 72840, Tempo, 731707
1, 72960, Tempo, 718563
1, 73080, Tempo, 689655
1, 73800, Tempo, 722892
1, 73920, Tempo, 689655
1, 74400, Tempo, 697674
1, 74640, Tempo, 718563
1, 74760, Tempo, 833333
1, 74880, Tempo, 805369
1, 75000, Tempo, 722892
1, 75120, Tempo, 718563
1, 75360, Tempo, 701754
1, 75840, Tempo, 805369
1, 75960, Tempo, 722892
1, 76080, Tempo, 718563
1, 76320, Tempo, 701754
1, 76680, Tempo, 816327
1, 76800, Tempo, 722892
1, 77760, Tempo, 689655
1, 78000, Tempo, 722892
1, 78600, Tempo, 810811
1, 78720, Tempo, 740741
1, 78960, Tempo, 764331
1, 79200, Tempo, 722892
1, 79680, Tempo, 689655
1, 79920, Tempo, 722892
1, 80520, Tempo, 810811
1, 80640, Tempo, 740741
1, 80880, Tempo, 764331
1, 81099, Tempo, 722892
1, 81579, Tempo, 689655
1, 81819, Tempo, 722892
1, 82419, Tempo, 810811
1, 82539, Tempo, 714286
1, 82560, Tempo, 722892
1, 82800, Tempo, 769231
1, 83040, Tempo, 722892
1, 83499, Tempo, 689655
1, 83739, Tempo, 722892
1, 84339, Tempo, 810811
1, 84459, Tempo, 714286
1, 84480, Tempo, 722892
1, 84720, Tempo, 769231
1, 84960, Tempo, 722892
1, 85440, Tempo, 689655
1, 85680, Tempo, 722892
1, 86280, Tempo, 648649
1, 86400, Tempo, 689655
1, 86640, Tempo, 722892
1, 87240, Tempo, 648649
1, 87360, Tempo, 689655
1, 87600, Tempo, 722892
1, 88320, Tempo, 689655
1, 88560, Tempo, 722892
1, 89280, Tempo, 689655
1, 89520, Tempo, 722892
1, 89760, Tempo, 689655
1, 90000, Tempo, 722892
1, 90240, Tempo, 689655
1, 90480, Tempo, 722892
1, 91200, Tempo, 754717
1, 91320, Tempo, 701754
1, 91560, Tempo, 693642
1, 92040, Tempo, 759494
1, 92160, Tempo, 701754
1, 92280, Tempo, 689655
1, 93000, Tempo, 731707
1, 93120, Tempo, 697674
1, 93240, Tempo, 685714
1, 93960, Tempo, 727273
1, 94080, Tempo, 754717
1, 94200, Tempo, 685714
1, 94920, Tempo, 731707
1, 95040, Tempo, 718563
1, 95160, Tempo, 689655
1, 95880, Tempo, 722892
1, 96000, Tempo, 689655
1, 96480, Tempo, 697674
1, 96720, Tempo, 718563
1, 96840, Tempo, 833333
1, 96960, Tempo, 805369
1, 97080, Tempo, 722892
1, 97200, Tempo, 718563
1, 97440, Tempo, 701754
1, 97920, Tempo, 805369
1, 98040, Tempo, 722892
1, 98160, Tempo, 718563
1, 98400, Tempo, 701754
1, 98760, Tempo, 816327
1, 98880, Tempo, 722892
1, 99480, Tempo, 731707
1, 99600, Tempo, 701754
1, 100680, Tempo, 869565
1, 100800, Tempo, 754717
1, 101280, Tempo, 697674
1, 101400, Tempo, 718563
1, 101520, Tempo, 681818
1, 101640, Tempo, 689655
1, 101760, Tempo, 701754
1, 102600, Tempo, 869565
1, 102720, Tempo, 800000
1, 103440, Tempo, 774194
1, 103560, Tempo, 827586
1, 103680, Tempo, 800000
1, 104400, Tempo, 774194
1, 104520, Tempo, 821918
1, 104640, Tempo, 794702
1, 105120, Tempo, 789474
1, 105540, Tempo, 821918
1, 105581, Tempo, 810811
1, 105677, Tempo, 805369
1, 105754, Tempo, 800000
1, 105831, Tempo, 794702
1, 105908, Tempo, 789474
1, 105985, Tempo, 784314
1, 106056, Tempo, 774194
1, 106095, Tempo, 769231
1, 106114, Tempo, 764331
1, 106133, Tempo, 759494
1, 106152, Tempo, 754717
1, 106171, Tempo, 750000
1, 106210, Tempo, 745342
1, 106229, Tempo, 740741
1, 106248, Tempo, 736196
1, 106267, Tempo, 731707
1, 106287, Tempo, 727273
1, 106306, Tempo, 722892
1, 106344, Tempo, 718563
1, 106363, Tempo, 714286
1, 106383, Tempo, 710059
1, 106402, Tempo, 705882
1, 106421, Tempo, 701754
1, 106440, Tempo, 697674
1, 106479, Tempo, 693642
1, 106498, Tempo, 689655
1, 106517, Tempo, 685714
1, 106536, Tempo, 681818
1, 106555, Tempo, 677966
1, 106575, Tempo, 674157
1, 106651, Tempo, 670391
1, 106709, Tempo, 666667
1, 106767, Tempo, 662983
1, 106824, Tempo, 659341
1, 106882, Tempo, 655738
1, 106887, Tempo, 705882
1, 106896, Tempo, 670391
1, 106992, Tempo, 674157
1, 107068, Tempo, 677966
1, 107145, Tempo, 681818
1, 107222, Tempo, 685714
1, 107299, Tempo, 689655
1, 107376, Tempo, 693642
1, 107452, Tempo, 697674
1, 107520, Tempo, 701754
1, 108360, Tempo, 789474
1, 108480, Tempo, 697674
1, 109080, Tempo, 727273
1, 109200, Tempo, 681818
1, 109320, Tempo, 689655
1, 109440, Tempo, 693642
1, 110280, Tempo, 769231
1, 110400, Tempo, 697674
1, 111000, Tempo, 722892
1, 111120, Tempo, 681818
1, 111240, Tempo, 697674
1, 112200, Tempo, 727273
1, 112320, Tempo, 697674
1, 112912, Tempo, 689655
1, 112989, Tempo, 685714
1, 113046, Tempo, 681818
1, 113123, Tempo, 677966
1, 113181, Tempo, 674157
1, 113257, Tempo, 670391
1, 113296, Tempo, 662983
1, 113488, Tempo, 666667
1, 113661, Tempo, 670391
1, 113833, Tempo, 674157
1, 114240, Tempo, 685714
1, 114256, Tempo, 693642
1, 114717, Tempo, 681818
1, 114736, Tempo, 685714
1, 114774, Tempo, 689655
1, 114813, Tempo, 693642
1, 114851, Tempo, 697674
1, 114889, Tempo, 701754
1, 114928, Tempo, 705882
1, 114966, Tempo, 710059
1, 115005, Tempo, 714286
1, 115043, Tempo, 718563
1, 115081, Tempo, 722892
1, 115120, Tempo, 727273
1, 115200, Tempo, 701754
1, 116040, Tempo, 789474
1, 116160, Tempo, 697674
1, 116760, Tempo, 727273
1, 116880, Tempo, 681818
1, 117000, Tempo, 689655
1, 117120, Tempo, 693642
1, 117960, Tempo, 769231
1, 118080, Tempo, 697674
1, 118680, Tempo, 722892
1, 118800, Tempo, 681818
1, 118920, Tempo, 697674
1, 119880, Tempo, 727273
1, 120000, Tempo, 697674
1, 120600, Tempo, 685714
1, 120960, Tempo, 689655
1, 121320, Tempo, 779221
1, 121440, Tempo, 689655
1, 121800, Tempo, 800000
1, 121920, Tempo, 693642
1, 122189, Tempo, 714286
1, 122304, Tempo, 710059
1, 122400, Tempo, 705882
1, 122515, Tempo, 701754
1, 122611, Tempo, 697674
1, 122707, Tempo, 693642
1, 122822, Tempo, 689655
1, 122918, Tempo, 685714
1, 123034, Tempo, 681818
1, 123130, Tempo, 677966
1, 123226, Tempo, 674157
1, 123360, Tempo, 689655
1, 123720, Tempo, 810811
1, 123840, Tempo, 731707
1, 124320, Tempo, 681818
1, 124787, Tempo, 701754
1, 124844, Tempo, 697674
1, 124883, Tempo, 693642
1, 124940, Tempo, 689655
1, 124979, Tempo, 685714
1, 125160, Tempo, 718563
1, 125280, Tempo, 710059
1, 125520, Tempo, 754717
1, 125760, Tempo, 710059
1, 126000, Tempo, 794702
1, 126226, Tempo, 689655
1, 126693, Tempo, 701754
1, 126840, Tempo, 659341
1, 127080, Tempo, 705882
1, 127200, Tempo, 705882
1, 127320, Tempo, 662983
1, 127560, Tempo, 759494
1, 127680, Tempo, 800000
1, 127920, Tempo, 718563
1, 128146, Tempo, 689655
1, 128160, Tempo, 689655
1, 128613, Tempo, 701754
1, 128760, Tempo, 659341
1, 129000, Tempo, 705882
1, 129120, Tempo, 705882
1, 129240, Tempo, 662983
1, 129480, Tempo, 759494
1, 129600, Tempo, 693642
1, 130066, Tempo, 689655
1, 130080, Tempo, 689655
1, 130200, Tempo, 652174
1, 130440, Tempo, 774194
1, 130560, Tempo, 685714
1, 130680, Tempo, 652174
1, 130920, Tempo, 764331
1, 131040, Tempo, 681818
1, 131160, Tempo, 648649
1, 131400, Tempo, 750000
1, 131520, Tempo, 677966
1, 131640, Tempo, 648649
1, 131880, Tempo, 863309
1, 132000, Tempo, 745342
1, 132240, Tempo, 662983
1, 132480, Tempo, 677966
1, 132960, Tempo, 693642
1, 133200, Tempo, 662983
1, 133440, Tempo, 677966
1, 133920, Tempo, 705882
1, 134040, Tempo, 681818
1, 134160, Tempo, 662983
1, 134400, Tempo, 681818
1, 135240, Tempo, 845070
1, 135360, Tempo, 714286
1, 135840, Tempo, 722892
1, 136080, Tempo, 685714
1, 136320, Tempo, 714286
1, 136800, Tempo, 722892
1, 137040, Tempo, 685714
1, 137280, Tempo, 714286
1, 138714, Tempo, 701754
1, 138772, Tempo, 705882
1, 138810, Tempo, 710059
1, 138849, Tempo, 714286
1, 138887, Tempo, 718563
1, 138926, Tempo, 722892
1, 138983, Tempo, 727273
1, 139022, Tempo, 731707
1, 139060, Tempo, 736196
1, 139098, Tempo, 740741
1, 139137, Tempo, 745342
1, 139200, Tempo, 710059
1, 139260, Tempo, 685714
1, 140100, Tempo, 800000
1, 140160, Tempo, 705882
1, 140280, Tempo, 689655
1, 141060, Tempo, 784314
1, 141120, Tempo, 710059
1, 141180, Tempo, 685714
1, 142020, Tempo, 800000
1, 142080, Tempo, 705882
1, 142200, Tempo, 689655
1, 142980, Tempo, 784314
1, 143040, Tempo, 710059
1, 143100, Tempo, 685714
1, 143940, Tempo, 944882
1, 144000, Tempo, 710059
1, 144060, Tempo, 685714
1, 144900, Tempo, 960000
1, 144960, Tempo, 710059
1, 145020, Tempo, 685714
1, 145860, Tempo, 1061947
1, 145920, Tempo, 697674
1, 145980, Tempo, 693642
1, 146663, Tempo, 685714
1, 146682, Tempo, 693642
1, 146702, Tempo, 705882
1, 146721, Tempo, 714286
1, 146740, Tempo, 727273
1, 146759, Tempo, 736196
1, 146778, Tempo, 750000
1, 146798, Tempo, 759494
1, 146817, Tempo, 774194
1, 146820, Tempo, 1276596
1, 146880, Tempo, 701754
1, 147720, Tempo, 789474
1, 147840, Tempo, 697674
1, 148440, Tempo, 718563
1, 148560, Tempo, 681818
1, 148680, Tempo, 689655
1, 148800, Tempo, 693642
1, 149640, Tempo, 769231
1, 149760, Tempo, 697674
1, 150360, Tempo, 722892
1, 150480, Tempo, 681818
1, 150600, Tempo, 697674
1, 150720, Tempo, 701754
1, 151560, Tempo, 789474
1, 151680, Tempo, 697674
1, 152280, Tempo, 731707
1, 152400, Tempo, 697674
1, 153000, Tempo, 774194
1, 153120, Tempo, 697674
1, 153240, Tempo, 731707
1, 153360, Tempo, 697674
1, 153960, Tempo, 774194
1, 154080, Tempo, 697674
1, 154200, Tempo, 731707
1, 154320, Tempo, 697674
1, 154920, Tempo, 705882
1, 155040, Tempo, 697674
1, 155880, Tempo, 714286
1, 156000, Tempo, 693642
1, 156011, Tempo, 689655
1, 156206, Tempo, 685714
1, 156386, Tempo, 681818
1, 156461, Tempo, 693642
1, 156581, Tempo, 689655
1, 156701, Tempo, 685714
1, 156821, Tempo, 681818
1, 156926, Tempo, 710059
1, 156941, Tempo, 693642
1, 157016, Tempo, 689655
1, 157091, Tempo, 685714
1, 157166, Tempo, 681818
1, 157241, Tempo, 677966
1, 157316, Tempo, 674157
1, 157391, Tempo, 670391
1, 157466, Tempo, 666667
1, 157496, Tempo, 674157
1, 157586, Tempo, 677966
1, 157661, Tempo, 681818
1, 157736, Tempo, 685714
1, 157826, Tempo, 689655
1, 157901, Tempo, 693642
1, 157921, Tempo, 689655
1, 157936, Tempo, 693642
1, 157951, Tempo, 701754
1, 157966, Tempo, 705882
1, 157981, Tempo, 714286
1, 157996, Tempo, 722892
1, 158011, Tempo, 727273
1, 158026, Tempo, 736196
1, 158041, Tempo, 740741
1, 158056, Tempo, 750000
1, 158071, Tempo, 759494
1, 158086, Tempo, 764331
1, 158101, Tempo, 774194
1, 158116, Tempo, 784314
1, 158156, Tempo, 693642
1, 158160, Tempo, 745342
1, 158280, Tempo, 736196
1, 158400, Tempo, 701754
1, 158520, Tempo, 693642
1, 159240, Tempo, 789474
1, 159360, Tempo, 697674
1, 159840, Tempo, 705882
1, 159960, Tempo, 754717
1, 160080, Tempo, 681818
1, 160200, Tempo, 689655
1, 160320, Tempo, 659341
1, 160440, Tempo, 689655
1, 160800, Tempo, 710059
1, 161160, Tempo, 769231
1, 161280, Tempo, 697674
1, 161880, Tempo, 722892
1, 162000, Tempo, 681818
1, 162120, Tempo, 697674
1, 162720, Tempo, 705882
1, 163080, Tempo, 727273
1, 163200, Tempo, 697674
1, 163800, Tempo, 685714
1, 164160, Tempo, 689655
1, 164640, Tempo, 693642
1, 165000, Tempo, 702823
1, 165060, Tempo, 834841
1, 165120, Tempo, 693642
1, 165720, Tempo, 827586
1, 165840, Tempo, 701754
1, 166560, Tempo, 714286
1, 166920, Tempo, 698731
1, 166980, Tempo, 760746
1, 167040, Tempo, 697674
1, 167640, Tempo, 727273
1, 167760, Tempo, 681818
1, 167880, Tempo, 689655
1, 168000, Tempo, 693642
1, 168480, Tempo, 705882
1, 168840, Tempo, 769231
1, 168960, Tempo, 697674
1, 169560, Tempo, 722892
1, 169680, Tempo, 681818
1, 169800, Tempo, 697674
1, 170760, Tempo, 759494
1, 170880, Tempo, 697674
1, 171480, Tempo, 685714
1, 171840, Tempo, 689655
1, 172320, Tempo, 705882
1, 172680, Tempo, 800000
1, 172800, Tempo, 693642
1, 173069, Tempo, 714286
1, 173184, Tempo, 710059
1, 173280, Tempo, 705882
1, 173395, Tempo, 701754
1, 173491, Tempo, 697674
1, 173587, Tempo, 693642
1, 173702, Tempo, 689655
1, 173798, Tempo, 685714
1, 173914, Tempo, 681818
1, 174010, Tempo, 677966
1, 174106, Tempo, 674157
1, 174240, Tempo, 689655
1, 174600, Tempo, 810811
1, 174735, Tempo, 727273
1, 174765, Tempo, 722892
1, 174795, Tempo, 718563
1, 174825, Tempo, 714286
1, 174855, Tempo, 710059
1, 174870, Tempo, 705882
1, 174900, Tempo, 701754
1, 174930, Tempo, 697674
1, 174960, Tempo, 693642
1, 174990, Tempo, 689655
1, 175005, Tempo, 685714
1, 175200, Tempo, 754717
1, 177600, Tempo, 705882
1, 178320, Tempo, 769231
1, 178560, Tempo, 697674
1, 179040, Tempo, 754717
1, 179160, Tempo, 718563
1, 179400, Tempo, 764331
1, 179520, Tempo, 722892
1, 179880, Tempo, 769231
1, 180000, Tempo, 750000
1, 180120, Tempo, 727273
1, 180360, Tempo, 774194
1, 180480, Tempo, 745342
1, 180600, Tempo, 727273
1, 180840, Tempo, 764331
1, 180960, Tempo, 754717
1, 181080, Tempo, 731707
1, 181320, Tempo, 759494
1, 181440, Tempo, 731707
1, 181680, Tempo, 710059
1, 182160, Tempo, 727273
1, 182400, Tempo, 697674
1, 182880, Tempo, 754717
1, 183000, Tempo, 731707
1, 183240, Tempo, 759494
1, 183360, Tempo, 731707
1, 183600, Tempo, 710059
1, 184080, Tempo, 727273
1, 184320, Tempo, 697674
1, 184800, Tempo, 754717
1, 184920, Tempo, 731707
1, 185160, Tempo, 769231
1, 185280, Tempo, 800000
1, 185520, Tempo, 759494
1, 185760, Tempo, 774194
1, 186000, Tempo, 810811
1, 186180, Tempo, 1043478
1, 186240, Tempo, 697674
1, 186360, Tempo, 774194
1, 186480, Tempo, 718563
1, 187560, Tempo, 740741
1, 187680, Tempo, 722892
1, 188160, Tempo, 714286
1, 188280, Tempo, 754717
1, 188400, Tempo, 714286
1, 189480, Tempo, 718563
1, 189600, Tempo, 736196
1, 189960, Tempo, 833333
1, 190080, Tempo, 740741
1, 190560, Tempo, 827586
1, 190800, Tempo, 975610
1, 190800, End_track
2, 0, Start_track
2, 0, Title_t, "Piano right"
2, 0, Program_c, 0, 0
2, 600, Note_on_c, 0, 77, 45
2, 720, Note_on_c, 0, 77, 0
2, 720, Note_on_c, 0, 79, 50
2, 840, Note_on_c, 0, 79, 0
2, 840, Note_on_c, 0, 77, 46
2, 960, Note_on_c, 0, 77, 0
2, 960, Note_on_c, 0, 75, 50
2, 1080, Note_on_c, 0, 75, 0
2, 1080, Note_on_c, 0, 74, 46
2, 1200, Note_on_c, 0, 74, 0
2, 1200, Note_on_c, 0, 72, 46
2, 1320, Note_on_c, 0, 72, 0
2, 1320, Note_on_c, 0, 70, 46
2, 1440, Note_on_c, 0, 70, 0
2, 1440, Note_on_c, 0, 69, 50
2, 1680, Note_on_c, 0, 69, 0
2, 1680, Note_on_c, 0, 70, 47
2, 1920, Note_on_c, 0, 70, 0
2, 1920, Note_on_c, 0, 71, 53
2, 2160, Note_on_c, 0, 71, 0
2, 2160, Note_on_c, 0, 72, 49
2, 2520, Note_on_c, 0, 72, 0
2, 2520, Note_on_c, 0, 78, 45
2, 2640, Note_on_c, 0, 78, 0
2, 2640, Note_on_c, 0, 81, 50
2, 2760, Note_on_c, 0, 81, 0
2, 2760, Note_on_c, 0, 79, 46
2, 2880, Note_on_c, 0, 79, 0
2, 2880, Note_on_c, 0, 77, 50
2, 3000, Note_on_c, 0, 77, 0
2, 3000, Note_on_c, 0, 75, 46
2, 3120, Note_on_c, 0, 75, 0
2, 3120, Note_on_c, 0, 74, 46
2, 3240, Note_on_c, 0, 74, 0
2, 3240, Note_on_c, 0, 72, 46
2, 3360, Note_on_c, 0, 72, 0
2, 3360, Note_on_c, 0, 70, 50
2, 3600, Note_on_c, 0, 70, 0
2, 3600, Note_on_c, 0, 72, 47
2, 3840, Note_on_c, 0, 72, 0
2, 3840, Note_on_c, 0, 73, 53
2, 4080, Note_on_c, 0, 73, 0
2, 4080, Note_on_c, 0, 74, 49
2, 4440, Note_on_c, 0, 74, 0
2, 4440, Note_on_c, 0, 77, 51
2, 4560, Note_on_c, 0, 77, 0
2, 4560, Note_on_c, 0, 79, 58
2, 4680, Note_on_c, 0, 79, 0
2, 4680, Note_on_c, 0, 74, 52
2, 4800, Note_on_c, 0, 74, 0
2, 4800, Note_on_c, 0, 77, 56
2, 4920, Note_on_c, 0, 77, 0
2, 4920, Note_on_c, 0, 75, 52
2, 5040, Note_on_c, 0, 75, 0
2, 5040, Note_on_c, 0, 77, 57
2, 5160, Note_on_c, 0, 77, 0
2, 5160, Note_on_c, 0, 72, 52
2, 5280, Note_on_c, 0, 72, 0
2, 5280, Note_on_c, 0, 75, 57
2, 5400, Note_on_c, 0, 75, 0
2, 5400, Note_on_c, 0, 74, 52
2, 5520, Note_on_c, 0, 74, 0
2, 5520, Note_on_c, 0, 79, 59
2, 5640, Note_on_c, 0, 79, 0
2, 5640, Note_on_c, 0, 74, 52
2, 5760, Note_on_c, 0, 74, 0
2, 5760, Note_on_c, 0, 77, 62
2, 5880, Note_on_c, 0, 77, 0
2, 5880, Note_on_c, 0, 75, 56
2, 6000, Note_on_c, 0, 75, 0
2, 6000, Note_on_c, 0, 77, 62
2, 6120, Note_on_c, 0, 77, 0
2, 6120, Note_on_c, 0, 72, 54
2, 6240, Note_on_c, 0, 72, 0
2, 6240, Note_on_c, 0, 74, 67
2, 6360, Note_on_c, 0, 74, 0
2, 6360, Note_on_c, 0, 75, 57
2, 6480, Note_on_c, 0, 75, 0
2, 6480, Note_on_c, 0, 76, 59
2, 6600, Note_on_c, 0, 76, 0
2, 6600, Note_on_c, 0, 77, 61
2, 6720, Note_on_c, 0, 77, 0
2, 6720, Note_on_c, 0, 78, 67
2, 6840, Note_on_c, 0, 78, 0
2, 6840, Note_on_c, 0, 79, 64
2, 6960, Note_on_c, 0, 79, 0
2, 6960, Note_on_c, 0, 81, 67
2, 7080, Note_on_c, 0, 81, 0
2, 7080, Note_on_c, 0, 82, 69
2, 7200, Note_on_c, 0, 82, 0
2, 7200, Note_on_c, 0, 84, 70
2, 7320, Note_on_c, 0, 84, 0
2, 7320, Note_on_c, 0, 85, 74
2, 7440, Note_on_c, 0, 85, 0
2, 7440, Note_on_c, 0, 86, 81
2, 7560, Note_on_c, 0, 86, 0
2, 7560, Note_on_c, 0, 76, 54
2, 7680, Note_on_c, 0, 76, 0
2, 7680, Note_on_c, 0, 79, 58
2, 7920, Note_on_c, 0, 79, 0
2, 7920, Note_on_c, 0, 77, 53
2, 8160, Note_on_c, 0, 77, 0
2, 8280, Note_on_c, 0, 65, 38
2, 8280, Note_on_c, 0, 77, 45
2, 8400, Note_on_c, 0, 77, 0
2, 8400, Note_on_c, 0, 65, 0
2, 8400, Note_on_c, 0, 67, 42
2, 8400, Note_on_c, 0, 79, 50
2, 8520, Note_on_c, 0, 79, 0
2, 8520, Note_on_c, 0, 67, 0
2, 8520, Note_on_c, 0, 65, 39
2, 8520, Note_on_c, 0, 77, 46
2, 8640, Note_on_c, 0, 77, 0
2, 8640, Note_on_c, 0, 65, 0
2, 8640, Note_on_c, 0, 63, 42
2, 8640, Note_on_c, 0, 75, 50
2, 8760, Note_on_c, 0, 75, 0
2, 8760, Note_on_c, 0, 63, 0
2, 8760, Note_on_c, 0, 62, 39
2, 8760, Note_on_c, 0, 74, 46
2, 8880, Note_on_c, 0, 74, 0
2, 8880, Note_on_c, 0, 62, 0
2, 8880, Note_on_c, 0, 60, 39
2, 8880, Note_on_c, 0, 72, 46
2, 9000, Note_on_c, 0, 72, 0
2, 9000, Note_on_c, 0, 60, 0
2, 9000, Note_on_c, 0, 58, 39
2, 9000, Note_on_c, 0, 70, 46
2, 9120, Note_on_c, 0, 70, 0
2, 9120, Note_on_c, 0, 58, 0
2, 9120, Note_on_c, 0, 57, 42
2, 9120, Note_on_c, 0, 69, 42
2, 9360, Note_on_c, 0, 69, 0
2, 9360, Note_on_c, 0, 57, 0
2, 9360, Note_on_c, 0, 58, 39
2, 9360, Note_on_c, 0, 70, 47
2, 9600, Note_on_c, 0, 70, 0
2, 9600, Note_on_c, 0, 58, 0
2, 9600, Note_on_c, 0, 59, 45
2, 9600, Note_on_c, 0, 71, 53
2, 9840, Note_on_c, 0, 71, 0
2, 9840, Note_on_c, 0, 59, 0
2, 9840, Note_on_c, 0, 60, 41
2, 9840, Note_on_c, 0, 72, 49
2, 10200, Note_on_c, 0, 72, 0
2, 10200, Note_on_c, 0, 60, 0
2, 10200, Note_on_c, 0, 66, 38
2, 10200, Note_on_c, 0, 78, 45
2, 10320, Note_on_c, 0, 78, 0
2, 10320, Note_on_c, 0, 66, 0
2, 10320, Note_on_c, 0, 69, 42
2, 10320, Note_on_c, 0, 81, 50
2, 10440, Note_on_c, 0, 81, 0
2, 10440, Note_on_c, 0, 69, 0
2, 10440, Note_on_c, 0, 67, 39
2, 10440, Note_on_c, 0, 79, 46
2, 10560, Note_on_c, 0, 79, 0
2, 10560, Note_on_c, 0, 67, 0
2, 10560, Note_on_c, 0, 65, 42
2, 10560, Note_on_c, 0, 77, 50
2, 10680, Note_on_c, 0, 77, 0
2, 10680, Note_on_c, 0, 65, 0
2, 10680, Note_on_c, 0, 63, 39
2, 10680, Note_on_c, 0, 75, 46
2, 10800, Note_on_c, 0, 75, 0
2, 10800, Note_on_c, 0, 63, 0
2, 10800, Note_on_c, 0, 62, 39
2, 10800, Note_on_c, 0, 74, 46
2, 10920, Note_on_c, 0, 74, 0
2, 10920, Note_on_c, 0, 62, 0
2, 10920, Note_on_c, 0, 60, 39
2, 10920, Note_on_c, 0, 72, 46
2, 11040, Note_on_c, 0, 72, 0
2, 11040, Note_on_c, 0, 60, 0
2, 11040, Note_on_c, 0, 58, 42
2, 11040, Note_on_c, 0, 70, 50
2, 11280, Note_on_c, 0, 70, 0
2, 11280, Note_on_c, 0, 58, 0
2, 11280, Note_on_c, 0, 60, 39
2, 11280, Note_on_c, 0, 72, 47
2, 11520, Note_on_c, 0, 72, 0
2, 11520, Note_on_c, 0, 60, 0
2, 11520, Note_on_c, 0, 61, 45
2, 11520, Note_on_c, 0, 73, 53
2, 11760, Note_on_c, 0, 73, 0
2, 11760, Note_on_c, 0, 61, 0
2, 11760, Note_on_c, 0, 62, 41
2, 11760, Note_on_c, 0, 74, 49
2, 12120, Note_on_c, 0, 74, 0
2, 12120, Note_on_c, 0, 62, 0
2, 12120, Note_on_c, 0, 77, 56
2, 12240, Note_on_c, 0, 77, 0
2, 12240, Note_on_c, 0, 68, 45
2, 12240, Note_on_c, 0, 79, 63
2, 12360, Note_on_c, 0, 79, 0
2, 12360, Note_on_c, 0, 74, 57
2, 12480, Note_on_c, 0, 74, 0
2, 12480, Note_on_c, 0, 77, 62
2, 12600, Note_on_c, 0, 77, 0
2, 12600, Note_on_c, 0, 75, 58
2, 12720, Note_on_c, 0, 75, 0
2, 12720, Note_on_c, 0, 68, 0
2, 12720, Note_on_c, 0, 69, 45
2, 12720, Note_on_c, 0, 77, 63
2, 12840, Note_on_c, 0, 77, 0
2, 12840, Note_on_c, 0, 72, 58
2, 12960, Note_on_c, 0, 72, 0
2, 12960, Note_on_c, 0, 69, 0
2, 12960, Note_on_c, 0, 70, 46
2, 12960, Note_on_c, 0, 75, 64
2, 13080, Note_on_c, 0, 75, 0
2, 13080, Note_on_c, 0, 74, 59
2, 13200, Note_on_c, 0, 74, 0
2, 13200, Note_on_c, 0, 70, 0
2, 13200, Note_on_c, 0, 68, 46
2, 13200, Note_on_c, 0, 79, 67
2, 13320, Note_on_c, 0, 79, 0
2, 13320, Note_on_c, 0, 74, 59
2, 13440, Note_on_c, 0, 74, 0
2, 13440, Note_on_c, 0, 77, 71
2, 13560, Note_on_c, 0, 77, 0
2, 13560, Note_on_c, 0, 75, 64
2, 13680, Note_on_c, 0, 75, 0
2, 13680, Note_on_c, 0, 68, 0
2, 13680, Note_on_c, 0, 69, 47
2, 13680, Note_on_c, 0, 77, 71
2, 13800, Note_on_c, 0, 77, 0
2, 13800, Note_on_c, 0, 72, 63
2, 13920, Note_on_c, 0, 72, 0
2, 13920, Note_on_c, 0, 69, 0
2, 13920, Note_on_c, 0, 70, 59
2, 13920, Note_on_c, 0, 75, 71
2, 14040, Note_on_c, 0, 75, 0
2, 14040, Note_on_c, 0, 70, 0
2, 14040, Note_on_c, 0, 62, 53
2, 14040, Note_on_c, 0, 74, 63
2, 14160, Note_on_c, 0, 74, 0
2, 14160, Note_on_c, 0, 62, 0
2, 14160, Note_on_c, 0, 63, 56
2, 14160, Note_on_c, 0, 75, 67
2, 14280, Note_on_c, 0, 75, 0
2, 14280, Note_on_c, 0, 63, 0
2, 14280, Note_on_c, 0, 65, 60
2, 14280, Note_on_c, 0, 77, 71
2, 14400, Note_on_c, 0, 77, 0
2, 14400, Note_on_c, 0, 65, 0
2, 14400, Note_on_c, 0, 66, 67
2, 14400, Note_on_c, 0, 78, 80
2, 14520, Note_on_c, 0, 78, 0
2, 14520, Note_on_c, 0, 66, 0
2, 14520, Note_on_c, 0, 67, 63
2, 14520, Note_on_c, 0, 79, 75
2, 14640, Note_on_c, 0, 79, 0
2, 14640, Note_on_c, 0, 67, 0
2, 14640, Note_on_c, 0, 69, 67
2, 14640, Note_on_c, 0, 81, 80
2, 14700, Note_on_c, 0, 81, 0
2, 14700, Note_on_c, 0, 69, 0
2, 14760, Note_on_c, 0, 70, 70
2, 14760, Note_on_c, 0, 82, 83
2, 14820, Note_on_c, 0, 82, 0
2, 14820, Note_on_c, 0, 70, 0
2, 14880, Note_on_c, 0, 58, 70
2, 14880, Note_on_c, 0, 70, 70
2, 15120, Note_on_c, 0, 70, 0
2, 15120, Note_on_c, 0, 58, 0
2, 15120, Note_on_c, 0, 60, 58
2, 15120, Note_on_c, 0, 72, 69
2, 15360, Note_on_c, 0, 72, 0
2, 15360, Note_on_c, 0, 60, 0
2, 15360, Note_on_c, 0, 61, 41
2, 15360, Note_on_c, 0, 73, 49
2, 15600, Note_on_c, 0, 73, 0
2, 15600, Note_on_c, 0, 61, 0
2, 15600, Note_on_c, 0, 62, 38
2, 15600, Note_on_c, 0, 74, 45
2, 15900, Note_on_c, 0, 74, 0
2, 15900, Note_on_c, 0, 62, 0
2, 15900, Note_on_c, 0, 70, 59
2, 15960, Note_on_c, 0, 70, 0
2, 15960, Note_on_c, 0, 69, 61
2, 16020, Note_on_c, 0, 69, 0
2, 16020, Note_on_c, 0, 70, 62
2, 16080, Note_on_c, 0, 70, 0
2, 16080, Note_on_c, 0, 71, 62
2, 16140, Note_on_c, 0, 71, 0
2, 16140, Note_on_c, 0, 72, 64
2, 16200, Note_on_c, 0, 72, 0
2, 16200, Note_on_c, 0, 73, 65
2, 16260, Note_on_c, 0, 73, 0
2, 16260, Note_on_c, 0, 74, 67
2, 16320, Note_on_c, 0, 74, 0
2, 16320, Note_on_c, 0, 75, 69
2, 16380, Note_on_c, 0, 75, 0
2, 16380, Note_on_c, 0, 76, 70
2, 16440, Note_on_c, 0, 76, 0
2, 16440, Note_on_c, 0, 77, 71
2, 16500, Note_on_c, 0, 77, 0
2, 16500, Note_on_c, 0, 78, 73
2, 16560, Note_on_c, 0, 78, 0
2, 16560, Note_on_c, 0, 79, 74
2, 16620, Note_on_c, 0, 79, 0
2, 16620, Note_on_c, 0, 80, 76
2, 16680, Note_on_c, 0, 80, 0
2, 16680, Note_on_c, 0, 81, 77
2, 16740, Note_on_c, 0, 81, 0
2, 16740, Note_on_c, 0, 82, 78
2, 16800, Note_on_c, 0, 82, 0
2, 16800, Note_on_c, 0, 70, 53
2, 16848, Note_on_c, 0, 70, 0
2, 16848, Note_on_c, 0, 72, 48
2, 16896, Note_on_c, 0, 72, 0
2, 16896, Note_on_c, 0, 70, 45
2, 16944, Note_on_c, 0, 70, 0
2, 16944, Note_on_c, 0, 69, 45
2, 16992, Note_on_c, 0, 69, 0
2, 16992, Note_on_c, 0, 70, 45
2, 17040, Note_on_c, 0, 70, 0
2, 17040, Note_on_c, 0, 63, 42
2, 17040, Note_on_c, 0, 74, 52
2, 17220, Note_on_c, 0, 74, 0
2, 17220, Note_on_c, 0, 72, 41
2, 17280, Note_on_c, 0, 72, 0
2, 17280, Note_on_c, 0, 63, 0
2, 17280, Note_on_c, 0, 62, 42
2, 17280, Note_on_c, 0, 70, 50
2, 17520, Note_on_c, 0, 70, 0
2, 17520, Note_on_c, 0, 62, 0
2, 17760, Note_on_c, 0, 65, 67
2, 17760, Note_on_c, 0, 74, 80
2, 18240, Note_on_c, 0, 74, 0
2, 18240, Note_on_c, 0, 65, 0
2, 18240, Note_on_c, 0, 67, 45
2, 18240, Note_on_c, 0, 72, 53
2, 18292, Note_on_c, 0, 72, 0
2, 18292, Note_on_c, 0, 74, 50
2, 18343, Note_on_c, 0, 74, 0
2, 18343, Note_on_c, 0, 72, 53
2, 18395, Note_on_c, 0, 72, 0
2, 18395, Note_on_c, 0, 74, 50
2, 18447, Note_on_c, 0, 74, 0
2, 18447, Note_on_c, 0, 72, 53
2, 18498, Note_on_c, 0, 72, 0
2, 18498, Note_on_c, 0, 71, 49
2, 18550, Note_on_c, 0, 71, 0
2, 18550, Note_on_c, 0, 72, 49
2, 18600, Note_on_c, 0, 74, 49
2, 18601, Note_on_c, 0, 72, 0
2, 18660, Note_on_c, 0, 74, 0
2, 18660, Note_on_c, 0, 75, 50
2, 18720, Note_on_c, 0, 75, 0
2, 18720, Note_on_c, 0, 67, 0
2, 18720, Note_on_c, 0, 67, 57
2, 18960, Note_on_c, 0, 67, 0
2, 18960, Note_on_c, 0, 63, 45
2, 18960, Note_on_c, 0, 69, 54
2, 19200, Note_on_c, 0, 69, 0
2, 19200, Note_on_c, 0, 63, 0
2, 19200, Note_on_c, 0, 62, 47
2, 19200, Note_on_c, 0, 70, 56
2, 19440, Note_on_c, 0, 70, 0
2, 19440, Note_on_c, 0, 65, 46
2, 19560, Note_on_c, 0, 65, 0
2, 19680, Note_on_c, 0, 62, 0
2, 19680, Note_on_c, 0, 65, 67
2, 19680, Note_on_c, 0, 74, 80
2, 20160, Note_on_c, 0, 74, 0
2, 20160, Note_on_c, 0, 65, 0
2, 20160, Note_on_c, 0, 67, 45
2, 20160, Note_on_c, 0, 72, 63
2, 20280, Note_on_c, 0, 72, 0
2, 20280, Note_on_c, 0, 74, 56
2, 20320, Note_on_c, 0, 74, 0
2, 20320, Note_on_c, 0, 72, 56
2, 20360, Note_on_c, 0, 72, 0
2, 20360, Note_on_c, 0, 71, 56
2, 20400, Note_on_c, 0, 71, 0
2, 20400, Note_on_c, 0, 72, 63
2, 20580, Note_on_c, 0, 72, 0
2, 20580, Note_on_c, 0, 74, 58
2, 20640, Note_on_c, 0, 74, 0
2, 20640, Note_on_c, 0, 67, 0
2, 20640, Note_on_c, 0, 64, 45
2, 20640, Note_on_c, 0, 70, 63
2, 20760, Note_on_c, 0, 70, 0
2, 20760, Note_on_c, 0, 72, 56
2, 20800, Note_on_c, 0, 72, 0
2, 20800, Note_on_c, 0, 70, 56
2, 20840, Note_on_c, 0, 70, 0
2, 20840, Note_on_c, 0, 69, 56
2, 20880, Note_on_c, 0, 69, 0
2, 20880, Note_on_c, 0, 70, 63
2, 21060, Note_on_c, 0, 70, 0
2, 21060, Note_on_c, 0, 72, 58
2, 21120, Note_on_c, 0, 72, 0
2, 21120, Note_on_c, 0, 64, 0
2, 21120, Note_on_c, 0, 65, 47
2, 21120, Note_on_c, 0, 70, 56
2, 21360, Note_on_c, 0, 70, 0
2, 21360, Note_on_c, 0, 69, 46
2, 21480, Note_on_c, 0, 69, 0
2, 21600, Note_on_c, 0, 65, 0
2, 21840, Note_on_c, 0, 69, 55
2, 21900, Note_on_c, 0, 77, 64
2, 21960, Note_on_c, 0, 81, 69
2, 22320, Note_on_c, 0, 81, 0
2, 22320, Note_on_c, 0, 77, 0
2, 22320, Note_on_c, 0, 69, 0
2, 22320, Note_on_c, 0, 69, 57
2, 22380, Note_on_c, 0, 77, 68
2, 22440, Note_on_c, 0, 81, 73
2, 22800, Note_on_c, 0, 81, 0
2, 22800, Note_on_c, 0, 77, 0
2, 22800, Note_on_c, 0, 69, 0
2, 22800, Note_on_c, 0, 69, 60
2, 22860, Note_on_c, 0, 77, 71
2, 22920, Note_on_c, 0, 81, 76
2, 23280, Note_on_c, 0, 81, 0
2, 23280, Note_on_c, 0, 77, 0
2, 23280, Note_on_c, 0, 69, 0
2, 23280, Note_on_c, 0, 69, 63
2, 23340, Note_on_c, 0, 77, 74
2, 23400, Note_on_c, 0, 81, 79
2, 23520, Note_on_c, 0, 81, 0
2, 23520, Note_on_c, 0, 77, 0
2, 23520, Note_on_c, 0, 69, 0
2, 23760, Note_on_c, 0, 89, 82
2, 23760, Note_on_c, 0, 77, 69
2, 24240, Note_on_c, 0, 77, 0
2, 24240, Note_on_c, 0, 89, 0
2, 24240, Note_on_c, 0, 88, 62
2, 24240, Note_on_c, 0, 76, 52
2, 24360, Note_on_c, 0, 76, 0
2, 24360, Note_on_c, 0, 88, 0
2, 24720, Note_on_c, 0, 86, 82
2, 24720, Note_on_c, 0, 74, 69
2, 25200, Note_on_c, 0, 74, 0
2, 25200, Note_on_c, 0, 86, 0
2, 25200, Note_on_c, 0, 84, 62
2, 25200, Note_on_c, 0, 72, 52
2, 25320, Note_on_c, 0, 72, 0
2, 25320, Note_on_c, 0, 84, 0
2, 25680, Note_on_c, 0, 82, 82
2, 25680, Note_on_c, 0, 70, 69
2, 26040, Note_on_c, 0, 70, 0
2, 26040, Note_on_c, 0, 82, 0
2, 26040, Note_on_c, 0, 69, 52
2, 26040, Note_on_c, 0, 81, 62
2, 26280, Note_on_c, 0, 81, 0
2, 26280, Note_on_c, 0, 69, 0
2, 26280, Note_on_c, 0, 67, 60
2, 26280, Note_on_c, 0, 79, 60
2, 26520, Note_on_c, 0, 79, 0
2, 26520, Note_on_c, 0, 67, 0
2, 26520, Note_on_c, 0, 65, 52
2, 26520, Note_on_c, 0, 77, 62
2, 26760, Note_on_c, 0, 77, 0
2, 26760, Note_on_c, 0, 65, 0
2, 26760, Note_on_c, 0, 67, 54
2, 26760, Note_on_c, 0, 79, 58
2, 26880, Note_on_c, 0, 79, 0
2, 26880, Note_on_c, 0, 67, 0
2, 26880, Note_on_c, 0, 68, 56
2, 26880, Note_on_c, 0, 80, 66
2, 27120, Note_on_c, 0, 80, 0
2, 27120, Note_on_c, 0, 68, 0
2, 27120, Note_on_c, 0, 69, 51
2, 27120, Note_on_c, 0, 81, 60
2, 27360, Note_on_c, 0, 81, 0
2, 27360, Note_on_c, 0, 69, 0
2, 27360, Note_on_c, 0, 65, 57
2, 27360, Note_on_c, 0, 69, 57
2, 27600, Note_on_c, 0, 69, 0
2, 27600, Note_on_c, 0, 71, 49
2, 28080, Note_on_c, 0, 71, 0
2, 28080, Note_on_c, 0, 65, 0
2, 28080, Note_on_c, 0, 72, 62
2, 28080, Note_on_c, 0, 64, 52
2, 28200, Note_on_c, 0, 64, 0
2, 28200, Note_on_c, 0, 72, 0
2, 28320, Note_on_c, 0, 62, 57
2, 28320, Note_on_c, 0, 65, 57
2, 28560, Note_on_c, 0, 65, 0
2, 28560, Note_on_c, 0, 67, 49
2, 28800, Note_on_c, 0, 67, 0
2, 28800, Note_on_c, 0, 68, 53
2, 29040, Note_on_c, 0, 68, 0
2, 29040, Note_on_c, 0, 62, 0
2, 29040, Note_on_c, 0, 69, 62
2, 29040, Note_on_c, 0, 60, 52
2, 29160, Note_on_c, 0, 60, 0
2, 29160, Note_on_c, 0, 69, 0
2, 29280, Note_on_c, 0, 58, 57
2, 29280, Note_on_c, 0, 62, 57
2, 29520, Note_on_c, 0, 62, 0
2, 29520, Note_on_c, 0, 64, 49
2, 29760, Note_on_c, 0, 64, 0
2, 29760, Note_on_c, 0, 65, 53
2, 29880, Note_on_c, 0, 65, 0
2, 29880, Note_on_c, 0, 58, 0
2, 29880, Note_on_c, 0, 57, 57
2, 30120, Note_on_c, 0, 57, 0
2, 30120, Note_on_c, 0, 55, 62
2, 30360, Note_on_c, 0, 55, 0
2, 30360, Note_on_c, 0, 53, 67
2, 30600, Note_on_c, 0, 53, 0
2, 30600, Note_on_c, 0, 52, 72
2, 30720, Note_on_c, 0, 52, 0
2, 30720, Note_on_c, 0, 53, 70
2, 30780, Note_on_c, 0, 53, 0
2, 30780, Note_on_c, 0, 45, 50
2, 30840, Note_on_c, 0, 45, 0
2, 30840, Note_on_c, 0, 48, 50
2, 30900, Note_on_c, 0, 48, 0
2, 30900, Note_on_c, 0, 53, 50
2, 30960, Note_on_c, 0, 53, 0
2, 30960, Note_on_c, 0, 57, 53
2, 31020, Note_on_c, 0, 57, 0
2, 31020, Note_on_c, 0, 60, 50
2, 31080, Note_on_c, 0, 60, 0
2, 31080, Note_on_c, 0, 65, 50
2, 31140, Note_on_c, 0, 65, 0
2, 31140, Note_on_c, 0, 69, 50
2, 31200, Note_on_c, 0, 69, 0
2, 31200, Note_on_c, 0, 60, 55
2, 31260, Note_on_c, 0, 60, 0
2, 31260, Note_on_c, 0, 65, 50
2, 31320, Note_on_c, 0, 65, 0
2, 31320, Note_on_c, 0, 69, 50
2, 31380, Note_on_c, 0, 69, 0
2, 31380, Note_on_c, 0, 72, 50
2, 31440, Note_on_c, 0, 72, 0
2, 31440, Note_on_c, 0, 65, 55
2, 31500, Note_on_c, 0, 65, 0
2, 31500, Note_on_c, 0, 69, 50
2, 31560, Note_on_c, 0, 69, 0
2, 31560, Note_on_c, 0, 72, 50
2, 31620, Note_on_c, 0, 72, 0
2, 31620, Note_on_c, 0, 77, 50
2, 31680, Note_on_c, 0, 77, 0
2, 31680, Note_on_c, 0, 76, 74
2, 31740, Note_on_c, 0, 76, 0
2, 31740, Note_on_c, 0, 82, 50
2, 31800, Note_on_c, 0, 82, 0
2, 31800, Note_on_c, 0, 79, 50
2, 31860, Note_on_c, 0, 79, 0
2, 31860, Note_on_c, 0, 76, 50
2, 31920, Note_on_c, 0, 76, 0
2, 31920, Note_on_c, 0, 72, 54
2, 31980, Note_on_c, 0, 72, 0
2, 31980, Note_on_c, 0, 79, 50
2, 32040, Note_on_c, 0, 79, 0
2, 32040, Note_on_c, 0, 76, 50
2, 32100, Note_on_c, 0, 76, 0
2, 32100, Note_on_c, 0, 72, 50
2, 32160, Note_on_c, 0, 72, 0
2, 32160, Note_on_c, 0, 70, 56
2, 32220, Note_on_c, 0, 70, 0
2, 32220, Note_on_c, 0, 76, 50
2, 32280, Note_on_c, 0, 76, 0
2, 32280, Note_on_c, 0, 72, 50
2, 32340, Note_on_c, 0, 72, 0
2, 32340, Note_on_c, 0, 70, 50
2, 32400, Note_on_c, 0, 70, 0
2, 32400, Note_on_c, 0, 67, 54
2, 32460, Note_on_c, 0, 67, 0
2, 32460, Note_on_c, 0, 72, 50
2, 32520, Note_on_c, 0, 72, 0
2, 32520, Note_on_c, 0, 70, 50
2, 32580, Note_on_c, 0, 70, 0
2, 32580, Note_on_c, 0, 67, 50
2, 32640, Note_on_c, 0, 67, 0
2, 32640, Note_on_c, 0, 65, 70
2, 32700, Note_on_c, 0, 65, 0
2, 32700, Note_on_c, 0, 57, 50
2, 32760, Note_on_c, 0, 57, 0
2, 32760, Note_on_c, 0, 60, 50
2, 32820, Note_on_c, 0, 60, 0
2, 32820, Note_on_c, 0, 65, 50
2, 32880, Note_on_c, 0, 65, 0
2, 32880, Note_on_c, 0, 69, 53
2, 32940, Note_on_c, 0, 69, 0
2, 32940, Note_on_c, 0, 72, 50
2, 33000, Note_on_c, 0, 72, 0
2, 33000, Note_on_c, 0, 77, 50
2, 33060, Note_on_c, 0, 77, 0
2, 33060, Note_on_c, 0, 81, 50
2, 33120, Note_on_c, 0, 81, 0
2, 33120, Note_on_c, 0, 72, 55
2, 33180, Note_on_c, 0, 72, 0
2, 33180, Note_on_c, 0, 77, 50
2, 33240, Note_on_c, 0, 77, 0
2, 33240, Note_on_c, 0, 81, 50
2, 33300, Note_on_c, 0, 81, 0
2, 33300, Note_on_c, 0, 84, 50
2, 33360, Note_on_c, 0, 84, 0
2, 33360, Note_on_c, 0, 77, 55
2, 33420, Note_on_c, 0, 77, 0
2, 33420, Note_on_c, 0, 81, 50
2, 33480, Note_on_c, 0, 81, 0
2, 33480, Note_on_c, 0, 84, 50
2, 33540, Note_on_c, 0, 84, 0
2, 33540, Note_on_c, 0, 89, 50
2, 33600, Note_on_c, 0, 89, 0
2, 33600, Note_on_c, 0, 82, 74
2, 33660, Note_on_c, 0, 82, 0
2, 33660, Note_on_c, 0, 88, 50
2, 33720, Note_on_c, 0, 88, 0
2, 33720, Note_on_c, 0, 84, 50
2, 33780, Note_on_c, 0, 84, 0
2, 33780, Note_on_c, 0, 82, 50
2, 33840, Note_on_c, 0, 82, 0
2, 33840, Note_on_c, 0, 79, 54
2, 33900, Note_on_c, 0, 79, 0
2, 33900, Note_on_c, 0, 84, 50
2, 33960, Note_on_c, 0, 84, 0
2, 33960, Note_on_c, 0, 82, 50
2, 34020, Note_on_c, 0, 82, 0
2, 34020, Note_on_c, 0, 79, 50
2, 34080, Note_on_c, 0, 79, 0
2, 34080, Note_on_c, 0, 76, 56
2, 34140, Note_on_c, 0, 76, 0
2, 34140, Note_on_c, 0, 82, 50
2, 34200, Note_on_c, 0, 82, 0
2, 34200, Note_on_c, 0, 79, 50
2, 34260, Note_on_c, 0, 79, 0
2, 34260, Note_on_c, 0, 76, 50
2, 34320, Note_on_c, 0, 76, 0
2, 34320, Note_on_c, 0, 70, 54
2, 34380, Note_on_c, 0, 70, 0
2, 34380, Note_on_c, 0, 79, 50
2, 34440, Note_on_c, 0, 79, 0
2, 34440, Note_on_c, 0, 76, 50
2, 34500, Note_on_c, 0, 76, 0
2, 34500, Note_on_c, 0, 70, 50
2, 34560, Note_on_c, 0, 70, 0
2, 34560, Note_on_c, 0, 65, 77
2, 34620, Note_on_c, 0, 65, 0
2, 34620, Note_on_c, 0, 57, 55
2, 34680, Note_on_c, 0, 57, 0
2, 34680, Note_on_c, 0, 60, 55
2, 34740, Note_on_c, 0, 60, 0
2, 34740, Note_on_c, 0, 65, 55
2, 34800, Note_on_c, 0, 65, 0
2, 34800, Note_on_c, 0, 69, 58
2, 34860, Note_on_c, 0, 69, 0
2, 34860, Note_on_c, 0, 72, 55
2, 34920, Note_on_c, 0, 72, 0
2, 34920, Note_on_c, 0, 77, 55
2, 34980, Note_on_c, 0, 77, 0
2, 34980, Note_on_c, 0, 81, 55
2, 35040, Note_on_c, 0, 81, 0
2, 35040, Note_on_c, 0, 72, 61
2, 35100, Note_on_c, 0, 72, 0
2, 35100, Note_on_c, 0, 77, 55
2, 35160, Note_on_c, 0, 77, 0
2, 35160, Note_on_c, 0, 81, 56
2, 35220, Note_on_c, 0, 81, 0
2, 35220, Note_on_c, 0, 84, 56
2, 35280, Note_on_c, 0, 84, 0
2, 35280, Note_on_c, 0, 77, 61
2, 35340, Note_on_c, 0, 77, 0
2, 35340, Note_on_c, 0, 81, 56
2, 35400, Note_on_c, 0, 81, 0
2, 35400, Note_on_c, 0, 84, 56
2, 35460, Note_on_c, 0, 84, 0
2, 35460, Note_on_c, 0, 89, 56
2, 35520, Note_on_c, 0, 89, 0
2, 35580, Note_on_c, 0, 57, 62
2, 35640, Note_on_c, 0, 57, 0
2, 35640, Note_on_c, 0, 60, 62
2, 35700, Note_on_c, 0, 60, 0
2, 35700, Note_on_c, 0, 65, 62
2, 35760, Note_on_c, 0, 65, 0
2, 35760, Note_on_c, 0, 69, 66
2, 35820, Note_on_c, 0, 69, 0
2, 35820, Note_on_c, 0, 72, 62
2, 35880, Note_on_c, 0, 72, 0
2, 35880, Note_on_c, 0, 77, 62
2, 35940, Note_on_c, 0, 77, 0
2, 35940, Note_on_c, 0, 81, 62
2, 36000, Note_on_c, 0, 81, 0
2, 36000, Note_on_c, 0, 72, 69
2, 36060, Note_on_c, 0, 72, 0
2, 36060, Note_on_c, 0, 77, 63
2, 36120, Note_on_c, 0, 77, 0
2, 36120, Note_on_c, 0, 81, 63
2, 36180, Note_on_c, 0, 81, 0
2, 36180, Note_on_c, 0, 84, 63
2, 36240, Note_on_c, 0, 84, 0
2, 36240, Note_on_c, 0, 77, 69
2, 36300, Note_on_c, 0, 77, 0
2, 36300, Note_on_c, 0, 81, 63
2, 36360, Note_on_c, 0, 81, 0
2, 36360, Note_on_c, 0, 84, 63
2, 36420, Note_on_c, 0, 84, 0
2, 36420, Note_on_c, 0, 89, 63
2, 36480, Note_on_c, 0, 89, 0
2, 36540, Note_on_c, 0, 58, 63
2, 36600, Note_on_c, 0, 58, 0
2, 36600, Note_on_c, 0, 61, 70
2, 36660, Note_on_c, 0, 61, 0
2, 36660, Note_on_c, 0, 65, 70
2, 36720, Note_on_c, 0, 65, 0
2, 36720, Note_on_c, 0, 70, 73
2, 36780, Note_on_c, 0, 70, 0
2, 36780, Note_on_c, 0, 73, 70
2, 36840, Note_on_c, 0, 73, 0
2, 36840, Note_on_c, 0, 77, 70
2, 36900, Note_on_c, 0, 77, 0
2, 36900, Note_on_c, 0, 82, 70
2, 36960, Note_on_c, 0, 82, 0
2, 36960, Note_on_c, 0, 73, 77
2, 37020, Note_on_c, 0, 73, 0
2, 37020, Note_on_c, 0, 77, 70
2, 37080, Note_on_c, 0, 77, 0
2, 37080, Note_on_c, 0, 82, 70
2, 37140, Note_on_c, 0, 82, 0
2, 37140, Note_on_c, 0, 85, 70
2, 37200, Note_on_c, 0, 85, 0
2, 37200, Note_on_c, 0, 77, 78
2, 37260, Note_on_c, 0, 77, 0
2, 37260, Note_on_c, 0, 82, 71
2, 37320, Note_on_c, 0, 82, 0
2, 37320, Note_on_c, 0, 85, 71
2, 37380, Note_on_c, 0, 85, 0
2, 37380, Note_on_c, 0, 89, 71
2, 37440, Note_on_c, 0, 89, 0
2, 37440, Note_on_c, 0, 76, 79
2, 37500, Note_on_c, 0, 76, 0
2, 37500, Note_on_c, 0, 88, 70
2, 37560, Note_on_c, 0, 88, 0
2, 37560, Note_on_c, 0, 85, 70
2, 37620, Note_on_c, 0, 85, 0
2, 37620, Note_on_c, 0, 82, 70
2, 37680, Note_on_c, 0, 82, 0
2, 37680, Note_on_c, 0, 76, 80
2, 37740, Note_on_c, 0, 76, 0
2, 37740, Note_on_c, 0, 73, 68
2, 37800, Note_on_c, 0, 73, 0
2, 37800, Note_on_c, 0, 70, 70
2, 37860, Note_on_c, 0, 70, 0
2, 37860, Note_on_c, 0, 64, 70
2, 37920, Note_on_c, 0, 64, 0
2, 37920, Note_on_c, 0, 61, 79
2, 37980, Note_on_c, 0, 61, 0
2, 37980, Note_on_c, 0, 63, 68
2, 38040, Note_on_c, 0, 63, 0
2, 38040, Note_on_c, 0, 61, 69
2, 38100, Note_on_c, 0, 61, 0
2, 38100, Note_on_c, 0, 60, 69
2, 38160, Note_on_c, 0, 60, 0
2, 38160, Note_on_c, 0, 58, 78
2, 38220, Note_on_c, 0, 58, 0
2, 38220, Note_on_c, 0, 61, 72
2, 38280, Note_on_c, 0, 61, 0
2, 38280, Note_on_c, 0, 60, 76
2, 38340, Note_on_c, 0, 60, 0
2, 38340, Note_on_c, 0, 58, 81
2, 38400, Note_on_c, 0, 58, 0
2, 38400, Note_on_c, 0, 57, 86
2, 38640, Note_on_c, 0, 57, 0
2, 39960, Note_on_c, 0, 60, 40
2, 40080, Note_on_c, 0, 60, 0
2, 40080, Note_on_c, 0, 62, 45
2, 40200, Note_on_c, 0, 62, 0
2, 40200, Note_on_c, 0, 60, 41
2, 40320, Note_on_c, 0, 60, 0
2, 40320, Note_on_c, 0, 58, 45
2, 40440, Note_on_c, 0, 58, 0
2, 40440, Note_on_c, 0, 57, 40
2, 40560, Note_on_c, 0, 57, 0
2, 40560, Note_on_c, 0, 55, 43
2, 40680, Note_on_c, 0, 55, 0
2, 40680, Note_on_c, 0, 53, 40
2, 40770, Note_on_c, 0, 53, 0
2, 40800, Note_on_c, 0, 53, 45
2, 41040, Note_on_c, 0, 53, 0
2, 41880, Note_on_c, 0, 63, 38
2, 41920, Note_on_c, 0, 63, 0
2, 41920, Note_on_c, 0, 65, 40
2, 41960, Note_on_c, 0, 65, 0
2, 41960, Note_on_c, 0, 63, 38
2, 42000, Note_on_c, 0, 63, 0
2, 42000, Note_on_c, 0, 65, 45
2, 42120, Note_on_c, 0, 65, 0
2, 42120, Note_on_c, 0, 63, 41
2, 42240, Note_on_c, 0, 63, 0
2, 42240, Note_on_c, 0, 62, 45
2, 42360, Note_on_c, 0, 62, 0
2, 42360, Note_on_c, 0, 60, 40
2, 42480, Note_on_c, 0, 60, 0
2, 42480, Note_on_c, 0, 58, 43
2, 42600, Note_on_c, 0, 58, 0
2, 42600, Note_on_c, 0, 57, 40
2, 42690, Note_on_c, 0, 57, 0
2, 42720, Note_on_c, 0, 57, 45
2, 42960, Note_on_c, 0, 57, 0
2, 43080, Note_on_c, 0, 72, 44
2, 43200, Note_on_c, 0, 72, 0
2, 43200, Note_on_c, 0, 74, 49
2, 43320, Note_on_c, 0, 74, 0
2, 43320, Note_on_c, 0, 72, 45
2, 43440, Note_on_c, 0, 72, 0
2, 43440, Note_on_c, 0, 70, 49
2, 43560, Note_on_c, 0, 70, 0
2, 43560, Note_on_c, 0, 69, 44
2, 43680, Note_on_c, 0, 69, 0
2, 43680, Note_on_c, 0, 67, 47
2, 43800, Note_on_c, 0, 67, 0
2, 43800, Note_on_c, 0, 65, 44
2, 43890, Note_on_c, 0, 65, 0
2, 44040, Note_on_c, 0, 75, 44
2, 44160, Note_on_c, 0, 75, 0
2, 44160, Note_on_c, 0, 77, 49
2, 44280, Note_on_c, 0, 77, 0
2, 44280, Note_on_c, 0, 75, 45
2, 44400, Note_on_c, 0, 75, 0
2, 44400, Note_on_c, 0, 74, 49
2, 44520, Note_on_c, 0, 74, 0
2, 44520, Note_on_c, 0, 72, 44
2, 44640, Note_on_c, 0, 72, 0
2, 44640, Note_on_c, 0, 70, 47
2, 44760, Note_on_c, 0, 70, 0
2, 44760, Note_on_c, 0, 69, 44
2, 44880, Note_on_c, 0, 69, 0
2, 44880, Note_on_c, 0, 77, 49
2, 45000, Note_on_c, 0, 77, 0
2, 45000, Note_on_c, 0, 75, 47
2, 45120, Note_on_c, 0, 75, 0
2, 45120, Note_on_c, 0, 74, 47
2, 45240, Note_on_c, 0, 74, 0
2, 45240, Note_on_c, 0, 72, 47
2, 45360, Note_on_c, 0, 72, 0
2, 45360, Note_on_c, 0, 70, 44
2, 45480, Note_on_c, 0, 70, 0
2, 45480, Note_on_c, 0, 69, 44
2, 45600, Note_on_c, 0, 69, 0
2, 45600, Note_on_c, 0, 77, 53
2, 45720, Note_on_c, 0, 77, 0
2, 45720, Note_on_c, 0, 75, 49
2, 45840, Note_on_c, 0, 75, 0
2, 45840, Note_on_c, 0, 74, 46
2, 45960, Note_on_c, 0, 74, 0
2, 45960, Note_on_c, 0, 72, 46
2, 46080, Note_on_c, 0, 72, 0
2, 46080, Note_on_c, 0, 70, 49
2, 46160, Note_on_c, 0, 70, 0
2, 46160, Note_on_c, 0, 69, 49
2, 46240, Note_on_c, 0, 69, 0
2, 46240, Note_on_c, 0, 77, 54
2, 46320, Note_on_c, 0, 77, 0
2, 46320, Note_on_c, 0, 75, 49
2, 46400, Note_on_c, 0, 75, 0
2, 46400, Note_on_c, 0, 74, 49
2, 46480, Note_on_c, 0, 74, 0
2, 46480, Note_on_c, 0, 72, 49
2, 46560, Note_on_c, 0, 72, 0
2, 46560, Note_on_c, 0, 70, 49
2, 46620, Note_on_c, 0, 70, 0
2, 46620, Note_on_c, 0, 69, 49
2, 46680, Note_on_c, 0, 69, 0
2, 46680, Note_on_c, 0, 77, 58
2, 46740, Note_on_c, 0, 77, 0
2, 46740, Note_on_c, 0, 75, 50
2, 46800, Note_on_c, 0, 75, 0
2, 46800, Note_on_c, 0, 74, 50
2, 46860, Note_on_c, 0, 74, 0
2, 46860, Note_on_c, 0, 72, 50
2, 46920, Note_on_c, 0, 72, 0
2, 46920, Note_on_c, 0, 70, 50
2, 46980, Note_on_c, 0, 70, 0
2, 46980, Note_on_c, 0, 69, 50
2, 47040, Note_on_c, 0, 69, 0
2, 47040, Note_on_c, 0, 77, 59
2, 47100, Note_on_c, 0, 77, 0
2, 47100, Note_on_c, 0, 75, 52
2, 47160, Note_on_c, 0, 75, 0
2, 47160, Note_on_c, 0, 74, 52
2, 47220, Note_on_c, 0, 74, 0
2, 47220, Note_on_c, 0, 72, 52
2, 47280, Note_on_c, 0, 72, 0
2, 47280, Note_on_c, 0, 70, 52
2, 47340, Note_on_c, 0, 70, 0
2, 47340, Note_on_c, 0, 69, 52
2, 47400, Note_on_c, 0, 69, 0
2, 47400, Note_on_c, 0, 78, 61
2, 47460, Note_on_c, 0, 78, 0
2, 47460, Note_on_c, 0, 77, 55
2, 47520, Note_on_c, 0, 77, 0
2, 47520, Note_on_c, 0, 75, 56
2, 47568, Note_on_c, 0, 75, 0
2, 47568, Note_on_c, 0, 74, 57
2, 47616, Note_on_c, 0, 74, 0
2, 47616, Note_on_c, 0, 72, 58
2, 47664, Note_on_c, 0, 72, 0
2, 47664, Note_on_c, 0, 70, 58
2, 47712, Note_on_c, 0, 70, 0
2, 47712, Note_on_c, 0, 69, 59
2, 47760, Note_on_c, 0, 69, 0
2, 47760, Note_on_c, 0, 79, 50
2, 47880, Note_on_c, 0, 79, 0
2, 47880, Note_on_c, 0, 77, 46
2, 48000, Note_on_c, 0, 77, 0
2, 48000, Note_on_c, 0, 75, 50
2, 48120, Note_on_c, 0, 75, 0
2, 48120, Note_on_c, 0, 74, 46
2, 48240, Note_on_c, 0, 74, 0
2, 48240, Note_on_c, 0, 72, 46
2, 48360, Note_on_c, 0, 72, 0
2, 48360, Note_on_c, 0, 70, 46
2, 48480, Note_on_c, 0, 70, 0
2, 48480, Note_on_c, 0, 69, 50
2, 48720, Note_on_c, 0, 69, 0
2, 48720, Note_on_c, 0, 70, 47
2, 48960, Note_on_c, 0, 70, 0
2, 48960, Note_on_c, 0, 71, 53
2, 49200, Note_on_c, 0, 71, 0
2, 49200, Note_on_c, 0, 72, 49
2, 49440, Note_on_c, 0, 72, 0
2, 49560, Note_on_c, 0, 78, 45
2, 49680, Note_on_c, 0, 78, 0
2, 49680, Note_on_c, 0, 81, 50
2, 49800, Note_on_c, 0, 81, 0
2, 49800, Note_on_c, 0, 79, 46
2, 49920, Note_on_c, 0, 79, 0
2, 49920, Note_on_c, 0, 77, 50
2, 50040, Note_on_c, 0, 77, 0
2, 50040, Note_on_c, 0, 75, 44
2, 50160, Note_on_c, 0, 75, 0
2, 50160, Note_on_c, 0, 74, 46
2, 50280, Note_on_c, 0, 74, 0
2, 50280, Note_on_c, 0, 72, 44
2, 50400, Note_on_c, 0, 72, 0
2, 50400, Note_on_c, 0, 69, 50
2, 50520, Note_on_c, 0, 69, 0
2, 50520, Note_on_c, 0, 70, 41
2, 50640, Note_on_c, 0, 70, 0
2, 50640, Note_on_c, 0, 71, 47
2, 50760, Note_on_c, 0, 71, 0
2, 50760, Note_on_c, 0, 72, 44
2, 50880, Note_on_c, 0, 72, 0
2, 50880, Note_on_c, 0, 73, 58
2, 51120, Note_on_c, 0, 73, 0
2, 51120, Note_on_c, 0, 74, 53
2, 51480, Note_on_c, 0, 74, 0
2, 51480, Note_on_c, 0, 77, 56
2, 51600, Note_on_c, 0, 77, 0
2, 51600, Note_on_c, 0, 79, 64
2, 51720, Note_on_c, 0, 79, 0
2, 51720, Note_on_c, 0, 74, 58
2, 51840, Note_on_c, 0, 74, 0
2, 51840, Note_on_c, 0, 77, 62
2, 51960, Note_on_c, 0, 77, 0
2, 51960, Note_on_c, 0, 75, 58
2, 52080, Note_on_c, 0, 75, 0
2, 52080, Note_on_c, 0, 77, 64
2, 52200, Note_on_c, 0, 77, 0
2, 52200, Note_on_c, 0, 72, 58
2, 52320, Note_on_c, 0, 72, 0
2, 52320, Note_on_c, 0, 75, 64
2, 52440, Note_on_c, 0, 75, 0
2, 52440, Note_on_c, 0, 74, 59
2, 52560, Note_on_c, 0, 74, 0
2, 52560, Note_on_c, 0, 79, 67
2, 52680, Note_on_c, 0, 79, 0
2, 52680, Note_on_c, 0, 74, 59
2, 52800, Note_on_c, 0, 74, 0
2, 52800, Note_on_c, 0, 77, 71
2, 52920, Note_on_c, 0, 77, 0
2, 52920, Note_on_c, 0, 75, 64
2, 53040, Note_on_c, 0, 75, 0
2, 53040, Note_on_c, 0, 77, 71
2, 53160, Note_on_c, 0, 77, 0
2, 53160, Note_on_c, 0, 72, 62
2, 53280, Note_on_c, 0, 72, 0
2, 53280, Note_on_c, 0, 74, 70
2, 53400, Note_on_c, 0, 74, 0
2, 53400, Note_on_c, 0, 75, 60
2, 53520, Note_on_c, 0, 75, 0
2, 53520, Note_on_c, 0, 76, 62
2, 53640, Note_on_c, 0, 76, 0
2, 53640, Note_on_c, 0, 77, 64
2, 53760, Note_on_c, 0, 77, 0
2, 53760, Note_on_c, 0, 78, 70
2, 53880, Note_on_c, 0, 78, 0
2, 53880, Note_on_c, 0, 79, 66
2, 54000, Note_on_c, 0, 79, 0
2, 54000, Note_on_c, 0, 81, 69
2, 54120, Note_on_c, 0, 81, 0
2, 54120, Note_on_c, 0, 82, 70
2, 54240, Note_on_c, 0, 82, 0
2, 54240, Note_on_c, 0, 84, 71
2, 54360, Note_on_c, 0, 84, 0
2, 54360, Note_on_c, 0, 85, 76
2, 54480, Note_on_c, 0, 85, 0
2, 54480, Note_on_c, 0, 86, 81
2, 54600, Note_on_c, 0, 86, 0
2, 54600, Note_on_c, 0, 76, 64
2, 54720, Note_on_c, 0, 76, 0
2, 54720, Note_on_c, 0, 79, 58
2, 54960, Note_on_c, 0, 79, 0
2, 54960, Note_on_c, 0, 77, 53
2, 55200, Note_on_c, 0, 77, 0
2, 55320, Note_on_c, 0, 65, 38
2, 55320, Note_on_c, 0, 77, 45
2, 55440, Note_on_c, 0, 77, 0
2, 55440, Note_on_c, 0, 65, 0
2, 55440, Note_on_c, 0, 67, 42
2, 55440, Note_on_c, 0, 79, 50
2, 55560, Note_on_c, 0, 79, 0
2, 55560, Note_on_c, 0, 67, 0
2, 55560, Note_on_c, 0, 65, 39
2, 55560, Note_on_c, 0, 77, 46
2, 55680, Note_on_c, 0, 77, 0
2, 55680, Note_on_c, 0, 65, 0
2, 55680, Note_on_c, 0, 63, 42
2, 55680, Note_on_c, 0, 75, 50
2, 55800, Note_on_c, 0, 75, 0
2, 55800, Note_on_c, 0, 63, 0
2, 55800, Note_on_c, 0, 62, 39
2, 55800, Note_on_c, 0, 74, 46
2, 55920, Note_on_c, 0, 74, 0
2, 55920, Note_on_c, 0, 62, 0
2, 55920, Note_on_c, 0, 60, 39
2, 55920, Note_on_c, 0, 72, 46
2, 56040, Note_on_c, 0, 72, 0
2, 56040, Note_on_c, 0, 60, 0
2, 56040, Note_on_c, 0, 58, 39
2, 56040, Note_on_c, 0, 70, 46
2, 56160, Note_on_c, 0, 70, 0
2, 56160, Note_on_c, 0, 58, 0
2, 56160, Note_on_c, 0, 57, 42
2, 56160, Note_on_c, 0, 69, 42
2, 56400, Note_on_c, 0, 69, 0
2, 56400, Note_on_c, 0, 57, 0
2, 56400, Note_on_c, 0, 58, 39
2, 56400, Note_on_c, 0, 70, 47
2, 56640, Note_on_c, 0, 70, 0
2, 56640, Note_on_c, 0, 58, 0
2, 56640, Note_on_c, 0, 59, 45
2, 56640, Note_on_c, 0, 71, 53
2, 56880, Note_on_c, 0, 71, 0
2, 56880, Note_on_c, 0, 59, 0
2, 56880, Note_on_c, 0, 60, 41
2, 56880, Note_on_c, 0, 72, 49
2, 57240, Note_on_c, 0, 72, 0
2, 57240, Note_on_c, 0, 60, 0
2, 57240, Note_on_c, 0, 66, 38
2, 57240, Note_on_c, 0, 78, 45
2, 57360, Note_on_c, 0, 78, 0
2, 57360, Note_on_c, 0, 66, 0
2, 57360, Note_on_c, 0, 69, 42
2, 57360, Note_on_c, 0, 81, 50
2, 57480, Note_on_c, 0, 81, 0
2, 57480, Note_on_c, 0, 69, 0
2, 57480, Note_on_c, 0, 67, 39
2, 57480, Note_on_c, 0, 79, 46
2, 57600, Note_on_c, 0, 79, 0
2, 57600, Note_on_c, 0, 67, 0
2, 57600, Note_on_c, 0, 65, 42
2, 57600, Note_on_c, 0, 77, 50
2, 57720, Note_on_c, 0, 77, 0
2, 57720, Note_on_c, 0, 65, 0
2, 57720, Note_on_c, 0, 63, 43
2, 57720, Note_on_c, 0, 75, 43
2, 57840, Note_on_c, 0, 75, 0
2, 57840, Note_on_c, 0, 63, 0
2, 57840, Note_on_c, 0, 62, 39
2, 57840, Note_on_c, 0, 74, 46
2, 57960, Note_on_c, 0, 74, 0
2, 57960, Note_on_c, 0, 62, 0
2, 57960, Note_on_c, 0, 60, 43
2, 57960, Note_on_c, 0, 72, 43
2, 58080, Note_on_c, 0, 72, 0
2, 58080, Note_on_c, 0, 60, 0
2, 58080, Note_on_c, 0, 57, 42
2, 58080, Note_on_c, 0, 69, 50
2, 58200, Note_on_c, 0, 69, 0
2, 58200, Note_on_c, 0, 57, 0
2, 58200, Note_on_c, 0, 58, 44
2, 58200, Note_on_c, 0, 70, 44
2, 58320, Note_on_c, 0, 70, 0
2, 58320, Note_on_c, 0, 58, 0
2, 58320, Note_on_c, 0, 59, 39
2, 58320, Note_on_c, 0, 71, 47
2, 58440, Note_on_c, 0, 71, 0
2, 58440, Note_on_c, 0, 59, 0
2, 58440, Note_on_c, 0, 60, 45
2, 58440, Note_on_c, 0, 72, 45
2, 58560, Note_on_c, 0, 72, 0
2, 58560, Note_on_c, 0, 60, 0
2, 58560, Note_on_c, 0, 61, 45
2, 58560, Note_on_c, 0, 73, 53
2, 58800, Note_on_c, 0, 73, 0
2, 58800, Note_on_c, 0, 61, 0
2, 58800, Note_on_c, 0, 62, 41
2, 58800, Note_on_c, 0, 74, 49
2, 59160, Note_on_c, 0, 74, 0
2, 59160, Note_on_c, 0, 62, 0
2, 59160, Note_on_c, 0, 77, 56
2, 59280, Note_on_c, 0, 77, 0
2, 59280, Note_on_c, 0, 68, 45
2, 59280, Note_on_c, 0, 79, 63
2, 59400, Note_on_c, 0, 79, 0
2, 59400, Note_on_c, 0, 74, 57
2, 59520, Note_on_c, 0, 74, 0
2, 59520, Note_on_c, 0, 77, 62
2, 59640, Note_on_c, 0, 77, 0
2, 59640, Note_on_c, 0, 75, 58
2, 59760, Note_on_c, 0, 75, 0
2, 59760, Note_on_c, 0, 68, 0
2, 59760, Note_on_c, 0, 69, 45
2, 59760, Note_on_c, 0, 77, 63
2, 59880, Note_on_c, 0, 77, 0
2, 59880, Note_on_c, 0, 72, 58
2, 60000, Note_on_c, 0, 72, 0
2, 60000, Note_on_c, 0, 69, 0
2, 60000, Note_on_c, 0, 70, 46
2, 60000, Note_on_c, 0, 75, 64
2, 60120, Note_on_c, 0, 75, 0
2, 60120, Note_on_c, 0, 74, 59
2, 60240, Note_on_c, 0, 74, 0
2, 60240, Note_on_c, 0, 70, 0
2, 60240, Note_on_c, 0, 68, 46
2, 60240, Note_on_c, 0, 79, 67
2, 60360, Note_on_c, 0, 79, 0
2, 60360, Note_on_c, 0, 74, 59
2, 60480, Note_on_c, 0, 74, 0
2, 60480, Note_on_c, 0, 77, 71
2, 60600, Note_on_c, 0, 77, 0
2, 60600, Note_on_c, 0, 75, 64
2, 60720, Note_on_c, 0, 75, 0
2, 60720, Note_on_c, 0, 68, 0
2, 60720, Note_on_c, 0, 69, 47
2, 60720, Note_on_c, 0, 77, 71
2, 60840, Note_on_c, 0, 77, 0
2, 60840, Note_on_c, 0, 72, 63
2, 60960, Note_on_c, 0, 72, 0
2, 60960, Note_on_c, 0, 69, 0
2, 60960, Note_on_c, 0, 70, 59
2, 60960, Note_on_c, 0, 75, 71
2, 61080, Note_on_c, 0, 75, 0
2, 61080, Note_on_c, 0, 70, 0
2, 61080, Note_on_c, 0, 62, 53
2, 61080, Note_on_c, 0, 74, 63
2, 61200, Note_on_c, 0, 74, 0
2, 61200, Note_on_c, 0, 62, 0
2, 61200, Note_on_c, 0, 63, 56
2, 61200, Note_on_c, 0, 75, 67
2, 61320, Note_on_c, 0, 75, 0
2, 61320, Note_on_c, 0, 63, 0
2, 61320, Note_on_c, 0, 65, 60
2, 61320, Note_on_c, 0, 77, 71
2, 61440, Note_on_c, 0, 77, 0
2, 61440, Note_on_c, 0, 65, 0
2, 61440, Note_on_c, 0, 66, 64
2, 61440, Note_on_c, 0, 78, 76
2, 61560, Note_on_c, 0, 78, 0
2, 61560, Note_on_c, 0, 66, 0
2, 61560, Note_on_c, 0, 67, 61
2, 61560, Note_on_c, 0, 79, 72
2, 61680, Note_on_c, 0, 79, 0
2, 61680, Note_on_c, 0, 67, 0
2, 61680, Note_on_c, 0, 69, 64
2, 61680, Note_on_c, 0, 81, 76
2, 61740, Note_on_c, 0, 81, 0
2, 61740, Note_on_c, 0, 69, 0
2, 61800, Note_on_c, 0, 70, 67
2, 61800, Note_on_c, 0, 82, 80
2, 61860, Note_on_c, 0, 82, 0
2, 61860, Note_on_c, 0, 70, 0
2, 61920, Note_on_c, 0, 58, 71
2, 61920, Note_on_c, 0, 70, 71
2, 62160, Note_on_c, 0, 70, 0
2, 62160, Note_on_c, 0, 58, 0
2, 62160, Note_on_c, 0, 60, 58
2, 62160, Note_on_c, 0, 72, 69
2, 62400, Note_on_c, 0, 72, 0
2, 62400, Note_on_c, 0, 60, 0
2, 62400, Note_on_c, 0, 61, 41
2, 62400, Note_on_c, 0, 73, 49
2, 62640, Note_on_c, 0, 73, 0
2, 62640, Note_on_c, 0, 61, 0
2, 62640, Note_on_c, 0, 62, 38
2, 62640, Note_on_c, 0, 74, 45
2, 62940, Note_on_c, 0, 74, 0
2, 62940, Note_on_c, 0, 62, 0
2, 62940, Note_on_c, 0, 70, 59
2, 63000, Note_on_c, 0, 70, 0
2, 63000, Note_on_c, 0, 69, 61
2, 63060, Note_on_c, 0, 69, 0
2, 63060, Note_on_c, 0, 70, 62
2, 63120, Note_on_c, 0, 70, 0
2, 63120, Note_on_c, 0, 71, 62
2, 63180, Note_on_c, 0, 71, 0
2, 63180, Note_on_c, 0, 72, 64
2, 63240, Note_on_c, 0, 72, 0
2, 63240, Note_on_c, 0, 73, 65
2, 63300, Note_on_c, 0, 73, 0
2, 63300, Note_on_c, 0, 74, 67
2, 63360, Note_on_c, 0, 74, 0
2, 63360, Note_on_c, 0, 75, 69
2, 63420, Note_on_c, 0, 75, 0
2, 63420, Note_on_c, 0, 76, 70
2, 63480, Note_on_c, 0, 76, 0
2, 63480, Note_on_c, 0, 77, 71
2, 63540, Note_on_c, 0, 77, 0
2, 63540, Note_on_c, 0, 78, 73
2, 63600, Note_on_c, 0, 78, 0
2, 63600, Note_on_c, 0, 79, 74
2, 63660, Note_on_c, 0, 79, 0
2, 63660, Note_on_c, 0, 80, 76
2, 63720, Note_on_c, 0, 80, 0
2, 63720, Note_on_c, 0, 81, 78
2, 63780, Note_on_c, 0, 81, 0
2, 63780, Note_on_c, 0, 82, 78
2, 63840, Note_on_c, 0, 82, 0
2, 63840, Note_on_c, 0, 70, 53
2, 63888, Note_on_c, 0, 70, 0
2, 63888, Note_on_c, 0, 72, 48
2, 63936, Note_on_c, 0, 72, 0
2, 63936, Note_on_c, 0, 70, 45
2, 63984, Note_on_c, 0, 70, 0
2, 63984, Note_on_c, 0, 69, 45
2, 64032, Note_on_c, 0, 69, 0
2, 64032, Note_on_c, 0, 70, 45
2, 64080, Note_on_c, 0, 70, 0
2, 64080, Note_on_c, 0, 63, 42
2, 64080, Note_on_c, 0, 74, 52
2, 64260, Note_on_c, 0, 74, 0
2, 64260, Note_on_c, 0, 72, 41
2, 64320, Note_on_c, 0, 72, 0
2, 64320, Note_on_c, 0, 63, 0
2, 64320, Note_on_c, 0, 62, 42
2, 64320, Note_on_c, 0, 70, 50
2, 64560, Note_on_c, 0, 70, 0
2, 64560, Note_on_c, 0, 62, 0
2, 64800, Note_on_c, 0, 53, 79
2, 64800, Note_on_c, 0, 61, 96
2, 65280, Note_on_c, 0, 61, 0
2, 65280, Note_on_c, 0, 53, 0
2, 65280, Note_on_c, 0, 54, 85
2, 65280, Note_on_c, 0, 59, 96
2, 65640, Note_on_c, 0, 59, 0
2, 65640, Note_on_c, 0, 61, 70
2, 65700, Note_on_c, 0, 61, 0
2, 65700, Note_on_c, 0, 63, 71
2, 65760, Note_on_c, 0, 63, 0
2, 65760, Note_on_c, 0, 54, 0
2, 65760, Note_on_c, 0, 54, 81
2, 66000, Note_on_c, 0, 54, 0
2, 66000, Note_on_c, 0, 51, 64
2, 66000, Note_on_c, 0, 57, 77
2, 66240, Note_on_c, 0, 57, 0
2, 66240, Note_on_c, 0, 51, 0
2, 66240, Note_on_c, 0, 49, 67
2, 66240, Note_on_c, 0, 58, 79
2, 66480, Note_on_c, 0, 58, 0
2, 66480, Note_on_c, 0, 53, 65
2, 66600, Note_on_c, 0, 53, 0
2, 66720, Note_on_c, 0, 49, 0
2, 66720, Note_on_c, 0, 53, 79
2, 66720, Note_on_c, 0, 61, 96
2, 67200, Note_on_c, 0, 61, 0
2, 67200, Note_on_c, 0, 53, 0
2, 67200, Note_on_c, 0, 55, 96
2, 67200, Note_on_c, 0, 60, 96
2, 67680, Note_on_c, 0, 60, 0
2, 67680, Note_on_c, 0, 55, 0
2, 67680, Note_on_c, 0, 60, 96
2, 67680, Note_on_c, 0, 70, 96
2, 68160, Note_on_c, 0, 70, 0
2, 68160, Note_on_c, 0, 60, 0
2, 68160, Note_on_c, 0, 60, 81
2, 68160, Note_on_c, 0, 68, 96
2, 68280, Note_on_c, 0, 68, 0
2, 68280, Note_on_c, 0, 60, 0
2, 68400, Note_on_c, 0, 65, 86
2, 68400, Note_on_c, 0, 68, 86
2, 68400, Note_on_c, 0, 77, 102
2, 68880, Note_on_c, 0, 77, 0
2, 68880, Note_on_c, 0, 68, 0
2, 68880, Note_on_c, 0, 65, 0
2, 68880, Note_on_c, 0, 64, 81
2, 68880, Note_on_c, 0, 67, 81
2, 68880, Note_on_c, 0, 76, 96
2, 69000, Note_on_c, 0, 76, 0
2, 69000, Note_on_c, 0, 67, 0
2, 69000, Note_on_c, 0, 64, 0
2, 69120, Note_on_c, 0, 65, 86
2, 69120, Note_on_c, 0, 68, 86
2, 69120, Note_on_c, 0, 77, 102
2, 69240, Note_on_c, 0, 77, 0
2, 69240, Note_on_c, 0, 68, 0
2, 69240, Note_on_c, 0, 65, 0
2, 69240, Note_on_c, 0, 60, 36
2, 69300, Note_on_c, 0, 58, 31
2, 69306, Note_on_c, 0, 60, 0
2, 69360, Note_on_c, 0, 58, 0
2, 69360, Note_on_c, 0, 60, 36
2, 69420, Note_on_c, 0, 56, 32
2, 69426, Note_on_c, 0, 60, 0
2, 69480, Note_on_c, 0, 56, 0
2, 69480, Note_on_c, 0, 60, 36
2, 69540, Note_on_c, 0, 55, 31
2, 69546, Note_on_c, 0, 60, 0
2, 69600, Note_on_c, 0, 55, 0
2, 69600, Note_on_c, 0, 60, 42
2, 69660, Note_on_c, 0, 53, 31
2, 69666, Note_on_c, 0, 60, 0
2, 69720, Note_on_c, 0, 53, 0
2, 69720, Note_on_c, 0, 60, 36
2, 69780, Note_on_c, 0, 52, 31
2, 69786, Note_on_c, 0, 60, 0
2, 69840, Note_on_c, 0, 52, 0
2, 69840, Note_on_c, 0, 60, 36
2, 69900, Note_on_c, 0, 53, 30
2, 69906, Note_on_c, 0, 60, 0
2, 69960, Note_on_c, 0, 53, 0
2, 69960, Note_on_c, 0, 60, 36
2, 70020, Note_on_c, 0, 55, 31
2, 70026, Note_on_c, 0, 60, 0
2, 70080, Note_on_c, 0, 55, 0
2, 70080, Note_on_c, 0, 60, 45
2, 70140, Note_on_c, 0, 56, 31
2, 70146, Note_on_c, 0, 60, 0
2, 70200, Note_on_c, 0, 56, 0
2, 70200, Note_on_c, 0, 65, 36
2, 70260, Note_on_c, 0, 63, 31
2, 70266, Note_on_c, 0, 65, 0
2, 70320, Note_on_c, 0, 63, 0
2, 70320, Note_on_c, 0, 65, 36
2, 70380, Note_on_c, 0, 61, 32
2, 70386, Note_on_c, 0, 65, 0
2, 70440, Note_on_c, 0, 61, 0
2, 70440, Note_on_c, 0, 65, 36
2, 70500, Note_on_c, 0, 60, 31
2, 70506, Note_on_c, 0, 65, 0
2, 70560, Note_on_c, 0, 60, 0
2, 70560, Note_on_c, 0, 65, 42
2, 70620, Note_on_c, 0, 58, 31
2, 70626, Note_on_c, 0, 65, 0
2, 70680, Note_on_c, 0, 58, 0
2, 70680, Note_on_c, 0, 65, 36
2, 70740, Note_on_c, 0, 57, 31
2, 70746, Note_on_c, 0, 65, 0
2, 70800, Note_on_c, 0, 57, 0
2, 70800, Note_on_c, 0, 65, 36
2, 70860, Note_on_c, 0, 58, 30
2, 70866, Note_on_c, 0, 65, 0
2, 70920, Note_on_c, 0, 58, 0
2, 70920, Note_on_c, 0, 65, 36
2, 70980, Note_on_c, 0, 60, 31
2, 70986, Note_on_c, 0, 65, 0
2, 71040, Note_on_c, 0, 60, 0
2, 71040, Note_on_c, 0, 65, 49
2, 71100, Note_on_c, 0, 61, 34
2, 71106, Note_on_c, 0, 65, 0
2, 71160, Note_on_c, 0, 61, 0
2, 71160, Note_on_c, 0, 65, 39
2, 71220, Note_on_c, 0, 61, 34
2, 71226, Note_on_c, 0, 65, 0
2, 71280, Note_on_c, 0, 61, 0
2, 71280, Note_on_c, 0, 67, 39
2, 71340, Note_on_c, 0, 65, 35
2, 71346, Note_on_c, 0, 67, 0
2, 71400, Note_on_c, 0, 65, 0
2, 71400, Note_on_c, 0, 67, 39
2, 71460, Note_on_c, 0, 65, 34
2, 71466, Note_on_c, 0, 67, 0
2, 71520, Note_on_c, 0, 65, 0
2, 71520, Note_on_c, 0, 68, 46
2, 71580, Note_on_c, 0, 65, 34
2, 71586, Note_on_c, 0, 68, 0
2, 71640, Note_on_c, 0, 65, 0
2, 71640, Note_on_c, 0, 68, 39
2, 71700, Note_on_c, 0, 65, 34
2, 71706, Note_on_c, 0, 68, 0
2, 71760, Note_on_c, 0, 65, 0
2, 71760, Note_on_c, 0, 70, 39
2, 71820, Note_on_c, 0, 64, 33
2, 71826, Note_on_c, 0, 70, 0
2, 71880, Note_on_c, 0, 64, 0
2, 71880, Note_on_c, 0, 70, 39
2, 71940, Note_on_c, 0, 64, 34
2, 71946, Note_on_c, 0, 70, 0
2, 72000, Note_on_c, 0, 64, 0
2, 72000, Note_on_c, 0, 65, 78
2, 72120, Note_on_c, 0, 65, 0
2, 72120, Note_on_c, 0, 60, 36
2, 72120, Note_on_c, 0, 72, 42
2, 72180, Note_on_c, 0, 60, 0
2, 72180, Note_on_c, 0, 70, 37
2, 72186, Note_on_c, 0, 72, 0
2, 72240, Note_on_c, 0, 70, 0
2, 72240, Note_on_c, 0, 60, 36
2, 72240, Note_on_c, 0, 72, 43
2, 72300, Note_on_c, 0, 60, 0
2, 72300, Note_on_c, 0, 68, 39
2, 72306, Note_on_c, 0, 72, 0
2, 72360, Note_on_c, 0, 68, 0
2, 72360, Note_on_c, 0, 60, 36
2, 72360, Note_on_c, 0, 72, 44
2, 72420, Note_on_c, 0, 60, 0
2, 72420, Note_on_c, 0, 67, 39
2, 72426, Note_on_c, 0, 72, 0
2, 72480, Note_on_c, 0, 67, 0
2, 72480, Note_on_c, 0, 60, 44
2, 72480, Note_on_c, 0, 72, 53
2, 72540, Note_on_c, 0, 60, 0
2, 72540, Note_on_c, 0, 65, 39
2, 72546, Note_on_c, 0, 72, 0
2, 72600, Note_on_c, 0, 65, 0
2, 72600, Note_on_c, 0, 60, 38
2, 72600, Note_on_c, 0, 72, 46
2, 72660, Note_on_c, 0, 60, 0
2, 72660, Note_on_c, 0, 64, 39
2, 72666, Note_on_c, 0, 72, 0
2, 72720, Note_on_c, 0, 64, 0
2, 72720, Note_on_c, 0, 60, 39
2, 72720, Note_on_c, 0, 72, 47
2, 72780, Note_on_c, 0, 60, 0
2, 72780, Note_on_c, 0, 65, 40
2, 72786, Note_on_c, 0, 72, 0
2, 72840, Note_on_c, 0, 65, 0
2, 72840, Note_on_c, 0, 60, 40
2, 72840, Note_on_c, 0, 72, 48
2, 72900, Note_on_c, 0, 60, 0
2, 72900, Note_on_c, 0, 67, 41
2, 72906, Note_on_c, 0, 72, 0
2, 72960, Note_on_c, 0, 67, 0
2, 72960, Note_on_c, 0, 60, 52
2, 72960, Note_on_c, 0, 72, 61
2, 73020, Note_on_c, 0, 60, 0
2, 73020, Note_on_c, 0, 68, 42
2, 73026, Note_on_c, 0, 72, 0
2, 73080, Note_on_c, 0, 68, 0
2, 73080, Note_on_c, 0, 65, 42
2, 73080, Note_on_c, 0, 77, 50
2, 73140, Note_on_c, 0, 65, 0
2, 73140, Note_on_c, 0, 75, 43
2, 73146, Note_on_c, 0, 77, 0
2, 73200, Note_on_c, 0, 75, 0
2, 73200, Note_on_c, 0, 65, 42
2, 73200, Note_on_c, 0, 77, 50
2, 73260, Note_on_c, 0, 65, 0
2, 73260, Note_on_c, 0, 73, 46
2, 73266, Note_on_c, 0, 77, 0
2, 73320, Note_on_c, 0, 73, 0
2, 73320, Note_on_c, 0, 65, 42
2, 73320, Note_on_c, 0, 77, 52
2, 73380, Note_on_c, 0, 65, 0
2, 73380, Note_on_c, 0, 72, 45
2, 73386, Note_on_c, 0, 77, 0
2, 73440, Note_on_c, 0, 72, 0
2, 73440, Note_on_c, 0, 65, 51
2, 73440, Note_on_c, 0, 77, 62
2, 73500, Note_on_c, 0, 65, 0
2, 73500, Note_on_c, 0, 70, 45
2, 73506, Note_on_c, 0, 77, 0
2, 73560, Note_on_c, 0, 70, 0
2, 73560, Note_on_c, 0, 65, 44
2, 73560, Note_on_c, 0, 77, 54
2, 73620, Note_on_c, 0, 65, 0
2, 73620, Note_on_c, 0, 69, 47
2, 73626, Note_on_c, 0, 77, 0
2, 73680, Note_on_c, 0, 69, 0
2, 73680, Note_on_c, 0, 65, 44
2, 73680, Note_on_c, 0, 77, 54
2, 73740, Note_on_c, 0, 65, 0
2, 73740, Note_on_c, 0, 70, 46
2, 73746, Note_on_c, 0, 77, 0
2, 73800, Note_on_c, 0, 70, 0
2, 73800, Note_on_c, 0, 65, 46
2, 73800, Note_on_c, 0, 77, 56
2, 73860, Note_on_c, 0, 65, 0
2, 73860, Note_on_c, 0, 72, 47
2, 73866, Note_on_c, 0, 77, 0
2, 73920, Note_on_c, 0, 72, 0
2, 73920, Note_on_c, 0, 65, 63
2, 73920, Note_on_c, 0, 77, 77
2, 73980, Note_on_c, 0, 65, 0
2, 73980, Note_on_c, 0, 73, 54
2, 73986, Note_on_c, 0, 77, 0
2, 74040, Note_on_c, 0, 73, 0
2, 74040, Note_on_c, 0, 65, 52
2, 74040, Note_on_c, 0, 77, 62
2, 74100, Note_on_c, 0, 65, 0
2, 74100, Note_on_c, 0, 73, 54
2, 74106, Note_on_c, 0, 77, 0
2, 74160, Note_on_c, 0, 73, 0
2, 74160, Note_on_c, 0, 67, 53
2, 74160, Note_on_c, 0, 79, 63
2, 74220, Note_on_c, 0, 67, 0
2, 74220, Note_on_c, 0, 77, 57
2, 74226, Note_on_c, 0, 79, 0
2, 74280, Note_on_c, 0, 77, 0
2, 74280, Note_on_c, 0, 67, 53
2, 74280, Note_on_c, 0, 79, 63
2, 74340, Note_on_c, 0, 67, 0
2, 74340, Note_on_c, 0, 77, 56
2, 74346, Note_on_c, 0, 79, 0
2, 74400, Note_on_c, 0, 77, 0
2, 74400, Note_on_c, 0, 68, 65
2, 74400, Note_on_c, 0, 80, 76
2, 74460, Note_on_c, 0, 68, 0
2, 74460, Note_on_c, 0, 77, 57
2, 74466, Note_on_c, 0, 80, 0
2, 74520, Note_on_c, 0, 77, 0
2, 74520, Note_on_c, 0, 68, 55
2, 74520, Note_on_c, 0, 80, 67
2, 74580, Note_on_c, 0, 68, 0
2, 74580, Note_on_c, 0, 77, 58
2, 74586, Note_on_c, 0, 80, 0
2, 74640, Note_on_c, 0, 77, 0
2, 74640, Note_on_c, 0, 70, 57
2, 74640, Note_on_c, 0, 82, 67
2, 74700, Note_on_c, 0, 70, 0
2, 74700, Note_on_c, 0, 76, 57
2, 74706, Note_on_c, 0, 82, 0
2, 74760, Note_on_c, 0, 76, 0
2, 74760, Note_on_c, 0, 70, 58
2, 74760, Note_on_c, 0, 82, 68
2, 74820, Note_on_c, 0, 70, 0
2, 74820, Note_on_c, 0, 76, 60
2, 74826, Note_on_c, 0, 82, 0
2, 74880, Note_on_c, 0, 76, 0
2, 74880, Note_on_c, 0, 77, 94
2, 75000, Note_on_c, 0, 77, 0
2, 75000, Note_on_c, 0, 89, 93
2, 75240, Note_on_c, 0, 89, 0
2, 75240, Note_on_c, 0, 89, 89
2, 75360, Note_on_c, 0, 89, 0
2, 75360, Note_on_c, 0, 88, 90
2, 75420, Note_on_c, 0, 88, 0
2, 75420, Note_on_c, 0, 85, 73
2, 75480, Note_on_c, 0, 85, 0
2, 75480, Note_on_c, 0, 82, 78
2, 75540, Note_on_c, 0, 82, 0
2, 75540, Note_on_c, 0, 79, 74
2, 75600, Note_on_c, 0, 79, 0
2, 75600, Note_on_c, 0, 76, 67
2, 75600, Note_on_c, 0, 73, 56
2, 75660, Note_on_c, 0, 73, 0
2, 75660, Note_on_c, 0, 72, 61
2, 75720, Note_on_c, 0, 72, 0
2, 75720, Note_on_c, 0, 76, 0
2, 75720, Note_on_c, 0, 76, 61
2, 75720, Note_on_c, 0, 73, 51
2, 75780, Note_on_c, 0, 73, 0
2, 75780, Note_on_c, 0, 70, 60
2, 75840, Note_on_c, 0, 70, 0
2, 75840, Note_on_c, 0, 76, 0
2, 75840, Note_on_c, 0, 77, 83
2, 75840, Note_on_c, 0, 68, 77
2, 75950, Note_on_c, 0, 77, 0
2, 75960, Note_on_c, 0, 68, 0
2, 75960, Note_on_c, 0, 77, 93
2, 76200, Note_on_c, 0, 77, 0
2, 76200, Note_on_c, 0, 77, 89
2, 76320, Note_on_c, 0, 77, 0
2, 76320, Note_on_c, 0, 76, 90
2, 76380, Note_on_c, 0, 76, 0
2, 76380, Note_on_c, 0, 73, 75
2, 76440, Note_on_c, 0, 73, 0
2, 76440, Note_on_c, 0, 70, 78
2, 76500, Note_on_c, 0, 70, 0
2, 76500, Note_on_c, 0, 67, 74
2, 76560, Note_on_c, 0, 67, 0
2, 76560, Note_on_c, 0, 64, 67
2, 76560, Note_on_c, 0, 61, 56
2, 76620, Note_on_c, 0, 61, 0
2, 76620, Note_on_c, 0, 60, 61
2, 76680, Note_on_c, 0, 60, 0
2, 76680, Note_on_c, 0, 64, 0
2, 76680, Note_on_c, 0, 64, 61
2, 76680, Note_on_c, 0, 61, 51
2, 76740, Note_on_c, 0, 61, 0
2, 76740, Note_on_c, 0, 58, 60
2, 76800, Note_on_c, 0, 58, 0
2, 76800, Note_on_c, 0, 64, 0
2, 76800, Note_on_c, 0, 56, 70
2, 76800, Note_on_c, 0, 65, 83
2, 77040, Note_on_c, 0, 65, 0
2, 77040, Note_on_c, 0, 56, 0
2, 78000, Note_on_c, 0, 58, 88
2, 78540, Note_on_c, 0, 58, 0
2, 78540, Note_on_c, 0, 61, 71
2, 78600, Note_on_c, 0, 61, 0
2, 78600, Note_on_c, 0, 60, 71
2, 78660, Note_on_c, 0, 60, 0
2, 78660, Note_on_c, 0, 58, 64
2, 78720, Note_on_c, 0, 58, 0
2, 78720, Note_on_c, 0, 56, 81
2, 78960, Note_on_c, 0, 56, 0
2, 78960, Note_on_c, 0, 53, 73
2, 79200, Note_on_c, 0, 53, 0
2, 79920, Note_on_c, 0, 63, 88
2, 80460, Note_on_c, 0, 63, 0
2, 80460, Note_on_c, 0, 66, 71
2, 80520, Note_on_c, 0, 66, 0
2, 80520, Note_on_c, 0, 65, 71
2, 80580, Note_on_c, 0, 65, 0
2, 80580, Note_on_c, 0, 63, 64
2, 80640, Note_on_c, 0, 63, 0
2, 80640, Note_on_c, 0, 61, 81
2, 80880, Note_on_c, 0, 61, 0
2, 80880, Note_on_c, 0, 58, 73
2, 81120, Note_on_c, 0, 58, 0
2, 81120, Note_on_c, 0, 73, 79
2, 81600, Note_on_c, 0, 73, 0
2, 81600, Note_on_c, 0, 63, 72
2, 81600, Note_on_c, 0, 72, 83
2, 81960, Note_on_c, 0, 72, 0
2, 81960, Note_on_c, 0, 73, 70
2, 82020, Note_on_c, 0, 73, 0
2, 82020, Note_on_c, 0, 75, 70
2, 82080, Note_on_c, 0, 75, 0
2, 82080, Note_on_c, 0, 67, 85
2, 82200, Note_on_c, 0, 67, 0
2, 82320, Note_on_c, 0, 69, 80
2, 82380, Note_on_c, 0, 63, 0
2, 82380, Note_on_c, 0, 66, 71
2, 82440, Note_on_c, 0, 66, 0
2, 82440, Note_on_c, 0, 69, 0
2, 82440, Note_on_c, 0, 65, 71
2, 82500, Note_on_c, 0, 65, 0
2, 82500, Note_on_c, 0, 63, 64
2, 82560, Note_on_c, 0, 63, 0
2, 82560, Note_on_c, 0, 61, 81
2, 82560, Note_on_c, 0, 70, 81
2, 82800, Note_on_c, 0, 61, 0
2, 82800, Note_on_c, 0, 58, 73
2, 83040, Note_on_c, 0, 58, 0
2, 83040, Note_on_c, 0, 70, 0
2, 83040, Note_on_c, 0, 78, 79
2, 83520, Note_on_c, 0, 78, 0
2, 83520, Note_on_c, 0, 68, 72
2, 83520, Note_on_c, 0, 77, 83
2, 83880, Note_on_c, 0, 77, 0
2, 83880, Note_on_c, 0, 78, 70
2, 83940, Note_on_c, 0, 78, 0
2, 83940, Note_on_c, 0, 80, 70
2, 84000, Note_on_c, 0, 80, 0
2, 84000, Note_on_c, 0, 72, 85
2, 84120, Note_on_c, 0, 72, 0
2, 84240, Note_on_c, 0, 74, 80
2, 84300, Note_on_c, 0, 68, 0
2, 84300, Note_on_c, 0, 71, 71
2, 84360, Note_on_c, 0, 71, 0
2, 84360, Note_on_c, 0, 74, 0
2, 84360, Note_on_c, 0, 70, 71
2, 84420, Note_on_c, 0, 70, 0
2, 84420, Note_on_c, 0, 68, 64
2, 84480, Note_on_c, 0, 68, 0
2, 84480, Note_on_c, 0, 66, 81
2, 84480, Note_on_c, 0, 75, 81
2, 84720, Note_on_c, 0, 66, 0
2, 84720, Note_on_c, 0, 63, 73
2, 84960, Note_on_c, 0, 63, 0
2, 84960, Note_on_c, 0, 75, 0
2, 85680, Note_on_c, 0, 83, 93
2, 85680, Note_on_c, 0, 80, 79
2, 86280, Note_on_c, 0, 80, 0
2, 86280, Note_on_c, 0, 83, 0
2, 86280, Note_on_c, 0, 78, 68
2, 86280, Note_on_c, 0, 82, 80
2, 86340, Note_on_c, 0, 77, 62
2, 86340, Note_on_c, 0, 80, 74
2, 86346, Note_on_c, 0, 82, 0
2, 86346, Note_on_c, 0, 78, 0
2, 86400, Note_on_c, 0, 75, 86
2, 86400, Note_on_c, 0, 78, 93
2, 86406, Note_on_c, 0, 77, 0
2, 86406, Note_on_c, 0, 80, 0
2, 86520, Note_on_c, 0, 75, 0
2, 86520, Note_on_c, 0, 78, 0
2, 86640, Note_on_c, 0, 82, 93
2, 86640, Note_on_c, 0, 78, 79
2, 87240, Note_on_c, 0, 78, 0
2, 87240, Note_on_c, 0, 82, 0
2, 87240, Note_on_c, 0, 77, 68
2, 87240, Note_on_c, 0, 80, 80
2, 87300, Note_on_c, 0, 75, 62
2, 87300, Note_on_c, 0, 78, 74
2, 87306, Note_on_c, 0, 80, 0
2, 87306, Note_on_c, 0, 77, 0
2, 87360, Note_on_c, 0, 77, 91
2, 87360, Note_on_c, 0, 73, 77
2, 87366, Note_on_c, 0, 75, 0
2, 87366, Note_on_c, 0, 78, 0
2, 87720, Note_on_c, 0, 77, 0
2, 87720, Note_on_c, 0, 73, 0
2, 87720, Note_on_c, 0, 75, 64
2, 87720, Note_on_c, 0, 78, 77
2, 87780, Note_on_c, 0, 77, 64
2, 87780, Note_on_c, 0, 80, 77
2, 87786, Note_on_c, 0, 78, 0
2, 87786, Note_on_c, 0, 75, 0
2, 87840, Note_on_c, 0, 68, 79
2, 87840, Note_on_c, 0, 72, 93
2, 87846, Note_on_c, 0, 77, 0
2, 87846, Note_on_c, 0, 80, 0
2, 87960, Note_on_c, 0, 68, 0
2, 87960, Note_on_c, 0, 72, 0
2, 88080, Note_on_c, 0, 70, 74
2, 88080, Note_on_c, 0, 73, 88
2, 88200, Note_on_c, 0, 73, 0
2, 88200, Note_on_c, 0, 70, 0
2, 88320, Note_on_c, 0, 75, 91
2, 88320, Note_on_c, 0, 72, 77
2, 88680, Note_on_c, 0, 72, 0
2, 88680, Note_on_c, 0, 75, 0
2, 88680, Note_on_c, 0, 73, 64
2, 88680, Note_on_c, 0, 77, 77
2, 88740, Note_on_c, 0, 75, 64
2, 88740, Note_on_c, 0, 78, 77
2, 88746, Note_on_c, 0, 77, 0
2, 88746, Note_on_c, 0, 73, 0
2, 88800, Note_on_c, 0, 67, 79
2, 88800, Note_on_c, 0, 70, 93
2, 88806, Note_on_c, 0, 75, 0
2, 88806, Note_on_c, 0, 78, 0
2, 88920, Note_on_c, 0, 67, 0
2, 88920, Note_on_c, 0, 70, 0
2, 89040, Note_on_c, 0, 69, 74
2, 89040, Note_on_c, 0, 72, 88
2, 89160, Note_on_c, 0, 72, 0
2, 89160, Note_on_c, 0, 69, 0
2, 89280, Note_on_c, 0, 73, 91
2, 89280, Note_on_c, 0, 70, 77
2, 89640, Note_on_c, 0, 73, 0
2, 89640, Note_on_c, 0, 75, 77
2, 89700, Note_on_c, 0, 75, 0
2, 89700, Note_on_c, 0, 77, 77
2, 89760, Note_on_c, 0, 77, 0
2, 89760, Note_on_c, 0, 70, 0
2, 89760, Note_on_c, 0, 78, 91
2, 89760, Note_on_c, 0, 70, 77
2, 90120, Note_on_c, 0, 78, 0
2, 90120, Note_on_c, 0, 80, 77
2, 90180, Note_on_c, 0, 80, 0
2, 90180, Note_on_c, 0, 82, 77
2, 90240, Note_on_c, 0, 82, 0
2, 90240, Note_on_c, 0, 70, 0
2, 90240, Note_on_c, 0, 83, 91
2, 90240, Note_on_c, 0, 78, 77
2, 90600, Note_on_c, 0, 83, 0
2, 90600, Note_on_c, 0, 85, 77
2, 90660, Note_on_c, 0, 85, 0
2, 90660, Note_on_c, 0, 87, 77
2, 90720, Note_on_c, 0, 87, 0
2, 90720, Note_on_c, 0, 78, 0
2, 90720, Note_on_c, 0, 65, 77
2, 90720, Note_on_c, 0, 70, 91
2, 90840, Note_on_c, 0, 70, 0
2, 90840, Note_on_c, 0, 65, 0
2, 90960, Note_on_c, 0, 63, 74
2, 90960, Note_on_c, 0, 69, 88
2, 91080, Note_on_c, 0, 69, 0
2, 91080, Note_on_c, 0, 63, 0
2, 91200, Note_on_c, 0, 61, 75
2, 91200, Note_on_c, 0, 70, 90
2, 91320, Note_on_c, 0, 70, 0
2, 91320, Note_on_c, 0, 61, 0
2, 91320, Note_on_c, 0, 65, 36
2, 91380, Note_on_c, 0, 63, 31
2, 91386, Note_on_c, 0, 65, 0
2, 91440, Note_on_c, 0, 63, 0
2, 91440, Note_on_c, 0, 65, 36
2, 91500, Note_on_c, 0, 61, 32
2, 91506, Note_on_c, 0, 65, 0
2, 91560, Note_on_c, 0, 61, 0
2, 91560, Note_on_c, 0, 65, 36
2, 91620, Note_on_c, 0, 60, 31
2, 91626, Note_on_c, 0, 65, 0
2, 91680, Note_on_c, 0, 60, 0
2, 91680, Note_on_c, 0, 65, 42
2, 91740, Note_on_c, 0, 58, 31
2, 91746, Note_on_c, 0, 65, 0
2, 91800, Note_on_c, 0, 58, 0
2, 91800, Note_on_c, 0, 65, 36
2, 91860, Note_on_c, 0, 57, 31
2, 91866, Note_on_c, 0, 65, 0
2, 91920, Note_on_c, 0, 57, 0
2, 91920, Note_on_c, 0, 65, 36
2, 91980, Note_on_c, 0, 58, 30
2, 91986, Note_on_c, 0, 65, 0
2, 92040, Note_on_c, 0, 58, 0
2, 92040, Note_on_c, 0, 65, 36
2, 92100, Note_on_c, 0, 60, 31
2, 92106, Note_on_c, 0, 65, 0
2, 92160, Note_on_c, 0, 60, 0
2, 92160, Note_on_c, 0, 65, 45
2, 92220, Note_on_c, 0, 61, 31
2, 92226, Note_on_c, 0, 65, 0
2, 92280, Note_on_c, 0, 61, 0
2, 92280, Note_on_c, 0, 70, 36
2, 92340, Note_on_c, 0, 68, 31
2, 92346, Note_on_c, 0, 70, 0
2, 92400, Note_on_c, 0, 68, 0
2, 92400, Note_on_c, 0, 70, 36
2, 92460, Note_on_c, 0, 66, 32
2, 92466, Note_on_c, 0, 70, 0
2, 92520, Note_on_c, 0, 66, 0
2, 92520, Note_on_c, 0, 70, 36
2, 92580, Note_on_c, 0, 65, 31
2, 92586, Note_on_c, 0, 70, 0
2, 92640, Note_on_c, 0, 65, 0
2, 92640, Note_on_c, 0, 70, 42
2, 92700, Note_on_c, 0, 63, 31
2, 92706, Note_on_c, 0, 70, 0
2, 92760, Note_on_c, 0, 63, 0
2, 92760, Note_on_c, 0, 70, 36
2, 92820, Note_on_c, 0, 62, 31
2, 92826, Note_on_c, 0, 70, 0
2, 92880, Note_on_c, 0, 62, 0
2, 92880, Note_on_c, 0, 70, 36
2, 92940, Note_on_c, 0, 63, 30
2, 92946, Note_on_c, 0, 70, 0
2, 93000, Note_on_c, 0, 63, 0
2, 93000, Note_on_c, 0, 70, 36
2, 93060, Note_on_c, 0, 65, 31
2, 93066, Note_on_c, 0, 70, 0
2, 93120, Note_on_c, 0, 65, 0
2, 93120, Note_on_c, 0, 70, 49
2, 93180, Note_on_c, 0, 66, 34
2, 93186, Note_on_c, 0, 70, 0
2, 93240, Note_on_c, 0, 66, 0
2, 93240, Note_on_c, 0, 70, 39
2, 93300, Note_on_c, 0, 66, 34
2, 93306, Note_on_c, 0, 70, 0
2, 93360, Note_on_c, 0, 66, 0
2, 93360, Note_on_c, 0, 72, 39
2, 93420, Note_on_c, 0, 70, 35
2, 93426, Note_on_c, 0, 72, 0
2, 93480, Note_on_c, 0, 70, 0
2, 93480, Note_on_c, 0, 72, 39
2, 93540, Note_on_c, 0, 70, 34
2, 93546, Note_on_c, 0, 72, 0
2, 93600, Note_on_c, 0, 70, 0
2, 93600, Note_on_c, 0, 73, 46
2, 93660, Note_on_c, 0, 70, 34
2, 93666, Note_on_c, 0, 73, 0
2, 93720, Note_on_c, 0, 70, 0
2, 93720, Note_on_c, 0, 73, 39
2, 93780, Note_on_c, 0, 70, 34
2, 93786, Note_on_c, 0, 73, 0
2, 93840, Note_on_c, 0, 70, 0
2, 93840, Note_on_c, 0, 75, 39
2, 93900, Note_on_c, 0, 69, 33
2, 93906, Note_on_c, 0, 75, 0
2, 93960, Note_on_c, 0, 69, 0
2, 93960, Note_on_c, 0, 75, 39
2, 94020, Note_on_c, 0, 69, 34
2, 94026, Note_on_c, 0, 75, 0
2, 94080, Note_on_c, 0, 69, 0
2, 94080, Note_on_c, 0, 70, 74
2, 94200, Note_on_c, 0, 70, 0
2, 94200, Note_on_c, 0, 77, 48
2, 94200, Note_on_c, 0, 65, 40
2, 94260, Note_on_c, 0, 65, 0
2, 94260, Note_on_c, 0, 75, 42
2, 94266, Note_on_c, 0, 77, 0
2, 94320, Note_on_c, 0, 75, 0
2, 94320, Note_on_c, 0, 65, 40
2, 94320, Note_on_c, 0, 77, 48
2, 94380, Note_on_c, 0, 65, 0
2, 94380, Note_on_c, 0, 73, 43
2, 94386, Note_on_c, 0, 77, 0
2, 94440, Note_on_c, 0, 73, 0
2, 94440, Note_on_c, 0, 65, 40
2, 94440, Note_on_c, 0, 77, 50
2, 94500, Note_on_c, 0, 65, 0
2, 94500, Note_on_c, 0, 72, 45
2, 94506, Note_on_c, 0, 77, 0
2, 94560, Note_on_c, 0, 72, 0
2, 94560, Note_on_c, 0, 77, 59
2, 94560, Note_on_c, 0, 65, 49
2, 94620, Note_on_c, 0, 65, 0
2, 94620, Note_on_c, 0, 70, 45
2, 94626, Note_on_c, 0, 77, 0
2, 94680, Note_on_c, 0, 70, 0
2, 94680, Note_on_c, 0, 65, 44
2, 94680, Note_on_c, 0, 77, 54
2, 94740, Note_on_c, 0, 65, 0
2, 94740, Note_on_c, 0, 69, 45
2, 94746, Note_on_c, 0, 77, 0
2, 94800, Note_on_c, 0, 69, 0
2, 94800, Note_on_c, 0, 65, 44
2, 94800, Note_on_c, 0, 77, 54
2, 94860, Note_on_c, 0, 65, 0
2, 94860, Note_on_c, 0, 70, 45
2, 94866, Note_on_c, 0, 77, 0
2, 94920, Note_on_c, 0, 70, 0
2, 94920, Note_on_c, 0, 77, 56
2, 94920, Note_on_c, 0, 65, 46
2, 94980, Note_on_c, 0, 65, 0
2, 94980, Note_on_c, 0, 72, 47
2, 94986, Note_on_c, 0, 77, 0
2, 95040, Note_on_c, 0, 72, 0
2, 95040, Note_on_c, 0, 65, 61
2, 95040, Note_on_c, 0, 77, 72
2, 95100, Note_on_c, 0, 65, 0
2, 95100, Note_on_c, 0, 73, 48
2, 95106, Note_on_c, 0, 77, 0
2, 95160, Note_on_c, 0, 73, 0
2, 95160, Note_on_c, 0, 70, 48
2, 95160, Note_on_c, 0, 82, 58
2, 95220, Note_on_c, 0, 70, 0
2, 95220, Note_on_c, 0, 80, 50
2, 95226, Note_on_c, 0, 82, 0
2, 95280, Note_on_c, 0, 80, 0
2, 95280, Note_on_c, 0, 70, 50
2, 95280, Note_on_c, 0, 82, 59
2, 95340, Note_on_c, 0, 70, 0
2, 95340, Note_on_c, 0, 78, 55
2, 95346, Note_on_c, 0, 82, 0
2, 95400, Note_on_c, 0, 78, 0
2, 95400, Note_on_c, 0, 82, 62
2, 95400, Note_on_c, 0, 70, 50
2, 95460, Note_on_c, 0, 70, 0
2, 95460, Note_on_c, 0, 77, 54
2, 95466, Note_on_c, 0, 82, 0
2, 95520, Note_on_c, 0, 77, 0
2, 95520, Note_on_c, 0, 70, 62
2, 95520, Note_on_c, 0, 82, 73
2, 95580, Note_on_c, 0, 70, 0
2, 95580, Note_on_c, 0, 75, 54
2, 95586, Note_on_c, 0, 82, 0
2, 95640, Note_on_c, 0, 75, 0
2, 95640, Note_on_c, 0, 82, 66
2, 95640, Note_on_c, 0, 70, 53
2, 95700, Note_on_c, 0, 70, 0
2, 95700, Note_on_c, 0, 74, 55
2, 95706, Note_on_c, 0, 82, 0
2, 95760, Note_on_c, 0, 74, 0
2, 95760, Note_on_c, 0, 70, 53
2, 95760, Note_on_c, 0, 82, 66
2, 95820, Note_on_c, 0, 70, 0
2, 95820, Note_on_c, 0, 75, 55
2, 95826, Note_on_c, 0, 82, 0
2, 95880, Note_on_c, 0, 75, 0
2, 95880, Note_on_c, 0, 70, 57
2, 95880, Note_on_c, 0, 82, 69
2, 95940, Note_on_c, 0, 70, 0
2, 95940, Note_on_c, 0, 77, 58
2, 95946, Note_on_c, 0, 82, 0
2, 96000, Note_on_c, 0, 77, 0
2, 96000, Note_on_c, 0, 82, 86
2, 96000, Note_on_c, 0, 70, 70
2, 96060, Note_on_c, 0, 70, 0
2, 96060, Note_on_c, 0, 78, 66
2, 96066, Note_on_c, 0, 82, 0
2, 96120, Note_on_c, 0, 78, 0
2, 96120, Note_on_c, 0, 70, 63
2, 96120, Note_on_c, 0, 82, 75
2, 96180, Note_on_c, 0, 70, 0
2, 96180, Note_on_c, 0, 78, 68
2, 96186, Note_on_c, 0, 82, 0
2, 96240, Note_on_c, 0, 78, 0
2, 96240, Note_on_c, 0, 72, 66
2, 96240, Note_on_c, 0, 84, 78
2, 96300, Note_on_c, 0, 72, 0
2, 96300, Note_on_c, 0, 82, 71
2, 96306, Note_on_c, 0, 84, 0
2, 96360, Note_on_c, 0, 82, 0
2, 96360, Note_on_c, 0, 84, 78
2, 96360, Note_on_c, 0, 72, 66
2, 96420, Note_on_c, 0, 72, 0
2, 96420, Note_on_c, 0, 82, 71
2, 96426, Note_on_c, 0, 84, 0
2, 96480, Note_on_c, 0, 82, 0
2, 96480, Note_on_c, 0, 85, 97
2, 96480, Note_on_c, 0, 73, 82
2, 96540, Note_on_c, 0, 73, 0
2, 96540, Note_on_c, 0, 82, 71
2, 96546, Note_on_c, 0, 85, 0
2, 96600, Note_on_c, 0, 82, 0
2, 96600, Note_on_c, 0, 73, 69
2, 96600, Note_on_c, 0, 85, 86
2, 96660, Note_on_c, 0, 73, 0
2, 96660, Note_on_c, 0, 82, 74
2, 96666, Note_on_c, 0, 85, 0
2, 96720, Note_on_c, 0, 82, 0
2, 96720, Note_on_c, 0, 75, 73
2, 96720, Note_on_c, 0, 87, 86
2, 96780, Note_on_c, 0, 75, 0
2, 96780, Note_on_c, 0, 81, 73
2, 96786, Note_on_c, 0, 87, 0
2, 96840, Note_on_c, 0, 81, 0
2, 96840, Note_on_c, 0, 87, 87
2, 96840, Note_on_c, 0, 75, 75
2, 96900, Note_on_c, 0, 75, 0
2, 96900, Note_on_c, 0, 81, 77
2, 96906, Note_on_c, 0, 87, 0
2, 96960, Note_on_c, 0, 81, 0
2, 96960, Note_on_c, 0, 82, 100
2, 97080, Note_on_c, 0, 82, 0
2, 97080, Note_on_c, 0, 89, 97
2, 97320, Note_on_c, 0, 89, 0
2, 97320, Note_on_c, 0, 89, 93
2, 97440, Note_on_c, 0, 89, 0
2, 97440, Note_on_c, 0, 87, 94
2, 97500, Note_on_c, 0, 87, 0
2, 97500, Note_on_c, 0, 84, 74
2, 97560, Note_on_c, 0, 84, 0
2, 97560, Note_on_c, 0, 81, 81
2, 97620, Note_on_c, 0, 81, 0
2, 97620, Note_on_c, 0, 77, 77
2, 97680, Note_on_c, 0, 77, 0
2, 97680, Note_on_c, 0, 75, 58
2, 97740, Note_on_c, 0, 75, 0
2, 97740, Note_on_c, 0, 74, 64
2, 97800, Note_on_c, 0, 74, 0
2, 97800, Note_on_c, 0, 75, 53
2, 97860, Note_on_c, 0, 75, 0
2, 97860, Note_on_c, 0, 72, 63
2, 97920, Note_on_c, 0, 72, 0
2, 97920, Note_on_c, 0, 70, 87
2, 98030, Note_on_c, 0, 70, 0
2, 98040, Note_on_c, 0, 77, 97
2, 98280, Note_on_c, 0, 77, 0
2, 98280, Note_on_c, 0, 77, 93
2, 98400, Note_on_c, 0, 77, 0
2, 98400, Note_on_c, 0, 75, 94
2, 98460, Note_on_c, 0, 75, 0
2, 98460, Note_on_c, 0, 72, 73
2, 98520, Note_on_c, 0, 72, 0
2, 98520, Note_on_c, 0, 69, 81
2, 98580, Note_on_c, 0, 69, 0
2, 98580, Note_on_c, 0, 65, 74
2, 98640, Note_on_c, 0, 65, 0
2, 98640, Note_on_c, 0, 63, 58
2, 98700, Note_on_c, 0, 63, 0
2, 98700, Note_on_c, 0, 62, 64
2, 98760, Note_on_c, 0, 62, 0
2, 98760, Note_on_c, 0, 63, 53
2, 98820, Note_on_c, 0, 63, 0
2, 98820, Note_on_c, 0, 60, 63
2, 98880, Note_on_c, 0, 60, 0
2, 98880, Note_on_c, 0, 58, 87
2, 99120, Note_on_c, 0, 58, 0
2, 100800, Note_on_c, 0, 63, 36
2, 100800, Note_on_c, 0, 58, 36
2, 100800, Note_on_c, 0, 61, 43
2, 101040, Note_on_c, 0, 61, 0
2, 101040, Note_on_c, 0, 58, 0
2, 101040, Note_on_c, 0, 56, 34
2, 101040, Note_on_c, 0, 59, 40
2, 101280, Note_on_c, 0, 59, 0
2, 101280, Note_on_c, 0, 56, 0
2, 101280, Note_on_c, 0, 63, 0
2, 102720, Note_on_c, 0, 63, 30
2, 102720, Note_on_c, 0, 60, 30
2, 102720, Note_on_c, 0, 66, 36
2, 102960, Note_on_c, 0, 66, 0
2, 102960, Note_on_c, 0, 65, 34
2, 103310, Note_on_c, 0, 65, 0
2, 103320, Note_on_c, 0, 65, 34
2, 103440, Note_on_c, 0, 66, 34
2, 103452, Note_on_c, 0, 65, 0
2, 103560, Note_on_c, 0, 65, 34
2, 103572, Note_on_c, 0, 66, 0
2, 103680, Note_on_c, 0, 63, 0
2, 103680, Note_on_c, 0, 60, 0
2, 103680, Note_on_c, 0, 65, 0
2, 103680, Note_on_c, 0, 63, 30
2, 103680, Note_on_c, 0, 60, 30
2, 103680, Note_on_c, 0, 66, 36
2, 103920, Note_on_c, 0, 66, 0
2, 103920, Note_on_c, 0, 65, 34
2, 104270, Note_on_c, 0, 65, 0
2, 104280, Note_on_c, 0, 65, 34
2, 104400, Note_on_c, 0, 66, 34
2, 104412, Note_on_c, 0, 65, 0
2, 104520, Note_on_c, 0, 65, 34
2, 104532, Note_on_c, 0, 66, 0
2, 104640, Note_on_c, 0, 63, 0
2, 104640, Note_on_c, 0, 60, 0
2, 104640, Note_on_c, 0, 65, 0
2, 104640, Note_on_c, 0, 63, 30
2, 104640, Note_on_c, 0, 60, 30
2, 104640, Note_on_c, 0, 66, 36
2, 104880, Note_on_c, 0, 60, 0
2, 104880, Note_on_c, 0, 63, 0
2, 105000, Note_on_c, 0, 66, 0
2, 105000, Note_on_c, 0, 65, 34
2, 105120, Note_on_c, 0, 65, 0
2, 105120, Note_on_c, 0, 66, 36
2, 105480, Note_on_c, 0, 66, 0
2, 105480, Note_on_c, 0, 65, 29
2, 105600, Note_on_c, 0, 65, 0
2, 105600, Note_on_c, 0, 66, 34
2, 105660, Note_on_c, 0, 66, 0
2, 105660, Note_on_c, 0, 65, 29
2, 105720, Note_on_c, 0, 65, 0
2, 105720, Note_on_c, 0, 66, 34
2, 105780, Note_on_c, 0, 66, 0
2, 105780, Note_on_c, 0, 65, 29
2, 105840, Note_on_c, 0, 65, 0
2, 105840, Note_on_c, 0, 66, 34
2, 105900, Note_on_c, 0, 66, 0
2, 105900, Note_on_c, 0, 65, 29
2, 105960, Note_on_c, 0, 65, 0
2, 105960, Note_on_c, 0, 66, 34
2, 106020, Note_on_c, 0, 66, 0
2, 106020, Note_on_c, 0, 65, 30
2, 106080, Note_on_c, 0, 65, 0
2, 106080, Note_on_c, 0, 66, 34
2, 106140, Note_on_c, 0, 66, 0
2, 106140, Note_on_c, 0, 65, 30
2, 106200, Note_on_c, 0, 65, 0
2, 106200, Note_on_c, 0, 66, 34
2, 106260, Note_on_c, 0, 66, 0
2, 106260, Note_on_c, 0, 65, 29
2, 106320, Note_on_c, 0, 65, 0
2, 106320, Note_on_c, 0, 66, 34
2, 106380, Note_on_c, 0, 66, 0
2, 106380, Note_on_c, 0, 65, 29
2, 106440, Note_on_c, 0, 65, 0
2, 106440, Note_on_c, 0, 66, 34
2, 106500, Note_on_c, 0, 66, 0
2, 106500, Note_on_c, 0, 65, 31
2, 106560, Note_on_c, 0, 65, 0
2, 106560, Note_on_c, 0, 67, 34
2, 106620, Note_on_c, 0, 67, 0
2, 106620, Note_on_c, 0, 65, 29
2, 106680, Note_on_c, 0, 65, 0
2, 106680, Note_on_c, 0, 67, 35
2, 106740, Note_on_c, 0, 67, 0
2, 106740, Note_on_c, 0, 65, 30
2, 106800, Note_on_c, 0, 65, 0
2, 106800, Note_on_c, 0, 67, 36
2, 106860, Note_on_c, 0, 67, 0
2, 106860, Note_on_c, 0, 65, 31
2, 106920, Note_on_c, 0, 65, 0
2, 106920, Note_on_c, 0, 67, 37
2, 106980, Note_on_c, 0, 67, 0
2, 106980, Note_on_c, 0, 65, 33
2, 107040, Note_on_c, 0, 65, 0
2, 107040, Note_on_c, 0, 67, 39
2, 107100, Note_on_c, 0, 67, 0
2, 107100, Note_on_c, 0, 65, 34
2, 107160, Note_on_c, 0, 65, 0
2, 107160, Note_on_c, 0, 67, 40
2, 107220, Note_on_c, 0, 67, 0
2, 107220, Note_on_c, 0, 65, 34
2, 107280, Note_on_c, 0, 65, 0
2, 107280, Note_on_c, 0, 67, 41
2, 107340, Note_on_c, 0, 67, 0
2, 107340, Note_on_c, 0, 65, 35
2, 107400, Note_on_c, 0, 65, 0
2, 107400, Note_on_c, 0, 67, 42
2, 107460, Note_on_c, 0, 67, 0
2, 107460, Note_on_c, 0, 65, 39
2, 107520, Note_on_c, 0, 65, 0
2, 107640, Note_on_c, 0, 65, 42
2, 107760, Note_on_c, 0, 65, 0
2, 107760, Note_on_c, 0, 77, 48
2, 107880, Note_on_c, 0, 77, 0
2, 107880, Note_on_c, 0, 65, 42
2, 108000, Note_on_c, 0, 65, 0
2, 108120, Note_on_c, 0, 65, 42
2, 108240, Note_on_c, 0, 65, 0
2, 108240, Note_on_c, 0, 77, 47
2, 108360, Note_on_c, 0, 77, 0
2, 108360, Note_on_c, 0, 65, 42
2, 108480, Note_on_c, 0, 65, 0
2, 108600, Note_on_c, 0, 65, 42
2, 108720, Note_on_c, 0, 65, 0
2, 108720, Note_on_c, 0, 77, 48
2, 108840, Note_on_c, 0, 77, 0
2, 108840, Note_on_c, 0, 65, 42
2, 108960, Note_on_c, 0, 65, 0
2, 108960, Note_on_c, 0, 77, 48
2, 109080, Note_on_c, 0, 77, 0
2, 109560, Note_on_c, 0, 65, 42
2, 109680, Note_on_c, 0, 65, 0
2, 109680, Note_on_c, 0, 77, 48
2, 109800, Note_on_c, 0, 77, 0
2, 109800, Note_on_c, 0, 65, 42
2, 109920, Note_on_c, 0, 65, 0
2, 110040, Note_on_c, 0, 65, 42
2, 110160, Note_on_c, 0, 65, 0
2, 110160, Note_on_c, 0, 77, 47
2, 110280, Note_on_c, 0, 77, 0
2, 110280, Note_on_c, 0, 65, 42
2, 110400, Note_on_c, 0, 65, 0
2, 110520, Note_on_c, 0, 65, 42
2, 110640, Note_on_c, 0, 65, 0
2, 110640, Note_on_c, 0, 77, 48
2, 110760, Note_on_c, 0, 77, 0
2, 110760, Note_on_c, 0, 65, 42
2, 110880, Note_on_c, 0, 65, 0
2, 110880, Note_on_c, 0, 77, 48
2, 111120, Note_on_c, 0, 77, 0
2, 111480, Note_on_c, 0, 77, 56
2, 111600, Note_on_c, 0, 77, 0
2, 111600, Note_on_c, 0, 89, 67
2, 111840, Note_on_c, 0, 89, 0
2, 111960, Note_on_c, 0, 65, 47
2, 112080, Note_on_c, 0, 65, 0
2, 112080, Note_on_c, 0, 77, 54
2, 112320, Note_on_c, 0, 77, 0
2, 112440, Note_on_c, 0, 77, 66
2, 112560, Note_on_c, 0, 77, 0
2, 112560, Note_on_c, 0, 89, 78
2, 112920, Note_on_c, 0, 89, 0
2, 112920, Note_on_c, 0, 77, 71
2, 113160, Note_on_c, 0, 77, 0
2, 113160, Note_on_c, 0, 79, 67
2, 113220, Note_on_c, 0, 79, 0
2, 113220, Note_on_c, 0, 81, 70
2, 113280, Note_on_c, 0, 81, 0
2, 113280, Note_on_c, 0, 82, 72
2, 113340, Note_on_c, 0, 82, 0
2, 113340, Note_on_c, 0, 84, 73
2, 113400, Note_on_c, 0, 84, 0
2, 113400, Note_on_c, 0, 86, 75
2, 113460, Note_on_c, 0, 86, 0
2, 113460, Note_on_c, 0, 84, 73
2, 113520, Note_on_c, 0, 84, 0
2, 113520, Note_on_c, 0, 82, 74
2, 113580, Note_on_c, 0, 82, 0
2, 113580, Note_on_c, 0, 81, 70
2, 113640, Note_on_c, 0, 81, 0
2, 113640, Note_on_c, 0, 79, 71
2, 113700, Note_on_c, 0, 79, 0
2, 113700, Note_on_c, 0, 77, 69
2, 113760, Note_on_c, 0, 77, 0
2, 113760, Note_on_c, 0, 76, 68
2, 113820, Note_on_c, 0, 76, 0
2, 113820, Note_on_c, 0, 74, 66
2, 113880, Note_on_c, 0, 74, 0
2, 113880, Note_on_c, 0, 72, 63
2, 113940, Note_on_c, 0, 72, 0
2, 113940, Note_on_c, 0, 70, 62
2, 114000, Note_on_c, 0, 70, 0
2, 114000, Note_on_c, 0, 69, 60
2, 114060, Note_on_c, 0, 69, 0
2, 114060, Note_on_c, 0, 67, 58
2, 114120, Note_on_c, 0, 67, 0
2, 114120, Note_on_c, 0, 65, 57
2, 114180, Note_on_c, 0, 65, 0
2, 114180, Note_on_c, 0, 64, 55
2, 114240, Note_on_c, 0, 64, 0
2, 114240, Note_on_c, 0, 67, 54
2, 114300, Note_on_c, 0, 67, 0
2, 114300, Note_on_c, 0, 65, 49
2, 114360, Note_on_c, 0, 65, 0
2, 114360, Note_on_c, 0, 69, 54
2, 114420, Note_on_c, 0, 69, 0
2, 114420, Note_on_c, 0, 67, 48
2, 114480, Note_on_c, 0, 67, 0
2, 114480, Note_on_c, 0, 70, 54
2, 114540, Note_on_c, 0, 70, 0
2, 114540, Note_on_c, 0, 69, 50
2, 114600, Note_on_c, 0, 69, 0
2, 114600, Note_on_c, 0, 72, 54
2, 114660, Note_on_c, 0, 72, 0
2, 114660, Note_on_c, 0, 70, 49
2, 114720, Note_on_c, 0, 70, 0
2, 114720, Note_on_c, 0, 74, 54
2, 114780, Note_on_c, 0, 74, 0
2, 114780, Note_on_c, 0, 72, 48
2, 114840, Note_on_c, 0, 72, 0
2, 114840, Note_on_c, 0, 75, 54
2, 114900, Note_on_c, 0, 75, 0
2, 114900, Note_on_c, 0, 74, 49
2, 114960, Note_on_c, 0, 74, 0
2, 114960, Note_on_c, 0, 77, 54
2, 115020, Note_on_c, 0, 77, 0
2, 115020, Note_on_c, 0, 76, 48
2, 115080, Note_on_c, 0, 76, 0
2, 115080, Note_on_c, 0, 79, 53
2, 115140, Note_on_c, 0, 79, 0
2, 115140, Note_on_c, 0, 77, 49
2, 115200, Note_on_c, 0, 77, 0
2, 115200, Note_on_c, 0, 63, 42
2, 115200, Note_on_c, 0, 75, 50
2, 115320, Note_on_c, 0, 75, 0
2, 115320, Note_on_c, 0, 63, 0
2, 115320, Note_on_c, 0, 62, 39
2, 115320, Note_on_c, 0, 74, 46
2, 115440, Note_on_c, 0, 74, 0
2, 115440, Note_on_c, 0, 62, 0
2, 115440, Note_on_c, 0, 60, 39
2, 115440, Note_on_c, 0, 72, 46
2, 115560, Note_on_c, 0, 72, 0
2, 115560, Note_on_c, 0, 60, 0
2, 115560, Note_on_c, 0, 58, 39
2, 115560, Note_on_c, 0, 70, 46
2, 115680, Note_on_c, 0, 70, 0
2, 115680, Note_on_c, 0, 58, 0
2, 115680, Note_on_c, 0, 57, 42
2, 115680, Note_on_c, 0, 69, 42
2, 115920, Note_on_c, 0, 69, 0
2, 115920, Note_on_c, 0, 57, 0
2, 115920, Note_on_c, 0, 58, 39
2, 115920, Note_on_c, 0, 70, 47
2, 116160, Note_on_c, 0, 70, 0
2, 116160, Note_on_c, 0, 58, 0
2, 116160, Note_on_c, 0, 59, 45
2, 116160, Note_on_c, 0, 71, 53
2, 116400, Note_on_c, 0, 71, 0
2, 116400, Note_on_c, 0, 59, 0
2, 116400, Note_on_c, 0, 60, 41
2, 116400, Note_on_c, 0, 72, 49
2, 116760, Note_on_c, 0, 72, 0
2, 116760, Note_on_c, 0, 60, 0
2, 116760, Note_on_c, 0, 66, 48
2, 116820, Note_on_c, 0, 66, 0
2, 116820, Note_on_c, 0, 78, 45
2, 116880, Note_on_c, 0, 78, 0
2, 116880, Note_on_c, 0, 69, 43
2, 116940, Note_on_c, 0, 69, 0
2, 116940, Note_on_c, 0, 81, 46
2, 117000, Note_on_c, 0, 81, 0
2, 117000, Note_on_c, 0, 67, 53
2, 117060, Note_on_c, 0, 67, 0
2, 117060, Note_on_c, 0, 79, 46
2, 117120, Note_on_c, 0, 79, 0
2, 117120, Note_on_c, 0, 65, 52
2, 117180, Note_on_c, 0, 65, 0
2, 117180, Note_on_c, 0, 77, 47
2, 117240, Note_on_c, 0, 77, 0
2, 117240, Note_on_c, 0, 63, 51
2, 117300, Note_on_c, 0, 63, 0
2, 117300, Note_on_c, 0, 75, 46
2, 117360, Note_on_c, 0, 75, 0
2, 117360, Note_on_c, 0, 62, 51
2, 117420, Note_on_c, 0, 62, 0
2, 117420, Note_on_c, 0, 74, 46
2, 117480, Note_on_c, 0, 74, 0
2, 117480, Note_on_c, 0, 60, 51
2, 117540, Note_on_c, 0, 60, 0
2, 117540, Note_on_c, 0, 72, 46
2, 117600, Note_on_c, 0, 72, 0
2, 117600, Note_on_c, 0, 57, 50
2, 117660, Note_on_c, 0, 57, 0
2, 117660, Note_on_c, 0, 69, 42
2, 117720, Note_on_c, 0, 69, 0
2, 117720, Note_on_c, 0, 58, 47
2, 117780, Note_on_c, 0, 58, 0
2, 117780, Note_on_c, 0, 70, 42
2, 117840, Note_on_c, 0, 70, 0
2, 117840, Note_on_c, 0, 59, 49
2, 117900, Note_on_c, 0, 59, 0
2, 117900, Note_on_c, 0, 71, 42
2, 117960, Note_on_c, 0, 71, 0
2, 117960, Note_on_c, 0, 60, 49
2, 118020, Note_on_c, 0, 60, 0
2, 118020, Note_on_c, 0, 72, 42
2, 118080, Note_on_c, 0, 72, 0
2, 118080, Note_on_c, 0, 61, 45
2, 118080, Note_on_c, 0, 73, 53
2, 118320, Note_on_c, 0, 73, 0
2, 118320, Note_on_c, 0, 61, 0
2, 118320, Note_on_c, 0, 62, 41
2, 118320, Note_on_c, 0, 74, 49
2, 118680, Note_on_c, 0, 74, 0
2, 118680, Note_on_c, 0, 62, 0
2, 118680, Note_on_c, 0, 65, 56
2, 118740, Note_on_c, 0, 65, 0
2, 118740, Note_on_c, 0, 77, 52
2, 118800, Note_on_c, 0, 77, 0
2, 118800, Note_on_c, 0, 67, 64
2, 118860, Note_on_c, 0, 67, 0
2, 118860, Note_on_c, 0, 79, 58
2, 118920, Note_on_c, 0, 79, 0
2, 118920, Note_on_c, 0, 62, 57
2, 118980, Note_on_c, 0, 62, 0
2, 118980, Note_on_c, 0, 74, 52
2, 119040, Note_on_c, 0, 74, 0
2, 119040, Note_on_c, 0, 65, 62
2, 119100, Note_on_c, 0, 65, 0
2, 119100, Note_on_c, 0, 77, 59
2, 119160, Note_on_c, 0, 77, 0
2, 119160, Note_on_c, 0, 63, 58
2, 119220, Note_on_c, 0, 63, 0
2, 119220, Note_on_c, 0, 75, 53
2, 119280, Note_on_c, 0, 75, 0
2, 119280, Note_on_c, 0, 65, 64
2, 119340, Note_on_c, 0, 65, 0
2, 119340, Note_on_c, 0, 77, 58
2, 119400, Note_on_c, 0, 77, 0
2, 119400, Note_on_c, 0, 60, 58
2, 119460, Note_on_c, 0, 60, 0
2, 119460, Note_on_c, 0, 72, 51
2, 119520, Note_on_c, 0, 72, 0
2, 119520, Note_on_c, 0, 63, 64
2, 119580, Note_on_c, 0, 63, 0
2, 119580, Note_on_c, 0, 75, 59
2, 119640, Note_on_c, 0, 75, 0
2, 119640, Note_on_c, 0, 62, 59
2, 119700, Note_on_c, 0, 62, 0
2, 119700, Note_on_c, 0, 74, 53
2, 119760, Note_on_c, 0, 74, 0
2, 119760, Note_on_c, 0, 67, 67
2, 119820, Note_on_c, 0, 67, 0
2, 119820, Note_on_c, 0, 79, 60
2, 119880, Note_on_c, 0, 79, 0
2, 119880, Note_on_c, 0, 62, 59
2, 119940, Note_on_c, 0, 62, 0
2, 119940, Note_on_c, 0, 74, 55
2, 120000, Note_on_c, 0, 74, 0
2, 120000, Note_on_c, 0, 65, 71
2, 120060, Note_on_c, 0, 65, 0
2, 120060, Note_on_c, 0, 77, 67
2, 120120, Note_on_c, 0, 77, 0
2, 120120, Note_on_c, 0, 63, 64
2, 120180, Note_on_c, 0, 63, 0
2, 120180, Note_on_c, 0, 75, 59
2, 120240, Note_on_c, 0, 75, 0
2, 120240, Note_on_c, 0, 65, 72
2, 120300, Note_on_c, 0, 65, 0
2, 120300, Note_on_c, 0, 77, 67
2, 120360, Note_on_c, 0, 77, 0
2, 120360, Note_on_c, 0, 60, 63
2, 120420, Note_on_c, 0, 60, 0
2, 120420, Note_on_c, 0, 72, 60
2, 120480, Note_on_c, 0, 72, 0
2, 120480, Note_on_c, 0, 63, 71
2, 120540, Note_on_c, 0, 63, 0
2, 120540, Note_on_c, 0, 75, 64
2, 120600, Note_on_c, 0, 75, 0
2, 120600, Note_on_c, 0, 62, 64
2, 120660, Note_on_c, 0, 62, 0
2, 120660, Note_on_c, 0, 74, 57
2, 120720, Note_on_c, 0, 74, 0
2, 120720, Note_on_c, 0, 63, 67
2, 120780, Note_on_c, 0, 63, 0
2, 120780, Note_on_c, 0, 75, 58
2, 120840, Note_on_c, 0, 75, 0
2, 120840, Note_on_c, 0, 65, 71
2, 120900, Note_on_c, 0, 65, 0
2, 120900, Note_on_c, 0, 77, 64
2, 120960, Note_on_c, 0, 77, 0
2, 120960, Note_on_c, 0, 66, 76
2, 121020, Note_on_c, 0, 66, 0
2, 121020, Note_on_c, 0, 78, 69
2, 121080, Note_on_c, 0, 78, 0
2, 121080, Note_on_c, 0, 67, 76
2, 121140, Note_on_c, 0, 67, 0
2, 121140, Note_on_c, 0, 79, 69
2, 121200, Note_on_c, 0, 79, 0
2, 121200, Note_on_c, 0, 69, 76
2, 121260, Note_on_c, 0, 69, 0
2, 121260, Note_on_c, 0, 81, 66
2, 121320, Note_on_c, 0, 81, 0
2, 121320, Note_on_c, 0, 70, 78
2, 121380, Note_on_c, 0, 70, 0
2, 121380, Note_on_c, 0, 82, 70
2, 121440, Note_on_c, 0, 82, 0
2, 121440, Note_on_c, 0, 58, 71
2, 121440, Note_on_c, 0, 70, 71
2, 121680, Note_on_c, 0, 70, 0
2, 121680, Note_on_c, 0, 58, 0
2, 121680, Note_on_c, 0, 60, 58
2, 121680, Note_on_c, 0, 72, 69
2, 121920, Note_on_c, 0, 72, 0
2, 121920, Note_on_c, 0, 60, 0
2, 121920, Note_on_c, 0, 61, 41
2, 121920, Note_on_c, 0, 73, 49
2, 122160, Note_on_c, 0, 73, 0
2, 122160, Note_on_c, 0, 61, 0
2, 122160, Note_on_c, 0, 62, 38
2, 122160, Note_on_c, 0, 74, 45
2, 122460, Note_on_c, 0, 74, 0
2, 122460, Note_on_c, 0, 62, 0
2, 122460, Note_on_c, 0, 70, 59
2, 122520, Note_on_c, 0, 70, 0
2, 122520, Note_on_c, 0, 69, 61
2, 122580, Note_on_c, 0, 69, 0
2, 122580, Note_on_c, 0, 70, 62
2, 122640, Note_on_c, 0, 70, 0
2, 122640, Note_on_c, 0, 71, 62
2, 122700, Note_on_c, 0, 71, 0
2, 122700, Note_on_c, 0, 72, 64
2, 122760, Note_on_c, 0, 72, 0
2, 122760, Note_on_c, 0, 73, 65
2, 122820, Note_on_c, 0, 73, 0
2, 122820, Note_on_c, 0, 74, 67
2, 122880, Note_on_c, 0, 74, 0
2, 122880, Note_on_c, 0, 75, 69
2, 122940, Note_on_c, 0, 75, 0
2, 122940, Note_on_c, 0, 76, 70
2, 123000, Note_on_c, 0, 76, 0
2, 123000, Note_on_c, 0, 77, 71
2, 123060, Note_on_c, 0, 77, 0
2, 123060, Note_on_c, 0, 78, 73
2, 123120, Note_on_c, 0, 78, 0
2, 123120, Note_on_c, 0, 79, 74
2, 123180, Note_on_c, 0, 79, 0
2, 123180, Note_on_c, 0, 80, 76
2, 123240, Note_on_c, 0, 80, 0
2, 123240, Note_on_c, 0, 81, 77
2, 123300, Note_on_c, 0, 81, 0
2, 123300, Note_on_c, 0, 82, 78
2, 123360, Note_on_c, 0, 82, 0
2, 123360, Note_on_c, 0, 70, 53
2, 123408, Note_on_c, 0, 70, 0
2, 123408, Note_on_c, 0, 72, 48
2, 123456, Note_on_c, 0, 72, 0
2, 123456, Note_on_c, 0, 70, 45
2, 123504, Note_on_c, 0, 70, 0
2, 123504, Note_on_c, 0, 69, 45
2, 123552, Note_on_c, 0, 69, 0
2, 123552, Note_on_c, 0, 70, 45
2, 123600, Note_on_c, 0, 70, 0
2, 123600, Note_on_c, 0, 63, 42
2, 123600, Note_on_c, 0, 74, 52
2, 123780, Note_on_c, 0, 74, 0
2, 123780, Note_on_c, 0, 72, 41
2, 123840, Note_on_c, 0, 72, 0
2, 123840, Note_on_c, 0, 63, 0
2, 123840, Note_on_c, 0, 62, 42
2, 123840, Note_on_c, 0, 70, 50
2, 124080, Note_on_c, 0, 70, 0
2, 124080, Note_on_c, 0, 62, 0
2, 124320, Note_on_c, 0, 65, 67
2, 124320, Note_on_c, 0, 74, 80
2, 124800, Note_on_c, 0, 74, 0
2, 124800, Note_on_c, 0, 65, 0
2, 124800, Note_on_c, 0, 67, 45
2, 124800, Note_on_c, 0, 72, 53
2, 124852, Note_on_c, 0, 72, 0
2, 124852, Note_on_c, 0, 74, 50
2, 124903, Note_on_c, 0, 74, 0
2, 124903, Note_on_c, 0, 72, 53
2, 124955, Note_on_c, 0, 72, 0
2, 124955, Note_on_c, 0, 74, 50
2, 125007, Note_on_c, 0, 74, 0
2, 125007, Note_on_c, 0, 72, 53
2, 125058, Note_on_c, 0, 72, 0
2, 125058, Note_on_c, 0, 71, 49
2, 125110, Note_on_c, 0, 71, 0
2, 125110, Note_on_c, 0, 72, 49
2, 125160, Note_on_c, 0, 74, 49
2, 125161, Note_on_c, 0, 72, 0
2, 125220, Note_on_c, 0, 74, 0
2, 125220, Note_on_c, 0, 75, 50
2, 125280, Note_on_c, 0, 75, 0
2, 125280, Note_on_c, 0, 67, 0
2, 125280, Note_on_c, 0, 67, 57
2, 125520, Note_on_c, 0, 67, 0
2, 125520, Note_on_c, 0, 63, 45
2, 125520, Note_on_c, 0, 69, 54
2, 125760, Note_on_c, 0, 69, 0
2, 125760, Note_on_c, 0, 63, 0
2, 125760, Note_on_c, 0, 62, 47
2, 125760, Note_on_c, 0, 70, 56
2, 126000, Note_on_c, 0, 70, 0
2, 126000, Note_on_c, 0, 65, 46
2, 126120, Note_on_c, 0, 65, 0
2, 126230, Note_on_c, 0, 62, 0
2, 126240, Note_on_c, 0, 65, 67
2, 126240, Note_on_c, 0, 74, 80
2, 126720, Note_on_c, 0, 74, 0
2, 126720, Note_on_c, 0, 65, 0
2, 126720, Note_on_c, 0, 67, 45
2, 126720, Note_on_c, 0, 72, 63
2, 126840, Note_on_c, 0, 72, 0
2, 126840, Note_on_c, 0, 74, 56
2, 126880, Note_on_c, 0, 74, 0
2, 126880, Note_on_c, 0, 72, 56
2, 126920, Note_on_c, 0, 72, 0
2, 126920, Note_on_c, 0, 71, 56
2, 126960, Note_on_c, 0, 71, 0
2, 126960, Note_on_c, 0, 72, 63
2, 127140, Note_on_c, 0, 72, 0
2, 127140, Note_on_c, 0, 74, 58
2, 127200, Note_on_c, 0, 74, 0
2, 127200, Note_on_c, 0, 67, 0
2, 127200, Note_on_c, 0, 64, 45
2, 127200, Note_on_c, 0, 70, 63
2, 127320, Note_on_c, 0, 70, 0
2, 127320, Note_on_c, 0, 72, 56
2, 127360, Note_on_c, 0, 72, 0
2, 127360, Note_on_c, 0, 70, 56
2, 127400, Note_on_c, 0, 70, 0
2, 127400, Note_on_c, 0, 69, 56
2, 127440, Note_on_c, 0, 69, 0
2, 127440, Note_on_c, 0, 70, 63
2, 127620, Note_on_c, 0, 70, 0
2, 127620, Note_on_c, 0, 72, 58
2, 127680, Note_on_c, 0, 72, 0
2, 127680, Note_on_c, 0, 64, 0
2, 127680, Note_on_c, 0, 65, 47
2, 127680, Note_on_c, 0, 70, 56
2, 127920, Note_on_c, 0, 70, 0
2, 127920, Note_on_c, 0, 69, 46
2, 128040, Note_on_c, 0, 69, 0
2, 128160, Note_on_c, 0, 65, 0
2, 128160, Note_on_c, 0, 67, 67
2, 128160, Note_on_c, 0, 79, 80
2, 128640, Note_on_c, 0, 79, 0
2, 128640, Note_on_c, 0, 67, 0
2, 128640, Note_on_c, 0, 72, 45
2, 128640, Note_on_c, 0, 77, 63
2, 128760, Note_on_c, 0, 77, 0
2, 128760, Note_on_c, 0, 79, 56
2, 128800, Note_on_c, 0, 79, 0
2, 128800, Note_on_c, 0, 77, 56
2, 128840, Note_on_c, 0, 77, 0
2, 128840, Note_on_c, 0, 76, 56
2, 128880, Note_on_c, 0, 76, 0
2, 128880, Note_on_c, 0, 77, 63
2, 129060, Note_on_c, 0, 77, 0
2, 129060, Note_on_c, 0, 79, 58
2, 129120, Note_on_c, 0, 79, 0
2, 129120, Note_on_c, 0, 72, 0
2, 129120, Note_on_c, 0, 69, 45
2, 129120, Note_on_c, 0, 75, 63
2, 129240, Note_on_c, 0, 75, 0
2, 129240, Note_on_c, 0, 77, 56
2, 129280, Note_on_c, 0, 77, 0
2, 129280, Note_on_c, 0, 75, 56
2, 129320, Note_on_c, 0, 75, 0
2, 129320, Note_on_c, 0, 74, 56
2, 129360, Note_on_c, 0, 74, 0
2, 129360, Note_on_c, 0, 75, 63
2, 129540, Note_on_c, 0, 75, 0
2, 129540, Note_on_c, 0, 77, 58
2, 129600, Note_on_c, 0, 77, 0
2, 129600, Note_on_c, 0, 69, 0
2, 129600, Note_on_c, 0, 70, 47
2, 129600, Note_on_c, 0, 75, 56
2, 129840, Note_on_c, 0, 75, 0
2, 129840, Note_on_c, 0, 74, 46
2, 129960, Note_on_c, 0, 74, 0
2, 130070, Note_on_c, 0, 70, 0
2, 130320, Note_on_c, 0, 74, 54
2, 130380, Note_on_c, 0, 82, 69
2, 130440, Note_on_c, 0, 86, 73
2, 130800, Note_on_c, 0, 86, 0
2, 130800, Note_on_c, 0, 82, 0
2, 130800, Note_on_c, 0, 74, 0
2, 130800, Note_on_c, 0, 74, 61
2, 130860, Note_on_c, 0, 82, 73
2, 130920, Note_on_c, 0, 86, 78
2, 131280, Note_on_c, 0, 86, 0
2, 131280, Note_on_c, 0, 82, 0
2, 131280, Note_on_c, 0, 74, 0
2, 131280, Note_on_c, 0, 74, 65
2, 131340, Note_on_c, 0, 82, 76
2, 131400, Note_on_c, 0, 86, 81
2, 131760, Note_on_c, 0, 86, 0
2, 131760, Note_on_c, 0, 82, 0
2, 131760, Note_on_c, 0, 74, 0
2, 131760, Note_on_c, 0, 74, 68
2, 131820, Note_on_c, 0, 82, 80
2, 131880, Note_on_c, 0, 86, 86
2, 132000, Note_on_c, 0, 86, 0
2, 132000, Note_on_c, 0, 82, 0
2, 132000, Note_on_c, 0, 74, 0
2, 132240, Note_on_c, 0, 86, 90
2, 132240, Note_on_c, 0, 74, 75
2, 132720, Note_on_c, 0, 74, 0
2, 132720, Note_on_c, 0, 86, 0
2, 132720, Note_on_c, 0, 84, 68
2, 132720, Note_on_c, 0, 72, 57
2, 132840, Note_on_c, 0, 72, 0
2, 132840, Note_on_c, 0, 84, 0
2, 133200, Note_on_c, 0, 82, 90
2, 133200, Note_on_c, 0, 70, 75
2, 133680, Note_on_c, 0, 70, 0
2, 133680, Note_on_c, 0, 82, 0
2, 133680, Note_on_c, 0, 81, 68
2, 133680, Note_on_c, 0, 69, 57
2, 133800, Note_on_c, 0, 69, 0
2, 133800, Note_on_c, 0, 81, 0
2, 134160, Note_on_c, 0, 79, 90
2, 134160, Note_on_c, 0, 67, 75
2, 134520, Note_on_c, 0, 67, 0
2, 134520, Note_on_c, 0, 79, 0
2, 134520, Note_on_c, 0, 65, 57
2, 134520, Note_on_c, 0, 77, 68
2, 134760, Note_on_c, 0, 77, 0
2, 134760, Note_on_c, 0, 65, 0
2, 134760, Note_on_c, 0, 63, 66
2, 134760, Note_on_c, 0, 75, 66
2, 135000, Note_on_c, 0, 75, 0
2, 135000, Note_on_c, 0, 63, 0
2, 135000, Note_on_c, 0, 62, 57
2, 135000, Note_on_c, 0, 74, 68
2, 135240, Note_on_c, 0, 74, 0
2, 135240, Note_on_c, 0, 62, 0
2, 135240, Note_on_c, 0, 60, 59
2, 135240, Note_on_c, 0, 72, 63
2, 135360, Note_on_c, 0, 72, 0
2, 135360, Note_on_c, 0, 60, 0
2, 135360, Note_on_c, 0, 61, 61
2, 135360, Note_on_c, 0, 73, 72
2, 135600, Note_on_c, 0, 73, 0
2, 135600, Note_on_c, 0, 61, 0
2, 135600, Note_on_c, 0, 62, 56
2, 135600, Note_on_c, 0, 74, 66
2, 135720, Note_on_c, 0, 74, 0
2, 135720, Note_on_c, 0, 62, 0
2, 135840, Note_on_c, 0, 62, 62
2, 136080, Note_on_c, 0, 62, 0
2, 136080, Note_on_c, 0, 74, 57
2, 136080, Note_on_c, 0, 64, 53
2, 136560, Note_on_c, 0, 64, 0
2, 136560, Note_on_c, 0, 74, 0
2, 136560, Note_on_c, 0, 65, 68
2, 136560, Note_on_c, 0, 72, 57
2, 136680, Note_on_c, 0, 72, 0
2, 136680, Note_on_c, 0, 65, 0
2, 136800, Note_on_c, 0, 58, 62
2, 137040, Note_on_c, 0, 58, 0
2, 137040, Note_on_c, 0, 70, 57
2, 137040, Note_on_c, 0, 61, 53
2, 137520, Note_on_c, 0, 61, 0
2, 137520, Note_on_c, 0, 70, 0
2, 137520, Note_on_c, 0, 62, 68
2, 137520, Note_on_c, 0, 69, 57
2, 137640, Note_on_c, 0, 69, 0
2, 137640, Note_on_c, 0, 62, 0
2, 137760, Note_on_c, 0, 55, 62
2, 137760, Note_on_c, 0, 67, 62
2, 138000, Note_on_c, 0, 67, 0
2, 138000, Note_on_c, 0, 55, 0
2, 138000, Note_on_c, 0, 57, 59
2, 138000, Note_on_c, 0, 66, 53
2, 138240, Note_on_c, 0, 57, 0
2, 138240, Note_on_c, 0, 58, 59
2, 138360, Note_on_c, 0, 65, 69
2, 138480, Note_on_c, 0, 58, 0
2, 138480, Note_on_c, 0, 66, 0
2, 138480, Note_on_c, 0, 55, 69
2, 138480, Note_on_c, 0, 60, 69
2, 138600, Note_on_c, 0, 65, 0
2, 138600, Note_on_c, 0, 63, 77
2, 138720, Note_on_c, 0, 60, 0
2, 138720, Note_on_c, 0, 55, 0
2, 138840, Note_on_c, 0, 63, 0
2, 138840, Note_on_c, 0, 62, 84
2, 139080, Note_on_c, 0, 62, 0
2, 139080, Note_on_c, 0, 60, 92
2, 139200, Note_on_c, 0, 60, 0
2, 139200, Note_on_c, 0, 58, 92
2, 139260, Note_on_c, 0, 58, 0
2, 139260, Note_on_c, 0, 50, 50
2, 139320, Note_on_c, 0, 50, 0
2, 139320, Note_on_c, 0, 53, 50
2, 139380, Note_on_c, 0, 53, 0
2, 139380, Note_on_c, 0, 58, 50
2, 139440, Note_on_c, 0, 58, 0
2, 139440, Note_on_c, 0, 62, 53
2, 139500, Note_on_c, 0, 62, 0
2, 139500, Note_on_c, 0, 65, 50
2, 139560, Note_on_c, 0, 65, 0
2, 139560, Note_on_c, 0, 70, 50
2, 139620, Note_on_c, 0, 70, 0
2, 139620, Note_on_c, 0, 74, 50
2, 139680, Note_on_c, 0, 74, 0
2, 139680, Note_on_c, 0, 65, 55
2, 139740, Note_on_c, 0, 65, 0
2, 139740, Note_on_c, 0, 70, 50
2, 139800, Note_on_c, 0, 70, 0
2, 139800, Note_on_c, 0, 74, 50
2, 139860, Note_on_c, 0, 74, 0
2, 139860, Note_on_c, 0, 77, 50
2, 139920, Note_on_c, 0, 77, 0
2, 139920, Note_on_c, 0, 70, 55
2, 139980, Note_on_c, 0, 70, 0
2, 139980, Note_on_c, 0, 74, 50
2, 140040, Note_on_c, 0, 74, 0
2, 140040, Note_on_c, 0, 77, 50
2, 140100, Note_on_c, 0, 77, 0
2, 140100, Note_on_c, 0, 82, 50
2, 140160, Note_on_c, 0, 82, 0
2, 140160, Note_on_c, 0, 81, 69
2, 140220, Note_on_c, 0, 81, 0
2, 140220, Note_on_c, 0, 87, 50
2, 140280, Note_on_c, 0, 87, 0
2, 140280, Note_on_c, 0, 84, 50
2, 140340, Note_on_c, 0, 84, 0
2, 140340, Note_on_c, 0, 81, 50
2, 140400, Note_on_c, 0, 81, 0
2, 140400, Note_on_c, 0, 77, 54
2, 140460, Note_on_c, 0, 77, 0
2, 140460, Note_on_c, 0, 84, 50
2, 140520, Note_on_c, 0, 84, 0
2, 140520, Note_on_c, 0, 81, 50
2, 140580, Note_on_c, 0, 81, 0
2, 140580, Note_on_c, 0, 77, 50
2, 140640, Note_on_c, 0, 77, 0
2, 140640, Note_on_c, 0, 75, 56
2, 140700, Note_on_c, 0, 75, 0
2, 140700, Note_on_c, 0, 81, 50
2, 140760, Note_on_c, 0, 81, 0
2, 140760, Note_on_c, 0, 77, 50
2, 140820, Note_on_c, 0, 77, 0
2, 140820, Note_on_c, 0, 75, 50
2, 140880, Note_on_c, 0, 75, 0
2, 140880, Note_on_c, 0, 72, 54
2, 140940, Note_on_c, 0, 72, 0
2, 140940, Note_on_c, 0, 77, 50
2, 141000, Note_on_c, 0, 77, 0
2, 141000, Note_on_c, 0, 75, 50
2, 141060, Note_on_c, 0, 75, 0
2, 141060, Note_on_c, 0, 72, 50
2, 141120, Note_on_c, 0, 72, 0
2, 141120, Note_on_c, 0, 70, 69
2, 141180, Note_on_c, 0, 70, 0
2, 141180, Note_on_c, 0, 50, 50
2, 141240, Note_on_c, 0, 50, 0
2, 141240, Note_on_c, 0, 53, 50
2, 141300, Note_on_c, 0, 53, 0
2, 141300, Note_on_c, 0, 58, 50
2, 141360, Note_on_c, 0, 58, 0
2, 141360, Note_on_c, 0, 62, 53
2, 141420, Note_on_c, 0, 62, 0
2, 141420, Note_on_c, 0, 65, 50
2, 141480, Note_on_c, 0, 65, 0
2, 141480, Note_on_c, 0, 70, 50
2, 141540, Note_on_c, 0, 70, 0
2, 141540, Note_on_c, 0, 74, 50
2, 141600, Note_on_c, 0, 74, 0
2, 141600, Note_on_c, 0, 65, 55
2, 141660, Note_on_c, 0, 65, 0
2, 141660, Note_on_c, 0, 70, 50
2, 141720, Note_on_c, 0, 70, 0
2, 141720, Note_on_c, 0, 74, 50
2, 141780, Note_on_c, 0, 74, 0
2, 141780, Note_on_c, 0, 77, 50
2, 141840, Note_on_c, 0, 77, 0
2, 141840, Note_on_c, 0, 70, 55
2, 141900, Note_on_c, 0, 70, 0
2, 141900, Note_on_c, 0, 74, 50
2, 141960, Note_on_c, 0, 74, 0
2, 141960, Note_on_c, 0, 77, 50
2, 142020, Note_on_c, 0, 77, 0
2, 142020, Note_on_c, 0, 82, 50
2, 142080, Note_on_c, 0, 82, 0
2, 142080, Note_on_c, 0, 81, 72
2, 142140, Note_on_c, 0, 81, 0
2, 142140, Note_on_c, 0, 87, 50
2, 142200, Note_on_c, 0, 87, 0
2, 142200, Note_on_c, 0, 84, 50
2, 142260, Note_on_c, 0, 84, 0
2, 142260, Note_on_c, 0, 81, 50
2, 142320, Note_on_c, 0, 81, 0
2, 142320, Note_on_c, 0, 77, 54
2, 142380, Note_on_c, 0, 77, 0
2, 142380, Note_on_c, 0, 84, 50
2, 142440, Note_on_c, 0, 84, 0
2, 142440, Note_on_c, 0, 81, 50
2, 142500, Note_on_c, 0, 81, 0
2, 142500, Note_on_c, 0, 77, 50
2, 142560, Note_on_c, 0, 77, 0
2, 142560, Note_on_c, 0, 75, 56
2, 142620, Note_on_c, 0, 75, 0
2, 142620, Note_on_c, 0, 81, 50
2, 142680, Note_on_c, 0, 81, 0
2, 142680, Note_on_c, 0, 77, 50
2, 142740, Note_on_c, 0, 77, 0
2, 142740, Note_on_c, 0, 75, 50
2, 142800, Note_on_c, 0, 75, 0
2, 142800, Note_on_c, 0, 72, 54
2, 142860, Note_on_c, 0, 72, 0
2, 142860, Note_on_c, 0, 77, 50
2, 142920, Note_on_c, 0, 77, 0
2, 142920, Note_on_c, 0, 75, 50
2, 142980, Note_on_c, 0, 75, 0
2, 142980, Note_on_c, 0, 72, 50
2, 143040, Note_on_c, 0, 72, 0
2, 143040, Note_on_c, 0, 70, 74
2, 143100, Note_on_c, 0, 70, 0
2, 143100, Note_on_c, 0, 50, 50
2, 143160, Note_on_c, 0, 50, 0
2, 143160, Note_on_c, 0, 53, 50
2, 143220, Note_on_c, 0, 53, 0
2, 143220, Note_on_c, 0, 58, 50
2, 143280, Note_on_c, 0, 58, 0
2, 143280, Note_on_c, 0, 62, 53
2, 143340, Note_on_c, 0, 62, 0
2, 143340, Note_on_c, 0, 65, 50
2, 143400, Note_on_c, 0, 65, 0
2, 143400, Note_on_c, 0, 70, 50
2, 143460, Note_on_c, 0, 70, 0
2, 143460, Note_on_c, 0, 74, 50
2, 143520, Note_on_c, 0, 74, 0
2, 143520, Note_on_c, 0, 65, 55
2, 143580, Note_on_c, 0, 65, 0
2, 143580, Note_on_c, 0, 70, 50
2, 143640, Note_on_c, 0, 70, 0
2, 143640, Note_on_c, 0, 74, 50
2, 143700, Note_on_c, 0, 74, 0
2, 143700, Note_on_c, 0, 77, 50
2, 143760, Note_on_c, 0, 77, 0
2, 143760, Note_on_c, 0, 70, 55
2, 143820, Note_on_c, 0, 70, 0
2, 143820, Note_on_c, 0, 74, 50
2, 143880, Note_on_c, 0, 74, 0
2, 143880, Note_on_c, 0, 77, 50
2, 143940, Note_on_c, 0, 77, 0
2, 143940, Note_on_c, 0, 82, 50
2, 144000, Note_on_c, 0, 82, 0
2, 144060, Note_on_c, 0, 50, 55
2, 144120, Note_on_c, 0, 50, 0
2, 144120, Note_on_c, 0, 53, 55
2, 144180, Note_on_c, 0, 53, 0
2, 144180, Note_on_c, 0, 58, 55
2, 144240, Note_on_c, 0, 58, 0
2, 144240, Note_on_c, 0, 62, 58
2, 144300, Note_on_c, 0, 62, 0
2, 144300, Note_on_c, 0, 65, 55
2, 144360, Note_on_c, 0, 65, 0
2, 144360, Note_on_c, 0, 70, 55
2, 144420, Note_on_c, 0, 70, 0
2, 144420, Note_on_c, 0, 74, 55
2, 144480, Note_on_c, 0, 74, 0
2, 144480, Note_on_c, 0, 65, 60
2, 144540, Note_on_c, 0, 65, 0
2, 144540, Note_on_c, 0, 70, 55
2, 144600, Note_on_c, 0, 70, 0
2, 144600, Note_on_c, 0, 74, 55
2, 144660, Note_on_c, 0, 74, 0
2, 144660, Note_on_c, 0, 77, 55
2, 144720, Note_on_c, 0, 77, 0
2, 144720, Note_on_c, 0, 70, 60
2, 144780, Note_on_c, 0, 70, 0
2, 144780, Note_on_c, 0, 74, 55
2, 144840, Note_on_c, 0, 74, 0
2, 144840, Note_on_c, 0, 77, 55
2, 144900, Note_on_c, 0, 77, 0
2, 144900, Note_on_c, 0, 82, 55
2, 144960, Note_on_c, 0, 82, 0
2, 145020, Note_on_c, 0, 51, 55
2, 145080, Note_on_c, 0, 51, 0
2, 145080, Note_on_c, 0, 55, 60
2, 145140, Note_on_c, 0, 55, 0
2, 145140, Note_on_c, 0, 58, 60
2, 145200, Note_on_c, 0, 58, 0
2, 145200, Note_on_c, 0, 63, 63
2, 145260, Note_on_c, 0, 63, 0
2, 145260, Note_on_c, 0, 67, 60
2, 145320, Note_on_c, 0, 67, 0
2, 145320, Note_on_c, 0, 70, 60
2, 145380, Note_on_c, 0, 70, 0
2, 145380, Note_on_c, 0, 75, 60
2, 145440, Note_on_c, 0, 75, 0
2, 145440, Note_on_c, 0, 67, 66
2, 145500, Note_on_c, 0, 67, 0
2, 145500, Note_on_c, 0, 70, 60
2, 145560, Note_on_c, 0, 70, 0
2, 145560, Note_on_c, 0, 75, 60
2, 145620, Note_on_c, 0, 75, 0
2, 145620, Note_on_c, 0, 79, 60
2, 145680, Note_on_c, 0, 79, 0
2, 145680, Note_on_c, 0, 70, 66
2, 145740, Note_on_c, 0, 70, 0
2, 145740, Note_on_c, 0, 75, 60
2, 145800, Note_on_c, 0, 75, 0
2, 145800, Note_on_c, 0, 79, 60
2, 145860, Note_on_c, 0, 79, 0
2, 145860, Note_on_c, 0, 82, 60
2, 145920, Note_on_c, 0, 82, 0
2, 146400, Note_on_c, 0, 62, 66
2, 146460, Note_on_c, 0, 62, 0
2, 146460, Note_on_c, 0, 65, 59
2, 146520, Note_on_c, 0, 65, 0
2, 146520, Note_on_c, 0, 68, 61
2, 146580, Note_on_c, 0, 68, 0
2, 146580, Note_on_c, 0, 70, 64
2, 146640, Note_on_c, 0, 70, 0
2, 146640, Note_on_c, 0, 74, 67
2, 146688, Note_on_c, 0, 74, 0
2, 146688, Note_on_c, 0, 77, 68
2, 146736, Note_on_c, 0, 77, 0
2, 146736, Note_on_c, 0, 80, 70
2, 146784, Note_on_c, 0, 80, 0
2, 146784, Note_on_c, 0, 84, 68
2, 146832, Note_on_c, 0, 84, 0
2, 146832, Note_on_c, 0, 82, 65
2, 146880, Note_on_c, 0, 82, 0
2, 146880, Note_on_c, 0, 80, 50
2, 147000, Note_on_c, 0, 80, 0
2, 147000, Note_on_c, 0, 79, 46
2, 147120, Note_on_c, 0, 79, 0
2, 147120, Note_on_c, 0, 77, 46
2, 147240, Note_on_c, 0, 77, 0
2, 147240, Note_on_c, 0, 75, 46
2, 147360, Note_on_c, 0, 75, 0
2, 147360, Note_on_c, 0, 74, 50
2, 147600, Note_on_c, 0, 74, 0
2, 147600, Note_on_c, 0, 75, 47
2, 147840, Note_on_c, 0, 75, 0
2, 147840, Note_on_c, 0, 76, 53
2, 148080, Note_on_c, 0, 76, 0
2, 148080, Note_on_c, 0, 77, 49
2, 148320, Note_on_c, 0, 77, 0
2, 148440, Note_on_c, 0, 83, 45
2, 148464, Note_on_c, 0, 83, 0
2, 148464, Note_on_c, 0, 84, 43
2, 148488, Note_on_c, 0, 84, 0
2, 148488, Note_on_c, 0, 83, 45
2, 148512, Note_on_c, 0, 83, 0
2, 148512, Note_on_c, 0, 81, 42
2, 148536, Note_on_c, 0, 81, 0
2, 148536, Note_on_c, 0, 83, 42
2, 148560, Note_on_c, 0, 83, 0
2, 148560, Note_on_c, 0, 86, 50
2, 148680, Note_on_c, 0, 86, 0
2, 148680, Note_on_c, 0, 84, 46
2, 148800, Note_on_c, 0, 84, 0
2, 148800, Note_on_c, 0, 82, 50
2, 148920, Note_on_c, 0, 82, 0
2, 148920, Note_on_c, 0, 80, 44
2, 149040, Note_on_c, 0, 80, 0
2, 149040, Note_on_c, 0, 79, 46
2, 149160, Note_on_c, 0, 79, 0
2, 149160, Note_on_c, 0, 77, 43
2, 149280, Note_on_c, 0, 77, 0
2, 149280, Note_on_c, 0, 74, 50
2, 149400, Note_on_c, 0, 74, 0
2, 149400, Note_on_c, 0, 75, 44
2, 149520, Note_on_c, 0, 75, 0
2, 149520, Note_on_c, 0, 76, 47
2, 149640, Note_on_c, 0, 76, 0
2, 149640, Note_on_c, 0, 77, 43
2, 149760, Note_on_c, 0, 77, 0
2, 149760, Note_on_c, 0, 78, 53
2, 150000, Note_on_c, 0, 78, 0
2, 150000, Note_on_c, 0, 79, 49
2, 150360, Note_on_c, 0, 79, 0
2, 150360, Note_on_c, 0, 79, 51
2, 150480, Note_on_c, 0, 79, 0
2, 150480, Note_on_c, 0, 80, 58
2, 150600, Note_on_c, 0, 80, 0
2, 150600, Note_on_c, 0, 79, 52
2, 150720, Note_on_c, 0, 79, 0
2, 150720, Note_on_c, 0, 77, 50
2, 150840, Note_on_c, 0, 77, 0
2, 150840, Note_on_c, 0, 75, 44
2, 150960, Note_on_c, 0, 75, 0
2, 150960, Note_on_c, 0, 74, 46
2, 151080, Note_on_c, 0, 74, 0
2, 151080, Note_on_c, 0, 72, 43
2, 151200, Note_on_c, 0, 72, 0
2, 151200, Note_on_c, 0, 71, 50
2, 151440, Note_on_c, 0, 71, 0
2, 151440, Note_on_c, 0, 72, 47
2, 151680, Note_on_c, 0, 72, 0
2, 151680, Note_on_c, 0, 73, 53
2, 151920, Note_on_c, 0, 73, 0
2, 151920, Note_on_c, 0, 74, 49
2, 152160, Note_on_c, 0, 74, 0
2, 152280, Note_on_c, 0, 79, 34
2, 152400, Note_on_c, 0, 79, 0
2, 152400, Note_on_c, 0, 80, 40
2, 152520, Note_on_c, 0, 80, 0
2, 152520, Note_on_c, 0, 79, 36
2, 152640, Note_on_c, 0, 79, 0
2, 152640, Note_on_c, 0, 77, 40
2, 152760, Note_on_c, 0, 77, 0
2, 152760, Note_on_c, 0, 75, 36
2, 152880, Note_on_c, 0, 75, 0
2, 152880, Note_on_c, 0, 74, 38
2, 153000, Note_on_c, 0, 74, 0
2, 153000, Note_on_c, 0, 72, 36
2, 153120, Note_on_c, 0, 72, 0
2, 153240, Note_on_c, 0, 75, 34
2, 153360, Note_on_c, 0, 75, 0
2, 153360, Note_on_c, 0, 77, 40
2, 153480, Note_on_c, 0, 77, 0
2, 153480, Note_on_c, 0, 75, 36
2, 153600, Note_on_c, 0, 75, 0
2, 153600, Note_on_c, 0, 74, 40
2, 153720, Note_on_c, 0, 74, 0
2, 153720, Note_on_c, 0, 72, 36
2, 153840, Note_on_c, 0, 72, 0
2, 153840, Note_on_c, 0, 70, 38
2, 153960, Note_on_c, 0, 70, 0
2, 153960, Note_on_c, 0, 69, 36
2, 154080, Note_on_c, 0, 69, 0
2, 155580, Note_on_c, 0, 57, 36
2, 155640, Note_on_c, 0, 57, 0
2, 155640, Note_on_c, 0, 58, 36
2, 155700, Note_on_c, 0, 58, 0
2, 155700, Note_on_c, 0, 60, 37
2, 155760, Note_on_c, 0, 60, 0
2, 155760, Note_on_c, 0, 62, 37
2, 155820, Note_on_c, 0, 62, 0
2, 155820, Note_on_c, 0, 63, 38
2, 155880, Note_on_c, 0, 63, 0
2, 155880, Note_on_c, 0, 65, 39
2, 155940, Note_on_c, 0, 65, 0
2, 155940, Note_on_c, 0, 67, 39
2, 156000, Note_on_c, 0, 67, 0
2, 156000, Note_on_c, 0, 69, 40
2, 156080, Note_on_c, 0, 69, 0
2, 156080, Note_on_c, 0, 70, 42
2, 156160, Note_on_c, 0, 70, 0
2, 156160, Note_on_c, 0, 71, 43
2, 156240, Note_on_c, 0, 71, 0
2, 156240, Note_on_c, 0, 72, 44
2, 156320, Note_on_c, 0, 72, 0
2, 156320, Note_on_c, 0, 73, 44
2, 156400, Note_on_c, 0, 73, 0
2, 156400, Note_on_c, 0, 74, 45
2, 156480, Note_on_c, 0, 74, 0
2, 156480, Note_on_c, 0, 75, 49
2, 156560, Note_on_c, 0, 75, 0
2, 156560, Note_on_c, 0, 69, 42
2, 156640, Note_on_c, 0, 69, 0
2, 156640, Note_on_c, 0, 70, 42
2, 156720, Note_on_c, 0, 70, 0
2, 156720, Note_on_c, 0, 71, 45
2, 156800, Note_on_c, 0, 71, 0
2, 156800, Note_on_c, 0, 72, 48
2, 156880, Note_on_c, 0, 72, 0
2, 156880, Note_on_c, 0, 74, 50
2, 156960, Note_on_c, 0, 74, 0
2, 156960, Note_on_c, 0, 75, 52
2, 157040, Note_on_c, 0, 75, 0
2, 157040, Note_on_c, 0, 69, 47
2, 157120, Note_on_c, 0, 69, 0
2, 157120, Note_on_c, 0, 70, 49
2, 157200, Note_on_c, 0, 70, 0
2, 157200, Note_on_c, 0, 71, 50
2, 157280, Note_on_c, 0, 71, 0
2, 157280, Note_on_c, 0, 72, 52
2, 157360, Note_on_c, 0, 72, 0
2, 157360, Note_on_c, 0, 74, 53
2, 157440, Note_on_c, 0, 74, 0
2, 157440, Note_on_c, 0, 75, 62
2, 157500, Note_on_c, 0, 75, 0
2, 157500, Note_on_c, 0, 69, 54
2, 157560, Note_on_c, 0, 69, 0
2, 157560, Note_on_c, 0, 68, 51
2, 157620, Note_on_c, 0, 68, 0
2, 157620, Note_on_c, 0, 69, 52
2, 157680, Note_on_c, 0, 69, 0
2, 157680, Note_on_c, 0, 70, 53
2, 157740, Note_on_c, 0, 70, 0
2, 157740, Note_on_c, 0, 71, 54
2, 157800, Note_on_c, 0, 71, 0
2, 157800, Note_on_c, 0, 72, 56
2, 157860, Note_on_c, 0, 72, 0
2, 157860, Note_on_c, 0, 73, 57
2, 157920, Note_on_c, 0, 73, 0
2, 157920, Note_on_c, 0, 74, 59
2, 158000, Note_on_c, 0, 74, 0
2, 158000, Note_on_c, 0, 75, 61
2, 158080, Note_on_c, 0, 75, 0
2, 158080, Note_on_c, 0, 76, 59
2, 158160, Note_on_c, 0, 76, 0
2, 158160, Note_on_c, 0, 79, 50
2, 158280, Note_on_c, 0, 79, 0
2, 158280, Note_on_c, 0, 77, 46
2, 158390, Note_on_c, 0, 77, 0
2, 158400, Note_on_c, 0, 77, 50
2, 158440, Note_on_c, 0, 77, 0
2, 158480, Note_on_c, 0, 75, 46
2, 158520, Note_on_c, 0, 75, 0
2, 158560, Note_on_c, 0, 74, 46
2, 158600, Note_on_c, 0, 74, 0
2, 158640, Note_on_c, 0, 74, 46
2, 158680, Note_on_c, 0, 74, 0
2, 158720, Note_on_c, 0, 72, 46
2, 158760, Note_on_c, 0, 72, 0
2, 158800, Note_on_c, 0, 70, 46
2, 158840, Note_on_c, 0, 70, 0
2, 158880, Note_on_c, 0, 70, 50
2, 158920, Note_on_c, 0, 70, 0
2, 158960, Note_on_c, 0, 68, 44
2, 159000, Note_on_c, 0, 68, 0
2, 159040, Note_on_c, 0, 69, 44
2, 159080, Note_on_c, 0, 69, 0
2, 159120, Note_on_c, 0, 72, 47
2, 159160, Note_on_c, 0, 72, 0
2, 159200, Note_on_c, 0, 69, 44
2, 159240, Note_on_c, 0, 69, 0
2, 159280, Note_on_c, 0, 70, 44
2, 159320, Note_on_c, 0, 70, 0
2, 159360, Note_on_c, 0, 71, 53
2, 159600, Note_on_c, 0, 71, 0
2, 159600, Note_on_c, 0, 72, 49
2, 159840, Note_on_c, 0, 72, 0
2, 159960, Note_on_c, 0, 78, 45
2, 160080, Note_on_c, 0, 78, 0
2, 160080, Note_on_c, 0, 81, 50
2, 160200, Note_on_c, 0, 81, 0
2, 160200, Note_on_c, 0, 79, 46
2, 160320, Note_on_c, 0, 79, 0
2, 160320, Note_on_c, 0, 79, 50
2, 160360, Note_on_c, 0, 79, 0
2, 160400, Note_on_c, 0, 77, 46
2, 160440, Note_on_c, 0, 77, 0
2, 160480, Note_on_c, 0, 75, 46
2, 160520, Note_on_c, 0, 75, 0
2, 160560, Note_on_c, 0, 75, 46
2, 160600, Note_on_c, 0, 75, 0
2, 160640, Note_on_c, 0, 74, 42
2, 160680, Note_on_c, 0, 74, 0
2, 160720, Note_on_c, 0, 72, 42
2, 160760, Note_on_c, 0, 72, 0
2, 160800, Note_on_c, 0, 72, 50
2, 160840, Note_on_c, 0, 72, 0
2, 160880, Note_on_c, 0, 69, 44
2, 160920, Note_on_c, 0, 69, 0
2, 160960, Note_on_c, 0, 70, 44
2, 161000, Note_on_c, 0, 70, 0
2, 161040, Note_on_c, 0, 74, 47
2, 161080, Note_on_c, 0, 74, 0
2, 161120, Note_on_c, 0, 71, 44
2, 161160, Note_on_c, 0, 71, 0
2, 161200, Note_on_c, 0, 72, 44
2, 161240, Note_on_c, 0, 72, 0
2, 161280, Note_on_c, 0, 73, 53
2, 161520, Note_on_c, 0, 73, 0
2, 161520, Note_on_c, 0, 74, 49
2, 161840, Note_on_c, 0, 74, 0
2, 161840, Note_on_c, 0, 77, 51
2, 161920, Note_on_c, 0, 77, 0
2, 161920, Note_on_c, 0, 76, 48
2, 162000, Note_on_c, 0, 76, 0
2, 162000, Note_on_c, 0, 77, 58
2, 162080, Note_on_c, 0, 77, 0
2, 162080, Note_on_c, 0, 79, 52
2, 162160, Note_on_c, 0, 79, 0
2, 162160, Note_on_c, 0, 74, 49
2, 162240, Note_on_c, 0, 74, 0
2, 162240, Note_on_c, 0, 77, 56
2, 162320, Note_on_c, 0, 77, 0
2, 162320, Note_on_c, 0, 75, 52
2, 162400, Note_on_c, 0, 75, 0
2, 162400, Note_on_c, 0, 74, 51
2, 162480, Note_on_c, 0, 74, 0
2, 162480, Note_on_c, 0, 75, 57
2, 162560, Note_on_c, 0, 75, 0
2, 162560, Note_on_c, 0, 77, 52
2, 162640, Note_on_c, 0, 77, 0
2, 162640, Note_on_c, 0, 72, 52
2, 162720, Note_on_c, 0, 72, 0
2, 162720, Note_on_c, 0, 75, 57
2, 162800, Note_on_c, 0, 75, 0
2, 162800, Note_on_c, 0, 74, 52
2, 162880, Note_on_c, 0, 74, 0
2, 162880, Note_on_c, 0, 73, 51
2, 162960, Note_on_c, 0, 73, 0
2, 162960, Note_on_c, 0, 74, 59
2, 163040, Note_on_c, 0, 74, 0
2, 163040, Note_on_c, 0, 79, 52
2, 163120, Note_on_c, 0, 79, 0
2, 163120, Note_on_c, 0, 74, 55
2, 163200, Note_on_c, 0, 74, 0
2, 163200, Note_on_c, 0, 77, 62
2, 163280, Note_on_c, 0, 77, 0
2, 163280, Note_on_c, 0, 75, 56
2, 163360, Note_on_c, 0, 75, 0
2, 163360, Note_on_c, 0, 74, 56
2, 163440, Note_on_c, 0, 74, 0
2, 163440, Note_on_c, 0, 75, 62
2, 163520, Note_on_c, 0, 75, 0
2, 163520, Note_on_c, 0, 77, 54
2, 163600, Note_on_c, 0, 77, 0
2, 163600, Note_on_c, 0, 72, 54
2, 163680, Note_on_c, 0, 72, 0
2, 163680, Note_on_c, 0, 75, 61
2, 163740, Note_on_c, 0, 75, 0
2, 163740, Note_on_c, 0, 74, 55
2, 163800, Note_on_c, 0, 74, 0
2, 163800, Note_on_c, 0, 73, 52
2, 163860, Note_on_c, 0, 73, 0
2, 163860, Note_on_c, 0, 74, 53
2, 163920, Note_on_c, 0, 74, 0
2, 163920, Note_on_c, 0, 75, 55
2, 163980, Note_on_c, 0, 75, 0
2, 163980, Note_on_c, 0, 76, 56
2, 164040, Note_on_c, 0, 76, 0
2, 164040, Note_on_c, 0, 77, 57
2, 164100, Note_on_c, 0, 77, 0
2, 164100, Note_on_c, 0, 78, 58
2, 164160, Note_on_c, 0, 78, 0
2, 164160, Note_on_c, 0, 79, 64
2, 164220, Note_on_c, 0, 79, 0
2, 164220, Note_on_c, 0, 80, 60
2, 164280, Note_on_c, 0, 80, 0
2, 164280, Note_on_c, 0, 81, 61
2, 164340, Note_on_c, 0, 81, 0
2, 164340, Note_on_c, 0, 82, 62
2, 164400, Note_on_c, 0, 82, 0
2, 164400, Note_on_c, 0, 83, 63
2, 164460, Note_on_c, 0, 83, 0
2, 164460, Note_on_c, 0, 84, 65
2, 164520, Note_on_c, 0, 84, 0
2, 164520, Note_on_c, 0, 85, 67
2, 164580, Note_on_c, 0, 85, 0
2, 164580, Note_on_c, 0, 86, 68
2, 164640, Note_on_c, 0, 86, 0
2, 164640, Note_on_c, 0, 88, 79
2, 164700, Note_on_c, 0, 88, 0
2, 164700, Note_on_c, 0, 86, 62
2, 164760, Note_on_c, 0, 86, 0
2, 164760, Note_on_c, 0, 84, 65
2, 164820, Note_on_c, 0, 84, 0
2, 164820, Note_on_c, 0, 82, 59
2, 164880, Note_on_c, 0, 82, 0
2, 164880, Note_on_c, 0, 81, 64
2, 164940, Note_on_c, 0, 81, 0
2, 164940, Note_on_c, 0, 79, 59
2, 165000, Note_on_c, 0, 79, 0
2, 165000, Note_on_c, 0, 77, 58
2, 165060, Note_on_c, 0, 77, 0
2, 165060, Note_on_c, 0, 76, 54
2, 165120, Note_on_c, 0, 76, 0
2, 165120, Note_on_c, 0, 79, 58
2, 165360, Note_on_c, 0, 79, 0
2, 165360, Note_on_c, 0, 77, 53
2, 165600, Note_on_c, 0, 77, 0
2, 165720, Note_on_c, 0, 65, 38
2, 165720, Note_on_c, 0, 77, 45
2, 165840, Note_on_c, 0, 77, 0
2, 165840, Note_on_c, 0, 65, 0
2, 165840, Note_on_c, 0, 67, 42
2, 165840, Note_on_c, 0, 79, 50
2, 165960, Note_on_c, 0, 79, 0
2, 165960, Note_on_c, 0, 67, 0
2, 165960, Note_on_c, 0, 65, 39
2, 165960, Note_on_c, 0, 77, 46
2, 166080, Note_on_c, 0, 77, 0
2, 166080, Note_on_c, 0, 65, 0
2, 166160, Note_on_c, 0, 63, 42
2, 166160, Note_on_c, 0, 75, 50
2, 166200, Note_on_c, 0, 75, 0
2, 166200, Note_on_c, 0, 63, 0
2, 166240, Note_on_c, 0, 62, 35
2, 166240, Note_on_c, 0, 74, 41
2, 166280, Note_on_c, 0, 74, 0
2, 166280, Note_on_c, 0, 62, 0
2, 166400, Note_on_c, 0, 60, 39
2, 166400, Note_on_c, 0, 72, 46
2, 166440, Note_on_c, 0, 72, 0
2, 166440, Note_on_c, 0, 60, 0
2, 166480, Note_on_c, 0, 58, 35
2, 166480, Note_on_c, 0, 70, 41
2, 166520, Note_on_c, 0, 70, 0
2, 166520, Note_on_c, 0, 58, 0
2, 166640, Note_on_c, 0, 56, 42
2, 166640, Note_on_c, 0, 68, 50
2, 166680, Note_on_c, 0, 68, 0
2, 166680, Note_on_c, 0, 56, 0
2, 166720, Note_on_c, 0, 57, 35
2, 166720, Note_on_c, 0, 69, 41
2, 166760, Note_on_c, 0, 69, 0
2, 166760, Note_on_c, 0, 57, 0
2, 166880, Note_on_c, 0, 57, 39
2, 166880, Note_on_c, 0, 69, 46
2, 166920, Note_on_c, 0, 69, 0
2, 166920, Note_on_c, 0, 57, 0
2, 166960, Note_on_c, 0, 70, 41
2, 166960, Note_on_c, 0, 58, 35
2, 167000, Note_on_c, 0, 58, 0
2, 167000, Note_on_c, 0, 70, 0
2, 167040, Note_on_c, 0, 59, 45
2, 167040, Note_on_c, 0, 71, 53
2, 167280, Note_on_c, 0, 71, 0
2, 167280, Note_on_c, 0, 59, 0
2, 167280, Note_on_c, 0, 72, 49
2, 167280, Note_on_c, 0, 60, 41
2, 167640, Note_on_c, 0, 60, 0
2, 167640, Note_on_c, 0, 72, 0
2, 167640, Note_on_c, 0, 78, 45
2, 167640, Note_on_c, 0, 66, 38
2, 167760, Note_on_c, 0, 66, 0
2, 167760, Note_on_c, 0, 78, 0
2, 167760, Note_on_c, 0, 69, 42
2, 167760, Note_on_c, 0, 81, 50
2, 167880, Note_on_c, 0, 81, 0
2, 167880, Note_on_c, 0, 69, 0
2, 167880, Note_on_c, 0, 67, 39
2, 167880, Note_on_c, 0, 79, 46
2, 168000, Note_on_c, 0, 79, 0
2, 168000, Note_on_c, 0, 67, 0
2, 168080, Note_on_c, 0, 65, 42
2, 168080, Note_on_c, 0, 77, 50
2, 168120, Note_on_c, 0, 77, 0
2, 168120, Note_on_c, 0, 65, 0
2, 168160, Note_on_c, 0, 63, 35
2, 168160, Note_on_c, 0, 75, 41
2, 168200, Note_on_c, 0, 75, 0
2, 168200, Note_on_c, 0, 63, 0
2, 168320, Note_on_c, 0, 62, 39
2, 168320, Note_on_c, 0, 74, 46
2, 168360, Note_on_c, 0, 74, 0
2, 168360, Note_on_c, 0, 62, 0
2, 168400, Note_on_c, 0, 72, 41
2, 168400, Note_on_c, 0, 60, 35
2, 168440, Note_on_c, 0, 60, 0
2, 168440, Note_on_c, 0, 72, 0
2, 168560, Note_on_c, 0, 57, 42
2, 168560, Note_on_c, 0, 69, 50
2, 168600, Note_on_c, 0, 69, 0
2, 168600, Note_on_c, 0, 57, 0
2, 168640, Note_on_c, 0, 58, 35
2, 168640, Note_on_c, 0, 70, 41
2, 168680, Note_on_c, 0, 70, 0
2, 168680, Note_on_c, 0, 58, 0
2, 168800, Note_on_c, 0, 59, 39
2, 168800, Note_on_c, 0, 71, 46
2, 168840, Note_on_c, 0, 71, 0
2, 168840, Note_on_c, 0, 59, 0
2, 168880, Note_on_c, 0, 72, 41
2, 168880, Note_on_c, 0, 60, 35
2, 168920, Note_on_c, 0, 60, 0
2, 168920, Note_on_c, 0, 72, 0
2, 168960, Note_on_c, 0, 61, 45
2, 168960, Note_on_c, 0, 73, 53
2, 169200, Note_on_c, 0, 73, 0
2, 169200, Note_on_c, 0, 61, 0
2, 169200, Note_on_c, 0, 74, 49
2, 169200, Note_on_c, 0, 62, 41
2, 169520, Note_on_c, 0, 74, 0
2, 169520, Note_on_c, 0, 77, 56
2, 169600, Note_on_c, 0, 77, 0
2, 169600, Note_on_c, 0, 76, 56
2, 169680, Note_on_c, 0, 76, 0
2, 169680, Note_on_c, 0, 62, 0
2, 169680, Note_on_c, 0, 68, 54
2, 169680, Note_on_c, 0, 77, 62
2, 169760, Note_on_c, 0, 77, 0
2, 169760, Note_on_c, 0, 79, 57
2, 169840, Note_on_c, 0, 79, 0
2, 169840, Note_on_c, 0, 74, 51
2, 169920, Note_on_c, 0, 74, 0
2, 169920, Note_on_c, 0, 77, 62
2, 170000, Note_on_c, 0, 77, 0
2, 170000, Note_on_c, 0, 75, 58
2, 170080, Note_on_c, 0, 75, 0
2, 170080, Note_on_c, 0, 74, 54
2, 170160, Note_on_c, 0, 74, 0
2, 170160, Note_on_c, 0, 68, 0
2, 170160, Note_on_c, 0, 75, 63
2, 170160, Note_on_c, 0, 69, 46
2, 170240, Note_on_c, 0, 75, 0
2, 170240, Note_on_c, 0, 77, 58
2, 170320, Note_on_c, 0, 77, 0
2, 170320, Note_on_c, 0, 72, 53
2, 170400, Note_on_c, 0, 72, 0
2, 170400, Note_on_c, 0, 69, 0
2, 170400, Note_on_c, 0, 75, 64
2, 170400, Note_on_c, 0, 70, 46
2, 170480, Note_on_c, 0, 75, 0
2, 170480, Note_on_c, 0, 74, 59
2, 170560, Note_on_c, 0, 74, 0
2, 170560, Note_on_c, 0, 73, 59
2, 170640, Note_on_c, 0, 73, 0
2, 170640, Note_on_c, 0, 70, 0
2, 170640, Note_on_c, 0, 74, 67
2, 170640, Note_on_c, 0, 68, 47
2, 170720, Note_on_c, 0, 74, 0
2, 170720, Note_on_c, 0, 79, 62
2, 170800, Note_on_c, 0, 79, 0
2, 170800, Note_on_c, 0, 74, 59
2, 170880, Note_on_c, 0, 74, 0
2, 170880, Note_on_c, 0, 77, 71
2, 170960, Note_on_c, 0, 77, 0
2, 170960, Note_on_c, 0, 75, 64
2, 171040, Note_on_c, 0, 75, 0
2, 171040, Note_on_c, 0, 74, 61
2, 171120, Note_on_c, 0, 74, 0
2, 171120, Note_on_c, 0, 68, 0
2, 171120, Note_on_c, 0, 75, 72
2, 171120, Note_on_c, 0, 69, 47
2, 171200, Note_on_c, 0, 75, 0
2, 171200, Note_on_c, 0, 77, 66
2, 171280, Note_on_c, 0, 77, 0
2, 171280, Note_on_c, 0, 72, 63
2, 171340, Note_on_c, 0, 72, 0
2, 171360, Note_on_c, 0, 69, 0
2, 171360, Note_on_c, 0, 70, 60
2, 171360, Note_on_c, 0, 75, 71
2, 171440, Note_on_c, 0, 75, 0
2, 171440, Note_on_c, 0, 70, 0
2, 171440, Note_on_c, 0, 62, 53
2, 171440, Note_on_c, 0, 74, 63
2, 171520, Note_on_c, 0, 74, 0
2, 171520, Note_on_c, 0, 62, 0
2, 171520, Note_on_c, 0, 61, 53
2, 171520, Note_on_c, 0, 73, 63
2, 171600, Note_on_c, 0, 73, 0
2, 171600, Note_on_c, 0, 61, 0
2, 171600, Note_on_c, 0, 62, 57
2, 171600, Note_on_c, 0, 74, 67
2, 171680, Note_on_c, 0, 74, 0
2, 171680, Note_on_c, 0, 62, 0
2, 171680, Note_on_c, 0, 63, 60
2, 171680, Note_on_c, 0, 75, 71
2, 171720, Note_on_c, 0, 75, 0
2, 171720, Note_on_c, 0, 63, 0
2, 171760, Note_on_c, 0, 64, 60
2, 171760, Note_on_c, 0, 76, 71
2, 171800, Note_on_c, 0, 76, 0
2, 171800, Note_on_c, 0, 64, 0
2, 171840, Note_on_c, 0, 65, 64
2, 171840, Note_on_c, 0, 77, 76
2, 171880, Note_on_c, 0, 77, 0
2, 171880, Note_on_c, 0, 65, 0
2, 171920, Note_on_c, 0, 66, 61
2, 171920, Note_on_c, 0, 78, 72
2, 171960, Note_on_c, 0, 78, 0
2, 171960, Note_on_c, 0, 66, 0
2, 172000, Note_on_c, 0, 67, 61
2, 172000, Note_on_c, 0, 79, 72
2, 172040, Note_on_c, 0, 79, 0
2, 172040, Note_on_c, 0, 67, 0
2, 172080, Note_on_c, 0, 68, 64
2, 172080, Note_on_c, 0, 80, 76
2, 172120, Note_on_c, 0, 80, 0
2, 172120, Note_on_c, 0, 68, 0
2, 172160, Note_on_c, 0, 69, 67
2, 172160, Note_on_c, 0, 81, 80
2, 172200, Note_on_c, 0, 81, 0
2, 172200, Note_on_c, 0, 69, 0
2, 172240, Note_on_c, 0, 70, 67
2, 172240, Note_on_c, 0, 82, 80
2, 172280, Note_on_c, 0, 82, 0
2, 172280, Note_on_c, 0, 70, 0
2, 172320, Note_on_c, 0, 70, 71
2, 172320, Note_on_c, 0, 58, 71
2, 172560, Note_on_c, 0, 58, 0
2, 172560, Note_on_c, 0, 70, 0
2, 172560, Note_on_c, 0, 72, 69
2, 172560, Note_on_c, 0, 60, 58
2, 172800, Note_on_c, 0, 60, 0
2, 172800, Note_on_c, 0, 72, 0
2, 172800, Note_on_c, 0, 61, 41
2, 172800, Note_on_c, 0, 73, 49
2, 173040, Note_on_c, 0, 73, 0
2, 173040, Note_on_c, 0, 61, 0
2, 173040, Note_on_c, 0, 62, 38
2, 173040, Note_on_c, 0, 74, 45
2, 173340, Note_on_c, 0, 74, 0
2, 173340, Note_on_c, 0, 62, 0
2, 173340, Note_on_c, 0, 70, 59
2, 173400, Note_on_c, 0, 70, 0
2, 173400, Note_on_c, 0, 69, 61
2, 173460, Note_on_c, 0, 69, 0
2, 173460, Note_on_c, 0, 70, 62
2, 173520, Note_on_c, 0, 70, 0
2, 173520, Note_on_c, 0, 71, 62
2, 173580, Note_on_c, 0, 71, 0
2, 173580, Note_on_c, 0, 72, 64
2, 173640, Note_on_c, 0, 72, 0
2, 173640, Note_on_c, 0, 73, 65
2, 173700, Note_on_c, 0, 73, 0
2, 173700, Note_on_c, 0, 74, 67
2, 173760, Note_on_c, 0, 74, 0
2, 173760, Note_on_c, 0, 75, 69
2, 173820, Note_on_c, 0, 75, 0
2, 173820, Note_on_c, 0, 76, 70
2, 173880, Note_on_c, 0, 76, 0
2, 173880, Note_on_c, 0, 77, 71
2, 173940, Note_on_c, 0, 77, 0
2, 173940, Note_on_c, 0, 78, 73
2, 174000, Note_on_c, 0, 78, 0
2, 174000, Note_on_c, 0, 79, 74
2, 174060, Note_on_c, 0, 79, 0
2, 174060, Note_on_c, 0, 80, 76
2, 174120, Note_on_c, 0, 80, 0
2, 174120, Note_on_c, 0, 81, 77
2, 174180, Note_on_c, 0, 81, 0
2, 174180, Note_on_c, 0, 82, 78
2, 174240, Note_on_c, 0, 82, 0
2, 174240, Note_on_c, 0, 70, 53
2, 174288, Note_on_c, 0, 70, 0
2, 174288, Note_on_c, 0, 72, 48
2, 174336, Note_on_c, 0, 72, 0
2, 174336, Note_on_c, 0, 70, 45
2, 174384, Note_on_c, 0, 70, 0
2, 174384, Note_on_c, 0, 69, 45
2, 174432, Note_on_c, 0, 69, 0
2, 174432, Note_on_c, 0, 70, 45
2, 174480, Note_on_c, 0, 70, 0
2, 174480, Note_on_c, 0, 63, 44
2, 174480, Note_on_c, 0, 74, 52
2, 174660, Note_on_c, 0, 74, 0
2, 174660, Note_on_c, 0, 72, 41
2, 174720, Note_on_c, 0, 72, 0
2, 174720, Note_on_c, 0, 63, 0
2, 174720, Note_on_c, 0, 70, 53
2, 174720, Note_on_c, 0, 62, 53
2, 174780, Note_on_c, 0, 70, 0
2, 174780, Note_on_c, 0, 65, 59
2, 174840, Note_on_c, 0, 65, 0
2, 174840, Note_on_c, 0, 67, 62
2, 174900, Note_on_c, 0, 67, 0
2, 174900, Note_on_c, 0, 69, 64
2, 174960, Note_on_c, 0, 69, 0
2, 174960, Note_on_c, 0, 62, 0
2, 174960, Note_on_c, 0, 70, 67
2, 175020, Note_on_c, 0, 70, 0
2, 175020, Note_on_c, 0, 72, 71
2, 175080, Note_on_c, 0, 72, 0
2, 175080, Note_on_c, 0, 74, 78
2, 175140, Note_on_c, 0, 74, 0
2, 175140, Note_on_c, 0, 75, 84
2, 175200, Note_on_c, 0, 75, 0
2, 175200, Note_on_c, 0, 70, 85
2, 175200, Note_on_c, 0, 77, 101
2, 175680, Note_on_c, 0, 77, 0
2, 175680, Note_on_c, 0, 70, 0
2, 175680, Note_on_c, 0, 69, 85
2, 175680, Note_on_c, 0, 77, 101
2, 176160, Note_on_c, 0, 77, 0
2, 176160, Note_on_c, 0, 69, 0
2, 176160, Note_on_c, 0, 70, 85
2, 176160, Note_on_c, 0, 77, 101
2, 176520, Note_on_c, 0, 70, 0
2, 176520, Note_on_c, 0, 72, 85
2, 176580, Note_on_c, 0, 72, 0
2, 176580, Note_on_c, 0, 74, 85
2, 176640, Note_on_c, 0, 74, 0
2, 176640, Note_on_c, 0, 77, 0
2, 176640, Note_on_c, 0, 75, 85
2, 176640, Note_on_c, 0, 77, 101
2, 177120, Note_on_c, 0, 77, 0
2, 177120, Note_on_c, 0, 75, 0
2, 177120, Note_on_c, 0, 74, 85
2, 177120, Note_on_c, 0, 82, 101
2, 177480, Note_on_c, 0, 74, 0
2, 177480, Note_on_c, 0, 75, 56
2, 177540, Note_on_c, 0, 75, 0
2, 177540, Note_on_c, 0, 77, 57
2, 177600, Note_on_c, 0, 77, 0
2, 177600, Note_on_c, 0, 82, 0
2, 177600, Note_on_c, 0, 82, 81
2, 177600, Note_on_c, 0, 79, 68
2, 177660, Note_on_c, 0, 79, 0
2, 177660, Note_on_c, 0, 82, 0
2, 177840, Note_on_c, 0, 72, 45
2, 177840, Note_on_c, 0, 84, 53
2, 177840, Note_on_c, 0, 79, 45
2, 177900, Note_on_c, 0, 79, 0
2, 177900, Note_on_c, 0, 84, 0
2, 177900, Note_on_c, 0, 72, 0
2, 178080, Note_on_c, 0, 86, 63
2, 178080, Note_on_c, 0, 77, 53
2, 178080, Note_on_c, 0, 74, 53
2, 178140, Note_on_c, 0, 74, 0
2, 178140, Note_on_c, 0, 77, 0
2, 178140, Note_on_c, 0, 86, 0
2, 178320, Note_on_c, 0, 87, 54
2, 178320, Note_on_c, 0, 75, 45
2, 178380, Note_on_c, 0, 75, 0
2, 178380, Note_on_c, 0, 87, 0
2, 178560, Note_on_c, 0, 74, 51
2, 178560, Note_on_c, 0, 86, 61
2, 178800, Note_on_c, 0, 86, 0
2, 178800, Note_on_c, 0, 82, 53
2, 178920, Note_on_c, 0, 82, 0
2, 179040, Note_on_c, 0, 74, 0
2, 179040, Note_on_c, 0, 70, 81
2, 179040, Note_on_c, 0, 77, 97
2, 179520, Note_on_c, 0, 77, 0
2, 179520, Note_on_c, 0, 70, 0
2, 179520, Note_on_c, 0, 69, 81
2, 179520, Note_on_c, 0, 77, 97
2, 180000, Note_on_c, 0, 77, 0
2, 180000, Note_on_c, 0, 69, 0
2, 180000, Note_on_c, 0, 70, 81
2, 180000, Note_on_c, 0, 77, 97
2, 180360, Note_on_c, 0, 70, 0
2, 180360, Note_on_c, 0, 72, 81
2, 180420, Note_on_c, 0, 72, 0
2, 180420, Note_on_c, 0, 74, 81
2, 180480, Note_on_c, 0, 74, 0
2, 180480, Note_on_c, 0, 77, 0
2, 180480, Note_on_c, 0, 75, 81
2, 180480, Note_on_c, 0, 77, 97
2, 180960, Note_on_c, 0, 77, 0
2, 180960, Note_on_c, 0, 75, 0
2, 180960, Note_on_c, 0, 74, 81
2, 180960, Note_on_c, 0, 82, 97
2, 181320, Note_on_c, 0, 74, 0
2, 181320, Note_on_c, 0, 75, 67
2, 181380, Note_on_c, 0, 75, 0
2, 181380, Note_on_c, 0, 77, 68
2, 181440, Note_on_c, 0, 77, 0
2, 181440, Note_on_c, 0, 79, 97
2, 181440, Note_on_c, 0, 75, 81
2, 181500, Note_on_c, 0, 75, 0
2, 181500, Note_on_c, 0, 79, 0
2, 181500, Note_on_c, 0, 82, 0
2, 181680, Note_on_c, 0, 72, 67
2, 181680, Note_on_c, 0, 84, 79
2, 181680, Note_on_c, 0, 79, 67
2, 181740, Note_on_c, 0, 79, 0
2, 181740, Note_on_c, 0, 84, 0
2, 181740, Note_on_c, 0, 72, 0
2, 181920, Note_on_c, 0, 86, 98
2, 181920, Note_on_c, 0, 77, 82
2, 181920, Note_on_c, 0, 74, 82
2, 181980, Note_on_c, 0, 74, 0
2, 181980, Note_on_c, 0, 77, 0
2, 181980, Note_on_c, 0, 86, 0
2, 182160, Note_on_c, 0, 87, 87
2, 182160, Note_on_c, 0, 75, 74
2, 182220, Note_on_c, 0, 75, 0
2, 182220, Note_on_c, 0, 87, 0
2, 182400, Note_on_c, 0, 74, 75
2, 182400, Note_on_c, 0, 86, 104
2, 182640, Note_on_c, 0, 86, 0
2, 182640, Note_on_c, 0, 82, 81
2, 182760, Note_on_c, 0, 82, 0
2, 182880, Note_on_c, 0, 74, 0
2, 182880, Note_on_c, 0, 70, 74
2, 182880, Note_on_c, 0, 74, 88
2, 182880, Note_on_c, 0, 82, 106
2, 183240, Note_on_c, 0, 74, 0
2, 183240, Note_on_c, 0, 70, 0
2, 183240, Note_on_c, 0, 72, 61
2, 183240, Note_on_c, 0, 75, 73
2, 183300, Note_on_c, 0, 75, 0
2, 183300, Note_on_c, 0, 72, 0
2, 183300, Note_on_c, 0, 74, 62
2, 183300, Note_on_c, 0, 77, 74
2, 183360, Note_on_c, 0, 77, 0
2, 183360, Note_on_c, 0, 74, 0
2, 183360, Note_on_c, 0, 79, 106
2, 183360, Note_on_c, 0, 75, 88
2, 183420, Note_on_c, 0, 75, 0
2, 183420, Note_on_c, 0, 79, 0
2, 183420, Note_on_c, 0, 82, 0
2, 183600, Note_on_c, 0, 72, 72
2, 183600, Note_on_c, 0, 84, 86
2, 183600, Note_on_c, 0, 79, 72
2, 183660, Note_on_c, 0, 79, 0
2, 183660, Note_on_c, 0, 84, 0
2, 183660, Note_on_c, 0, 72, 0
2, 183840, Note_on_c, 0, 86, 108
2, 183840, Note_on_c, 0, 77, 90
2, 183840, Note_on_c, 0, 74, 90
2, 183900, Note_on_c, 0, 74, 0
2, 183900, Note_on_c, 0, 77, 0
2, 183900, Note_on_c, 0, 86, 0
2, 184080, Note_on_c, 0, 87, 99
2, 184080, Note_on_c, 0, 75, 80
2, 184140, Note_on_c, 0, 75, 0
2, 184140, Note_on_c, 0, 87, 0
2, 184320, Note_on_c, 0, 74, 82
2, 184320, Note_on_c, 0, 86, 114
2, 184560, Note_on_c, 0, 86, 0
2, 184560, Note_on_c, 0, 82, 88
2, 184680, Note_on_c, 0, 82, 0
2, 184790, Note_on_c, 0, 74, 0
2, 184800, Note_on_c, 0, 70, 94
2, 184800, Note_on_c, 0, 74, 94
2, 184800, Note_on_c, 0, 82, 111
2, 185160, Note_on_c, 0, 74, 0
2, 185160, Note_on_c, 0, 70, 0
2, 185160, Note_on_c, 0, 72, 73
2, 185160, Note_on_c, 0, 75, 86
2, 185220, Note_on_c, 0, 75, 0
2, 185220, Note_on_c, 0, 72, 0
2, 185220, Note_on_c, 0, 74, 75
2, 185220, Note_on_c, 0, 77, 90
2, 185280, Note_on_c, 0, 77, 0
2, 185280, Note_on_c, 0, 74, 0
2, 185280, Note_on_c, 0, 79, 106
2, 185280, Note_on_c, 0, 75, 74
2, 185340, Note_on_c, 0, 75, 0
2, 185340, Note_on_c, 0, 79, 0
2, 185340, Note_on_c, 0, 82, 0
2, 185520, Note_on_c, 0, 76, 85
2, 185520, Note_on_c, 0, 72, 85
2, 185520, Note_on_c, 0, 84, 100
2, 185520, Note_on_c, 0, 82, 85
2, 185580, Note_on_c, 0, 82, 0
2, 185580, Note_on_c, 0, 76, 0
2, 185580, Note_on_c, 0, 72, 0
2, 185580, Note_on_c, 0, 84, 0
2, 185760, Note_on_c, 0, 82, 91
2, 185760, Note_on_c, 0, 86, 108
2, 185760, Note_on_c, 0, 77, 91
2, 185760, Note_on_c, 0, 74, 91
2, 185820, Note_on_c, 0, 74, 0
2, 185820, Note_on_c, 0, 82, 0
2, 185820, Note_on_c, 0, 86, 0
2, 185820, Note_on_c, 0, 77, 0
2, 186000, Note_on_c, 0, 75, 82
2, 186000, Note_on_c, 0, 81, 97
2, 186000, Note_on_c, 0, 69, 82
2, 186060, Note_on_c, 0, 69, 0
2, 186060, Note_on_c, 0, 81, 0
2, 186060, Note_on_c, 0, 75, 0
2, 186240, Note_on_c, 0, 74, 87
2, 186240, Note_on_c, 0, 70, 87
2, 186240, Note_on_c, 0, 82, 103
2, 186300, Note_on_c, 0, 82, 0
2, 186300, Note_on_c, 0, 70, 0
2, 186300, Note_on_c, 0, 74, 0
2, 186360, Note_on_c, 0, 77, 45
2, 186480, Note_on_c, 0, 77, 0
2, 186480, Note_on_c, 0, 79, 50
2, 186600, Note_on_c, 0, 79, 0
2, 186600, Note_on_c, 0, 77, 46
2, 186720, Note_on_c, 0, 77, 0
2, 186720, Note_on_c, 0, 75, 50
2, 186840, Note_on_c, 0, 75, 0
2, 186840, Note_on_c, 0, 74, 43
2, 186960, Note_on_c, 0, 74, 0
2, 186960, Note_on_c, 0, 72, 46
2, 187080, Note_on_c, 0, 72, 0
2, 187080, Note_on_c, 0, 70, 43
2, 187200, Note_on_c, 0, 70, 0
2, 187200, Note_on_c, 0, 63, 40
2, 187200, Note_on_c, 0, 69, 50
2, 187320, Note_on_c, 0, 69, 0
2, 187320, Note_on_c, 0, 67, 46
2, 187440, Note_on_c, 0, 67, 0
2, 187440, Note_on_c, 0, 65, 47
2, 187910, Note_on_c, 0, 63, 0
2, 187920, Note_on_c, 0, 65, 0
2, 187920, Note_on_c, 0, 63, 37
2, 187920, Note_on_c, 0, 67, 44
2, 188040, Note_on_c, 0, 67, 0
2, 188040, Note_on_c, 0, 69, 42
2, 188160, Note_on_c, 0, 69, 0
2, 188160, Note_on_c, 0, 63, 0
2, 188160, Note_on_c, 0, 62, 35
2, 188160, Note_on_c, 0, 70, 42
2, 188220, Note_on_c, 0, 70, 0
2, 188220, Note_on_c, 0, 62, 0
2, 188280, Note_on_c, 0, 65, 38
2, 188400, Note_on_c, 0, 65, 0
2, 188400, Note_on_c, 0, 67, 42
2, 188520, Note_on_c, 0, 67, 0
2, 188520, Note_on_c, 0, 65, 39
2, 188640, Note_on_c, 0, 65, 0
2, 188640, Note_on_c, 0, 63, 42
2, 188760, Note_on_c, 0, 63, 0
2, 188760, Note_on_c, 0, 62, 37
2, 188880, Note_on_c, 0, 62, 0
2, 188880, Note_on_c, 0, 60, 39
2, 189000, Note_on_c, 0, 60, 0
2, 189000, Note_on_c, 0, 58, 37
2, 189120, Note_on_c, 0, 58, 0
2, 189120, Note_on_c, 0, 51, 34
2, 189120, Note_on_c, 0, 57, 42
2, 189240, Note_on_c, 0, 57, 0
2, 189240, Note_on_c, 0, 55, 39
2, 189360, Note_on_c, 0, 55, 0
2, 189360, Note_on_c, 0, 53, 39
2, 189830, Note_on_c, 0, 51, 0
2, 189840, Note_on_c, 0, 53, 0
2, 189840, Note_on_c, 0, 51, 31
2, 189840, Note_on_c, 0, 55, 37
2, 189960, Note_on_c, 0, 55, 0
2, 189960, Note_on_c, 0, 57, 35
2, 190080, Note_on_c, 0, 57, 0
2, 190080, Note_on_c, 0, 51, 0
2, 190080, Note_on_c, 0, 50, 32
2, 190080, Note_on_c, 0, 58, 37
2, 190140, Note_on_c, 0, 58, 0
2, 190140, Note_on_c, 0, 50, 0
2, 190320, Note_on_c, 0, 63, 42
2, 190320, Note_on_c, 0, 69, 42
2, 190380, Note_on_c, 0, 69, 0
2, 190380, Note_on_c, 0, 63, 0
2, 190560, Note_on_c, 0, 62, 42
2, 190560, Note_on_c, 0, 70, 42
2, 190620, Note_on_c, 0, 70, 0
2, 190620, Note_on_c, 0, 62, 0
2, 190800, Note_on_c, 0, 72, 88
2, 190800, Note_on_c, 0, 75, 88
2, 190800, Note_on_c, 0, 81, 105
2, 190860, Note_on_c, 0, 81, 0
2, 190860, Note_on_c, 0, 75, 0
2, 190860, Note_on_c, 0, 72, 0
2, 191040, Note_on_c, 0, 70, 98
2, 191040, Note_on_c, 0, 74, 98
2, 191040, Note_on_c, 0, 82, 116
2, 191100, Note_on_c, 0, 82, 0
2, 191100, Note_on_c, 0, 74, 0
2, 191100, Note_on_c, 0, 70, 0
2, 191100, End_track
3, 0, Start_track
3, 0, Title_t, "Piano left"
3, 0, Program_c, 0, 0
3, 960, Note_on_c, 0, 58, 42
3, 1080, Note_on_c, 0, 65, 34
3, 1200, Note_on_c, 0, 65, 0
3, 1200, Note_on_c, 0, 58, 0
3, 1200, Note_on_c, 0, 62, 38
3, 1320, Note_on_c, 0, 65, 34
3, 1440, Note_on_c, 0, 65, 0
3, 1440, Note_on_c, 0, 62, 0
3, 1440, Note_on_c, 0, 63, 38
3, 1440, Note_on_c, 0, 60, 38
3, 1560, Note_on_c, 0, 63, 0
3, 1560, Note_on_c, 0, 65, 34
3, 1680, Note_on_c, 0, 65, 0
3, 1680, Note_on_c, 0, 60, 0
3, 1680, Note_on_c, 0, 62, 37
3, 1680, Note_on_c, 0, 58, 37
3, 1800, Note_on_c, 0, 62, 0
3, 1800, Note_on_c, 0, 65, 34
3, 1920, Note_on_c, 0, 65, 0
3, 1920, Note_on_c, 0, 58, 0
3, 1920, Note_on_c, 0, 57, 43
3, 1920, Note_on_c, 0, 63, 43
3, 2040, Note_on_c, 0, 65, 34
3, 2100, Note_on_c, 0, 65, 0
3, 2160, Note_on_c, 0, 65, 34
3, 2220, Note_on_c, 0, 65, 0
3, 2280, Note_on_c, 0, 65, 34
3, 2340, Note_on_c, 0, 65, 0
3, 2400, Note_on_c, 0, 65, 37
3, 2460, Note_on_c, 0, 65, 0
3, 2520, Note_on_c, 0, 65, 34
3, 2580, Note_on_c, 0, 65, 0
3, 2640, Note_on_c, 0, 65, 34
3, 2700, Note_on_c, 0, 65, 0
3, 2760, Note_on_c, 0, 65, 34
3, 2820, Note_on_c, 0, 65, 0
3, 2880, Note_on_c, 0, 63, 0
3, 2880, Note_on_c, 0, 57, 0
3, 2880, Note_on_c, 0, 57, 42
3, 3000, Note_on_c, 0, 65, 34
3, 3120, Note_on_c, 0, 65, 0
3, 3120, Note_on_c, 0, 57, 0
3, 3120, Note_on_c, 0, 63, 38
3, 3240, Note_on_c, 0, 65, 34
3, 3360, Note_on_c, 0, 65, 0
3, 3360, Note_on_c, 0, 63, 0
3, 3360, Note_on_c, 0, 62, 38
3, 3480, Note_on_c, 0, 65, 34
3, 3600, Note_on_c, 0, 65, 0
3, 3600, Note_on_c, 0, 62, 0
3, 3600, Note_on_c, 0, 57, 37
3, 3720, Note_on_c, 0, 65, 34
3, 3840, Note_on_c, 0, 65, 0
3, 3840, Note_on_c, 0, 57, 0
3, 3840, Note_on_c, 0, 58, 43
3, 3960, Note_on_c, 0, 65, 34
3, 4020, Note_on_c, 0, 65, 0
3, 4080, Note_on_c, 0, 65, 34
3, 4140, Note_on_c, 0, 65, 0
3, 4200, Note_on_c, 0, 65, 34
3, 4260, Note_on_c, 0, 65, 0
3, 4320, Note_on_c, 0, 65, 37
3, 4380, Note_on_c, 0, 65, 0
3, 4440, Note_on_c, 0, 65, 34
3, 4500, Note_on_c, 0, 65, 0
3, 4560, Note_on_c, 0, 58, 0
3, 4560, Note_on_c, 0, 59, 34
3, 4680, Note_on_c, 0, 65, 34
3, 4740, Note_on_c, 0, 65, 0
3, 4800, Note_on_c, 0, 59, 0
3, 4800, Note_on_c, 0, 60, 42
3, 4920, Note_on_c, 0, 65, 34
3, 5040, Note_on_c, 0, 65, 0
3, 5040, Note_on_c, 0, 60, 0
3, 5040, Note_on_c, 0, 57, 38
3, 5160, Note_on_c, 0, 65, 34
3, 5280, Note_on_c, 0, 65, 0
3, 5280, Note_on_c, 0, 57, 0
3, 5280, Note_on_c, 0, 58, 42
3, 5400, Note_on_c, 0, 65, 34
3, 5520, Note_on_c, 0, 65, 0
3, 5520, Note_on_c, 0, 58, 0
3, 5520, Note_on_c, 0, 59, 38
3, 5640, Note_on_c, 0, 65, 34
3, 5760, Note_on_c, 0, 65, 0
3, 5760, Note_on_c, 0, 59, 0
3, 5760, Note_on_c, 0, 60, 47
3, 5880, Note_on_c, 0, 65, 34
3, 6000, Note_on_c, 0, 65, 0
3, 6000, Note_on_c, 0, 60, 0
3, 6000, Note_on_c, 0, 57, 42
3, 6120, Note_on_c, 0, 65, 34
3, 6240, Note_on_c, 0, 65, 0
3, 6240, Note_on_c, 0, 57, 0
3, 6240, Note_on_c, 0, 58, 52
3, 6360, Note_on_c, 0, 62, 38
3, 6480, Note_on_c, 0, 62, 0
3, 6480, Note_on_c, 0, 58, 0
3, 6480, Note_on_c, 0, 57, 47
3, 6600, Note_on_c, 0, 60, 42
3, 6720, Note_on_c, 0, 60, 0
3, 6720, Note_on_c, 0, 57, 0
3, 6720, Note_on_c, 0, 55, 58
3, 6840, Note_on_c, 0, 58, 42
3, 6950, Note_on_c, 0, 55, 0
3, 6960, Note_on_c, 0, 58, 0
3, 6960, Note_on_c, 0, 55, 49
3, 7080, Note_on_c, 0, 58, 41
3, 7200, Note_on_c, 0, 58, 0
3, 7200, Note_on_c, 0, 55, 0
3, 7200, Note_on_c, 0, 48, 63
3, 7320, Note_on_c, 0, 58, 39
3, 7430, Note_on_c, 0, 48, 0
3, 7440, Note_on_c, 0, 58, 0
3, 7440, Note_on_c, 0, 48, 43
3, 7560, Note_on_c, 0, 58, 34
3, 7680, Note_on_c, 0, 58, 0
3, 7680, Note_on_c, 0, 48, 0
3, 7680, Note_on_c, 0, 53, 43
3, 7800, Note_on_c, 0, 58, 29
3, 7920, Note_on_c, 0, 58, 0
3, 7920, Note_on_c, 0, 57, 35
3, 8040, Note_on_c, 0, 57, 0
3, 8040, Note_on_c, 0, 55, 29
3, 8160, Note_on_c, 0, 55, 0
3, 8160, Note_on_c, 0, 57, 34
3, 8400, Note_on_c, 0, 57, 0
3, 8400, Note_on_c, 0, 53, 0
3, 8640, Note_on_c, 0, 46, 42
3, 8760, Note_on_c, 0, 53, 34
3, 8880, Note_on_c, 0, 53, 0
3, 8880, Note_on_c, 0, 46, 0
3, 8880, Note_on_c, 0, 50, 38
3, 9000, Note_on_c, 0, 53, 34
3, 9120, Note_on_c, 0, 53, 0
3, 9120, Note_on_c, 0, 50, 0
3, 9120, Note_on_c, 0, 51, 38
3, 9120, Note_on_c, 0, 48, 38
3, 9240, Note_on_c, 0, 51, 0
3, 9240, Note_on_c, 0, 53, 34
3, 9360, Note_on_c, 0, 53, 0
3, 9360, Note_on_c, 0, 48, 0
3, 9360, Note_on_c, 0, 50, 37
3, 9360, Note_on_c, 0, 46, 37
3, 9480, Note_on_c, 0, 50, 0
3, 9480, Note_on_c, 0, 53, 34
3, 9600, Note_on_c, 0, 53, 0
3, 9600, Note_on_c, 0, 46, 0
3, 9600, Note_on_c, 0, 45, 43
3, 9600, Note_on_c, 0, 51, 43
3, 9720, Note_on_c, 0, 53, 34
3, 9780, Note_on_c, 0, 53, 0
3, 9840, Note_on_c, 0, 53, 34
3, 9900, Note_on_c, 0, 53, 0
3, 9960, Note_on_c, 0, 53, 34
3, 10020, Note_on_c, 0, 53, 0
3, 10080, Note_on_c, 0, 53, 37
3, 10140, Note_on_c, 0, 53, 0
3, 10200, Note_on_c, 0, 53, 34
3, 10260, Note_on_c, 0, 53, 0
3, 10320, Note_on_c, 0, 53, 34
3, 10380, Note_on_c, 0, 53, 0
3, 10440, Note_on_c, 0, 53, 34
3, 10500, Note_on_c, 0, 53, 0
3, 10560, Note_on_c, 0, 51, 0
3, 10560, Note_on_c, 0, 45, 0
3, 10560, Note_on_c, 0, 45, 42
3, 10680, Note_on_c, 0, 53, 34
3, 10800, Note_on_c, 0, 53, 0
3, 10800, Note_on_c, 0, 45, 0
3, 10800, Note_on_c, 0, 51, 38
3, 10920, Note_on_c, 0, 53, 34
3, 11040, Note_on_c, 0, 53, 0
3, 11040, Note_on_c, 0, 51, 0
3, 11040, Note_on_c, 0, 50, 38
3, 11160, Note_on_c, 0, 53, 34
3, 11280, Note_on_c, 0, 53, 0
3, 11280, Note_on_c, 0, 50, 0
3, 11280, Note_on_c, 0, 45, 37
3, 11400, Note_on_c, 0, 53, 34
3, 11520, Note_on_c, 0, 53, 0
3, 11520, Note_on_c, 0, 45, 0
3, 11520, Note_on_c, 0, 46, 43
3, 11640, Note_on_c, 0, 53, 34
3, 11700, Note_on_c, 0, 53, 0
3, 11760, Note_on_c, 0, 53, 34
3, 11820, Note_on_c, 0, 53, 0
3, 11880, Note_on_c, 0, 53, 34
3, 11940, Note_on_c, 0, 53, 0
3, 12000, Note_on_c, 0, 53, 37
3, 12060, Note_on_c, 0, 53, 0
3, 12120, Note_on_c, 0, 53, 37
3, 12180, Note_on_c, 0, 53, 0
3, 12240, Note_on_c, 0, 46, 0
3, 12240, Note_on_c, 0, 47, 37
3, 12360, Note_on_c, 0, 53, 37
3, 12420, Note_on_c, 0, 53, 0
3, 12480, Note_on_c, 0, 47, 0
3, 12480, Note_on_c, 0, 48, 46
3, 12600, Note_on_c, 0, 53, 38
3, 12720, Note_on_c, 0, 53, 0
3, 12720, Note_on_c, 0, 48, 0
3, 12720, Note_on_c, 0, 41, 42
3, 12840, Note_on_c, 0, 53, 38
3, 12960, Note_on_c, 0, 53, 0
3, 12960, Note_on_c, 0, 41, 0
3, 12960, Note_on_c, 0, 46, 47
3, 13080, Note_on_c, 0, 53, 38
3, 13200, Note_on_c, 0, 53, 0
3, 13200, Note_on_c, 0, 46, 0
3, 13200, Note_on_c, 0, 47, 43
3, 13320, Note_on_c, 0, 53, 39
3, 13440, Note_on_c, 0, 53, 0
3, 13440, Note_on_c, 0, 47, 0
3, 13440, Note_on_c, 0, 48, 54
3, 13560, Note_on_c, 0, 53, 39
3, 13680, Note_on_c, 0, 53, 0
3, 13680, Note_on_c, 0, 48, 0
3, 13680, Note_on_c, 0, 41, 48
3, 13800, Note_on_c, 0, 53, 39
3, 13920, Note_on_c, 0, 53, 0
3, 13920, Note_on_c, 0, 41, 0
3, 13920, Note_on_c, 0, 46, 56
3, 14040, Note_on_c, 0, 53, 41
3, 14160, Note_on_c, 0, 53, 0
3, 14160, Note_on_c, 0, 46, 0
3, 14160, Note_on_c, 0, 44, 50
3, 14280, Note_on_c, 0, 46, 45
3, 14400, Note_on_c, 0, 46, 0
3, 14400, Note_on_c, 0, 44, 0
3, 14400, Note_on_c, 0, 43, 65
3, 14520, Note_on_c, 0, 46, 53
3, 14630, Note_on_c, 0, 43, 0
3, 14640, Note_on_c, 0, 46, 0
3, 14640, Note_on_c, 0, 39, 61
3, 14760, Note_on_c, 0, 51, 53
3, 14880, Note_on_c, 0, 51, 0
3, 14880, Note_on_c, 0, 39, 0
3, 14880, Note_on_c, 0, 41, 56
3, 15000, Note_on_c, 0, 50, 42
3, 15110, Note_on_c, 0, 41, 0
3, 15120, Note_on_c, 0, 50, 0
3, 15120, Note_on_c, 0, 41, 49
3, 15240, Note_on_c, 0, 45, 43
3, 15360, Note_on_c, 0, 45, 0
3, 15360, Note_on_c, 0, 41, 0
3, 15360, Note_on_c, 0, 34, 43
3, 15480, Note_on_c, 0, 34, 0
3, 15480, Note_on_c, 0, 46, 29
3, 15600, Note_on_c, 0, 58, 35
3, 15660, Note_on_c, 0, 58, 0
3, 15720, Note_on_c, 0, 58, 29
3, 15780, Note_on_c, 0, 58, 0
3, 15840, Note_on_c, 0, 58, 37
3, 15900, Note_on_c, 0, 58, 0
3, 15960, Note_on_c, 0, 58, 35
3, 16020, Note_on_c, 0, 58, 0
3, 16080, Note_on_c, 0, 46, 0
3, 16080, Note_on_c, 0, 56, 43
3, 16200, Note_on_c, 0, 58, 39
3, 16320, Note_on_c, 0, 58, 0
3, 16320, Note_on_c, 0, 56, 0
3, 16320, Note_on_c, 0, 55, 52
3, 16440, Note_on_c, 0, 58, 46
3, 16560, Note_on_c, 0, 58, 0
3, 16560, Note_on_c, 0, 55, 0
3, 16560, Note_on_c, 0, 51, 56
3, 16680, Note_on_c, 0, 63, 50
3, 16800, Note_on_c, 0, 63, 0
3, 16800, Note_on_c, 0, 51, 0
3, 16800, Note_on_c, 0, 53, 35
3, 16920, Note_on_c, 0, 62, 29
3, 17030, Note_on_c, 0, 53, 0
3, 17040, Note_on_c, 0, 62, 0
3, 17040, Note_on_c, 0, 53, 35
3, 17160, Note_on_c, 0, 57, 29
3, 17280, Note_on_c, 0, 57, 0
3, 17280, Note_on_c, 0, 53, 0
3, 17280, Note_on_c, 0, 46, 33
3, 17280, Note_on_c, 0, 58, 39
3, 17520, Note_on_c, 0, 58, 0
3, 17520, Note_on_c, 0, 46, 0
3, 17760, Note_on_c, 0, 58, 50
3, 17760, Note_on_c, 0, 62, 60
3, 18240, Note_on_c, 0, 62, 0
3, 18240, Note_on_c, 0, 58, 0
3, 18240, Note_on_c, 0, 51, 38
3, 18240, Note_on_c, 0, 60, 45
3, 18960, Note_on_c, 0, 60, 0
3, 18960, Note_on_c, 0, 51, 0
3, 18960, Note_on_c, 0, 53, 34
3, 18960, Note_on_c, 0, 60, 41
3, 19200, Note_on_c, 0, 60, 0
3, 19200, Note_on_c, 0, 53, 0
3, 19200, Note_on_c, 0, 46, 42
3, 19200, Note_on_c, 0, 58, 50
3, 19440, Note_on_c, 0, 58, 0
3, 19440, Note_on_c, 0, 46, 0
3, 19680, Note_on_c, 0, 58, 50
3, 19680, Note_on_c, 0, 62, 60
3, 20160, Note_on_c, 0, 62, 0
3, 20160, Note_on_c, 0, 58, 0
3, 20160, Note_on_c, 0, 52, 41
3, 20160, Note_on_c, 0, 55, 41
3, 20640, Note_on_c, 0, 55, 0
3, 20640, Note_on_c, 0, 52, 0
3, 20640, Note_on_c, 0, 48, 41
3, 20640, Note_on_c, 0, 60, 41
3, 21120, Note_on_c, 0, 60, 0
3, 21120, Note_on_c, 0, 48, 0
3, 21120, Note_on_c, 0, 53, 42
3, 21120, Note_on_c, 0, 60, 50
3, 21600, Note_on_c, 0, 60, 0
3, 21600, Note_on_c, 0, 53, 0
3, 21600, Note_on_c, 0, 45, 62
3, 21660, Note_on_c, 0, 53, 52
3, 21720, Note_on_c, 0, 57, 54
3, 22080, Note_on_c, 0, 57, 0
3, 22080, Note_on_c, 0, 53, 0
3, 22080, Note_on_c, 0, 45, 0
3, 22080, Note_on_c, 0, 46, 65
3, 22140, Note_on_c, 0, 53, 54
3, 22200, Note_on_c, 0, 57, 57
3, 22560, Note_on_c, 0, 57, 0
3, 22560, Note_on_c, 0, 53, 0
3, 22560, Note_on_c, 0, 46, 0
3, 22560, Note_on_c, 0, 48, 68
3, 22620, Note_on_c, 0, 53, 57
3, 22680, Note_on_c, 0, 57, 59
3, 23040, Note_on_c, 0, 57, 0
3, 23040, Note_on_c, 0, 53, 0
3, 23040, Note_on_c, 0, 48, 0
3, 23040, Note_on_c, 0, 50, 71
3, 23100, Note_on_c, 0, 53, 59
3, 23160, Note_on_c, 0, 57, 62
3, 23520, Note_on_c, 0, 57, 0
3, 23520, Note_on_c, 0, 53, 0
3, 23520, Note_on_c, 0, 50, 0
3, 23520, Note_on_c, 0, 62, 53
3, 23520, Note_on_c, 0, 65, 53
3, 23520, Note_on_c, 0, 69, 63
3, 23760, Note_on_c, 0, 69, 0
3, 23760, Note_on_c, 0, 71, 59
3, 24000, Note_on_c, 0, 65, 0
3, 24000, Note_on_c, 0, 62, 0
3, 24000, Note_on_c, 0, 60, 54
3, 24000, Note_on_c, 0, 67, 64
3, 24240, Note_on_c, 0, 71, 0
3, 24240, Note_on_c, 0, 72, 58
3, 24360, Note_on_c, 0, 72, 0
3, 24480, Note_on_c, 0, 67, 0
3, 24480, Note_on_c, 0, 60, 0
3, 24480, Note_on_c, 0, 58, 53
3, 24480, Note_on_c, 0, 62, 53
3, 24480, Note_on_c, 0, 65, 63
3, 24720, Note_on_c, 0, 65, 0
3, 24720, Note_on_c, 0, 64, 50
3, 24720, Note_on_c, 0, 67, 59
3, 24960, Note_on_c, 0, 62, 0
3, 24960, Note_on_c, 0, 58, 0
3, 24960, Note_on_c, 0, 57, 54
3, 25200, Note_on_c, 0, 64, 0
3, 25200, Note_on_c, 0, 67, 0
3, 25200, Note_on_c, 0, 65, 50
3, 25200, Note_on_c, 0, 69, 58
3, 25320, Note_on_c, 0, 69, 0
3, 25320, Note_on_c, 0, 65, 0
3, 25440, Note_on_c, 0, 57, 0
3, 25440, Note_on_c, 0, 55, 53
3, 25440, Note_on_c, 0, 58, 53
3, 25440, Note_on_c, 0, 62, 63
3, 25680, Note_on_c, 0, 62, 0
3, 25680, Note_on_c, 0, 64, 59
3, 25920, Note_on_c, 0, 64, 0
3, 25920, Note_on_c, 0, 58, 0
3, 25920, Note_on_c, 0, 55, 0
3, 25920, Note_on_c, 0, 60, 58
3, 25920, Note_on_c, 0, 65, 58
3, 25920, Note_on_c, 0, 53, 58
3, 26160, Note_on_c, 0, 53, 0
3, 26160, Note_on_c, 0, 65, 0
3, 26160, Note_on_c, 0, 60, 0
3, 26160, Note_on_c, 0, 46, 45
3, 26160, Note_on_c, 0, 58, 53
3, 26280, Note_on_c, 0, 58, 0
3, 26280, Note_on_c, 0, 46, 0
3, 26400, Note_on_c, 0, 48, 51
3, 26400, Note_on_c, 0, 57, 60
3, 26520, Note_on_c, 0, 57, 0
3, 26520, Note_on_c, 0, 48, 0
3, 26640, Note_on_c, 0, 48, 45
3, 26640, Note_on_c, 0, 52, 54
3, 26760, Note_on_c, 0, 52, 0
3, 26760, Note_on_c, 0, 48, 0
3, 26880, Note_on_c, 0, 41, 51
3, 26880, Note_on_c, 0, 53, 60
3, 27120, Note_on_c, 0, 53, 0
3, 27120, Note_on_c, 0, 41, 0
3, 27360, Note_on_c, 0, 50, 58
3, 27360, Note_on_c, 0, 53, 58
3, 27600, Note_on_c, 0, 53, 0
3, 27600, Note_on_c, 0, 56, 52
3, 27840, Note_on_c, 0, 50, 0
3, 27840, Note_on_c, 0, 48, 62
3, 28080, Note_on_c, 0, 56, 0
3, 28080, Note_on_c, 0, 57, 58
3, 28200, Note_on_c, 0, 57, 0
3, 28320, Note_on_c, 0, 48, 0
3, 28320, Note_on_c, 0, 46, 58
3, 28320, Note_on_c, 0, 50, 58
3, 28560, Note_on_c, 0, 50, 0
3, 28560, Note_on_c, 0, 52, 52
3, 28800, Note_on_c, 0, 46, 0
3, 28800, Note_on_c, 0, 45, 62
3, 29040, Note_on_c, 0, 52, 0
3, 29040, Note_on_c, 0, 53, 58
3, 29160, Note_on_c, 0, 53, 0
3, 29280, Note_on_c, 0, 45, 0
3, 29280, Note_on_c, 0, 43, 62
3, 29280, Note_on_c, 0, 50, 58
3, 29520, Note_on_c, 0, 50, 0
3, 29520, Note_on_c, 0, 49, 52
3, 29760, Note_on_c, 0, 43, 0
3, 29760, Note_on_c, 0, 41, 62
3, 29880, Note_on_c, 0, 49, 0
3, 29880, Note_on_c, 0, 48, 51
3, 30000, Note_on_c, 0, 41, 0
3, 30000, Note_on_c, 0, 34, 57
3, 30120, Note_on_c, 0, 48, 0
3, 30120, Note_on_c, 0, 46, 54
3, 30240, Note_on_c, 0, 34, 0
3, 30240, Note_on_c, 0, 36, 59
3, 30360, Note_on_c, 0, 46, 0
3, 30360, Note_on_c, 0, 45, 55
3, 30480, Note_on_c, 0, 36, 0
3, 30480, Note_on_c, 0, 36, 62
3, 30600, Note_on_c, 0, 45, 0
3, 30600, Note_on_c, 0, 43, 57
3, 30720, Note_on_c, 0, 43, 0
3, 30720, Note_on_c, 0, 36, 0
3, 30720, Note_on_c, 0, 29, 64
3, 30960, Note_on_c, 0, 29, 0
3, 30960, Note_on_c, 0, 41, 46
3, 31200, Note_on_c, 0, 45, 46
3, 31440, Note_on_c, 0, 48, 46
3, 31680, Note_on_c, 0, 48, 0
3, 31680, Note_on_c, 0, 45, 0
3, 31680, Note_on_c, 0, 41, 0
3, 31680, Note_on_c, 0, 41, 54
3, 31680, Note_on_c, 0, 43, 54
3, 31920, Note_on_c, 0, 46, 47
3, 32160, Note_on_c, 0, 48, 47
3, 32400, Note_on_c, 0, 52, 47
3, 32640, Note_on_c, 0, 52, 0
3, 32640, Note_on_c, 0, 46, 0
3, 32640, Note_on_c, 0, 41, 0
3, 32640, Note_on_c, 0, 43, 0
3, 32640, Note_on_c, 0, 48, 0
3, 32640, Note_on_c, 0, 41, 64
3, 32880, Note_on_c, 0, 41, 0
3, 32880, Note_on_c, 0, 53, 46
3, 33120, Note_on_c, 0, 57, 46
3, 33360, Note_on_c, 0, 60, 46
3, 33600, Note_on_c, 0, 60, 0
3, 33600, Note_on_c, 0, 57, 0
3, 33600, Note_on_c, 0, 53, 0
3, 33600, Note_on_c, 0, 53, 54
3, 33600, Note_on_c, 0, 55, 54
3, 33840, Note_on_c, 0, 58, 47
3, 34080, Note_on_c, 0, 60, 47
3, 34320, Note_on_c, 0, 64, 47
3, 34560, Note_on_c, 0, 64, 0
3, 34560, Note_on_c, 0, 58, 0
3, 34560, Note_on_c, 0, 53, 0
3, 34560, Note_on_c, 0, 55, 0
3, 34560, Note_on_c, 0, 60, 0
3, 34560, Note_on_c, 0, 41, 75
3, 34800, Note_on_c, 0, 41, 0
3, 34800, Note_on_c, 0, 53, 57
3, 35040, Note_on_c, 0, 57, 57
3, 35280, Note_on_c, 0, 60, 58
3, 35520, Note_on_c, 0, 60, 0
3, 35520, Note_on_c, 0, 57, 0
3, 35520, Note_on_c, 0, 53, 0
3, 35520, Note_on_c, 0, 39, 82
3, 35760, Note_on_c, 0, 39, 0
3, 35760, Note_on_c, 0, 51, 63
3, 36000, Note_on_c, 0, 57, 64
3, 36240, Note_on_c, 0, 60, 64
3, 36480, Note_on_c, 0, 60, 0
3, 36480, Note_on_c, 0, 57, 0
3, 36480, Note_on_c, 0, 51, 0
3, 36480, Note_on_c, 0, 37, 91
3, 36720, Note_on_c, 0, 37, 0
3, 36720, Note_on_c, 0, 49, 66
3, 36960, Note_on_c, 0, 53, 67
3, 37200, Note_on_c, 0, 58, 67
3, 37440, Note_on_c, 0, 58, 0
3, 37440, Note_on_c, 0, 53, 0
3, 37440, Note_on_c, 0, 49, 0
3, 37440, Note_on_c, 0, 42, 94
3, 37680, Note_on_c, 0, 46, 68
3, 37920, Note_on_c, 0, 46, 0
3, 37920, Note_on_c, 0, 49, 72
3, 38160, Note_on_c, 0, 49, 0
3, 38160, Note_on_c, 0, 52, 75
3, 38400, Note_on_c, 0, 52, 0
3, 38400, Note_on_c, 0, 42, 0
3, 38400, Note_on_c, 0, 41, 72
3, 38400, Note_on_c, 0, 53, 84
3, 39000, Note_on_c, 0, 53, 0
3, 39000, Note_on_c, 0, 41, 0
3, 39000, Note_on_c, 0, 48, 40
3, 39120, Note_on_c, 0, 48, 0
3, 39120, Note_on_c, 0, 50, 45
3, 39240, Note_on_c, 0, 50, 0
3, 39240, Note_on_c, 0, 48, 41
3, 39360, Note_on_c, 0, 48, 0
3, 39360, Note_on_c, 0, 46, 45
3, 39480, Note_on_c, 0, 46, 0
3, 39480, Note_on_c, 0, 45, 40
3, 39600, Note_on_c, 0, 45, 0
3, 39600, Note_on_c, 0, 43, 43
3, 39720, Note_on_c, 0, 43, 0
3, 39720, Note_on_c, 0, 41, 40
3, 39810, Note_on_c, 0, 41, 0
3, 39840, Note_on_c, 0, 41, 45
3, 40080, Note_on_c, 0, 41, 0
3, 40920, Note_on_c, 0, 51, 38
3, 40960, Note_on_c, 0, 51, 0
3, 40960, Note_on_c, 0, 53, 40
3, 41000, Note_on_c, 0, 53, 0
3, 41000, Note_on_c, 0, 51, 38
3, 41040, Note_on_c, 0, 51, 0
3, 41040, Note_on_c, 0, 53, 45
3, 41160, Note_on_c, 0, 53, 0
3, 41160, Note_on_c, 0, 51, 41
3, 41280, Note_on_c, 0, 51, 0
3, 41280, Note_on_c, 0, 50, 45
3, 41400, Note_on_c, 0, 50, 0
3, 41400, Note_on_c, 0, 48, 40
3, 41520, Note_on_c, 0, 48, 0
3, 41520, Note_on_c, 0, 46, 43
3, 41640, Note_on_c, 0, 46, 0
3, 41640, Note_on_c, 0, 45, 40
3, 41730, Note_on_c, 0, 45, 0
3, 41760, Note_on_c, 0, 45, 45
3, 42000, Note_on_c, 0, 45, 0
3, 42840, Note_on_c, 0, 60, 40
3, 42960, Note_on_c, 0, 60, 0
3, 42960, Note_on_c, 0, 62, 45
3, 43080, Note_on_c, 0, 62, 0
3, 43080, Note_on_c, 0, 60, 41
3, 43200, Note_on_c, 0, 60, 0
3, 43200, Note_on_c, 0, 58, 45
3, 43320, Note_on_c, 0, 58, 0
3, 43320, Note_on_c, 0, 57, 40
3, 43440, Note_on_c, 0, 57, 0
3, 43440, Note_on_c, 0, 55, 43
3, 43560, Note_on_c, 0, 55, 0
3, 43560, Note_on_c, 0, 53, 40
3, 43650, Note_on_c, 0, 53, 0
3, 43800, Note_on_c, 0, 63, 40
3, 43920, Note_on_c, 0, 63, 0
3, 43920, Note_on_c, 0, 65, 45
3, 44040, Note_on_c, 0, 65, 0
3, 44040, Note_on_c, 0, 63, 41
3, 44160, Note_on_c, 0, 63, 0
3, 44160, Note_on_c, 0, 62, 45
3, 44280, Note_on_c, 0, 62, 0
3, 44280, Note_on_c, 0, 60, 40
3, 44400, Note_on_c, 0, 60, 0
3, 44400, Note_on_c, 0, 58, 43
3, 44520, Note_on_c, 0, 58, 0
3, 44520, Note_on_c, 0, 57, 40
3, 44610, Note_on_c, 0, 57, 0
3, 48000, Note_on_c, 0, 58, 42
3, 48120, Note_on_c, 0, 65, 34
3, 48240, Note_on_c, 0, 65, 0
3, 48240, Note_on_c, 0, 58, 0
3, 48240, Note_on_c, 0, 62, 38
3, 48360, Note_on_c, 0, 65, 34
3, 48480, Note_on_c, 0, 65, 0
3, 48480, Note_on_c, 0, 62, 0
3, 48480, Note_on_c, 0, 63, 38
3, 48480, Note_on_c, 0, 60, 38
3, 48600, Note_on_c, 0, 63, 0
3, 48600, Note_on_c, 0, 65, 34
3, 48720, Note_on_c, 0, 65, 0
3, 48720, Note_on_c, 0, 60, 0
3, 48720, Note_on_c, 0, 62, 37
3, 48720, Note_on_c, 0, 58, 37
3, 48840, Note_on_c, 0, 62, 0
3, 48840, Note_on_c, 0, 65, 34
3, 48960, Note_on_c, 0, 65, 0
3, 48960, Note_on_c, 0, 58, 0
3, 48960, Note_on_c, 0, 57, 43
3, 48960, Note_on_c, 0, 63, 43
3, 49080, Note_on_c, 0, 65, 34
3, 49140, Note_on_c, 0, 65, 0
3, 49200, Note_on_c, 0, 65, 34
3, 49260, Note_on_c, 0, 65, 0
3, 49320, Note_on_c, 0, 65, 34
3, 49380, Note_on_c, 0, 65, 0
3, 49440, Note_on_c, 0, 65, 37
3, 49500, Note_on_c, 0, 65, 0
3, 49560, Note_on_c, 0, 65, 34
3, 49620, Note_on_c, 0, 65, 0
3, 49680, Note_on_c, 0, 65, 34
3, 49740, Note_on_c, 0, 65, 0
3, 49800, Note_on_c, 0, 65, 34
3, 49860, Note_on_c, 0, 65, 0
3, 49920, Note_on_c, 0, 63, 0
3, 49920, Note_on_c, 0, 57, 0
3, 49920, Note_on_c, 0, 57, 42
3, 50040, Note_on_c, 0, 65, 34
3, 50160, Note_on_c, 0, 65, 0
3, 50160, Note_on_c, 0, 57, 0
3, 50160, Note_on_c, 0, 63, 38
3, 50280, Note_on_c, 0, 65, 34
3, 50400, Note_on_c, 0, 65, 0
3, 50400, Note_on_c, 0, 63, 0
3, 50400, Note_on_c, 0, 62, 38
3, 50520, Note_on_c, 0, 65, 34
3, 50640, Note_on_c, 0, 65, 0
3, 50640, Note_on_c, 0, 62, 0
3, 50640, Note_on_c, 0, 57, 37
3, 50760, Note_on_c, 0, 65, 34
3, 50880, Note_on_c, 0, 65, 0
3, 50880, Note_on_c, 0, 57, 0
3, 50880, Note_on_c, 0, 58, 47
3, 51000, Note_on_c, 0, 65, 37
3, 51060, Note_on_c, 0, 65, 0
3, 51120, Note_on_c, 0, 65, 37
3, 51180, Note_on_c, 0, 65, 0
3, 51240, Note_on_c, 0, 65, 37
3, 51300, Note_on_c, 0, 65, 0
3, 51360, Note_on_c, 0, 65, 41
3, 51420, Note_on_c, 0, 65, 0
3, 51480, Note_on_c, 0, 65, 37
3, 51540, Note_on_c, 0, 65, 0
3, 51600, Note_on_c, 0, 58, 0
3, 51600, Note_on_c, 0, 59, 37
3, 51720, Note_on_c, 0, 65, 38
3, 51780, Note_on_c, 0, 65, 0
3, 51840, Note_on_c, 0, 59, 0
3, 51840, Note_on_c, 0, 60, 47
3, 51960, Note_on_c, 0, 65, 38
3, 52080, Note_on_c, 0, 65, 0
3, 52080, Note_on_c, 0, 60, 0
3, 52080, Note_on_c, 0, 57, 42
3, 52200, Note_on_c, 0, 65, 38
3, 52320, Note_on_c, 0, 65, 0
3, 52320, Note_on_c, 0, 57, 0
3, 52320, Note_on_c, 0, 58, 47
3, 52440, Note_on_c, 0, 65, 38
3, 52560, Note_on_c, 0, 65, 0
3, 52560, Note_on_c, 0, 58, 0
3, 52560, Note_on_c, 0, 59, 43
3, 52680, Note_on_c, 0, 65, 38
3, 52800, Note_on_c, 0, 65, 0
3, 52800, Note_on_c, 0, 59, 0
3, 52800, Note_on_c, 0, 60, 54
3, 52920, Note_on_c, 0, 65, 39
3, 53040, Note_on_c, 0, 65, 0
3, 53040, Note_on_c, 0, 60, 0
3, 53040, Note_on_c, 0, 57, 48
3, 53160, Note_on_c, 0, 65, 39
3, 53280, Note_on_c, 0, 65, 0
3, 53280, Note_on_c, 0, 57, 0
3, 53280, Note_on_c, 0, 58, 55
3, 53400, Note_on_c, 0, 62, 40
3, 53520, Note_on_c, 0, 62, 0
3, 53520, Note_on_c, 0, 58, 0
3, 53520, Note_on_c, 0, 57, 49
3, 53640, Note_on_c, 0, 60, 44
3, 53760, Note_on_c, 0, 60, 0
3, 53760, Note_on_c, 0, 57, 0
3, 53760, Note_on_c, 0, 55, 60
3, 53880, Note_on_c, 0, 58, 43
3, 53990, Note_on_c, 0, 55, 0
3, 54000, Note_on_c, 0, 58, 0
3, 54000, Note_on_c, 0, 55, 50
3, 54120, Note_on_c, 0, 58, 42
3, 54240, Note_on_c, 0, 58, 0
3, 54240, Note_on_c, 0, 55, 0
3, 54240, Note_on_c, 0, 48, 57
3, 54360, Note_on_c, 0, 58, 40
3, 54470, Note_on_c, 0, 48, 0
3, 54480, Note_on_c, 0, 58, 0
3, 54480, Note_on_c, 0, 48, 44
3, 54600, Note_on_c, 0, 58, 40
3, 54720, Note_on_c, 0, 58, 0
3, 54720, Note_on_c, 0, 48, 0
3, 54720, Note_on_c, 0, 53, 43
3, 54840, Note_on_c, 0, 58, 29
3, 54960, Note_on_c, 0, 58, 0
3, 54960, Note_on_c, 0, 57, 35
3, 55080, Note_on_c, 0, 57, 0
3, 55080, Note_on_c, 0, 55, 29
3, 55200, Note_on_c, 0, 55, 0
3, 55200, Note_on_c, 0, 57, 34
3, 55440, Note_on_c, 0, 57, 0
3, 55440, Note_on_c, 0, 53, 0
3, 55680, Note_on_c, 0, 46, 42
3, 55800, Note_on_c, 0, 53, 34
3, 55920, Note_on_c, 0, 53, 0
3, 55920, Note_on_c, 0, 46, 0
3, 55920, Note_on_c, 0, 50, 38
3, 56040, Note_on_c, 0, 53, 34
3, 56160, Note_on_c, 0, 53, 0
3, 56160, Note_on_c, 0, 50, 0
3, 56160, Note_on_c, 0, 51, 38
3, 56160, Note_on_c, 0, 48, 38
3, 56280, Note_on_c, 0, 51, 0
3, 56280, Note_on_c, 0, 53, 34
3, 56400, Note_on_c, 0, 53, 0
3, 56400, Note_on_c, 0, 48, 0
3, 56400, Note_on_c, 0, 50, 37
3, 56400, Note_on_c, 0, 46, 37
3, 56520, Note_on_c, 0, 50, 0
3, 56520, Note_on_c, 0, 53, 34
3, 56640, Note_on_c, 0, 53, 0
3, 56640, Note_on_c, 0, 46, 0
3, 56640, Note_on_c, 0, 45, 43
3, 56640, Note_on_c, 0, 51, 43
3, 56760, Note_on_c, 0, 53, 34
3, 56820, Note_on_c, 0, 53, 0
3, 56880, Note_on_c, 0, 53, 34
3, 56940, Note_on_c, 0, 53, 0
3, 57000, Note_on_c, 0, 53, 34
3, 57060, Note_on_c, 0, 53, 0
3, 57120, Note_on_c, 0, 53, 37
3, 57180, Note_on_c, 0, 53, 0
3, 57240, Note_on_c, 0, 53, 34
3, 57300, Note_on_c, 0, 53, 0
3, 57360, Note_on_c, 0, 53, 34
3, 57420, Note_on_c, 0, 53, 0
3, 57480, Note_on_c, 0, 53, 34
3, 57540, Note_on_c, 0, 53, 0
3, 57600, Note_on_c, 0, 51, 0
3, 57600, Note_on_c, 0, 45, 0
3, 57600, Note_on_c, 0, 45, 42
3, 57720, Note_on_c, 0, 53, 34
3, 57840, Note_on_c, 0, 53, 0
3, 57840, Note_on_c, 0, 45, 0
3, 57840, Note_on_c, 0, 51, 38
3, 57960, Note_on_c, 0, 53, 34
3, 58080, Note_on_c, 0, 53, 0
3, 58080, Note_on_c, 0, 51, 0
3, 58080, Note_on_c, 0, 50, 38
3, 58200, Note_on_c, 0, 53, 34
3, 58320, Note_on_c, 0, 53, 0
3, 58320, Note_on_c, 0, 50, 0
3, 58320, Note_on_c, 0, 45, 37
3, 58440, Note_on_c, 0, 53, 34
3, 58560, Note_on_c, 0, 53, 0
3, 58560, Note_on_c, 0, 45, 0
3, 58560, Note_on_c, 0, 46, 43
3, 58680, Note_on_c, 0, 53, 34
3, 58740, Note_on_c, 0, 53, 0
3, 58800, Note_on_c, 0, 53, 34
3, 58860, Note_on_c, 0, 53, 0
3, 58920, Note_on_c, 0, 53, 34
3, 58980, Note_on_c, 0, 53, 0
3, 59040, Note_on_c, 0, 53, 37
3, 59100, Note_on_c, 0, 53, 0
3, 59160, Note_on_c, 0, 53, 37
3, 59220, Note_on_c, 0, 53, 0
3, 59280, Note_on_c, 0, 46, 0
3, 59280, Note_on_c, 0, 47, 37
3, 59400, Note_on_c, 0, 53, 37
3, 59460, Note_on_c, 0, 53, 0
3, 59520, Note_on_c, 0, 47, 0
3, 59520, Note_on_c, 0, 48, 46
3, 59640, Note_on_c, 0, 53, 38
3, 59760, Note_on_c, 0, 53, 0
3, 59760, Note_on_c, 0, 48, 0
3, 59760, Note_on_c, 0, 41, 42
3, 59880, Note_on_c, 0, 53, 38
3, 60000, Note_on_c, 0, 53, 0
3, 60000, Note_on_c, 0, 41, 0
3, 60000, Note_on_c, 0, 46, 47
3, 60120, Note_on_c, 0, 53, 38
3, 60240, Note_on_c, 0, 53, 0
3, 60240, Note_on_c, 0, 46, 0
3, 60240, Note_on_c, 0, 47, 43
3, 60360, Note_on_c, 0, 53, 39
3, 60480, Note_on_c, 0, 53, 0
3, 60480, Note_on_c, 0, 47, 0
3, 60480, Note_on_c, 0, 48, 54
3, 60600, Note_on_c, 0, 53, 39
3, 60720, Note_on_c, 0, 53, 0
3, 60720, Note_on_c, 0, 48, 0
3, 60720, Note_on_c, 0, 41, 48
3, 60840, Note_on_c, 0, 53, 39
3, 60960, Note_on_c, 0, 53, 0
3, 60960, Note_on_c, 0, 41, 0
3, 60960, Note_on_c, 0, 46, 56
3, 61080, Note_on_c, 0, 53, 41
3, 61200, Note_on_c, 0, 53, 0
3, 61200, Note_on_c, 0, 46, 0
3, 61200, Note_on_c, 0, 44, 50
3, 61320, Note_on_c, 0, 46, 45
3, 61440, Note_on_c, 0, 46, 0
3, 61440, Note_on_c, 0, 44, 0
3, 61440, Note_on_c, 0, 43, 62
3, 61560, Note_on_c, 0, 46, 51
3, 61670, Note_on_c, 0, 43, 0
3, 61680, Note_on_c, 0, 46, 0
3, 61680, Note_on_c, 0, 39, 58
3, 61800, Note_on_c, 0, 51, 51
3, 61920, Note_on_c, 0, 51, 0
3, 61920, Note_on_c, 0, 39, 0
3, 61920, Note_on_c, 0, 41, 56
3, 62040, Note_on_c, 0, 50, 42
3, 62150, Note_on_c, 0, 41, 0
3, 62160, Note_on_c, 0, 50, 0
3, 62160, Note_on_c, 0, 41, 49
3, 62280, Note_on_c, 0, 45, 43
3, 62400, Note_on_c, 0, 45, 0
3, 62400, Note_on_c, 0, 41, 0
3, 62400, Note_on_c, 0, 34, 43
3, 62520, Note_on_c, 0, 34, 0
3, 62520, Note_on_c, 0, 46, 29
3, 62640, Note_on_c, 0, 58, 35
3, 62700, Note_on_c, 0, 58, 0
3, 62760, Note_on_c, 0, 58, 29
3, 62820, Note_on_c, 0, 58, 0
3, 62880, Note_on_c, 0, 58, 40
3, 62940, Note_on_c, 0, 58, 0
3, 63000, Note_on_c, 0, 58, 35
3, 63060, Note_on_c, 0, 58, 0
3, 63120, Note_on_c, 0, 46, 0
3, 63120, Note_on_c, 0, 56, 43
3, 63240, Note_on_c, 0, 58, 39
3, 63360, Note_on_c, 0, 58, 0
3, 63360, Note_on_c, 0, 56, 0
3, 63360, Note_on_c, 0, 55, 52
3, 63480, Note_on_c, 0, 58, 46
3, 63600, Note_on_c, 0, 58, 0
3, 63600, Note_on_c, 0, 55, 0
3, 63600, Note_on_c, 0, 51, 56
3, 63720, Note_on_c, 0, 63, 51
3, 63840, Note_on_c, 0, 63, 0
3, 63840, Note_on_c, 0, 51, 0
3, 63840, Note_on_c, 0, 53, 35
3, 63960, Note_on_c, 0, 62, 29
3, 64070, Note_on_c, 0, 53, 0
3, 64080, Note_on_c, 0, 62, 0
3, 64080, Note_on_c, 0, 53, 35
3, 64200, Note_on_c, 0, 57, 29
3, 64320, Note_on_c, 0, 57, 0
3, 64320, Note_on_c, 0, 53, 0
3, 64320, Note_on_c, 0, 46, 33
3, 64320, Note_on_c, 0, 58, 39
3, 64560, Note_on_c, 0, 58, 0
3, 64560, Note_on_c, 0, 46, 0
3, 64800, Note_on_c, 0, 46, 59
3, 64800, Note_on_c, 0, 49, 71
3, 65280, Note_on_c, 0, 49, 0
3, 65280, Note_on_c, 0, 46, 0
3, 65280, Note_on_c, 0, 39, 53
3, 65280, Note_on_c, 0, 47, 64
3, 65640, Note_on_c, 0, 47, 0
3, 65640, Note_on_c, 0, 49, 64
3, 65700, Note_on_c, 0, 49, 0
3, 65700, Note_on_c, 0, 51, 64
3, 65760, Note_on_c, 0, 51, 0
3, 65760, Note_on_c, 0, 42, 58
3, 66000, Note_on_c, 0, 42, 0
3, 66000, Note_on_c, 0, 39, 0
3, 66000, Note_on_c, 0, 41, 48
3, 66000, Note_on_c, 0, 45, 58
3, 66240, Note_on_c, 0, 45, 0
3, 66240, Note_on_c, 0, 41, 0
3, 66240, Note_on_c, 0, 34, 59
3, 66240, Note_on_c, 0, 46, 71
3, 66600, Note_on_c, 0, 46, 0
3, 66600, Note_on_c, 0, 34, 0
3, 66720, Note_on_c, 0, 46, 59
3, 66720, Note_on_c, 0, 49, 71
3, 67200, Note_on_c, 0, 49, 0
3, 67200, Note_on_c, 0, 46, 0
3, 67200, Note_on_c, 0, 40, 71
3, 67200, Note_on_c, 0, 48, 71
3, 67680, Note_on_c, 0, 48, 0
3, 67680, Note_on_c, 0, 40, 0
3, 67680, Note_on_c, 0, 52, 71
3, 67680, Note_on_c, 0, 55, 71
3, 68160, Note_on_c, 0, 55, 0
3, 68160, Note_on_c, 0, 52, 0
3, 68160, Note_on_c, 0, 53, 59
3, 68160, Note_on_c, 0, 56, 71
3, 68280, Note_on_c, 0, 56, 0
3, 68280, Note_on_c, 0, 53, 0
3, 68400, Note_on_c, 0, 47, 64
3, 68400, Note_on_c, 0, 59, 76
3, 68520, Note_on_c, 0, 59, 0
3, 68520, Note_on_c, 0, 47, 0
3, 68640, Note_on_c, 0, 48, 59
3, 68640, Note_on_c, 0, 60, 71
3, 68760, Note_on_c, 0, 60, 0
3, 68760, Note_on_c, 0, 48, 0
3, 68880, Note_on_c, 0, 36, 59
3, 68880, Note_on_c, 0, 48, 71
3, 69000, Note_on_c, 0, 48, 0
3, 69000, Note_on_c, 0, 36, 0
3, 69120, Note_on_c, 0, 41, 70
3, 69120, Note_on_c, 0, 53, 82
3, 69240, Note_on_c, 0, 53, 0
3, 69240, Note_on_c, 0, 41, 0
3, 69240, Note_on_c, 0, 40, 30
3, 69240, Note_on_c, 0, 43, 36
3, 69300, Note_on_c, 0, 43, 0
3, 69300, Note_on_c, 0, 40, 0
3, 69360, Note_on_c, 0, 41, 30
3, 69360, Note_on_c, 0, 44, 36
3, 69420, Note_on_c, 0, 44, 0
3, 69420, Note_on_c, 0, 41, 0
3, 69480, Note_on_c, 0, 43, 30
3, 69480, Note_on_c, 0, 46, 36
3, 69540, Note_on_c, 0, 46, 0
3, 69540, Note_on_c, 0, 43, 0
3, 69600, Note_on_c, 0, 44, 34
3, 69600, Note_on_c, 0, 48, 40
3, 69660, Note_on_c, 0, 48, 0
3, 69660, Note_on_c, 0, 44, 0
3, 69720, Note_on_c, 0, 46, 29
3, 69720, Note_on_c, 0, 49, 35
3, 69780, Note_on_c, 0, 49, 0
3, 69780, Note_on_c, 0, 46, 0
3, 69840, Note_on_c, 0, 44, 29
3, 69840, Note_on_c, 0, 48, 35
3, 69900, Note_on_c, 0, 48, 0
3, 69900, Note_on_c, 0, 44, 0
3, 69960, Note_on_c, 0, 43, 29
3, 69960, Note_on_c, 0, 46, 35
3, 70020, Note_on_c, 0, 46, 0
3, 70020, Note_on_c, 0, 43, 0
3, 70080, Note_on_c, 0, 41, 34
3, 70080, Note_on_c, 0, 44, 40
3, 70140, Note_on_c, 0, 44, 0
3, 70140, Note_on_c, 0, 41, 0
3, 70200, Note_on_c, 0, 45, 30
3, 70200, Note_on_c, 0, 48, 36
3, 70260, Note_on_c, 0, 48, 0
3, 70260, Note_on_c, 0, 45, 0
3, 70320, Note_on_c, 0, 46, 30
3, 70320, Note_on_c, 0, 49, 36
3, 70380, Note_on_c, 0, 49, 0
3, 70380, Note_on_c, 0, 46, 0
3, 70440, Note_on_c, 0, 51, 36
3, 70440, Note_on_c, 0, 48, 30
3, 70500, Note_on_c, 0, 48, 0
3, 70500, Note_on_c, 0, 51, 0
3, 70560, Note_on_c, 0, 53, 40
3, 70560, Note_on_c, 0, 49, 34
3, 70620, Note_on_c, 0, 49, 0
3, 70620, Note_on_c, 0, 53, 0
3, 70680, Note_on_c, 0, 51, 30
3, 70680, Note_on_c, 0, 54, 36
3, 70740, Note_on_c, 0, 54, 0
3, 70740, Note_on_c, 0, 51, 0
3, 70800, Note_on_c, 0, 49, 30
3, 70800, Note_on_c, 0, 53, 36
3, 70860, Note_on_c, 0, 53, 0
3, 70860, Note_on_c, 0, 49, 0
3, 70920, Note_on_c, 0, 48, 30
3, 70920, Note_on_c, 0, 51, 36
3, 70980, Note_on_c, 0, 51, 0
3, 70980, Note_on_c, 0, 48, 0
3, 71040, Note_on_c, 0, 46, 38
3, 71040, Note_on_c, 0, 49, 45
3, 71100, Note_on_c, 0, 49, 0
3, 71100, Note_on_c, 0, 46, 0
3, 71160, Note_on_c, 0, 46, 30
3, 71160, Note_on_c, 0, 49, 36
3, 71220, Note_on_c, 0, 49, 0
3, 71220, Note_on_c, 0, 46, 0
3, 71280, Note_on_c, 0, 47, 30
3, 71280, Note_on_c, 0, 50, 36
3, 71340, Note_on_c, 0, 50, 0
3, 71340, Note_on_c, 0, 47, 0
3, 71400, Note_on_c, 0, 47, 30
3, 71400, Note_on_c, 0, 50, 36
3, 71460, Note_on_c, 0, 50, 0
3, 71460, Note_on_c, 0, 47, 0
3, 71520, Note_on_c, 0, 48, 39
3, 71520, Note_on_c, 0, 53, 47
3, 71580, Note_on_c, 0, 53, 0
3, 71580, Note_on_c, 0, 48, 0
3, 71640, Note_on_c, 0, 48, 32
3, 71640, Note_on_c, 0, 53, 38
3, 71700, Note_on_c, 0, 53, 0
3, 71700, Note_on_c, 0, 48, 0
3, 71760, Note_on_c, 0, 48, 32
3, 71760, Note_on_c, 0, 55, 38
3, 71820, Note_on_c, 0, 55, 0
3, 71820, Note_on_c, 0, 48, 0
3, 71880, Note_on_c, 0, 48, 32
3, 71880, Note_on_c, 0, 55, 38
3, 71940, Note_on_c, 0, 55, 0
3, 71940, Note_on_c, 0, 48, 0
3, 72000, Note_on_c, 0, 53, 61
3, 72000, Note_on_c, 0, 56, 72
3, 72120, Note_on_c, 0, 56, 0
3, 72120, Note_on_c, 0, 53, 0
3, 72120, Note_on_c, 0, 40, 36
3, 72120, Note_on_c, 0, 52, 42
3, 72180, Note_on_c, 0, 52, 0
3, 72180, Note_on_c, 0, 40, 0
3, 72240, Note_on_c, 0, 41, 36
3, 72240, Note_on_c, 0, 53, 43
3, 72300, Note_on_c, 0, 53, 0
3, 72300, Note_on_c, 0, 41, 0
3, 72360, Note_on_c, 0, 43, 36
3, 72360, Note_on_c, 0, 55, 44
3, 72420, Note_on_c, 0, 55, 0
3, 72420, Note_on_c, 0, 43, 0
3, 72480, Note_on_c, 0, 44, 42
3, 72480, Note_on_c, 0, 56, 50
3, 72540, Note_on_c, 0, 56, 0
3, 72540, Note_on_c, 0, 44, 0
3, 72600, Note_on_c, 0, 46, 37
3, 72600, Note_on_c, 0, 58, 45
3, 72660, Note_on_c, 0, 58, 0
3, 72660, Note_on_c, 0, 46, 0
3, 72720, Note_on_c, 0, 44, 37
3, 72720, Note_on_c, 0, 56, 46
3, 72780, Note_on_c, 0, 56, 0
3, 72780, Note_on_c, 0, 44, 0
3, 72840, Note_on_c, 0, 43, 37
3, 72840, Note_on_c, 0, 55, 46
3, 72900, Note_on_c, 0, 55, 0
3, 72900, Note_on_c, 0, 43, 0
3, 72960, Note_on_c, 0, 41, 46
3, 72960, Note_on_c, 0, 53, 54
3, 73020, Note_on_c, 0, 53, 0
3, 73020, Note_on_c, 0, 41, 0
3, 73080, Note_on_c, 0, 45, 42
3, 73080, Note_on_c, 0, 57, 50
3, 73140, Note_on_c, 0, 57, 0
3, 73140, Note_on_c, 0, 45, 0
3, 73200, Note_on_c, 0, 46, 42
3, 73200, Note_on_c, 0, 58, 50
3, 73260, Note_on_c, 0, 58, 0
3, 73260, Note_on_c, 0, 46, 0
3, 73320, Note_on_c, 0, 60, 52
3, 73320, Note_on_c, 0, 48, 42
3, 73380, Note_on_c, 0, 48, 0
3, 73380, Note_on_c, 0, 60, 0
3, 73440, Note_on_c, 0, 61, 58
3, 73440, Note_on_c, 0, 49, 50
3, 73500, Note_on_c, 0, 49, 0
3, 73500, Note_on_c, 0, 61, 0
3, 73560, Note_on_c, 0, 51, 44
3, 73560, Note_on_c, 0, 63, 54
3, 73620, Note_on_c, 0, 63, 0
3, 73620, Note_on_c, 0, 51, 0
3, 73680, Note_on_c, 0, 49, 44
3, 73680, Note_on_c, 0, 61, 54
3, 73740, Note_on_c, 0, 61, 0
3, 73740, Note_on_c, 0, 49, 0
3, 73800, Note_on_c, 0, 48, 46
3, 73800, Note_on_c, 0, 60, 56
3, 73860, Note_on_c, 0, 60, 0
3, 73860, Note_on_c, 0, 48, 0
3, 73920, Note_on_c, 0, 46, 60
3, 73920, Note_on_c, 0, 58, 71
3, 73980, Note_on_c, 0, 58, 0
3, 73980, Note_on_c, 0, 46, 0
3, 74040, Note_on_c, 0, 58, 48
3, 74040, Note_on_c, 0, 61, 57
3, 74100, Note_on_c, 0, 61, 0
3, 74100, Note_on_c, 0, 58, 0
3, 74160, Note_on_c, 0, 59, 48
3, 74160, Note_on_c, 0, 62, 58
3, 74220, Note_on_c, 0, 62, 0
3, 74220, Note_on_c, 0, 59, 0
3, 74280, Note_on_c, 0, 59, 48
3, 74280, Note_on_c, 0, 62, 58
3, 74340, Note_on_c, 0, 62, 0
3, 74340, Note_on_c, 0, 59, 0
3, 74400, Note_on_c, 0, 60, 65
3, 74400, Note_on_c, 0, 65, 78
3, 74460, Note_on_c, 0, 65, 0
3, 74460, Note_on_c, 0, 60, 0
3, 74520, Note_on_c, 0, 60, 54
3, 74520, Note_on_c, 0, 65, 64
3, 74580, Note_on_c, 0, 65, 0
3, 74580, Note_on_c, 0, 60, 0
3, 74640, Note_on_c, 0, 60, 55
3, 74640, Note_on_c, 0, 67, 66
3, 74700, Note_on_c, 0, 67, 0
3, 74700, Note_on_c, 0, 60, 0
3, 74760, Note_on_c, 0, 60, 56
3, 74760, Note_on_c, 0, 67, 67
3, 74820, Note_on_c, 0, 67, 0
3, 74820, Note_on_c, 0, 60, 0
3, 74880, Note_on_c, 0, 53, 53
3, 74880, Note_on_c, 0, 56, 53
3, 74880, Note_on_c, 0, 60, 53
3, 74880, Note_on_c, 0, 65, 63
3, 74940, Note_on_c, 0, 65, 0
3, 74940, Note_on_c, 0, 53, 0
3, 74940, Note_on_c, 0, 56, 0
3, 74940, Note_on_c, 0, 60, 0
3, 75000, Note_on_c, 0, 53, 53
3, 75000, Note_on_c, 0, 56, 53
3, 75000, Note_on_c, 0, 60, 53
3, 75000, Note_on_c, 0, 65, 63
3, 75060, Note_on_c, 0, 65, 0
3, 75060, Note_on_c, 0, 53, 0
3, 75060, Note_on_c, 0, 56, 0
3, 75060, Note_on_c, 0, 60, 0
3, 75120, Note_on_c, 0, 53, 47
3, 75120, Note_on_c, 0, 56, 47
3, 75120, Note_on_c, 0, 60, 47
3, 75120, Note_on_c, 0, 65, 56
3, 75180, Note_on_c, 0, 65, 0
3, 75180, Note_on_c, 0, 53, 0
3, 75180, Note_on_c, 0, 56, 0
3, 75180, Note_on_c, 0, 60, 0
3, 75240, Note_on_c, 0, 53, 47
3, 75240, Note_on_c, 0, 56, 47
3, 75240, Note_on_c, 0, 60, 47
3, 75240, Note_on_c, 0, 65, 56
3, 75300, Note_on_c, 0, 65, 0
3, 75300, Note_on_c, 0, 53, 0
3, 75300, Note_on_c, 0, 56, 0
3, 75300, Note_on_c, 0, 60, 0
3, 75360, Note_on_c, 0, 53, 49
3, 75360, Note_on_c, 0, 55, 49
3, 75360, Note_on_c, 0, 58, 49
3, 75360, Note_on_c, 0, 60, 49
3, 75360, Note_on_c, 0, 64, 59
3, 75420, Note_on_c, 0, 64, 0
3, 75420, Note_on_c, 0, 58, 0
3, 75420, Note_on_c, 0, 53, 0
3, 75420, Note_on_c, 0, 55, 0
3, 75420, Note_on_c, 0, 60, 0
3, 75480, Note_on_c, 0, 53, 42
3, 75480, Note_on_c, 0, 55, 42
3, 75480, Note_on_c, 0, 58, 42
3, 75480, Note_on_c, 0, 60, 42
3, 75480, Note_on_c, 0, 64, 50
3, 75540, Note_on_c, 0, 64, 0
3, 75540, Note_on_c, 0, 58, 0
3, 75540, Note_on_c, 0, 53, 0
3, 75540, Note_on_c, 0, 55, 0
3, 75540, Note_on_c, 0, 60, 0
3, 75600, Note_on_c, 0, 53, 42
3, 75600, Note_on_c, 0, 55, 42
3, 75600, Note_on_c, 0, 58, 42
3, 75600, Note_on_c, 0, 60, 42
3, 75600, Note_on_c, 0, 64, 50
3, 75660, Note_on_c, 0, 64, 0
3, 75660, Note_on_c, 0, 58, 0
3, 75660, Note_on_c, 0, 53, 0
3, 75660, Note_on_c, 0, 55, 0
3, 75660, Note_on_c, 0, 60, 0
3, 75720, Note_on_c, 0, 53, 42
3, 75720, Note_on_c, 0, 55, 42
3, 75720, Note_on_c, 0, 58, 42
3, 75720, Note_on_c, 0, 60, 42
3, 75720, Note_on_c, 0, 64, 50
3, 75780, Note_on_c, 0, 64, 0
3, 75780, Note_on_c, 0, 58, 0
3, 75780, Note_on_c, 0, 53, 0
3, 75780, Note_on_c, 0, 55, 0
3, 75780, Note_on_c, 0, 60, 0
3, 75840, Note_on_c, 0, 41, 53
3, 75840, Note_on_c, 0, 44, 53
3, 75840, Note_on_c, 0, 48, 53
3, 75840, Note_on_c, 0, 53, 63
3, 75900, Note_on_c, 0, 53, 0
3, 75900, Note_on_c, 0, 41, 0
3, 75900, Note_on_c, 0, 44, 0
3, 75900, Note_on_c, 0, 48, 0
3, 75960, Note_on_c, 0, 41, 53
3, 75960, Note_on_c, 0, 44, 53
3, 75960, Note_on_c, 0, 48, 53
3, 75960, Note_on_c, 0, 53, 63
3, 76020, Note_on_c, 0, 53, 0
3, 76020, Note_on_c, 0, 41, 0
3, 76020, Note_on_c, 0, 44, 0
3, 76020, Note_on_c, 0, 48, 0
3, 76080, Note_on_c, 0, 41, 47
3, 76080, Note_on_c, 0, 44, 47
3, 76080, Note_on_c, 0, 48, 47
3, 76080, Note_on_c, 0, 53, 56
3, 76140, Note_on_c, 0, 53, 0
3, 76140, Note_on_c, 0, 41, 0
3, 76140, Note_on_c, 0, 44, 0
3, 76140, Note_on_c, 0, 48, 0
3, 76200, Note_on_c, 0, 41, 47
3, 76200, Note_on_c, 0, 44, 47
3, 76200, Note_on_c, 0, 48, 47
3, 76200, Note_on_c, 0, 53, 56
3, 76260, Note_on_c, 0, 53, 0
3, 76260, Note_on_c, 0, 41, 0
3, 76260, Note_on_c, 0, 44, 0
3, 76260, Note_on_c, 0, 48, 0
3, 76320, Note_on_c, 0, 41, 49
3, 76320, Note_on_c, 0, 43, 49
3, 76320, Note_on_c, 0, 46, 49
3, 76320, Note_on_c, 0, 48, 49
3, 76320, Note_on_c, 0, 52, 59
3, 76380, Note_on_c, 0, 52, 0
3, 76380, Note_on_c, 0, 46, 0
3, 76380, Note_on_c, 0, 41, 0
3, 76380, Note_on_c, 0, 43, 0
3, 76380, Note_on_c, 0, 48, 0
3, 76440, Note_on_c, 0, 41, 42
3, 76440, Note_on_c, 0, 43, 42
3, 76440, Note_on_c, 0, 46, 42
3, 76440, Note_on_c, 0, 48, 42
3, 76440, Note_on_c, 0, 52, 50
3, 76500, Note_on_c, 0, 52, 0
3, 76500, Note_on_c, 0, 46, 0
3, 76500, Note_on_c, 0, 41, 0
3, 76500, Note_on_c, 0, 43, 0
3, 76500, Note_on_c, 0, 48, 0
3, 76560, Note_on_c, 0, 41, 42
3, 76560, Note_on_c, 0, 43, 42
3, 76560, Note_on_c, 0, 46, 42
3, 76560, Note_on_c, 0, 48, 42
3, 76560, Note_on_c, 0, 52, 50
3, 76620, Note_on_c, 0, 52, 0
3, 76620, Note_on_c, 0, 46, 0
3, 76620, Note_on_c, 0, 41, 0
3, 76620, Note_on_c, 0, 43, 0
3, 76620, Note_on_c, 0, 48, 0
3, 76680, Note_on_c, 0, 41, 42
3, 76680, Note_on_c, 0, 43, 42
3, 76680, Note_on_c, 0, 46, 42
3, 76680, Note_on_c, 0, 48, 42
3, 76680, Note_on_c, 0, 52, 50
3, 76740, Note_on_c, 0, 52, 0
3, 76740, Note_on_c, 0, 46, 0
3, 76740, Note_on_c, 0, 41, 0
3, 76740, Note_on_c, 0, 43, 0
3, 76740, Note_on_c, 0, 48, 0
3, 76800, Note_on_c, 0, 41, 51
3, 76800, Note_on_c, 0, 53, 61
3, 77280, Note_on_c, 0, 53, 0
3, 77280, Note_on_c, 0, 41, 0
3, 77280, Note_on_c, 0, 44, 79
3, 77760, Note_on_c, 0, 44, 0
3, 77760, Note_on_c, 0, 43, 83
3, 78120, Note_on_c, 0, 43, 0
3, 78120, Note_on_c, 0, 44, 70
3, 78180, Note_on_c, 0, 44, 0
3, 78180, Note_on_c, 0, 46, 70
3, 78240, Note_on_c, 0, 46, 0
3, 78240, Note_on_c, 0, 38, 85
3, 78360, Note_on_c, 0, 38, 0
3, 78480, Note_on_c, 0, 40, 80
3, 78600, Note_on_c, 0, 40, 0
3, 78720, Note_on_c, 0, 41, 90
3, 78840, Note_on_c, 0, 41, 0
3, 79200, Note_on_c, 0, 49, 79
3, 79680, Note_on_c, 0, 49, 0
3, 79680, Note_on_c, 0, 48, 83
3, 80040, Note_on_c, 0, 48, 0
3, 80040, Note_on_c, 0, 49, 70
3, 80100, Note_on_c, 0, 49, 0
3, 80100, Note_on_c, 0, 51, 70
3, 80160, Note_on_c, 0, 51, 0
3, 80160, Note_on_c, 0, 43, 85
3, 80280, Note_on_c, 0, 43, 0
3, 80400, Note_on_c, 0, 45, 80
3, 80520, Note_on_c, 0, 45, 0
3, 80640, Note_on_c, 0, 46, 90
3, 80760, Note_on_c, 0, 46, 0
3, 82080, Note_on_c, 0, 53, 80
3, 82560, Note_on_c, 0, 53, 0
3, 82560, Note_on_c, 0, 46, 90
3, 82800, Note_on_c, 0, 46, 0
3, 84000, Note_on_c, 0, 58, 80
3, 84480, Note_on_c, 0, 58, 0
3, 84480, Note_on_c, 0, 51, 90
3, 84720, Note_on_c, 0, 51, 0
3, 84960, Note_on_c, 0, 58, 79
3, 84960, Note_on_c, 0, 54, 67
3, 85440, Note_on_c, 0, 54, 0
3, 85440, Note_on_c, 0, 58, 0
3, 85440, Note_on_c, 0, 56, 83
3, 85440, Note_on_c, 0, 53, 70
3, 85800, Note_on_c, 0, 53, 0
3, 85800, Note_on_c, 0, 56, 0
3, 85800, Note_on_c, 0, 54, 59
3, 85800, Note_on_c, 0, 58, 70
3, 85860, Note_on_c, 0, 56, 59
3, 85860, Note_on_c, 0, 59, 70
3, 85866, Note_on_c, 0, 58, 0
3, 85866, Note_on_c, 0, 54, 0
3, 85920, Note_on_c, 0, 48, 72
3, 85920, Note_on_c, 0, 51, 85
3, 85926, Note_on_c, 0, 56, 0
3, 85926, Note_on_c, 0, 59, 0
3, 86040, Note_on_c, 0, 48, 0
3, 86040, Note_on_c, 0, 51, 0
3, 86160, Note_on_c, 0, 50, 68
3, 86160, Note_on_c, 0, 53, 80
3, 86280, Note_on_c, 0, 53, 0
3, 86280, Note_on_c, 0, 50, 0
3, 86400, Note_on_c, 0, 54, 83
3, 86400, Note_on_c, 0, 51, 70
3, 86760, Note_on_c, 0, 51, 0
3, 86760, Note_on_c, 0, 54, 0
3, 86760, Note_on_c, 0, 53, 59
3, 86760, Note_on_c, 0, 56, 70
3, 86820, Note_on_c, 0, 54, 59
3, 86820, Note_on_c, 0, 58, 70
3, 86826, Note_on_c, 0, 56, 0
3, 86826, Note_on_c, 0, 53, 0
3, 86880, Note_on_c, 0, 46, 72
3, 86880, Note_on_c, 0, 49, 85
3, 86886, Note_on_c, 0, 54, 0
3, 86886, Note_on_c, 0, 58, 0
3, 87000, Note_on_c, 0, 46, 0
3, 87000, Note_on_c, 0, 49, 0
3, 87120, Note_on_c, 0, 48, 68
3, 87120, Note_on_c, 0, 51, 80
3, 87240, Note_on_c, 0, 51, 0
3, 87240, Note_on_c, 0, 48, 0
3, 87360, Note_on_c, 0, 49, 78
3, 87360, Note_on_c, 0, 53, 83
3, 87480, Note_on_c, 0, 53, 0
3, 87480, Note_on_c, 0, 49, 0
3, 87600, Note_on_c, 0, 56, 83
3, 87600, Note_on_c, 0, 53, 70
3, 88200, Note_on_c, 0, 53, 0
3, 88200, Note_on_c, 0, 56, 0
3, 88200, Note_on_c, 0, 51, 60
3, 88200, Note_on_c, 0, 54, 71
3, 88260, Note_on_c, 0, 49, 56
3, 88260, Note_on_c, 0, 53, 67
3, 88266, Note_on_c, 0, 54, 0
3, 88266, Note_on_c, 0, 51, 0
3, 88320, Note_on_c, 0, 48, 78
3, 88320, Note_on_c, 0, 51, 83
3, 88326, Note_on_c, 0, 49, 0
3, 88326, Note_on_c, 0, 53, 0
3, 88440, Note_on_c, 0, 48, 0
3, 88440, Note_on_c, 0, 51, 0
3, 88560, Note_on_c, 0, 66, 83
3, 88560, Note_on_c, 0, 63, 70
3, 89160, Note_on_c, 0, 63, 0
3, 89160, Note_on_c, 0, 66, 0
3, 89160, Note_on_c, 0, 61, 60
3, 89160, Note_on_c, 0, 65, 71
3, 89220, Note_on_c, 0, 60, 56
3, 89220, Note_on_c, 0, 63, 67
3, 89226, Note_on_c, 0, 65, 0
3, 89226, Note_on_c, 0, 61, 0
3, 89280, Note_on_c, 0, 61, 83
3, 89280, Note_on_c, 0, 58, 70
3, 89286, Note_on_c, 0, 60, 0
3, 89286, Note_on_c, 0, 63, 0
3, 89640, Note_on_c, 0, 61, 0
3, 89640, Note_on_c, 0, 58, 0
3, 89640, Note_on_c, 0, 56, 59
3, 89640, Note_on_c, 0, 60, 70
3, 89760, Note_on_c, 0, 60, 0
3, 89760, Note_on_c, 0, 56, 0
3, 89760, Note_on_c, 0, 58, 83
3, 89760, Note_on_c, 0, 54, 70
3, 90120, Note_on_c, 0, 54, 0
3, 90120, Note_on_c, 0, 58, 0
3, 90120, Note_on_c, 0, 53, 59
3, 90120, Note_on_c, 0, 56, 70
3, 90240, Note_on_c, 0, 56, 0
3, 90240, Note_on_c, 0, 53, 0
3, 90240, Note_on_c, 0, 54, 83
3, 90240, Note_on_c, 0, 51, 70
3, 90480, Note_on_c, 0, 54, 0
3, 90480, Note_on_c, 0, 63, 70
3, 90720, Note_on_c, 0, 63, 0
3, 90720, Note_on_c, 0, 51, 0
3, 90720, Note_on_c, 0, 53, 70
3, 90720, Note_on_c, 0, 61, 83
3, 90840, Note_on_c, 0, 61, 0
3, 90840, Note_on_c, 0, 53, 0
3, 90960, Note_on_c, 0, 60, 79
3, 90960, Note_on_c, 0, 53, 67
3, 91080, Note_on_c, 0, 53, 0
3, 91080, Note_on_c, 0, 60, 0
3, 91200, Note_on_c, 0, 46, 61
3, 91200, Note_on_c, 0, 58, 72
3, 91320, Note_on_c, 0, 58, 0
3, 91320, Note_on_c, 0, 46, 0
3, 91320, Note_on_c, 0, 45, 30
3, 91320, Note_on_c, 0, 48, 36
3, 91380, Note_on_c, 0, 48, 0
3, 91380, Note_on_c, 0, 45, 0
3, 91440, Note_on_c, 0, 46, 30
3, 91440, Note_on_c, 0, 49, 36
3, 91500, Note_on_c, 0, 49, 0
3, 91500, Note_on_c, 0, 46, 0
3, 91560, Note_on_c, 0, 48, 30
3, 91560, Note_on_c, 0, 51, 36
3, 91620, Note_on_c, 0, 51, 0
3, 91620, Note_on_c, 0, 48, 0
3, 91680, Note_on_c, 0, 49, 34
3, 91680, Note_on_c, 0, 53, 40
3, 91740, Note_on_c, 0, 53, 0
3, 91740, Note_on_c, 0, 49, 0
3, 91800, Note_on_c, 0, 51, 29
3, 91800, Note_on_c, 0, 54, 35
3, 91860, Note_on_c, 0, 54, 0
3, 91860, Note_on_c, 0, 51, 0
3, 91920, Note_on_c, 0, 49, 29
3, 91920, Note_on_c, 0, 53, 35
3, 91980, Note_on_c, 0, 53, 0
3, 91980, Note_on_c, 0, 49, 0
3, 92040, Note_on_c, 0, 48, 29
3, 92040, Note_on_c, 0, 51, 35
3, 92100, Note_on_c, 0, 51, 0
3, 92100, Note_on_c, 0, 48, 0
3, 92160, Note_on_c, 0, 46, 34
3, 92160, Note_on_c, 0, 49, 40
3, 92220, Note_on_c, 0, 49, 0
3, 92220, Note_on_c, 0, 46, 0
3, 92280, Note_on_c, 0, 50, 30
3, 92280, Note_on_c, 0, 53, 36
3, 92340, Note_on_c, 0, 53, 0
3, 92340, Note_on_c, 0, 50, 0
3, 92400, Note_on_c, 0, 51, 30
3, 92400, Note_on_c, 0, 54, 36
3, 92460, Note_on_c, 0, 54, 0
3, 92460, Note_on_c, 0, 51, 0
3, 92520, Note_on_c, 0, 56, 36
3, 92520, Note_on_c, 0, 53, 30
3, 92580, Note_on_c, 0, 53, 0
3, 92580, Note_on_c, 0, 56, 0
3, 92640, Note_on_c, 0, 58, 40
3, 92640, Note_on_c, 0, 54, 34
3, 92700, Note_on_c, 0, 54, 0
3, 92700, Note_on_c, 0, 58, 0
3, 92760, Note_on_c, 0, 56, 30
3, 92760, Note_on_c, 0, 59, 36
3, 92820, Note_on_c, 0, 59, 0
3, 92820, Note_on_c, 0, 56, 0
3, 92880, Note_on_c, 0, 54, 30
3, 92880, Note_on_c, 0, 58, 36
3, 92940, Note_on_c, 0, 58, 0
3, 92940, Note_on_c, 0, 54, 0
3, 93000, Note_on_c, 0, 53, 30
3, 93000, Note_on_c, 0, 56, 36
3, 93060, Note_on_c, 0, 56, 0
3, 93060, Note_on_c, 0, 53, 0
3, 93120, Note_on_c, 0, 51, 38
3, 93120, Note_on_c, 0, 54, 45
3, 93180, Note_on_c, 0, 54, 0
3, 93180, Note_on_c, 0, 51, 0
3, 93240, Note_on_c, 0, 51, 30
3, 93240, Note_on_c, 0, 54, 36
3, 93300, Note_on_c, 0, 54, 0
3, 93300, Note_on_c, 0, 51, 0
3, 93360, Note_on_c, 0, 52, 30
3, 93360, Note_on_c, 0, 55, 36
3, 93420, Note_on_c, 0, 55, 0
3, 93420, Note_on_c, 0, 52, 0
3, 93480, Note_on_c, 0, 52, 30
3, 93480, Note_on_c, 0, 55, 36
3, 93540, Note_on_c, 0, 55, 0
3, 93540, Note_on_c, 0, 52, 0
3, 93600, Note_on_c, 0, 53, 39
3, 93600, Note_on_c, 0, 58, 47
3, 93660, Note_on_c, 0, 58, 0
3, 93660, Note_on_c, 0, 53, 0
3, 93720, Note_on_c, 0, 53, 32
3, 93720, Note_on_c, 0, 58, 38
3, 93780, Note_on_c, 0, 58, 0
3, 93780, Note_on_c, 0, 53, 0
3, 93840, Note_on_c, 0, 53, 32
3, 93840, Note_on_c, 0, 60, 38
3, 93900, Note_on_c, 0, 60, 0
3, 93900, Note_on_c, 0, 53, 0
3, 93960, Note_on_c, 0, 53, 32
3, 93960, Note_on_c, 0, 60, 38
3, 94020, Note_on_c, 0, 60, 0
3, 94020, Note_on_c, 0, 53, 0
3, 94080, Note_on_c, 0, 46, 58
3, 94080, Note_on_c, 0, 58, 69
3, 94200, Note_on_c, 0, 58, 0
3, 94200, Note_on_c, 0, 46, 0
3, 94200, Note_on_c, 0, 45, 40
3, 94200, Note_on_c, 0, 57, 48
3, 94260, Note_on_c, 0, 57, 0
3, 94260, Note_on_c, 0, 45, 0
3, 94320, Note_on_c, 0, 46, 40
3, 94320, Note_on_c, 0, 58, 48
3, 94380, Note_on_c, 0, 58, 0
3, 94380, Note_on_c, 0, 46, 0
3, 94440, Note_on_c, 0, 48, 40
3, 94440, Note_on_c, 0, 60, 50
3, 94500, Note_on_c, 0, 60, 0
3, 94500, Note_on_c, 0, 48, 0
3, 94560, Note_on_c, 0, 49, 48
3, 94560, Note_on_c, 0, 61, 57
3, 94620, Note_on_c, 0, 61, 0
3, 94620, Note_on_c, 0, 49, 0
3, 94680, Note_on_c, 0, 51, 43
3, 94680, Note_on_c, 0, 63, 51
3, 94740, Note_on_c, 0, 63, 0
3, 94740, Note_on_c, 0, 51, 0
3, 94800, Note_on_c, 0, 49, 43
3, 94800, Note_on_c, 0, 61, 53
3, 94860, Note_on_c, 0, 61, 0
3, 94860, Note_on_c, 0, 49, 0
3, 94920, Note_on_c, 0, 48, 43
3, 94920, Note_on_c, 0, 60, 54
3, 94980, Note_on_c, 0, 60, 0
3, 94980, Note_on_c, 0, 48, 0
3, 95040, Note_on_c, 0, 46, 54
3, 95040, Note_on_c, 0, 58, 64
3, 95100, Note_on_c, 0, 58, 0
3, 95100, Note_on_c, 0, 46, 0
3, 95160, Note_on_c, 0, 50, 48
3, 95160, Note_on_c, 0, 62, 58
3, 95220, Note_on_c, 0, 62, 0
3, 95220, Note_on_c, 0, 50, 0
3, 95280, Note_on_c, 0, 51, 50
3, 95280, Note_on_c, 0, 63, 59
3, 95340, Note_on_c, 0, 63, 0
3, 95340, Note_on_c, 0, 51, 0
3, 95400, Note_on_c, 0, 65, 62
3, 95400, Note_on_c, 0, 53, 50
3, 95460, Note_on_c, 0, 53, 0
3, 95460, Note_on_c, 0, 65, 0
3, 95520, Note_on_c, 0, 66, 70
3, 95520, Note_on_c, 0, 54, 58
3, 95580, Note_on_c, 0, 54, 0
3, 95580, Note_on_c, 0, 66, 0
3, 95640, Note_on_c, 0, 56, 53
3, 95640, Note_on_c, 0, 68, 66
3, 95700, Note_on_c, 0, 68, 0
3, 95700, Note_on_c, 0, 56, 0
3, 95760, Note_on_c, 0, 54, 53
3, 95760, Note_on_c, 0, 66, 66
3, 95820, Note_on_c, 0, 66, 0
3, 95820, Note_on_c, 0, 54, 0
3, 95880, Note_on_c, 0, 53, 57
3, 95880, Note_on_c, 0, 65, 69
3, 95940, Note_on_c, 0, 65, 0
3, 95940, Note_on_c, 0, 53, 0
3, 96000, Note_on_c, 0, 51, 74
3, 96000, Note_on_c, 0, 63, 88
3, 96060, Note_on_c, 0, 63, 0
3, 96060, Note_on_c, 0, 51, 0
3, 96120, Note_on_c, 0, 63, 58
3, 96120, Note_on_c, 0, 66, 69
3, 96180, Note_on_c, 0, 66, 0
3, 96180, Note_on_c, 0, 63, 0
3, 96240, Note_on_c, 0, 64, 60
3, 96240, Note_on_c, 0, 67, 72
3, 96300, Note_on_c, 0, 67, 0
3, 96300, Note_on_c, 0, 64, 0
3, 96360, Note_on_c, 0, 64, 60
3, 96360, Note_on_c, 0, 67, 72
3, 96420, Note_on_c, 0, 67, 0
3, 96420, Note_on_c, 0, 64, 0
3, 96480, Note_on_c, 0, 65, 73
3, 96480, Note_on_c, 0, 70, 90
3, 96540, Note_on_c, 0, 70, 0
3, 96540, Note_on_c, 0, 65, 0
3, 96600, Note_on_c, 0, 65, 68
3, 96600, Note_on_c, 0, 70, 81
3, 96660, Note_on_c, 0, 70, 0
3, 96660, Note_on_c, 0, 65, 0
3, 96720, Note_on_c, 0, 65, 70
3, 96720, Note_on_c, 0, 72, 85
3, 96780, Note_on_c, 0, 72, 0
3, 96780, Note_on_c, 0, 65, 0
3, 96840, Note_on_c, 0, 65, 71
3, 96840, Note_on_c, 0, 72, 86
3, 96900, Note_on_c, 0, 72, 0
3, 96900, Note_on_c, 0, 65, 0
3, 96960, Note_on_c, 0, 58, 66
3, 96960, Note_on_c, 0, 61, 66
3, 96960, Note_on_c, 0, 65, 66
3, 96960, Note_on_c, 0, 70, 78
3, 97020, Note_on_c, 0, 70, 0
3, 97020, Note_on_c, 0, 58, 0
3, 97020, Note_on_c, 0, 61, 0
3, 97020, Note_on_c, 0, 65, 0
3, 97080, Note_on_c, 0, 58, 55
3, 97080, Note_on_c, 0, 61, 55
3, 97080, Note_on_c, 0, 65, 55
3, 97080, Note_on_c, 0, 70, 66
3, 97140, Note_on_c, 0, 70, 0
3, 97140, Note_on_c, 0, 58, 0
3, 97140, Note_on_c, 0, 61, 0
3, 97140, Note_on_c, 0, 65, 0
3, 97200, Note_on_c, 0, 58, 49
3, 97200, Note_on_c, 0, 61, 49
3, 97200, Note_on_c, 0, 65, 49
3, 97200, Note_on_c, 0, 70, 58
3, 97260, Note_on_c, 0, 70, 0
3, 97260, Note_on_c, 0, 58, 0
3, 97260, Note_on_c, 0, 61, 0
3, 97260, Note_on_c, 0, 65, 0
3, 97320, Note_on_c, 0, 58, 49
3, 97320, Note_on_c, 0, 61, 49
3, 97320, Note_on_c, 0, 65, 49
3, 97320, Note_on_c, 0, 70, 58
3, 97380, Note_on_c, 0, 70, 0
3, 97380, Note_on_c, 0, 58, 0
3, 97380, Note_on_c, 0, 61, 0
3, 97380, Note_on_c, 0, 65, 0
3, 97440, Note_on_c, 0, 58, 51
3, 97440, Note_on_c, 0, 60, 51
3, 97440, Note_on_c, 0, 63, 51
3, 97440, Note_on_c, 0, 65, 51
3, 97440, Note_on_c, 0, 69, 61
3, 97500, Note_on_c, 0, 69, 0
3, 97500, Note_on_c, 0, 63, 0
3, 97500, Note_on_c, 0, 58, 0
3, 97500, Note_on_c, 0, 60, 0
3, 97500, Note_on_c, 0, 65, 0
3, 97560, Note_on_c, 0, 58, 44
3, 97560, Note_on_c, 0, 60, 44
3, 97560, Note_on_c, 0, 63, 44
3, 97560, Note_on_c, 0, 65, 44
3, 97560, Note_on_c, 0, 69, 52
3, 97620, Note_on_c, 0, 69, 0
3, 97620, Note_on_c, 0, 63, 0
3, 97620, Note_on_c, 0, 58, 0
3, 97620, Note_on_c, 0, 60, 0
3, 97620, Note_on_c, 0, 65, 0
3, 97680, Note_on_c, 0, 58, 44
3, 97680, Note_on_c, 0, 60, 44
3, 97680, Note_on_c, 0, 63, 44
3, 97680, Note_on_c, 0, 65, 44
3, 97680, Note_on_c, 0, 69, 52
3, 97740, Note_on_c, 0, 69, 0
3, 97740, Note_on_c, 0, 63, 0
3, 97740, Note_on_c, 0, 58, 0
3, 97740, Note_on_c, 0, 60, 0
3, 97740, Note_on_c, 0, 65, 0
3, 97800, Note_on_c, 0, 58, 44
3, 97800, Note_on_c, 0, 60, 44
3, 97800, Note_on_c, 0, 63, 44
3, 97800, Note_on_c, 0, 65, 44
3, 97800, Note_on_c, 0, 69, 52
3, 97860, Note_on_c, 0, 69, 0
3, 97860, Note_on_c, 0, 63, 0
3, 97860, Note_on_c, 0, 58, 0
3, 97860, Note_on_c, 0, 60, 0
3, 97860, Note_on_c, 0, 65, 0
3, 97920, Note_on_c, 0, 46, 55
3, 97920, Note_on_c, 0, 49, 55
3, 97920, Note_on_c, 0, 53, 55
3, 97920, Note_on_c, 0, 58, 66
3, 97980, Note_on_c, 0, 58, 0
3, 97980, Note_on_c, 0, 46, 0
3, 97980, Note_on_c, 0, 49, 0
3, 97980, Note_on_c, 0, 53, 0
3, 98040, Note_on_c, 0, 46, 55
3, 98040, Note_on_c, 0, 49, 55
3, 98040, Note_on_c, 0, 53, 55
3, 98040, Note_on_c, 0, 58, 66
3, 98100, Note_on_c, 0, 58, 0
3, 98100, Note_on_c, 0, 46, 0
3, 98100, Note_on_c, 0, 49, 0
3, 98100, Note_on_c, 0, 53, 0
3, 98160, Note_on_c, 0, 46, 49
3, 98160, Note_on_c, 0, 49, 49
3, 98160, Note_on_c, 0, 53, 49
3, 98160, Note_on_c, 0, 58, 58
3, 98220, Note_on_c, 0, 58, 0
3, 98220, Note_on_c, 0, 46, 0
3, 98220, Note_on_c, 0, 49, 0
3, 98220, Note_on_c, 0, 53, 0
3, 98280, Note_on_c, 0, 46, 49
3, 98280, Note_on_c, 0, 49, 49
3, 98280, Note_on_c, 0, 53, 49
3, 98280, Note_on_c, 0, 58, 58
3, 98340, Note_on_c, 0, 58, 0
3, 98340, Note_on_c, 0, 46, 0
3, 98340, Note_on_c, 0, 49, 0
3, 98340, Note_on_c, 0, 53, 0
3, 98400, Note_on_c, 0, 46, 51
3, 98400, Note_on_c, 0, 48, 51
3, 98400, Note_on_c, 0, 51, 51
3, 98400, Note_on_c, 0, 53, 51
3, 98400, Note_on_c, 0, 57, 61
3, 98460, Note_on_c, 0, 57, 0
3, 98460, Note_on_c, 0, 51, 0
3, 98460, Note_on_c, 0, 46, 0
3, 98460, Note_on_c, 0, 48, 0
3, 98460, Note_on_c, 0, 53, 0
3, 98520, Note_on_c, 0, 46, 44
3, 98520, Note_on_c, 0, 48, 44
3, 98520, Note_on_c, 0, 51, 44
3, 98520, Note_on_c, 0, 53, 44
3, 98520, Note_on_c, 0, 57, 52
3, 98580, Note_on_c, 0, 57, 0
3, 98580, Note_on_c, 0, 51, 0
3, 98580, Note_on_c, 0, 46, 0
3, 98580, Note_on_c, 0, 48, 0
3, 98580, Note_on_c, 0, 53, 0
3, 98640, Note_on_c, 0, 46, 44
3, 98640, Note_on_c, 0, 48, 44
3, 98640, Note_on_c, 0, 51, 44
3, 98640, Note_on_c, 0, 53, 44
3, 98640, Note_on_c, 0, 57, 52
3, 98700, Note_on_c, 0, 57, 0
3, 98700, Note_on_c, 0, 51, 0
3, 98700, Note_on_c, 0, 46, 0
3, 98700, Note_on_c, 0, 48, 0
3, 98700, Note_on_c, 0, 53, 0
3, 98760, Note_on_c, 0, 46, 44
3, 98760, Note_on_c, 0, 48, 44
3, 98760, Note_on_c, 0, 51, 44
3, 98760, Note_on_c, 0, 53, 44
3, 98760, Note_on_c, 0, 57, 52
3, 98820, Note_on_c, 0, 57, 0
3, 98820, Note_on_c, 0, 51, 0
3, 98820, Note_on_c, 0, 46, 0
3, 98820, Note_on_c, 0, 48, 0
3, 98820, Note_on_c, 0, 53, 0
3, 98880, Note_on_c, 0, 46, 64
3, 99480, Note_on_c, 0, 46, 0
3, 99480, Note_on_c, 0, 49, 45
3, 99600, Note_on_c, 0, 51, 50
3, 99612, Note_on_c, 0, 49, 0
3, 99720, Note_on_c, 0, 49, 46
3, 99732, Note_on_c, 0, 51, 0
3, 99840, Note_on_c, 0, 47, 50
3, 99852, Note_on_c, 0, 49, 0
3, 99960, Note_on_c, 0, 46, 46
3, 99972, Note_on_c, 0, 47, 0
3, 100080, Note_on_c, 0, 44, 46
3, 100092, Note_on_c, 0, 46, 0
3, 100200, Note_on_c, 0, 42, 46
3, 100212, Note_on_c, 0, 44, 0
3, 100320, Note_on_c, 0, 41, 50
3, 100332, Note_on_c, 0, 42, 0
3, 100560, Note_on_c, 0, 41, 0
3, 100560, Note_on_c, 0, 42, 47
3, 100800, Note_on_c, 0, 42, 0
3, 100800, Note_on_c, 0, 43, 53
3, 101040, Note_on_c, 0, 43, 0
3, 101040, Note_on_c, 0, 44, 49
3, 101400, Note_on_c, 0, 44, 0
3, 101400, Note_on_c, 0, 51, 45
3, 101520, Note_on_c, 0, 52, 50
3, 101532, Note_on_c, 0, 51, 0
3, 101640, Note_on_c, 0, 51, 46
3, 101652, Note_on_c, 0, 52, 0
3, 101760, Note_on_c, 0, 49, 50
3, 101772, Note_on_c, 0, 51, 0
3, 101880, Note_on_c, 0, 47, 41
3, 101892, Note_on_c, 0, 49, 0
3, 102000, Note_on_c, 0, 46, 46
3, 102012, Note_on_c, 0, 47, 0
3, 102120, Note_on_c, 0, 44, 40
3, 102132, Note_on_c, 0, 46, 0
3, 102240, Note_on_c, 0, 43, 48
3, 102252, Note_on_c, 0, 44, 0
3, 102480, Note_on_c, 0, 43, 0
3, 102480, Note_on_c, 0, 44, 40
3, 102720, Note_on_c, 0, 44, 0
3, 102720, Note_on_c, 0, 45, 45
3, 103680, Note_on_c, 0, 45, 0
3, 103680, Note_on_c, 0, 46, 45
3, 104640, Note_on_c, 0, 46, 0
3, 104640, Note_on_c, 0, 45, 45
3, 104880, Note_on_c, 0, 45, 0
3, 107520, Note_on_c, 0, 55, 35
3, 107520, Note_on_c, 0, 63, 42
3, 107640, Note_on_c, 0, 63, 0
3, 107640, Note_on_c, 0, 55, 0
3, 107640, Note_on_c, 0, 53, 33
3, 107640, Note_on_c, 0, 62, 39
3, 107760, Note_on_c, 0, 62, 0
3, 107760, Note_on_c, 0, 53, 0
3, 107760, Note_on_c, 0, 51, 33
3, 107760, Note_on_c, 0, 60, 39
3, 107880, Note_on_c, 0, 60, 0
3, 107880, Note_on_c, 0, 51, 0
3, 107880, Note_on_c, 0, 50, 33
3, 107880, Note_on_c, 0, 58, 39
3, 108000, Note_on_c, 0, 58, 0
3, 108000, Note_on_c, 0, 50, 0
3, 108000, Note_on_c, 0, 48, 35
3, 108000, Note_on_c, 0, 57, 35
3, 108240, Note_on_c, 0, 57, 0
3, 108240, Note_on_c, 0, 48, 0
3, 108240, Note_on_c, 0, 50, 33
3, 108240, Note_on_c, 0, 58, 39
3, 108480, Note_on_c, 0, 58, 0
3, 108480, Note_on_c, 0, 50, 0
3, 108480, Note_on_c, 0, 56, 38
3, 108480, Note_on_c, 0, 59, 45
3, 108720, Note_on_c, 0, 59, 0
3, 108720, Note_on_c, 0, 56, 0
3, 108720, Note_on_c, 0, 57, 34
3, 108720, Note_on_c, 0, 60, 41
3, 109080, Note_on_c, 0, 60, 0
3, 109080, Note_on_c, 0, 57, 0
3, 109080, Note_on_c, 0, 66, 38
3, 109200, Note_on_c, 0, 66, 0
3, 109200, Note_on_c, 0, 69, 42
3, 109320, Note_on_c, 0, 69, 0
3, 109320, Note_on_c, 0, 67, 39
3, 109440, Note_on_c, 0, 67, 0
3, 109440, Note_on_c, 0, 65, 42
3, 109550, Note_on_c, 0, 65, 0
3, 109560, Note_on_c, 0, 55, 33
3, 109560, Note_on_c, 0, 63, 39
3, 109680, Note_on_c, 0, 63, 0
3, 109680, Note_on_c, 0, 55, 0
3, 109680, Note_on_c, 0, 53, 33
3, 109680, Note_on_c, 0, 62, 39
3, 109800, Note_on_c, 0, 62, 0
3, 109800, Note_on_c, 0, 53, 0
3, 109800, Note_on_c, 0, 51, 33
3, 109800, Note_on_c, 0, 60, 39
3, 109920, Note_on_c, 0, 60, 0
3, 109920, Note_on_c, 0, 51, 0
3, 109920, Note_on_c, 0, 50, 35
3, 109920, Note_on_c, 0, 58, 42
3, 110160, Note_on_c, 0, 58, 0
3, 110160, Note_on_c, 0, 50, 0
3, 110160, Note_on_c, 0, 57, 33
3, 110160, Note_on_c, 0, 60, 39
3, 110400, Note_on_c, 0, 60, 0
3, 110400, Note_on_c, 0, 57, 0
3, 110400, Note_on_c, 0, 57, 38
3, 110400, Note_on_c, 0, 61, 45
3, 110640, Note_on_c, 0, 61, 0
3, 110640, Note_on_c, 0, 57, 0
3, 110640, Note_on_c, 0, 58, 34
3, 110640, Note_on_c, 0, 62, 41
3, 111000, Note_on_c, 0, 62, 0
3, 111000, Note_on_c, 0, 58, 0
3, 111000, Note_on_c, 0, 65, 43
3, 111120, Note_on_c, 0, 65, 0
3, 111120, Note_on_c, 0, 59, 34
3, 111120, Note_on_c, 0, 67, 49
3, 111240, Note_on_c, 0, 67, 0
3, 111240, Note_on_c, 0, 62, 44
3, 111360, Note_on_c, 0, 62, 0
3, 111360, Note_on_c, 0, 59, 0
3, 111360, Note_on_c, 0, 60, 37
3, 111360, Note_on_c, 0, 65, 51
3, 111480, Note_on_c, 0, 65, 0
3, 111480, Note_on_c, 0, 63, 48
3, 111600, Note_on_c, 0, 63, 0
3, 111600, Note_on_c, 0, 60, 0
3, 111600, Note_on_c, 0, 57, 37
3, 111600, Note_on_c, 0, 65, 53
3, 111720, Note_on_c, 0, 65, 0
3, 111720, Note_on_c, 0, 60, 48
3, 111840, Note_on_c, 0, 60, 0
3, 111840, Note_on_c, 0, 57, 0
3, 111840, Note_on_c, 0, 58, 38
3, 111840, Note_on_c, 0, 63, 53
3, 111960, Note_on_c, 0, 63, 0
3, 111960, Note_on_c, 0, 62, 49
3, 112080, Note_on_c, 0, 62, 0
3, 112080, Note_on_c, 0, 58, 0
3, 112080, Note_on_c, 0, 59, 38
3, 112080, Note_on_c, 0, 67, 56
3, 112200, Note_on_c, 0, 67, 0
3, 112200, Note_on_c, 0, 62, 50
3, 112320, Note_on_c, 0, 62, 0
3, 112320, Note_on_c, 0, 59, 0
3, 112320, Note_on_c, 0, 60, 39
3, 112320, Note_on_c, 0, 65, 59
3, 112440, Note_on_c, 0, 65, 0
3, 112440, Note_on_c, 0, 63, 54
3, 112560, Note_on_c, 0, 63, 0
3, 112560, Note_on_c, 0, 60, 0
3, 112560, Note_on_c, 0, 57, 39
3, 112560, Note_on_c, 0, 65, 60
3, 112680, Note_on_c, 0, 65, 0
3, 112680, Note_on_c, 0, 60, 52
3, 112800, Note_on_c, 0, 60, 0
3, 112800, Note_on_c, 0, 57, 0
3, 112800, Note_on_c, 0, 58, 50
3, 112800, Note_on_c, 0, 63, 59
3, 112920, Note_on_c, 0, 63, 0
3, 112920, Note_on_c, 0, 62, 53
3, 113040, Note_on_c, 0, 58, 0
3, 113040, Note_on_c, 0, 57, 47
3, 113160, Note_on_c, 0, 62, 0
3, 113160, Note_on_c, 0, 60, 60
3, 113280, Note_on_c, 0, 57, 0
3, 113280, Note_on_c, 0, 55, 66
3, 113520, Note_on_c, 0, 60, 0
3, 113520, Note_on_c, 0, 58, 60
3, 113760, Note_on_c, 0, 55, 0
3, 113760, Note_on_c, 0, 48, 62
3, 114000, Note_on_c, 0, 58, 0
3, 114000, Note_on_c, 0, 58, 58
3, 114240, Note_on_c, 0, 48, 0
3, 114240, Note_on_c, 0, 53, 58
3, 114480, Note_on_c, 0, 58, 0
3, 114480, Note_on_c, 0, 57, 47
3, 114720, Note_on_c, 0, 57, 0
3, 114720, Note_on_c, 0, 53, 0
3, 115200, Note_on_c, 0, 46, 42
3, 115320, Note_on_c, 0, 53, 34
3, 115440, Note_on_c, 0, 53, 0
3, 115440, Note_on_c, 0, 46, 0
3, 115440, Note_on_c, 0, 50, 38
3, 115560, Note_on_c, 0, 53, 34
3, 115680, Note_on_c, 0, 53, 0
3, 115680, Note_on_c, 0, 50, 0
3, 115680, Note_on_c, 0, 51, 38
3, 115680, Note_on_c, 0, 48, 38
3, 115800, Note_on_c, 0, 51, 0
3, 115800, Note_on_c, 0, 53, 34
3, 115920, Note_on_c, 0, 53, 0
3, 115920, Note_on_c, 0, 48, 0
3, 115920, Note_on_c, 0, 50, 37
3, 115920, Note_on_c, 0, 46, 37
3, 116040, Note_on_c, 0, 50, 0
3, 116040, Note_on_c, 0, 53, 34
3, 116160, Note_on_c, 0, 53, 0
3, 116160, Note_on_c, 0, 46, 0
3, 116160, Note_on_c, 0, 45, 43
3, 116160, Note_on_c, 0, 51, 43
3, 116280, Note_on_c, 0, 53, 34
3, 116340, Note_on_c, 0, 53, 0
3, 116400, Note_on_c, 0, 53, 34
3, 116460, Note_on_c, 0, 53, 0
3, 116520, Note_on_c, 0, 53, 34
3, 116580, Note_on_c, 0, 53, 0
3, 116640, Note_on_c, 0, 53, 37
3, 116700, Note_on_c, 0, 53, 0
3, 116760, Note_on_c, 0, 53, 34
3, 116820, Note_on_c, 0, 53, 0
3, 116880, Note_on_c, 0, 53, 34
3, 116940, Note_on_c, 0, 53, 0
3, 117000, Note_on_c, 0, 53, 34
3, 117060, Note_on_c, 0, 53, 0
3, 117120, Note_on_c, 0, 51, 0
3, 117120, Note_on_c, 0, 45, 0
3, 117120, Note_on_c, 0, 45, 42
3, 117240, Note_on_c, 0, 53, 34
3, 117360, Note_on_c, 0, 53, 0
3, 117360, Note_on_c, 0, 45, 0
3, 117360, Note_on_c, 0, 51, 38
3, 117480, Note_on_c, 0, 53, 34
3, 117600, Note_on_c, 0, 53, 0
3, 117600, Note_on_c, 0, 51, 0
3, 117600, Note_on_c, 0, 50, 38
3, 117720, Note_on_c, 0, 53, 34
3, 117840, Note_on_c, 0, 53, 0
3, 117840, Note_on_c, 0, 50, 0
3, 117840, Note_on_c, 0, 45, 37
3, 117960, Note_on_c, 0, 53, 34
3, 118080, Note_on_c, 0, 53, 0
3, 118080, Note_on_c, 0, 45, 0
3, 118080, Note_on_c, 0, 46, 43
3, 118200, Note_on_c, 0, 53, 34
3, 118260, Note_on_c, 0, 53, 0
3, 118320, Note_on_c, 0, 53, 34
3, 118380, Note_on_c, 0, 53, 0
3, 118440, Note_on_c, 0, 53, 34
3, 118500, Note_on_c, 0, 53, 0
3, 118560, Note_on_c, 0, 53, 40
3, 118620, Note_on_c, 0, 53, 0
3, 118680, Note_on_c, 0, 53, 37
3, 118740, Note_on_c, 0, 53, 0
3, 118800, Note_on_c, 0, 46, 0
3, 118800, Note_on_c, 0, 53, 37
3, 118800, Note_on_c, 0, 47, 37
3, 118860, Note_on_c, 0, 53, 0
3, 118920, Note_on_c, 0, 53, 37
3, 118980, Note_on_c, 0, 53, 0
3, 119040, Note_on_c, 0, 47, 0
3, 119040, Note_on_c, 0, 48, 47
3, 119160, Note_on_c, 0, 53, 38
3, 119280, Note_on_c, 0, 53, 0
3, 119280, Note_on_c, 0, 48, 0
3, 119280, Note_on_c, 0, 45, 42
3, 119400, Note_on_c, 0, 53, 38
3, 119520, Note_on_c, 0, 53, 0
3, 119520, Note_on_c, 0, 45, 0
3, 119520, Note_on_c, 0, 46, 47
3, 119640, Note_on_c, 0, 53, 38
3, 119760, Note_on_c, 0, 53, 0
3, 119760, Note_on_c, 0, 46, 0
3, 119760, Note_on_c, 0, 47, 43
3, 119880, Note_on_c, 0, 53, 39
3, 120000, Note_on_c, 0, 53, 0
3, 120000, Note_on_c, 0, 47, 0
3, 120000, Note_on_c, 0, 48, 54
3, 120120, Note_on_c, 0, 53, 39
3, 120240, Note_on_c, 0, 53, 0
3, 120240, Note_on_c, 0, 48, 0
3, 120240, Note_on_c, 0, 45, 49
3, 120360, Note_on_c, 0, 53, 39
3, 120480, Note_on_c, 0, 53, 0
3, 120480, Note_on_c, 0, 45, 0
3, 120480, Note_on_c, 0, 46, 56
3, 120600, Note_on_c, 0, 53, 41
3, 120720, Note_on_c, 0, 53, 0
3, 120720, Note_on_c, 0, 46, 0
3, 120720, Note_on_c, 0, 44, 51
3, 120840, Note_on_c, 0, 46, 45
3, 120960, Note_on_c, 0, 46, 0
3, 120960, Note_on_c, 0, 44, 0
3, 120960, Note_on_c, 0, 43, 62
3, 121080, Note_on_c, 0, 46, 51
3, 121190, Note_on_c, 0, 43, 0
3, 121200, Note_on_c, 0, 46, 0
3, 121200, Note_on_c, 0, 39, 58
3, 121320, Note_on_c, 0, 51, 51
3, 121440, Note_on_c, 0, 51, 0
3, 121440, Note_on_c, 0, 39, 0
3, 121440, Note_on_c, 0, 41, 56
3, 121560, Note_on_c, 0, 50, 42
3, 121670, Note_on_c, 0, 41, 0
3, 121680, Note_on_c, 0, 50, 0
3, 121680, Note_on_c, 0, 41, 49
3, 121800, Note_on_c, 0, 45, 43
3, 121920, Note_on_c, 0, 45, 0
3, 121920, Note_on_c, 0, 41, 0
3, 121920, Note_on_c, 0, 34, 43
3, 122040, Note_on_c, 0, 34, 0
3, 122040, Note_on_c, 0, 46, 29
3, 122160, Note_on_c, 0, 58, 35
3, 122220, Note_on_c, 0, 58, 0
3, 122280, Note_on_c, 0, 58, 29
3, 122340, Note_on_c, 0, 58, 0
3, 122400, Note_on_c, 0, 58, 37
3, 122460, Note_on_c, 0, 58, 0
3, 122520, Note_on_c, 0, 58, 35
3, 122580, Note_on_c, 0, 58, 0
3, 122640, Note_on_c, 0, 46, 0
3, 122640, Note_on_c, 0, 56, 43
3, 122760, Note_on_c, 0, 58, 39
3, 122880, Note_on_c, 0, 58, 0
3, 122880, Note_on_c, 0, 56, 0
3, 122880, Note_on_c, 0, 55, 52
3, 123000, Note_on_c, 0, 58, 46
3, 123120, Note_on_c, 0, 58, 0
3, 123120, Note_on_c, 0, 55, 0
3, 123120, Note_on_c, 0, 51, 56
3, 123240, Note_on_c, 0, 63, 50
3, 123360, Note_on_c, 0, 63, 0
3, 123360, Note_on_c, 0, 51, 0
3, 123360, Note_on_c, 0, 53, 35
3, 123480, Note_on_c, 0, 62, 29
3, 123590, Note_on_c, 0, 53, 0
3, 123600, Note_on_c, 0, 62, 0
3, 123600, Note_on_c, 0, 53, 35
3, 123720, Note_on_c, 0, 57, 29
3, 123840, Note_on_c, 0, 57, 0
3, 123840, Note_on_c, 0, 53, 0
3, 123840, Note_on_c, 0, 46, 33
3, 123840, Note_on_c, 0, 58, 39
3, 124080, Note_on_c, 0, 58, 0
3, 124080, Note_on_c, 0, 46, 0
3, 124320, Note_on_c, 0, 58, 50
3, 124320, Note_on_c, 0, 62, 60
3, 124800, Note_on_c, 0, 62, 0
3, 124800, Note_on_c, 0, 58, 0
3, 124800, Note_on_c, 0, 51, 38
3, 124800, Note_on_c, 0, 60, 45
3, 125520, Note_on_c, 0, 60, 0
3, 125520, Note_on_c, 0, 51, 0
3, 125520, Note_on_c, 0, 53, 34
3, 125520, Note_on_c, 0, 60, 41
3, 125760, Note_on_c, 0, 60, 0
3, 125760, Note_on_c, 0, 53, 0
3, 125760, Note_on_c, 0, 46, 42
3, 125760, Note_on_c, 0, 58, 50
3, 126230, Note_on_c, 0, 58, 0
3, 126230, Note_on_c, 0, 46, 0
3, 126240, Note_on_c, 0, 58, 50
3, 126240, Note_on_c, 0, 62, 60
3, 126720, Note_on_c, 0, 62, 0
3, 126720, Note_on_c, 0, 58, 0
3, 126720, Note_on_c, 0, 52, 41
3, 126720, Note_on_c, 0, 55, 41
3, 127200, Note_on_c, 0, 55, 0
3, 127200, Note_on_c, 0, 52, 0
3, 127200, Note_on_c, 0, 48, 41
3, 127200, Note_on_c, 0, 60, 41
3, 127680, Note_on_c, 0, 60, 0
3, 127680, Note_on_c, 0, 48, 0
3, 127680, Note_on_c, 0, 53, 42
3, 127680, Note_on_c, 0, 60, 50
3, 128160, Note_on_c, 0, 60, 0
3, 128160, Note_on_c, 0, 53, 0
3, 128160, Note_on_c, 0, 58, 50
3, 128160, Note_on_c, 0, 62, 60
3, 128640, Note_on_c, 0, 62, 0
3, 128640, Note_on_c, 0, 58, 0
3, 128640, Note_on_c, 0, 57, 41
3, 128640, Note_on_c, 0, 60, 41
3, 129120, Note_on_c, 0, 60, 0
3, 129120, Note_on_c, 0, 57, 0
3, 129120, Note_on_c, 0, 53, 41
3, 129120, Note_on_c, 0, 65, 41
3, 129600, Note_on_c, 0, 65, 0
3, 129600, Note_on_c, 0, 53, 0
3, 129600, Note_on_c, 0, 58, 42
3, 129600, Note_on_c, 0, 65, 50
3, 130070, Note_on_c, 0, 65, 0
3, 130070, Note_on_c, 0, 58, 0
3, 130080, Note_on_c, 0, 50, 62
3, 130140, Note_on_c, 0, 58, 52
3, 130200, Note_on_c, 0, 62, 54
3, 130560, Note_on_c, 0, 62, 0
3, 130560, Note_on_c, 0, 58, 0
3, 130560, Note_on_c, 0, 50, 0
3, 130560, Note_on_c, 0, 51, 69
3, 130620, Note_on_c, 0, 58, 58
3, 130680, Note_on_c, 0, 62, 60
3, 131040, Note_on_c, 0, 62, 0
3, 131040, Note_on_c, 0, 58, 0
3, 131040, Note_on_c, 0, 51, 0
3, 131040, Note_on_c, 0, 53, 73
3, 131100, Note_on_c, 0, 58, 61
3, 131160, Note_on_c, 0, 62, 64
3, 131520, Note_on_c, 0, 62, 0
3, 131520, Note_on_c, 0, 58, 0
3, 131520, Note_on_c, 0, 53, 0
3, 131520, Note_on_c, 0, 55, 77
3, 131580, Note_on_c, 0, 58, 64
3, 131640, Note_on_c, 0, 62, 68
3, 132000, Note_on_c, 0, 62, 0
3, 132000, Note_on_c, 0, 58, 0
3, 132000, Note_on_c, 0, 55, 0
3, 132000, Note_on_c, 0, 62, 58
3, 132000, Note_on_c, 0, 65, 58
3, 132000, Note_on_c, 0, 70, 69
3, 132230, Note_on_c, 0, 70, 0
3, 132240, Note_on_c, 0, 65, 0
3, 132240, Note_on_c, 0, 62, 0
3, 132240, Note_on_c, 0, 64, 58
3, 132240, Note_on_c, 0, 67, 58
3, 132240, Note_on_c, 0, 70, 64
3, 132480, Note_on_c, 0, 67, 0
3, 132480, Note_on_c, 0, 64, 0
3, 132480, Note_on_c, 0, 65, 59
3, 132720, Note_on_c, 0, 70, 0
3, 132720, Note_on_c, 0, 69, 63
3, 132840, Note_on_c, 0, 69, 0
3, 132960, Note_on_c, 0, 65, 0
3, 132960, Note_on_c, 0, 58, 58
3, 132960, Note_on_c, 0, 62, 58
3, 132960, Note_on_c, 0, 67, 69
3, 133190, Note_on_c, 0, 67, 0
3, 133200, Note_on_c, 0, 62, 0
3, 133200, Note_on_c, 0, 58, 0
3, 133200, Note_on_c, 0, 61, 55
3, 133200, Note_on_c, 0, 64, 55
3, 133200, Note_on_c, 0, 67, 64
3, 133440, Note_on_c, 0, 61, 0
3, 133440, Note_on_c, 0, 62, 59
3, 133680, Note_on_c, 0, 67, 0
3, 133680, Note_on_c, 0, 64, 0
3, 133680, Note_on_c, 0, 65, 63
3, 133800, Note_on_c, 0, 65, 0
3, 133800, Note_on_c, 0, 62, 0
3, 133920, Note_on_c, 0, 55, 58
3, 133920, Note_on_c, 0, 58, 58
3, 133920, Note_on_c, 0, 63, 69
3, 134160, Note_on_c, 0, 63, 0
3, 134160, Note_on_c, 0, 58, 0
3, 134160, Note_on_c, 0, 55, 0
3, 134160, Note_on_c, 0, 57, 58
3, 134160, Note_on_c, 0, 60, 58
3, 134160, Note_on_c, 0, 63, 64
3, 134400, Note_on_c, 0, 60, 0
3, 134400, Note_on_c, 0, 57, 0
3, 134400, Note_on_c, 0, 58, 68
3, 134520, Note_on_c, 0, 62, 58
3, 134640, Note_on_c, 0, 58, 0
3, 134640, Note_on_c, 0, 63, 0
3, 134640, Note_on_c, 0, 51, 49
3, 134760, Note_on_c, 0, 62, 0
3, 134760, Note_on_c, 0, 60, 66
3, 134880, Note_on_c, 0, 51, 0
3, 134880, Note_on_c, 0, 53, 56
3, 135000, Note_on_c, 0, 60, 0
3, 135000, Note_on_c, 0, 58, 59
3, 135110, Note_on_c, 0, 53, 0
3, 135120, Note_on_c, 0, 53, 49
3, 135240, Note_on_c, 0, 58, 0
3, 135240, Note_on_c, 0, 57, 59
3, 135360, Note_on_c, 0, 53, 0
3, 135360, Note_on_c, 0, 46, 56
3, 135600, Note_on_c, 0, 57, 0
3, 135600, Note_on_c, 0, 58, 66
3, 135720, Note_on_c, 0, 58, 0
3, 135720, Note_on_c, 0, 46, 0
3, 135840, Note_on_c, 0, 46, 63
3, 135840, Note_on_c, 0, 53, 63
3, 136080, Note_on_c, 0, 53, 0
3, 136080, Note_on_c, 0, 55, 57
3, 136320, Note_on_c, 0, 46, 0
3, 136320, Note_on_c, 0, 45, 68
3, 136560, Note_on_c, 0, 55, 0
3, 136560, Note_on_c, 0, 57, 63
3, 136680, Note_on_c, 0, 57, 0
3, 136800, Note_on_c, 0, 45, 0
3, 136800, Note_on_c, 0, 43, 63
3, 136800, Note_on_c, 0, 50, 63
3, 137040, Note_on_c, 0, 50, 0
3, 137040, Note_on_c, 0, 52, 57
3, 137280, Note_on_c, 0, 43, 0
3, 137280, Note_on_c, 0, 41, 68
3, 137520, Note_on_c, 0, 52, 0
3, 137520, Note_on_c, 0, 53, 63
3, 137640, Note_on_c, 0, 53, 0
3, 137760, Note_on_c, 0, 41, 0
3, 137760, Note_on_c, 0, 39, 68
3, 137760, Note_on_c, 0, 46, 63
3, 138000, Note_on_c, 0, 46, 0
3, 138000, Note_on_c, 0, 48, 57
3, 138240, Note_on_c, 0, 48, 0
3, 138240, Note_on_c, 0, 39, 0
3, 138240, Note_on_c, 0, 53, 56
3, 138240, Note_on_c, 0, 38, 68
3, 138480, Note_on_c, 0, 38, 0
3, 138480, Note_on_c, 0, 53, 0
3, 138480, Note_on_c, 0, 39, 69
3, 138720, Note_on_c, 0, 39, 0
3, 138720, Note_on_c, 0, 58, 68
3, 138720, Note_on_c, 0, 53, 68
3, 138720, Note_on_c, 0, 41, 73
3, 138960, Note_on_c, 0, 41, 0
3, 138960, Note_on_c, 0, 53, 0
3, 138960, Note_on_c, 0, 58, 0
3, 138960, Note_on_c, 0, 57, 72
3, 138960, Note_on_c, 0, 51, 72
3, 138960, Note_on_c, 0, 29, 79
3, 139200, Note_on_c, 0, 29, 0
3, 139200, Note_on_c, 0, 51, 0
3, 139200, Note_on_c, 0, 57, 0
3, 139200, Note_on_c, 0, 34, 83
3, 139440, Note_on_c, 0, 34, 0
3, 139440, Note_on_c, 0, 46, 46
3, 139680, Note_on_c, 0, 50, 46
3, 139920, Note_on_c, 0, 53, 46
3, 140160, Note_on_c, 0, 53, 0
3, 140160, Note_on_c, 0, 50, 0
3, 140160, Note_on_c, 0, 46, 0
3, 140160, Note_on_c, 0, 46, 54
3, 140160, Note_on_c, 0, 48, 54
3, 140400, Note_on_c, 0, 51, 47
3, 140640, Note_on_c, 0, 53, 47
3, 140880, Note_on_c, 0, 57, 47
3, 141120, Note_on_c, 0, 57, 0
3, 141120, Note_on_c, 0, 51, 0
3, 141120, Note_on_c, 0, 46, 0
3, 141120, Note_on_c, 0, 48, 0
3, 141120, Note_on_c, 0, 53, 0
3, 141120, Note_on_c, 0, 34, 64
3, 141360, Note_on_c, 0, 34, 0
3, 141360, Note_on_c, 0, 46, 46
3, 141600, Note_on_c, 0, 50, 46
3, 141840, Note_on_c, 0, 53, 46
3, 142080, Note_on_c, 0, 53, 0
3, 142080, Note_on_c, 0, 50, 0
3, 142080, Note_on_c, 0, 46, 0
3, 142080, Note_on_c, 0, 46, 54
3, 142080, Note_on_c, 0, 48, 54
3, 142320, Note_on_c, 0, 51, 47
3, 142560, Note_on_c, 0, 53, 47
3, 142800, Note_on_c, 0, 57, 47
3, 143040, Note_on_c, 0, 57, 0
3, 143040, Note_on_c, 0, 51, 0
3, 143040, Note_on_c, 0, 46, 0
3, 143040, Note_on_c, 0, 48, 0
3, 143040, Note_on_c, 0, 53, 0
3, 143040, Note_on_c, 0, 34, 69
3, 143280, Note_on_c, 0, 34, 0
3, 143280, Note_on_c, 0, 46, 52
3, 143520, Note_on_c, 0, 50, 52
3, 143760, Note_on_c, 0, 53, 52
3, 144000, Note_on_c, 0, 53, 0
3, 144000, Note_on_c, 0, 50, 0
3, 144000, Note_on_c, 0, 46, 0
3, 144000, Note_on_c, 0, 32, 77
3, 144240, Note_on_c, 0, 32, 0
3, 144240, Note_on_c, 0, 44, 56
3, 144480, Note_on_c, 0, 50, 56
3, 144720, Note_on_c, 0, 53, 56
3, 144960, Note_on_c, 0, 53, 0
3, 144960, Note_on_c, 0, 50, 0
3, 144960, Note_on_c, 0, 44, 0
3, 144960, Note_on_c, 0, 31, 83
3, 145200, Note_on_c, 0, 31, 0
3, 145200, Note_on_c, 0, 43, 57
3, 145440, Note_on_c, 0, 46, 57
3, 145680, Note_on_c, 0, 51, 57
3, 145920, Note_on_c, 0, 51, 0
3, 145920, Note_on_c, 0, 46, 0
3, 145920, Note_on_c, 0, 43, 0
3, 145920, Note_on_c, 0, 38, 59
3, 145980, Note_on_c, 0, 38, 0
3, 145980, Note_on_c, 0, 41, 60
3, 146040, Note_on_c, 0, 41, 0
3, 146040, Note_on_c, 0, 44, 61
3, 146100, Note_on_c, 0, 44, 0
3, 146100, Note_on_c, 0, 46, 61
3, 146160, Note_on_c, 0, 46, 0
3, 146160, Note_on_c, 0, 50, 62
3, 146220, Note_on_c, 0, 50, 0
3, 146220, Note_on_c, 0, 53, 64
3, 146280, Note_on_c, 0, 53, 0
3, 146280, Note_on_c, 0, 56, 65
3, 146340, Note_on_c, 0, 56, 0
3, 146340, Note_on_c, 0, 58, 66
3, 146400, Note_on_c, 0, 58, 0
3, 146880, Note_on_c, 0, 63, 42
3, 147000, Note_on_c, 0, 70, 34
3, 147120, Note_on_c, 0, 70, 0
3, 147120, Note_on_c, 0, 63, 0
3, 147120, Note_on_c, 0, 67, 38
3, 147240, Note_on_c, 0, 70, 34
3, 147360, Note_on_c, 0, 70, 0
3, 147360, Note_on_c, 0, 67, 0
3, 147360, Note_on_c, 0, 68, 38
3, 147360, Note_on_c, 0, 65, 38
3, 147480, Note_on_c, 0, 68, 0
3, 147480, Note_on_c, 0, 70, 34
3, 147600, Note_on_c, 0, 70, 0
3, 147600, Note_on_c, 0, 65, 0
3, 147600, Note_on_c, 0, 67, 37
3, 147600, Note_on_c, 0, 63, 37
3, 147720, Note_on_c, 0, 67, 0
3, 147720, Note_on_c, 0, 70, 34
3, 147840, Note_on_c, 0, 70, 0
3, 147840, Note_on_c, 0, 63, 0
3, 147840, Note_on_c, 0, 62, 43
3, 147840, Note_on_c, 0, 68, 43
3, 147960, Note_on_c, 0, 70, 34
3, 148020, Note_on_c, 0, 70, 0
3, 148080, Note_on_c, 0, 70, 34
3, 148140, Note_on_c, 0, 70, 0
3, 148200, Note_on_c, 0, 70, 34
3, 148260, Note_on_c, 0, 70, 0
3, 148320, Note_on_c, 0, 70, 37
3, 148380, Note_on_c, 0, 70, 0
3, 148440, Note_on_c, 0, 70, 34
3, 148500, Note_on_c, 0, 70, 0
3, 148560, Note_on_c, 0, 70, 34
3, 148620, Note_on_c, 0, 70, 0
3, 148680, Note_on_c, 0, 70, 34
3, 148740, Note_on_c, 0, 70, 0
3, 148800, Note_on_c, 0, 68, 0
3, 148800, Note_on_c, 0, 62, 0
3, 148800, Note_on_c, 0, 62, 42
3, 148920, Note_on_c, 0, 70, 34
3, 149040, Note_on_c, 0, 70, 0
3, 149040, Note_on_c, 0, 62, 0
3, 149040, Note_on_c, 0, 68, 38
3, 149160, Note_on_c, 0, 70, 34
3, 149280, Note_on_c, 0, 70, 0
3, 149280, Note_on_c, 0, 68, 0
3, 149280, Note_on_c, 0, 67, 38
3, 149400, Note_on_c, 0, 70, 34
3, 149520, Note_on_c, 0, 70, 0
3, 149520, Note_on_c, 0, 67, 0
3, 149520, Note_on_c, 0, 62, 37
3, 149640, Note_on_c, 0, 70, 34
3, 149760, Note_on_c, 0, 70, 0
3, 149760, Note_on_c, 0, 62, 0
3, 149760, Note_on_c, 0, 63, 43
3, 149880, Note_on_c, 0, 70, 34
3, 149940, Note_on_c, 0, 70, 0
3, 150000, Note_on_c, 0, 63, 0
3, 150000, Note_on_c, 0, 63, 43
3, 150120, Note_on_c, 0, 71, 34
3, 150180, Note_on_c, 0, 71, 0
3, 150240, Note_on_c, 0, 63, 0
3, 150240, Note_on_c, 0, 63, 43
3, 150360, Note_on_c, 0, 72, 34
3, 150420, Note_on_c, 0, 72, 0
3, 150480, Note_on_c, 0, 63, 0
3, 150840, Note_on_c, 0, 67, 34
3, 150960, Note_on_c, 0, 67, 0
3, 150960, Note_on_c, 0, 63, 38
3, 151080, Note_on_c, 0, 67, 34
3, 151200, Note_on_c, 0, 67, 0
3, 151200, Note_on_c, 0, 63, 0
3, 151200, Note_on_c, 0, 65, 38
3, 151200, Note_on_c, 0, 62, 38
3, 151320, Note_on_c, 0, 65, 0
3, 151320, Note_on_c, 0, 67, 34
3, 151440, Note_on_c, 0, 67, 0
3, 151440, Note_on_c, 0, 62, 0
3, 151440, Note_on_c, 0, 63, 37
3, 151440, Note_on_c, 0, 60, 37
3, 151560, Note_on_c, 0, 63, 0
3, 151560, Note_on_c, 0, 67, 34
3, 151680, Note_on_c, 0, 67, 0
3, 151680, Note_on_c, 0, 60, 0
3, 151680, Note_on_c, 0, 59, 43
3, 151680, Note_on_c, 0, 65, 43
3, 151800, Note_on_c, 0, 67, 34
3, 151860, Note_on_c, 0, 67, 0
3, 151920, Note_on_c, 0, 67, 34
3, 151980, Note_on_c, 0, 67, 0
3, 152040, Note_on_c, 0, 67, 34
3, 152100, Note_on_c, 0, 67, 0
3, 152160, Note_on_c, 0, 67, 34
3, 152280, Note_on_c, 0, 67, 0
3, 152280, Note_on_c, 0, 65, 0
3, 152280, Note_on_c, 0, 59, 0
3, 153240, Note_on_c, 0, 67, 28
3, 153360, Note_on_c, 0, 67, 0
3, 153360, Note_on_c, 0, 68, 34
3, 153480, Note_on_c, 0, 68, 0
3, 153480, Note_on_c, 0, 67, 30
3, 153600, Note_on_c, 0, 67, 0
3, 153600, Note_on_c, 0, 65, 34
3, 153720, Note_on_c, 0, 65, 0
3, 153720, Note_on_c, 0, 63, 30
3, 153840, Note_on_c, 0, 63, 0
3, 153840, Note_on_c, 0, 62, 32
3, 153960, Note_on_c, 0, 62, 0
3, 153960, Note_on_c, 0, 60, 30
3, 154080, Note_on_c, 0, 60, 0
3, 154200, Note_on_c, 0, 63, 40
3, 154320, Note_on_c, 0, 63, 0
3, 154320, Note_on_c, 0, 65, 45
3, 154440, Note_on_c, 0, 65, 0
3, 154440, Note_on_c, 0, 63, 41
3, 154560, Note_on_c, 0, 63, 0
3, 154560, Note_on_c, 0, 62, 45
3, 154680, Note_on_c, 0, 62, 0
3, 154680, Note_on_c, 0, 60, 40
3, 154800, Note_on_c, 0, 60, 0
3, 154800, Note_on_c, 0, 58, 43
3, 154920, Note_on_c, 0, 58, 0
3, 154920, Note_on_c, 0, 57, 40
3, 155040, Note_on_c, 0, 57, 0
3, 155040, Note_on_c, 0, 55, 46
3, 155160, Note_on_c, 0, 55, 0
3, 155160, Note_on_c, 0, 53, 40
3, 155280, Note_on_c, 0, 53, 0
3, 155280, Note_on_c, 0, 51, 40
3, 155400, Note_on_c, 0, 51, 0
3, 155400, Note_on_c, 0, 50, 40
3, 155520, Note_on_c, 0, 50, 0
3, 155520, Note_on_c, 0, 48, 51
3, 155640, Note_on_c, 0, 48, 0
3, 155640, Note_on_c, 0, 46, 41
3, 155760, Note_on_c, 0, 46, 0
3, 155760, Note_on_c, 0, 45, 45
3, 155880, Note_on_c, 0, 45, 0
3, 155880, Note_on_c, 0, 43, 47
3, 156000, Note_on_c, 0, 43, 0
3, 156000, Note_on_c, 0, 41, 51
3, 158400, Note_on_c, 0, 41, 0
3, 158400, Note_on_c, 0, 67, 42
3, 158460, Note_on_c, 0, 67, 0
3, 158520, Note_on_c, 0, 65, 34
3, 158640, Note_on_c, 0, 65, 0
3, 158640, Note_on_c, 0, 62, 38
3, 158760, Note_on_c, 0, 65, 34
3, 158880, Note_on_c, 0, 65, 0
3, 158880, Note_on_c, 0, 62, 0
3, 158880, Note_on_c, 0, 63, 38
3, 158880, Note_on_c, 0, 60, 38
3, 159000, Note_on_c, 0, 63, 0
3, 159000, Note_on_c, 0, 65, 34
3, 159120, Note_on_c, 0, 65, 0
3, 159120, Note_on_c, 0, 60, 0
3, 159120, Note_on_c, 0, 62, 37
3, 159120, Note_on_c, 0, 58, 37
3, 159240, Note_on_c, 0, 62, 0
3, 159240, Note_on_c, 0, 65, 34
3, 159360, Note_on_c, 0, 65, 0
3, 159360, Note_on_c, 0, 58, 0
3, 159360, Note_on_c, 0, 57, 43
3, 159360, Note_on_c, 0, 63, 43
3, 159480, Note_on_c, 0, 65, 34
3, 159540, Note_on_c, 0, 65, 0
3, 159600, Note_on_c, 0, 65, 34
3, 159660, Note_on_c, 0, 65, 0
3, 159720, Note_on_c, 0, 65, 34
3, 159780, Note_on_c, 0, 65, 0
3, 159840, Note_on_c, 0, 65, 37
3, 159900, Note_on_c, 0, 65, 0
3, 159960, Note_on_c, 0, 65, 34
3, 160020, Note_on_c, 0, 65, 0
3, 160080, Note_on_c, 0, 65, 34
3, 160140, Note_on_c, 0, 65, 0
3, 160200, Note_on_c, 0, 65, 34
3, 160260, Note_on_c, 0, 65, 0
3, 160320, Note_on_c, 0, 63, 0
3, 160320, Note_on_c, 0, 57, 0
3, 160320, Note_on_c, 0, 57, 42
3, 160440, Note_on_c, 0, 65, 34
3, 160560, Note_on_c, 0, 65, 0
3, 160560, Note_on_c, 0, 57, 0
3, 160560, Note_on_c, 0, 63, 38
3, 160680, Note_on_c, 0, 65, 34
3, 160800, Note_on_c, 0, 65, 0
3, 160800, Note_on_c, 0, 63, 0
3, 160800, Note_on_c, 0, 62, 38
3, 160920, Note_on_c, 0, 65, 34
3, 161040, Note_on_c, 0, 65, 0
3, 161040, Note_on_c, 0, 62, 0
3, 161040, Note_on_c, 0, 57, 37
3, 161160, Note_on_c, 0, 65, 34
3, 161280, Note_on_c, 0, 65, 0
3, 161280, Note_on_c, 0, 57, 0
3, 161280, Note_on_c, 0, 58, 43
3, 161400, Note_on_c, 0, 65, 34
3, 161460, Note_on_c, 0, 65, 0
3, 161520, Note_on_c, 0, 65, 34
3, 161580, Note_on_c, 0, 65, 0
3, 161640, Note_on_c, 0, 65, 34
3, 161700, Note_on_c, 0, 65, 0
3, 161760, Note_on_c, 0, 65, 37
3, 161820, Note_on_c, 0, 65, 0
3, 161880, Note_on_c, 0, 65, 34
3, 161940, Note_on_c, 0, 65, 0
3, 162000, Note_on_c, 0, 58, 0
3, 162000, Note_on_c, 0, 59, 34
3, 162120, Note_on_c, 0, 65, 34
3, 162180, Note_on_c, 0, 65, 0
3, 162240, Note_on_c, 0, 59, 0
3, 162240, Note_on_c, 0, 60, 42
3, 162360, Note_on_c, 0, 65, 34
3, 162480, Note_on_c, 0, 65, 0
3, 162480, Note_on_c, 0, 60, 0
3, 162480, Note_on_c, 0, 57, 38
3, 162600, Note_on_c, 0, 65, 34
3, 162720, Note_on_c, 0, 65, 0
3, 162720, Note_on_c, 0, 57, 0
3, 162720, Note_on_c, 0, 58, 42
3, 162840, Note_on_c, 0, 65, 34
3, 162960, Note_on_c, 0, 65, 0
3, 162960, Note_on_c, 0, 58, 0
3, 162960, Note_on_c, 0, 59, 38
3, 163080, Note_on_c, 0, 65, 34
3, 163200, Note_on_c, 0, 65, 0
3, 163200, Note_on_c, 0, 59, 0
3, 163200, Note_on_c, 0, 60, 47
3, 163320, Note_on_c, 0, 65, 34
3, 163440, Note_on_c, 0, 65, 0
3, 163440, Note_on_c, 0, 60, 0
3, 163440, Note_on_c, 0, 57, 42
3, 163560, Note_on_c, 0, 65, 34
3, 163680, Note_on_c, 0, 65, 0
3, 163680, Note_on_c, 0, 57, 0
3, 163680, Note_on_c, 0, 58, 48
3, 163800, Note_on_c, 0, 62, 35
3, 163920, Note_on_c, 0, 62, 0
3, 163920, Note_on_c, 0, 58, 0
3, 163920, Note_on_c, 0, 57, 44
3, 164040, Note_on_c, 0, 60, 39
3, 164160, Note_on_c, 0, 60, 0
3, 164160, Note_on_c, 0, 57, 0
3, 164160, Note_on_c, 0, 55, 55
3, 164280, Note_on_c, 0, 58, 47
3, 164390, Note_on_c, 0, 55, 0
3, 164400, Note_on_c, 0, 58, 0
3, 164400, Note_on_c, 0, 55, 57
3, 164520, Note_on_c, 0, 58, 50
3, 164640, Note_on_c, 0, 58, 0
3, 164640, Note_on_c, 0, 55, 0
3, 164640, Note_on_c, 0, 48, 63
3, 164760, Note_on_c, 0, 58, 46
3, 164870, Note_on_c, 0, 48, 0
3, 164880, Note_on_c, 0, 58, 0
3, 164880, Note_on_c, 0, 48, 53
3, 165000, Note_on_c, 0, 58, 34
3, 165120, Note_on_c, 0, 48, 0
3, 165120, Note_on_c, 0, 53, 43
3, 165230, Note_on_c, 0, 58, 0
3, 165240, Note_on_c, 0, 58, 29
3, 165360, Note_on_c, 0, 58, 0
3, 165360, Note_on_c, 0, 57, 35
3, 165480, Note_on_c, 0, 57, 0
3, 165480, Note_on_c, 0, 55, 29
3, 165600, Note_on_c, 0, 55, 0
3, 165600, Note_on_c, 0, 57, 34
3, 165840, Note_on_c, 0, 57, 0
3, 165840, Note_on_c, 0, 53, 0
3, 166080, Note_on_c, 0, 46, 42
3, 166200, Note_on_c, 0, 53, 34
3, 166320, Note_on_c, 0, 53, 0
3, 166320, Note_on_c, 0, 46, 0
3, 166320, Note_on_c, 0, 50, 38
3, 166440, Note_on_c, 0, 53, 34
3, 166560, Note_on_c, 0, 53, 0
3, 166560, Note_on_c, 0, 50, 0
3, 166560, Note_on_c, 0, 51, 38
3, 166560, Note_on_c, 0, 48, 38
3, 166680, Note_on_c, 0, 51, 0
3, 166680, Note_on_c, 0, 53, 34
3, 166800, Note_on_c, 0, 53, 0
3, 166800, Note_on_c, 0, 48, 0
3, 166800, Note_on_c, 0, 50, 37
3, 166800, Note_on_c, 0, 46, 37
3, 166920, Note_on_c, 0, 50, 0
3, 166920, Note_on_c, 0, 53, 34
3, 167040, Note_on_c, 0, 53, 0
3, 167040, Note_on_c, 0, 46, 0
3, 167040, Note_on_c, 0, 45, 43
3, 167040, Note_on_c, 0, 51, 43
3, 167160, Note_on_c, 0, 53, 34
3, 167220, Note_on_c, 0, 53, 0
3, 167280, Note_on_c, 0, 53, 34
3, 167340, Note_on_c, 0, 53, 0
3, 167400, Note_on_c, 0, 53, 34
3, 167460, Note_on_c, 0, 53, 0
3, 167520, Note_on_c, 0, 53, 37
3, 167580, Note_on_c, 0, 53, 0
3, 167640, Note_on_c, 0, 53, 34
3, 167700, Note_on_c, 0, 53, 0
3, 167760, Note_on_c, 0, 53, 34
3, 167820, Note_on_c, 0, 53, 0
3, 167880, Note_on_c, 0, 53, 34
3, 167940, Note_on_c, 0, 53, 0
3, 168000, Note_on_c, 0, 51, 0
3, 168000, Note_on_c, 0, 45, 0
3, 168000, Note_on_c, 0, 45, 42
3, 168120, Note_on_c, 0, 53, 34
3, 168240, Note_on_c, 0, 53, 0
3, 168240, Note_on_c, 0, 45, 0
3, 168240, Note_on_c, 0, 51, 38
3, 168360, Note_on_c, 0, 53, 34
3, 168480, Note_on_c, 0, 53, 0
3, 168480, Note_on_c, 0, 51, 0
3, 168480, Note_on_c, 0, 50, 38
3, 168600, Note_on_c, 0, 53, 34
3, 168720, Note_on_c, 0, 53, 0
3, 168720, Note_on_c, 0, 50, 0
3, 168720, Note_on_c, 0, 45, 37
3, 168840, Note_on_c, 0, 53, 34
3, 168960, Note_on_c, 0, 53, 0
3, 168960, Note_on_c, 0, 45, 0
3, 168960, Note_on_c, 0, 46, 43
3, 169080, Note_on_c, 0, 53, 34
3, 169140, Note_on_c, 0, 53, 0
3, 169200, Note_on_c, 0, 53, 34
3, 169260, Note_on_c, 0, 53, 0
3, 169320, Note_on_c, 0, 53, 34
3, 169380, Note_on_c, 0, 53, 0
3, 169440, Note_on_c, 0, 53, 40
3, 169500, Note_on_c, 0, 53, 0
3, 169560, Note_on_c, 0, 53, 37
3, 169620, Note_on_c, 0, 53, 0
3, 169680, Note_on_c, 0, 46, 0
3, 169680, Note_on_c, 0, 47, 37
3, 169800, Note_on_c, 0, 53, 37
3, 169860, Note_on_c, 0, 53, 0
3, 169920, Note_on_c, 0, 47, 0
3, 169920, Note_on_c, 0, 48, 47
3, 170040, Note_on_c, 0, 53, 38
3, 170160, Note_on_c, 0, 53, 0
3, 170160, Note_on_c, 0, 48, 0
3, 170160, Note_on_c, 0, 41, 42
3, 170280, Note_on_c, 0, 53, 38
3, 170400, Note_on_c, 0, 53, 0
3, 170400, Note_on_c, 0, 41, 0
3, 170400, Note_on_c, 0, 46, 47
3, 170520, Note_on_c, 0, 53, 38
3, 170640, Note_on_c, 0, 53, 0
3, 170640, Note_on_c, 0, 46, 0
3, 170640, Note_on_c, 0, 47, 43
3, 170760, Note_on_c, 0, 53, 39
3, 170880, Note_on_c, 0, 53, 0
3, 170880, Note_on_c, 0, 47, 0
3, 170880, Note_on_c, 0, 48, 54
3, 171000, Note_on_c, 0, 53, 47
3, 171120, Note_on_c, 0, 53, 0
3, 171120, Note_on_c, 0, 48, 0
3, 171120, Note_on_c, 0, 41, 53
3, 171240, Note_on_c, 0, 53, 44
3, 171360, Note_on_c, 0, 53, 0
3, 171360, Note_on_c, 0, 41, 0
3, 171360, Note_on_c, 0, 46, 64
3, 171480, Note_on_c, 0, 53, 49
3, 171600, Note_on_c, 0, 53, 0
3, 171600, Note_on_c, 0, 46, 0
3, 171600, Note_on_c, 0, 44, 60
3, 171720, Note_on_c, 0, 46, 45
3, 171840, Note_on_c, 0, 46, 0
3, 171840, Note_on_c, 0, 44, 0
3, 171840, Note_on_c, 0, 43, 73
3, 171960, Note_on_c, 0, 46, 60
3, 172070, Note_on_c, 0, 43, 0
3, 172080, Note_on_c, 0, 46, 0
3, 172080, Note_on_c, 0, 39, 69
3, 172200, Note_on_c, 0, 51, 60
3, 172320, Note_on_c, 0, 51, 0
3, 172320, Note_on_c, 0, 39, 0
3, 172320, Note_on_c, 0, 41, 56
3, 172440, Note_on_c, 0, 50, 42
3, 172550, Note_on_c, 0, 41, 0
3, 172560, Note_on_c, 0, 50, 0
3, 172560, Note_on_c, 0, 41, 49
3, 172680, Note_on_c, 0, 45, 43
3, 172800, Note_on_c, 0, 45, 0
3, 172800, Note_on_c, 0, 41, 0
3, 172800, Note_on_c, 0, 34, 43
3, 172920, Note_on_c, 0, 34, 0
3, 172920, Note_on_c, 0, 46, 29
3, 173040, Note_on_c, 0, 58, 35
3, 173100, Note_on_c, 0, 58, 0
3, 173160, Note_on_c, 0, 58, 29
3, 173220, Note_on_c, 0, 58, 0
3, 173280, Note_on_c, 0, 58, 49
3, 173340, Note_on_c, 0, 58, 0
3, 173400, Note_on_c, 0, 58, 39
3, 173460, Note_on_c, 0, 58, 0
3, 173520, Note_on_c, 0, 46, 0
3, 173520, Note_on_c, 0, 56, 50
3, 173640, Note_on_c, 0, 58, 39
3, 173760, Note_on_c, 0, 58, 0
3, 173760, Note_on_c, 0, 56, 0
3, 173760, Note_on_c, 0, 55, 63
3, 173880, Note_on_c, 0, 58, 52
3, 174000, Note_on_c, 0, 58, 0
3, 174000, Note_on_c, 0, 55, 0
3, 174000, Note_on_c, 0, 51, 56
3, 174120, Note_on_c, 0, 63, 50
3, 174240, Note_on_c, 0, 63, 0
3, 174240, Note_on_c, 0, 51, 0
3, 174240, Note_on_c, 0, 53, 35
3, 174360, Note_on_c, 0, 62, 29
3, 174470, Note_on_c, 0, 53, 0
3, 174480, Note_on_c, 0, 62, 0
3, 174480, Note_on_c, 0, 53, 35
3, 174600, Note_on_c, 0, 57, 29
3, 174720, Note_on_c, 0, 57, 0
3, 174720, Note_on_c, 0, 53, 0
3, 174720, Note_on_c, 0, 46, 33
3, 174720, Note_on_c, 0, 58, 39
3, 174960, Note_on_c, 0, 58, 0
3, 174960, Note_on_c, 0, 46, 0
3, 175200, Note_on_c, 0, 62, 69
3, 175200, Note_on_c, 0, 65, 79
3, 175680, Note_on_c, 0, 65, 0
3, 175680, Note_on_c, 0, 62, 0
3, 175680, Note_on_c, 0, 60, 69
3, 175680, Note_on_c, 0, 63, 69
3, 175680, Note_on_c, 0, 65, 79
3, 176160, Note_on_c, 0, 65, 0
3, 176160, Note_on_c, 0, 63, 0
3, 176160, Note_on_c, 0, 60, 0
3, 176160, Note_on_c, 0, 58, 69
3, 176160, Note_on_c, 0, 62, 69
3, 176160, Note_on_c, 0, 65, 79
3, 176640, Note_on_c, 0, 65, 0
3, 176640, Note_on_c, 0, 62, 0
3, 176640, Note_on_c, 0, 58, 0
3, 176640, Note_on_c, 0, 65, 79
3, 176640, Note_on_c, 0, 60, 69
3, 176640, Note_on_c, 0, 57, 69
3, 177120, Note_on_c, 0, 57, 0
3, 177120, Note_on_c, 0, 60, 0
3, 177120, Note_on_c, 0, 65, 0
3, 177120, Note_on_c, 0, 65, 86
3, 177120, Note_on_c, 0, 56, 72
3, 177120, Note_on_c, 0, 58, 72
3, 177600, Note_on_c, 0, 58, 0
3, 177600, Note_on_c, 0, 56, 0
3, 177600, Note_on_c, 0, 65, 0
3, 177600, Note_on_c, 0, 63, 64
3, 177600, Note_on_c, 0, 58, 55
3, 177600, Note_on_c, 0, 55, 55
3, 177660, Note_on_c, 0, 55, 0
3, 177660, Note_on_c, 0, 58, 0
3, 177660, Note_on_c, 0, 63, 0
3, 177840, Note_on_c, 0, 60, 35
3, 177840, Note_on_c, 0, 58, 29
3, 177840, Note_on_c, 0, 52, 29
3, 177900, Note_on_c, 0, 52, 0
3, 177900, Note_on_c, 0, 58, 0
3, 177900, Note_on_c, 0, 60, 0
3, 178080, Note_on_c, 0, 62, 39
3, 178080, Note_on_c, 0, 58, 33
3, 178080, Note_on_c, 0, 53, 33
3, 178140, Note_on_c, 0, 53, 0
3, 178140, Note_on_c, 0, 58, 0
3, 178140, Note_on_c, 0, 62, 0
3, 178320, Note_on_c, 0, 60, 35
3, 178320, Note_on_c, 0, 57, 29
3, 178320, Note_on_c, 0, 53, 29
3, 178380, Note_on_c, 0, 53, 0
3, 178380, Note_on_c, 0, 57, 0
3, 178380, Note_on_c, 0, 60, 0
3, 178560, Note_on_c, 0, 46, 33
3, 178560, Note_on_c, 0, 58, 39
3, 178800, Note_on_c, 0, 58, 0
3, 178800, Note_on_c, 0, 46, 0
3, 179040, Note_on_c, 0, 62, 70
3, 179100, Note_on_c, 0, 61, 56
3, 179106, Note_on_c, 0, 62, 0
3, 179160, Note_on_c, 0, 62, 60
3, 179166, Note_on_c, 0, 61, 0
3, 179220, Note_on_c, 0, 61, 55
3, 179226, Note_on_c, 0, 62, 0
3, 179280, Note_on_c, 0, 62, 60
3, 179286, Note_on_c, 0, 61, 0
3, 179340, Note_on_c, 0, 65, 55
3, 179346, Note_on_c, 0, 62, 0
3, 179400, Note_on_c, 0, 63, 55
3, 179406, Note_on_c, 0, 65, 0
3, 179460, Note_on_c, 0, 62, 55
3, 179466, Note_on_c, 0, 63, 0
3, 179520, Note_on_c, 0, 62, 0
3, 179520, Note_on_c, 0, 60, 70
3, 179580, Note_on_c, 0, 59, 56
3, 179586, Note_on_c, 0, 60, 0
3, 179640, Note_on_c, 0, 60, 60
3, 179646, Note_on_c, 0, 59, 0
3, 179700, Note_on_c, 0, 59, 55
3, 179706, Note_on_c, 0, 60, 0
3, 179760, Note_on_c, 0, 60, 60
3, 179766, Note_on_c, 0, 59, 0
3, 179820, Note_on_c, 0, 63, 55
3, 179826, Note_on_c, 0, 60, 0
3, 179880, Note_on_c, 0, 62, 55
3, 179886, Note_on_c, 0, 63, 0
3, 179940, Note_on_c, 0, 60, 55
3, 179946, Note_on_c, 0, 62, 0
3, 180000, Note_on_c, 0, 60, 0
3, 180000, Note_on_c, 0, 58, 70
3, 180060, Note_on_c, 0, 57, 56
3, 180066, Note_on_c, 0, 58, 0
3, 180120, Note_on_c, 0, 58, 60
3, 180126, Note_on_c, 0, 57, 0
3, 180180, Note_on_c, 0, 57, 55
3, 180186, Note_on_c, 0, 58, 0
3, 180240, Note_on_c, 0, 58, 60
3, 180246, Note_on_c, 0, 57, 0
3, 180300, Note_on_c, 0, 62, 55
3, 180306, Note_on_c, 0, 58, 0
3, 180360, Note_on_c, 0, 60, 55
3, 180366, Note_on_c, 0, 62, 0
3, 180420, Note_on_c, 0, 58, 55
3, 180426, Note_on_c, 0, 60, 0
3, 180480, Note_on_c, 0, 58, 0
3, 180480, Note_on_c, 0, 57, 70
3, 180540, Note_on_c, 0, 56, 56
3, 180546, Note_on_c, 0, 57, 0
3, 180600, Note_on_c, 0, 57, 60
3, 180606, Note_on_c, 0, 56, 0
3, 180660, Note_on_c, 0, 56, 55
3, 180666, Note_on_c, 0, 57, 0
3, 180720, Note_on_c, 0, 57, 60
3, 180726, Note_on_c, 0, 56, 0
3, 180780, Note_on_c, 0, 60, 55
3, 180786, Note_on_c, 0, 57, 0
3, 180840, Note_on_c, 0, 58, 55
3, 180846, Note_on_c, 0, 60, 0
3, 180900, Note_on_c, 0, 57, 55
3, 180906, Note_on_c, 0, 58, 0
3, 180960, Note_on_c, 0, 57, 0
3, 180960, Note_on_c, 0, 56, 70
3, 181020, Note_on_c, 0, 55, 56
3, 181026, Note_on_c, 0, 56, 0
3, 181080, Note_on_c, 0, 56, 60
3, 181086, Note_on_c, 0, 55, 0
3, 181140, Note_on_c, 0, 55, 55
3, 181146, Note_on_c, 0, 56, 0
3, 181200, Note_on_c, 0, 56, 60
3, 181206, Note_on_c, 0, 55, 0
3, 181260, Note_on_c, 0, 60, 55
3, 181266, Note_on_c, 0, 56, 0
3, 181320, Note_on_c, 0, 58, 55
3, 181326, Note_on_c, 0, 60, 0
3, 181380, Note_on_c, 0, 56, 55
3, 181386, Note_on_c, 0, 58, 0
3, 181440, Note_on_c, 0, 56, 0
3, 181440, Note_on_c, 0, 55, 70
3, 181500, Note_on_c, 0, 58, 48
3, 181506, Note_on_c, 0, 55, 0
3, 181560, Note_on_c, 0, 57, 43
3, 181566, Note_on_c, 0, 58, 0
3, 181620, Note_on_c, 0, 58, 43
3, 181626, Note_on_c, 0, 57, 0
3, 181680, Note_on_c, 0, 58, 0
3, 181680, Note_on_c, 0, 52, 49
3, 181740, Note_on_c, 0, 58, 43
3, 181746, Note_on_c, 0, 52, 0
3, 181800, Note_on_c, 0, 57, 42
3, 181806, Note_on_c, 0, 58, 0
3, 181860, Note_on_c, 0, 58, 43
3, 181866, Note_on_c, 0, 57, 0
3, 181920, Note_on_c, 0, 58, 0
3, 181920, Note_on_c, 0, 53, 57
3, 181980, Note_on_c, 0, 58, 46
3, 181986, Note_on_c, 0, 53, 0
3, 182040, Note_on_c, 0, 57, 50
3, 182046, Note_on_c, 0, 58, 0
3, 182100, Note_on_c, 0, 58, 50
3, 182106, Note_on_c, 0, 57, 0
3, 182160, Note_on_c, 0, 58, 0
3, 182160, Note_on_c, 0, 53, 60
3, 182220, Note_on_c, 0, 57, 50
3, 182226, Note_on_c, 0, 53, 0
3, 182280, Note_on_c, 0, 56, 50
3, 182286, Note_on_c, 0, 57, 0
3, 182340, Note_on_c, 0, 57, 51
3, 182346, Note_on_c, 0, 56, 0
3, 182400, Note_on_c, 0, 57, 0
3, 182400, Note_on_c, 0, 58, 61
3, 182460, Note_on_c, 0, 58, 0
3, 182460, Note_on_c, 0, 60, 56
3, 182520, Note_on_c, 0, 60, 0
3, 182520, Note_on_c, 0, 62, 58
3, 182580, Note_on_c, 0, 62, 0
3, 182580, Note_on_c, 0, 63, 61
3, 182640, Note_on_c, 0, 63, 0
3, 182640, Note_on_c, 0, 65, 63
3, 182700, Note_on_c, 0, 65, 0
3, 182700, Note_on_c, 0, 67, 66
3, 182760, Note_on_c, 0, 67, 0
3, 182760, Note_on_c, 0, 69, 68
3, 182820, Note_on_c, 0, 69, 0
3, 182820, Note_on_c, 0, 70, 72
3, 182880, Note_on_c, 0, 70, 0
3, 182880, Note_on_c, 0, 68, 76
3, 182940, Note_on_c, 0, 67, 61
3, 182946, Note_on_c, 0, 68, 0
3, 183000, Note_on_c, 0, 65, 66
3, 183006, Note_on_c, 0, 67, 0
3, 183060, Note_on_c, 0, 63, 60
3, 183066, Note_on_c, 0, 65, 0
3, 183120, Note_on_c, 0, 62, 66
3, 183126, Note_on_c, 0, 63, 0
3, 183180, Note_on_c, 0, 60, 60
3, 183186, Note_on_c, 0, 62, 0
3, 183240, Note_on_c, 0, 58, 60
3, 183246, Note_on_c, 0, 60, 0
3, 183300, Note_on_c, 0, 56, 60
3, 183306, Note_on_c, 0, 58, 0
3, 183360, Note_on_c, 0, 56, 0
3, 183360, Note_on_c, 0, 55, 76
3, 183420, Note_on_c, 0, 58, 52
3, 183426, Note_on_c, 0, 55, 0
3, 183480, Note_on_c, 0, 57, 46
3, 183486, Note_on_c, 0, 58, 0
3, 183540, Note_on_c, 0, 58, 46
3, 183546, Note_on_c, 0, 57, 0
3, 183600, Note_on_c, 0, 58, 0
3, 183600, Note_on_c, 0, 52, 44
3, 183660, Note_on_c, 0, 58, 52
3, 183666, Note_on_c, 0, 52, 0
3, 183720, Note_on_c, 0, 57, 46
3, 183726, Note_on_c, 0, 58, 0
3, 183780, Note_on_c, 0, 58, 48
3, 183786, Note_on_c, 0, 57, 0
3, 183840, Note_on_c, 0, 58, 0
3, 183840, Note_on_c, 0, 53, 62
3, 183900, Note_on_c, 0, 58, 50
3, 183906, Note_on_c, 0, 53, 0
3, 183960, Note_on_c, 0, 57, 55
3, 183966, Note_on_c, 0, 58, 0
3, 184020, Note_on_c, 0, 58, 55
3, 184026, Note_on_c, 0, 57, 0
3, 184080, Note_on_c, 0, 58, 0
3, 184080, Note_on_c, 0, 53, 66
3, 184140, Note_on_c, 0, 57, 55
3, 184146, Note_on_c, 0, 53, 0
3, 184200, Note_on_c, 0, 56, 55
3, 184206, Note_on_c, 0, 57, 0
3, 184260, Note_on_c, 0, 57, 56
3, 184266, Note_on_c, 0, 56, 0
3, 184320, Note_on_c, 0, 57, 0
3, 184320, Note_on_c, 0, 58, 67
3, 184380, Note_on_c, 0, 58, 0
3, 184380, Note_on_c, 0, 57, 61
3, 184440, Note_on_c, 0, 57, 0
3, 184440, Note_on_c, 0, 55, 63
3, 184500, Note_on_c, 0, 55, 0
3, 184500, Note_on_c, 0, 53, 67
3, 184560, Note_on_c, 0, 53, 0
3, 184560, Note_on_c, 0, 51, 69
3, 184620, Note_on_c, 0, 51, 0
3, 184620, Note_on_c, 0, 50, 72
3, 184680, Note_on_c, 0, 50, 0
3, 184680, Note_on_c, 0, 48, 74
3, 184740, Note_on_c, 0, 48, 0
3, 184740, Note_on_c, 0, 46, 79
3, 184800, Note_on_c, 0, 46, 0
3, 184800, Note_on_c, 0, 44, 76
3, 184860, Note_on_c, 0, 43, 61
3, 184866, Note_on_c, 0, 44, 0
3, 184920, Note_on_c, 0, 41, 66
3, 184926, Note_on_c, 0, 43, 0
3, 184980, Note_on_c, 0, 39, 60
3, 184986, Note_on_c, 0, 41, 0
3, 185040, Note_on_c, 0, 38, 66
3, 185046, Note_on_c, 0, 39, 0
3, 185100, Note_on_c, 0, 36, 60
3, 185106, Note_on_c, 0, 38, 0
3, 185160, Note_on_c, 0, 34, 60
3, 185166, Note_on_c, 0, 36, 0
3, 185220, Note_on_c, 0, 32, 60
3, 185226, Note_on_c, 0, 34, 0
3, 185280, Note_on_c, 0, 32, 0
3, 185280, Note_on_c, 0, 31, 87
3, 185340, Note_on_c, 0, 43, 56
3, 185346, Note_on_c, 0, 31, 0
3, 185400, Note_on_c, 0, 42, 58
3, 185406, Note_on_c, 0, 43, 0
3, 185460, Note_on_c, 0, 43, 58
3, 185466, Note_on_c, 0, 42, 0
3, 185520, Note_on_c, 0, 43, 0
3, 185520, Note_on_c, 0, 30, 84
3, 185580, Note_on_c, 0, 42, 63
3, 185586, Note_on_c, 0, 30, 0
3, 185640, Note_on_c, 0, 41, 62
3, 185646, Note_on_c, 0, 42, 0
3, 185700, Note_on_c, 0, 42, 62
3, 185706, Note_on_c, 0, 41, 0
3, 185760, Note_on_c, 0, 42, 0
3, 185760, Note_on_c, 0, 29, 93
3, 185820, Note_on_c, 0, 41, 66
3, 185826, Note_on_c, 0, 29, 0
3, 185880, Note_on_c, 0, 40, 66
3, 185886, Note_on_c, 0, 41, 0
3, 185940, Note_on_c, 0, 41, 66
3, 185946, Note_on_c, 0, 40, 0
3, 186000, Note_on_c, 0, 41, 0
3, 186000, Note_on_c, 0, 29, 90
3, 186060, Note_on_c, 0, 41, 68
3, 186066, Note_on_c, 0, 29, 0
3, 186120, Note_on_c, 0, 40, 68
3, 186126, Note_on_c, 0, 41, 0
3, 186180, Note_on_c, 0, 41, 68
3, 186186, Note_on_c, 0, 40, 0
3, 186240, Note_on_c, 0, 41, 0
3, 186240, Note_on_c, 0, 34, 96
3, 186480, Note_on_c, 0, 34, 0
3, 186600, Note_on_c, 0, 65, 39
3, 186720, Note_on_c, 0, 65, 0
3, 186720, Note_on_c, 0, 67, 42
3, 186840, Note_on_c, 0, 67, 0
3, 186840, Note_on_c, 0, 65, 36
3, 186960, Note_on_c, 0, 65, 0
3, 186960, Note_on_c, 0, 63, 39
3, 187080, Note_on_c, 0, 63, 0
3, 187080, Note_on_c, 0, 62, 36
3, 187200, Note_on_c, 0, 62, 0
3, 187200, Note_on_c, 0, 53, 35
3, 187200, Note_on_c, 0, 60, 42
3, 187320, Note_on_c, 0, 60, 0
3, 187320, Note_on_c, 0, 58, 37
3, 187440, Note_on_c, 0, 58, 0
3, 187440, Note_on_c, 0, 57, 39
3, 187560, Note_on_c, 0, 57, 0
3, 187560, Note_on_c, 0, 55, 36
3, 187680, Note_on_c, 0, 55, 0
3, 187680, Note_on_c, 0, 53, 0
3, 187680, Note_on_c, 0, 41, 35
3, 187680, Note_on_c, 0, 53, 39
3, 187800, Note_on_c, 0, 53, 0
3, 187800, Note_on_c, 0, 51, 37
3, 187920, Note_on_c, 0, 51, 0
3, 187920, Note_on_c, 0, 50, 36
3, 188040, Note_on_c, 0, 50, 0
3, 188040, Note_on_c, 0, 48, 34
3, 188160, Note_on_c, 0, 48, 0
3, 188160, Note_on_c, 0, 41, 0
3, 188160, Note_on_c, 0, 46, 53
3, 188400, Note_on_c, 0, 46, 0
3, 188520, Note_on_c, 0, 53, 33
3, 188640, Note_on_c, 0, 53, 0
3, 188640, Note_on_c, 0, 55, 35
3, 188760, Note_on_c, 0, 55, 0
3, 188760, Note_on_c, 0, 53, 32
3, 188880, Note_on_c, 0, 53, 0
3, 188880, Note_on_c, 0, 51, 33
3, 189000, Note_on_c, 0, 51, 0
3, 189000, Note_on_c, 0, 50, 32
3, 189120, Note_on_c, 0, 50, 0
3, 189120, Note_on_c, 0, 41, 30
3, 189120, Note_on_c, 0, 48, 35
3, 189240, Note_on_c, 0, 48, 0
3, 189240, Note_on_c, 0, 46, 32
3, 189360, Note_on_c, 0, 46, 0
3, 189360, Note_on_c, 0, 45, 33
3, 189480, Note_on_c, 0, 45, 0
3, 189480, Note_on_c, 0, 43, 29
3, 189600, Note_on_c, 0, 43, 0
3, 189600, Note_on_c, 0, 41, 0
3, 189600, Note_on_c, 0, 29, 30
3, 189600, Note_on_c, 0, 41, 33
3, 189720, Note_on_c, 0, 41, 0
3, 189720, Note_on_c, 0, 39, 31
3, 189840, Note_on_c, 0, 39, 0
3, 189840, Note_on_c, 0, 38, 30
3, 189960, Note_on_c, 0, 38, 0
3, 189960, Note_on_c, 0, 36, 28
3, 190080, Note_on_c, 0, 36, 0
3, 190080, Note_on_c, 0, 29, 0
3, 190080, Note_on_c, 0, 34, 31
3, 190140, Note_on_c, 0, 34, 0
3, 190320, Note_on_c, 0, 53, 35
3, 190320, Note_on_c, 0, 60, 35
3, 190380, Note_on_c, 0, 60, 0
3, 190380, Note_on_c, 0, 53, 0
3, 190560, Note_on_c, 0, 58, 35
3, 190620, Note_on_c, 0, 58, 0
3, 190800, Note_on_c, 0, 41, 70
3, 190800, Note_on_c, 0, 53, 84
3, 190860, Note_on_c, 0, 53, 0
3, 190860, Note_on_c, 0, 41, 0
3, 191040, Note_on_c, 0, 34, 79
3, 191040, Note_on_c, 0, 46, 93
3, 191100, Note_on_c, 0, 46, 0
3, 191100, Note_on_c, 0, 34, 0
3, 191100, End_track
4, 0, Start_track
4, 0, Title_t, "Pedale"
4, 0, Program_c, 0, 0
4, 1518, Control_c, 0, 64, 127
4, 1685, Control_c, 0, 64, 0
4, 1765, Control_c, 0, 64, 127
4, 1920, Control_c, 0, 64, 0
4, 3438, Control_c, 0, 64, 127
4, 3605, Control_c, 0, 64, 0
4, 3671, Control_c, 0, 64, 127
4, 3844, Control_c, 0, 64, 0
4, 4857, Control_c, 0, 64, 127
4, 5051, Control_c, 0, 64, 0
4, 5104, Control_c, 0, 64, 127
4, 5287, Control_c, 0, 64, 0
4, 5351, Control_c, 0, 64, 127
4, 5527, Control_c, 0, 64, 0
4, 5591, Control_c, 0, 64, 127
4, 5768, Control_c, 0, 64, 0
4, 5835, Control_c, 0, 64, 127
4, 6007, Control_c, 0, 64, 0
4, 6057, Control_c, 0, 64, 127
4, 6248, Control_c, 0, 64, 0
4, 6309, Control_c, 0, 64, 127
4, 6485, Control_c, 0, 64, 0
4, 6549, Control_c, 0, 64, 127
4, 6720, Control_c, 0, 64, 0
4, 6789, Control_c, 0, 64, 127
4, 6971, Control_c, 0, 64, 0
4, 7035, Control_c, 0, 64, 127
4, 7210, Control_c, 0, 64, 0
4, 7269, Control_c, 0, 64, 127
4, 7448, Control_c, 0, 64, 0
4, 7497, Control_c, 0, 64, 127
4, 7692, Control_c, 0, 64, 0
4, 9198, Control_c, 0, 64, 127
4, 9365, Control_c, 0, 64, 0
4, 9445, Control_c, 0, 64, 127
4, 9600, Control_c, 0, 64, 0
4, 11118, Control_c, 0, 64, 127
4, 11285, Control_c, 0, 64, 0
4, 11351, Control_c, 0, 64, 127
4, 11524, Control_c, 0, 64, 0
4, 12537, Control_c, 0, 64, 127
4, 12731, Control_c, 0, 64, 0
4, 12784, Control_c, 0, 64, 127
4, 12967, Control_c, 0, 64, 0
4, 13031, Control_c, 0, 64, 127
4, 13207, Control_c, 0, 64, 0
4, 13271, Control_c, 0, 64, 127
4, 13448, Control_c, 0, 64, 0
4, 13515, Control_c, 0, 64, 127
4, 13687, Control_c, 0, 64, 0
4, 13737, Control_c, 0, 64, 127
4, 13928, Control_c, 0, 64, 0
4, 13989, Control_c, 0, 64, 127
4, 14165, Control_c, 0, 64, 0
4, 14229, Control_c, 0, 64, 127
4, 14400, Control_c, 0, 64, 0
4, 14469, Control_c, 0, 64, 127
4, 14651, Control_c, 0, 64, 0
4, 14715, Control_c, 0, 64, 127
4, 14890, Control_c, 0, 64, 0
4, 14949, Control_c, 0, 64, 127
4, 15128, Control_c, 0, 64, 0
4, 15177, Control_c, 0, 64, 127
4, 15372, Control_c, 0, 64, 0
4, 15866, Control_c, 0, 64, 127
4, 16811, Control_c, 0, 64, 0
4, 16866, Control_c, 0, 64, 127
4, 17048, Control_c, 0, 64, 0
4, 17086, Control_c, 0, 64, 127
4, 17280, Control_c, 0, 64, 0
4, 17958, Control_c, 0, 64, 127
4, 18240, Control_c, 0, 64, 0
4, 18286, Control_c, 0, 64, 127
4, 18728, Control_c, 0, 64, 0
4, 18772, Control_c, 0, 64, 127
4, 18968, Control_c, 0, 64, 0
4, 19006, Control_c, 0, 64, 127
4, 19200, Control_c, 0, 64, 0
4, 19320, Control_c, 0, 64, 127
4, 19560, Control_c, 0, 64, 0
4, 19864, Control_c, 0, 64, 127
4, 20160, Control_c, 0, 64, 0
4, 20203, Control_c, 0, 64, 127
4, 20649, Control_c, 0, 64, 0
4, 20697, Control_c, 0, 64, 127
4, 21120, Control_c, 0, 64, 0
4, 21240, Control_c, 0, 64, 127
4, 21480, Control_c, 0, 64, 0
4, 21643, Control_c, 0, 64, 127
4, 22091, Control_c, 0, 64, 0
4, 22144, Control_c, 0, 64, 127
4, 22574, Control_c, 0, 64, 0
4, 22620, Control_c, 0, 64, 127
4, 23040, Control_c, 0, 64, 0
4, 23090, Control_c, 0, 64, 127
4, 23538, Control_c, 0, 64, 0
4, 23580, Control_c, 0, 64, 127
4, 23774, Control_c, 0, 64, 0
4, 23810, Control_c, 0, 64, 127
4, 24011, Control_c, 0, 64, 0
4, 24075, Control_c, 0, 64, 127
4, 24250, Control_c, 0, 64, 0
4, 24498, Control_c, 0, 64, 0
4, 24540, Control_c, 0, 64, 127
4, 24734, Control_c, 0, 64, 0
4, 24770, Control_c, 0, 64, 127
4, 24971, Control_c, 0, 64, 0
4, 25035, Control_c, 0, 64, 127
4, 25210, Control_c, 0, 64, 0
4, 25458, Control_c, 0, 64, 0
4, 25500, Control_c, 0, 64, 127
4, 25694, Control_c, 0, 64, 0
4, 25730, Control_c, 0, 64, 127
4, 25931, Control_c, 0, 64, 0
4, 25995, Control_c, 0, 64, 127
4, 26170, Control_c, 0, 64, 0
4, 27378, Control_c, 0, 64, 0
4, 27466, Control_c, 0, 64, 127
4, 27614, Control_c, 0, 64, 0
4, 27687, Control_c, 0, 64, 127
4, 27851, Control_c, 0, 64, 0
4, 27915, Control_c, 0, 64, 127
4, 28090, Control_c, 0, 64, 0
4, 28338, Control_c, 0, 64, 0
4, 28426, Control_c, 0, 64, 127
4, 28574, Control_c, 0, 64, 0
4, 28647, Control_c, 0, 64, 127
4, 28811, Control_c, 0, 64, 0
4, 28875, Control_c, 0, 64, 127
4, 29050, Control_c, 0, 64, 0
4, 30770, Control_c, 0, 64, 127
4, 31688, Control_c, 0, 64, 0
4, 31717, Control_c, 0, 64, 127
4, 32640, Control_c, 0, 64, 0
4, 32690, Control_c, 0, 64, 127
4, 33608, Control_c, 0, 64, 0
4, 33637, Control_c, 0, 64, 127
4, 34560, Control_c, 0, 64, 0
4, 34610, Control_c, 0, 64, 127
4, 35520, Control_c, 0, 64, 0
4, 35570, Control_c, 0, 64, 127
4, 36480, Control_c, 0, 64, 0
4, 36530, Control_c, 0, 64, 127
4, 37446, Control_c, 0, 64, 0
4, 37483, Control_c, 0, 64, 127
4, 37929, Control_c, 0, 64, 0
4, 37957, Control_c, 0, 64, 127
4, 38168, Control_c, 0, 64, 0
4, 38209, Control_c, 0, 64, 127
4, 38400, Control_c, 0, 64, 0
4, 48558, Control_c, 0, 64, 127
4, 48725, Control_c, 0, 64, 0
4, 48805, Control_c, 0, 64, 127
4, 48960, Control_c, 0, 64, 0
4, 50478, Control_c, 0, 64, 127
4, 50645, Control_c, 0, 64, 0
4, 50711, Control_c, 0, 64, 127
4, 50884, Control_c, 0, 64, 0
4, 51897, Control_c, 0, 64, 127
4, 52091, Control_c, 0, 64, 0
4, 52144, Control_c, 0, 64, 127
4, 52327, Control_c, 0, 64, 0
4, 52391, Control_c, 0, 64, 127
4, 52567, Control_c, 0, 64, 0
4, 52631, Control_c, 0, 64, 127
4, 52808, Control_c, 0, 64, 0
4, 52875, Control_c, 0, 64, 127
4, 53047, Control_c, 0, 64, 0
4, 53097, Control_c, 0, 64, 127
4, 53288, Control_c, 0, 64, 0
4, 53349, Control_c, 0, 64, 127
4, 53525, Control_c, 0, 64, 0
4, 53589, Control_c, 0, 64, 127
4, 53760, Control_c, 0, 64, 0
4, 53829, Control_c, 0, 64, 127
4, 54011, Control_c, 0, 64, 0
4, 54075, Control_c, 0, 64, 127
4, 54250, Control_c, 0, 64, 0
4, 54309, Control_c, 0, 64, 127
4, 54488, Control_c, 0, 64, 0
4, 54537, Control_c, 0, 64, 127
4, 54732, Control_c, 0, 64, 0
4, 56238, Control_c, 0, 64, 127
4, 56405, Control_c, 0, 64, 0
4, 56485, Control_c, 0, 64, 127
4, 56640, Control_c, 0, 64, 0
4, 58158, Control_c, 0, 64, 127
4, 58325, Control_c, 0, 64, 0
4, 58391, Control_c, 0, 64, 127
4, 58564, Control_c, 0, 64, 0
4, 59577, Control_c, 0, 64, 127
4, 59771, Control_c, 0, 64, 0
4, 59824, Control_c, 0, 64, 127
4, 60007, Control_c, 0, 64, 0
4, 60071, Control_c, 0, 64, 127
4, 60247, Control_c, 0, 64, 0
4, 60311, Control_c, 0, 64, 127
4, 60488, Control_c, 0, 64, 0
4, 60555, Control_c, 0, 64, 127
4, 60727, Control_c, 0, 64, 0
4, 60777, Control_c, 0, 64, 127
4, 60968, Control_c, 0, 64, 0
4, 61029, Control_c, 0, 64, 127
4, 61205, Control_c, 0, 64, 0
4, 61269, Control_c, 0, 64, 127
4, 61440, Control_c, 0, 64, 0
4, 61509, Control_c, 0, 64, 127
4, 61691, Control_c, 0, 64, 0
4, 61755, Control_c, 0, 64, 127
4, 61930, Control_c, 0, 64, 0
4, 61989, Control_c, 0, 64, 127
4, 62168, Control_c, 0, 64, 0
4, 62217, Control_c, 0, 64, 127
4, 62412, Control_c, 0, 64, 0
4, 62906, Control_c, 0, 64, 127
4, 63851, Control_c, 0, 64, 0
4, 63906, Control_c, 0, 64, 127
4, 64088, Control_c, 0, 64, 0
4, 64126, Control_c, 0, 64, 127
4, 64320, Control_c, 0, 64, 0
4, 64998, Control_c, 0, 64, 127
4, 65280, Control_c, 0, 64, 0
4, 65375, Control_c, 0, 64, 127
4, 65768, Control_c, 0, 64, 0
4, 65812, Control_c, 0, 64, 127
4, 66008, Control_c, 0, 64, 0
4, 66046, Control_c, 0, 64, 127
4, 66240, Control_c, 0, 64, 0
4, 66360, Control_c, 0, 64, 127
4, 66600, Control_c, 0, 64, 0
4, 69120, Control_c, 0, 64, 0
4, 72000, Control_c, 0, 64, 0
4, 72977, Control_c, 0, 64, 127
4, 73063, Control_c, 0, 64, 0
4, 73229, Control_c, 0, 64, 127
4, 73325, Control_c, 0, 64, 0
4, 73940, Control_c, 0, 64, 127
4, 74169, Control_c, 0, 64, 0
4, 74200, Control_c, 0, 64, 127
4, 74409, Control_c, 0, 64, 0
4, 74457, Control_c, 0, 64, 127
4, 74645, Control_c, 0, 64, 0
4, 74680, Control_c, 0, 64, 127
4, 74880, Control_c, 0, 64, 0
4, 75402, Control_c, 0, 64, 127
4, 75604, Control_c, 0, 64, 0
4, 75633, Control_c, 0, 64, 127
4, 75840, Control_c, 0, 64, 0
4, 76362, Control_c, 0, 64, 127
4, 76564, Control_c, 0, 64, 0
4, 76593, Control_c, 0, 64, 127
4, 76800, Control_c, 0, 64, 0
4, 78826, Control_c, 0, 64, 127
4, 79221, Control_c, 0, 64, 0
4, 80746, Control_c, 0, 64, 127
4, 81092, Control_c, 0, 64, 0
4, 82606, Control_c, 0, 64, 127
4, 82926, Control_c, 0, 64, 0
4, 84526, Control_c, 0, 64, 127
4, 84846, Control_c, 0, 64, 0
4, 85440, Control_c, 0, 64, 0
4, 86400, Control_c, 0, 64, 0
4, 87360, Control_c, 0, 64, 0
4, 88320, Control_c, 0, 64, 0
4, 89280, Control_c, 0, 64, 0
4, 90326, Control_c, 0, 64, 127
4, 90734, Control_c, 0, 64, 0
4, 91200, Control_c, 0, 64, 0
4, 94080, Control_c, 0, 64, 0
4, 95057, Control_c, 0, 64, 127
4, 95143, Control_c, 0, 64, 0
4, 95309, Control_c, 0, 64, 127
4, 95405, Control_c, 0, 64, 0
4, 96020, Control_c, 0, 64, 127
4, 96249, Control_c, 0, 64, 0
4, 96280, Control_c, 0, 64, 127
4, 96489, Control_c, 0, 64, 0
4, 96537, Control_c, 0, 64, 127
4, 96725, Control_c, 0, 64, 0
4, 96760, Control_c, 0, 64, 127
4, 96960, Control_c, 0, 64, 0
4, 97482, Control_c, 0, 64, 127
4, 97684, Control_c, 0, 64, 0
4, 97713, Control_c, 0, 64, 127
4, 97920, Control_c, 0, 64, 0
4, 98442, Control_c, 0, 64, 127
4, 98644, Control_c, 0, 64, 0
4, 98673, Control_c, 0, 64, 127
4, 98880, Control_c, 0, 64, 0
4, 99840, Control_c, 0, 64, 0
4, 100800, Control_c, 0, 64, 0
4, 101760, Control_c, 0, 64, 0
4, 105617, Control_c, 0, 64, 127
4, 106577, Control_c, 0, 64, 0
4, 106606, Control_c, 0, 64, 127
4, 107520, Control_c, 0, 64, 0
4, 107803, Control_c, 0, 64, 127
4, 108012, Control_c, 0, 64, 0
4, 108261, Control_c, 0, 64, 127
4, 108480, Control_c, 0, 64, 0
4, 108772, Control_c, 0, 64, 127
4, 108971, Control_c, 0, 64, 0
4, 109701, Control_c, 0, 64, 127
4, 109934, Control_c, 0, 64, 0
4, 110181, Control_c, 0, 64, 127
4, 110403, Control_c, 0, 64, 0
4, 110668, Control_c, 0, 64, 127
4, 110895, Control_c, 0, 64, 0
4, 111410, Control_c, 0, 64, 127
4, 111608, Control_c, 0, 64, 0
4, 111678, Control_c, 0, 64, 127
4, 111846, Control_c, 0, 64, 0
4, 111932, Control_c, 0, 64, 127
4, 112088, Control_c, 0, 64, 0
4, 112158, Control_c, 0, 64, 127
4, 112320, Control_c, 0, 64, 0
4, 112366, Control_c, 0, 64, 127
4, 112570, Control_c, 0, 64, 0
4, 112610, Control_c, 0, 64, 127
4, 112815, Control_c, 0, 64, 0
4, 112857, Control_c, 0, 64, 127
4, 113045, Control_c, 0, 64, 0
4, 113086, Control_c, 0, 64, 127
4, 113280, Control_c, 0, 64, 0
4, 113360, Control_c, 0, 64, 127
4, 113533, Control_c, 0, 64, 0
4, 113569, Control_c, 0, 64, 127
4, 113775, Control_c, 0, 64, 0
4, 113820, Control_c, 0, 64, 127
4, 114008, Control_c, 0, 64, 0
4, 114052, Control_c, 0, 64, 127
4, 114249, Control_c, 0, 64, 0
4, 114277, Control_c, 0, 64, 127
4, 114391, Control_c, 0, 64, 0
4, 114423, Control_c, 0, 64, 127
4, 114491, Control_c, 0, 64, 0
4, 114523, Control_c, 0, 64, 127
4, 114610, Control_c, 0, 64, 0
4, 114646, Control_c, 0, 64, 127
4, 114731, Control_c, 0, 64, 0
4, 114763, Control_c, 0, 64, 127
4, 114855, Control_c, 0, 64, 0
4, 114886, Control_c, 0, 64, 127
4, 114973, Control_c, 0, 64, 0
4, 115012, Control_c, 0, 64, 127
4, 115091, Control_c, 0, 64, 0
4, 115117, Control_c, 0, 64, 127
4, 115200, Control_c, 0, 64, 0
4, 115758, Control_c, 0, 64, 127
4, 115925, Control_c, 0, 64, 0
4, 116005, Control_c, 0, 64, 127
4, 116160, Control_c, 0, 64, 0
4, 116792, Control_c, 0, 64, 127
4, 116885, Control_c, 0, 64, 0
4, 116920, Control_c, 0, 64, 127
4, 117000, Control_c, 0, 64, 0
4, 117060, Control_c, 0, 64, 127
4, 117126, Control_c, 0, 64, 0
4, 117160, Control_c, 0, 64, 127
4, 117246, Control_c, 0, 64, 0
4, 117292, Control_c, 0, 64, 127
4, 117369, Control_c, 0, 64, 0
4, 117409, Control_c, 0, 64, 127
4, 117490, Control_c, 0, 64, 0
4, 117526, Control_c, 0, 64, 127
4, 117605, Control_c, 0, 64, 0
4, 117646, Control_c, 0, 64, 127
4, 117733, Control_c, 0, 64, 0
4, 117766, Control_c, 0, 64, 127
4, 117849, Control_c, 0, 64, 0
4, 117877, Control_c, 0, 64, 127
4, 117970, Control_c, 0, 64, 0
4, 118006, Control_c, 0, 64, 127
4, 118080, Control_c, 0, 64, 0
4, 118726, Control_c, 0, 64, 127
4, 118804, Control_c, 0, 64, 0
4, 118836, Control_c, 0, 64, 127
4, 119040, Control_c, 0, 64, 0
4, 119097, Control_c, 0, 64, 127
4, 119291, Control_c, 0, 64, 0
4, 119344, Control_c, 0, 64, 127
4, 119527, Control_c, 0, 64, 0
4, 119591, Control_c, 0, 64, 127
4, 119767, Control_c, 0, 64, 0
4, 119831, Control_c, 0, 64, 127
4, 120008, Control_c, 0, 64, 0
4, 120075, Control_c, 0, 64, 127
4, 120247, Control_c, 0, 64, 0
4, 120297, Control_c, 0, 64, 127
4, 120488, Control_c, 0, 64, 0
4, 120549, Control_c, 0, 64, 127
4, 120725, Control_c, 0, 64, 0
4, 120789, Control_c, 0, 64, 127
4, 120960, Control_c, 0, 64, 0
4, 121029, Control_c, 0, 64, 127
4, 121211, Control_c, 0, 64, 0
4, 121275, Control_c, 0, 64, 127
4, 121450, Control_c, 0, 64, 0
4, 121509, Control_c, 0, 64, 127
4, 121688, Control_c, 0, 64, 0
4, 121737, Control_c, 0, 64, 127
4, 121932, Control_c, 0, 64, 0
4, 122426, Control_c, 0, 64, 127
4, 123371, Control_c, 0, 64, 0
4, 123426, Control_c, 0, 64, 127
4, 123608, Control_c, 0, 64, 0
4, 123646, Control_c, 0, 64, 127
4, 123840, Control_c, 0, 64, 0
4, 124518, Control_c, 0, 64, 127
4, 124800, Control_c, 0, 64, 0
4, 124846, Control_c, 0, 64, 127
4, 125288, Control_c, 0, 64, 0
4, 125332, Control_c, 0, 64, 127
4, 125528, Control_c, 0, 64, 0
4, 125566, Control_c, 0, 64, 127
4, 125760, Control_c, 0, 64, 0
4, 125880, Control_c, 0, 64, 127
4, 126120, Control_c, 0, 64, 0
4, 126424, Control_c, 0, 64, 127
4, 126720, Control_c, 0, 64, 0
4, 126763, Control_c, 0, 64, 127
4, 127209, Control_c, 0, 64, 0
4, 127257, Control_c, 0, 64, 127
4, 127680, Control_c, 0, 64, 0
4, 127800, Control_c, 0, 64, 127
4, 128040, Control_c, 0, 64, 0
4, 128344, Control_c, 0, 64, 127
4, 128640, Control_c, 0, 64, 0
4, 128683, Control_c, 0, 64, 127
4, 129129, Control_c, 0, 64, 0
4, 129177, Control_c, 0, 64, 127
4, 129600, Control_c, 0, 64, 0
4, 129720, Control_c, 0, 64, 127
4, 129960, Control_c, 0, 64, 0
4, 130123, Control_c, 0, 64, 127
4, 130571, Control_c, 0, 64, 0
4, 130624, Control_c, 0, 64, 127
4, 131054, Control_c, 0, 64, 0
4, 131100, Control_c, 0, 64, 127
4, 131520, Control_c, 0, 64, 0
4, 131570, Control_c, 0, 64, 127
4, 132018, Control_c, 0, 64, 0
4, 132060, Control_c, 0, 64, 127
4, 132254, Control_c, 0, 64, 0
4, 132290, Control_c, 0, 64, 127
4, 132491, Control_c, 0, 64, 0
4, 132555, Control_c, 0, 64, 127
4, 132730, Control_c, 0, 64, 0
4, 132978, Control_c, 0, 64, 0
4, 133020, Control_c, 0, 64, 127
4, 133214, Control_c, 0, 64, 0
4, 133250, Control_c, 0, 64, 127
4, 133451, Control_c, 0, 64, 0
4, 133515, Control_c, 0, 64, 127
4, 133690, Control_c, 0, 64, 0
4, 133938, Control_c, 0, 64, 0
4, 133980, Control_c, 0, 64, 127
4, 134174, Control_c, 0, 64, 0
4, 134210, Control_c, 0, 64, 127
4, 134411, Control_c, 0, 64, 0
4, 134475, Control_c, 0, 64, 127
4, 134650, Control_c, 0, 64, 0
4, 135858, Control_c, 0, 64, 0
4, 135946, Control_c, 0, 64, 127
4, 136094, Control_c, 0, 64, 0
4, 136167, Control_c, 0, 64, 127
4, 136331, Control_c, 0, 64, 0
4, 136395, Control_c, 0, 64, 127
4, 136570, Control_c, 0, 64, 0
4, 136818, Control_c, 0, 64, 0
4, 136906, Control_c, 0, 64, 127
4, 137054, Control_c, 0, 64, 0
4, 137127, Control_c, 0, 64, 127
4, 137291, Control_c, 0, 64, 0
4, 137355, Control_c, 0, 64, 127
4, 137530, Control_c, 0, 64, 0
4, 137880, Control_c, 0, 64, 127
4, 138013, Control_c, 0, 64, 0
4, 138075, Control_c, 0, 64, 127
4, 138240, Control_c, 0, 64, 0
4, 138315, Control_c, 0, 64, 127
4, 138492, Control_c, 0, 64, 0
4, 138549, Control_c, 0, 64, 127
4, 138735, Control_c, 0, 64, 0
4, 138812, Control_c, 0, 64, 127
4, 138974, Control_c, 0, 64, 0
4, 139040, Control_c, 0, 64, 127
4, 139200, Control_c, 0, 64, 0
4, 139250, Control_c, 0, 64, 127
4, 140168, Control_c, 0, 64, 0
4, 140197, Control_c, 0, 64, 127
4, 141120, Control_c, 0, 64, 0
4, 141170, Control_c, 0, 64, 127
4, 142088, Control_c, 0, 64, 0
4, 142117, Control_c, 0, 64, 127
4, 143040, Control_c, 0, 64, 0
4, 143090, Control_c, 0, 64, 127
4, 144000, Control_c, 0, 64, 0
4, 144050, Control_c, 0, 64, 127
4, 144960, Control_c, 0, 64, 0
4, 145010, Control_c, 0, 64, 127
4, 145926, Control_c, 0, 64, 0
4, 145963, Control_c, 0, 64, 127
4, 146880, Control_c, 0, 64, 0
4, 147438, Control_c, 0, 64, 127
4, 147605, Control_c, 0, 64, 0
4, 147685, Control_c, 0, 64, 127
4, 147840, Control_c, 0, 64, 0
4, 148471, Control_c, 0, 64, 127
4, 148573, Control_c, 0, 64, 0
4, 149358, Control_c, 0, 64, 127
4, 149525, Control_c, 0, 64, 0
4, 149591, Control_c, 0, 64, 127
4, 149764, Control_c, 0, 64, 0
4, 150720, Control_c, 0, 64, 0
4, 151278, Control_c, 0, 64, 127
4, 151445, Control_c, 0, 64, 0
4, 151525, Control_c, 0, 64, 127
4, 151680, Control_c, 0, 64, 0
4, 162297, Control_c, 0, 64, 127
4, 162491, Control_c, 0, 64, 0
4, 162544, Control_c, 0, 64, 127
4, 162727, Control_c, 0, 64, 0
4, 162791, Control_c, 0, 64, 127
4, 162967, Control_c, 0, 64, 0
4, 163031, Control_c, 0, 64, 127
4, 163208, Control_c, 0, 64, 0
4, 163275, Control_c, 0, 64, 127
4, 163447, Control_c, 0, 64, 0
4, 163497, Control_c, 0, 64, 127
4, 163688, Control_c, 0, 64, 0
4, 163749, Control_c, 0, 64, 127
4, 163925, Control_c, 0, 64, 0
4, 163989, Control_c, 0, 64, 127
4, 164160, Control_c, 0, 64, 0
4, 164229, Control_c, 0, 64, 127
4, 164411, Control_c, 0, 64, 0
4, 164475, Control_c, 0, 64, 127
4, 164650, Control_c, 0, 64, 0
4, 164709, Control_c, 0, 64, 127
4, 164888, Control_c, 0, 64, 0
4, 164937, Control_c, 0, 64, 127
4, 165132, Control_c, 0, 64, 0
4, 169977, Control_c, 0, 64, 127
4, 170171, Control_c, 0, 64, 0
4, 170224, Control_c, 0, 64, 127
4, 170407, Control_c, 0, 64, 0
4, 170471, Control_c, 0, 64, 127
4, 170647, Control_c, 0, 64, 0
4, 170711, Control_c, 0, 64, 127
4, 170888, Control_c, 0, 64, 0
4, 170955, Control_c, 0, 64, 127
4, 171127, Control_c, 0, 64, 0
4, 171177, Control_c, 0, 64, 127
4, 171368, Control_c, 0, 64, 0
4, 171429, Control_c, 0, 64, 127
4, 171605, Control_c, 0, 64, 0
4, 171669, Control_c, 0, 64, 127
4, 171690, Control_c, 0, 64, 0
4, 172330, Control_c, 0, 64, 0
4, 172389, Control_c, 0, 64, 127
4, 172568, Control_c, 0, 64, 0
4, 172617, Control_c, 0, 64, 127
4, 172812, Control_c, 0, 64, 0
4, 173306, Control_c, 0, 64, 127
4, 174251, Control_c, 0, 64, 0
4, 174306, Control_c, 0, 64, 127
4, 174488, Control_c, 0, 64, 0
4, 174526, Control_c, 0, 64, 127
4, 174720, Control_c, 0, 64, 0
4, 174900, Control_c, 0, 64, 127
4, 175208, Control_c, 0, 64, 0
4, 175348, Control_c, 0, 64, 127
4, 175687, Control_c, 0, 64, 0
4, 175768, Control_c, 0, 64, 127
4, 176173, Control_c, 0, 64, 0
4, 176266, Control_c, 0, 64, 127
4, 176649, Control_c, 0, 64, 0
4, 176732, Control_c, 0, 64, 127
4, 177132, Control_c, 0, 64, 0
4, 177254, Control_c, 0, 64, 127
4, 177600, Control_c, 0, 64, 0
4, 178574, Control_c, 0, 64, 127
4, 178948, Control_c, 0, 64, 0
4, 182453, Control_c, 0, 64, 127
4, 182658, Control_c, 0, 64, 0
4, 182686, Control_c, 0, 64, 127
4, 182887, Control_c, 0, 64, 0
4, 182926, Control_c, 0, 64, 127
4, 183128, Control_c, 0, 64, 0
4, 183152, Control_c, 0, 64, 127
4, 183360, Control_c, 0, 64, 0
4, 184373, Control_c, 0, 64, 127
4, 184578, Control_c, 0, 64, 0
4, 184606, Control_c, 0, 64, 127
4, 184807, Control_c, 0, 64, 0
4, 184846, Control_c, 0, 64, 127
4, 185051, Control_c, 0, 64, 0
4, 185083, Control_c, 0, 64, 127
4, 185280, Control_c, 0, 64, 0
4, 186293, Control_c, 0, 64, 127
4, 186343, Control_c, 0, 64, 0
4, 188213, Control_c, 0, 64, 127
4, 188263, Control_c, 0, 64, 0
4, 188263, End_track
5, 0, Start_track
5, 0, Title_t, "Beethoven: Grande Sonate Opus 22 - 4. movement"
5, 0, End_track
6, 0, Start_track
6, 0, Title_t, "Copyright © 2009 by Bernd Krueger"
6, 0, End_track
7, 0, Start_track
7, 0, Title_t, "http://www.piano-midi.de/"
7, 0, End_track
8, 0, Start_track
8, 0, Title_t, "Edition: 2012-05-31"
8, 0, End_track
9, 0, Start_track
9, 0, Title_t, "Spur 8"
9, 0, End_track
10, 0, Start_track
10, 0, Title_t, "Spur 9"
10, 0, End_track
11, 0, Start_track
11, 0, Title_t, "Spur 10"
11, 0, End_track
12, 0, Start_track
12, 0, Title_t, "Spur 11"
12, 0, End_track
13, 0, Start_track
13, 0, Title_t, "Spur 12"
13, 0, End_track
14, 0, Start_track
14, 0, Title_t, "Spur 13"
14, 0, End_track
15, 0, Start_track
15, 0, Title_t, "Spur 14"
15, 0, End_track
16, 0, Start_track
16, 0, Title_t, "Spur 15"
16, 0, End_track
17, 0, Start_track
17, 0, Title_t, "Spur 16"
17, 0, End_track
0, 0, End_of_file
