0, 0, Header, 1, 17, 480
1, 0, Start_track
1, 0, Title_t, "Grande Sonata Opus 22 3. movement"
1, 0, Copyright_t, "Copyright © 2009 by Bernd Krueger"
1, 0, Text_t, "Ludwig van Beethoven"
1, 0, Text_t, "Minuetto"
1, 0, Text_t, "Erstellt: 24.10.2009\012"
1, 0, Text_t, "Update: 29.5.2012\012"
1, 0, Text_t, "Dauer: 3:03 Minuten\012"
1, 0, Time_signature, 3, 2, 24, 8
1, 0, Key_signature, -2, "major"
1, 0, Tempo, 540687
1, 960, Tempo, 508431
1, 960, Marker_t, "Teil 1"
1, 1320, Tempo, 556948
1, 1440, Tempo, 506329
1, 2400, Tempo, 493827
1, 2640, Tempo, 517911
1, 2880, Tempo, 492611
1, 4080, Tempo, 515508
1, 4320, Tempo, 494805
1, 5640, Tempo, 543331
1, 5760, Tempo, 513128
1, 6720, Tempo, 492611
1, 8040, Tempo, 522830
1, 8160, Tempo, 490436
1, 9480, Tempo, 515508
1, 9600, Tempo, 490436
1, 9960, Tempo, 508431
1, 10080, Tempo, 490436
1, 10440, Tempo, 510769
1, 10560, Tempo, 492611
1, 11280, Tempo, 556948
1, 11400, Tempo, 622665
1, 11520, Tempo, 540687
1, 12000, Tempo, 568720
1, 12480, Tempo, 508431
1, 12480, Marker_t, "Teil 1 Wiederholung"
1, 12840, Tempo, 556948
1, 12960, Tempo, 504202
1, 13920, Tempo, 485830
1, 14160, Tempo, 517911
1, 14400, Tempo, 492611
1, 15360, Tempo, 483871
1, 15600, Tempo, 515508
1, 15840, Tempo, 494805
1, 16800, Tempo, 489796
1, 17160, Tempo, 543331
1, 17280, Tempo, 513128
1, 18240, Tempo, 492611
1, 18960, Tempo, 485830
1, 19560, Tempo, 522830
1, 19680, Tempo, 490436
1, 20400, Tempo, 485830
1, 21000, Tempo, 515508
1, 21120, Tempo, 490436
1, 21480, Tempo, 508431
1, 21600, Tempo, 490436
1, 21960, Tempo, 510769
1, 22080, Tempo, 492611
1, 22800, Tempo, 556948
1, 22920, Tempo, 648649
1, 23040, Tempo, 540687
1, 23520, Tempo, 609013
1, 23955, Tempo, 441566
1, 23967, Tempo, 471661
1, 23969, Tempo, 483871
1, 23981, Tempo, 487805
1, 23995, Tempo, 500000
1, 24000, Marker_t, "Teil 2"
1, 24072, Tempo, 497925
1, 24130, Tempo, 495868
1, 24187, Tempo, 493827
1, 24264, Tempo, 491803
1, 24322, Tempo, 489796
1, 24379, Tempo, 487805
1, 24437, Tempo, 485830
1, 24514, Tempo, 483871
1, 24571, Tempo, 481928
1, 24629, Tempo, 480000
1, 24687, Tempo, 478088
1, 24763, Tempo, 476190
1, 24821, Tempo, 474308
1, 24879, Tempo, 472441
1, 24936, Tempo, 470588
1, 24955, Tempo, 465116
1, 25090, Tempo, 466926
1, 25205, Tempo, 468750
1, 25320, Tempo, 470588
1, 25435, Tempo, 472441
1, 25551, Tempo, 474308
1, 25666, Tempo, 476190
1, 25781, Tempo, 478088
1, 25795, Tempo, 419845
1, 25800, Tempo, 556948
1, 25920, Tempo, 503821
1, 27360, Tempo, 497018
1, 27720, Tempo, 548697
1, 27840, Tempo, 494805
1, 28560, Tempo, 551420
1, 28800, Tempo, 508431
1, 29736, Tempo, 493827
1, 29832, Tempo, 491803
1, 29909, Tempo, 489796
1, 29986, Tempo, 487805
1, 30063, Tempo, 485830
1, 30159, Tempo, 483871
1, 30235, Tempo, 481928
1, 30312, Tempo, 480000
1, 30389, Tempo, 478088
1, 30485, Tempo, 476190
1, 30562, Tempo, 474308
1, 30639, Tempo, 472441
1, 30715, Tempo, 470588
1, 30792, Tempo, 472441
1, 30850, Tempo, 474308
1, 30907, Tempo, 476190
1, 30965, Tempo, 478088
1, 31023, Tempo, 480000
1, 31080, Tempo, 481928
1, 31138, Tempo, 483871
1, 31195, Tempo, 485830
1, 31253, Tempo, 487805
1, 31311, Tempo, 489796
1, 31368, Tempo, 491803
1, 31426, Tempo, 493827
1, 31483, Tempo, 495868
1, 31541, Tempo, 497925
1, 31556, Tempo, 480000
1, 31560, Tempo, 556948
1, 31680, Tempo, 503821
1, 33120, Tempo, 497018
1, 33480, Tempo, 548697
1, 33600, Tempo, 494805
1, 34320, Tempo, 551420
1, 34560, Tempo, 508431
1, 35520, Tempo, 508431
1, 35880, Tempo, 556948
1, 36000, Tempo, 494805
1, 37200, Tempo, 517911
1, 37440, Tempo, 492611
1, 38400, Tempo, 489796
1, 38640, Tempo, 515508
1, 38880, Tempo, 494805
1, 40200, Tempo, 543331
1, 40320, Tempo, 513128
1, 41280, Tempo, 492611
1, 42600, Tempo, 522830
1, 42720, Tempo, 490436
1, 44040, Tempo, 515508
1, 44160, Tempo, 490436
1, 44520, Tempo, 508431
1, 44640, Tempo, 490436
1, 45000, Tempo, 510769
1, 45120, Tempo, 492611
1, 45840, Tempo, 556948
1, 45960, Tempo, 622665
1, 46080, Tempo, 494805
1, 47280, Tempo, 517911
1, 47520, Tempo, 492611
1, 48720, Tempo, 515508
1, 48960, Tempo, 492611
1, 50160, Tempo, 515508
1, 50400, Tempo, 492611
1, 51600, Tempo, 515508
1, 52290, Tempo, 492611
1, 52560, Tempo, 515508
1, 53250, Tempo, 492611
1, 53520, Tempo, 515508
1, 53760, Tempo, 497018
1, 54600, Tempo, 551420
1, 54720, Tempo, 497018
1, 55500, Tempo, 497018
1, 55680, Tempo, 500000
1, 55680, Marker_t, "Teil 2 Wiederholung"
1, 55752, Tempo, 497925
1, 55810, Tempo, 495868
1, 55867, Tempo, 493827
1, 55944, Tempo, 491803
1, 56002, Tempo, 489796
1, 56059, Tempo, 487805
1, 56117, Tempo, 485830
1, 56142, Tempo, 483871
1, 56199, Tempo, 481928
1, 56257, Tempo, 480000
1, 56295, Tempo, 478088
1, 56353, Tempo, 476190
1, 56391, Tempo, 474308
1, 56449, Tempo, 472441
1, 56487, Tempo, 470588
1, 56545, Tempo, 468750
1, 56583, Tempo, 466926
1, 56616, Tempo, 470588
1, 56635, Tempo, 465116
1, 56770, Tempo, 466926
1, 56885, Tempo, 468750
1, 57000, Tempo, 470588
1, 57115, Tempo, 472441
1, 57231, Tempo, 474308
1, 57346, Tempo, 476190
1, 57461, Tempo, 478088
1, 57475, Tempo, 419845
1, 57480, Tempo, 556948
1, 57600, Tempo, 503821
1, 59040, Tempo, 491803
1, 59400, Tempo, 548697
1, 59520, Tempo, 494805
1, 60240, Tempo, 551420
1, 60480, Tempo, 508431
1, 61416, Tempo, 493827
1, 61422, Tempo, 504202
1, 61479, Tempo, 502092
1, 61518, Tempo, 500000
1, 61556, Tempo, 497925
1, 61595, Tempo, 495868
1, 61633, Tempo, 493827
1, 61671, Tempo, 491803
1, 61710, Tempo, 489796
1, 61748, Tempo, 487805
1, 61787, Tempo, 485830
1, 61825, Tempo, 483871
1, 61863, Tempo, 481928
1, 61915, Tempo, 481928
1, 61992, Tempo, 480000
1, 62069, Tempo, 478088
1, 62165, Tempo, 476190
1, 62242, Tempo, 474308
1, 62319, Tempo, 472441
1, 62395, Tempo, 470588
1, 62472, Tempo, 472441
1, 62530, Tempo, 474308
1, 62587, Tempo, 476190
1, 62645, Tempo, 478088
1, 62703, Tempo, 480000
1, 62760, Tempo, 481928
1, 62818, Tempo, 483871
1, 62875, Tempo, 485830
1, 62933, Tempo, 487805
1, 62991, Tempo, 489796
1, 63048, Tempo, 491803
1, 63106, Tempo, 493827
1, 63163, Tempo, 495868
1, 63221, Tempo, 497925
1, 63236, Tempo, 480000
1, 63240, Tempo, 556948
1, 63360, Tempo, 503821
1, 64800, Tempo, 487805
1, 65160, Tempo, 548697
1, 65280, Tempo, 494805
1, 66000, Tempo, 551420
1, 66240, Tempo, 508431
1, 67200, Tempo, 508431
1, 67560, Tempo, 556948
1, 67680, Tempo, 494805
1, 68640, Tempo, 487805
1, 68880, Tempo, 517911
1, 69120, Tempo, 492611
1, 70080, Tempo, 483871
1, 70320, Tempo, 515508
1, 70560, Tempo, 494805
1, 71880, Tempo, 560748
1, 72000, Tempo, 513128
1, 72960, Tempo, 492611
1, 73920, Tempo, 487805
1, 74280, Tempo, 522830
1, 74400, Tempo, 490436
1, 75360, Tempo, 485830
1, 75720, Tempo, 515508
1, 75840, Tempo, 490436
1, 76200, Tempo, 508431
1, 76320, Tempo, 490436
1, 76680, Tempo, 510769
1, 76800, Tempo, 492611
1, 77520, Tempo, 556948
1, 77640, Tempo, 622665
1, 77760, Tempo, 494805
1, 78960, Tempo, 517911
1, 79200, Tempo, 492611
1, 80400, Tempo, 515508
1, 80640, Tempo, 492611
1, 81600, Tempo, 485830
1, 81840, Tempo, 515508
1, 82080, Tempo, 492611
1, 83040, Tempo, 485830
1, 83280, Tempo, 515508
1, 83970, Tempo, 492611
1, 84240, Tempo, 515508
1, 84930, Tempo, 492611
1, 85200, Tempo, 515508
1, 85440, Tempo, 497018
1, 86280, Tempo, 551420
1, 86400, Tempo, 497018
1, 87180, Tempo, 497018
1, 87360, Tempo, 480000
1, 87360, Marker_t, "Minore Teil 1"
1, 87720, Tempo, 519481
1, 87840, Tempo, 481928
1, 88200, Tempo, 515021
1, 88320, Tempo, 481928
1, 88680, Tempo, 510638
1, 88800, Tempo, 481928
1, 89160, Tempo, 506329
1, 89280, Tempo, 481928
1, 89640, Tempo, 510638
1, 89760, Tempo, 481928
1, 90120, Tempo, 506329
1, 90240, Tempo, 481928
1, 90600, Tempo, 515021
1, 90720, Tempo, 487805
1, 91200, Tempo, 481928
1, 92040, Tempo, 500000
1, 92160, Tempo, 478088
1, 93000, Tempo, 621762
1, 93120, Tempo, 480000
1, 93480, Tempo, 519481
1, 93600, Tempo, 481928
1, 93960, Tempo, 515021
1, 94080, Tempo, 481928
1, 94440, Tempo, 510638
1, 94560, Tempo, 481928
1, 94920, Tempo, 506329
1, 95040, Tempo, 481928
1, 95400, Tempo, 510638
1, 95520, Tempo, 481928
1, 95880, Tempo, 506329
1, 96000, Tempo, 481928
1, 96360, Tempo, 515021
1, 96480, Tempo, 487805
1, 96960, Tempo, 481928
1, 97800, Tempo, 500000
1, 97920, Tempo, 478088
1, 98760, Tempo, 502092
1, 98880, Tempo, 480000
1, 98880, Marker_t, "Minore Teil 1 Wiederholung"
1, 99240, Tempo, 519481
1, 99360, Tempo, 481928
1, 99720, Tempo, 515021
1, 99840, Tempo, 478088
1, 100200, Tempo, 510638
1, 100320, Tempo, 481928
1, 100680, Tempo, 506329
1, 100800, Tempo, 478088
1, 101160, Tempo, 510638
1, 101280, Tempo, 481928
1, 101640, Tempo, 506329
1, 101760, Tempo, 478088
1, 102120, Tempo, 515021
1, 102240, Tempo, 487805
1, 102720, Tempo, 481928
1, 103560, Tempo, 500000
1, 103680, Tempo, 478088
1, 104520, Tempo, 618557
1, 104640, Tempo, 480000
1, 105000, Tempo, 519481
1, 105120, Tempo, 481928
1, 105480, Tempo, 515021
1, 105600, Tempo, 480000
1, 105960, Tempo, 510638
1, 106080, Tempo, 481928
1, 106440, Tempo, 506329
1, 106560, Tempo, 481928
1, 106920, Tempo, 510638
1, 107040, Tempo, 476190
1, 107400, Tempo, 506329
1, 107520, Tempo, 481928
1, 107880, Tempo, 515021
1, 108000, Tempo, 487805
1, 108480, Tempo, 481928
1, 109320, Tempo, 500000
1, 109440, Tempo, 478088
1, 110280, Tempo, 502092
1, 110400, Tempo, 480000
1, 110400, Marker_t, "Minore Teil 2"
1, 110520, Tempo, 480000
1, 110880, Tempo, 491803
1, 111000, Tempo, 481928
1, 111360, Tempo, 493827
1, 111480, Tempo, 481928
1, 111840, Tempo, 515021
1, 111960, Tempo, 480000
1, 112320, Tempo, 491803
1, 112440, Tempo, 481928
1, 112800, Tempo, 493827
1, 112920, Tempo, 481928
1, 113280, Tempo, 480000
1, 113400, Tempo, 480000
1, 113760, Tempo, 491803
1, 113880, Tempo, 478088
1, 114240, Tempo, 493827
1, 114360, Tempo, 481928
1, 114720, Tempo, 515021
1, 114840, Tempo, 480000
1, 115200, Tempo, 491803
1, 115320, Tempo, 481928
1, 115680, Tempo, 493827
1, 115800, Tempo, 481928
1, 116160, Tempo, 480000
1, 116520, Tempo, 519481
1, 116640, Tempo, 476190
1, 117000, Tempo, 515021
1, 117120, Tempo, 481928
1, 117480, Tempo, 510638
1, 117600, Tempo, 481928
1, 117960, Tempo, 506329
1, 118080, Tempo, 481928
1, 118440, Tempo, 510638
1, 118560, Tempo, 476190
1, 118920, Tempo, 506329
1, 119040, Tempo, 481928
1, 119400, Tempo, 515021
1, 119520, Tempo, 487805
1, 120000, Tempo, 481928
1, 120840, Tempo, 500000
1, 120960, Tempo, 478088
1, 121920, Tempo, 480000
1, 121920, Marker_t, "Minore Teil 2 Wiederholung"
1, 122040, Tempo, 480000
1, 122400, Tempo, 491803
1, 122520, Tempo, 481928
1, 122880, Tempo, 493827
1, 123000, Tempo, 481928
1, 123360, Tempo, 515021
1, 123480, Tempo, 480000
1, 123840, Tempo, 491803
1, 123960, Tempo, 481928
1, 124320, Tempo, 493827
1, 124440, Tempo, 481928
1, 124800, Tempo, 480000
1, 124920, Tempo, 480000
1, 125280, Tempo, 491803
1, 125400, Tempo, 481928
1, 125760, Tempo, 493827
1, 125880, Tempo, 481928
1, 126240, Tempo, 515021
1, 126360, Tempo, 480000
1, 126720, Tempo, 491803
1, 126840, Tempo, 481928
1, 127200, Tempo, 493827
1, 127320, Tempo, 481928
1, 127680, Tempo, 480000
1, 128040, Tempo, 519481
1, 128160, Tempo, 481928
1, 128520, Tempo, 515021
1, 128640, Tempo, 481928
1, 129000, Tempo, 510638
1, 129120, Tempo, 481928
1, 129480, Tempo, 506329
1, 129600, Tempo, 481928
1, 129960, Tempo, 510638
1, 130080, Tempo, 481928
1, 130440, Tempo, 506329
1, 130560, Tempo, 481928
1, 130920, Tempo, 515021
1, 131040, Tempo, 487805
1, 131520, Tempo, 481928
1, 132360, Tempo, 500000
1, 132480, Tempo, 478088
1, 132960, Tempo, 568720
1, 133200, Tempo, 659341
1, 133440, Tempo, 508431
1, 133440, Marker_t, "Teil 1 D.C."
1, 133800, Tempo, 556948
1, 133920, Tempo, 506329
1, 134880, Tempo, 489796
1, 135120, Tempo, 517911
1, 135360, Tempo, 492611
1, 136320, Tempo, 483871
1, 136560, Tempo, 515508
1, 136800, Tempo, 494805
1, 138120, Tempo, 543331
1, 138240, Tempo, 513128
1, 139200, Tempo, 492611
1, 140520, Tempo, 522830
1, 140640, Tempo, 481928
1, 140880, Tempo, 485830
1, 141960, Tempo, 515508
1, 142080, Tempo, 481928
1, 142440, Tempo, 508431
1, 142560, Tempo, 481928
1, 142920, Tempo, 510769
1, 143040, Tempo, 492611
1, 143760, Tempo, 556948
1, 143880, Tempo, 622665
1, 144000, Tempo, 540687
1, 144480, Tempo, 568720
1, 144960, Tempo, 500000
1, 144960, Marker_t, "Teil 2 D.C."
1, 145032, Tempo, 497925
1, 145090, Tempo, 495868
1, 145147, Tempo, 493827
1, 145224, Tempo, 491803
1, 145282, Tempo, 489796
1, 145339, Tempo, 487805
1, 145397, Tempo, 485830
1, 145422, Tempo, 483871
1, 145479, Tempo, 481928
1, 145537, Tempo, 480000
1, 145575, Tempo, 478088
1, 145633, Tempo, 476190
1, 145671, Tempo, 474308
1, 145729, Tempo, 472441
1, 145767, Tempo, 470588
1, 145825, Tempo, 468750
1, 145863, Tempo, 466926
1, 145896, Tempo, 470588
1, 145915, Tempo, 465116
1, 146050, Tempo, 466926
1, 146165, Tempo, 468750
1, 146280, Tempo, 470588
1, 146395, Tempo, 472441
1, 146511, Tempo, 474308
1, 146626, Tempo, 476190
1, 146741, Tempo, 478088
1, 146755, Tempo, 419845
1, 146760, Tempo, 556948
1, 146880, Tempo, 503821
1, 148320, Tempo, 491803
1, 148680, Tempo, 548697
1, 148800, Tempo, 494805
1, 149520, Tempo, 551420
1, 149760, Tempo, 508431
1, 150696, Tempo, 493827
1, 150702, Tempo, 504202
1, 150759, Tempo, 502092
1, 150798, Tempo, 500000
1, 150836, Tempo, 497925
1, 150875, Tempo, 495868
1, 150913, Tempo, 493827
1, 150951, Tempo, 491803
1, 150990, Tempo, 489796
1, 151028, Tempo, 487805
1, 151067, Tempo, 485830
1, 151105, Tempo, 483871
1, 151143, Tempo, 481928
1, 151179, Tempo, 480000
1, 151236, Tempo, 478088
1, 151294, Tempo, 476190
1, 151351, Tempo, 474308
1, 151409, Tempo, 472441
1, 151467, Tempo, 470588
1, 151524, Tempo, 468750
1, 151582, Tempo, 466926
1, 151620, Tempo, 465116
1, 151675, Tempo, 470588
1, 151752, Tempo, 472441
1, 151810, Tempo, 474308
1, 151867, Tempo, 476190
1, 151925, Tempo, 478088
1, 151983, Tempo, 480000
1, 152040, Tempo, 481928
1, 152098, Tempo, 483871
1, 152155, Tempo, 485830
1, 152213, Tempo, 487805
1, 152271, Tempo, 489796
1, 152328, Tempo, 491803
1, 152386, Tempo, 493827
1, 152443, Tempo, 495868
1, 152501, Tempo, 497925
1, 152516, Tempo, 480000
1, 152520, Tempo, 556948
1, 152640, Tempo, 503821
1, 154080, Tempo, 481928
1, 154440, Tempo, 548697
1, 154560, Tempo, 494805
1, 155280, Tempo, 551420
1, 155520, Tempo, 508431
1, 156480, Tempo, 508431
1, 156840, Tempo, 556948
1, 156960, Tempo, 494805
1, 157920, Tempo, 483871
1, 158160, Tempo, 517911
1, 158400, Tempo, 492611
1, 159360, Tempo, 481928
1, 159600, Tempo, 515508
1, 159840, Tempo, 494805
1, 161160, Tempo, 571429
1, 161280, Tempo, 513128
1, 162240, Tempo, 492611
1, 163200, Tempo, 487805
1, 163560, Tempo, 522830
1, 163680, Tempo, 490436
1, 164640, Tempo, 485830
1, 165000, Tempo, 515508
1, 165120, Tempo, 490436
1, 165480, Tempo, 508431
1, 165600, Tempo, 490436
1, 165960, Tempo, 510769
1, 166080, Tempo, 492611
1, 166800, Tempo, 556948
1, 166920, Tempo, 622665
1, 167040, Tempo, 494805
1, 168240, Tempo, 517911
1, 168480, Tempo, 492611
1, 169680, Tempo, 515508
1, 169920, Tempo, 492611
1, 170880, Tempo, 483871
1, 171120, Tempo, 515508
1, 171360, Tempo, 492611
1, 172320, Tempo, 481928
1, 172560, Tempo, 515508
1, 173250, Tempo, 492611
1, 173280, Tempo, 483871
1, 173520, Tempo, 515508
1, 174210, Tempo, 492611
1, 174480, Tempo, 515508
1, 174720, Tempo, 497018
1, 175560, Tempo, 551420
1, 175680, Tempo, 508475
1, 176460, Tempo, 497018
1, 176640, Marker_t, "Fine"
1, 176640, End_track
2, 0, Start_track
2, 0, Title_t, "Piano right"
2, 0, Program_c, 0, 0
2, 960, Note_on_c, 0, 62, 50
2, 1320, Note_on_c, 0, 62, 0
2, 1320, Note_on_c, 0, 63, 46
2, 1440, Note_on_c, 0, 63, 0
2, 1440, Note_on_c, 0, 65, 50
2, 2370, Note_on_c, 0, 65, 0
2, 2370, Note_on_c, 0, 69, 46
2, 2400, Note_on_c, 0, 69, 0
2, 2400, Note_on_c, 0, 67, 50
2, 2520, Note_on_c, 0, 67, 0
2, 2520, Note_on_c, 0, 65, 45
2, 2640, Note_on_c, 0, 65, 0
2, 2640, Note_on_c, 0, 67, 50
2, 2760, Note_on_c, 0, 67, 0
2, 2760, Note_on_c, 0, 69, 43
2, 2880, Note_on_c, 0, 69, 0
2, 2880, Note_on_c, 0, 70, 50
2, 3360, Note_on_c, 0, 70, 0
2, 3360, Note_on_c, 0, 65, 41
2, 3780, Note_on_c, 0, 65, 0
2, 3810, Note_on_c, 0, 69, 43
2, 3840, Note_on_c, 0, 69, 0
2, 3840, Note_on_c, 0, 67, 50
2, 3960, Note_on_c, 0, 67, 0
2, 3960, Note_on_c, 0, 65, 46
2, 4080, Note_on_c, 0, 65, 0
2, 4080, Note_on_c, 0, 67, 50
2, 4200, Note_on_c, 0, 67, 0
2, 4200, Note_on_c, 0, 69, 50
2, 4320, Note_on_c, 0, 69, 0
2, 4320, Note_on_c, 0, 70, 50
2, 4380, Note_on_c, 0, 70, 0
2, 4680, Note_on_c, 0, 69, 46
2, 4740, Note_on_c, 0, 69, 0
2, 4800, Note_on_c, 0, 70, 56
2, 4860, Note_on_c, 0, 70, 0
2, 5160, Note_on_c, 0, 72, 48
2, 5220, Note_on_c, 0, 72, 0
2, 5280, Note_on_c, 0, 74, 55
2, 5340, Note_on_c, 0, 74, 0
2, 5640, Note_on_c, 0, 76, 59
2, 5700, Note_on_c, 0, 76, 0
2, 5760, Note_on_c, 0, 70, 53
2, 5760, Note_on_c, 0, 76, 63
2, 6240, Note_on_c, 0, 76, 0
2, 6240, Note_on_c, 0, 70, 0
2, 6240, Note_on_c, 0, 69, 48
2, 6240, Note_on_c, 0, 77, 57
2, 6480, Note_on_c, 0, 77, 0
2, 6480, Note_on_c, 0, 69, 0
2, 6690, Note_on_c, 0, 77, 43
2, 6720, Note_on_c, 0, 77, 0
2, 6720, Note_on_c, 0, 75, 50
2, 6840, Note_on_c, 0, 75, 0
2, 6840, Note_on_c, 0, 74, 46
2, 6960, Note_on_c, 0, 74, 0
2, 6960, Note_on_c, 0, 75, 54
2, 7080, Note_on_c, 0, 75, 0
2, 7080, Note_on_c, 0, 77, 51
2, 7200, Note_on_c, 0, 77, 0
2, 7200, Note_on_c, 0, 79, 59
2, 7680, Note_on_c, 0, 79, 0
2, 7680, Note_on_c, 0, 72, 50
2, 8100, Note_on_c, 0, 72, 0
2, 8130, Note_on_c, 0, 74, 43
2, 8160, Note_on_c, 0, 74, 0
2, 8160, Note_on_c, 0, 72, 50
2, 8280, Note_on_c, 0, 72, 0
2, 8280, Note_on_c, 0, 71, 46
2, 8400, Note_on_c, 0, 71, 0
2, 8400, Note_on_c, 0, 72, 54
2, 8520, Note_on_c, 0, 72, 0
2, 8520, Note_on_c, 0, 74, 51
2, 8640, Note_on_c, 0, 74, 0
2, 8640, Note_on_c, 0, 75, 59
2, 9120, Note_on_c, 0, 75, 0
2, 9120, Note_on_c, 0, 69, 50
2, 9540, Note_on_c, 0, 69, 0
2, 9570, Note_on_c, 0, 70, 43
2, 9600, Note_on_c, 0, 70, 0
2, 9600, Note_on_c, 0, 69, 50
2, 9720, Note_on_c, 0, 69, 0
2, 9720, Note_on_c, 0, 67, 46
2, 9840, Note_on_c, 0, 67, 0
2, 9840, Note_on_c, 0, 69, 52
2, 9960, Note_on_c, 0, 69, 0
2, 9960, Note_on_c, 0, 70, 48
2, 10040, Note_on_c, 0, 70, 0
2, 10050, Note_on_c, 0, 74, 43
2, 10080, Note_on_c, 0, 74, 0
2, 10080, Note_on_c, 0, 72, 53
2, 10200, Note_on_c, 0, 72, 0
2, 10200, Note_on_c, 0, 71, 50
2, 10320, Note_on_c, 0, 71, 0
2, 10320, Note_on_c, 0, 72, 54
2, 10440, Note_on_c, 0, 72, 0
2, 10440, Note_on_c, 0, 74, 51
2, 10520, Note_on_c, 0, 74, 0
2, 10530, Note_on_c, 0, 77, 43
2, 10560, Note_on_c, 0, 77, 0
2, 10560, Note_on_c, 0, 75, 57
2, 10680, Note_on_c, 0, 75, 0
2, 10680, Note_on_c, 0, 74, 52
2, 10800, Note_on_c, 0, 74, 0
2, 10800, Note_on_c, 0, 75, 58
2, 10920, Note_on_c, 0, 75, 0
2, 10920, Note_on_c, 0, 77, 55
2, 11040, Note_on_c, 0, 77, 0
2, 11040, Note_on_c, 0, 79, 64
2, 11100, Note_on_c, 0, 79, 0
2, 11400, Note_on_c, 0, 69, 42
2, 11520, Note_on_c, 0, 69, 0
2, 11520, Note_on_c, 0, 72, 50
2, 12000, Note_on_c, 0, 72, 0
2, 12000, Note_on_c, 0, 70, 44
2, 12240, Note_on_c, 0, 70, 0
2, 12480, Note_on_c, 0, 62, 50
2, 12840, Note_on_c, 0, 62, 0
2, 12840, Note_on_c, 0, 63, 46
2, 12960, Note_on_c, 0, 63, 0
2, 12960, Note_on_c, 0, 65, 50
2, 13890, Note_on_c, 0, 65, 0
2, 13890, Note_on_c, 0, 69, 46
2, 13920, Note_on_c, 0, 69, 0
2, 13920, Note_on_c, 0, 67, 50
2, 14040, Note_on_c, 0, 67, 0
2, 14040, Note_on_c, 0, 65, 45
2, 14160, Note_on_c, 0, 65, 0
2, 14160, Note_on_c, 0, 67, 50
2, 14280, Note_on_c, 0, 67, 0
2, 14280, Note_on_c, 0, 69, 43
2, 14400, Note_on_c, 0, 69, 0
2, 14400, Note_on_c, 0, 70, 50
2, 14880, Note_on_c, 0, 70, 0
2, 14880, Note_on_c, 0, 65, 41
2, 15300, Note_on_c, 0, 65, 0
2, 15330, Note_on_c, 0, 69, 43
2, 15360, Note_on_c, 0, 69, 0
2, 15360, Note_on_c, 0, 67, 50
2, 15480, Note_on_c, 0, 67, 0
2, 15480, Note_on_c, 0, 65, 46
2, 15600, Note_on_c, 0, 65, 0
2, 15600, Note_on_c, 0, 67, 50
2, 15720, Note_on_c, 0, 67, 0
2, 15720, Note_on_c, 0, 69, 50
2, 15840, Note_on_c, 0, 69, 0
2, 15840, Note_on_c, 0, 70, 50
2, 15900, Note_on_c, 0, 70, 0
2, 16200, Note_on_c, 0, 69, 46
2, 16260, Note_on_c, 0, 69, 0
2, 16320, Note_on_c, 0, 70, 56
2, 16380, Note_on_c, 0, 70, 0
2, 16680, Note_on_c, 0, 72, 48
2, 16740, Note_on_c, 0, 72, 0
2, 16800, Note_on_c, 0, 74, 55
2, 16860, Note_on_c, 0, 74, 0
2, 17160, Note_on_c, 0, 76, 59
2, 17220, Note_on_c, 0, 76, 0
2, 17280, Note_on_c, 0, 70, 53
2, 17280, Note_on_c, 0, 76, 63
2, 17760, Note_on_c, 0, 76, 0
2, 17760, Note_on_c, 0, 70, 0
2, 17760, Note_on_c, 0, 69, 48
2, 17760, Note_on_c, 0, 77, 57
2, 18000, Note_on_c, 0, 77, 0
2, 18000, Note_on_c, 0, 69, 0
2, 18210, Note_on_c, 0, 77, 43
2, 18240, Note_on_c, 0, 77, 0
2, 18240, Note_on_c, 0, 75, 50
2, 18360, Note_on_c, 0, 75, 0
2, 18360, Note_on_c, 0, 74, 46
2, 18480, Note_on_c, 0, 74, 0
2, 18480, Note_on_c, 0, 75, 54
2, 18600, Note_on_c, 0, 75, 0
2, 18600, Note_on_c, 0, 77, 51
2, 18720, Note_on_c, 0, 77, 0
2, 18720, Note_on_c, 0, 79, 59
2, 19200, Note_on_c, 0, 79, 0
2, 19200, Note_on_c, 0, 72, 50
2, 19620, Note_on_c, 0, 72, 0
2, 19650, Note_on_c, 0, 74, 43
2, 19680, Note_on_c, 0, 74, 0
2, 19680, Note_on_c, 0, 72, 50
2, 19800, Note_on_c, 0, 72, 0
2, 19800, Note_on_c, 0, 71, 46
2, 19920, Note_on_c, 0, 71, 0
2, 19920, Note_on_c, 0, 72, 54
2, 20040, Note_on_c, 0, 72, 0
2, 20040, Note_on_c, 0, 74, 51
2, 20160, Note_on_c, 0, 74, 0
2, 20160, Note_on_c, 0, 75, 59
2, 20640, Note_on_c, 0, 75, 0
2, 20640, Note_on_c, 0, 69, 50
2, 21060, Note_on_c, 0, 69, 0
2, 21090, Note_on_c, 0, 70, 43
2, 21120, Note_on_c, 0, 70, 0
2, 21120, Note_on_c, 0, 69, 50
2, 21240, Note_on_c, 0, 69, 0
2, 21240, Note_on_c, 0, 67, 46
2, 21360, Note_on_c, 0, 67, 0
2, 21360, Note_on_c, 0, 69, 52
2, 21480, Note_on_c, 0, 69, 0
2, 21480, Note_on_c, 0, 70, 48
2, 21560, Note_on_c, 0, 70, 0
2, 21570, Note_on_c, 0, 74, 43
2, 21600, Note_on_c, 0, 74, 0
2, 21600, Note_on_c, 0, 72, 53
2, 21720, Note_on_c, 0, 72, 0
2, 21720, Note_on_c, 0, 71, 50
2, 21840, Note_on_c, 0, 71, 0
2, 21840, Note_on_c, 0, 72, 54
2, 21960, Note_on_c, 0, 72, 0
2, 21960, Note_on_c, 0, 74, 51
2, 22040, Note_on_c, 0, 74, 0
2, 22050, Note_on_c, 0, 77, 43
2, 22080, Note_on_c, 0, 77, 0
2, 22080, Note_on_c, 0, 75, 57
2, 22200, Note_on_c, 0, 75, 0
2, 22200, Note_on_c, 0, 74, 52
2, 22320, Note_on_c, 0, 74, 0
2, 22320, Note_on_c, 0, 75, 58
2, 22440, Note_on_c, 0, 75, 0
2, 22440, Note_on_c, 0, 77, 55
2, 22560, Note_on_c, 0, 77, 0
2, 22560, Note_on_c, 0, 79, 64
2, 22620, Note_on_c, 0, 79, 0
2, 22920, Note_on_c, 0, 69, 42
2, 23040, Note_on_c, 0, 69, 0
2, 23040, Note_on_c, 0, 72, 50
2, 23520, Note_on_c, 0, 72, 0
2, 23520, Note_on_c, 0, 70, 44
2, 23760, Note_on_c, 0, 70, 0
2, 24000, Note_on_c, 0, 69, 38
2, 24000, Note_on_c, 0, 74, 46
2, 24120, Note_on_c, 0, 74, 0
2, 24120, Note_on_c, 0, 69, 0
2, 24120, Note_on_c, 0, 70, 34
2, 24120, Note_on_c, 0, 73, 41
2, 24240, Note_on_c, 0, 73, 0
2, 24240, Note_on_c, 0, 70, 0
2, 24240, Note_on_c, 0, 69, 42
2, 24240, Note_on_c, 0, 74, 50
2, 24360, Note_on_c, 0, 74, 0
2, 24360, Note_on_c, 0, 69, 0
2, 24360, Note_on_c, 0, 70, 34
2, 24360, Note_on_c, 0, 73, 40
2, 24480, Note_on_c, 0, 73, 0
2, 24480, Note_on_c, 0, 70, 0
2, 24480, Note_on_c, 0, 69, 45
2, 24480, Note_on_c, 0, 74, 54
2, 24600, Note_on_c, 0, 74, 0
2, 24600, Note_on_c, 0, 69, 0
2, 24600, Note_on_c, 0, 70, 40
2, 24600, Note_on_c, 0, 73, 49
2, 24720, Note_on_c, 0, 73, 0
2, 24720, Note_on_c, 0, 70, 0
2, 24720, Note_on_c, 0, 69, 49
2, 24720, Note_on_c, 0, 74, 57
2, 24840, Note_on_c, 0, 74, 0
2, 24840, Note_on_c, 0, 69, 0
2, 24840, Note_on_c, 0, 70, 39
2, 24840, Note_on_c, 0, 73, 47
2, 24960, Note_on_c, 0, 73, 0
2, 24960, Note_on_c, 0, 70, 0
2, 24960, Note_on_c, 0, 69, 52
2, 24960, Note_on_c, 0, 74, 62
2, 25080, Note_on_c, 0, 74, 0
2, 25080, Note_on_c, 0, 69, 0
2, 25080, Note_on_c, 0, 70, 47
2, 25080, Note_on_c, 0, 73, 56
2, 25200, Note_on_c, 0, 73, 0
2, 25200, Note_on_c, 0, 70, 0
2, 25200, Note_on_c, 0, 69, 55
2, 25200, Note_on_c, 0, 74, 66
2, 25320, Note_on_c, 0, 74, 0
2, 25320, Note_on_c, 0, 69, 0
2, 25320, Note_on_c, 0, 70, 46
2, 25320, Note_on_c, 0, 73, 54
2, 25440, Note_on_c, 0, 73, 0
2, 25440, Note_on_c, 0, 70, 0
2, 25440, Note_on_c, 0, 69, 59
2, 25440, Note_on_c, 0, 74, 71
2, 25560, Note_on_c, 0, 74, 0
2, 25560, Note_on_c, 0, 69, 0
2, 25560, Note_on_c, 0, 70, 53
2, 25560, Note_on_c, 0, 73, 64
2, 25680, Note_on_c, 0, 73, 0
2, 25680, Note_on_c, 0, 70, 0
2, 25680, Note_on_c, 0, 69, 63
2, 25680, Note_on_c, 0, 74, 75
2, 25800, Note_on_c, 0, 74, 0
2, 25800, Note_on_c, 0, 69, 0
2, 25800, Note_on_c, 0, 70, 52
2, 25800, Note_on_c, 0, 73, 62
2, 25920, Note_on_c, 0, 73, 0
2, 25920, Note_on_c, 0, 70, 0
2, 25920, Note_on_c, 0, 69, 83
2, 25920, Note_on_c, 0, 74, 83
2, 26160, Note_on_c, 0, 74, 0
2, 26160, Note_on_c, 0, 69, 0
2, 26400, Note_on_c, 0, 86, 100
2, 26400, Note_on_c, 0, 78, 84
2, 27120, Note_on_c, 0, 78, 0
2, 27120, Note_on_c, 0, 86, 0
2, 27120, Note_on_c, 0, 84, 75
2, 27120, Note_on_c, 0, 78, 63
2, 27240, Note_on_c, 0, 78, 0
2, 27240, Note_on_c, 0, 84, 0
2, 27360, Note_on_c, 0, 82, 91
2, 27360, Note_on_c, 0, 79, 77
2, 27600, Note_on_c, 0, 79, 0
2, 27600, Note_on_c, 0, 82, 0
2, 27720, Note_on_c, 0, 81, 73
2, 27720, Note_on_c, 0, 75, 61
2, 27780, Note_on_c, 0, 75, 0
2, 27780, Note_on_c, 0, 81, 0
2, 27840, Note_on_c, 0, 70, 72
2, 27840, Note_on_c, 0, 79, 85
2, 28080, Note_on_c, 0, 79, 0
2, 28080, Note_on_c, 0, 70, 0
2, 28320, Note_on_c, 0, 72, 69
2, 28320, Note_on_c, 0, 78, 81
2, 28560, Note_on_c, 0, 78, 0
2, 28560, Note_on_c, 0, 72, 0
2, 28800, Note_on_c, 0, 72, 69
2, 28800, Note_on_c, 0, 81, 82
2, 29280, Note_on_c, 0, 81, 0
2, 29280, Note_on_c, 0, 72, 0
2, 29280, Note_on_c, 0, 70, 61
2, 29280, Note_on_c, 0, 79, 72
2, 29520, Note_on_c, 0, 79, 0
2, 29520, Note_on_c, 0, 70, 0
2, 29760, Note_on_c, 0, 56, 25
2, 29760, Note_on_c, 0, 58, 30
2, 29880, Note_on_c, 0, 59, 27
2, 29881, Note_on_c, 0, 58, 0
2, 29881, Note_on_c, 0, 56, 0
2, 30000, Note_on_c, 0, 56, 27
2, 30000, Note_on_c, 0, 58, 33
2, 30001, Note_on_c, 0, 59, 0
2, 30120, Note_on_c, 0, 59, 26
2, 30121, Note_on_c, 0, 58, 0
2, 30121, Note_on_c, 0, 56, 0
2, 30240, Note_on_c, 0, 56, 28
2, 30240, Note_on_c, 0, 58, 34
2, 30241, Note_on_c, 0, 59, 0
2, 30360, Note_on_c, 0, 59, 30
2, 30361, Note_on_c, 0, 58, 0
2, 30361, Note_on_c, 0, 56, 0
2, 30480, Note_on_c, 0, 56, 30
2, 30480, Note_on_c, 0, 58, 36
2, 30481, Note_on_c, 0, 59, 0
2, 30600, Note_on_c, 0, 59, 29
2, 30601, Note_on_c, 0, 58, 0
2, 30601, Note_on_c, 0, 56, 0
2, 30720, Note_on_c, 0, 56, 33
2, 30720, Note_on_c, 0, 58, 39
2, 30721, Note_on_c, 0, 59, 0
2, 30840, Note_on_c, 0, 59, 36
2, 30841, Note_on_c, 0, 58, 0
2, 30841, Note_on_c, 0, 56, 0
2, 30960, Note_on_c, 0, 56, 36
2, 30960, Note_on_c, 0, 58, 42
2, 30961, Note_on_c, 0, 59, 0
2, 31080, Note_on_c, 0, 59, 34
2, 31081, Note_on_c, 0, 58, 0
2, 31081, Note_on_c, 0, 56, 0
2, 31200, Note_on_c, 0, 56, 38
2, 31200, Note_on_c, 0, 58, 45
2, 31201, Note_on_c, 0, 59, 0
2, 31320, Note_on_c, 0, 59, 41
2, 31321, Note_on_c, 0, 58, 0
2, 31321, Note_on_c, 0, 56, 0
2, 31440, Note_on_c, 0, 56, 40
2, 31440, Note_on_c, 0, 58, 49
2, 31441, Note_on_c, 0, 59, 0
2, 31560, Note_on_c, 0, 59, 40
2, 31561, Note_on_c, 0, 58, 0
2, 31561, Note_on_c, 0, 56, 0
2, 31680, Note_on_c, 0, 56, 65
2, 31680, Note_on_c, 0, 58, 65
2, 31681, Note_on_c, 0, 59, 0
2, 31920, Note_on_c, 0, 58, 0
2, 31920, Note_on_c, 0, 56, 0
2, 32160, Note_on_c, 0, 80, 85
2, 32160, Note_on_c, 0, 71, 72
2, 32880, Note_on_c, 0, 71, 0
2, 32880, Note_on_c, 0, 80, 0
2, 32880, Note_on_c, 0, 79, 59
2, 32880, Note_on_c, 0, 72, 49
2, 33120, Note_on_c, 0, 72, 0
2, 33120, Note_on_c, 0, 79, 0
2, 33120, Note_on_c, 0, 77, 70
2, 33120, Note_on_c, 0, 68, 58
2, 33480, Note_on_c, 0, 68, 0
2, 33480, Note_on_c, 0, 77, 0
2, 33480, Note_on_c, 0, 75, 53
2, 33480, Note_on_c, 0, 67, 45
2, 33600, Note_on_c, 0, 67, 0
2, 33600, Note_on_c, 0, 75, 0
2, 33600, Note_on_c, 0, 65, 52
2, 33600, Note_on_c, 0, 74, 61
2, 34080, Note_on_c, 0, 74, 0
2, 34080, Note_on_c, 0, 65, 0
2, 34080, Note_on_c, 0, 63, 46
2, 34080, Note_on_c, 0, 72, 54
2, 34560, Note_on_c, 0, 72, 0
2, 34560, Note_on_c, 0, 63, 0
2, 34560, Note_on_c, 0, 62, 40
2, 34560, Note_on_c, 0, 70, 48
2, 35040, Note_on_c, 0, 70, 0
2, 35040, Note_on_c, 0, 62, 0
2, 35040, Note_on_c, 0, 60, 36
2, 35040, Note_on_c, 0, 69, 42
2, 35280, Note_on_c, 0, 69, 0
2, 35280, Note_on_c, 0, 60, 0
2, 35520, Note_on_c, 0, 62, 50
2, 35880, Note_on_c, 0, 62, 0
2, 35880, Note_on_c, 0, 63, 46
2, 36000, Note_on_c, 0, 63, 0
2, 36000, Note_on_c, 0, 65, 50
2, 36930, Note_on_c, 0, 65, 0
2, 36930, Note_on_c, 0, 69, 46
2, 36960, Note_on_c, 0, 69, 0
2, 36960, Note_on_c, 0, 67, 50
2, 37080, Note_on_c, 0, 67, 0
2, 37080, Note_on_c, 0, 65, 45
2, 37200, Note_on_c, 0, 65, 0
2, 37200, Note_on_c, 0, 67, 50
2, 37320, Note_on_c, 0, 67, 0
2, 37320, Note_on_c, 0, 69, 43
2, 37440, Note_on_c, 0, 69, 0
2, 37440, Note_on_c, 0, 70, 50
2, 37920, Note_on_c, 0, 70, 0
2, 37920, Note_on_c, 0, 65, 41
2, 38340, Note_on_c, 0, 65, 0
2, 38370, Note_on_c, 0, 69, 43
2, 38400, Note_on_c, 0, 69, 0
2, 38400, Note_on_c, 0, 67, 50
2, 38520, Note_on_c, 0, 67, 0
2, 38520, Note_on_c, 0, 65, 46
2, 38640, Note_on_c, 0, 65, 0
2, 38640, Note_on_c, 0, 67, 50
2, 38760, Note_on_c, 0, 67, 0
2, 38760, Note_on_c, 0, 69, 50
2, 38880, Note_on_c, 0, 69, 0
2, 38880, Note_on_c, 0, 70, 50
2, 38940, Note_on_c, 0, 70, 0
2, 39240, Note_on_c, 0, 69, 46
2, 39300, Note_on_c, 0, 69, 0
2, 39360, Note_on_c, 0, 70, 56
2, 39420, Note_on_c, 0, 70, 0
2, 39720, Note_on_c, 0, 72, 48
2, 39780, Note_on_c, 0, 72, 0
2, 39840, Note_on_c, 0, 74, 55
2, 39900, Note_on_c, 0, 74, 0
2, 40200, Note_on_c, 0, 76, 59
2, 40260, Note_on_c, 0, 76, 0
2, 40320, Note_on_c, 0, 70, 53
2, 40320, Note_on_c, 0, 76, 63
2, 40800, Note_on_c, 0, 76, 0
2, 40800, Note_on_c, 0, 70, 0
2, 40800, Note_on_c, 0, 69, 48
2, 40800, Note_on_c, 0, 77, 57
2, 41040, Note_on_c, 0, 77, 0
2, 41040, Note_on_c, 0, 69, 0
2, 41250, Note_on_c, 0, 77, 43
2, 41280, Note_on_c, 0, 77, 0
2, 41280, Note_on_c, 0, 75, 50
2, 41400, Note_on_c, 0, 75, 0
2, 41400, Note_on_c, 0, 74, 46
2, 41520, Note_on_c, 0, 74, 0
2, 41520, Note_on_c, 0, 75, 54
2, 41640, Note_on_c, 0, 75, 0
2, 41640, Note_on_c, 0, 77, 51
2, 41760, Note_on_c, 0, 77, 0
2, 41760, Note_on_c, 0, 79, 59
2, 42240, Note_on_c, 0, 79, 0
2, 42240, Note_on_c, 0, 72, 50
2, 42660, Note_on_c, 0, 72, 0
2, 42690, Note_on_c, 0, 74, 43
2, 42720, Note_on_c, 0, 74, 0
2, 42720, Note_on_c, 0, 72, 50
2, 42840, Note_on_c, 0, 72, 0
2, 42840, Note_on_c, 0, 71, 46
2, 42960, Note_on_c, 0, 71, 0
2, 42960, Note_on_c, 0, 72, 54
2, 43080, Note_on_c, 0, 72, 0
2, 43080, Note_on_c, 0, 74, 51
2, 43200, Note_on_c, 0, 74, 0
2, 43200, Note_on_c, 0, 75, 59
2, 43680, Note_on_c, 0, 75, 0
2, 43680, Note_on_c, 0, 69, 50
2, 44100, Note_on_c, 0, 69, 0
2, 44130, Note_on_c, 0, 70, 43
2, 44160, Note_on_c, 0, 70, 0
2, 44160, Note_on_c, 0, 69, 50
2, 44280, Note_on_c, 0, 69, 0
2, 44280, Note_on_c, 0, 67, 46
2, 44400, Note_on_c, 0, 67, 0
2, 44400, Note_on_c, 0, 69, 52
2, 44520, Note_on_c, 0, 69, 0
2, 44520, Note_on_c, 0, 70, 48
2, 44600, Note_on_c, 0, 70, 0
2, 44610, Note_on_c, 0, 74, 43
2, 44640, Note_on_c, 0, 74, 0
2, 44640, Note_on_c, 0, 72, 53
2, 44760, Note_on_c, 0, 72, 0
2, 44760, Note_on_c, 0, 71, 50
2, 44880, Note_on_c, 0, 71, 0
2, 44880, Note_on_c, 0, 72, 54
2, 45000, Note_on_c, 0, 72, 0
2, 45000, Note_on_c, 0, 74, 51
2, 45080, Note_on_c, 0, 74, 0
2, 45090, Note_on_c, 0, 77, 43
2, 45120, Note_on_c, 0, 77, 0
2, 45120, Note_on_c, 0, 75, 57
2, 45240, Note_on_c, 0, 75, 0
2, 45240, Note_on_c, 0, 74, 52
2, 45360, Note_on_c, 0, 74, 0
2, 45360, Note_on_c, 0, 75, 58
2, 45480, Note_on_c, 0, 75, 0
2, 45480, Note_on_c, 0, 77, 55
2, 45600, Note_on_c, 0, 77, 0
2, 45600, Note_on_c, 0, 79, 61
2, 45720, Note_on_c, 0, 79, 0
2, 45720, Note_on_c, 0, 75, 59
2, 45840, Note_on_c, 0, 75, 0
2, 45840, Note_on_c, 0, 72, 52
2, 45960, Note_on_c, 0, 72, 0
2, 45960, Note_on_c, 0, 69, 42
2, 46080, Note_on_c, 0, 69, 0
2, 46080, Note_on_c, 0, 70, 50
2, 46560, Note_on_c, 0, 70, 0
2, 47010, Note_on_c, 0, 81, 46
2, 47040, Note_on_c, 0, 81, 0
2, 47040, Note_on_c, 0, 79, 50
2, 47160, Note_on_c, 0, 79, 0
2, 47160, Note_on_c, 0, 78, 45
2, 47280, Note_on_c, 0, 78, 0
2, 47280, Note_on_c, 0, 79, 50
2, 47400, Note_on_c, 0, 79, 0
2, 47400, Note_on_c, 0, 81, 43
2, 47520, Note_on_c, 0, 81, 0
2, 47520, Note_on_c, 0, 82, 50
2, 48000, Note_on_c, 0, 82, 0
2, 48000, Note_on_c, 0, 77, 41
2, 48420, Note_on_c, 0, 77, 0
2, 48450, Note_on_c, 0, 69, 43
2, 48480, Note_on_c, 0, 69, 0
2, 48480, Note_on_c, 0, 75, 41
2, 48480, Note_on_c, 0, 67, 50
2, 48600, Note_on_c, 0, 67, 0
2, 48600, Note_on_c, 0, 65, 46
2, 48720, Note_on_c, 0, 65, 0
2, 48720, Note_on_c, 0, 67, 50
2, 48840, Note_on_c, 0, 67, 0
2, 48840, Note_on_c, 0, 69, 46
2, 48960, Note_on_c, 0, 69, 0
2, 48960, Note_on_c, 0, 75, 0
2, 48960, Note_on_c, 0, 74, 44
2, 48960, Note_on_c, 0, 70, 50
2, 49440, Note_on_c, 0, 70, 0
2, 49440, Note_on_c, 0, 74, 0
2, 49440, Note_on_c, 0, 65, 41
2, 49680, Note_on_c, 0, 65, 0
2, 49890, Note_on_c, 0, 69, 43
2, 49920, Note_on_c, 0, 69, 0
2, 49920, Note_on_c, 0, 67, 50
2, 50040, Note_on_c, 0, 67, 0
2, 50040, Note_on_c, 0, 66, 46
2, 50160, Note_on_c, 0, 66, 0
2, 50160, Note_on_c, 0, 67, 50
2, 50280, Note_on_c, 0, 67, 0
2, 50280, Note_on_c, 0, 69, 46
2, 50400, Note_on_c, 0, 69, 0
2, 50400, Note_on_c, 0, 70, 50
2, 50880, Note_on_c, 0, 70, 0
2, 50880, Note_on_c, 0, 65, 41
2, 51300, Note_on_c, 0, 65, 0
2, 51330, Note_on_c, 0, 57, 36
2, 51360, Note_on_c, 0, 57, 0
2, 51360, Note_on_c, 0, 63, 34
2, 51360, Note_on_c, 0, 55, 42
2, 51480, Note_on_c, 0, 55, 0
2, 51480, Note_on_c, 0, 53, 39
2, 51600, Note_on_c, 0, 53, 0
2, 51600, Note_on_c, 0, 55, 42
2, 51720, Note_on_c, 0, 55, 0
2, 51720, Note_on_c, 0, 57, 39
2, 51840, Note_on_c, 0, 57, 0
2, 51840, Note_on_c, 0, 63, 0
2, 51840, Note_on_c, 0, 62, 34
2, 51840, Note_on_c, 0, 58, 42
2, 52080, Note_on_c, 0, 58, 0
2, 52080, Note_on_c, 0, 53, 33
2, 52280, Note_on_c, 0, 53, 0
2, 52290, Note_on_c, 0, 57, 37
2, 52320, Note_on_c, 0, 57, 0
2, 52320, Note_on_c, 0, 62, 0
2, 52320, Note_on_c, 0, 63, 39
2, 52320, Note_on_c, 0, 55, 43
2, 52440, Note_on_c, 0, 55, 0
2, 52440, Note_on_c, 0, 53, 40
2, 52560, Note_on_c, 0, 53, 0
2, 52560, Note_on_c, 0, 55, 44
2, 52680, Note_on_c, 0, 55, 0
2, 52680, Note_on_c, 0, 57, 40
2, 52800, Note_on_c, 0, 57, 0
2, 52800, Note_on_c, 0, 63, 0
2, 52800, Note_on_c, 0, 62, 36
2, 52800, Note_on_c, 0, 58, 44
2, 53040, Note_on_c, 0, 58, 0
2, 53040, Note_on_c, 0, 53, 34
2, 53220, Note_on_c, 0, 53, 0
2, 53250, Note_on_c, 0, 57, 39
2, 53280, Note_on_c, 0, 57, 0
2, 53280, Note_on_c, 0, 62, 0
2, 53280, Note_on_c, 0, 63, 44
2, 53280, Note_on_c, 0, 55, 46
2, 53400, Note_on_c, 0, 55, 0
2, 53400, Note_on_c, 0, 53, 43
2, 53520, Note_on_c, 0, 53, 0
2, 53520, Note_on_c, 0, 55, 47
2, 53640, Note_on_c, 0, 55, 0
2, 53640, Note_on_c, 0, 57, 44
2, 53760, Note_on_c, 0, 57, 0
2, 53760, Note_on_c, 0, 63, 0
2, 53760, Note_on_c, 0, 62, 42
2, 53760, Note_on_c, 0, 58, 48
2, 53880, Note_on_c, 0, 58, 0
2, 53880, Note_on_c, 0, 53, 41
2, 54000, Note_on_c, 0, 53, 0
2, 54000, Note_on_c, 0, 62, 0
2, 54000, Note_on_c, 0, 63, 40
2, 54000, Note_on_c, 0, 57, 50
2, 54120, Note_on_c, 0, 57, 0
2, 54120, Note_on_c, 0, 53, 43
2, 54240, Note_on_c, 0, 53, 0
2, 54240, Note_on_c, 0, 63, 0
2, 54240, Note_on_c, 0, 62, 49
2, 54240, Note_on_c, 0, 58, 51
2, 54360, Note_on_c, 0, 58, 0
2, 54360, Note_on_c, 0, 53, 46
2, 54480, Note_on_c, 0, 53, 0
2, 54480, Note_on_c, 0, 62, 0
2, 54480, Note_on_c, 0, 63, 42
2, 54480, Note_on_c, 0, 57, 52
2, 54600, Note_on_c, 0, 57, 0
2, 54600, Note_on_c, 0, 53, 47
2, 54720, Note_on_c, 0, 53, 0
2, 54720, Note_on_c, 0, 63, 0
2, 54720, Note_on_c, 0, 58, 34
2, 54720, Note_on_c, 0, 62, 40
2, 54840, Note_on_c, 0, 62, 0
2, 54840, Note_on_c, 0, 58, 0
2, 55200, Note_on_c, 0, 62, 34
2, 55200, Note_on_c, 0, 70, 40
2, 55320, Note_on_c, 0, 70, 0
2, 55320, Note_on_c, 0, 62, 0
2, 55680, Note_on_c, 0, 69, 38
2, 55680, Note_on_c, 0, 74, 46
2, 55800, Note_on_c, 0, 74, 0
2, 55800, Note_on_c, 0, 69, 0
2, 55800, Note_on_c, 0, 70, 34
2, 55800, Note_on_c, 0, 73, 41
2, 55920, Note_on_c, 0, 73, 0
2, 55920, Note_on_c, 0, 70, 0
2, 55920, Note_on_c, 0, 69, 42
2, 55920, Note_on_c, 0, 74, 50
2, 56040, Note_on_c, 0, 74, 0
2, 56040, Note_on_c, 0, 69, 0
2, 56040, Note_on_c, 0, 70, 34
2, 56040, Note_on_c, 0, 73, 40
2, 56160, Note_on_c, 0, 73, 0
2, 56160, Note_on_c, 0, 70, 0
2, 56160, Note_on_c, 0, 69, 45
2, 56160, Note_on_c, 0, 74, 53
2, 56280, Note_on_c, 0, 74, 0
2, 56280, Note_on_c, 0, 69, 0
2, 56280, Note_on_c, 0, 70, 40
2, 56280, Note_on_c, 0, 73, 49
2, 56400, Note_on_c, 0, 73, 0
2, 56400, Note_on_c, 0, 70, 0
2, 56400, Note_on_c, 0, 69, 48
2, 56400, Note_on_c, 0, 74, 57
2, 56520, Note_on_c, 0, 74, 0
2, 56520, Note_on_c, 0, 69, 0
2, 56520, Note_on_c, 0, 70, 39
2, 56520, Note_on_c, 0, 73, 47
2, 56640, Note_on_c, 0, 73, 0
2, 56640, Note_on_c, 0, 70, 0
2, 56640, Note_on_c, 0, 69, 52
2, 56640, Note_on_c, 0, 74, 62
2, 56760, Note_on_c, 0, 74, 0
2, 56760, Note_on_c, 0, 69, 0
2, 56760, Note_on_c, 0, 70, 47
2, 56760, Note_on_c, 0, 73, 56
2, 56880, Note_on_c, 0, 73, 0
2, 56880, Note_on_c, 0, 70, 0
2, 56880, Note_on_c, 0, 69, 55
2, 56880, Note_on_c, 0, 74, 66
2, 57000, Note_on_c, 0, 74, 0
2, 57000, Note_on_c, 0, 69, 0
2, 57000, Note_on_c, 0, 70, 46
2, 57000, Note_on_c, 0, 73, 54
2, 57120, Note_on_c, 0, 73, 0
2, 57120, Note_on_c, 0, 70, 0
2, 57120, Note_on_c, 0, 69, 59
2, 57120, Note_on_c, 0, 74, 71
2, 57240, Note_on_c, 0, 74, 0
2, 57240, Note_on_c, 0, 69, 0
2, 57240, Note_on_c, 0, 70, 53
2, 57240, Note_on_c, 0, 73, 63
2, 57360, Note_on_c, 0, 73, 0
2, 57360, Note_on_c, 0, 70, 0
2, 57360, Note_on_c, 0, 69, 63
2, 57360, Note_on_c, 0, 74, 75
2, 57480, Note_on_c, 0, 74, 0
2, 57480, Note_on_c, 0, 69, 0
2, 57480, Note_on_c, 0, 70, 52
2, 57480, Note_on_c, 0, 73, 61
2, 57600, Note_on_c, 0, 73, 0
2, 57600, Note_on_c, 0, 70, 0
2, 57600, Note_on_c, 0, 69, 83
2, 57600, Note_on_c, 0, 74, 83
2, 57840, Note_on_c, 0, 74, 0
2, 57840, Note_on_c, 0, 69, 0
2, 58080, Note_on_c, 0, 86, 100
2, 58080, Note_on_c, 0, 78, 84
2, 58800, Note_on_c, 0, 78, 0
2, 58800, Note_on_c, 0, 86, 0
2, 58800, Note_on_c, 0, 84, 75
2, 58800, Note_on_c, 0, 78, 63
2, 58920, Note_on_c, 0, 78, 0
2, 58920, Note_on_c, 0, 84, 0
2, 59040, Note_on_c, 0, 82, 91
2, 59040, Note_on_c, 0, 79, 77
2, 59280, Note_on_c, 0, 79, 0
2, 59280, Note_on_c, 0, 82, 0
2, 59400, Note_on_c, 0, 81, 73
2, 59400, Note_on_c, 0, 75, 61
2, 59460, Note_on_c, 0, 75, 0
2, 59460, Note_on_c, 0, 81, 0
2, 59520, Note_on_c, 0, 70, 72
2, 59520, Note_on_c, 0, 79, 85
2, 59760, Note_on_c, 0, 79, 0
2, 59760, Note_on_c, 0, 70, 0
2, 60000, Note_on_c, 0, 72, 69
2, 60000, Note_on_c, 0, 78, 81
2, 60240, Note_on_c, 0, 78, 0
2, 60240, Note_on_c, 0, 72, 0
2, 60480, Note_on_c, 0, 72, 69
2, 60480, Note_on_c, 0, 81, 82
2, 60960, Note_on_c, 0, 81, 0
2, 60960, Note_on_c, 0, 72, 0
2, 60960, Note_on_c, 0, 70, 61
2, 60960, Note_on_c, 0, 79, 72
2, 61200, Note_on_c, 0, 79, 0
2, 61200, Note_on_c, 0, 70, 0
2, 61440, Note_on_c, 0, 56, 25
2, 61440, Note_on_c, 0, 58, 30
2, 61560, Note_on_c, 0, 59, 27
2, 61561, Note_on_c, 0, 58, 0
2, 61561, Note_on_c, 0, 56, 0
2, 61680, Note_on_c, 0, 56, 27
2, 61680, Note_on_c, 0, 58, 33
2, 61681, Note_on_c, 0, 59, 0
2, 61800, Note_on_c, 0, 59, 27
2, 61801, Note_on_c, 0, 58, 0
2, 61801, Note_on_c, 0, 56, 0
2, 61920, Note_on_c, 0, 56, 29
2, 61920, Note_on_c, 0, 58, 35
2, 61921, Note_on_c, 0, 59, 0
2, 62040, Note_on_c, 0, 59, 32
2, 62041, Note_on_c, 0, 58, 0
2, 62041, Note_on_c, 0, 56, 0
2, 62160, Note_on_c, 0, 56, 32
2, 62160, Note_on_c, 0, 58, 37
2, 62161, Note_on_c, 0, 59, 0
2, 62280, Note_on_c, 0, 59, 30
2, 62281, Note_on_c, 0, 58, 0
2, 62281, Note_on_c, 0, 56, 0
2, 62400, Note_on_c, 0, 56, 34
2, 62400, Note_on_c, 0, 58, 41
2, 62401, Note_on_c, 0, 59, 0
2, 62520, Note_on_c, 0, 59, 38
2, 62521, Note_on_c, 0, 58, 0
2, 62521, Note_on_c, 0, 56, 0
2, 62640, Note_on_c, 0, 56, 37
2, 62640, Note_on_c, 0, 58, 44
2, 62641, Note_on_c, 0, 59, 0
2, 62760, Note_on_c, 0, 59, 35
2, 62761, Note_on_c, 0, 58, 0
2, 62761, Note_on_c, 0, 56, 0
2, 62880, Note_on_c, 0, 56, 39
2, 62880, Note_on_c, 0, 58, 46
2, 62881, Note_on_c, 0, 59, 0
2, 63000, Note_on_c, 0, 59, 42
2, 63001, Note_on_c, 0, 58, 0
2, 63001, Note_on_c, 0, 56, 0
2, 63120, Note_on_c, 0, 56, 42
2, 63120, Note_on_c, 0, 58, 50
2, 63121, Note_on_c, 0, 59, 0
2, 63240, Note_on_c, 0, 59, 41
2, 63241, Note_on_c, 0, 58, 0
2, 63241, Note_on_c, 0, 56, 0
2, 63360, Note_on_c, 0, 56, 65
2, 63360, Note_on_c, 0, 58, 65
2, 63361, Note_on_c, 0, 59, 0
2, 63600, Note_on_c, 0, 58, 0
2, 63600, Note_on_c, 0, 56, 0
2, 63840, Note_on_c, 0, 80, 85
2, 63840, Note_on_c, 0, 71, 72
2, 64560, Note_on_c, 0, 71, 0
2, 64560, Note_on_c, 0, 80, 0
2, 64560, Note_on_c, 0, 79, 59
2, 64560, Note_on_c, 0, 72, 49
2, 64800, Note_on_c, 0, 72, 0
2, 64800, Note_on_c, 0, 79, 0
2, 64800, Note_on_c, 0, 77, 70
2, 64800, Note_on_c, 0, 68, 58
2, 65160, Note_on_c, 0, 68, 0
2, 65160, Note_on_c, 0, 77, 0
2, 65160, Note_on_c, 0, 75, 53
2, 65160, Note_on_c, 0, 67, 45
2, 65280, Note_on_c, 0, 67, 0
2, 65280, Note_on_c, 0, 75, 0
2, 65280, Note_on_c, 0, 65, 52
2, 65280, Note_on_c, 0, 74, 61
2, 65760, Note_on_c, 0, 74, 0
2, 65760, Note_on_c, 0, 65, 0
2, 65760, Note_on_c, 0, 63, 46
2, 65760, Note_on_c, 0, 72, 54
2, 66240, Note_on_c, 0, 72, 0
2, 66240, Note_on_c, 0, 63, 0
2, 66240, Note_on_c, 0, 62, 40
2, 66240, Note_on_c, 0, 70, 48
2, 66720, Note_on_c, 0, 70, 0
2, 66720, Note_on_c, 0, 62, 0
2, 66720, Note_on_c, 0, 60, 36
2, 66720, Note_on_c, 0, 69, 42
2, 66960, Note_on_c, 0, 69, 0
2, 66960, Note_on_c, 0, 60, 0
2, 67200, Note_on_c, 0, 62, 50
2, 67560, Note_on_c, 0, 62, 0
2, 67560, Note_on_c, 0, 63, 46
2, 67680, Note_on_c, 0, 63, 0
2, 67680, Note_on_c, 0, 65, 50
2, 68610, Note_on_c, 0, 65, 0
2, 68610, Note_on_c, 0, 69, 46
2, 68640, Note_on_c, 0, 69, 0
2, 68640, Note_on_c, 0, 67, 50
2, 68760, Note_on_c, 0, 67, 0
2, 68760, Note_on_c, 0, 65, 45
2, 68880, Note_on_c, 0, 65, 0
2, 68880, Note_on_c, 0, 67, 50
2, 69000, Note_on_c, 0, 67, 0
2, 69000, Note_on_c, 0, 69, 43
2, 69120, Note_on_c, 0, 69, 0
2, 69120, Note_on_c, 0, 70, 50
2, 69600, Note_on_c, 0, 70, 0
2, 69600, Note_on_c, 0, 65, 41
2, 70020, Note_on_c, 0, 65, 0
2, 70050, Note_on_c, 0, 69, 43
2, 70080, Note_on_c, 0, 69, 0
2, 70080, Note_on_c, 0, 67, 50
2, 70200, Note_on_c, 0, 67, 0
2, 70200, Note_on_c, 0, 65, 46
2, 70320, Note_on_c, 0, 65, 0
2, 70320, Note_on_c, 0, 67, 50
2, 70440, Note_on_c, 0, 67, 0
2, 70440, Note_on_c, 0, 69, 50
2, 70560, Note_on_c, 0, 69, 0
2, 70560, Note_on_c, 0, 70, 50
2, 70620, Note_on_c, 0, 70, 0
2, 70920, Note_on_c, 0, 69, 46
2, 70980, Note_on_c, 0, 69, 0
2, 71040, Note_on_c, 0, 70, 56
2, 71100, Note_on_c, 0, 70, 0
2, 71400, Note_on_c, 0, 72, 48
2, 71460, Note_on_c, 0, 72, 0
2, 71520, Note_on_c, 0, 74, 55
2, 71580, Note_on_c, 0, 74, 0
2, 71880, Note_on_c, 0, 76, 59
2, 71940, Note_on_c, 0, 76, 0
2, 72000, Note_on_c, 0, 70, 53
2, 72000, Note_on_c, 0, 76, 63
2, 72480, Note_on_c, 0, 76, 0
2, 72480, Note_on_c, 0, 70, 0
2, 72480, Note_on_c, 0, 69, 48
2, 72480, Note_on_c, 0, 77, 57
2, 72720, Note_on_c, 0, 77, 0
2, 72720, Note_on_c, 0, 69, 0
2, 72930, Note_on_c, 0, 77, 43
2, 72960, Note_on_c, 0, 77, 0
2, 72960, Note_on_c, 0, 75, 50
2, 73080, Note_on_c, 0, 75, 0
2, 73080, Note_on_c, 0, 74, 46
2, 73200, Note_on_c, 0, 74, 0
2, 73200, Note_on_c, 0, 75, 54
2, 73320, Note_on_c, 0, 75, 0
2, 73320, Note_on_c, 0, 77, 51
2, 73440, Note_on_c, 0, 77, 0
2, 73440, Note_on_c, 0, 79, 59
2, 73920, Note_on_c, 0, 79, 0
2, 73920, Note_on_c, 0, 72, 50
2, 74340, Note_on_c, 0, 72, 0
2, 74370, Note_on_c, 0, 74, 43
2, 74400, Note_on_c, 0, 74, 0
2, 74400, Note_on_c, 0, 72, 50
2, 74520, Note_on_c, 0, 72, 0
2, 74520, Note_on_c, 0, 71, 46
2, 74640, Note_on_c, 0, 71, 0
2, 74640, Note_on_c, 0, 72, 54
2, 74760, Note_on_c, 0, 72, 0
2, 74760, Note_on_c, 0, 74, 51
2, 74880, Note_on_c, 0, 74, 0
2, 74880, Note_on_c, 0, 75, 59
2, 75360, Note_on_c, 0, 75, 0
2, 75360, Note_on_c, 0, 69, 50
2, 75780, Note_on_c, 0, 69, 0
2, 75810, Note_on_c, 0, 70, 43
2, 75840, Note_on_c, 0, 70, 0
2, 75840, Note_on_c, 0, 69, 50
2, 75960, Note_on_c, 0, 69, 0
2, 75960, Note_on_c, 0, 67, 46
2, 76080, Note_on_c, 0, 67, 0
2, 76080, Note_on_c, 0, 69, 52
2, 76200, Note_on_c, 0, 69, 0
2, 76200, Note_on_c, 0, 70, 48
2, 76280, Note_on_c, 0, 70, 0
2, 76290, Note_on_c, 0, 74, 43
2, 76320, Note_on_c, 0, 74, 0
2, 76320, Note_on_c, 0, 72, 53
2, 76440, Note_on_c, 0, 72, 0
2, 76440, Note_on_c, 0, 71, 50
2, 76560, Note_on_c, 0, 71, 0
2, 76560, Note_on_c, 0, 72, 54
2, 76680, Note_on_c, 0, 72, 0
2, 76680, Note_on_c, 0, 74, 51
2, 76760, Note_on_c, 0, 74, 0
2, 76770, Note_on_c, 0, 77, 43
2, 76800, Note_on_c, 0, 77, 0
2, 76800, Note_on_c, 0, 75, 57
2, 76920, Note_on_c, 0, 75, 0
2, 76920, Note_on_c, 0, 74, 52
2, 77040, Note_on_c, 0, 74, 0
2, 77040, Note_on_c, 0, 75, 58
2, 77160, Note_on_c, 0, 75, 0
2, 77160, Note_on_c, 0, 77, 55
2, 77280, Note_on_c, 0, 77, 0
2, 77280, Note_on_c, 0, 79, 61
2, 77400, Note_on_c, 0, 79, 0
2, 77400, Note_on_c, 0, 75, 59
2, 77520, Note_on_c, 0, 75, 0
2, 77520, Note_on_c, 0, 72, 52
2, 77640, Note_on_c, 0, 72, 0
2, 77640, Note_on_c, 0, 69, 42
2, 77760, Note_on_c, 0, 69, 0
2, 77760, Note_on_c, 0, 70, 50
2, 78240, Note_on_c, 0, 70, 0
2, 78690, Note_on_c, 0, 81, 46
2, 78720, Note_on_c, 0, 81, 0
2, 78720, Note_on_c, 0, 79, 50
2, 78840, Note_on_c, 0, 79, 0
2, 78840, Note_on_c, 0, 78, 45
2, 78960, Note_on_c, 0, 78, 0
2, 78960, Note_on_c, 0, 79, 50
2, 79080, Note_on_c, 0, 79, 0
2, 79080, Note_on_c, 0, 81, 43
2, 79200, Note_on_c, 0, 81, 0
2, 79200, Note_on_c, 0, 82, 50
2, 79680, Note_on_c, 0, 82, 0
2, 79680, Note_on_c, 0, 77, 41
2, 80100, Note_on_c, 0, 77, 0
2, 80130, Note_on_c, 0, 69, 43
2, 80160, Note_on_c, 0, 69, 0
2, 80160, Note_on_c, 0, 75, 41
2, 80160, Note_on_c, 0, 67, 50
2, 80280, Note_on_c, 0, 67, 0
2, 80280, Note_on_c, 0, 65, 46
2, 80400, Note_on_c, 0, 65, 0
2, 80400, Note_on_c, 0, 67, 50
2, 80520, Note_on_c, 0, 67, 0
2, 80520, Note_on_c, 0, 69, 46
2, 80640, Note_on_c, 0, 69, 0
2, 80640, Note_on_c, 0, 75, 0
2, 80640, Note_on_c, 0, 74, 44
2, 80640, Note_on_c, 0, 70, 50
2, 81120, Note_on_c, 0, 70, 0
2, 81120, Note_on_c, 0, 74, 0
2, 81120, Note_on_c, 0, 65, 41
2, 81360, Note_on_c, 0, 65, 0
2, 81570, Note_on_c, 0, 69, 43
2, 81600, Note_on_c, 0, 69, 0
2, 81600, Note_on_c, 0, 67, 50
2, 81720, Note_on_c, 0, 67, 0
2, 81720, Note_on_c, 0, 66, 46
2, 81840, Note_on_c, 0, 66, 0
2, 81840, Note_on_c, 0, 67, 50
2, 81960, Note_on_c, 0, 67, 0
2, 81960, Note_on_c, 0, 69, 46
2, 82080, Note_on_c, 0, 69, 0
2, 82080, Note_on_c, 0, 70, 50
2, 82560, Note_on_c, 0, 70, 0
2, 82560, Note_on_c, 0, 65, 41
2, 82980, Note_on_c, 0, 65, 0
2, 83010, Note_on_c, 0, 57, 36
2, 83040, Note_on_c, 0, 57, 0
2, 83040, Note_on_c, 0, 63, 34
2, 83040, Note_on_c, 0, 55, 42
2, 83160, Note_on_c, 0, 55, 0
2, 83160, Note_on_c, 0, 53, 39
2, 83280, Note_on_c, 0, 53, 0
2, 83280, Note_on_c, 0, 55, 42
2, 83400, Note_on_c, 0, 55, 0
2, 83400, Note_on_c, 0, 57, 39
2, 83520, Note_on_c, 0, 57, 0
2, 83520, Note_on_c, 0, 63, 0
2, 83520, Note_on_c, 0, 62, 34
2, 83520, Note_on_c, 0, 58, 42
2, 83760, Note_on_c, 0, 58, 0
2, 83760, Note_on_c, 0, 53, 33
2, 83960, Note_on_c, 0, 53, 0
2, 83970, Note_on_c, 0, 57, 37
2, 84000, Note_on_c, 0, 57, 0
2, 84000, Note_on_c, 0, 62, 0
2, 84000, Note_on_c, 0, 63, 39
2, 84000, Note_on_c, 0, 55, 43
2, 84120, Note_on_c, 0, 55, 0
2, 84120, Note_on_c, 0, 53, 40
2, 84240, Note_on_c, 0, 53, 0
2, 84240, Note_on_c, 0, 55, 44
2, 84360, Note_on_c, 0, 55, 0
2, 84360, Note_on_c, 0, 57, 40
2, 84480, Note_on_c, 0, 57, 0
2, 84480, Note_on_c, 0, 63, 0
2, 84480, Note_on_c, 0, 62, 36
2, 84480, Note_on_c, 0, 58, 44
2, 84720, Note_on_c, 0, 58, 0
2, 84720, Note_on_c, 0, 53, 34
2, 84900, Note_on_c, 0, 53, 0
2, 84930, Note_on_c, 0, 57, 39
2, 84960, Note_on_c, 0, 57, 0
2, 84960, Note_on_c, 0, 62, 0
2, 84960, Note_on_c, 0, 63, 44
2, 84960, Note_on_c, 0, 55, 46
2, 85080, Note_on_c, 0, 55, 0
2, 85080, Note_on_c, 0, 53, 43
2, 85200, Note_on_c, 0, 53, 0
2, 85200, Note_on_c, 0, 55, 47
2, 85320, Note_on_c, 0, 55, 0
2, 85320, Note_on_c, 0, 57, 44
2, 85440, Note_on_c, 0, 57, 0
2, 85440, Note_on_c, 0, 63, 0
2, 85440, Note_on_c, 0, 62, 42
2, 85440, Note_on_c, 0, 58, 48
2, 85560, Note_on_c, 0, 58, 0
2, 85560, Note_on_c, 0, 53, 41
2, 85680, Note_on_c, 0, 53, 0
2, 85680, Note_on_c, 0, 62, 0
2, 85680, Note_on_c, 0, 63, 40
2, 85680, Note_on_c, 0, 57, 50
2, 85800, Note_on_c, 0, 57, 0
2, 85800, Note_on_c, 0, 53, 43
2, 85920, Note_on_c, 0, 53, 0
2, 85920, Note_on_c, 0, 63, 0
2, 85920, Note_on_c, 0, 62, 49
2, 85920, Note_on_c, 0, 58, 51
2, 86040, Note_on_c, 0, 58, 0
2, 86040, Note_on_c, 0, 53, 46
2, 86160, Note_on_c, 0, 53, 0
2, 86160, Note_on_c, 0, 62, 0
2, 86160, Note_on_c, 0, 63, 42
2, 86160, Note_on_c, 0, 57, 52
2, 86280, Note_on_c, 0, 57, 0
2, 86280, Note_on_c, 0, 53, 47
2, 86400, Note_on_c, 0, 53, 0
2, 86400, Note_on_c, 0, 63, 0
2, 86400, Note_on_c, 0, 58, 34
2, 86400, Note_on_c, 0, 62, 40
2, 86520, Note_on_c, 0, 62, 0
2, 86520, Note_on_c, 0, 58, 0
2, 86880, Note_on_c, 0, 62, 34
2, 86880, Note_on_c, 0, 70, 40
2, 87000, Note_on_c, 0, 70, 0
2, 87000, Note_on_c, 0, 62, 0
2, 88320, Note_on_c, 0, 62, 61
2, 88320, Note_on_c, 0, 67, 61
2, 88320, Note_on_c, 0, 70, 61
2, 88320, Note_on_c, 0, 74, 79
2, 89270, Note_on_c, 0, 70, 0
2, 89270, Note_on_c, 0, 67, 0
2, 89280, Note_on_c, 0, 69, 62
2, 89280, Note_on_c, 0, 72, 62
2, 89400, Note_on_c, 0, 72, 0
2, 89400, Note_on_c, 0, 69, 0
2, 89750, Note_on_c, 0, 62, 0
2, 89750, Note_on_c, 0, 74, 0
2, 89760, Note_on_c, 0, 62, 59
2, 89760, Note_on_c, 0, 74, 81
2, 89760, Note_on_c, 0, 69, 59
2, 89760, Note_on_c, 0, 66, 59
2, 90710, Note_on_c, 0, 66, 0
2, 90710, Note_on_c, 0, 69, 0
2, 90720, Note_on_c, 0, 70, 62
2, 90720, Note_on_c, 0, 67, 62
2, 90840, Note_on_c, 0, 67, 0
2, 90840, Note_on_c, 0, 70, 0
2, 91190, Note_on_c, 0, 74, 0
2, 91190, Note_on_c, 0, 62, 0
2, 91200, Note_on_c, 0, 67, 68
2, 91200, Note_on_c, 0, 70, 68
2, 91200, Note_on_c, 0, 79, 89
2, 92160, Note_on_c, 0, 79, 0
2, 92160, Note_on_c, 0, 70, 0
2, 92160, Note_on_c, 0, 67, 0
2, 92160, Note_on_c, 0, 66, 63
2, 92160, Note_on_c, 0, 69, 63
2, 92160, Note_on_c, 0, 78, 75
2, 92640, Note_on_c, 0, 78, 0
2, 92640, Note_on_c, 0, 69, 0
2, 92640, Note_on_c, 0, 66, 0
2, 94080, Note_on_c, 0, 67, 61
2, 94080, Note_on_c, 0, 70, 61
2, 94080, Note_on_c, 0, 74, 61
2, 94080, Note_on_c, 0, 79, 79
2, 94560, Note_on_c, 0, 74, 0
2, 94560, Note_on_c, 0, 73, 74
2, 95040, Note_on_c, 0, 73, 0
2, 95040, Note_on_c, 0, 76, 80
2, 95160, Note_on_c, 0, 76, 0
2, 95510, Note_on_c, 0, 79, 0
2, 95510, Note_on_c, 0, 67, 0
2, 95520, Note_on_c, 0, 70, 0
2, 95520, Note_on_c, 0, 85, 86
2, 95520, Note_on_c, 0, 76, 59
2, 95520, Note_on_c, 0, 73, 66
2, 96000, Note_on_c, 0, 76, 0
2, 96000, Note_on_c, 0, 79, 80
2, 96480, Note_on_c, 0, 79, 0
2, 96480, Note_on_c, 0, 73, 0
2, 96480, Note_on_c, 0, 85, 0
2, 96480, Note_on_c, 0, 74, 74
2, 96480, Note_on_c, 0, 86, 88
2, 96480, Note_on_c, 0, 77, 74
2, 96600, Note_on_c, 0, 77, 0
2, 96600, Note_on_c, 0, 86, 0
2, 96600, Note_on_c, 0, 74, 0
2, 96960, Note_on_c, 0, 74, 74
2, 96960, Note_on_c, 0, 76, 74
2, 96960, Note_on_c, 0, 86, 88
2, 97200, Note_on_c, 0, 86, 0
2, 97200, Note_on_c, 0, 76, 0
2, 97200, Note_on_c, 0, 74, 0
2, 97440, Note_on_c, 0, 73, 70
2, 97440, Note_on_c, 0, 76, 70
2, 97440, Note_on_c, 0, 85, 83
2, 97680, Note_on_c, 0, 85, 0
2, 97680, Note_on_c, 0, 76, 0
2, 97680, Note_on_c, 0, 73, 0
2, 97920, Note_on_c, 0, 74, 74
2, 97920, Note_on_c, 0, 77, 74
2, 97920, Note_on_c, 0, 86, 88
2, 98400, Note_on_c, 0, 86, 0
2, 98400, Note_on_c, 0, 77, 0
2, 98400, Note_on_c, 0, 74, 0
2, 99840, Note_on_c, 0, 62, 61
2, 99840, Note_on_c, 0, 67, 61
2, 99840, Note_on_c, 0, 70, 61
2, 99840, Note_on_c, 0, 74, 79
2, 100790, Note_on_c, 0, 70, 0
2, 100790, Note_on_c, 0, 67, 0
2, 100800, Note_on_c, 0, 69, 62
2, 100800, Note_on_c, 0, 72, 62
2, 100920, Note_on_c, 0, 72, 0
2, 100920, Note_on_c, 0, 69, 0
2, 101270, Note_on_c, 0, 62, 0
2, 101270, Note_on_c, 0, 74, 0
2, 101280, Note_on_c, 0, 62, 59
2, 101280, Note_on_c, 0, 74, 81
2, 101280, Note_on_c, 0, 69, 59
2, 101280, Note_on_c, 0, 66, 59
2, 102230, Note_on_c, 0, 66, 0
2, 102230, Note_on_c, 0, 69, 0
2, 102240, Note_on_c, 0, 70, 62
2, 102240, Note_on_c, 0, 67, 62
2, 102360, Note_on_c, 0, 67, 0
2, 102360, Note_on_c, 0, 70, 0
2, 102710, Note_on_c, 0, 74, 0
2, 102710, Note_on_c, 0, 62, 0
2, 102720, Note_on_c, 0, 67, 68
2, 102720, Note_on_c, 0, 70, 68
2, 102720, Note_on_c, 0, 79, 89
2, 103680, Note_on_c, 0, 79, 0
2, 103680, Note_on_c, 0, 70, 0
2, 103680, Note_on_c, 0, 67, 0
2, 103680, Note_on_c, 0, 66, 63
2, 103680, Note_on_c, 0, 69, 63
2, 103680, Note_on_c, 0, 78, 75
2, 104160, Note_on_c, 0, 78, 0
2, 104160, Note_on_c, 0, 69, 0
2, 104160, Note_on_c, 0, 66, 0
2, 105600, Note_on_c, 0, 67, 61
2, 105600, Note_on_c, 0, 70, 61
2, 105600, Note_on_c, 0, 74, 61
2, 105600, Note_on_c, 0, 79, 79
2, 106080, Note_on_c, 0, 74, 0
2, 106080, Note_on_c, 0, 73, 74
2, 106560, Note_on_c, 0, 73, 0
2, 106560, Note_on_c, 0, 76, 80
2, 106680, Note_on_c, 0, 76, 0
2, 107030, Note_on_c, 0, 79, 0
2, 107030, Note_on_c, 0, 67, 0
2, 107040, Note_on_c, 0, 70, 0
2, 107040, Note_on_c, 0, 85, 86
2, 107040, Note_on_c, 0, 76, 59
2, 107040, Note_on_c, 0, 73, 66
2, 107520, Note_on_c, 0, 76, 0
2, 107520, Note_on_c, 0, 79, 80
2, 108000, Note_on_c, 0, 79, 0
2, 108000, Note_on_c, 0, 73, 0
2, 108000, Note_on_c, 0, 85, 0
2, 108000, Note_on_c, 0, 74, 74
2, 108000, Note_on_c, 0, 86, 88
2, 108000, Note_on_c, 0, 77, 74
2, 108120, Note_on_c, 0, 77, 0
2, 108120, Note_on_c, 0, 86, 0
2, 108120, Note_on_c, 0, 74, 0
2, 108480, Note_on_c, 0, 74, 74
2, 108480, Note_on_c, 0, 76, 74
2, 108480, Note_on_c, 0, 86, 88
2, 108720, Note_on_c, 0, 86, 0
2, 108720, Note_on_c, 0, 76, 0
2, 108720, Note_on_c, 0, 74, 0
2, 108960, Note_on_c, 0, 73, 70
2, 108960, Note_on_c, 0, 76, 70
2, 108960, Note_on_c, 0, 85, 83
2, 109200, Note_on_c, 0, 85, 0
2, 109200, Note_on_c, 0, 76, 0
2, 109200, Note_on_c, 0, 73, 0
2, 109440, Note_on_c, 0, 74, 74
2, 109440, Note_on_c, 0, 77, 74
2, 109440, Note_on_c, 0, 86, 88
2, 109920, Note_on_c, 0, 86, 0
2, 109920, Note_on_c, 0, 77, 0
2, 109920, Note_on_c, 0, 74, 0
2, 110400, Note_on_c, 0, 80, 74
2, 110520, Note_on_c, 0, 80, 0
2, 110520, Note_on_c, 0, 82, 48
2, 110640, Note_on_c, 0, 82, 0
2, 110640, Note_on_c, 0, 80, 48
2, 110760, Note_on_c, 0, 80, 0
2, 110760, Note_on_c, 0, 79, 48
2, 110880, Note_on_c, 0, 79, 0
2, 110880, Note_on_c, 0, 77, 68
2, 111000, Note_on_c, 0, 77, 0
2, 111000, Note_on_c, 0, 79, 48
2, 111120, Note_on_c, 0, 79, 0
2, 111120, Note_on_c, 0, 77, 47
2, 111240, Note_on_c, 0, 77, 0
2, 111240, Note_on_c, 0, 75, 47
2, 111360, Note_on_c, 0, 75, 0
2, 111360, Note_on_c, 0, 74, 63
2, 111480, Note_on_c, 0, 74, 0
2, 111480, Note_on_c, 0, 75, 46
2, 111600, Note_on_c, 0, 75, 0
2, 111600, Note_on_c, 0, 74, 46
2, 111720, Note_on_c, 0, 74, 0
2, 111720, Note_on_c, 0, 72, 46
2, 111840, Note_on_c, 0, 72, 0
2, 111840, Note_on_c, 0, 79, 74
2, 111840, Note_on_c, 0, 71, 84
2, 111960, Note_on_c, 0, 79, 0
2, 111960, Note_on_c, 0, 80, 48
2, 112080, Note_on_c, 0, 80, 0
2, 112080, Note_on_c, 0, 79, 48
2, 112200, Note_on_c, 0, 79, 0
2, 112200, Note_on_c, 0, 77, 48
2, 112320, Note_on_c, 0, 77, 0
2, 112320, Note_on_c, 0, 71, 0
2, 112320, Note_on_c, 0, 72, 66
2, 112320, Note_on_c, 0, 75, 68
2, 112440, Note_on_c, 0, 75, 0
2, 112440, Note_on_c, 0, 77, 48
2, 112560, Note_on_c, 0, 77, 0
2, 112560, Note_on_c, 0, 72, 0
2, 112560, Note_on_c, 0, 75, 47
2, 112680, Note_on_c, 0, 75, 0
2, 112680, Note_on_c, 0, 74, 47
2, 112800, Note_on_c, 0, 74, 0
2, 112800, Note_on_c, 0, 72, 63
2, 112920, Note_on_c, 0, 71, 46
2, 113040, Note_on_c, 0, 71, 0
2, 113040, Note_on_c, 0, 72, 0
2, 113040, Note_on_c, 0, 72, 46
2, 113160, Note_on_c, 0, 72, 0
2, 113160, Note_on_c, 0, 74, 46
2, 113280, Note_on_c, 0, 74, 0
2, 113280, Note_on_c, 0, 75, 74
2, 113400, Note_on_c, 0, 75, 0
2, 113400, Note_on_c, 0, 77, 48
2, 113520, Note_on_c, 0, 77, 0
2, 113520, Note_on_c, 0, 75, 48
2, 113640, Note_on_c, 0, 75, 0
2, 113640, Note_on_c, 0, 74, 48
2, 113760, Note_on_c, 0, 74, 0
2, 113760, Note_on_c, 0, 72, 68
2, 113880, Note_on_c, 0, 72, 0
2, 113880, Note_on_c, 0, 74, 48
2, 114000, Note_on_c, 0, 74, 0
2, 114000, Note_on_c, 0, 72, 47
2, 114120, Note_on_c, 0, 72, 0
2, 114120, Note_on_c, 0, 70, 47
2, 114240, Note_on_c, 0, 70, 0
2, 114240, Note_on_c, 0, 69, 63
2, 114360, Note_on_c, 0, 69, 0
2, 114360, Note_on_c, 0, 70, 46
2, 114480, Note_on_c, 0, 70, 0
2, 114480, Note_on_c, 0, 69, 46
2, 114600, Note_on_c, 0, 69, 0
2, 114600, Note_on_c, 0, 67, 46
2, 114720, Note_on_c, 0, 67, 0
2, 114720, Note_on_c, 0, 74, 74
2, 114720, Note_on_c, 0, 66, 79
2, 114840, Note_on_c, 0, 74, 0
2, 114840, Note_on_c, 0, 75, 48
2, 114960, Note_on_c, 0, 75, 0
2, 114960, Note_on_c, 0, 74, 48
2, 115080, Note_on_c, 0, 74, 0
2, 115080, Note_on_c, 0, 72, 48
2, 115200, Note_on_c, 0, 72, 0
2, 115200, Note_on_c, 0, 66, 0
2, 115200, Note_on_c, 0, 67, 66
2, 115200, Note_on_c, 0, 70, 68
2, 115320, Note_on_c, 0, 70, 0
2, 115320, Note_on_c, 0, 72, 48
2, 115440, Note_on_c, 0, 72, 0
2, 115440, Note_on_c, 0, 67, 0
2, 115440, Note_on_c, 0, 70, 47
2, 115560, Note_on_c, 0, 70, 0
2, 115560, Note_on_c, 0, 69, 47
2, 115680, Note_on_c, 0, 69, 0
2, 115680, Note_on_c, 0, 67, 63
2, 115800, Note_on_c, 0, 67, 0
2, 115800, Note_on_c, 0, 66, 46
2, 115920, Note_on_c, 0, 66, 0
2, 115920, Note_on_c, 0, 67, 46
2, 116040, Note_on_c, 0, 67, 0
2, 116040, Note_on_c, 0, 69, 46
2, 116160, Note_on_c, 0, 69, 0
2, 116160, Note_on_c, 0, 67, 59
2, 116160, Note_on_c, 0, 70, 59
2, 116160, Note_on_c, 0, 74, 77
2, 117120, Note_on_c, 0, 74, 0
2, 117120, Note_on_c, 0, 70, 0
2, 117120, Note_on_c, 0, 67, 0
2, 117120, Note_on_c, 0, 67, 61
2, 117120, Note_on_c, 0, 70, 61
2, 117120, Note_on_c, 0, 74, 61
2, 117120, Note_on_c, 0, 79, 86
2, 118080, Note_on_c, 0, 74, 0
2, 118080, Note_on_c, 0, 72, 71
2, 118080, Note_on_c, 0, 75, 80
2, 118200, Note_on_c, 0, 75, 0
2, 118200, Note_on_c, 0, 72, 0
2, 118550, Note_on_c, 0, 79, 0
2, 118550, Note_on_c, 0, 67, 0
2, 118560, Note_on_c, 0, 70, 0
2, 118560, Note_on_c, 0, 84, 86
2, 118560, Note_on_c, 0, 75, 59
2, 118560, Note_on_c, 0, 72, 66
2, 119040, Note_on_c, 0, 75, 0
2, 119040, Note_on_c, 0, 81, 69
2, 119510, Note_on_c, 0, 81, 0
2, 119520, Note_on_c, 0, 78, 74
2, 119520, Note_on_c, 0, 81, 66
2, 119640, Note_on_c, 0, 81, 0
2, 119640, Note_on_c, 0, 84, 0
2, 119640, Note_on_c, 0, 72, 0
2, 119640, Note_on_c, 0, 78, 0
2, 120000, Note_on_c, 0, 79, 74
2, 120000, Note_on_c, 0, 70, 67
2, 120000, Note_on_c, 0, 74, 67
2, 120000, Note_on_c, 0, 82, 88
2, 120240, Note_on_c, 0, 82, 0
2, 120240, Note_on_c, 0, 79, 0
2, 120240, Note_on_c, 0, 70, 0
2, 120240, Note_on_c, 0, 74, 0
2, 120480, Note_on_c, 0, 69, 62
2, 120480, Note_on_c, 0, 66, 62
2, 120480, Note_on_c, 0, 74, 70
2, 120480, Note_on_c, 0, 78, 83
2, 120720, Note_on_c, 0, 78, 0
2, 120720, Note_on_c, 0, 69, 0
2, 120720, Note_on_c, 0, 66, 0
2, 120720, Note_on_c, 0, 74, 0
2, 120960, Note_on_c, 0, 70, 67
2, 120960, Note_on_c, 0, 67, 67
2, 120960, Note_on_c, 0, 74, 74
2, 120960, Note_on_c, 0, 79, 88
2, 121440, Note_on_c, 0, 79, 0
2, 121440, Note_on_c, 0, 70, 0
2, 121440, Note_on_c, 0, 67, 0
2, 121440, Note_on_c, 0, 74, 0
2, 121920, Note_on_c, 0, 80, 74
2, 122040, Note_on_c, 0, 80, 0
2, 122040, Note_on_c, 0, 82, 48
2, 122160, Note_on_c, 0, 82, 0
2, 122160, Note_on_c, 0, 80, 48
2, 122280, Note_on_c, 0, 80, 0
2, 122280, Note_on_c, 0, 79, 48
2, 122400, Note_on_c, 0, 79, 0
2, 122400, Note_on_c, 0, 77, 68
2, 122520, Note_on_c, 0, 77, 0
2, 122520, Note_on_c, 0, 79, 48
2, 122640, Note_on_c, 0, 79, 0
2, 122640, Note_on_c, 0, 77, 47
2, 122760, Note_on_c, 0, 77, 0
2, 122760, Note_on_c, 0, 75, 47
2, 122880, Note_on_c, 0, 75, 0
2, 122880, Note_on_c, 0, 74, 63
2, 123000, Note_on_c, 0, 74, 0
2, 123000, Note_on_c, 0, 75, 46
2, 123120, Note_on_c, 0, 75, 0
2, 123120, Note_on_c, 0, 74, 46
2, 123240, Note_on_c, 0, 74, 0
2, 123240, Note_on_c, 0, 72, 46
2, 123360, Note_on_c, 0, 72, 0
2, 123360, Note_on_c, 0, 79, 74
2, 123360, Note_on_c, 0, 71, 84
2, 123480, Note_on_c, 0, 79, 0
2, 123480, Note_on_c, 0, 80, 48
2, 123600, Note_on_c, 0, 80, 0
2, 123600, Note_on_c, 0, 79, 48
2, 123720, Note_on_c, 0, 79, 0
2, 123720, Note_on_c, 0, 77, 48
2, 123840, Note_on_c, 0, 77, 0
2, 123840, Note_on_c, 0, 71, 0
2, 123840, Note_on_c, 0, 72, 66
2, 123840, Note_on_c, 0, 75, 68
2, 123960, Note_on_c, 0, 75, 0
2, 123960, Note_on_c, 0, 77, 48
2, 124080, Note_on_c, 0, 77, 0
2, 124080, Note_on_c, 0, 72, 0
2, 124080, Note_on_c, 0, 75, 47
2, 124200, Note_on_c, 0, 75, 0
2, 124200, Note_on_c, 0, 74, 47
2, 124320, Note_on_c, 0, 74, 0
2, 124320, Note_on_c, 0, 72, 63
2, 124440, Note_on_c, 0, 71, 46
2, 124560, Note_on_c, 0, 71, 0
2, 124560, Note_on_c, 0, 72, 0
2, 124560, Note_on_c, 0, 72, 46
2, 124680, Note_on_c, 0, 72, 0
2, 124680, Note_on_c, 0, 74, 46
2, 124800, Note_on_c, 0, 74, 0
2, 124800, Note_on_c, 0, 75, 74
2, 124920, Note_on_c, 0, 75, 0
2, 124920, Note_on_c, 0, 77, 48
2, 125040, Note_on_c, 0, 77, 0
2, 125040, Note_on_c, 0, 75, 48
2, 125160, Note_on_c, 0, 75, 0
2, 125160, Note_on_c, 0, 74, 48
2, 125280, Note_on_c, 0, 74, 0
2, 125280, Note_on_c, 0, 72, 68
2, 125400, Note_on_c, 0, 72, 0
2, 125400, Note_on_c, 0, 74, 48
2, 125520, Note_on_c, 0, 74, 0
2, 125520, Note_on_c, 0, 72, 47
2, 125640, Note_on_c, 0, 72, 0
2, 125640, Note_on_c, 0, 70, 47
2, 125760, Note_on_c, 0, 70, 0
2, 125760, Note_on_c, 0, 69, 63
2, 125880, Note_on_c, 0, 69, 0
2, 125880, Note_on_c, 0, 70, 46
2, 126000, Note_on_c, 0, 70, 0
2, 126000, Note_on_c, 0, 69, 46
2, 126120, Note_on_c, 0, 69, 0
2, 126120, Note_on_c, 0, 67, 46
2, 126240, Note_on_c, 0, 67, 0
2, 126240, Note_on_c, 0, 74, 74
2, 126240, Note_on_c, 0, 66, 79
2, 126360, Note_on_c, 0, 74, 0
2, 126360, Note_on_c, 0, 75, 48
2, 126480, Note_on_c, 0, 75, 0
2, 126480, Note_on_c, 0, 74, 48
2, 126600, Note_on_c, 0, 74, 0
2, 126600, Note_on_c, 0, 72, 48
2, 126720, Note_on_c, 0, 72, 0
2, 126720, Note_on_c, 0, 66, 0
2, 126720, Note_on_c, 0, 67, 66
2, 126720, Note_on_c, 0, 70, 68
2, 126840, Note_on_c, 0, 70, 0
2, 126840, Note_on_c, 0, 72, 48
2, 126960, Note_on_c, 0, 72, 0
2, 126960, Note_on_c, 0, 67, 0
2, 126960, Note_on_c, 0, 70, 47
2, 127080, Note_on_c, 0, 70, 0
2, 127080, Note_on_c, 0, 69, 47
2, 127200, Note_on_c, 0, 69, 0
2, 127200, Note_on_c, 0, 67, 63
2, 127320, Note_on_c, 0, 67, 0
2, 127320, Note_on_c, 0, 66, 46
2, 127440, Note_on_c, 0, 66, 0
2, 127440, Note_on_c, 0, 67, 46
2, 127560, Note_on_c, 0, 67, 0
2, 127560, Note_on_c, 0, 69, 46
2, 127680, Note_on_c, 0, 69, 0
2, 127680, Note_on_c, 0, 67, 59
2, 127680, Note_on_c, 0, 70, 59
2, 127680, Note_on_c, 0, 74, 77
2, 128640, Note_on_c, 0, 74, 0
2, 128640, Note_on_c, 0, 70, 0
2, 128640, Note_on_c, 0, 67, 0
2, 128640, Note_on_c, 0, 67, 61
2, 128640, Note_on_c, 0, 70, 61
2, 128640, Note_on_c, 0, 74, 61
2, 128640, Note_on_c, 0, 79, 86
2, 129600, Note_on_c, 0, 74, 0
2, 129600, Note_on_c, 0, 72, 71
2, 129600, Note_on_c, 0, 75, 80
2, 129720, Note_on_c, 0, 75, 0
2, 129720, Note_on_c, 0, 72, 0
2, 130070, Note_on_c, 0, 79, 0
2, 130070, Note_on_c, 0, 67, 0
2, 130080, Note_on_c, 0, 70, 0
2, 130080, Note_on_c, 0, 84, 86
2, 130080, Note_on_c, 0, 75, 59
2, 130080, Note_on_c, 0, 72, 66
2, 130560, Note_on_c, 0, 75, 0
2, 130560, Note_on_c, 0, 81, 69
2, 131030, Note_on_c, 0, 81, 0
2, 131040, Note_on_c, 0, 78, 74
2, 131040, Note_on_c, 0, 81, 66
2, 131160, Note_on_c, 0, 81, 0
2, 131160, Note_on_c, 0, 84, 0
2, 131160, Note_on_c, 0, 72, 0
2, 131160, Note_on_c, 0, 78, 0
2, 131520, Note_on_c, 0, 79, 74
2, 131520, Note_on_c, 0, 70, 67
2, 131520, Note_on_c, 0, 74, 67
2, 131520, Note_on_c, 0, 82, 88
2, 131760, Note_on_c, 0, 82, 0
2, 131760, Note_on_c, 0, 79, 0
2, 131760, Note_on_c, 0, 70, 0
2, 131760, Note_on_c, 0, 74, 0
2, 132000, Note_on_c, 0, 69, 62
2, 132000, Note_on_c, 0, 66, 62
2, 132000, Note_on_c, 0, 74, 70
2, 132000, Note_on_c, 0, 78, 83
2, 132240, Note_on_c, 0, 78, 0
2, 132240, Note_on_c, 0, 69, 0
2, 132240, Note_on_c, 0, 66, 0
2, 132240, Note_on_c, 0, 74, 0
2, 132480, Note_on_c, 0, 70, 67
2, 132480, Note_on_c, 0, 67, 67
2, 132480, Note_on_c, 0, 74, 74
2, 132480, Note_on_c, 0, 79, 88
2, 132960, Note_on_c, 0, 79, 0
2, 132960, Note_on_c, 0, 70, 0
2, 132960, Note_on_c, 0, 67, 0
2, 132960, Note_on_c, 0, 74, 0
2, 133440, Note_on_c, 0, 62, 50
2, 133800, Note_on_c, 0, 62, 0
2, 133800, Note_on_c, 0, 63, 46
2, 133920, Note_on_c, 0, 63, 0
2, 133920, Note_on_c, 0, 65, 50
2, 134850, Note_on_c, 0, 65, 0
2, 134850, Note_on_c, 0, 69, 46
2, 134880, Note_on_c, 0, 69, 0
2, 134880, Note_on_c, 0, 67, 50
2, 135000, Note_on_c, 0, 67, 0
2, 135000, Note_on_c, 0, 65, 45
2, 135120, Note_on_c, 0, 65, 0
2, 135120, Note_on_c, 0, 67, 50
2, 135240, Note_on_c, 0, 67, 0
2, 135240, Note_on_c, 0, 69, 43
2, 135360, Note_on_c, 0, 69, 0
2, 135360, Note_on_c, 0, 70, 50
2, 135840, Note_on_c, 0, 70, 0
2, 135840, Note_on_c, 0, 65, 41
2, 136260, Note_on_c, 0, 65, 0
2, 136290, Note_on_c, 0, 69, 43
2, 136320, Note_on_c, 0, 69, 0
2, 136320, Note_on_c, 0, 67, 50
2, 136440, Note_on_c, 0, 67, 0
2, 136440, Note_on_c, 0, 65, 46
2, 136560, Note_on_c, 0, 65, 0
2, 136560, Note_on_c, 0, 67, 50
2, 136680, Note_on_c, 0, 67, 0
2, 136680, Note_on_c, 0, 69, 50
2, 136800, Note_on_c, 0, 69, 0
2, 136800, Note_on_c, 0, 70, 50
2, 136860, Note_on_c, 0, 70, 0
2, 137160, Note_on_c, 0, 69, 46
2, 137220, Note_on_c, 0, 69, 0
2, 137280, Note_on_c, 0, 70, 56
2, 137340, Note_on_c, 0, 70, 0
2, 137640, Note_on_c, 0, 72, 48
2, 137700, Note_on_c, 0, 72, 0
2, 137760, Note_on_c, 0, 74, 55
2, 137820, Note_on_c, 0, 74, 0
2, 138120, Note_on_c, 0, 76, 59
2, 138180, Note_on_c, 0, 76, 0
2, 138240, Note_on_c, 0, 70, 53
2, 138240, Note_on_c, 0, 76, 63
2, 138720, Note_on_c, 0, 76, 0
2, 138720, Note_on_c, 0, 70, 0
2, 138720, Note_on_c, 0, 69, 48
2, 138720, Note_on_c, 0, 77, 57
2, 138960, Note_on_c, 0, 77, 0
2, 138960, Note_on_c, 0, 69, 0
2, 139170, Note_on_c, 0, 77, 43
2, 139200, Note_on_c, 0, 77, 0
2, 139200, Note_on_c, 0, 75, 50
2, 139320, Note_on_c, 0, 75, 0
2, 139320, Note_on_c, 0, 74, 46
2, 139440, Note_on_c, 0, 74, 0
2, 139440, Note_on_c, 0, 75, 54
2, 139560, Note_on_c, 0, 75, 0
2, 139560, Note_on_c, 0, 77, 51
2, 139680, Note_on_c, 0, 77, 0
2, 139680, Note_on_c, 0, 79, 59
2, 140160, Note_on_c, 0, 79, 0
2, 140160, Note_on_c, 0, 72, 50
2, 140580, Note_on_c, 0, 72, 0
2, 140610, Note_on_c, 0, 74, 43
2, 140640, Note_on_c, 0, 74, 0
2, 140640, Note_on_c, 0, 72, 50
2, 140760, Note_on_c, 0, 72, 0
2, 140760, Note_on_c, 0, 71, 46
2, 140880, Note_on_c, 0, 71, 0
2, 140880, Note_on_c, 0, 72, 54
2, 141000, Note_on_c, 0, 72, 0
2, 141000, Note_on_c, 0, 74, 51
2, 141120, Note_on_c, 0, 74, 0
2, 141120, Note_on_c, 0, 75, 59
2, 141600, Note_on_c, 0, 75, 0
2, 141600, Note_on_c, 0, 69, 50
2, 142020, Note_on_c, 0, 69, 0
2, 142050, Note_on_c, 0, 70, 43
2, 142080, Note_on_c, 0, 70, 0
2, 142080, Note_on_c, 0, 69, 50
2, 142200, Note_on_c, 0, 69, 0
2, 142200, Note_on_c, 0, 67, 46
2, 142320, Note_on_c, 0, 67, 0
2, 142320, Note_on_c, 0, 69, 52
2, 142440, Note_on_c, 0, 69, 0
2, 142440, Note_on_c, 0, 70, 48
2, 142520, Note_on_c, 0, 70, 0
2, 142530, Note_on_c, 0, 74, 43
2, 142560, Note_on_c, 0, 74, 0
2, 142560, Note_on_c, 0, 72, 53
2, 142680, Note_on_c, 0, 72, 0
2, 142680, Note_on_c, 0, 71, 50
2, 142800, Note_on_c, 0, 71, 0
2, 142800, Note_on_c, 0, 72, 54
2, 142920, Note_on_c, 0, 72, 0
2, 142920, Note_on_c, 0, 74, 51
2, 143000, Note_on_c, 0, 74, 0
2, 143010, Note_on_c, 0, 77, 43
2, 143040, Note_on_c, 0, 77, 0
2, 143040, Note_on_c, 0, 75, 57
2, 143160, Note_on_c, 0, 75, 0
2, 143160, Note_on_c, 0, 74, 52
2, 143280, Note_on_c, 0, 74, 0
2, 143280, Note_on_c, 0, 75, 58
2, 143400, Note_on_c, 0, 75, 0
2, 143400, Note_on_c, 0, 77, 55
2, 143520, Note_on_c, 0, 77, 0
2, 143520, Note_on_c, 0, 79, 64
2, 143580, Note_on_c, 0, 79, 0
2, 143880, Note_on_c, 0, 69, 42
2, 144000, Note_on_c, 0, 69, 0
2, 144000, Note_on_c, 0, 72, 50
2, 144480, Note_on_c, 0, 72, 0
2, 144480, Note_on_c, 0, 70, 44
2, 144720, Note_on_c, 0, 70, 0
2, 144960, Note_on_c, 0, 69, 38
2, 144960, Note_on_c, 0, 74, 46
2, 145080, Note_on_c, 0, 74, 0
2, 145080, Note_on_c, 0, 69, 0
2, 145080, Note_on_c, 0, 70, 34
2, 145080, Note_on_c, 0, 73, 41
2, 145200, Note_on_c, 0, 73, 0
2, 145200, Note_on_c, 0, 70, 0
2, 145200, Note_on_c, 0, 69, 41
2, 145200, Note_on_c, 0, 74, 49
2, 145320, Note_on_c, 0, 74, 0
2, 145320, Note_on_c, 0, 69, 0
2, 145320, Note_on_c, 0, 70, 34
2, 145320, Note_on_c, 0, 73, 40
2, 145440, Note_on_c, 0, 73, 0
2, 145440, Note_on_c, 0, 70, 0
2, 145440, Note_on_c, 0, 69, 45
2, 145440, Note_on_c, 0, 74, 53
2, 145560, Note_on_c, 0, 74, 0
2, 145560, Note_on_c, 0, 69, 0
2, 145560, Note_on_c, 0, 70, 40
2, 145560, Note_on_c, 0, 73, 49
2, 145680, Note_on_c, 0, 73, 0
2, 145680, Note_on_c, 0, 70, 0
2, 145680, Note_on_c, 0, 69, 48
2, 145680, Note_on_c, 0, 74, 57
2, 145800, Note_on_c, 0, 74, 0
2, 145800, Note_on_c, 0, 69, 0
2, 145800, Note_on_c, 0, 70, 39
2, 145800, Note_on_c, 0, 73, 46
2, 145920, Note_on_c, 0, 73, 0
2, 145920, Note_on_c, 0, 70, 0
2, 145920, Note_on_c, 0, 69, 52
2, 145920, Note_on_c, 0, 74, 62
2, 146040, Note_on_c, 0, 74, 0
2, 146040, Note_on_c, 0, 69, 0
2, 146040, Note_on_c, 0, 70, 47
2, 146040, Note_on_c, 0, 73, 56
2, 146160, Note_on_c, 0, 73, 0
2, 146160, Note_on_c, 0, 70, 0
2, 146160, Note_on_c, 0, 69, 55
2, 146160, Note_on_c, 0, 74, 66
2, 146280, Note_on_c, 0, 74, 0
2, 146280, Note_on_c, 0, 69, 0
2, 146280, Note_on_c, 0, 70, 46
2, 146280, Note_on_c, 0, 73, 54
2, 146400, Note_on_c, 0, 73, 0
2, 146400, Note_on_c, 0, 70, 0
2, 146400, Note_on_c, 0, 69, 59
2, 146400, Note_on_c, 0, 74, 70
2, 146520, Note_on_c, 0, 74, 0
2, 146520, Note_on_c, 0, 69, 0
2, 146520, Note_on_c, 0, 70, 53
2, 146520, Note_on_c, 0, 73, 63
2, 146640, Note_on_c, 0, 73, 0
2, 146640, Note_on_c, 0, 70, 0
2, 146640, Note_on_c, 0, 69, 63
2, 146640, Note_on_c, 0, 74, 74
2, 146760, Note_on_c, 0, 74, 0
2, 146760, Note_on_c, 0, 69, 0
2, 146760, Note_on_c, 0, 70, 52
2, 146760, Note_on_c, 0, 73, 61
2, 146880, Note_on_c, 0, 73, 0
2, 146880, Note_on_c, 0, 70, 0
2, 146880, Note_on_c, 0, 69, 82
2, 146880, Note_on_c, 0, 74, 82
2, 147120, Note_on_c, 0, 74, 0
2, 147120, Note_on_c, 0, 69, 0
2, 147360, Note_on_c, 0, 86, 100
2, 147360, Note_on_c, 0, 78, 84
2, 148080, Note_on_c, 0, 78, 0
2, 148080, Note_on_c, 0, 86, 0
2, 148080, Note_on_c, 0, 84, 75
2, 148080, Note_on_c, 0, 78, 63
2, 148200, Note_on_c, 0, 78, 0
2, 148200, Note_on_c, 0, 84, 0
2, 148320, Note_on_c, 0, 82, 91
2, 148320, Note_on_c, 0, 79, 77
2, 148560, Note_on_c, 0, 79, 0
2, 148560, Note_on_c, 0, 82, 0
2, 148680, Note_on_c, 0, 81, 73
2, 148680, Note_on_c, 0, 75, 61
2, 148740, Note_on_c, 0, 75, 0
2, 148740, Note_on_c, 0, 81, 0
2, 148800, Note_on_c, 0, 70, 72
2, 148800, Note_on_c, 0, 79, 85
2, 149040, Note_on_c, 0, 79, 0
2, 149040, Note_on_c, 0, 70, 0
2, 149280, Note_on_c, 0, 72, 69
2, 149280, Note_on_c, 0, 78, 81
2, 149520, Note_on_c, 0, 78, 0
2, 149520, Note_on_c, 0, 72, 0
2, 149760, Note_on_c, 0, 72, 69
2, 149760, Note_on_c, 0, 81, 82
2, 150240, Note_on_c, 0, 81, 0
2, 150240, Note_on_c, 0, 72, 0
2, 150240, Note_on_c, 0, 70, 61
2, 150240, Note_on_c, 0, 79, 72
2, 150480, Note_on_c, 0, 79, 0
2, 150480, Note_on_c, 0, 70, 0
2, 150720, Note_on_c, 0, 56, 25
2, 150720, Note_on_c, 0, 58, 30
2, 150840, Note_on_c, 0, 59, 27
2, 150841, Note_on_c, 0, 58, 0
2, 150841, Note_on_c, 0, 56, 0
2, 150960, Note_on_c, 0, 56, 27
2, 150960, Note_on_c, 0, 58, 33
2, 150961, Note_on_c, 0, 59, 0
2, 151080, Note_on_c, 0, 59, 27
2, 151081, Note_on_c, 0, 58, 0
2, 151081, Note_on_c, 0, 56, 0
2, 151200, Note_on_c, 0, 56, 29
2, 151200, Note_on_c, 0, 58, 35
2, 151201, Note_on_c, 0, 59, 0
2, 151320, Note_on_c, 0, 59, 32
2, 151321, Note_on_c, 0, 58, 0
2, 151321, Note_on_c, 0, 56, 0
2, 151440, Note_on_c, 0, 56, 32
2, 151440, Note_on_c, 0, 58, 37
2, 151441, Note_on_c, 0, 59, 0
2, 151560, Note_on_c, 0, 59, 30
2, 151561, Note_on_c, 0, 58, 0
2, 151561, Note_on_c, 0, 56, 0
2, 151680, Note_on_c, 0, 56, 34
2, 151680, Note_on_c, 0, 58, 41
2, 151681, Note_on_c, 0, 59, 0
2, 151800, Note_on_c, 0, 59, 38
2, 151801, Note_on_c, 0, 58, 0
2, 151801, Note_on_c, 0, 56, 0
2, 151920, Note_on_c, 0, 56, 37
2, 151920, Note_on_c, 0, 58, 44
2, 151921, Note_on_c, 0, 59, 0
2, 152040, Note_on_c, 0, 59, 35
2, 152041, Note_on_c, 0, 58, 0
2, 152041, Note_on_c, 0, 56, 0
2, 152160, Note_on_c, 0, 56, 39
2, 152160, Note_on_c, 0, 58, 46
2, 152161, Note_on_c, 0, 59, 0
2, 152280, Note_on_c, 0, 59, 42
2, 152281, Note_on_c, 0, 58, 0
2, 152281, Note_on_c, 0, 56, 0
2, 152400, Note_on_c, 0, 56, 41
2, 152400, Note_on_c, 0, 58, 49
2, 152401, Note_on_c, 0, 59, 0
2, 152520, Note_on_c, 0, 59, 41
2, 152521, Note_on_c, 0, 58, 0
2, 152521, Note_on_c, 0, 56, 0
2, 152640, Note_on_c, 0, 56, 65
2, 152640, Note_on_c, 0, 58, 65
2, 152641, Note_on_c, 0, 59, 0
2, 152880, Note_on_c, 0, 58, 0
2, 152880, Note_on_c, 0, 56, 0
2, 153120, Note_on_c, 0, 80, 85
2, 153120, Note_on_c, 0, 71, 72
2, 153840, Note_on_c, 0, 71, 0
2, 153840, Note_on_c, 0, 80, 0
2, 153840, Note_on_c, 0, 79, 59
2, 153840, Note_on_c, 0, 72, 49
2, 154080, Note_on_c, 0, 72, 0
2, 154080, Note_on_c, 0, 79, 0
2, 154080, Note_on_c, 0, 77, 70
2, 154080, Note_on_c, 0, 68, 58
2, 154440, Note_on_c, 0, 68, 0
2, 154440, Note_on_c, 0, 77, 0
2, 154440, Note_on_c, 0, 75, 53
2, 154440, Note_on_c, 0, 67, 45
2, 154560, Note_on_c, 0, 67, 0
2, 154560, Note_on_c, 0, 75, 0
2, 154560, Note_on_c, 0, 65, 52
2, 154560, Note_on_c, 0, 74, 61
2, 155040, Note_on_c, 0, 74, 0
2, 155040, Note_on_c, 0, 65, 0
2, 155040, Note_on_c, 0, 63, 46
2, 155040, Note_on_c, 0, 72, 54
2, 155520, Note_on_c, 0, 72, 0
2, 155520, Note_on_c, 0, 63, 0
2, 155520, Note_on_c, 0, 62, 40
2, 155520, Note_on_c, 0, 70, 48
2, 156000, Note_on_c, 0, 70, 0
2, 156000, Note_on_c, 0, 62, 0
2, 156000, Note_on_c, 0, 60, 36
2, 156000, Note_on_c, 0, 69, 42
2, 156240, Note_on_c, 0, 69, 0
2, 156240, Note_on_c, 0, 60, 0
2, 156480, Note_on_c, 0, 62, 50
2, 156840, Note_on_c, 0, 62, 0
2, 156840, Note_on_c, 0, 63, 46
2, 156960, Note_on_c, 0, 63, 0
2, 156960, Note_on_c, 0, 65, 50
2, 157890, Note_on_c, 0, 65, 0
2, 157890, Note_on_c, 0, 69, 46
2, 157920, Note_on_c, 0, 69, 0
2, 157920, Note_on_c, 0, 67, 50
2, 158040, Note_on_c, 0, 67, 0
2, 158040, Note_on_c, 0, 65, 45
2, 158160, Note_on_c, 0, 65, 0
2, 158160, Note_on_c, 0, 67, 50
2, 158280, Note_on_c, 0, 67, 0
2, 158280, Note_on_c, 0, 69, 43
2, 158400, Note_on_c, 0, 69, 0
2, 158400, Note_on_c, 0, 70, 50
2, 158880, Note_on_c, 0, 70, 0
2, 158880, Note_on_c, 0, 65, 41
2, 159300, Note_on_c, 0, 65, 0
2, 159330, Note_on_c, 0, 69, 43
2, 159360, Note_on_c, 0, 69, 0
2, 159360, Note_on_c, 0, 67, 50
2, 159480, Note_on_c, 0, 67, 0
2, 159480, Note_on_c, 0, 65, 46
2, 159600, Note_on_c, 0, 65, 0
2, 159600, Note_on_c, 0, 67, 50
2, 159720, Note_on_c, 0, 67, 0
2, 159720, Note_on_c, 0, 69, 50
2, 159840, Note_on_c, 0, 69, 0
2, 159840, Note_on_c, 0, 70, 50
2, 159900, Note_on_c, 0, 70, 0
2, 160200, Note_on_c, 0, 69, 46
2, 160260, Note_on_c, 0, 69, 0
2, 160320, Note_on_c, 0, 70, 56
2, 160380, Note_on_c, 0, 70, 0
2, 160680, Note_on_c, 0, 72, 48
2, 160740, Note_on_c, 0, 72, 0
2, 160800, Note_on_c, 0, 74, 55
2, 160860, Note_on_c, 0, 74, 0
2, 161160, Note_on_c, 0, 76, 59
2, 161220, Note_on_c, 0, 76, 0
2, 161280, Note_on_c, 0, 70, 53
2, 161280, Note_on_c, 0, 76, 63
2, 161760, Note_on_c, 0, 76, 0
2, 161760, Note_on_c, 0, 70, 0
2, 161760, Note_on_c, 0, 69, 48
2, 161760, Note_on_c, 0, 77, 57
2, 162000, Note_on_c, 0, 77, 0
2, 162000, Note_on_c, 0, 69, 0
2, 162210, Note_on_c, 0, 77, 43
2, 162240, Note_on_c, 0, 77, 0
2, 162240, Note_on_c, 0, 75, 50
2, 162360, Note_on_c, 0, 75, 0
2, 162360, Note_on_c, 0, 74, 46
2, 162480, Note_on_c, 0, 74, 0
2, 162480, Note_on_c, 0, 75, 54
2, 162600, Note_on_c, 0, 75, 0
2, 162600, Note_on_c, 0, 77, 51
2, 162720, Note_on_c, 0, 77, 0
2, 162720, Note_on_c, 0, 79, 59
2, 163200, Note_on_c, 0, 79, 0
2, 163200, Note_on_c, 0, 72, 50
2, 163620, Note_on_c, 0, 72, 0
2, 163650, Note_on_c, 0, 74, 43
2, 163680, Note_on_c, 0, 74, 0
2, 163680, Note_on_c, 0, 72, 50
2, 163800, Note_on_c, 0, 72, 0
2, 163800, Note_on_c, 0, 71, 46
2, 163920, Note_on_c, 0, 71, 0
2, 163920, Note_on_c, 0, 72, 54
2, 164040, Note_on_c, 0, 72, 0
2, 164040, Note_on_c, 0, 74, 51
2, 164160, Note_on_c, 0, 74, 0
2, 164160, Note_on_c, 0, 75, 59
2, 164640, Note_on_c, 0, 75, 0
2, 164640, Note_on_c, 0, 69, 50
2, 165060, Note_on_c, 0, 69, 0
2, 165090, Note_on_c, 0, 70, 43
2, 165120, Note_on_c, 0, 70, 0
2, 165120, Note_on_c, 0, 69, 50
2, 165240, Note_on_c, 0, 69, 0
2, 165240, Note_on_c, 0, 67, 46
2, 165360, Note_on_c, 0, 67, 0
2, 165360, Note_on_c, 0, 69, 52
2, 165480, Note_on_c, 0, 69, 0
2, 165480, Note_on_c, 0, 70, 48
2, 165560, Note_on_c, 0, 70, 0
2, 165570, Note_on_c, 0, 74, 43
2, 165600, Note_on_c, 0, 74, 0
2, 165600, Note_on_c, 0, 72, 53
2, 165720, Note_on_c, 0, 72, 0
2, 165720, Note_on_c, 0, 71, 50
2, 165840, Note_on_c, 0, 71, 0
2, 165840, Note_on_c, 0, 72, 54
2, 165960, Note_on_c, 0, 72, 0
2, 165960, Note_on_c, 0, 74, 51
2, 166040, Note_on_c, 0, 74, 0
2, 166050, Note_on_c, 0, 77, 43
2, 166080, Note_on_c, 0, 77, 0
2, 166080, Note_on_c, 0, 75, 57
2, 166200, Note_on_c, 0, 75, 0
2, 166200, Note_on_c, 0, 74, 52
2, 166320, Note_on_c, 0, 74, 0
2, 166320, Note_on_c, 0, 75, 58
2, 166440, Note_on_c, 0, 75, 0
2, 166440, Note_on_c, 0, 77, 55
2, 166560, Note_on_c, 0, 77, 0
2, 166560, Note_on_c, 0, 79, 61
2, 166680, Note_on_c, 0, 79, 0
2, 166680, Note_on_c, 0, 75, 59
2, 166800, Note_on_c, 0, 75, 0
2, 166800, Note_on_c, 0, 72, 52
2, 166920, Note_on_c, 0, 72, 0
2, 166920, Note_on_c, 0, 69, 42
2, 167040, Note_on_c, 0, 69, 0
2, 167040, Note_on_c, 0, 70, 50
2, 167520, Note_on_c, 0, 70, 0
2, 167970, Note_on_c, 0, 81, 46
2, 168000, Note_on_c, 0, 81, 0
2, 168000, Note_on_c, 0, 79, 50
2, 168120, Note_on_c, 0, 79, 0
2, 168120, Note_on_c, 0, 78, 45
2, 168240, Note_on_c, 0, 78, 0
2, 168240, Note_on_c, 0, 79, 50
2, 168360, Note_on_c, 0, 79, 0
2, 168360, Note_on_c, 0, 81, 43
2, 168480, Note_on_c, 0, 81, 0
2, 168480, Note_on_c, 0, 82, 50
2, 168960, Note_on_c, 0, 82, 0
2, 168960, Note_on_c, 0, 77, 41
2, 169380, Note_on_c, 0, 77, 0
2, 169410, Note_on_c, 0, 69, 43
2, 169440, Note_on_c, 0, 69, 0
2, 169440, Note_on_c, 0, 75, 41
2, 169440, Note_on_c, 0, 67, 50
2, 169560, Note_on_c, 0, 67, 0
2, 169560, Note_on_c, 0, 65, 46
2, 169680, Note_on_c, 0, 65, 0
2, 169680, Note_on_c, 0, 67, 50
2, 169800, Note_on_c, 0, 67, 0
2, 169800, Note_on_c, 0, 69, 46
2, 169920, Note_on_c, 0, 69, 0
2, 169920, Note_on_c, 0, 75, 0
2, 169920, Note_on_c, 0, 74, 44
2, 169920, Note_on_c, 0, 70, 50
2, 170400, Note_on_c, 0, 70, 0
2, 170400, Note_on_c, 0, 74, 0
2, 170400, Note_on_c, 0, 65, 41
2, 170640, Note_on_c, 0, 65, 0
2, 170850, Note_on_c, 0, 69, 43
2, 170880, Note_on_c, 0, 69, 0
2, 170880, Note_on_c, 0, 67, 50
2, 171000, Note_on_c, 0, 67, 0
2, 171000, Note_on_c, 0, 66, 46
2, 171120, Note_on_c, 0, 66, 0
2, 171120, Note_on_c, 0, 67, 50
2, 171240, Note_on_c, 0, 67, 0
2, 171240, Note_on_c, 0, 69, 46
2, 171360, Note_on_c, 0, 69, 0
2, 171360, Note_on_c, 0, 70, 50
2, 171840, Note_on_c, 0, 70, 0
2, 171840, Note_on_c, 0, 65, 41
2, 172260, Note_on_c, 0, 65, 0
2, 172290, Note_on_c, 0, 57, 36
2, 172320, Note_on_c, 0, 57, 0
2, 172320, Note_on_c, 0, 63, 34
2, 172320, Note_on_c, 0, 55, 42
2, 172440, Note_on_c, 0, 55, 0
2, 172440, Note_on_c, 0, 53, 39
2, 172560, Note_on_c, 0, 53, 0
2, 172560, Note_on_c, 0, 55, 42
2, 172680, Note_on_c, 0, 55, 0
2, 172680, Note_on_c, 0, 57, 39
2, 172800, Note_on_c, 0, 57, 0
2, 172800, Note_on_c, 0, 63, 0
2, 172800, Note_on_c, 0, 62, 34
2, 172800, Note_on_c, 0, 58, 42
2, 173040, Note_on_c, 0, 58, 0
2, 173040, Note_on_c, 0, 53, 33
2, 173240, Note_on_c, 0, 53, 0
2, 173250, Note_on_c, 0, 57, 37
2, 173280, Note_on_c, 0, 57, 0
2, 173280, Note_on_c, 0, 62, 0
2, 173280, Note_on_c, 0, 63, 39
2, 173280, Note_on_c, 0, 55, 43
2, 173400, Note_on_c, 0, 55, 0
2, 173400, Note_on_c, 0, 53, 40
2, 173520, Note_on_c, 0, 53, 0
2, 173520, Note_on_c, 0, 55, 44
2, 173640, Note_on_c, 0, 55, 0
2, 173640, Note_on_c, 0, 57, 40
2, 173760, Note_on_c, 0, 57, 0
2, 173760, Note_on_c, 0, 63, 0
2, 173760, Note_on_c, 0, 62, 36
2, 173760, Note_on_c, 0, 58, 44
2, 174000, Note_on_c, 0, 58, 0
2, 174000, Note_on_c, 0, 53, 34
2, 174180, Note_on_c, 0, 53, 0
2, 174210, Note_on_c, 0, 57, 39
2, 174240, Note_on_c, 0, 57, 0
2, 174240, Note_on_c, 0, 62, 0
2, 174240, Note_on_c, 0, 63, 44
2, 174240, Note_on_c, 0, 55, 46
2, 174360, Note_on_c, 0, 55, 0
2, 174360, Note_on_c, 0, 53, 43
2, 174480, Note_on_c, 0, 53, 0
2, 174480, Note_on_c, 0, 55, 47
2, 174600, Note_on_c, 0, 55, 0
2, 174600, Note_on_c, 0, 57, 44
2, 174720, Note_on_c, 0, 57, 0
2, 174720, Note_on_c, 0, 63, 0
2, 174720, Note_on_c, 0, 62, 42
2, 174720, Note_on_c, 0, 58, 48
2, 174840, Note_on_c, 0, 58, 0
2, 174840, Note_on_c, 0, 53, 41
2, 174960, Note_on_c, 0, 53, 0
2, 174960, Note_on_c, 0, 62, 0
2, 174960, Note_on_c, 0, 63, 40
2, 174960, Note_on_c, 0, 57, 50
2, 175080, Note_on_c, 0, 57, 0
2, 175080, Note_on_c, 0, 53, 43
2, 175200, Note_on_c, 0, 53, 0
2, 175200, Note_on_c, 0, 63, 0
2, 175200, Note_on_c, 0, 62, 49
2, 175200, Note_on_c, 0, 58, 51
2, 175320, Note_on_c, 0, 58, 0
2, 175320, Note_on_c, 0, 53, 46
2, 175440, Note_on_c, 0, 53, 0
2, 175440, Note_on_c, 0, 62, 0
2, 175440, Note_on_c, 0, 63, 42
2, 175440, Note_on_c, 0, 57, 52
2, 175560, Note_on_c, 0, 57, 0
2, 175560, Note_on_c, 0, 53, 47
2, 175680, Note_on_c, 0, 53, 0
2, 175680, Note_on_c, 0, 63, 0
2, 175680, Note_on_c, 0, 58, 34
2, 175680, Note_on_c, 0, 62, 40
2, 175800, Note_on_c, 0, 62, 0
2, 175800, Note_on_c, 0, 58, 0
2, 176160, Note_on_c, 0, 62, 34
2, 176160, Note_on_c, 0, 70, 40
2, 176280, Note_on_c, 0, 70, 0
2, 176280, Note_on_c, 0, 62, 0
2, 176280, End_track
3, 0, Start_track
3, 0, Title_t, "Piano left"
3, 0, Program_c, 0, 0
3, 1440, Note_on_c, 0, 46, 40
3, 1560, Note_on_c, 0, 46, 0
3, 1680, Note_on_c, 0, 58, 29
3, 1920, Note_on_c, 0, 58, 0
3, 1920, Note_on_c, 0, 62, 34
3, 2160, Note_on_c, 0, 62, 0
3, 2160, Note_on_c, 0, 58, 29
3, 2400, Note_on_c, 0, 58, 0
3, 2400, Note_on_c, 0, 63, 34
3, 2640, Note_on_c, 0, 63, 0
3, 2640, Note_on_c, 0, 60, 31
3, 2880, Note_on_c, 0, 60, 0
3, 2880, Note_on_c, 0, 62, 40
3, 3120, Note_on_c, 0, 62, 0
3, 3120, Note_on_c, 0, 61, 30
3, 3360, Note_on_c, 0, 61, 0
3, 3360, Note_on_c, 0, 62, 34
3, 3600, Note_on_c, 0, 62, 0
3, 3600, Note_on_c, 0, 58, 30
3, 3840, Note_on_c, 0, 58, 0
3, 3840, Note_on_c, 0, 63, 34
3, 4080, Note_on_c, 0, 63, 0
3, 4080, Note_on_c, 0, 60, 29
3, 4320, Note_on_c, 0, 60, 0
3, 4320, Note_on_c, 0, 62, 40
3, 4560, Note_on_c, 0, 62, 0
3, 4560, Note_on_c, 0, 61, 30
3, 4800, Note_on_c, 0, 61, 0
3, 4800, Note_on_c, 0, 62, 34
3, 5040, Note_on_c, 0, 62, 0
3, 5040, Note_on_c, 0, 57, 30
3, 5280, Note_on_c, 0, 57, 0
3, 5280, Note_on_c, 0, 58, 34
3, 5520, Note_on_c, 0, 58, 0
3, 5520, Note_on_c, 0, 55, 30
3, 5750, Note_on_c, 0, 55, 0
3, 5760, Note_on_c, 0, 53, 40
3, 6240, Note_on_c, 0, 65, 35
3, 6480, Note_on_c, 0, 65, 0
3, 6480, Note_on_c, 0, 53, 0
3, 7440, Note_on_c, 0, 53, 36
3, 7680, Note_on_c, 0, 57, 40
3, 7920, Note_on_c, 0, 57, 0
3, 7920, Note_on_c, 0, 60, 37
3, 8160, Note_on_c, 0, 60, 0
3, 8160, Note_on_c, 0, 63, 40
3, 8880, Note_on_c, 0, 63, 0
3, 8880, Note_on_c, 0, 53, 0
3, 8880, Note_on_c, 0, 53, 42
3, 9120, Note_on_c, 0, 60, 48
3, 9360, Note_on_c, 0, 60, 0
3, 9360, Note_on_c, 0, 63, 41
3, 9600, Note_on_c, 0, 63, 0
3, 9600, Note_on_c, 0, 66, 55
3, 10560, Note_on_c, 0, 66, 0
3, 10560, Note_on_c, 0, 53, 0
3, 10560, Note_on_c, 0, 65, 38
3, 10560, Note_on_c, 0, 53, 38
3, 11040, Note_on_c, 0, 53, 0
3, 11040, Note_on_c, 0, 65, 0
3, 11040, Note_on_c, 0, 53, 32
3, 11040, Note_on_c, 0, 63, 32
3, 11520, Note_on_c, 0, 63, 0
3, 11520, Note_on_c, 0, 53, 0
3, 11520, Note_on_c, 0, 58, 30
3, 11520, Note_on_c, 0, 63, 36
3, 12000, Note_on_c, 0, 63, 0
3, 12000, Note_on_c, 0, 62, 32
3, 12240, Note_on_c, 0, 62, 0
3, 12240, Note_on_c, 0, 58, 0
3, 12960, Note_on_c, 0, 46, 40
3, 13080, Note_on_c, 0, 46, 0
3, 13200, Note_on_c, 0, 58, 29
3, 13440, Note_on_c, 0, 58, 0
3, 13440, Note_on_c, 0, 62, 34
3, 13680, Note_on_c, 0, 62, 0
3, 13680, Note_on_c, 0, 58, 29
3, 13920, Note_on_c, 0, 58, 0
3, 13920, Note_on_c, 0, 63, 34
3, 14160, Note_on_c, 0, 63, 0
3, 14160, Note_on_c, 0, 60, 31
3, 14400, Note_on_c, 0, 60, 0
3, 14400, Note_on_c, 0, 62, 40
3, 14640, Note_on_c, 0, 62, 0
3, 14640, Note_on_c, 0, 61, 30
3, 14880, Note_on_c, 0, 61, 0
3, 14880, Note_on_c, 0, 62, 34
3, 15120, Note_on_c, 0, 62, 0
3, 15120, Note_on_c, 0, 58, 30
3, 15360, Note_on_c, 0, 58, 0
3, 15360, Note_on_c, 0, 63, 34
3, 15600, Note_on_c, 0, 63, 0
3, 15600, Note_on_c, 0, 60, 29
3, 15840, Note_on_c, 0, 60, 0
3, 15840, Note_on_c, 0, 62, 40
3, 16080, Note_on_c, 0, 62, 0
3, 16080, Note_on_c, 0, 61, 30
3, 16320, Note_on_c, 0, 61, 0
3, 16320, Note_on_c, 0, 62, 34
3, 16560, Note_on_c, 0, 62, 0
3, 16560, Note_on_c, 0, 57, 30
3, 16800, Note_on_c, 0, 57, 0
3, 16800, Note_on_c, 0, 58, 34
3, 17040, Note_on_c, 0, 58, 0
3, 17040, Note_on_c, 0, 55, 30
3, 17270, Note_on_c, 0, 55, 0
3, 17280, Note_on_c, 0, 53, 40
3, 17760, Note_on_c, 0, 65, 35
3, 18000, Note_on_c, 0, 65, 0
3, 18000, Note_on_c, 0, 53, 0
3, 18960, Note_on_c, 0, 53, 36
3, 19200, Note_on_c, 0, 57, 40
3, 19440, Note_on_c, 0, 57, 0
3, 19440, Note_on_c, 0, 60, 37
3, 19680, Note_on_c, 0, 60, 0
3, 19680, Note_on_c, 0, 63, 40
3, 20400, Note_on_c, 0, 63, 0
3, 20400, Note_on_c, 0, 53, 0
3, 20400, Note_on_c, 0, 53, 42
3, 20640, Note_on_c, 0, 60, 48
3, 20880, Note_on_c, 0, 60, 0
3, 20880, Note_on_c, 0, 63, 41
3, 21120, Note_on_c, 0, 63, 0
3, 21120, Note_on_c, 0, 66, 55
3, 22080, Note_on_c, 0, 66, 0
3, 22080, Note_on_c, 0, 53, 0
3, 22080, Note_on_c, 0, 65, 38
3, 22080, Note_on_c, 0, 53, 38
3, 22560, Note_on_c, 0, 53, 0
3, 22560, Note_on_c, 0, 65, 0
3, 22560, Note_on_c, 0, 53, 32
3, 22560, Note_on_c, 0, 63, 32
3, 23040, Note_on_c, 0, 63, 0
3, 23040, Note_on_c, 0, 53, 0
3, 23040, Note_on_c, 0, 58, 30
3, 23040, Note_on_c, 0, 63, 36
3, 23520, Note_on_c, 0, 63, 0
3, 23520, Note_on_c, 0, 62, 32
3, 23760, Note_on_c, 0, 62, 0
3, 23760, Note_on_c, 0, 58, 0
3, 24000, Note_on_c, 0, 66, 38
3, 24120, Note_on_c, 0, 66, 0
3, 24120, Note_on_c, 0, 67, 33
3, 24240, Note_on_c, 0, 67, 0
3, 24240, Note_on_c, 0, 66, 42
3, 24360, Note_on_c, 0, 66, 0
3, 24360, Note_on_c, 0, 67, 38
3, 24480, Note_on_c, 0, 67, 0
3, 24480, Note_on_c, 0, 66, 45
3, 24600, Note_on_c, 0, 66, 0
3, 24600, Note_on_c, 0, 67, 39
3, 24720, Note_on_c, 0, 67, 0
3, 24720, Note_on_c, 0, 66, 49
3, 24840, Note_on_c, 0, 66, 0
3, 24840, Note_on_c, 0, 67, 45
3, 24960, Note_on_c, 0, 67, 0
3, 24960, Note_on_c, 0, 66, 52
3, 25080, Note_on_c, 0, 66, 0
3, 25080, Note_on_c, 0, 67, 45
3, 25200, Note_on_c, 0, 67, 0
3, 25200, Note_on_c, 0, 66, 55
3, 25320, Note_on_c, 0, 66, 0
3, 25320, Note_on_c, 0, 67, 52
3, 25440, Note_on_c, 0, 67, 0
3, 25440, Note_on_c, 0, 66, 59
3, 25560, Note_on_c, 0, 66, 0
3, 25560, Note_on_c, 0, 67, 52
3, 25680, Note_on_c, 0, 67, 0
3, 25680, Note_on_c, 0, 66, 63
3, 25800, Note_on_c, 0, 66, 0
3, 25800, Note_on_c, 0, 67, 58
3, 25920, Note_on_c, 0, 67, 0
3, 25920, Note_on_c, 0, 66, 70
3, 26160, Note_on_c, 0, 66, 0
3, 26400, Note_on_c, 0, 50, 62
3, 26400, Note_on_c, 0, 62, 74
3, 27120, Note_on_c, 0, 62, 0
3, 27120, Note_on_c, 0, 50, 0
3, 27120, Note_on_c, 0, 50, 46
3, 27120, Note_on_c, 0, 62, 56
3, 27240, Note_on_c, 0, 62, 0
3, 27240, Note_on_c, 0, 50, 0
3, 27360, Note_on_c, 0, 51, 57
3, 27360, Note_on_c, 0, 63, 68
3, 27600, Note_on_c, 0, 63, 0
3, 27600, Note_on_c, 0, 51, 0
3, 27720, Note_on_c, 0, 48, 45
3, 27720, Note_on_c, 0, 60, 53
3, 27780, Note_on_c, 0, 60, 0
3, 27780, Note_on_c, 0, 48, 0
3, 27840, Note_on_c, 0, 50, 53
3, 27840, Note_on_c, 0, 62, 63
3, 28080, Note_on_c, 0, 62, 0
3, 28080, Note_on_c, 0, 50, 0
3, 28320, Note_on_c, 0, 38, 51
3, 28320, Note_on_c, 0, 50, 61
3, 28560, Note_on_c, 0, 50, 0
3, 28560, Note_on_c, 0, 38, 0
3, 28800, Note_on_c, 0, 43, 51
3, 28800, Note_on_c, 0, 55, 61
3, 29520, Note_on_c, 0, 55, 0
3, 29520, Note_on_c, 0, 43, 0
3, 29760, Note_on_c, 0, 50, 25
3, 29880, Note_on_c, 0, 51, 22
3, 29881, Note_on_c, 0, 50, 0
3, 30000, Note_on_c, 0, 50, 27
3, 30001, Note_on_c, 0, 51, 0
3, 30120, Note_on_c, 0, 51, 24
3, 30121, Note_on_c, 0, 50, 0
3, 30240, Note_on_c, 0, 50, 28
3, 30241, Note_on_c, 0, 51, 0
3, 30360, Note_on_c, 0, 51, 24
3, 30361, Note_on_c, 0, 50, 0
3, 30480, Note_on_c, 0, 50, 30
3, 30481, Note_on_c, 0, 51, 0
3, 30600, Note_on_c, 0, 51, 28
3, 30601, Note_on_c, 0, 50, 0
3, 30720, Note_on_c, 0, 50, 33
3, 30721, Note_on_c, 0, 51, 0
3, 30840, Note_on_c, 0, 51, 29
3, 30841, Note_on_c, 0, 50, 0
3, 30960, Note_on_c, 0, 50, 36
3, 30961, Note_on_c, 0, 51, 0
3, 31080, Note_on_c, 0, 51, 33
3, 31081, Note_on_c, 0, 50, 0
3, 31200, Note_on_c, 0, 50, 38
3, 31201, Note_on_c, 0, 51, 0
3, 31320, Note_on_c, 0, 51, 33
3, 31321, Note_on_c, 0, 50, 0
3, 31440, Note_on_c, 0, 50, 40
3, 31441, Note_on_c, 0, 51, 0
3, 31560, Note_on_c, 0, 51, 38
3, 31561, Note_on_c, 0, 50, 0
3, 31680, Note_on_c, 0, 50, 54
3, 31681, Note_on_c, 0, 51, 0
3, 31920, Note_on_c, 0, 50, 0
3, 32160, Note_on_c, 0, 50, 53
3, 32160, Note_on_c, 0, 53, 64
3, 32880, Note_on_c, 0, 53, 0
3, 32880, Note_on_c, 0, 50, 0
3, 32880, Note_on_c, 0, 51, 36
3, 32880, Note_on_c, 0, 55, 43
3, 33120, Note_on_c, 0, 55, 0
3, 33120, Note_on_c, 0, 51, 0
3, 33120, Note_on_c, 0, 47, 43
3, 33120, Note_on_c, 0, 50, 51
3, 33480, Note_on_c, 0, 50, 0
3, 33480, Note_on_c, 0, 47, 0
3, 33480, Note_on_c, 0, 48, 32
3, 33480, Note_on_c, 0, 51, 39
3, 33600, Note_on_c, 0, 51, 0
3, 33600, Note_on_c, 0, 48, 0
3, 33600, Note_on_c, 0, 50, 38
3, 33600, Note_on_c, 0, 53, 45
3, 34080, Note_on_c, 0, 53, 0
3, 34080, Note_on_c, 0, 50, 0
3, 34080, Note_on_c, 0, 51, 34
3, 34080, Note_on_c, 0, 55, 41
3, 34560, Note_on_c, 0, 55, 0
3, 34560, Note_on_c, 0, 51, 0
3, 34560, Note_on_c, 0, 53, 36
3, 35040, Note_on_c, 0, 53, 0
3, 35040, Note_on_c, 0, 41, 30
3, 35280, Note_on_c, 0, 41, 0
3, 36000, Note_on_c, 0, 46, 40
3, 36120, Note_on_c, 0, 46, 0
3, 36240, Note_on_c, 0, 58, 29
3, 36480, Note_on_c, 0, 58, 0
3, 36480, Note_on_c, 0, 62, 34
3, 36720, Note_on_c, 0, 62, 0
3, 36720, Note_on_c, 0, 58, 29
3, 36960, Note_on_c, 0, 58, 0
3, 36960, Note_on_c, 0, 63, 34
3, 37200, Note_on_c, 0, 63, 0
3, 37200, Note_on_c, 0, 60, 31
3, 37440, Note_on_c, 0, 60, 0
3, 37440, Note_on_c, 0, 62, 40
3, 37680, Note_on_c, 0, 62, 0
3, 37680, Note_on_c, 0, 61, 30
3, 37920, Note_on_c, 0, 61, 0
3, 37920, Note_on_c, 0, 62, 34
3, 38160, Note_on_c, 0, 62, 0
3, 38160, Note_on_c, 0, 58, 30
3, 38400, Note_on_c, 0, 58, 0
3, 38400, Note_on_c, 0, 63, 34
3, 38640, Note_on_c, 0, 63, 0
3, 38640, Note_on_c, 0, 60, 29
3, 38880, Note_on_c, 0, 60, 0
3, 38880, Note_on_c, 0, 62, 40
3, 39120, Note_on_c, 0, 62, 0
3, 39120, Note_on_c, 0, 61, 30
3, 39360, Note_on_c, 0, 61, 0
3, 39360, Note_on_c, 0, 62, 34
3, 39600, Note_on_c, 0, 62, 0
3, 39600, Note_on_c, 0, 57, 30
3, 39840, Note_on_c, 0, 57, 0
3, 39840, Note_on_c, 0, 58, 34
3, 40080, Note_on_c, 0, 58, 0
3, 40080, Note_on_c, 0, 55, 30
3, 40310, Note_on_c, 0, 55, 0
3, 40320, Note_on_c, 0, 53, 40
3, 40800, Note_on_c, 0, 65, 35
3, 41040, Note_on_c, 0, 65, 0
3, 41040, Note_on_c, 0, 53, 0
3, 41880, Note_on_c, 0, 41, 37
3, 42000, Note_on_c, 0, 41, 0
3, 42000, Note_on_c, 0, 45, 38
3, 42120, Note_on_c, 0, 45, 0
3, 42120, Note_on_c, 0, 48, 39
3, 42240, Note_on_c, 0, 48, 0
3, 42240, Note_on_c, 0, 53, 40
3, 42360, Note_on_c, 0, 53, 0
3, 42360, Note_on_c, 0, 57, 41
3, 42480, Note_on_c, 0, 57, 0
3, 42480, Note_on_c, 0, 60, 42
3, 42600, Note_on_c, 0, 60, 0
3, 42600, Note_on_c, 0, 62, 43
3, 42720, Note_on_c, 0, 62, 0
3, 42720, Note_on_c, 0, 63, 48
3, 43320, Note_on_c, 0, 63, 0
3, 43320, Note_on_c, 0, 41, 37
3, 43440, Note_on_c, 0, 41, 0
3, 43440, Note_on_c, 0, 45, 41
3, 43560, Note_on_c, 0, 45, 0
3, 43560, Note_on_c, 0, 48, 43
3, 43680, Note_on_c, 0, 48, 0
3, 43680, Note_on_c, 0, 53, 44
3, 43800, Note_on_c, 0, 53, 0
3, 43800, Note_on_c, 0, 57, 46
3, 43920, Note_on_c, 0, 57, 0
3, 43920, Note_on_c, 0, 60, 48
3, 44040, Note_on_c, 0, 60, 0
3, 44040, Note_on_c, 0, 63, 49
3, 44160, Note_on_c, 0, 63, 0
3, 44160, Note_on_c, 0, 66, 55
3, 45120, Note_on_c, 0, 66, 0
3, 45120, Note_on_c, 0, 65, 38
3, 45120, Note_on_c, 0, 53, 38
3, 45600, Note_on_c, 0, 53, 0
3, 45600, Note_on_c, 0, 65, 0
3, 45600, Note_on_c, 0, 53, 32
3, 45600, Note_on_c, 0, 63, 32
3, 46080, Note_on_c, 0, 63, 0
3, 46080, Note_on_c, 0, 53, 0
3, 46080, Note_on_c, 0, 46, 40
3, 46200, Note_on_c, 0, 46, 0
3, 46320, Note_on_c, 0, 58, 29
3, 46560, Note_on_c, 0, 58, 0
3, 46560, Note_on_c, 0, 62, 34
3, 46800, Note_on_c, 0, 62, 0
3, 46800, Note_on_c, 0, 58, 29
3, 47040, Note_on_c, 0, 58, 0
3, 47040, Note_on_c, 0, 63, 34
3, 47280, Note_on_c, 0, 63, 0
3, 47280, Note_on_c, 0, 58, 31
3, 47520, Note_on_c, 0, 58, 0
3, 47520, Note_on_c, 0, 62, 40
3, 47760, Note_on_c, 0, 62, 0
3, 47760, Note_on_c, 0, 61, 30
3, 48000, Note_on_c, 0, 61, 0
3, 48000, Note_on_c, 0, 62, 34
3, 48240, Note_on_c, 0, 62, 0
3, 48240, Note_on_c, 0, 58, 30
3, 48480, Note_on_c, 0, 58, 0
3, 48480, Note_on_c, 0, 60, 34
3, 48720, Note_on_c, 0, 60, 0
3, 48720, Note_on_c, 0, 53, 29
3, 48960, Note_on_c, 0, 53, 0
3, 48960, Note_on_c, 0, 58, 40
3, 49200, Note_on_c, 0, 58, 0
3, 49200, Note_on_c, 0, 46, 30
3, 49440, Note_on_c, 0, 46, 0
3, 49440, Note_on_c, 0, 50, 34
3, 49680, Note_on_c, 0, 50, 0
3, 49680, Note_on_c, 0, 46, 30
3, 49920, Note_on_c, 0, 46, 0
3, 49920, Note_on_c, 0, 51, 34
3, 50160, Note_on_c, 0, 51, 0
3, 50160, Note_on_c, 0, 46, 29
3, 50400, Note_on_c, 0, 46, 0
3, 50400, Note_on_c, 0, 50, 40
3, 50640, Note_on_c, 0, 50, 0
3, 50640, Note_on_c, 0, 49, 30
3, 50880, Note_on_c, 0, 49, 0
3, 50880, Note_on_c, 0, 50, 34
3, 51120, Note_on_c, 0, 50, 0
3, 51120, Note_on_c, 0, 46, 30
3, 51360, Note_on_c, 0, 46, 0
3, 51360, Note_on_c, 0, 48, 34
3, 51600, Note_on_c, 0, 48, 0
3, 51600, Note_on_c, 0, 41, 29
3, 51840, Note_on_c, 0, 41, 0
3, 51840, Note_on_c, 0, 46, 40
3, 52080, Note_on_c, 0, 46, 0
3, 52080, Note_on_c, 0, 50, 30
3, 52320, Note_on_c, 0, 50, 0
3, 52320, Note_on_c, 0, 48, 35
3, 52560, Note_on_c, 0, 48, 0
3, 52560, Note_on_c, 0, 41, 31
3, 52800, Note_on_c, 0, 41, 0
3, 52800, Note_on_c, 0, 46, 36
3, 53040, Note_on_c, 0, 46, 0
3, 53040, Note_on_c, 0, 50, 31
3, 53280, Note_on_c, 0, 50, 0
3, 53280, Note_on_c, 0, 48, 44
3, 53520, Note_on_c, 0, 48, 0
3, 53520, Note_on_c, 0, 41, 33
3, 53760, Note_on_c, 0, 41, 0
3, 53760, Note_on_c, 0, 46, 45
3, 53880, Note_on_c, 0, 46, 0
3, 53880, Note_on_c, 0, 50, 37
3, 54000, Note_on_c, 0, 50, 0
3, 54000, Note_on_c, 0, 41, 46
3, 54120, Note_on_c, 0, 41, 0
3, 54120, Note_on_c, 0, 48, 39
3, 54240, Note_on_c, 0, 48, 0
3, 54240, Note_on_c, 0, 46, 47
3, 54360, Note_on_c, 0, 46, 0
3, 54360, Note_on_c, 0, 50, 41
3, 54480, Note_on_c, 0, 50, 0
3, 54480, Note_on_c, 0, 41, 49
3, 54600, Note_on_c, 0, 41, 0
3, 54600, Note_on_c, 0, 48, 43
3, 54720, Note_on_c, 0, 48, 0
3, 54720, Note_on_c, 0, 46, 24
3, 54720, Note_on_c, 0, 50, 30
3, 54840, Note_on_c, 0, 50, 0
3, 54840, Note_on_c, 0, 46, 0
3, 55200, Note_on_c, 0, 34, 24
3, 55200, Note_on_c, 0, 46, 30
3, 55320, Note_on_c, 0, 46, 0
3, 55320, Note_on_c, 0, 34, 0
3, 55680, Note_on_c, 0, 66, 38
3, 55800, Note_on_c, 0, 66, 0
3, 55800, Note_on_c, 0, 67, 33
3, 55920, Note_on_c, 0, 67, 0
3, 55920, Note_on_c, 0, 66, 42
3, 56040, Note_on_c, 0, 66, 0
3, 56040, Note_on_c, 0, 67, 38
3, 56160, Note_on_c, 0, 67, 0
3, 56160, Note_on_c, 0, 66, 45
3, 56280, Note_on_c, 0, 66, 0
3, 56280, Note_on_c, 0, 67, 39
3, 56400, Note_on_c, 0, 67, 0
3, 56400, Note_on_c, 0, 66, 48
3, 56520, Note_on_c, 0, 66, 0
3, 56520, Note_on_c, 0, 67, 45
3, 56640, Note_on_c, 0, 67, 0
3, 56640, Note_on_c, 0, 66, 52
3, 56760, Note_on_c, 0, 66, 0
3, 56760, Note_on_c, 0, 67, 45
3, 56880, Note_on_c, 0, 67, 0
3, 56880, Note_on_c, 0, 66, 55
3, 57000, Note_on_c, 0, 66, 0
3, 57000, Note_on_c, 0, 67, 52
3, 57120, Note_on_c, 0, 67, 0
3, 57120, Note_on_c, 0, 66, 59
3, 57240, Note_on_c, 0, 66, 0
3, 57240, Note_on_c, 0, 67, 51
3, 57360, Note_on_c, 0, 67, 0
3, 57360, Note_on_c, 0, 66, 63
3, 57480, Note_on_c, 0, 66, 0
3, 57480, Note_on_c, 0, 67, 58
3, 57600, Note_on_c, 0, 67, 0
3, 57600, Note_on_c, 0, 66, 70
3, 57840, Note_on_c, 0, 66, 0
3, 58080, Note_on_c, 0, 50, 62
3, 58080, Note_on_c, 0, 62, 74
3, 58800, Note_on_c, 0, 62, 0
3, 58800, Note_on_c, 0, 50, 0
3, 58800, Note_on_c, 0, 50, 46
3, 58800, Note_on_c, 0, 62, 56
3, 58920, Note_on_c, 0, 62, 0
3, 58920, Note_on_c, 0, 50, 0
3, 59040, Note_on_c, 0, 51, 57
3, 59040, Note_on_c, 0, 63, 68
3, 59280, Note_on_c, 0, 63, 0
3, 59280, Note_on_c, 0, 51, 0
3, 59400, Note_on_c, 0, 48, 45
3, 59400, Note_on_c, 0, 60, 53
3, 59460, Note_on_c, 0, 60, 0
3, 59460, Note_on_c, 0, 48, 0
3, 59520, Note_on_c, 0, 50, 53
3, 59520, Note_on_c, 0, 62, 63
3, 59760, Note_on_c, 0, 62, 0
3, 59760, Note_on_c, 0, 50, 0
3, 60000, Note_on_c, 0, 38, 51
3, 60000, Note_on_c, 0, 50, 61
3, 60240, Note_on_c, 0, 50, 0
3, 60240, Note_on_c, 0, 38, 0
3, 60480, Note_on_c, 0, 43, 51
3, 60480, Note_on_c, 0, 55, 61
3, 61200, Note_on_c, 0, 55, 0
3, 61200, Note_on_c, 0, 43, 0
3, 61440, Note_on_c, 0, 50, 25
3, 61560, Note_on_c, 0, 51, 22
3, 61561, Note_on_c, 0, 50, 0
3, 61680, Note_on_c, 0, 50, 27
3, 61681, Note_on_c, 0, 51, 0
3, 61800, Note_on_c, 0, 51, 24
3, 61801, Note_on_c, 0, 50, 0
3, 61920, Note_on_c, 0, 50, 29
3, 61921, Note_on_c, 0, 51, 0
3, 62040, Note_on_c, 0, 51, 25
3, 62041, Note_on_c, 0, 50, 0
3, 62160, Note_on_c, 0, 50, 32
3, 62161, Note_on_c, 0, 51, 0
3, 62280, Note_on_c, 0, 51, 29
3, 62281, Note_on_c, 0, 50, 0
3, 62400, Note_on_c, 0, 50, 34
3, 62401, Note_on_c, 0, 51, 0
3, 62520, Note_on_c, 0, 51, 30
3, 62521, Note_on_c, 0, 50, 0
3, 62640, Note_on_c, 0, 50, 37
3, 62641, Note_on_c, 0, 51, 0
3, 62760, Note_on_c, 0, 51, 34
3, 62761, Note_on_c, 0, 50, 0
3, 62880, Note_on_c, 0, 50, 39
3, 62881, Note_on_c, 0, 51, 0
3, 63000, Note_on_c, 0, 51, 34
3, 63001, Note_on_c, 0, 50, 0
3, 63120, Note_on_c, 0, 50, 42
3, 63121, Note_on_c, 0, 51, 0
3, 63240, Note_on_c, 0, 51, 38
3, 63241, Note_on_c, 0, 50, 0
3, 63360, Note_on_c, 0, 50, 54
3, 63361, Note_on_c, 0, 51, 0
3, 63600, Note_on_c, 0, 50, 0
3, 63840, Note_on_c, 0, 50, 53
3, 63840, Note_on_c, 0, 53, 64
3, 64560, Note_on_c, 0, 53, 0
3, 64560, Note_on_c, 0, 50, 0
3, 64560, Note_on_c, 0, 51, 36
3, 64560, Note_on_c, 0, 55, 43
3, 64800, Note_on_c, 0, 55, 0
3, 64800, Note_on_c, 0, 51, 0
3, 64800, Note_on_c, 0, 47, 43
3, 64800, Note_on_c, 0, 50, 51
3, 65160, Note_on_c, 0, 50, 0
3, 65160, Note_on_c, 0, 47, 0
3, 65160, Note_on_c, 0, 48, 32
3, 65160, Note_on_c, 0, 51, 39
3, 65280, Note_on_c, 0, 51, 0
3, 65280, Note_on_c, 0, 48, 0
3, 65280, Note_on_c, 0, 50, 38
3, 65280, Note_on_c, 0, 53, 45
3, 65760, Note_on_c, 0, 53, 0
3, 65760, Note_on_c, 0, 50, 0
3, 65760, Note_on_c, 0, 51, 34
3, 65760, Note_on_c, 0, 55, 41
3, 66240, Note_on_c, 0, 55, 0
3, 66240, Note_on_c, 0, 51, 0
3, 66240, Note_on_c, 0, 53, 36
3, 66720, Note_on_c, 0, 53, 0
3, 66720, Note_on_c, 0, 41, 30
3, 66960, Note_on_c, 0, 41, 0
3, 67680, Note_on_c, 0, 46, 40
3, 67800, Note_on_c, 0, 46, 0
3, 67920, Note_on_c, 0, 58, 29
3, 68160, Note_on_c, 0, 58, 0
3, 68160, Note_on_c, 0, 62, 34
3, 68400, Note_on_c, 0, 62, 0
3, 68400, Note_on_c, 0, 58, 29
3, 68640, Note_on_c, 0, 58, 0
3, 68640, Note_on_c, 0, 63, 34
3, 68880, Note_on_c, 0, 63, 0
3, 68880, Note_on_c, 0, 60, 31
3, 69120, Note_on_c, 0, 60, 0
3, 69120, Note_on_c, 0, 62, 40
3, 69360, Note_on_c, 0, 62, 0
3, 69360, Note_on_c, 0, 61, 30
3, 69600, Note_on_c, 0, 61, 0
3, 69600, Note_on_c, 0, 62, 34
3, 69840, Note_on_c, 0, 62, 0
3, 69840, Note_on_c, 0, 58, 30
3, 70080, Note_on_c, 0, 58, 0
3, 70080, Note_on_c, 0, 63, 34
3, 70320, Note_on_c, 0, 63, 0
3, 70320, Note_on_c, 0, 60, 29
3, 70560, Note_on_c, 0, 60, 0
3, 70560, Note_on_c, 0, 62, 40
3, 70800, Note_on_c, 0, 62, 0
3, 70800, Note_on_c, 0, 61, 30
3, 71040, Note_on_c, 0, 61, 0
3, 71040, Note_on_c, 0, 62, 34
3, 71280, Note_on_c, 0, 62, 0
3, 71280, Note_on_c, 0, 57, 30
3, 71520, Note_on_c, 0, 57, 0
3, 71520, Note_on_c, 0, 58, 34
3, 71760, Note_on_c, 0, 58, 0
3, 71760, Note_on_c, 0, 55, 30
3, 71990, Note_on_c, 0, 55, 0
3, 72000, Note_on_c, 0, 53, 40
3, 72480, Note_on_c, 0, 65, 35
3, 72720, Note_on_c, 0, 65, 0
3, 72720, Note_on_c, 0, 53, 0
3, 73560, Note_on_c, 0, 41, 37
3, 73680, Note_on_c, 0, 41, 0
3, 73680, Note_on_c, 0, 45, 38
3, 73800, Note_on_c, 0, 45, 0
3, 73800, Note_on_c, 0, 48, 39
3, 73920, Note_on_c, 0, 48, 0
3, 73920, Note_on_c, 0, 53, 40
3, 74040, Note_on_c, 0, 53, 0
3, 74040, Note_on_c, 0, 57, 41
3, 74160, Note_on_c, 0, 57, 0
3, 74160, Note_on_c, 0, 60, 42
3, 74280, Note_on_c, 0, 60, 0
3, 74280, Note_on_c, 0, 62, 43
3, 74400, Note_on_c, 0, 62, 0
3, 74400, Note_on_c, 0, 63, 48
3, 75000, Note_on_c, 0, 63, 0
3, 75000, Note_on_c, 0, 41, 37
3, 75120, Note_on_c, 0, 41, 0
3, 75120, Note_on_c, 0, 45, 41
3, 75240, Note_on_c, 0, 45, 0
3, 75240, Note_on_c, 0, 48, 43
3, 75360, Note_on_c, 0, 48, 0
3, 75360, Note_on_c, 0, 53, 44
3, 75480, Note_on_c, 0, 53, 0
3, 75480, Note_on_c, 0, 57, 46
3, 75600, Note_on_c, 0, 57, 0
3, 75600, Note_on_c, 0, 60, 48
3, 75720, Note_on_c, 0, 60, 0
3, 75720, Note_on_c, 0, 63, 49
3, 75840, Note_on_c, 0, 63, 0
3, 75840, Note_on_c, 0, 66, 55
3, 76800, Note_on_c, 0, 66, 0
3, 76800, Note_on_c, 0, 65, 38
3, 76800, Note_on_c, 0, 53, 38
3, 77280, Note_on_c, 0, 53, 0
3, 77280, Note_on_c, 0, 65, 0
3, 77280, Note_on_c, 0, 53, 32
3, 77280, Note_on_c, 0, 63, 32
3, 77760, Note_on_c, 0, 63, 0
3, 77760, Note_on_c, 0, 53, 0
3, 77760, Note_on_c, 0, 46, 40
3, 77880, Note_on_c, 0, 46, 0
3, 78000, Note_on_c, 0, 58, 29
3, 78240, Note_on_c, 0, 58, 0
3, 78240, Note_on_c, 0, 62, 34
3, 78480, Note_on_c, 0, 62, 0
3, 78480, Note_on_c, 0, 58, 29
3, 78720, Note_on_c, 0, 58, 0
3, 78720, Note_on_c, 0, 63, 34
3, 78960, Note_on_c, 0, 63, 0
3, 78960, Note_on_c, 0, 58, 31
3, 79200, Note_on_c, 0, 58, 0
3, 79200, Note_on_c, 0, 62, 40
3, 79440, Note_on_c, 0, 62, 0
3, 79440, Note_on_c, 0, 61, 30
3, 79680, Note_on_c, 0, 61, 0
3, 79680, Note_on_c, 0, 62, 34
3, 79920, Note_on_c, 0, 62, 0
3, 79920, Note_on_c, 0, 58, 30
3, 80160, Note_on_c, 0, 58, 0
3, 80160, Note_on_c, 0, 60, 34
3, 80400, Note_on_c, 0, 60, 0
3, 80400, Note_on_c, 0, 53, 29
3, 80640, Note_on_c, 0, 53, 0
3, 80640, Note_on_c, 0, 58, 40
3, 80880, Note_on_c, 0, 58, 0
3, 80880, Note_on_c, 0, 46, 30
3, 81120, Note_on_c, 0, 46, 0
3, 81120, Note_on_c, 0, 50, 34
3, 81360, Note_on_c, 0, 50, 0
3, 81360, Note_on_c, 0, 46, 30
3, 81600, Note_on_c, 0, 46, 0
3, 81600, Note_on_c, 0, 51, 34
3, 81840, Note_on_c, 0, 51, 0
3, 81840, Note_on_c, 0, 46, 29
3, 82080, Note_on_c, 0, 46, 0
3, 82080, Note_on_c, 0, 50, 40
3, 82320, Note_on_c, 0, 50, 0
3, 82320, Note_on_c, 0, 49, 30
3, 82560, Note_on_c, 0, 49, 0
3, 82560, Note_on_c, 0, 50, 34
3, 82800, Note_on_c, 0, 50, 0
3, 82800, Note_on_c, 0, 46, 30
3, 83040, Note_on_c, 0, 46, 0
3, 83040, Note_on_c, 0, 48, 34
3, 83280, Note_on_c, 0, 48, 0
3, 83280, Note_on_c, 0, 41, 29
3, 83520, Note_on_c, 0, 41, 0
3, 83520, Note_on_c, 0, 46, 40
3, 83760, Note_on_c, 0, 46, 0
3, 83760, Note_on_c, 0, 50, 30
3, 84000, Note_on_c, 0, 50, 0
3, 84000, Note_on_c, 0, 48, 35
3, 84240, Note_on_c, 0, 48, 0
3, 84240, Note_on_c, 0, 41, 31
3, 84480, Note_on_c, 0, 41, 0
3, 84480, Note_on_c, 0, 46, 36
3, 84720, Note_on_c, 0, 46, 0
3, 84720, Note_on_c, 0, 50, 31
3, 84960, Note_on_c, 0, 50, 0
3, 84960, Note_on_c, 0, 48, 44
3, 85200, Note_on_c, 0, 48, 0
3, 85200, Note_on_c, 0, 41, 33
3, 85440, Note_on_c, 0, 41, 0
3, 85440, Note_on_c, 0, 46, 45
3, 85560, Note_on_c, 0, 46, 0
3, 85560, Note_on_c, 0, 50, 37
3, 85680, Note_on_c, 0, 50, 0
3, 85680, Note_on_c, 0, 41, 46
3, 85800, Note_on_c, 0, 41, 0
3, 85800, Note_on_c, 0, 48, 39
3, 85920, Note_on_c, 0, 48, 0
3, 85920, Note_on_c, 0, 46, 47
3, 86040, Note_on_c, 0, 46, 0
3, 86040, Note_on_c, 0, 50, 41
3, 86160, Note_on_c, 0, 50, 0
3, 86160, Note_on_c, 0, 41, 49
3, 86280, Note_on_c, 0, 41, 0
3, 86280, Note_on_c, 0, 48, 43
3, 86400, Note_on_c, 0, 48, 0
3, 86400, Note_on_c, 0, 46, 24
3, 86400, Note_on_c, 0, 50, 30
3, 86520, Note_on_c, 0, 50, 0
3, 86520, Note_on_c, 0, 46, 0
3, 86880, Note_on_c, 0, 34, 24
3, 86880, Note_on_c, 0, 46, 30
3, 87000, Note_on_c, 0, 46, 0
3, 87000, Note_on_c, 0, 34, 0
3, 87360, Note_on_c, 0, 62, 62
3, 87480, Note_on_c, 0, 62, 0
3, 87480, Note_on_c, 0, 63, 48
3, 87600, Note_on_c, 0, 63, 0
3, 87600, Note_on_c, 0, 62, 48
3, 87720, Note_on_c, 0, 62, 0
3, 87720, Note_on_c, 0, 60, 48
3, 87840, Note_on_c, 0, 60, 0
3, 87840, Note_on_c, 0, 58, 62
3, 87960, Note_on_c, 0, 58, 0
3, 87960, Note_on_c, 0, 60, 48
3, 88080, Note_on_c, 0, 60, 0
3, 88080, Note_on_c, 0, 58, 47
3, 88200, Note_on_c, 0, 58, 0
3, 88200, Note_on_c, 0, 57, 47
3, 88320, Note_on_c, 0, 57, 0
3, 88320, Note_on_c, 0, 55, 63
3, 88440, Note_on_c, 0, 55, 0
3, 88440, Note_on_c, 0, 57, 46
3, 88560, Note_on_c, 0, 57, 0
3, 88560, Note_on_c, 0, 58, 46
3, 88680, Note_on_c, 0, 58, 0
3, 88680, Note_on_c, 0, 57, 46
3, 88800, Note_on_c, 0, 57, 0
3, 88800, Note_on_c, 0, 55, 58
3, 88920, Note_on_c, 0, 55, 0
3, 88920, Note_on_c, 0, 58, 46
3, 89040, Note_on_c, 0, 58, 0
3, 89040, Note_on_c, 0, 57, 46
3, 89160, Note_on_c, 0, 57, 0
3, 89160, Note_on_c, 0, 55, 45
3, 89280, Note_on_c, 0, 55, 0
3, 89280, Note_on_c, 0, 54, 59
3, 89400, Note_on_c, 0, 54, 0
3, 89400, Note_on_c, 0, 55, 45
3, 89520, Note_on_c, 0, 55, 0
3, 89520, Note_on_c, 0, 54, 45
3, 89640, Note_on_c, 0, 54, 0
3, 89640, Note_on_c, 0, 51, 44
3, 89760, Note_on_c, 0, 51, 0
3, 89760, Note_on_c, 0, 50, 57
3, 89880, Note_on_c, 0, 50, 0
3, 89880, Note_on_c, 0, 51, 44
3, 90000, Note_on_c, 0, 51, 0
3, 90000, Note_on_c, 0, 50, 42
3, 90120, Note_on_c, 0, 50, 0
3, 90120, Note_on_c, 0, 48, 42
3, 90240, Note_on_c, 0, 48, 0
3, 90240, Note_on_c, 0, 46, 55
3, 90360, Note_on_c, 0, 46, 0
3, 90360, Note_on_c, 0, 48, 41
3, 90480, Note_on_c, 0, 48, 0
3, 90480, Note_on_c, 0, 46, 41
3, 90600, Note_on_c, 0, 46, 0
3, 90600, Note_on_c, 0, 45, 41
3, 90720, Note_on_c, 0, 45, 0
3, 90720, Note_on_c, 0, 43, 56
3, 90840, Note_on_c, 0, 43, 0
3, 90840, Note_on_c, 0, 42, 42
3, 90960, Note_on_c, 0, 42, 0
3, 90960, Note_on_c, 0, 43, 42
3, 91080, Note_on_c, 0, 43, 0
3, 91080, Note_on_c, 0, 45, 42
3, 91200, Note_on_c, 0, 45, 0
3, 91200, Note_on_c, 0, 46, 55
3, 91320, Note_on_c, 0, 46, 0
3, 91320, Note_on_c, 0, 45, 42
3, 91440, Note_on_c, 0, 45, 0
3, 91440, Note_on_c, 0, 46, 41
3, 91560, Note_on_c, 0, 46, 0
3, 91560, Note_on_c, 0, 47, 41
3, 91680, Note_on_c, 0, 47, 0
3, 91680, Note_on_c, 0, 48, 59
3, 91800, Note_on_c, 0, 48, 0
3, 91800, Note_on_c, 0, 47, 47
3, 91920, Note_on_c, 0, 47, 0
3, 91920, Note_on_c, 0, 48, 48
3, 92034, Note_on_c, 0, 49, 48
3, 92040, Note_on_c, 0, 48, 0
3, 92154, Note_on_c, 0, 49, 0
3, 92160, Note_on_c, 0, 50, 60
3, 92280, Note_on_c, 0, 50, 0
3, 92280, Note_on_c, 0, 38, 46
3, 92400, Note_on_c, 0, 38, 0
3, 92400, Note_on_c, 0, 42, 46
3, 92520, Note_on_c, 0, 42, 0
3, 92520, Note_on_c, 0, 45, 42
3, 92640, Note_on_c, 0, 45, 0
3, 92640, Note_on_c, 0, 50, 57
3, 92760, Note_on_c, 0, 50, 0
3, 92760, Note_on_c, 0, 54, 53
3, 92880, Note_on_c, 0, 54, 0
3, 92886, Note_on_c, 0, 57, 56
3, 93000, Note_on_c, 0, 61, 58
3, 93006, Note_on_c, 0, 57, 0
3, 93120, Note_on_c, 0, 61, 0
3, 93120, Note_on_c, 0, 62, 66
3, 93240, Note_on_c, 0, 62, 0
3, 93240, Note_on_c, 0, 63, 59
3, 93360, Note_on_c, 0, 63, 0
3, 93360, Note_on_c, 0, 62, 57
3, 93480, Note_on_c, 0, 62, 0
3, 93480, Note_on_c, 0, 60, 56
3, 93600, Note_on_c, 0, 60, 0
3, 93600, Note_on_c, 0, 58, 62
3, 93720, Note_on_c, 0, 58, 0
3, 93720, Note_on_c, 0, 60, 48
3, 93840, Note_on_c, 0, 60, 0
3, 93840, Note_on_c, 0, 58, 47
3, 93960, Note_on_c, 0, 58, 0
3, 93960, Note_on_c, 0, 57, 47
3, 94080, Note_on_c, 0, 57, 0
3, 94080, Note_on_c, 0, 55, 63
3, 94200, Note_on_c, 0, 55, 0
3, 94200, Note_on_c, 0, 57, 46
3, 94320, Note_on_c, 0, 57, 0
3, 94320, Note_on_c, 0, 55, 46
3, 94440, Note_on_c, 0, 55, 0
3, 94440, Note_on_c, 0, 53, 46
3, 94560, Note_on_c, 0, 53, 0
3, 94560, Note_on_c, 0, 52, 58
3, 94680, Note_on_c, 0, 52, 0
3, 94680, Note_on_c, 0, 53, 46
3, 94800, Note_on_c, 0, 53, 0
3, 94800, Note_on_c, 0, 52, 46
3, 94920, Note_on_c, 0, 52, 0
3, 94920, Note_on_c, 0, 50, 45
3, 95040, Note_on_c, 0, 50, 0
3, 95040, Note_on_c, 0, 49, 59
3, 95160, Note_on_c, 0, 49, 0
3, 95160, Note_on_c, 0, 50, 45
3, 95280, Note_on_c, 0, 50, 0
3, 95280, Note_on_c, 0, 49, 45
3, 95400, Note_on_c, 0, 49, 0
3, 95400, Note_on_c, 0, 46, 44
3, 95520, Note_on_c, 0, 46, 0
3, 95520, Note_on_c, 0, 45, 57
3, 95640, Note_on_c, 0, 45, 0
3, 95640, Note_on_c, 0, 46, 44
3, 95760, Note_on_c, 0, 46, 0
3, 95760, Note_on_c, 0, 45, 42
3, 95880, Note_on_c, 0, 45, 0
3, 95880, Note_on_c, 0, 43, 42
3, 96000, Note_on_c, 0, 43, 0
3, 96000, Note_on_c, 0, 41, 55
3, 96120, Note_on_c, 0, 41, 0
3, 96120, Note_on_c, 0, 43, 41
3, 96240, Note_on_c, 0, 43, 0
3, 96240, Note_on_c, 0, 41, 41
3, 96360, Note_on_c, 0, 41, 0
3, 96360, Note_on_c, 0, 40, 41
3, 96480, Note_on_c, 0, 40, 0
3, 96480, Note_on_c, 0, 38, 56
3, 96600, Note_on_c, 0, 38, 0
3, 96600, Note_on_c, 0, 40, 42
3, 96720, Note_on_c, 0, 40, 0
3, 96720, Note_on_c, 0, 41, 42
3, 96840, Note_on_c, 0, 41, 0
3, 96840, Note_on_c, 0, 38, 42
3, 96960, Note_on_c, 0, 38, 0
3, 96960, Note_on_c, 0, 43, 55
3, 97080, Note_on_c, 0, 43, 0
3, 97080, Note_on_c, 0, 45, 42
3, 97200, Note_on_c, 0, 45, 0
3, 97200, Note_on_c, 0, 46, 41
3, 97320, Note_on_c, 0, 46, 0
3, 97320, Note_on_c, 0, 43, 41
3, 97440, Note_on_c, 0, 43, 0
3, 97440, Note_on_c, 0, 45, 57
3, 97560, Note_on_c, 0, 45, 0
3, 97560, Note_on_c, 0, 44, 45
3, 97680, Note_on_c, 0, 44, 0
3, 97680, Note_on_c, 0, 45, 45
3, 97800, Note_on_c, 0, 45, 0
3, 97800, Note_on_c, 0, 33, 45
3, 97920, Note_on_c, 0, 33, 0
3, 97920, Note_on_c, 0, 38, 60
3, 98040, Note_on_c, 0, 38, 0
3, 98040, Note_on_c, 0, 41, 46
3, 98160, Note_on_c, 0, 41, 0
3, 98160, Note_on_c, 0, 45, 46
3, 98280, Note_on_c, 0, 45, 0
3, 98280, Note_on_c, 0, 50, 42
3, 98400, Note_on_c, 0, 50, 0
3, 98400, Note_on_c, 0, 38, 57
3, 98850, Note_on_c, 0, 38, 0
3, 98880, Note_on_c, 0, 62, 62
3, 99000, Note_on_c, 0, 62, 0
3, 99000, Note_on_c, 0, 63, 48
3, 99120, Note_on_c, 0, 63, 0
3, 99120, Note_on_c, 0, 62, 48
3, 99240, Note_on_c, 0, 62, 0
3, 99240, Note_on_c, 0, 60, 48
3, 99360, Note_on_c, 0, 60, 0
3, 99360, Note_on_c, 0, 58, 62
3, 99480, Note_on_c, 0, 58, 0
3, 99480, Note_on_c, 0, 60, 48
3, 99600, Note_on_c, 0, 60, 0
3, 99600, Note_on_c, 0, 58, 47
3, 99720, Note_on_c, 0, 58, 0
3, 99720, Note_on_c, 0, 57, 47
3, 99840, Note_on_c, 0, 57, 0
3, 99840, Note_on_c, 0, 55, 63
3, 99960, Note_on_c, 0, 55, 0
3, 99960, Note_on_c, 0, 57, 46
3, 100080, Note_on_c, 0, 57, 0
3, 100080, Note_on_c, 0, 58, 46
3, 100200, Note_on_c, 0, 58, 0
3, 100200, Note_on_c, 0, 57, 46
3, 100320, Note_on_c, 0, 57, 0
3, 100320, Note_on_c, 0, 55, 58
3, 100440, Note_on_c, 0, 55, 0
3, 100440, Note_on_c, 0, 58, 46
3, 100560, Note_on_c, 0, 58, 0
3, 100560, Note_on_c, 0, 57, 46
3, 100680, Note_on_c, 0, 57, 0
3, 100680, Note_on_c, 0, 55, 45
3, 100800, Note_on_c, 0, 55, 0
3, 100800, Note_on_c, 0, 54, 59
3, 100920, Note_on_c, 0, 54, 0
3, 100920, Note_on_c, 0, 55, 45
3, 101040, Note_on_c, 0, 55, 0
3, 101040, Note_on_c, 0, 54, 45
3, 101160, Note_on_c, 0, 54, 0
3, 101160, Note_on_c, 0, 51, 44
3, 101280, Note_on_c, 0, 51, 0
3, 101280, Note_on_c, 0, 50, 57
3, 101400, Note_on_c, 0, 50, 0
3, 101400, Note_on_c, 0, 51, 44
3, 101520, Note_on_c, 0, 51, 0
3, 101520, Note_on_c, 0, 50, 42
3, 101640, Note_on_c, 0, 50, 0
3, 101640, Note_on_c, 0, 48, 42
3, 101760, Note_on_c, 0, 48, 0
3, 101760, Note_on_c, 0, 46, 55
3, 101880, Note_on_c, 0, 46, 0
3, 101880, Note_on_c, 0, 48, 41
3, 102000, Note_on_c, 0, 48, 0
3, 102000, Note_on_c, 0, 46, 41
3, 102120, Note_on_c, 0, 46, 0
3, 102120, Note_on_c, 0, 45, 41
3, 102240, Note_on_c, 0, 45, 0
3, 102240, Note_on_c, 0, 43, 56
3, 102360, Note_on_c, 0, 43, 0
3, 102360, Note_on_c, 0, 42, 42
3, 102480, Note_on_c, 0, 42, 0
3, 102480, Note_on_c, 0, 43, 42
3, 102600, Note_on_c, 0, 43, 0
3, 102600, Note_on_c, 0, 45, 42
3, 102720, Note_on_c, 0, 45, 0
3, 102720, Note_on_c, 0, 46, 55
3, 102840, Note_on_c, 0, 46, 0
3, 102840, Note_on_c, 0, 45, 42
3, 102960, Note_on_c, 0, 45, 0
3, 102960, Note_on_c, 0, 46, 41
3, 103080, Note_on_c, 0, 46, 0
3, 103080, Note_on_c, 0, 47, 41
3, 103200, Note_on_c, 0, 47, 0
3, 103200, Note_on_c, 0, 48, 59
3, 103320, Note_on_c, 0, 48, 0
3, 103320, Note_on_c, 0, 47, 47
3, 103440, Note_on_c, 0, 47, 0
3, 103440, Note_on_c, 0, 48, 48
3, 103560, Note_on_c, 0, 48, 0
3, 103560, Note_on_c, 0, 49, 48
3, 103680, Note_on_c, 0, 49, 0
3, 103680, Note_on_c, 0, 50, 60
3, 103800, Note_on_c, 0, 50, 0
3, 103800, Note_on_c, 0, 38, 46
3, 103920, Note_on_c, 0, 38, 0
3, 103920, Note_on_c, 0, 42, 47
3, 104040, Note_on_c, 0, 42, 0
3, 104040, Note_on_c, 0, 45, 48
3, 104160, Note_on_c, 0, 45, 0
3, 104160, Note_on_c, 0, 50, 57
3, 104280, Note_on_c, 0, 50, 0
3, 104280, Note_on_c, 0, 54, 49
3, 104400, Note_on_c, 0, 54, 0
3, 104406, Note_on_c, 0, 57, 53
3, 104520, Note_on_c, 0, 61, 57
3, 104526, Note_on_c, 0, 57, 0
3, 104640, Note_on_c, 0, 61, 0
3, 104640, Note_on_c, 0, 62, 62
3, 104760, Note_on_c, 0, 62, 0
3, 104760, Note_on_c, 0, 63, 57
3, 104880, Note_on_c, 0, 63, 0
3, 104880, Note_on_c, 0, 62, 52
3, 105000, Note_on_c, 0, 62, 0
3, 105000, Note_on_c, 0, 60, 49
3, 105120, Note_on_c, 0, 60, 0
3, 105120, Note_on_c, 0, 58, 62
3, 105240, Note_on_c, 0, 58, 0
3, 105240, Note_on_c, 0, 60, 48
3, 105360, Note_on_c, 0, 60, 0
3, 105360, Note_on_c, 0, 58, 47
3, 105480, Note_on_c, 0, 58, 0
3, 105480, Note_on_c, 0, 57, 47
3, 105600, Note_on_c, 0, 57, 0
3, 105600, Note_on_c, 0, 55, 63
3, 105720, Note_on_c, 0, 55, 0
3, 105720, Note_on_c, 0, 57, 46
3, 105840, Note_on_c, 0, 57, 0
3, 105840, Note_on_c, 0, 55, 46
3, 105960, Note_on_c, 0, 55, 0
3, 105960, Note_on_c, 0, 53, 46
3, 106080, Note_on_c, 0, 53, 0
3, 106080, Note_on_c, 0, 52, 58
3, 106200, Note_on_c, 0, 52, 0
3, 106200, Note_on_c, 0, 53, 46
3, 106320, Note_on_c, 0, 53, 0
3, 106320, Note_on_c, 0, 52, 46
3, 106440, Note_on_c, 0, 52, 0
3, 106440, Note_on_c, 0, 50, 45
3, 106560, Note_on_c, 0, 50, 0
3, 106560, Note_on_c, 0, 49, 59
3, 106680, Note_on_c, 0, 49, 0
3, 106680, Note_on_c, 0, 50, 45
3, 106800, Note_on_c, 0, 50, 0
3, 106800, Note_on_c, 0, 49, 45
3, 106920, Note_on_c, 0, 49, 0
3, 106920, Note_on_c, 0, 46, 44
3, 107040, Note_on_c, 0, 46, 0
3, 107040, Note_on_c, 0, 45, 57
3, 107160, Note_on_c, 0, 45, 0
3, 107160, Note_on_c, 0, 46, 44
3, 107280, Note_on_c, 0, 46, 0
3, 107280, Note_on_c, 0, 45, 42
3, 107400, Note_on_c, 0, 45, 0
3, 107400, Note_on_c, 0, 43, 42
3, 107520, Note_on_c, 0, 43, 0
3, 107520, Note_on_c, 0, 41, 55
3, 107640, Note_on_c, 0, 41, 0
3, 107640, Note_on_c, 0, 43, 41
3, 107760, Note_on_c, 0, 43, 0
3, 107760, Note_on_c, 0, 41, 41
3, 107880, Note_on_c, 0, 41, 0
3, 107880, Note_on_c, 0, 40, 41
3, 108000, Note_on_c, 0, 40, 0
3, 108000, Note_on_c, 0, 38, 56
3, 108120, Note_on_c, 0, 38, 0
3, 108120, Note_on_c, 0, 40, 42
3, 108240, Note_on_c, 0, 40, 0
3, 108240, Note_on_c, 0, 41, 42
3, 108360, Note_on_c, 0, 41, 0
3, 108360, Note_on_c, 0, 38, 42
3, 108480, Note_on_c, 0, 38, 0
3, 108480, Note_on_c, 0, 43, 55
3, 108600, Note_on_c, 0, 43, 0
3, 108600, Note_on_c, 0, 45, 42
3, 108720, Note_on_c, 0, 45, 0
3, 108720, Note_on_c, 0, 46, 41
3, 108840, Note_on_c, 0, 46, 0
3, 108840, Note_on_c, 0, 43, 41
3, 108960, Note_on_c, 0, 43, 0
3, 108960, Note_on_c, 0, 45, 57
3, 109080, Note_on_c, 0, 45, 0
3, 109080, Note_on_c, 0, 44, 45
3, 109200, Note_on_c, 0, 44, 0
3, 109200, Note_on_c, 0, 45, 45
3, 109320, Note_on_c, 0, 45, 0
3, 109320, Note_on_c, 0, 33, 45
3, 109440, Note_on_c, 0, 33, 0
3, 109440, Note_on_c, 0, 38, 60
3, 109560, Note_on_c, 0, 38, 0
3, 109560, Note_on_c, 0, 41, 46
3, 109680, Note_on_c, 0, 41, 0
3, 109680, Note_on_c, 0, 45, 46
3, 109800, Note_on_c, 0, 45, 0
3, 109800, Note_on_c, 0, 50, 42
3, 109920, Note_on_c, 0, 50, 0
3, 109920, Note_on_c, 0, 38, 57
3, 110370, Note_on_c, 0, 38, 0
3, 110880, Note_on_c, 0, 68, 67
3, 111000, Note_on_c, 0, 68, 0
3, 111000, Note_on_c, 0, 70, 46
3, 111120, Note_on_c, 0, 70, 0
3, 111120, Note_on_c, 0, 68, 46
3, 111240, Note_on_c, 0, 68, 0
3, 111240, Note_on_c, 0, 67, 46
3, 111360, Note_on_c, 0, 67, 0
3, 111360, Note_on_c, 0, 65, 59
3, 111480, Note_on_c, 0, 65, 0
3, 111480, Note_on_c, 0, 67, 46
3, 111600, Note_on_c, 0, 67, 0
3, 111600, Note_on_c, 0, 65, 46
3, 111720, Note_on_c, 0, 65, 0
3, 111720, Note_on_c, 0, 63, 46
3, 111840, Note_on_c, 0, 63, 0
3, 111840, Note_on_c, 0, 55, 56
3, 111840, Note_on_c, 0, 62, 67
3, 112320, Note_on_c, 0, 62, 0
3, 112320, Note_on_c, 0, 55, 0
3, 112320, Note_on_c, 0, 60, 56
3, 112320, Note_on_c, 0, 63, 67
3, 112560, Note_on_c, 0, 63, 0
3, 112560, Note_on_c, 0, 60, 0
3, 113760, Note_on_c, 0, 63, 67
3, 113880, Note_on_c, 0, 63, 0
3, 113880, Note_on_c, 0, 65, 46
3, 114000, Note_on_c, 0, 65, 0
3, 114000, Note_on_c, 0, 63, 46
3, 114120, Note_on_c, 0, 63, 0
3, 114120, Note_on_c, 0, 62, 46
3, 114240, Note_on_c, 0, 62, 0
3, 114240, Note_on_c, 0, 60, 59
3, 114360, Note_on_c, 0, 60, 0
3, 114360, Note_on_c, 0, 62, 46
3, 114480, Note_on_c, 0, 62, 0
3, 114480, Note_on_c, 0, 60, 46
3, 114600, Note_on_c, 0, 60, 0
3, 114600, Note_on_c, 0, 58, 46
3, 114720, Note_on_c, 0, 58, 0
3, 114720, Note_on_c, 0, 50, 56
3, 114720, Note_on_c, 0, 57, 67
3, 115200, Note_on_c, 0, 57, 0
3, 115200, Note_on_c, 0, 50, 0
3, 115200, Note_on_c, 0, 55, 56
3, 115200, Note_on_c, 0, 58, 67
3, 115440, Note_on_c, 0, 58, 0
3, 115440, Note_on_c, 0, 55, 0
3, 116160, Note_on_c, 0, 62, 62
3, 116280, Note_on_c, 0, 62, 0
3, 116280, Note_on_c, 0, 63, 48
3, 116400, Note_on_c, 0, 63, 0
3, 116400, Note_on_c, 0, 62, 48
3, 116520, Note_on_c, 0, 62, 0
3, 116520, Note_on_c, 0, 60, 48
3, 116640, Note_on_c, 0, 60, 0
3, 116640, Note_on_c, 0, 58, 62
3, 116760, Note_on_c, 0, 58, 0
3, 116760, Note_on_c, 0, 60, 48
3, 116880, Note_on_c, 0, 60, 0
3, 116880, Note_on_c, 0, 58, 47
3, 117000, Note_on_c, 0, 58, 0
3, 117000, Note_on_c, 0, 57, 47
3, 117120, Note_on_c, 0, 57, 0
3, 117120, Note_on_c, 0, 55, 63
3, 117240, Note_on_c, 0, 55, 0
3, 117240, Note_on_c, 0, 57, 46
3, 117360, Note_on_c, 0, 57, 0
3, 117360, Note_on_c, 0, 55, 46
3, 117480, Note_on_c, 0, 55, 0
3, 117480, Note_on_c, 0, 53, 46
3, 117600, Note_on_c, 0, 53, 0
3, 117600, Note_on_c, 0, 51, 58
3, 117720, Note_on_c, 0, 51, 0
3, 117720, Note_on_c, 0, 53, 46
3, 117840, Note_on_c, 0, 53, 0
3, 117840, Note_on_c, 0, 51, 46
3, 117960, Note_on_c, 0, 51, 0
3, 117960, Note_on_c, 0, 50, 45
3, 118080, Note_on_c, 0, 50, 0
3, 118080, Note_on_c, 0, 48, 59
3, 118200, Note_on_c, 0, 48, 0
3, 118200, Note_on_c, 0, 50, 45
3, 118320, Note_on_c, 0, 50, 0
3, 118320, Note_on_c, 0, 48, 45
3, 118440, Note_on_c, 0, 48, 0
3, 118440, Note_on_c, 0, 46, 44
3, 118560, Note_on_c, 0, 46, 0
3, 118560, Note_on_c, 0, 44, 57
3, 118680, Note_on_c, 0, 44, 0
3, 118680, Note_on_c, 0, 46, 44
3, 118800, Note_on_c, 0, 46, 0
3, 118800, Note_on_c, 0, 44, 42
3, 118920, Note_on_c, 0, 44, 0
3, 118920, Note_on_c, 0, 43, 42
3, 119040, Note_on_c, 0, 43, 0
3, 119040, Note_on_c, 0, 42, 55
3, 119160, Note_on_c, 0, 42, 0
3, 119160, Note_on_c, 0, 43, 41
3, 119280, Note_on_c, 0, 43, 0
3, 119280, Note_on_c, 0, 42, 41
3, 119400, Note_on_c, 0, 42, 0
3, 119400, Note_on_c, 0, 40, 41
3, 119520, Note_on_c, 0, 40, 0
3, 119520, Note_on_c, 0, 38, 56
3, 119640, Note_on_c, 0, 38, 0
3, 119640, Note_on_c, 0, 40, 42
3, 119760, Note_on_c, 0, 40, 0
3, 119760, Note_on_c, 0, 42, 42
3, 119880, Note_on_c, 0, 42, 0
3, 119880, Note_on_c, 0, 38, 42
3, 120000, Note_on_c, 0, 38, 0
3, 120000, Note_on_c, 0, 43, 55
3, 120120, Note_on_c, 0, 43, 0
3, 120120, Note_on_c, 0, 45, 42
3, 120240, Note_on_c, 0, 45, 0
3, 120240, Note_on_c, 0, 46, 41
3, 120360, Note_on_c, 0, 46, 0
3, 120360, Note_on_c, 0, 43, 41
3, 120480, Note_on_c, 0, 43, 0
3, 120480, Note_on_c, 0, 50, 57
3, 120600, Note_on_c, 0, 50, 0
3, 120600, Note_on_c, 0, 48, 45
3, 120720, Note_on_c, 0, 48, 0
3, 120720, Note_on_c, 0, 46, 45
3, 120840, Note_on_c, 0, 46, 0
3, 120840, Note_on_c, 0, 45, 45
3, 120960, Note_on_c, 0, 45, 0
3, 120960, Note_on_c, 0, 43, 60
3, 121080, Note_on_c, 0, 43, 0
3, 121080, Note_on_c, 0, 46, 46
3, 121200, Note_on_c, 0, 46, 0
3, 121200, Note_on_c, 0, 50, 46
3, 121320, Note_on_c, 0, 50, 0
3, 121320, Note_on_c, 0, 55, 42
3, 121440, Note_on_c, 0, 55, 0
3, 121440, Note_on_c, 0, 43, 57
3, 121890, Note_on_c, 0, 43, 0
3, 122400, Note_on_c, 0, 68, 67
3, 122520, Note_on_c, 0, 68, 0
3, 122520, Note_on_c, 0, 70, 46
3, 122640, Note_on_c, 0, 70, 0
3, 122640, Note_on_c, 0, 68, 46
3, 122760, Note_on_c, 0, 68, 0
3, 122760, Note_on_c, 0, 67, 46
3, 122880, Note_on_c, 0, 67, 0
3, 122880, Note_on_c, 0, 65, 59
3, 123000, Note_on_c, 0, 65, 0
3, 123000, Note_on_c, 0, 67, 46
3, 123120, Note_on_c, 0, 67, 0
3, 123120, Note_on_c, 0, 65, 46
3, 123240, Note_on_c, 0, 65, 0
3, 123240, Note_on_c, 0, 63, 46
3, 123360, Note_on_c, 0, 63, 0
3, 123360, Note_on_c, 0, 55, 56
3, 123360, Note_on_c, 0, 62, 67
3, 123840, Note_on_c, 0, 62, 0
3, 123840, Note_on_c, 0, 55, 0
3, 123840, Note_on_c, 0, 60, 56
3, 123840, Note_on_c, 0, 63, 67
3, 124080, Note_on_c, 0, 63, 0
3, 124080, Note_on_c, 0, 60, 0
3, 125280, Note_on_c, 0, 63, 67
3, 125400, Note_on_c, 0, 63, 0
3, 125400, Note_on_c, 0, 65, 46
3, 125520, Note_on_c, 0, 65, 0
3, 125520, Note_on_c, 0, 63, 46
3, 125640, Note_on_c, 0, 63, 0
3, 125640, Note_on_c, 0, 62, 46
3, 125760, Note_on_c, 0, 62, 0
3, 125760, Note_on_c, 0, 60, 59
3, 125880, Note_on_c, 0, 60, 0
3, 125880, Note_on_c, 0, 62, 46
3, 126000, Note_on_c, 0, 62, 0
3, 126000, Note_on_c, 0, 60, 46
3, 126120, Note_on_c, 0, 60, 0
3, 126120, Note_on_c, 0, 58, 46
3, 126240, Note_on_c, 0, 58, 0
3, 126240, Note_on_c, 0, 50, 56
3, 126240, Note_on_c, 0, 57, 67
3, 126720, Note_on_c, 0, 57, 0
3, 126720, Note_on_c, 0, 50, 0
3, 126720, Note_on_c, 0, 55, 56
3, 126720, Note_on_c, 0, 58, 67
3, 126960, Note_on_c, 0, 58, 0
3, 126960, Note_on_c, 0, 55, 0
3, 127680, Note_on_c, 0, 62, 62
3, 127800, Note_on_c, 0, 62, 0
3, 127800, Note_on_c, 0, 63, 48
3, 127920, Note_on_c, 0, 63, 0
3, 127920, Note_on_c, 0, 62, 48
3, 128040, Note_on_c, 0, 62, 0
3, 128040, Note_on_c, 0, 60, 48
3, 128160, Note_on_c, 0, 60, 0
3, 128160, Note_on_c, 0, 58, 62
3, 128280, Note_on_c, 0, 58, 0
3, 128280, Note_on_c, 0, 60, 48
3, 128400, Note_on_c, 0, 60, 0
3, 128400, Note_on_c, 0, 58, 47
3, 128520, Note_on_c, 0, 58, 0
3, 128520, Note_on_c, 0, 57, 47
3, 128640, Note_on_c, 0, 57, 0
3, 128640, Note_on_c, 0, 55, 63
3, 128760, Note_on_c, 0, 55, 0
3, 128760, Note_on_c, 0, 57, 46
3, 128880, Note_on_c, 0, 57, 0
3, 128880, Note_on_c, 0, 55, 46
3, 129000, Note_on_c, 0, 55, 0
3, 129000, Note_on_c, 0, 53, 46
3, 129120, Note_on_c, 0, 53, 0
3, 129120, Note_on_c, 0, 51, 58
3, 129240, Note_on_c, 0, 51, 0
3, 129240, Note_on_c, 0, 53, 46
3, 129360, Note_on_c, 0, 53, 0
3, 129360, Note_on_c, 0, 51, 46
3, 129480, Note_on_c, 0, 51, 0
3, 129480, Note_on_c, 0, 50, 45
3, 129600, Note_on_c, 0, 50, 0
3, 129600, Note_on_c, 0, 48, 59
3, 129720, Note_on_c, 0, 48, 0
3, 129720, Note_on_c, 0, 50, 45
3, 129840, Note_on_c, 0, 50, 0
3, 129840, Note_on_c, 0, 48, 45
3, 129960, Note_on_c, 0, 48, 0
3, 129960, Note_on_c, 0, 46, 44
3, 130080, Note_on_c, 0, 46, 0
3, 130080, Note_on_c, 0, 44, 57
3, 130200, Note_on_c, 0, 44, 0
3, 130200, Note_on_c, 0, 46, 44
3, 130320, Note_on_c, 0, 46, 0
3, 130320, Note_on_c, 0, 44, 42
3, 130440, Note_on_c, 0, 44, 0
3, 130440, Note_on_c, 0, 43, 42
3, 130560, Note_on_c, 0, 43, 0
3, 130560, Note_on_c, 0, 42, 55
3, 130680, Note_on_c, 0, 42, 0
3, 130680, Note_on_c, 0, 43, 41
3, 130800, Note_on_c, 0, 43, 0
3, 130800, Note_on_c, 0, 42, 41
3, 130920, Note_on_c, 0, 42, 0
3, 130920, Note_on_c, 0, 40, 41
3, 131040, Note_on_c, 0, 40, 0
3, 131040, Note_on_c, 0, 38, 56
3, 131160, Note_on_c, 0, 38, 0
3, 131160, Note_on_c, 0, 40, 42
3, 131280, Note_on_c, 0, 40, 0
3, 131280, Note_on_c, 0, 42, 42
3, 131400, Note_on_c, 0, 42, 0
3, 131400, Note_on_c, 0, 38, 42
3, 131520, Note_on_c, 0, 38, 0
3, 131520, Note_on_c, 0, 43, 55
3, 131640, Note_on_c, 0, 43, 0
3, 131640, Note_on_c, 0, 45, 42
3, 131760, Note_on_c, 0, 45, 0
3, 131760, Note_on_c, 0, 46, 41
3, 131880, Note_on_c, 0, 46, 0
3, 131880, Note_on_c, 0, 43, 41
3, 132000, Note_on_c, 0, 43, 0
3, 132000, Note_on_c, 0, 50, 57
3, 132120, Note_on_c, 0, 50, 0
3, 132120, Note_on_c, 0, 48, 45
3, 132240, Note_on_c, 0, 48, 0
3, 132240, Note_on_c, 0, 46, 45
3, 132360, Note_on_c, 0, 46, 0
3, 132360, Note_on_c, 0, 45, 45
3, 132480, Note_on_c, 0, 45, 0
3, 132480, Note_on_c, 0, 43, 60
3, 132600, Note_on_c, 0, 43, 0
3, 132600, Note_on_c, 0, 46, 46
3, 132720, Note_on_c, 0, 46, 0
3, 132720, Note_on_c, 0, 50, 46
3, 132840, Note_on_c, 0, 50, 0
3, 132840, Note_on_c, 0, 55, 42
3, 132960, Note_on_c, 0, 55, 0
3, 132960, Note_on_c, 0, 43, 57
3, 133410, Note_on_c, 0, 43, 0
3, 133920, Note_on_c, 0, 46, 40
3, 134040, Note_on_c, 0, 46, 0
3, 134160, Note_on_c, 0, 58, 29
3, 134400, Note_on_c, 0, 58, 0
3, 134400, Note_on_c, 0, 62, 34
3, 134640, Note_on_c, 0, 62, 0
3, 134640, Note_on_c, 0, 58, 29
3, 134880, Note_on_c, 0, 58, 0
3, 134880, Note_on_c, 0, 63, 34
3, 135120, Note_on_c, 0, 63, 0
3, 135120, Note_on_c, 0, 60, 31
3, 135360, Note_on_c, 0, 60, 0
3, 135360, Note_on_c, 0, 62, 40
3, 135600, Note_on_c, 0, 62, 0
3, 135600, Note_on_c, 0, 61, 30
3, 135840, Note_on_c, 0, 61, 0
3, 135840, Note_on_c, 0, 62, 34
3, 136080, Note_on_c, 0, 62, 0
3, 136080, Note_on_c, 0, 58, 30
3, 136320, Note_on_c, 0, 58, 0
3, 136320, Note_on_c, 0, 63, 34
3, 136560, Note_on_c, 0, 63, 0
3, 136560, Note_on_c, 0, 60, 29
3, 136800, Note_on_c, 0, 60, 0
3, 136800, Note_on_c, 0, 62, 40
3, 137040, Note_on_c, 0, 62, 0
3, 137040, Note_on_c, 0, 61, 30
3, 137280, Note_on_c, 0, 61, 0
3, 137280, Note_on_c, 0, 62, 34
3, 137520, Note_on_c, 0, 62, 0
3, 137520, Note_on_c, 0, 57, 30
3, 137760, Note_on_c, 0, 57, 0
3, 137760, Note_on_c, 0, 58, 34
3, 138000, Note_on_c, 0, 58, 0
3, 138000, Note_on_c, 0, 55, 30
3, 138230, Note_on_c, 0, 55, 0
3, 138240, Note_on_c, 0, 53, 40
3, 138720, Note_on_c, 0, 65, 35
3, 138960, Note_on_c, 0, 65, 0
3, 138960, Note_on_c, 0, 53, 0
3, 139920, Note_on_c, 0, 53, 36
3, 140160, Note_on_c, 0, 57, 40
3, 140400, Note_on_c, 0, 57, 0
3, 140400, Note_on_c, 0, 60, 37
3, 140640, Note_on_c, 0, 60, 0
3, 140640, Note_on_c, 0, 63, 40
3, 141360, Note_on_c, 0, 63, 0
3, 141360, Note_on_c, 0, 53, 0
3, 141360, Note_on_c, 0, 53, 42
3, 141600, Note_on_c, 0, 60, 48
3, 141840, Note_on_c, 0, 60, 0
3, 141840, Note_on_c, 0, 63, 41
3, 142080, Note_on_c, 0, 63, 0
3, 142080, Note_on_c, 0, 66, 55
3, 143040, Note_on_c, 0, 66, 0
3, 143040, Note_on_c, 0, 53, 0
3, 143040, Note_on_c, 0, 65, 38
3, 143040, Note_on_c, 0, 53, 38
3, 143520, Note_on_c, 0, 53, 0
3, 143520, Note_on_c, 0, 65, 0
3, 143520, Note_on_c, 0, 53, 32
3, 143520, Note_on_c, 0, 63, 32
3, 144000, Note_on_c, 0, 63, 0
3, 144000, Note_on_c, 0, 53, 0
3, 144000, Note_on_c, 0, 58, 30
3, 144000, Note_on_c, 0, 63, 36
3, 144480, Note_on_c, 0, 63, 0
3, 144480, Note_on_c, 0, 62, 32
3, 144720, Note_on_c, 0, 62, 0
3, 144720, Note_on_c, 0, 58, 0
3, 144960, Note_on_c, 0, 66, 38
3, 145080, Note_on_c, 0, 66, 0
3, 145080, Note_on_c, 0, 67, 33
3, 145200, Note_on_c, 0, 67, 0
3, 145200, Note_on_c, 0, 66, 41
3, 145320, Note_on_c, 0, 66, 0
3, 145320, Note_on_c, 0, 67, 38
3, 145440, Note_on_c, 0, 67, 0
3, 145440, Note_on_c, 0, 66, 45
3, 145560, Note_on_c, 0, 66, 0
3, 145560, Note_on_c, 0, 67, 39
3, 145680, Note_on_c, 0, 67, 0
3, 145680, Note_on_c, 0, 66, 48
3, 145800, Note_on_c, 0, 66, 0
3, 145800, Note_on_c, 0, 67, 44
3, 145920, Note_on_c, 0, 67, 0
3, 145920, Note_on_c, 0, 66, 52
3, 146040, Note_on_c, 0, 66, 0
3, 146040, Note_on_c, 0, 67, 44
3, 146160, Note_on_c, 0, 67, 0
3, 146160, Note_on_c, 0, 66, 55
3, 146280, Note_on_c, 0, 66, 0
3, 146280, Note_on_c, 0, 67, 51
3, 146400, Note_on_c, 0, 67, 0
3, 146400, Note_on_c, 0, 66, 59
3, 146520, Note_on_c, 0, 66, 0
3, 146520, Note_on_c, 0, 67, 51
3, 146640, Note_on_c, 0, 67, 0
3, 146640, Note_on_c, 0, 66, 63
3, 146760, Note_on_c, 0, 66, 0
3, 146760, Note_on_c, 0, 67, 58
3, 146880, Note_on_c, 0, 67, 0
3, 146880, Note_on_c, 0, 66, 69
3, 147120, Note_on_c, 0, 66, 0
3, 147360, Note_on_c, 0, 50, 62
3, 147360, Note_on_c, 0, 62, 74
3, 148080, Note_on_c, 0, 62, 0
3, 148080, Note_on_c, 0, 50, 0
3, 148080, Note_on_c, 0, 50, 46
3, 148080, Note_on_c, 0, 62, 56
3, 148200, Note_on_c, 0, 62, 0
3, 148200, Note_on_c, 0, 50, 0
3, 148320, Note_on_c, 0, 51, 57
3, 148320, Note_on_c, 0, 63, 68
3, 148560, Note_on_c, 0, 63, 0
3, 148560, Note_on_c, 0, 51, 0
3, 148680, Note_on_c, 0, 48, 45
3, 148680, Note_on_c, 0, 60, 53
3, 148740, Note_on_c, 0, 60, 0
3, 148740, Note_on_c, 0, 48, 0
3, 148800, Note_on_c, 0, 50, 53
3, 148800, Note_on_c, 0, 62, 63
3, 149040, Note_on_c, 0, 62, 0
3, 149040, Note_on_c, 0, 50, 0
3, 149280, Note_on_c, 0, 38, 51
3, 149280, Note_on_c, 0, 50, 61
3, 149520, Note_on_c, 0, 50, 0
3, 149520, Note_on_c, 0, 38, 0
3, 149760, Note_on_c, 0, 43, 51
3, 149760, Note_on_c, 0, 55, 61
3, 150480, Note_on_c, 0, 55, 0
3, 150480, Note_on_c, 0, 43, 0
3, 150720, Note_on_c, 0, 50, 25
3, 150840, Note_on_c, 0, 51, 22
3, 150841, Note_on_c, 0, 50, 0
3, 150960, Note_on_c, 0, 50, 27
3, 150961, Note_on_c, 0, 51, 0
3, 151080, Note_on_c, 0, 51, 24
3, 151081, Note_on_c, 0, 50, 0
3, 151200, Note_on_c, 0, 50, 29
3, 151201, Note_on_c, 0, 51, 0
3, 151320, Note_on_c, 0, 51, 25
3, 151321, Note_on_c, 0, 50, 0
3, 151440, Note_on_c, 0, 50, 32
3, 151441, Note_on_c, 0, 51, 0
3, 151560, Note_on_c, 0, 51, 29
3, 151561, Note_on_c, 0, 50, 0
3, 151680, Note_on_c, 0, 50, 34
3, 151681, Note_on_c, 0, 51, 0
3, 151800, Note_on_c, 0, 51, 30
3, 151801, Note_on_c, 0, 50, 0
3, 151920, Note_on_c, 0, 50, 37
3, 151921, Note_on_c, 0, 51, 0
3, 152040, Note_on_c, 0, 51, 34
3, 152041, Note_on_c, 0, 50, 0
3, 152160, Note_on_c, 0, 50, 39
3, 152161, Note_on_c, 0, 51, 0
3, 152280, Note_on_c, 0, 51, 34
3, 152281, Note_on_c, 0, 50, 0
3, 152400, Note_on_c, 0, 50, 41
3, 152401, Note_on_c, 0, 51, 0
3, 152520, Note_on_c, 0, 51, 38
3, 152521, Note_on_c, 0, 50, 0
3, 152640, Note_on_c, 0, 50, 54
3, 152641, Note_on_c, 0, 51, 0
3, 152880, Note_on_c, 0, 50, 0
3, 153120, Note_on_c, 0, 50, 53
3, 153120, Note_on_c, 0, 53, 64
3, 153840, Note_on_c, 0, 53, 0
3, 153840, Note_on_c, 0, 50, 0
3, 153840, Note_on_c, 0, 51, 36
3, 153840, Note_on_c, 0, 55, 43
3, 154080, Note_on_c, 0, 55, 0
3, 154080, Note_on_c, 0, 51, 0
3, 154080, Note_on_c, 0, 47, 43
3, 154080, Note_on_c, 0, 50, 51
3, 154440, Note_on_c, 0, 50, 0
3, 154440, Note_on_c, 0, 47, 0
3, 154440, Note_on_c, 0, 48, 32
3, 154440, Note_on_c, 0, 51, 39
3, 154560, Note_on_c, 0, 51, 0
3, 154560, Note_on_c, 0, 48, 0
3, 154560, Note_on_c, 0, 50, 38
3, 154560, Note_on_c, 0, 53, 45
3, 155040, Note_on_c, 0, 53, 0
3, 155040, Note_on_c, 0, 50, 0
3, 155040, Note_on_c, 0, 51, 34
3, 155040, Note_on_c, 0, 55, 41
3, 155520, Note_on_c, 0, 55, 0
3, 155520, Note_on_c, 0, 51, 0
3, 155520, Note_on_c, 0, 53, 36
3, 156000, Note_on_c, 0, 53, 0
3, 156000, Note_on_c, 0, 41, 30
3, 156240, Note_on_c, 0, 41, 0
3, 156960, Note_on_c, 0, 46, 40
3, 157080, Note_on_c, 0, 46, 0
3, 157200, Note_on_c, 0, 58, 29
3, 157440, Note_on_c, 0, 58, 0
3, 157440, Note_on_c, 0, 62, 34
3, 157680, Note_on_c, 0, 62, 0
3, 157680, Note_on_c, 0, 58, 29
3, 157920, Note_on_c, 0, 58, 0
3, 157920, Note_on_c, 0, 63, 34
3, 158160, Note_on_c, 0, 63, 0
3, 158160, Note_on_c, 0, 60, 31
3, 158400, Note_on_c, 0, 60, 0
3, 158400, Note_on_c, 0, 62, 40
3, 158640, Note_on_c, 0, 62, 0
3, 158640, Note_on_c, 0, 61, 30
3, 158880, Note_on_c, 0, 61, 0
3, 158880, Note_on_c, 0, 62, 34
3, 159120, Note_on_c, 0, 62, 0
3, 159120, Note_on_c, 0, 58, 30
3, 159360, Note_on_c, 0, 58, 0
3, 159360, Note_on_c, 0, 63, 34
3, 159600, Note_on_c, 0, 63, 0
3, 159600, Note_on_c, 0, 60, 29
3, 159840, Note_on_c, 0, 60, 0
3, 159840, Note_on_c, 0, 62, 40
3, 160080, Note_on_c, 0, 62, 0
3, 160080, Note_on_c, 0, 61, 30
3, 160320, Note_on_c, 0, 61, 0
3, 160320, Note_on_c, 0, 62, 34
3, 160560, Note_on_c, 0, 62, 0
3, 160560, Note_on_c, 0, 57, 30
3, 160800, Note_on_c, 0, 57, 0
3, 160800, Note_on_c, 0, 58, 34
3, 161040, Note_on_c, 0, 58, 0
3, 161040, Note_on_c, 0, 55, 30
3, 161270, Note_on_c, 0, 55, 0
3, 161280, Note_on_c, 0, 53, 40
3, 161760, Note_on_c, 0, 65, 35
3, 162000, Note_on_c, 0, 65, 0
3, 162000, Note_on_c, 0, 53, 0
3, 162840, Note_on_c, 0, 41, 37
3, 162960, Note_on_c, 0, 41, 0
3, 162960, Note_on_c, 0, 45, 38
3, 163080, Note_on_c, 0, 45, 0
3, 163080, Note_on_c, 0, 48, 39
3, 163200, Note_on_c, 0, 48, 0
3, 163200, Note_on_c, 0, 53, 40
3, 163320, Note_on_c, 0, 53, 0
3, 163320, Note_on_c, 0, 57, 41
3, 163440, Note_on_c, 0, 57, 0
3, 163440, Note_on_c, 0, 60, 42
3, 163560, Note_on_c, 0, 60, 0
3, 163560, Note_on_c, 0, 62, 43
3, 163680, Note_on_c, 0, 62, 0
3, 163680, Note_on_c, 0, 63, 48
3, 164280, Note_on_c, 0, 63, 0
3, 164280, Note_on_c, 0, 41, 37
3, 164400, Note_on_c, 0, 41, 0
3, 164400, Note_on_c, 0, 45, 41
3, 164520, Note_on_c, 0, 45, 0
3, 164520, Note_on_c, 0, 48, 43
3, 164640, Note_on_c, 0, 48, 0
3, 164640, Note_on_c, 0, 53, 44
3, 164760, Note_on_c, 0, 53, 0
3, 164760, Note_on_c, 0, 57, 46
3, 164880, Note_on_c, 0, 57, 0
3, 164880, Note_on_c, 0, 60, 48
3, 165000, Note_on_c, 0, 60, 0
3, 165000, Note_on_c, 0, 63, 49
3, 165120, Note_on_c, 0, 63, 0
3, 165120, Note_on_c, 0, 66, 55
3, 166080, Note_on_c, 0, 66, 0
3, 166080, Note_on_c, 0, 65, 38
3, 166080, Note_on_c, 0, 53, 38
3, 166560, Note_on_c, 0, 53, 0
3, 166560, Note_on_c, 0, 65, 0
3, 166560, Note_on_c, 0, 53, 32
3, 166560, Note_on_c, 0, 63, 32
3, 167040, Note_on_c, 0, 63, 0
3, 167040, Note_on_c, 0, 53, 0
3, 167040, Note_on_c, 0, 46, 40
3, 167160, Note_on_c, 0, 46, 0
3, 167280, Note_on_c, 0, 58, 29
3, 167520, Note_on_c, 0, 58, 0
3, 167520, Note_on_c, 0, 62, 34
3, 167760, Note_on_c, 0, 62, 0
3, 167760, Note_on_c, 0, 58, 29
3, 168000, Note_on_c, 0, 58, 0
3, 168000, Note_on_c, 0, 63, 34
3, 168240, Note_on_c, 0, 63, 0
3, 168240, Note_on_c, 0, 58, 31
3, 168480, Note_on_c, 0, 58, 0
3, 168480, Note_on_c, 0, 62, 40
3, 168720, Note_on_c, 0, 62, 0
3, 168720, Note_on_c, 0, 61, 30
3, 168960, Note_on_c, 0, 61, 0
3, 168960, Note_on_c, 0, 62, 34
3, 169200, Note_on_c, 0, 62, 0
3, 169200, Note_on_c, 0, 58, 30
3, 169440, Note_on_c, 0, 58, 0
3, 169440, Note_on_c, 0, 60, 34
3, 169680, Note_on_c, 0, 60, 0
3, 169680, Note_on_c, 0, 53, 29
3, 169920, Note_on_c, 0, 53, 0
3, 169920, Note_on_c, 0, 58, 40
3, 170160, Note_on_c, 0, 58, 0
3, 170160, Note_on_c, 0, 46, 30
3, 170400, Note_on_c, 0, 46, 0
3, 170400, Note_on_c, 0, 50, 34
3, 170640, Note_on_c, 0, 50, 0
3, 170640, Note_on_c, 0, 46, 30
3, 170880, Note_on_c, 0, 46, 0
3, 170880, Note_on_c, 0, 51, 34
3, 171120, Note_on_c, 0, 51, 0
3, 171120, Note_on_c, 0, 46, 29
3, 171360, Note_on_c, 0, 46, 0
3, 171360, Note_on_c, 0, 50, 40
3, 171600, Note_on_c, 0, 50, 0
3, 171600, Note_on_c, 0, 49, 30
3, 171840, Note_on_c, 0, 49, 0
3, 171840, Note_on_c, 0, 50, 34
3, 172080, Note_on_c, 0, 50, 0
3, 172080, Note_on_c, 0, 46, 30
3, 172320, Note_on_c, 0, 46, 0
3, 172320, Note_on_c, 0, 48, 34
3, 172560, Note_on_c, 0, 48, 0
3, 172560, Note_on_c, 0, 41, 29
3, 172800, Note_on_c, 0, 41, 0
3, 172800, Note_on_c, 0, 46, 40
3, 173040, Note_on_c, 0, 46, 0
3, 173040, Note_on_c, 0, 50, 30
3, 173280, Note_on_c, 0, 50, 0
3, 173280, Note_on_c, 0, 48, 35
3, 173520, Note_on_c, 0, 48, 0
3, 173520, Note_on_c, 0, 41, 31
3, 173760, Note_on_c, 0, 41, 0
3, 173760, Note_on_c, 0, 46, 36
3, 174000, Note_on_c, 0, 46, 0
3, 174000, Note_on_c, 0, 50, 31
3, 174240, Note_on_c, 0, 50, 0
3, 174240, Note_on_c, 0, 48, 44
3, 174480, Note_on_c, 0, 48, 0
3, 174480, Note_on_c, 0, 41, 33
3, 174720, Note_on_c, 0, 41, 0
3, 174720, Note_on_c, 0, 46, 45
3, 174840, Note_on_c, 0, 46, 0
3, 174840, Note_on_c, 0, 50, 37
3, 174960, Note_on_c, 0, 50, 0
3, 174960, Note_on_c, 0, 41, 46
3, 175080, Note_on_c, 0, 41, 0
3, 175080, Note_on_c, 0, 48, 39
3, 175200, Note_on_c, 0, 48, 0
3, 175200, Note_on_c, 0, 46, 47
3, 175320, Note_on_c, 0, 46, 0
3, 175320, Note_on_c, 0, 50, 41
3, 175440, Note_on_c, 0, 50, 0
3, 175440, Note_on_c, 0, 41, 49
3, 175560, Note_on_c, 0, 41, 0
3, 175560, Note_on_c, 0, 48, 43
3, 175680, Note_on_c, 0, 48, 0
3, 175680, Note_on_c, 0, 46, 24
3, 175680, Note_on_c, 0, 50, 30
3, 175800, Note_on_c, 0, 50, 0
3, 175800, Note_on_c, 0, 46, 0
3, 176160, Note_on_c, 0, 34, 24
3, 176160, Note_on_c, 0, 46, 30
3, 176280, Note_on_c, 0, 46, 0
3, 176280, Note_on_c, 0, 34, 0
3, 176280, End_track
4, 0, Start_track
4, 0, Title_t, "Pedale"
4, 0, Program_c, 0, 0
4, 1497, Control_c, 0, 64, 127
4, 1931, Control_c, 0, 64, 0
4, 1980, Control_c, 0, 64, 127
4, 2415, Control_c, 0, 64, 0
4, 3420, Control_c, 0, 64, 127
4, 3859, Control_c, 0, 64, 0
4, 5760, Control_c, 0, 64, 127
4, 6256, Control_c, 0, 64, 0
4, 7257, Control_c, 0, 64, 127
4, 8166, Control_c, 0, 64, 0
4, 8693, Control_c, 0, 64, 127
4, 9614, Control_c, 0, 64, 0
4, 11619, Control_c, 0, 64, 127
4, 12013, Control_c, 0, 64, 0
4, 12127, Control_c, 0, 64, 127
4, 12381, Control_c, 0, 64, 0
4, 13017, Control_c, 0, 64, 127
4, 13451, Control_c, 0, 64, 0
4, 13500, Control_c, 0, 64, 127
4, 13935, Control_c, 0, 64, 0
4, 14940, Control_c, 0, 64, 127
4, 15379, Control_c, 0, 64, 0
4, 17280, Control_c, 0, 64, 127
4, 17776, Control_c, 0, 64, 0
4, 18777, Control_c, 0, 64, 127
4, 19686, Control_c, 0, 64, 0
4, 20213, Control_c, 0, 64, 127
4, 21134, Control_c, 0, 64, 0
4, 23139, Control_c, 0, 64, 127
4, 23533, Control_c, 0, 64, 0
4, 23647, Control_c, 0, 64, 127
4, 23901, Control_c, 0, 64, 0
4, 24075, Control_c, 0, 64, 127
4, 24487, Control_c, 0, 64, 0
4, 24530, Control_c, 0, 64, 127
4, 24982, Control_c, 0, 64, 0
4, 25031, Control_c, 0, 64, 127
4, 25456, Control_c, 0, 64, 0
4, 25515, Control_c, 0, 64, 127
4, 25920, Control_c, 0, 64, 0
4, 26506, Control_c, 0, 64, 127
4, 27136, Control_c, 0, 64, 0
4, 27420, Control_c, 0, 64, 127
4, 27600, Control_c, 0, 64, 0
4, 27890, Control_c, 0, 64, 127
4, 28133, Control_c, 0, 64, 0
4, 28941, Control_c, 0, 64, 127
4, 29297, Control_c, 0, 64, 0
4, 29825, Control_c, 0, 64, 127
4, 30248, Control_c, 0, 64, 0
4, 30289, Control_c, 0, 64, 127
4, 30729, Control_c, 0, 64, 0
4, 30779, Control_c, 0, 64, 127
4, 31219, Control_c, 0, 64, 0
4, 31272, Control_c, 0, 64, 127
4, 31680, Control_c, 0, 64, 0
4, 32266, Control_c, 0, 64, 127
4, 32896, Control_c, 0, 64, 0
4, 33180, Control_c, 0, 64, 127
4, 33487, Control_c, 0, 64, 0
4, 33713, Control_c, 0, 64, 127
4, 34140, Control_c, 0, 64, 0
4, 34701, Control_c, 0, 64, 127
4, 35057, Control_c, 0, 64, 0
4, 36057, Control_c, 0, 64, 127
4, 36491, Control_c, 0, 64, 0
4, 36540, Control_c, 0, 64, 127
4, 36975, Control_c, 0, 64, 0
4, 37980, Control_c, 0, 64, 127
4, 38419, Control_c, 0, 64, 0
4, 40320, Control_c, 0, 64, 127
4, 40816, Control_c, 0, 64, 0
4, 41817, Control_c, 0, 64, 127
4, 42726, Control_c, 0, 64, 0
4, 43253, Control_c, 0, 64, 127
4, 44174, Control_c, 0, 64, 0
4, 46137, Control_c, 0, 64, 127
4, 46571, Control_c, 0, 64, 0
4, 46620, Control_c, 0, 64, 127
4, 47055, Control_c, 0, 64, 0
4, 48060, Control_c, 0, 64, 127
4, 48499, Control_c, 0, 64, 0
4, 49500, Control_c, 0, 64, 127
4, 49939, Control_c, 0, 64, 0
4, 50940, Control_c, 0, 64, 127
4, 51379, Control_c, 0, 64, 0
4, 51936, Control_c, 0, 64, 127
4, 52267, Control_c, 0, 64, 0
4, 52892, Control_c, 0, 64, 127
4, 53220, Control_c, 0, 64, 0
4, 53841, Control_c, 0, 64, 127
4, 54013, Control_c, 0, 64, 0
4, 54064, Control_c, 0, 64, 127
4, 54255, Control_c, 0, 64, 0
4, 54300, Control_c, 0, 64, 127
4, 54487, Control_c, 0, 64, 0
4, 54540, Control_c, 0, 64, 127
4, 54720, Control_c, 0, 64, 0
4, 55755, Control_c, 0, 64, 127
4, 56167, Control_c, 0, 64, 0
4, 56210, Control_c, 0, 64, 127
4, 56662, Control_c, 0, 64, 0
4, 56711, Control_c, 0, 64, 127
4, 57136, Control_c, 0, 64, 0
4, 57195, Control_c, 0, 64, 127
4, 57600, Control_c, 0, 64, 0
4, 58186, Control_c, 0, 64, 127
4, 58816, Control_c, 0, 64, 0
4, 59100, Control_c, 0, 64, 127
4, 59280, Control_c, 0, 64, 0
4, 59570, Control_c, 0, 64, 127
4, 59813, Control_c, 0, 64, 0
4, 60621, Control_c, 0, 64, 127
4, 60977, Control_c, 0, 64, 0
4, 61505, Control_c, 0, 64, 127
4, 61928, Control_c, 0, 64, 0
4, 61969, Control_c, 0, 64, 127
4, 62409, Control_c, 0, 64, 0
4, 62459, Control_c, 0, 64, 127
4, 62899, Control_c, 0, 64, 0
4, 62952, Control_c, 0, 64, 127
4, 63360, Control_c, 0, 64, 0
4, 63946, Control_c, 0, 64, 127
4, 64576, Control_c, 0, 64, 0
4, 64860, Control_c, 0, 64, 127
4, 65167, Control_c, 0, 64, 0
4, 65393, Control_c, 0, 64, 127
4, 65820, Control_c, 0, 64, 0
4, 66381, Control_c, 0, 64, 127
4, 66737, Control_c, 0, 64, 0
4, 67737, Control_c, 0, 64, 127
4, 68171, Control_c, 0, 64, 0
4, 68220, Control_c, 0, 64, 127
4, 68655, Control_c, 0, 64, 0
4, 69660, Control_c, 0, 64, 127
4, 70099, Control_c, 0, 64, 0
4, 72000, Control_c, 0, 64, 127
4, 72496, Control_c, 0, 64, 0
4, 73497, Control_c, 0, 64, 127
4, 74406, Control_c, 0, 64, 0
4, 74933, Control_c, 0, 64, 127
4, 75854, Control_c, 0, 64, 0
4, 77817, Control_c, 0, 64, 127
4, 78251, Control_c, 0, 64, 0
4, 78300, Control_c, 0, 64, 127
4, 78735, Control_c, 0, 64, 0
4, 79740, Control_c, 0, 64, 127
4, 80179, Control_c, 0, 64, 0
4, 81180, Control_c, 0, 64, 127
4, 81619, Control_c, 0, 64, 0
4, 82620, Control_c, 0, 64, 127
4, 83059, Control_c, 0, 64, 0
4, 83616, Control_c, 0, 64, 127
4, 83947, Control_c, 0, 64, 0
4, 84572, Control_c, 0, 64, 127
4, 84900, Control_c, 0, 64, 0
4, 85521, Control_c, 0, 64, 127
4, 85693, Control_c, 0, 64, 0
4, 85744, Control_c, 0, 64, 127
4, 85935, Control_c, 0, 64, 0
4, 85980, Control_c, 0, 64, 127
4, 86167, Control_c, 0, 64, 0
4, 86220, Control_c, 0, 64, 127
4, 86400, Control_c, 0, 64, 0
4, 87840, Control_c, 0, 64, 0
4, 88363, Control_c, 0, 64, 127
4, 88807, Control_c, 0, 64, 0
4, 88906, Control_c, 0, 64, 127
4, 89286, Control_c, 0, 64, 0
4, 89823, Control_c, 0, 64, 127
4, 90255, Control_c, 0, 64, 0
4, 90360, Control_c, 0, 64, 127
4, 90720, Control_c, 0, 64, 0
4, 91315, Control_c, 0, 64, 127
4, 91695, Control_c, 0, 64, 0
4, 91795, Control_c, 0, 64, 127
4, 92172, Control_c, 0, 64, 0
4, 92257, Control_c, 0, 64, 127
4, 93160, Control_c, 0, 64, 0
4, 94155, Control_c, 0, 64, 127
4, 94567, Control_c, 0, 64, 0
4, 94666, Control_c, 0, 64, 127
4, 95046, Control_c, 0, 64, 0
4, 95600, Control_c, 0, 64, 127
4, 96015, Control_c, 0, 64, 0
4, 96120, Control_c, 0, 64, 127
4, 96480, Control_c, 0, 64, 0
4, 97075, Control_c, 0, 64, 127
4, 97211, Control_c, 0, 64, 0
4, 97555, Control_c, 0, 64, 127
4, 97920, Control_c, 0, 64, 0
4, 98040, Control_c, 0, 64, 127
4, 98816, Control_c, 0, 64, 0
4, 99883, Control_c, 0, 64, 127
4, 100327, Control_c, 0, 64, 0
4, 100426, Control_c, 0, 64, 127
4, 100806, Control_c, 0, 64, 0
4, 101343, Control_c, 0, 64, 127
4, 101775, Control_c, 0, 64, 0
4, 101880, Control_c, 0, 64, 127
4, 102240, Control_c, 0, 64, 0
4, 102835, Control_c, 0, 64, 127
4, 103215, Control_c, 0, 64, 0
4, 103315, Control_c, 0, 64, 127
4, 103692, Control_c, 0, 64, 0
4, 103777, Control_c, 0, 64, 127
4, 104680, Control_c, 0, 64, 0
4, 105675, Control_c, 0, 64, 127
4, 106087, Control_c, 0, 64, 0
4, 106186, Control_c, 0, 64, 127
4, 106566, Control_c, 0, 64, 0
4, 107120, Control_c, 0, 64, 127
4, 107535, Control_c, 0, 64, 0
4, 107640, Control_c, 0, 64, 127
4, 108000, Control_c, 0, 64, 0
4, 108595, Control_c, 0, 64, 127
4, 108731, Control_c, 0, 64, 0
4, 109075, Control_c, 0, 64, 127
4, 109440, Control_c, 0, 64, 0
4, 109560, Control_c, 0, 64, 127
4, 110316, Control_c, 0, 64, 0
4, 116200, Control_c, 0, 64, 0
4, 117195, Control_c, 0, 64, 127
4, 117607, Control_c, 0, 64, 0
4, 117706, Control_c, 0, 64, 127
4, 118086, Control_c, 0, 64, 0
4, 118640, Control_c, 0, 64, 127
4, 119055, Control_c, 0, 64, 0
4, 119160, Control_c, 0, 64, 127
4, 119520, Control_c, 0, 64, 0
4, 120115, Control_c, 0, 64, 127
4, 120251, Control_c, 0, 64, 0
4, 120595, Control_c, 0, 64, 127
4, 120737, Control_c, 0, 64, 0
4, 121080, Control_c, 0, 64, 127
4, 121906, Control_c, 0, 64, 0
4, 127720, Control_c, 0, 64, 0
4, 128715, Control_c, 0, 64, 127
4, 129127, Control_c, 0, 64, 0
4, 129226, Control_c, 0, 64, 127
4, 129606, Control_c, 0, 64, 0
4, 130160, Control_c, 0, 64, 127
4, 130575, Control_c, 0, 64, 0
4, 130680, Control_c, 0, 64, 127
4, 131040, Control_c, 0, 64, 0
4, 131635, Control_c, 0, 64, 127
4, 131771, Control_c, 0, 64, 0
4, 132115, Control_c, 0, 64, 127
4, 132257, Control_c, 0, 64, 0
4, 132600, Control_c, 0, 64, 127
4, 133426, Control_c, 0, 64, 0
4, 133977, Control_c, 0, 64, 127
4, 134411, Control_c, 0, 64, 0
4, 134460, Control_c, 0, 64, 127
4, 134895, Control_c, 0, 64, 0
4, 135900, Control_c, 0, 64, 127
4, 136339, Control_c, 0, 64, 0
4, 138240, Control_c, 0, 64, 127
4, 138736, Control_c, 0, 64, 0
4, 139737, Control_c, 0, 64, 127
4, 140646, Control_c, 0, 64, 0
4, 141173, Control_c, 0, 64, 127
4, 142094, Control_c, 0, 64, 0
4, 144099, Control_c, 0, 64, 127
4, 144493, Control_c, 0, 64, 0
4, 144607, Control_c, 0, 64, 127
4, 144861, Control_c, 0, 64, 0
4, 145035, Control_c, 0, 64, 127
4, 145447, Control_c, 0, 64, 0
4, 145490, Control_c, 0, 64, 127
4, 145942, Control_c, 0, 64, 0
4, 145991, Control_c, 0, 64, 127
4, 146416, Control_c, 0, 64, 0
4, 146475, Control_c, 0, 64, 127
4, 146880, Control_c, 0, 64, 0
4, 147466, Control_c, 0, 64, 127
4, 148096, Control_c, 0, 64, 0
4, 148380, Control_c, 0, 64, 127
4, 148560, Control_c, 0, 64, 0
4, 148850, Control_c, 0, 64, 127
4, 149093, Control_c, 0, 64, 0
4, 149901, Control_c, 0, 64, 127
4, 150257, Control_c, 0, 64, 0
4, 150785, Control_c, 0, 64, 127
4, 151208, Control_c, 0, 64, 0
4, 151249, Control_c, 0, 64, 127
4, 151689, Control_c, 0, 64, 0
4, 151739, Control_c, 0, 64, 127
4, 152179, Control_c, 0, 64, 0
4, 152232, Control_c, 0, 64, 127
4, 152640, Control_c, 0, 64, 0
4, 153226, Control_c, 0, 64, 127
4, 153856, Control_c, 0, 64, 0
4, 154140, Control_c, 0, 64, 127
4, 154447, Control_c, 0, 64, 0
4, 154673, Control_c, 0, 64, 127
4, 155100, Control_c, 0, 64, 0
4, 155661, Control_c, 0, 64, 127
4, 156017, Control_c, 0, 64, 0
4, 157017, Control_c, 0, 64, 127
4, 157451, Control_c, 0, 64, 0
4, 157500, Control_c, 0, 64, 127
4, 157935, Control_c, 0, 64, 0
4, 158940, Control_c, 0, 64, 127
4, 159379, Control_c, 0, 64, 0
4, 161280, Control_c, 0, 64, 127
4, 161776, Control_c, 0, 64, 0
4, 162777, Control_c, 0, 64, 127
4, 163686, Control_c, 0, 64, 0
4, 164213, Control_c, 0, 64, 127
4, 165134, Control_c, 0, 64, 0
4, 167097, Control_c, 0, 64, 127
4, 167531, Control_c, 0, 64, 0
4, 167580, Control_c, 0, 64, 127
4, 168015, Control_c, 0, 64, 0
4, 169020, Control_c, 0, 64, 127
4, 169459, Control_c, 0, 64, 0
4, 170460, Control_c, 0, 64, 127
4, 170899, Control_c, 0, 64, 0
4, 171900, Control_c, 0, 64, 127
4, 172339, Control_c, 0, 64, 0
4, 172896, Control_c, 0, 64, 127
4, 173227, Control_c, 0, 64, 0
4, 173852, Control_c, 0, 64, 127
4, 174240, Control_c, 0, 64, 0
4, 174801, Control_c, 0, 64, 127
4, 174973, Control_c, 0, 64, 0
4, 175024, Control_c, 0, 64, 127
4, 175215, Control_c, 0, 64, 0
4, 175260, Control_c, 0, 64, 127
4, 175447, Control_c, 0, 64, 0
4, 175500, Control_c, 0, 64, 127
4, 175680, Control_c, 0, 64, 0
4, 175680, End_track
5, 0, Start_track
5, 0, Title_t, "Beethoven: Grande Sonate Opus 22 - 3. movement"
5, 0, End_track
6, 0, Start_track
6, 0, Title_t, "Copyright © 2009 by Bernd Krueger"
6, 0, End_track
7, 0, Start_track
7, 0, Title_t, "http://www.piano-midi.de/"
7, 0, End_track
8, 0, Start_track
8, 0, Title_t, "Edition: 2012-05-29"
8, 0, End_track
9, 0, Start_track
9, 0, Title_t, "Spur 8"
9, 0, End_track
10, 0, Start_track
10, 0, Title_t, "Spur 9"
10, 0, End_track
11, 0, Start_track
11, 0, Title_t, "Spur 10"
11, 0, End_track
12, 0, Start_track
12, 0, Title_t, "Spur 11"
12, 0, End_track
13, 0, Start_track
13, 0, Title_t, "Spur 12"
13, 0, End_track
14, 0, Start_track
14, 0, Title_t, "Spur 13"
14, 0, End_track
15, 0, Start_track
15, 0, Title_t, "Spur 14"
15, 0, End_track
16, 0, Start_track
16, 0, Title_t, "Spur 15"
16, 0, End_track
17, 0, Start_track
17, 0, Title_t, "Spur 16"
17, 0, End_track
0, 0, End_of_file
