0, 0, Header, 1, 17, 480
1, 0, Start_track
1, 0, Title_t, "Sonate Op. 10 No. 1 2. Satz"
1, 0, Copyright_t, "Copyright © 2008 by Bernd Krueger"
1, 0, Text_t, "Ludwig van Beethoven"
1, 0, Text_t, "Adagio molto"
1, 0, Text_t, "Erstellt: 6.12.2008\012"
1, 0, Text_t, "Update: 6.5.2012\012"
1, 0, Text_t, "Dauer:  6:32 Minuten\012"
1, 0, Time_signature, 4, 2, 24, 8
1, 0, Key_signature, -4, "major"
1, 0, Tempo, 875912
1, 720, Tempo, 944882
1, 960, Tempo, 869565
1, 1680, Tempo, 909091
1, 1920, Tempo, 888889
1, 2880, Tempo, 888889
1, 3600, Tempo, 915891
1, 3840, Tempo, 869565
1, 4560, Tempo, 937500
1, 4800, Tempo, 863309
1, 5580, Tempo, 909091
1, 5760, Tempo, 857143
1, 8460, Tempo, 902256
1, 8640, Tempo, 851064
1, 9360, Tempo, 909091
1, 9600, Tempo, 851064
1, 10380, Tempo, 909091
1, 10560, Tempo, 736196
1, 10800, Tempo, 851064
1, 11520, Tempo, 875912
1, 11760, Tempo, 875912
1, 12480, Tempo, 869565
1, 12960, Tempo, 909091
1, 13440, Tempo, 875912
1, 14400, Tempo, 1212121
1, 14520, Tempo, 967742
1, 14880, Tempo, 909091
1, 15120, Tempo, 1000000
1, 15240, Tempo, 1290323
1, 15360, Tempo, 875912
1, 16080, Tempo, 944882
1, 16320, Tempo, 869565
1, 17040, Tempo, 909091
1, 17280, Tempo, 888889
1, 17760, Tempo, 869565
1, 18240, Tempo, 851064
1, 18600, Tempo, 902256
1, 18720, Tempo, 851064
1, 18960, Tempo, 915891
1, 19200, Tempo, 869565
1, 19920, Tempo, 937500
1, 20160, Tempo, 863309
1, 20940, Tempo, 909091
1, 21120, Tempo, 857143
1, 21480, Tempo, 839161
1, 22560, Tempo, 851064
1, 23040, Tempo, 857143
1, 23820, Tempo, 902256
1, 24000, Tempo, 851064
1, 24720, Tempo, 909091
1, 24960, Tempo, 851064
1, 25740, Tempo, 909091
1, 25920, Tempo, 839161
1, 26640, Tempo, 909091
1, 26880, Tempo, 839161
1, 27600, Tempo, 869565
1, 27840, Tempo, 839161
1, 28560, Tempo, 1008403
1, 28800, Tempo, 952381
1, 29280, Tempo, 930233
1, 29640, Tempo, 1142857
1, 29760, Tempo, 944882
1, 30720, Tempo, 839161
1, 31920, Tempo, 916031
1, 32160, Tempo, 833333
1, 32640, Tempo, 882353
1, 34560, Tempo, 845070
1, 35760, Tempo, 960000
1, 36000, Tempo, 851064
1, 38400, Tempo, 857143
1, 38880, Tempo, 827586
1, 39360, Tempo, 857143
1, 40140, Tempo, 960000
1, 40320, Tempo, 857143
1, 42240, Tempo, 839161
1, 43440, Tempo, 857143
1, 43680, Tempo, 845070
1, 43920, Tempo, 882353
1, 44160, Tempo, 839161
1, 45600, Tempo, 833333
1, 45900, Tempo, 930233
1, 46080, Tempo, 863309
1, 46560, Tempo, 833333
1, 47760, Tempo, 895522
1, 48000, Tempo, 857143
1, 48960, Tempo, 839161
1, 49200, Tempo, 857143
1, 49440, Tempo, 833333
1, 49800, Tempo, 930233
1, 49920, Tempo, 857143
1, 51837, Tempo, 1016949
1, 51875, Tempo, 1008403
1, 51894, Tempo, 1000000
1, 51914, Tempo, 991736
1, 51952, Tempo, 983607
1, 51971, Tempo, 975610
1, 51990, Tempo, 967742
1, 52010, Tempo, 960000
1, 52048, Tempo, 952381
1, 52067, Tempo, 944882
1, 52086, Tempo, 937500
1, 52106, Tempo, 930233
1, 52144, Tempo, 923077
1, 52163, Tempo, 916031
1, 52182, Tempo, 909091
1, 52202, Tempo, 902256
1, 52240, Tempo, 895522
1, 52259, Tempo, 888889
1, 52278, Tempo, 882353
1, 52298, Tempo, 875912
1, 52336, Tempo, 869565
1, 52355, Tempo, 863309
1, 52374, Tempo, 857143
1, 52394, Tempo, 851064
1, 52440, Tempo, 1016949
1, 52500, Tempo, 1600000
1, 52560, Tempo, 845070
1, 53277, Tempo, 845070
1, 53507, Tempo, 952381
1, 53760, Tempo, 869565
1, 54600, Tempo, 983607
1, 54720, Tempo, 863309
1, 55680, Tempo, 1016949
1, 55715, Tempo, 1008403
1, 55734, Tempo, 1000000
1, 55754, Tempo, 991736
1, 55792, Tempo, 983607
1, 55811, Tempo, 975610
1, 55830, Tempo, 967742
1, 55850, Tempo, 960000
1, 55888, Tempo, 952381
1, 55907, Tempo, 944882
1, 55926, Tempo, 937500
1, 55946, Tempo, 930233
1, 55984, Tempo, 923077
1, 56003, Tempo, 916031
1, 56022, Tempo, 909091
1, 56042, Tempo, 902256
1, 56080, Tempo, 895522
1, 56099, Tempo, 888889
1, 56118, Tempo, 882353
1, 56138, Tempo, 875912
1, 56176, Tempo, 869565
1, 56195, Tempo, 863309
1, 56214, Tempo, 857143
1, 56234, Tempo, 851064
1, 56280, Tempo, 1000000
1, 56340, Tempo, 1348315
1, 56400, Tempo, 845070
1, 57117, Tempo, 845070
1, 57347, Tempo, 952381
1, 57600, Tempo, 839161
1, 58080, Tempo, 875912
1, 58560, Tempo, 839161
1, 59040, Tempo, 882353
1, 59520, Tempo, 827586
1, 60000, Tempo, 882353
1, 60480, Tempo, 827586
1, 60960, Tempo, 882353
1, 61440, Tempo, 827586
1, 61920, Tempo, 863309
1, 62400, Tempo, 839161
1, 62880, Tempo, 944882
1, 63360, Tempo, 851064
1, 64080, Tempo, 944882
1, 64320, Tempo, 839161
1, 64800, Tempo, 857143
1, 65280, Tempo, 839161
1, 65520, Tempo, 882353
1, 65760, Tempo, 839161
1, 66000, Tempo, 909091
1, 66240, Tempo, 833333
1, 66960, Tempo, 937500
1, 67200, Tempo, 888889
1, 67440, Tempo, 857143
1, 67840, Tempo, 810811
1, 68000, Tempo, 902256
1, 68160, Tempo, 857143
1, 68800, Tempo, 810811
1, 68960, Tempo, 902256
1, 69120, Tempo, 857143
1, 69760, Tempo, 810811
1, 69920, Tempo, 902256
1, 70080, Tempo, 857143
1, 70720, Tempo, 810811
1, 70880, Tempo, 902256
1, 71040, Tempo, 857143
1, 71680, Tempo, 810811
1, 71840, Tempo, 902256
1, 72000, Tempo, 857143
1, 72640, Tempo, 810811
1, 72800, Tempo, 902256
1, 72960, Tempo, 857143
1, 73760, Tempo, 937500
1, 73920, Tempo, 827586
1, 74080, Tempo, 888889
1, 74240, Tempo, 827586
1, 74400, Tempo, 882353
1, 74560, Tempo, 833333
1, 74720, Tempo, 937500
1, 75040, Tempo, 857143
1, 75840, Tempo, 902256
1, 76000, Tempo, 857143
1, 76640, Tempo, 937500
1, 76800, Tempo, 827586
1, 77520, Tempo, 923077
1, 77760, Tempo, 816327
1, 78880, Tempo, 857143
1, 79680, Tempo, 902256
1, 79840, Tempo, 857143
1, 80480, Tempo, 937500
1, 80640, Tempo, 827586
1, 81360, Tempo, 923077
1, 81600, Tempo, 816327
1, 86400, Tempo, 875912
1, 87120, Tempo, 944882
1, 87360, Tempo, 869565
1, 88080, Tempo, 909091
1, 88320, Tempo, 888889
1, 89280, Tempo, 888889
1, 90000, Tempo, 915891
1, 90240, Tempo, 869565
1, 90960, Tempo, 937500
1, 91200, Tempo, 863309
1, 91980, Tempo, 909091
1, 92160, Tempo, 857143
1, 93120, Tempo, 833333
1, 93840, Tempo, 875912
1, 94080, Tempo, 851064
1, 94860, Tempo, 902256
1, 95040, Tempo, 851064
1, 95760, Tempo, 909091
1, 96000, Tempo, 851064
1, 96780, Tempo, 909091
1, 96960, Tempo, 736196
1, 97200, Tempo, 851064
1, 97920, Tempo, 875912
1, 98160, Tempo, 851064
1, 98280, Tempo, 857143
1, 98880, Tempo, 869565
1, 99360, Tempo, 909091
1, 99840, Tempo, 875912
1, 100800, Tempo, 1212121
1, 100920, Tempo, 967742
1, 101280, Tempo, 930233
1, 101520, Tempo, 1052632
1, 101640, Tempo, 1395349
1, 101760, Tempo, 875912
1, 102480, Tempo, 944882
1, 102720, Tempo, 869565
1, 103440, Tempo, 909091
1, 103680, Tempo, 888889
1, 103920, Tempo, 863309
1, 104640, Tempo, 857143
1, 105360, Tempo, 915891
1, 105600, Tempo, 869565
1, 106320, Tempo, 937500
1, 106560, Tempo, 863309
1, 107340, Tempo, 909091
1, 107520, Tempo, 857143
1, 107760, Tempo, 833333
1, 109200, Tempo, 869565
1, 109440, Tempo, 857143
1, 110220, Tempo, 902256
1, 110400, Tempo, 851064
1, 111120, Tempo, 909091
1, 111360, Tempo, 851064
1, 112140, Tempo, 909091
1, 112320, Tempo, 839161
1, 113040, Tempo, 909091
1, 113280, Tempo, 839161
1, 114000, Tempo, 869565
1, 114240, Tempo, 839161
1, 114960, Tempo, 1008403
1, 115200, Tempo, 952381
1, 115680, Tempo, 930233
1, 116040, Tempo, 1142857
1, 116160, Tempo, 944882
1, 117120, Tempo, 839161
1, 118320, Tempo, 916031
1, 118560, Tempo, 833333
1, 119040, Tempo, 882353
1, 120960, Tempo, 845070
1, 122160, Tempo, 960000
1, 122400, Tempo, 851064
1, 124800, Tempo, 857143
1, 125280, Tempo, 827586
1, 125760, Tempo, 857143
1, 126480, Tempo, 821918
1, 126720, Tempo, 857143
1, 128400, Tempo, 833333
1, 128640, Tempo, 857143
1, 130320, Tempo, 833333
1, 130560, Tempo, 857143
1, 131760, Tempo, 839161
1, 134160, Tempo, 895522
1, 134400, Tempo, 851064
1, 135840, Tempo, 833333
1, 136140, Tempo, 930233
1, 136320, Tempo, 863309
1, 139680, Tempo, 833333
1, 140040, Tempo, 930233
1, 140160, Tempo, 857143
1, 141120, Tempo, 845070
1, 141840, Tempo, 882353
1, 142077, Tempo, 1016949
1, 142115, Tempo, 1008403
1, 142134, Tempo, 1000000
1, 142154, Tempo, 991736
1, 142192, Tempo, 983607
1, 142211, Tempo, 975610
1, 142230, Tempo, 967742
1, 142250, Tempo, 960000
1, 142288, Tempo, 952381
1, 142307, Tempo, 944882
1, 142326, Tempo, 937500
1, 142346, Tempo, 930233
1, 142384, Tempo, 923077
1, 142403, Tempo, 916031
1, 142422, Tempo, 909091
1, 142442, Tempo, 902256
1, 142480, Tempo, 895522
1, 142499, Tempo, 888889
1, 142518, Tempo, 882353
1, 142538, Tempo, 875912
1, 142576, Tempo, 869565
1, 142595, Tempo, 863309
1, 142614, Tempo, 857143
1, 142634, Tempo, 851064
1, 142680, Tempo, 960000
1, 142740, Tempo, 1481481
1, 142800, Tempo, 851064
1, 143517, Tempo, 845070
1, 143747, Tempo, 952381
1, 144000, Tempo, 869565
1, 144840, Tempo, 983607
1, 144960, Tempo, 863309
1, 145920, Tempo, 1016949
1, 145955, Tempo, 1008403
1, 145974, Tempo, 1000000
1, 145994, Tempo, 991736
1, 146032, Tempo, 983607
1, 146051, Tempo, 975610
1, 146070, Tempo, 967742
1, 146090, Tempo, 960000
1, 146128, Tempo, 952381
1, 146147, Tempo, 944882
1, 146166, Tempo, 937500
1, 146186, Tempo, 930233
1, 146224, Tempo, 923077
1, 146243, Tempo, 916031
1, 146262, Tempo, 909091
1, 146282, Tempo, 902256
1, 146340, Tempo, 1250000
1, 146435, Tempo, 863309
1, 146454, Tempo, 857143
1, 146460, Tempo, 845070
1, 146474, Tempo, 851064
1, 146640, Tempo, 845070
1, 147357, Tempo, 845070
1, 147360, Tempo, 875912
1, 147587, Tempo, 952381
1, 147600, Tempo, 1188119
1, 147840, Tempo, 839161
1, 148320, Tempo, 875912
1, 148800, Tempo, 839161
1, 149280, Tempo, 882353
1, 149760, Tempo, 827586
1, 150240, Tempo, 882353
1, 150720, Tempo, 827586
1, 151200, Tempo, 882353
1, 151680, Tempo, 816327
1, 152160, Tempo, 863309
1, 152640, Tempo, 839161
1, 153120, Tempo, 944882
1, 153600, Tempo, 851064
1, 154320, Tempo, 944882
1, 154560, Tempo, 839161
1, 155040, Tempo, 857143
1, 155520, Tempo, 839161
1, 155760, Tempo, 882353
1, 156000, Tempo, 839161
1, 156240, Tempo, 909091
1, 156480, Tempo, 833333
1, 157200, Tempo, 937500
1, 157440, Tempo, 902256
1, 157680, Tempo, 857143
1, 158080, Tempo, 810811
1, 158240, Tempo, 902256
1, 158400, Tempo, 857143
1, 159040, Tempo, 810811
1, 159200, Tempo, 902256
1, 159360, Tempo, 857143
1, 160000, Tempo, 810811
1, 160160, Tempo, 902256
1, 160320, Tempo, 857143
1, 160960, Tempo, 810811
1, 161120, Tempo, 902256
1, 161280, Tempo, 857143
1, 161520, Tempo, 845070
1, 161920, Tempo, 810811
1, 162080, Tempo, 902256
1, 162240, Tempo, 857143
1, 162480, Tempo, 845070
1, 162880, Tempo, 810811
1, 163040, Tempo, 902256
1, 163200, Tempo, 857143
1, 163440, Tempo, 845070
1, 164000, Tempo, 937500
1, 164160, Tempo, 827586
1, 164320, Tempo, 888889
1, 164480, Tempo, 827586
1, 164640, Tempo, 882353
1, 164800, Tempo, 833333
1, 164960, Tempo, 937500
1, 165280, Tempo, 857143
1, 165480, Tempo, 839161
1, 166080, Tempo, 902256
1, 166200, Tempo, 839161
1, 166240, Tempo, 857143
1, 166320, Tempo, 845070
1, 166880, Tempo, 937500
1, 167040, Tempo, 827586
1, 167760, Tempo, 923077
1, 168000, Tempo, 816327
1, 169120, Tempo, 857143
1, 169440, Tempo, 839161
1, 169920, Tempo, 902256
1, 170080, Tempo, 857143
1, 170720, Tempo, 937500
1, 170880, Tempo, 827586
1, 171600, Tempo, 923077
1, 171840, Tempo, 816327
1, 172680, Tempo, 1008403
1, 172800, Tempo, 875912
1, 173040, Tempo, 851064
1, 173520, Tempo, 944882
1, 173760, Tempo, 869565
1, 174480, Tempo, 909091
1, 174720, Tempo, 888889
1, 175200, Tempo, 857143
1, 175680, Tempo, 888889
1, 176160, Tempo, 857143
1, 176400, Tempo, 915891
1, 176640, Tempo, 869565
1, 176880, Tempo, 857143
1, 177360, Tempo, 937500
1, 177600, Tempo, 863309
1, 177840, Tempo, 851064
1, 178380, Tempo, 909091
1, 178560, Tempo, 857143
1, 178800, Tempo, 833333
1, 179520, Tempo, 816327
1, 180000, Tempo, 827586
1, 180240, Tempo, 895522
1, 180480, Tempo, 839161
1, 180960, Tempo, 827586
1, 181440, Tempo, 833333
1, 182160, Tempo, 882353
1, 182400, Tempo, 845070
1, 182880, Tempo, 833333
1, 183120, Tempo, 833333
1, 183360, Tempo, 816327
1, 184080, Tempo, 875912
1, 184320, Tempo, 845070
1, 184800, Tempo, 839161
1, 185280, Tempo, 827586
1, 186000, Tempo, 909091
1, 186240, Tempo, 827586
1, 186720, Tempo, 816327
1, 187200, Tempo, 821918
1, 187440, Tempo, 839161
1, 187680, Tempo, 863309
1, 187920, Tempo, 960000
1, 188160, Tempo, 863309
1, 188400, Tempo, 845070
1, 188880, Tempo, 895522
1, 189120, Tempo, 863309
1, 189360, Tempo, 845070
1, 189840, Tempo, 895522
1, 190080, Tempo, 857143
1, 190560, Tempo, 833333
1, 191040, Tempo, 821918
1, 191760, Tempo, 875912
1, 192000, Tempo, 805369
1, 192240, Tempo, 839161
1, 192480, Tempo, 794702
1, 192720, Tempo, 839161
1, 192960, Tempo, 805369
1, 193200, Tempo, 863309
1, 193440, Tempo, 827586
1, 193680, Tempo, 909091
1, 193920, Tempo, 827586
1, 194160, Tempo, 839161
1, 194640, Tempo, 821918
1, 195840, Tempo, 816327
1, 196080, Tempo, 839161
1, 196800, Tempo, 816327
1, 197520, Tempo, 895522
1, 197760, Tempo, 821918
1, 198000, Tempo, 851064
1, 198720, Tempo, 827586
1, 199680, Tempo, 810811
1, 199920, Tempo, 833333
1, 201600, Tempo, 827586
1, 201840, Tempo, 839161
1, 202320, Tempo, 821918
1, 203520, Tempo, 816327
1, 203760, Tempo, 839161
1, 204480, Tempo, 827586
1, 205200, Tempo, 895522
1, 205440, Tempo, 821918
1, 205680, Tempo, 851064
1, 206400, Tempo, 816327
1, 206640, Tempo, 839161
1, 206880, Tempo, 816327
1, 207120, Tempo, 857143
1, 207360, Tempo, 810811
1, 207600, Tempo, 833333
1, 207840, Tempo, 810811
1, 208080, Tempo, 869565
1, 208320, Tempo, 827586
1, 208560, Tempo, 895522
1, 208800, Tempo, 839161
1, 209040, Tempo, 895522
1, 209280, Tempo, 827586
1, 209520, Tempo, 869565
1, 209760, Tempo, 821918
1, 210000, Tempo, 875912
1, 210240, Tempo, 827586
1, 210480, Tempo, 882353
1, 210720, Tempo, 845070
1, 210960, Tempo, 952381
1, 211200, Tempo, 895522
1, 212160, Tempo, 937500
1, 213120, Tempo, 1263158
1, 213120, End_track
2, 0, Start_track
2, 0, Title_t, "Piano right"
2, 0, Program_c, 0, 0
2, 0, Note_on_c, 0, 60, 42
2, 0, Note_on_c, 0, 68, 50
2, 720, Note_on_c, 0, 68, 0
2, 720, Note_on_c, 0, 70, 50
2, 780, Note_on_c, 0, 70, 0
2, 780, Note_on_c, 0, 68, 46
2, 840, Note_on_c, 0, 68, 0
2, 840, Note_on_c, 0, 67, 46
2, 900, Note_on_c, 0, 67, 0
2, 900, Note_on_c, 0, 68, 46
2, 960, Note_on_c, 0, 68, 0
2, 960, Note_on_c, 0, 60, 0
2, 960, Note_on_c, 0, 72, 54
2, 960, Note_on_c, 0, 61, 45
2, 1680, Note_on_c, 0, 72, 0
2, 1680, Note_on_c, 0, 70, 45
2, 1920, Note_on_c, 0, 70, 0
2, 1920, Note_on_c, 0, 61, 0
2, 1920, Note_on_c, 0, 60, 42
2, 1920, Note_on_c, 0, 68, 50
2, 3360, Note_on_c, 0, 68, 0
2, 3360, Note_on_c, 0, 60, 0
2, 3360, Note_on_c, 0, 69, 50
2, 3840, Note_on_c, 0, 69, 0
2, 3840, Note_on_c, 0, 63, 42
2, 3840, Note_on_c, 0, 70, 50
2, 4320, Note_on_c, 0, 70, 0
2, 4560, Note_on_c, 0, 72, 50
2, 4620, Note_on_c, 0, 72, 0
2, 4620, Note_on_c, 0, 70, 46
2, 4680, Note_on_c, 0, 70, 0
2, 4680, Note_on_c, 0, 69, 46
2, 4740, Note_on_c, 0, 69, 0
2, 4740, Note_on_c, 0, 70, 46
2, 4800, Note_on_c, 0, 70, 0
2, 4800, Note_on_c, 0, 63, 0
2, 4800, Note_on_c, 0, 73, 54
2, 4800, Note_on_c, 0, 63, 45
2, 5280, Note_on_c, 0, 63, 0
2, 5280, Note_on_c, 0, 68, 42
2, 5520, Note_on_c, 0, 73, 0
2, 5520, Note_on_c, 0, 72, 45
2, 5760, Note_on_c, 0, 72, 0
2, 5760, Note_on_c, 0, 68, 0
2, 5760, Note_on_c, 0, 67, 42
2, 5760, Note_on_c, 0, 70, 50
2, 7200, Note_on_c, 0, 70, 0
2, 7200, Note_on_c, 0, 67, 0
2, 7200, Note_on_c, 0, 71, 50
2, 7680, Note_on_c, 0, 71, 0
2, 7680, Note_on_c, 0, 72, 63
2, 7680, Note_on_c, 0, 63, 63
2, 8520, Note_on_c, 0, 72, 0
2, 8520, Note_on_c, 0, 68, 52
2, 8640, Note_on_c, 0, 68, 0
2, 8640, Note_on_c, 0, 63, 0
2, 8640, Note_on_c, 0, 75, 64
2, 8640, Note_on_c, 0, 68, 64
2, 8640, Note_on_c, 0, 63, 55
2, 9480, Note_on_c, 0, 75, 0
2, 9480, Note_on_c, 0, 72, 60
2, 9600, Note_on_c, 0, 72, 0
2, 9600, Note_on_c, 0, 63, 0
2, 9600, Note_on_c, 0, 68, 0
2, 9600, Note_on_c, 0, 65, 55
2, 9600, Note_on_c, 0, 68, 64
2, 9600, Note_on_c, 0, 77, 70
2, 10440, Note_on_c, 0, 77, 0
2, 10440, Note_on_c, 0, 73, 67
2, 10560, Note_on_c, 0, 73, 0
2, 10560, Note_on_c, 0, 68, 0
2, 10560, Note_on_c, 0, 65, 0
2, 10680, Note_on_c, 0, 68, 70
2, 10710, Note_on_c, 0, 73, 75
2, 10740, Note_on_c, 0, 77, 78
2, 10770, Note_on_c, 0, 80, 82
2, 11520, Note_on_c, 0, 77, 0
2, 11760, Note_on_c, 0, 80, 0
2, 11760, Note_on_c, 0, 79, 63
2, 11980, Note_on_c, 0, 79, 0
2, 12000, Note_on_c, 0, 77, 59
2, 12220, Note_on_c, 0, 77, 0
2, 12240, Note_on_c, 0, 75, 56
2, 12460, Note_on_c, 0, 75, 0
2, 12480, Note_on_c, 0, 73, 0
2, 12480, Note_on_c, 0, 68, 0
2, 12480, Note_on_c, 0, 70, 51
2, 12480, Note_on_c, 0, 73, 60
2, 12960, Note_on_c, 0, 73, 0
2, 12960, Note_on_c, 0, 70, 0
2, 12960, Note_on_c, 0, 68, 44
2, 12960, Note_on_c, 0, 72, 52
2, 13440, Note_on_c, 0, 72, 0
2, 13440, Note_on_c, 0, 68, 0
2, 13440, Note_on_c, 0, 63, 46
2, 13440, Note_on_c, 0, 75, 55
2, 13920, Note_on_c, 0, 63, 0
2, 13920, Note_on_c, 0, 63, 39
2, 14160, Note_on_c, 0, 75, 0
2, 14160, Note_on_c, 0, 72, 51
2, 14400, Note_on_c, 0, 72, 0
2, 14400, Note_on_c, 0, 63, 0
2, 14400, Note_on_c, 0, 63, 45
2, 14400, Note_on_c, 0, 70, 53
2, 14400, Note_on_c, 0, 70, 51
2, 14430, Note_on_c, 0, 70, 0
2, 14430, Note_on_c, 0, 72, 46
2, 14460, Note_on_c, 0, 72, 0
2, 14460, Note_on_c, 0, 70, 51
2, 14490, Note_on_c, 0, 70, 0
2, 14490, Note_on_c, 0, 72, 45
2, 14520, Note_on_c, 0, 72, 0
2, 14520, Note_on_c, 0, 70, 51
2, 14560, Note_on_c, 0, 70, 0
2, 14560, Note_on_c, 0, 69, 46
2, 14600, Note_on_c, 0, 69, 0
2, 14600, Note_on_c, 0, 70, 46
2, 14640, Note_on_c, 0, 70, 0
2, 14640, Note_on_c, 0, 73, 57
2, 14760, Note_on_c, 0, 73, 0
2, 14760, Note_on_c, 0, 72, 48
2, 14880, Note_on_c, 0, 72, 0
2, 14880, Note_on_c, 0, 70, 0
2, 14880, Note_on_c, 0, 63, 0
2, 14880, Note_on_c, 0, 75, 55
2, 15000, Note_on_c, 0, 75, 0
2, 15000, Note_on_c, 0, 73, 47
2, 15120, Note_on_c, 0, 73, 0
2, 15120, Note_on_c, 0, 72, 51
2, 15200, Note_on_c, 0, 72, 0
2, 15200, Note_on_c, 0, 73, 47
2, 15280, Note_on_c, 0, 73, 0
2, 15280, Note_on_c, 0, 70, 47
2, 15360, Note_on_c, 0, 70, 0
2, 15360, Note_on_c, 0, 60, 34
2, 15360, Note_on_c, 0, 68, 50
2, 16080, Note_on_c, 0, 68, 0
2, 16080, Note_on_c, 0, 70, 50
2, 16140, Note_on_c, 0, 70, 0
2, 16140, Note_on_c, 0, 68, 46
2, 16200, Note_on_c, 0, 68, 0
2, 16200, Note_on_c, 0, 67, 46
2, 16260, Note_on_c, 0, 67, 0
2, 16260, Note_on_c, 0, 68, 46
2, 16320, Note_on_c, 0, 68, 0
2, 16320, Note_on_c, 0, 60, 0
2, 16320, Note_on_c, 0, 72, 54
2, 16320, Note_on_c, 0, 61, 45
2, 17040, Note_on_c, 0, 72, 0
2, 17040, Note_on_c, 0, 70, 45
2, 17280, Note_on_c, 0, 70, 0
2, 17280, Note_on_c, 0, 61, 0
2, 17280, Note_on_c, 0, 60, 42
2, 17280, Note_on_c, 0, 68, 50
2, 18240, Note_on_c, 0, 68, 0
2, 18240, Note_on_c, 0, 60, 0
2, 19200, Note_on_c, 0, 70, 59
2, 19680, Note_on_c, 0, 70, 0
2, 19920, Note_on_c, 0, 72, 54
2, 19980, Note_on_c, 0, 72, 0
2, 19980, Note_on_c, 0, 70, 46
2, 20040, Note_on_c, 0, 70, 0
2, 20040, Note_on_c, 0, 69, 49
2, 20100, Note_on_c, 0, 69, 0
2, 20100, Note_on_c, 0, 70, 50
2, 20160, Note_on_c, 0, 70, 0
2, 20160, Note_on_c, 0, 73, 62
2, 20160, Note_on_c, 0, 68, 62
2, 20880, Note_on_c, 0, 73, 0
2, 20880, Note_on_c, 0, 72, 50
2, 21120, Note_on_c, 0, 72, 0
2, 21120, Note_on_c, 0, 68, 0
2, 21120, Note_on_c, 0, 67, 57
2, 21120, Note_on_c, 0, 70, 57
2, 22080, Note_on_c, 0, 70, 0
2, 22080, Note_on_c, 0, 67, 0
2, 23010, Note_on_c, 0, 63, 36
2, 23040, Note_on_c, 0, 72, 63
2, 23100, Note_on_c, 0, 63, 0
2, 23880, Note_on_c, 0, 72, 0
2, 23880, Note_on_c, 0, 68, 52
2, 23970, Note_on_c, 0, 63, 43
2, 24000, Note_on_c, 0, 68, 0
2, 24000, Note_on_c, 0, 75, 64
2, 24090, Note_on_c, 0, 63, 0
2, 24840, Note_on_c, 0, 75, 0
2, 24840, Note_on_c, 0, 72, 60
2, 24900, Note_on_c, 0, 72, 0
2, 24930, Note_on_c, 0, 65, 44
2, 24960, Note_on_c, 0, 77, 73
2, 25020, Note_on_c, 0, 65, 0
2, 26400, Note_on_c, 0, 77, 0
2, 26400, Note_on_c, 0, 69, 59
2, 26400, Note_on_c, 0, 75, 70
2, 26640, Note_on_c, 0, 75, 0
2, 26640, Note_on_c, 0, 69, 0
2, 26640, Note_on_c, 0, 70, 52
2, 26640, Note_on_c, 0, 73, 62
2, 26880, Note_on_c, 0, 73, 0
2, 26880, Note_on_c, 0, 70, 0
2, 26880, Note_on_c, 0, 68, 59
2, 26880, Note_on_c, 0, 72, 70
2, 27360, Note_on_c, 0, 72, 0
2, 27360, Note_on_c, 0, 75, 63
2, 27840, Note_on_c, 0, 75, 0
2, 27840, Note_on_c, 0, 68, 0
2, 27840, Note_on_c, 0, 67, 59
2, 27840, Note_on_c, 0, 73, 70
2, 28320, Note_on_c, 0, 73, 0
2, 28320, Note_on_c, 0, 70, 60
2, 28800, Note_on_c, 0, 70, 0
2, 28800, Note_on_c, 0, 67, 0
2, 28800, Note_on_c, 0, 61, 59
2, 28800, Note_on_c, 0, 70, 70
2, 29280, Note_on_c, 0, 61, 0
2, 29280, Note_on_c, 0, 60, 34
2, 29400, Note_on_c, 0, 60, 0
2, 29400, Note_on_c, 0, 61, 32
2, 29520, Note_on_c, 0, 61, 0
2, 29520, Note_on_c, 0, 63, 36
2, 29640, Note_on_c, 0, 63, 0
2, 29640, Note_on_c, 0, 61, 31
2, 29760, Note_on_c, 0, 61, 0
2, 29760, Note_on_c, 0, 70, 0
2, 29760, Note_on_c, 0, 60, 37
2, 29760, Note_on_c, 0, 68, 45
2, 30240, Note_on_c, 0, 68, 0
2, 30240, Note_on_c, 0, 60, 0
2, 30690, Note_on_c, 0, 77, 78
2, 30720, Note_on_c, 0, 89, 91
2, 30780, Note_on_c, 0, 77, 0
2, 31440, Note_on_c, 0, 89, 0
2, 31440, Note_on_c, 0, 87, 65
2, 31474, Note_on_c, 0, 84, 63
2, 31475, Note_on_c, 0, 87, 0
2, 31509, Note_on_c, 0, 84, 0
2, 31509, Note_on_c, 0, 81, 62
2, 31543, Note_on_c, 0, 77, 61
2, 31543, Note_on_c, 0, 81, 0
2, 31577, Note_on_c, 0, 77, 0
2, 31577, Note_on_c, 0, 75, 59
2, 31611, Note_on_c, 0, 72, 57
2, 31612, Note_on_c, 0, 75, 0
2, 31645, Note_on_c, 0, 69, 56
2, 31646, Note_on_c, 0, 72, 0
2, 31680, Note_on_c, 0, 69, 0
2, 31680, Note_on_c, 0, 65, 78
2, 31920, Note_on_c, 0, 65, 0
2, 32520, Note_on_c, 0, 60, 45
2, 32520, Note_on_c, 0, 63, 54
2, 32630, Note_on_c, 0, 63, 0
2, 32630, Note_on_c, 0, 60, 0
2, 32640, Note_on_c, 0, 60, 48
2, 32640, Note_on_c, 0, 63, 57
2, 33600, Note_on_c, 0, 63, 0
2, 33600, Note_on_c, 0, 60, 0
2, 33600, Note_on_c, 0, 58, 38
2, 33600, Note_on_c, 0, 61, 45
2, 34080, Note_on_c, 0, 61, 0
2, 34080, Note_on_c, 0, 58, 0
2, 34530, Note_on_c, 0, 75, 78
2, 34560, Note_on_c, 0, 87, 91
2, 34620, Note_on_c, 0, 75, 0
2, 35280, Note_on_c, 0, 87, 0
2, 35280, Note_on_c, 0, 85, 65
2, 35314, Note_on_c, 0, 82, 63
2, 35315, Note_on_c, 0, 85, 0
2, 35349, Note_on_c, 0, 82, 0
2, 35349, Note_on_c, 0, 79, 62
2, 35383, Note_on_c, 0, 75, 61
2, 35383, Note_on_c, 0, 79, 0
2, 35417, Note_on_c, 0, 75, 0
2, 35417, Note_on_c, 0, 73, 59
2, 35451, Note_on_c, 0, 70, 57
2, 35452, Note_on_c, 0, 73, 0
2, 35485, Note_on_c, 0, 67, 56
2, 35486, Note_on_c, 0, 70, 0
2, 35520, Note_on_c, 0, 67, 0
2, 35520, Note_on_c, 0, 63, 78
2, 35760, Note_on_c, 0, 63, 0
2, 36360, Note_on_c, 0, 58, 45
2, 36360, Note_on_c, 0, 61, 54
2, 36470, Note_on_c, 0, 61, 0
2, 36470, Note_on_c, 0, 58, 0
2, 36480, Note_on_c, 0, 58, 48
2, 36480, Note_on_c, 0, 61, 57
2, 37440, Note_on_c, 0, 61, 0
2, 37440, Note_on_c, 0, 58, 0
2, 37440, Note_on_c, 0, 56, 38
2, 37440, Note_on_c, 0, 60, 45
2, 37920, Note_on_c, 0, 60, 0
2, 37920, Note_on_c, 0, 56, 0
2, 40200, Note_on_c, 0, 51, 69
2, 40200, Note_on_c, 0, 56, 69
2, 40200, Note_on_c, 0, 63, 69
2, 40310, Note_on_c, 0, 63, 0
2, 40310, Note_on_c, 0, 56, 0
2, 40310, Note_on_c, 0, 51, 0
2, 40320, Note_on_c, 0, 63, 83
2, 41280, Note_on_c, 0, 63, 0
2, 41280, Note_on_c, 0, 62, 46
2, 41520, Note_on_c, 0, 62, 0
2, 41520, Note_on_c, 0, 64, 46
2, 41760, Note_on_c, 0, 65, 54
2, 41772, Note_on_c, 0, 64, 0
2, 42000, Note_on_c, 0, 65, 0
2, 42000, Note_on_c, 0, 69, 46
2, 42240, Note_on_c, 0, 70, 54
2, 42252, Note_on_c, 0, 69, 0
2, 42480, Note_on_c, 0, 70, 0
2, 42480, Note_on_c, 0, 73, 46
2, 42720, Note_on_c, 0, 74, 55
2, 42732, Note_on_c, 0, 73, 0
2, 42960, Note_on_c, 0, 74, 0
2, 42960, Note_on_c, 0, 76, 46
2, 43200, Note_on_c, 0, 77, 55
2, 43212, Note_on_c, 0, 76, 0
2, 43440, Note_on_c, 0, 77, 0
2, 43440, Note_on_c, 0, 79, 46
2, 43680, Note_on_c, 0, 80, 55
2, 43692, Note_on_c, 0, 79, 0
2, 43920, Note_on_c, 0, 80, 0
2, 43920, Note_on_c, 0, 77, 46
2, 44160, Note_on_c, 0, 77, 0
2, 44160, Note_on_c, 0, 74, 55
2, 45360, Note_on_c, 0, 74, 0
2, 45360, Note_on_c, 0, 75, 50
2, 45420, Note_on_c, 0, 75, 0
2, 45420, Note_on_c, 0, 74, 50
2, 45480, Note_on_c, 0, 74, 0
2, 45480, Note_on_c, 0, 72, 50
2, 45540, Note_on_c, 0, 72, 0
2, 45540, Note_on_c, 0, 74, 50
2, 45600, Note_on_c, 0, 74, 0
2, 45600, Note_on_c, 0, 75, 55
2, 45960, Note_on_c, 0, 75, 0
2, 45960, Note_on_c, 0, 77, 55
2, 46070, Note_on_c, 0, 77, 0
2, 46080, Note_on_c, 0, 77, 55
2, 46560, Note_on_c, 0, 77, 0
2, 46560, Note_on_c, 0, 75, 55
2, 47520, Note_on_c, 0, 75, 0
2, 47520, Note_on_c, 0, 76, 55
2, 48000, Note_on_c, 0, 76, 0
2, 48000, Note_on_c, 0, 77, 55
2, 49200, Note_on_c, 0, 77, 0
2, 49200, Note_on_c, 0, 79, 50
2, 49260, Note_on_c, 0, 79, 0
2, 49260, Note_on_c, 0, 77, 47
2, 49320, Note_on_c, 0, 77, 0
2, 49320, Note_on_c, 0, 75, 49
2, 49380, Note_on_c, 0, 75, 0
2, 49380, Note_on_c, 0, 77, 51
2, 49440, Note_on_c, 0, 77, 0
2, 49440, Note_on_c, 0, 79, 53
2, 49800, Note_on_c, 0, 79, 0
2, 49800, Note_on_c, 0, 80, 60
2, 49910, Note_on_c, 0, 80, 0
2, 49920, Note_on_c, 0, 80, 58
2, 50400, Note_on_c, 0, 80, 0
2, 50400, Note_on_c, 0, 79, 55
2, 50880, Note_on_c, 0, 79, 0
2, 51880, Note_on_c, 0, 62, 30
2, 51920, Note_on_c, 0, 62, 0
2, 51921, Note_on_c, 0, 63, 30
2, 51961, Note_on_c, 0, 63, 0
2, 51961, Note_on_c, 0, 65, 41
2, 52001, Note_on_c, 0, 65, 0
2, 52001, Note_on_c, 0, 63, 33
2, 52041, Note_on_c, 0, 63, 0
2, 52041, Note_on_c, 0, 62, 33
2, 52081, Note_on_c, 0, 62, 0
2, 52081, Note_on_c, 0, 68, 42
2, 52121, Note_on_c, 0, 68, 0
2, 52121, Note_on_c, 0, 67, 34
2, 52161, Note_on_c, 0, 67, 0
2, 52161, Note_on_c, 0, 65, 34
2, 52201, Note_on_c, 0, 65, 0
2, 52202, Note_on_c, 0, 74, 51
2, 52242, Note_on_c, 0, 74, 0
2, 52242, Note_on_c, 0, 72, 37
2, 52282, Note_on_c, 0, 72, 0
2, 52282, Note_on_c, 0, 70, 36
2, 52320, Note_on_c, 0, 77, 57
2, 52322, Note_on_c, 0, 70, 0
2, 52360, Note_on_c, 0, 77, 0
2, 52360, Note_on_c, 0, 75, 41
2, 52400, Note_on_c, 0, 75, 0
2, 52400, Note_on_c, 0, 74, 44
2, 52440, Note_on_c, 0, 74, 0
2, 52440, Note_on_c, 0, 80, 59
2, 52480, Note_on_c, 0, 80, 0
2, 52480, Note_on_c, 0, 79, 46
2, 52520, Note_on_c, 0, 79, 0
2, 52520, Note_on_c, 0, 77, 48
2, 52560, Note_on_c, 0, 77, 0
2, 52560, Note_on_c, 0, 84, 70
2, 53520, Note_on_c, 0, 84, 0
2, 53520, Note_on_c, 0, 84, 54
2, 53554, Note_on_c, 0, 84, 0
2, 53554, Note_on_c, 0, 82, 53
2, 53588, Note_on_c, 0, 82, 0
2, 53589, Note_on_c, 0, 80, 52
2, 53623, Note_on_c, 0, 80, 0
2, 53623, Note_on_c, 0, 79, 52
2, 53657, Note_on_c, 0, 79, 0
2, 53657, Note_on_c, 0, 77, 51
2, 53691, Note_on_c, 0, 77, 0
2, 53691, Note_on_c, 0, 75, 50
2, 53725, Note_on_c, 0, 75, 0
2, 53725, Note_on_c, 0, 74, 49
2, 53759, Note_on_c, 0, 74, 0
2, 53760, Note_on_c, 0, 77, 56
2, 54120, Note_on_c, 0, 77, 0
2, 54120, Note_on_c, 0, 75, 40
2, 54240, Note_on_c, 0, 75, 0
2, 54240, Note_on_c, 0, 74, 43
2, 54420, Note_on_c, 0, 74, 0
2, 54420, Note_on_c, 0, 75, 40
2, 54480, Note_on_c, 0, 75, 0
2, 54480, Note_on_c, 0, 77, 47
2, 54660, Note_on_c, 0, 77, 0
2, 54660, Note_on_c, 0, 75, 41
2, 54720, Note_on_c, 0, 75, 0
2, 54720, Note_on_c, 0, 63, 52
2, 55200, Note_on_c, 0, 63, 0
2, 55720, Note_on_c, 0, 65, 30
2, 55760, Note_on_c, 0, 65, 0
2, 55761, Note_on_c, 0, 67, 30
2, 55801, Note_on_c, 0, 67, 0
2, 55801, Note_on_c, 0, 68, 41
2, 55841, Note_on_c, 0, 68, 0
2, 55841, Note_on_c, 0, 67, 33
2, 55881, Note_on_c, 0, 67, 0
2, 55881, Note_on_c, 0, 65, 33
2, 55921, Note_on_c, 0, 65, 0
2, 55921, Note_on_c, 0, 74, 42
2, 55961, Note_on_c, 0, 74, 0
2, 55961, Note_on_c, 0, 72, 34
2, 56001, Note_on_c, 0, 72, 0
2, 56001, Note_on_c, 0, 70, 34
2, 56041, Note_on_c, 0, 70, 0
2, 56042, Note_on_c, 0, 77, 51
2, 56082, Note_on_c, 0, 77, 0
2, 56082, Note_on_c, 0, 75, 37
2, 56122, Note_on_c, 0, 75, 0
2, 56122, Note_on_c, 0, 74, 36
2, 56160, Note_on_c, 0, 80, 57
2, 56162, Note_on_c, 0, 74, 0
2, 56200, Note_on_c, 0, 80, 0
2, 56200, Note_on_c, 0, 79, 41
2, 56240, Note_on_c, 0, 79, 0
2, 56240, Note_on_c, 0, 77, 44
2, 56280, Note_on_c, 0, 77, 0
2, 56280, Note_on_c, 0, 86, 59
2, 56320, Note_on_c, 0, 86, 0
2, 56320, Note_on_c, 0, 84, 46
2, 56360, Note_on_c, 0, 84, 0
2, 56360, Note_on_c, 0, 82, 48
2, 56400, Note_on_c, 0, 82, 0
2, 56400, Note_on_c, 0, 89, 69
2, 57360, Note_on_c, 0, 89, 0
2, 57360, Note_on_c, 0, 89, 54
2, 57399, Note_on_c, 0, 89, 0
2, 57399, Note_on_c, 0, 87, 53
2, 57438, Note_on_c, 0, 86, 52
2, 57438, Note_on_c, 0, 87, 0
2, 57477, Note_on_c, 0, 86, 0
2, 57477, Note_on_c, 0, 84, 52
2, 57516, Note_on_c, 0, 84, 0
2, 57516, Note_on_c, 0, 82, 51
2, 57555, Note_on_c, 0, 82, 0
2, 57555, Note_on_c, 0, 80, 50
2, 57594, Note_on_c, 0, 80, 0
2, 57600, Note_on_c, 0, 79, 62
2, 58320, Note_on_c, 0, 79, 0
2, 58440, Note_on_c, 0, 79, 64
2, 58560, Note_on_c, 0, 79, 0
2, 58560, Note_on_c, 0, 80, 71
2, 59280, Note_on_c, 0, 80, 0
2, 59400, Note_on_c, 0, 80, 71
2, 59520, Note_on_c, 0, 80, 0
2, 59520, Note_on_c, 0, 82, 81
2, 60240, Note_on_c, 0, 82, 0
2, 60360, Note_on_c, 0, 82, 78
2, 60480, Note_on_c, 0, 82, 0
2, 60480, Note_on_c, 0, 83, 89
2, 61200, Note_on_c, 0, 83, 0
2, 61320, Note_on_c, 0, 83, 84
2, 61440, Note_on_c, 0, 83, 0
2, 61440, Note_on_c, 0, 84, 92
2, 62160, Note_on_c, 0, 84, 0
2, 62280, Note_on_c, 0, 84, 90
2, 62400, Note_on_c, 0, 84, 0
2, 62400, Note_on_c, 0, 86, 96
2, 63120, Note_on_c, 0, 86, 0
2, 63240, Note_on_c, 0, 86, 99
2, 63360, Note_on_c, 0, 86, 0
2, 63360, Note_on_c, 0, 87, 103
2, 64080, Note_on_c, 0, 87, 0
2, 64200, Note_on_c, 0, 89, 94
2, 64230, Note_on_c, 0, 89, 0
2, 64230, Note_on_c, 0, 87, 94
2, 64260, Note_on_c, 0, 87, 0
2, 64260, Note_on_c, 0, 86, 94
2, 64290, Note_on_c, 0, 86, 0
2, 64290, Note_on_c, 0, 87, 94
2, 64320, Note_on_c, 0, 87, 0
2, 64320, Note_on_c, 0, 89, 107
2, 64560, Note_on_c, 0, 89, 0
2, 64560, Note_on_c, 0, 87, 90
2, 64800, Note_on_c, 0, 87, 0
2, 64800, Note_on_c, 0, 86, 74
2, 64980, Note_on_c, 0, 86, 0
2, 65040, Note_on_c, 0, 84, 67
2, 65220, Note_on_c, 0, 84, 0
2, 65280, Note_on_c, 0, 82, 60
2, 65520, Note_on_c, 0, 82, 0
2, 65520, Note_on_c, 0, 81, 55
2, 65760, Note_on_c, 0, 81, 0
2, 65760, Note_on_c, 0, 84, 60
2, 66000, Note_on_c, 0, 84, 0
2, 66000, Note_on_c, 0, 82, 55
2, 66240, Note_on_c, 0, 82, 0
2, 66240, Note_on_c, 0, 80, 60
2, 66480, Note_on_c, 0, 80, 0
2, 66480, Note_on_c, 0, 79, 56
2, 66720, Note_on_c, 0, 79, 0
2, 66720, Note_on_c, 0, 77, 60
2, 66960, Note_on_c, 0, 77, 0
2, 66960, Note_on_c, 0, 82, 57
2, 67200, Note_on_c, 0, 82, 0
2, 67200, Note_on_c, 0, 78, 60
2, 67360, Note_on_c, 0, 78, 0
2, 67360, Note_on_c, 0, 79, 51
2, 67520, Note_on_c, 0, 79, 0
2, 67520, Note_on_c, 0, 67, 43
2, 67680, Note_on_c, 0, 67, 0
2, 67840, Note_on_c, 0, 79, 60
2, 68000, Note_on_c, 0, 79, 0
2, 68000, Note_on_c, 0, 67, 52
2, 68160, Note_on_c, 0, 67, 0
2, 68160, Note_on_c, 0, 79, 60
2, 68320, Note_on_c, 0, 79, 0
2, 68320, Note_on_c, 0, 80, 51
2, 68480, Note_on_c, 0, 80, 0
2, 68480, Note_on_c, 0, 68, 43
2, 68640, Note_on_c, 0, 68, 0
2, 68800, Note_on_c, 0, 80, 60
2, 68960, Note_on_c, 0, 80, 0
2, 68960, Note_on_c, 0, 68, 54
2, 69120, Note_on_c, 0, 68, 0
2, 69120, Note_on_c, 0, 81, 60
2, 69280, Note_on_c, 0, 81, 0
2, 69280, Note_on_c, 0, 82, 51
2, 69440, Note_on_c, 0, 82, 0
2, 69440, Note_on_c, 0, 70, 44
2, 69600, Note_on_c, 0, 70, 0
2, 69760, Note_on_c, 0, 82, 64
2, 69920, Note_on_c, 0, 82, 0
2, 69920, Note_on_c, 0, 70, 56
2, 70080, Note_on_c, 0, 70, 0
2, 70080, Note_on_c, 0, 82, 66
2, 70240, Note_on_c, 0, 82, 0
2, 70240, Note_on_c, 0, 83, 63
2, 70400, Note_on_c, 0, 83, 0
2, 70400, Note_on_c, 0, 71, 58
2, 70560, Note_on_c, 0, 71, 0
2, 70720, Note_on_c, 0, 83, 70
2, 70880, Note_on_c, 0, 83, 0
2, 70880, Note_on_c, 0, 71, 64
2, 71040, Note_on_c, 0, 71, 0
2, 71040, Note_on_c, 0, 83, 73
2, 71200, Note_on_c, 0, 83, 0
2, 71200, Note_on_c, 0, 84, 70
2, 71360, Note_on_c, 0, 84, 0
2, 71360, Note_on_c, 0, 72, 63
2, 71520, Note_on_c, 0, 72, 0
2, 71680, Note_on_c, 0, 84, 77
2, 71840, Note_on_c, 0, 84, 0
2, 71840, Note_on_c, 0, 72, 68
2, 72000, Note_on_c, 0, 72, 0
2, 72000, Note_on_c, 0, 85, 79
2, 72160, Note_on_c, 0, 85, 0
2, 72160, Note_on_c, 0, 86, 77
2, 72320, Note_on_c, 0, 86, 0
2, 72320, Note_on_c, 0, 74, 69
2, 72480, Note_on_c, 0, 74, 0
2, 72640, Note_on_c, 0, 86, 84
2, 72800, Note_on_c, 0, 86, 0
2, 72800, Note_on_c, 0, 74, 76
2, 72960, Note_on_c, 0, 74, 0
2, 72960, Note_on_c, 0, 86, 86
2, 73120, Note_on_c, 0, 86, 0
2, 73120, Note_on_c, 0, 87, 81
2, 73280, Note_on_c, 0, 87, 0
2, 73280, Note_on_c, 0, 75, 75
2, 73440, Note_on_c, 0, 75, 0
2, 73600, Note_on_c, 0, 87, 87
2, 73760, Note_on_c, 0, 87, 0
2, 73760, Note_on_c, 0, 75, 81
2, 73920, Note_on_c, 0, 75, 0
2, 73920, Note_on_c, 0, 87, 87
2, 74080, Note_on_c, 0, 87, 0
2, 74080, Note_on_c, 0, 78, 79
2, 74240, Note_on_c, 0, 78, 0
2, 74240, Note_on_c, 0, 87, 87
2, 74400, Note_on_c, 0, 87, 0
2, 74400, Note_on_c, 0, 81, 79
2, 74560, Note_on_c, 0, 81, 0
2, 74560, Note_on_c, 0, 87, 86
2, 74720, Note_on_c, 0, 87, 0
2, 74720, Note_on_c, 0, 81, 79
2, 74880, Note_on_c, 0, 81, 0
2, 74880, Note_on_c, 0, 82, 88
2, 76000, Note_on_c, 0, 82, 0
2, 76000, Note_on_c, 0, 81, 79
2, 76160, Note_on_c, 0, 81, 0
2, 76160, Note_on_c, 0, 84, 79
2, 76320, Note_on_c, 0, 84, 0
2, 76320, Note_on_c, 0, 82, 85
2, 76440, Note_on_c, 0, 82, 0
2, 76480, Note_on_c, 0, 80, 79
2, 76600, Note_on_c, 0, 80, 0
2, 76640, Note_on_c, 0, 79, 79
2, 76760, Note_on_c, 0, 79, 0
2, 76800, Note_on_c, 0, 75, 79
2, 76800, Note_on_c, 0, 77, 79
2, 77640, Note_on_c, 0, 77, 0
2, 77640, Note_on_c, 0, 77, 74
2, 77664, Note_on_c, 0, 77, 0
2, 77664, Note_on_c, 0, 79, 68
2, 77688, Note_on_c, 0, 79, 0
2, 77688, Note_on_c, 0, 77, 74
2, 77712, Note_on_c, 0, 77, 0
2, 77712, Note_on_c, 0, 76, 66
2, 77736, Note_on_c, 0, 76, 0
2, 77736, Note_on_c, 0, 77, 67
2, 77760, Note_on_c, 0, 77, 0
2, 77760, Note_on_c, 0, 75, 0
2, 77760, Note_on_c, 0, 74, 79
2, 77760, Note_on_c, 0, 82, 79
2, 78600, Note_on_c, 0, 82, 0
2, 78600, Note_on_c, 0, 82, 79
2, 78720, Note_on_c, 0, 82, 0
2, 78720, Note_on_c, 0, 74, 0
2, 78720, Note_on_c, 0, 67, 74
2, 78720, Note_on_c, 0, 75, 85
2, 79200, Note_on_c, 0, 75, 0
2, 79200, Note_on_c, 0, 67, 0
2, 79840, Note_on_c, 0, 69, 79
2, 80000, Note_on_c, 0, 69, 0
2, 80000, Note_on_c, 0, 72, 79
2, 80160, Note_on_c, 0, 72, 0
2, 80160, Note_on_c, 0, 70, 85
2, 80280, Note_on_c, 0, 70, 0
2, 80320, Note_on_c, 0, 68, 79
2, 80440, Note_on_c, 0, 68, 0
2, 80480, Note_on_c, 0, 67, 79
2, 80600, Note_on_c, 0, 67, 0
2, 80640, Note_on_c, 0, 63, 79
2, 80640, Note_on_c, 0, 65, 79
2, 81480, Note_on_c, 0, 65, 0
2, 81480, Note_on_c, 0, 65, 74
2, 81504, Note_on_c, 0, 65, 0
2, 81504, Note_on_c, 0, 67, 68
2, 81528, Note_on_c, 0, 67, 0
2, 81528, Note_on_c, 0, 65, 74
2, 81552, Note_on_c, 0, 65, 0
2, 81552, Note_on_c, 0, 64, 66
2, 81576, Note_on_c, 0, 64, 0
2, 81576, Note_on_c, 0, 65, 67
2, 81600, Note_on_c, 0, 65, 0
2, 81600, Note_on_c, 0, 63, 0
2, 81600, Note_on_c, 0, 62, 79
2, 81600, Note_on_c, 0, 70, 79
2, 82440, Note_on_c, 0, 70, 0
2, 82440, Note_on_c, 0, 70, 47
2, 82560, Note_on_c, 0, 70, 0
2, 82560, Note_on_c, 0, 62, 0
2, 82560, Note_on_c, 0, 63, 51
2, 83040, Note_on_c, 0, 63, 0
2, 84420, Note_on_c, 0, 55, 74
2, 84435, Note_on_c, 0, 58, 77
2, 84450, Note_on_c, 0, 61, 81
2, 84465, Note_on_c, 0, 63, 86
2, 84480, Note_on_c, 0, 67, 90
2, 84960, Note_on_c, 0, 67, 0
2, 84960, Note_on_c, 0, 61, 0
2, 84960, Note_on_c, 0, 55, 0
2, 84960, Note_on_c, 0, 58, 0
2, 84960, Note_on_c, 0, 63, 0
2, 86400, Note_on_c, 0, 60, 42
2, 86400, Note_on_c, 0, 68, 50
2, 87120, Note_on_c, 0, 68, 0
2, 87120, Note_on_c, 0, 70, 50
2, 87180, Note_on_c, 0, 70, 0
2, 87180, Note_on_c, 0, 68, 46
2, 87240, Note_on_c, 0, 68, 0
2, 87240, Note_on_c, 0, 67, 46
2, 87300, Note_on_c, 0, 67, 0
2, 87300, Note_on_c, 0, 68, 46
2, 87360, Note_on_c, 0, 68, 0
2, 87360, Note_on_c, 0, 60, 0
2, 87360, Note_on_c, 0, 72, 54
2, 87360, Note_on_c, 0, 61, 45
2, 88080, Note_on_c, 0, 72, 0
2, 88080, Note_on_c, 0, 70, 45
2, 88320, Note_on_c, 0, 70, 0
2, 88320, Note_on_c, 0, 61, 0
2, 88320, Note_on_c, 0, 60, 42
2, 88320, Note_on_c, 0, 68, 50
2, 89280, Note_on_c, 0, 60, 0
2, 89520, Note_on_c, 0, 68, 0
2, 89520, Note_on_c, 0, 67, 46
2, 89760, Note_on_c, 0, 67, 0
2, 89760, Note_on_c, 0, 68, 44
2, 90000, Note_on_c, 0, 68, 0
2, 90000, Note_on_c, 0, 69, 48
2, 90240, Note_on_c, 0, 69, 0
2, 90240, Note_on_c, 0, 63, 52
2, 90240, Note_on_c, 0, 70, 52
2, 90720, Note_on_c, 0, 70, 0
2, 90960, Note_on_c, 0, 72, 50
2, 91020, Note_on_c, 0, 72, 0
2, 91020, Note_on_c, 0, 70, 46
2, 91080, Note_on_c, 0, 70, 0
2, 91080, Note_on_c, 0, 69, 46
2, 91140, Note_on_c, 0, 69, 0
2, 91140, Note_on_c, 0, 70, 46
2, 91200, Note_on_c, 0, 70, 0
2, 91200, Note_on_c, 0, 63, 0
2, 91200, Note_on_c, 0, 73, 54
2, 91200, Note_on_c, 0, 63, 45
2, 91680, Note_on_c, 0, 63, 0
2, 91680, Note_on_c, 0, 68, 45
2, 91920, Note_on_c, 0, 73, 0
2, 91920, Note_on_c, 0, 72, 45
2, 92160, Note_on_c, 0, 72, 0
2, 92160, Note_on_c, 0, 68, 0
2, 92160, Note_on_c, 0, 67, 42
2, 92160, Note_on_c, 0, 70, 50
2, 93120, Note_on_c, 0, 67, 0
2, 93280, Note_on_c, 0, 70, 0
2, 93280, Note_on_c, 0, 77, 61
2, 93440, Note_on_c, 0, 77, 0
2, 93440, Note_on_c, 0, 75, 55
2, 93600, Note_on_c, 0, 75, 0
2, 93600, Note_on_c, 0, 73, 62
2, 93720, Note_on_c, 0, 73, 0
2, 93760, Note_on_c, 0, 72, 60
2, 93880, Note_on_c, 0, 72, 0
2, 93920, Note_on_c, 0, 71, 57
2, 94040, Note_on_c, 0, 71, 0
2, 94080, Note_on_c, 0, 72, 63
2, 94920, Note_on_c, 0, 72, 0
2, 94920, Note_on_c, 0, 68, 52
2, 95040, Note_on_c, 0, 68, 0
2, 95040, Note_on_c, 0, 75, 64
2, 95880, Note_on_c, 0, 75, 0
2, 95880, Note_on_c, 0, 72, 60
2, 96000, Note_on_c, 0, 72, 0
2, 96000, Note_on_c, 0, 77, 70
2, 96840, Note_on_c, 0, 77, 0
2, 96840, Note_on_c, 0, 73, 67
2, 96960, Note_on_c, 0, 73, 0
2, 96960, Note_on_c, 0, 80, 87
2, 97920, Note_on_c, 0, 68, 84
2, 98160, Note_on_c, 0, 80, 0
2, 98160, Note_on_c, 0, 79, 63
2, 98400, Note_on_c, 0, 79, 0
2, 98400, Note_on_c, 0, 77, 59
2, 98640, Note_on_c, 0, 77, 0
2, 98640, Note_on_c, 0, 75, 56
2, 98860, Note_on_c, 0, 75, 0
2, 98880, Note_on_c, 0, 68, 0
2, 98880, Note_on_c, 0, 63, 37
2, 98880, Note_on_c, 0, 75, 59
2, 99120, Note_on_c, 0, 75, 0
2, 99120, Note_on_c, 0, 73, 56
2, 99340, Note_on_c, 0, 73, 0
2, 99360, Note_on_c, 0, 63, 0
2, 99360, Note_on_c, 0, 63, 37
2, 99360, Note_on_c, 0, 73, 59
2, 99600, Note_on_c, 0, 73, 0
2, 99600, Note_on_c, 0, 72, 56
2, 99820, Note_on_c, 0, 72, 0
2, 99840, Note_on_c, 0, 63, 0
2, 99840, Note_on_c, 0, 63, 46
2, 99840, Note_on_c, 0, 75, 55
2, 100320, Note_on_c, 0, 63, 0
2, 100320, Note_on_c, 0, 63, 39
2, 100560, Note_on_c, 0, 75, 0
2, 100560, Note_on_c, 0, 72, 51
2, 100800, Note_on_c, 0, 72, 0
2, 100800, Note_on_c, 0, 63, 0
2, 100800, Note_on_c, 0, 63, 45
2, 100800, Note_on_c, 0, 70, 53
2, 100800, Note_on_c, 0, 70, 51
2, 100830, Note_on_c, 0, 70, 0
2, 100830, Note_on_c, 0, 72, 46
2, 100860, Note_on_c, 0, 72, 0
2, 100860, Note_on_c, 0, 70, 51
2, 100890, Note_on_c, 0, 70, 0
2, 100890, Note_on_c, 0, 72, 45
2, 100920, Note_on_c, 0, 72, 0
2, 100920, Note_on_c, 0, 70, 51
2, 100960, Note_on_c, 0, 70, 0
2, 100960, Note_on_c, 0, 69, 46
2, 101000, Note_on_c, 0, 69, 0
2, 101000, Note_on_c, 0, 70, 46
2, 101040, Note_on_c, 0, 70, 0
2, 101040, Note_on_c, 0, 73, 57
2, 101160, Note_on_c, 0, 73, 0
2, 101160, Note_on_c, 0, 72, 48
2, 101280, Note_on_c, 0, 72, 0
2, 101280, Note_on_c, 0, 70, 0
2, 101280, Note_on_c, 0, 63, 0
2, 101280, Note_on_c, 0, 75, 55
2, 101400, Note_on_c, 0, 75, 0
2, 101400, Note_on_c, 0, 73, 47
2, 101520, Note_on_c, 0, 73, 0
2, 101520, Note_on_c, 0, 72, 51
2, 101580, Note_on_c, 0, 72, 0
2, 101580, Note_on_c, 0, 75, 47
2, 101640, Note_on_c, 0, 75, 0
2, 101640, Note_on_c, 0, 73, 47
2, 101700, Note_on_c, 0, 73, 0
2, 101700, Note_on_c, 0, 70, 47
2, 101760, Note_on_c, 0, 70, 0
2, 101760, Note_on_c, 0, 60, 42
2, 101760, Note_on_c, 0, 68, 50
2, 102480, Note_on_c, 0, 68, 0
2, 102480, Note_on_c, 0, 70, 50
2, 102540, Note_on_c, 0, 70, 0
2, 102540, Note_on_c, 0, 68, 46
2, 102600, Note_on_c, 0, 68, 0
2, 102600, Note_on_c, 0, 67, 46
2, 102660, Note_on_c, 0, 67, 0
2, 102660, Note_on_c, 0, 68, 46
2, 102720, Note_on_c, 0, 68, 0
2, 102720, Note_on_c, 0, 60, 0
2, 102720, Note_on_c, 0, 72, 54
2, 102720, Note_on_c, 0, 61, 45
2, 103440, Note_on_c, 0, 72, 0
2, 103440, Note_on_c, 0, 70, 45
2, 103680, Note_on_c, 0, 70, 0
2, 103680, Note_on_c, 0, 61, 0
2, 103680, Note_on_c, 0, 60, 42
2, 103680, Note_on_c, 0, 68, 50
2, 104640, Note_on_c, 0, 68, 0
2, 104640, Note_on_c, 0, 60, 0
2, 105600, Note_on_c, 0, 63, 42
2, 105600, Note_on_c, 0, 70, 50
2, 106080, Note_on_c, 0, 70, 0
2, 106320, Note_on_c, 0, 72, 50
2, 106380, Note_on_c, 0, 72, 0
2, 106380, Note_on_c, 0, 70, 46
2, 106440, Note_on_c, 0, 70, 0
2, 106440, Note_on_c, 0, 69, 46
2, 106500, Note_on_c, 0, 69, 0
2, 106500, Note_on_c, 0, 70, 46
2, 106560, Note_on_c, 0, 70, 0
2, 106560, Note_on_c, 0, 63, 0
2, 106560, Note_on_c, 0, 63, 45
2, 106560, Note_on_c, 0, 73, 54
2, 106560, Note_on_c, 0, 68, 45
2, 107280, Note_on_c, 0, 73, 0
2, 107280, Note_on_c, 0, 72, 45
2, 107520, Note_on_c, 0, 72, 0
2, 107520, Note_on_c, 0, 68, 0
2, 107520, Note_on_c, 0, 63, 0
2, 107520, Note_on_c, 0, 67, 42
2, 107520, Note_on_c, 0, 70, 50
2, 108480, Note_on_c, 0, 70, 0
2, 108480, Note_on_c, 0, 67, 0
2, 109410, Note_on_c, 0, 63, 36
2, 109440, Note_on_c, 0, 72, 63
2, 109500, Note_on_c, 0, 63, 0
2, 110280, Note_on_c, 0, 72, 0
2, 110280, Note_on_c, 0, 68, 52
2, 110370, Note_on_c, 0, 63, 43
2, 110400, Note_on_c, 0, 68, 0
2, 110400, Note_on_c, 0, 75, 64
2, 110460, Note_on_c, 0, 63, 0
2, 111240, Note_on_c, 0, 75, 0
2, 111240, Note_on_c, 0, 72, 60
2, 111330, Note_on_c, 0, 72, 0
2, 111330, Note_on_c, 0, 65, 44
2, 111360, Note_on_c, 0, 77, 70
2, 112960, Note_on_c, 0, 77, 0
2, 112960, Note_on_c, 0, 65, 0
2, 112960, Note_on_c, 0, 69, 59
2, 112960, Note_on_c, 0, 75, 70
2, 113120, Note_on_c, 0, 75, 0
2, 113120, Note_on_c, 0, 69, 0
2, 113120, Note_on_c, 0, 70, 52
2, 113120, Note_on_c, 0, 73, 62
2, 113280, Note_on_c, 0, 73, 0
2, 113280, Note_on_c, 0, 70, 0
2, 113280, Note_on_c, 0, 68, 59
2, 113280, Note_on_c, 0, 72, 70
2, 113760, Note_on_c, 0, 72, 0
2, 113760, Note_on_c, 0, 75, 63
2, 114240, Note_on_c, 0, 75, 0
2, 114240, Note_on_c, 0, 68, 0
2, 114240, Note_on_c, 0, 67, 59
2, 114240, Note_on_c, 0, 73, 70
2, 114720, Note_on_c, 0, 73, 0
2, 114720, Note_on_c, 0, 70, 60
2, 115200, Note_on_c, 0, 70, 0
2, 115200, Note_on_c, 0, 67, 0
2, 115200, Note_on_c, 0, 61, 59
2, 115200, Note_on_c, 0, 70, 70
2, 115800, Note_on_c, 0, 61, 0
2, 115800, Note_on_c, 0, 60, 37
2, 115860, Note_on_c, 0, 60, 0
2, 115860, Note_on_c, 0, 61, 34
2, 115920, Note_on_c, 0, 61, 0
2, 115920, Note_on_c, 0, 63, 38
2, 115980, Note_on_c, 0, 63, 0
2, 115980, Note_on_c, 0, 61, 34
2, 116040, Note_on_c, 0, 61, 0
2, 116040, Note_on_c, 0, 60, 34
2, 116100, Note_on_c, 0, 60, 0
2, 116100, Note_on_c, 0, 61, 34
2, 116160, Note_on_c, 0, 61, 0
2, 116160, Note_on_c, 0, 70, 0
2, 116160, Note_on_c, 0, 60, 42
2, 116160, Note_on_c, 0, 68, 51
2, 116640, Note_on_c, 0, 68, 0
2, 116640, Note_on_c, 0, 60, 0
2, 117090, Note_on_c, 0, 77, 78
2, 117120, Note_on_c, 0, 89, 91
2, 117180, Note_on_c, 0, 77, 0
2, 117840, Note_on_c, 0, 89, 0
2, 117840, Note_on_c, 0, 87, 65
2, 117874, Note_on_c, 0, 84, 63
2, 117875, Note_on_c, 0, 87, 0
2, 117909, Note_on_c, 0, 84, 0
2, 117909, Note_on_c, 0, 81, 62
2, 117943, Note_on_c, 0, 77, 61
2, 117943, Note_on_c, 0, 81, 0
2, 117977, Note_on_c, 0, 77, 0
2, 117977, Note_on_c, 0, 75, 59
2, 118011, Note_on_c, 0, 72, 57
2, 118012, Note_on_c, 0, 75, 0
2, 118045, Note_on_c, 0, 69, 56
2, 118046, Note_on_c, 0, 72, 0
2, 118080, Note_on_c, 0, 69, 0
2, 118080, Note_on_c, 0, 65, 78
2, 118320, Note_on_c, 0, 65, 0
2, 118920, Note_on_c, 0, 60, 45
2, 118920, Note_on_c, 0, 63, 54
2, 119030, Note_on_c, 0, 63, 0
2, 119030, Note_on_c, 0, 60, 0
2, 119040, Note_on_c, 0, 60, 48
2, 119040, Note_on_c, 0, 63, 57
2, 120000, Note_on_c, 0, 63, 0
2, 120000, Note_on_c, 0, 60, 0
2, 120000, Note_on_c, 0, 58, 38
2, 120000, Note_on_c, 0, 61, 45
2, 120480, Note_on_c, 0, 61, 0
2, 120480, Note_on_c, 0, 58, 0
2, 120930, Note_on_c, 0, 75, 78
2, 120960, Note_on_c, 0, 87, 91
2, 121020, Note_on_c, 0, 75, 0
2, 121680, Note_on_c, 0, 87, 0
2, 121680, Note_on_c, 0, 85, 65
2, 121714, Note_on_c, 0, 82, 63
2, 121715, Note_on_c, 0, 85, 0
2, 121749, Note_on_c, 0, 82, 0
2, 121749, Note_on_c, 0, 79, 62
2, 121783, Note_on_c, 0, 75, 61
2, 121783, Note_on_c, 0, 79, 0
2, 121817, Note_on_c, 0, 75, 0
2, 121817, Note_on_c, 0, 73, 59
2, 121851, Note_on_c, 0, 70, 57
2, 121852, Note_on_c, 0, 73, 0
2, 121885, Note_on_c, 0, 67, 56
2, 121886, Note_on_c, 0, 70, 0
2, 121920, Note_on_c, 0, 67, 0
2, 121920, Note_on_c, 0, 63, 78
2, 122160, Note_on_c, 0, 63, 0
2, 122760, Note_on_c, 0, 58, 45
2, 122760, Note_on_c, 0, 61, 54
2, 122870, Note_on_c, 0, 61, 0
2, 122870, Note_on_c, 0, 58, 0
2, 122880, Note_on_c, 0, 58, 48
2, 122880, Note_on_c, 0, 61, 57
2, 123840, Note_on_c, 0, 61, 0
2, 123840, Note_on_c, 0, 58, 0
2, 123840, Note_on_c, 0, 56, 38
2, 123840, Note_on_c, 0, 59, 45
2, 124320, Note_on_c, 0, 59, 0
2, 124320, Note_on_c, 0, 56, 0
2, 126600, Note_on_c, 0, 56, 69
2, 126600, Note_on_c, 0, 52, 69
2, 126600, Note_on_c, 0, 64, 69
2, 126710, Note_on_c, 0, 64, 0
2, 126710, Note_on_c, 0, 52, 0
2, 126710, Note_on_c, 0, 56, 0
2, 126720, Note_on_c, 0, 54, 73
2, 126720, Note_on_c, 0, 57, 73
2, 126720, Note_on_c, 0, 64, 73
2, 127680, Note_on_c, 0, 64, 0
2, 127680, Note_on_c, 0, 63, 61
2, 128160, Note_on_c, 0, 63, 0
2, 128160, Note_on_c, 0, 57, 0
2, 128160, Note_on_c, 0, 54, 0
2, 128520, Note_on_c, 0, 56, 69
2, 128520, Note_on_c, 0, 53, 69
2, 128520, Note_on_c, 0, 63, 69
2, 128630, Note_on_c, 0, 63, 0
2, 128630, Note_on_c, 0, 53, 0
2, 128630, Note_on_c, 0, 56, 0
2, 128640, Note_on_c, 0, 53, 73
2, 128640, Note_on_c, 0, 56, 73
2, 128640, Note_on_c, 0, 63, 73
2, 129600, Note_on_c, 0, 63, 0
2, 129600, Note_on_c, 0, 62, 61
2, 130080, Note_on_c, 0, 62, 0
2, 130080, Note_on_c, 0, 56, 0
2, 130080, Note_on_c, 0, 53, 0
2, 130440, Note_on_c, 0, 56, 69
2, 130440, Note_on_c, 0, 53, 69
2, 130440, Note_on_c, 0, 62, 69
2, 130550, Note_on_c, 0, 62, 0
2, 130550, Note_on_c, 0, 53, 0
2, 130550, Note_on_c, 0, 56, 0
2, 130560, Note_on_c, 0, 53, 73
2, 130560, Note_on_c, 0, 56, 73
2, 130560, Note_on_c, 0, 62, 73
2, 131520, Note_on_c, 0, 62, 0
2, 131520, Note_on_c, 0, 56, 0
2, 131520, Note_on_c, 0, 58, 54
2, 131520, Note_on_c, 0, 61, 61
2, 131760, Note_on_c, 0, 61, 0
2, 131760, Note_on_c, 0, 58, 0
2, 131760, Note_on_c, 0, 69, 46
2, 132000, Note_on_c, 0, 53, 0
2, 132000, Note_on_c, 0, 70, 54
2, 132012, Note_on_c, 0, 69, 0
2, 132216, Note_on_c, 0, 70, 0
2, 132240, Note_on_c, 0, 72, 46
2, 132480, Note_on_c, 0, 73, 54
2, 132492, Note_on_c, 0, 72, 0
2, 132696, Note_on_c, 0, 73, 0
2, 132720, Note_on_c, 0, 78, 50
2, 132960, Note_on_c, 0, 78, 0
2, 132960, Note_on_c, 0, 79, 60
2, 133176, Note_on_c, 0, 79, 0
2, 133200, Note_on_c, 0, 81, 50
2, 133440, Note_on_c, 0, 82, 60
2, 133452, Note_on_c, 0, 81, 0
2, 133656, Note_on_c, 0, 82, 0
2, 133680, Note_on_c, 0, 84, 50
2, 133920, Note_on_c, 0, 85, 60
2, 133932, Note_on_c, 0, 84, 0
2, 134160, Note_on_c, 0, 85, 0
2, 134160, Note_on_c, 0, 82, 50
2, 134400, Note_on_c, 0, 82, 0
2, 134400, Note_on_c, 0, 79, 60
2, 135600, Note_on_c, 0, 79, 0
2, 135600, Note_on_c, 0, 80, 55
2, 135660, Note_on_c, 0, 80, 0
2, 135660, Note_on_c, 0, 79, 55
2, 135720, Note_on_c, 0, 79, 0
2, 135720, Note_on_c, 0, 77, 55
2, 135780, Note_on_c, 0, 77, 0
2, 135780, Note_on_c, 0, 79, 55
2, 135840, Note_on_c, 0, 79, 0
2, 135840, Note_on_c, 0, 80, 60
2, 136200, Note_on_c, 0, 80, 0
2, 136200, Note_on_c, 0, 82, 60
2, 136320, Note_on_c, 0, 82, 0
2, 136320, Note_on_c, 0, 82, 60
2, 136800, Note_on_c, 0, 82, 0
2, 136800, Note_on_c, 0, 80, 60
2, 137760, Note_on_c, 0, 80, 0
2, 137760, Note_on_c, 0, 81, 60
2, 138240, Note_on_c, 0, 81, 0
2, 138240, Note_on_c, 0, 82, 60
2, 139440, Note_on_c, 0, 82, 0
2, 139440, Note_on_c, 0, 84, 55
2, 139500, Note_on_c, 0, 84, 0
2, 139500, Note_on_c, 0, 82, 55
2, 139560, Note_on_c, 0, 82, 0
2, 139560, Note_on_c, 0, 81, 55
2, 139620, Note_on_c, 0, 81, 0
2, 139620, Note_on_c, 0, 82, 55
2, 139680, Note_on_c, 0, 82, 0
2, 139680, Note_on_c, 0, 84, 60
2, 140040, Note_on_c, 0, 84, 0
2, 140040, Note_on_c, 0, 85, 60
2, 140160, Note_on_c, 0, 85, 0
2, 140160, Note_on_c, 0, 85, 60
2, 140640, Note_on_c, 0, 85, 0
2, 140640, Note_on_c, 0, 84, 60
2, 141120, Note_on_c, 0, 84, 0
2, 142120, Note_on_c, 0, 67, 30
2, 142160, Note_on_c, 0, 67, 0
2, 142161, Note_on_c, 0, 68, 30
2, 142201, Note_on_c, 0, 68, 0
2, 142201, Note_on_c, 0, 70, 41
2, 142241, Note_on_c, 0, 70, 0
2, 142241, Note_on_c, 0, 68, 33
2, 142281, Note_on_c, 0, 68, 0
2, 142281, Note_on_c, 0, 67, 33
2, 142321, Note_on_c, 0, 67, 0
2, 142321, Note_on_c, 0, 73, 42
2, 142361, Note_on_c, 0, 73, 0
2, 142361, Note_on_c, 0, 72, 36
2, 142401, Note_on_c, 0, 72, 0
2, 142401, Note_on_c, 0, 70, 39
2, 142441, Note_on_c, 0, 70, 0
2, 142442, Note_on_c, 0, 79, 51
2, 142482, Note_on_c, 0, 79, 0
2, 142482, Note_on_c, 0, 77, 39
2, 142522, Note_on_c, 0, 77, 0
2, 142522, Note_on_c, 0, 75, 42
2, 142560, Note_on_c, 0, 82, 57
2, 142562, Note_on_c, 0, 75, 0
2, 142600, Note_on_c, 0, 82, 0
2, 142600, Note_on_c, 0, 80, 46
2, 142640, Note_on_c, 0, 80, 0
2, 142640, Note_on_c, 0, 79, 49
2, 142680, Note_on_c, 0, 79, 0
2, 142680, Note_on_c, 0, 85, 59
2, 142720, Note_on_c, 0, 85, 0
2, 142720, Note_on_c, 0, 84, 50
2, 142760, Note_on_c, 0, 84, 0
2, 142760, Note_on_c, 0, 82, 55
2, 142800, Note_on_c, 0, 82, 0
2, 142800, Note_on_c, 0, 89, 69
2, 143760, Note_on_c, 0, 89, 0
2, 143760, Note_on_c, 0, 89, 54
2, 143794, Note_on_c, 0, 89, 0
2, 143794, Note_on_c, 0, 87, 53
2, 143828, Note_on_c, 0, 87, 0
2, 143829, Note_on_c, 0, 85, 52
2, 143863, Note_on_c, 0, 85, 0
2, 143863, Note_on_c, 0, 84, 52
2, 143897, Note_on_c, 0, 84, 0
2, 143897, Note_on_c, 0, 82, 51
2, 143931, Note_on_c, 0, 82, 0
2, 143931, Note_on_c, 0, 80, 50
2, 143965, Note_on_c, 0, 80, 0
2, 143965, Note_on_c, 0, 79, 49
2, 143999, Note_on_c, 0, 79, 0
2, 144000, Note_on_c, 0, 82, 56
2, 144360, Note_on_c, 0, 82, 0
2, 144360, Note_on_c, 0, 80, 44
2, 144480, Note_on_c, 0, 80, 0
2, 144480, Note_on_c, 0, 79, 47
2, 144660, Note_on_c, 0, 79, 0
2, 144660, Note_on_c, 0, 80, 44
2, 144720, Note_on_c, 0, 80, 0
2, 144720, Note_on_c, 0, 82, 51
2, 144900, Note_on_c, 0, 82, 0
2, 144900, Note_on_c, 0, 80, 45
2, 144960, Note_on_c, 0, 80, 0
2, 144960, Note_on_c, 0, 68, 57
2, 145440, Note_on_c, 0, 68, 0
2, 145960, Note_on_c, 0, 70, 30
2, 146000, Note_on_c, 0, 70, 0
2, 146001, Note_on_c, 0, 72, 30
2, 146041, Note_on_c, 0, 72, 0
2, 146041, Note_on_c, 0, 73, 41
2, 146081, Note_on_c, 0, 73, 0
2, 146081, Note_on_c, 0, 72, 33
2, 146121, Note_on_c, 0, 72, 0
2, 146121, Note_on_c, 0, 70, 33
2, 146161, Note_on_c, 0, 70, 0
2, 146161, Note_on_c, 0, 79, 47
2, 146201, Note_on_c, 0, 79, 0
2, 146201, Note_on_c, 0, 77, 38
2, 146241, Note_on_c, 0, 77, 0
2, 146241, Note_on_c, 0, 75, 39
2, 146281, Note_on_c, 0, 75, 0
2, 146282, Note_on_c, 0, 82, 51
2, 146322, Note_on_c, 0, 82, 0
2, 146322, Note_on_c, 0, 80, 46
2, 146362, Note_on_c, 0, 80, 0
2, 146362, Note_on_c, 0, 79, 48
2, 146400, Note_on_c, 0, 85, 69
2, 146402, Note_on_c, 0, 79, 0
2, 147600, Note_on_c, 0, 85, 0
2, 147600, Note_on_c, 0, 84, 50
2, 147622, Note_on_c, 0, 84, 0
2, 147622, Note_on_c, 0, 85, 52
2, 147644, Note_on_c, 0, 85, 0
2, 147644, Note_on_c, 0, 87, 55
2, 147666, Note_on_c, 0, 85, 58
2, 147666, Note_on_c, 0, 87, 0
2, 147688, Note_on_c, 0, 85, 0
2, 147688, Note_on_c, 0, 84, 58
2, 147710, Note_on_c, 0, 84, 0
2, 147710, Note_on_c, 0, 82, 57
2, 147732, Note_on_c, 0, 82, 0
2, 147732, Note_on_c, 0, 80, 56
2, 147754, Note_on_c, 0, 80, 0
2, 147754, Note_on_c, 0, 79, 55
2, 147775, Note_on_c, 0, 77, 54
2, 147776, Note_on_c, 0, 79, 0
2, 147797, Note_on_c, 0, 77, 0
2, 147797, Note_on_c, 0, 75, 53
2, 147819, Note_on_c, 0, 75, 0
2, 147819, Note_on_c, 0, 73, 52
2, 147840, Note_on_c, 0, 72, 62
2, 147841, Note_on_c, 0, 73, 0
2, 148560, Note_on_c, 0, 72, 0
2, 148680, Note_on_c, 0, 72, 64
2, 148800, Note_on_c, 0, 72, 0
2, 148800, Note_on_c, 0, 73, 71
2, 149520, Note_on_c, 0, 73, 0
2, 149640, Note_on_c, 0, 73, 71
2, 149760, Note_on_c, 0, 73, 0
2, 149760, Note_on_c, 0, 75, 81
2, 150480, Note_on_c, 0, 75, 0
2, 150600, Note_on_c, 0, 75, 78
2, 150720, Note_on_c, 0, 75, 0
2, 150720, Note_on_c, 0, 76, 89
2, 151440, Note_on_c, 0, 76, 0
2, 151560, Note_on_c, 0, 76, 84
2, 151680, Note_on_c, 0, 76, 0
2, 151680, Note_on_c, 0, 77, 92
2, 152400, Note_on_c, 0, 77, 0
2, 152520, Note_on_c, 0, 77, 88
2, 152640, Note_on_c, 0, 77, 0
2, 152640, Note_on_c, 0, 79, 94
2, 153360, Note_on_c, 0, 79, 0
2, 153480, Note_on_c, 0, 79, 93
2, 153600, Note_on_c, 0, 79, 0
2, 153600, Note_on_c, 0, 80, 100
2, 154320, Note_on_c, 0, 80, 0
2, 154440, Note_on_c, 0, 82, 86
2, 154470, Note_on_c, 0, 82, 0
2, 154470, Note_on_c, 0, 80, 89
2, 154500, Note_on_c, 0, 80, 0
2, 154500, Note_on_c, 0, 79, 91
2, 154530, Note_on_c, 0, 79, 0
2, 154530, Note_on_c, 0, 80, 93
2, 154560, Note_on_c, 0, 80, 0
2, 154560, Note_on_c, 0, 82, 95
2, 154800, Note_on_c, 0, 82, 0
2, 154800, Note_on_c, 0, 80, 87
2, 155040, Note_on_c, 0, 80, 0
2, 155040, Note_on_c, 0, 79, 77
2, 155220, Note_on_c, 0, 79, 0
2, 155280, Note_on_c, 0, 77, 67
2, 155460, Note_on_c, 0, 77, 0
2, 155520, Note_on_c, 0, 75, 60
2, 155760, Note_on_c, 0, 74, 55
2, 155772, Note_on_c, 0, 75, 0
2, 156000, Note_on_c, 0, 77, 60
2, 156012, Note_on_c, 0, 74, 0
2, 156240, Note_on_c, 0, 75, 55
2, 156252, Note_on_c, 0, 77, 0
2, 156480, Note_on_c, 0, 73, 60
2, 156492, Note_on_c, 0, 75, 0
2, 156720, Note_on_c, 0, 72, 56
2, 156732, Note_on_c, 0, 73, 0
2, 156960, Note_on_c, 0, 70, 60
2, 156972, Note_on_c, 0, 72, 0
2, 157200, Note_on_c, 0, 75, 57
2, 157212, Note_on_c, 0, 70, 0
2, 157440, Note_on_c, 0, 75, 0
2, 157440, Note_on_c, 0, 71, 60
2, 157600, Note_on_c, 0, 71, 0
2, 157600, Note_on_c, 0, 72, 51
2, 157760, Note_on_c, 0, 72, 0
2, 157760, Note_on_c, 0, 60, 43
2, 157920, Note_on_c, 0, 60, 0
2, 158080, Note_on_c, 0, 72, 60
2, 158240, Note_on_c, 0, 72, 0
2, 158240, Note_on_c, 0, 60, 52
2, 158400, Note_on_c, 0, 60, 0
2, 158400, Note_on_c, 0, 72, 60
2, 158560, Note_on_c, 0, 72, 0
2, 158560, Note_on_c, 0, 73, 51
2, 158720, Note_on_c, 0, 73, 0
2, 158720, Note_on_c, 0, 61, 43
2, 158880, Note_on_c, 0, 61, 0
2, 159040, Note_on_c, 0, 73, 60
2, 159200, Note_on_c, 0, 73, 0
2, 159200, Note_on_c, 0, 61, 54
2, 159360, Note_on_c, 0, 61, 0
2, 159360, Note_on_c, 0, 74, 60
2, 159520, Note_on_c, 0, 74, 0
2, 159520, Note_on_c, 0, 75, 51
2, 159680, Note_on_c, 0, 75, 0
2, 159680, Note_on_c, 0, 63, 44
2, 159840, Note_on_c, 0, 63, 0
2, 160000, Note_on_c, 0, 75, 64
2, 160160, Note_on_c, 0, 75, 0
2, 160160, Note_on_c, 0, 63, 56
2, 160320, Note_on_c, 0, 63, 0
2, 160320, Note_on_c, 0, 75, 66
2, 160480, Note_on_c, 0, 75, 0
2, 160480, Note_on_c, 0, 76, 63
2, 160640, Note_on_c, 0, 76, 0
2, 160640, Note_on_c, 0, 64, 58
2, 160800, Note_on_c, 0, 64, 0
2, 160960, Note_on_c, 0, 76, 70
2, 161120, Note_on_c, 0, 76, 0
2, 161120, Note_on_c, 0, 64, 64
2, 161280, Note_on_c, 0, 64, 0
2, 161280, Note_on_c, 0, 76, 73
2, 161440, Note_on_c, 0, 76, 0
2, 161440, Note_on_c, 0, 77, 70
2, 161600, Note_on_c, 0, 77, 0
2, 161600, Note_on_c, 0, 65, 63
2, 161760, Note_on_c, 0, 65, 0
2, 161920, Note_on_c, 0, 77, 77
2, 162080, Note_on_c, 0, 77, 0
2, 162080, Note_on_c, 0, 65, 68
2, 162240, Note_on_c, 0, 65, 0
2, 162240, Note_on_c, 0, 78, 79
2, 162400, Note_on_c, 0, 78, 0
2, 162400, Note_on_c, 0, 79, 77
2, 162560, Note_on_c, 0, 79, 0
2, 162560, Note_on_c, 0, 67, 69
2, 162720, Note_on_c, 0, 67, 0
2, 162880, Note_on_c, 0, 79, 84
2, 163040, Note_on_c, 0, 79, 0
2, 163040, Note_on_c, 0, 67, 76
2, 163200, Note_on_c, 0, 67, 0
2, 163200, Note_on_c, 0, 79, 86
2, 163360, Note_on_c, 0, 79, 0
2, 163360, Note_on_c, 0, 80, 81
2, 163520, Note_on_c, 0, 80, 0
2, 163520, Note_on_c, 0, 68, 75
2, 163680, Note_on_c, 0, 68, 0
2, 163840, Note_on_c, 0, 80, 87
2, 164000, Note_on_c, 0, 80, 0
2, 164000, Note_on_c, 0, 68, 81
2, 164160, Note_on_c, 0, 68, 0
2, 164160, Note_on_c, 0, 83, 87
2, 164320, Note_on_c, 0, 83, 0
2, 164320, Note_on_c, 0, 71, 79
2, 164480, Note_on_c, 0, 71, 0
2, 164480, Note_on_c, 0, 83, 87
2, 164640, Note_on_c, 0, 83, 0
2, 164640, Note_on_c, 0, 68, 79
2, 164800, Note_on_c, 0, 68, 0
2, 164800, Note_on_c, 0, 80, 86
2, 164960, Note_on_c, 0, 80, 0
2, 164960, Note_on_c, 0, 68, 79
2, 165120, Note_on_c, 0, 68, 0
2, 165120, Note_on_c, 0, 75, 88
2, 166240, Note_on_c, 0, 75, 0
2, 166240, Note_on_c, 0, 86, 79
2, 166400, Note_on_c, 0, 86, 0
2, 166400, Note_on_c, 0, 89, 79
2, 166560, Note_on_c, 0, 89, 0
2, 166560, Note_on_c, 0, 87, 85
2, 166680, Note_on_c, 0, 87, 0
2, 166720, Note_on_c, 0, 85, 79
2, 166840, Note_on_c, 0, 85, 0
2, 166880, Note_on_c, 0, 84, 79
2, 167000, Note_on_c, 0, 84, 0
2, 167040, Note_on_c, 0, 80, 79
2, 167040, Note_on_c, 0, 82, 79
2, 167880, Note_on_c, 0, 82, 0
2, 167880, Note_on_c, 0, 82, 74
2, 167904, Note_on_c, 0, 82, 0
2, 167904, Note_on_c, 0, 84, 68
2, 167928, Note_on_c, 0, 84, 0
2, 167928, Note_on_c, 0, 82, 74
2, 167952, Note_on_c, 0, 82, 0
2, 167952, Note_on_c, 0, 81, 66
2, 167976, Note_on_c, 0, 81, 0
2, 167976, Note_on_c, 0, 82, 67
2, 168000, Note_on_c, 0, 82, 0
2, 168000, Note_on_c, 0, 80, 0
2, 168000, Note_on_c, 0, 79, 79
2, 168000, Note_on_c, 0, 87, 79
2, 168840, Note_on_c, 0, 87, 0
2, 168840, Note_on_c, 0, 87, 79
2, 168960, Note_on_c, 0, 87, 0
2, 168960, Note_on_c, 0, 79, 0
2, 168960, Note_on_c, 0, 72, 74
2, 168960, Note_on_c, 0, 80, 85
2, 169440, Note_on_c, 0, 80, 0
2, 169440, Note_on_c, 0, 72, 0
2, 170080, Note_on_c, 0, 74, 79
2, 170240, Note_on_c, 0, 74, 0
2, 170240, Note_on_c, 0, 77, 79
2, 170400, Note_on_c, 0, 77, 0
2, 170400, Note_on_c, 0, 75, 85
2, 170520, Note_on_c, 0, 75, 0
2, 170560, Note_on_c, 0, 73, 79
2, 170680, Note_on_c, 0, 73, 0
2, 170720, Note_on_c, 0, 72, 79
2, 170840, Note_on_c, 0, 72, 0
2, 170880, Note_on_c, 0, 68, 79
2, 170880, Note_on_c, 0, 70, 79
2, 171720, Note_on_c, 0, 70, 0
2, 171720, Note_on_c, 0, 70, 74
2, 171744, Note_on_c, 0, 70, 0
2, 171744, Note_on_c, 0, 72, 68
2, 171768, Note_on_c, 0, 72, 0
2, 171768, Note_on_c, 0, 70, 74
2, 171792, Note_on_c, 0, 70, 0
2, 171792, Note_on_c, 0, 69, 66
2, 171816, Note_on_c, 0, 69, 0
2, 171816, Note_on_c, 0, 70, 67
2, 171840, Note_on_c, 0, 70, 0
2, 171840, Note_on_c, 0, 68, 0
2, 171840, Note_on_c, 0, 67, 79
2, 171840, Note_on_c, 0, 75, 79
2, 172680, Note_on_c, 0, 75, 0
2, 172680, Note_on_c, 0, 75, 61
2, 172800, Note_on_c, 0, 75, 0
2, 172800, Note_on_c, 0, 67, 0
2, 172800, Note_on_c, 0, 60, 30
2, 172800, Note_on_c, 0, 63, 30
2, 172800, Note_on_c, 0, 68, 50
2, 173028, Note_on_c, 0, 63, 0
2, 173028, Note_on_c, 0, 60, 0
2, 173040, Note_on_c, 0, 60, 30
2, 173040, Note_on_c, 0, 63, 30
2, 173496, Note_on_c, 0, 63, 0
2, 173496, Note_on_c, 0, 60, 0
2, 173520, Note_on_c, 0, 60, 30
2, 173520, Note_on_c, 0, 63, 30
2, 173748, Note_on_c, 0, 63, 0
2, 173748, Note_on_c, 0, 60, 0
2, 173760, Note_on_c, 0, 68, 0
2, 173760, Note_on_c, 0, 61, 30
2, 173760, Note_on_c, 0, 63, 30
2, 173760, Note_on_c, 0, 72, 54
2, 173988, Note_on_c, 0, 63, 0
2, 173988, Note_on_c, 0, 61, 0
2, 174000, Note_on_c, 0, 61, 30
2, 174000, Note_on_c, 0, 63, 30
2, 174456, Note_on_c, 0, 63, 0
2, 174456, Note_on_c, 0, 61, 0
2, 174480, Note_on_c, 0, 72, 0
2, 174480, Note_on_c, 0, 63, 30
2, 174480, Note_on_c, 0, 61, 30
2, 174480, Note_on_c, 0, 70, 45
2, 174708, Note_on_c, 0, 61, 0
2, 174708, Note_on_c, 0, 63, 0
2, 174720, Note_on_c, 0, 70, 0
2, 174720, Note_on_c, 0, 60, 30
2, 174720, Note_on_c, 0, 63, 30
2, 174720, Note_on_c, 0, 68, 50
2, 174948, Note_on_c, 0, 63, 0
2, 174948, Note_on_c, 0, 60, 0
2, 174960, Note_on_c, 0, 60, 30
2, 174960, Note_on_c, 0, 63, 30
2, 175416, Note_on_c, 0, 63, 0
2, 175416, Note_on_c, 0, 60, 0
2, 175440, Note_on_c, 0, 63, 30
2, 175440, Note_on_c, 0, 60, 30
2, 175896, Note_on_c, 0, 60, 0
2, 175896, Note_on_c, 0, 63, 0
2, 175920, Note_on_c, 0, 60, 30
2, 175920, Note_on_c, 0, 63, 30
2, 176376, Note_on_c, 0, 63, 0
2, 176376, Note_on_c, 0, 60, 0
2, 176400, Note_on_c, 0, 68, 0
2, 176400, Note_on_c, 0, 69, 44
2, 176400, Note_on_c, 0, 60, 30
2, 176400, Note_on_c, 0, 63, 30
2, 176628, Note_on_c, 0, 63, 0
2, 176628, Note_on_c, 0, 60, 0
2, 176640, Note_on_c, 0, 69, 0
2, 176640, Note_on_c, 0, 61, 30
2, 176640, Note_on_c, 0, 63, 30
2, 176640, Note_on_c, 0, 70, 52
2, 176868, Note_on_c, 0, 63, 0
2, 176868, Note_on_c, 0, 61, 0
2, 176880, Note_on_c, 0, 63, 35
2, 177336, Note_on_c, 0, 63, 0
2, 177360, Note_on_c, 0, 70, 0
2, 177360, Note_on_c, 0, 63, 30
2, 177360, Note_on_c, 0, 72, 50
2, 177420, Note_on_c, 0, 72, 0
2, 177420, Note_on_c, 0, 70, 46
2, 177480, Note_on_c, 0, 70, 0
2, 177480, Note_on_c, 0, 69, 46
2, 177540, Note_on_c, 0, 69, 0
2, 177540, Note_on_c, 0, 70, 46
2, 177600, Note_on_c, 0, 70, 0
2, 177600, Note_on_c, 0, 73, 54
2, 177600, Note_on_c, 0, 68, 45
2, 177816, Note_on_c, 0, 63, 0
2, 177840, Note_on_c, 0, 63, 30
2, 178296, Note_on_c, 0, 63, 0
2, 178320, Note_on_c, 0, 68, 0
2, 178320, Note_on_c, 0, 73, 0
2, 178320, Note_on_c, 0, 63, 30
2, 178320, Note_on_c, 0, 68, 45
2, 178320, Note_on_c, 0, 72, 45
2, 178560, Note_on_c, 0, 72, 0
2, 178560, Note_on_c, 0, 68, 0
2, 178560, Note_on_c, 0, 67, 42
2, 178560, Note_on_c, 0, 70, 50
2, 178776, Note_on_c, 0, 63, 0
2, 178800, Note_on_c, 0, 63, 37
2, 179256, Note_on_c, 0, 63, 0
2, 179280, Note_on_c, 0, 63, 41
2, 179736, Note_on_c, 0, 63, 0
2, 179760, Note_on_c, 0, 63, 39
2, 180216, Note_on_c, 0, 63, 0
2, 180240, Note_on_c, 0, 63, 34
2, 180480, Note_on_c, 0, 70, 0
2, 180480, Note_on_c, 0, 67, 0
2, 180480, Note_on_c, 0, 75, 66
2, 180696, Note_on_c, 0, 63, 0
2, 180720, Note_on_c, 0, 63, 53
2, 181176, Note_on_c, 0, 63, 0
2, 181200, Note_on_c, 0, 63, 52
2, 181440, Note_on_c, 0, 75, 0
2, 181440, Note_on_c, 0, 73, 63
2, 181656, Note_on_c, 0, 63, 0
2, 181680, Note_on_c, 0, 63, 51
2, 182136, Note_on_c, 0, 63, 0
2, 182160, Note_on_c, 0, 63, 52
2, 182400, Note_on_c, 0, 73, 0
2, 182400, Note_on_c, 0, 72, 66
2, 182616, Note_on_c, 0, 63, 0
2, 182640, Note_on_c, 0, 63, 49
2, 183096, Note_on_c, 0, 63, 0
2, 183120, Note_on_c, 0, 64, 46
2, 183360, Note_on_c, 0, 72, 0
2, 183360, Note_on_c, 0, 70, 58
2, 183576, Note_on_c, 0, 64, 0
2, 183600, Note_on_c, 0, 65, 54
2, 183840, Note_on_c, 0, 70, 0
2, 183840, Note_on_c, 0, 73, 64
2, 184056, Note_on_c, 0, 65, 0
2, 184080, Note_on_c, 0, 65, 50
2, 184200, Note_on_c, 0, 73, 0
2, 184200, Note_on_c, 0, 70, 55
2, 184320, Note_on_c, 0, 70, 0
2, 184320, Note_on_c, 0, 68, 66
2, 184560, Note_on_c, 0, 65, 0
2, 184560, Note_on_c, 0, 63, 47
2, 185016, Note_on_c, 0, 63, 0
2, 185040, Note_on_c, 0, 63, 43
2, 185280, Note_on_c, 0, 68, 0
2, 185280, Note_on_c, 0, 69, 58
2, 185496, Note_on_c, 0, 63, 0
2, 185520, Note_on_c, 0, 63, 45
2, 185760, Note_on_c, 0, 69, 0
2, 185760, Note_on_c, 0, 70, 59
2, 185976, Note_on_c, 0, 63, 0
2, 186000, Note_on_c, 0, 63, 49
2, 186240, Note_on_c, 0, 70, 0
2, 186240, Note_on_c, 0, 71, 64
2, 186456, Note_on_c, 0, 63, 0
2, 186480, Note_on_c, 0, 63, 55
2, 186720, Note_on_c, 0, 71, 0
2, 186720, Note_on_c, 0, 60, 56
2, 186720, Note_on_c, 0, 72, 67
2, 186936, Note_on_c, 0, 63, 0
2, 186960, Note_on_c, 0, 63, 55
2, 187200, Note_on_c, 0, 72, 0
2, 187200, Note_on_c, 0, 60, 0
2, 187200, Note_on_c, 0, 61, 59
2, 187200, Note_on_c, 0, 73, 70
2, 187416, Note_on_c, 0, 63, 0
2, 187440, Note_on_c, 0, 63, 58
2, 187680, Note_on_c, 0, 73, 0
2, 187680, Note_on_c, 0, 61, 0
2, 187680, Note_on_c, 0, 62, 62
2, 187680, Note_on_c, 0, 74, 73
2, 187896, Note_on_c, 0, 63, 0
2, 187920, Note_on_c, 0, 63, 62
2, 188148, Note_on_c, 0, 63, 0
2, 188160, Note_on_c, 0, 74, 0
2, 188160, Note_on_c, 0, 62, 0
2, 188160, Note_on_c, 0, 63, 30
2, 188160, Note_on_c, 0, 75, 77
2, 188616, Note_on_c, 0, 63, 0
2, 188640, Note_on_c, 0, 63, 58
2, 189096, Note_on_c, 0, 63, 0
2, 189120, Note_on_c, 0, 75, 0
2, 189120, Note_on_c, 0, 61, 30
2, 189120, Note_on_c, 0, 63, 30
2, 189120, Note_on_c, 0, 73, 69
2, 189576, Note_on_c, 0, 63, 0
2, 189576, Note_on_c, 0, 61, 0
2, 189600, Note_on_c, 0, 61, 58
2, 189600, Note_on_c, 0, 63, 58
2, 190056, Note_on_c, 0, 63, 0
2, 190056, Note_on_c, 0, 61, 0
2, 190080, Note_on_c, 0, 73, 0
2, 190080, Note_on_c, 0, 60, 30
2, 190080, Note_on_c, 0, 63, 30
2, 190080, Note_on_c, 0, 72, 65
2, 190536, Note_on_c, 0, 63, 0
2, 190536, Note_on_c, 0, 60, 0
2, 190560, Note_on_c, 0, 60, 52
2, 190560, Note_on_c, 0, 64, 52
2, 191016, Note_on_c, 0, 64, 0
2, 191016, Note_on_c, 0, 60, 0
2, 191040, Note_on_c, 0, 72, 0
2, 191040, Note_on_c, 0, 65, 30
2, 191040, Note_on_c, 0, 70, 62
2, 191280, Note_on_c, 0, 70, 0
2, 191280, Note_on_c, 0, 72, 64
2, 191520, Note_on_c, 0, 72, 0
2, 191520, Note_on_c, 0, 73, 67
2, 191760, Note_on_c, 0, 65, 0
2, 191760, Note_on_c, 0, 65, 49
2, 191880, Note_on_c, 0, 73, 0
2, 191880, Note_on_c, 0, 70, 69
2, 192000, Note_on_c, 0, 70, 0
2, 192000, Note_on_c, 0, 65, 0
2, 192000, Note_on_c, 0, 63, 30
2, 192000, Note_on_c, 0, 68, 70
2, 192240, Note_on_c, 0, 75, 58
2, 192480, Note_on_c, 0, 68, 0
2, 192480, Note_on_c, 0, 69, 71
2, 192696, Note_on_c, 0, 75, 0
2, 192720, Note_on_c, 0, 75, 58
2, 192960, Note_on_c, 0, 69, 0
2, 192960, Note_on_c, 0, 70, 73
2, 193176, Note_on_c, 0, 75, 0
2, 193200, Note_on_c, 0, 75, 43
2, 193440, Note_on_c, 0, 70, 0
2, 193440, Note_on_c, 0, 63, 0
2, 193440, Note_on_c, 0, 67, 51
2, 193656, Note_on_c, 0, 75, 0
2, 193680, Note_on_c, 0, 75, 43
2, 193920, Note_on_c, 0, 75, 0
2, 193920, Note_on_c, 0, 67, 0
2, 193920, Note_on_c, 0, 60, 30
2, 193920, Note_on_c, 0, 63, 30
2, 193920, Note_on_c, 0, 68, 57
2, 194148, Note_on_c, 0, 63, 0
2, 194148, Note_on_c, 0, 60, 0
2, 194160, Note_on_c, 0, 63, 30
2, 194400, Note_on_c, 0, 68, 0
2, 194616, Note_on_c, 0, 63, 0
2, 194640, Note_on_c, 0, 63, 30
2, 195096, Note_on_c, 0, 63, 0
2, 195120, Note_on_c, 0, 63, 30
2, 195576, Note_on_c, 0, 63, 0
2, 195600, Note_on_c, 0, 63, 30
2, 195840, Note_on_c, 0, 70, 57
2, 195840, Note_on_c, 0, 73, 57
2, 196056, Note_on_c, 0, 63, 0
2, 196080, Note_on_c, 0, 63, 30
2, 196536, Note_on_c, 0, 63, 0
2, 196560, Note_on_c, 0, 63, 30
2, 196800, Note_on_c, 0, 73, 0
2, 196800, Note_on_c, 0, 70, 0
2, 196800, Note_on_c, 0, 70, 57
2, 196800, Note_on_c, 0, 73, 57
2, 197016, Note_on_c, 0, 63, 0
2, 197040, Note_on_c, 0, 63, 30
2, 197496, Note_on_c, 0, 63, 0
2, 197520, Note_on_c, 0, 63, 30
2, 197760, Note_on_c, 0, 73, 0
2, 197760, Note_on_c, 0, 70, 0
2, 197760, Note_on_c, 0, 68, 61
2, 197760, Note_on_c, 0, 72, 61
2, 197976, Note_on_c, 0, 63, 0
2, 198000, Note_on_c, 0, 63, 30
2, 198240, Note_on_c, 0, 72, 0
2, 198240, Note_on_c, 0, 68, 0
2, 198456, Note_on_c, 0, 63, 0
2, 198480, Note_on_c, 0, 63, 30
2, 198936, Note_on_c, 0, 63, 0
2, 198960, Note_on_c, 0, 63, 30
2, 199416, Note_on_c, 0, 63, 0
2, 199440, Note_on_c, 0, 63, 30
2, 199680, Note_on_c, 0, 61, 57
2, 199680, Note_on_c, 0, 70, 57
2, 199896, Note_on_c, 0, 63, 0
2, 199920, Note_on_c, 0, 63, 30
2, 200376, Note_on_c, 0, 63, 0
2, 200400, Note_on_c, 0, 63, 30
2, 200640, Note_on_c, 0, 70, 0
2, 200640, Note_on_c, 0, 61, 0
2, 200640, Note_on_c, 0, 61, 57
2, 200640, Note_on_c, 0, 70, 57
2, 200856, Note_on_c, 0, 63, 0
2, 200880, Note_on_c, 0, 63, 30
2, 201336, Note_on_c, 0, 63, 0
2, 201360, Note_on_c, 0, 63, 30
2, 201600, Note_on_c, 0, 63, 0
2, 201600, Note_on_c, 0, 70, 0
2, 201600, Note_on_c, 0, 61, 0
2, 201600, Note_on_c, 0, 60, 25
2, 201600, Note_on_c, 0, 68, 57
2, 201840, Note_on_c, 0, 68, 0
2, 201840, Note_on_c, 0, 60, 0
2, 201840, Note_on_c, 0, 63, 30
2, 201840, Note_on_c, 0, 51, 25
2, 202296, Note_on_c, 0, 51, 0
2, 202296, Note_on_c, 0, 63, 0
2, 202320, Note_on_c, 0, 63, 30
2, 202320, Note_on_c, 0, 51, 25
2, 202776, Note_on_c, 0, 51, 0
2, 202776, Note_on_c, 0, 63, 0
2, 202800, Note_on_c, 0, 63, 30
2, 202800, Note_on_c, 0, 51, 25
2, 203040, Note_on_c, 0, 56, 42
2, 203040, Note_on_c, 0, 60, 50
2, 203256, Note_on_c, 0, 51, 0
2, 203256, Note_on_c, 0, 63, 0
2, 203280, Note_on_c, 0, 63, 30
2, 203280, Note_on_c, 0, 51, 25
2, 203520, Note_on_c, 0, 56, 0
2, 203520, Note_on_c, 0, 60, 0
2, 203520, Note_on_c, 0, 58, 48
2, 203520, Note_on_c, 0, 61, 57
2, 203736, Note_on_c, 0, 63, 0
2, 203736, Note_on_c, 0, 51, 0
2, 203760, Note_on_c, 0, 63, 30
2, 203760, Note_on_c, 0, 51, 25
2, 204000, Note_on_c, 0, 58, 0
2, 204000, Note_on_c, 0, 61, 0
2, 204240, Note_on_c, 0, 63, 0
2, 204240, Note_on_c, 0, 51, 0
2, 204240, Note_on_c, 0, 63, 30
2, 204240, Note_on_c, 0, 51, 25
2, 204480, Note_on_c, 0, 58, 48
2, 204480, Note_on_c, 0, 61, 48
2, 204696, Note_on_c, 0, 51, 0
2, 204696, Note_on_c, 0, 63, 0
2, 204720, Note_on_c, 0, 63, 30
2, 204720, Note_on_c, 0, 51, 25
2, 204960, Note_on_c, 0, 58, 0
2, 204960, Note_on_c, 0, 61, 0
2, 205200, Note_on_c, 0, 63, 0
2, 205200, Note_on_c, 0, 51, 0
2, 205200, Note_on_c, 0, 63, 30
2, 205200, Note_on_c, 0, 51, 25
2, 205440, Note_on_c, 0, 56, 51
2, 205440, Note_on_c, 0, 60, 51
2, 205656, Note_on_c, 0, 51, 0
2, 205656, Note_on_c, 0, 63, 0
2, 205668, Note_on_c, 0, 56, 0
2, 205668, Note_on_c, 0, 60, 0
2, 205680, Note_on_c, 0, 63, 30
2, 205680, Note_on_c, 0, 60, 25
2, 205680, Note_on_c, 0, 56, 25
2, 205680, Note_on_c, 0, 51, 25
2, 206136, Note_on_c, 0, 51, 0
2, 206136, Note_on_c, 0, 63, 0
2, 206136, Note_on_c, 0, 60, 0
2, 206136, Note_on_c, 0, 56, 0
2, 206160, Note_on_c, 0, 63, 29
2, 206160, Note_on_c, 0, 60, 24
2, 206160, Note_on_c, 0, 56, 24
2, 206160, Note_on_c, 0, 51, 24
2, 206616, Note_on_c, 0, 51, 0
2, 206616, Note_on_c, 0, 63, 0
2, 206616, Note_on_c, 0, 60, 0
2, 206616, Note_on_c, 0, 56, 0
2, 206640, Note_on_c, 0, 63, 28
2, 206640, Note_on_c, 0, 60, 24
2, 206640, Note_on_c, 0, 56, 24
2, 206640, Note_on_c, 0, 51, 24
2, 207096, Note_on_c, 0, 51, 0
2, 207096, Note_on_c, 0, 63, 0
2, 207096, Note_on_c, 0, 60, 0
2, 207096, Note_on_c, 0, 56, 0
2, 207120, Note_on_c, 0, 63, 28
2, 207120, Note_on_c, 0, 56, 23
2, 207120, Note_on_c, 0, 51, 23
2, 207120, Note_on_c, 0, 60, 23
2, 207576, Note_on_c, 0, 60, 0
2, 207576, Note_on_c, 0, 63, 0
2, 207576, Note_on_c, 0, 56, 0
2, 207576, Note_on_c, 0, 51, 0
2, 207600, Note_on_c, 0, 60, 27
2, 207600, Note_on_c, 0, 56, 23
2, 207600, Note_on_c, 0, 51, 23
2, 208056, Note_on_c, 0, 51, 0
2, 208056, Note_on_c, 0, 56, 0
2, 208056, Note_on_c, 0, 60, 0
2, 208080, Note_on_c, 0, 60, 27
2, 208080, Note_on_c, 0, 56, 22
2, 208080, Note_on_c, 0, 51, 22
2, 208536, Note_on_c, 0, 51, 0
2, 208536, Note_on_c, 0, 56, 0
2, 208536, Note_on_c, 0, 60, 0
2, 208560, Note_on_c, 0, 60, 26
2, 208560, Note_on_c, 0, 56, 22
2, 208560, Note_on_c, 0, 51, 22
2, 209016, Note_on_c, 0, 51, 0
2, 209016, Note_on_c, 0, 56, 0
2, 209016, Note_on_c, 0, 60, 0
2, 209040, Note_on_c, 0, 60, 26
2, 209040, Note_on_c, 0, 56, 21
2, 209040, Note_on_c, 0, 51, 21
2, 209496, Note_on_c, 0, 51, 0
2, 209496, Note_on_c, 0, 56, 0
2, 209496, Note_on_c, 0, 60, 0
2, 209520, Note_on_c, 0, 56, 25
2, 209520, Note_on_c, 0, 51, 21
2, 209520, Note_on_c, 0, 48, 21
2, 209976, Note_on_c, 0, 48, 0
2, 209976, Note_on_c, 0, 51, 0
2, 209976, Note_on_c, 0, 56, 0
2, 210000, Note_on_c, 0, 56, 24
2, 210000, Note_on_c, 0, 51, 20
2, 210000, Note_on_c, 0, 48, 20
2, 210456, Note_on_c, 0, 48, 0
2, 210456, Note_on_c, 0, 51, 0
2, 210456, Note_on_c, 0, 56, 0
2, 210480, Note_on_c, 0, 56, 24
2, 210480, Note_on_c, 0, 51, 20
2, 210480, Note_on_c, 0, 48, 20
2, 210936, Note_on_c, 0, 48, 0
2, 210936, Note_on_c, 0, 51, 0
2, 210936, Note_on_c, 0, 56, 0
2, 210960, Note_on_c, 0, 56, 23
2, 210960, Note_on_c, 0, 51, 19
2, 210960, Note_on_c, 0, 48, 19
2, 211440, Note_on_c, 0, 48, 0
2, 211440, Note_on_c, 0, 51, 0
2, 211440, Note_on_c, 0, 56, 0
2, 212160, Note_on_c, 0, 48, 22
2, 212160, Note_on_c, 0, 51, 27
2, 212640, Note_on_c, 0, 51, 0
2, 212640, Note_on_c, 0, 48, 0
2, 213120, Note_on_c, 0, 44, 19
2, 213120, Note_on_c, 0, 48, 23
2, 215040, Note_on_c, 0, 48, 0
2, 215040, Note_on_c, 0, 44, 0
2, 215040, End_track
3, 0, Start_track
3, 0, Title_t, "Piano left"
3, 0, Program_c, 0, 0
3, 0, Note_on_c, 0, 44, 27
3, 0, Note_on_c, 0, 51, 27
3, 0, Note_on_c, 0, 56, 32
3, 960, Note_on_c, 0, 56, 0
3, 960, Note_on_c, 0, 51, 0
3, 960, Note_on_c, 0, 44, 0
3, 960, Note_on_c, 0, 43, 24
3, 960, Note_on_c, 0, 51, 24
3, 960, Note_on_c, 0, 55, 29
3, 1920, Note_on_c, 0, 55, 0
3, 1920, Note_on_c, 0, 51, 0
3, 1920, Note_on_c, 0, 43, 0
3, 1920, Note_on_c, 0, 44, 30
3, 1920, Note_on_c, 0, 51, 30
3, 1920, Note_on_c, 0, 56, 36
3, 3360, Note_on_c, 0, 56, 0
3, 3360, Note_on_c, 0, 51, 0
3, 3360, Note_on_c, 0, 44, 0
3, 3840, Note_on_c, 0, 55, 27
3, 3840, Note_on_c, 0, 61, 32
3, 4320, Note_on_c, 0, 61, 0
3, 4320, Note_on_c, 0, 58, 32
3, 4800, Note_on_c, 0, 58, 0
3, 4800, Note_on_c, 0, 55, 0
3, 4800, Note_on_c, 0, 56, 29
3, 5280, Note_on_c, 0, 60, 32
3, 5760, Note_on_c, 0, 60, 0
3, 5760, Note_on_c, 0, 56, 0
3, 5760, Note_on_c, 0, 51, 30
3, 5760, Note_on_c, 0, 63, 36
3, 7200, Note_on_c, 0, 63, 0
3, 7200, Note_on_c, 0, 51, 0
3, 7680, Note_on_c, 0, 56, 32
3, 8640, Note_on_c, 0, 56, 0
3, 8640, Note_on_c, 0, 48, 37
3, 8640, Note_on_c, 0, 60, 37
3, 8640, Note_on_c, 0, 56, 37
3, 9600, Note_on_c, 0, 56, 0
3, 9600, Note_on_c, 0, 60, 0
3, 9600, Note_on_c, 0, 48, 0
3, 9600, Note_on_c, 0, 49, 45
3, 9600, Note_on_c, 0, 56, 45
3, 9600, Note_on_c, 0, 61, 45
3, 10560, Note_on_c, 0, 61, 0
3, 10560, Note_on_c, 0, 56, 0
3, 10560, Note_on_c, 0, 49, 0
3, 10560, Note_on_c, 0, 53, 41
3, 10590, Note_on_c, 0, 56, 45
3, 10620, Note_on_c, 0, 61, 49
3, 10650, Note_on_c, 0, 65, 53
3, 12480, Note_on_c, 0, 65, 0
3, 12480, Note_on_c, 0, 53, 0
3, 12480, Note_on_c, 0, 56, 0
3, 12480, Note_on_c, 0, 61, 0
3, 12480, Note_on_c, 0, 55, 31
3, 12480, Note_on_c, 0, 63, 37
3, 12960, Note_on_c, 0, 63, 0
3, 12960, Note_on_c, 0, 55, 0
3, 12960, Note_on_c, 0, 63, 34
3, 12960, Note_on_c, 0, 56, 28
3, 13440, Note_on_c, 0, 56, 0
3, 13440, Note_on_c, 0, 63, 0
3, 13440, Note_on_c, 0, 60, 37
3, 13440, Note_on_c, 0, 51, 31
3, 14160, Note_on_c, 0, 60, 0
3, 14160, Note_on_c, 0, 56, 31
3, 14400, Note_on_c, 0, 56, 0
3, 14400, Note_on_c, 0, 51, 0
3, 14400, Note_on_c, 0, 51, 26
3, 14400, Note_on_c, 0, 55, 31
3, 14880, Note_on_c, 0, 55, 0
3, 14880, Note_on_c, 0, 51, 0
3, 15360, Note_on_c, 0, 44, 36
3, 15600, Note_on_c, 0, 51, 28
3, 15828, Note_on_c, 0, 51, 0
3, 15840, Note_on_c, 0, 51, 29
3, 16068, Note_on_c, 0, 51, 0
3, 16080, Note_on_c, 0, 51, 29
3, 16320, Note_on_c, 0, 51, 0
3, 16320, Note_on_c, 0, 44, 0
3, 16320, Note_on_c, 0, 43, 36
3, 16560, Note_on_c, 0, 51, 28
3, 16788, Note_on_c, 0, 51, 0
3, 16800, Note_on_c, 0, 51, 28
3, 17028, Note_on_c, 0, 51, 0
3, 17040, Note_on_c, 0, 51, 28
3, 17280, Note_on_c, 0, 51, 0
3, 17280, Note_on_c, 0, 43, 0
3, 17280, Note_on_c, 0, 44, 36
3, 17520, Note_on_c, 0, 44, 0
3, 17520, Note_on_c, 0, 51, 32
3, 17760, Note_on_c, 0, 51, 0
3, 17760, Note_on_c, 0, 48, 36
3, 18000, Note_on_c, 0, 48, 0
3, 18000, Note_on_c, 0, 56, 32
3, 18240, Note_on_c, 0, 56, 0
3, 18240, Note_on_c, 0, 51, 40
3, 18480, Note_on_c, 0, 51, 0
3, 18480, Note_on_c, 0, 60, 36
3, 18720, Note_on_c, 0, 60, 0
3, 18720, Note_on_c, 0, 56, 47
3, 18960, Note_on_c, 0, 56, 0
3, 18960, Note_on_c, 0, 63, 36
3, 19200, Note_on_c, 0, 63, 0
3, 19200, Note_on_c, 0, 55, 45
3, 19440, Note_on_c, 0, 63, 29
3, 19668, Note_on_c, 0, 63, 0
3, 19680, Note_on_c, 0, 63, 29
3, 19908, Note_on_c, 0, 63, 0
3, 19920, Note_on_c, 0, 63, 29
3, 20160, Note_on_c, 0, 63, 0
3, 20160, Note_on_c, 0, 55, 0
3, 20160, Note_on_c, 0, 56, 36
3, 20400, Note_on_c, 0, 63, 29
3, 20628, Note_on_c, 0, 63, 0
3, 20640, Note_on_c, 0, 63, 29
3, 20868, Note_on_c, 0, 63, 0
3, 20880, Note_on_c, 0, 63, 29
3, 21120, Note_on_c, 0, 63, 0
3, 21120, Note_on_c, 0, 56, 0
3, 21120, Note_on_c, 0, 51, 41
3, 21360, Note_on_c, 0, 51, 0
3, 21360, Note_on_c, 0, 63, 32
3, 21600, Note_on_c, 0, 63, 0
3, 21600, Note_on_c, 0, 62, 33
3, 21840, Note_on_c, 0, 62, 0
3, 21840, Note_on_c, 0, 63, 33
3, 22080, Note_on_c, 0, 63, 0
3, 22080, Note_on_c, 0, 62, 36
3, 22320, Note_on_c, 0, 62, 0
3, 22320, Note_on_c, 0, 63, 31
3, 22560, Note_on_c, 0, 63, 0
3, 22560, Note_on_c, 0, 65, 36
3, 22800, Note_on_c, 0, 65, 0
3, 22800, Note_on_c, 0, 61, 33
3, 23040, Note_on_c, 0, 61, 0
3, 23280, Note_on_c, 0, 56, 32
3, 23520, Note_on_c, 0, 56, 0
3, 23520, Note_on_c, 0, 60, 32
3, 23760, Note_on_c, 0, 60, 0
3, 23760, Note_on_c, 0, 63, 29
3, 23960, Note_on_c, 0, 63, 0
3, 24240, Note_on_c, 0, 48, 32
3, 24480, Note_on_c, 0, 48, 0
3, 24480, Note_on_c, 0, 51, 32
3, 24720, Note_on_c, 0, 51, 0
3, 24720, Note_on_c, 0, 56, 30
3, 24960, Note_on_c, 0, 56, 0
3, 25200, Note_on_c, 0, 49, 38
3, 25200, Note_on_c, 0, 53, 38
3, 25440, Note_on_c, 0, 55, 42
3, 25452, Note_on_c, 0, 53, 0
3, 25680, Note_on_c, 0, 56, 45
3, 25692, Note_on_c, 0, 55, 0
3, 25920, Note_on_c, 0, 57, 49
3, 25932, Note_on_c, 0, 56, 0
3, 26160, Note_on_c, 0, 58, 52
3, 26172, Note_on_c, 0, 57, 0
3, 26400, Note_on_c, 0, 60, 48
3, 26412, Note_on_c, 0, 58, 0
3, 26640, Note_on_c, 0, 61, 51
3, 26652, Note_on_c, 0, 60, 0
3, 26880, Note_on_c, 0, 49, 0
3, 26880, Note_on_c, 0, 51, 32
3, 26880, Note_on_c, 0, 63, 51
3, 26892, Note_on_c, 0, 61, 0
3, 27120, Note_on_c, 0, 63, 0
3, 27120, Note_on_c, 0, 62, 45
3, 27360, Note_on_c, 0, 62, 0
3, 27360, Note_on_c, 0, 61, 46
3, 27600, Note_on_c, 0, 61, 0
3, 27600, Note_on_c, 0, 60, 46
3, 27840, Note_on_c, 0, 60, 0
3, 27840, Note_on_c, 0, 51, 0
3, 27840, Note_on_c, 0, 51, 32
3, 27840, Note_on_c, 0, 58, 51
3, 28080, Note_on_c, 0, 58, 0
3, 28080, Note_on_c, 0, 60, 44
3, 28320, Note_on_c, 0, 60, 0
3, 28320, Note_on_c, 0, 61, 44
3, 28560, Note_on_c, 0, 61, 0
3, 28560, Note_on_c, 0, 55, 44
3, 28790, Note_on_c, 0, 55, 0
3, 28800, Note_on_c, 0, 51, 0
3, 28800, Note_on_c, 0, 44, 32
3, 28800, Note_on_c, 0, 55, 51
3, 29760, Note_on_c, 0, 55, 0
3, 29760, Note_on_c, 0, 56, 31
3, 30240, Note_on_c, 0, 56, 0
3, 30240, Note_on_c, 0, 44, 0
3, 30720, Note_on_c, 0, 63, 76
3, 30720, Note_on_c, 0, 65, 76
3, 30720, Note_on_c, 0, 60, 76
3, 30720, Note_on_c, 0, 57, 76
3, 31678, Note_on_c, 0, 65, 0
3, 31680, Note_on_c, 0, 63, 0
3, 31680, Note_on_c, 0, 60, 0
3, 31680, Note_on_c, 0, 57, 0
3, 32520, Note_on_c, 0, 45, 30
3, 32520, Note_on_c, 0, 53, 36
3, 32630, Note_on_c, 0, 53, 0
3, 32630, Note_on_c, 0, 45, 0
3, 32640, Note_on_c, 0, 46, 35
3, 32640, Note_on_c, 0, 53, 41
3, 34080, Note_on_c, 0, 53, 0
3, 34080, Note_on_c, 0, 46, 0
3, 34560, Note_on_c, 0, 61, 76
3, 34560, Note_on_c, 0, 63, 76
3, 34560, Note_on_c, 0, 58, 76
3, 34560, Note_on_c, 0, 55, 76
3, 35518, Note_on_c, 0, 63, 0
3, 35520, Note_on_c, 0, 61, 0
3, 35520, Note_on_c, 0, 58, 0
3, 35520, Note_on_c, 0, 55, 0
3, 36360, Note_on_c, 0, 43, 30
3, 36360, Note_on_c, 0, 51, 36
3, 36470, Note_on_c, 0, 51, 0
3, 36470, Note_on_c, 0, 43, 0
3, 36480, Note_on_c, 0, 44, 35
3, 36480, Note_on_c, 0, 51, 41
3, 37920, Note_on_c, 0, 51, 0
3, 37920, Note_on_c, 0, 44, 0
3, 38370, Note_on_c, 0, 47, 89
3, 38400, Note_on_c, 0, 59, 92
3, 38460, Note_on_c, 0, 47, 0
3, 39120, Note_on_c, 0, 59, 0
3, 39120, Note_on_c, 0, 59, 59
3, 39160, Note_on_c, 0, 59, 0
3, 39160, Note_on_c, 0, 56, 57
3, 39200, Note_on_c, 0, 56, 0
3, 39201, Note_on_c, 0, 51, 56
3, 39240, Note_on_c, 0, 47, 56
3, 39241, Note_on_c, 0, 51, 0
3, 39280, Note_on_c, 0, 47, 0
3, 39281, Note_on_c, 0, 44, 55
3, 39321, Note_on_c, 0, 44, 0
3, 39321, Note_on_c, 0, 39, 53
3, 39360, Note_on_c, 0, 35, 91
3, 39361, Note_on_c, 0, 39, 0
3, 39600, Note_on_c, 0, 35, 0
3, 40200, Note_on_c, 0, 35, 46
3, 40200, Note_on_c, 0, 47, 46
3, 40310, Note_on_c, 0, 47, 0
3, 40310, Note_on_c, 0, 35, 0
3, 40320, Note_on_c, 0, 56, 59
3, 40320, Note_on_c, 0, 53, 59
3, 40320, Note_on_c, 0, 34, 59
3, 40320, Note_on_c, 0, 46, 59
3, 41760, Note_on_c, 0, 46, 0
3, 41760, Note_on_c, 0, 56, 0
3, 41760, Note_on_c, 0, 53, 0
3, 41760, Note_on_c, 0, 34, 0
3, 44160, Note_on_c, 0, 58, 35
3, 44160, Note_on_c, 0, 56, 29
3, 44616, Note_on_c, 0, 56, 0
3, 44616, Note_on_c, 0, 58, 0
3, 44640, Note_on_c, 0, 58, 30
3, 44640, Note_on_c, 0, 56, 25
3, 45096, Note_on_c, 0, 56, 0
3, 45096, Note_on_c, 0, 58, 0
3, 45120, Note_on_c, 0, 58, 30
3, 45120, Note_on_c, 0, 56, 25
3, 45576, Note_on_c, 0, 56, 0
3, 45576, Note_on_c, 0, 58, 0
3, 45600, Note_on_c, 0, 58, 30
3, 45600, Note_on_c, 0, 56, 25
3, 46056, Note_on_c, 0, 56, 0
3, 46056, Note_on_c, 0, 58, 0
3, 46080, Note_on_c, 0, 58, 35
3, 46080, Note_on_c, 0, 55, 29
3, 46536, Note_on_c, 0, 55, 0
3, 46536, Note_on_c, 0, 58, 0
3, 46560, Note_on_c, 0, 58, 28
3, 46560, Note_on_c, 0, 55, 23
3, 47016, Note_on_c, 0, 55, 0
3, 47016, Note_on_c, 0, 58, 0
3, 47040, Note_on_c, 0, 58, 28
3, 47040, Note_on_c, 0, 55, 23
3, 47496, Note_on_c, 0, 55, 0
3, 47496, Note_on_c, 0, 58, 0
3, 47520, Note_on_c, 0, 58, 28
3, 47520, Note_on_c, 0, 55, 23
3, 47976, Note_on_c, 0, 55, 0
3, 47976, Note_on_c, 0, 58, 0
3, 48000, Note_on_c, 0, 50, 29
3, 48000, Note_on_c, 0, 58, 35
3, 48000, Note_on_c, 0, 56, 29
3, 48456, Note_on_c, 0, 56, 0
3, 48456, Note_on_c, 0, 58, 0
3, 48456, Note_on_c, 0, 50, 0
3, 48480, Note_on_c, 0, 50, 27
3, 48480, Note_on_c, 0, 58, 33
3, 48480, Note_on_c, 0, 56, 27
3, 48936, Note_on_c, 0, 56, 0
3, 48936, Note_on_c, 0, 58, 0
3, 48936, Note_on_c, 0, 50, 0
3, 48960, Note_on_c, 0, 50, 27
3, 48960, Note_on_c, 0, 58, 33
3, 48960, Note_on_c, 0, 56, 27
3, 49416, Note_on_c, 0, 56, 0
3, 49416, Note_on_c, 0, 58, 0
3, 49416, Note_on_c, 0, 50, 0
3, 49440, Note_on_c, 0, 55, 46
3, 49440, Note_on_c, 0, 50, 25
3, 49440, Note_on_c, 0, 58, 30
3, 49800, Note_on_c, 0, 55, 0
3, 49800, Note_on_c, 0, 53, 46
3, 49910, Note_on_c, 0, 53, 0
3, 49920, Note_on_c, 0, 58, 0
3, 49920, Note_on_c, 0, 50, 0
3, 49920, Note_on_c, 0, 51, 29
3, 49920, Note_on_c, 0, 58, 35
3, 49920, Note_on_c, 0, 54, 29
3, 50376, Note_on_c, 0, 54, 0
3, 50376, Note_on_c, 0, 58, 0
3, 50376, Note_on_c, 0, 51, 0
3, 50400, Note_on_c, 0, 51, 23
3, 50400, Note_on_c, 0, 58, 28
3, 50400, Note_on_c, 0, 55, 23
3, 50856, Note_on_c, 0, 55, 0
3, 50856, Note_on_c, 0, 58, 0
3, 50856, Note_on_c, 0, 51, 0
3, 50880, Note_on_c, 0, 51, 23
3, 50880, Note_on_c, 0, 58, 28
3, 50880, Note_on_c, 0, 55, 23
3, 51336, Note_on_c, 0, 55, 0
3, 51336, Note_on_c, 0, 58, 0
3, 51336, Note_on_c, 0, 51, 0
3, 51360, Note_on_c, 0, 51, 28
3, 51360, Note_on_c, 0, 58, 28
3, 51360, Note_on_c, 0, 55, 23
3, 51816, Note_on_c, 0, 55, 0
3, 51816, Note_on_c, 0, 58, 0
3, 51816, Note_on_c, 0, 51, 0
3, 51840, Note_on_c, 0, 56, 25
3, 51840, Note_on_c, 0, 58, 30
3, 52296, Note_on_c, 0, 58, 0
3, 52296, Note_on_c, 0, 56, 0
3, 52320, Note_on_c, 0, 56, 25
3, 52320, Note_on_c, 0, 58, 30
3, 52776, Note_on_c, 0, 58, 0
3, 52776, Note_on_c, 0, 56, 0
3, 52800, Note_on_c, 0, 56, 25
3, 52800, Note_on_c, 0, 58, 30
3, 53256, Note_on_c, 0, 58, 0
3, 53256, Note_on_c, 0, 56, 0
3, 53280, Note_on_c, 0, 56, 25
3, 53280, Note_on_c, 0, 58, 30
3, 53736, Note_on_c, 0, 58, 0
3, 53736, Note_on_c, 0, 56, 0
3, 54240, Note_on_c, 0, 55, 25
3, 54240, Note_on_c, 0, 58, 30
3, 54696, Note_on_c, 0, 58, 0
3, 54696, Note_on_c, 0, 55, 0
3, 54720, Note_on_c, 0, 55, 25
3, 54720, Note_on_c, 0, 58, 30
3, 55176, Note_on_c, 0, 58, 0
3, 55176, Note_on_c, 0, 55, 0
3, 55200, Note_on_c, 0, 55, 25
3, 55200, Note_on_c, 0, 58, 30
3, 55656, Note_on_c, 0, 58, 0
3, 55656, Note_on_c, 0, 55, 0
3, 55680, Note_on_c, 0, 50, 25
3, 55680, Note_on_c, 0, 56, 25
3, 55680, Note_on_c, 0, 58, 30
3, 56136, Note_on_c, 0, 58, 0
3, 56136, Note_on_c, 0, 56, 0
3, 56136, Note_on_c, 0, 50, 0
3, 56160, Note_on_c, 0, 50, 25
3, 56160, Note_on_c, 0, 53, 25
3, 56160, Note_on_c, 0, 56, 25
3, 56160, Note_on_c, 0, 58, 30
3, 56616, Note_on_c, 0, 58, 0
3, 56616, Note_on_c, 0, 50, 0
3, 56616, Note_on_c, 0, 53, 0
3, 56616, Note_on_c, 0, 56, 0
3, 56640, Note_on_c, 0, 50, 25
3, 56640, Note_on_c, 0, 53, 25
3, 56640, Note_on_c, 0, 56, 25
3, 56640, Note_on_c, 0, 58, 30
3, 57096, Note_on_c, 0, 58, 0
3, 57096, Note_on_c, 0, 50, 0
3, 57096, Note_on_c, 0, 53, 0
3, 57096, Note_on_c, 0, 56, 0
3, 57120, Note_on_c, 0, 50, 25
3, 57120, Note_on_c, 0, 53, 25
3, 57120, Note_on_c, 0, 56, 25
3, 57120, Note_on_c, 0, 58, 30
3, 57576, Note_on_c, 0, 58, 0
3, 57576, Note_on_c, 0, 50, 0
3, 57576, Note_on_c, 0, 53, 0
3, 57576, Note_on_c, 0, 56, 0
3, 58080, Note_on_c, 0, 51, 30
3, 58080, Note_on_c, 0, 55, 30
3, 58080, Note_on_c, 0, 58, 30
3, 58560, Note_on_c, 0, 58, 0
3, 58560, Note_on_c, 0, 55, 0
3, 58560, Note_on_c, 0, 51, 0
3, 59040, Note_on_c, 0, 53, 32
3, 59040, Note_on_c, 0, 56, 32
3, 59040, Note_on_c, 0, 58, 32
3, 59040, Note_on_c, 0, 62, 32
3, 59520, Note_on_c, 0, 62, 0
3, 59520, Note_on_c, 0, 53, 0
3, 59520, Note_on_c, 0, 56, 0
3, 59520, Note_on_c, 0, 58, 0
3, 60000, Note_on_c, 0, 55, 37
3, 60000, Note_on_c, 0, 58, 37
3, 60000, Note_on_c, 0, 63, 37
3, 60480, Note_on_c, 0, 63, 0
3, 60480, Note_on_c, 0, 58, 0
3, 60480, Note_on_c, 0, 55, 0
3, 60960, Note_on_c, 0, 55, 43
3, 60960, Note_on_c, 0, 59, 43
3, 60960, Note_on_c, 0, 63, 43
3, 61440, Note_on_c, 0, 63, 0
3, 61440, Note_on_c, 0, 59, 0
3, 61440, Note_on_c, 0, 55, 0
3, 61920, Note_on_c, 0, 56, 51
3, 61920, Note_on_c, 0, 60, 51
3, 61920, Note_on_c, 0, 63, 51
3, 62400, Note_on_c, 0, 63, 0
3, 62400, Note_on_c, 0, 60, 0
3, 62400, Note_on_c, 0, 56, 0
3, 62880, Note_on_c, 0, 59, 60
3, 62880, Note_on_c, 0, 56, 60
3, 62880, Note_on_c, 0, 62, 60
3, 62880, Note_on_c, 0, 65, 60
3, 63360, Note_on_c, 0, 65, 0
3, 63360, Note_on_c, 0, 59, 0
3, 63360, Note_on_c, 0, 56, 0
3, 63360, Note_on_c, 0, 62, 0
3, 63840, Note_on_c, 0, 57, 60
3, 63840, Note_on_c, 0, 60, 60
3, 63840, Note_on_c, 0, 63, 60
3, 63840, Note_on_c, 0, 66, 60
3, 64320, Note_on_c, 0, 66, 0
3, 64320, Note_on_c, 0, 57, 0
3, 64320, Note_on_c, 0, 60, 0
3, 64320, Note_on_c, 0, 63, 0
3, 65760, Note_on_c, 0, 67, 36
3, 65760, Note_on_c, 0, 63, 30
3, 65760, Note_on_c, 0, 58, 27
3, 66240, Note_on_c, 0, 58, 0
3, 66240, Note_on_c, 0, 63, 0
3, 66240, Note_on_c, 0, 67, 0
3, 66720, Note_on_c, 0, 68, 36
3, 66720, Note_on_c, 0, 62, 31
3, 66720, Note_on_c, 0, 58, 27
3, 67200, Note_on_c, 0, 58, 0
3, 67200, Note_on_c, 0, 62, 0
3, 67200, Note_on_c, 0, 68, 0
3, 67520, Note_on_c, 0, 63, 32
3, 67680, Note_on_c, 0, 63, 0
3, 67680, Note_on_c, 0, 58, 39
3, 67840, Note_on_c, 0, 58, 0
3, 67840, Note_on_c, 0, 55, 32
3, 68000, Note_on_c, 0, 55, 0
3, 68000, Note_on_c, 0, 51, 32
3, 68160, Note_on_c, 0, 51, 0
3, 68480, Note_on_c, 0, 65, 34
3, 68640, Note_on_c, 0, 65, 0
3, 68640, Note_on_c, 0, 62, 39
3, 68800, Note_on_c, 0, 62, 0
3, 68800, Note_on_c, 0, 58, 33
3, 68960, Note_on_c, 0, 58, 0
3, 68960, Note_on_c, 0, 53, 33
3, 69120, Note_on_c, 0, 53, 0
3, 69440, Note_on_c, 0, 67, 33
3, 69600, Note_on_c, 0, 67, 0
3, 69600, Note_on_c, 0, 63, 40
3, 69760, Note_on_c, 0, 63, 0
3, 69760, Note_on_c, 0, 58, 34
3, 69920, Note_on_c, 0, 58, 0
3, 69920, Note_on_c, 0, 55, 34
3, 70080, Note_on_c, 0, 55, 0
3, 70400, Note_on_c, 0, 67, 46
3, 70560, Note_on_c, 0, 67, 0
3, 70560, Note_on_c, 0, 63, 53
3, 70720, Note_on_c, 0, 63, 0
3, 70720, Note_on_c, 0, 59, 46
3, 70880, Note_on_c, 0, 59, 0
3, 70880, Note_on_c, 0, 55, 46
3, 71040, Note_on_c, 0, 55, 0
3, 71360, Note_on_c, 0, 68, 47
3, 71520, Note_on_c, 0, 68, 0
3, 71520, Note_on_c, 0, 63, 58
3, 71680, Note_on_c, 0, 63, 0
3, 71680, Note_on_c, 0, 60, 49
3, 71840, Note_on_c, 0, 60, 0
3, 71840, Note_on_c, 0, 56, 49
3, 72000, Note_on_c, 0, 56, 0
3, 72320, Note_on_c, 0, 68, 56
3, 72480, Note_on_c, 0, 68, 0
3, 72480, Note_on_c, 0, 65, 63
3, 72640, Note_on_c, 0, 65, 0
3, 72640, Note_on_c, 0, 62, 54
3, 72800, Note_on_c, 0, 62, 0
3, 72800, Note_on_c, 0, 58, 55
3, 72960, Note_on_c, 0, 58, 0
3, 73280, Note_on_c, 0, 69, 78
3, 73440, Note_on_c, 0, 66, 57
3, 73600, Note_on_c, 0, 63, 61
3, 73760, Note_on_c, 0, 59, 65
3, 74880, Note_on_c, 0, 59, 0
3, 74880, Note_on_c, 0, 69, 0
3, 74880, Note_on_c, 0, 66, 0
3, 74880, Note_on_c, 0, 63, 0
3, 75040, Note_on_c, 0, 46, 64
3, 75120, Note_on_c, 0, 46, 0
3, 75200, Note_on_c, 0, 51, 64
3, 75280, Note_on_c, 0, 51, 0
3, 75360, Note_on_c, 0, 55, 64
3, 75440, Note_on_c, 0, 55, 0
3, 75520, Note_on_c, 0, 58, 58
3, 75600, Note_on_c, 0, 58, 0
3, 75680, Note_on_c, 0, 63, 58
3, 75760, Note_on_c, 0, 63, 0
3, 75840, Note_on_c, 0, 67, 64
3, 76000, Note_on_c, 0, 67, 0
3, 76000, Note_on_c, 0, 66, 58
3, 76160, Note_on_c, 0, 66, 0
3, 76160, Note_on_c, 0, 68, 58
3, 76320, Note_on_c, 0, 68, 0
3, 76320, Note_on_c, 0, 67, 64
3, 76440, Note_on_c, 0, 67, 0
3, 76480, Note_on_c, 0, 65, 59
3, 76600, Note_on_c, 0, 65, 0
3, 76640, Note_on_c, 0, 63, 59
3, 76760, Note_on_c, 0, 63, 0
3, 76800, Note_on_c, 0, 68, 62
3, 76800, Note_on_c, 0, 58, 52
3, 78720, Note_on_c, 0, 58, 0
3, 78720, Note_on_c, 0, 68, 0
3, 78880, Note_on_c, 0, 34, 64
3, 78960, Note_on_c, 0, 34, 0
3, 79040, Note_on_c, 0, 39, 64
3, 79120, Note_on_c, 0, 39, 0
3, 79200, Note_on_c, 0, 43, 64
3, 79280, Note_on_c, 0, 43, 0
3, 79360, Note_on_c, 0, 46, 58
3, 79440, Note_on_c, 0, 46, 0
3, 79520, Note_on_c, 0, 51, 58
3, 79600, Note_on_c, 0, 51, 0
3, 79680, Note_on_c, 0, 55, 64
3, 79840, Note_on_c, 0, 55, 0
3, 79840, Note_on_c, 0, 54, 58
3, 80000, Note_on_c, 0, 54, 0
3, 80000, Note_on_c, 0, 56, 58
3, 80160, Note_on_c, 0, 56, 0
3, 80160, Note_on_c, 0, 55, 64
3, 80280, Note_on_c, 0, 55, 0
3, 80320, Note_on_c, 0, 53, 59
3, 80440, Note_on_c, 0, 53, 0
3, 80480, Note_on_c, 0, 51, 59
3, 80600, Note_on_c, 0, 51, 0
3, 80640, Note_on_c, 0, 56, 62
3, 80640, Note_on_c, 0, 46, 52
3, 82560, Note_on_c, 0, 46, 0
3, 82560, Note_on_c, 0, 56, 0
3, 82560, Note_on_c, 0, 51, 37
3, 82560, Note_on_c, 0, 55, 43
3, 83040, Note_on_c, 0, 55, 0
3, 83040, Note_on_c, 0, 51, 0
3, 84360, Note_on_c, 0, 39, 64
3, 84385, Note_on_c, 0, 46, 67
3, 84390, Note_on_c, 0, 49, 67
3, 84405, Note_on_c, 0, 51, 69
3, 84960, Note_on_c, 0, 51, 0
3, 84960, Note_on_c, 0, 49, 0
3, 84960, Note_on_c, 0, 39, 0
3, 84970, Note_on_c, 0, 46, 0
3, 86400, Note_on_c, 0, 44, 39
3, 86880, Note_on_c, 0, 44, 0
3, 86880, Note_on_c, 0, 51, 32
3, 87360, Note_on_c, 0, 51, 0
3, 87360, Note_on_c, 0, 43, 39
3, 87840, Note_on_c, 0, 43, 0
3, 87840, Note_on_c, 0, 51, 29
3, 88320, Note_on_c, 0, 51, 0
3, 88320, Note_on_c, 0, 44, 42
3, 88800, Note_on_c, 0, 44, 0
3, 88800, Note_on_c, 0, 51, 36
3, 89280, Note_on_c, 0, 51, 0
3, 89280, Note_on_c, 0, 56, 38
3, 89760, Note_on_c, 0, 56, 0
3, 89760, Note_on_c, 0, 60, 40
3, 90240, Note_on_c, 0, 60, 0
3, 90240, Note_on_c, 0, 55, 46
3, 90240, Note_on_c, 0, 61, 46
3, 90720, Note_on_c, 0, 61, 0
3, 90720, Note_on_c, 0, 58, 32
3, 91200, Note_on_c, 0, 58, 0
3, 91200, Note_on_c, 0, 55, 0
3, 91200, Note_on_c, 0, 56, 29
3, 91680, Note_on_c, 0, 60, 32
3, 92160, Note_on_c, 0, 60, 0
3, 92160, Note_on_c, 0, 56, 0
3, 92160, Note_on_c, 0, 51, 30
3, 92160, Note_on_c, 0, 63, 36
3, 92640, Note_on_c, 0, 61, 32
3, 93120, Note_on_c, 0, 61, 0
3, 93120, Note_on_c, 0, 58, 32
3, 93600, Note_on_c, 0, 58, 0
3, 93600, Note_on_c, 0, 55, 32
3, 94080, Note_on_c, 0, 55, 0
3, 94080, Note_on_c, 0, 63, 0
3, 94080, Note_on_c, 0, 51, 0
3, 94440, Note_on_c, 0, 56, 37
3, 94560, Note_on_c, 0, 56, 0
3, 94560, Note_on_c, 0, 63, 46
3, 95040, Note_on_c, 0, 63, 0
3, 95400, Note_on_c, 0, 48, 39
3, 95520, Note_on_c, 0, 48, 0
3, 95520, Note_on_c, 0, 56, 48
3, 96000, Note_on_c, 0, 56, 0
3, 96360, Note_on_c, 0, 49, 51
3, 96480, Note_on_c, 0, 49, 0
3, 96480, Note_on_c, 0, 61, 56
3, 96840, Note_on_c, 0, 61, 0
3, 96840, Note_on_c, 0, 53, 56
3, 96960, Note_on_c, 0, 61, 62
3, 97320, Note_on_c, 0, 61, 0
3, 97320, Note_on_c, 0, 56, 56
3, 97440, Note_on_c, 0, 56, 0
3, 97440, Note_on_c, 0, 65, 65
3, 97800, Note_on_c, 0, 65, 0
3, 97800, Note_on_c, 0, 61, 65
3, 97920, Note_on_c, 0, 61, 0
3, 97920, Note_on_c, 0, 56, 72
3, 98400, Note_on_c, 0, 56, 0
3, 98400, Note_on_c, 0, 53, 0
3, 98400, Note_on_c, 0, 53, 40
3, 98400, Note_on_c, 0, 56, 48
3, 98880, Note_on_c, 0, 56, 0
3, 98880, Note_on_c, 0, 53, 0
3, 98880, Note_on_c, 0, 55, 48
3, 98880, Note_on_c, 0, 58, 57
3, 99360, Note_on_c, 0, 58, 0
3, 99360, Note_on_c, 0, 55, 0
3, 99360, Note_on_c, 0, 60, 48
3, 99360, Note_on_c, 0, 56, 40
3, 99840, Note_on_c, 0, 56, 0
3, 99840, Note_on_c, 0, 60, 0
3, 99840, Note_on_c, 0, 60, 43
3, 99840, Note_on_c, 0, 51, 43
3, 100560, Note_on_c, 0, 60, 0
3, 100560, Note_on_c, 0, 56, 31
3, 100800, Note_on_c, 0, 56, 0
3, 100800, Note_on_c, 0, 51, 0
3, 100800, Note_on_c, 0, 51, 26
3, 100800, Note_on_c, 0, 55, 31
3, 101280, Note_on_c, 0, 55, 0
3, 101280, Note_on_c, 0, 51, 0
3, 101760, Note_on_c, 0, 44, 36
3, 102000, Note_on_c, 0, 51, 28
3, 102228, Note_on_c, 0, 51, 0
3, 102240, Note_on_c, 0, 51, 29
3, 102468, Note_on_c, 0, 51, 0
3, 102480, Note_on_c, 0, 51, 29
3, 102708, Note_on_c, 0, 51, 0
3, 102720, Note_on_c, 0, 44, 0
3, 102720, Note_on_c, 0, 43, 36
3, 102960, Note_on_c, 0, 51, 28
3, 103188, Note_on_c, 0, 51, 0
3, 103200, Note_on_c, 0, 51, 28
3, 103428, Note_on_c, 0, 51, 0
3, 103440, Note_on_c, 0, 51, 28
3, 103668, Note_on_c, 0, 51, 0
3, 103680, Note_on_c, 0, 43, 0
3, 103680, Note_on_c, 0, 44, 43
3, 103800, Note_on_c, 0, 44, 0
3, 103840, Note_on_c, 0, 51, 36
3, 103960, Note_on_c, 0, 51, 0
3, 104000, Note_on_c, 0, 48, 36
3, 104120, Note_on_c, 0, 48, 0
3, 104160, Note_on_c, 0, 56, 40
3, 104280, Note_on_c, 0, 56, 0
3, 104320, Note_on_c, 0, 51, 36
3, 104440, Note_on_c, 0, 51, 0
3, 104480, Note_on_c, 0, 60, 36
3, 104600, Note_on_c, 0, 60, 0
3, 104640, Note_on_c, 0, 56, 43
3, 104760, Note_on_c, 0, 56, 0
3, 104800, Note_on_c, 0, 63, 36
3, 104920, Note_on_c, 0, 63, 0
3, 104960, Note_on_c, 0, 61, 36
3, 105080, Note_on_c, 0, 61, 0
3, 105120, Note_on_c, 0, 60, 47
3, 105240, Note_on_c, 0, 60, 0
3, 105280, Note_on_c, 0, 58, 36
3, 105400, Note_on_c, 0, 58, 0
3, 105440, Note_on_c, 0, 56, 36
3, 105560, Note_on_c, 0, 56, 0
3, 105600, Note_on_c, 0, 55, 45
3, 105840, Note_on_c, 0, 51, 29
3, 106068, Note_on_c, 0, 51, 0
3, 106080, Note_on_c, 0, 51, 29
3, 106308, Note_on_c, 0, 51, 0
3, 106320, Note_on_c, 0, 51, 29
3, 106548, Note_on_c, 0, 51, 0
3, 106560, Note_on_c, 0, 55, 0
3, 106560, Note_on_c, 0, 56, 36
3, 106800, Note_on_c, 0, 51, 29
3, 107028, Note_on_c, 0, 51, 0
3, 107040, Note_on_c, 0, 51, 29
3, 107268, Note_on_c, 0, 51, 0
3, 107280, Note_on_c, 0, 51, 29
3, 107508, Note_on_c, 0, 51, 0
3, 107520, Note_on_c, 0, 56, 0
3, 107520, Note_on_c, 0, 39, 41
3, 107640, Note_on_c, 0, 39, 0
3, 107680, Note_on_c, 0, 43, 38
3, 107800, Note_on_c, 0, 43, 0
3, 107840, Note_on_c, 0, 46, 38
3, 107960, Note_on_c, 0, 46, 0
3, 108000, Note_on_c, 0, 51, 48
3, 108120, Note_on_c, 0, 51, 0
3, 108160, Note_on_c, 0, 55, 48
3, 108280, Note_on_c, 0, 55, 0
3, 108320, Note_on_c, 0, 58, 51
3, 108440, Note_on_c, 0, 58, 0
3, 108480, Note_on_c, 0, 61, 55
3, 108600, Note_on_c, 0, 61, 0
3, 108640, Note_on_c, 0, 65, 49
3, 108760, Note_on_c, 0, 65, 0
3, 108800, Note_on_c, 0, 63, 49
3, 108920, Note_on_c, 0, 63, 0
3, 108960, Note_on_c, 0, 61, 53
3, 109080, Note_on_c, 0, 61, 0
3, 109120, Note_on_c, 0, 60, 44
3, 109240, Note_on_c, 0, 60, 0
3, 109280, Note_on_c, 0, 58, 44
3, 109400, Note_on_c, 0, 58, 0
3, 109440, Note_on_c, 0, 56, 39
3, 109560, Note_on_c, 0, 56, 0
3, 109600, Note_on_c, 0, 63, 42
3, 109720, Note_on_c, 0, 63, 0
3, 109760, Note_on_c, 0, 60, 37
3, 109880, Note_on_c, 0, 60, 0
3, 109920, Note_on_c, 0, 56, 42
3, 110040, Note_on_c, 0, 56, 0
3, 110080, Note_on_c, 0, 51, 32
3, 110200, Note_on_c, 0, 51, 0
3, 110240, Note_on_c, 0, 48, 32
3, 110360, Note_on_c, 0, 48, 0
3, 110560, Note_on_c, 0, 60, 36
3, 110680, Note_on_c, 0, 60, 0
3, 110720, Note_on_c, 0, 56, 36
3, 110840, Note_on_c, 0, 56, 0
3, 110880, Note_on_c, 0, 51, 47
3, 111000, Note_on_c, 0, 51, 0
3, 111040, Note_on_c, 0, 48, 38
3, 111160, Note_on_c, 0, 48, 0
3, 111200, Note_on_c, 0, 44, 40
3, 111320, Note_on_c, 0, 44, 0
3, 111520, Note_on_c, 0, 49, 32
3, 111680, Note_on_c, 0, 51, 36
3, 111840, Note_on_c, 0, 53, 36
3, 111848, Note_on_c, 0, 51, 0
3, 112000, Note_on_c, 0, 54, 41
3, 112008, Note_on_c, 0, 53, 0
3, 112160, Note_on_c, 0, 55, 43
3, 112168, Note_on_c, 0, 54, 0
3, 112320, Note_on_c, 0, 56, 46
3, 112328, Note_on_c, 0, 55, 0
3, 112480, Note_on_c, 0, 57, 48
3, 112488, Note_on_c, 0, 56, 0
3, 112640, Note_on_c, 0, 58, 49
3, 112648, Note_on_c, 0, 57, 0
3, 112800, Note_on_c, 0, 59, 52
3, 112808, Note_on_c, 0, 58, 0
3, 112960, Note_on_c, 0, 60, 54
3, 112968, Note_on_c, 0, 59, 0
3, 113120, Note_on_c, 0, 61, 57
3, 113128, Note_on_c, 0, 60, 0
3, 113280, Note_on_c, 0, 61, 0
3, 113280, Note_on_c, 0, 49, 0
3, 113280, Note_on_c, 0, 51, 56
3, 113440, Note_on_c, 0, 63, 56
3, 113600, Note_on_c, 0, 63, 0
3, 113600, Note_on_c, 0, 62, 45
3, 113760, Note_on_c, 0, 62, 0
3, 113920, Note_on_c, 0, 61, 46
3, 114080, Note_on_c, 0, 61, 0
3, 114080, Note_on_c, 0, 60, 46
3, 114240, Note_on_c, 0, 60, 0
3, 114240, Note_on_c, 0, 51, 0
3, 114240, Note_on_c, 0, 51, 32
3, 114400, Note_on_c, 0, 58, 51
3, 114560, Note_on_c, 0, 58, 0
3, 114560, Note_on_c, 0, 60, 44
3, 114720, Note_on_c, 0, 60, 0
3, 114880, Note_on_c, 0, 61, 44
3, 115040, Note_on_c, 0, 61, 0
3, 115040, Note_on_c, 0, 55, 44
3, 115200, Note_on_c, 0, 55, 0
3, 115200, Note_on_c, 0, 51, 0
3, 115200, Note_on_c, 0, 44, 32
3, 115200, Note_on_c, 0, 55, 51
3, 116160, Note_on_c, 0, 55, 0
3, 116160, Note_on_c, 0, 56, 35
3, 116640, Note_on_c, 0, 56, 0
3, 116640, Note_on_c, 0, 44, 0
3, 117120, Note_on_c, 0, 63, 76
3, 117120, Note_on_c, 0, 65, 76
3, 117120, Note_on_c, 0, 60, 76
3, 117120, Note_on_c, 0, 57, 76
3, 118078, Note_on_c, 0, 65, 0
3, 118080, Note_on_c, 0, 63, 0
3, 118080, Note_on_c, 0, 60, 0
3, 118080, Note_on_c, 0, 57, 0
3, 118920, Note_on_c, 0, 45, 30
3, 118920, Note_on_c, 0, 53, 36
3, 119030, Note_on_c, 0, 53, 0
3, 119030, Note_on_c, 0, 45, 0
3, 119040, Note_on_c, 0, 46, 35
3, 119040, Note_on_c, 0, 53, 41
3, 120480, Note_on_c, 0, 53, 0
3, 120480, Note_on_c, 0, 46, 0
3, 120960, Note_on_c, 0, 61, 76
3, 120960, Note_on_c, 0, 63, 76
3, 120960, Note_on_c, 0, 58, 76
3, 120960, Note_on_c, 0, 55, 76
3, 121918, Note_on_c, 0, 63, 0
3, 121920, Note_on_c, 0, 61, 0
3, 121920, Note_on_c, 0, 58, 0
3, 121920, Note_on_c, 0, 55, 0
3, 122760, Note_on_c, 0, 43, 30
3, 122760, Note_on_c, 0, 51, 36
3, 122870, Note_on_c, 0, 51, 0
3, 122870, Note_on_c, 0, 43, 0
3, 122880, Note_on_c, 0, 44, 35
3, 122880, Note_on_c, 0, 51, 41
3, 124320, Note_on_c, 0, 51, 0
3, 124320, Note_on_c, 0, 44, 0
3, 124770, Note_on_c, 0, 47, 89
3, 124800, Note_on_c, 0, 59, 92
3, 124860, Note_on_c, 0, 47, 0
3, 125520, Note_on_c, 0, 59, 0
3, 125520, Note_on_c, 0, 59, 59
3, 125560, Note_on_c, 0, 59, 0
3, 125560, Note_on_c, 0, 56, 57
3, 125600, Note_on_c, 0, 56, 0
3, 125600, Note_on_c, 0, 52, 56
3, 125640, Note_on_c, 0, 52, 0
3, 125640, Note_on_c, 0, 47, 56
3, 125680, Note_on_c, 0, 47, 0
3, 125681, Note_on_c, 0, 44, 55
3, 125720, Note_on_c, 0, 40, 53
3, 125721, Note_on_c, 0, 44, 0
3, 125760, Note_on_c, 0, 40, 0
3, 125760, Note_on_c, 0, 35, 91
3, 126000, Note_on_c, 0, 35, 0
3, 126600, Note_on_c, 0, 35, 46
3, 126600, Note_on_c, 0, 47, 46
3, 126710, Note_on_c, 0, 47, 0
3, 126710, Note_on_c, 0, 35, 0
3, 126720, Note_on_c, 0, 35, 70
3, 126720, Note_on_c, 0, 47, 52
3, 128160, Note_on_c, 0, 47, 0
3, 128160, Note_on_c, 0, 35, 0
3, 128520, Note_on_c, 0, 35, 46
3, 128520, Note_on_c, 0, 47, 46
3, 128630, Note_on_c, 0, 47, 0
3, 128630, Note_on_c, 0, 35, 0
3, 128640, Note_on_c, 0, 35, 70
3, 128640, Note_on_c, 0, 47, 52
3, 129600, Note_on_c, 0, 47, 0
3, 129600, Note_on_c, 0, 35, 0
3, 129600, Note_on_c, 0, 34, 43
3, 129600, Note_on_c, 0, 46, 46
3, 130080, Note_on_c, 0, 46, 0
3, 130080, Note_on_c, 0, 34, 0
3, 130440, Note_on_c, 0, 34, 46
3, 130440, Note_on_c, 0, 46, 46
3, 130550, Note_on_c, 0, 46, 0
3, 130550, Note_on_c, 0, 34, 0
3, 130560, Note_on_c, 0, 34, 70
3, 130560, Note_on_c, 0, 46, 52
3, 131520, Note_on_c, 0, 46, 0
3, 131520, Note_on_c, 0, 34, 0
3, 131520, Note_on_c, 0, 39, 43
3, 131520, Note_on_c, 0, 51, 46
3, 131760, Note_on_c, 0, 51, 0
3, 131760, Note_on_c, 0, 39, 0
3, 134400, Note_on_c, 0, 63, 35
3, 134400, Note_on_c, 0, 61, 29
3, 134856, Note_on_c, 0, 61, 0
3, 134856, Note_on_c, 0, 63, 0
3, 134880, Note_on_c, 0, 63, 30
3, 134880, Note_on_c, 0, 61, 25
3, 135336, Note_on_c, 0, 61, 0
3, 135336, Note_on_c, 0, 63, 0
3, 135360, Note_on_c, 0, 63, 30
3, 135360, Note_on_c, 0, 61, 25
3, 135816, Note_on_c, 0, 61, 0
3, 135816, Note_on_c, 0, 63, 0
3, 135840, Note_on_c, 0, 63, 30
3, 135840, Note_on_c, 0, 61, 25
3, 136296, Note_on_c, 0, 61, 0
3, 136296, Note_on_c, 0, 63, 0
3, 136320, Note_on_c, 0, 63, 35
3, 136320, Note_on_c, 0, 60, 29
3, 136776, Note_on_c, 0, 60, 0
3, 136776, Note_on_c, 0, 63, 0
3, 136800, Note_on_c, 0, 63, 28
3, 136800, Note_on_c, 0, 60, 23
3, 137256, Note_on_c, 0, 60, 0
3, 137256, Note_on_c, 0, 63, 0
3, 137280, Note_on_c, 0, 63, 28
3, 137280, Note_on_c, 0, 60, 23
3, 137736, Note_on_c, 0, 60, 0
3, 137736, Note_on_c, 0, 63, 0
3, 137760, Note_on_c, 0, 63, 28
3, 137760, Note_on_c, 0, 60, 23
3, 138216, Note_on_c, 0, 60, 0
3, 138216, Note_on_c, 0, 63, 0
3, 138240, Note_on_c, 0, 55, 29
3, 138240, Note_on_c, 0, 63, 35
3, 138240, Note_on_c, 0, 61, 29
3, 138696, Note_on_c, 0, 61, 0
3, 138696, Note_on_c, 0, 63, 0
3, 138696, Note_on_c, 0, 55, 0
3, 138720, Note_on_c, 0, 55, 25
3, 138720, Note_on_c, 0, 63, 30
3, 138720, Note_on_c, 0, 61, 25
3, 139176, Note_on_c, 0, 61, 0
3, 139176, Note_on_c, 0, 63, 0
3, 139176, Note_on_c, 0, 55, 0
3, 139200, Note_on_c, 0, 55, 25
3, 139200, Note_on_c, 0, 63, 30
3, 139200, Note_on_c, 0, 61, 25
3, 139656, Note_on_c, 0, 61, 0
3, 139656, Note_on_c, 0, 63, 0
3, 139656, Note_on_c, 0, 55, 0
3, 139680, Note_on_c, 0, 55, 25
3, 139680, Note_on_c, 0, 63, 30
3, 139680, Note_on_c, 0, 60, 25
3, 140040, Note_on_c, 0, 60, 0
3, 140040, Note_on_c, 0, 58, 25
3, 140160, Note_on_c, 0, 58, 0
3, 140160, Note_on_c, 0, 63, 0
3, 140160, Note_on_c, 0, 55, 0
3, 140160, Note_on_c, 0, 56, 29
3, 140160, Note_on_c, 0, 63, 35
3, 140160, Note_on_c, 0, 59, 29
3, 140616, Note_on_c, 0, 59, 0
3, 140616, Note_on_c, 0, 63, 0
3, 140616, Note_on_c, 0, 56, 0
3, 140640, Note_on_c, 0, 56, 23
3, 140640, Note_on_c, 0, 63, 28
3, 140640, Note_on_c, 0, 60, 23
3, 141096, Note_on_c, 0, 60, 0
3, 141096, Note_on_c, 0, 63, 0
3, 141096, Note_on_c, 0, 56, 0
3, 141120, Note_on_c, 0, 56, 23
3, 141120, Note_on_c, 0, 63, 28
3, 141120, Note_on_c, 0, 60, 23
3, 141576, Note_on_c, 0, 60, 0
3, 141576, Note_on_c, 0, 63, 0
3, 141576, Note_on_c, 0, 56, 0
3, 141600, Note_on_c, 0, 56, 28
3, 141600, Note_on_c, 0, 63, 28
3, 141600, Note_on_c, 0, 60, 23
3, 142056, Note_on_c, 0, 60, 0
3, 142056, Note_on_c, 0, 63, 0
3, 142056, Note_on_c, 0, 56, 0
3, 142080, Note_on_c, 0, 61, 25
3, 142080, Note_on_c, 0, 63, 30
3, 142536, Note_on_c, 0, 63, 0
3, 142536, Note_on_c, 0, 61, 0
3, 142560, Note_on_c, 0, 61, 25
3, 142560, Note_on_c, 0, 63, 30
3, 143016, Note_on_c, 0, 63, 0
3, 143016, Note_on_c, 0, 61, 0
3, 143040, Note_on_c, 0, 61, 25
3, 143040, Note_on_c, 0, 63, 30
3, 143496, Note_on_c, 0, 63, 0
3, 143496, Note_on_c, 0, 61, 0
3, 143520, Note_on_c, 0, 61, 25
3, 143520, Note_on_c, 0, 63, 30
3, 143976, Note_on_c, 0, 63, 0
3, 143976, Note_on_c, 0, 61, 0
3, 144480, Note_on_c, 0, 60, 25
3, 144480, Note_on_c, 0, 63, 30
3, 144936, Note_on_c, 0, 63, 0
3, 144936, Note_on_c, 0, 60, 0
3, 144960, Note_on_c, 0, 60, 25
3, 144960, Note_on_c, 0, 63, 30
3, 145416, Note_on_c, 0, 63, 0
3, 145416, Note_on_c, 0, 60, 0
3, 145440, Note_on_c, 0, 60, 25
3, 145440, Note_on_c, 0, 63, 30
3, 145896, Note_on_c, 0, 63, 0
3, 145896, Note_on_c, 0, 60, 0
3, 145920, Note_on_c, 0, 55, 25
3, 145920, Note_on_c, 0, 61, 25
3, 145920, Note_on_c, 0, 63, 30
3, 146376, Note_on_c, 0, 63, 0
3, 146376, Note_on_c, 0, 61, 0
3, 146376, Note_on_c, 0, 55, 0
3, 146400, Note_on_c, 0, 55, 25
3, 146400, Note_on_c, 0, 58, 25
3, 146400, Note_on_c, 0, 61, 25
3, 146400, Note_on_c, 0, 63, 30
3, 146856, Note_on_c, 0, 63, 0
3, 146856, Note_on_c, 0, 55, 0
3, 146856, Note_on_c, 0, 58, 0
3, 146856, Note_on_c, 0, 61, 0
3, 146880, Note_on_c, 0, 55, 25
3, 146880, Note_on_c, 0, 58, 25
3, 146880, Note_on_c, 0, 61, 25
3, 146880, Note_on_c, 0, 63, 30
3, 147336, Note_on_c, 0, 63, 0
3, 147336, Note_on_c, 0, 55, 0
3, 147336, Note_on_c, 0, 58, 0
3, 147336, Note_on_c, 0, 61, 0
3, 147360, Note_on_c, 0, 55, 25
3, 147360, Note_on_c, 0, 58, 25
3, 147360, Note_on_c, 0, 61, 25
3, 147360, Note_on_c, 0, 63, 30
3, 147816, Note_on_c, 0, 63, 0
3, 147816, Note_on_c, 0, 55, 0
3, 147816, Note_on_c, 0, 58, 0
3, 147816, Note_on_c, 0, 61, 0
3, 148320, Note_on_c, 0, 56, 30
3, 148320, Note_on_c, 0, 60, 30
3, 148320, Note_on_c, 0, 63, 30
3, 148800, Note_on_c, 0, 63, 0
3, 148800, Note_on_c, 0, 60, 0
3, 148800, Note_on_c, 0, 56, 0
3, 149280, Note_on_c, 0, 58, 32
3, 149280, Note_on_c, 0, 61, 32
3, 149280, Note_on_c, 0, 63, 32
3, 149280, Note_on_c, 0, 67, 32
3, 149760, Note_on_c, 0, 67, 0
3, 149760, Note_on_c, 0, 58, 0
3, 149760, Note_on_c, 0, 61, 0
3, 149760, Note_on_c, 0, 63, 0
3, 150240, Note_on_c, 0, 60, 37
3, 150240, Note_on_c, 0, 63, 37
3, 150240, Note_on_c, 0, 68, 37
3, 150720, Note_on_c, 0, 68, 0
3, 150720, Note_on_c, 0, 63, 0
3, 150720, Note_on_c, 0, 60, 0
3, 151200, Note_on_c, 0, 60, 43
3, 151200, Note_on_c, 0, 64, 43
3, 151200, Note_on_c, 0, 68, 43
3, 151680, Note_on_c, 0, 68, 0
3, 151680, Note_on_c, 0, 64, 0
3, 151680, Note_on_c, 0, 60, 0
3, 152160, Note_on_c, 0, 61, 51
3, 152160, Note_on_c, 0, 65, 51
3, 152160, Note_on_c, 0, 68, 51
3, 152640, Note_on_c, 0, 68, 0
3, 152640, Note_on_c, 0, 65, 0
3, 152640, Note_on_c, 0, 61, 0
3, 153120, Note_on_c, 0, 64, 60
3, 153120, Note_on_c, 0, 61, 60
3, 153120, Note_on_c, 0, 67, 60
3, 153120, Note_on_c, 0, 70, 60
3, 153600, Note_on_c, 0, 70, 0
3, 153600, Note_on_c, 0, 64, 0
3, 153600, Note_on_c, 0, 61, 0
3, 153600, Note_on_c, 0, 67, 0
3, 154080, Note_on_c, 0, 62, 60
3, 154080, Note_on_c, 0, 65, 60
3, 154080, Note_on_c, 0, 68, 60
3, 154080, Note_on_c, 0, 71, 60
3, 154560, Note_on_c, 0, 71, 0
3, 154560, Note_on_c, 0, 62, 0
3, 154560, Note_on_c, 0, 65, 0
3, 154560, Note_on_c, 0, 68, 0
3, 156000, Note_on_c, 0, 60, 40
3, 156000, Note_on_c, 0, 56, 34
3, 156000, Note_on_c, 0, 51, 34
3, 156480, Note_on_c, 0, 51, 0
3, 156480, Note_on_c, 0, 56, 0
3, 156480, Note_on_c, 0, 60, 0
3, 156960, Note_on_c, 0, 61, 40
3, 156960, Note_on_c, 0, 55, 34
3, 156960, Note_on_c, 0, 51, 34
3, 157440, Note_on_c, 0, 51, 0
3, 157440, Note_on_c, 0, 55, 0
3, 157440, Note_on_c, 0, 61, 0
3, 157760, Note_on_c, 0, 56, 32
3, 157920, Note_on_c, 0, 56, 0
3, 157920, Note_on_c, 0, 51, 39
3, 158080, Note_on_c, 0, 51, 0
3, 158080, Note_on_c, 0, 48, 32
3, 158240, Note_on_c, 0, 48, 0
3, 158240, Note_on_c, 0, 44, 32
3, 158400, Note_on_c, 0, 44, 0
3, 158720, Note_on_c, 0, 58, 34
3, 158880, Note_on_c, 0, 58, 0
3, 158880, Note_on_c, 0, 55, 39
3, 159040, Note_on_c, 0, 55, 0
3, 159040, Note_on_c, 0, 51, 33
3, 159200, Note_on_c, 0, 51, 0
3, 159200, Note_on_c, 0, 46, 33
3, 159360, Note_on_c, 0, 46, 0
3, 159680, Note_on_c, 0, 60, 33
3, 159840, Note_on_c, 0, 60, 0
3, 159840, Note_on_c, 0, 56, 40
3, 160000, Note_on_c, 0, 56, 0
3, 160000, Note_on_c, 0, 51, 34
3, 160160, Note_on_c, 0, 51, 0
3, 160160, Note_on_c, 0, 48, 34
3, 160320, Note_on_c, 0, 48, 0
3, 160640, Note_on_c, 0, 60, 46
3, 160800, Note_on_c, 0, 60, 0
3, 160800, Note_on_c, 0, 56, 53
3, 160960, Note_on_c, 0, 56, 0
3, 160960, Note_on_c, 0, 52, 46
3, 161120, Note_on_c, 0, 52, 0
3, 161120, Note_on_c, 0, 48, 46
3, 161280, Note_on_c, 0, 48, 0
3, 161600, Note_on_c, 0, 61, 47
3, 161760, Note_on_c, 0, 61, 0
3, 161760, Note_on_c, 0, 56, 58
3, 161920, Note_on_c, 0, 56, 0
3, 161920, Note_on_c, 0, 53, 49
3, 162080, Note_on_c, 0, 53, 0
3, 162080, Note_on_c, 0, 49, 49
3, 162240, Note_on_c, 0, 49, 0
3, 162560, Note_on_c, 0, 61, 56
3, 162720, Note_on_c, 0, 61, 0
3, 162720, Note_on_c, 0, 58, 63
3, 162880, Note_on_c, 0, 58, 0
3, 162880, Note_on_c, 0, 55, 54
3, 163040, Note_on_c, 0, 55, 0
3, 163040, Note_on_c, 0, 51, 55
3, 163200, Note_on_c, 0, 51, 0
3, 163520, Note_on_c, 0, 62, 78
3, 163680, Note_on_c, 0, 59, 57
3, 163840, Note_on_c, 0, 56, 61
3, 164000, Note_on_c, 0, 52, 65
3, 165120, Note_on_c, 0, 52, 0
3, 165120, Note_on_c, 0, 62, 0
3, 165120, Note_on_c, 0, 59, 0
3, 165120, Note_on_c, 0, 56, 0
3, 165280, Note_on_c, 0, 51, 64
3, 165360, Note_on_c, 0, 51, 0
3, 165440, Note_on_c, 0, 56, 64
3, 165520, Note_on_c, 0, 56, 0
3, 165600, Note_on_c, 0, 60, 64
3, 165680, Note_on_c, 0, 60, 0
3, 165760, Note_on_c, 0, 63, 58
3, 165840, Note_on_c, 0, 63, 0
3, 165920, Note_on_c, 0, 68, 58
3, 166000, Note_on_c, 0, 68, 0
3, 166080, Note_on_c, 0, 72, 64
3, 166240, Note_on_c, 0, 72, 0
3, 166240, Note_on_c, 0, 71, 58
3, 166400, Note_on_c, 0, 71, 0
3, 166400, Note_on_c, 0, 73, 58
3, 166560, Note_on_c, 0, 73, 0
3, 166560, Note_on_c, 0, 72, 64
3, 166680, Note_on_c, 0, 72, 0
3, 166720, Note_on_c, 0, 70, 59
3, 166840, Note_on_c, 0, 70, 0
3, 166880, Note_on_c, 0, 68, 59
3, 167000, Note_on_c, 0, 68, 0
3, 167040, Note_on_c, 0, 73, 62
3, 167040, Note_on_c, 0, 63, 52
3, 168960, Note_on_c, 0, 63, 0
3, 168960, Note_on_c, 0, 73, 0
3, 169120, Note_on_c, 0, 39, 64
3, 169200, Note_on_c, 0, 39, 0
3, 169280, Note_on_c, 0, 44, 64
3, 169360, Note_on_c, 0, 44, 0
3, 169440, Note_on_c, 0, 48, 64
3, 169520, Note_on_c, 0, 48, 0
3, 169600, Note_on_c, 0, 51, 58
3, 169680, Note_on_c, 0, 51, 0
3, 169760, Note_on_c, 0, 56, 58
3, 169840, Note_on_c, 0, 56, 0
3, 169920, Note_on_c, 0, 60, 64
3, 170080, Note_on_c, 0, 60, 0
3, 170080, Note_on_c, 0, 59, 58
3, 170240, Note_on_c, 0, 59, 0
3, 170240, Note_on_c, 0, 61, 58
3, 170400, Note_on_c, 0, 61, 0
3, 170400, Note_on_c, 0, 60, 64
3, 170520, Note_on_c, 0, 60, 0
3, 170560, Note_on_c, 0, 58, 59
3, 170680, Note_on_c, 0, 58, 0
3, 170720, Note_on_c, 0, 56, 59
3, 170840, Note_on_c, 0, 56, 0
3, 170880, Note_on_c, 0, 61, 62
3, 170880, Note_on_c, 0, 51, 52
3, 172800, Note_on_c, 0, 51, 0
3, 172800, Note_on_c, 0, 61, 0
3, 172800, Note_on_c, 0, 56, 39
3, 173280, Note_on_c, 0, 56, 0
3, 173280, Note_on_c, 0, 51, 32
3, 173760, Note_on_c, 0, 51, 0
3, 173760, Note_on_c, 0, 55, 39
3, 174240, Note_on_c, 0, 55, 0
3, 174240, Note_on_c, 0, 51, 29
3, 174720, Note_on_c, 0, 51, 0
3, 174720, Note_on_c, 0, 56, 42
3, 175200, Note_on_c, 0, 56, 0
3, 175200, Note_on_c, 0, 51, 36
3, 175680, Note_on_c, 0, 51, 0
3, 175680, Note_on_c, 0, 48, 38
3, 176160, Note_on_c, 0, 48, 0
3, 176160, Note_on_c, 0, 44, 40
3, 176640, Note_on_c, 0, 44, 0
3, 176640, Note_on_c, 0, 43, 46
3, 177120, Note_on_c, 0, 43, 0
3, 177120, Note_on_c, 0, 39, 32
3, 177600, Note_on_c, 0, 39, 0
3, 177600, Note_on_c, 0, 44, 29
3, 178080, Note_on_c, 0, 44, 0
3, 178080, Note_on_c, 0, 48, 32
3, 178560, Note_on_c, 0, 48, 0
3, 178560, Note_on_c, 0, 51, 36
3, 179040, Note_on_c, 0, 51, 0
3, 179040, Note_on_c, 0, 53, 42
3, 179520, Note_on_c, 0, 53, 0
3, 179520, Note_on_c, 0, 51, 36
3, 180000, Note_on_c, 0, 49, 33
3, 180480, Note_on_c, 0, 49, 0
3, 180480, Note_on_c, 0, 48, 43
3, 180960, Note_on_c, 0, 51, 0
3, 180960, Note_on_c, 0, 56, 43
3, 181440, Note_on_c, 0, 48, 0
3, 181440, Note_on_c, 0, 46, 36
3, 181920, Note_on_c, 0, 56, 0
3, 181920, Note_on_c, 0, 55, 43
3, 182400, Note_on_c, 0, 46, 0
3, 182400, Note_on_c, 0, 44, 46
3, 182880, Note_on_c, 0, 55, 0
3, 182880, Note_on_c, 0, 56, 43
3, 183360, Note_on_c, 0, 44, 0
3, 183360, Note_on_c, 0, 49, 45
3, 183840, Note_on_c, 0, 56, 0
3, 183840, Note_on_c, 0, 58, 43
3, 184080, Note_on_c, 0, 58, 0
3, 184080, Note_on_c, 0, 61, 41
3, 184320, Note_on_c, 0, 61, 0
3, 184320, Note_on_c, 0, 49, 0
3, 184320, Note_on_c, 0, 51, 53
3, 184800, Note_on_c, 0, 60, 53
3, 185280, Note_on_c, 0, 51, 0
3, 185280, Note_on_c, 0, 51, 36
3, 185760, Note_on_c, 0, 60, 0
3, 185760, Note_on_c, 0, 55, 53
3, 186240, Note_on_c, 0, 51, 0
3, 186240, Note_on_c, 0, 44, 49
3, 186240, Note_on_c, 0, 51, 49
3, 186720, Note_on_c, 0, 55, 0
3, 186720, Note_on_c, 0, 56, 53
3, 187200, Note_on_c, 0, 56, 0
3, 187200, Note_on_c, 0, 51, 0
3, 187200, Note_on_c, 0, 44, 0
3, 187200, Note_on_c, 0, 46, 46
3, 187200, Note_on_c, 0, 51, 46
3, 187200, Note_on_c, 0, 58, 55
3, 187680, Note_on_c, 0, 58, 0
3, 187680, Note_on_c, 0, 51, 0
3, 187680, Note_on_c, 0, 46, 0
3, 187680, Note_on_c, 0, 47, 50
3, 187680, Note_on_c, 0, 51, 50
3, 187680, Note_on_c, 0, 59, 59
3, 188160, Note_on_c, 0, 59, 0
3, 188160, Note_on_c, 0, 51, 0
3, 188160, Note_on_c, 0, 47, 0
3, 188160, Note_on_c, 0, 60, 53
3, 188160, Note_on_c, 0, 48, 64
3, 188160, Note_on_c, 0, 51, 64
3, 188400, Note_on_c, 0, 56, 53
3, 188640, Note_on_c, 0, 60, 0
3, 188880, Note_on_c, 0, 56, 0
3, 188880, Note_on_c, 0, 56, 53
3, 189120, Note_on_c, 0, 51, 0
3, 189120, Note_on_c, 0, 48, 0
3, 189120, Note_on_c, 0, 46, 52
3, 189120, Note_on_c, 0, 51, 52
3, 189360, Note_on_c, 0, 56, 0
3, 189360, Note_on_c, 0, 55, 53
3, 189840, Note_on_c, 0, 55, 0
3, 189840, Note_on_c, 0, 55, 53
3, 190080, Note_on_c, 0, 51, 0
3, 190080, Note_on_c, 0, 46, 0
3, 190080, Note_on_c, 0, 44, 55
3, 190320, Note_on_c, 0, 55, 0
3, 190320, Note_on_c, 0, 56, 53
3, 190800, Note_on_c, 0, 56, 0
3, 190800, Note_on_c, 0, 56, 53
3, 191040, Note_on_c, 0, 44, 0
3, 191040, Note_on_c, 0, 49, 48
3, 191280, Note_on_c, 0, 57, 53
3, 191520, Note_on_c, 0, 57, 0
3, 191520, Note_on_c, 0, 56, 0
3, 191520, Note_on_c, 0, 58, 53
3, 191760, Note_on_c, 0, 58, 0
3, 191760, Note_on_c, 0, 61, 53
3, 192000, Note_on_c, 0, 49, 0
3, 192000, Note_on_c, 0, 51, 58
3, 192480, Note_on_c, 0, 61, 0
3, 192480, Note_on_c, 0, 60, 53
3, 192960, Note_on_c, 0, 60, 0
3, 192960, Note_on_c, 0, 51, 0
3, 192960, Note_on_c, 0, 61, 53
3, 192960, Note_on_c, 0, 51, 52
3, 193440, Note_on_c, 0, 61, 0
3, 193440, Note_on_c, 0, 58, 46
3, 193440, Note_on_c, 0, 61, 46
3, 193920, Note_on_c, 0, 61, 0
3, 193920, Note_on_c, 0, 58, 0
3, 193920, Note_on_c, 0, 51, 0
3, 193920, Note_on_c, 0, 44, 40
3, 193920, Note_on_c, 0, 56, 40
3, 194400, Note_on_c, 0, 56, 0
3, 194400, Note_on_c, 0, 44, 0
3, 194400, Note_on_c, 0, 48, 36
3, 194880, Note_on_c, 0, 48, 0
3, 194880, Note_on_c, 0, 51, 36
3, 195360, Note_on_c, 0, 51, 0
3, 195360, Note_on_c, 0, 56, 36
3, 195840, Note_on_c, 0, 56, 0
3, 195840, Note_on_c, 0, 55, 40
3, 196320, Note_on_c, 0, 55, 0
3, 196320, Note_on_c, 0, 53, 36
3, 196800, Note_on_c, 0, 53, 0
3, 196800, Note_on_c, 0, 51, 36
3, 197280, Note_on_c, 0, 51, 0
3, 197280, Note_on_c, 0, 55, 39
3, 197760, Note_on_c, 0, 55, 0
3, 197760, Note_on_c, 0, 56, 40
3, 198240, Note_on_c, 0, 56, 0
3, 198240, Note_on_c, 0, 51, 36
3, 198720, Note_on_c, 0, 51, 0
3, 198720, Note_on_c, 0, 48, 36
3, 199200, Note_on_c, 0, 48, 0
3, 199200, Note_on_c, 0, 44, 33
3, 199680, Note_on_c, 0, 44, 0
3, 199680, Note_on_c, 0, 43, 40
3, 200160, Note_on_c, 0, 43, 0
3, 200160, Note_on_c, 0, 41, 37
3, 200640, Note_on_c, 0, 41, 0
3, 200640, Note_on_c, 0, 39, 40
3, 201120, Note_on_c, 0, 39, 0
3, 201120, Note_on_c, 0, 43, 38
3, 201600, Note_on_c, 0, 43, 0
3, 201600, Note_on_c, 0, 44, 40
3, 202080, Note_on_c, 0, 44, 0
3, 202080, Note_on_c, 0, 39, 36
3, 202560, Note_on_c, 0, 39, 0
3, 202560, Note_on_c, 0, 36, 36
3, 203040, Note_on_c, 0, 36, 0
3, 203040, Note_on_c, 0, 32, 30
3, 203040, Note_on_c, 0, 44, 36
3, 203520, Note_on_c, 0, 44, 0
3, 203520, Note_on_c, 0, 32, 0
3, 203520, Note_on_c, 0, 31, 34
3, 203520, Note_on_c, 0, 43, 40
3, 204000, Note_on_c, 0, 43, 0
3, 204000, Note_on_c, 0, 31, 0
3, 204000, Note_on_c, 0, 29, 30
3, 204000, Note_on_c, 0, 41, 36
3, 204480, Note_on_c, 0, 41, 0
3, 204480, Note_on_c, 0, 29, 0
3, 204480, Note_on_c, 0, 31, 30
3, 204480, Note_on_c, 0, 43, 36
3, 204960, Note_on_c, 0, 43, 0
3, 204960, Note_on_c, 0, 31, 0
3, 204960, Note_on_c, 0, 39, 39
3, 205440, Note_on_c, 0, 39, 0
3, 205440, Note_on_c, 0, 32, 40
3, 205920, Note_on_c, 0, 32, 0
3, 205920, Note_on_c, 0, 44, 35
3, 206400, Note_on_c, 0, 39, 34
3, 206880, Note_on_c, 0, 39, 0
3, 206880, Note_on_c, 0, 36, 31
3, 207360, Note_on_c, 0, 36, 0
3, 207360, Note_on_c, 0, 32, 31
3, 207840, Note_on_c, 0, 32, 0
3, 207840, Note_on_c, 0, 44, 0
3, 207840, Note_on_c, 0, 44, 33
3, 208320, Note_on_c, 0, 39, 35
3, 208800, Note_on_c, 0, 39, 0
3, 208800, Note_on_c, 0, 36, 33
3, 209280, Note_on_c, 0, 36, 0
3, 209280, Note_on_c, 0, 32, 29
3, 209760, Note_on_c, 0, 32, 0
3, 209760, Note_on_c, 0, 44, 0
3, 209760, Note_on_c, 0, 44, 31
3, 210240, Note_on_c, 0, 39, 32
3, 210720, Note_on_c, 0, 39, 0
3, 210720, Note_on_c, 0, 36, 30
3, 211200, Note_on_c, 0, 36, 0
3, 211200, Note_on_c, 0, 32, 26
3, 211680, Note_on_c, 0, 32, 0
3, 211680, Note_on_c, 0, 44, 0
3, 212160, Note_on_c, 0, 32, 24
3, 212640, Note_on_c, 0, 32, 0
3, 213120, Note_on_c, 0, 32, 25
3, 215040, Note_on_c, 0, 32, 0
3, 215040, End_track
4, 0, Start_track
4, 0, Title_t, "Pedale"
4, 0, Program_c, 0, 0
4, 57, Control_c, 0, 64, 127
4, 974, Control_c, 0, 64, 0
4, 1038, Control_c, 0, 64, 127
4, 1920, Control_c, 0, 64, 0
4, 2423, Control_c, 0, 64, 127
4, 3380, Control_c, 0, 64, 0
4, 3912, Control_c, 0, 64, 127
4, 4795, Control_c, 0, 64, 0
4, 4837, Control_c, 0, 64, 127
4, 5760, Control_c, 0, 64, 0
4, 6172, Control_c, 0, 64, 127
4, 7216, Control_c, 0, 64, 0
4, 7828, Control_c, 0, 64, 127
4, 8655, Control_c, 0, 64, 0
4, 8810, Control_c, 0, 64, 127
4, 9606, Control_c, 0, 64, 0
4, 9741, Control_c, 0, 64, 127
4, 10566, Control_c, 0, 64, 0
4, 10620, Control_c, 0, 64, 127
4, 11496, Control_c, 0, 64, 0
4, 12579, Control_c, 0, 64, 127
4, 12974, Control_c, 0, 64, 0
4, 13130, Control_c, 0, 64, 127
4, 13440, Control_c, 0, 64, 0
4, 13476, Control_c, 0, 64, 127
4, 14409, Control_c, 0, 64, 0
4, 14447, Control_c, 0, 64, 127
4, 14640, Control_c, 0, 64, 127
4, 14656, Control_c, 0, 64, 0
4, 14888, Control_c, 0, 64, 0
4, 14911, Control_c, 0, 64, 127
4, 15374, Control_c, 0, 64, 0
4, 15420, Control_c, 0, 64, 127
4, 16334, Control_c, 0, 64, 0
4, 16398, Control_c, 0, 64, 127
4, 17280, Control_c, 0, 64, 0
4, 17506, Control_c, 0, 64, 127
4, 19200, Control_c, 0, 64, 0
4, 19272, Control_c, 0, 64, 127
4, 20170, Control_c, 0, 64, 0
4, 20223, Control_c, 0, 64, 127
4, 21120, Control_c, 0, 64, 0
4, 21395, Control_c, 0, 64, 127
4, 22080, Control_c, 0, 64, 0
4, 22252, Control_c, 0, 64, 127
4, 23040, Control_c, 0, 64, 0
4, 23076, Control_c, 0, 64, 127
4, 24015, Control_c, 0, 64, 0
4, 24050, Control_c, 0, 64, 127
4, 24966, Control_c, 0, 64, 0
4, 25038, Control_c, 0, 64, 127
4, 25200, Control_c, 0, 64, 0
4, 26949, Control_c, 0, 64, 127
4, 27368, Control_c, 0, 64, 0
4, 27497, Control_c, 0, 64, 127
4, 27849, Control_c, 0, 64, 0
4, 28000, Control_c, 0, 64, 127
4, 28334, Control_c, 0, 64, 0
4, 28435, Control_c, 0, 64, 127
4, 28800, Control_c, 0, 64, 0
4, 28927, Control_c, 0, 64, 127
4, 29298, Control_c, 0, 64, 0
4, 29838, Control_c, 0, 64, 127
4, 30085, Control_c, 0, 64, 0
4, 30775, Control_c, 0, 64, 127
4, 31680, Control_c, 0, 64, 0
4, 32880, Control_c, 0, 64, 127
4, 33614, Control_c, 0, 64, 0
4, 34596, Control_c, 0, 64, 127
4, 35535, Control_c, 0, 64, 0
4, 36560, Control_c, 0, 64, 127
4, 37454, Control_c, 0, 64, 0
4, 38435, Control_c, 0, 64, 127
4, 39374, Control_c, 0, 64, 0
4, 40400, Control_c, 0, 64, 127
4, 41294, Control_c, 0, 64, 0
4, 44203, Control_c, 0, 64, 127
4, 45608, Control_c, 0, 64, 0
4, 45653, Control_c, 0, 64, 127
4, 46080, Control_c, 0, 64, 0
4, 46355, Control_c, 0, 64, 127
4, 46575, Control_c, 0, 64, 0
4, 46812, Control_c, 0, 64, 127
4, 47524, Control_c, 0, 64, 0
4, 47749, Control_c, 0, 64, 127
4, 48000, Control_c, 0, 64, 0
4, 48064, Control_c, 0, 64, 127
4, 49445, Control_c, 0, 64, 0
4, 49486, Control_c, 0, 64, 127
4, 49920, Control_c, 0, 64, 0
4, 50086, Control_c, 0, 64, 127
4, 50417, Control_c, 0, 64, 0
4, 50649, Control_c, 0, 64, 127
4, 51840, Control_c, 0, 64, 0
4, 51886, Control_c, 0, 64, 127
4, 52324, Control_c, 0, 64, 0
4, 52374, Control_c, 0, 64, 127
4, 52565, Control_c, 0, 64, 0
4, 52606, Control_c, 0, 64, 127
4, 53760, Control_c, 0, 64, 0
4, 53820, Control_c, 0, 64, 127
4, 54249, Control_c, 0, 64, 0
4, 54321, Control_c, 0, 64, 127
4, 54498, Control_c, 0, 64, 0
4, 54537, Control_c, 0, 64, 127
4, 54727, Control_c, 0, 64, 0
4, 54780, Control_c, 0, 64, 127
4, 55680, Control_c, 0, 64, 0
4, 55680, Control_c, 0, 64, 0
4, 55726, Control_c, 0, 64, 127
4, 56164, Control_c, 0, 64, 0
4, 56214, Control_c, 0, 64, 127
4, 56405, Control_c, 0, 64, 0
4, 56446, Control_c, 0, 64, 127
4, 57600, Control_c, 0, 64, 0
4, 59520, Control_c, 0, 64, 0
4, 61440, Control_c, 0, 64, 0
4, 67387, Control_c, 0, 64, 127
4, 67683, Control_c, 0, 64, 0
4, 67737, Control_c, 0, 64, 127
4, 68166, Control_c, 0, 64, 0
4, 68404, Control_c, 0, 64, 127
4, 68648, Control_c, 0, 64, 0
4, 68690, Control_c, 0, 64, 127
4, 69120, Control_c, 0, 64, 0
4, 69301, Control_c, 0, 64, 127
4, 69618, Control_c, 0, 64, 0
4, 69674, Control_c, 0, 64, 127
4, 70098, Control_c, 0, 64, 0
4, 70292, Control_c, 0, 64, 127
4, 70572, Control_c, 0, 64, 0
4, 70617, Control_c, 0, 64, 127
4, 71040, Control_c, 0, 64, 0
4, 71234, Control_c, 0, 64, 127
4, 71534, Control_c, 0, 64, 0
4, 71570, Control_c, 0, 64, 127
4, 72010, Control_c, 0, 64, 0
4, 72183, Control_c, 0, 64, 127
4, 72492, Control_c, 0, 64, 0
4, 72537, Control_c, 0, 64, 127
4, 72960, Control_c, 0, 64, 0
4, 73165, Control_c, 0, 64, 127
4, 74880, Control_c, 0, 64, 0
4, 76863, Control_c, 0, 64, 127
4, 77774, Control_c, 0, 64, 0
4, 77856, Control_c, 0, 64, 127
4, 78769, Control_c, 0, 64, 0
4, 80684, Control_c, 0, 64, 127
4, 81614, Control_c, 0, 64, 0
4, 81696, Control_c, 0, 64, 127
4, 82560, Control_c, 0, 64, 0
4, 84341, Control_c, 0, 64, 127
4, 85366, Control_c, 0, 64, 0
4, 86457, Control_c, 0, 64, 127
4, 87374, Control_c, 0, 64, 0
4, 87438, Control_c, 0, 64, 127
4, 88320, Control_c, 0, 64, 0
4, 88823, Control_c, 0, 64, 127
4, 89780, Control_c, 0, 64, 0
4, 90312, Control_c, 0, 64, 127
4, 91195, Control_c, 0, 64, 0
4, 91237, Control_c, 0, 64, 127
4, 92160, Control_c, 0, 64, 0
4, 92572, Control_c, 0, 64, 127
4, 93616, Control_c, 0, 64, 0
4, 94116, Control_c, 0, 64, 127
4, 96006, Control_c, 0, 64, 0
4, 96078, Control_c, 0, 64, 127
4, 97896, Control_c, 0, 64, 0
4, 98979, Control_c, 0, 64, 127
4, 99374, Control_c, 0, 64, 0
4, 99530, Control_c, 0, 64, 127
4, 99840, Control_c, 0, 64, 0
4, 99876, Control_c, 0, 64, 127
4, 100809, Control_c, 0, 64, 0
4, 100847, Control_c, 0, 64, 127
4, 101040, Control_c, 0, 64, 127
4, 101056, Control_c, 0, 64, 0
4, 101288, Control_c, 0, 64, 0
4, 101311, Control_c, 0, 64, 127
4, 101774, Control_c, 0, 64, 0
4, 101820, Control_c, 0, 64, 127
4, 102734, Control_c, 0, 64, 0
4, 102798, Control_c, 0, 64, 127
4, 103680, Control_c, 0, 64, 0
4, 105600, Control_c, 0, 64, 0
4, 105672, Control_c, 0, 64, 127
4, 106570, Control_c, 0, 64, 0
4, 106623, Control_c, 0, 64, 127
4, 107520, Control_c, 0, 64, 0
4, 109440, Control_c, 0, 64, 0
4, 109476, Control_c, 0, 64, 127
4, 110415, Control_c, 0, 64, 0
4, 110450, Control_c, 0, 64, 127
4, 111366, Control_c, 0, 64, 0
4, 111438, Control_c, 0, 64, 127
4, 111600, Control_c, 0, 64, 0
4, 113280, Control_c, 0, 64, 127
4, 113768, Control_c, 0, 64, 0
4, 113897, Control_c, 0, 64, 127
4, 114249, Control_c, 0, 64, 0
4, 114400, Control_c, 0, 64, 127
4, 114734, Control_c, 0, 64, 0
4, 114835, Control_c, 0, 64, 127
4, 115200, Control_c, 0, 64, 0
4, 115327, Control_c, 0, 64, 127
4, 115698, Control_c, 0, 64, 0
4, 116238, Control_c, 0, 64, 127
4, 116485, Control_c, 0, 64, 0
4, 117175, Control_c, 0, 64, 127
4, 118080, Control_c, 0, 64, 0
4, 119280, Control_c, 0, 64, 127
4, 120014, Control_c, 0, 64, 0
4, 120996, Control_c, 0, 64, 127
4, 121935, Control_c, 0, 64, 0
4, 122960, Control_c, 0, 64, 127
4, 123854, Control_c, 0, 64, 0
4, 124835, Control_c, 0, 64, 127
4, 125774, Control_c, 0, 64, 0
4, 126800, Control_c, 0, 64, 127
4, 127694, Control_c, 0, 64, 0
4, 128720, Control_c, 0, 64, 127
4, 129614, Control_c, 0, 64, 0
4, 130640, Control_c, 0, 64, 127
4, 131534, Control_c, 0, 64, 0
4, 134411, Control_c, 0, 64, 127
4, 135848, Control_c, 0, 64, 0
4, 135893, Control_c, 0, 64, 127
4, 136320, Control_c, 0, 64, 0
4, 136595, Control_c, 0, 64, 127
4, 136815, Control_c, 0, 64, 0
4, 137052, Control_c, 0, 64, 127
4, 137764, Control_c, 0, 64, 0
4, 137989, Control_c, 0, 64, 127
4, 138240, Control_c, 0, 64, 0
4, 138304, Control_c, 0, 64, 127
4, 139685, Control_c, 0, 64, 0
4, 139726, Control_c, 0, 64, 127
4, 140160, Control_c, 0, 64, 0
4, 140326, Control_c, 0, 64, 127
4, 140657, Control_c, 0, 64, 0
4, 140889, Control_c, 0, 64, 127
4, 142080, Control_c, 0, 64, 0
4, 142126, Control_c, 0, 64, 127
4, 142564, Control_c, 0, 64, 0
4, 142614, Control_c, 0, 64, 127
4, 142805, Control_c, 0, 64, 0
4, 142846, Control_c, 0, 64, 127
4, 144000, Control_c, 0, 64, 0
4, 144060, Control_c, 0, 64, 127
4, 144489, Control_c, 0, 64, 0
4, 144561, Control_c, 0, 64, 127
4, 144738, Control_c, 0, 64, 0
4, 144777, Control_c, 0, 64, 127
4, 144967, Control_c, 0, 64, 0
4, 145020, Control_c, 0, 64, 127
4, 145920, Control_c, 0, 64, 0
4, 145920, Control_c, 0, 64, 0
4, 145966, Control_c, 0, 64, 127
4, 146404, Control_c, 0, 64, 0
4, 146454, Control_c, 0, 64, 127
4, 146645, Control_c, 0, 64, 0
4, 146686, Control_c, 0, 64, 127
4, 147840, Control_c, 0, 64, 0
4, 149760, Control_c, 0, 64, 0
4, 151680, Control_c, 0, 64, 0
4, 157627, Control_c, 0, 64, 127
4, 157923, Control_c, 0, 64, 0
4, 157977, Control_c, 0, 64, 127
4, 158406, Control_c, 0, 64, 0
4, 158644, Control_c, 0, 64, 127
4, 158888, Control_c, 0, 64, 0
4, 158930, Control_c, 0, 64, 127
4, 159360, Control_c, 0, 64, 0
4, 159541, Control_c, 0, 64, 127
4, 159858, Control_c, 0, 64, 0
4, 159914, Control_c, 0, 64, 127
4, 160338, Control_c, 0, 64, 0
4, 160532, Control_c, 0, 64, 127
4, 160812, Control_c, 0, 64, 0
4, 160857, Control_c, 0, 64, 127
4, 161280, Control_c, 0, 64, 0
4, 161474, Control_c, 0, 64, 127
4, 161774, Control_c, 0, 64, 0
4, 161810, Control_c, 0, 64, 127
4, 162250, Control_c, 0, 64, 0
4, 162423, Control_c, 0, 64, 127
4, 162732, Control_c, 0, 64, 0
4, 162777, Control_c, 0, 64, 127
4, 163200, Control_c, 0, 64, 0
4, 163405, Control_c, 0, 64, 127
4, 165120, Control_c, 0, 64, 0
4, 167103, Control_c, 0, 64, 127
4, 168014, Control_c, 0, 64, 0
4, 168096, Control_c, 0, 64, 127
4, 169009, Control_c, 0, 64, 0
4, 170924, Control_c, 0, 64, 127
4, 171854, Control_c, 0, 64, 0
4, 171936, Control_c, 0, 64, 127
4, 172800, Control_c, 0, 64, 0
4, 172857, Control_c, 0, 64, 127
4, 173774, Control_c, 0, 64, 0
4, 173838, Control_c, 0, 64, 127
4, 174720, Control_c, 0, 64, 0
4, 174926, Control_c, 0, 64, 127
4, 176405, Control_c, 0, 64, 0
4, 176712, Control_c, 0, 64, 127
4, 177595, Control_c, 0, 64, 0
4, 177637, Control_c, 0, 64, 127
4, 178560, Control_c, 0, 64, 0
4, 178972, Control_c, 0, 64, 127
4, 179529, Control_c, 0, 64, 0
4, 179690, Control_c, 0, 64, 127
4, 180480, Control_c, 0, 64, 0
4, 180636, Control_c, 0, 64, 127
4, 181448, Control_c, 0, 64, 0
4, 181666, Control_c, 0, 64, 127
4, 182400, Control_c, 0, 64, 0
4, 182506, Control_c, 0, 64, 127
4, 183375, Control_c, 0, 64, 0
4, 183516, Control_c, 0, 64, 127
4, 184320, Control_c, 0, 64, 0
4, 184518, Control_c, 0, 64, 127
4, 185298, Control_c, 0, 64, 0
4, 185464, Control_c, 0, 64, 127
4, 186244, Control_c, 0, 64, 0
4, 186480, Control_c, 0, 64, 127
4, 187213, Control_c, 0, 64, 0
4, 187384, Control_c, 0, 64, 127
4, 188160, Control_c, 0, 64, 0
4, 188513, Control_c, 0, 64, 127
4, 189134, Control_c, 0, 64, 0
4, 189304, Control_c, 0, 64, 127
4, 190080, Control_c, 0, 64, 0
4, 190193, Control_c, 0, 64, 127
4, 190571, Control_c, 0, 64, 0
4, 190631, Control_c, 0, 64, 127
4, 191054, Control_c, 0, 64, 0
4, 191167, Control_c, 0, 64, 127
4, 191534, Control_c, 0, 64, 0
4, 191704, Control_c, 0, 64, 127
4, 192014, Control_c, 0, 64, 0
4, 192212, Control_c, 0, 64, 127
4, 192967, Control_c, 0, 64, 0
4, 193158, Control_c, 0, 64, 127
4, 193920, Control_c, 0, 64, 0
4, 194090, Control_c, 0, 64, 127
4, 195840, Control_c, 0, 64, 0
4, 196137, Control_c, 0, 64, 127
4, 196808, Control_c, 0, 64, 0
4, 196984, Control_c, 0, 64, 127
4, 197760, Control_c, 0, 64, 0
4, 197930, Control_c, 0, 64, 127
4, 199680, Control_c, 0, 64, 0
4, 199864, Control_c, 0, 64, 127
4, 200653, Control_c, 0, 64, 0
4, 200838, Control_c, 0, 64, 127
4, 201600, Control_c, 0, 64, 0
4, 201770, Control_c, 0, 64, 127
4, 203520, Control_c, 0, 64, 0
4, 203817, Control_c, 0, 64, 127
4, 204488, Control_c, 0, 64, 0
4, 204664, Control_c, 0, 64, 127
4, 205440, Control_c, 0, 64, 0
4, 205610, Control_c, 0, 64, 127
4, 207360, Control_c, 0, 64, 0
4, 207544, Control_c, 0, 64, 127
4, 208333, Control_c, 0, 64, 0
4, 208518, Control_c, 0, 64, 127
4, 209280, Control_c, 0, 64, 0
4, 209464, Control_c, 0, 64, 127
4, 210253, Control_c, 0, 64, 0
4, 210438, Control_c, 0, 64, 127
4, 216427, Control_c, 0, 64, 0
4, 216427, End_track
5, 0, Start_track
5, 0, Title_t, "Beethoven: Sonate Nr. 5 - 2. Satz"
5, 0, End_track
6, 0, Start_track
6, 0, Title_t, "Copyright © 2008 by Bernd Krueger"
6, 0, End_track
7, 0, Start_track
7, 0, Title_t, "http://www.piano-midi.de/"
7, 0, End_track
8, 0, Start_track
8, 0, Title_t, "Edition: 20012-05-06"
8, 0, End_track
9, 0, Start_track
9, 0, Title_t, "Spur 8"
9, 0, End_track
10, 0, Start_track
10, 0, Title_t, "Spur 9"
10, 0, End_track
11, 0, Start_track
11, 0, Title_t, "Spur 10"
11, 0, End_track
12, 0, Start_track
12, 0, Title_t, "Spur 11"
12, 0, End_track
13, 0, Start_track
13, 0, Title_t, "Spur 12"
13, 0, End_track
14, 0, Start_track
14, 0, Title_t, "Spur 13"
14, 0, End_track
15, 0, Start_track
15, 0, Title_t, "Spur 14"
15, 0, End_track
16, 0, Start_track
16, 0, Title_t, "Spur 15"
16, 0, End_track
17, 0, Start_track
17, 0, Title_t, "Spur 16"
17, 0, End_track
0, 0, End_of_file
