0, 0, Header, 1, 17, 480
1, 0, Start_track
1, 0, Title_t, "Hammerklaviersonate  2. Satz"
1, 0, Copyright_t, "Copyright © 2008 by Bernd Krueger"
1, 0, Text_t, "Ludwig van Beethoven"
1, 0, Text_t, "Scherzo"
1, 0, Text_t, "Erstellt: 3.5.2008\012"
1, 0, Text_t, "Update: 16.8.2012\012"
1, 0, Text_t, "Dauer: 2:15 Minuten\012"
1, 0, Time_signature, 3, 3, 12, 8
1, 0, Key_signature, -2, "major"
1, 0, Tempo, 500000
1, 480, Tempo, 504202
1, 660, Tempo, 659341
1, 720, Tempo, 506329
1, 1200, Tempo, 504202
1, 1380, Tempo, 659341
1, 1440, Tempo, 506329
1, 1920, Tempo, 504202
1, 2100, Tempo, 659341
1, 2160, Tempo, 506329
1, 2640, Tempo, 504202
1, 2820, Tempo, 652174
1, 2880, Tempo, 506329
1, 3360, Tempo, 504202
1, 3540, Tempo, 659341
1, 3600, Tempo, 506329
1, 4080, Tempo, 504202
1, 4260, Tempo, 652174
1, 4320, Tempo, 519481
1, 4560, Tempo, 571429
1, 4800, Tempo, 609137
1, 5040, Tempo, 625000
1, 5520, Tempo, 504202
1, 5700, Tempo, 659341
1, 5760, Tempo, 506329
1, 6000, Tempo, 521739
1, 6240, Tempo, 504202
1, 6420, Tempo, 659341
1, 6480, Tempo, 506329
1, 6960, Tempo, 504202
1, 7140, Tempo, 659341
1, 7200, Tempo, 506329
1, 7440, Tempo, 517241
1, 7680, Tempo, 504202
1, 7860, Tempo, 652174
1, 7920, Tempo, 506329
1, 8400, Tempo, 504202
1, 8580, Tempo, 659341
1, 8640, Tempo, 506329
1, 8880, Tempo, 524017
1, 9120, Tempo, 504202
1, 9300, Tempo, 652174
1, 9360, Tempo, 519481
1, 9600, Tempo, 571429
1, 9840, Tempo, 609137
1, 10080, Tempo, 641711
1, 10560, Tempo, 504202
1, 10740, Tempo, 659341
1, 10800, Tempo, 506329
1, 11040, Tempo, 524017
1, 11280, Tempo, 504202
1, 11460, Tempo, 659341
1, 11520, Tempo, 506329
1, 12000, Tempo, 504202
1, 12180, Tempo, 659341
1, 12240, Tempo, 506329
1, 12480, Tempo, 530973
1, 12720, Tempo, 504202
1, 12900, Tempo, 659341
1, 12960, Tempo, 506329
1, 13440, Tempo, 504202
1, 13620, Tempo, 659341
1, 13680, Tempo, 506329
1, 14400, Tempo, 524017
1, 15120, Tempo, 560748
1, 15840, Tempo, 618557
1, 17040, Tempo, 504202
1, 17220, Tempo, 659341
1, 17280, Tempo, 506329
1, 17760, Tempo, 504202
1, 17940, Tempo, 659341
1, 18000, Tempo, 506329
1, 18240, Tempo, 535714
1, 18480, Tempo, 504202
1, 18660, Tempo, 659341
1, 18720, Tempo, 506329
1, 19200, Tempo, 504202
1, 19380, Tempo, 659341
1, 19440, Tempo, 506329
1, 19680, Tempo, 530973
1, 19920, Tempo, 504202
1, 20100, Tempo, 659341
1, 20160, Tempo, 506329
1, 20400, Tempo, 517241
1, 20640, Tempo, 504202
1, 20820, Tempo, 652174
1, 20880, Tempo, 519481
1, 21120, Tempo, 571429
1, 21360, Tempo, 609137
1, 21600, Tempo, 641711
1, 22080, Tempo, 504202
1, 22260, Tempo, 659341
1, 22320, Tempo, 506329
1, 22560, Tempo, 524017
1, 22800, Tempo, 504202
1, 22980, Tempo, 659341
1, 23040, Tempo, 506329
1, 23520, Tempo, 504202
1, 23700, Tempo, 659341
1, 23760, Tempo, 506329
1, 24000, Tempo, 524017
1, 24240, Tempo, 504202
1, 24420, Tempo, 659341
1, 24480, Tempo, 506329
1, 24960, Tempo, 504202
1, 25140, Tempo, 659341
1, 25200, Tempo, 506329
1, 25920, Tempo, 524017
1, 26640, Tempo, 560748
1, 27360, Tempo, 618557
1, 28560, Tempo, 504202
1, 28740, Tempo, 659341
1, 28800, Tempo, 506329
1, 29040, Tempo, 533333
1, 29280, Tempo, 504202
1, 29460, Tempo, 659341
1, 29520, Tempo, 506329
1, 29760, Tempo, 524017
1, 30000, Tempo, 504202
1, 30180, Tempo, 659341
1, 30240, Tempo, 506329
1, 30480, Tempo, 524017
1, 30720, Tempo, 504202
1, 30900, Tempo, 659341
1, 30960, Tempo, 506329
1, 31200, Tempo, 519481
1, 31440, Tempo, 504202
1, 31620, Tempo, 659341
1, 31680, Tempo, 506329
1, 31920, Tempo, 517241
1, 32160, Tempo, 504202
1, 32340, Tempo, 652174
1, 32400, Tempo, 519481
1, 32640, Tempo, 571429
1, 32880, Tempo, 609137
1, 33120, Tempo, 641711
1, 33600, Tempo, 538117
1, 33840, Key_signature, -5, "major"
1, 34297, Tempo, 538117
1, 34412, Tempo, 535714
1, 34508, Tempo, 533333
1, 34604, Tempo, 530973
1, 34700, Tempo, 528634
1, 34796, Tempo, 526316
1, 34892, Tempo, 524017
1, 34988, Tempo, 521739
1, 35046, Tempo, 521739
1, 35640, Tempo, 547945
1, 35760, Tempo, 521739
1, 36360, Tempo, 547945
1, 36480, Tempo, 521739
1, 37080, Tempo, 538117
1, 37200, Tempo, 524017
1, 37800, Tempo, 552995
1, 37920, Tempo, 524017
1, 38400, Tempo, 547945
1, 38640, Tempo, 568720
1, 39360, Tempo, 538117
1, 40057, Tempo, 538117
1, 40172, Tempo, 535714
1, 40268, Tempo, 533333
1, 40364, Tempo, 530973
1, 40460, Tempo, 528634
1, 40556, Tempo, 526316
1, 40652, Tempo, 524017
1, 40748, Tempo, 521739
1, 40806, Tempo, 521739
1, 41400, Tempo, 547945
1, 41520, Tempo, 521739
1, 42120, Tempo, 547945
1, 42240, Tempo, 521739
1, 42840, Tempo, 538117
1, 42960, Tempo, 524017
1, 43560, Tempo, 552995
1, 43680, Tempo, 524017
1, 44160, Tempo, 547945
1, 44400, Tempo, 568720
1, 45120, Tempo, 618557
1, 45831, Tempo, 566038
1, 45869, Tempo, 563380
1, 45889, Tempo, 560748
1, 45908, Tempo, 558140
1, 45927, Tempo, 555556
1, 45946, Tempo, 552995
1, 45985, Tempo, 550459
1, 46004, Tempo, 547945
1, 46023, Tempo, 545455
1, 46042, Tempo, 542986
1, 46061, Tempo, 540541
1, 46537, Tempo, 538117
1, 46652, Tempo, 535714
1, 46748, Tempo, 533333
1, 46844, Tempo, 530973
1, 46940, Tempo, 528634
1, 47036, Tempo, 526316
1, 47132, Tempo, 524017
1, 47228, Tempo, 521739
1, 47286, Tempo, 521739
1, 47880, Tempo, 547945
1, 48000, Tempo, 521739
1, 48600, Tempo, 547945
1, 48720, Tempo, 521739
1, 49320, Tempo, 538117
1, 49440, Tempo, 524017
1, 50040, Tempo, 552995
1, 50160, Tempo, 524017
1, 50640, Tempo, 547945
1, 50880, Tempo, 568720
1, 51586, Tempo, 568720
1, 51607, Tempo, 538117
1, 52304, Tempo, 538117
1, 52419, Tempo, 535714
1, 52515, Tempo, 533333
1, 52611, Tempo, 530973
1, 52707, Tempo, 528634
1, 52803, Tempo, 526316
1, 52899, Tempo, 524017
1, 52995, Tempo, 521739
1, 53053, Tempo, 521739
1, 53647, Tempo, 547945
1, 53767, Tempo, 521739
1, 54367, Tempo, 547945
1, 54487, Tempo, 521739
1, 55087, Tempo, 538117
1, 55207, Tempo, 524017
1, 55807, Tempo, 552995
1, 55927, Tempo, 524017
1, 56407, Tempo, 547945
1, 56647, Tempo, 568720
1, 57360, Tempo, 579710
1, 57581, Tempo, 588235
1, 57619, Tempo, 591133
1, 57658, Tempo, 594059
1, 57696, Tempo, 597015
1, 57715, Tempo, 600000
1, 57754, Tempo, 603015
1, 57792, Tempo, 606061
1, 57830, Tempo, 609137
1, 57850, Tempo, 612245
1, 57888, Tempo, 615385
1, 57926, Tempo, 618557
1, 57946, Tempo, 621762
1, 57984, Tempo, 625000
1, 58022, Tempo, 628272
1, 58061, Tempo, 631579
1, 58080, Tempo, 634921
1, 58118, Tempo, 638298
1, 58157, Tempo, 641711
1, 58195, Tempo, 645161
1, 58214, Tempo, 648649
1, 58253, Tempo, 652174
1, 58291, Tempo, 655738
1, 58310, Tempo, 659341
1, 58320, Time_signature, 2, 3, 12, 8
1, 58320, Tempo, 401338
1, 58320, Marker_t, "Presto"
1, 58800, Tempo, 397351
1, 59040, Tempo, 402685
1, 59280, Tempo, 396040
1, 59760, Tempo, 390879
1, 60000, Tempo, 410959
1, 60240, Tempo, 394737
1, 60720, Tempo, 388350
1, 60960, Tempo, 404040
1, 61200, Tempo, 394737
1, 61440, Tempo, 415225
1, 61680, Tempo, 413793
1, 62160, Tempo, 415225
1, 62280, Tempo, 401338
1, 62400, Tempo, 409556
1, 62520, Tempo, 401338
1, 62640, Tempo, 408163
1, 62760, Tempo, 396040
1, 62880, Tempo, 418118
1, 63120, Tempo, 409556
1, 63240, Tempo, 390879
1, 63360, Tempo, 408163
1, 63480, Tempo, 394737
1, 63600, Tempo, 397351
1, 63840, Tempo, 425532
1, 64080, Tempo, 413793
1, 64200, Tempo, 396040
1, 64320, Tempo, 415225
1, 64440, Tempo, 397351
1, 64560, Tempo, 389610
1, 64680, Tempo, 380952
1, 64800, Tempo, 404040
1, 65040, Tempo, 406780
1, 65160, Tempo, 394737
1, 65280, Tempo, 415225
1, 65520, Tempo, 405405
1, 65760, Tempo, 430108
1, 65880, Tempo, 576923
1, 66000, Tempo, 401338
1, 66480, Tempo, 397351
1, 66720, Tempo, 404040
1, 66840, Tempo, 461538
1, 66960, Tempo, 396040
1, 67440, Tempo, 390879
1, 67680, Tempo, 410959
1, 67920, Tempo, 394737
1, 68400, Tempo, 388350
1, 68640, Tempo, 404040
1, 68760, Tempo, 447761
1, 68880, Tempo, 394737
1, 69120, Tempo, 415225
1, 69360, Tempo, 413793
1, 69840, Tempo, 394737
1, 70080, Tempo, 415225
1, 70320, Tempo, 413793
1, 70560, Tempo, 437956
1, 70800, Key_signature, -2, "major"
1, 70800, Tempo, 413793
1, 71040, Tempo, 451128
1, 71280, Tempo, 431655
1, 71520, Tempo, 474308
1, 71760, Tempo, 459770
1, 72000, Tempo, 558140
1, 72240, Tempo, 631579
1, 72480, Tempo, 693642
1, 73200, Time_signature, 8, 3, 12, 8
1, 73397, Tempo, 281030
1, 73455, Tempo, 280374
1, 73493, Tempo, 279720
1, 73532, Tempo, 279070
1, 73570, Tempo, 278422
1, 73608, Tempo, 277778
1, 73647, Tempo, 277136
1, 73685, Tempo, 276498
1, 73724, Tempo, 275862
1, 73762, Tempo, 275229
1, 73800, Tempo, 274600
1, 73839, Tempo, 273973
1, 73877, Tempo, 273349
1, 73916, Tempo, 272727
1, 73954, Tempo, 272109
1, 73992, Tempo, 271493
1, 74031, Tempo, 270880
1, 74069, Tempo, 270270
1, 74108, Tempo, 269663
1, 74146, Tempo, 269058
1, 74184, Tempo, 268456
1, 74223, Tempo, 267857
1, 74261, Tempo, 267261
1, 74300, Tempo, 266667
1, 74338, Tempo, 266075
1, 74376, Tempo, 265487
1, 74415, Tempo, 264901
1, 74453, Tempo, 264317
1, 74492, Tempo, 263736
1, 74530, Tempo, 263158
1, 74568, Tempo, 262582
1, 74607, Tempo, 262009
1, 74645, Tempo, 261438
1, 74684, Tempo, 260870
1, 74722, Tempo, 260304
1, 74760, Tempo, 259740
1, 74799, Tempo, 259179
1, 74837, Tempo, 258621
1, 74876, Tempo, 258065
1, 74914, Tempo, 257511
1, 74952, Tempo, 256959
1, 74991, Tempo, 256410
1, 75029, Tempo, 255864
1, 75068, Tempo, 255319
1, 75087, Tempo, 254237
1, 75336, Tempo, 253700
1, 75567, Tempo, 253165
1, 75816, Tempo, 252632
1, 76047, Tempo, 252101
1, 76296, Tempo, 251572
1, 76527, Tempo, 251046
1, 76776, Tempo, 250522
1, 76988, Tempo, 248963
1, 77026, Tempo, 249480
1, 77040, Time_signature, 5, 3, 12, 8
1, 77045, Tempo, 250000
1, 77064, Tempo, 250522
1, 77084, Tempo, 251046
1, 77103, Tempo, 251572
1, 77122, Tempo, 252101
1, 77141, Tempo, 252632
1, 77160, Tempo, 253165
1, 77180, Tempo, 253700
1, 77199, Tempo, 254237
1, 77218, Tempo, 254777
1, 77237, Tempo, 255319
1, 77256, Tempo, 255864
1, 77276, Tempo, 256410
1, 77295, Tempo, 256959
1, 77314, Tempo, 257511
1, 77333, Tempo, 258065
1, 77352, Tempo, 258621
1, 77372, Tempo, 259179
1, 77391, Tempo, 259740
1, 77410, Tempo, 260304
1, 77429, Tempo, 260870
1, 77448, Tempo, 261438
1, 77468, Tempo, 262009
1, 77487, Tempo, 262582
1, 77506, Tempo, 263158
1, 77525, Tempo, 263736
1, 77544, Tempo, 264317
1, 77564, Tempo, 264901
1, 77583, Tempo, 265487
1, 77602, Tempo, 266075
1, 77621, Tempo, 266667
1, 77640, Tempo, 267261
1, 77660, Tempo, 267857
1, 77679, Tempo, 268456
1, 77698, Tempo, 269058
1, 77717, Tempo, 269663
1, 77736, Tempo, 270270
1, 77756, Tempo, 270880
1, 77775, Tempo, 271493
1, 77789, Tempo, 272109
1, 77847, Tempo, 272727
1, 77851, Tempo, 270270
1, 77880, Tempo, 3244997
1, 78000, Tempo, 406780
1, 78164, Tempo, 412371
1, 78203, Tempo, 410959
1, 78240, Time_signature, 3, 3, 12, 8
1, 78241, Tempo, 409556
1, 78279, Tempo, 408163
1, 78318, Tempo, 406780
1, 78337, Tempo, 405405
1, 78375, Tempo, 404040
1, 78414, Tempo, 402685
1, 78452, Tempo, 401338
1, 78491, Tempo, 400000
1, 78510, Tempo, 398671
1, 78548, Tempo, 400000
1, 78587, Tempo, 401338
1, 78625, Tempo, 402685
1, 78644, Tempo, 404040
1, 78683, Tempo, 405405
1, 78702, Tempo, 406780
1, 78721, Tempo, 409556
1, 78740, Tempo, 412371
1, 78759, Tempo, 413793
1, 78779, Tempo, 416667
1, 78798, Tempo, 419580
1, 78817, Tempo, 421053
1, 78836, Tempo, 424028
1, 78855, Tempo, 427046
1, 78875, Tempo, 428571
1, 78894, Tempo, 431655
1, 78913, Tempo, 434783
1, 78932, Tempo, 437956
1, 78960, Tempo, 574163
1, 79440, Tempo, 504202
1, 79620, Tempo, 659341
1, 79680, Tempo, 506329
1, 79920, Tempo, 515021
1, 80160, Tempo, 504202
1, 80340, Tempo, 659341
1, 80400, Tempo, 506329
1, 80640, Tempo, 521739
1, 80880, Tempo, 504202
1, 81060, Tempo, 659341
1, 81120, Tempo, 506329
1, 81600, Tempo, 504202
1, 81780, Tempo, 652174
1, 81840, Tempo, 506329
1, 82080, Tempo, 526316
1, 82320, Tempo, 504202
1, 82500, Tempo, 659341
1, 82560, Tempo, 506329
1, 82800, Tempo, 512821
1, 83040, Tempo, 504202
1, 83220, Tempo, 652174
1, 83280, Tempo, 519481
1, 83520, Tempo, 571429
1, 83760, Tempo, 609137
1, 84000, Tempo, 625000
1, 84480, Tempo, 504202
1, 84660, Tempo, 659341
1, 84720, Tempo, 506329
1, 84960, Tempo, 517241
1, 85200, Tempo, 504202
1, 85380, Tempo, 659341
1, 85440, Tempo, 506329
1, 85680, Tempo, 517241
1, 85920, Tempo, 504202
1, 86100, Tempo, 659341
1, 86160, Tempo, 506329
1, 86400, Tempo, 512821
1, 86640, Tempo, 504202
1, 86820, Tempo, 652174
1, 86880, Tempo, 506329
1, 87120, Tempo, 535714
1, 87360, Tempo, 504202
1, 87540, Tempo, 659341
1, 87600, Tempo, 506329
1, 87840, Tempo, 521739
1, 88080, Tempo, 504202
1, 88260, Tempo, 652174
1, 88320, Tempo, 519481
1, 88560, Tempo, 571429
1, 88800, Tempo, 609137
1, 89040, Tempo, 641711
1, 89520, Tempo, 504202
1, 89700, Tempo, 659341
1, 89760, Tempo, 506329
1, 90000, Tempo, 535714
1, 90240, Tempo, 504202
1, 90420, Tempo, 659341
1, 90480, Tempo, 506329
1, 90960, Tempo, 504202
1, 91140, Tempo, 659341
1, 91200, Tempo, 506329
1, 91440, Tempo, 533333
1, 91680, Tempo, 504202
1, 91860, Tempo, 659341
1, 91920, Tempo, 506329
1, 92160, Tempo, 512821
1, 92400, Tempo, 504202
1, 92580, Tempo, 659341
1, 92640, Tempo, 506329
1, 93360, Tempo, 524017
1, 94080, Tempo, 560748
1, 94800, Tempo, 618557
1, 96000, Tempo, 504202
1, 96180, Tempo, 659341
1, 96240, Tempo, 506329
1, 96480, Tempo, 526316
1, 96720, Tempo, 504202
1, 96900, Tempo, 659341
1, 96960, Tempo, 506329
1, 97440, Tempo, 504202
1, 97620, Tempo, 659341
1, 97680, Tempo, 506329
1, 97920, Tempo, 528634
1, 98160, Tempo, 504202
1, 98340, Tempo, 659341
1, 98400, Tempo, 506329
1, 98880, Tempo, 504202
1, 99060, Tempo, 659341
1, 99120, Tempo, 506329
1, 99360, Tempo, 521739
1, 99600, Tempo, 504202
1, 99780, Tempo, 652174
1, 99840, Tempo, 519481
1, 100080, Tempo, 571429
1, 100320, Tempo, 609137
1, 100560, Tempo, 641711
1, 101040, Tempo, 504202
1, 101220, Tempo, 659341
1, 101280, Tempo, 506329
1, 101520, Tempo, 533333
1, 101760, Tempo, 504202
1, 101940, Tempo, 659341
1, 102000, Tempo, 506329
1, 102240, Tempo, 542986
1, 102480, Tempo, 504202
1, 102660, Tempo, 659341
1, 102720, Tempo, 506329
1, 102960, Tempo, 519481
1, 103200, Tempo, 504202
1, 103380, Tempo, 659341
1, 103440, Tempo, 506329
1, 103920, Tempo, 504202
1, 104100, Tempo, 659341
1, 104160, Tempo, 506329
1, 104880, Tempo, 524017
1, 105600, Tempo, 560748
1, 106320, Tempo, 618557
1, 107520, Tempo, 504202
1, 107700, Tempo, 659341
1, 107760, Tempo, 506329
1, 108240, Tempo, 504202
1, 108420, Tempo, 659341
1, 108480, Tempo, 506329
1, 108720, Tempo, 533333
1, 108960, Tempo, 504202
1, 109140, Tempo, 659341
1, 109200, Tempo, 506329
1, 109440, Tempo, 530973
1, 109680, Tempo, 504202
1, 109860, Tempo, 659341
1, 109920, Tempo, 506329
1, 110400, Tempo, 504202
1, 110580, Tempo, 659341
1, 110640, Tempo, 506329
1, 110880, Tempo, 545455
1, 111120, Tempo, 504202
1, 111300, Tempo, 652174
1, 111360, Tempo, 519481
1, 111600, Tempo, 571429
1, 111840, Tempo, 609137
1, 112080, Tempo, 641711
1, 112560, Tempo, 609137
1, 112800, Tempo, 641711
1, 113280, Tempo, 609137
1, 113520, Tempo, 641711
1, 114000, Tempo, 634921
1, 114240, Tempo, 714286
1, 114720, Tempo, 689655
1, 114960, Tempo, 740741
1, 115440, Tempo, 839161
1, 115680, Tempo, 895522
1, 115920, Tempo, 1025641
1, 116160, Tempo, 937500
1, 116880, Tempo, 1071429
1, 117600, Tempo, 555556
1, 117840, Time_signature, 4, 3, 12, 8
1, 117840, Key_signature, 0, "major"
1, 117840, Tempo, 489796
1, 118733, Tempo, 493827
1, 118752, Tempo, 491803
1, 118758, Tempo, 480000
1, 118777, Tempo, 478088
1, 118796, Tempo, 474308
1, 118798, Tempo, 463320
1, 118817, Tempo, 461538
1, 118836, Tempo, 458015
1, 118855, Tempo, 454545
1, 118874, Tempo, 451128
1, 118894, Tempo, 449438
1, 118913, Tempo, 446097
1, 118932, Tempo, 442804
1, 118951, Tempo, 439560
1, 118970, Tempo, 437956
1, 118990, Tempo, 434783
1, 119009, Tempo, 431655
1, 119028, Tempo, 428571
1, 119047, Tempo, 427046
1, 119066, Tempo, 424028
1, 119086, Tempo, 421053
1, 119105, Tempo, 418118
1, 119124, Tempo, 415225
1, 119143, Tempo, 413793
1, 119162, Tempo, 410959
1, 119182, Tempo, 408163
1, 119201, Tempo, 405405
1, 119220, Tempo, 404040
1, 119239, Tempo, 401338
1, 119258, Tempo, 398671
1, 119278, Tempo, 396040
1, 119297, Tempo, 394737
1, 119316, Tempo, 392157
1, 119335, Tempo, 389610
1, 119354, Tempo, 387097
1, 119374, Tempo, 385852
1, 119393, Tempo, 383387
1, 119412, Tempo, 380952
1, 119431, Tempo, 378549
1, 119450, Tempo, 376176
1, 119470, Tempo, 375000
1, 119489, Tempo, 372671
1, 119508, Tempo, 370370
1, 119527, Tempo, 368098
1, 119546, Tempo, 366972
1, 119566, Tempo, 364742
1, 119585, Tempo, 362538
1, 119604, Tempo, 360360
1, 119623, Tempo, 359281
1, 119642, Tempo, 357143
1, 119662, Tempo, 355030
1, 119681, Tempo, 352941
1, 119700, Tempo, 351906
1, 119719, Tempo, 349854
1, 119738, Tempo, 341880
1, 119815, Tempo, 340909
1, 119892, Tempo, 339943
1, 119950, Tempo, 338983
1, 120026, Tempo, 338028
1, 120084, Tempo, 337079
1, 120161, Tempo, 336134
1, 120218, Tempo, 335196
1, 120295, Tempo, 334262
1, 120372, Tempo, 333333
1, 120430, Tempo, 332410
1, 120506, Tempo, 331492
1, 120564, Tempo, 330579
1, 120641, Tempo, 329670
1, 121200, Tempo, 385852
1, 121409, Tempo, 349854
1, 121428, Tempo, 350877
1, 121447, Tempo, 351906
1, 121466, Tempo, 352941
1, 121486, Tempo, 353982
1, 121505, Tempo, 355030
1, 121524, Tempo, 356083
1, 121543, Tempo, 358209
1, 121562, Tempo, 359281
1, 121582, Tempo, 360360
1, 121601, Tempo, 361446
1, 121620, Tempo, 362538
1, 121639, Tempo, 363636
1, 121658, Tempo, 365854
1, 121680, Time_signature, 3, 3, 12, 8
1, 121680, Key_signature, -2, "major"
1, 121920, Tempo, 576923
1, 122153, Tempo, 506329
1, 122165, Tempo, 504202
1, 122345, Tempo, 659341
1, 122405, Tempo, 506329
1, 122859, Tempo, 519481
1, 122863, Tempo, 506329
1, 122874, Tempo, 504202
1, 123054, Tempo, 659341
1, 123114, Tempo, 506329
1, 123480, Tempo, 558140
1, 123586, Tempo, 519481
1, 123590, Tempo, 506329
1, 123601, Tempo, 504202
1, 123781, Tempo, 659341
1, 123841, Tempo, 506329
1, 123841, End_track
2, 0, Start_track
2, 0, Title_t, "Piano right"
2, 0, Program_c, 0, 0
2, 480, Note_on_c, 0, 74, 50
2, 660, Note_on_c, 0, 74, 0
2, 660, Note_on_c, 0, 69, 42
2, 660, Note_on_c, 0, 77, 50
2, 714, Note_on_c, 0, 77, 0
2, 714, Note_on_c, 0, 69, 0
2, 720, Note_on_c, 0, 72, 53
2, 720, Note_on_c, 0, 77, 62
2, 960, Note_on_c, 0, 77, 0
2, 960, Note_on_c, 0, 72, 0
2, 960, Note_on_c, 0, 65, 46
2, 960, Note_on_c, 0, 74, 55
2, 1080, Note_on_c, 0, 74, 0
2, 1080, Note_on_c, 0, 65, 0
2, 1200, Note_on_c, 0, 70, 50
2, 1380, Note_on_c, 0, 70, 0
2, 1380, Note_on_c, 0, 66, 42
2, 1380, Note_on_c, 0, 74, 50
2, 1434, Note_on_c, 0, 74, 0
2, 1434, Note_on_c, 0, 66, 0
2, 1440, Note_on_c, 0, 69, 53
2, 1440, Note_on_c, 0, 74, 62
2, 1680, Note_on_c, 0, 74, 0
2, 1680, Note_on_c, 0, 69, 0
2, 1680, Note_on_c, 0, 62, 46
2, 1680, Note_on_c, 0, 70, 55
2, 1800, Note_on_c, 0, 70, 0
2, 1800, Note_on_c, 0, 62, 0
2, 1920, Note_on_c, 0, 67, 52
2, 2100, Note_on_c, 0, 67, 0
2, 2100, Note_on_c, 0, 62, 44
2, 2100, Note_on_c, 0, 70, 53
2, 2154, Note_on_c, 0, 70, 0
2, 2154, Note_on_c, 0, 62, 0
2, 2160, Note_on_c, 0, 65, 57
2, 2160, Note_on_c, 0, 70, 66
2, 2400, Note_on_c, 0, 70, 0
2, 2400, Note_on_c, 0, 65, 0
2, 2400, Note_on_c, 0, 58, 51
2, 2400, Note_on_c, 0, 67, 61
2, 2520, Note_on_c, 0, 67, 0
2, 2520, Note_on_c, 0, 58, 0
2, 2640, Note_on_c, 0, 58, 47
2, 2640, Note_on_c, 0, 67, 57
2, 2820, Note_on_c, 0, 67, 0
2, 2820, Note_on_c, 0, 58, 0
2, 2820, Note_on_c, 0, 63, 48
2, 2820, Note_on_c, 0, 69, 58
2, 2874, Note_on_c, 0, 69, 0
2, 2874, Note_on_c, 0, 63, 0
2, 2880, Note_on_c, 0, 63, 62
2, 2880, Note_on_c, 0, 69, 72
2, 3120, Note_on_c, 0, 69, 0
2, 3120, Note_on_c, 0, 63, 0
2, 3120, Note_on_c, 0, 58, 55
2, 3120, Note_on_c, 0, 70, 66
2, 3240, Note_on_c, 0, 70, 0
2, 3240, Note_on_c, 0, 58, 0
2, 3360, Note_on_c, 0, 65, 51
2, 3360, Note_on_c, 0, 70, 61
2, 3540, Note_on_c, 0, 70, 0
2, 3540, Note_on_c, 0, 72, 63
2, 3594, Note_on_c, 0, 72, 0
2, 3600, Note_on_c, 0, 65, 0
2, 3600, Note_on_c, 0, 65, 67
2, 3600, Note_on_c, 0, 72, 79
2, 3840, Note_on_c, 0, 72, 0
2, 3840, Note_on_c, 0, 65, 0
2, 3840, Note_on_c, 0, 70, 60
2, 3840, Note_on_c, 0, 65, 60
2, 3840, Note_on_c, 0, 74, 72
2, 3960, Note_on_c, 0, 74, 0
2, 3960, Note_on_c, 0, 65, 0
2, 3960, Note_on_c, 0, 70, 0
2, 4080, Note_on_c, 0, 70, 56
2, 4080, Note_on_c, 0, 74, 67
2, 4260, Note_on_c, 0, 74, 0
2, 4260, Note_on_c, 0, 75, 70
2, 4314, Note_on_c, 0, 75, 0
2, 4320, Note_on_c, 0, 70, 0
2, 4320, Note_on_c, 0, 70, 75
2, 4320, Note_on_c, 0, 75, 88
2, 4560, Note_on_c, 0, 75, 0
2, 4560, Note_on_c, 0, 70, 0
2, 4560, Note_on_c, 0, 73, 68
2, 4560, Note_on_c, 0, 70, 68
2, 4560, Note_on_c, 0, 65, 68
2, 4560, Note_on_c, 0, 77, 82
2, 4620, Note_on_c, 0, 77, 0
2, 4620, Note_on_c, 0, 73, 0
2, 4620, Note_on_c, 0, 70, 0
2, 4620, Note_on_c, 0, 65, 0
2, 4800, Note_on_c, 0, 67, 79
2, 4800, Note_on_c, 0, 70, 79
2, 4800, Note_on_c, 0, 72, 79
2, 4800, Note_on_c, 0, 79, 94
2, 4860, Note_on_c, 0, 79, 0
2, 4860, Note_on_c, 0, 67, 0
2, 4860, Note_on_c, 0, 70, 0
2, 4860, Note_on_c, 0, 72, 0
2, 5040, Note_on_c, 0, 60, 79
2, 5040, Note_on_c, 0, 69, 79
2, 5040, Note_on_c, 0, 72, 94
2, 5160, Note_on_c, 0, 72, 0
2, 5160, Note_on_c, 0, 69, 0
2, 5160, Note_on_c, 0, 60, 0
2, 5520, Note_on_c, 0, 86, 50
2, 5700, Note_on_c, 0, 86, 0
2, 5700, Note_on_c, 0, 81, 42
2, 5700, Note_on_c, 0, 89, 50
2, 5754, Note_on_c, 0, 89, 0
2, 5754, Note_on_c, 0, 81, 0
2, 5760, Note_on_c, 0, 84, 53
2, 5760, Note_on_c, 0, 89, 62
2, 6000, Note_on_c, 0, 89, 0
2, 6000, Note_on_c, 0, 84, 0
2, 6000, Note_on_c, 0, 77, 46
2, 6000, Note_on_c, 0, 86, 55
2, 6120, Note_on_c, 0, 86, 0
2, 6120, Note_on_c, 0, 77, 0
2, 6240, Note_on_c, 0, 82, 50
2, 6420, Note_on_c, 0, 82, 0
2, 6420, Note_on_c, 0, 78, 42
2, 6420, Note_on_c, 0, 86, 50
2, 6474, Note_on_c, 0, 86, 0
2, 6474, Note_on_c, 0, 78, 0
2, 6480, Note_on_c, 0, 81, 53
2, 6480, Note_on_c, 0, 86, 62
2, 6720, Note_on_c, 0, 86, 0
2, 6720, Note_on_c, 0, 81, 0
2, 6720, Note_on_c, 0, 74, 46
2, 6720, Note_on_c, 0, 82, 55
2, 6840, Note_on_c, 0, 82, 0
2, 6840, Note_on_c, 0, 74, 0
2, 6960, Note_on_c, 0, 79, 52
2, 7140, Note_on_c, 0, 79, 0
2, 7140, Note_on_c, 0, 74, 44
2, 7140, Note_on_c, 0, 82, 53
2, 7194, Note_on_c, 0, 82, 0
2, 7194, Note_on_c, 0, 74, 0
2, 7200, Note_on_c, 0, 77, 57
2, 7200, Note_on_c, 0, 82, 66
2, 7440, Note_on_c, 0, 82, 0
2, 7440, Note_on_c, 0, 77, 0
2, 7440, Note_on_c, 0, 70, 51
2, 7440, Note_on_c, 0, 79, 61
2, 7560, Note_on_c, 0, 79, 0
2, 7560, Note_on_c, 0, 70, 0
2, 7680, Note_on_c, 0, 70, 47
2, 7680, Note_on_c, 0, 79, 57
2, 7860, Note_on_c, 0, 79, 0
2, 7860, Note_on_c, 0, 70, 0
2, 7860, Note_on_c, 0, 75, 48
2, 7860, Note_on_c, 0, 81, 58
2, 7914, Note_on_c, 0, 81, 0
2, 7914, Note_on_c, 0, 75, 0
2, 7920, Note_on_c, 0, 75, 62
2, 7920, Note_on_c, 0, 81, 72
2, 8160, Note_on_c, 0, 81, 0
2, 8160, Note_on_c, 0, 75, 0
2, 8160, Note_on_c, 0, 70, 55
2, 8160, Note_on_c, 0, 82, 66
2, 8280, Note_on_c, 0, 82, 0
2, 8280, Note_on_c, 0, 70, 0
2, 8400, Note_on_c, 0, 77, 51
2, 8400, Note_on_c, 0, 82, 61
2, 8580, Note_on_c, 0, 82, 0
2, 8580, Note_on_c, 0, 84, 63
2, 8634, Note_on_c, 0, 84, 0
2, 8640, Note_on_c, 0, 77, 0
2, 8640, Note_on_c, 0, 77, 67
2, 8640, Note_on_c, 0, 84, 79
2, 8880, Note_on_c, 0, 84, 0
2, 8880, Note_on_c, 0, 77, 0
2, 8880, Note_on_c, 0, 77, 60
2, 8880, Note_on_c, 0, 86, 72
2, 9000, Note_on_c, 0, 86, 0
2, 9000, Note_on_c, 0, 77, 0
2, 9120, Note_on_c, 0, 82, 56
2, 9120, Note_on_c, 0, 87, 67
2, 9300, Note_on_c, 0, 87, 0
2, 9300, Note_on_c, 0, 88, 70
2, 9354, Note_on_c, 0, 88, 0
2, 9360, Note_on_c, 0, 82, 0
2, 9360, Note_on_c, 0, 82, 75
2, 9360, Note_on_c, 0, 88, 88
2, 9600, Note_on_c, 0, 88, 0
2, 9600, Note_on_c, 0, 82, 0
2, 9600, Note_on_c, 0, 81, 68
2, 9600, Note_on_c, 0, 77, 68
2, 9600, Note_on_c, 0, 89, 82
2, 9660, Note_on_c, 0, 89, 0
2, 9660, Note_on_c, 0, 77, 0
2, 9660, Note_on_c, 0, 81, 0
2, 9840, Note_on_c, 0, 79, 79
2, 9840, Note_on_c, 0, 82, 79
2, 9840, Note_on_c, 0, 88, 79
2, 9840, Note_on_c, 0, 91, 94
2, 9900, Note_on_c, 0, 91, 0
2, 9900, Note_on_c, 0, 79, 0
2, 9900, Note_on_c, 0, 82, 0
2, 9900, Note_on_c, 0, 88, 0
2, 10080, Note_on_c, 0, 77, 79
2, 10080, Note_on_c, 0, 81, 79
2, 10080, Note_on_c, 0, 89, 94
2, 10200, Note_on_c, 0, 89, 0
2, 10200, Note_on_c, 0, 81, 0
2, 10200, Note_on_c, 0, 77, 0
2, 10560, Note_on_c, 0, 71, 43
2, 10560, Note_on_c, 0, 74, 50
2, 10740, Note_on_c, 0, 74, 0
2, 10740, Note_on_c, 0, 71, 0
2, 10740, Note_on_c, 0, 74, 42
2, 10740, Note_on_c, 0, 77, 50
2, 10785, Note_on_c, 0, 77, 0
2, 10785, Note_on_c, 0, 74, 0
2, 10800, Note_on_c, 0, 74, 53
2, 10800, Note_on_c, 0, 77, 62
2, 11040, Note_on_c, 0, 77, 0
2, 11040, Note_on_c, 0, 74, 0
2, 11040, Note_on_c, 0, 71, 46
2, 11040, Note_on_c, 0, 74, 55
2, 11160, Note_on_c, 0, 74, 0
2, 11160, Note_on_c, 0, 71, 0
2, 11280, Note_on_c, 0, 71, 43
2, 11280, Note_on_c, 0, 74, 50
2, 11460, Note_on_c, 0, 74, 0
2, 11460, Note_on_c, 0, 71, 0
2, 11460, Note_on_c, 0, 75, 42
2, 11460, Note_on_c, 0, 79, 50
2, 11505, Note_on_c, 0, 79, 0
2, 11505, Note_on_c, 0, 75, 0
2, 11520, Note_on_c, 0, 75, 53
2, 11520, Note_on_c, 0, 79, 62
2, 11760, Note_on_c, 0, 79, 0
2, 11760, Note_on_c, 0, 75, 0
2, 11760, Note_on_c, 0, 72, 46
2, 11760, Note_on_c, 0, 75, 55
2, 11880, Note_on_c, 0, 75, 0
2, 11880, Note_on_c, 0, 72, 0
2, 12000, Note_on_c, 0, 69, 43
2, 12000, Note_on_c, 0, 72, 50
2, 12180, Note_on_c, 0, 72, 0
2, 12180, Note_on_c, 0, 69, 0
2, 12180, Note_on_c, 0, 72, 42
2, 12180, Note_on_c, 0, 75, 50
2, 12225, Note_on_c, 0, 75, 0
2, 12225, Note_on_c, 0, 72, 0
2, 12240, Note_on_c, 0, 72, 53
2, 12240, Note_on_c, 0, 75, 62
2, 12480, Note_on_c, 0, 75, 0
2, 12480, Note_on_c, 0, 72, 0
2, 12480, Note_on_c, 0, 69, 46
2, 12480, Note_on_c, 0, 72, 55
2, 12600, Note_on_c, 0, 72, 0
2, 12600, Note_on_c, 0, 69, 0
2, 12720, Note_on_c, 0, 69, 43
2, 12720, Note_on_c, 0, 72, 50
2, 12900, Note_on_c, 0, 72, 0
2, 12900, Note_on_c, 0, 69, 0
2, 12900, Note_on_c, 0, 73, 42
2, 12900, Note_on_c, 0, 77, 50
2, 12945, Note_on_c, 0, 77, 0
2, 12945, Note_on_c, 0, 73, 0
2, 12960, Note_on_c, 0, 74, 53
2, 12960, Note_on_c, 0, 77, 62
2, 13200, Note_on_c, 0, 77, 0
2, 13200, Note_on_c, 0, 74, 0
2, 13200, Note_on_c, 0, 70, 46
2, 13200, Note_on_c, 0, 74, 55
2, 13320, Note_on_c, 0, 74, 0
2, 13320, Note_on_c, 0, 70, 0
2, 13440, Note_on_c, 0, 57, 38
2, 13440, Note_on_c, 0, 60, 45
2, 13620, Note_on_c, 0, 60, 0
2, 13620, Note_on_c, 0, 57, 0
2, 13620, Note_on_c, 0, 60, 37
2, 13620, Note_on_c, 0, 63, 45
2, 13665, Note_on_c, 0, 63, 0
2, 13665, Note_on_c, 0, 60, 0
2, 13680, Note_on_c, 0, 60, 47
2, 13680, Note_on_c, 0, 63, 55
2, 14160, Note_on_c, 0, 63, 0
2, 14160, Note_on_c, 0, 60, 0
2, 14160, Note_on_c, 0, 58, 40
2, 14160, Note_on_c, 0, 62, 48
2, 14400, Note_on_c, 0, 62, 0
2, 14400, Note_on_c, 0, 58, 0
2, 14400, Note_on_c, 0, 57, 39
2, 14400, Note_on_c, 0, 60, 46
2, 14640, Note_on_c, 0, 60, 0
2, 14640, Note_on_c, 0, 57, 0
2, 14640, Note_on_c, 0, 55, 38
2, 14640, Note_on_c, 0, 58, 45
2, 14880, Note_on_c, 0, 58, 0
2, 14880, Note_on_c, 0, 55, 0
2, 14880, Note_on_c, 0, 53, 36
2, 14880, Note_on_c, 0, 57, 43
2, 15360, Note_on_c, 0, 57, 0
2, 15360, Note_on_c, 0, 53, 0
2, 15360, Note_on_c, 0, 52, 33
2, 15360, Note_on_c, 0, 55, 39
2, 15600, Note_on_c, 0, 55, 0
2, 15600, Note_on_c, 0, 52, 0
2, 15600, Note_on_c, 0, 51, 32
2, 15600, Note_on_c, 0, 55, 32
2, 15600, Note_on_c, 0, 60, 38
2, 16080, Note_on_c, 0, 60, 0
2, 16080, Note_on_c, 0, 51, 0
2, 16080, Note_on_c, 0, 50, 32
2, 16080, Note_on_c, 0, 59, 38
2, 16320, Note_on_c, 0, 59, 0
2, 16320, Note_on_c, 0, 50, 0
2, 16320, Note_on_c, 0, 55, 0
2, 17040, Note_on_c, 0, 59, 40
2, 17220, Note_on_c, 0, 59, 0
2, 17220, Note_on_c, 0, 62, 40
2, 17274, Note_on_c, 0, 62, 0
2, 17280, Note_on_c, 0, 62, 49
2, 17520, Note_on_c, 0, 62, 0
2, 17520, Note_on_c, 0, 59, 44
2, 17640, Note_on_c, 0, 59, 0
2, 17760, Note_on_c, 0, 62, 33
2, 17760, Note_on_c, 0, 71, 40
2, 17940, Note_on_c, 0, 71, 0
2, 17940, Note_on_c, 0, 74, 40
2, 17994, Note_on_c, 0, 74, 0
2, 18000, Note_on_c, 0, 74, 49
2, 18240, Note_on_c, 0, 74, 0
2, 18240, Note_on_c, 0, 71, 44
2, 18360, Note_on_c, 0, 71, 0
2, 18360, Note_on_c, 0, 62, 0
2, 18480, Note_on_c, 0, 84, 46
2, 18660, Note_on_c, 0, 84, 0
2, 18660, Note_on_c, 0, 87, 46
2, 18714, Note_on_c, 0, 87, 0
2, 18720, Note_on_c, 0, 87, 56
2, 18960, Note_on_c, 0, 87, 0
2, 18960, Note_on_c, 0, 84, 50
2, 19080, Note_on_c, 0, 84, 0
2, 19200, Note_on_c, 0, 62, 43
2, 19200, Note_on_c, 0, 71, 50
2, 19380, Note_on_c, 0, 71, 0
2, 19380, Note_on_c, 0, 62, 0
2, 19380, Note_on_c, 0, 65, 42
2, 19380, Note_on_c, 0, 74, 50
2, 19425, Note_on_c, 0, 74, 0
2, 19425, Note_on_c, 0, 65, 0
2, 19440, Note_on_c, 0, 65, 53
2, 19440, Note_on_c, 0, 74, 62
2, 19680, Note_on_c, 0, 74, 0
2, 19680, Note_on_c, 0, 65, 0
2, 19680, Note_on_c, 0, 62, 47
2, 19680, Note_on_c, 0, 71, 56
2, 19800, Note_on_c, 0, 71, 0
2, 19800, Note_on_c, 0, 62, 0
2, 19920, Note_on_c, 0, 62, 51
2, 19920, Note_on_c, 0, 71, 59
2, 20100, Note_on_c, 0, 71, 0
2, 20100, Note_on_c, 0, 62, 0
2, 20100, Note_on_c, 0, 67, 50
2, 20100, Note_on_c, 0, 75, 60
2, 20145, Note_on_c, 0, 75, 0
2, 20145, Note_on_c, 0, 67, 0
2, 20160, Note_on_c, 0, 67, 63
2, 20160, Note_on_c, 0, 75, 75
2, 20400, Note_on_c, 0, 75, 0
2, 20400, Note_on_c, 0, 67, 0
2, 20400, Note_on_c, 0, 63, 56
2, 20400, Note_on_c, 0, 72, 68
2, 20520, Note_on_c, 0, 72, 0
2, 20520, Note_on_c, 0, 63, 0
2, 20640, Note_on_c, 0, 69, 61
2, 20640, Note_on_c, 0, 72, 73
2, 20820, Note_on_c, 0, 72, 0
2, 20820, Note_on_c, 0, 69, 0
2, 20820, Note_on_c, 0, 72, 66
2, 20820, Note_on_c, 0, 81, 75
2, 20874, Note_on_c, 0, 81, 0
2, 20874, Note_on_c, 0, 72, 0
2, 20880, Note_on_c, 0, 72, 80
2, 20880, Note_on_c, 0, 81, 94
2, 21120, Note_on_c, 0, 81, 0
2, 21120, Note_on_c, 0, 72, 0
2, 21120, Note_on_c, 0, 69, 71
2, 21120, Note_on_c, 0, 77, 85
2, 21180, Note_on_c, 0, 77, 0
2, 21180, Note_on_c, 0, 69, 0
2, 21360, Note_on_c, 0, 70, 86
2, 21360, Note_on_c, 0, 82, 103
2, 21420, Note_on_c, 0, 82, 0
2, 21420, Note_on_c, 0, 70, 0
2, 21600, Note_on_c, 0, 70, 86
2, 21600, Note_on_c, 0, 82, 103
2, 21720, Note_on_c, 0, 82, 0
2, 21720, Note_on_c, 0, 70, 0
2, 22080, Note_on_c, 0, 83, 43
2, 22080, Note_on_c, 0, 86, 50
2, 22260, Note_on_c, 0, 86, 0
2, 22260, Note_on_c, 0, 83, 0
2, 22260, Note_on_c, 0, 86, 42
2, 22260, Note_on_c, 0, 89, 50
2, 22305, Note_on_c, 0, 89, 0
2, 22305, Note_on_c, 0, 86, 0
2, 22320, Note_on_c, 0, 86, 53
2, 22320, Note_on_c, 0, 89, 62
2, 22560, Note_on_c, 0, 89, 0
2, 22560, Note_on_c, 0, 86, 0
2, 22560, Note_on_c, 0, 83, 46
2, 22560, Note_on_c, 0, 86, 55
2, 22680, Note_on_c, 0, 86, 0
2, 22680, Note_on_c, 0, 83, 0
2, 22800, Note_on_c, 0, 83, 43
2, 22800, Note_on_c, 0, 86, 50
2, 22980, Note_on_c, 0, 86, 0
2, 22980, Note_on_c, 0, 83, 0
2, 22980, Note_on_c, 0, 87, 42
2, 22980, Note_on_c, 0, 91, 50
2, 23025, Note_on_c, 0, 91, 0
2, 23025, Note_on_c, 0, 87, 0
2, 23040, Note_on_c, 0, 87, 53
2, 23040, Note_on_c, 0, 91, 62
2, 23280, Note_on_c, 0, 91, 0
2, 23280, Note_on_c, 0, 87, 0
2, 23280, Note_on_c, 0, 84, 46
2, 23280, Note_on_c, 0, 87, 55
2, 23400, Note_on_c, 0, 87, 0
2, 23400, Note_on_c, 0, 84, 0
2, 23520, Note_on_c, 0, 81, 43
2, 23520, Note_on_c, 0, 84, 50
2, 23700, Note_on_c, 0, 84, 0
2, 23700, Note_on_c, 0, 81, 0
2, 23700, Note_on_c, 0, 84, 42
2, 23700, Note_on_c, 0, 87, 50
2, 23745, Note_on_c, 0, 87, 0
2, 23745, Note_on_c, 0, 84, 0
2, 23760, Note_on_c, 0, 84, 53
2, 23760, Note_on_c, 0, 87, 62
2, 24000, Note_on_c, 0, 87, 0
2, 24000, Note_on_c, 0, 84, 0
2, 24000, Note_on_c, 0, 81, 46
2, 24000, Note_on_c, 0, 84, 55
2, 24120, Note_on_c, 0, 84, 0
2, 24120, Note_on_c, 0, 81, 0
2, 24240, Note_on_c, 0, 81, 43
2, 24240, Note_on_c, 0, 84, 50
2, 24420, Note_on_c, 0, 84, 0
2, 24420, Note_on_c, 0, 81, 0
2, 24420, Note_on_c, 0, 85, 42
2, 24420, Note_on_c, 0, 89, 50
2, 24465, Note_on_c, 0, 89, 0
2, 24465, Note_on_c, 0, 85, 0
2, 24480, Note_on_c, 0, 86, 53
2, 24480, Note_on_c, 0, 89, 62
2, 24720, Note_on_c, 0, 89, 0
2, 24720, Note_on_c, 0, 86, 0
2, 24720, Note_on_c, 0, 82, 46
2, 24720, Note_on_c, 0, 86, 55
2, 24840, Note_on_c, 0, 86, 0
2, 24840, Note_on_c, 0, 82, 0
2, 24960, Note_on_c, 0, 69, 38
2, 24960, Note_on_c, 0, 72, 45
2, 25140, Note_on_c, 0, 72, 0
2, 25140, Note_on_c, 0, 69, 0
2, 25140, Note_on_c, 0, 72, 37
2, 25140, Note_on_c, 0, 75, 45
2, 25185, Note_on_c, 0, 75, 0
2, 25185, Note_on_c, 0, 72, 0
2, 25200, Note_on_c, 0, 72, 47
2, 25200, Note_on_c, 0, 75, 55
2, 25680, Note_on_c, 0, 75, 0
2, 25680, Note_on_c, 0, 72, 0
2, 25680, Note_on_c, 0, 70, 40
2, 25680, Note_on_c, 0, 74, 48
2, 25920, Note_on_c, 0, 74, 0
2, 25920, Note_on_c, 0, 70, 0
2, 25920, Note_on_c, 0, 69, 39
2, 25920, Note_on_c, 0, 72, 46
2, 26160, Note_on_c, 0, 72, 0
2, 26160, Note_on_c, 0, 69, 0
2, 26160, Note_on_c, 0, 67, 38
2, 26160, Note_on_c, 0, 70, 45
2, 26400, Note_on_c, 0, 70, 0
2, 26400, Note_on_c, 0, 67, 0
2, 26400, Note_on_c, 0, 65, 36
2, 26400, Note_on_c, 0, 69, 43
2, 26880, Note_on_c, 0, 69, 0
2, 26880, Note_on_c, 0, 65, 0
2, 26880, Note_on_c, 0, 64, 33
2, 26880, Note_on_c, 0, 67, 39
2, 27120, Note_on_c, 0, 67, 0
2, 27120, Note_on_c, 0, 64, 0
2, 27120, Note_on_c, 0, 63, 32
2, 27120, Note_on_c, 0, 67, 32
2, 27120, Note_on_c, 0, 72, 38
2, 27600, Note_on_c, 0, 72, 0
2, 27600, Note_on_c, 0, 63, 0
2, 27600, Note_on_c, 0, 62, 32
2, 27600, Note_on_c, 0, 71, 38
2, 27840, Note_on_c, 0, 71, 0
2, 27840, Note_on_c, 0, 62, 0
2, 27840, Note_on_c, 0, 67, 0
2, 28560, Note_on_c, 0, 71, 40
2, 28740, Note_on_c, 0, 71, 0
2, 28740, Note_on_c, 0, 74, 40
2, 28794, Note_on_c, 0, 74, 0
2, 28800, Note_on_c, 0, 74, 49
2, 29040, Note_on_c, 0, 74, 0
2, 29040, Note_on_c, 0, 71, 44
2, 29160, Note_on_c, 0, 71, 0
2, 29280, Note_on_c, 0, 74, 33
2, 29280, Note_on_c, 0, 83, 40
2, 29460, Note_on_c, 0, 83, 0
2, 29460, Note_on_c, 0, 86, 40
2, 29514, Note_on_c, 0, 86, 0
2, 29520, Note_on_c, 0, 86, 49
2, 29760, Note_on_c, 0, 86, 0
2, 29760, Note_on_c, 0, 83, 44
2, 29880, Note_on_c, 0, 83, 0
2, 29880, Note_on_c, 0, 74, 0
2, 30000, Note_on_c, 0, 72, 46
2, 30180, Note_on_c, 0, 72, 0
2, 30180, Note_on_c, 0, 75, 46
2, 30234, Note_on_c, 0, 75, 0
2, 30240, Note_on_c, 0, 75, 56
2, 30480, Note_on_c, 0, 75, 0
2, 30480, Note_on_c, 0, 72, 50
2, 30600, Note_on_c, 0, 72, 0
2, 30720, Note_on_c, 0, 74, 43
2, 30720, Note_on_c, 0, 83, 50
2, 30900, Note_on_c, 0, 83, 0
2, 30900, Note_on_c, 0, 74, 0
2, 30900, Note_on_c, 0, 77, 42
2, 30900, Note_on_c, 0, 86, 50
2, 30945, Note_on_c, 0, 86, 0
2, 30945, Note_on_c, 0, 77, 0
2, 30960, Note_on_c, 0, 77, 54
2, 30960, Note_on_c, 0, 86, 63
2, 31200, Note_on_c, 0, 86, 0
2, 31200, Note_on_c, 0, 77, 0
2, 31200, Note_on_c, 0, 74, 48
2, 31200, Note_on_c, 0, 83, 57
2, 31320, Note_on_c, 0, 83, 0
2, 31320, Note_on_c, 0, 74, 0
2, 31440, Note_on_c, 0, 74, 52
2, 31440, Note_on_c, 0, 83, 60
2, 31620, Note_on_c, 0, 83, 0
2, 31620, Note_on_c, 0, 74, 0
2, 31620, Note_on_c, 0, 79, 52
2, 31620, Note_on_c, 0, 87, 62
2, 31665, Note_on_c, 0, 87, 0
2, 31665, Note_on_c, 0, 79, 0
2, 31680, Note_on_c, 0, 79, 66
2, 31680, Note_on_c, 0, 87, 78
2, 31920, Note_on_c, 0, 87, 0
2, 31920, Note_on_c, 0, 79, 0
2, 31920, Note_on_c, 0, 75, 58
2, 31920, Note_on_c, 0, 84, 70
2, 32040, Note_on_c, 0, 84, 0
2, 32040, Note_on_c, 0, 75, 0
2, 32160, Note_on_c, 0, 81, 64
2, 32160, Note_on_c, 0, 84, 77
2, 32340, Note_on_c, 0, 84, 0
2, 32340, Note_on_c, 0, 81, 0
2, 32340, Note_on_c, 0, 84, 69
2, 32340, Note_on_c, 0, 93, 79
2, 32394, Note_on_c, 0, 93, 0
2, 32394, Note_on_c, 0, 84, 0
2, 32400, Note_on_c, 0, 84, 83
2, 32400, Note_on_c, 0, 93, 98
2, 32640, Note_on_c, 0, 93, 0
2, 32640, Note_on_c, 0, 84, 0
2, 32640, Note_on_c, 0, 81, 74
2, 32640, Note_on_c, 0, 89, 89
2, 32700, Note_on_c, 0, 89, 0
2, 32700, Note_on_c, 0, 81, 0
2, 32880, Note_on_c, 0, 82, 94
2, 32880, Note_on_c, 0, 94, 112
2, 32940, Note_on_c, 0, 94, 0
2, 32940, Note_on_c, 0, 82, 0
2, 33120, Note_on_c, 0, 82, 94
2, 33120, Note_on_c, 0, 94, 112
2, 33240, Note_on_c, 0, 94, 0
2, 33240, Note_on_c, 0, 82, 0
2, 33600, Note_on_c, 0, 73, 52
2, 33600, Note_on_c, 0, 85, 62
2, 34080, Note_on_c, 0, 85, 0
2, 34080, Note_on_c, 0, 73, 0
2, 34080, Note_on_c, 0, 89, 58
2, 34080, Note_on_c, 0, 77, 58
2, 34320, Note_on_c, 0, 77, 0
2, 34320, Note_on_c, 0, 89, 0
2, 34320, Note_on_c, 0, 73, 52
2, 34320, Note_on_c, 0, 85, 62
2, 34800, Note_on_c, 0, 85, 0
2, 34800, Note_on_c, 0, 73, 0
2, 34800, Note_on_c, 0, 70, 52
2, 34800, Note_on_c, 0, 82, 62
2, 35040, Note_on_c, 0, 82, 0
2, 35040, Note_on_c, 0, 70, 0
2, 35040, Note_on_c, 0, 65, 48
2, 35040, Note_on_c, 0, 77, 57
2, 35280, Note_on_c, 0, 77, 0
2, 35280, Note_on_c, 0, 65, 0
2, 35280, Note_on_c, 0, 70, 53
2, 35280, Note_on_c, 0, 82, 63
2, 35760, Note_on_c, 0, 82, 0
2, 35760, Note_on_c, 0, 70, 0
2, 35760, Note_on_c, 0, 85, 66
2, 35760, Note_on_c, 0, 73, 55
2, 36000, Note_on_c, 0, 73, 0
2, 36000, Note_on_c, 0, 85, 0
2, 36000, Note_on_c, 0, 77, 58
2, 36000, Note_on_c, 0, 89, 69
2, 36480, Note_on_c, 0, 89, 0
2, 36480, Note_on_c, 0, 77, 0
2, 36480, Note_on_c, 0, 85, 79
2, 36480, Note_on_c, 0, 73, 67
2, 36720, Note_on_c, 0, 73, 0
2, 36720, Note_on_c, 0, 85, 0
2, 36720, Note_on_c, 0, 82, 81
2, 36720, Note_on_c, 0, 70, 68
2, 37200, Note_on_c, 0, 70, 0
2, 37200, Note_on_c, 0, 82, 0
2, 37200, Note_on_c, 0, 77, 82
2, 37200, Note_on_c, 0, 65, 68
2, 37440, Note_on_c, 0, 65, 0
2, 37440, Note_on_c, 0, 77, 0
2, 37440, Note_on_c, 0, 70, 72
2, 37440, Note_on_c, 0, 82, 86
2, 37920, Note_on_c, 0, 82, 0
2, 37920, Note_on_c, 0, 70, 0
2, 37920, Note_on_c, 0, 85, 78
2, 37920, Note_on_c, 0, 73, 66
2, 38160, Note_on_c, 0, 73, 0
2, 38160, Note_on_c, 0, 85, 0
2, 38160, Note_on_c, 0, 77, 60
2, 38160, Note_on_c, 0, 89, 72
2, 38640, Note_on_c, 0, 89, 0
2, 38640, Note_on_c, 0, 77, 0
2, 38640, Note_on_c, 0, 92, 51
2, 38640, Note_on_c, 0, 80, 42
2, 38880, Note_on_c, 0, 80, 0
2, 38880, Note_on_c, 0, 92, 0
2, 38880, Note_on_c, 0, 85, 48
2, 38880, Note_on_c, 0, 73, 40
2, 39120, Note_on_c, 0, 73, 0
2, 39120, Note_on_c, 0, 85, 0
2, 39360, Note_on_c, 0, 70, 34
2, 39360, Note_on_c, 0, 82, 40
2, 39420, Note_on_c, 0, 82, 0
2, 39420, Note_on_c, 0, 70, 0
2, 39600, Note_on_c, 0, 70, 34
2, 39600, Note_on_c, 0, 82, 40
2, 39660, Note_on_c, 0, 82, 0
2, 39660, Note_on_c, 0, 70, 0
2, 40080, Note_on_c, 0, 73, 37
2, 40160, Note_on_c, 0, 73, 0
2, 40160, Note_on_c, 0, 70, 30
2, 40240, Note_on_c, 0, 70, 0
2, 40240, Note_on_c, 0, 65, 30
2, 40320, Note_on_c, 0, 65, 0
2, 40320, Note_on_c, 0, 73, 37
2, 40400, Note_on_c, 0, 73, 0
2, 40400, Note_on_c, 0, 70, 31
2, 40480, Note_on_c, 0, 70, 0
2, 40480, Note_on_c, 0, 65, 31
2, 40560, Note_on_c, 0, 65, 0
2, 40560, Note_on_c, 0, 77, 37
2, 40640, Note_on_c, 0, 77, 0
2, 40640, Note_on_c, 0, 73, 31
2, 40720, Note_on_c, 0, 73, 0
2, 40720, Note_on_c, 0, 70, 30
2, 40800, Note_on_c, 0, 70, 0
2, 40800, Note_on_c, 0, 73, 37
2, 40880, Note_on_c, 0, 73, 0
2, 40880, Note_on_c, 0, 70, 31
2, 40960, Note_on_c, 0, 70, 0
2, 40960, Note_on_c, 0, 65, 31
2, 41040, Note_on_c, 0, 65, 0
2, 41040, Note_on_c, 0, 73, 37
2, 41120, Note_on_c, 0, 73, 0
2, 41120, Note_on_c, 0, 70, 31
2, 41200, Note_on_c, 0, 70, 0
2, 41200, Note_on_c, 0, 65, 31
2, 41280, Note_on_c, 0, 65, 0
2, 41280, Note_on_c, 0, 70, 39
2, 41360, Note_on_c, 0, 70, 0
2, 41360, Note_on_c, 0, 65, 32
2, 41440, Note_on_c, 0, 65, 0
2, 41440, Note_on_c, 0, 61, 32
2, 41520, Note_on_c, 0, 61, 0
2, 41520, Note_on_c, 0, 65, 40
2, 41600, Note_on_c, 0, 65, 0
2, 41600, Note_on_c, 0, 61, 34
2, 41680, Note_on_c, 0, 61, 0
2, 41680, Note_on_c, 0, 58, 36
2, 41760, Note_on_c, 0, 58, 0
2, 41760, Note_on_c, 0, 61, 49
2, 41760, Note_on_c, 0, 70, 49
2, 41840, Note_on_c, 0, 70, 0
2, 41840, Note_on_c, 0, 61, 0
2, 41840, Note_on_c, 0, 58, 42
2, 41920, Note_on_c, 0, 58, 0
2, 41920, Note_on_c, 0, 61, 42
2, 42000, Note_on_c, 0, 61, 0
2, 42000, Note_on_c, 0, 70, 50
2, 42080, Note_on_c, 0, 70, 0
2, 42080, Note_on_c, 0, 61, 43
2, 42160, Note_on_c, 0, 61, 0
2, 42160, Note_on_c, 0, 58, 43
2, 42240, Note_on_c, 0, 58, 0
2, 42240, Note_on_c, 0, 65, 54
2, 42240, Note_on_c, 0, 73, 54
2, 42320, Note_on_c, 0, 73, 0
2, 42320, Note_on_c, 0, 65, 0
2, 42320, Note_on_c, 0, 61, 46
2, 42400, Note_on_c, 0, 61, 0
2, 42400, Note_on_c, 0, 65, 51
2, 42480, Note_on_c, 0, 65, 0
2, 42480, Note_on_c, 0, 77, 63
2, 42560, Note_on_c, 0, 77, 0
2, 42560, Note_on_c, 0, 73, 55
2, 42640, Note_on_c, 0, 73, 0
2, 42640, Note_on_c, 0, 70, 59
2, 42720, Note_on_c, 0, 70, 0
2, 42720, Note_on_c, 0, 77, 71
2, 42800, Note_on_c, 0, 77, 0
2, 42800, Note_on_c, 0, 73, 60
2, 42880, Note_on_c, 0, 73, 0
2, 42880, Note_on_c, 0, 70, 64
2, 42960, Note_on_c, 0, 70, 0
2, 42960, Note_on_c, 0, 73, 77
2, 43040, Note_on_c, 0, 73, 0
2, 43040, Note_on_c, 0, 70, 67
2, 43120, Note_on_c, 0, 70, 0
2, 43120, Note_on_c, 0, 65, 61
2, 43200, Note_on_c, 0, 65, 0
2, 43200, Note_on_c, 0, 70, 83
2, 43280, Note_on_c, 0, 70, 0
2, 43280, Note_on_c, 0, 65, 68
2, 43360, Note_on_c, 0, 65, 0
2, 43360, Note_on_c, 0, 61, 58
2, 43440, Note_on_c, 0, 61, 0
2, 43440, Note_on_c, 0, 70, 64
2, 43520, Note_on_c, 0, 70, 0
2, 43520, Note_on_c, 0, 65, 54
2, 43600, Note_on_c, 0, 65, 0
2, 43600, Note_on_c, 0, 61, 46
2, 43680, Note_on_c, 0, 61, 0
2, 43680, Note_on_c, 0, 65, 60
2, 43760, Note_on_c, 0, 65, 0
2, 43760, Note_on_c, 0, 61, 45
2, 43840, Note_on_c, 0, 61, 0
2, 43840, Note_on_c, 0, 58, 44
2, 43920, Note_on_c, 0, 58, 0
2, 43920, Note_on_c, 0, 61, 31
2, 43920, Note_on_c, 0, 68, 44
2, 44000, Note_on_c, 0, 68, 0
2, 44000, Note_on_c, 0, 61, 0
2, 44000, Note_on_c, 0, 56, 36
2, 44080, Note_on_c, 0, 56, 0
2, 44080, Note_on_c, 0, 61, 35
2, 44160, Note_on_c, 0, 61, 0
2, 44160, Note_on_c, 0, 68, 41
2, 44240, Note_on_c, 0, 68, 0
2, 44240, Note_on_c, 0, 65, 34
2, 44320, Note_on_c, 0, 65, 0
2, 44320, Note_on_c, 0, 61, 32
2, 44400, Note_on_c, 0, 61, 0
2, 44400, Note_on_c, 0, 65, 27
2, 44400, Note_on_c, 0, 73, 39
2, 44480, Note_on_c, 0, 73, 0
2, 44480, Note_on_c, 0, 65, 0
2, 44480, Note_on_c, 0, 61, 32
2, 44560, Note_on_c, 0, 61, 0
2, 44560, Note_on_c, 0, 65, 31
2, 44640, Note_on_c, 0, 65, 0
2, 44640, Note_on_c, 0, 77, 37
2, 44720, Note_on_c, 0, 77, 0
2, 44720, Note_on_c, 0, 73, 26
2, 44800, Note_on_c, 0, 73, 0
2, 44800, Note_on_c, 0, 68, 26
2, 44880, Note_on_c, 0, 68, 0
2, 44880, Note_on_c, 0, 77, 30
2, 44960, Note_on_c, 0, 77, 0
2, 44960, Note_on_c, 0, 73, 25
2, 45040, Note_on_c, 0, 73, 0
2, 45040, Note_on_c, 0, 68, 25
2, 45120, Note_on_c, 0, 68, 0
2, 45120, Note_on_c, 0, 80, 30
2, 45200, Note_on_c, 0, 80, 0
2, 45200, Note_on_c, 0, 77, 25
2, 45280, Note_on_c, 0, 77, 0
2, 45280, Note_on_c, 0, 73, 25
2, 45358, Note_on_c, 0, 73, 0
2, 45360, Note_on_c, 0, 65, 33
2, 45360, Note_on_c, 0, 73, 40
2, 45600, Note_on_c, 0, 73, 0
2, 45600, Note_on_c, 0, 65, 0
2, 45840, Note_on_c, 0, 77, 48
2, 45840, Note_on_c, 0, 89, 57
2, 46320, Note_on_c, 0, 89, 0
2, 46320, Note_on_c, 0, 77, 0
2, 46320, Note_on_c, 0, 92, 53
2, 46320, Note_on_c, 0, 80, 53
2, 46560, Note_on_c, 0, 80, 0
2, 46560, Note_on_c, 0, 92, 0
2, 46560, Note_on_c, 0, 77, 48
2, 46560, Note_on_c, 0, 89, 57
2, 47040, Note_on_c, 0, 89, 0
2, 47040, Note_on_c, 0, 77, 0
2, 47040, Note_on_c, 0, 73, 48
2, 47040, Note_on_c, 0, 85, 57
2, 47280, Note_on_c, 0, 85, 0
2, 47280, Note_on_c, 0, 73, 0
2, 47280, Note_on_c, 0, 68, 44
2, 47280, Note_on_c, 0, 80, 52
2, 47520, Note_on_c, 0, 80, 0
2, 47520, Note_on_c, 0, 68, 0
2, 47520, Note_on_c, 0, 73, 49
2, 47520, Note_on_c, 0, 85, 58
2, 48000, Note_on_c, 0, 85, 0
2, 48000, Note_on_c, 0, 73, 0
2, 48000, Note_on_c, 0, 89, 60
2, 48000, Note_on_c, 0, 77, 50
2, 48240, Note_on_c, 0, 77, 0
2, 48240, Note_on_c, 0, 89, 0
2, 48240, Note_on_c, 0, 80, 53
2, 48240, Note_on_c, 0, 92, 63
2, 48720, Note_on_c, 0, 92, 0
2, 48720, Note_on_c, 0, 80, 0
2, 48720, Note_on_c, 0, 89, 72
2, 48720, Note_on_c, 0, 77, 61
2, 48960, Note_on_c, 0, 77, 0
2, 48960, Note_on_c, 0, 89, 0
2, 48960, Note_on_c, 0, 85, 81
2, 48960, Note_on_c, 0, 73, 68
2, 49440, Note_on_c, 0, 73, 0
2, 49440, Note_on_c, 0, 85, 0
2, 49440, Note_on_c, 0, 82, 82
2, 49440, Note_on_c, 0, 70, 68
2, 49680, Note_on_c, 0, 70, 0
2, 49680, Note_on_c, 0, 82, 0
2, 49680, Note_on_c, 0, 65, 72
2, 49680, Note_on_c, 0, 77, 86
2, 50160, Note_on_c, 0, 77, 0
2, 50160, Note_on_c, 0, 65, 0
2, 50160, Note_on_c, 0, 82, 78
2, 50160, Note_on_c, 0, 70, 66
2, 50400, Note_on_c, 0, 70, 0
2, 50400, Note_on_c, 0, 82, 0
2, 50400, Note_on_c, 0, 73, 60
2, 50400, Note_on_c, 0, 85, 72
2, 50880, Note_on_c, 0, 85, 0
2, 50880, Note_on_c, 0, 73, 0
2, 50880, Note_on_c, 0, 89, 51
2, 50880, Note_on_c, 0, 77, 42
2, 51120, Note_on_c, 0, 77, 0
2, 51120, Note_on_c, 0, 89, 0
2, 51120, Note_on_c, 0, 82, 48
2, 51120, Note_on_c, 0, 70, 40
2, 51360, Note_on_c, 0, 70, 0
2, 51360, Note_on_c, 0, 82, 0
2, 51600, Note_on_c, 0, 61, 34
2, 51600, Note_on_c, 0, 73, 40
2, 51660, Note_on_c, 0, 73, 0
2, 51660, Note_on_c, 0, 61, 0
2, 51840, Note_on_c, 0, 61, 34
2, 51840, Note_on_c, 0, 73, 40
2, 51900, Note_on_c, 0, 73, 0
2, 51900, Note_on_c, 0, 61, 0
2, 52080, Note_on_c, 0, 61, 37
2, 52160, Note_on_c, 0, 61, 0
2, 52160, Note_on_c, 0, 65, 32
2, 52240, Note_on_c, 0, 65, 0
2, 52240, Note_on_c, 0, 73, 32
2, 52320, Note_on_c, 0, 73, 0
2, 52320, Note_on_c, 0, 77, 37
2, 52400, Note_on_c, 0, 73, 30
2, 52480, Note_on_c, 0, 73, 0
2, 52480, Note_on_c, 0, 68, 30
2, 52560, Note_on_c, 0, 68, 0
2, 52560, Note_on_c, 0, 77, 0
2, 52560, Note_on_c, 0, 77, 37
2, 52640, Note_on_c, 0, 73, 31
2, 52720, Note_on_c, 0, 73, 0
2, 52720, Note_on_c, 0, 68, 31
2, 52800, Note_on_c, 0, 68, 0
2, 52800, Note_on_c, 0, 77, 0
2, 52800, Note_on_c, 0, 77, 37
2, 52800, Note_on_c, 0, 80, 37
2, 52880, Note_on_c, 0, 77, 0
2, 52880, Note_on_c, 0, 73, 31
2, 52960, Note_on_c, 0, 73, 0
2, 52960, Note_on_c, 0, 68, 30
2, 53040, Note_on_c, 0, 68, 0
2, 53040, Note_on_c, 0, 80, 0
2, 53040, Note_on_c, 0, 77, 37
2, 53120, Note_on_c, 0, 77, 0
2, 53120, Note_on_c, 0, 73, 31
2, 53200, Note_on_c, 0, 73, 0
2, 53200, Note_on_c, 0, 68, 31
2, 53280, Note_on_c, 0, 68, 0
2, 53280, Note_on_c, 0, 77, 37
2, 53360, Note_on_c, 0, 77, 0
2, 53360, Note_on_c, 0, 73, 31
2, 53440, Note_on_c, 0, 73, 0
2, 53440, Note_on_c, 0, 68, 31
2, 53520, Note_on_c, 0, 68, 0
2, 53520, Note_on_c, 0, 73, 38
2, 53600, Note_on_c, 0, 73, 0
2, 53600, Note_on_c, 0, 68, 32
2, 53680, Note_on_c, 0, 68, 0
2, 53680, Note_on_c, 0, 65, 31
2, 53760, Note_on_c, 0, 65, 0
2, 53760, Note_on_c, 0, 61, 34
2, 53760, Note_on_c, 0, 68, 39
2, 53840, Note_on_c, 0, 68, 0
2, 53840, Note_on_c, 0, 61, 0
2, 53840, Note_on_c, 0, 56, 33
2, 53920, Note_on_c, 0, 56, 0
2, 53920, Note_on_c, 0, 61, 34
2, 54000, Note_on_c, 0, 61, 0
2, 54000, Note_on_c, 0, 65, 32
2, 54000, Note_on_c, 0, 73, 41
2, 54080, Note_on_c, 0, 73, 0
2, 54080, Note_on_c, 0, 65, 0
2, 54080, Note_on_c, 0, 61, 35
2, 54160, Note_on_c, 0, 61, 0
2, 54160, Note_on_c, 0, 65, 35
2, 54240, Note_on_c, 0, 65, 0
2, 54240, Note_on_c, 0, 73, 50
2, 54320, Note_on_c, 0, 73, 0
2, 54320, Note_on_c, 0, 68, 40
2, 54400, Note_on_c, 0, 68, 0
2, 54400, Note_on_c, 0, 65, 43
2, 54480, Note_on_c, 0, 65, 0
2, 54480, Note_on_c, 0, 77, 54
2, 54560, Note_on_c, 0, 77, 0
2, 54560, Note_on_c, 0, 73, 47
2, 54640, Note_on_c, 0, 73, 0
2, 54640, Note_on_c, 0, 68, 50
2, 54720, Note_on_c, 0, 68, 0
2, 54720, Note_on_c, 0, 80, 62
2, 54800, Note_on_c, 0, 80, 0
2, 54800, Note_on_c, 0, 77, 53
2, 54880, Note_on_c, 0, 77, 0
2, 54880, Note_on_c, 0, 73, 55
2, 54960, Note_on_c, 0, 73, 0
2, 54960, Note_on_c, 0, 77, 67
2, 55040, Note_on_c, 0, 77, 0
2, 55040, Note_on_c, 0, 73, 60
2, 55120, Note_on_c, 0, 73, 0
2, 55120, Note_on_c, 0, 77, 62
2, 55198, Note_on_c, 0, 77, 0
2, 55200, Note_on_c, 0, 77, 72
2, 55280, Note_on_c, 0, 77, 0
2, 55280, Note_on_c, 0, 73, 63
2, 55360, Note_on_c, 0, 73, 0
2, 55360, Note_on_c, 0, 65, 60
2, 55440, Note_on_c, 0, 65, 0
2, 55440, Note_on_c, 0, 73, 75
2, 55520, Note_on_c, 0, 73, 0
2, 55520, Note_on_c, 0, 70, 66
2, 55600, Note_on_c, 0, 70, 0
2, 55600, Note_on_c, 0, 65, 52
2, 55680, Note_on_c, 0, 65, 0
2, 55680, Note_on_c, 0, 73, 55
2, 55760, Note_on_c, 0, 73, 0
2, 55760, Note_on_c, 0, 70, 45
2, 55840, Note_on_c, 0, 70, 0
2, 55840, Note_on_c, 0, 65, 42
2, 55920, Note_on_c, 0, 65, 0
2, 55920, Note_on_c, 0, 70, 60
2, 56000, Note_on_c, 0, 70, 0
2, 56000, Note_on_c, 0, 65, 45
2, 56080, Note_on_c, 0, 65, 0
2, 56080, Note_on_c, 0, 61, 44
2, 56160, Note_on_c, 0, 61, 0
2, 56160, Note_on_c, 0, 65, 44
2, 56240, Note_on_c, 0, 65, 0
2, 56240, Note_on_c, 0, 61, 36
2, 56320, Note_on_c, 0, 61, 0
2, 56320, Note_on_c, 0, 58, 35
2, 56400, Note_on_c, 0, 58, 0
2, 56400, Note_on_c, 0, 65, 41
2, 56480, Note_on_c, 0, 65, 0
2, 56480, Note_on_c, 0, 61, 34
2, 56560, Note_on_c, 0, 61, 0
2, 56560, Note_on_c, 0, 58, 32
2, 56640, Note_on_c, 0, 58, 0
2, 56640, Note_on_c, 0, 61, 27
2, 56640, Note_on_c, 0, 70, 39
2, 56720, Note_on_c, 0, 70, 0
2, 56720, Note_on_c, 0, 61, 0
2, 56720, Note_on_c, 0, 58, 32
2, 56800, Note_on_c, 0, 58, 0
2, 56800, Note_on_c, 0, 61, 31
2, 56880, Note_on_c, 0, 61, 0
2, 56880, Note_on_c, 0, 73, 37
2, 56960, Note_on_c, 0, 73, 0
2, 56960, Note_on_c, 0, 70, 26
2, 57040, Note_on_c, 0, 70, 0
2, 57040, Note_on_c, 0, 65, 26
2, 57120, Note_on_c, 0, 65, 0
2, 57120, Note_on_c, 0, 73, 30
2, 57200, Note_on_c, 0, 73, 0
2, 57200, Note_on_c, 0, 70, 25
2, 57280, Note_on_c, 0, 70, 0
2, 57280, Note_on_c, 0, 65, 25
2, 57360, Note_on_c, 0, 65, 0
2, 57360, Note_on_c, 0, 77, 30
2, 57440, Note_on_c, 0, 77, 0
2, 57440, Note_on_c, 0, 73, 25
2, 57520, Note_on_c, 0, 73, 0
2, 57520, Note_on_c, 0, 65, 25
2, 57600, Note_on_c, 0, 65, 0
2, 57600, Note_on_c, 0, 70, 40
2, 57840, Note_on_c, 0, 70, 0
2, 58320, Note_on_c, 0, 70, 50
2, 58380, Note_on_c, 0, 70, 0
2, 58560, Note_on_c, 0, 73, 44
2, 58620, Note_on_c, 0, 73, 0
2, 58800, Note_on_c, 0, 72, 50
2, 58860, Note_on_c, 0, 72, 0
2, 59040, Note_on_c, 0, 65, 43
2, 59100, Note_on_c, 0, 65, 0
2, 59280, Note_on_c, 0, 77, 50
2, 59340, Note_on_c, 0, 77, 0
2, 59520, Note_on_c, 0, 75, 45
2, 59580, Note_on_c, 0, 75, 0
2, 59760, Note_on_c, 0, 73, 45
2, 59820, Note_on_c, 0, 73, 0
2, 60000, Note_on_c, 0, 72, 45
2, 60060, Note_on_c, 0, 72, 0
2, 60240, Note_on_c, 0, 70, 50
2, 60300, Note_on_c, 0, 70, 0
2, 60480, Note_on_c, 0, 73, 43
2, 60540, Note_on_c, 0, 73, 0
2, 60720, Note_on_c, 0, 72, 50
2, 60780, Note_on_c, 0, 72, 0
2, 60960, Note_on_c, 0, 68, 42
2, 61020, Note_on_c, 0, 68, 0
2, 61200, Note_on_c, 0, 72, 50
2, 61260, Note_on_c, 0, 72, 0
2, 61440, Note_on_c, 0, 67, 42
2, 61500, Note_on_c, 0, 67, 0
2, 61680, Note_on_c, 0, 65, 46
2, 62160, Note_on_c, 0, 65, 0
2, 62280, Note_on_c, 0, 65, 42
2, 62280, Note_on_c, 0, 68, 42
2, 62280, Note_on_c, 0, 72, 50
2, 62400, Note_on_c, 0, 72, 0
2, 62400, Note_on_c, 0, 68, 0
2, 62400, Note_on_c, 0, 65, 0
2, 62520, Note_on_c, 0, 65, 40
2, 62520, Note_on_c, 0, 68, 40
2, 62520, Note_on_c, 0, 72, 48
2, 62640, Note_on_c, 0, 72, 0
2, 62640, Note_on_c, 0, 68, 0
2, 62640, Note_on_c, 0, 65, 0
2, 62760, Note_on_c, 0, 64, 41
2, 62760, Note_on_c, 0, 70, 41
2, 62760, Note_on_c, 0, 72, 49
2, 62880, Note_on_c, 0, 72, 0
2, 62880, Note_on_c, 0, 70, 0
2, 62880, Note_on_c, 0, 64, 0
2, 63000, Note_on_c, 0, 64, 42
2, 63000, Note_on_c, 0, 67, 42
2, 63000, Note_on_c, 0, 70, 42
2, 63000, Note_on_c, 0, 72, 51
2, 63120, Note_on_c, 0, 72, 0
2, 63120, Note_on_c, 0, 64, 0
2, 63120, Note_on_c, 0, 67, 0
2, 63120, Note_on_c, 0, 70, 0
2, 63240, Note_on_c, 0, 64, 46
2, 63240, Note_on_c, 0, 67, 46
2, 63240, Note_on_c, 0, 72, 57
2, 63360, Note_on_c, 0, 72, 0
2, 63360, Note_on_c, 0, 67, 0
2, 63360, Note_on_c, 0, 64, 0
2, 63480, Note_on_c, 0, 64, 47
2, 63480, Note_on_c, 0, 67, 47
2, 63480, Note_on_c, 0, 72, 57
2, 63600, Note_on_c, 0, 72, 0
2, 63600, Note_on_c, 0, 67, 0
2, 63600, Note_on_c, 0, 64, 0
2, 63720, Note_on_c, 0, 65, 48
2, 63720, Note_on_c, 0, 68, 48
2, 63720, Note_on_c, 0, 72, 58
2, 63840, Note_on_c, 0, 72, 0
2, 63840, Note_on_c, 0, 68, 0
2, 63840, Note_on_c, 0, 65, 0
2, 63960, Note_on_c, 0, 64, 49
2, 63960, Note_on_c, 0, 70, 49
2, 63960, Note_on_c, 0, 72, 59
2, 64080, Note_on_c, 0, 72, 0
2, 64080, Note_on_c, 0, 70, 0
2, 64080, Note_on_c, 0, 64, 0
2, 64200, Note_on_c, 0, 65, 58
2, 64200, Note_on_c, 0, 68, 58
2, 64200, Note_on_c, 0, 72, 70
2, 64320, Note_on_c, 0, 72, 0
2, 64320, Note_on_c, 0, 68, 0
2, 64320, Note_on_c, 0, 65, 0
2, 64440, Note_on_c, 0, 65, 54
2, 64440, Note_on_c, 0, 68, 54
2, 64440, Note_on_c, 0, 72, 54
2, 64440, Note_on_c, 0, 77, 65
2, 64560, Note_on_c, 0, 77, 0
2, 64560, Note_on_c, 0, 65, 0
2, 64560, Note_on_c, 0, 68, 0
2, 64560, Note_on_c, 0, 72, 0
2, 64680, Note_on_c, 0, 65, 56
2, 64680, Note_on_c, 0, 70, 56
2, 64680, Note_on_c, 0, 72, 56
2, 64680, Note_on_c, 0, 77, 66
2, 64800, Note_on_c, 0, 77, 0
2, 64800, Note_on_c, 0, 65, 0
2, 64800, Note_on_c, 0, 70, 0
2, 64800, Note_on_c, 0, 72, 0
2, 64920, Note_on_c, 0, 64, 57
2, 64920, Note_on_c, 0, 70, 57
2, 64920, Note_on_c, 0, 72, 57
2, 64920, Note_on_c, 0, 76, 69
2, 65040, Note_on_c, 0, 76, 0
2, 65040, Note_on_c, 0, 64, 0
2, 65040, Note_on_c, 0, 70, 0
2, 65040, Note_on_c, 0, 72, 0
2, 65160, Note_on_c, 0, 65, 69
2, 65160, Note_on_c, 0, 72, 69
2, 65160, Note_on_c, 0, 77, 82
2, 65280, Note_on_c, 0, 77, 0
2, 65280, Note_on_c, 0, 72, 0
2, 65280, Note_on_c, 0, 65, 0
2, 65400, Note_on_c, 0, 65, 60
2, 65400, Note_on_c, 0, 72, 60
2, 65400, Note_on_c, 0, 75, 73
2, 65520, Note_on_c, 0, 75, 0
2, 65520, Note_on_c, 0, 72, 0
2, 65520, Note_on_c, 0, 65, 0
2, 65640, Note_on_c, 0, 65, 62
2, 65640, Note_on_c, 0, 70, 62
2, 65640, Note_on_c, 0, 73, 75
2, 65760, Note_on_c, 0, 73, 0
2, 65760, Note_on_c, 0, 70, 0
2, 65760, Note_on_c, 0, 65, 0
2, 65880, Note_on_c, 0, 63, 63
2, 65880, Note_on_c, 0, 69, 63
2, 65880, Note_on_c, 0, 72, 76
2, 66000, Note_on_c, 0, 72, 0
2, 66000, Note_on_c, 0, 69, 0
2, 66000, Note_on_c, 0, 63, 0
2, 66000, Note_on_c, 0, 70, 76
2, 66000, Note_on_c, 0, 77, 76
2, 66000, Note_on_c, 0, 82, 90
2, 66120, Note_on_c, 0, 82, 0
2, 66120, Note_on_c, 0, 77, 0
2, 66120, Note_on_c, 0, 70, 0
2, 66240, Note_on_c, 0, 85, 85
2, 66240, Note_on_c, 0, 82, 72
2, 66240, Note_on_c, 0, 77, 72
2, 66240, Note_on_c, 0, 73, 72
2, 66360, Note_on_c, 0, 73, 0
2, 66360, Note_on_c, 0, 85, 0
2, 66360, Note_on_c, 0, 82, 0
2, 66360, Note_on_c, 0, 77, 0
2, 66480, Note_on_c, 0, 84, 85
2, 66480, Note_on_c, 0, 81, 85
2, 66480, Note_on_c, 0, 77, 72
2, 66480, Note_on_c, 0, 72, 72
2, 66600, Note_on_c, 0, 72, 0
2, 66600, Note_on_c, 0, 84, 0
2, 66600, Note_on_c, 0, 81, 0
2, 66600, Note_on_c, 0, 77, 0
2, 66720, Note_on_c, 0, 77, 85
2, 66720, Note_on_c, 0, 72, 72
2, 66720, Note_on_c, 0, 69, 72
2, 66720, Note_on_c, 0, 65, 72
2, 66840, Note_on_c, 0, 65, 0
2, 66840, Note_on_c, 0, 77, 0
2, 66840, Note_on_c, 0, 72, 0
2, 66840, Note_on_c, 0, 69, 0
2, 66960, Note_on_c, 0, 89, 99
2, 66960, Note_on_c, 0, 82, 83
2, 66960, Note_on_c, 0, 77, 83
2, 67080, Note_on_c, 0, 77, 0
2, 67080, Note_on_c, 0, 82, 0
2, 67080, Note_on_c, 0, 89, 0
2, 67200, Note_on_c, 0, 87, 84
2, 67200, Note_on_c, 0, 81, 71
2, 67200, Note_on_c, 0, 77, 71
2, 67200, Note_on_c, 0, 75, 71
2, 67320, Note_on_c, 0, 75, 0
2, 67320, Note_on_c, 0, 87, 0
2, 67320, Note_on_c, 0, 81, 0
2, 67320, Note_on_c, 0, 77, 0
2, 67440, Note_on_c, 0, 85, 84
2, 67440, Note_on_c, 0, 82, 71
2, 67440, Note_on_c, 0, 77, 71
2, 67440, Note_on_c, 0, 73, 71
2, 67560, Note_on_c, 0, 73, 0
2, 67560, Note_on_c, 0, 85, 0
2, 67560, Note_on_c, 0, 82, 0
2, 67560, Note_on_c, 0, 77, 0
2, 67680, Note_on_c, 0, 84, 84
2, 67680, Note_on_c, 0, 77, 71
2, 67680, Note_on_c, 0, 72, 71
2, 67800, Note_on_c, 0, 72, 0
2, 67800, Note_on_c, 0, 77, 0
2, 67800, Note_on_c, 0, 84, 0
2, 67920, Note_on_c, 0, 82, 90
2, 67920, Note_on_c, 0, 77, 76
2, 67920, Note_on_c, 0, 73, 76
2, 67920, Note_on_c, 0, 70, 76
2, 68040, Note_on_c, 0, 70, 0
2, 68040, Note_on_c, 0, 82, 0
2, 68040, Note_on_c, 0, 77, 0
2, 68040, Note_on_c, 0, 73, 0
2, 68160, Note_on_c, 0, 85, 82
2, 68160, Note_on_c, 0, 82, 69
2, 68160, Note_on_c, 0, 77, 69
2, 68160, Note_on_c, 0, 73, 69
2, 68280, Note_on_c, 0, 73, 0
2, 68280, Note_on_c, 0, 85, 0
2, 68280, Note_on_c, 0, 82, 0
2, 68280, Note_on_c, 0, 77, 0
2, 68400, Note_on_c, 0, 84, 90
2, 68400, Note_on_c, 0, 77, 76
2, 68400, Note_on_c, 0, 72, 76
2, 68520, Note_on_c, 0, 72, 0
2, 68520, Note_on_c, 0, 77, 0
2, 68520, Note_on_c, 0, 84, 0
2, 68640, Note_on_c, 0, 77, 81
2, 68640, Note_on_c, 0, 72, 68
2, 68640, Note_on_c, 0, 69, 68
2, 68640, Note_on_c, 0, 65, 68
2, 68760, Note_on_c, 0, 65, 0
2, 68760, Note_on_c, 0, 77, 0
2, 68760, Note_on_c, 0, 72, 0
2, 68760, Note_on_c, 0, 69, 0
2, 68880, Note_on_c, 0, 89, 109
2, 68880, Note_on_c, 0, 77, 92
2, 69000, Note_on_c, 0, 77, 0
2, 69000, Note_on_c, 0, 89, 0
2, 69120, Note_on_c, 0, 85, 92
2, 69120, Note_on_c, 0, 82, 78
2, 69120, Note_on_c, 0, 73, 78
2, 69240, Note_on_c, 0, 73, 0
2, 69240, Note_on_c, 0, 82, 0
2, 69240, Note_on_c, 0, 85, 0
2, 69360, Note_on_c, 0, 84, 101
2, 69360, Note_on_c, 0, 81, 85
2, 69360, Note_on_c, 0, 72, 85
2, 69840, Note_on_c, 0, 72, 0
2, 69840, Note_on_c, 0, 81, 0
2, 69840, Note_on_c, 0, 84, 0
2, 69840, Note_on_c, 0, 89, 109
2, 69840, Note_on_c, 0, 77, 92
2, 69960, Note_on_c, 0, 77, 0
2, 69960, Note_on_c, 0, 89, 0
2, 70080, Note_on_c, 0, 85, 92
2, 70080, Note_on_c, 0, 82, 78
2, 70200, Note_on_c, 0, 82, 0
2, 70200, Note_on_c, 0, 85, 0
2, 70320, Note_on_c, 0, 84, 101
2, 70320, Note_on_c, 0, 81, 85
2, 70800, Note_on_c, 0, 81, 0
2, 70800, Note_on_c, 0, 84, 0
2, 70800, Note_on_c, 0, 72, 97
2, 70800, Note_on_c, 0, 69, 81
2, 71280, Note_on_c, 0, 69, 0
2, 71280, Note_on_c, 0, 72, 0
2, 71280, Note_on_c, 0, 60, 98
2, 71280, Note_on_c, 0, 57, 80
2, 71760, Note_on_c, 0, 57, 0
2, 71760, Note_on_c, 0, 60, 0
2, 71760, Note_on_c, 0, 48, 101
2, 71760, Note_on_c, 0, 45, 85
2, 72240, Note_on_c, 0, 45, 0
2, 72240, Note_on_c, 0, 48, 0
2, 72240, Note_on_c, 0, 36, 101
2, 72240, Note_on_c, 0, 33, 85
2, 73440, Note_on_c, 0, 33, 0
2, 73440, Note_on_c, 0, 36, 0
2, 75600, Note_on_c, 0, 65, 81
2, 75680, Note_on_c, 0, 65, 0
2, 75680, Note_on_c, 0, 67, 81
2, 75760, Note_on_c, 0, 67, 0
2, 75760, Note_on_c, 0, 69, 81
2, 75840, Note_on_c, 0, 69, 0
2, 75840, Note_on_c, 0, 70, 81
2, 75960, Note_on_c, 0, 70, 0
2, 75960, Note_on_c, 0, 72, 82
2, 76080, Note_on_c, 0, 72, 0
2, 76080, Note_on_c, 0, 74, 82
2, 76200, Note_on_c, 0, 74, 0
2, 76200, Note_on_c, 0, 76, 83
2, 76320, Note_on_c, 0, 76, 0
2, 76320, Note_on_c, 0, 77, 83
2, 76400, Note_on_c, 0, 77, 0
2, 76400, Note_on_c, 0, 79, 83
2, 76480, Note_on_c, 0, 79, 0
2, 76480, Note_on_c, 0, 81, 84
2, 76560, Note_on_c, 0, 81, 0
2, 76560, Note_on_c, 0, 82, 84
2, 76680, Note_on_c, 0, 82, 0
2, 76680, Note_on_c, 0, 84, 84
2, 76800, Note_on_c, 0, 84, 0
2, 76800, Note_on_c, 0, 86, 85
2, 76920, Note_on_c, 0, 86, 0
2, 76920, Note_on_c, 0, 88, 85
2, 77040, Note_on_c, 0, 88, 0
2, 77040, Note_on_c, 0, 89, 86
2, 77120, Note_on_c, 0, 89, 0
2, 77120, Note_on_c, 0, 91, 88
2, 77200, Note_on_c, 0, 91, 0
2, 77200, Note_on_c, 0, 93, 89
2, 77280, Note_on_c, 0, 93, 0
2, 77280, Note_on_c, 0, 94, 90
2, 77400, Note_on_c, 0, 94, 0
2, 77400, Note_on_c, 0, 96, 92
2, 77520, Note_on_c, 0, 96, 0
2, 77520, Note_on_c, 0, 98, 94
2, 77640, Note_on_c, 0, 98, 0
2, 77640, Note_on_c, 0, 100, 96
2, 77760, Note_on_c, 0, 100, 0
2, 77760, Note_on_c, 0, 101, 98
2, 77880, Note_on_c, 0, 101, 0
2, 78000, Note_on_c, 0, 75, 68
2, 78000, Note_on_c, 0, 78, 81
2, 78060, Note_on_c, 0, 78, 0
2, 78060, Note_on_c, 0, 75, 0
2, 78060, Note_on_c, 0, 69, 70
2, 78120, Note_on_c, 0, 69, 0
2, 78120, Note_on_c, 0, 75, 67
2, 78120, Note_on_c, 0, 78, 79
2, 78180, Note_on_c, 0, 78, 0
2, 78180, Note_on_c, 0, 75, 0
2, 78180, Note_on_c, 0, 69, 70
2, 78240, Note_on_c, 0, 69, 0
2, 78240, Note_on_c, 0, 75, 67
2, 78240, Note_on_c, 0, 78, 79
2, 78300, Note_on_c, 0, 78, 0
2, 78300, Note_on_c, 0, 75, 0
2, 78300, Note_on_c, 0, 69, 70
2, 78360, Note_on_c, 0, 69, 0
2, 78360, Note_on_c, 0, 75, 67
2, 78360, Note_on_c, 0, 78, 79
2, 78420, Note_on_c, 0, 78, 0
2, 78420, Note_on_c, 0, 75, 0
2, 78420, Note_on_c, 0, 69, 70
2, 78480, Note_on_c, 0, 69, 0
2, 78480, Note_on_c, 0, 75, 68
2, 78480, Note_on_c, 0, 78, 80
2, 78540, Note_on_c, 0, 78, 0
2, 78540, Note_on_c, 0, 75, 0
2, 78540, Note_on_c, 0, 69, 70
2, 78600, Note_on_c, 0, 69, 0
2, 78600, Note_on_c, 0, 75, 65
2, 78600, Note_on_c, 0, 78, 77
2, 78660, Note_on_c, 0, 78, 0
2, 78660, Note_on_c, 0, 75, 0
2, 78660, Note_on_c, 0, 69, 70
2, 78720, Note_on_c, 0, 69, 0
2, 79440, Note_on_c, 0, 74, 50
2, 79620, Note_on_c, 0, 74, 0
2, 79620, Note_on_c, 0, 69, 42
2, 79620, Note_on_c, 0, 77, 50
2, 79674, Note_on_c, 0, 77, 0
2, 79674, Note_on_c, 0, 69, 0
2, 79680, Note_on_c, 0, 72, 53
2, 79680, Note_on_c, 0, 77, 62
2, 79920, Note_on_c, 0, 77, 0
2, 79920, Note_on_c, 0, 72, 0
2, 79920, Note_on_c, 0, 65, 46
2, 79920, Note_on_c, 0, 74, 55
2, 80040, Note_on_c, 0, 74, 0
2, 80040, Note_on_c, 0, 65, 0
2, 80160, Note_on_c, 0, 70, 50
2, 80340, Note_on_c, 0, 70, 0
2, 80340, Note_on_c, 0, 66, 42
2, 80340, Note_on_c, 0, 74, 50
2, 80394, Note_on_c, 0, 74, 0
2, 80394, Note_on_c, 0, 66, 0
2, 80400, Note_on_c, 0, 69, 53
2, 80400, Note_on_c, 0, 74, 62
2, 80640, Note_on_c, 0, 74, 0
2, 80640, Note_on_c, 0, 69, 0
2, 80640, Note_on_c, 0, 62, 46
2, 80640, Note_on_c, 0, 70, 55
2, 80760, Note_on_c, 0, 70, 0
2, 80760, Note_on_c, 0, 62, 0
2, 80880, Note_on_c, 0, 67, 52
2, 81060, Note_on_c, 0, 67, 0
2, 81060, Note_on_c, 0, 62, 44
2, 81060, Note_on_c, 0, 70, 53
2, 81114, Note_on_c, 0, 70, 0
2, 81114, Note_on_c, 0, 62, 0
2, 81120, Note_on_c, 0, 65, 57
2, 81120, Note_on_c, 0, 70, 66
2, 81360, Note_on_c, 0, 70, 0
2, 81360, Note_on_c, 0, 65, 0
2, 81360, Note_on_c, 0, 58, 51
2, 81360, Note_on_c, 0, 67, 61
2, 81480, Note_on_c, 0, 67, 0
2, 81480, Note_on_c, 0, 58, 0
2, 81600, Note_on_c, 0, 58, 47
2, 81600, Note_on_c, 0, 67, 57
2, 81780, Note_on_c, 0, 67, 0
2, 81780, Note_on_c, 0, 58, 0
2, 81780, Note_on_c, 0, 63, 48
2, 81780, Note_on_c, 0, 69, 58
2, 81834, Note_on_c, 0, 69, 0
2, 81834, Note_on_c, 0, 63, 0
2, 81840, Note_on_c, 0, 63, 62
2, 81840, Note_on_c, 0, 69, 72
2, 82080, Note_on_c, 0, 69, 0
2, 82080, Note_on_c, 0, 63, 0
2, 82080, Note_on_c, 0, 58, 55
2, 82080, Note_on_c, 0, 70, 66
2, 82200, Note_on_c, 0, 70, 0
2, 82200, Note_on_c, 0, 58, 0
2, 82320, Note_on_c, 0, 65, 51
2, 82320, Note_on_c, 0, 70, 61
2, 82500, Note_on_c, 0, 70, 0
2, 82500, Note_on_c, 0, 72, 63
2, 82554, Note_on_c, 0, 72, 0
2, 82560, Note_on_c, 0, 65, 0
2, 82560, Note_on_c, 0, 65, 67
2, 82560, Note_on_c, 0, 72, 79
2, 82800, Note_on_c, 0, 72, 0
2, 82800, Note_on_c, 0, 65, 0
2, 82800, Note_on_c, 0, 70, 60
2, 82800, Note_on_c, 0, 65, 60
2, 82800, Note_on_c, 0, 74, 72
2, 82920, Note_on_c, 0, 74, 0
2, 82920, Note_on_c, 0, 65, 0
2, 82920, Note_on_c, 0, 70, 0
2, 83040, Note_on_c, 0, 70, 56
2, 83040, Note_on_c, 0, 74, 67
2, 83220, Note_on_c, 0, 74, 0
2, 83220, Note_on_c, 0, 75, 70
2, 83274, Note_on_c, 0, 75, 0
2, 83280, Note_on_c, 0, 70, 0
2, 83280, Note_on_c, 0, 70, 75
2, 83280, Note_on_c, 0, 75, 88
2, 83520, Note_on_c, 0, 75, 0
2, 83520, Note_on_c, 0, 70, 0
2, 83520, Note_on_c, 0, 73, 68
2, 83520, Note_on_c, 0, 70, 68
2, 83520, Note_on_c, 0, 65, 68
2, 83520, Note_on_c, 0, 77, 82
2, 83580, Note_on_c, 0, 77, 0
2, 83580, Note_on_c, 0, 73, 0
2, 83580, Note_on_c, 0, 70, 0
2, 83580, Note_on_c, 0, 65, 0
2, 83760, Note_on_c, 0, 67, 79
2, 83760, Note_on_c, 0, 70, 79
2, 83760, Note_on_c, 0, 72, 79
2, 83760, Note_on_c, 0, 79, 94
2, 83820, Note_on_c, 0, 79, 0
2, 83820, Note_on_c, 0, 67, 0
2, 83820, Note_on_c, 0, 70, 0
2, 83820, Note_on_c, 0, 72, 0
2, 84000, Note_on_c, 0, 60, 79
2, 84000, Note_on_c, 0, 69, 79
2, 84000, Note_on_c, 0, 72, 94
2, 84120, Note_on_c, 0, 72, 0
2, 84120, Note_on_c, 0, 69, 0
2, 84120, Note_on_c, 0, 60, 0
2, 84480, Note_on_c, 0, 86, 50
2, 84660, Note_on_c, 0, 86, 0
2, 84660, Note_on_c, 0, 81, 42
2, 84660, Note_on_c, 0, 89, 50
2, 84714, Note_on_c, 0, 89, 0
2, 84714, Note_on_c, 0, 81, 0
2, 84720, Note_on_c, 0, 81, 53
2, 84720, Note_on_c, 0, 89, 62
2, 84840, Note_on_c, 0, 77, 46
2, 84960, Note_on_c, 0, 89, 0
2, 84960, Note_on_c, 0, 81, 0
2, 84960, Note_on_c, 0, 86, 55
2, 85080, Note_on_c, 0, 86, 0
2, 85080, Note_on_c, 0, 77, 0
2, 85200, Note_on_c, 0, 82, 50
2, 85380, Note_on_c, 0, 82, 0
2, 85380, Note_on_c, 0, 78, 42
2, 85380, Note_on_c, 0, 86, 50
2, 85434, Note_on_c, 0, 86, 0
2, 85434, Note_on_c, 0, 78, 0
2, 85440, Note_on_c, 0, 86, 62
2, 85560, Note_on_c, 0, 74, 46
2, 85680, Note_on_c, 0, 86, 0
2, 85680, Note_on_c, 0, 82, 55
2, 85800, Note_on_c, 0, 82, 0
2, 85800, Note_on_c, 0, 74, 0
2, 85920, Note_on_c, 0, 79, 52
2, 86100, Note_on_c, 0, 79, 0
2, 86100, Note_on_c, 0, 74, 44
2, 86100, Note_on_c, 0, 82, 53
2, 86154, Note_on_c, 0, 82, 0
2, 86154, Note_on_c, 0, 74, 0
2, 86160, Note_on_c, 0, 82, 66
2, 86280, Note_on_c, 0, 70, 51
2, 86400, Note_on_c, 0, 82, 0
2, 86400, Note_on_c, 0, 79, 61
2, 86520, Note_on_c, 0, 79, 0
2, 86520, Note_on_c, 0, 70, 0
2, 86640, Note_on_c, 0, 70, 47
2, 86640, Note_on_c, 0, 79, 57
2, 86820, Note_on_c, 0, 79, 0
2, 86820, Note_on_c, 0, 70, 0
2, 86820, Note_on_c, 0, 75, 48
2, 86820, Note_on_c, 0, 81, 58
2, 86874, Note_on_c, 0, 81, 0
2, 86874, Note_on_c, 0, 75, 0
2, 86880, Note_on_c, 0, 81, 72
2, 87009, Note_on_c, 0, 75, 62
2, 87120, Note_on_c, 0, 81, 0
2, 87120, Note_on_c, 0, 70, 55
2, 87120, Note_on_c, 0, 82, 66
2, 87129, Note_on_c, 0, 75, 0
2, 87240, Note_on_c, 0, 82, 0
2, 87240, Note_on_c, 0, 70, 0
2, 87360, Note_on_c, 0, 77, 51
2, 87360, Note_on_c, 0, 82, 61
2, 87540, Note_on_c, 0, 82, 0
2, 87540, Note_on_c, 0, 84, 63
2, 87594, Note_on_c, 0, 84, 0
2, 87600, Note_on_c, 0, 77, 0
2, 87600, Note_on_c, 0, 84, 79
2, 87720, Note_on_c, 0, 77, 67
2, 87840, Note_on_c, 0, 84, 0
2, 87840, Note_on_c, 0, 86, 72
2, 87960, Note_on_c, 0, 86, 0
2, 87960, Note_on_c, 0, 77, 0
2, 88080, Note_on_c, 0, 82, 56
2, 88080, Note_on_c, 0, 87, 67
2, 88260, Note_on_c, 0, 87, 0
2, 88260, Note_on_c, 0, 88, 70
2, 88314, Note_on_c, 0, 88, 0
2, 88320, Note_on_c, 0, 82, 0
2, 88320, Note_on_c, 0, 88, 88
2, 88440, Note_on_c, 0, 82, 76
2, 88560, Note_on_c, 0, 82, 0
2, 88560, Note_on_c, 0, 88, 0
2, 88560, Note_on_c, 0, 81, 68
2, 88560, Note_on_c, 0, 89, 82
2, 88620, Note_on_c, 0, 89, 0
2, 88620, Note_on_c, 0, 81, 0
2, 88800, Note_on_c, 0, 79, 79
2, 88800, Note_on_c, 0, 82, 79
2, 88800, Note_on_c, 0, 88, 79
2, 88800, Note_on_c, 0, 91, 94
2, 88860, Note_on_c, 0, 91, 0
2, 88860, Note_on_c, 0, 79, 0
2, 88860, Note_on_c, 0, 82, 0
2, 88860, Note_on_c, 0, 88, 0
2, 89040, Note_on_c, 0, 77, 79
2, 89040, Note_on_c, 0, 81, 79
2, 89040, Note_on_c, 0, 89, 94
2, 89160, Note_on_c, 0, 89, 0
2, 89160, Note_on_c, 0, 81, 0
2, 89160, Note_on_c, 0, 77, 0
2, 89520, Note_on_c, 0, 71, 43
2, 89520, Note_on_c, 0, 74, 50
2, 89700, Note_on_c, 0, 74, 0
2, 89700, Note_on_c, 0, 71, 0
2, 89700, Note_on_c, 0, 74, 42
2, 89700, Note_on_c, 0, 77, 50
2, 89745, Note_on_c, 0, 77, 0
2, 89745, Note_on_c, 0, 74, 0
2, 89760, Note_on_c, 0, 74, 53
2, 89760, Note_on_c, 0, 77, 62
2, 90000, Note_on_c, 0, 77, 0
2, 90000, Note_on_c, 0, 74, 0
2, 90000, Note_on_c, 0, 71, 46
2, 90000, Note_on_c, 0, 74, 55
2, 90120, Note_on_c, 0, 74, 0
2, 90120, Note_on_c, 0, 71, 0
2, 90240, Note_on_c, 0, 71, 43
2, 90240, Note_on_c, 0, 74, 50
2, 90420, Note_on_c, 0, 74, 0
2, 90420, Note_on_c, 0, 71, 0
2, 90420, Note_on_c, 0, 75, 42
2, 90420, Note_on_c, 0, 79, 50
2, 90465, Note_on_c, 0, 79, 0
2, 90465, Note_on_c, 0, 75, 0
2, 90480, Note_on_c, 0, 75, 53
2, 90480, Note_on_c, 0, 79, 62
2, 90720, Note_on_c, 0, 79, 0
2, 90720, Note_on_c, 0, 75, 0
2, 90720, Note_on_c, 0, 72, 46
2, 90720, Note_on_c, 0, 75, 55
2, 90840, Note_on_c, 0, 75, 0
2, 90840, Note_on_c, 0, 72, 0
2, 90960, Note_on_c, 0, 69, 43
2, 90960, Note_on_c, 0, 72, 50
2, 91140, Note_on_c, 0, 72, 0
2, 91140, Note_on_c, 0, 69, 0
2, 91140, Note_on_c, 0, 72, 42
2, 91140, Note_on_c, 0, 75, 50
2, 91185, Note_on_c, 0, 75, 0
2, 91185, Note_on_c, 0, 72, 0
2, 91200, Note_on_c, 0, 72, 53
2, 91200, Note_on_c, 0, 75, 62
2, 91320, Note_on_c, 0, 63, 34
2, 91440, Note_on_c, 0, 75, 0
2, 91440, Note_on_c, 0, 72, 0
2, 91440, Note_on_c, 0, 69, 46
2, 91440, Note_on_c, 0, 72, 55
2, 91560, Note_on_c, 0, 72, 0
2, 91560, Note_on_c, 0, 69, 0
2, 91560, Note_on_c, 0, 63, 0
2, 91680, Note_on_c, 0, 69, 43
2, 91680, Note_on_c, 0, 72, 50
2, 91860, Note_on_c, 0, 72, 0
2, 91860, Note_on_c, 0, 69, 0
2, 91860, Note_on_c, 0, 73, 42
2, 91860, Note_on_c, 0, 77, 50
2, 91905, Note_on_c, 0, 77, 0
2, 91905, Note_on_c, 0, 73, 0
2, 91920, Note_on_c, 0, 74, 53
2, 91920, Note_on_c, 0, 77, 62
2, 92040, Note_on_c, 0, 65, 34
2, 92160, Note_on_c, 0, 77, 0
2, 92160, Note_on_c, 0, 74, 0
2, 92160, Note_on_c, 0, 70, 46
2, 92160, Note_on_c, 0, 74, 55
2, 92280, Note_on_c, 0, 74, 0
2, 92280, Note_on_c, 0, 70, 0
2, 92280, Note_on_c, 0, 65, 0
2, 92400, Note_on_c, 0, 57, 38
2, 92400, Note_on_c, 0, 60, 45
2, 92580, Note_on_c, 0, 60, 0
2, 92580, Note_on_c, 0, 57, 0
2, 92580, Note_on_c, 0, 60, 37
2, 92580, Note_on_c, 0, 63, 45
2, 92625, Note_on_c, 0, 63, 0
2, 92625, Note_on_c, 0, 60, 0
2, 92640, Note_on_c, 0, 60, 47
2, 92640, Note_on_c, 0, 63, 55
2, 93120, Note_on_c, 0, 63, 0
2, 93120, Note_on_c, 0, 60, 0
2, 93120, Note_on_c, 0, 58, 40
2, 93120, Note_on_c, 0, 62, 48
2, 93360, Note_on_c, 0, 62, 0
2, 93360, Note_on_c, 0, 58, 0
2, 93360, Note_on_c, 0, 57, 39
2, 93360, Note_on_c, 0, 60, 46
2, 93600, Note_on_c, 0, 60, 0
2, 93600, Note_on_c, 0, 57, 0
2, 93600, Note_on_c, 0, 55, 38
2, 93600, Note_on_c, 0, 58, 45
2, 93840, Note_on_c, 0, 58, 0
2, 93840, Note_on_c, 0, 55, 0
2, 93840, Note_on_c, 0, 53, 36
2, 93840, Note_on_c, 0, 57, 43
2, 94320, Note_on_c, 0, 57, 0
2, 94320, Note_on_c, 0, 53, 0
2, 94320, Note_on_c, 0, 52, 33
2, 94320, Note_on_c, 0, 55, 39
2, 94560, Note_on_c, 0, 55, 0
2, 94560, Note_on_c, 0, 52, 0
2, 94560, Note_on_c, 0, 51, 32
2, 94560, Note_on_c, 0, 55, 32
2, 94560, Note_on_c, 0, 60, 38
2, 95040, Note_on_c, 0, 60, 0
2, 95040, Note_on_c, 0, 51, 0
2, 95040, Note_on_c, 0, 50, 32
2, 95040, Note_on_c, 0, 59, 38
2, 95280, Note_on_c, 0, 59, 0
2, 95280, Note_on_c, 0, 50, 0
2, 95280, Note_on_c, 0, 55, 0
2, 96000, Note_on_c, 0, 59, 40
2, 96180, Note_on_c, 0, 59, 0
2, 96180, Note_on_c, 0, 62, 40
2, 96234, Note_on_c, 0, 62, 0
2, 96240, Note_on_c, 0, 62, 49
2, 96480, Note_on_c, 0, 62, 0
2, 96480, Note_on_c, 0, 59, 44
2, 96600, Note_on_c, 0, 59, 0
2, 96720, Note_on_c, 0, 62, 33
2, 96720, Note_on_c, 0, 71, 40
2, 96900, Note_on_c, 0, 71, 0
2, 96900, Note_on_c, 0, 74, 40
2, 96954, Note_on_c, 0, 74, 0
2, 96960, Note_on_c, 0, 74, 49
2, 97078, Note_on_c, 0, 62, 0
2, 97080, Note_on_c, 0, 62, 33
2, 97200, Note_on_c, 0, 74, 0
2, 97200, Note_on_c, 0, 71, 44
2, 97320, Note_on_c, 0, 71, 0
2, 97320, Note_on_c, 0, 62, 0
2, 97440, Note_on_c, 0, 84, 46
2, 97620, Note_on_c, 0, 84, 0
2, 97620, Note_on_c, 0, 87, 46
2, 97674, Note_on_c, 0, 87, 0
2, 97680, Note_on_c, 0, 87, 56
2, 97920, Note_on_c, 0, 87, 0
2, 97920, Note_on_c, 0, 84, 50
2, 98040, Note_on_c, 0, 84, 0
2, 98160, Note_on_c, 0, 62, 43
2, 98160, Note_on_c, 0, 71, 50
2, 98340, Note_on_c, 0, 71, 0
2, 98340, Note_on_c, 0, 62, 0
2, 98340, Note_on_c, 0, 65, 42
2, 98340, Note_on_c, 0, 74, 50
2, 98385, Note_on_c, 0, 74, 0
2, 98385, Note_on_c, 0, 65, 0
2, 98400, Note_on_c, 0, 65, 53
2, 98400, Note_on_c, 0, 74, 62
2, 98640, Note_on_c, 0, 74, 0
2, 98640, Note_on_c, 0, 65, 0
2, 98640, Note_on_c, 0, 62, 46
2, 98640, Note_on_c, 0, 71, 55
2, 98760, Note_on_c, 0, 71, 0
2, 98760, Note_on_c, 0, 62, 0
2, 98880, Note_on_c, 0, 62, 49
2, 98880, Note_on_c, 0, 71, 57
2, 99060, Note_on_c, 0, 71, 0
2, 99060, Note_on_c, 0, 62, 0
2, 99060, Note_on_c, 0, 67, 48
2, 99060, Note_on_c, 0, 75, 57
2, 99105, Note_on_c, 0, 75, 0
2, 99105, Note_on_c, 0, 67, 0
2, 99120, Note_on_c, 0, 67, 61
2, 99120, Note_on_c, 0, 75, 72
2, 99360, Note_on_c, 0, 75, 0
2, 99360, Note_on_c, 0, 67, 0
2, 99360, Note_on_c, 0, 63, 54
2, 99360, Note_on_c, 0, 72, 66
2, 99480, Note_on_c, 0, 72, 0
2, 99480, Note_on_c, 0, 63, 0
2, 99600, Note_on_c, 0, 69, 59
2, 99600, Note_on_c, 0, 72, 71
2, 99780, Note_on_c, 0, 72, 0
2, 99780, Note_on_c, 0, 69, 0
2, 99780, Note_on_c, 0, 72, 65
2, 99780, Note_on_c, 0, 81, 75
2, 99834, Note_on_c, 0, 81, 0
2, 99834, Note_on_c, 0, 72, 0
2, 99840, Note_on_c, 0, 72, 80
2, 99840, Note_on_c, 0, 81, 94
2, 100080, Note_on_c, 0, 81, 0
2, 100080, Note_on_c, 0, 72, 0
2, 100080, Note_on_c, 0, 69, 72
2, 100080, Note_on_c, 0, 77, 87
2, 100140, Note_on_c, 0, 77, 0
2, 100140, Note_on_c, 0, 69, 0
2, 100320, Note_on_c, 0, 70, 90
2, 100320, Note_on_c, 0, 82, 108
2, 100380, Note_on_c, 0, 82, 0
2, 100380, Note_on_c, 0, 70, 0
2, 100560, Note_on_c, 0, 70, 90
2, 100560, Note_on_c, 0, 82, 108
2, 100680, Note_on_c, 0, 82, 0
2, 100680, Note_on_c, 0, 70, 0
2, 101040, Note_on_c, 0, 83, 43
2, 101040, Note_on_c, 0, 86, 50
2, 101220, Note_on_c, 0, 86, 0
2, 101220, Note_on_c, 0, 83, 0
2, 101220, Note_on_c, 0, 86, 42
2, 101220, Note_on_c, 0, 89, 50
2, 101265, Note_on_c, 0, 89, 0
2, 101265, Note_on_c, 0, 86, 0
2, 101280, Note_on_c, 0, 86, 53
2, 101280, Note_on_c, 0, 89, 62
2, 101520, Note_on_c, 0, 89, 0
2, 101520, Note_on_c, 0, 86, 0
2, 101520, Note_on_c, 0, 83, 46
2, 101520, Note_on_c, 0, 86, 55
2, 101640, Note_on_c, 0, 86, 0
2, 101640, Note_on_c, 0, 83, 0
2, 101760, Note_on_c, 0, 83, 43
2, 101760, Note_on_c, 0, 86, 50
2, 101940, Note_on_c, 0, 86, 0
2, 101940, Note_on_c, 0, 83, 0
2, 101940, Note_on_c, 0, 87, 42
2, 101940, Note_on_c, 0, 91, 50
2, 101985, Note_on_c, 0, 91, 0
2, 101985, Note_on_c, 0, 87, 0
2, 102000, Note_on_c, 0, 87, 53
2, 102000, Note_on_c, 0, 91, 62
2, 102240, Note_on_c, 0, 91, 0
2, 102240, Note_on_c, 0, 87, 0
2, 102240, Note_on_c, 0, 84, 46
2, 102240, Note_on_c, 0, 87, 55
2, 102360, Note_on_c, 0, 87, 0
2, 102360, Note_on_c, 0, 84, 0
2, 102480, Note_on_c, 0, 81, 43
2, 102480, Note_on_c, 0, 84, 50
2, 102660, Note_on_c, 0, 84, 0
2, 102660, Note_on_c, 0, 81, 0
2, 102660, Note_on_c, 0, 84, 42
2, 102660, Note_on_c, 0, 87, 50
2, 102705, Note_on_c, 0, 87, 0
2, 102705, Note_on_c, 0, 84, 0
2, 102720, Note_on_c, 0, 84, 53
2, 102720, Note_on_c, 0, 87, 62
2, 102840, Note_on_c, 0, 75, 39
2, 102960, Note_on_c, 0, 87, 0
2, 102960, Note_on_c, 0, 84, 0
2, 102960, Note_on_c, 0, 81, 46
2, 102960, Note_on_c, 0, 84, 55
2, 103080, Note_on_c, 0, 84, 0
2, 103080, Note_on_c, 0, 81, 0
2, 103080, Note_on_c, 0, 75, 0
2, 103200, Note_on_c, 0, 81, 43
2, 103200, Note_on_c, 0, 84, 50
2, 103380, Note_on_c, 0, 84, 0
2, 103380, Note_on_c, 0, 81, 0
2, 103380, Note_on_c, 0, 85, 42
2, 103380, Note_on_c, 0, 89, 50
2, 103425, Note_on_c, 0, 89, 0
2, 103425, Note_on_c, 0, 85, 0
2, 103440, Note_on_c, 0, 86, 53
2, 103440, Note_on_c, 0, 89, 62
2, 103560, Note_on_c, 0, 77, 39
2, 103680, Note_on_c, 0, 89, 0
2, 103680, Note_on_c, 0, 86, 0
2, 103680, Note_on_c, 0, 82, 46
2, 103680, Note_on_c, 0, 86, 55
2, 103800, Note_on_c, 0, 86, 0
2, 103800, Note_on_c, 0, 82, 0
2, 103800, Note_on_c, 0, 77, 0
2, 103920, Note_on_c, 0, 69, 38
2, 103920, Note_on_c, 0, 72, 45
2, 104100, Note_on_c, 0, 72, 0
2, 104100, Note_on_c, 0, 69, 0
2, 104100, Note_on_c, 0, 72, 37
2, 104100, Note_on_c, 0, 75, 45
2, 104145, Note_on_c, 0, 75, 0
2, 104145, Note_on_c, 0, 72, 0
2, 104160, Note_on_c, 0, 72, 47
2, 104160, Note_on_c, 0, 75, 55
2, 104640, Note_on_c, 0, 75, 0
2, 104640, Note_on_c, 0, 72, 0
2, 104640, Note_on_c, 0, 70, 40
2, 104640, Note_on_c, 0, 74, 48
2, 104880, Note_on_c, 0, 74, 0
2, 104880, Note_on_c, 0, 70, 0
2, 104880, Note_on_c, 0, 69, 39
2, 104880, Note_on_c, 0, 72, 46
2, 105120, Note_on_c, 0, 72, 0
2, 105120, Note_on_c, 0, 69, 0
2, 105120, Note_on_c, 0, 67, 38
2, 105120, Note_on_c, 0, 70, 45
2, 105360, Note_on_c, 0, 70, 0
2, 105360, Note_on_c, 0, 67, 0
2, 105360, Note_on_c, 0, 65, 36
2, 105360, Note_on_c, 0, 69, 43
2, 105840, Note_on_c, 0, 69, 0
2, 105840, Note_on_c, 0, 65, 0
2, 105840, Note_on_c, 0, 64, 33
2, 105840, Note_on_c, 0, 67, 39
2, 106080, Note_on_c, 0, 67, 0
2, 106080, Note_on_c, 0, 64, 0
2, 106080, Note_on_c, 0, 63, 32
2, 106080, Note_on_c, 0, 67, 32
2, 106080, Note_on_c, 0, 72, 38
2, 106560, Note_on_c, 0, 72, 0
2, 106560, Note_on_c, 0, 63, 0
2, 106560, Note_on_c, 0, 62, 32
2, 106560, Note_on_c, 0, 71, 38
2, 106800, Note_on_c, 0, 71, 0
2, 106800, Note_on_c, 0, 62, 0
2, 106800, Note_on_c, 0, 67, 0
2, 107520, Note_on_c, 0, 71, 40
2, 107700, Note_on_c, 0, 71, 0
2, 107700, Note_on_c, 0, 74, 40
2, 107754, Note_on_c, 0, 74, 0
2, 107760, Note_on_c, 0, 74, 49
2, 108000, Note_on_c, 0, 74, 0
2, 108000, Note_on_c, 0, 71, 44
2, 108120, Note_on_c, 0, 71, 0
2, 108240, Note_on_c, 0, 50, 33
2, 108240, Note_on_c, 0, 59, 40
2, 108420, Note_on_c, 0, 59, 0
2, 108420, Note_on_c, 0, 62, 40
2, 108474, Note_on_c, 0, 62, 0
2, 108480, Note_on_c, 0, 62, 49
2, 108600, Note_on_c, 0, 50, 0
2, 108600, Note_on_c, 0, 50, 33
2, 108720, Note_on_c, 0, 62, 0
2, 108720, Note_on_c, 0, 59, 44
2, 108840, Note_on_c, 0, 59, 0
2, 108840, Note_on_c, 0, 50, 0
2, 108960, Note_on_c, 0, 84, 46
2, 109140, Note_on_c, 0, 84, 0
2, 109140, Note_on_c, 0, 87, 46
2, 109194, Note_on_c, 0, 87, 0
2, 109200, Note_on_c, 0, 87, 56
2, 109440, Note_on_c, 0, 87, 0
2, 109440, Note_on_c, 0, 84, 50
2, 109560, Note_on_c, 0, 84, 0
2, 109680, Note_on_c, 0, 74, 43
2, 109680, Note_on_c, 0, 83, 50
2, 109860, Note_on_c, 0, 83, 0
2, 109860, Note_on_c, 0, 74, 0
2, 109860, Note_on_c, 0, 77, 42
2, 109860, Note_on_c, 0, 86, 50
2, 109905, Note_on_c, 0, 86, 0
2, 109905, Note_on_c, 0, 77, 0
2, 109920, Note_on_c, 0, 77, 53
2, 109920, Note_on_c, 0, 86, 62
2, 110160, Note_on_c, 0, 86, 0
2, 110160, Note_on_c, 0, 77, 0
2, 110160, Note_on_c, 0, 74, 47
2, 110160, Note_on_c, 0, 83, 56
2, 110280, Note_on_c, 0, 83, 0
2, 110280, Note_on_c, 0, 74, 0
2, 110400, Note_on_c, 0, 74, 51
2, 110400, Note_on_c, 0, 83, 59
2, 110580, Note_on_c, 0, 83, 0
2, 110580, Note_on_c, 0, 74, 0
2, 110580, Note_on_c, 0, 79, 50
2, 110580, Note_on_c, 0, 87, 60
2, 110625, Note_on_c, 0, 87, 0
2, 110625, Note_on_c, 0, 79, 0
2, 110640, Note_on_c, 0, 79, 63
2, 110640, Note_on_c, 0, 87, 75
2, 110880, Note_on_c, 0, 87, 0
2, 110880, Note_on_c, 0, 79, 0
2, 110880, Note_on_c, 0, 75, 56
2, 110880, Note_on_c, 0, 84, 68
2, 111000, Note_on_c, 0, 84, 0
2, 111000, Note_on_c, 0, 75, 0
2, 111120, Note_on_c, 0, 81, 63
2, 111120, Note_on_c, 0, 84, 77
2, 111300, Note_on_c, 0, 84, 0
2, 111300, Note_on_c, 0, 81, 0
2, 111300, Note_on_c, 0, 84, 69
2, 111300, Note_on_c, 0, 93, 80
2, 111354, Note_on_c, 0, 93, 0
2, 111354, Note_on_c, 0, 84, 0
2, 111360, Note_on_c, 0, 84, 85
2, 111360, Note_on_c, 0, 93, 101
2, 111600, Note_on_c, 0, 93, 0
2, 111600, Note_on_c, 0, 84, 0
2, 111600, Note_on_c, 0, 81, 77
2, 111600, Note_on_c, 0, 89, 93
2, 111660, Note_on_c, 0, 89, 0
2, 111660, Note_on_c, 0, 81, 0
2, 111840, Note_on_c, 0, 82, 99
2, 111840, Note_on_c, 0, 94, 117
2, 111900, Note_on_c, 0, 94, 0
2, 111900, Note_on_c, 0, 82, 0
2, 112080, Note_on_c, 0, 82, 99
2, 112080, Note_on_c, 0, 94, 117
2, 112200, Note_on_c, 0, 94, 0
2, 112200, Note_on_c, 0, 82, 0
2, 112560, Note_on_c, 0, 59, 28
2, 112560, Note_on_c, 0, 71, 35
2, 112620, Note_on_c, 0, 71, 0
2, 112620, Note_on_c, 0, 59, 0
2, 112800, Note_on_c, 0, 59, 28
2, 112800, Note_on_c, 0, 71, 35
2, 112920, Note_on_c, 0, 71, 0
2, 112920, Note_on_c, 0, 59, 0
2, 113280, Note_on_c, 0, 82, 99
2, 113280, Note_on_c, 0, 94, 117
2, 113340, Note_on_c, 0, 94, 0
2, 113340, Note_on_c, 0, 82, 0
2, 113520, Note_on_c, 0, 82, 99
2, 113520, Note_on_c, 0, 94, 117
2, 113640, Note_on_c, 0, 94, 0
2, 113640, Note_on_c, 0, 82, 0
2, 114000, Note_on_c, 0, 59, 25
2, 114000, Note_on_c, 0, 71, 31
2, 114060, Note_on_c, 0, 71, 0
2, 114060, Note_on_c, 0, 59, 0
2, 114240, Note_on_c, 0, 59, 25
2, 114240, Note_on_c, 0, 71, 30
2, 114360, Note_on_c, 0, 71, 0
2, 114360, Note_on_c, 0, 59, 0
2, 114720, Note_on_c, 0, 58, 23
2, 114720, Note_on_c, 0, 70, 28
2, 114780, Note_on_c, 0, 70, 0
2, 114780, Note_on_c, 0, 58, 0
2, 114960, Note_on_c, 0, 58, 22
2, 114960, Note_on_c, 0, 70, 27
2, 115080, Note_on_c, 0, 70, 0
2, 115080, Note_on_c, 0, 58, 0
2, 115440, Note_on_c, 0, 62, 31
2, 115620, Note_on_c, 0, 62, 0
2, 115620, Note_on_c, 0, 66, 28
2, 115677, Note_on_c, 0, 66, 0
2, 115680, Note_on_c, 0, 66, 33
2, 115920, Note_on_c, 0, 66, 0
2, 115920, Note_on_c, 0, 62, 28
2, 116040, Note_on_c, 0, 62, 0
2, 116160, Note_on_c, 0, 59, 22
2, 116160, Note_on_c, 0, 71, 28
2, 116220, Note_on_c, 0, 71, 0
2, 116220, Note_on_c, 0, 59, 0
2, 116400, Note_on_c, 0, 59, 22
2, 116400, Note_on_c, 0, 71, 27
2, 116520, Note_on_c, 0, 71, 0
2, 116520, Note_on_c, 0, 59, 0
2, 116880, Note_on_c, 0, 59, 22
2, 116880, Note_on_c, 0, 71, 28
2, 116940, Note_on_c, 0, 71, 0
2, 116940, Note_on_c, 0, 59, 0
2, 117120, Note_on_c, 0, 59, 22
2, 117120, Note_on_c, 0, 71, 27
2, 117240, Note_on_c, 0, 71, 0
2, 117240, Note_on_c, 0, 59, 0
2, 117600, Note_on_c, 0, 59, 39
2, 117600, Note_on_c, 0, 71, 46
2, 117719, Note_on_c, 0, 71, 0
2, 117719, Note_on_c, 0, 59, 0
2, 117840, Note_on_c, 0, 59, 39
2, 117840, Note_on_c, 0, 71, 47
2, 118078, Note_on_c, 0, 71, 0
2, 118078, Note_on_c, 0, 59, 0
2, 118080, Note_on_c, 0, 59, 43
2, 118080, Note_on_c, 0, 71, 51
2, 118318, Note_on_c, 0, 71, 0
2, 118318, Note_on_c, 0, 59, 0
2, 118320, Note_on_c, 0, 59, 45
2, 118320, Note_on_c, 0, 71, 55
2, 118558, Note_on_c, 0, 71, 0
2, 118558, Note_on_c, 0, 59, 0
2, 118560, Note_on_c, 0, 59, 50
2, 118560, Note_on_c, 0, 71, 59
2, 118798, Note_on_c, 0, 71, 0
2, 118798, Note_on_c, 0, 59, 0
2, 118800, Note_on_c, 0, 59, 55
2, 118800, Note_on_c, 0, 71, 65
2, 119038, Note_on_c, 0, 71, 0
2, 119038, Note_on_c, 0, 59, 0
2, 119040, Note_on_c, 0, 71, 60
2, 119040, Note_on_c, 0, 83, 72
2, 119278, Note_on_c, 0, 83, 0
2, 119278, Note_on_c, 0, 71, 0
2, 119280, Note_on_c, 0, 71, 66
2, 119280, Note_on_c, 0, 83, 79
2, 119518, Note_on_c, 0, 83, 0
2, 119518, Note_on_c, 0, 71, 0
2, 119520, Note_on_c, 0, 71, 73
2, 119520, Note_on_c, 0, 83, 87
2, 119758, Note_on_c, 0, 83, 0
2, 119758, Note_on_c, 0, 71, 0
2, 119760, Note_on_c, 0, 71, 96
2, 119760, Note_on_c, 0, 83, 81
2, 119998, Note_on_c, 0, 83, 0
2, 119998, Note_on_c, 0, 71, 0
2, 120000, Note_on_c, 0, 83, 81
2, 120000, Note_on_c, 0, 95, 97
2, 120238, Note_on_c, 0, 95, 0
2, 120238, Note_on_c, 0, 83, 0
2, 120240, Note_on_c, 0, 83, 82
2, 120240, Note_on_c, 0, 95, 97
2, 120478, Note_on_c, 0, 95, 0
2, 120478, Note_on_c, 0, 83, 0
2, 120480, Note_on_c, 0, 83, 83
2, 120480, Note_on_c, 0, 95, 98
2, 120718, Note_on_c, 0, 95, 0
2, 120718, Note_on_c, 0, 83, 0
2, 120720, Note_on_c, 0, 95, 105
2, 120720, Note_on_c, 0, 83, 88
2, 120958, Note_on_c, 0, 83, 0
2, 120958, Note_on_c, 0, 95, 0
2, 120960, Note_on_c, 0, 95, 99
2, 120960, Note_on_c, 0, 83, 83
2, 121198, Note_on_c, 0, 83, 0
2, 121198, Note_on_c, 0, 95, 0
2, 121200, Note_on_c, 0, 95, 100
2, 121200, Note_on_c, 0, 83, 84
2, 121440, Note_on_c, 0, 83, 0
2, 121440, Note_on_c, 0, 95, 0
2, 121440, Note_on_c, 0, 82, 92
2, 121440, Note_on_c, 0, 94, 109
2, 121560, Note_on_c, 0, 94, 0
2, 121560, Note_on_c, 0, 82, 0
2, 121680, Note_on_c, 0, 82, 92
2, 121680, Note_on_c, 0, 94, 109
2, 121800, Note_on_c, 0, 94, 0
2, 121800, Note_on_c, 0, 82, 0
2, 122160, Note_on_c, 0, 62, 40
2, 122340, Note_on_c, 0, 62, 0
2, 122340, Note_on_c, 0, 65, 40
2, 122394, Note_on_c, 0, 65, 0
2, 122400, Note_on_c, 0, 65, 49
2, 122520, Note_on_c, 0, 60, 46
2, 122640, Note_on_c, 0, 65, 0
2, 122640, Note_on_c, 0, 53, 33
2, 122640, Note_on_c, 0, 62, 44
2, 122760, Note_on_c, 0, 62, 0
2, 122760, Note_on_c, 0, 53, 0
2, 122760, Note_on_c, 0, 60, 0
2, 122870, Note_on_c, 0, 74, 40
2, 123050, Note_on_c, 0, 74, 0
2, 123050, Note_on_c, 0, 77, 40
2, 123104, Note_on_c, 0, 77, 0
2, 123110, Note_on_c, 0, 77, 49
2, 123230, Note_on_c, 0, 72, 33
2, 123350, Note_on_c, 0, 77, 0
2, 123350, Note_on_c, 0, 65, 33
2, 123350, Note_on_c, 0, 74, 44
2, 123470, Note_on_c, 0, 74, 0
2, 123470, Note_on_c, 0, 65, 0
2, 123470, Note_on_c, 0, 72, 0
2, 123597, Note_on_c, 0, 86, 34
2, 123777, Note_on_c, 0, 86, 0
2, 123777, Note_on_c, 0, 89, 34
2, 123831, Note_on_c, 0, 89, 0
2, 123837, Note_on_c, 0, 89, 41
2, 123957, Note_on_c, 0, 84, 35
2, 124077, Note_on_c, 0, 89, 0
2, 124077, Note_on_c, 0, 77, 28
2, 124077, Note_on_c, 0, 86, 37
2, 124197, Note_on_c, 0, 86, 0
2, 124197, Note_on_c, 0, 77, 0
2, 124197, Note_on_c, 0, 84, 0
2, 124197, End_track
3, 0, Start_track
3, 0, Title_t, "Piano left"
3, 0, Program_c, 0, 0
3, 480, Note_on_c, 0, 62, 40
3, 480, Note_on_c, 0, 58, 34
3, 660, Note_on_c, 0, 58, 0
3, 660, Note_on_c, 0, 62, 0
3, 660, Note_on_c, 0, 53, 34
3, 660, Note_on_c, 0, 60, 40
3, 714, Note_on_c, 0, 60, 0
3, 714, Note_on_c, 0, 53, 0
3, 720, Note_on_c, 0, 60, 50
3, 720, Note_on_c, 0, 57, 42
3, 960, Note_on_c, 0, 57, 0
3, 960, Note_on_c, 0, 60, 0
3, 960, Note_on_c, 0, 62, 44
3, 960, Note_on_c, 0, 58, 37
3, 1080, Note_on_c, 0, 58, 0
3, 1080, Note_on_c, 0, 62, 0
3, 1200, Note_on_c, 0, 58, 40
3, 1200, Note_on_c, 0, 55, 34
3, 1380, Note_on_c, 0, 55, 0
3, 1380, Note_on_c, 0, 58, 0
3, 1380, Note_on_c, 0, 50, 34
3, 1380, Note_on_c, 0, 57, 40
3, 1434, Note_on_c, 0, 57, 0
3, 1434, Note_on_c, 0, 50, 0
3, 1440, Note_on_c, 0, 57, 50
3, 1440, Note_on_c, 0, 54, 42
3, 1680, Note_on_c, 0, 54, 0
3, 1680, Note_on_c, 0, 57, 0
3, 1680, Note_on_c, 0, 58, 44
3, 1680, Note_on_c, 0, 55, 37
3, 1800, Note_on_c, 0, 55, 0
3, 1800, Note_on_c, 0, 58, 0
3, 1920, Note_on_c, 0, 55, 42
3, 1920, Note_on_c, 0, 51, 35
3, 2100, Note_on_c, 0, 51, 0
3, 2100, Note_on_c, 0, 55, 0
3, 2100, Note_on_c, 0, 46, 36
3, 2100, Note_on_c, 0, 53, 42
3, 2154, Note_on_c, 0, 53, 0
3, 2154, Note_on_c, 0, 46, 0
3, 2160, Note_on_c, 0, 53, 54
3, 2160, Note_on_c, 0, 50, 45
3, 2400, Note_on_c, 0, 50, 0
3, 2400, Note_on_c, 0, 53, 0
3, 2400, Note_on_c, 0, 55, 48
3, 2400, Note_on_c, 0, 51, 41
3, 2520, Note_on_c, 0, 51, 0
3, 2520, Note_on_c, 0, 55, 0
3, 2640, Note_on_c, 0, 55, 45
3, 2640, Note_on_c, 0, 51, 38
3, 2820, Note_on_c, 0, 51, 0
3, 2820, Note_on_c, 0, 55, 0
3, 2820, Note_on_c, 0, 48, 39
3, 2820, Note_on_c, 0, 53, 46
3, 2874, Note_on_c, 0, 53, 0
3, 2874, Note_on_c, 0, 48, 0
3, 2880, Note_on_c, 0, 53, 58
3, 2880, Note_on_c, 0, 48, 49
3, 3120, Note_on_c, 0, 48, 0
3, 3120, Note_on_c, 0, 50, 44
3, 3240, Note_on_c, 0, 50, 0
3, 3240, Note_on_c, 0, 53, 0
3, 3360, Note_on_c, 0, 53, 41
3, 3360, Note_on_c, 0, 50, 49
3, 3540, Note_on_c, 0, 50, 0
3, 3540, Note_on_c, 0, 45, 42
3, 3594, Note_on_c, 0, 45, 0
3, 3600, Note_on_c, 0, 53, 0
3, 3600, Note_on_c, 0, 53, 64
3, 3600, Note_on_c, 0, 45, 53
3, 3840, Note_on_c, 0, 45, 0
3, 3840, Note_on_c, 0, 44, 48
3, 3960, Note_on_c, 0, 44, 0
3, 3960, Note_on_c, 0, 53, 0
3, 4080, Note_on_c, 0, 44, 45
3, 4080, Note_on_c, 0, 53, 53
3, 4260, Note_on_c, 0, 53, 0
3, 4260, Note_on_c, 0, 44, 0
3, 4260, Note_on_c, 0, 43, 46
3, 4260, Note_on_c, 0, 51, 46
3, 4314, Note_on_c, 0, 51, 0
3, 4314, Note_on_c, 0, 43, 0
3, 4320, Note_on_c, 0, 51, 71
3, 4320, Note_on_c, 0, 43, 59
3, 4560, Note_on_c, 0, 43, 0
3, 4560, Note_on_c, 0, 51, 0
3, 4560, Note_on_c, 0, 49, 56
3, 4560, Note_on_c, 0, 41, 49
3, 4620, Note_on_c, 0, 41, 0
3, 4620, Note_on_c, 0, 49, 0
3, 4800, Note_on_c, 0, 40, 58
3, 4800, Note_on_c, 0, 48, 62
3, 4860, Note_on_c, 0, 48, 0
3, 4860, Note_on_c, 0, 40, 0
3, 5040, Note_on_c, 0, 41, 58
3, 5040, Note_on_c, 0, 53, 62
3, 5160, Note_on_c, 0, 53, 0
3, 5160, Note_on_c, 0, 41, 0
3, 5520, Note_on_c, 0, 74, 40
3, 5520, Note_on_c, 0, 70, 34
3, 5700, Note_on_c, 0, 70, 0
3, 5700, Note_on_c, 0, 74, 0
3, 5700, Note_on_c, 0, 65, 34
3, 5700, Note_on_c, 0, 72, 40
3, 5754, Note_on_c, 0, 72, 0
3, 5754, Note_on_c, 0, 65, 0
3, 5760, Note_on_c, 0, 72, 50
3, 5760, Note_on_c, 0, 69, 42
3, 6000, Note_on_c, 0, 69, 0
3, 6000, Note_on_c, 0, 72, 0
3, 6000, Note_on_c, 0, 74, 44
3, 6000, Note_on_c, 0, 70, 37
3, 6120, Note_on_c, 0, 70, 0
3, 6120, Note_on_c, 0, 74, 0
3, 6240, Note_on_c, 0, 70, 40
3, 6240, Note_on_c, 0, 67, 34
3, 6420, Note_on_c, 0, 67, 0
3, 6420, Note_on_c, 0, 70, 0
3, 6420, Note_on_c, 0, 62, 34
3, 6420, Note_on_c, 0, 69, 40
3, 6474, Note_on_c, 0, 69, 0
3, 6474, Note_on_c, 0, 62, 0
3, 6480, Note_on_c, 0, 69, 50
3, 6480, Note_on_c, 0, 66, 42
3, 6720, Note_on_c, 0, 66, 0
3, 6720, Note_on_c, 0, 69, 0
3, 6720, Note_on_c, 0, 70, 44
3, 6720, Note_on_c, 0, 67, 37
3, 6840, Note_on_c, 0, 67, 0
3, 6840, Note_on_c, 0, 70, 0
3, 6960, Note_on_c, 0, 67, 42
3, 6960, Note_on_c, 0, 63, 35
3, 7140, Note_on_c, 0, 63, 0
3, 7140, Note_on_c, 0, 67, 0
3, 7140, Note_on_c, 0, 58, 36
3, 7140, Note_on_c, 0, 65, 42
3, 7194, Note_on_c, 0, 65, 0
3, 7194, Note_on_c, 0, 58, 0
3, 7200, Note_on_c, 0, 65, 54
3, 7200, Note_on_c, 0, 62, 45
3, 7440, Note_on_c, 0, 62, 0
3, 7440, Note_on_c, 0, 65, 0
3, 7440, Note_on_c, 0, 67, 48
3, 7440, Note_on_c, 0, 63, 41
3, 7560, Note_on_c, 0, 63, 0
3, 7560, Note_on_c, 0, 67, 0
3, 7680, Note_on_c, 0, 67, 45
3, 7680, Note_on_c, 0, 63, 38
3, 7860, Note_on_c, 0, 63, 0
3, 7860, Note_on_c, 0, 67, 0
3, 7860, Note_on_c, 0, 60, 39
3, 7860, Note_on_c, 0, 65, 46
3, 7914, Note_on_c, 0, 65, 0
3, 7914, Note_on_c, 0, 60, 0
3, 7920, Note_on_c, 0, 65, 58
3, 7920, Note_on_c, 0, 60, 49
3, 8160, Note_on_c, 0, 60, 0
3, 8160, Note_on_c, 0, 62, 44
3, 8280, Note_on_c, 0, 62, 0
3, 8280, Note_on_c, 0, 65, 0
3, 8400, Note_on_c, 0, 74, 49
3, 8580, Note_on_c, 0, 74, 0
3, 8580, Note_on_c, 0, 72, 42
3, 8580, Note_on_c, 0, 69, 42
3, 8634, Note_on_c, 0, 69, 0
3, 8634, Note_on_c, 0, 72, 0
3, 8640, Note_on_c, 0, 72, 64
3, 8640, Note_on_c, 0, 69, 53
3, 8880, Note_on_c, 0, 69, 0
3, 8880, Note_on_c, 0, 72, 0
3, 8880, Note_on_c, 0, 70, 52
3, 8880, Note_on_c, 0, 68, 48
3, 9000, Note_on_c, 0, 68, 0
3, 9000, Note_on_c, 0, 70, 0
3, 9120, Note_on_c, 0, 67, 45
3, 9120, Note_on_c, 0, 70, 53
3, 9300, Note_on_c, 0, 67, 0
3, 9300, Note_on_c, 0, 66, 46
3, 9354, Note_on_c, 0, 66, 0
3, 9360, Note_on_c, 0, 70, 0
3, 9360, Note_on_c, 0, 70, 71
3, 9360, Note_on_c, 0, 66, 59
3, 9600, Note_on_c, 0, 66, 0
3, 9600, Note_on_c, 0, 70, 0
3, 9600, Note_on_c, 0, 72, 56
3, 9600, Note_on_c, 0, 65, 49
3, 9660, Note_on_c, 0, 65, 0
3, 9660, Note_on_c, 0, 72, 0
3, 9840, Note_on_c, 0, 48, 58
3, 9840, Note_on_c, 0, 60, 62
3, 9900, Note_on_c, 0, 60, 0
3, 9900, Note_on_c, 0, 48, 0
3, 10080, Note_on_c, 0, 53, 58
3, 10080, Note_on_c, 0, 65, 62
3, 10200, Note_on_c, 0, 65, 0
3, 10200, Note_on_c, 0, 53, 0
3, 10560, Note_on_c, 0, 65, 40
3, 10560, Note_on_c, 0, 53, 34
3, 11280, Note_on_c, 0, 53, 0
3, 11280, Note_on_c, 0, 65, 0
3, 11280, Note_on_c, 0, 53, 40
3, 11280, Note_on_c, 0, 41, 34
3, 12000, Note_on_c, 0, 41, 0
3, 12000, Note_on_c, 0, 53, 0
3, 12000, Note_on_c, 0, 53, 40
3, 12000, Note_on_c, 0, 41, 34
3, 12720, Note_on_c, 0, 41, 0
3, 12720, Note_on_c, 0, 53, 0
3, 12720, Note_on_c, 0, 41, 36
3, 12720, Note_on_c, 0, 29, 30
3, 13440, Note_on_c, 0, 29, 0
3, 13440, Note_on_c, 0, 41, 0
3, 13440, Note_on_c, 0, 42, 36
3, 13440, Note_on_c, 0, 30, 30
3, 13920, Note_on_c, 0, 30, 0
3, 13920, Note_on_c, 0, 42, 0
3, 13920, Note_on_c, 0, 31, 28
3, 13920, Note_on_c, 0, 43, 34
3, 14400, Note_on_c, 0, 43, 0
3, 14400, Note_on_c, 0, 31, 0
3, 14400, Note_on_c, 0, 33, 28
3, 14400, Note_on_c, 0, 45, 34
3, 14640, Note_on_c, 0, 45, 0
3, 14640, Note_on_c, 0, 33, 0
3, 14640, Note_on_c, 0, 34, 28
3, 14640, Note_on_c, 0, 46, 33
3, 14880, Note_on_c, 0, 46, 0
3, 14880, Note_on_c, 0, 34, 0
3, 14880, Note_on_c, 0, 35, 28
3, 14880, Note_on_c, 0, 47, 33
3, 15120, Note_on_c, 0, 47, 0
3, 15120, Note_on_c, 0, 35, 0
3, 15120, Note_on_c, 0, 36, 28
3, 15120, Note_on_c, 0, 48, 33
3, 15600, Note_on_c, 0, 48, 0
3, 15600, Note_on_c, 0, 36, 0
3, 15600, Note_on_c, 0, 36, 32
3, 15840, Note_on_c, 0, 36, 0
3, 15840, Note_on_c, 0, 43, 32
3, 16320, Note_on_c, 0, 43, 0
3, 17760, Note_on_c, 0, 43, 32
3, 17760, Note_on_c, 0, 55, 27
3, 17940, Note_on_c, 0, 43, 0
3, 17940, Note_on_c, 0, 47, 32
3, 17994, Note_on_c, 0, 47, 0
3, 18000, Note_on_c, 0, 47, 40
3, 18240, Note_on_c, 0, 47, 0
3, 18240, Note_on_c, 0, 43, 35
3, 18360, Note_on_c, 0, 43, 0
3, 18360, Note_on_c, 0, 55, 0
3, 18480, Note_on_c, 0, 72, 36
3, 18660, Note_on_c, 0, 72, 0
3, 18660, Note_on_c, 0, 75, 36
3, 18714, Note_on_c, 0, 75, 0
3, 18720, Note_on_c, 0, 75, 46
3, 18960, Note_on_c, 0, 75, 0
3, 18960, Note_on_c, 0, 72, 40
3, 19080, Note_on_c, 0, 72, 0
3, 19200, Note_on_c, 0, 55, 40
3, 19200, Note_on_c, 0, 43, 34
3, 19920, Note_on_c, 0, 43, 0
3, 19920, Note_on_c, 0, 55, 0
3, 19920, Note_on_c, 0, 48, 48
3, 19920, Note_on_c, 0, 36, 40
3, 20640, Note_on_c, 0, 36, 0
3, 20640, Note_on_c, 0, 48, 0
3, 20640, Note_on_c, 0, 29, 57
3, 20640, Note_on_c, 0, 41, 71
3, 21120, Note_on_c, 0, 41, 0
3, 21120, Note_on_c, 0, 29, 0
3, 21120, Note_on_c, 0, 41, 57
3, 21120, Note_on_c, 0, 53, 60
3, 21180, Note_on_c, 0, 53, 0
3, 21180, Note_on_c, 0, 41, 0
3, 21360, Note_on_c, 0, 34, 63
3, 21360, Note_on_c, 0, 46, 68
3, 21420, Note_on_c, 0, 46, 0
3, 21420, Note_on_c, 0, 34, 0
3, 21600, Note_on_c, 0, 34, 63
3, 21600, Note_on_c, 0, 46, 68
3, 21720, Note_on_c, 0, 46, 0
3, 21720, Note_on_c, 0, 34, 0
3, 22080, Note_on_c, 0, 77, 40
3, 22080, Note_on_c, 0, 65, 34
3, 22800, Note_on_c, 0, 65, 0
3, 22800, Note_on_c, 0, 77, 0
3, 22800, Note_on_c, 0, 65, 40
3, 22800, Note_on_c, 0, 53, 34
3, 23520, Note_on_c, 0, 53, 0
3, 23520, Note_on_c, 0, 65, 0
3, 23520, Note_on_c, 0, 65, 40
3, 23520, Note_on_c, 0, 53, 34
3, 24240, Note_on_c, 0, 53, 0
3, 24240, Note_on_c, 0, 65, 0
3, 24240, Note_on_c, 0, 53, 36
3, 24240, Note_on_c, 0, 41, 30
3, 24960, Note_on_c, 0, 41, 0
3, 24960, Note_on_c, 0, 53, 0
3, 24960, Note_on_c, 0, 54, 36
3, 24960, Note_on_c, 0, 42, 30
3, 25440, Note_on_c, 0, 42, 0
3, 25440, Note_on_c, 0, 54, 0
3, 25440, Note_on_c, 0, 54, 28
3, 25440, Note_on_c, 0, 60, 28
3, 25440, Note_on_c, 0, 63, 34
3, 25680, Note_on_c, 0, 63, 0
3, 25680, Note_on_c, 0, 60, 0
3, 25680, Note_on_c, 0, 54, 0
3, 25680, Note_on_c, 0, 55, 28
3, 25680, Note_on_c, 0, 58, 28
3, 25680, Note_on_c, 0, 62, 34
3, 25920, Note_on_c, 0, 62, 0
3, 25920, Note_on_c, 0, 58, 0
3, 25920, Note_on_c, 0, 55, 0
3, 25920, Note_on_c, 0, 57, 28
3, 25920, Note_on_c, 0, 60, 34
3, 26160, Note_on_c, 0, 60, 0
3, 26160, Note_on_c, 0, 57, 0
3, 26160, Note_on_c, 0, 46, 28
3, 26160, Note_on_c, 0, 55, 28
3, 26160, Note_on_c, 0, 58, 33
3, 26400, Note_on_c, 0, 58, 0
3, 26400, Note_on_c, 0, 55, 0
3, 26400, Note_on_c, 0, 46, 0
3, 26400, Note_on_c, 0, 53, 28
3, 26400, Note_on_c, 0, 47, 28
3, 26400, Note_on_c, 0, 57, 33
3, 26640, Note_on_c, 0, 47, 0
3, 26640, Note_on_c, 0, 48, 28
3, 26880, Note_on_c, 0, 57, 0
3, 26880, Note_on_c, 0, 53, 0
3, 26880, Note_on_c, 0, 52, 27
3, 26880, Note_on_c, 0, 55, 33
3, 27120, Note_on_c, 0, 55, 0
3, 27120, Note_on_c, 0, 52, 0
3, 27120, Note_on_c, 0, 48, 0
3, 27120, Note_on_c, 0, 51, 27
3, 27120, Note_on_c, 0, 55, 33
3, 27120, Note_on_c, 0, 60, 32
3, 27360, Note_on_c, 0, 55, 0
3, 27360, Note_on_c, 0, 51, 0
3, 27360, Note_on_c, 0, 55, 32
3, 27600, Note_on_c, 0, 60, 0
3, 27600, Note_on_c, 0, 59, 30
3, 27840, Note_on_c, 0, 59, 0
3, 27840, Note_on_c, 0, 55, 0
3, 29280, Note_on_c, 0, 55, 32
3, 29280, Note_on_c, 0, 67, 27
3, 29460, Note_on_c, 0, 55, 0
3, 29460, Note_on_c, 0, 59, 32
3, 29514, Note_on_c, 0, 59, 0
3, 29520, Note_on_c, 0, 59, 40
3, 29760, Note_on_c, 0, 59, 0
3, 29760, Note_on_c, 0, 55, 35
3, 29880, Note_on_c, 0, 55, 0
3, 29880, Note_on_c, 0, 67, 0
3, 30000, Note_on_c, 0, 60, 36
3, 30180, Note_on_c, 0, 60, 0
3, 30180, Note_on_c, 0, 63, 36
3, 30234, Note_on_c, 0, 63, 0
3, 30240, Note_on_c, 0, 63, 46
3, 30480, Note_on_c, 0, 63, 0
3, 30480, Note_on_c, 0, 60, 40
3, 30600, Note_on_c, 0, 60, 0
3, 30720, Note_on_c, 0, 67, 40
3, 30720, Note_on_c, 0, 55, 34
3, 31440, Note_on_c, 0, 55, 0
3, 31440, Note_on_c, 0, 67, 0
3, 31440, Note_on_c, 0, 60, 49
3, 31440, Note_on_c, 0, 48, 41
3, 32160, Note_on_c, 0, 48, 0
3, 32160, Note_on_c, 0, 60, 0
3, 32160, Note_on_c, 0, 41, 59
3, 32160, Note_on_c, 0, 53, 74
3, 32880, Note_on_c, 0, 53, 0
3, 32880, Note_on_c, 0, 41, 0
3, 32880, Note_on_c, 0, 34, 69
3, 32880, Note_on_c, 0, 46, 74
3, 32940, Note_on_c, 0, 46, 0
3, 32940, Note_on_c, 0, 34, 0
3, 33120, Note_on_c, 0, 34, 69
3, 33120, Note_on_c, 0, 46, 74
3, 33240, Note_on_c, 0, 46, 0
3, 33240, Note_on_c, 0, 34, 0
3, 33600, Note_on_c, 0, 34, 31
3, 33600, Note_on_c, 0, 46, 37
3, 33720, Note_on_c, 0, 46, 0
3, 33720, Note_on_c, 0, 34, 0
3, 33840, Note_on_c, 0, 34, 31
3, 33840, Note_on_c, 0, 46, 37
3, 33960, Note_on_c, 0, 46, 0
3, 33960, Note_on_c, 0, 34, 0
3, 34320, Note_on_c, 0, 34, 37
3, 34400, Note_on_c, 0, 34, 0
3, 34400, Note_on_c, 0, 41, 30
3, 34480, Note_on_c, 0, 41, 0
3, 34480, Note_on_c, 0, 49, 30
3, 34560, Note_on_c, 0, 49, 0
3, 34560, Note_on_c, 0, 34, 37
3, 34640, Note_on_c, 0, 34, 0
3, 34640, Note_on_c, 0, 41, 31
3, 34720, Note_on_c, 0, 41, 0
3, 34720, Note_on_c, 0, 49, 31
3, 34800, Note_on_c, 0, 49, 0
3, 34800, Note_on_c, 0, 34, 37
3, 34880, Note_on_c, 0, 34, 0
3, 34880, Note_on_c, 0, 41, 31
3, 34960, Note_on_c, 0, 41, 0
3, 34960, Note_on_c, 0, 49, 30
3, 35040, Note_on_c, 0, 49, 0
3, 35040, Note_on_c, 0, 34, 37
3, 35120, Note_on_c, 0, 34, 0
3, 35120, Note_on_c, 0, 41, 31
3, 35200, Note_on_c, 0, 41, 0
3, 35200, Note_on_c, 0, 49, 31
3, 35280, Note_on_c, 0, 49, 0
3, 35280, Note_on_c, 0, 34, 37
3, 35360, Note_on_c, 0, 34, 0
3, 35360, Note_on_c, 0, 41, 31
3, 35440, Note_on_c, 0, 41, 0
3, 35440, Note_on_c, 0, 49, 31
3, 35520, Note_on_c, 0, 49, 0
3, 35520, Note_on_c, 0, 34, 38
3, 35600, Note_on_c, 0, 34, 0
3, 35600, Note_on_c, 0, 41, 32
3, 35680, Note_on_c, 0, 41, 0
3, 35680, Note_on_c, 0, 49, 31
3, 35760, Note_on_c, 0, 49, 0
3, 35760, Note_on_c, 0, 34, 39
3, 35840, Note_on_c, 0, 34, 0
3, 35840, Note_on_c, 0, 41, 33
3, 35920, Note_on_c, 0, 41, 0
3, 35920, Note_on_c, 0, 49, 34
3, 36000, Note_on_c, 0, 49, 0
3, 36000, Note_on_c, 0, 34, 41
3, 36080, Note_on_c, 0, 34, 0
3, 36080, Note_on_c, 0, 41, 35
3, 36160, Note_on_c, 0, 41, 0
3, 36160, Note_on_c, 0, 49, 35
3, 36240, Note_on_c, 0, 49, 0
3, 36240, Note_on_c, 0, 34, 42
3, 36320, Note_on_c, 0, 34, 0
3, 36320, Note_on_c, 0, 41, 36
3, 36400, Note_on_c, 0, 41, 0
3, 36400, Note_on_c, 0, 49, 35
3, 36480, Note_on_c, 0, 49, 0
3, 36480, Note_on_c, 0, 34, 44
3, 36560, Note_on_c, 0, 34, 0
3, 36560, Note_on_c, 0, 41, 37
3, 36640, Note_on_c, 0, 41, 0
3, 36640, Note_on_c, 0, 49, 38
3, 36720, Note_on_c, 0, 49, 0
3, 36720, Note_on_c, 0, 34, 49
3, 36800, Note_on_c, 0, 34, 0
3, 36800, Note_on_c, 0, 41, 42
3, 36880, Note_on_c, 0, 41, 0
3, 36880, Note_on_c, 0, 49, 42
3, 36960, Note_on_c, 0, 49, 0
3, 36960, Note_on_c, 0, 34, 54
3, 37040, Note_on_c, 0, 34, 0
3, 37040, Note_on_c, 0, 41, 49
3, 37120, Note_on_c, 0, 41, 0
3, 37120, Note_on_c, 0, 49, 49
3, 37200, Note_on_c, 0, 49, 0
3, 37200, Note_on_c, 0, 34, 61
3, 37280, Note_on_c, 0, 34, 0
3, 37280, Note_on_c, 0, 41, 56
3, 37360, Note_on_c, 0, 41, 0
3, 37360, Note_on_c, 0, 49, 58
3, 37440, Note_on_c, 0, 49, 0
3, 37440, Note_on_c, 0, 34, 69
3, 37520, Note_on_c, 0, 34, 0
3, 37520, Note_on_c, 0, 41, 57
3, 37600, Note_on_c, 0, 41, 0
3, 37600, Note_on_c, 0, 49, 52
3, 37680, Note_on_c, 0, 49, 0
3, 37680, Note_on_c, 0, 34, 61
3, 37760, Note_on_c, 0, 34, 0
3, 37760, Note_on_c, 0, 41, 51
3, 37840, Note_on_c, 0, 41, 0
3, 37840, Note_on_c, 0, 49, 51
3, 37920, Note_on_c, 0, 49, 0
3, 37920, Note_on_c, 0, 32, 60
3, 38000, Note_on_c, 0, 32, 0
3, 38000, Note_on_c, 0, 41, 50
3, 38080, Note_on_c, 0, 41, 0
3, 38080, Note_on_c, 0, 49, 46
3, 38160, Note_on_c, 0, 49, 0
3, 38160, Note_on_c, 0, 32, 44
3, 38240, Note_on_c, 0, 32, 0
3, 38240, Note_on_c, 0, 41, 36
3, 38320, Note_on_c, 0, 41, 0
3, 38320, Note_on_c, 0, 49, 35
3, 38400, Note_on_c, 0, 49, 0
3, 38400, Note_on_c, 0, 32, 41
3, 38480, Note_on_c, 0, 32, 0
3, 38480, Note_on_c, 0, 41, 34
3, 38560, Note_on_c, 0, 41, 0
3, 38560, Note_on_c, 0, 49, 32
3, 38640, Note_on_c, 0, 49, 0
3, 38640, Note_on_c, 0, 37, 39
3, 38720, Note_on_c, 0, 37, 0
3, 38720, Note_on_c, 0, 41, 32
3, 38800, Note_on_c, 0, 41, 0
3, 38800, Note_on_c, 0, 49, 31
3, 38880, Note_on_c, 0, 49, 0
3, 38880, Note_on_c, 0, 37, 37
3, 38960, Note_on_c, 0, 37, 0
3, 38960, Note_on_c, 0, 41, 26
3, 39040, Note_on_c, 0, 41, 0
3, 39040, Note_on_c, 0, 49, 26
3, 39120, Note_on_c, 0, 49, 0
3, 39120, Note_on_c, 0, 37, 30
3, 39200, Note_on_c, 0, 37, 0
3, 39200, Note_on_c, 0, 41, 25
3, 39280, Note_on_c, 0, 41, 0
3, 39280, Note_on_c, 0, 49, 25
3, 39360, Note_on_c, 0, 49, 0
3, 39360, Note_on_c, 0, 37, 40
3, 39360, Note_on_c, 0, 49, 48
3, 39840, Note_on_c, 0, 49, 0
3, 39840, Note_on_c, 0, 37, 0
3, 39840, Note_on_c, 0, 53, 50
3, 39840, Note_on_c, 0, 41, 50
3, 40080, Note_on_c, 0, 41, 0
3, 40080, Note_on_c, 0, 53, 0
3, 40080, Note_on_c, 0, 37, 44
3, 40080, Note_on_c, 0, 49, 52
3, 40560, Note_on_c, 0, 49, 0
3, 40560, Note_on_c, 0, 37, 0
3, 40560, Note_on_c, 0, 34, 44
3, 40560, Note_on_c, 0, 46, 52
3, 40800, Note_on_c, 0, 46, 0
3, 40800, Note_on_c, 0, 34, 0
3, 40800, Note_on_c, 0, 29, 40
3, 40800, Note_on_c, 0, 41, 49
3, 41040, Note_on_c, 0, 41, 0
3, 41040, Note_on_c, 0, 29, 0
3, 41040, Note_on_c, 0, 34, 46
3, 41040, Note_on_c, 0, 46, 53
3, 41520, Note_on_c, 0, 46, 0
3, 41520, Note_on_c, 0, 34, 0
3, 41520, Note_on_c, 0, 49, 61
3, 41520, Note_on_c, 0, 37, 51
3, 41760, Note_on_c, 0, 37, 0
3, 41760, Note_on_c, 0, 49, 0
3, 41760, Note_on_c, 0, 41, 51
3, 41760, Note_on_c, 0, 53, 61
3, 42240, Note_on_c, 0, 53, 0
3, 42240, Note_on_c, 0, 41, 0
3, 42240, Note_on_c, 0, 49, 70
3, 42240, Note_on_c, 0, 37, 59
3, 42480, Note_on_c, 0, 37, 0
3, 42480, Note_on_c, 0, 49, 0
3, 42480, Note_on_c, 0, 46, 79
3, 42480, Note_on_c, 0, 34, 67
3, 42960, Note_on_c, 0, 34, 0
3, 42960, Note_on_c, 0, 46, 0
3, 42960, Note_on_c, 0, 41, 73
3, 42960, Note_on_c, 0, 29, 61
3, 43200, Note_on_c, 0, 29, 0
3, 43200, Note_on_c, 0, 41, 0
3, 43200, Note_on_c, 0, 34, 64
3, 43200, Note_on_c, 0, 46, 77
3, 43680, Note_on_c, 0, 46, 0
3, 43680, Note_on_c, 0, 34, 0
3, 43680, Note_on_c, 0, 49, 69
3, 43680, Note_on_c, 0, 37, 58
3, 43920, Note_on_c, 0, 37, 0
3, 43920, Note_on_c, 0, 49, 0
3, 43920, Note_on_c, 0, 41, 54
3, 43920, Note_on_c, 0, 53, 64
3, 44400, Note_on_c, 0, 53, 0
3, 44400, Note_on_c, 0, 41, 0
3, 44400, Note_on_c, 0, 56, 45
3, 44400, Note_on_c, 0, 44, 37
3, 44640, Note_on_c, 0, 44, 0
3, 44640, Note_on_c, 0, 56, 0
3, 44640, Note_on_c, 0, 49, 43
3, 44640, Note_on_c, 0, 37, 36
3, 44880, Note_on_c, 0, 37, 0
3, 44880, Note_on_c, 0, 49, 0
3, 45120, Note_on_c, 0, 37, 37
3, 45120, Note_on_c, 0, 49, 37
3, 45240, Note_on_c, 0, 49, 0
3, 45240, Note_on_c, 0, 37, 0
3, 45360, Note_on_c, 0, 37, 34
3, 45360, Note_on_c, 0, 49, 34
3, 45480, Note_on_c, 0, 49, 0
3, 45480, Note_on_c, 0, 37, 0
3, 45600, Note_on_c, 0, 37, 37
3, 45680, Note_on_c, 0, 37, 0
3, 45680, Note_on_c, 0, 41, 31
3, 45760, Note_on_c, 0, 41, 0
3, 45760, Note_on_c, 0, 49, 30
3, 45840, Note_on_c, 0, 49, 0
3, 45840, Note_on_c, 0, 37, 37
3, 45920, Note_on_c, 0, 37, 0
3, 45920, Note_on_c, 0, 41, 30
3, 46000, Note_on_c, 0, 41, 0
3, 46000, Note_on_c, 0, 49, 30
3, 46080, Note_on_c, 0, 49, 0
3, 46080, Note_on_c, 0, 37, 37
3, 46160, Note_on_c, 0, 37, 0
3, 46160, Note_on_c, 0, 41, 31
3, 46240, Note_on_c, 0, 41, 0
3, 46240, Note_on_c, 0, 49, 31
3, 46320, Note_on_c, 0, 49, 0
3, 46320, Note_on_c, 0, 37, 37
3, 46400, Note_on_c, 0, 37, 0
3, 46400, Note_on_c, 0, 41, 31
3, 46480, Note_on_c, 0, 41, 0
3, 46480, Note_on_c, 0, 49, 30
3, 46560, Note_on_c, 0, 49, 0
3, 46560, Note_on_c, 0, 37, 37
3, 46640, Note_on_c, 0, 37, 0
3, 46640, Note_on_c, 0, 41, 30
3, 46720, Note_on_c, 0, 41, 0
3, 46720, Note_on_c, 0, 49, 30
3, 46800, Note_on_c, 0, 49, 0
3, 46800, Note_on_c, 0, 37, 37
3, 46880, Note_on_c, 0, 37, 0
3, 46880, Note_on_c, 0, 41, 31
3, 46960, Note_on_c, 0, 41, 0
3, 46960, Note_on_c, 0, 49, 31
3, 47040, Note_on_c, 0, 49, 0
3, 47040, Note_on_c, 0, 37, 37
3, 47120, Note_on_c, 0, 37, 0
3, 47120, Note_on_c, 0, 41, 31
3, 47200, Note_on_c, 0, 41, 0
3, 47200, Note_on_c, 0, 49, 30
3, 47280, Note_on_c, 0, 49, 0
3, 47280, Note_on_c, 0, 37, 37
3, 47360, Note_on_c, 0, 37, 0
3, 47360, Note_on_c, 0, 41, 31
3, 47440, Note_on_c, 0, 41, 0
3, 47440, Note_on_c, 0, 49, 31
3, 47520, Note_on_c, 0, 49, 0
3, 47520, Note_on_c, 0, 37, 37
3, 47600, Note_on_c, 0, 37, 0
3, 47600, Note_on_c, 0, 41, 31
3, 47680, Note_on_c, 0, 41, 0
3, 47680, Note_on_c, 0, 49, 31
3, 47760, Note_on_c, 0, 49, 0
3, 47760, Note_on_c, 0, 37, 38
3, 47840, Note_on_c, 0, 37, 0
3, 47840, Note_on_c, 0, 41, 32
3, 47920, Note_on_c, 0, 41, 0
3, 47920, Note_on_c, 0, 49, 31
3, 48000, Note_on_c, 0, 49, 0
3, 48000, Note_on_c, 0, 32, 39
3, 48080, Note_on_c, 0, 32, 0
3, 48080, Note_on_c, 0, 41, 33
3, 48160, Note_on_c, 0, 41, 0
3, 48160, Note_on_c, 0, 49, 34
3, 48240, Note_on_c, 0, 49, 0
3, 48240, Note_on_c, 0, 32, 41
3, 48320, Note_on_c, 0, 32, 0
3, 48320, Note_on_c, 0, 41, 35
3, 48400, Note_on_c, 0, 41, 0
3, 48400, Note_on_c, 0, 49, 35
3, 48480, Note_on_c, 0, 49, 0
3, 48480, Note_on_c, 0, 32, 42
3, 48560, Note_on_c, 0, 32, 0
3, 48560, Note_on_c, 0, 41, 36
3, 48640, Note_on_c, 0, 41, 0
3, 48640, Note_on_c, 0, 49, 35
3, 48720, Note_on_c, 0, 49, 0
3, 48720, Note_on_c, 0, 32, 46
3, 48800, Note_on_c, 0, 32, 0
3, 48800, Note_on_c, 0, 41, 37
3, 48880, Note_on_c, 0, 41, 0
3, 48880, Note_on_c, 0, 49, 40
3, 48960, Note_on_c, 0, 49, 0
3, 48960, Note_on_c, 0, 34, 51
3, 49040, Note_on_c, 0, 34, 0
3, 49040, Note_on_c, 0, 41, 43
3, 49120, Note_on_c, 0, 41, 0
3, 49120, Note_on_c, 0, 49, 43
3, 49200, Note_on_c, 0, 49, 0
3, 49200, Note_on_c, 0, 34, 55
3, 49280, Note_on_c, 0, 34, 0
3, 49280, Note_on_c, 0, 41, 48
3, 49360, Note_on_c, 0, 41, 0
3, 49360, Note_on_c, 0, 49, 51
3, 49440, Note_on_c, 0, 49, 0
3, 49440, Note_on_c, 0, 34, 61
3, 49520, Note_on_c, 0, 34, 0
3, 49520, Note_on_c, 0, 41, 53
3, 49600, Note_on_c, 0, 41, 0
3, 49600, Note_on_c, 0, 49, 55
3, 49680, Note_on_c, 0, 49, 0
3, 49680, Note_on_c, 0, 34, 66
3, 49760, Note_on_c, 0, 34, 0
3, 49760, Note_on_c, 0, 41, 57
3, 49840, Note_on_c, 0, 41, 0
3, 49840, Note_on_c, 0, 49, 52
3, 49920, Note_on_c, 0, 49, 0
3, 49920, Note_on_c, 0, 34, 55
3, 50000, Note_on_c, 0, 34, 0
3, 50000, Note_on_c, 0, 41, 45
3, 50080, Note_on_c, 0, 41, 0
3, 50080, Note_on_c, 0, 49, 42
3, 50160, Note_on_c, 0, 49, 0
3, 50160, Note_on_c, 0, 34, 50
3, 50240, Note_on_c, 0, 34, 0
3, 50240, Note_on_c, 0, 41, 45
3, 50320, Note_on_c, 0, 41, 0
3, 50320, Note_on_c, 0, 49, 44
3, 50400, Note_on_c, 0, 49, 0
3, 50400, Note_on_c, 0, 29, 44
3, 50480, Note_on_c, 0, 29, 0
3, 50480, Note_on_c, 0, 41, 36
3, 50560, Note_on_c, 0, 41, 0
3, 50560, Note_on_c, 0, 49, 35
3, 50640, Note_on_c, 0, 49, 0
3, 50640, Note_on_c, 0, 29, 41
3, 50720, Note_on_c, 0, 29, 0
3, 50720, Note_on_c, 0, 41, 27
3, 50800, Note_on_c, 0, 41, 0
3, 50800, Note_on_c, 0, 49, 27
3, 50880, Note_on_c, 0, 49, 0
3, 50880, Note_on_c, 0, 29, 33
3, 50960, Note_on_c, 0, 29, 0
3, 50960, Note_on_c, 0, 41, 32
3, 51040, Note_on_c, 0, 41, 0
3, 51040, Note_on_c, 0, 49, 28
3, 51120, Note_on_c, 0, 49, 0
3, 51120, Note_on_c, 0, 34, 37
3, 51200, Note_on_c, 0, 34, 0
3, 51200, Note_on_c, 0, 41, 26
3, 51280, Note_on_c, 0, 41, 0
3, 51280, Note_on_c, 0, 49, 26
3, 51360, Note_on_c, 0, 49, 0
3, 51360, Note_on_c, 0, 34, 30
3, 51600, Note_on_c, 0, 34, 0
3, 51600, Note_on_c, 0, 41, 39
3, 51600, Note_on_c, 0, 53, 46
3, 52080, Note_on_c, 0, 53, 0
3, 52080, Note_on_c, 0, 41, 0
3, 52080, Note_on_c, 0, 56, 48
3, 52080, Note_on_c, 0, 44, 48
3, 52320, Note_on_c, 0, 44, 0
3, 52320, Note_on_c, 0, 56, 0
3, 52320, Note_on_c, 0, 41, 42
3, 52320, Note_on_c, 0, 53, 50
3, 52800, Note_on_c, 0, 53, 0
3, 52800, Note_on_c, 0, 41, 0
3, 52800, Note_on_c, 0, 37, 42
3, 52800, Note_on_c, 0, 49, 50
3, 53040, Note_on_c, 0, 49, 0
3, 53040, Note_on_c, 0, 37, 0
3, 53040, Note_on_c, 0, 32, 39
3, 53040, Note_on_c, 0, 44, 47
3, 53280, Note_on_c, 0, 44, 0
3, 53280, Note_on_c, 0, 32, 0
3, 53280, Note_on_c, 0, 37, 44
3, 53280, Note_on_c, 0, 49, 51
3, 53760, Note_on_c, 0, 49, 0
3, 53760, Note_on_c, 0, 37, 0
3, 53760, Note_on_c, 0, 53, 59
3, 53760, Note_on_c, 0, 41, 49
3, 54000, Note_on_c, 0, 41, 0
3, 54000, Note_on_c, 0, 53, 0
3, 54000, Note_on_c, 0, 44, 51
3, 54000, Note_on_c, 0, 56, 61
3, 54480, Note_on_c, 0, 56, 0
3, 54480, Note_on_c, 0, 44, 0
3, 54480, Note_on_c, 0, 53, 70
3, 54480, Note_on_c, 0, 41, 59
3, 54720, Note_on_c, 0, 41, 0
3, 54720, Note_on_c, 0, 53, 0
3, 54720, Note_on_c, 0, 49, 79
3, 54720, Note_on_c, 0, 37, 67
3, 55200, Note_on_c, 0, 37, 0
3, 55200, Note_on_c, 0, 49, 0
3, 55200, Note_on_c, 0, 34, 61
3, 55200, Note_on_c, 0, 46, 73
3, 55440, Note_on_c, 0, 46, 0
3, 55440, Note_on_c, 0, 34, 0
3, 55440, Note_on_c, 0, 29, 64
3, 55440, Note_on_c, 0, 41, 77
3, 55920, Note_on_c, 0, 41, 0
3, 55920, Note_on_c, 0, 29, 0
3, 55920, Note_on_c, 0, 34, 58
3, 55920, Note_on_c, 0, 46, 69
3, 56160, Note_on_c, 0, 46, 0
3, 56160, Note_on_c, 0, 34, 0
3, 56160, Note_on_c, 0, 37, 54
3, 56160, Note_on_c, 0, 49, 64
3, 56640, Note_on_c, 0, 49, 0
3, 56640, Note_on_c, 0, 37, 0
3, 56640, Note_on_c, 0, 41, 37
3, 56640, Note_on_c, 0, 53, 45
3, 56880, Note_on_c, 0, 53, 0
3, 56880, Note_on_c, 0, 41, 0
3, 56880, Note_on_c, 0, 34, 36
3, 56880, Note_on_c, 0, 46, 43
3, 57120, Note_on_c, 0, 46, 0
3, 57120, Note_on_c, 0, 34, 0
3, 57600, Note_on_c, 0, 61, 29
3, 57680, Note_on_c, 0, 61, 0
3, 57680, Note_on_c, 0, 58, 20
3, 57760, Note_on_c, 0, 58, 0
3, 57760, Note_on_c, 0, 53, 20
3, 57840, Note_on_c, 0, 53, 0
3, 57840, Note_on_c, 0, 61, 24
3, 57920, Note_on_c, 0, 61, 0
3, 57920, Note_on_c, 0, 58, 20
3, 58000, Note_on_c, 0, 58, 0
3, 58000, Note_on_c, 0, 53, 20
3, 58080, Note_on_c, 0, 53, 0
3, 58080, Note_on_c, 0, 65, 24
3, 58160, Note_on_c, 0, 65, 0
3, 58160, Note_on_c, 0, 61, 20
3, 58240, Note_on_c, 0, 61, 0
3, 58240, Note_on_c, 0, 53, 20
3, 58320, Note_on_c, 0, 53, 0
3, 58320, Note_on_c, 0, 58, 42
3, 58380, Note_on_c, 0, 58, 0
3, 58560, Note_on_c, 0, 61, 37
3, 58620, Note_on_c, 0, 61, 0
3, 58800, Note_on_c, 0, 60, 42
3, 58860, Note_on_c, 0, 60, 0
3, 59040, Note_on_c, 0, 53, 36
3, 59100, Note_on_c, 0, 53, 0
3, 59280, Note_on_c, 0, 65, 42
3, 59340, Note_on_c, 0, 65, 0
3, 59520, Note_on_c, 0, 63, 38
3, 59580, Note_on_c, 0, 63, 0
3, 59760, Note_on_c, 0, 61, 38
3, 59820, Note_on_c, 0, 61, 0
3, 60000, Note_on_c, 0, 60, 38
3, 60060, Note_on_c, 0, 60, 0
3, 60240, Note_on_c, 0, 58, 42
3, 60300, Note_on_c, 0, 58, 0
3, 60480, Note_on_c, 0, 61, 36
3, 60540, Note_on_c, 0, 61, 0
3, 60720, Note_on_c, 0, 60, 42
3, 60780, Note_on_c, 0, 60, 0
3, 60960, Note_on_c, 0, 56, 35
3, 61020, Note_on_c, 0, 56, 0
3, 61200, Note_on_c, 0, 60, 42
3, 61260, Note_on_c, 0, 60, 0
3, 61440, Note_on_c, 0, 55, 35
3, 61500, Note_on_c, 0, 55, 0
3, 61680, Note_on_c, 0, 53, 39
3, 62160, Note_on_c, 0, 53, 0
3, 62160, Note_on_c, 0, 41, 46
3, 62160, Note_on_c, 0, 53, 55
3, 62340, Note_on_c, 0, 53, 0
3, 62340, Note_on_c, 0, 41, 0
3, 62400, Note_on_c, 0, 44, 41
3, 62400, Note_on_c, 0, 56, 49
3, 62580, Note_on_c, 0, 56, 0
3, 62580, Note_on_c, 0, 44, 0
3, 62640, Note_on_c, 0, 43, 48
3, 62640, Note_on_c, 0, 55, 57
3, 62820, Note_on_c, 0, 55, 0
3, 62820, Note_on_c, 0, 43, 0
3, 62880, Note_on_c, 0, 36, 41
3, 62880, Note_on_c, 0, 48, 50
3, 63060, Note_on_c, 0, 48, 0
3, 63060, Note_on_c, 0, 36, 0
3, 63120, Note_on_c, 0, 48, 51
3, 63120, Note_on_c, 0, 60, 61
3, 63300, Note_on_c, 0, 60, 0
3, 63300, Note_on_c, 0, 48, 0
3, 63360, Note_on_c, 0, 46, 48
3, 63360, Note_on_c, 0, 58, 57
3, 63540, Note_on_c, 0, 58, 0
3, 63540, Note_on_c, 0, 46, 0
3, 63600, Note_on_c, 0, 44, 49
3, 63600, Note_on_c, 0, 56, 58
3, 63780, Note_on_c, 0, 56, 0
3, 63780, Note_on_c, 0, 44, 0
3, 63840, Note_on_c, 0, 43, 50
3, 63840, Note_on_c, 0, 55, 60
3, 64020, Note_on_c, 0, 55, 0
3, 64020, Note_on_c, 0, 43, 0
3, 64080, Note_on_c, 0, 41, 57
3, 64080, Note_on_c, 0, 53, 69
3, 64260, Note_on_c, 0, 53, 0
3, 64260, Note_on_c, 0, 41, 0
3, 64320, Note_on_c, 0, 44, 50
3, 64320, Note_on_c, 0, 56, 60
3, 64500, Note_on_c, 0, 56, 0
3, 64500, Note_on_c, 0, 44, 0
3, 64560, Note_on_c, 0, 43, 60
3, 64560, Note_on_c, 0, 55, 73
3, 64740, Note_on_c, 0, 55, 0
3, 64740, Note_on_c, 0, 43, 0
3, 64800, Note_on_c, 0, 48, 50
3, 64800, Note_on_c, 0, 60, 61
3, 64980, Note_on_c, 0, 60, 0
3, 64980, Note_on_c, 0, 48, 0
3, 65040, Note_on_c, 0, 45, 63
3, 65040, Note_on_c, 0, 57, 75
3, 65220, Note_on_c, 0, 57, 0
3, 65220, Note_on_c, 0, 45, 0
3, 65280, Note_on_c, 0, 41, 54
3, 65280, Note_on_c, 0, 53, 65
3, 65460, Note_on_c, 0, 53, 0
3, 65460, Note_on_c, 0, 41, 0
3, 65520, Note_on_c, 0, 46, 66
3, 65520, Note_on_c, 0, 58, 79
3, 65700, Note_on_c, 0, 58, 0
3, 65700, Note_on_c, 0, 46, 0
3, 65760, Note_on_c, 0, 48, 56
3, 65760, Note_on_c, 0, 60, 68
3, 65940, Note_on_c, 0, 60, 0
3, 65940, Note_on_c, 0, 48, 0
3, 66000, Note_on_c, 0, 49, 78
3, 66120, Note_on_c, 0, 49, 0
3, 66120, Note_on_c, 0, 61, 69
3, 66240, Note_on_c, 0, 61, 0
3, 66240, Note_on_c, 0, 46, 78
3, 66360, Note_on_c, 0, 46, 0
3, 66360, Note_on_c, 0, 58, 68
3, 66480, Note_on_c, 0, 58, 0
3, 66480, Note_on_c, 0, 41, 78
3, 66600, Note_on_c, 0, 41, 0
3, 66600, Note_on_c, 0, 53, 67
3, 66720, Note_on_c, 0, 53, 0
3, 66720, Note_on_c, 0, 39, 78
3, 66840, Note_on_c, 0, 39, 0
3, 66840, Note_on_c, 0, 51, 66
3, 66960, Note_on_c, 0, 51, 0
3, 66960, Note_on_c, 0, 37, 78
3, 67080, Note_on_c, 0, 37, 0
3, 67080, Note_on_c, 0, 49, 67
3, 67200, Note_on_c, 0, 49, 0
3, 67200, Note_on_c, 0, 36, 78
3, 67320, Note_on_c, 0, 36, 0
3, 67320, Note_on_c, 0, 48, 67
3, 67440, Note_on_c, 0, 48, 0
3, 67440, Note_on_c, 0, 34, 73
3, 67560, Note_on_c, 0, 34, 0
3, 67560, Note_on_c, 0, 46, 62
3, 67680, Note_on_c, 0, 46, 0
3, 67680, Note_on_c, 0, 33, 73
3, 67800, Note_on_c, 0, 33, 0
3, 67800, Note_on_c, 0, 45, 61
3, 67920, Note_on_c, 0, 45, 0
3, 67920, Note_on_c, 0, 34, 75
3, 68040, Note_on_c, 0, 34, 0
3, 68040, Note_on_c, 0, 46, 63
3, 68160, Note_on_c, 0, 46, 0
3, 68160, Note_on_c, 0, 34, 73
3, 68280, Note_on_c, 0, 34, 0
3, 68280, Note_on_c, 0, 46, 65
3, 68400, Note_on_c, 0, 46, 0
3, 68400, Note_on_c, 0, 33, 74
3, 68520, Note_on_c, 0, 33, 0
3, 68520, Note_on_c, 0, 45, 62
3, 68640, Note_on_c, 0, 45, 0
3, 68640, Note_on_c, 0, 39, 73
3, 68760, Note_on_c, 0, 39, 0
3, 68760, Note_on_c, 0, 51, 60
3, 68880, Note_on_c, 0, 51, 0
3, 68880, Note_on_c, 0, 37, 71
3, 69000, Note_on_c, 0, 37, 0
3, 69000, Note_on_c, 0, 49, 61
3, 69120, Note_on_c, 0, 49, 0
3, 69120, Note_on_c, 0, 34, 70
3, 69240, Note_on_c, 0, 34, 0
3, 69240, Note_on_c, 0, 46, 63
3, 69360, Note_on_c, 0, 46, 0
3, 69360, Note_on_c, 0, 41, 75
3, 69360, Note_on_c, 0, 53, 75
3, 69840, Note_on_c, 0, 53, 0
3, 69840, Note_on_c, 0, 41, 0
3, 69840, Note_on_c, 0, 61, 71
3, 69960, Note_on_c, 0, 61, 0
3, 69960, Note_on_c, 0, 73, 61
3, 70080, Note_on_c, 0, 73, 0
3, 70080, Note_on_c, 0, 58, 70
3, 70200, Note_on_c, 0, 58, 0
3, 70200, Note_on_c, 0, 70, 63
3, 70320, Note_on_c, 0, 70, 0
3, 70560, Note_on_c, 0, 77, 80
3, 70800, Note_on_c, 0, 77, 0
3, 71040, Note_on_c, 0, 65, 80
3, 71280, Note_on_c, 0, 65, 0
3, 71520, Note_on_c, 0, 53, 80
3, 71760, Note_on_c, 0, 53, 0
3, 72000, Note_on_c, 0, 41, 80
3, 72240, Note_on_c, 0, 41, 0
3, 72480, Note_on_c, 0, 29, 89
3, 73440, Note_on_c, 0, 29, 0
3, 73440, Note_on_c, 0, 29, 65
3, 73520, Note_on_c, 0, 29, 0
3, 73520, Note_on_c, 0, 31, 65
3, 73600, Note_on_c, 0, 31, 0
3, 73600, Note_on_c, 0, 33, 66
3, 73680, Note_on_c, 0, 33, 0
3, 73680, Note_on_c, 0, 34, 66
3, 73800, Note_on_c, 0, 34, 0
3, 73800, Note_on_c, 0, 36, 67
3, 73920, Note_on_c, 0, 36, 0
3, 73920, Note_on_c, 0, 38, 68
3, 74040, Note_on_c, 0, 38, 0
3, 74040, Note_on_c, 0, 40, 69
3, 74160, Note_on_c, 0, 40, 0
3, 74160, Note_on_c, 0, 41, 69
3, 74240, Note_on_c, 0, 41, 0
3, 74240, Note_on_c, 0, 43, 70
3, 74320, Note_on_c, 0, 43, 0
3, 74320, Note_on_c, 0, 45, 70
3, 74400, Note_on_c, 0, 45, 0
3, 74400, Note_on_c, 0, 46, 71
3, 74520, Note_on_c, 0, 46, 0
3, 74520, Note_on_c, 0, 48, 72
3, 74640, Note_on_c, 0, 48, 0
3, 74640, Note_on_c, 0, 50, 73
3, 74760, Note_on_c, 0, 50, 0
3, 74760, Note_on_c, 0, 52, 73
3, 74880, Note_on_c, 0, 52, 0
3, 74880, Note_on_c, 0, 53, 74
3, 74960, Note_on_c, 0, 53, 0
3, 74960, Note_on_c, 0, 55, 75
3, 75040, Note_on_c, 0, 55, 0
3, 75040, Note_on_c, 0, 57, 75
3, 75120, Note_on_c, 0, 57, 0
3, 75120, Note_on_c, 0, 58, 76
3, 75240, Note_on_c, 0, 58, 0
3, 75240, Note_on_c, 0, 60, 77
3, 75360, Note_on_c, 0, 60, 0
3, 75360, Note_on_c, 0, 62, 77
3, 75480, Note_on_c, 0, 62, 0
3, 75480, Note_on_c, 0, 64, 78
3, 75600, Note_on_c, 0, 64, 0
3, 77040, Note_on_c, 0, 65, 60
3, 77120, Note_on_c, 0, 65, 0
3, 77120, Note_on_c, 0, 67, 61
3, 77200, Note_on_c, 0, 67, 0
3, 77200, Note_on_c, 0, 69, 62
3, 77280, Note_on_c, 0, 69, 0
3, 77280, Note_on_c, 0, 70, 63
3, 77400, Note_on_c, 0, 70, 0
3, 77400, Note_on_c, 0, 72, 64
3, 77520, Note_on_c, 0, 72, 0
3, 77520, Note_on_c, 0, 74, 65
3, 77640, Note_on_c, 0, 74, 0
3, 77640, Note_on_c, 0, 76, 67
3, 77760, Note_on_c, 0, 76, 0
3, 77760, Note_on_c, 0, 77, 68
3, 77880, Note_on_c, 0, 77, 0
3, 78000, Note_on_c, 0, 53, 66
3, 78060, Note_on_c, 0, 53, 0
3, 78060, Note_on_c, 0, 63, 58
3, 78120, Note_on_c, 0, 63, 0
3, 78120, Note_on_c, 0, 53, 66
3, 78180, Note_on_c, 0, 53, 0
3, 78180, Note_on_c, 0, 63, 58
3, 78240, Note_on_c, 0, 63, 0
3, 78240, Note_on_c, 0, 53, 66
3, 78300, Note_on_c, 0, 53, 0
3, 78300, Note_on_c, 0, 63, 58
3, 78360, Note_on_c, 0, 63, 0
3, 78360, Note_on_c, 0, 53, 66
3, 78420, Note_on_c, 0, 53, 0
3, 78420, Note_on_c, 0, 63, 58
3, 78480, Note_on_c, 0, 63, 0
3, 78480, Note_on_c, 0, 53, 66
3, 78540, Note_on_c, 0, 53, 0
3, 78540, Note_on_c, 0, 63, 57
3, 78600, Note_on_c, 0, 63, 0
3, 78600, Note_on_c, 0, 53, 65
3, 78660, Note_on_c, 0, 53, 0
3, 78660, Note_on_c, 0, 63, 58
3, 78720, Note_on_c, 0, 63, 0
3, 79440, Note_on_c, 0, 62, 40
3, 79440, Note_on_c, 0, 58, 34
3, 79620, Note_on_c, 0, 58, 0
3, 79620, Note_on_c, 0, 62, 0
3, 79620, Note_on_c, 0, 53, 34
3, 79620, Note_on_c, 0, 60, 40
3, 79674, Note_on_c, 0, 60, 0
3, 79674, Note_on_c, 0, 53, 0
3, 79680, Note_on_c, 0, 60, 50
3, 79680, Note_on_c, 0, 57, 42
3, 79920, Note_on_c, 0, 57, 0
3, 79920, Note_on_c, 0, 60, 0
3, 79920, Note_on_c, 0, 62, 44
3, 79920, Note_on_c, 0, 58, 37
3, 80040, Note_on_c, 0, 58, 0
3, 80040, Note_on_c, 0, 62, 0
3, 80160, Note_on_c, 0, 58, 40
3, 80160, Note_on_c, 0, 55, 34
3, 80340, Note_on_c, 0, 55, 0
3, 80340, Note_on_c, 0, 58, 0
3, 80340, Note_on_c, 0, 50, 34
3, 80340, Note_on_c, 0, 57, 40
3, 80394, Note_on_c, 0, 57, 0
3, 80394, Note_on_c, 0, 50, 0
3, 80400, Note_on_c, 0, 57, 50
3, 80400, Note_on_c, 0, 54, 42
3, 80640, Note_on_c, 0, 54, 0
3, 80640, Note_on_c, 0, 57, 0
3, 80640, Note_on_c, 0, 58, 44
3, 80640, Note_on_c, 0, 55, 37
3, 80760, Note_on_c, 0, 55, 0
3, 80760, Note_on_c, 0, 58, 0
3, 80880, Note_on_c, 0, 55, 42
3, 80880, Note_on_c, 0, 51, 35
3, 81060, Note_on_c, 0, 51, 0
3, 81060, Note_on_c, 0, 55, 0
3, 81060, Note_on_c, 0, 46, 36
3, 81060, Note_on_c, 0, 53, 42
3, 81114, Note_on_c, 0, 53, 0
3, 81114, Note_on_c, 0, 46, 0
3, 81120, Note_on_c, 0, 53, 54
3, 81120, Note_on_c, 0, 50, 45
3, 81360, Note_on_c, 0, 50, 0
3, 81360, Note_on_c, 0, 53, 0
3, 81360, Note_on_c, 0, 55, 48
3, 81360, Note_on_c, 0, 51, 41
3, 81480, Note_on_c, 0, 51, 0
3, 81480, Note_on_c, 0, 55, 0
3, 81600, Note_on_c, 0, 55, 45
3, 81600, Note_on_c, 0, 51, 38
3, 81780, Note_on_c, 0, 51, 0
3, 81780, Note_on_c, 0, 55, 0
3, 81780, Note_on_c, 0, 48, 39
3, 81780, Note_on_c, 0, 53, 46
3, 81834, Note_on_c, 0, 53, 0
3, 81834, Note_on_c, 0, 48, 0
3, 81840, Note_on_c, 0, 53, 58
3, 81840, Note_on_c, 0, 48, 49
3, 82080, Note_on_c, 0, 48, 0
3, 82080, Note_on_c, 0, 50, 44
3, 82200, Note_on_c, 0, 50, 0
3, 82200, Note_on_c, 0, 53, 0
3, 82320, Note_on_c, 0, 53, 41
3, 82320, Note_on_c, 0, 50, 49
3, 82500, Note_on_c, 0, 50, 0
3, 82500, Note_on_c, 0, 45, 42
3, 82554, Note_on_c, 0, 45, 0
3, 82560, Note_on_c, 0, 53, 0
3, 82560, Note_on_c, 0, 53, 64
3, 82560, Note_on_c, 0, 45, 53
3, 82800, Note_on_c, 0, 45, 0
3, 82800, Note_on_c, 0, 44, 48
3, 82920, Note_on_c, 0, 44, 0
3, 82920, Note_on_c, 0, 53, 0
3, 83040, Note_on_c, 0, 44, 45
3, 83040, Note_on_c, 0, 53, 53
3, 83220, Note_on_c, 0, 53, 0
3, 83220, Note_on_c, 0, 44, 0
3, 83220, Note_on_c, 0, 43, 46
3, 83220, Note_on_c, 0, 51, 46
3, 83274, Note_on_c, 0, 51, 0
3, 83274, Note_on_c, 0, 43, 0
3, 83280, Note_on_c, 0, 51, 71
3, 83280, Note_on_c, 0, 43, 59
3, 83520, Note_on_c, 0, 43, 0
3, 83520, Note_on_c, 0, 51, 0
3, 83520, Note_on_c, 0, 49, 56
3, 83520, Note_on_c, 0, 41, 49
3, 83580, Note_on_c, 0, 41, 0
3, 83580, Note_on_c, 0, 49, 0
3, 83760, Note_on_c, 0, 40, 58
3, 83760, Note_on_c, 0, 48, 62
3, 83820, Note_on_c, 0, 48, 0
3, 83820, Note_on_c, 0, 40, 0
3, 84000, Note_on_c, 0, 41, 58
3, 84000, Note_on_c, 0, 53, 62
3, 84120, Note_on_c, 0, 53, 0
3, 84120, Note_on_c, 0, 41, 0
3, 84480, Note_on_c, 0, 74, 40
3, 84480, Note_on_c, 0, 70, 34
3, 84660, Note_on_c, 0, 70, 0
3, 84660, Note_on_c, 0, 74, 0
3, 84660, Note_on_c, 0, 65, 34
3, 84660, Note_on_c, 0, 72, 40
3, 84714, Note_on_c, 0, 72, 0
3, 84714, Note_on_c, 0, 65, 0
3, 84720, Note_on_c, 0, 72, 50
3, 84720, Note_on_c, 0, 69, 42
3, 84960, Note_on_c, 0, 69, 0
3, 84960, Note_on_c, 0, 72, 0
3, 84960, Note_on_c, 0, 74, 44
3, 84960, Note_on_c, 0, 70, 37
3, 85080, Note_on_c, 0, 70, 0
3, 85080, Note_on_c, 0, 74, 0
3, 85200, Note_on_c, 0, 70, 40
3, 85200, Note_on_c, 0, 67, 34
3, 85380, Note_on_c, 0, 67, 0
3, 85380, Note_on_c, 0, 70, 0
3, 85380, Note_on_c, 0, 62, 34
3, 85380, Note_on_c, 0, 69, 40
3, 85434, Note_on_c, 0, 69, 0
3, 85434, Note_on_c, 0, 62, 0
3, 85440, Note_on_c, 0, 69, 50
3, 85440, Note_on_c, 0, 66, 42
3, 85680, Note_on_c, 0, 66, 0
3, 85680, Note_on_c, 0, 69, 0
3, 85680, Note_on_c, 0, 70, 44
3, 85680, Note_on_c, 0, 67, 37
3, 85800, Note_on_c, 0, 67, 0
3, 85800, Note_on_c, 0, 70, 0
3, 85920, Note_on_c, 0, 67, 42
3, 85920, Note_on_c, 0, 63, 35
3, 86100, Note_on_c, 0, 63, 0
3, 86100, Note_on_c, 0, 67, 0
3, 86100, Note_on_c, 0, 58, 36
3, 86100, Note_on_c, 0, 65, 42
3, 86154, Note_on_c, 0, 65, 0
3, 86154, Note_on_c, 0, 58, 0
3, 86160, Note_on_c, 0, 65, 54
3, 86160, Note_on_c, 0, 62, 45
3, 86400, Note_on_c, 0, 62, 0
3, 86400, Note_on_c, 0, 65, 0
3, 86400, Note_on_c, 0, 67, 48
3, 86400, Note_on_c, 0, 63, 41
3, 86520, Note_on_c, 0, 63, 0
3, 86520, Note_on_c, 0, 67, 0
3, 86640, Note_on_c, 0, 67, 45
3, 86640, Note_on_c, 0, 63, 38
3, 86820, Note_on_c, 0, 63, 0
3, 86820, Note_on_c, 0, 67, 0
3, 86820, Note_on_c, 0, 60, 39
3, 86820, Note_on_c, 0, 65, 46
3, 86874, Note_on_c, 0, 65, 0
3, 86874, Note_on_c, 0, 60, 0
3, 86880, Note_on_c, 0, 65, 58
3, 86880, Note_on_c, 0, 60, 49
3, 87120, Note_on_c, 0, 60, 0
3, 87120, Note_on_c, 0, 62, 44
3, 87240, Note_on_c, 0, 62, 0
3, 87240, Note_on_c, 0, 65, 0
3, 87360, Note_on_c, 0, 74, 49
3, 87540, Note_on_c, 0, 74, 0
3, 87540, Note_on_c, 0, 72, 42
3, 87540, Note_on_c, 0, 69, 42
3, 87594, Note_on_c, 0, 69, 0
3, 87594, Note_on_c, 0, 72, 0
3, 87600, Note_on_c, 0, 72, 64
3, 87600, Note_on_c, 0, 69, 53
3, 87840, Note_on_c, 0, 69, 0
3, 87840, Note_on_c, 0, 72, 0
3, 87840, Note_on_c, 0, 70, 52
3, 87840, Note_on_c, 0, 68, 48
3, 87960, Note_on_c, 0, 68, 0
3, 87960, Note_on_c, 0, 70, 0
3, 88080, Note_on_c, 0, 67, 45
3, 88080, Note_on_c, 0, 70, 53
3, 88260, Note_on_c, 0, 67, 0
3, 88260, Note_on_c, 0, 66, 46
3, 88314, Note_on_c, 0, 66, 0
3, 88320, Note_on_c, 0, 70, 0
3, 88320, Note_on_c, 0, 70, 71
3, 88320, Note_on_c, 0, 66, 59
3, 88560, Note_on_c, 0, 66, 0
3, 88560, Note_on_c, 0, 70, 0
3, 88560, Note_on_c, 0, 72, 56
3, 88560, Note_on_c, 0, 65, 49
3, 88620, Note_on_c, 0, 65, 0
3, 88620, Note_on_c, 0, 72, 0
3, 88800, Note_on_c, 0, 48, 58
3, 88800, Note_on_c, 0, 60, 62
3, 88860, Note_on_c, 0, 60, 0
3, 88860, Note_on_c, 0, 48, 0
3, 89040, Note_on_c, 0, 53, 58
3, 89040, Note_on_c, 0, 65, 62
3, 89160, Note_on_c, 0, 65, 0
3, 89160, Note_on_c, 0, 53, 0
3, 89520, Note_on_c, 0, 65, 40
3, 89520, Note_on_c, 0, 53, 34
3, 89880, Note_on_c, 0, 53, 0
3, 89880, Note_on_c, 0, 65, 0
3, 89880, Note_on_c, 0, 53, 34
3, 90000, Note_on_c, 0, 53, 0
3, 90000, Note_on_c, 0, 65, 39
3, 90120, Note_on_c, 0, 65, 0
3, 90240, Note_on_c, 0, 53, 40
3, 90240, Note_on_c, 0, 41, 34
3, 90600, Note_on_c, 0, 41, 0
3, 90600, Note_on_c, 0, 53, 0
3, 90600, Note_on_c, 0, 41, 34
3, 90720, Note_on_c, 0, 41, 0
3, 90720, Note_on_c, 0, 53, 39
3, 90840, Note_on_c, 0, 53, 0
3, 90960, Note_on_c, 0, 53, 40
3, 90960, Note_on_c, 0, 41, 34
3, 91320, Note_on_c, 0, 41, 0
3, 91320, Note_on_c, 0, 53, 0
3, 91320, Note_on_c, 0, 41, 34
3, 91440, Note_on_c, 0, 41, 0
3, 91440, Note_on_c, 0, 53, 39
3, 91560, Note_on_c, 0, 53, 0
3, 91680, Note_on_c, 0, 41, 36
3, 91680, Note_on_c, 0, 29, 30
3, 92040, Note_on_c, 0, 29, 0
3, 92040, Note_on_c, 0, 41, 0
3, 92040, Note_on_c, 0, 29, 34
3, 92160, Note_on_c, 0, 29, 0
3, 92160, Note_on_c, 0, 41, 39
3, 92280, Note_on_c, 0, 41, 0
3, 92400, Note_on_c, 0, 42, 36
3, 92400, Note_on_c, 0, 30, 30
3, 92880, Note_on_c, 0, 30, 0
3, 92880, Note_on_c, 0, 42, 0
3, 92880, Note_on_c, 0, 31, 28
3, 92880, Note_on_c, 0, 43, 34
3, 93600, Note_on_c, 0, 43, 0
3, 93600, Note_on_c, 0, 31, 0
3, 93600, Note_on_c, 0, 33, 28
3, 93600, Note_on_c, 0, 45, 33
3, 93840, Note_on_c, 0, 45, 0
3, 93840, Note_on_c, 0, 33, 0
3, 93840, Note_on_c, 0, 34, 28
3, 93840, Note_on_c, 0, 46, 33
3, 94080, Note_on_c, 0, 46, 0
3, 94080, Note_on_c, 0, 34, 0
3, 94080, Note_on_c, 0, 35, 28
3, 94080, Note_on_c, 0, 47, 33
3, 94320, Note_on_c, 0, 47, 0
3, 94320, Note_on_c, 0, 35, 0
3, 94320, Note_on_c, 0, 36, 28
3, 94320, Note_on_c, 0, 48, 33
3, 94560, Note_on_c, 0, 48, 0
3, 94560, Note_on_c, 0, 36, 0
3, 94560, Note_on_c, 0, 36, 32
3, 94800, Note_on_c, 0, 36, 0
3, 94800, Note_on_c, 0, 43, 32
3, 95280, Note_on_c, 0, 43, 0
3, 96720, Note_on_c, 0, 43, 32
3, 96720, Note_on_c, 0, 55, 27
3, 96900, Note_on_c, 0, 43, 0
3, 96900, Note_on_c, 0, 47, 32
3, 96954, Note_on_c, 0, 47, 0
3, 96960, Note_on_c, 0, 47, 40
3, 97200, Note_on_c, 0, 47, 0
3, 97200, Note_on_c, 0, 43, 35
3, 97320, Note_on_c, 0, 43, 0
3, 97440, Note_on_c, 0, 55, 0
3, 97440, Note_on_c, 0, 72, 36
3, 97620, Note_on_c, 0, 72, 0
3, 97620, Note_on_c, 0, 75, 36
3, 97674, Note_on_c, 0, 75, 0
3, 97680, Note_on_c, 0, 75, 46
3, 97920, Note_on_c, 0, 75, 0
3, 97920, Note_on_c, 0, 72, 40
3, 98040, Note_on_c, 0, 72, 0
3, 98160, Note_on_c, 0, 55, 40
3, 98160, Note_on_c, 0, 43, 34
3, 98518, Note_on_c, 0, 43, 0
3, 98518, Note_on_c, 0, 55, 0
3, 98520, Note_on_c, 0, 43, 34
3, 98640, Note_on_c, 0, 43, 0
3, 98640, Note_on_c, 0, 55, 39
3, 98760, Note_on_c, 0, 55, 0
3, 98880, Note_on_c, 0, 48, 46
3, 98880, Note_on_c, 0, 36, 39
3, 99240, Note_on_c, 0, 36, 0
3, 99240, Note_on_c, 0, 48, 0
3, 99240, Note_on_c, 0, 36, 54
3, 99360, Note_on_c, 0, 36, 0
3, 99360, Note_on_c, 0, 48, 64
3, 99480, Note_on_c, 0, 48, 0
3, 99600, Note_on_c, 0, 29, 55
3, 99600, Note_on_c, 0, 41, 69
3, 99958, Note_on_c, 0, 41, 0
3, 99958, Note_on_c, 0, 29, 0
3, 99960, Note_on_c, 0, 41, 75
3, 100080, Note_on_c, 0, 41, 0
3, 100080, Note_on_c, 0, 53, 86
3, 100140, Note_on_c, 0, 53, 0
3, 100320, Note_on_c, 0, 34, 66
3, 100320, Note_on_c, 0, 46, 71
3, 100380, Note_on_c, 0, 46, 0
3, 100380, Note_on_c, 0, 34, 0
3, 100560, Note_on_c, 0, 34, 66
3, 100560, Note_on_c, 0, 46, 71
3, 100680, Note_on_c, 0, 46, 0
3, 100680, Note_on_c, 0, 34, 0
3, 101040, Note_on_c, 0, 77, 40
3, 101040, Note_on_c, 0, 65, 34
3, 101398, Note_on_c, 0, 65, 0
3, 101398, Note_on_c, 0, 77, 0
3, 101400, Note_on_c, 0, 65, 34
3, 101520, Note_on_c, 0, 65, 0
3, 101520, Note_on_c, 0, 77, 39
3, 101640, Note_on_c, 0, 77, 0
3, 101760, Note_on_c, 0, 53, 34
3, 101760, Note_on_c, 0, 65, 40
3, 102118, Note_on_c, 0, 65, 0
3, 102118, Note_on_c, 0, 53, 0
3, 102120, Note_on_c, 0, 53, 34
3, 102240, Note_on_c, 0, 53, 0
3, 102240, Note_on_c, 0, 65, 39
3, 102360, Note_on_c, 0, 65, 0
3, 102480, Note_on_c, 0, 65, 40
3, 102480, Note_on_c, 0, 53, 34
3, 102838, Note_on_c, 0, 53, 0
3, 102838, Note_on_c, 0, 65, 0
3, 102840, Note_on_c, 0, 53, 34
3, 102960, Note_on_c, 0, 53, 0
3, 102960, Note_on_c, 0, 65, 39
3, 103080, Note_on_c, 0, 65, 0
3, 103200, Note_on_c, 0, 41, 30
3, 103200, Note_on_c, 0, 53, 36
3, 103558, Note_on_c, 0, 53, 0
3, 103558, Note_on_c, 0, 41, 0
3, 103560, Note_on_c, 0, 41, 34
3, 103680, Note_on_c, 0, 41, 0
3, 103680, Note_on_c, 0, 53, 39
3, 103800, Note_on_c, 0, 53, 0
3, 103920, Note_on_c, 0, 60, 30
3, 103920, Note_on_c, 0, 63, 36
3, 103920, Note_on_c, 0, 54, 30
3, 104395, Note_on_c, 0, 54, 0
3, 104395, Note_on_c, 0, 63, 0
3, 104395, Note_on_c, 0, 60, 0
3, 104400, Note_on_c, 0, 54, 28
3, 104400, Note_on_c, 0, 60, 28
3, 104400, Note_on_c, 0, 63, 34
3, 104640, Note_on_c, 0, 63, 0
3, 104640, Note_on_c, 0, 60, 0
3, 104640, Note_on_c, 0, 54, 0
3, 104640, Note_on_c, 0, 62, 34
3, 104640, Note_on_c, 0, 55, 28
3, 104640, Note_on_c, 0, 58, 28
3, 104880, Note_on_c, 0, 58, 0
3, 104880, Note_on_c, 0, 55, 0
3, 104880, Note_on_c, 0, 62, 0
3, 104880, Note_on_c, 0, 57, 28
3, 104880, Note_on_c, 0, 60, 34
3, 105000, Note_on_c, 0, 60, 0
3, 105000, Note_on_c, 0, 57, 0
3, 105000, Note_on_c, 0, 45, 28
3, 105120, Note_on_c, 0, 45, 0
3, 105120, Note_on_c, 0, 58, 33
3, 105120, Note_on_c, 0, 55, 28
3, 105120, Note_on_c, 0, 46, 28
3, 105360, Note_on_c, 0, 46, 0
3, 105360, Note_on_c, 0, 55, 0
3, 105360, Note_on_c, 0, 58, 0
3, 105360, Note_on_c, 0, 53, 28
3, 105360, Note_on_c, 0, 47, 28
3, 105360, Note_on_c, 0, 57, 33
3, 105600, Note_on_c, 0, 47, 0
3, 105600, Note_on_c, 0, 48, 28
3, 105840, Note_on_c, 0, 57, 0
3, 105840, Note_on_c, 0, 53, 0
3, 105840, Note_on_c, 0, 55, 33
3, 105840, Note_on_c, 0, 52, 27
3, 106080, Note_on_c, 0, 52, 0
3, 106080, Note_on_c, 0, 55, 0
3, 106080, Note_on_c, 0, 48, 0
3, 106080, Note_on_c, 0, 51, 27
3, 106080, Note_on_c, 0, 55, 33
3, 106080, Note_on_c, 0, 60, 32
3, 106320, Note_on_c, 0, 55, 0
3, 106320, Note_on_c, 0, 51, 0
3, 106320, Note_on_c, 0, 55, 32
3, 106560, Note_on_c, 0, 60, 0
3, 106560, Note_on_c, 0, 59, 30
3, 106800, Note_on_c, 0, 59, 0
3, 106800, Note_on_c, 0, 55, 0
3, 108240, Note_on_c, 0, 31, 32
3, 108240, Note_on_c, 0, 43, 27
3, 108420, Note_on_c, 0, 31, 0
3, 108420, Note_on_c, 0, 35, 32
3, 108474, Note_on_c, 0, 35, 0
3, 108480, Note_on_c, 0, 35, 40
3, 108720, Note_on_c, 0, 35, 0
3, 108720, Note_on_c, 0, 31, 35
3, 108840, Note_on_c, 0, 31, 0
3, 108960, Note_on_c, 0, 43, 0
3, 108960, Note_on_c, 0, 72, 36
3, 109140, Note_on_c, 0, 72, 0
3, 109140, Note_on_c, 0, 75, 36
3, 109194, Note_on_c, 0, 75, 0
3, 109200, Note_on_c, 0, 75, 46
3, 109440, Note_on_c, 0, 75, 0
3, 109440, Note_on_c, 0, 72, 40
3, 109560, Note_on_c, 0, 72, 0
3, 109680, Note_on_c, 0, 67, 40
3, 109680, Note_on_c, 0, 55, 34
3, 110040, Note_on_c, 0, 55, 0
3, 110040, Note_on_c, 0, 67, 0
3, 110040, Note_on_c, 0, 55, 34
3, 110160, Note_on_c, 0, 55, 0
3, 110160, Note_on_c, 0, 67, 40
3, 110280, Note_on_c, 0, 67, 0
3, 110400, Note_on_c, 0, 60, 48
3, 110400, Note_on_c, 0, 48, 40
3, 110760, Note_on_c, 0, 48, 0
3, 110760, Note_on_c, 0, 60, 0
3, 110760, Note_on_c, 0, 48, 55
3, 110880, Note_on_c, 0, 48, 0
3, 110880, Note_on_c, 0, 60, 64
3, 111000, Note_on_c, 0, 60, 0
3, 111120, Note_on_c, 0, 41, 59
3, 111120, Note_on_c, 0, 53, 74
3, 111480, Note_on_c, 0, 53, 0
3, 111480, Note_on_c, 0, 41, 0
3, 111480, Note_on_c, 0, 41, 70
3, 111600, Note_on_c, 0, 41, 0
3, 111600, Note_on_c, 0, 53, 78
3, 111660, Note_on_c, 0, 53, 0
3, 111840, Note_on_c, 0, 34, 72
3, 111840, Note_on_c, 0, 46, 78
3, 111900, Note_on_c, 0, 46, 0
3, 111900, Note_on_c, 0, 34, 0
3, 112080, Note_on_c, 0, 34, 72
3, 112080, Note_on_c, 0, 46, 78
3, 112200, Note_on_c, 0, 46, 0
3, 112200, Note_on_c, 0, 34, 0
3, 112560, Note_on_c, 0, 35, 21
3, 112560, Note_on_c, 0, 47, 23
3, 112620, Note_on_c, 0, 47, 0
3, 112620, Note_on_c, 0, 35, 0
3, 112800, Note_on_c, 0, 35, 21
3, 112800, Note_on_c, 0, 47, 23
3, 112920, Note_on_c, 0, 47, 0
3, 112920, Note_on_c, 0, 35, 0
3, 113280, Note_on_c, 0, 34, 72
3, 113280, Note_on_c, 0, 46, 78
3, 113340, Note_on_c, 0, 46, 0
3, 113340, Note_on_c, 0, 34, 0
3, 113520, Note_on_c, 0, 34, 72
3, 113520, Note_on_c, 0, 46, 78
3, 113640, Note_on_c, 0, 46, 0
3, 113640, Note_on_c, 0, 34, 0
3, 114000, Note_on_c, 0, 35, 18
3, 114000, Note_on_c, 0, 47, 20
3, 114060, Note_on_c, 0, 47, 0
3, 114060, Note_on_c, 0, 35, 0
3, 114240, Note_on_c, 0, 35, 18
3, 114240, Note_on_c, 0, 47, 19
3, 114360, Note_on_c, 0, 47, 0
3, 114360, Note_on_c, 0, 35, 0
3, 114720, Note_on_c, 0, 34, 17
3, 114720, Note_on_c, 0, 46, 18
3, 114780, Note_on_c, 0, 46, 0
3, 114780, Note_on_c, 0, 34, 0
3, 114960, Note_on_c, 0, 34, 17
3, 114960, Note_on_c, 0, 46, 18
3, 115080, Note_on_c, 0, 46, 0
3, 115080, Note_on_c, 0, 34, 0
3, 116160, Note_on_c, 0, 35, 16
3, 116160, Note_on_c, 0, 47, 18
3, 116220, Note_on_c, 0, 47, 0
3, 116220, Note_on_c, 0, 35, 0
3, 116400, Note_on_c, 0, 35, 16
3, 116400, Note_on_c, 0, 47, 17
3, 116520, Note_on_c, 0, 47, 0
3, 116520, Note_on_c, 0, 35, 0
3, 116880, Note_on_c, 0, 35, 16
3, 116880, Note_on_c, 0, 47, 18
3, 116940, Note_on_c, 0, 47, 0
3, 116940, Note_on_c, 0, 35, 0
3, 117120, Note_on_c, 0, 35, 16
3, 117120, Note_on_c, 0, 47, 17
3, 117240, Note_on_c, 0, 47, 0
3, 117240, Note_on_c, 0, 35, 0
3, 117600, Note_on_c, 0, 35, 25
3, 117600, Note_on_c, 0, 47, 30
3, 117719, Note_on_c, 0, 47, 0
3, 117719, Note_on_c, 0, 35, 0
3, 117840, Note_on_c, 0, 35, 34
3, 117840, Note_on_c, 0, 47, 41
3, 118078, Note_on_c, 0, 47, 0
3, 118078, Note_on_c, 0, 35, 0
3, 118080, Note_on_c, 0, 35, 38
3, 118080, Note_on_c, 0, 47, 45
3, 118318, Note_on_c, 0, 47, 0
3, 118318, Note_on_c, 0, 35, 0
3, 118320, Note_on_c, 0, 35, 42
3, 118320, Note_on_c, 0, 47, 51
3, 118558, Note_on_c, 0, 47, 0
3, 118558, Note_on_c, 0, 35, 0
3, 118560, Note_on_c, 0, 35, 46
3, 118560, Note_on_c, 0, 47, 55
3, 118798, Note_on_c, 0, 47, 0
3, 118798, Note_on_c, 0, 35, 0
3, 118800, Note_on_c, 0, 35, 52
3, 118800, Note_on_c, 0, 47, 61
3, 119038, Note_on_c, 0, 47, 0
3, 119038, Note_on_c, 0, 35, 0
3, 119040, Note_on_c, 0, 35, 55
3, 119040, Note_on_c, 0, 47, 66
3, 119278, Note_on_c, 0, 47, 0
3, 119278, Note_on_c, 0, 35, 0
3, 119280, Note_on_c, 0, 35, 60
3, 119280, Note_on_c, 0, 47, 72
3, 119518, Note_on_c, 0, 47, 0
3, 119518, Note_on_c, 0, 35, 0
3, 119520, Note_on_c, 0, 35, 65
3, 119520, Note_on_c, 0, 47, 77
3, 119758, Note_on_c, 0, 47, 0
3, 119758, Note_on_c, 0, 35, 0
3, 119760, Note_on_c, 0, 35, 70
3, 119760, Note_on_c, 0, 47, 83
3, 119998, Note_on_c, 0, 47, 0
3, 119998, Note_on_c, 0, 35, 0
3, 120000, Note_on_c, 0, 35, 67
3, 120000, Note_on_c, 0, 47, 80
3, 120238, Note_on_c, 0, 47, 0
3, 120238, Note_on_c, 0, 35, 0
3, 120240, Note_on_c, 0, 35, 70
3, 120240, Note_on_c, 0, 47, 83
3, 120478, Note_on_c, 0, 47, 0
3, 120478, Note_on_c, 0, 35, 0
3, 120480, Note_on_c, 0, 35, 71
3, 120480, Note_on_c, 0, 47, 84
3, 120718, Note_on_c, 0, 47, 0
3, 120718, Note_on_c, 0, 35, 0
3, 120720, Note_on_c, 0, 35, 72
3, 120720, Note_on_c, 0, 47, 86
3, 120958, Note_on_c, 0, 47, 0
3, 120958, Note_on_c, 0, 35, 0
3, 120960, Note_on_c, 0, 35, 70
3, 120960, Note_on_c, 0, 47, 82
3, 121198, Note_on_c, 0, 47, 0
3, 121198, Note_on_c, 0, 35, 0
3, 121200, Note_on_c, 0, 35, 70
3, 121200, Note_on_c, 0, 47, 83
3, 121440, Note_on_c, 0, 47, 0
3, 121440, Note_on_c, 0, 35, 0
3, 121440, Note_on_c, 0, 34, 84
3, 121440, Note_on_c, 0, 46, 99
3, 121560, Note_on_c, 0, 46, 0
3, 121560, Note_on_c, 0, 34, 0
3, 121680, Note_on_c, 0, 34, 84
3, 121680, Note_on_c, 0, 46, 99
3, 121800, Note_on_c, 0, 46, 0
3, 121800, Note_on_c, 0, 34, 0
3, 122160, Note_on_c, 0, 58, 32
3, 122340, Note_on_c, 0, 58, 0
3, 122340, Note_on_c, 0, 53, 32
3, 122394, Note_on_c, 0, 53, 0
3, 122400, Note_on_c, 0, 57, 40
3, 122640, Note_on_c, 0, 57, 0
3, 122640, Note_on_c, 0, 58, 35
3, 122760, Note_on_c, 0, 58, 0
3, 122870, Note_on_c, 0, 70, 32
3, 123050, Note_on_c, 0, 70, 0
3, 123050, Note_on_c, 0, 65, 32
3, 123104, Note_on_c, 0, 65, 0
3, 123110, Note_on_c, 0, 69, 40
3, 123350, Note_on_c, 0, 69, 0
3, 123350, Note_on_c, 0, 70, 35
3, 123470, Note_on_c, 0, 70, 0
3, 123597, Note_on_c, 0, 82, 27
3, 123777, Note_on_c, 0, 82, 0
3, 123777, Note_on_c, 0, 77, 27
3, 123831, Note_on_c, 0, 77, 0
3, 123837, Note_on_c, 0, 81, 34
3, 124077, Note_on_c, 0, 81, 0
3, 124077, Note_on_c, 0, 82, 29
3, 124197, Note_on_c, 0, 82, 0
3, 124197, End_track
4, 0, Start_track
4, 0, Title_t, "Pedale"
4, 0, Program_c, 0, 0
4, 568, Control_c, 0, 64, 127
4, 663, Control_c, 0, 64, 0
4, 772, Control_c, 0, 64, 127
4, 969, Control_c, 0, 64, 0
4, 1260, Control_c, 0, 64, 127
4, 1385, Control_c, 0, 64, 0
4, 1480, Control_c, 0, 64, 127
4, 1685, Control_c, 0, 64, 0
4, 1977, Control_c, 0, 64, 127
4, 2105, Control_c, 0, 64, 0
4, 2227, Control_c, 0, 64, 127
4, 2409, Control_c, 0, 64, 0
4, 2707, Control_c, 0, 64, 127
4, 2827, Control_c, 0, 64, 0
4, 2965, Control_c, 0, 64, 127
4, 3129, Control_c, 0, 64, 0
4, 3427, Control_c, 0, 64, 127
4, 3546, Control_c, 0, 64, 0
4, 3653, Control_c, 0, 64, 127
4, 3848, Control_c, 0, 64, 0
4, 4119, Control_c, 0, 64, 127
4, 4265, Control_c, 0, 64, 0
4, 4352, Control_c, 0, 64, 127
4, 4570, Control_c, 0, 64, 0
4, 5608, Control_c, 0, 64, 127
4, 5703, Control_c, 0, 64, 0
4, 5812, Control_c, 0, 64, 127
4, 6009, Control_c, 0, 64, 0
4, 6300, Control_c, 0, 64, 127
4, 6425, Control_c, 0, 64, 0
4, 6520, Control_c, 0, 64, 127
4, 6725, Control_c, 0, 64, 0
4, 7017, Control_c, 0, 64, 127
4, 7145, Control_c, 0, 64, 0
4, 7267, Control_c, 0, 64, 127
4, 7449, Control_c, 0, 64, 0
4, 7747, Control_c, 0, 64, 127
4, 7867, Control_c, 0, 64, 0
4, 8005, Control_c, 0, 64, 127
4, 8169, Control_c, 0, 64, 0
4, 8467, Control_c, 0, 64, 127
4, 8586, Control_c, 0, 64, 0
4, 8693, Control_c, 0, 64, 127
4, 8888, Control_c, 0, 64, 0
4, 9159, Control_c, 0, 64, 127
4, 9305, Control_c, 0, 64, 0
4, 9392, Control_c, 0, 64, 127
4, 9610, Control_c, 0, 64, 0
4, 10648, Control_c, 0, 64, 127
4, 10743, Control_c, 0, 64, 0
4, 10852, Control_c, 0, 64, 127
4, 11049, Control_c, 0, 64, 0
4, 11368, Control_c, 0, 64, 127
4, 11463, Control_c, 0, 64, 0
4, 11572, Control_c, 0, 64, 127
4, 11769, Control_c, 0, 64, 0
4, 12088, Control_c, 0, 64, 127
4, 12183, Control_c, 0, 64, 0
4, 12292, Control_c, 0, 64, 127
4, 12489, Control_c, 0, 64, 0
4, 12808, Control_c, 0, 64, 127
4, 12903, Control_c, 0, 64, 0
4, 13012, Control_c, 0, 64, 127
4, 13209, Control_c, 0, 64, 0
4, 13528, Control_c, 0, 64, 127
4, 13623, Control_c, 0, 64, 0
4, 13732, Control_c, 0, 64, 127
4, 13929, Control_c, 0, 64, 0
4, 17128, Control_c, 0, 64, 127
4, 17223, Control_c, 0, 64, 0
4, 17332, Control_c, 0, 64, 127
4, 17529, Control_c, 0, 64, 0
4, 17848, Control_c, 0, 64, 127
4, 17943, Control_c, 0, 64, 0
4, 18052, Control_c, 0, 64, 127
4, 18249, Control_c, 0, 64, 0
4, 18568, Control_c, 0, 64, 127
4, 18663, Control_c, 0, 64, 0
4, 18772, Control_c, 0, 64, 127
4, 18969, Control_c, 0, 64, 0
4, 19288, Control_c, 0, 64, 127
4, 19383, Control_c, 0, 64, 0
4, 19492, Control_c, 0, 64, 127
4, 19689, Control_c, 0, 64, 0
4, 20008, Control_c, 0, 64, 127
4, 20103, Control_c, 0, 64, 0
4, 20212, Control_c, 0, 64, 127
4, 20409, Control_c, 0, 64, 0
4, 20679, Control_c, 0, 64, 127
4, 20825, Control_c, 0, 64, 0
4, 20912, Control_c, 0, 64, 127
4, 21130, Control_c, 0, 64, 0
4, 22168, Control_c, 0, 64, 127
4, 22263, Control_c, 0, 64, 0
4, 22372, Control_c, 0, 64, 127
4, 22569, Control_c, 0, 64, 0
4, 22888, Control_c, 0, 64, 127
4, 22983, Control_c, 0, 64, 0
4, 23092, Control_c, 0, 64, 127
4, 23289, Control_c, 0, 64, 0
4, 23608, Control_c, 0, 64, 127
4, 23703, Control_c, 0, 64, 0
4, 23812, Control_c, 0, 64, 127
4, 24009, Control_c, 0, 64, 0
4, 24328, Control_c, 0, 64, 127
4, 24423, Control_c, 0, 64, 0
4, 24532, Control_c, 0, 64, 127
4, 24729, Control_c, 0, 64, 0
4, 25048, Control_c, 0, 64, 127
4, 25143, Control_c, 0, 64, 0
4, 25252, Control_c, 0, 64, 127
4, 25449, Control_c, 0, 64, 0
4, 28648, Control_c, 0, 64, 127
4, 28743, Control_c, 0, 64, 0
4, 28852, Control_c, 0, 64, 127
4, 29049, Control_c, 0, 64, 0
4, 29368, Control_c, 0, 64, 127
4, 29463, Control_c, 0, 64, 0
4, 29572, Control_c, 0, 64, 127
4, 29769, Control_c, 0, 64, 0
4, 30088, Control_c, 0, 64, 127
4, 30183, Control_c, 0, 64, 0
4, 30292, Control_c, 0, 64, 127
4, 30489, Control_c, 0, 64, 0
4, 30808, Control_c, 0, 64, 127
4, 30903, Control_c, 0, 64, 0
4, 31012, Control_c, 0, 64, 127
4, 31209, Control_c, 0, 64, 0
4, 31528, Control_c, 0, 64, 127
4, 31623, Control_c, 0, 64, 0
4, 31732, Control_c, 0, 64, 127
4, 31929, Control_c, 0, 64, 0
4, 32199, Control_c, 0, 64, 127
4, 32345, Control_c, 0, 64, 0
4, 32432, Control_c, 0, 64, 127
4, 32650, Control_c, 0, 64, 0
4, 34363, Control_c, 0, 64, 127
4, 37938, Control_c, 0, 64, 0
4, 37984, Control_c, 0, 64, 127
4, 39440, Control_c, 0, 64, 0
4, 40098, Control_c, 0, 64, 127
4, 44661, Control_c, 0, 64, 0
4, 44707, Control_c, 0, 64, 127
4, 48960, Control_c, 0, 64, 0
4, 49056, Control_c, 0, 64, 127
4, 51680, Control_c, 0, 64, 0
4, 52338, Control_c, 0, 64, 127
4, 55210, Control_c, 0, 64, 0
4, 55313, Control_c, 0, 64, 127
4, 56901, Control_c, 0, 64, 0
4, 56947, Control_c, 0, 64, 127
4, 58320, Control_c, 0, 64, 0
4, 62188, Control_c, 0, 64, 127
4, 62404, Control_c, 0, 64, 0
4, 62513, Control_c, 0, 64, 127
4, 62647, Control_c, 0, 64, 0
4, 62694, Control_c, 0, 64, 127
4, 62887, Control_c, 0, 64, 0
4, 62951, Control_c, 0, 64, 127
4, 63130, Control_c, 0, 64, 0
4, 63206, Control_c, 0, 64, 127
4, 63372, Control_c, 0, 64, 0
4, 63427, Control_c, 0, 64, 127
4, 63607, Control_c, 0, 64, 0
4, 63675, Control_c, 0, 64, 127
4, 63850, Control_c, 0, 64, 0
4, 63902, Control_c, 0, 64, 127
4, 64086, Control_c, 0, 64, 0
4, 64158, Control_c, 0, 64, 127
4, 64567, Control_c, 0, 64, 0
4, 64635, Control_c, 0, 64, 127
4, 64812, Control_c, 0, 64, 0
4, 64891, Control_c, 0, 64, 127
4, 65047, Control_c, 0, 64, 0
4, 65137, Control_c, 0, 64, 127
4, 65526, Control_c, 0, 64, 0
4, 65600, Control_c, 0, 64, 127
4, 65768, Control_c, 0, 64, 0
4, 65875, Control_c, 0, 64, 127
4, 66000, Control_c, 0, 64, 0
4, 66005, Control_c, 0, 64, 0
4, 66085, Control_c, 0, 64, 127
4, 66480, Control_c, 0, 64, 0
4, 66589, Control_c, 0, 64, 127
4, 66960, Control_c, 0, 64, 0
4, 67043, Control_c, 0, 64, 127
4, 67210, Control_c, 0, 64, 0
4, 67254, Control_c, 0, 64, 127
4, 67444, Control_c, 0, 64, 0
4, 67515, Control_c, 0, 64, 127
4, 67692, Control_c, 0, 64, 0
4, 67760, Control_c, 0, 64, 127
4, 67934, Control_c, 0, 64, 0
4, 68012, Control_c, 0, 64, 127
4, 68403, Control_c, 0, 64, 0
4, 68486, Control_c, 0, 64, 127
4, 68880, Control_c, 0, 64, 0
4, 68965, Control_c, 0, 64, 127
4, 69360, Control_c, 0, 64, 0
4, 69520, Control_c, 0, 64, 127
4, 69840, Control_c, 0, 64, 0
4, 69925, Control_c, 0, 64, 127
4, 70320, Control_c, 0, 64, 0
4, 70480, Control_c, 0, 64, 127
4, 70800, Control_c, 0, 64, 0
4, 70960, Control_c, 0, 64, 127
4, 71280, Control_c, 0, 64, 0
4, 71440, Control_c, 0, 64, 127
4, 71760, Control_c, 0, 64, 0
4, 71920, Control_c, 0, 64, 127
4, 72240, Control_c, 0, 64, 0
4, 72400, Control_c, 0, 64, 127
4, 73374, Control_c, 0, 64, 0
4, 73440, Control_c, 0, 64, 127
4, 74185, Control_c, 0, 64, 0
4, 74231, Control_c, 0, 64, 127
4, 75120, Control_c, 0, 64, 0
4, 75184, Control_c, 0, 64, 127
4, 77040, Control_c, 0, 64, 0
4, 77114, Control_c, 0, 64, 127
4, 77781, Control_c, 0, 64, 0
4, 77824, Control_c, 0, 64, 127
4, 77909, Control_c, 0, 64, 0
4, 78035, Control_c, 0, 64, 127
4, 78823, Control_c, 0, 64, 0
4, 79528, Control_c, 0, 64, 127
4, 79623, Control_c, 0, 64, 0
4, 79732, Control_c, 0, 64, 127
4, 79929, Control_c, 0, 64, 0
4, 80220, Control_c, 0, 64, 127
4, 80345, Control_c, 0, 64, 0
4, 80440, Control_c, 0, 64, 127
4, 80645, Control_c, 0, 64, 0
4, 80937, Control_c, 0, 64, 127
4, 81065, Control_c, 0, 64, 0
4, 81187, Control_c, 0, 64, 127
4, 81369, Control_c, 0, 64, 0
4, 81667, Control_c, 0, 64, 127
4, 81787, Control_c, 0, 64, 0
4, 81925, Control_c, 0, 64, 127
4, 82089, Control_c, 0, 64, 0
4, 82387, Control_c, 0, 64, 127
4, 82506, Control_c, 0, 64, 0
4, 82613, Control_c, 0, 64, 127
4, 82808, Control_c, 0, 64, 0
4, 83079, Control_c, 0, 64, 127
4, 83225, Control_c, 0, 64, 0
4, 83312, Control_c, 0, 64, 127
4, 83530, Control_c, 0, 64, 0
4, 84568, Control_c, 0, 64, 127
4, 84663, Control_c, 0, 64, 0
4, 84772, Control_c, 0, 64, 127
4, 84969, Control_c, 0, 64, 0
4, 85260, Control_c, 0, 64, 127
4, 85385, Control_c, 0, 64, 0
4, 85480, Control_c, 0, 64, 127
4, 85685, Control_c, 0, 64, 0
4, 85977, Control_c, 0, 64, 127
4, 86105, Control_c, 0, 64, 0
4, 86227, Control_c, 0, 64, 127
4, 86409, Control_c, 0, 64, 0
4, 86707, Control_c, 0, 64, 127
4, 86827, Control_c, 0, 64, 0
4, 86965, Control_c, 0, 64, 127
4, 87129, Control_c, 0, 64, 0
4, 87427, Control_c, 0, 64, 127
4, 87546, Control_c, 0, 64, 0
4, 87653, Control_c, 0, 64, 127
4, 87848, Control_c, 0, 64, 0
4, 88119, Control_c, 0, 64, 127
4, 88265, Control_c, 0, 64, 0
4, 88352, Control_c, 0, 64, 127
4, 88570, Control_c, 0, 64, 0
4, 89608, Control_c, 0, 64, 127
4, 89703, Control_c, 0, 64, 0
4, 89812, Control_c, 0, 64, 127
4, 90009, Control_c, 0, 64, 0
4, 90328, Control_c, 0, 64, 127
4, 90423, Control_c, 0, 64, 0
4, 90532, Control_c, 0, 64, 127
4, 90729, Control_c, 0, 64, 0
4, 91048, Control_c, 0, 64, 127
4, 91143, Control_c, 0, 64, 0
4, 91252, Control_c, 0, 64, 127
4, 91449, Control_c, 0, 64, 0
4, 91768, Control_c, 0, 64, 127
4, 91863, Control_c, 0, 64, 0
4, 91972, Control_c, 0, 64, 127
4, 92169, Control_c, 0, 64, 0
4, 92488, Control_c, 0, 64, 127
4, 92583, Control_c, 0, 64, 0
4, 92692, Control_c, 0, 64, 127
4, 92889, Control_c, 0, 64, 0
4, 96088, Control_c, 0, 64, 127
4, 96183, Control_c, 0, 64, 0
4, 96292, Control_c, 0, 64, 127
4, 96489, Control_c, 0, 64, 0
4, 96808, Control_c, 0, 64, 127
4, 96903, Control_c, 0, 64, 0
4, 97012, Control_c, 0, 64, 127
4, 97209, Control_c, 0, 64, 0
4, 97528, Control_c, 0, 64, 127
4, 97623, Control_c, 0, 64, 0
4, 97732, Control_c, 0, 64, 127
4, 97929, Control_c, 0, 64, 0
4, 98248, Control_c, 0, 64, 127
4, 98343, Control_c, 0, 64, 0
4, 98452, Control_c, 0, 64, 127
4, 98649, Control_c, 0, 64, 0
4, 98968, Control_c, 0, 64, 127
4, 99063, Control_c, 0, 64, 0
4, 99172, Control_c, 0, 64, 127
4, 99369, Control_c, 0, 64, 0
4, 99639, Control_c, 0, 64, 127
4, 99785, Control_c, 0, 64, 0
4, 99872, Control_c, 0, 64, 127
4, 100090, Control_c, 0, 64, 0
4, 101128, Control_c, 0, 64, 127
4, 101223, Control_c, 0, 64, 0
4, 101332, Control_c, 0, 64, 127
4, 101529, Control_c, 0, 64, 0
4, 101848, Control_c, 0, 64, 127
4, 101943, Control_c, 0, 64, 0
4, 102052, Control_c, 0, 64, 127
4, 102249, Control_c, 0, 64, 0
4, 102568, Control_c, 0, 64, 127
4, 102663, Control_c, 0, 64, 0
4, 102772, Control_c, 0, 64, 127
4, 102969, Control_c, 0, 64, 0
4, 103288, Control_c, 0, 64, 127
4, 103383, Control_c, 0, 64, 0
4, 103492, Control_c, 0, 64, 127
4, 103689, Control_c, 0, 64, 0
4, 104008, Control_c, 0, 64, 127
4, 104103, Control_c, 0, 64, 0
4, 104212, Control_c, 0, 64, 127
4, 104409, Control_c, 0, 64, 0
4, 107608, Control_c, 0, 64, 127
4, 107703, Control_c, 0, 64, 0
4, 107812, Control_c, 0, 64, 127
4, 108009, Control_c, 0, 64, 0
4, 108328, Control_c, 0, 64, 127
4, 108423, Control_c, 0, 64, 0
4, 108532, Control_c, 0, 64, 127
4, 108729, Control_c, 0, 64, 0
4, 109048, Control_c, 0, 64, 127
4, 109143, Control_c, 0, 64, 0
4, 109252, Control_c, 0, 64, 127
4, 109449, Control_c, 0, 64, 0
4, 109768, Control_c, 0, 64, 127
4, 109863, Control_c, 0, 64, 0
4, 109972, Control_c, 0, 64, 127
4, 110169, Control_c, 0, 64, 0
4, 110488, Control_c, 0, 64, 127
4, 110583, Control_c, 0, 64, 0
4, 110692, Control_c, 0, 64, 127
4, 110889, Control_c, 0, 64, 0
4, 111159, Control_c, 0, 64, 127
4, 111305, Control_c, 0, 64, 0
4, 111392, Control_c, 0, 64, 127
4, 111610, Control_c, 0, 64, 0
4, 117697, Control_c, 0, 64, 127
4, 121451, Control_c, 0, 64, 0
4, 121577, Control_c, 0, 64, 127
4, 121860, Control_c, 0, 64, 0
4, 122253, Control_c, 0, 64, 127
4, 122348, Control_c, 0, 64, 0
4, 122456, Control_c, 0, 64, 127
4, 122654, Control_c, 0, 64, 0
4, 122962, Control_c, 0, 64, 127
4, 123057, Control_c, 0, 64, 0
4, 123166, Control_c, 0, 64, 127
4, 123363, Control_c, 0, 64, 0
4, 123689, Control_c, 0, 64, 127
4, 123784, Control_c, 0, 64, 0
4, 123893, Control_c, 0, 64, 127
4, 124090, Control_c, 0, 64, 0
4, 124090, End_track
5, 0, Start_track
5, 0, Title_t, "Beethoven: Hammerklaviersonate 2. Satz"
5, 0, End_track
6, 0, Start_track
6, 0, Title_t, "Copyright © 2008 by Bernd Krueger"
6, 0, End_track
7, 0, Start_track
7, 0, Title_t, "http://www.piano-midi.de/"
7, 0, End_track
8, 0, Start_track
8, 0, Title_t, "Edition: 2012-08-16"
8, 0, End_track
9, 0, Start_track
9, 0, Title_t, "Spur 8"
9, 0, End_track
10, 0, Start_track
10, 0, Title_t, "Spur 9"
10, 0, End_track
11, 0, Start_track
11, 0, Title_t, "Spur 10"
11, 0, End_track
12, 0, Start_track
12, 0, Title_t, "Spur 11"
12, 0, End_track
13, 0, Start_track
13, 0, Title_t, "Spur 12"
13, 0, End_track
14, 0, Start_track
14, 0, Title_t, "Spur 13"
14, 0, End_track
15, 0, Start_track
15, 0, Title_t, "Spur 14"
15, 0, End_track
16, 0, Start_track
16, 0, Title_t, "Spur 15"
16, 0, End_track
17, 0, Start_track
17, 0, Title_t, "Spur 16"
17, 0, End_track
0, 0, End_of_file
