0, 0, Header, 1, 17, 480
1, 0, Start_track
1, 0, Title_t, "Beethoven: Sonate Opus 90, 1. Satz"
1, 0, Copyright_t, "Copyright © 2014 by Bernd Krueger"
1, 0, Text_t, "Bernd Krueger"
1, 0, Text_t, "Mit Lebhaftigkeit und durchaus mit Empfindung und Ausdruck"
1, 0, Text_t, "Erstellt: 5.2.2014\012"
1, 0, Text_t, "Dauer: 4:53 Minuten\012"
1, 0, Time_signature, 3, 2, 24, 8
1, 0, Key_signature, 1, "major"
1, 0, Tempo, 400534
1, 960, Tempo, 411523
1, 1440, Tempo, 400534
1, 2400, Tempo, 410116
1, 2880, Tempo, 400534
1, 5280, Tempo, 411523
1, 5760, Tempo, 400534
1, 6720, Tempo, 407332
1, 7200, Tempo, 400534
1, 8160, Tempo, 414365
1, 8640, Tempo, 399202
1, 11040, Tempo, 404585
1, 11520, Tempo, 399202
1, 12480, Tempo, 390117
1, 13440, Tempo, 383877
1, 13920, Tempo, 400534
1, 15360, Tempo, 388853
1, 16320, Tempo, 381437
1, 16800, Tempo, 404585
1, 17280, Tempo, 397878
1, 18240, Tempo, 391389
1, 19200, Tempo, 399202
1, 21120, Tempo, 391389
1, 22080, Tempo, 407332
1, 22560, Tempo, 450113
1, 23040, Tempo, 507185
1, 24000, Tempo, 392670
1, 24960, Tempo, 401875
1, 25440, Tempo, 411523
1, 25920, Tempo, 400534
1, 26880, Tempo, 411523
1, 27840, Tempo, 400534
1, 28560, Tempo, 412939
1, 28800, Tempo, 400534
1, 29280, Tempo, 412939
1, 29760, Tempo, 388853
1, 30240, Tempo, 397878
1, 30720, Tempo, 401875
1, 31200, Tempo, 417246
1, 31680, Tempo, 403226
1, 32640, Tempo, 415800
1, 33840, Tempo, 451807
1, 34080, Tempo, 471328
1, 34320, Tempo, 529568
1, 34560, Tempo, 502934
1, 35520, Tempo, 393959
1, 36000, Tempo, 396563
1, 36960, Tempo, 391389
1, 37440, Tempo, 395257
1, 38400, Tempo, 390117
1, 38880, Tempo, 395257
1, 39840, Tempo, 391389
1, 40320, Tempo, 396563
1, 40800, Tempo, 410397
1, 41280, Tempo, 407332
1, 41760, Tempo, 400534
1, 42660, Tempo, 391389
1, 43170, Tempo, 392670
1, 43680, Tempo, 393959
1, 44160, Tempo, 393959
1, 44190, Tempo, 396563
1, 44220, Tempo, 399202
1, 44250, Tempo, 401875
1, 44280, Tempo, 404585
1, 44310, Tempo, 407332
1, 44340, Tempo, 410116
1, 44370, Tempo, 412939
1, 44400, Tempo, 415800
1, 44430, Tempo, 418702
1, 44460, Tempo, 421644
1, 44490, Tempo, 424628
1, 44520, Tempo, 427655
1, 44550, Tempo, 430725
1, 44580, Tempo, 433839
1, 44640, Tempo, 399202
1, 45600, Tempo, 391389
1, 46080, Tempo, 399202
1, 47040, Tempo, 407332
1, 47520, Tempo, 400534
1, 48420, Tempo, 391389
1, 48930, Tempo, 392670
1, 49440, Tempo, 393959
1, 49920, Tempo, 393959
1, 49950, Tempo, 396563
1, 49980, Tempo, 399202
1, 50010, Tempo, 401875
1, 50040, Tempo, 404585
1, 50070, Tempo, 407332
1, 50100, Tempo, 410116
1, 50130, Tempo, 412939
1, 50160, Tempo, 415800
1, 50190, Tempo, 418702
1, 50220, Tempo, 421644
1, 50250, Tempo, 424628
1, 50280, Tempo, 427655
1, 50310, Tempo, 430725
1, 50340, Tempo, 433839
1, 50400, Tempo, 399202
1, 51360, Tempo, 391389
1, 51840, Tempo, 399202
1, 52800, Tempo, 411523
1, 53280, Tempo, 396563
1, 54033, Tempo, 388853
1, 54063, Tempo, 380228
1, 54213, Tempo, 381437
1, 54333, Tempo, 382653
1, 54453, Tempo, 383877
1, 54573, Tempo, 385109
1, 54703, Tempo, 382897
1, 54793, Tempo, 384123
1, 55200, Tempo, 376648
1, 55520, Tempo, 418702
1, 55683, Tempo, 396563
1, 56160, Tempo, 392670
1, 57120, Tempo, 386349
1, 57600, Tempo, 391389
1, 58560, Tempo, 387597
1, 59040, Tempo, 391389
1, 60000, Tempo, 388853
1, 60480, Tempo, 393959
1, 61440, Tempo, 387597
1, 62880, Tempo, 390117
1, 63360, Tempo, 387597
1, 64320, Tempo, 395257
1, 64800, Tempo, 375469
1, 65760, Tempo, 375469
1, 66000, Tempo, 395257
1, 66240, Tempo, 375469
1, 67440, Tempo, 385109
1, 67680, Tempo, 361882
1, 68160, Tempo, 373134
1, 69120, Tempo, 364078
1, 69600, Tempo, 373134
1, 70080, Tempo, 364078
1, 70560, Tempo, 371978
1, 71520, Tempo, 362976
1, 72000, Tempo, 369686
1, 72960, Tempo, 377834
1, 73440, Tempo, 366300
1, 73443, Tempo, 366300
1, 74193, Tempo, 365186
1, 74913, Tempo, 364078
1, 76023, Tempo, 373134
1, 76053, Tempo, 374298
1, 76293, Tempo, 364078
1, 77520, Tempo, 380228
1, 77793, Tempo, 364078
1, 77823, Tempo, 373134
1, 77883, Tempo, 374298
1, 77943, Tempo, 375469
1, 77973, Tempo, 376648
1, 78033, Tempo, 377834
1, 78063, Tempo, 379027
1, 78123, Tempo, 380228
1, 78183, Tempo, 381437
1, 78213, Tempo, 382653
1, 78273, Tempo, 383877
1, 78303, Tempo, 385109
1, 78363, Tempo, 386349
1, 78423, Tempo, 387597
1, 78453, Tempo, 388853
1, 78513, Tempo, 390117
1, 78543, Tempo, 391389
1, 78603, Tempo, 392670
1, 78663, Tempo, 393959
1, 78693, Tempo, 395257
1, 78753, Tempo, 396563
1, 78783, Tempo, 397878
1, 78843, Tempo, 399202
1, 78903, Tempo, 400534
1, 78960, Tempo, 437318
1, 79200, Tempo, 397878
1, 85680, Tempo, 401875
1, 86160, Tempo, 408719
1, 86400, Tempo, 397878
1, 87360, Tempo, 405954
1, 87600, Tempo, 424628
1, 87840, Tempo, 391389
1, 88080, Tempo, 408719
1, 88320, Tempo, 396563
1, 89280, Tempo, 386349
1, 89520, Tempo, 396563
1, 90720, Tempo, 387597
1, 90960, Tempo, 396563
1, 92160, Tempo, 387597
1, 92400, Tempo, 397878
1, 93360, Tempo, 411523
1, 93600, Tempo, 397878
1, 94080, Tempo, 401875
1, 94560, Tempo, 411523
1, 95040, Tempo, 393959
1, 95280, Tempo, 396563
1, 95520, Tempo, 401875
1, 96000, Tempo, 418702
1, 96240, Tempo, 426136
1, 96480, Tempo, 385109
1, 96960, Tempo, 392670
1, 97200, Tempo, 423131
1, 97440, Tempo, 407332
1, 97920, Tempo, 393959
1, 99360, Tempo, 400534
1, 100800, Tempo, 395257
1, 101760, Tempo, 411523
1, 102240, Tempo, 385109
1, 102720, Tempo, 392670
1, 102960, Tempo, 423131
1, 103200, Tempo, 407332
1, 103680, Tempo, 393959
1, 105120, Tempo, 400534
1, 106560, Tempo, 395257
1, 107520, Tempo, 400534
1, 108960, Tempo, 404585
1, 109440, Tempo, 396563
1, 112320, Tempo, 403226
1, 113280, Tempo, 418702
1, 113760, Tempo, 395257
1, 120960, Tempo, 395257
1, 121920, Tempo, 401875
1, 122400, Tempo, 380228
1, 123360, Tempo, 387597
1, 123600, Tempo, 403226
1, 123840, Tempo, 382653
1, 126240, Tempo, 385109
1, 126480, Tempo, 400534
1, 126720, Tempo, 383877
1, 127680, Tempo, 387597
1, 127920, Tempo, 400534
1, 128160, Tempo, 380228
1, 129120, Tempo, 387597
1, 129360, Tempo, 403226
1, 129600, Tempo, 380228
1, 130560, Tempo, 387597
1, 130800, Tempo, 404585
1, 131040, Tempo, 377834
1, 132000, Tempo, 387597
1, 132240, Tempo, 403226
1, 132480, Tempo, 376648
1, 133440, Tempo, 382653
1, 133680, Tempo, 397878
1, 133920, Tempo, 376648
1, 134880, Tempo, 382653
1, 135120, Tempo, 397878
1, 135360, Tempo, 376648
1, 136320, Tempo, 382653
1, 136560, Tempo, 397878
1, 136800, Tempo, 376648
1, 137760, Tempo, 382653
1, 138000, Tempo, 397878
1, 138240, Tempo, 376648
1, 139200, Tempo, 382653
1, 139440, Tempo, 397878
1, 139680, Tempo, 376648
1, 140640, Tempo, 382653
1, 140880, Tempo, 397878
1, 141120, Tempo, 376648
1, 142080, Tempo, 382653
1, 142320, Tempo, 397878
1, 142560, Tempo, 376648
1, 143520, Tempo, 382653
1, 143760, Tempo, 397878
1, 144240, Tempo, 383877
1, 144720, Tempo, 355661
1, 144960, Tempo, 369914
1, 146160, Tempo, 354610
1, 146400, Tempo, 366524
1, 147600, Tempo, 351288
1, 147840, Tempo, 366300
1, 148312, Tempo, 362976
1, 148612, Tempo, 361882
1, 148912, Tempo, 360794
1, 149212, Tempo, 359712
1, 149512, Tempo, 358637
1, 149782, Tempo, 357569
1, 150082, Tempo, 356506
1, 150382, Tempo, 355450
1, 150682, Tempo, 354400
1, 150982, Tempo, 353357
1, 151252, Tempo, 352319
1, 151923, Tempo, 350263
1, 152643, Tempo, 349243
1, 152823, Tempo, 349243
1, 152973, Tempo, 350263
1, 153123, Tempo, 351288
1, 153273, Tempo, 352319
1, 153423, Tempo, 353357
1, 153573, Tempo, 354400
1, 153723, Tempo, 355450
1, 153873, Tempo, 356506
1, 154023, Tempo, 357569
1, 154143, Tempo, 358637
1, 154560, Tempo, 366300
1, 155040, Tempo, 382653
1, 155280, Tempo, 420168
1, 155520, Tempo, 393959
1, 155760, Tempo, 408998
1, 156000, Tempo, 403226
1, 156960, Tempo, 397878
1, 158400, Tempo, 385109
1, 158880, Tempo, 388853
1, 159360, Tempo, 393959
1, 159840, Tempo, 388853
1, 160320, Tempo, 391389
1, 161280, Tempo, 382653
1, 161760, Tempo, 387597
1, 162240, Tempo, 387597
1, 162720, Tempo, 386349
1, 163200, Tempo, 387597
1, 164160, Tempo, 379027
1, 164640, Tempo, 383877
1, 165120, Tempo, 386349
1, 165600, Tempo, 382653
1, 167040, Tempo, 380228
1, 167520, Tempo, 382653
1, 168480, Tempo, 377834
1, 168960, Tempo, 381437
1, 169920, Key_signature, 0, "major"
1, 169920, Tempo, 374298
1, 170400, Tempo, 380228
1, 170880, Tempo, 381437
1, 171360, Tempo, 379027
1, 171840, Tempo, 381437
1, 172800, Tempo, 375469
1, 173280, Tempo, 380228
1, 173760, Tempo, 382653
1, 174240, Tempo, 381437
1, 174720, Tempo, 383877
1, 175680, Tempo, 376648
1, 176160, Tempo, 381437
1, 177120, Tempo, 376648
1, 177600, Tempo, 379027
1, 178080, Tempo, 380228
1, 178560, Tempo, 371978
1, 179040, Tempo, 375469
1, 179520, Tempo, 376648
1, 180000, Tempo, 370828
1, 180480, Tempo, 375469
1, 180960, Tempo, 377834
1, 181440, Tempo, 373134
1, 181920, Tempo, 374298
1, 182400, Tempo, 375469
1, 182880, Tempo, 371978
1, 183360, Tempo, 371978
1, 184320, Tempo, 368550
1, 184800, Tempo, 369686
1, 185760, Tempo, 366300
1, 186240, Tempo, 367422
1, 186720, Tempo, 374298
1, 187200, Key_signature, 1, "major"
1, 187200, Tempo, 368550
1, 188640, Tempo, 367422
1, 189120, Tempo, 364078
1, 189600, Tempo, 367422
1, 189960, Tempo, 380228
1, 190080, Tempo, 369686
1, 190440, Tempo, 397878
1, 190560, Tempo, 369686
1, 190920, Tempo, 401875
1, 191040, Tempo, 369686
1, 191520, Tempo, 396563
1, 199680, Tempo, 390117
1, 199920, Tempo, 408719
1, 200160, Tempo, 397878
1, 201120, Tempo, 390117
1, 201360, Tempo, 403226
1, 201600, Tempo, 396563
1, 202560, Tempo, 385109
1, 202800, Tempo, 400534
1, 203040, Tempo, 388853
1, 203760, Tempo, 383877
1, 204240, Tempo, 391389
1, 204720, Tempo, 385109
1, 205080, Tempo, 390117
1, 205200, Tempo, 391389
1, 205440, Tempo, 385109
1, 205920, Tempo, 382653
1, 206160, Tempo, 388853
1, 206400, Tempo, 414651
1, 206640, Tempo, 736287
1, 206880, Tempo, 471698
1, 207360, Tempo, 400534
1, 208320, Tempo, 410116
1, 208800, Tempo, 400534
1, 211200, Tempo, 411523
1, 211680, Tempo, 400534
1, 212640, Tempo, 407332
1, 213120, Tempo, 400534
1, 214080, Tempo, 414365
1, 214560, Tempo, 399202
1, 216960, Tempo, 404585
1, 217440, Tempo, 399202
1, 218400, Tempo, 390117
1, 219360, Tempo, 383877
1, 219840, Tempo, 400534
1, 221280, Tempo, 388853
1, 222240, Tempo, 381437
1, 222720, Tempo, 404585
1, 223200, Tempo, 397878
1, 224160, Tempo, 391389
1, 225120, Tempo, 399202
1, 227040, Tempo, 391389
1, 228000, Tempo, 436395
1, 228480, Tempo, 508518
1, 228960, Tempo, 679502
1, 229920, Tempo, 392670
1, 230880, Tempo, 401875
1, 231360, Tempo, 411523
1, 231840, Tempo, 400534
1, 232800, Tempo, 411523
1, 233760, Tempo, 400534
1, 234480, Tempo, 412939
1, 234720, Tempo, 400534
1, 235200, Tempo, 412939
1, 235680, Tempo, 388853
1, 236160, Tempo, 397878
1, 236640, Tempo, 401875
1, 237120, Tempo, 417246
1, 237600, Tempo, 403226
1, 238560, Tempo, 415800
1, 239760, Tempo, 444412
1, 240000, Tempo, 474271
1, 240240, Tempo, 504159
1, 240480, Tempo, 500835
1, 241440, Tempo, 393959
1, 241920, Tempo, 396563
1, 242880, Tempo, 391389
1, 243360, Tempo, 395257
1, 244320, Tempo, 390117
1, 244800, Tempo, 395257
1, 245760, Tempo, 391389
1, 246240, Tempo, 396563
1, 246720, Tempo, 413223
1, 247200, Tempo, 407332
1, 247680, Tempo, 400534
1, 248580, Tempo, 391389
1, 249090, Tempo, 392670
1, 249600, Tempo, 393959
1, 250080, Tempo, 393959
1, 250110, Tempo, 396563
1, 250140, Tempo, 399202
1, 250170, Tempo, 401875
1, 250200, Tempo, 404585
1, 250230, Tempo, 407332
1, 250260, Tempo, 410116
1, 250290, Tempo, 412939
1, 250320, Tempo, 415800
1, 250350, Tempo, 418702
1, 250380, Tempo, 421644
1, 250410, Tempo, 424628
1, 250440, Tempo, 427655
1, 250470, Tempo, 430725
1, 250500, Tempo, 433839
1, 250560, Tempo, 399202
1, 251520, Tempo, 391389
1, 252000, Tempo, 399202
1, 252960, Tempo, 407332
1, 253440, Tempo, 400534
1, 254340, Tempo, 391389
1, 254850, Tempo, 392670
1, 255360, Tempo, 393959
1, 255840, Tempo, 393959
1, 255870, Tempo, 396563
1, 255900, Tempo, 399202
1, 255930, Tempo, 401875
1, 255960, Tempo, 404585
1, 255990, Tempo, 407332
1, 256020, Tempo, 410116
1, 256050, Tempo, 412939
1, 256080, Tempo, 415800
1, 256110, Tempo, 418702
1, 256140, Tempo, 421644
1, 256170, Tempo, 424628
1, 256200, Tempo, 427655
1, 256230, Tempo, 430725
1, 256260, Tempo, 433839
1, 256320, Tempo, 399202
1, 257280, Tempo, 391389
1, 257760, Tempo, 399202
1, 258720, Tempo, 438917
1, 259200, Tempo, 404858
1, 259953, Tempo, 388853
1, 259983, Tempo, 380228
1, 260133, Tempo, 381437
1, 260253, Tempo, 382653
1, 260373, Tempo, 383877
1, 260493, Tempo, 385109
1, 260643, Tempo, 386349
1, 260763, Tempo, 387597
1, 260883, Tempo, 388853
1, 261003, Tempo, 390117
1, 261123, Tempo, 391389
1, 261153, Tempo, 388853
1, 261273, Tempo, 390117
1, 261363, Tempo, 391389
1, 261423, Tempo, 392670
1, 261483, Tempo, 393959
1, 261543, Tempo, 395257
1, 261603, Tempo, 396563
1, 262080, Tempo, 392670
1, 263040, Tempo, 386349
1, 263520, Tempo, 391389
1, 264480, Tempo, 387597
1, 264960, Tempo, 391389
1, 265920, Tempo, 388853
1, 266400, Tempo, 393959
1, 267360, Tempo, 387597
1, 268800, Tempo, 390117
1, 269280, Tempo, 387597
1, 270240, Tempo, 395257
1, 270720, Tempo, 375469
1, 271680, Tempo, 375469
1, 271920, Tempo, 395257
1, 272160, Tempo, 375469
1, 273360, Tempo, 385109
1, 273600, Tempo, 361882
1, 274080, Tempo, 373134
1, 275040, Tempo, 364078
1, 275520, Tempo, 373134
1, 276000, Tempo, 364078
1, 276480, Tempo, 371978
1, 277440, Tempo, 362976
1, 277920, Tempo, 369686
1, 278880, Tempo, 377834
1, 279360, Tempo, 366300
1, 279363, Tempo, 366300
1, 280113, Tempo, 365186
1, 280833, Tempo, 364078
1, 281943, Tempo, 373134
1, 281973, Tempo, 374298
1, 282213, Tempo, 364078
1, 283440, Tempo, 380228
1, 283713, Tempo, 364078
1, 283743, Tempo, 373134
1, 283803, Tempo, 374298
1, 283863, Tempo, 375469
1, 283893, Tempo, 376648
1, 283953, Tempo, 377834
1, 283983, Tempo, 379027
1, 284043, Tempo, 380228
1, 284103, Tempo, 381437
1, 284133, Tempo, 382653
1, 284193, Tempo, 383877
1, 284223, Tempo, 385109
1, 284283, Tempo, 386349
1, 284343, Tempo, 387597
1, 284373, Tempo, 388853
1, 284433, Tempo, 390117
1, 284463, Tempo, 391389
1, 284523, Tempo, 392670
1, 284583, Tempo, 393959
1, 284613, Tempo, 395257
1, 284673, Tempo, 396563
1, 284703, Tempo, 397878
1, 284763, Tempo, 399202
1, 284823, Tempo, 400534
1, 284853, Tempo, 401875
1, 284880, Tempo, 423430
1, 285120, Tempo, 397878
1, 291600, Tempo, 401875
1, 292080, Tempo, 408719
1, 292320, Tempo, 397878
1, 293280, Tempo, 405954
1, 293520, Tempo, 424628
1, 293760, Tempo, 391389
1, 294000, Tempo, 408719
1, 294240, Tempo, 396563
1, 295200, Tempo, 386349
1, 295440, Tempo, 396563
1, 296640, Tempo, 387597
1, 296880, Tempo, 396563
1, 298080, Tempo, 387597
1, 298320, Tempo, 397878
1, 299280, Tempo, 411523
1, 299520, Tempo, 397878
1, 300000, Tempo, 401875
1, 300480, Tempo, 411523
1, 300960, Tempo, 393959
1, 301200, Tempo, 396563
1, 301440, Tempo, 401875
1, 301920, Tempo, 418702
1, 302160, Tempo, 426136
1, 302400, Tempo, 385109
1, 302880, Tempo, 392670
1, 303120, Tempo, 423131
1, 303360, Tempo, 407332
1, 303840, Tempo, 393959
1, 305280, Tempo, 400534
1, 306720, Tempo, 395257
1, 307680, Tempo, 411523
1, 308160, Tempo, 385109
1, 308640, Tempo, 392670
1, 308880, Tempo, 423131
1, 309120, Tempo, 407332
1, 309600, Tempo, 393959
1, 311040, Tempo, 400534
1, 312480, Tempo, 395257
1, 313440, Tempo, 400534
1, 314880, Tempo, 404585
1, 315360, Tempo, 396563
1, 318240, Tempo, 403226
1, 319200, Tempo, 418702
1, 319680, Tempo, 395257
1, 320640, Tempo, 404585
1, 321120, Tempo, 396563
1, 323467, Tempo, 395257
1, 323494, Tempo, 404585
1, 323974, Tempo, 396563
1, 326400, Tempo, 396563
1, 326880, Tempo, 403226
1, 327840, Tempo, 418702
1, 328320, Tempo, 395257
1, 329280, Tempo, 404585
1, 329760, Tempo, 396563
1, 332160, Tempo, 388853
1, 333600, Tempo, 392670
1, 334080, Tempo, 400534
1, 335040, Tempo, 411523
1, 335520, Tempo, 400534
1, 336480, Tempo, 392670
1, 336960, Tempo, 408441
1, 337920, Tempo, 421644
1, 338400, Tempo, 431965
1, 339360, Tempo, 453172
1, 339840, Tempo, 498049
1, 340560, Tempo, 558295
1, 340800, Tempo, 645369
1, 341280, Tempo, 734394
1, 342240, Tempo, 392670
1, 343200, Tempo, 401875
1, 343680, Tempo, 411523
1, 344160, Tempo, 400534
1, 345120, Tempo, 411523
1, 346080, Tempo, 400534
1, 346800, Tempo, 412939
1, 347040, Tempo, 400534
1, 347520, Tempo, 412939
1, 348000, Tempo, 388853
1, 348480, Tempo, 397878
1, 348960, Tempo, 401875
1, 349440, Tempo, 485948
1, 349920, Tempo, 454649
1, 350880, Tempo, 483988
1, 351360, Tempo, 512952
1, 352080, Tempo, 543134
1, 352320, Tempo, 609323
1, 352560, Tempo, 882742
1, 352800, Tempo, 545951
1, 352800, End_track
2, 0, Start_track
2, 0, Title_t, "Piano right"
2, 0, Program_c, 0, 0
2, 960, Note_on_c, 0, 67, 78
2, 960, Note_on_c, 0, 64, 66
2, 960, Note_on_c, 0, 59, 66
2, 960, Note_on_c, 0, 55, 66
2, 1080, Note_on_c, 0, 55, 0
2, 1080, Note_on_c, 0, 67, 0
2, 1080, Note_on_c, 0, 64, 0
2, 1080, Note_on_c, 0, 59, 0
2, 1440, Note_on_c, 0, 55, 70
2, 1440, Note_on_c, 0, 59, 70
2, 1440, Note_on_c, 0, 64, 70
2, 1440, Note_on_c, 0, 67, 84
2, 2160, Note_on_c, 0, 67, 0
2, 2160, Note_on_c, 0, 66, 77
2, 2400, Note_on_c, 0, 66, 0
2, 2400, Note_on_c, 0, 64, 0
2, 2400, Note_on_c, 0, 59, 0
2, 2400, Note_on_c, 0, 55, 0
2, 2400, Note_on_c, 0, 64, 68
2, 2400, Note_on_c, 0, 55, 57
2, 2520, Note_on_c, 0, 55, 0
2, 2520, Note_on_c, 0, 64, 0
2, 2880, Note_on_c, 0, 57, 70
2, 2880, Note_on_c, 0, 66, 70
2, 2880, Note_on_c, 0, 69, 84
2, 3120, Note_on_c, 0, 69, 0
2, 3120, Note_on_c, 0, 66, 0
2, 3120, Note_on_c, 0, 57, 0
2, 3840, Note_on_c, 0, 69, 37
2, 3840, Note_on_c, 0, 66, 31
2, 4320, Note_on_c, 0, 66, 0
2, 4320, Note_on_c, 0, 69, 0
2, 4320, Note_on_c, 0, 66, 37
2, 4320, Note_on_c, 0, 69, 45
2, 5040, Note_on_c, 0, 69, 0
2, 5040, Note_on_c, 0, 66, 0
2, 5040, Note_on_c, 0, 67, 40
2, 5280, Note_on_c, 0, 67, 0
2, 5280, Note_on_c, 0, 69, 41
2, 5280, Note_on_c, 0, 66, 35
2, 5640, Note_on_c, 0, 66, 0
2, 5640, Note_on_c, 0, 69, 0
2, 5760, Note_on_c, 0, 71, 43
2, 5760, Note_on_c, 0, 67, 36
2, 6120, Note_on_c, 0, 67, 0
2, 6120, Note_on_c, 0, 71, 0
2, 6720, Note_on_c, 0, 71, 78
2, 6720, Note_on_c, 0, 67, 66
2, 6720, Note_on_c, 0, 62, 66
2, 6720, Note_on_c, 0, 59, 66
2, 6840, Note_on_c, 0, 59, 0
2, 6840, Note_on_c, 0, 71, 0
2, 6840, Note_on_c, 0, 67, 0
2, 6840, Note_on_c, 0, 62, 0
2, 7200, Note_on_c, 0, 62, 70
2, 7200, Note_on_c, 0, 59, 70
2, 7200, Note_on_c, 0, 67, 70
2, 7200, Note_on_c, 0, 71, 84
2, 7920, Note_on_c, 0, 71, 0
2, 7920, Note_on_c, 0, 69, 77
2, 8160, Note_on_c, 0, 69, 0
2, 8160, Note_on_c, 0, 67, 0
2, 8160, Note_on_c, 0, 59, 0
2, 8160, Note_on_c, 0, 62, 0
2, 8160, Note_on_c, 0, 67, 68
2, 8160, Note_on_c, 0, 59, 57
2, 8280, Note_on_c, 0, 59, 0
2, 8280, Note_on_c, 0, 67, 0
2, 8640, Note_on_c, 0, 61, 70
2, 8640, Note_on_c, 0, 70, 70
2, 8640, Note_on_c, 0, 73, 84
2, 8880, Note_on_c, 0, 73, 0
2, 8880, Note_on_c, 0, 70, 0
2, 8880, Note_on_c, 0, 61, 0
2, 9600, Note_on_c, 0, 73, 37
2, 9600, Note_on_c, 0, 70, 31
2, 10080, Note_on_c, 0, 70, 0
2, 10080, Note_on_c, 0, 73, 0
2, 10080, Note_on_c, 0, 70, 37
2, 10080, Note_on_c, 0, 73, 45
2, 10800, Note_on_c, 0, 73, 0
2, 10800, Note_on_c, 0, 70, 0
2, 10800, Note_on_c, 0, 71, 40
2, 11040, Note_on_c, 0, 71, 0
2, 11040, Note_on_c, 0, 73, 41
2, 11040, Note_on_c, 0, 70, 35
2, 11400, Note_on_c, 0, 70, 0
2, 11400, Note_on_c, 0, 73, 0
2, 11520, Note_on_c, 0, 74, 43
2, 11520, Note_on_c, 0, 71, 36
2, 11880, Note_on_c, 0, 71, 0
2, 11880, Note_on_c, 0, 74, 0
2, 12480, Note_on_c, 0, 74, 70
2, 13440, Note_on_c, 0, 74, 0
2, 13440, Note_on_c, 0, 79, 70
2, 13920, Note_on_c, 0, 79, 0
2, 13920, Note_on_c, 0, 76, 62
2, 14400, Note_on_c, 0, 76, 0
2, 14400, Note_on_c, 0, 74, 66
2, 14880, Note_on_c, 0, 74, 0
2, 14880, Note_on_c, 0, 72, 56
2, 15336, Note_on_c, 0, 72, 0
2, 15360, Note_on_c, 0, 72, 61
2, 16320, Note_on_c, 0, 72, 0
2, 16320, Note_on_c, 0, 81, 61
2, 16800, Note_on_c, 0, 81, 0
2, 16800, Note_on_c, 0, 72, 52
2, 17760, Note_on_c, 0, 72, 0
2, 17760, Note_on_c, 0, 71, 61
2, 18216, Note_on_c, 0, 71, 0
2, 18240, Note_on_c, 0, 71, 55
2, 19200, Note_on_c, 0, 71, 0
2, 19200, Note_on_c, 0, 67, 50
2, 19656, Note_on_c, 0, 67, 0
2, 19680, Note_on_c, 0, 67, 44
2, 20640, Note_on_c, 0, 67, 0
2, 20640, Note_on_c, 0, 64, 43
2, 21096, Note_on_c, 0, 64, 0
2, 21120, Note_on_c, 0, 64, 41
2, 22080, Note_on_c, 0, 64, 0
2, 22080, Note_on_c, 0, 55, 36
2, 22560, Note_on_c, 0, 55, 0
2, 22560, Note_on_c, 0, 52, 24
2, 23040, Note_on_c, 0, 52, 0
2, 23040, Note_on_c, 0, 51, 24
2, 23040, Note_on_c, 0, 59, 28
2, 23904, Note_on_c, 0, 59, 0
2, 23904, Note_on_c, 0, 51, 0
2, 24000, Note_on_c, 0, 76, 51
2, 24000, Note_on_c, 0, 88, 61
2, 25200, Note_on_c, 0, 88, 0
2, 25200, Note_on_c, 0, 76, 0
2, 25200, Note_on_c, 0, 75, 45
2, 25200, Note_on_c, 0, 87, 53
2, 25440, Note_on_c, 0, 87, 0
2, 25440, Note_on_c, 0, 75, 0
2, 25440, Note_on_c, 0, 76, 48
2, 25440, Note_on_c, 0, 88, 57
2, 25920, Note_on_c, 0, 88, 0
2, 25920, Note_on_c, 0, 76, 0
2, 25920, Note_on_c, 0, 60, 51
2, 25920, Note_on_c, 0, 64, 51
2, 25920, Note_on_c, 0, 66, 61
2, 26880, Note_on_c, 0, 66, 0
2, 26880, Note_on_c, 0, 64, 0
2, 26880, Note_on_c, 0, 60, 0
2, 26880, Note_on_c, 0, 66, 66
2, 26880, Note_on_c, 0, 64, 56
2, 26880, Note_on_c, 0, 61, 56
2, 27360, Note_on_c, 0, 61, 0
2, 27360, Note_on_c, 0, 64, 0
2, 27360, Note_on_c, 0, 66, 0
2, 27360, Note_on_c, 0, 57, 60
2, 27360, Note_on_c, 0, 63, 60
2, 27360, Note_on_c, 0, 66, 71
2, 28080, Note_on_c, 0, 66, 0
2, 28080, Note_on_c, 0, 67, 51
2, 28320, Note_on_c, 0, 67, 0
2, 28320, Note_on_c, 0, 69, 56
2, 28560, Note_on_c, 0, 69, 0
2, 28560, Note_on_c, 0, 67, 43
2, 28800, Note_on_c, 0, 67, 0
2, 28800, Note_on_c, 0, 63, 0
2, 28800, Note_on_c, 0, 57, 0
2, 28800, Note_on_c, 0, 66, 47
2, 29280, Note_on_c, 0, 66, 0
2, 29280, Note_on_c, 0, 64, 39
2, 29760, Note_on_c, 0, 64, 0
2, 29760, Note_on_c, 0, 76, 51
2, 29760, Note_on_c, 0, 88, 61
2, 30960, Note_on_c, 0, 88, 0
2, 30960, Note_on_c, 0, 76, 0
2, 30960, Note_on_c, 0, 75, 52
2, 30960, Note_on_c, 0, 87, 61
2, 31200, Note_on_c, 0, 87, 0
2, 31200, Note_on_c, 0, 75, 0
2, 31200, Note_on_c, 0, 76, 56
2, 31200, Note_on_c, 0, 88, 66
2, 31680, Note_on_c, 0, 88, 0
2, 31680, Note_on_c, 0, 76, 0
2, 31680, Note_on_c, 0, 60, 51
2, 31680, Note_on_c, 0, 64, 51
2, 31680, Note_on_c, 0, 66, 61
2, 32640, Note_on_c, 0, 66, 0
2, 32640, Note_on_c, 0, 64, 0
2, 32640, Note_on_c, 0, 60, 0
2, 32640, Note_on_c, 0, 66, 52
2, 32640, Note_on_c, 0, 64, 44
2, 32640, Note_on_c, 0, 61, 44
2, 33120, Note_on_c, 0, 61, 0
2, 33120, Note_on_c, 0, 64, 0
2, 33120, Note_on_c, 0, 66, 0
2, 33120, Note_on_c, 0, 57, 46
2, 33120, Note_on_c, 0, 63, 46
2, 33120, Note_on_c, 0, 66, 55
2, 33840, Note_on_c, 0, 66, 0
2, 33840, Note_on_c, 0, 69, 38
2, 34080, Note_on_c, 0, 69, 0
2, 34080, Note_on_c, 0, 67, 41
2, 34320, Note_on_c, 0, 67, 0
2, 34320, Note_on_c, 0, 66, 32
2, 34560, Note_on_c, 0, 66, 0
2, 34560, Note_on_c, 0, 63, 0
2, 34560, Note_on_c, 0, 57, 0
2, 34560, Note_on_c, 0, 55, 30
2, 34560, Note_on_c, 0, 64, 36
2, 35040, Note_on_c, 0, 64, 0
2, 35040, Note_on_c, 0, 55, 0
2, 35520, Note_on_c, 0, 59, 30
2, 35520, Note_on_c, 0, 71, 36
2, 35640, Note_on_c, 0, 71, 0
2, 35640, Note_on_c, 0, 59, 0
2, 36000, Note_on_c, 0, 71, 41
2, 36000, Note_on_c, 0, 59, 34
2, 36960, Note_on_c, 0, 59, 0
2, 36960, Note_on_c, 0, 71, 0
2, 36960, Note_on_c, 0, 64, 30
2, 36960, Note_on_c, 0, 76, 36
2, 37080, Note_on_c, 0, 76, 0
2, 37080, Note_on_c, 0, 64, 0
2, 37440, Note_on_c, 0, 76, 42
2, 37440, Note_on_c, 0, 64, 35
2, 38400, Note_on_c, 0, 64, 0
2, 38400, Note_on_c, 0, 76, 0
2, 38400, Note_on_c, 0, 71, 30
2, 38400, Note_on_c, 0, 83, 36
2, 38520, Note_on_c, 0, 83, 0
2, 38520, Note_on_c, 0, 71, 0
2, 38880, Note_on_c, 0, 83, 40
2, 38880, Note_on_c, 0, 71, 34
2, 39840, Note_on_c, 0, 71, 0
2, 39840, Note_on_c, 0, 83, 0
2, 39840, Note_on_c, 0, 88, 36
2, 39840, Note_on_c, 0, 76, 30
2, 39960, Note_on_c, 0, 76, 0
2, 39960, Note_on_c, 0, 88, 0
2, 40320, Note_on_c, 0, 76, 34
2, 40320, Note_on_c, 0, 88, 41
2, 41280, Note_on_c, 0, 88, 0
2, 41280, Note_on_c, 0, 76, 0
2, 41280, Note_on_c, 0, 77, 70
2, 41280, Note_on_c, 0, 83, 70
2, 41280, Note_on_c, 0, 86, 70
2, 41280, Note_on_c, 0, 89, 82
2, 41400, Note_on_c, 0, 89, 0
2, 41400, Note_on_c, 0, 77, 0
2, 41400, Note_on_c, 0, 83, 0
2, 41400, Note_on_c, 0, 86, 0
2, 41760, Note_on_c, 0, 77, 76
2, 41760, Note_on_c, 0, 83, 76
2, 41760, Note_on_c, 0, 86, 76
2, 41760, Note_on_c, 0, 89, 90
2, 42480, Note_on_c, 0, 89, 0
2, 42480, Note_on_c, 0, 77, 0
2, 42480, Note_on_c, 0, 83, 0
2, 42480, Note_on_c, 0, 86, 0
2, 42480, Note_on_c, 0, 88, 70
2, 42600, Note_on_c, 0, 86, 69
2, 42612, Note_on_c, 0, 88, 0
2, 42720, Note_on_c, 0, 84, 68
2, 42732, Note_on_c, 0, 86, 0
2, 42840, Note_on_c, 0, 83, 68
2, 42852, Note_on_c, 0, 84, 0
2, 42960, Note_on_c, 0, 81, 68
2, 42972, Note_on_c, 0, 83, 0
2, 43080, Note_on_c, 0, 79, 66
2, 43092, Note_on_c, 0, 81, 0
2, 43200, Note_on_c, 0, 77, 64
2, 43212, Note_on_c, 0, 79, 0
2, 43320, Note_on_c, 0, 76, 64
2, 43332, Note_on_c, 0, 77, 0
2, 43440, Note_on_c, 0, 74, 64
2, 43452, Note_on_c, 0, 76, 0
2, 43560, Note_on_c, 0, 72, 64
2, 43572, Note_on_c, 0, 74, 0
2, 43680, Note_on_c, 0, 71, 63
2, 43692, Note_on_c, 0, 72, 0
2, 43760, Note_on_c, 0, 69, 63
2, 43768, Note_on_c, 0, 71, 0
2, 43840, Note_on_c, 0, 67, 63
2, 43848, Note_on_c, 0, 69, 0
2, 43920, Note_on_c, 0, 65, 63
2, 43928, Note_on_c, 0, 67, 0
2, 44000, Note_on_c, 0, 64, 63
2, 44008, Note_on_c, 0, 65, 0
2, 44080, Note_on_c, 0, 62, 63
2, 44088, Note_on_c, 0, 64, 0
2, 44160, Note_on_c, 0, 60, 63
2, 44168, Note_on_c, 0, 62, 0
2, 44256, Note_on_c, 0, 59, 63
2, 44266, Note_on_c, 0, 60, 0
2, 44352, Note_on_c, 0, 57, 63
2, 44362, Note_on_c, 0, 59, 0
2, 44448, Note_on_c, 0, 55, 62
2, 44458, Note_on_c, 0, 57, 0
2, 44544, Note_on_c, 0, 54, 62
2, 44554, Note_on_c, 0, 55, 0
2, 44640, Note_on_c, 0, 55, 89
2, 44650, Note_on_c, 0, 54, 0
2, 44880, Note_on_c, 0, 55, 0
2, 45600, Note_on_c, 0, 65, 40
2, 45600, Note_on_c, 0, 62, 34
2, 45600, Note_on_c, 0, 55, 34
2, 45720, Note_on_c, 0, 55, 0
2, 45720, Note_on_c, 0, 62, 0
2, 45720, Note_on_c, 0, 65, 0
2, 46080, Note_on_c, 0, 64, 45
2, 46080, Note_on_c, 0, 60, 38
2, 46080, Note_on_c, 0, 55, 38
2, 46320, Note_on_c, 0, 55, 0
2, 46320, Note_on_c, 0, 60, 0
2, 46320, Note_on_c, 0, 64, 0
2, 47040, Note_on_c, 0, 74, 76
2, 47040, Note_on_c, 0, 80, 76
2, 47040, Note_on_c, 0, 83, 76
2, 47040, Note_on_c, 0, 86, 90
2, 47160, Note_on_c, 0, 86, 0
2, 47160, Note_on_c, 0, 74, 0
2, 47160, Note_on_c, 0, 80, 0
2, 47160, Note_on_c, 0, 83, 0
2, 47520, Note_on_c, 0, 74, 84
2, 47520, Note_on_c, 0, 80, 84
2, 47520, Note_on_c, 0, 83, 84
2, 47520, Note_on_c, 0, 86, 98
2, 48240, Note_on_c, 0, 86, 0
2, 48240, Note_on_c, 0, 74, 0
2, 48240, Note_on_c, 0, 80, 0
2, 48240, Note_on_c, 0, 83, 0
2, 48240, Note_on_c, 0, 84, 70
2, 48360, Note_on_c, 0, 83, 69
2, 48372, Note_on_c, 0, 84, 0
2, 48480, Note_on_c, 0, 81, 68
2, 48492, Note_on_c, 0, 83, 0
2, 48600, Note_on_c, 0, 80, 68
2, 48612, Note_on_c, 0, 81, 0
2, 48720, Note_on_c, 0, 78, 68
2, 48732, Note_on_c, 0, 80, 0
2, 48840, Note_on_c, 0, 76, 66
2, 48852, Note_on_c, 0, 78, 0
2, 48960, Note_on_c, 0, 74, 64
2, 48972, Note_on_c, 0, 76, 0
2, 49080, Note_on_c, 0, 72, 64
2, 49092, Note_on_c, 0, 74, 0
2, 49200, Note_on_c, 0, 71, 64
2, 49212, Note_on_c, 0, 72, 0
2, 49320, Note_on_c, 0, 69, 64
2, 49332, Note_on_c, 0, 71, 0
2, 49440, Note_on_c, 0, 68, 63
2, 49452, Note_on_c, 0, 69, 0
2, 49520, Note_on_c, 0, 66, 63
2, 49528, Note_on_c, 0, 68, 0
2, 49600, Note_on_c, 0, 64, 63
2, 49608, Note_on_c, 0, 66, 0
2, 49680, Note_on_c, 0, 62, 63
2, 49688, Note_on_c, 0, 64, 0
2, 49760, Note_on_c, 0, 60, 63
2, 49768, Note_on_c, 0, 62, 0
2, 49840, Note_on_c, 0, 59, 63
2, 49848, Note_on_c, 0, 60, 0
2, 49920, Note_on_c, 0, 57, 63
2, 49928, Note_on_c, 0, 59, 0
2, 50016, Note_on_c, 0, 56, 63
2, 50026, Note_on_c, 0, 57, 0
2, 50112, Note_on_c, 0, 54, 63
2, 50122, Note_on_c, 0, 56, 0
2, 50208, Note_on_c, 0, 52, 62
2, 50218, Note_on_c, 0, 54, 0
2, 50304, Note_on_c, 0, 51, 62
2, 50314, Note_on_c, 0, 52, 0
2, 50400, Note_on_c, 0, 52, 89
2, 50410, Note_on_c, 0, 51, 0
2, 50880, Note_on_c, 0, 52, 0
2, 51360, Note_on_c, 0, 62, 40
2, 51360, Note_on_c, 0, 59, 34
2, 51360, Note_on_c, 0, 52, 34
2, 51480, Note_on_c, 0, 52, 0
2, 51480, Note_on_c, 0, 59, 0
2, 51480, Note_on_c, 0, 62, 0
2, 51840, Note_on_c, 0, 60, 45
2, 51840, Note_on_c, 0, 57, 38
2, 51840, Note_on_c, 0, 52, 38
2, 52080, Note_on_c, 0, 52, 0
2, 52080, Note_on_c, 0, 57, 0
2, 52080, Note_on_c, 0, 60, 0
2, 52800, Note_on_c, 0, 82, 57
2, 53250, Note_on_c, 0, 82, 0
2, 53280, Note_on_c, 0, 82, 60
2, 54000, Note_on_c, 0, 82, 0
2, 54000, Note_on_c, 0, 81, 53
2, 54120, Note_on_c, 0, 79, 53
2, 54132, Note_on_c, 0, 81, 0
2, 54240, Note_on_c, 0, 77, 51
2, 54252, Note_on_c, 0, 79, 0
2, 54360, Note_on_c, 0, 75, 51
2, 54372, Note_on_c, 0, 77, 0
2, 54480, Note_on_c, 0, 74, 51
2, 54492, Note_on_c, 0, 75, 0
2, 54600, Note_on_c, 0, 72, 51
2, 54612, Note_on_c, 0, 74, 0
2, 54720, Note_on_c, 0, 70, 51
2, 54732, Note_on_c, 0, 72, 0
2, 54840, Note_on_c, 0, 69, 50
2, 54852, Note_on_c, 0, 70, 0
2, 54960, Note_on_c, 0, 67, 49
2, 54972, Note_on_c, 0, 69, 0
2, 55080, Note_on_c, 0, 65, 49
2, 55092, Note_on_c, 0, 67, 0
2, 55200, Note_on_c, 0, 63, 53
2, 55212, Note_on_c, 0, 65, 0
2, 55360, Note_on_c, 0, 62, 49
2, 55376, Note_on_c, 0, 63, 0
2, 55520, Note_on_c, 0, 60, 44
2, 55536, Note_on_c, 0, 62, 0
2, 55680, Note_on_c, 0, 58, 53
2, 55696, Note_on_c, 0, 60, 0
2, 56150, Note_on_c, 0, 58, 0
2, 56160, Note_on_c, 0, 58, 53
2, 58560, Note_on_c, 0, 58, 0
2, 58560, Note_on_c, 0, 67, 53
2, 58992, Note_on_c, 0, 67, 0
2, 59040, Note_on_c, 0, 67, 59
2, 60000, Note_on_c, 0, 67, 0
2, 60000, Note_on_c, 0, 67, 53
2, 60000, Note_on_c, 0, 73, 63
2, 60432, Note_on_c, 0, 73, 0
2, 60432, Note_on_c, 0, 67, 0
2, 60480, Note_on_c, 0, 73, 68
2, 60480, Note_on_c, 0, 67, 57
2, 61440, Note_on_c, 0, 67, 0
2, 61440, Note_on_c, 0, 73, 0
2, 61440, Note_on_c, 0, 73, 58
2, 61440, Note_on_c, 0, 76, 58
2, 61440, Note_on_c, 0, 79, 69
2, 61872, Note_on_c, 0, 79, 0
2, 61872, Note_on_c, 0, 76, 0
2, 61872, Note_on_c, 0, 73, 0
2, 61920, Note_on_c, 0, 73, 66
2, 61920, Note_on_c, 0, 76, 66
2, 61920, Note_on_c, 0, 79, 78
2, 62880, Note_on_c, 0, 79, 0
2, 62880, Note_on_c, 0, 78, 80
2, 63360, Note_on_c, 0, 78, 0
2, 63360, Note_on_c, 0, 77, 84
2, 64320, Note_on_c, 0, 77, 0
2, 64320, Note_on_c, 0, 76, 0
2, 64320, Note_on_c, 0, 73, 0
2, 64320, Note_on_c, 0, 78, 82
2, 64320, Note_on_c, 0, 76, 69
2, 64320, Note_on_c, 0, 73, 69
2, 64752, Note_on_c, 0, 73, 0
2, 64752, Note_on_c, 0, 76, 0
2, 64752, Note_on_c, 0, 78, 0
2, 64800, Note_on_c, 0, 71, 80
2, 64800, Note_on_c, 0, 74, 80
2, 64800, Note_on_c, 0, 78, 95
2, 66240, Note_on_c, 0, 78, 0
2, 66240, Note_on_c, 0, 74, 0
2, 66240, Note_on_c, 0, 71, 0
2, 66240, Note_on_c, 0, 71, 80
2, 66240, Note_on_c, 0, 78, 80
2, 66240, Note_on_c, 0, 83, 94
2, 67680, Note_on_c, 0, 83, 0
2, 67680, Note_on_c, 0, 78, 0
2, 67680, Note_on_c, 0, 71, 0
2, 67680, Note_on_c, 0, 66, 41
2, 67680, Note_on_c, 0, 71, 49
2, 67800, Note_on_c, 0, 71, 0
2, 67800, Note_on_c, 0, 66, 0
2, 68160, Note_on_c, 0, 72, 59
2, 68160, Note_on_c, 0, 60, 49
2, 68280, Note_on_c, 0, 60, 0
2, 68280, Note_on_c, 0, 72, 0
2, 69120, Note_on_c, 0, 72, 56
2, 69120, Note_on_c, 0, 67, 47
2, 69240, Note_on_c, 0, 67, 0
2, 69240, Note_on_c, 0, 72, 0
2, 69600, Note_on_c, 0, 75, 59
2, 69600, Note_on_c, 0, 63, 49
2, 69720, Note_on_c, 0, 63, 0
2, 69720, Note_on_c, 0, 75, 0
2, 70560, Note_on_c, 0, 75, 57
2, 70560, Note_on_c, 0, 69, 48
2, 70680, Note_on_c, 0, 69, 0
2, 70680, Note_on_c, 0, 75, 0
2, 71040, Note_on_c, 0, 76, 63
2, 71040, Note_on_c, 0, 64, 53
2, 71160, Note_on_c, 0, 64, 0
2, 71160, Note_on_c, 0, 76, 0
2, 72000, Note_on_c, 0, 76, 60
2, 72000, Note_on_c, 0, 71, 50
2, 72120, Note_on_c, 0, 71, 0
2, 72120, Note_on_c, 0, 76, 0
2, 72480, Note_on_c, 0, 77, 64
2, 72480, Note_on_c, 0, 65, 55
2, 72600, Note_on_c, 0, 65, 0
2, 72600, Note_on_c, 0, 77, 0
2, 73440, Note_on_c, 0, 68, 39
2, 73440, Note_on_c, 0, 71, 39
2, 73440, Note_on_c, 0, 76, 46
2, 73560, Note_on_c, 0, 76, 0
2, 73560, Note_on_c, 0, 71, 0
2, 73560, Note_on_c, 0, 68, 0
2, 73680, Note_on_c, 0, 77, 38
2, 73680, Note_on_c, 0, 71, 32
2, 73680, Note_on_c, 0, 68, 32
2, 73800, Note_on_c, 0, 68, 0
2, 73800, Note_on_c, 0, 71, 0
2, 73800, Note_on_c, 0, 77, 0
2, 73920, Note_on_c, 0, 77, 38
2, 73920, Note_on_c, 0, 71, 32
2, 73920, Note_on_c, 0, 68, 32
2, 74040, Note_on_c, 0, 68, 0
2, 74040, Note_on_c, 0, 71, 0
2, 74040, Note_on_c, 0, 77, 0
2, 74160, Note_on_c, 0, 77, 38
2, 74160, Note_on_c, 0, 71, 32
2, 74160, Note_on_c, 0, 68, 32
2, 74280, Note_on_c, 0, 68, 0
2, 74280, Note_on_c, 0, 71, 0
2, 74280, Note_on_c, 0, 77, 0
2, 74400, Note_on_c, 0, 77, 38
2, 74400, Note_on_c, 0, 71, 32
2, 74400, Note_on_c, 0, 68, 32
2, 74520, Note_on_c, 0, 68, 0
2, 74520, Note_on_c, 0, 71, 0
2, 74520, Note_on_c, 0, 77, 0
2, 74640, Note_on_c, 0, 77, 38
2, 74640, Note_on_c, 0, 71, 32
2, 74640, Note_on_c, 0, 68, 32
2, 74760, Note_on_c, 0, 68, 0
2, 74760, Note_on_c, 0, 71, 0
2, 74760, Note_on_c, 0, 77, 0
2, 74880, Note_on_c, 0, 68, 39
2, 74880, Note_on_c, 0, 71, 39
2, 74880, Note_on_c, 0, 77, 46
2, 75000, Note_on_c, 0, 77, 0
2, 75000, Note_on_c, 0, 71, 0
2, 75000, Note_on_c, 0, 68, 0
2, 75120, Note_on_c, 0, 77, 52
2, 75120, Note_on_c, 0, 71, 44
2, 75120, Note_on_c, 0, 68, 44
2, 75240, Note_on_c, 0, 68, 0
2, 75240, Note_on_c, 0, 71, 0
2, 75240, Note_on_c, 0, 77, 0
2, 75360, Note_on_c, 0, 77, 58
2, 75360, Note_on_c, 0, 71, 48
2, 75360, Note_on_c, 0, 68, 48
2, 75480, Note_on_c, 0, 68, 0
2, 75480, Note_on_c, 0, 71, 0
2, 75480, Note_on_c, 0, 77, 0
2, 75600, Note_on_c, 0, 77, 63
2, 75600, Note_on_c, 0, 71, 53
2, 75600, Note_on_c, 0, 68, 53
2, 75720, Note_on_c, 0, 68, 0
2, 75720, Note_on_c, 0, 71, 0
2, 75720, Note_on_c, 0, 77, 0
2, 75840, Note_on_c, 0, 77, 69
2, 75840, Note_on_c, 0, 71, 59
2, 75840, Note_on_c, 0, 68, 59
2, 75960, Note_on_c, 0, 68, 0
2, 75960, Note_on_c, 0, 71, 0
2, 75960, Note_on_c, 0, 77, 0
2, 76080, Note_on_c, 0, 77, 75
2, 76080, Note_on_c, 0, 71, 63
2, 76080, Note_on_c, 0, 68, 63
2, 76200, Note_on_c, 0, 68, 0
2, 76200, Note_on_c, 0, 71, 0
2, 76200, Note_on_c, 0, 77, 0
2, 76320, Note_on_c, 0, 78, 77
2, 76320, Note_on_c, 0, 82, 77
2, 76320, Note_on_c, 0, 85, 77
2, 76320, Note_on_c, 0, 88, 91
2, 76320, Note_on_c, 0, 90, 91
2, 76440, Note_on_c, 0, 90, 0
2, 76440, Note_on_c, 0, 85, 0
2, 76440, Note_on_c, 0, 78, 0
2, 76440, Note_on_c, 0, 82, 0
2, 76440, Note_on_c, 0, 88, 0
2, 76560, Note_on_c, 0, 79, 70
2, 76560, Note_on_c, 0, 82, 70
2, 76560, Note_on_c, 0, 85, 70
2, 76560, Note_on_c, 0, 88, 83
2, 76560, Note_on_c, 0, 91, 83
2, 76680, Note_on_c, 0, 91, 0
2, 76680, Note_on_c, 0, 85, 0
2, 76680, Note_on_c, 0, 79, 0
2, 76680, Note_on_c, 0, 82, 0
2, 76680, Note_on_c, 0, 88, 0
2, 76800, Note_on_c, 0, 79, 70
2, 76800, Note_on_c, 0, 82, 70
2, 76800, Note_on_c, 0, 85, 70
2, 76800, Note_on_c, 0, 88, 83
2, 76800, Note_on_c, 0, 91, 83
2, 76920, Note_on_c, 0, 91, 0
2, 76920, Note_on_c, 0, 85, 0
2, 76920, Note_on_c, 0, 79, 0
2, 76920, Note_on_c, 0, 82, 0
2, 76920, Note_on_c, 0, 88, 0
2, 77040, Note_on_c, 0, 79, 70
2, 77040, Note_on_c, 0, 82, 70
2, 77040, Note_on_c, 0, 85, 70
2, 77040, Note_on_c, 0, 88, 83
2, 77040, Note_on_c, 0, 91, 83
2, 77160, Note_on_c, 0, 91, 0
2, 77160, Note_on_c, 0, 85, 0
2, 77160, Note_on_c, 0, 79, 0
2, 77160, Note_on_c, 0, 82, 0
2, 77160, Note_on_c, 0, 88, 0
2, 77280, Note_on_c, 0, 79, 70
2, 77280, Note_on_c, 0, 82, 70
2, 77280, Note_on_c, 0, 85, 70
2, 77280, Note_on_c, 0, 88, 83
2, 77280, Note_on_c, 0, 91, 83
2, 77400, Note_on_c, 0, 91, 0
2, 77400, Note_on_c, 0, 85, 0
2, 77400, Note_on_c, 0, 79, 0
2, 77400, Note_on_c, 0, 82, 0
2, 77400, Note_on_c, 0, 88, 0
2, 77520, Note_on_c, 0, 79, 70
2, 77520, Note_on_c, 0, 82, 70
2, 77520, Note_on_c, 0, 85, 70
2, 77520, Note_on_c, 0, 88, 83
2, 77520, Note_on_c, 0, 91, 83
2, 77640, Note_on_c, 0, 91, 0
2, 77640, Note_on_c, 0, 85, 0
2, 77640, Note_on_c, 0, 79, 0
2, 77640, Note_on_c, 0, 82, 0
2, 77640, Note_on_c, 0, 88, 0
2, 77760, Note_on_c, 0, 79, 71
2, 77760, Note_on_c, 0, 82, 71
2, 77760, Note_on_c, 0, 85, 71
2, 77760, Note_on_c, 0, 88, 85
2, 77760, Note_on_c, 0, 91, 85
2, 77880, Note_on_c, 0, 91, 0
2, 77880, Note_on_c, 0, 85, 0
2, 77880, Note_on_c, 0, 79, 0
2, 77880, Note_on_c, 0, 82, 0
2, 77880, Note_on_c, 0, 88, 0
2, 78000, Note_on_c, 0, 79, 65
2, 78000, Note_on_c, 0, 82, 65
2, 78000, Note_on_c, 0, 85, 65
2, 78000, Note_on_c, 0, 88, 77
2, 78000, Note_on_c, 0, 91, 77
2, 78120, Note_on_c, 0, 91, 0
2, 78120, Note_on_c, 0, 85, 0
2, 78120, Note_on_c, 0, 79, 0
2, 78120, Note_on_c, 0, 82, 0
2, 78120, Note_on_c, 0, 88, 0
2, 78240, Note_on_c, 0, 79, 63
2, 78240, Note_on_c, 0, 82, 63
2, 78240, Note_on_c, 0, 85, 63
2, 78240, Note_on_c, 0, 88, 74
2, 78240, Note_on_c, 0, 91, 74
2, 78360, Note_on_c, 0, 91, 0
2, 78360, Note_on_c, 0, 85, 0
2, 78360, Note_on_c, 0, 79, 0
2, 78360, Note_on_c, 0, 82, 0
2, 78360, Note_on_c, 0, 88, 0
2, 78480, Note_on_c, 0, 79, 57
2, 78480, Note_on_c, 0, 82, 57
2, 78480, Note_on_c, 0, 85, 57
2, 78480, Note_on_c, 0, 88, 67
2, 78480, Note_on_c, 0, 91, 67
2, 78600, Note_on_c, 0, 91, 0
2, 78600, Note_on_c, 0, 85, 0
2, 78600, Note_on_c, 0, 79, 0
2, 78600, Note_on_c, 0, 82, 0
2, 78600, Note_on_c, 0, 88, 0
2, 78720, Note_on_c, 0, 79, 51
2, 78720, Note_on_c, 0, 82, 51
2, 78720, Note_on_c, 0, 85, 51
2, 78720, Note_on_c, 0, 88, 60
2, 78720, Note_on_c, 0, 91, 60
2, 78840, Note_on_c, 0, 91, 0
2, 78840, Note_on_c, 0, 85, 0
2, 78840, Note_on_c, 0, 79, 0
2, 78840, Note_on_c, 0, 82, 0
2, 78840, Note_on_c, 0, 88, 0
2, 78960, Note_on_c, 0, 79, 47
2, 78960, Note_on_c, 0, 82, 47
2, 78960, Note_on_c, 0, 85, 47
2, 78960, Note_on_c, 0, 88, 56
2, 78960, Note_on_c, 0, 91, 56
2, 79080, Note_on_c, 0, 91, 0
2, 79080, Note_on_c, 0, 85, 0
2, 79080, Note_on_c, 0, 79, 0
2, 79080, Note_on_c, 0, 82, 0
2, 79080, Note_on_c, 0, 88, 0
2, 79200, Note_on_c, 0, 91, 56
2, 79200, Note_on_c, 0, 79, 56
2, 79680, Note_on_c, 0, 79, 0
2, 79680, Note_on_c, 0, 91, 0
2, 79680, Note_on_c, 0, 90, 56
2, 79680, Note_on_c, 0, 78, 56
2, 81120, Note_on_c, 0, 78, 0
2, 81120, Note_on_c, 0, 90, 0
2, 81120, Note_on_c, 0, 71, 56
2, 81120, Note_on_c, 0, 83, 56
2, 82560, Note_on_c, 0, 83, 0
2, 82560, Note_on_c, 0, 71, 0
2, 82560, Note_on_c, 0, 66, 56
2, 82560, Note_on_c, 0, 78, 56
2, 84000, Note_on_c, 0, 78, 0
2, 84000, Note_on_c, 0, 66, 0
2, 84000, Note_on_c, 0, 59, 56
2, 84000, Note_on_c, 0, 71, 56
2, 84960, Note_on_c, 0, 59, 0
2, 85440, Note_on_c, 0, 71, 0
2, 85440, Note_on_c, 0, 67, 63
2, 85920, Note_on_c, 0, 67, 0
2, 85920, Note_on_c, 0, 66, 57
2, 86390, Note_on_c, 0, 66, 0
2, 86400, Note_on_c, 0, 66, 65
2, 87360, Note_on_c, 0, 66, 0
2, 87360, Note_on_c, 0, 70, 58
2, 87840, Note_on_c, 0, 70, 0
2, 87840, Note_on_c, 0, 71, 56
2, 88080, Note_on_c, 0, 71, 0
2, 88080, Note_on_c, 0, 79, 68
2, 88320, Note_on_c, 0, 79, 0
2, 88320, Note_on_c, 0, 91, 74
2, 89040, Note_on_c, 0, 91, 0
2, 89040, Note_on_c, 0, 90, 56
2, 89280, Note_on_c, 0, 90, 0
2, 89520, Note_on_c, 0, 90, 69
2, 89760, Note_on_c, 0, 90, 0
2, 89760, Note_on_c, 0, 85, 66
2, 90480, Note_on_c, 0, 85, 0
2, 90480, Note_on_c, 0, 83, 51
2, 90720, Note_on_c, 0, 83, 0
2, 90960, Note_on_c, 0, 83, 73
2, 91200, Note_on_c, 0, 83, 0
2, 91200, Note_on_c, 0, 79, 70
2, 91920, Note_on_c, 0, 79, 0
2, 91920, Note_on_c, 0, 78, 53
2, 92160, Note_on_c, 0, 78, 0
2, 92400, Note_on_c, 0, 78, 70
2, 92640, Note_on_c, 0, 78, 0
2, 92640, Note_on_c, 0, 73, 65
2, 93360, Note_on_c, 0, 73, 0
2, 93360, Note_on_c, 0, 71, 56
2, 93590, Note_on_c, 0, 71, 0
2, 93600, Note_on_c, 0, 71, 63
2, 94080, Note_on_c, 0, 71, 0
2, 94080, Note_on_c, 0, 67, 63
2, 94560, Note_on_c, 0, 67, 0
2, 94560, Note_on_c, 0, 66, 65
2, 95030, Note_on_c, 0, 66, 0
2, 95040, Note_on_c, 0, 66, 71
2, 95280, Note_on_c, 0, 66, 0
2, 95280, Note_on_c, 0, 62, 65
2, 95520, Note_on_c, 0, 62, 0
2, 95520, Note_on_c, 0, 59, 71
2, 95760, Note_on_c, 0, 59, 0
2, 95760, Note_on_c, 0, 55, 65
2, 96000, Note_on_c, 0, 55, 0
2, 96000, Note_on_c, 0, 54, 70
2, 96240, Note_on_c, 0, 54, 0
2, 96240, Note_on_c, 0, 58, 76
2, 96480, Note_on_c, 0, 58, 0
2, 96480, Note_on_c, 0, 59, 80
2, 96960, Note_on_c, 0, 59, 0
2, 97920, Note_on_c, 0, 59, 79
2, 97920, Note_on_c, 0, 55, 67
2, 99360, Note_on_c, 0, 55, 0
2, 99360, Note_on_c, 0, 59, 0
2, 99360, Note_on_c, 0, 60, 34
2, 99360, Note_on_c, 0, 55, 28
2, 100320, Note_on_c, 0, 60, 0
2, 100320, Note_on_c, 0, 67, 39
2, 100800, Note_on_c, 0, 55, 0
2, 100800, Note_on_c, 0, 64, 27
2, 100800, Note_on_c, 0, 58, 27
2, 100800, Note_on_c, 0, 61, 27
2, 101760, Note_on_c, 0, 67, 0
2, 101760, Note_on_c, 0, 66, 33
2, 102230, Note_on_c, 0, 66, 0
2, 102240, Note_on_c, 0, 61, 0
2, 102240, Note_on_c, 0, 58, 0
2, 102240, Note_on_c, 0, 64, 0
2, 102240, Note_on_c, 0, 66, 40
2, 102240, Note_on_c, 0, 62, 34
2, 102240, Note_on_c, 0, 59, 34
2, 102720, Note_on_c, 0, 59, 0
2, 102720, Note_on_c, 0, 62, 0
2, 102720, Note_on_c, 0, 66, 0
2, 103680, Note_on_c, 0, 59, 79
2, 103680, Note_on_c, 0, 55, 67
2, 105120, Note_on_c, 0, 55, 0
2, 105120, Note_on_c, 0, 59, 0
2, 105120, Note_on_c, 0, 60, 34
2, 105120, Note_on_c, 0, 55, 28
2, 106080, Note_on_c, 0, 60, 0
2, 106080, Note_on_c, 0, 67, 39
2, 106560, Note_on_c, 0, 55, 0
2, 106560, Note_on_c, 0, 64, 27
2, 106560, Note_on_c, 0, 58, 27
2, 106560, Note_on_c, 0, 61, 27
2, 107520, Note_on_c, 0, 67, 0
2, 107520, Note_on_c, 0, 66, 33
2, 107990, Note_on_c, 0, 66, 0
2, 108000, Note_on_c, 0, 61, 0
2, 108000, Note_on_c, 0, 58, 0
2, 108000, Note_on_c, 0, 64, 0
2, 108987, Note_on_c, 0, 67, 39
2, 109440, Note_on_c, 0, 59, 24
2, 109440, Note_on_c, 0, 62, 24
2, 110427, Note_on_c, 0, 67, 0
2, 110427, Note_on_c, 0, 66, 33
2, 110880, Note_on_c, 0, 62, 0
2, 110880, Note_on_c, 0, 59, 0
2, 110907, Note_on_c, 0, 66, 0
2, 111867, Note_on_c, 0, 67, 39
2, 112320, Note_on_c, 0, 61, 24
2, 112320, Note_on_c, 0, 64, 24
2, 113280, Note_on_c, 0, 70, 33
2, 113307, Note_on_c, 0, 67, 0
2, 113760, Note_on_c, 0, 61, 0
2, 113760, Note_on_c, 0, 64, 0
2, 113760, Note_on_c, 0, 70, 0
2, 113760, Note_on_c, 0, 59, 28
2, 113760, Note_on_c, 0, 62, 28
2, 113760, Note_on_c, 0, 71, 33
2, 114240, Note_on_c, 0, 71, 0
2, 114240, Note_on_c, 0, 62, 0
2, 114240, Note_on_c, 0, 59, 0
2, 115200, Note_on_c, 0, 59, 28
2, 115200, Note_on_c, 0, 62, 28
2, 115200, Note_on_c, 0, 71, 33
2, 115680, Note_on_c, 0, 71, 0
2, 115680, Note_on_c, 0, 62, 0
2, 115680, Note_on_c, 0, 59, 0
2, 116640, Note_on_c, 0, 59, 28
2, 116640, Note_on_c, 0, 62, 28
2, 116640, Note_on_c, 0, 71, 33
2, 117120, Note_on_c, 0, 71, 0
2, 117120, Note_on_c, 0, 62, 0
2, 117120, Note_on_c, 0, 59, 0
2, 118080, Note_on_c, 0, 71, 33
2, 119510, Note_on_c, 0, 71, 0
2, 119520, Note_on_c, 0, 71, 33
2, 120950, Note_on_c, 0, 71, 0
2, 120960, Note_on_c, 0, 71, 33
2, 121910, Note_on_c, 0, 71, 0
2, 121920, Note_on_c, 0, 81, 42
2, 121920, Note_on_c, 0, 71, 34
2, 122040, Note_on_c, 0, 71, 0
2, 122040, Note_on_c, 0, 81, 0
2, 122160, Note_on_c, 0, 71, 33
2, 122280, Note_on_c, 0, 71, 0
2, 122400, Note_on_c, 0, 71, 34
2, 122400, Note_on_c, 0, 81, 46
2, 122520, Note_on_c, 0, 71, 0
2, 122640, Note_on_c, 0, 71, 30
2, 122760, Note_on_c, 0, 71, 0
2, 122880, Note_on_c, 0, 71, 30
2, 123000, Note_on_c, 0, 71, 0
2, 123120, Note_on_c, 0, 81, 0
2, 123120, Note_on_c, 0, 71, 30
2, 123120, Note_on_c, 0, 79, 42
2, 123240, Note_on_c, 0, 71, 0
2, 123360, Note_on_c, 0, 79, 0
2, 123360, Note_on_c, 0, 71, 30
2, 123360, Note_on_c, 0, 78, 37
2, 123480, Note_on_c, 0, 78, 0
2, 123480, Note_on_c, 0, 71, 0
2, 123600, Note_on_c, 0, 71, 30
2, 123720, Note_on_c, 0, 71, 0
2, 123840, Note_on_c, 0, 71, 34
2, 123840, Note_on_c, 0, 83, 46
2, 123840, Note_on_c, 0, 79, 46
2, 123960, Note_on_c, 0, 71, 0
2, 124080, Note_on_c, 0, 79, 0
2, 124080, Note_on_c, 0, 83, 0
2, 124080, Note_on_c, 0, 71, 30
2, 124200, Note_on_c, 0, 71, 0
2, 124320, Note_on_c, 0, 71, 30
2, 124440, Note_on_c, 0, 71, 0
2, 124560, Note_on_c, 0, 71, 30
2, 124680, Note_on_c, 0, 71, 0
2, 124800, Note_on_c, 0, 71, 30
2, 124800, Note_on_c, 0, 83, 40
2, 124800, Note_on_c, 0, 79, 22
2, 124920, Note_on_c, 0, 71, 0
2, 125040, Note_on_c, 0, 71, 30
2, 125160, Note_on_c, 0, 71, 0
2, 125280, Note_on_c, 0, 79, 0
2, 125280, Note_on_c, 0, 83, 0
2, 125280, Note_on_c, 0, 71, 34
2, 125280, Note_on_c, 0, 83, 46
2, 125280, Note_on_c, 0, 80, 27
2, 125400, Note_on_c, 0, 71, 0
2, 125520, Note_on_c, 0, 71, 30
2, 125640, Note_on_c, 0, 71, 0
2, 125760, Note_on_c, 0, 71, 30
2, 125880, Note_on_c, 0, 71, 0
2, 126000, Note_on_c, 0, 80, 0
2, 126000, Note_on_c, 0, 83, 0
2, 126000, Note_on_c, 0, 71, 30
2, 126000, Note_on_c, 0, 81, 40
2, 126120, Note_on_c, 0, 71, 0
2, 126240, Note_on_c, 0, 81, 0
2, 126240, Note_on_c, 0, 71, 30
2, 126240, Note_on_c, 0, 83, 37
2, 126240, Note_on_c, 0, 80, 24
2, 126360, Note_on_c, 0, 71, 0
2, 126480, Note_on_c, 0, 80, 0
2, 126480, Note_on_c, 0, 83, 0
2, 126480, Note_on_c, 0, 71, 30
2, 126600, Note_on_c, 0, 71, 0
2, 126720, Note_on_c, 0, 72, 34
2, 126720, Note_on_c, 0, 81, 46
2, 126720, Note_on_c, 0, 84, 25
2, 127200, Note_on_c, 0, 84, 0
2, 127200, Note_on_c, 0, 81, 0
2, 127200, Note_on_c, 0, 72, 0
2, 127680, Note_on_c, 0, 72, 48
2, 127680, Note_on_c, 0, 84, 48
2, 127800, Note_on_c, 0, 84, 0
2, 127800, Note_on_c, 0, 72, 0
2, 128160, Note_on_c, 0, 72, 54
2, 128160, Note_on_c, 0, 84, 54
2, 128880, Note_on_c, 0, 84, 0
2, 128880, Note_on_c, 0, 72, 0
2, 128880, Note_on_c, 0, 71, 54
2, 128880, Note_on_c, 0, 83, 54
2, 129120, Note_on_c, 0, 83, 0
2, 129120, Note_on_c, 0, 71, 0
2, 129120, Note_on_c, 0, 69, 48
2, 129120, Note_on_c, 0, 81, 48
2, 129240, Note_on_c, 0, 81, 0
2, 129240, Note_on_c, 0, 69, 0
2, 129600, Note_on_c, 0, 86, 64
2, 129600, Note_on_c, 0, 74, 64
2, 129840, Note_on_c, 0, 74, 0
2, 129840, Note_on_c, 0, 86, 0
2, 130560, Note_on_c, 0, 74, 64
2, 130560, Note_on_c, 0, 86, 64
2, 130680, Note_on_c, 0, 86, 0
2, 130680, Note_on_c, 0, 74, 0
2, 131040, Note_on_c, 0, 74, 73
2, 131040, Note_on_c, 0, 86, 73
2, 131760, Note_on_c, 0, 86, 0
2, 131760, Note_on_c, 0, 74, 0
2, 131760, Note_on_c, 0, 72, 69
2, 131760, Note_on_c, 0, 84, 69
2, 132000, Note_on_c, 0, 84, 0
2, 132000, Note_on_c, 0, 72, 0
2, 132000, Note_on_c, 0, 74, 64
2, 132000, Note_on_c, 0, 86, 64
2, 132120, Note_on_c, 0, 86, 0
2, 132120, Note_on_c, 0, 74, 0
2, 132480, Note_on_c, 0, 75, 81
2, 132480, Note_on_c, 0, 87, 97
2, 133200, Note_on_c, 0, 87, 0
2, 133200, Note_on_c, 0, 75, 0
2, 133200, Note_on_c, 0, 74, 62
2, 133200, Note_on_c, 0, 86, 74
2, 133440, Note_on_c, 0, 86, 0
2, 133440, Note_on_c, 0, 74, 0
2, 133440, Note_on_c, 0, 87, 84
2, 133440, Note_on_c, 0, 75, 71
2, 133680, Note_on_c, 0, 75, 0
2, 133680, Note_on_c, 0, 87, 0
2, 133920, Note_on_c, 0, 63, 89
2, 134640, Note_on_c, 0, 63, 0
2, 134640, Note_on_c, 0, 62, 62
2, 134880, Note_on_c, 0, 62, 0
2, 134880, Note_on_c, 0, 63, 71
2, 135120, Note_on_c, 0, 63, 0
2, 135360, Note_on_c, 0, 63, 75
2, 135366, Note_on_c, 0, 66, 90
2, 136080, Note_on_c, 0, 63, 0
2, 136080, Note_on_c, 0, 65, 63
2, 136080, Note_on_c, 0, 62, 53
2, 136086, Note_on_c, 0, 66, 0
2, 136320, Note_on_c, 0, 62, 0
2, 136320, Note_on_c, 0, 65, 0
2, 136320, Note_on_c, 0, 66, 73
2, 136320, Note_on_c, 0, 63, 62
2, 136560, Note_on_c, 0, 63, 0
2, 136560, Note_on_c, 0, 66, 0
2, 136800, Note_on_c, 0, 78, 92
2, 136800, Note_on_c, 0, 75, 78
2, 137520, Note_on_c, 0, 75, 0
2, 137520, Note_on_c, 0, 78, 0
2, 137520, Note_on_c, 0, 77, 65
2, 137520, Note_on_c, 0, 74, 55
2, 137760, Note_on_c, 0, 74, 0
2, 137760, Note_on_c, 0, 77, 0
2, 137760, Note_on_c, 0, 78, 75
2, 137760, Note_on_c, 0, 75, 63
2, 138000, Note_on_c, 0, 75, 0
2, 138000, Note_on_c, 0, 78, 0
2, 138240, Note_on_c, 0, 84, 94
2, 138240, Note_on_c, 0, 72, 79
2, 138960, Note_on_c, 0, 72, 0
2, 138960, Note_on_c, 0, 84, 0
2, 138960, Note_on_c, 0, 83, 66
2, 138960, Note_on_c, 0, 71, 56
2, 139200, Note_on_c, 0, 71, 0
2, 139200, Note_on_c, 0, 83, 0
2, 139200, Note_on_c, 0, 84, 77
2, 139200, Note_on_c, 0, 72, 65
2, 139440, Note_on_c, 0, 72, 0
2, 139440, Note_on_c, 0, 84, 0
2, 139680, Note_on_c, 0, 57, 97
2, 140400, Note_on_c, 0, 57, 0
2, 140400, Note_on_c, 0, 56, 68
2, 140640, Note_on_c, 0, 56, 0
2, 140640, Note_on_c, 0, 57, 78
2, 140880, Note_on_c, 0, 57, 0
2, 141120, Note_on_c, 0, 90, 99
2, 141120, Note_on_c, 0, 78, 82
2, 141840, Note_on_c, 0, 78, 0
2, 141840, Note_on_c, 0, 90, 0
2, 141840, Note_on_c, 0, 89, 70
2, 141840, Note_on_c, 0, 77, 58
2, 142080, Note_on_c, 0, 77, 0
2, 142080, Note_on_c, 0, 89, 0
2, 142080, Note_on_c, 0, 90, 80
2, 142080, Note_on_c, 0, 78, 68
2, 142320, Note_on_c, 0, 78, 0
2, 142320, Note_on_c, 0, 90, 0
2, 142560, Note_on_c, 0, 66, 71
2, 142560, Note_on_c, 0, 72, 85
2, 142560, Note_on_c, 0, 69, 71
2, 143280, Note_on_c, 0, 69, 0
2, 143280, Note_on_c, 0, 72, 0
2, 143280, Note_on_c, 0, 66, 0
2, 143280, Note_on_c, 0, 66, 59
2, 143280, Note_on_c, 0, 71, 71
2, 143280, Note_on_c, 0, 69, 59
2, 143520, Note_on_c, 0, 69, 0
2, 143520, Note_on_c, 0, 71, 0
2, 143520, Note_on_c, 0, 66, 0
2, 143520, Note_on_c, 0, 66, 69
2, 143520, Note_on_c, 0, 72, 81
2, 143520, Note_on_c, 0, 69, 69
2, 143760, Note_on_c, 0, 69, 0
2, 143760, Note_on_c, 0, 72, 0
2, 143760, Note_on_c, 0, 66, 0
2, 144000, Note_on_c, 0, 71, 93
2, 144000, Note_on_c, 0, 68, 80
2, 144000, Note_on_c, 0, 65, 80
2, 144480, Note_on_c, 0, 65, 0
2, 144480, Note_on_c, 0, 68, 0
2, 144480, Note_on_c, 0, 71, 0
2, 144720, Note_on_c, 0, 69, 32
2, 144720, Note_on_c, 0, 71, 32
2, 144720, Note_on_c, 0, 77, 45
2, 144840, Note_on_c, 0, 77, 0
2, 144840, Note_on_c, 0, 71, 0
2, 144840, Note_on_c, 0, 69, 0
2, 144960, Note_on_c, 0, 67, 32
2, 144960, Note_on_c, 0, 72, 32
2, 144960, Note_on_c, 0, 76, 45
2, 145080, Note_on_c, 0, 76, 0
2, 145080, Note_on_c, 0, 72, 0
2, 145080, Note_on_c, 0, 67, 0
2, 145440, Note_on_c, 0, 75, 52
2, 145440, Note_on_c, 0, 69, 37
2, 145440, Note_on_c, 0, 66, 37
2, 145920, Note_on_c, 0, 66, 0
2, 145920, Note_on_c, 0, 69, 0
2, 145920, Note_on_c, 0, 75, 0
2, 146160, Note_on_c, 0, 66, 32
2, 146160, Note_on_c, 0, 69, 32
2, 146160, Note_on_c, 0, 75, 45
2, 146280, Note_on_c, 0, 75, 0
2, 146280, Note_on_c, 0, 69, 0
2, 146280, Note_on_c, 0, 66, 0
2, 146400, Note_on_c, 0, 65, 32
2, 146400, Note_on_c, 0, 71, 32
2, 146400, Note_on_c, 0, 74, 45
2, 146520, Note_on_c, 0, 74, 0
2, 146520, Note_on_c, 0, 71, 0
2, 146520, Note_on_c, 0, 65, 0
2, 146880, Note_on_c, 0, 73, 50
2, 146880, Note_on_c, 0, 67, 35
2, 146880, Note_on_c, 0, 64, 35
2, 147360, Note_on_c, 0, 64, 0
2, 147360, Note_on_c, 0, 67, 0
2, 147360, Note_on_c, 0, 73, 0
2, 147600, Note_on_c, 0, 63, 32
2, 147600, Note_on_c, 0, 67, 32
2, 147600, Note_on_c, 0, 72, 45
2, 147720, Note_on_c, 0, 72, 0
2, 147720, Note_on_c, 0, 67, 0
2, 147720, Note_on_c, 0, 63, 0
2, 147840, Note_on_c, 0, 62, 32
2, 147840, Note_on_c, 0, 67, 32
2, 147840, Note_on_c, 0, 71, 45
2, 147960, Note_on_c, 0, 71, 0
2, 147960, Note_on_c, 0, 67, 0
2, 147960, Note_on_c, 0, 62, 0
2, 148320, Note_on_c, 0, 61, 42
2, 148320, Note_on_c, 0, 64, 42
2, 148320, Note_on_c, 0, 70, 50
2, 148440, Note_on_c, 0, 70, 0
2, 148440, Note_on_c, 0, 64, 0
2, 148440, Note_on_c, 0, 61, 0
2, 148800, Note_on_c, 0, 60, 42
2, 148800, Note_on_c, 0, 64, 42
2, 148800, Note_on_c, 0, 69, 50
2, 148920, Note_on_c, 0, 69, 0
2, 148920, Note_on_c, 0, 64, 0
2, 148920, Note_on_c, 0, 60, 0
2, 149280, Note_on_c, 0, 60, 42
2, 149280, Note_on_c, 0, 63, 42
2, 149280, Note_on_c, 0, 68, 50
2, 149400, Note_on_c, 0, 68, 0
2, 149400, Note_on_c, 0, 63, 0
2, 149400, Note_on_c, 0, 60, 0
2, 149760, Note_on_c, 0, 67, 54
2, 149880, Note_on_c, 0, 67, 0
2, 150240, Note_on_c, 0, 66, 55
2, 150360, Note_on_c, 0, 66, 0
2, 150720, Note_on_c, 0, 65, 58
2, 150840, Note_on_c, 0, 65, 0
2, 151200, Note_on_c, 0, 64, 60
2, 151320, Note_on_c, 0, 64, 0
2, 151680, Note_on_c, 0, 63, 60
2, 151800, Note_on_c, 0, 63, 0
2, 152160, Note_on_c, 0, 62, 60
2, 152280, Note_on_c, 0, 62, 0
2, 152640, Note_on_c, 0, 61, 60
2, 152760, Note_on_c, 0, 61, 0
2, 153120, Note_on_c, 0, 60, 64
2, 153240, Note_on_c, 0, 60, 0
2, 153600, Note_on_c, 0, 59, 68
2, 153720, Note_on_c, 0, 59, 0
2, 154080, Note_on_c, 0, 58, 63
2, 154200, Note_on_c, 0, 58, 0
2, 154560, Note_on_c, 0, 57, 50
2, 154680, Note_on_c, 0, 57, 0
2, 155040, Note_on_c, 0, 56, 46
2, 155160, Note_on_c, 0, 56, 0
2, 155520, Note_on_c, 0, 56, 42
2, 155760, Note_on_c, 0, 56, 0
2, 155760, Note_on_c, 0, 55, 33
2, 156000, Note_on_c, 0, 55, 0
2, 156000, Note_on_c, 0, 67, 43
2, 157910, Note_on_c, 0, 67, 0
2, 157920, Note_on_c, 0, 67, 43
2, 158880, Note_on_c, 0, 67, 0
2, 158880, Note_on_c, 0, 72, 48
2, 159360, Note_on_c, 0, 72, 0
2, 159360, Note_on_c, 0, 69, 43
2, 159840, Note_on_c, 0, 69, 0
2, 159840, Note_on_c, 0, 67, 47
2, 160320, Note_on_c, 0, 67, 0
2, 160320, Note_on_c, 0, 65, 43
2, 160790, Note_on_c, 0, 65, 0
2, 160800, Note_on_c, 0, 65, 45
2, 161760, Note_on_c, 0, 65, 0
2, 161760, Note_on_c, 0, 74, 52
2, 162240, Note_on_c, 0, 74, 0
2, 162240, Note_on_c, 0, 65, 46
2, 163200, Note_on_c, 0, 65, 0
2, 163200, Note_on_c, 0, 64, 43
2, 163650, Note_on_c, 0, 64, 0
2, 163680, Note_on_c, 0, 64, 36
2, 163800, Note_on_c, 0, 64, 0
2, 163800, Note_on_c, 0, 67, 31
2, 163920, Note_on_c, 0, 67, 0
2, 163920, Note_on_c, 0, 72, 32
2, 164040, Note_on_c, 0, 72, 0
2, 164040, Note_on_c, 0, 76, 31
2, 164160, Note_on_c, 0, 76, 0
2, 164160, Note_on_c, 0, 77, 39
2, 164280, Note_on_c, 0, 77, 0
2, 164280, Note_on_c, 0, 72, 38
2, 164400, Note_on_c, 0, 72, 0
2, 164400, Note_on_c, 0, 69, 41
2, 164520, Note_on_c, 0, 69, 0
2, 164520, Note_on_c, 0, 65, 47
2, 164640, Note_on_c, 0, 65, 0
2, 164640, Note_on_c, 0, 69, 52
2, 164760, Note_on_c, 0, 69, 0
2, 164760, Note_on_c, 0, 72, 41
2, 164880, Note_on_c, 0, 72, 0
2, 164880, Note_on_c, 0, 77, 37
2, 165000, Note_on_c, 0, 77, 0
2, 165000, Note_on_c, 0, 81, 35
2, 165110, Note_on_c, 0, 81, 0
2, 165120, Note_on_c, 0, 81, 38
2, 165240, Note_on_c, 0, 81, 0
2, 165240, Note_on_c, 0, 74, 32
2, 165360, Note_on_c, 0, 74, 0
2, 165360, Note_on_c, 0, 81, 35
2, 165480, Note_on_c, 0, 81, 0
2, 165480, Note_on_c, 0, 86, 35
2, 165600, Note_on_c, 0, 86, 0
2, 165600, Note_on_c, 0, 81, 39
2, 165720, Note_on_c, 0, 81, 0
2, 165720, Note_on_c, 0, 74, 34
2, 165840, Note_on_c, 0, 74, 0
2, 165840, Note_on_c, 0, 81, 41
2, 165960, Note_on_c, 0, 81, 0
2, 165960, Note_on_c, 0, 82, 48
2, 166080, Note_on_c, 0, 82, 0
2, 166080, Note_on_c, 0, 79, 52
2, 166200, Note_on_c, 0, 79, 0
2, 166200, Note_on_c, 0, 74, 41
2, 166320, Note_on_c, 0, 74, 0
2, 166320, Note_on_c, 0, 79, 37
2, 166440, Note_on_c, 0, 79, 0
2, 166440, Note_on_c, 0, 82, 34
2, 166560, Note_on_c, 0, 82, 0
2, 166560, Note_on_c, 0, 79, 38
2, 166680, Note_on_c, 0, 79, 0
2, 166680, Note_on_c, 0, 73, 32
2, 166800, Note_on_c, 0, 73, 0
2, 166800, Note_on_c, 0, 79, 35
2, 166920, Note_on_c, 0, 79, 0
2, 166920, Note_on_c, 0, 82, 35
2, 167040, Note_on_c, 0, 82, 0
2, 167040, Note_on_c, 0, 79, 39
2, 167160, Note_on_c, 0, 79, 0
2, 167160, Note_on_c, 0, 72, 38
2, 167280, Note_on_c, 0, 72, 0
2, 167280, Note_on_c, 0, 79, 40
2, 167400, Note_on_c, 0, 79, 0
2, 167400, Note_on_c, 0, 82, 47
2, 167520, Note_on_c, 0, 82, 0
2, 167520, Note_on_c, 0, 76, 54
2, 167640, Note_on_c, 0, 76, 0
2, 167640, Note_on_c, 0, 72, 47
2, 167760, Note_on_c, 0, 72, 0
2, 167760, Note_on_c, 0, 76, 45
2, 167880, Note_on_c, 0, 76, 0
2, 167880, Note_on_c, 0, 79, 39
2, 167990, Note_on_c, 0, 79, 0
2, 168000, Note_on_c, 0, 79, 38
2, 168120, Note_on_c, 0, 79, 0
2, 168120, Note_on_c, 0, 76, 32
2, 168240, Note_on_c, 0, 76, 0
2, 168240, Note_on_c, 0, 79, 35
2, 168360, Note_on_c, 0, 79, 0
2, 168360, Note_on_c, 0, 84, 35
2, 168480, Note_on_c, 0, 84, 0
2, 168480, Note_on_c, 0, 79, 39
2, 168600, Note_on_c, 0, 79, 0
2, 168600, Note_on_c, 0, 76, 35
2, 168720, Note_on_c, 0, 76, 0
2, 168720, Note_on_c, 0, 79, 36
2, 168840, Note_on_c, 0, 79, 0
2, 168840, Note_on_c, 0, 84, 41
2, 168960, Note_on_c, 0, 84, 0
2, 168960, Note_on_c, 0, 81, 46
2, 169080, Note_on_c, 0, 81, 0
2, 169080, Note_on_c, 0, 77, 32
2, 169200, Note_on_c, 0, 77, 0
2, 169200, Note_on_c, 0, 81, 32
2, 169320, Note_on_c, 0, 81, 0
2, 169320, Note_on_c, 0, 84, 32
2, 169440, Note_on_c, 0, 84, 0
2, 169440, Note_on_c, 0, 81, 38
2, 169560, Note_on_c, 0, 81, 0
2, 169560, Note_on_c, 0, 77, 32
2, 169680, Note_on_c, 0, 77, 0
2, 169680, Note_on_c, 0, 81, 35
2, 169800, Note_on_c, 0, 81, 0
2, 169800, Note_on_c, 0, 84, 35
2, 169920, Note_on_c, 0, 84, 0
2, 169920, Note_on_c, 0, 81, 46
2, 170040, Note_on_c, 0, 81, 0
2, 170040, Note_on_c, 0, 77, 37
2, 170160, Note_on_c, 0, 77, 0
2, 170160, Note_on_c, 0, 81, 38
2, 170280, Note_on_c, 0, 81, 0
2, 170280, Note_on_c, 0, 86, 37
2, 170400, Note_on_c, 0, 86, 0
2, 170400, Note_on_c, 0, 81, 45
2, 170520, Note_on_c, 0, 81, 0
2, 170520, Note_on_c, 0, 77, 38
2, 170640, Note_on_c, 0, 77, 0
2, 170640, Note_on_c, 0, 81, 38
2, 170760, Note_on_c, 0, 81, 0
2, 170760, Note_on_c, 0, 86, 38
2, 170880, Note_on_c, 0, 86, 0
2, 170880, Note_on_c, 0, 82, 45
2, 171000, Note_on_c, 0, 82, 0
2, 171000, Note_on_c, 0, 77, 39
2, 171120, Note_on_c, 0, 77, 0
2, 171120, Note_on_c, 0, 82, 43
2, 171240, Note_on_c, 0, 82, 0
2, 171240, Note_on_c, 0, 86, 43
2, 171360, Note_on_c, 0, 86, 0
2, 171360, Note_on_c, 0, 83, 47
2, 171480, Note_on_c, 0, 83, 0
2, 171480, Note_on_c, 0, 77, 38
2, 171600, Note_on_c, 0, 77, 0
2, 171600, Note_on_c, 0, 83, 39
2, 171720, Note_on_c, 0, 83, 0
2, 171720, Note_on_c, 0, 86, 38
2, 171840, Note_on_c, 0, 86, 0
2, 171840, Note_on_c, 0, 83, 47
2, 171960, Note_on_c, 0, 83, 0
2, 171960, Note_on_c, 0, 76, 39
2, 172080, Note_on_c, 0, 76, 0
2, 172080, Note_on_c, 0, 83, 40
2, 172200, Note_on_c, 0, 83, 0
2, 172200, Note_on_c, 0, 86, 40
2, 172320, Note_on_c, 0, 86, 0
2, 172320, Note_on_c, 0, 83, 47
2, 172440, Note_on_c, 0, 83, 0
2, 172440, Note_on_c, 0, 76, 40
2, 172560, Note_on_c, 0, 76, 0
2, 172560, Note_on_c, 0, 83, 45
2, 172680, Note_on_c, 0, 83, 0
2, 172680, Note_on_c, 0, 86, 45
2, 172800, Note_on_c, 0, 86, 0
2, 172800, Note_on_c, 0, 83, 50
2, 172920, Note_on_c, 0, 83, 0
2, 172920, Note_on_c, 0, 76, 40
2, 173040, Note_on_c, 0, 76, 0
2, 173040, Note_on_c, 0, 83, 42
2, 173160, Note_on_c, 0, 83, 0
2, 173160, Note_on_c, 0, 86, 41
2, 173280, Note_on_c, 0, 86, 0
2, 173280, Note_on_c, 0, 83, 50
2, 173400, Note_on_c, 0, 83, 0
2, 173400, Note_on_c, 0, 76, 42
2, 173520, Note_on_c, 0, 76, 0
2, 173520, Note_on_c, 0, 83, 42
2, 173640, Note_on_c, 0, 83, 0
2, 173640, Note_on_c, 0, 86, 42
2, 173760, Note_on_c, 0, 86, 0
2, 173760, Note_on_c, 0, 83, 50
2, 173880, Note_on_c, 0, 83, 0
2, 173880, Note_on_c, 0, 76, 43
2, 174000, Note_on_c, 0, 76, 0
2, 174000, Note_on_c, 0, 83, 47
2, 174120, Note_on_c, 0, 83, 0
2, 174120, Note_on_c, 0, 86, 48
2, 174240, Note_on_c, 0, 86, 0
2, 174240, Note_on_c, 0, 83, 53
2, 174360, Note_on_c, 0, 83, 0
2, 174360, Note_on_c, 0, 76, 44
2, 174480, Note_on_c, 0, 76, 0
2, 174480, Note_on_c, 0, 83, 51
2, 174600, Note_on_c, 0, 83, 0
2, 174600, Note_on_c, 0, 84, 55
2, 174720, Note_on_c, 0, 84, 0
2, 174720, Note_on_c, 0, 81, 52
2, 174840, Note_on_c, 0, 81, 0
2, 174840, Note_on_c, 0, 76, 50
2, 174960, Note_on_c, 0, 76, 0
2, 174960, Note_on_c, 0, 81, 48
2, 175080, Note_on_c, 0, 81, 0
2, 175080, Note_on_c, 0, 84, 47
2, 175200, Note_on_c, 0, 84, 0
2, 175200, Note_on_c, 0, 81, 54
2, 175320, Note_on_c, 0, 81, 0
2, 175320, Note_on_c, 0, 76, 45
2, 175440, Note_on_c, 0, 76, 0
2, 175440, Note_on_c, 0, 81, 50
2, 175560, Note_on_c, 0, 81, 0
2, 175560, Note_on_c, 0, 84, 48
2, 175680, Note_on_c, 0, 84, 0
2, 175680, Note_on_c, 0, 81, 56
2, 175800, Note_on_c, 0, 81, 0
2, 175800, Note_on_c, 0, 74, 48
2, 175920, Note_on_c, 0, 74, 0
2, 175920, Note_on_c, 0, 81, 55
2, 176040, Note_on_c, 0, 81, 0
2, 176040, Note_on_c, 0, 83, 56
2, 176160, Note_on_c, 0, 83, 0
2, 176160, Note_on_c, 0, 80, 59
2, 176280, Note_on_c, 0, 80, 0
2, 176280, Note_on_c, 0, 74, 52
2, 176400, Note_on_c, 0, 74, 0
2, 176400, Note_on_c, 0, 80, 51
2, 176520, Note_on_c, 0, 80, 0
2, 176520, Note_on_c, 0, 83, 48
2, 176640, Note_on_c, 0, 83, 0
2, 176640, Note_on_c, 0, 80, 56
2, 176760, Note_on_c, 0, 80, 0
2, 176760, Note_on_c, 0, 74, 48
2, 176880, Note_on_c, 0, 74, 0
2, 176880, Note_on_c, 0, 80, 54
2, 177000, Note_on_c, 0, 80, 0
2, 177000, Note_on_c, 0, 83, 51
2, 177120, Note_on_c, 0, 83, 0
2, 177120, Note_on_c, 0, 80, 59
2, 177240, Note_on_c, 0, 80, 0
2, 177240, Note_on_c, 0, 72, 56
2, 177360, Note_on_c, 0, 72, 0
2, 177360, Note_on_c, 0, 80, 58
2, 177480, Note_on_c, 0, 80, 0
2, 177480, Note_on_c, 0, 83, 60
2, 177600, Note_on_c, 0, 83, 0
2, 177600, Note_on_c, 0, 80, 61
2, 177720, Note_on_c, 0, 80, 0
2, 177720, Note_on_c, 0, 81, 54
2, 177840, Note_on_c, 0, 81, 0
2, 177840, Note_on_c, 0, 72, 50
2, 177960, Note_on_c, 0, 72, 0
2, 177960, Note_on_c, 0, 81, 50
2, 178080, Note_on_c, 0, 81, 0
2, 178080, Note_on_c, 0, 80, 59
2, 178200, Note_on_c, 0, 80, 0
2, 178200, Note_on_c, 0, 81, 50
2, 178320, Note_on_c, 0, 81, 0
2, 178320, Note_on_c, 0, 72, 56
2, 178440, Note_on_c, 0, 72, 0
2, 178440, Note_on_c, 0, 81, 53
2, 178550, Note_on_c, 0, 81, 0
2, 178560, Note_on_c, 0, 81, 62
2, 178680, Note_on_c, 0, 81, 0
2, 178680, Note_on_c, 0, 71, 52
2, 178800, Note_on_c, 0, 71, 0
2, 178800, Note_on_c, 0, 81, 53
2, 178920, Note_on_c, 0, 81, 0
2, 178920, Note_on_c, 0, 83, 55
2, 179040, Note_on_c, 0, 83, 0
2, 179040, Note_on_c, 0, 81, 60
2, 179160, Note_on_c, 0, 81, 0
2, 179160, Note_on_c, 0, 71, 56
2, 179280, Note_on_c, 0, 71, 0
2, 179280, Note_on_c, 0, 81, 49
2, 179400, Note_on_c, 0, 81, 0
2, 179400, Note_on_c, 0, 83, 49
2, 179520, Note_on_c, 0, 83, 0
2, 179520, Note_on_c, 0, 81, 63
2, 179640, Note_on_c, 0, 81, 0
2, 179640, Note_on_c, 0, 71, 53
2, 179760, Note_on_c, 0, 71, 0
2, 179760, Note_on_c, 0, 81, 58
2, 179880, Note_on_c, 0, 81, 0
2, 179880, Note_on_c, 0, 83, 58
2, 180000, Note_on_c, 0, 83, 0
2, 180000, Note_on_c, 0, 81, 65
2, 180120, Note_on_c, 0, 81, 0
2, 180120, Note_on_c, 0, 71, 54
2, 180240, Note_on_c, 0, 71, 0
2, 180240, Note_on_c, 0, 81, 58
2, 180360, Note_on_c, 0, 81, 0
2, 180360, Note_on_c, 0, 83, 60
2, 180480, Note_on_c, 0, 83, 0
2, 180480, Note_on_c, 0, 81, 62
2, 180600, Note_on_c, 0, 81, 0
2, 180600, Note_on_c, 0, 71, 60
2, 180720, Note_on_c, 0, 71, 0
2, 180720, Note_on_c, 0, 81, 56
2, 180840, Note_on_c, 0, 81, 0
2, 180840, Note_on_c, 0, 83, 54
2, 180960, Note_on_c, 0, 83, 0
2, 180960, Note_on_c, 0, 81, 64
2, 181080, Note_on_c, 0, 81, 0
2, 181080, Note_on_c, 0, 71, 56
2, 181200, Note_on_c, 0, 71, 0
2, 181200, Note_on_c, 0, 81, 62
2, 181320, Note_on_c, 0, 81, 0
2, 181320, Note_on_c, 0, 83, 58
2, 181440, Note_on_c, 0, 83, 0
2, 181440, Note_on_c, 0, 81, 68
2, 181560, Note_on_c, 0, 81, 0
2, 181560, Note_on_c, 0, 71, 59
2, 181680, Note_on_c, 0, 71, 0
2, 181680, Note_on_c, 0, 81, 62
2, 181800, Note_on_c, 0, 81, 0
2, 181800, Note_on_c, 0, 83, 64
2, 181920, Note_on_c, 0, 83, 0
2, 181920, Note_on_c, 0, 81, 67
2, 182040, Note_on_c, 0, 81, 0
2, 182040, Note_on_c, 0, 71, 64
2, 182160, Note_on_c, 0, 71, 0
2, 182160, Note_on_c, 0, 81, 62
2, 182280, Note_on_c, 0, 81, 0
2, 182280, Note_on_c, 0, 83, 62
2, 182400, Note_on_c, 0, 83, 0
2, 182400, Note_on_c, 0, 81, 69
2, 182520, Note_on_c, 0, 81, 0
2, 182520, Note_on_c, 0, 71, 58
2, 182640, Note_on_c, 0, 71, 0
2, 182640, Note_on_c, 0, 81, 64
2, 182760, Note_on_c, 0, 81, 0
2, 182760, Note_on_c, 0, 83, 61
2, 182880, Note_on_c, 0, 83, 0
2, 182880, Note_on_c, 0, 79, 72
2, 183000, Note_on_c, 0, 79, 0
2, 183000, Note_on_c, 0, 71, 62
2, 183120, Note_on_c, 0, 71, 0
2, 183120, Note_on_c, 0, 79, 64
2, 183240, Note_on_c, 0, 79, 0
2, 183240, Note_on_c, 0, 83, 65
2, 183360, Note_on_c, 0, 83, 0
2, 183360, Note_on_c, 0, 79, 70
2, 183480, Note_on_c, 0, 79, 0
2, 183480, Note_on_c, 0, 71, 67
2, 183600, Note_on_c, 0, 71, 0
2, 183600, Note_on_c, 0, 79, 65
2, 183720, Note_on_c, 0, 79, 0
2, 183720, Note_on_c, 0, 83, 63
2, 183830, Note_on_c, 0, 83, 0
2, 183840, Note_on_c, 0, 83, 73
2, 183960, Note_on_c, 0, 83, 0
2, 183960, Note_on_c, 0, 76, 61
2, 184080, Note_on_c, 0, 76, 0
2, 184080, Note_on_c, 0, 83, 67
2, 184200, Note_on_c, 0, 83, 0
2, 184200, Note_on_c, 0, 88, 64
2, 184320, Note_on_c, 0, 88, 0
2, 184320, Note_on_c, 0, 84, 64
2, 184440, Note_on_c, 0, 84, 0
2, 184440, Note_on_c, 0, 76, 66
2, 184560, Note_on_c, 0, 76, 0
2, 184560, Note_on_c, 0, 84, 69
2, 184680, Note_on_c, 0, 84, 0
2, 184680, Note_on_c, 0, 88, 72
2, 184800, Note_on_c, 0, 88, 0
2, 184800, Note_on_c, 0, 84, 78
2, 184920, Note_on_c, 0, 84, 0
2, 184920, Note_on_c, 0, 76, 74
2, 185040, Note_on_c, 0, 76, 0
2, 185040, Note_on_c, 0, 84, 67
2, 185160, Note_on_c, 0, 84, 0
2, 185160, Note_on_c, 0, 88, 67
2, 185280, Note_on_c, 0, 88, 0
2, 185280, Note_on_c, 0, 84, 74
2, 185400, Note_on_c, 0, 84, 0
2, 185400, Note_on_c, 0, 76, 63
2, 185520, Note_on_c, 0, 76, 0
2, 185520, Note_on_c, 0, 84, 70
2, 185640, Note_on_c, 0, 84, 0
2, 185640, Note_on_c, 0, 88, 67
2, 185760, Note_on_c, 0, 88, 0
2, 185760, Note_on_c, 0, 85, 77
2, 185880, Note_on_c, 0, 85, 0
2, 185880, Note_on_c, 0, 79, 67
2, 186000, Note_on_c, 0, 79, 0
2, 186000, Note_on_c, 0, 85, 71
2, 186120, Note_on_c, 0, 85, 0
2, 186120, Note_on_c, 0, 88, 75
2, 186240, Note_on_c, 0, 88, 0
2, 186240, Note_on_c, 0, 85, 77
2, 186360, Note_on_c, 0, 85, 0
2, 186360, Note_on_c, 0, 79, 72
2, 186480, Note_on_c, 0, 79, 0
2, 186480, Note_on_c, 0, 85, 72
2, 186600, Note_on_c, 0, 85, 0
2, 186600, Note_on_c, 0, 88, 67
2, 186720, Note_on_c, 0, 88, 0
2, 186720, Note_on_c, 0, 85, 78
2, 186840, Note_on_c, 0, 85, 0
2, 186840, Note_on_c, 0, 79, 66
2, 186960, Note_on_c, 0, 79, 0
2, 186960, Note_on_c, 0, 85, 73
2, 187080, Note_on_c, 0, 85, 0
2, 187080, Note_on_c, 0, 88, 66
2, 187200, Note_on_c, 0, 88, 0
2, 187200, Note_on_c, 0, 83, 87
2, 187320, Note_on_c, 0, 83, 0
2, 187320, Note_on_c, 0, 79, 74
2, 187440, Note_on_c, 0, 79, 0
2, 187440, Note_on_c, 0, 83, 79
2, 187560, Note_on_c, 0, 83, 0
2, 187560, Note_on_c, 0, 88, 74
2, 187680, Note_on_c, 0, 88, 0
2, 187680, Note_on_c, 0, 91, 85
2, 187800, Note_on_c, 0, 91, 0
2, 187800, Note_on_c, 0, 90, 75
2, 187920, Note_on_c, 0, 90, 0
2, 187920, Note_on_c, 0, 88, 79
2, 188040, Note_on_c, 0, 88, 0
2, 188040, Note_on_c, 0, 87, 75
2, 188160, Note_on_c, 0, 87, 0
2, 188160, Note_on_c, 0, 88, 86
2, 188280, Note_on_c, 0, 88, 0
2, 188280, Note_on_c, 0, 87, 75
2, 188400, Note_on_c, 0, 87, 0
2, 188400, Note_on_c, 0, 88, 79
2, 188520, Note_on_c, 0, 88, 0
2, 188520, Note_on_c, 0, 90, 76
2, 188640, Note_on_c, 0, 90, 0
2, 188640, Note_on_c, 0, 91, 85
2, 188760, Note_on_c, 0, 91, 0
2, 188760, Note_on_c, 0, 90, 79
2, 188880, Note_on_c, 0, 90, 0
2, 188880, Note_on_c, 0, 88, 79
2, 189000, Note_on_c, 0, 88, 0
2, 189000, Note_on_c, 0, 87, 75
2, 189120, Note_on_c, 0, 87, 0
2, 189120, Note_on_c, 0, 91, 85
2, 189240, Note_on_c, 0, 91, 0
2, 189240, Note_on_c, 0, 90, 79
2, 189360, Note_on_c, 0, 90, 0
2, 189360, Note_on_c, 0, 88, 79
2, 189480, Note_on_c, 0, 88, 0
2, 189480, Note_on_c, 0, 87, 75
2, 189600, Note_on_c, 0, 87, 0
2, 189600, Note_on_c, 0, 91, 85
2, 189720, Note_on_c, 0, 91, 0
2, 189720, Note_on_c, 0, 90, 79
2, 189840, Note_on_c, 0, 90, 0
2, 189840, Note_on_c, 0, 88, 79
2, 189960, Note_on_c, 0, 88, 0
2, 189960, Note_on_c, 0, 87, 76
2, 190080, Note_on_c, 0, 87, 0
2, 190080, Note_on_c, 0, 91, 85
2, 190200, Note_on_c, 0, 91, 0
2, 190200, Note_on_c, 0, 90, 79
2, 190320, Note_on_c, 0, 90, 0
2, 190320, Note_on_c, 0, 88, 79
2, 190440, Note_on_c, 0, 88, 0
2, 190440, Note_on_c, 0, 87, 76
2, 190560, Note_on_c, 0, 87, 0
2, 190560, Note_on_c, 0, 88, 88
2, 190800, Note_on_c, 0, 88, 0
2, 191520, Note_on_c, 0, 91, 50
2, 191760, Note_on_c, 0, 91, 0
2, 191760, Note_on_c, 0, 90, 42
2, 192000, Note_on_c, 0, 90, 0
2, 192000, Note_on_c, 0, 88, 46
2, 192240, Note_on_c, 0, 88, 0
2, 192240, Note_on_c, 0, 87, 46
2, 192480, Note_on_c, 0, 87, 0
2, 192480, Note_on_c, 0, 88, 50
2, 192960, Note_on_c, 0, 88, 0
2, 192960, Note_on_c, 0, 91, 50
2, 193440, Note_on_c, 0, 91, 0
2, 193440, Note_on_c, 0, 90, 47
2, 193920, Note_on_c, 0, 90, 0
2, 193920, Note_on_c, 0, 88, 50
2, 194400, Note_on_c, 0, 88, 0
2, 194400, Note_on_c, 0, 87, 54
2, 194880, Note_on_c, 0, 87, 0
2, 194880, Note_on_c, 0, 88, 49
2, 195360, Note_on_c, 0, 88, 0
2, 195840, Note_on_c, 0, 91, 50
2, 196800, Note_on_c, 0, 91, 0
2, 196800, Note_on_c, 0, 90, 50
2, 197760, Note_on_c, 0, 90, 0
2, 197760, Note_on_c, 0, 88, 50
2, 198240, Note_on_c, 0, 88, 0
2, 198720, Note_on_c, 0, 67, 50
2, 199680, Note_on_c, 0, 67, 0
2, 199680, Note_on_c, 0, 66, 56
2, 199920, Note_on_c, 0, 66, 0
2, 199920, Note_on_c, 0, 64, 40
2, 200150, Note_on_c, 0, 64, 0
2, 200160, Note_on_c, 0, 64, 50
2, 200640, Note_on_c, 0, 64, 0
2, 202080, Note_on_c, 0, 67, 50
2, 202550, Note_on_c, 0, 67, 0
2, 202560, Note_on_c, 0, 66, 46
2, 202800, Note_on_c, 0, 66, 0
2, 202800, Note_on_c, 0, 64, 46
2, 203030, Note_on_c, 0, 64, 0
2, 203040, Note_on_c, 0, 64, 50
2, 203270, Note_on_c, 0, 64, 0
2, 203760, Note_on_c, 0, 67, 53
2, 204000, Note_on_c, 0, 67, 0
2, 204000, Note_on_c, 0, 66, 56
2, 204240, Note_on_c, 0, 66, 0
2, 204240, Note_on_c, 0, 64, 57
2, 204480, Note_on_c, 0, 64, 0
2, 204720, Note_on_c, 0, 91, 61
2, 204960, Note_on_c, 0, 91, 0
2, 204960, Note_on_c, 0, 90, 66
2, 205200, Note_on_c, 0, 90, 0
2, 205200, Note_on_c, 0, 88, 63
2, 205440, Note_on_c, 0, 88, 0
2, 205680, Note_on_c, 0, 67, 63
2, 205920, Note_on_c, 0, 67, 0
2, 205920, Note_on_c, 0, 66, 74
2, 206160, Note_on_c, 0, 66, 0
2, 206160, Note_on_c, 0, 64, 64
2, 206400, Note_on_c, 0, 64, 0
2, 206880, Note_on_c, 0, 67, 78
2, 206880, Note_on_c, 0, 64, 66
2, 206880, Note_on_c, 0, 59, 66
2, 206880, Note_on_c, 0, 55, 66
2, 207000, Note_on_c, 0, 55, 0
2, 207000, Note_on_c, 0, 67, 0
2, 207000, Note_on_c, 0, 64, 0
2, 207000, Note_on_c, 0, 59, 0
2, 207360, Note_on_c, 0, 55, 70
2, 207360, Note_on_c, 0, 59, 70
2, 207360, Note_on_c, 0, 64, 70
2, 207360, Note_on_c, 0, 67, 84
2, 208080, Note_on_c, 0, 67, 0
2, 208080, Note_on_c, 0, 66, 77
2, 208320, Note_on_c, 0, 66, 0
2, 208320, Note_on_c, 0, 64, 0
2, 208320, Note_on_c, 0, 59, 0
2, 208320, Note_on_c, 0, 55, 0
2, 208320, Note_on_c, 0, 64, 68
2, 208320, Note_on_c, 0, 55, 57
2, 208440, Note_on_c, 0, 55, 0
2, 208440, Note_on_c, 0, 64, 0
2, 208800, Note_on_c, 0, 57, 70
2, 208800, Note_on_c, 0, 66, 70
2, 208800, Note_on_c, 0, 69, 84
2, 209040, Note_on_c, 0, 69, 0
2, 209040, Note_on_c, 0, 66, 0
2, 209040, Note_on_c, 0, 57, 0
2, 209760, Note_on_c, 0, 69, 37
2, 209760, Note_on_c, 0, 66, 31
2, 210240, Note_on_c, 0, 66, 0
2, 210240, Note_on_c, 0, 69, 0
2, 210240, Note_on_c, 0, 66, 37
2, 210240, Note_on_c, 0, 69, 45
2, 210960, Note_on_c, 0, 69, 0
2, 210960, Note_on_c, 0, 66, 0
2, 210960, Note_on_c, 0, 67, 40
2, 211200, Note_on_c, 0, 67, 0
2, 211200, Note_on_c, 0, 69, 41
2, 211200, Note_on_c, 0, 66, 35
2, 211560, Note_on_c, 0, 66, 0
2, 211560, Note_on_c, 0, 69, 0
2, 211680, Note_on_c, 0, 71, 43
2, 211680, Note_on_c, 0, 67, 36
2, 212040, Note_on_c, 0, 67, 0
2, 212040, Note_on_c, 0, 71, 0
2, 212640, Note_on_c, 0, 71, 78
2, 212640, Note_on_c, 0, 67, 66
2, 212640, Note_on_c, 0, 62, 66
2, 212640, Note_on_c, 0, 59, 66
2, 212760, Note_on_c, 0, 59, 0
2, 212760, Note_on_c, 0, 71, 0
2, 212760, Note_on_c, 0, 67, 0
2, 212760, Note_on_c, 0, 62, 0
2, 213120, Note_on_c, 0, 62, 70
2, 213120, Note_on_c, 0, 59, 70
2, 213120, Note_on_c, 0, 67, 70
2, 213120, Note_on_c, 0, 71, 84
2, 213840, Note_on_c, 0, 71, 0
2, 213840, Note_on_c, 0, 69, 77
2, 214080, Note_on_c, 0, 69, 0
2, 214080, Note_on_c, 0, 67, 0
2, 214080, Note_on_c, 0, 59, 0
2, 214080, Note_on_c, 0, 62, 0
2, 214080, Note_on_c, 0, 67, 68
2, 214080, Note_on_c, 0, 59, 57
2, 214200, Note_on_c, 0, 59, 0
2, 214200, Note_on_c, 0, 67, 0
2, 214560, Note_on_c, 0, 61, 70
2, 214560, Note_on_c, 0, 70, 70
2, 214560, Note_on_c, 0, 73, 84
2, 214800, Note_on_c, 0, 73, 0
2, 214800, Note_on_c, 0, 70, 0
2, 214800, Note_on_c, 0, 61, 0
2, 215520, Note_on_c, 0, 73, 37
2, 215520, Note_on_c, 0, 70, 31
2, 216000, Note_on_c, 0, 70, 0
2, 216000, Note_on_c, 0, 73, 0
2, 216000, Note_on_c, 0, 70, 37
2, 216000, Note_on_c, 0, 73, 45
2, 216720, Note_on_c, 0, 73, 0
2, 216720, Note_on_c, 0, 70, 0
2, 216720, Note_on_c, 0, 71, 40
2, 216960, Note_on_c, 0, 71, 0
2, 216960, Note_on_c, 0, 73, 41
2, 216960, Note_on_c, 0, 70, 35
2, 217320, Note_on_c, 0, 70, 0
2, 217320, Note_on_c, 0, 73, 0
2, 217440, Note_on_c, 0, 74, 43
2, 217440, Note_on_c, 0, 71, 36
2, 217800, Note_on_c, 0, 71, 0
2, 217800, Note_on_c, 0, 74, 0
2, 218400, Note_on_c, 0, 74, 70
2, 219360, Note_on_c, 0, 74, 0
2, 219360, Note_on_c, 0, 79, 70
2, 219840, Note_on_c, 0, 79, 0
2, 219840, Note_on_c, 0, 76, 62
2, 220320, Note_on_c, 0, 76, 0
2, 220320, Note_on_c, 0, 74, 66
2, 220800, Note_on_c, 0, 74, 0
2, 220800, Note_on_c, 0, 72, 56
2, 221256, Note_on_c, 0, 72, 0
2, 221280, Note_on_c, 0, 72, 61
2, 222240, Note_on_c, 0, 72, 0
2, 222240, Note_on_c, 0, 81, 61
2, 222720, Note_on_c, 0, 81, 0
2, 222720, Note_on_c, 0, 72, 52
2, 223680, Note_on_c, 0, 72, 0
2, 223680, Note_on_c, 0, 71, 61
2, 224136, Note_on_c, 0, 71, 0
2, 224160, Note_on_c, 0, 71, 55
2, 225120, Note_on_c, 0, 71, 0
2, 225120, Note_on_c, 0, 67, 50
2, 225576, Note_on_c, 0, 67, 0
2, 225600, Note_on_c, 0, 67, 44
2, 226560, Note_on_c, 0, 67, 0
2, 226560, Note_on_c, 0, 64, 43
2, 227016, Note_on_c, 0, 64, 0
2, 227040, Note_on_c, 0, 64, 40
2, 228000, Note_on_c, 0, 64, 0
2, 228000, Note_on_c, 0, 55, 36
2, 228480, Note_on_c, 0, 55, 0
2, 228480, Note_on_c, 0, 52, 24
2, 228960, Note_on_c, 0, 52, 0
2, 228960, Note_on_c, 0, 51, 24
2, 228960, Note_on_c, 0, 59, 28
2, 229824, Note_on_c, 0, 59, 0
2, 229824, Note_on_c, 0, 51, 0
2, 229920, Note_on_c, 0, 76, 51
2, 229920, Note_on_c, 0, 88, 61
2, 231120, Note_on_c, 0, 88, 0
2, 231120, Note_on_c, 0, 76, 0
2, 231120, Note_on_c, 0, 75, 45
2, 231120, Note_on_c, 0, 87, 53
2, 231360, Note_on_c, 0, 87, 0
2, 231360, Note_on_c, 0, 75, 0
2, 231360, Note_on_c, 0, 76, 48
2, 231360, Note_on_c, 0, 88, 57
2, 231840, Note_on_c, 0, 88, 0
2, 231840, Note_on_c, 0, 76, 0
2, 231840, Note_on_c, 0, 60, 51
2, 231840, Note_on_c, 0, 64, 51
2, 231840, Note_on_c, 0, 66, 61
2, 232800, Note_on_c, 0, 66, 0
2, 232800, Note_on_c, 0, 64, 0
2, 232800, Note_on_c, 0, 60, 0
2, 232800, Note_on_c, 0, 66, 66
2, 232800, Note_on_c, 0, 64, 56
2, 232800, Note_on_c, 0, 61, 56
2, 233280, Note_on_c, 0, 61, 0
2, 233280, Note_on_c, 0, 64, 0
2, 233280, Note_on_c, 0, 66, 0
2, 233280, Note_on_c, 0, 57, 60
2, 233280, Note_on_c, 0, 63, 60
2, 233280, Note_on_c, 0, 66, 71
2, 234000, Note_on_c, 0, 66, 0
2, 234000, Note_on_c, 0, 67, 51
2, 234240, Note_on_c, 0, 67, 0
2, 234240, Note_on_c, 0, 69, 56
2, 234480, Note_on_c, 0, 69, 0
2, 234480, Note_on_c, 0, 67, 43
2, 234720, Note_on_c, 0, 67, 0
2, 234720, Note_on_c, 0, 63, 0
2, 234720, Note_on_c, 0, 57, 0
2, 234720, Note_on_c, 0, 66, 47
2, 235200, Note_on_c, 0, 66, 0
2, 235200, Note_on_c, 0, 64, 39
2, 235680, Note_on_c, 0, 64, 0
2, 235680, Note_on_c, 0, 76, 51
2, 235680, Note_on_c, 0, 88, 61
2, 236880, Note_on_c, 0, 88, 0
2, 236880, Note_on_c, 0, 76, 0
2, 236880, Note_on_c, 0, 75, 52
2, 236880, Note_on_c, 0, 87, 61
2, 237120, Note_on_c, 0, 87, 0
2, 237120, Note_on_c, 0, 75, 0
2, 237120, Note_on_c, 0, 76, 56
2, 237120, Note_on_c, 0, 88, 66
2, 237600, Note_on_c, 0, 88, 0
2, 237600, Note_on_c, 0, 76, 0
2, 237600, Note_on_c, 0, 60, 51
2, 237600, Note_on_c, 0, 64, 51
2, 237600, Note_on_c, 0, 66, 61
2, 238560, Note_on_c, 0, 66, 0
2, 238560, Note_on_c, 0, 64, 0
2, 238560, Note_on_c, 0, 60, 0
2, 238560, Note_on_c, 0, 66, 52
2, 238560, Note_on_c, 0, 64, 44
2, 238560, Note_on_c, 0, 61, 44
2, 239040, Note_on_c, 0, 61, 0
2, 239040, Note_on_c, 0, 64, 0
2, 239040, Note_on_c, 0, 66, 0
2, 239040, Note_on_c, 0, 57, 46
2, 239040, Note_on_c, 0, 63, 46
2, 239040, Note_on_c, 0, 66, 55
2, 239760, Note_on_c, 0, 66, 0
2, 239760, Note_on_c, 0, 69, 38
2, 240000, Note_on_c, 0, 69, 0
2, 240000, Note_on_c, 0, 67, 41
2, 240240, Note_on_c, 0, 67, 0
2, 240240, Note_on_c, 0, 66, 32
2, 240480, Note_on_c, 0, 66, 0
2, 240480, Note_on_c, 0, 63, 0
2, 240480, Note_on_c, 0, 57, 0
2, 240480, Note_on_c, 0, 55, 30
2, 240480, Note_on_c, 0, 64, 36
2, 240960, Note_on_c, 0, 64, 0
2, 240960, Note_on_c, 0, 55, 0
2, 241440, Note_on_c, 0, 55, 30
2, 241440, Note_on_c, 0, 67, 36
2, 241560, Note_on_c, 0, 67, 0
2, 241560, Note_on_c, 0, 55, 0
2, 241920, Note_on_c, 0, 67, 41
2, 241920, Note_on_c, 0, 55, 34
2, 242880, Note_on_c, 0, 55, 0
2, 242880, Note_on_c, 0, 67, 0
2, 242880, Note_on_c, 0, 60, 30
2, 242880, Note_on_c, 0, 72, 36
2, 243000, Note_on_c, 0, 72, 0
2, 243000, Note_on_c, 0, 60, 0
2, 243360, Note_on_c, 0, 72, 42
2, 243360, Note_on_c, 0, 60, 35
2, 244320, Note_on_c, 0, 60, 0
2, 244320, Note_on_c, 0, 72, 0
2, 244320, Note_on_c, 0, 67, 30
2, 244320, Note_on_c, 0, 79, 36
2, 244440, Note_on_c, 0, 79, 0
2, 244440, Note_on_c, 0, 67, 0
2, 244800, Note_on_c, 0, 79, 40
2, 244800, Note_on_c, 0, 67, 34
2, 245760, Note_on_c, 0, 67, 0
2, 245760, Note_on_c, 0, 79, 0
2, 245760, Note_on_c, 0, 84, 36
2, 245760, Note_on_c, 0, 72, 30
2, 245880, Note_on_c, 0, 72, 0
2, 245880, Note_on_c, 0, 84, 0
2, 246240, Note_on_c, 0, 72, 34
2, 246240, Note_on_c, 0, 84, 41
2, 247200, Note_on_c, 0, 84, 0
2, 247200, Note_on_c, 0, 72, 0
2, 247200, Note_on_c, 0, 77, 70
2, 247200, Note_on_c, 0, 86, 70
2, 247200, Note_on_c, 0, 89, 82
2, 247320, Note_on_c, 0, 89, 0
2, 247320, Note_on_c, 0, 86, 0
2, 247320, Note_on_c, 0, 77, 0
2, 247680, Note_on_c, 0, 77, 76
2, 247680, Note_on_c, 0, 86, 76
2, 247680, Note_on_c, 0, 89, 90
2, 248400, Note_on_c, 0, 89, 0
2, 248400, Note_on_c, 0, 86, 0
2, 248400, Note_on_c, 0, 77, 0
2, 248400, Note_on_c, 0, 88, 70
2, 248520, Note_on_c, 0, 86, 69
2, 248532, Note_on_c, 0, 88, 0
2, 248640, Note_on_c, 0, 84, 68
2, 248652, Note_on_c, 0, 86, 0
2, 248760, Note_on_c, 0, 83, 68
2, 248772, Note_on_c, 0, 84, 0
2, 248880, Note_on_c, 0, 81, 68
2, 248892, Note_on_c, 0, 83, 0
2, 249000, Note_on_c, 0, 79, 66
2, 249012, Note_on_c, 0, 81, 0
2, 249120, Note_on_c, 0, 77, 64
2, 249132, Note_on_c, 0, 79, 0
2, 249240, Note_on_c, 0, 76, 64
2, 249252, Note_on_c, 0, 77, 0
2, 249360, Note_on_c, 0, 74, 64
2, 249372, Note_on_c, 0, 76, 0
2, 249480, Note_on_c, 0, 72, 64
2, 249492, Note_on_c, 0, 74, 0
2, 249600, Note_on_c, 0, 71, 63
2, 249612, Note_on_c, 0, 72, 0
2, 249680, Note_on_c, 0, 69, 63
2, 249688, Note_on_c, 0, 71, 0
2, 249760, Note_on_c, 0, 67, 63
2, 249768, Note_on_c, 0, 69, 0
2, 249840, Note_on_c, 0, 65, 63
2, 249848, Note_on_c, 0, 67, 0
2, 249920, Note_on_c, 0, 64, 63
2, 249928, Note_on_c, 0, 65, 0
2, 250000, Note_on_c, 0, 62, 63
2, 250008, Note_on_c, 0, 64, 0
2, 250080, Note_on_c, 0, 60, 63
2, 250088, Note_on_c, 0, 62, 0
2, 250176, Note_on_c, 0, 59, 63
2, 250186, Note_on_c, 0, 60, 0
2, 250272, Note_on_c, 0, 57, 63
2, 250282, Note_on_c, 0, 59, 0
2, 250368, Note_on_c, 0, 55, 62
2, 250378, Note_on_c, 0, 57, 0
2, 250464, Note_on_c, 0, 54, 62
2, 250474, Note_on_c, 0, 55, 0
2, 250560, Note_on_c, 0, 55, 89
2, 250570, Note_on_c, 0, 54, 0
2, 250800, Note_on_c, 0, 55, 0
2, 251520, Note_on_c, 0, 65, 40
2, 251520, Note_on_c, 0, 62, 34
2, 251520, Note_on_c, 0, 55, 34
2, 251640, Note_on_c, 0, 55, 0
2, 251640, Note_on_c, 0, 62, 0
2, 251640, Note_on_c, 0, 65, 0
2, 252000, Note_on_c, 0, 64, 45
2, 252000, Note_on_c, 0, 60, 38
2, 252000, Note_on_c, 0, 55, 38
2, 252240, Note_on_c, 0, 55, 0
2, 252240, Note_on_c, 0, 60, 0
2, 252240, Note_on_c, 0, 64, 0
2, 252960, Note_on_c, 0, 74, 76
2, 252960, Note_on_c, 0, 80, 76
2, 252960, Note_on_c, 0, 83, 76
2, 252960, Note_on_c, 0, 86, 90
2, 253080, Note_on_c, 0, 86, 0
2, 253080, Note_on_c, 0, 74, 0
2, 253080, Note_on_c, 0, 80, 0
2, 253080, Note_on_c, 0, 83, 0
2, 253440, Note_on_c, 0, 74, 84
2, 253440, Note_on_c, 0, 80, 84
2, 253440, Note_on_c, 0, 83, 84
2, 253440, Note_on_c, 0, 86, 98
2, 254160, Note_on_c, 0, 86, 0
2, 254160, Note_on_c, 0, 74, 0
2, 254160, Note_on_c, 0, 80, 0
2, 254160, Note_on_c, 0, 83, 0
2, 254160, Note_on_c, 0, 84, 70
2, 254280, Note_on_c, 0, 83, 69
2, 254292, Note_on_c, 0, 84, 0
2, 254400, Note_on_c, 0, 81, 68
2, 254412, Note_on_c, 0, 83, 0
2, 254520, Note_on_c, 0, 80, 68
2, 254532, Note_on_c, 0, 81, 0
2, 254640, Note_on_c, 0, 78, 68
2, 254652, Note_on_c, 0, 80, 0
2, 254760, Note_on_c, 0, 76, 66
2, 254772, Note_on_c, 0, 78, 0
2, 254880, Note_on_c, 0, 74, 64
2, 254892, Note_on_c, 0, 76, 0
2, 255000, Note_on_c, 0, 72, 64
2, 255012, Note_on_c, 0, 74, 0
2, 255120, Note_on_c, 0, 71, 64
2, 255132, Note_on_c, 0, 72, 0
2, 255240, Note_on_c, 0, 69, 64
2, 255252, Note_on_c, 0, 71, 0
2, 255360, Note_on_c, 0, 68, 63
2, 255372, Note_on_c, 0, 69, 0
2, 255440, Note_on_c, 0, 66, 63
2, 255448, Note_on_c, 0, 68, 0
2, 255520, Note_on_c, 0, 64, 63
2, 255528, Note_on_c, 0, 66, 0
2, 255600, Note_on_c, 0, 62, 63
2, 255608, Note_on_c, 0, 64, 0
2, 255680, Note_on_c, 0, 60, 63
2, 255688, Note_on_c, 0, 62, 0
2, 255760, Note_on_c, 0, 59, 63
2, 255768, Note_on_c, 0, 60, 0
2, 255840, Note_on_c, 0, 57, 63
2, 255848, Note_on_c, 0, 59, 0
2, 255936, Note_on_c, 0, 56, 63
2, 255946, Note_on_c, 0, 57, 0
2, 256032, Note_on_c, 0, 54, 63
2, 256042, Note_on_c, 0, 56, 0
2, 256128, Note_on_c, 0, 52, 62
2, 256138, Note_on_c, 0, 54, 0
2, 256224, Note_on_c, 0, 51, 62
2, 256234, Note_on_c, 0, 52, 0
2, 256320, Note_on_c, 0, 52, 89
2, 256330, Note_on_c, 0, 51, 0
2, 256800, Note_on_c, 0, 52, 0
2, 257280, Note_on_c, 0, 62, 40
2, 257280, Note_on_c, 0, 59, 34
2, 257280, Note_on_c, 0, 52, 34
2, 257400, Note_on_c, 0, 52, 0
2, 257400, Note_on_c, 0, 59, 0
2, 257400, Note_on_c, 0, 62, 0
2, 257760, Note_on_c, 0, 60, 45
2, 257760, Note_on_c, 0, 57, 38
2, 257760, Note_on_c, 0, 52, 38
2, 258000, Note_on_c, 0, 52, 0
2, 258000, Note_on_c, 0, 57, 0
2, 258000, Note_on_c, 0, 60, 0
2, 258720, Note_on_c, 0, 84, 43
2, 258960, Note_on_c, 0, 84, 0
2, 259200, Note_on_c, 0, 84, 45
2, 259920, Note_on_c, 0, 84, 0
2, 259920, Note_on_c, 0, 82, 42
2, 260040, Note_on_c, 0, 82, 0
2, 260040, Note_on_c, 0, 81, 42
2, 260160, Note_on_c, 0, 81, 0
2, 260160, Note_on_c, 0, 79, 40
2, 260280, Note_on_c, 0, 79, 0
2, 260280, Note_on_c, 0, 77, 40
2, 260400, Note_on_c, 0, 77, 0
2, 260400, Note_on_c, 0, 76, 40
2, 260520, Note_on_c, 0, 76, 0
2, 260520, Note_on_c, 0, 74, 40
2, 260640, Note_on_c, 0, 74, 0
2, 260640, Note_on_c, 0, 72, 40
2, 260760, Note_on_c, 0, 72, 0
2, 260760, Note_on_c, 0, 70, 40
2, 260880, Note_on_c, 0, 70, 0
2, 260880, Note_on_c, 0, 69, 39
2, 261000, Note_on_c, 0, 69, 0
2, 261000, Note_on_c, 0, 67, 39
2, 261120, Note_on_c, 0, 67, 0
2, 261120, Note_on_c, 0, 66, 37
2, 261216, Note_on_c, 0, 66, 0
2, 261216, Note_on_c, 0, 64, 36
2, 261312, Note_on_c, 0, 64, 0
2, 261312, Note_on_c, 0, 62, 35
2, 261408, Note_on_c, 0, 62, 0
2, 261408, Note_on_c, 0, 60, 35
2, 261504, Note_on_c, 0, 60, 0
2, 261504, Note_on_c, 0, 58, 40
2, 261600, Note_on_c, 0, 58, 0
2, 261600, Note_on_c, 0, 57, 42
2, 262070, Note_on_c, 0, 57, 0
2, 262080, Note_on_c, 0, 57, 42
2, 263040, Note_on_c, 0, 57, 0
2, 263040, Note_on_c, 0, 57, 45
2, 263040, Note_on_c, 0, 63, 53
2, 263472, Note_on_c, 0, 63, 0
2, 263472, Note_on_c, 0, 57, 0
2, 263520, Note_on_c, 0, 57, 45
2, 263520, Note_on_c, 0, 63, 53
2, 264480, Note_on_c, 0, 63, 0
2, 264480, Note_on_c, 0, 57, 0
2, 264480, Note_on_c, 0, 63, 53
2, 264480, Note_on_c, 0, 69, 53
2, 264912, Note_on_c, 0, 69, 0
2, 264912, Note_on_c, 0, 63, 0
2, 264960, Note_on_c, 0, 63, 59
2, 264960, Note_on_c, 0, 69, 59
2, 265920, Note_on_c, 0, 69, 0
2, 265920, Note_on_c, 0, 63, 0
2, 265920, Note_on_c, 0, 63, 53
2, 265920, Note_on_c, 0, 69, 53
2, 265920, Note_on_c, 0, 75, 63
2, 266352, Note_on_c, 0, 75, 0
2, 266352, Note_on_c, 0, 69, 0
2, 266352, Note_on_c, 0, 63, 0
2, 266400, Note_on_c, 0, 63, 57
2, 266400, Note_on_c, 0, 75, 68
2, 266400, Note_on_c, 0, 69, 57
2, 267360, Note_on_c, 0, 69, 0
2, 267360, Note_on_c, 0, 75, 0
2, 267360, Note_on_c, 0, 63, 0
2, 267360, Note_on_c, 0, 75, 58
2, 267360, Note_on_c, 0, 72, 58
2, 267360, Note_on_c, 0, 81, 58
2, 267360, Note_on_c, 0, 84, 69
2, 267792, Note_on_c, 0, 84, 0
2, 267792, Note_on_c, 0, 75, 0
2, 267792, Note_on_c, 0, 72, 0
2, 267792, Note_on_c, 0, 81, 0
2, 267840, Note_on_c, 0, 72, 66
2, 267840, Note_on_c, 0, 75, 66
2, 267840, Note_on_c, 0, 81, 66
2, 267840, Note_on_c, 0, 84, 78
2, 268800, Note_on_c, 0, 84, 0
2, 268800, Note_on_c, 0, 72, 0
2, 268800, Note_on_c, 0, 75, 0
2, 268800, Note_on_c, 0, 81, 0
2, 268800, Note_on_c, 0, 71, 68
2, 268800, Note_on_c, 0, 75, 68
2, 268800, Note_on_c, 0, 81, 68
2, 268800, Note_on_c, 0, 83, 80
2, 269280, Note_on_c, 0, 83, 0
2, 269280, Note_on_c, 0, 71, 0
2, 269280, Note_on_c, 0, 75, 0
2, 269280, Note_on_c, 0, 81, 0
2, 269280, Note_on_c, 0, 70, 71
2, 269280, Note_on_c, 0, 75, 71
2, 269280, Note_on_c, 0, 82, 84
2, 270240, Note_on_c, 0, 82, 0
2, 270240, Note_on_c, 0, 75, 0
2, 270240, Note_on_c, 0, 70, 0
2, 270240, Note_on_c, 0, 71, 69
2, 270240, Note_on_c, 0, 83, 82
2, 270240, Note_on_c, 0, 81, 69
2, 270240, Note_on_c, 0, 75, 69
2, 270672, Note_on_c, 0, 75, 0
2, 270672, Note_on_c, 0, 71, 0
2, 270672, Note_on_c, 0, 83, 0
2, 270672, Note_on_c, 0, 81, 0
2, 270720, Note_on_c, 0, 71, 80
2, 270720, Note_on_c, 0, 76, 80
2, 270720, Note_on_c, 0, 83, 95
2, 272160, Note_on_c, 0, 83, 0
2, 272160, Note_on_c, 0, 76, 0
2, 272160, Note_on_c, 0, 71, 0
2, 272160, Note_on_c, 0, 76, 80
2, 272160, Note_on_c, 0, 88, 94
2, 273600, Note_on_c, 0, 88, 0
2, 273600, Note_on_c, 0, 76, 0
2, 273600, Note_on_c, 0, 71, 41
2, 273600, Note_on_c, 0, 74, 41
2, 273600, Note_on_c, 0, 76, 49
2, 273720, Note_on_c, 0, 76, 0
2, 273720, Note_on_c, 0, 74, 0
2, 273720, Note_on_c, 0, 71, 0
2, 274080, Note_on_c, 0, 72, 49
2, 274080, Note_on_c, 0, 77, 59
2, 274080, Note_on_c, 0, 65, 49
2, 274200, Note_on_c, 0, 65, 0
2, 274200, Note_on_c, 0, 77, 0
2, 274200, Note_on_c, 0, 72, 0
2, 275040, Note_on_c, 0, 76, 47
2, 275040, Note_on_c, 0, 77, 56
2, 275040, Note_on_c, 0, 72, 47
2, 275160, Note_on_c, 0, 72, 0
2, 275160, Note_on_c, 0, 77, 0
2, 275160, Note_on_c, 0, 76, 0
2, 275520, Note_on_c, 0, 74, 49
2, 275520, Note_on_c, 0, 80, 59
2, 275520, Note_on_c, 0, 68, 49
2, 275640, Note_on_c, 0, 68, 0
2, 275640, Note_on_c, 0, 80, 0
2, 275640, Note_on_c, 0, 74, 0
2, 276480, Note_on_c, 0, 76, 48
2, 276480, Note_on_c, 0, 74, 48
2, 276480, Note_on_c, 0, 80, 57
2, 276480, Note_on_c, 0, 68, 48
2, 276600, Note_on_c, 0, 68, 0
2, 276600, Note_on_c, 0, 76, 0
2, 276600, Note_on_c, 0, 74, 0
2, 276600, Note_on_c, 0, 80, 0
2, 276960, Note_on_c, 0, 76, 53
2, 276960, Note_on_c, 0, 81, 63
2, 276960, Note_on_c, 0, 69, 53
2, 277080, Note_on_c, 0, 69, 0
2, 277080, Note_on_c, 0, 81, 0
2, 277080, Note_on_c, 0, 76, 0
2, 277920, Note_on_c, 0, 81, 60
2, 277920, Note_on_c, 0, 76, 50
2, 278040, Note_on_c, 0, 76, 0
2, 278040, Note_on_c, 0, 81, 0
2, 278400, Note_on_c, 0, 79, 55
2, 278400, Note_on_c, 0, 76, 55
2, 278400, Note_on_c, 0, 82, 64
2, 278400, Note_on_c, 0, 70, 55
2, 278520, Note_on_c, 0, 70, 0
2, 278520, Note_on_c, 0, 79, 0
2, 278520, Note_on_c, 0, 76, 0
2, 278520, Note_on_c, 0, 82, 0
2, 279360, Note_on_c, 0, 73, 39
2, 279360, Note_on_c, 0, 76, 39
2, 279360, Note_on_c, 0, 81, 46
2, 279480, Note_on_c, 0, 81, 0
2, 279480, Note_on_c, 0, 76, 0
2, 279480, Note_on_c, 0, 73, 0
2, 279600, Note_on_c, 0, 82, 38
2, 279600, Note_on_c, 0, 76, 32
2, 279600, Note_on_c, 0, 73, 32
2, 279720, Note_on_c, 0, 73, 0
2, 279720, Note_on_c, 0, 76, 0
2, 279720, Note_on_c, 0, 82, 0
2, 279840, Note_on_c, 0, 82, 38
2, 279840, Note_on_c, 0, 76, 32
2, 279840, Note_on_c, 0, 73, 32
2, 279960, Note_on_c, 0, 73, 0
2, 279960, Note_on_c, 0, 76, 0
2, 279960, Note_on_c, 0, 82, 0
2, 280080, Note_on_c, 0, 82, 38
2, 280080, Note_on_c, 0, 76, 32
2, 280080, Note_on_c, 0, 73, 32
2, 280200, Note_on_c, 0, 73, 0
2, 280200, Note_on_c, 0, 76, 0
2, 280200, Note_on_c, 0, 82, 0
2, 280320, Note_on_c, 0, 82, 38
2, 280320, Note_on_c, 0, 76, 32
2, 280320, Note_on_c, 0, 73, 32
2, 280440, Note_on_c, 0, 73, 0
2, 280440, Note_on_c, 0, 76, 0
2, 280440, Note_on_c, 0, 82, 0
2, 280560, Note_on_c, 0, 82, 38
2, 280560, Note_on_c, 0, 76, 32
2, 280560, Note_on_c, 0, 73, 32
2, 280680, Note_on_c, 0, 73, 0
2, 280680, Note_on_c, 0, 76, 0
2, 280680, Note_on_c, 0, 82, 0
2, 280800, Note_on_c, 0, 73, 39
2, 280800, Note_on_c, 0, 76, 39
2, 280800, Note_on_c, 0, 82, 46
2, 280920, Note_on_c, 0, 82, 0
2, 280920, Note_on_c, 0, 76, 0
2, 280920, Note_on_c, 0, 73, 0
2, 281040, Note_on_c, 0, 82, 52
2, 281040, Note_on_c, 0, 76, 44
2, 281040, Note_on_c, 0, 73, 44
2, 281160, Note_on_c, 0, 73, 0
2, 281160, Note_on_c, 0, 76, 0
2, 281160, Note_on_c, 0, 82, 0
2, 281280, Note_on_c, 0, 82, 58
2, 281280, Note_on_c, 0, 76, 48
2, 281280, Note_on_c, 0, 73, 48
2, 281400, Note_on_c, 0, 73, 0
2, 281400, Note_on_c, 0, 76, 0
2, 281400, Note_on_c, 0, 82, 0
2, 281520, Note_on_c, 0, 82, 63
2, 281520, Note_on_c, 0, 76, 53
2, 281520, Note_on_c, 0, 73, 53
2, 281640, Note_on_c, 0, 73, 0
2, 281640, Note_on_c, 0, 76, 0
2, 281640, Note_on_c, 0, 82, 0
2, 281760, Note_on_c, 0, 82, 69
2, 281760, Note_on_c, 0, 76, 59
2, 281760, Note_on_c, 0, 73, 59
2, 281880, Note_on_c, 0, 73, 0
2, 281880, Note_on_c, 0, 76, 0
2, 281880, Note_on_c, 0, 82, 0
2, 282000, Note_on_c, 0, 82, 75
2, 282000, Note_on_c, 0, 76, 63
2, 282000, Note_on_c, 0, 73, 63
2, 282120, Note_on_c, 0, 73, 0
2, 282120, Note_on_c, 0, 76, 0
2, 282120, Note_on_c, 0, 82, 0
2, 282240, Note_on_c, 0, 83, 91
2, 282360, Note_on_c, 0, 83, 0
2, 282480, Note_on_c, 0, 84, 70
2, 282480, Note_on_c, 0, 96, 83
2, 282600, Note_on_c, 0, 96, 0
2, 282600, Note_on_c, 0, 84, 0
2, 282720, Note_on_c, 0, 84, 70
2, 282720, Note_on_c, 0, 96, 83
2, 282840, Note_on_c, 0, 96, 0
2, 282840, Note_on_c, 0, 84, 0
2, 282960, Note_on_c, 0, 84, 70
2, 282960, Note_on_c, 0, 96, 83
2, 283080, Note_on_c, 0, 96, 0
2, 283080, Note_on_c, 0, 84, 0
2, 283200, Note_on_c, 0, 84, 70
2, 283200, Note_on_c, 0, 96, 83
2, 283320, Note_on_c, 0, 96, 0
2, 283320, Note_on_c, 0, 84, 0
2, 283440, Note_on_c, 0, 84, 70
2, 283440, Note_on_c, 0, 96, 83
2, 283560, Note_on_c, 0, 96, 0
2, 283560, Note_on_c, 0, 84, 0
2, 283680, Note_on_c, 0, 84, 71
2, 283680, Note_on_c, 0, 96, 85
2, 283800, Note_on_c, 0, 96, 0
2, 283800, Note_on_c, 0, 84, 0
2, 283920, Note_on_c, 0, 84, 65
2, 283920, Note_on_c, 0, 96, 77
2, 284040, Note_on_c, 0, 96, 0
2, 284040, Note_on_c, 0, 84, 0
2, 284160, Note_on_c, 0, 84, 63
2, 284160, Note_on_c, 0, 96, 74
2, 284280, Note_on_c, 0, 96, 0
2, 284280, Note_on_c, 0, 84, 0
2, 284400, Note_on_c, 0, 84, 57
2, 284400, Note_on_c, 0, 96, 67
2, 284520, Note_on_c, 0, 96, 0
2, 284520, Note_on_c, 0, 84, 0
2, 284640, Note_on_c, 0, 84, 51
2, 284640, Note_on_c, 0, 96, 60
2, 284760, Note_on_c, 0, 96, 0
2, 284760, Note_on_c, 0, 84, 0
2, 284880, Note_on_c, 0, 84, 47
2, 284880, Note_on_c, 0, 96, 56
2, 285000, Note_on_c, 0, 96, 0
2, 285000, Note_on_c, 0, 84, 0
2, 285120, Note_on_c, 0, 96, 56
2, 285120, Note_on_c, 0, 84, 56
2, 285600, Note_on_c, 0, 84, 0
2, 285600, Note_on_c, 0, 96, 0
2, 285600, Note_on_c, 0, 95, 56
2, 285600, Note_on_c, 0, 83, 56
2, 287040, Note_on_c, 0, 83, 0
2, 287040, Note_on_c, 0, 95, 0
2, 287040, Note_on_c, 0, 76, 56
2, 287040, Note_on_c, 0, 88, 56
2, 288480, Note_on_c, 0, 88, 0
2, 288480, Note_on_c, 0, 76, 0
2, 288480, Note_on_c, 0, 71, 56
2, 288480, Note_on_c, 0, 83, 56
2, 289920, Note_on_c, 0, 83, 0
2, 289920, Note_on_c, 0, 71, 0
2, 289920, Note_on_c, 0, 64, 56
2, 289920, Note_on_c, 0, 76, 56
2, 290880, Note_on_c, 0, 64, 0
2, 291360, Note_on_c, 0, 76, 0
2, 291360, Note_on_c, 0, 72, 63
2, 291840, Note_on_c, 0, 72, 0
2, 291840, Note_on_c, 0, 71, 57
2, 292310, Note_on_c, 0, 71, 0
2, 292320, Note_on_c, 0, 71, 65
2, 293280, Note_on_c, 0, 71, 0
2, 293280, Note_on_c, 0, 75, 58
2, 293760, Note_on_c, 0, 75, 0
2, 293760, Note_on_c, 0, 76, 56
2, 294000, Note_on_c, 0, 76, 0
2, 294000, Note_on_c, 0, 72, 69
2, 294240, Note_on_c, 0, 72, 0
2, 294240, Note_on_c, 0, 84, 73
2, 294960, Note_on_c, 0, 84, 0
2, 294960, Note_on_c, 0, 83, 56
2, 295200, Note_on_c, 0, 83, 0
2, 295440, Note_on_c, 0, 83, 71
2, 295680, Note_on_c, 0, 83, 0
2, 295680, Note_on_c, 0, 78, 68
2, 296400, Note_on_c, 0, 78, 0
2, 296400, Note_on_c, 0, 76, 51
2, 296640, Note_on_c, 0, 76, 0
2, 296880, Note_on_c, 0, 76, 71
2, 297120, Note_on_c, 0, 76, 0
2, 297120, Note_on_c, 0, 72, 69
2, 297840, Note_on_c, 0, 72, 0
2, 297840, Note_on_c, 0, 71, 53
2, 298080, Note_on_c, 0, 71, 0
2, 298320, Note_on_c, 0, 71, 69
2, 298560, Note_on_c, 0, 71, 0
2, 298560, Note_on_c, 0, 66, 63
2, 299280, Note_on_c, 0, 66, 0
2, 299280, Note_on_c, 0, 64, 56
2, 299510, Note_on_c, 0, 64, 0
2, 299520, Note_on_c, 0, 64, 63
2, 300000, Note_on_c, 0, 64, 0
2, 300000, Note_on_c, 0, 60, 63
2, 300480, Note_on_c, 0, 60, 0
2, 300480, Note_on_c, 0, 59, 65
2, 300950, Note_on_c, 0, 59, 0
2, 300960, Note_on_c, 0, 59, 71
2, 301200, Note_on_c, 0, 59, 0
2, 301200, Note_on_c, 0, 55, 65
2, 301440, Note_on_c, 0, 55, 0
2, 301440, Note_on_c, 0, 52, 71
2, 301680, Note_on_c, 0, 52, 0
2, 301680, Note_on_c, 0, 48, 65
2, 301920, Note_on_c, 0, 48, 0
2, 301920, Note_on_c, 0, 47, 70
2, 302160, Note_on_c, 0, 47, 0
2, 302160, Note_on_c, 0, 51, 76
2, 302400, Note_on_c, 0, 51, 0
2, 302400, Note_on_c, 0, 52, 80
2, 302880, Note_on_c, 0, 52, 0
2, 303840, Note_on_c, 0, 64, 79
2, 303840, Note_on_c, 0, 60, 67
2, 305280, Note_on_c, 0, 60, 0
2, 305280, Note_on_c, 0, 64, 0
2, 305280, Note_on_c, 0, 65, 34
2, 305280, Note_on_c, 0, 60, 28
2, 306240, Note_on_c, 0, 65, 0
2, 306240, Note_on_c, 0, 72, 39
2, 306720, Note_on_c, 0, 60, 0
2, 306720, Note_on_c, 0, 69, 27
2, 306720, Note_on_c, 0, 63, 27
2, 306720, Note_on_c, 0, 66, 27
2, 307680, Note_on_c, 0, 72, 0
2, 307680, Note_on_c, 0, 71, 33
2, 308150, Note_on_c, 0, 71, 0
2, 308160, Note_on_c, 0, 66, 0
2, 308160, Note_on_c, 0, 63, 0
2, 308160, Note_on_c, 0, 69, 0
2, 308160, Note_on_c, 0, 71, 40
2, 308160, Note_on_c, 0, 67, 34
2, 308160, Note_on_c, 0, 64, 34
2, 308640, Note_on_c, 0, 64, 0
2, 308640, Note_on_c, 0, 67, 0
2, 308640, Note_on_c, 0, 71, 0
2, 309600, Note_on_c, 0, 52, 79
2, 309600, Note_on_c, 0, 48, 67
2, 311040, Note_on_c, 0, 48, 0
2, 311040, Note_on_c, 0, 52, 0
2, 311040, Note_on_c, 0, 53, 34
2, 311040, Note_on_c, 0, 48, 28
2, 312000, Note_on_c, 0, 53, 0
2, 312000, Note_on_c, 0, 60, 39
2, 312480, Note_on_c, 0, 48, 0
2, 312480, Note_on_c, 0, 57, 27
2, 312480, Note_on_c, 0, 51, 27
2, 312480, Note_on_c, 0, 54, 27
2, 313440, Note_on_c, 0, 60, 0
2, 313440, Note_on_c, 0, 59, 33
2, 313910, Note_on_c, 0, 59, 0
2, 313920, Note_on_c, 0, 54, 0
2, 313920, Note_on_c, 0, 51, 0
2, 313920, Note_on_c, 0, 57, 0
2, 314907, Note_on_c, 0, 60, 39
2, 315360, Note_on_c, 0, 52, 24
2, 315360, Note_on_c, 0, 55, 24
2, 316347, Note_on_c, 0, 60, 0
2, 316347, Note_on_c, 0, 59, 33
2, 316800, Note_on_c, 0, 55, 0
2, 316800, Note_on_c, 0, 52, 0
2, 316827, Note_on_c, 0, 59, 0
2, 317787, Note_on_c, 0, 60, 39
2, 318240, Note_on_c, 0, 54, 24
2, 318240, Note_on_c, 0, 57, 24
2, 319200, Note_on_c, 0, 63, 33
2, 319227, Note_on_c, 0, 60, 0
2, 319680, Note_on_c, 0, 54, 0
2, 319680, Note_on_c, 0, 57, 0
2, 319680, Note_on_c, 0, 63, 0
2, 319680, Note_on_c, 0, 55, 28
2, 319680, Note_on_c, 0, 64, 33
2, 320160, Note_on_c, 0, 64, 0
2, 320160, Note_on_c, 0, 55, 0
2, 320667, Note_on_c, 0, 72, 35
2, 321120, Note_on_c, 0, 63, 21
2, 321120, Note_on_c, 0, 66, 21
2, 321120, Note_on_c, 0, 69, 21
2, 322107, Note_on_c, 0, 72, 0
2, 322107, Note_on_c, 0, 71, 29
2, 322560, Note_on_c, 0, 63, 0
2, 322560, Note_on_c, 0, 69, 0
2, 322560, Note_on_c, 0, 66, 0
2, 322587, Note_on_c, 0, 71, 0
2, 323520, Note_on_c, 0, 72, 35
2, 324000, Note_on_c, 0, 67, 21
2, 324000, Note_on_c, 0, 64, 21
2, 324960, Note_on_c, 0, 72, 0
2, 324960, Note_on_c, 0, 71, 29
2, 325440, Note_on_c, 0, 71, 0
2, 325440, Note_on_c, 0, 64, 0
2, 325440, Note_on_c, 0, 67, 0
2, 326427, Note_on_c, 0, 72, 35
2, 326880, Note_on_c, 0, 66, 21
2, 326880, Note_on_c, 0, 69, 21
2, 327840, Note_on_c, 0, 75, 29
2, 327867, Note_on_c, 0, 72, 0
2, 328320, Note_on_c, 0, 66, 0
2, 328320, Note_on_c, 0, 69, 0
2, 328320, Note_on_c, 0, 75, 0
2, 328320, Note_on_c, 0, 67, 25
2, 328320, Note_on_c, 0, 76, 29
2, 328800, Note_on_c, 0, 76, 0
2, 328800, Note_on_c, 0, 67, 0
2, 329307, Note_on_c, 0, 84, 35
2, 329760, Note_on_c, 0, 75, 21
2, 329760, Note_on_c, 0, 78, 21
2, 329760, Note_on_c, 0, 81, 21
2, 330747, Note_on_c, 0, 84, 0
2, 330747, Note_on_c, 0, 83, 29
2, 331200, Note_on_c, 0, 75, 0
2, 331200, Note_on_c, 0, 81, 0
2, 331200, Note_on_c, 0, 78, 0
2, 331227, Note_on_c, 0, 83, 0
2, 333600, Note_on_c, 0, 78, 31
2, 333600, Note_on_c, 0, 75, 26
2, 334080, Note_on_c, 0, 75, 0
2, 334080, Note_on_c, 0, 78, 0
2, 334080, Note_on_c, 0, 76, 31
2, 334080, Note_on_c, 0, 79, 38
2, 334800, Note_on_c, 0, 79, 0
2, 334800, Note_on_c, 0, 76, 0
2, 334800, Note_on_c, 0, 75, 27
2, 334800, Note_on_c, 0, 78, 34
2, 335040, Note_on_c, 0, 78, 0
2, 335040, Note_on_c, 0, 75, 0
2, 335040, Note_on_c, 0, 76, 34
2, 335400, Note_on_c, 0, 76, 0
2, 335520, Note_on_c, 0, 81, 36
2, 335520, Note_on_c, 0, 78, 30
2, 335880, Note_on_c, 0, 78, 0
2, 335880, Note_on_c, 0, 81, 0
2, 336480, Note_on_c, 0, 81, 31
2, 336480, Note_on_c, 0, 78, 26
2, 336936, Note_on_c, 0, 78, 0
2, 336936, Note_on_c, 0, 81, 0
2, 336960, Note_on_c, 0, 78, 31
2, 336960, Note_on_c, 0, 81, 38
2, 337680, Note_on_c, 0, 81, 0
2, 337680, Note_on_c, 0, 78, 0
2, 337680, Note_on_c, 0, 79, 34
2, 337920, Note_on_c, 0, 79, 0
2, 337920, Note_on_c, 0, 78, 31
2, 337920, Note_on_c, 0, 81, 34
2, 338280, Note_on_c, 0, 81, 0
2, 338280, Note_on_c, 0, 78, 0
2, 338400, Note_on_c, 0, 83, 36
2, 338400, Note_on_c, 0, 79, 30
2, 338760, Note_on_c, 0, 79, 0
2, 338760, Note_on_c, 0, 83, 0
2, 339360, Note_on_c, 0, 83, 27
2, 339816, Note_on_c, 0, 83, 0
2, 339840, Note_on_c, 0, 83, 34
2, 340560, Note_on_c, 0, 83, 0
2, 340560, Note_on_c, 0, 81, 30
2, 340800, Note_on_c, 0, 81, 0
2, 340800, Note_on_c, 0, 79, 27
2, 340800, Note_on_c, 0, 83, 30
2, 341160, Note_on_c, 0, 83, 0
2, 341160, Note_on_c, 0, 79, 0
2, 341280, Note_on_c, 0, 84, 32
2, 341280, Note_on_c, 0, 81, 27
2, 341640, Note_on_c, 0, 81, 0
2, 341640, Note_on_c, 0, 84, 0
2, 342240, Note_on_c, 0, 76, 51
2, 342240, Note_on_c, 0, 88, 61
2, 343440, Note_on_c, 0, 88, 0
2, 343440, Note_on_c, 0, 76, 0
2, 343440, Note_on_c, 0, 75, 51
2, 343440, Note_on_c, 0, 87, 60
2, 343680, Note_on_c, 0, 87, 0
2, 343680, Note_on_c, 0, 75, 0
2, 343680, Note_on_c, 0, 76, 55
2, 343680, Note_on_c, 0, 88, 65
2, 344160, Note_on_c, 0, 88, 0
2, 344160, Note_on_c, 0, 76, 0
2, 344160, Note_on_c, 0, 60, 45
2, 344160, Note_on_c, 0, 64, 45
2, 344160, Note_on_c, 0, 66, 54
2, 345120, Note_on_c, 0, 66, 0
2, 345120, Note_on_c, 0, 64, 0
2, 345120, Note_on_c, 0, 60, 0
2, 345120, Note_on_c, 0, 66, 66
2, 345120, Note_on_c, 0, 64, 56
2, 345120, Note_on_c, 0, 61, 56
2, 345600, Note_on_c, 0, 61, 0
2, 345600, Note_on_c, 0, 64, 0
2, 345600, Note_on_c, 0, 66, 0
2, 345600, Note_on_c, 0, 57, 60
2, 345600, Note_on_c, 0, 63, 60
2, 345600, Note_on_c, 0, 66, 71
2, 346320, Note_on_c, 0, 66, 0
2, 346320, Note_on_c, 0, 67, 51
2, 346560, Note_on_c, 0, 67, 0
2, 346560, Note_on_c, 0, 69, 56
2, 346800, Note_on_c, 0, 69, 0
2, 346800, Note_on_c, 0, 67, 43
2, 347040, Note_on_c, 0, 67, 0
2, 347040, Note_on_c, 0, 63, 0
2, 347040, Note_on_c, 0, 57, 0
2, 347040, Note_on_c, 0, 66, 47
2, 347520, Note_on_c, 0, 66, 0
2, 347520, Note_on_c, 0, 64, 39
2, 348000, Note_on_c, 0, 64, 0
2, 348000, Note_on_c, 0, 76, 53
2, 348000, Note_on_c, 0, 88, 64
2, 349200, Note_on_c, 0, 88, 0
2, 349200, Note_on_c, 0, 76, 0
2, 349200, Note_on_c, 0, 75, 54
2, 349200, Note_on_c, 0, 87, 64
2, 349440, Note_on_c, 0, 87, 0
2, 349440, Note_on_c, 0, 75, 0
2, 349440, Note_on_c, 0, 76, 56
2, 349440, Note_on_c, 0, 88, 66
2, 349920, Note_on_c, 0, 88, 0
2, 349920, Note_on_c, 0, 76, 0
2, 349920, Note_on_c, 0, 60, 40
2, 349920, Note_on_c, 0, 64, 40
2, 349920, Note_on_c, 0, 66, 48
2, 350880, Note_on_c, 0, 66, 0
2, 350880, Note_on_c, 0, 64, 0
2, 350880, Note_on_c, 0, 60, 0
2, 350880, Note_on_c, 0, 66, 41
2, 350880, Note_on_c, 0, 64, 34
2, 350880, Note_on_c, 0, 61, 34
2, 351360, Note_on_c, 0, 61, 0
2, 351360, Note_on_c, 0, 64, 0
2, 351360, Note_on_c, 0, 66, 0
2, 351360, Note_on_c, 0, 57, 34
2, 351360, Note_on_c, 0, 63, 34
2, 351360, Note_on_c, 0, 66, 41
2, 352080, Note_on_c, 0, 66, 0
2, 352080, Note_on_c, 0, 69, 26
2, 352320, Note_on_c, 0, 69, 0
2, 352320, Note_on_c, 0, 67, 28
2, 352560, Note_on_c, 0, 67, 0
2, 352560, Note_on_c, 0, 66, 21
2, 352800, Note_on_c, 0, 66, 0
2, 352800, Note_on_c, 0, 63, 0
2, 352800, Note_on_c, 0, 57, 0
2, 352800, Note_on_c, 0, 55, 20
2, 352800, Note_on_c, 0, 64, 24
2, 353280, Note_on_c, 0, 64, 0
2, 353280, Note_on_c, 0, 55, 0
2, 353280, End_track
3, 0, Start_track
3, 0, Title_t, "Piano left"
3, 0, Program_c, 0, 0
3, 960, Note_on_c, 0, 52, 63
3, 960, Note_on_c, 0, 40, 53
3, 1080, Note_on_c, 0, 40, 0
3, 1080, Note_on_c, 0, 52, 0
3, 1440, Note_on_c, 0, 40, 61
3, 1440, Note_on_c, 0, 52, 72
3, 2400, Note_on_c, 0, 52, 0
3, 2400, Note_on_c, 0, 40, 0
3, 2400, Note_on_c, 0, 52, 63
3, 2400, Note_on_c, 0, 40, 53
3, 2520, Note_on_c, 0, 40, 0
3, 2520, Note_on_c, 0, 52, 0
3, 2880, Note_on_c, 0, 38, 61
3, 2880, Note_on_c, 0, 50, 72
3, 3120, Note_on_c, 0, 50, 0
3, 3120, Note_on_c, 0, 38, 0
3, 3840, Note_on_c, 0, 62, 29
3, 4320, Note_on_c, 0, 62, 0
3, 4320, Note_on_c, 0, 60, 30
3, 4320, Note_on_c, 0, 62, 36
3, 5040, Note_on_c, 0, 62, 0
3, 5040, Note_on_c, 0, 60, 0
3, 5040, Note_on_c, 0, 62, 31
3, 5040, Note_on_c, 0, 59, 26
3, 5280, Note_on_c, 0, 59, 0
3, 5280, Note_on_c, 0, 62, 0
3, 5280, Note_on_c, 0, 57, 24
3, 5280, Note_on_c, 0, 60, 28
3, 5640, Note_on_c, 0, 60, 0
3, 5640, Note_on_c, 0, 57, 0
3, 5760, Note_on_c, 0, 55, 30
3, 5760, Note_on_c, 0, 59, 36
3, 6120, Note_on_c, 0, 59, 0
3, 6120, Note_on_c, 0, 55, 0
3, 6720, Note_on_c, 0, 55, 63
3, 6720, Note_on_c, 0, 43, 53
3, 6840, Note_on_c, 0, 43, 0
3, 6840, Note_on_c, 0, 55, 0
3, 7200, Note_on_c, 0, 43, 61
3, 7200, Note_on_c, 0, 55, 72
3, 8160, Note_on_c, 0, 55, 0
3, 8160, Note_on_c, 0, 43, 0
3, 8160, Note_on_c, 0, 43, 63
3, 8160, Note_on_c, 0, 31, 53
3, 8280, Note_on_c, 0, 31, 0
3, 8280, Note_on_c, 0, 43, 0
3, 8640, Note_on_c, 0, 30, 61
3, 8640, Note_on_c, 0, 42, 72
3, 8880, Note_on_c, 0, 42, 0
3, 8880, Note_on_c, 0, 30, 0
3, 9600, Note_on_c, 0, 66, 29
3, 10080, Note_on_c, 0, 66, 0
3, 10080, Note_on_c, 0, 64, 30
3, 10080, Note_on_c, 0, 66, 36
3, 10800, Note_on_c, 0, 66, 0
3, 10800, Note_on_c, 0, 64, 0
3, 10800, Note_on_c, 0, 66, 31
3, 10800, Note_on_c, 0, 62, 26
3, 11040, Note_on_c, 0, 62, 0
3, 11040, Note_on_c, 0, 66, 0
3, 11040, Note_on_c, 0, 61, 24
3, 11040, Note_on_c, 0, 64, 28
3, 11400, Note_on_c, 0, 64, 0
3, 11400, Note_on_c, 0, 61, 0
3, 11520, Note_on_c, 0, 59, 30
3, 11520, Note_on_c, 0, 62, 36
3, 11880, Note_on_c, 0, 62, 0
3, 11880, Note_on_c, 0, 59, 0
3, 12960, Note_on_c, 0, 62, 38
3, 12960, Note_on_c, 0, 59, 38
3, 12960, Note_on_c, 0, 67, 45
3, 13920, Note_on_c, 0, 62, 0
3, 13920, Note_on_c, 0, 64, 50
3, 14400, Note_on_c, 0, 59, 0
3, 14400, Note_on_c, 0, 57, 39
3, 15360, Note_on_c, 0, 57, 0
3, 15360, Note_on_c, 0, 64, 0
3, 15360, Note_on_c, 0, 67, 0
3, 15360, Note_on_c, 0, 66, 38
3, 15360, Note_on_c, 0, 63, 32
3, 15840, Note_on_c, 0, 63, 0
3, 15840, Note_on_c, 0, 62, 34
3, 16800, Note_on_c, 0, 62, 0
3, 16800, Note_on_c, 0, 66, 0
3, 16800, Note_on_c, 0, 66, 46
3, 17280, Note_on_c, 0, 66, 0
3, 17280, Note_on_c, 0, 67, 46
3, 18240, Note_on_c, 0, 67, 0
3, 18240, Note_on_c, 0, 55, 45
3, 18720, Note_on_c, 0, 55, 0
3, 18720, Note_on_c, 0, 52, 49
3, 19680, Note_on_c, 0, 52, 0
3, 19680, Note_on_c, 0, 64, 41
3, 20160, Note_on_c, 0, 64, 0
3, 20160, Note_on_c, 0, 60, 40
3, 21120, Note_on_c, 0, 60, 0
3, 21120, Note_on_c, 0, 48, 28
3, 21600, Note_on_c, 0, 36, 28
3, 23040, Note_on_c, 0, 36, 0
3, 23040, Note_on_c, 0, 48, 0
3, 23040, Note_on_c, 0, 47, 28
3, 23040, Note_on_c, 0, 35, 24
3, 23904, Note_on_c, 0, 35, 0
3, 23904, Note_on_c, 0, 47, 0
3, 24480, Note_on_c, 0, 59, 34
3, 24480, Note_on_c, 0, 43, 28
3, 24480, Note_on_c, 0, 52, 28
3, 25920, Note_on_c, 0, 43, 0
3, 25920, Note_on_c, 0, 59, 0
3, 25920, Note_on_c, 0, 45, 39
3, 26880, Note_on_c, 0, 45, 0
3, 26880, Note_on_c, 0, 46, 43
3, 27360, Note_on_c, 0, 46, 0
3, 27360, Note_on_c, 0, 52, 0
3, 27360, Note_on_c, 0, 47, 49
3, 28800, Note_on_c, 0, 47, 0
3, 28800, Note_on_c, 0, 55, 29
3, 28800, Note_on_c, 0, 48, 24
3, 29760, Note_on_c, 0, 48, 0
3, 29760, Note_on_c, 0, 55, 0
3, 29760, Note_on_c, 0, 47, 32
3, 30000, Note_on_c, 0, 47, 0
3, 30000, Note_on_c, 0, 45, 35
3, 30240, Note_on_c, 0, 45, 0
3, 30240, Note_on_c, 0, 52, 39
3, 30240, Note_on_c, 0, 43, 39
3, 30240, Note_on_c, 0, 59, 39
3, 31200, Note_on_c, 0, 43, 0
3, 31200, Note_on_c, 0, 44, 37
3, 31680, Note_on_c, 0, 44, 0
3, 31680, Note_on_c, 0, 59, 0
3, 31680, Note_on_c, 0, 45, 39
3, 32640, Note_on_c, 0, 45, 0
3, 32640, Note_on_c, 0, 46, 34
3, 33120, Note_on_c, 0, 46, 0
3, 33120, Note_on_c, 0, 52, 0
3, 33120, Note_on_c, 0, 35, 29
3, 33120, Note_on_c, 0, 47, 38
3, 34560, Note_on_c, 0, 47, 0
3, 34560, Note_on_c, 0, 35, 0
3, 34560, Note_on_c, 0, 52, 22
3, 34560, Note_on_c, 0, 40, 18
3, 35040, Note_on_c, 0, 40, 0
3, 35040, Note_on_c, 0, 52, 0
3, 35520, Note_on_c, 0, 35, 25
3, 35520, Note_on_c, 0, 47, 30
3, 35640, Note_on_c, 0, 47, 0
3, 35640, Note_on_c, 0, 35, 0
3, 36000, Note_on_c, 0, 35, 28
3, 36000, Note_on_c, 0, 47, 34
3, 36960, Note_on_c, 0, 47, 0
3, 36960, Note_on_c, 0, 35, 0
3, 36960, Note_on_c, 0, 40, 25
3, 36960, Note_on_c, 0, 52, 30
3, 37080, Note_on_c, 0, 52, 0
3, 37080, Note_on_c, 0, 40, 0
3, 37440, Note_on_c, 0, 40, 28
3, 37440, Note_on_c, 0, 52, 34
3, 38400, Note_on_c, 0, 52, 0
3, 38400, Note_on_c, 0, 40, 0
3, 38400, Note_on_c, 0, 47, 25
3, 38400, Note_on_c, 0, 59, 30
3, 38520, Note_on_c, 0, 59, 0
3, 38520, Note_on_c, 0, 47, 0
3, 38880, Note_on_c, 0, 47, 28
3, 38880, Note_on_c, 0, 59, 34
3, 39840, Note_on_c, 0, 59, 0
3, 39840, Note_on_c, 0, 47, 0
3, 39840, Note_on_c, 0, 52, 25
3, 39840, Note_on_c, 0, 64, 30
3, 39960, Note_on_c, 0, 64, 0
3, 39960, Note_on_c, 0, 52, 0
3, 40320, Note_on_c, 0, 52, 28
3, 40320, Note_on_c, 0, 64, 34
3, 41280, Note_on_c, 0, 64, 0
3, 41280, Note_on_c, 0, 52, 0
3, 41280, Note_on_c, 0, 55, 54
3, 41280, Note_on_c, 0, 59, 54
3, 41280, Note_on_c, 0, 62, 54
3, 41280, Note_on_c, 0, 65, 65
3, 41400, Note_on_c, 0, 65, 0
3, 41400, Note_on_c, 0, 55, 0
3, 41400, Note_on_c, 0, 59, 0
3, 41400, Note_on_c, 0, 62, 0
3, 41760, Note_on_c, 0, 55, 59
3, 41760, Note_on_c, 0, 59, 59
3, 41760, Note_on_c, 0, 62, 59
3, 41760, Note_on_c, 0, 65, 71
3, 42480, Note_on_c, 0, 65, 0
3, 42480, Note_on_c, 0, 55, 0
3, 42480, Note_on_c, 0, 59, 0
3, 42480, Note_on_c, 0, 62, 0
3, 45600, Note_on_c, 0, 47, 29
3, 45600, Note_on_c, 0, 35, 24
3, 45720, Note_on_c, 0, 35, 0
3, 45720, Note_on_c, 0, 47, 0
3, 46080, Note_on_c, 0, 36, 29
3, 46080, Note_on_c, 0, 48, 35
3, 46320, Note_on_c, 0, 48, 0
3, 46320, Note_on_c, 0, 36, 0
3, 47040, Note_on_c, 0, 52, 59
3, 47040, Note_on_c, 0, 56, 59
3, 47040, Note_on_c, 0, 59, 59
3, 47040, Note_on_c, 0, 62, 71
3, 47160, Note_on_c, 0, 62, 0
3, 47160, Note_on_c, 0, 52, 0
3, 47160, Note_on_c, 0, 56, 0
3, 47160, Note_on_c, 0, 59, 0
3, 47520, Note_on_c, 0, 52, 65
3, 47520, Note_on_c, 0, 56, 65
3, 47520, Note_on_c, 0, 59, 65
3, 47520, Note_on_c, 0, 62, 77
3, 48240, Note_on_c, 0, 62, 0
3, 48240, Note_on_c, 0, 52, 0
3, 48240, Note_on_c, 0, 56, 0
3, 48240, Note_on_c, 0, 59, 0
3, 51360, Note_on_c, 0, 44, 29
3, 51360, Note_on_c, 0, 32, 24
3, 51480, Note_on_c, 0, 32, 0
3, 51480, Note_on_c, 0, 44, 0
3, 51840, Note_on_c, 0, 33, 29
3, 51840, Note_on_c, 0, 45, 35
3, 52080, Note_on_c, 0, 45, 0
3, 52080, Note_on_c, 0, 33, 0
3, 52800, Note_on_c, 0, 58, 50
3, 53250, Note_on_c, 0, 58, 0
3, 53280, Note_on_c, 0, 58, 50
3, 55200, Note_on_c, 0, 58, 0
3, 57120, Note_on_c, 0, 64, 53
3, 57552, Note_on_c, 0, 64, 0
3, 57600, Note_on_c, 0, 64, 62
3, 58560, Note_on_c, 0, 64, 0
3, 58560, Note_on_c, 0, 58, 45
3, 58560, Note_on_c, 0, 64, 53
3, 58992, Note_on_c, 0, 64, 0
3, 58992, Note_on_c, 0, 58, 0
3, 59040, Note_on_c, 0, 64, 59
3, 59040, Note_on_c, 0, 58, 50
3, 60000, Note_on_c, 0, 58, 0
3, 60000, Note_on_c, 0, 64, 0
3, 60000, Note_on_c, 0, 58, 45
3, 60000, Note_on_c, 0, 64, 53
3, 60432, Note_on_c, 0, 64, 0
3, 60432, Note_on_c, 0, 58, 0
3, 60480, Note_on_c, 0, 64, 64
3, 60480, Note_on_c, 0, 58, 54
3, 61440, Note_on_c, 0, 58, 0
3, 61440, Note_on_c, 0, 64, 0
3, 61440, Note_on_c, 0, 58, 49
3, 61440, Note_on_c, 0, 61, 49
3, 61440, Note_on_c, 0, 64, 49
3, 61440, Note_on_c, 0, 67, 59
3, 61872, Note_on_c, 0, 67, 0
3, 61872, Note_on_c, 0, 58, 0
3, 61872, Note_on_c, 0, 61, 0
3, 61872, Note_on_c, 0, 64, 0
3, 61920, Note_on_c, 0, 58, 58
3, 61920, Note_on_c, 0, 61, 58
3, 61920, Note_on_c, 0, 64, 58
3, 61920, Note_on_c, 0, 67, 69
3, 62880, Note_on_c, 0, 67, 0
3, 62880, Note_on_c, 0, 66, 63
3, 63360, Note_on_c, 0, 66, 0
3, 63360, Note_on_c, 0, 65, 77
3, 64320, Note_on_c, 0, 65, 0
3, 64320, Note_on_c, 0, 58, 0
3, 64320, Note_on_c, 0, 61, 0
3, 64320, Note_on_c, 0, 64, 0
3, 64320, Note_on_c, 0, 66, 75
3, 64320, Note_on_c, 0, 64, 63
3, 64320, Note_on_c, 0, 61, 63
3, 64320, Note_on_c, 0, 58, 63
3, 64752, Note_on_c, 0, 58, 0
3, 64752, Note_on_c, 0, 66, 0
3, 64752, Note_on_c, 0, 64, 0
3, 64752, Note_on_c, 0, 61, 0
3, 64800, Note_on_c, 0, 66, 48
3, 64800, Note_on_c, 0, 62, 40
3, 64800, Note_on_c, 0, 59, 40
3, 64920, Note_on_c, 0, 59, 0
3, 64920, Note_on_c, 0, 62, 0
3, 64920, Note_on_c, 0, 66, 0
3, 65040, Note_on_c, 0, 59, 33
3, 65040, Note_on_c, 0, 62, 33
3, 65040, Note_on_c, 0, 66, 40
3, 65160, Note_on_c, 0, 66, 0
3, 65160, Note_on_c, 0, 62, 0
3, 65160, Note_on_c, 0, 59, 0
3, 65280, Note_on_c, 0, 59, 33
3, 65280, Note_on_c, 0, 62, 33
3, 65280, Note_on_c, 0, 66, 40
3, 65400, Note_on_c, 0, 66, 0
3, 65400, Note_on_c, 0, 62, 0
3, 65400, Note_on_c, 0, 59, 0
3, 65520, Note_on_c, 0, 59, 33
3, 65520, Note_on_c, 0, 62, 33
3, 65520, Note_on_c, 0, 66, 40
3, 65640, Note_on_c, 0, 66, 0
3, 65640, Note_on_c, 0, 62, 0
3, 65640, Note_on_c, 0, 59, 0
3, 65760, Note_on_c, 0, 59, 33
3, 65760, Note_on_c, 0, 62, 33
3, 65760, Note_on_c, 0, 66, 40
3, 65880, Note_on_c, 0, 66, 0
3, 65880, Note_on_c, 0, 62, 0
3, 65880, Note_on_c, 0, 59, 0
3, 66000, Note_on_c, 0, 59, 33
3, 66000, Note_on_c, 0, 62, 33
3, 66000, Note_on_c, 0, 66, 40
3, 66120, Note_on_c, 0, 66, 0
3, 66120, Note_on_c, 0, 62, 0
3, 66120, Note_on_c, 0, 59, 0
3, 66240, Note_on_c, 0, 59, 48
3, 66240, Note_on_c, 0, 54, 40
3, 66240, Note_on_c, 0, 50, 40
3, 66360, Note_on_c, 0, 50, 0
3, 66360, Note_on_c, 0, 54, 0
3, 66360, Note_on_c, 0, 59, 0
3, 66480, Note_on_c, 0, 50, 34
3, 66480, Note_on_c, 0, 54, 34
3, 66480, Note_on_c, 0, 59, 41
3, 66600, Note_on_c, 0, 59, 0
3, 66600, Note_on_c, 0, 54, 0
3, 66600, Note_on_c, 0, 50, 0
3, 66720, Note_on_c, 0, 50, 34
3, 66720, Note_on_c, 0, 54, 34
3, 66720, Note_on_c, 0, 59, 41
3, 66840, Note_on_c, 0, 59, 0
3, 66840, Note_on_c, 0, 54, 0
3, 66840, Note_on_c, 0, 50, 0
3, 66960, Note_on_c, 0, 50, 34
3, 66960, Note_on_c, 0, 54, 34
3, 66960, Note_on_c, 0, 59, 41
3, 67080, Note_on_c, 0, 59, 0
3, 67080, Note_on_c, 0, 54, 0
3, 67080, Note_on_c, 0, 50, 0
3, 67200, Note_on_c, 0, 50, 34
3, 67200, Note_on_c, 0, 54, 34
3, 67200, Note_on_c, 0, 59, 41
3, 67320, Note_on_c, 0, 59, 0
3, 67320, Note_on_c, 0, 54, 0
3, 67320, Note_on_c, 0, 50, 0
3, 67440, Note_on_c, 0, 50, 34
3, 67440, Note_on_c, 0, 54, 34
3, 67440, Note_on_c, 0, 59, 41
3, 67560, Note_on_c, 0, 59, 0
3, 67560, Note_on_c, 0, 54, 0
3, 67560, Note_on_c, 0, 50, 0
3, 67680, Note_on_c, 0, 57, 44
3, 67680, Note_on_c, 0, 54, 37
3, 67680, Note_on_c, 0, 51, 37
3, 67800, Note_on_c, 0, 51, 0
3, 67800, Note_on_c, 0, 54, 0
3, 67800, Note_on_c, 0, 57, 0
3, 67920, Note_on_c, 0, 51, 28
3, 67920, Note_on_c, 0, 54, 28
3, 67920, Note_on_c, 0, 57, 34
3, 68040, Note_on_c, 0, 57, 0
3, 68040, Note_on_c, 0, 54, 0
3, 68040, Note_on_c, 0, 51, 0
3, 68160, Note_on_c, 0, 55, 44
3, 68160, Note_on_c, 0, 52, 37
3, 68280, Note_on_c, 0, 52, 0
3, 68280, Note_on_c, 0, 55, 0
3, 68400, Note_on_c, 0, 55, 37
3, 68400, Note_on_c, 0, 52, 30
3, 68520, Note_on_c, 0, 52, 0
3, 68520, Note_on_c, 0, 55, 0
3, 68640, Note_on_c, 0, 55, 37
3, 68640, Note_on_c, 0, 52, 30
3, 68760, Note_on_c, 0, 52, 0
3, 68760, Note_on_c, 0, 55, 0
3, 68880, Note_on_c, 0, 55, 37
3, 68880, Note_on_c, 0, 52, 30
3, 69000, Note_on_c, 0, 52, 0
3, 69000, Note_on_c, 0, 55, 0
3, 69120, Note_on_c, 0, 59, 45
3, 69120, Note_on_c, 0, 55, 37
3, 69120, Note_on_c, 0, 52, 37
3, 69240, Note_on_c, 0, 52, 0
3, 69240, Note_on_c, 0, 55, 0
3, 69240, Note_on_c, 0, 59, 0
3, 69360, Note_on_c, 0, 59, 37
3, 69360, Note_on_c, 0, 55, 30
3, 69360, Note_on_c, 0, 52, 30
3, 69480, Note_on_c, 0, 52, 0
3, 69480, Note_on_c, 0, 55, 0
3, 69480, Note_on_c, 0, 59, 0
3, 69600, Note_on_c, 0, 57, 44
3, 69600, Note_on_c, 0, 54, 37
3, 69720, Note_on_c, 0, 54, 0
3, 69720, Note_on_c, 0, 57, 0
3, 69840, Note_on_c, 0, 54, 31
3, 69840, Note_on_c, 0, 57, 38
3, 69960, Note_on_c, 0, 57, 0
3, 69960, Note_on_c, 0, 54, 0
3, 70080, Note_on_c, 0, 54, 31
3, 70080, Note_on_c, 0, 57, 38
3, 70200, Note_on_c, 0, 57, 0
3, 70200, Note_on_c, 0, 54, 0
3, 70320, Note_on_c, 0, 54, 31
3, 70320, Note_on_c, 0, 57, 38
3, 70440, Note_on_c, 0, 57, 0
3, 70440, Note_on_c, 0, 54, 0
3, 70560, Note_on_c, 0, 60, 44
3, 70560, Note_on_c, 0, 57, 37
3, 70560, Note_on_c, 0, 54, 37
3, 70680, Note_on_c, 0, 54, 0
3, 70680, Note_on_c, 0, 57, 0
3, 70680, Note_on_c, 0, 60, 0
3, 70800, Note_on_c, 0, 54, 30
3, 70800, Note_on_c, 0, 57, 30
3, 70800, Note_on_c, 0, 60, 37
3, 70920, Note_on_c, 0, 60, 0
3, 70920, Note_on_c, 0, 57, 0
3, 70920, Note_on_c, 0, 54, 0
3, 71040, Note_on_c, 0, 59, 44
3, 71040, Note_on_c, 0, 55, 37
3, 71160, Note_on_c, 0, 55, 0
3, 71160, Note_on_c, 0, 59, 0
3, 71280, Note_on_c, 0, 55, 33
3, 71280, Note_on_c, 0, 59, 39
3, 71400, Note_on_c, 0, 59, 0
3, 71400, Note_on_c, 0, 55, 0
3, 71520, Note_on_c, 0, 55, 33
3, 71520, Note_on_c, 0, 59, 39
3, 71640, Note_on_c, 0, 59, 0
3, 71640, Note_on_c, 0, 55, 0
3, 71760, Note_on_c, 0, 55, 33
3, 71760, Note_on_c, 0, 59, 39
3, 71880, Note_on_c, 0, 59, 0
3, 71880, Note_on_c, 0, 55, 0
3, 72000, Note_on_c, 0, 56, 41
3, 72000, Note_on_c, 0, 59, 49
3, 72120, Note_on_c, 0, 59, 0
3, 72120, Note_on_c, 0, 56, 0
3, 72240, Note_on_c, 0, 56, 37
3, 72240, Note_on_c, 0, 59, 37
3, 72240, Note_on_c, 0, 62, 44
3, 72360, Note_on_c, 0, 62, 0
3, 72360, Note_on_c, 0, 59, 0
3, 72360, Note_on_c, 0, 56, 0
3, 72480, Note_on_c, 0, 56, 39
3, 72480, Note_on_c, 0, 59, 39
3, 72480, Note_on_c, 0, 61, 47
3, 72600, Note_on_c, 0, 61, 0
3, 72600, Note_on_c, 0, 59, 0
3, 72600, Note_on_c, 0, 56, 0
3, 72720, Note_on_c, 0, 56, 35
3, 72720, Note_on_c, 0, 59, 35
3, 72720, Note_on_c, 0, 61, 41
3, 72840, Note_on_c, 0, 61, 0
3, 72840, Note_on_c, 0, 59, 0
3, 72840, Note_on_c, 0, 56, 0
3, 72960, Note_on_c, 0, 56, 36
3, 72960, Note_on_c, 0, 59, 36
3, 72960, Note_on_c, 0, 61, 42
3, 73080, Note_on_c, 0, 61, 0
3, 73080, Note_on_c, 0, 59, 0
3, 73080, Note_on_c, 0, 56, 0
3, 73200, Note_on_c, 0, 56, 36
3, 73200, Note_on_c, 0, 59, 36
3, 73200, Note_on_c, 0, 61, 42
3, 73320, Note_on_c, 0, 61, 0
3, 73320, Note_on_c, 0, 59, 0
3, 73320, Note_on_c, 0, 56, 0
3, 73440, Note_on_c, 0, 61, 34
3, 73560, Note_on_c, 0, 61, 0
3, 73680, Note_on_c, 0, 61, 32
3, 73800, Note_on_c, 0, 61, 0
3, 73920, Note_on_c, 0, 61, 32
3, 74040, Note_on_c, 0, 61, 0
3, 74160, Note_on_c, 0, 61, 32
3, 74280, Note_on_c, 0, 61, 0
3, 74400, Note_on_c, 0, 61, 32
3, 74520, Note_on_c, 0, 61, 0
3, 74640, Note_on_c, 0, 61, 32
3, 74760, Note_on_c, 0, 61, 0
3, 74880, Note_on_c, 0, 61, 40
3, 75000, Note_on_c, 0, 61, 0
3, 75120, Note_on_c, 0, 61, 45
3, 75240, Note_on_c, 0, 61, 0
3, 75360, Note_on_c, 0, 61, 49
3, 75480, Note_on_c, 0, 61, 0
3, 75600, Note_on_c, 0, 61, 52
3, 75720, Note_on_c, 0, 61, 0
3, 75840, Note_on_c, 0, 61, 56
3, 75960, Note_on_c, 0, 61, 0
3, 76080, Note_on_c, 0, 61, 58
3, 76200, Note_on_c, 0, 61, 0
3, 76320, Note_on_c, 0, 54, 60
3, 76320, Note_on_c, 0, 58, 60
3, 76320, Note_on_c, 0, 61, 60
3, 76320, Note_on_c, 0, 64, 71
3, 76440, Note_on_c, 0, 64, 0
3, 76440, Note_on_c, 0, 54, 0
3, 76440, Note_on_c, 0, 58, 0
3, 76440, Note_on_c, 0, 61, 0
3, 76560, Note_on_c, 0, 64, 59
3, 76560, Note_on_c, 0, 61, 49
3, 76560, Note_on_c, 0, 58, 49
3, 76560, Note_on_c, 0, 54, 49
3, 76680, Note_on_c, 0, 54, 0
3, 76680, Note_on_c, 0, 64, 0
3, 76680, Note_on_c, 0, 61, 0
3, 76680, Note_on_c, 0, 58, 0
3, 76800, Note_on_c, 0, 64, 59
3, 76800, Note_on_c, 0, 61, 49
3, 76800, Note_on_c, 0, 58, 49
3, 76800, Note_on_c, 0, 54, 49
3, 76920, Note_on_c, 0, 54, 0
3, 76920, Note_on_c, 0, 64, 0
3, 76920, Note_on_c, 0, 61, 0
3, 76920, Note_on_c, 0, 58, 0
3, 77040, Note_on_c, 0, 64, 59
3, 77040, Note_on_c, 0, 61, 49
3, 77040, Note_on_c, 0, 58, 49
3, 77040, Note_on_c, 0, 54, 49
3, 77160, Note_on_c, 0, 54, 0
3, 77160, Note_on_c, 0, 64, 0
3, 77160, Note_on_c, 0, 61, 0
3, 77160, Note_on_c, 0, 58, 0
3, 77280, Note_on_c, 0, 64, 59
3, 77280, Note_on_c, 0, 61, 49
3, 77280, Note_on_c, 0, 58, 49
3, 77280, Note_on_c, 0, 54, 49
3, 77400, Note_on_c, 0, 54, 0
3, 77400, Note_on_c, 0, 64, 0
3, 77400, Note_on_c, 0, 61, 0
3, 77400, Note_on_c, 0, 58, 0
3, 77520, Note_on_c, 0, 64, 59
3, 77520, Note_on_c, 0, 61, 49
3, 77520, Note_on_c, 0, 58, 49
3, 77520, Note_on_c, 0, 54, 49
3, 77640, Note_on_c, 0, 54, 0
3, 77640, Note_on_c, 0, 64, 0
3, 77640, Note_on_c, 0, 61, 0
3, 77640, Note_on_c, 0, 58, 0
3, 77760, Note_on_c, 0, 64, 64
3, 77760, Note_on_c, 0, 61, 53
3, 77760, Note_on_c, 0, 58, 53
3, 77760, Note_on_c, 0, 54, 53
3, 77880, Note_on_c, 0, 54, 0
3, 77880, Note_on_c, 0, 64, 0
3, 77880, Note_on_c, 0, 61, 0
3, 77880, Note_on_c, 0, 58, 0
3, 78000, Note_on_c, 0, 54, 51
3, 78000, Note_on_c, 0, 58, 51
3, 78000, Note_on_c, 0, 61, 51
3, 78000, Note_on_c, 0, 64, 60
3, 78120, Note_on_c, 0, 64, 0
3, 78120, Note_on_c, 0, 54, 0
3, 78120, Note_on_c, 0, 58, 0
3, 78120, Note_on_c, 0, 61, 0
3, 78240, Note_on_c, 0, 54, 47
3, 78240, Note_on_c, 0, 58, 47
3, 78240, Note_on_c, 0, 61, 47
3, 78240, Note_on_c, 0, 64, 57
3, 78360, Note_on_c, 0, 64, 0
3, 78360, Note_on_c, 0, 54, 0
3, 78360, Note_on_c, 0, 58, 0
3, 78360, Note_on_c, 0, 61, 0
3, 78480, Note_on_c, 0, 54, 44
3, 78480, Note_on_c, 0, 58, 44
3, 78480, Note_on_c, 0, 61, 44
3, 78480, Note_on_c, 0, 64, 52
3, 78600, Note_on_c, 0, 64, 0
3, 78600, Note_on_c, 0, 54, 0
3, 78600, Note_on_c, 0, 58, 0
3, 78600, Note_on_c, 0, 61, 0
3, 78720, Note_on_c, 0, 54, 39
3, 78720, Note_on_c, 0, 58, 39
3, 78720, Note_on_c, 0, 61, 39
3, 78720, Note_on_c, 0, 64, 47
3, 78840, Note_on_c, 0, 64, 0
3, 78840, Note_on_c, 0, 54, 0
3, 78840, Note_on_c, 0, 58, 0
3, 78840, Note_on_c, 0, 61, 0
3, 78960, Note_on_c, 0, 54, 39
3, 78960, Note_on_c, 0, 58, 39
3, 78960, Note_on_c, 0, 61, 39
3, 78960, Note_on_c, 0, 64, 46
3, 79080, Note_on_c, 0, 64, 0
3, 79080, Note_on_c, 0, 54, 0
3, 79080, Note_on_c, 0, 58, 0
3, 79080, Note_on_c, 0, 61, 0
3, 79200, Note_on_c, 0, 47, 40
3, 79320, Note_on_c, 0, 47, 0
3, 79320, Note_on_c, 0, 62, 34
3, 79440, Note_on_c, 0, 62, 0
3, 79440, Note_on_c, 0, 54, 37
3, 79560, Note_on_c, 0, 54, 0
3, 79560, Note_on_c, 0, 62, 34
3, 79680, Note_on_c, 0, 62, 0
3, 79680, Note_on_c, 0, 49, 40
3, 79800, Note_on_c, 0, 49, 0
3, 79800, Note_on_c, 0, 64, 34
3, 79920, Note_on_c, 0, 64, 0
3, 79920, Note_on_c, 0, 54, 37
3, 80040, Note_on_c, 0, 54, 0
3, 80040, Note_on_c, 0, 64, 34
3, 80160, Note_on_c, 0, 64, 0
3, 80160, Note_on_c, 0, 50, 40
3, 80280, Note_on_c, 0, 50, 0
3, 80280, Note_on_c, 0, 66, 35
3, 80400, Note_on_c, 0, 66, 0
3, 80400, Note_on_c, 0, 54, 38
3, 80520, Note_on_c, 0, 54, 0
3, 80520, Note_on_c, 0, 66, 35
3, 80640, Note_on_c, 0, 66, 0
3, 80640, Note_on_c, 0, 47, 40
3, 80760, Note_on_c, 0, 47, 0
3, 80760, Note_on_c, 0, 62, 34
3, 80880, Note_on_c, 0, 62, 0
3, 80880, Note_on_c, 0, 54, 37
3, 81000, Note_on_c, 0, 54, 0
3, 81000, Note_on_c, 0, 62, 34
3, 81120, Note_on_c, 0, 62, 0
3, 81120, Note_on_c, 0, 49, 40
3, 81240, Note_on_c, 0, 49, 0
3, 81240, Note_on_c, 0, 64, 34
3, 81360, Note_on_c, 0, 64, 0
3, 81360, Note_on_c, 0, 54, 37
3, 81480, Note_on_c, 0, 54, 0
3, 81480, Note_on_c, 0, 64, 34
3, 81600, Note_on_c, 0, 64, 0
3, 81600, Note_on_c, 0, 50, 40
3, 81720, Note_on_c, 0, 50, 0
3, 81720, Note_on_c, 0, 66, 35
3, 81840, Note_on_c, 0, 66, 0
3, 81840, Note_on_c, 0, 54, 38
3, 81960, Note_on_c, 0, 54, 0
3, 81960, Note_on_c, 0, 66, 35
3, 82080, Note_on_c, 0, 66, 0
3, 82080, Note_on_c, 0, 47, 40
3, 82200, Note_on_c, 0, 47, 0
3, 82200, Note_on_c, 0, 62, 34
3, 82320, Note_on_c, 0, 62, 0
3, 82320, Note_on_c, 0, 54, 37
3, 82440, Note_on_c, 0, 54, 0
3, 82440, Note_on_c, 0, 62, 34
3, 82560, Note_on_c, 0, 62, 0
3, 82560, Note_on_c, 0, 49, 40
3, 82680, Note_on_c, 0, 49, 0
3, 82680, Note_on_c, 0, 64, 34
3, 82800, Note_on_c, 0, 64, 0
3, 82800, Note_on_c, 0, 54, 37
3, 82920, Note_on_c, 0, 54, 0
3, 82920, Note_on_c, 0, 64, 34
3, 83040, Note_on_c, 0, 64, 0
3, 83040, Note_on_c, 0, 50, 40
3, 83160, Note_on_c, 0, 50, 0
3, 83160, Note_on_c, 0, 66, 35
3, 83280, Note_on_c, 0, 66, 0
3, 83280, Note_on_c, 0, 54, 38
3, 83400, Note_on_c, 0, 54, 0
3, 83400, Note_on_c, 0, 66, 35
3, 83520, Note_on_c, 0, 66, 0
3, 83520, Note_on_c, 0, 47, 40
3, 83640, Note_on_c, 0, 47, 0
3, 83640, Note_on_c, 0, 62, 34
3, 83760, Note_on_c, 0, 62, 0
3, 83760, Note_on_c, 0, 54, 37
3, 83880, Note_on_c, 0, 54, 0
3, 83880, Note_on_c, 0, 62, 34
3, 84000, Note_on_c, 0, 62, 0
3, 84000, Note_on_c, 0, 49, 40
3, 84120, Note_on_c, 0, 49, 0
3, 84120, Note_on_c, 0, 64, 34
3, 84240, Note_on_c, 0, 64, 0
3, 84240, Note_on_c, 0, 54, 37
3, 84360, Note_on_c, 0, 54, 0
3, 84360, Note_on_c, 0, 64, 34
3, 84480, Note_on_c, 0, 64, 0
3, 84480, Note_on_c, 0, 50, 40
3, 84600, Note_on_c, 0, 50, 0
3, 84600, Note_on_c, 0, 66, 35
3, 84720, Note_on_c, 0, 66, 0
3, 84720, Note_on_c, 0, 54, 38
3, 84840, Note_on_c, 0, 54, 0
3, 84840, Note_on_c, 0, 66, 35
3, 84960, Note_on_c, 0, 66, 0
3, 84960, Note_on_c, 0, 52, 40
3, 85080, Note_on_c, 0, 52, 0
3, 85080, Note_on_c, 0, 62, 34
3, 85200, Note_on_c, 0, 62, 0
3, 85200, Note_on_c, 0, 59, 37
3, 85320, Note_on_c, 0, 59, 0
3, 85320, Note_on_c, 0, 62, 34
3, 85440, Note_on_c, 0, 62, 0
3, 85440, Note_on_c, 0, 53, 49
3, 85560, Note_on_c, 0, 53, 0
3, 85560, Note_on_c, 0, 62, 34
3, 85680, Note_on_c, 0, 62, 0
3, 85680, Note_on_c, 0, 59, 42
3, 85800, Note_on_c, 0, 59, 0
3, 85800, Note_on_c, 0, 62, 34
3, 85920, Note_on_c, 0, 62, 0
3, 85920, Note_on_c, 0, 54, 48
3, 86040, Note_on_c, 0, 54, 0
3, 86040, Note_on_c, 0, 62, 35
3, 86160, Note_on_c, 0, 62, 0
3, 86160, Note_on_c, 0, 59, 38
3, 86280, Note_on_c, 0, 59, 0
3, 86280, Note_on_c, 0, 62, 38
3, 86400, Note_on_c, 0, 62, 0
3, 86400, Note_on_c, 0, 54, 51
3, 86520, Note_on_c, 0, 54, 0
3, 86520, Note_on_c, 0, 62, 39
3, 86640, Note_on_c, 0, 62, 0
3, 86640, Note_on_c, 0, 59, 42
3, 86760, Note_on_c, 0, 59, 0
3, 86760, Note_on_c, 0, 62, 39
3, 86880, Note_on_c, 0, 62, 0
3, 86880, Note_on_c, 0, 54, 48
3, 87000, Note_on_c, 0, 54, 0
3, 87000, Note_on_c, 0, 62, 38
3, 87120, Note_on_c, 0, 62, 0
3, 87120, Note_on_c, 0, 59, 39
3, 87240, Note_on_c, 0, 59, 0
3, 87240, Note_on_c, 0, 62, 38
3, 87360, Note_on_c, 0, 62, 0
3, 87360, Note_on_c, 0, 54, 45
3, 87480, Note_on_c, 0, 54, 0
3, 87480, Note_on_c, 0, 64, 41
3, 87600, Note_on_c, 0, 64, 0
3, 87600, Note_on_c, 0, 61, 45
3, 87720, Note_on_c, 0, 61, 0
3, 87720, Note_on_c, 0, 64, 40
3, 87840, Note_on_c, 0, 64, 0
3, 87840, Note_on_c, 0, 47, 40
3, 87960, Note_on_c, 0, 47, 0
3, 87960, Note_on_c, 0, 62, 36
3, 88080, Note_on_c, 0, 62, 0
3, 88080, Note_on_c, 0, 54, 41
3, 88200, Note_on_c, 0, 54, 0
3, 88200, Note_on_c, 0, 62, 40
3, 88320, Note_on_c, 0, 62, 0
3, 88320, Note_on_c, 0, 49, 50
3, 88440, Note_on_c, 0, 49, 0
3, 88440, Note_on_c, 0, 64, 41
3, 88560, Note_on_c, 0, 64, 0
3, 88560, Note_on_c, 0, 54, 44
3, 88680, Note_on_c, 0, 54, 0
3, 88680, Note_on_c, 0, 64, 39
3, 88800, Note_on_c, 0, 64, 0
3, 88800, Note_on_c, 0, 50, 45
3, 88920, Note_on_c, 0, 50, 0
3, 88920, Note_on_c, 0, 66, 38
3, 89040, Note_on_c, 0, 66, 0
3, 89040, Note_on_c, 0, 54, 40
3, 89160, Note_on_c, 0, 54, 0
3, 89160, Note_on_c, 0, 66, 36
3, 89280, Note_on_c, 0, 66, 0
3, 89280, Note_on_c, 0, 47, 40
3, 89400, Note_on_c, 0, 47, 0
3, 89400, Note_on_c, 0, 62, 36
3, 89520, Note_on_c, 0, 62, 0
3, 89520, Note_on_c, 0, 54, 41
3, 89640, Note_on_c, 0, 54, 0
3, 89640, Note_on_c, 0, 62, 40
3, 89760, Note_on_c, 0, 62, 0
3, 89760, Note_on_c, 0, 49, 50
3, 89880, Note_on_c, 0, 49, 0
3, 89880, Note_on_c, 0, 64, 41
3, 90000, Note_on_c, 0, 64, 0
3, 90000, Note_on_c, 0, 54, 44
3, 90120, Note_on_c, 0, 54, 0
3, 90120, Note_on_c, 0, 64, 39
3, 90240, Note_on_c, 0, 64, 0
3, 90240, Note_on_c, 0, 50, 45
3, 90360, Note_on_c, 0, 50, 0
3, 90360, Note_on_c, 0, 66, 38
3, 90480, Note_on_c, 0, 66, 0
3, 90480, Note_on_c, 0, 54, 40
3, 90600, Note_on_c, 0, 54, 0
3, 90600, Note_on_c, 0, 66, 36
3, 90720, Note_on_c, 0, 66, 0
3, 90720, Note_on_c, 0, 47, 40
3, 90840, Note_on_c, 0, 47, 0
3, 90840, Note_on_c, 0, 62, 36
3, 90960, Note_on_c, 0, 62, 0
3, 90960, Note_on_c, 0, 54, 41
3, 91080, Note_on_c, 0, 54, 0
3, 91080, Note_on_c, 0, 62, 40
3, 91200, Note_on_c, 0, 62, 0
3, 91200, Note_on_c, 0, 49, 50
3, 91320, Note_on_c, 0, 49, 0
3, 91320, Note_on_c, 0, 64, 41
3, 91440, Note_on_c, 0, 64, 0
3, 91440, Note_on_c, 0, 54, 44
3, 91560, Note_on_c, 0, 54, 0
3, 91560, Note_on_c, 0, 64, 39
3, 91680, Note_on_c, 0, 64, 0
3, 91680, Note_on_c, 0, 50, 45
3, 91800, Note_on_c, 0, 50, 0
3, 91800, Note_on_c, 0, 66, 38
3, 91920, Note_on_c, 0, 66, 0
3, 91920, Note_on_c, 0, 54, 40
3, 92040, Note_on_c, 0, 54, 0
3, 92040, Note_on_c, 0, 66, 36
3, 92160, Note_on_c, 0, 66, 0
3, 92160, Note_on_c, 0, 47, 40
3, 92280, Note_on_c, 0, 47, 0
3, 92280, Note_on_c, 0, 62, 36
3, 92400, Note_on_c, 0, 62, 0
3, 92400, Note_on_c, 0, 54, 41
3, 92520, Note_on_c, 0, 54, 0
3, 92520, Note_on_c, 0, 62, 40
3, 92640, Note_on_c, 0, 62, 0
3, 92640, Note_on_c, 0, 49, 50
3, 92760, Note_on_c, 0, 49, 0
3, 92760, Note_on_c, 0, 64, 41
3, 92880, Note_on_c, 0, 64, 0
3, 92880, Note_on_c, 0, 54, 44
3, 93000, Note_on_c, 0, 54, 0
3, 93000, Note_on_c, 0, 64, 39
3, 93120, Note_on_c, 0, 64, 0
3, 93120, Note_on_c, 0, 50, 45
3, 93240, Note_on_c, 0, 50, 0
3, 93240, Note_on_c, 0, 66, 38
3, 93360, Note_on_c, 0, 66, 0
3, 93360, Note_on_c, 0, 54, 40
3, 93480, Note_on_c, 0, 54, 0
3, 93480, Note_on_c, 0, 66, 36
3, 93600, Note_on_c, 0, 66, 0
3, 93600, Note_on_c, 0, 52, 40
3, 93720, Note_on_c, 0, 52, 0
3, 93720, Note_on_c, 0, 62, 34
3, 93840, Note_on_c, 0, 62, 0
3, 93840, Note_on_c, 0, 59, 37
3, 93960, Note_on_c, 0, 59, 0
3, 93960, Note_on_c, 0, 62, 34
3, 94080, Note_on_c, 0, 62, 0
3, 94080, Note_on_c, 0, 53, 49
3, 94200, Note_on_c, 0, 53, 0
3, 94200, Note_on_c, 0, 62, 34
3, 94320, Note_on_c, 0, 62, 0
3, 94320, Note_on_c, 0, 59, 42
3, 94440, Note_on_c, 0, 59, 0
3, 94440, Note_on_c, 0, 62, 34
3, 94560, Note_on_c, 0, 62, 0
3, 94560, Note_on_c, 0, 54, 48
3, 94680, Note_on_c, 0, 54, 0
3, 94680, Note_on_c, 0, 62, 35
3, 94800, Note_on_c, 0, 62, 0
3, 94800, Note_on_c, 0, 59, 38
3, 94920, Note_on_c, 0, 59, 0
3, 94920, Note_on_c, 0, 62, 38
3, 95040, Note_on_c, 0, 62, 0
3, 95040, Note_on_c, 0, 54, 53
3, 95990, Note_on_c, 0, 54, 0
3, 96000, Note_on_c, 0, 42, 57
3, 96000, Note_on_c, 0, 30, 48
3, 96480, Note_on_c, 0, 30, 0
3, 96480, Note_on_c, 0, 42, 0
3, 96480, Note_on_c, 0, 47, 93
3, 96480, Note_on_c, 0, 35, 79
3, 96600, Note_on_c, 0, 35, 0
3, 96600, Note_on_c, 0, 47, 0
3, 96720, Note_on_c, 0, 49, 81
3, 96720, Note_on_c, 0, 37, 69
3, 96840, Note_on_c, 0, 37, 0
3, 96840, Note_on_c, 0, 49, 0
3, 96960, Note_on_c, 0, 50, 81
3, 96960, Note_on_c, 0, 38, 69
3, 97080, Note_on_c, 0, 38, 0
3, 97080, Note_on_c, 0, 50, 0
3, 97200, Note_on_c, 0, 52, 88
3, 97200, Note_on_c, 0, 40, 72
3, 97320, Note_on_c, 0, 40, 0
3, 97320, Note_on_c, 0, 52, 0
3, 97440, Note_on_c, 0, 54, 94
3, 97440, Note_on_c, 0, 42, 80
3, 99360, Note_on_c, 0, 42, 0
3, 99360, Note_on_c, 0, 54, 0
3, 99360, Note_on_c, 0, 40, 37
3, 99360, Note_on_c, 0, 52, 44
3, 100800, Note_on_c, 0, 52, 0
3, 100800, Note_on_c, 0, 40, 0
3, 100800, Note_on_c, 0, 54, 43
3, 100800, Note_on_c, 0, 42, 36
3, 102240, Note_on_c, 0, 42, 0
3, 102240, Note_on_c, 0, 54, 0
3, 102240, Note_on_c, 0, 47, 93
3, 102240, Note_on_c, 0, 35, 79
3, 102360, Note_on_c, 0, 35, 0
3, 102360, Note_on_c, 0, 47, 0
3, 102480, Note_on_c, 0, 49, 81
3, 102480, Note_on_c, 0, 37, 69
3, 102600, Note_on_c, 0, 37, 0
3, 102600, Note_on_c, 0, 49, 0
3, 102720, Note_on_c, 0, 50, 81
3, 102720, Note_on_c, 0, 38, 69
3, 102840, Note_on_c, 0, 38, 0
3, 102840, Note_on_c, 0, 50, 0
3, 102960, Note_on_c, 0, 52, 88
3, 102960, Note_on_c, 0, 40, 72
3, 103080, Note_on_c, 0, 40, 0
3, 103080, Note_on_c, 0, 52, 0
3, 103200, Note_on_c, 0, 54, 94
3, 103200, Note_on_c, 0, 42, 80
3, 105120, Note_on_c, 0, 42, 0
3, 105120, Note_on_c, 0, 54, 0
3, 105120, Note_on_c, 0, 40, 37
3, 105120, Note_on_c, 0, 52, 44
3, 106560, Note_on_c, 0, 52, 0
3, 106560, Note_on_c, 0, 40, 0
3, 106560, Note_on_c, 0, 42, 24
3, 106560, Note_on_c, 0, 54, 29
3, 108000, Note_on_c, 0, 54, 0
3, 108000, Note_on_c, 0, 42, 0
3, 109440, Note_on_c, 0, 47, 23
3, 109440, Note_on_c, 0, 35, 19
3, 110880, Note_on_c, 0, 35, 0
3, 110880, Note_on_c, 0, 47, 0
3, 112320, Note_on_c, 0, 42, 23
3, 112320, Note_on_c, 0, 30, 19
3, 113760, Note_on_c, 0, 30, 0
3, 113760, Note_on_c, 0, 42, 0
3, 113760, Note_on_c, 0, 35, 19
3, 113760, Note_on_c, 0, 47, 23
3, 114240, Note_on_c, 0, 47, 0
3, 114240, Note_on_c, 0, 35, 0
3, 115200, Note_on_c, 0, 35, 19
3, 115200, Note_on_c, 0, 47, 23
3, 115680, Note_on_c, 0, 47, 0
3, 115680, Note_on_c, 0, 35, 0
3, 116640, Note_on_c, 0, 35, 19
3, 116640, Note_on_c, 0, 47, 23
3, 117120, Note_on_c, 0, 47, 0
3, 117120, Note_on_c, 0, 35, 0
3, 121920, Note_on_c, 0, 69, 30
3, 121920, Note_on_c, 0, 66, 25
3, 122040, Note_on_c, 0, 66, 0
3, 122040, Note_on_c, 0, 69, 0
3, 122400, Note_on_c, 0, 66, 28
3, 122400, Note_on_c, 0, 69, 34
3, 122880, Note_on_c, 0, 69, 0
3, 122880, Note_on_c, 0, 66, 0
3, 123360, Note_on_c, 0, 69, 31
3, 123360, Note_on_c, 0, 66, 26
3, 123480, Note_on_c, 0, 66, 0
3, 123480, Note_on_c, 0, 69, 0
3, 123840, Note_on_c, 0, 64, 28
3, 123840, Note_on_c, 0, 67, 34
3, 124320, Note_on_c, 0, 67, 0
3, 124320, Note_on_c, 0, 64, 0
3, 124800, Note_on_c, 0, 67, 31
3, 124800, Note_on_c, 0, 64, 26
3, 125280, Note_on_c, 0, 64, 0
3, 125280, Note_on_c, 0, 67, 0
3, 125280, Note_on_c, 0, 62, 28
3, 125280, Note_on_c, 0, 65, 34
3, 125760, Note_on_c, 0, 65, 0
3, 125760, Note_on_c, 0, 62, 0
3, 126240, Note_on_c, 0, 65, 30
3, 126240, Note_on_c, 0, 62, 25
3, 126480, Note_on_c, 0, 62, 0
3, 126480, Note_on_c, 0, 65, 0
3, 126720, Note_on_c, 0, 60, 28
3, 126720, Note_on_c, 0, 64, 34
3, 126960, Note_on_c, 0, 64, 0
3, 126960, Note_on_c, 0, 60, 0
3, 126960, Note_on_c, 0, 64, 30
3, 127080, Note_on_c, 0, 64, 0
3, 127200, Note_on_c, 0, 64, 30
3, 127320, Note_on_c, 0, 64, 0
3, 127440, Note_on_c, 0, 64, 30
3, 127560, Note_on_c, 0, 64, 0
3, 127680, Note_on_c, 0, 64, 39
3, 127800, Note_on_c, 0, 64, 0
3, 127920, Note_on_c, 0, 64, 37
3, 128040, Note_on_c, 0, 64, 0
3, 128160, Note_on_c, 0, 64, 40
3, 128160, Note_on_c, 0, 57, 33
3, 128160, Note_on_c, 0, 60, 40
3, 128280, Note_on_c, 0, 64, 0
3, 128400, Note_on_c, 0, 64, 36
3, 128520, Note_on_c, 0, 64, 0
3, 128640, Note_on_c, 0, 60, 0
3, 128640, Note_on_c, 0, 57, 0
3, 128640, Note_on_c, 0, 64, 37
3, 128760, Note_on_c, 0, 64, 0
3, 128880, Note_on_c, 0, 64, 38
3, 129000, Note_on_c, 0, 64, 0
3, 129120, Note_on_c, 0, 64, 39
3, 129120, Note_on_c, 0, 60, 41
3, 129120, Note_on_c, 0, 57, 34
3, 129240, Note_on_c, 0, 57, 0
3, 129240, Note_on_c, 0, 60, 0
3, 129240, Note_on_c, 0, 64, 0
3, 129360, Note_on_c, 0, 64, 40
3, 129480, Note_on_c, 0, 64, 0
3, 129600, Note_on_c, 0, 65, 47
3, 129600, Note_on_c, 0, 56, 38
3, 129600, Note_on_c, 0, 59, 47
3, 129720, Note_on_c, 0, 65, 0
3, 129840, Note_on_c, 0, 65, 42
3, 129960, Note_on_c, 0, 65, 0
3, 130080, Note_on_c, 0, 59, 0
3, 130080, Note_on_c, 0, 56, 0
3, 130080, Note_on_c, 0, 65, 43
3, 130200, Note_on_c, 0, 65, 0
3, 130320, Note_on_c, 0, 65, 45
3, 130440, Note_on_c, 0, 65, 0
3, 130560, Note_on_c, 0, 56, 47
3, 130560, Note_on_c, 0, 59, 47
3, 130560, Note_on_c, 0, 65, 52
3, 130680, Note_on_c, 0, 65, 0
3, 130680, Note_on_c, 0, 59, 0
3, 130680, Note_on_c, 0, 56, 0
3, 130800, Note_on_c, 0, 65, 50
3, 130920, Note_on_c, 0, 65, 0
3, 131040, Note_on_c, 0, 65, 53
3, 131040, Note_on_c, 0, 56, 45
3, 131040, Note_on_c, 0, 58, 53
3, 131160, Note_on_c, 0, 65, 0
3, 131280, Note_on_c, 0, 65, 49
3, 131400, Note_on_c, 0, 65, 0
3, 131520, Note_on_c, 0, 58, 0
3, 131520, Note_on_c, 0, 56, 0
3, 131520, Note_on_c, 0, 65, 49
3, 131640, Note_on_c, 0, 65, 0
3, 131760, Note_on_c, 0, 65, 50
3, 131880, Note_on_c, 0, 65, 0
3, 132000, Note_on_c, 0, 65, 51
3, 132000, Note_on_c, 0, 58, 53
3, 132000, Note_on_c, 0, 56, 44
3, 132120, Note_on_c, 0, 56, 0
3, 132120, Note_on_c, 0, 58, 0
3, 132120, Note_on_c, 0, 65, 0
3, 132240, Note_on_c, 0, 65, 52
3, 132360, Note_on_c, 0, 65, 0
3, 132480, Note_on_c, 0, 55, 56
3, 132480, Note_on_c, 0, 58, 56
3, 132480, Note_on_c, 0, 63, 67
3, 132600, Note_on_c, 0, 63, 0
3, 132600, Note_on_c, 0, 58, 0
3, 132600, Note_on_c, 0, 55, 0
3, 132720, Note_on_c, 0, 63, 61
3, 132720, Note_on_c, 0, 58, 51
3, 132720, Note_on_c, 0, 55, 51
3, 132840, Note_on_c, 0, 55, 0
3, 132840, Note_on_c, 0, 58, 0
3, 132840, Note_on_c, 0, 63, 0
3, 132960, Note_on_c, 0, 63, 61
3, 132960, Note_on_c, 0, 58, 51
3, 132960, Note_on_c, 0, 55, 51
3, 133080, Note_on_c, 0, 55, 0
3, 133080, Note_on_c, 0, 58, 0
3, 133080, Note_on_c, 0, 63, 0
3, 133200, Note_on_c, 0, 63, 61
3, 133200, Note_on_c, 0, 58, 51
3, 133200, Note_on_c, 0, 55, 51
3, 133320, Note_on_c, 0, 55, 0
3, 133320, Note_on_c, 0, 58, 0
3, 133320, Note_on_c, 0, 63, 0
3, 133440, Note_on_c, 0, 63, 61
3, 133440, Note_on_c, 0, 58, 51
3, 133440, Note_on_c, 0, 55, 51
3, 133560, Note_on_c, 0, 55, 0
3, 133560, Note_on_c, 0, 58, 0
3, 133560, Note_on_c, 0, 63, 0
3, 133680, Note_on_c, 0, 63, 61
3, 133680, Note_on_c, 0, 58, 51
3, 133680, Note_on_c, 0, 55, 51
3, 133800, Note_on_c, 0, 55, 0
3, 133800, Note_on_c, 0, 58, 0
3, 133800, Note_on_c, 0, 63, 0
3, 133920, Note_on_c, 0, 54, 56
3, 133920, Note_on_c, 0, 58, 56
3, 134040, Note_on_c, 0, 58, 0
3, 134040, Note_on_c, 0, 54, 0
3, 134160, Note_on_c, 0, 58, 51
3, 134160, Note_on_c, 0, 54, 51
3, 134280, Note_on_c, 0, 54, 0
3, 134280, Note_on_c, 0, 58, 0
3, 134400, Note_on_c, 0, 58, 51
3, 134400, Note_on_c, 0, 54, 51
3, 134520, Note_on_c, 0, 54, 0
3, 134520, Note_on_c, 0, 58, 0
3, 134640, Note_on_c, 0, 58, 51
3, 134640, Note_on_c, 0, 54, 51
3, 134760, Note_on_c, 0, 54, 0
3, 134760, Note_on_c, 0, 58, 0
3, 134880, Note_on_c, 0, 58, 51
3, 134880, Note_on_c, 0, 54, 51
3, 135000, Note_on_c, 0, 54, 0
3, 135000, Note_on_c, 0, 58, 0
3, 135120, Note_on_c, 0, 58, 52
3, 135120, Note_on_c, 0, 54, 52
3, 135240, Note_on_c, 0, 54, 0
3, 135240, Note_on_c, 0, 58, 0
3, 135360, Note_on_c, 0, 51, 47
3, 135360, Note_on_c, 0, 54, 57
3, 135480, Note_on_c, 0, 54, 0
3, 135480, Note_on_c, 0, 51, 0
3, 135600, Note_on_c, 0, 54, 52
3, 135600, Note_on_c, 0, 51, 43
3, 135720, Note_on_c, 0, 51, 0
3, 135720, Note_on_c, 0, 54, 0
3, 135840, Note_on_c, 0, 54, 52
3, 135840, Note_on_c, 0, 51, 44
3, 135960, Note_on_c, 0, 51, 0
3, 135960, Note_on_c, 0, 54, 0
3, 136080, Note_on_c, 0, 54, 52
3, 136080, Note_on_c, 0, 51, 44
3, 136200, Note_on_c, 0, 51, 0
3, 136200, Note_on_c, 0, 54, 0
3, 136320, Note_on_c, 0, 54, 53
3, 136320, Note_on_c, 0, 51, 44
3, 136440, Note_on_c, 0, 51, 0
3, 136440, Note_on_c, 0, 54, 0
3, 136560, Note_on_c, 0, 54, 53
3, 136560, Note_on_c, 0, 51, 44
3, 136680, Note_on_c, 0, 51, 0
3, 136680, Note_on_c, 0, 54, 0
3, 136800, Note_on_c, 0, 51, 58
3, 136806, Note_on_c, 0, 48, 49
3, 136920, Note_on_c, 0, 51, 0
3, 136926, Note_on_c, 0, 48, 0
3, 137040, Note_on_c, 0, 51, 53
3, 137040, Note_on_c, 0, 48, 45
3, 137160, Note_on_c, 0, 48, 0
3, 137160, Note_on_c, 0, 51, 0
3, 137280, Note_on_c, 0, 51, 53
3, 137280, Note_on_c, 0, 48, 45
3, 137400, Note_on_c, 0, 48, 0
3, 137400, Note_on_c, 0, 51, 0
3, 137520, Note_on_c, 0, 51, 54
3, 137520, Note_on_c, 0, 48, 45
3, 137640, Note_on_c, 0, 48, 0
3, 137640, Note_on_c, 0, 51, 0
3, 137760, Note_on_c, 0, 51, 54
3, 137760, Note_on_c, 0, 48, 45
3, 137880, Note_on_c, 0, 48, 0
3, 137880, Note_on_c, 0, 51, 0
3, 138000, Note_on_c, 0, 51, 54
3, 138000, Note_on_c, 0, 48, 46
3, 138120, Note_on_c, 0, 48, 0
3, 138120, Note_on_c, 0, 51, 0
3, 138240, Note_on_c, 0, 45, 50
3, 138240, Note_on_c, 0, 48, 59
3, 138360, Note_on_c, 0, 48, 0
3, 138360, Note_on_c, 0, 45, 0
3, 138480, Note_on_c, 0, 48, 54
3, 138480, Note_on_c, 0, 45, 46
3, 138600, Note_on_c, 0, 45, 0
3, 138600, Note_on_c, 0, 48, 0
3, 138720, Note_on_c, 0, 48, 55
3, 138720, Note_on_c, 0, 45, 46
3, 138840, Note_on_c, 0, 45, 0
3, 138840, Note_on_c, 0, 48, 0
3, 138960, Note_on_c, 0, 48, 55
3, 138960, Note_on_c, 0, 45, 46
3, 139080, Note_on_c, 0, 45, 0
3, 139080, Note_on_c, 0, 48, 0
3, 139200, Note_on_c, 0, 48, 55
3, 139200, Note_on_c, 0, 45, 46
3, 139320, Note_on_c, 0, 45, 0
3, 139320, Note_on_c, 0, 48, 0
3, 139440, Note_on_c, 0, 48, 55
3, 139440, Note_on_c, 0, 45, 46
3, 139560, Note_on_c, 0, 45, 0
3, 139560, Note_on_c, 0, 48, 0
3, 139680, Note_on_c, 0, 42, 61
3, 139680, Note_on_c, 0, 45, 61
3, 139680, Note_on_c, 0, 48, 61
3, 139800, Note_on_c, 0, 48, 0
3, 139800, Note_on_c, 0, 45, 0
3, 139800, Note_on_c, 0, 42, 0
3, 139920, Note_on_c, 0, 42, 56
3, 139920, Note_on_c, 0, 48, 56
3, 139920, Note_on_c, 0, 45, 56
3, 140040, Note_on_c, 0, 45, 0
3, 140040, Note_on_c, 0, 48, 0
3, 140040, Note_on_c, 0, 42, 0
3, 140160, Note_on_c, 0, 42, 56
3, 140160, Note_on_c, 0, 48, 56
3, 140160, Note_on_c, 0, 45, 56
3, 140280, Note_on_c, 0, 45, 0
3, 140280, Note_on_c, 0, 48, 0
3, 140280, Note_on_c, 0, 42, 0
3, 140400, Note_on_c, 0, 42, 56
3, 140400, Note_on_c, 0, 48, 56
3, 140400, Note_on_c, 0, 45, 56
3, 140520, Note_on_c, 0, 45, 0
3, 140520, Note_on_c, 0, 48, 0
3, 140520, Note_on_c, 0, 42, 0
3, 140640, Note_on_c, 0, 42, 56
3, 140640, Note_on_c, 0, 48, 56
3, 140640, Note_on_c, 0, 45, 56
3, 140760, Note_on_c, 0, 45, 0
3, 140760, Note_on_c, 0, 48, 0
3, 140760, Note_on_c, 0, 42, 0
3, 140880, Note_on_c, 0, 42, 57
3, 140880, Note_on_c, 0, 48, 57
3, 140880, Note_on_c, 0, 45, 57
3, 141000, Note_on_c, 0, 45, 0
3, 141000, Note_on_c, 0, 48, 0
3, 141000, Note_on_c, 0, 42, 0
3, 141120, Note_on_c, 0, 39, 52
3, 141120, Note_on_c, 0, 42, 52
3, 141120, Note_on_c, 0, 45, 52
3, 141120, Note_on_c, 0, 48, 62
3, 141240, Note_on_c, 0, 48, 0
3, 141240, Note_on_c, 0, 39, 0
3, 141240, Note_on_c, 0, 42, 0
3, 141240, Note_on_c, 0, 45, 0
3, 141360, Note_on_c, 0, 39, 48
3, 141360, Note_on_c, 0, 42, 48
3, 141360, Note_on_c, 0, 48, 57
3, 141360, Note_on_c, 0, 45, 48
3, 141480, Note_on_c, 0, 45, 0
3, 141480, Note_on_c, 0, 39, 0
3, 141480, Note_on_c, 0, 42, 0
3, 141480, Note_on_c, 0, 48, 0
3, 141600, Note_on_c, 0, 39, 48
3, 141600, Note_on_c, 0, 42, 48
3, 141600, Note_on_c, 0, 48, 57
3, 141600, Note_on_c, 0, 45, 48
3, 141720, Note_on_c, 0, 45, 0
3, 141720, Note_on_c, 0, 39, 0
3, 141720, Note_on_c, 0, 42, 0
3, 141720, Note_on_c, 0, 48, 0
3, 141840, Note_on_c, 0, 39, 48
3, 141840, Note_on_c, 0, 42, 48
3, 141840, Note_on_c, 0, 48, 57
3, 141840, Note_on_c, 0, 45, 48
3, 141960, Note_on_c, 0, 45, 0
3, 141960, Note_on_c, 0, 39, 0
3, 141960, Note_on_c, 0, 42, 0
3, 141960, Note_on_c, 0, 48, 0
3, 142080, Note_on_c, 0, 39, 49
3, 142080, Note_on_c, 0, 42, 49
3, 142080, Note_on_c, 0, 48, 58
3, 142080, Note_on_c, 0, 45, 49
3, 142200, Note_on_c, 0, 45, 0
3, 142200, Note_on_c, 0, 39, 0
3, 142200, Note_on_c, 0, 42, 0
3, 142200, Note_on_c, 0, 48, 0
3, 142320, Note_on_c, 0, 39, 49
3, 142320, Note_on_c, 0, 42, 49
3, 142320, Note_on_c, 0, 48, 58
3, 142320, Note_on_c, 0, 45, 49
3, 142440, Note_on_c, 0, 45, 0
3, 142440, Note_on_c, 0, 39, 0
3, 142440, Note_on_c, 0, 42, 0
3, 142440, Note_on_c, 0, 48, 0
3, 142560, Note_on_c, 0, 38, 54
3, 142560, Note_on_c, 0, 42, 54
3, 142560, Note_on_c, 0, 45, 54
3, 142560, Note_on_c, 0, 48, 64
3, 142680, Note_on_c, 0, 48, 0
3, 142680, Note_on_c, 0, 38, 0
3, 142680, Note_on_c, 0, 42, 0
3, 142680, Note_on_c, 0, 45, 0
3, 142800, Note_on_c, 0, 38, 49
3, 142800, Note_on_c, 0, 42, 49
3, 142800, Note_on_c, 0, 48, 58
3, 142800, Note_on_c, 0, 45, 49
3, 142920, Note_on_c, 0, 45, 0
3, 142920, Note_on_c, 0, 38, 0
3, 142920, Note_on_c, 0, 42, 0
3, 142920, Note_on_c, 0, 48, 0
3, 143040, Note_on_c, 0, 38, 49
3, 143040, Note_on_c, 0, 42, 49
3, 143040, Note_on_c, 0, 48, 58
3, 143040, Note_on_c, 0, 45, 49
3, 143160, Note_on_c, 0, 45, 0
3, 143160, Note_on_c, 0, 38, 0
3, 143160, Note_on_c, 0, 42, 0
3, 143160, Note_on_c, 0, 48, 0
3, 143280, Note_on_c, 0, 38, 49
3, 143280, Note_on_c, 0, 42, 49
3, 143280, Note_on_c, 0, 48, 58
3, 143280, Note_on_c, 0, 45, 49
3, 143400, Note_on_c, 0, 45, 0
3, 143400, Note_on_c, 0, 38, 0
3, 143400, Note_on_c, 0, 42, 0
3, 143400, Note_on_c, 0, 48, 0
3, 143520, Note_on_c, 0, 38, 49
3, 143520, Note_on_c, 0, 42, 49
3, 143520, Note_on_c, 0, 48, 58
3, 143520, Note_on_c, 0, 45, 49
3, 143640, Note_on_c, 0, 45, 0
3, 143640, Note_on_c, 0, 38, 0
3, 143640, Note_on_c, 0, 42, 0
3, 143640, Note_on_c, 0, 48, 0
3, 143760, Note_on_c, 0, 38, 49
3, 143760, Note_on_c, 0, 42, 49
3, 143760, Note_on_c, 0, 48, 58
3, 143760, Note_on_c, 0, 45, 49
3, 143880, Note_on_c, 0, 45, 0
3, 143880, Note_on_c, 0, 38, 0
3, 143880, Note_on_c, 0, 42, 0
3, 143880, Note_on_c, 0, 48, 0
3, 144000, Note_on_c, 0, 43, 73
3, 144000, Note_on_c, 0, 31, 57
3, 144120, Note_on_c, 0, 31, 0
3, 144120, Note_on_c, 0, 43, 0
3, 144240, Note_on_c, 0, 31, 54
3, 144240, Note_on_c, 0, 43, 64
3, 144360, Note_on_c, 0, 43, 0
3, 144360, Note_on_c, 0, 31, 0
3, 144480, Note_on_c, 0, 43, 69
3, 144480, Note_on_c, 0, 31, 54
3, 144600, Note_on_c, 0, 31, 0
3, 144600, Note_on_c, 0, 43, 0
3, 145680, Note_on_c, 0, 43, 31
3, 145680, Note_on_c, 0, 31, 22
3, 145800, Note_on_c, 0, 31, 0
3, 145800, Note_on_c, 0, 43, 0
3, 145920, Note_on_c, 0, 31, 24
3, 145920, Note_on_c, 0, 43, 35
3, 146040, Note_on_c, 0, 43, 0
3, 146040, Note_on_c, 0, 31, 0
3, 147120, Note_on_c, 0, 43, 31
3, 147120, Note_on_c, 0, 31, 22
3, 147240, Note_on_c, 0, 31, 0
3, 147240, Note_on_c, 0, 43, 0
3, 147360, Note_on_c, 0, 31, 24
3, 147360, Note_on_c, 0, 43, 35
3, 147480, Note_on_c, 0, 43, 0
3, 147480, Note_on_c, 0, 31, 0
3, 148560, Note_on_c, 0, 31, 26
3, 148560, Note_on_c, 0, 43, 31
3, 148680, Note_on_c, 0, 43, 0
3, 148680, Note_on_c, 0, 31, 0
3, 149040, Note_on_c, 0, 31, 26
3, 149040, Note_on_c, 0, 43, 31
3, 149160, Note_on_c, 0, 43, 0
3, 149160, Note_on_c, 0, 31, 0
3, 149520, Note_on_c, 0, 31, 26
3, 149520, Note_on_c, 0, 43, 31
3, 149640, Note_on_c, 0, 43, 0
3, 149640, Note_on_c, 0, 31, 0
3, 150000, Note_on_c, 0, 43, 34
3, 150000, Note_on_c, 0, 31, 28
3, 150120, Note_on_c, 0, 31, 0
3, 150120, Note_on_c, 0, 43, 0
3, 150480, Note_on_c, 0, 45, 38
3, 150480, Note_on_c, 0, 33, 32
3, 150600, Note_on_c, 0, 33, 0
3, 150600, Note_on_c, 0, 45, 0
3, 150960, Note_on_c, 0, 47, 39
3, 150960, Note_on_c, 0, 35, 33
3, 151080, Note_on_c, 0, 35, 0
3, 151080, Note_on_c, 0, 47, 0
3, 151440, Note_on_c, 0, 48, 39
3, 151440, Note_on_c, 0, 36, 33
3, 151560, Note_on_c, 0, 36, 0
3, 151560, Note_on_c, 0, 48, 0
3, 151920, Note_on_c, 0, 37, 34
3, 151920, Note_on_c, 0, 49, 40
3, 152040, Note_on_c, 0, 49, 0
3, 152040, Note_on_c, 0, 37, 0
3, 152400, Note_on_c, 0, 38, 34
3, 152400, Note_on_c, 0, 50, 41
3, 152520, Note_on_c, 0, 50, 0
3, 152520, Note_on_c, 0, 38, 0
3, 152880, Note_on_c, 0, 39, 35
3, 152880, Note_on_c, 0, 51, 42
3, 153000, Note_on_c, 0, 51, 0
3, 153000, Note_on_c, 0, 39, 0
3, 153360, Note_on_c, 0, 40, 39
3, 153360, Note_on_c, 0, 52, 46
3, 153480, Note_on_c, 0, 52, 0
3, 153480, Note_on_c, 0, 40, 0
3, 153840, Note_on_c, 0, 41, 40
3, 153840, Note_on_c, 0, 53, 48
3, 153960, Note_on_c, 0, 53, 0
3, 153960, Note_on_c, 0, 41, 0
3, 154320, Note_on_c, 0, 54, 35
3, 154320, Note_on_c, 0, 42, 29
3, 154440, Note_on_c, 0, 42, 0
3, 154440, Note_on_c, 0, 54, 0
3, 154800, Note_on_c, 0, 55, 30
3, 154800, Note_on_c, 0, 43, 25
3, 154920, Note_on_c, 0, 43, 0
3, 154920, Note_on_c, 0, 55, 0
3, 155280, Note_on_c, 0, 55, 26
3, 155280, Note_on_c, 0, 43, 22
3, 155400, Note_on_c, 0, 43, 0
3, 155400, Note_on_c, 0, 55, 0
3, 156960, Note_on_c, 0, 65, 26
3, 157910, Note_on_c, 0, 65, 0
3, 157920, Note_on_c, 0, 59, 26
3, 157920, Note_on_c, 0, 65, 26
3, 158400, Note_on_c, 0, 65, 0
3, 158400, Note_on_c, 0, 59, 0
3, 158400, Note_on_c, 0, 60, 33
3, 158400, Note_on_c, 0, 64, 33
3, 158880, Note_on_c, 0, 64, 0
3, 158880, Note_on_c, 0, 60, 0
3, 158880, Note_on_c, 0, 60, 26
3, 159360, Note_on_c, 0, 60, 0
3, 159360, Note_on_c, 0, 61, 26
3, 159840, Note_on_c, 0, 61, 0
3, 159840, Note_on_c, 0, 62, 33
3, 160320, Note_on_c, 0, 62, 0
3, 160320, Note_on_c, 0, 57, 26
3, 160800, Note_on_c, 0, 57, 0
3, 160800, Note_on_c, 0, 58, 26
3, 161270, Note_on_c, 0, 58, 0
3, 161280, Note_on_c, 0, 59, 32
3, 161760, Note_on_c, 0, 59, 0
3, 161760, Note_on_c, 0, 55, 26
3, 162240, Note_on_c, 0, 55, 0
3, 162240, Note_on_c, 0, 62, 26
3, 162720, Note_on_c, 0, 62, 0
3, 162720, Note_on_c, 0, 61, 31
3, 163200, Note_on_c, 0, 61, 0
3, 163200, Note_on_c, 0, 60, 26
3, 163650, Note_on_c, 0, 60, 0
3, 163680, Note_on_c, 0, 58, 26
3, 163680, Note_on_c, 0, 60, 26
3, 164160, Note_on_c, 0, 58, 0
3, 164160, Note_on_c, 0, 57, 43
3, 164640, Note_on_c, 0, 57, 0
3, 164640, Note_on_c, 0, 60, 0
3, 164640, Note_on_c, 0, 65, 48
3, 164640, Note_on_c, 0, 53, 48
3, 165120, Note_on_c, 0, 53, 0
3, 165120, Note_on_c, 0, 65, 0
3, 165120, Note_on_c, 0, 62, 42
3, 165120, Note_on_c, 0, 54, 42
3, 165600, Note_on_c, 0, 54, 0
3, 165600, Note_on_c, 0, 62, 0
3, 165600, Note_on_c, 0, 60, 47
3, 165600, Note_on_c, 0, 55, 47
3, 166080, Note_on_c, 0, 55, 0
3, 166080, Note_on_c, 0, 60, 0
3, 166080, Note_on_c, 0, 58, 47
3, 166080, Note_on_c, 0, 50, 47
3, 166550, Note_on_c, 0, 50, 0
3, 166550, Note_on_c, 0, 58, 0
3, 166560, Note_on_c, 0, 53, 43
3, 166560, Note_on_c, 0, 58, 43
3, 167040, Note_on_c, 0, 53, 0
3, 167040, Note_on_c, 0, 52, 41
3, 167520, Note_on_c, 0, 52, 0
3, 167520, Note_on_c, 0, 58, 0
3, 167520, Note_on_c, 0, 67, 51
3, 168000, Note_on_c, 0, 67, 0
3, 168000, Note_on_c, 0, 48, 44
3, 168000, Note_on_c, 0, 58, 44
3, 168480, Note_on_c, 0, 48, 0
3, 168480, Note_on_c, 0, 53, 49
3, 168960, Note_on_c, 0, 53, 0
3, 168960, Note_on_c, 0, 58, 0
3, 168960, Note_on_c, 0, 53, 44
3, 168960, Note_on_c, 0, 57, 44
3, 169440, Note_on_c, 0, 57, 0
3, 169440, Note_on_c, 0, 53, 0
3, 169440, Note_on_c, 0, 45, 50
3, 170400, Note_on_c, 0, 45, 0
3, 170400, Note_on_c, 0, 50, 56
3, 170880, Note_on_c, 0, 50, 0
3, 170880, Note_on_c, 0, 46, 48
3, 171360, Note_on_c, 0, 46, 0
3, 171360, Note_on_c, 0, 45, 58
3, 171840, Note_on_c, 0, 45, 0
3, 171840, Note_on_c, 0, 44, 50
3, 172310, Note_on_c, 0, 44, 0
3, 172320, Note_on_c, 0, 44, 58
3, 173280, Note_on_c, 0, 44, 0
3, 173280, Note_on_c, 0, 52, 57
3, 173760, Note_on_c, 0, 44, 50
3, 174240, Note_on_c, 0, 44, 0
3, 174240, Note_on_c, 0, 52, 0
3, 174240, Note_on_c, 0, 45, 55
3, 174720, Note_on_c, 0, 45, 0
3, 174720, Note_on_c, 0, 52, 59
3, 175200, Note_on_c, 0, 45, 51
3, 175680, Note_on_c, 0, 45, 0
3, 175680, Note_on_c, 0, 52, 0
3, 175680, Note_on_c, 0, 47, 56
3, 176160, Note_on_c, 0, 47, 0
3, 176160, Note_on_c, 0, 52, 62
3, 176640, Note_on_c, 0, 47, 57
3, 177120, Note_on_c, 0, 47, 0
3, 177120, Note_on_c, 0, 52, 0
3, 177120, Note_on_c, 0, 48, 61
3, 177600, Note_on_c, 0, 48, 0
3, 177600, Note_on_c, 0, 52, 68
3, 178080, Note_on_c, 0, 48, 59
3, 178560, Note_on_c, 0, 48, 0
3, 178560, Note_on_c, 0, 52, 0
3, 178560, Note_on_c, 0, 51, 64
3, 179040, Note_on_c, 0, 51, 0
3, 179040, Note_on_c, 0, 59, 68
3, 179520, Note_on_c, 0, 51, 63
3, 180000, Note_on_c, 0, 51, 0
3, 180000, Note_on_c, 0, 59, 0
3, 180000, Note_on_c, 0, 52, 67
3, 180480, Note_on_c, 0, 52, 0
3, 180480, Note_on_c, 0, 60, 73
3, 180960, Note_on_c, 0, 52, 63
3, 181440, Note_on_c, 0, 52, 0
3, 181440, Note_on_c, 0, 60, 0
3, 181440, Note_on_c, 0, 54, 68
3, 181920, Note_on_c, 0, 54, 0
3, 181920, Note_on_c, 0, 63, 76
3, 182400, Note_on_c, 0, 54, 70
3, 182880, Note_on_c, 0, 54, 0
3, 182880, Note_on_c, 0, 63, 0
3, 182880, Note_on_c, 0, 55, 74
3, 183360, Note_on_c, 0, 55, 0
3, 183360, Note_on_c, 0, 64, 78
3, 183840, Note_on_c, 0, 55, 75
3, 184320, Note_on_c, 0, 55, 0
3, 184320, Note_on_c, 0, 64, 0
3, 184320, Note_on_c, 0, 57, 77
3, 184800, Note_on_c, 0, 57, 0
3, 184800, Note_on_c, 0, 66, 85
3, 185280, Note_on_c, 0, 57, 81
3, 185760, Note_on_c, 0, 57, 0
3, 185760, Note_on_c, 0, 66, 0
3, 185760, Note_on_c, 0, 58, 83
3, 186240, Note_on_c, 0, 58, 0
3, 186240, Note_on_c, 0, 67, 90
3, 186720, Note_on_c, 0, 58, 88
3, 187200, Note_on_c, 0, 58, 0
3, 187200, Note_on_c, 0, 67, 0
3, 187200, Note_on_c, 0, 59, 99
3, 187680, Note_on_c, 0, 64, 85
3, 188160, Note_on_c, 0, 64, 0
3, 188160, Note_on_c, 0, 67, 85
3, 188640, Note_on_c, 0, 67, 0
3, 188640, Note_on_c, 0, 59, 0
3, 188640, Note_on_c, 0, 71, 96
3, 189120, Note_on_c, 0, 71, 0
3, 189120, Note_on_c, 0, 76, 85
3, 189600, Note_on_c, 0, 76, 0
3, 189600, Note_on_c, 0, 79, 85
3, 190080, Note_on_c, 0, 79, 0
3, 190560, Note_on_c, 0, 79, 86
3, 190680, Note_on_c, 0, 79, 0
3, 190680, Note_on_c, 0, 78, 79
3, 190800, Note_on_c, 0, 78, 0
3, 190800, Note_on_c, 0, 76, 79
3, 190920, Note_on_c, 0, 76, 0
3, 190920, Note_on_c, 0, 75, 74
3, 191040, Note_on_c, 0, 75, 0
3, 191040, Note_on_c, 0, 76, 85
3, 191280, Note_on_c, 0, 76, 0
3, 192000, Note_on_c, 0, 79, 50
3, 192240, Note_on_c, 0, 79, 0
3, 192240, Note_on_c, 0, 78, 41
3, 192480, Note_on_c, 0, 78, 0
3, 192480, Note_on_c, 0, 76, 45
3, 192720, Note_on_c, 0, 76, 0
3, 192720, Note_on_c, 0, 75, 42
3, 192960, Note_on_c, 0, 75, 0
3, 192960, Note_on_c, 0, 76, 50
3, 193440, Note_on_c, 0, 76, 0
3, 193920, Note_on_c, 0, 79, 41
3, 194400, Note_on_c, 0, 79, 0
3, 194400, Note_on_c, 0, 78, 46
3, 194880, Note_on_c, 0, 78, 0
3, 194880, Note_on_c, 0, 76, 39
3, 195360, Note_on_c, 0, 76, 0
3, 195360, Note_on_c, 0, 75, 39
3, 195840, Note_on_c, 0, 75, 0
3, 195840, Note_on_c, 0, 76, 45
3, 196320, Note_on_c, 0, 76, 0
3, 197280, Note_on_c, 0, 79, 40
3, 198240, Note_on_c, 0, 79, 0
3, 198240, Note_on_c, 0, 78, 37
3, 199200, Note_on_c, 0, 78, 0
3, 199200, Note_on_c, 0, 76, 41
3, 199680, Note_on_c, 0, 76, 0
3, 200160, Note_on_c, 0, 67, 51
3, 201120, Note_on_c, 0, 67, 0
3, 201120, Note_on_c, 0, 66, 59
3, 201360, Note_on_c, 0, 66, 0
3, 201360, Note_on_c, 0, 64, 42
3, 201590, Note_on_c, 0, 64, 0
3, 201600, Note_on_c, 0, 64, 50
3, 202080, Note_on_c, 0, 64, 0
3, 202560, Note_on_c, 0, 67, 39
3, 203040, Note_on_c, 0, 67, 0
3, 203040, Note_on_c, 0, 66, 39
3, 203280, Note_on_c, 0, 66, 0
3, 203280, Note_on_c, 0, 64, 39
3, 203510, Note_on_c, 0, 64, 0
3, 203520, Note_on_c, 0, 64, 39
3, 203760, Note_on_c, 0, 64, 0
3, 204240, Note_on_c, 0, 79, 55
3, 204480, Note_on_c, 0, 79, 0
3, 204480, Note_on_c, 0, 78, 61
3, 204720, Note_on_c, 0, 78, 0
3, 204720, Note_on_c, 0, 76, 56
3, 204960, Note_on_c, 0, 76, 0
3, 205200, Note_on_c, 0, 79, 58
3, 205440, Note_on_c, 0, 79, 0
3, 205440, Note_on_c, 0, 78, 65
3, 205680, Note_on_c, 0, 78, 0
3, 205680, Note_on_c, 0, 76, 61
3, 205920, Note_on_c, 0, 76, 0
3, 206160, Note_on_c, 0, 55, 71
3, 206400, Note_on_c, 0, 55, 0
3, 206400, Note_on_c, 0, 54, 77
3, 206640, Note_on_c, 0, 54, 0
3, 206640, Note_on_c, 0, 52, 74
3, 206760, Note_on_c, 0, 52, 0
3, 206880, Note_on_c, 0, 40, 70
3, 206880, Note_on_c, 0, 52, 70
3, 207000, Note_on_c, 0, 52, 0
3, 207000, Note_on_c, 0, 40, 0
3, 207360, Note_on_c, 0, 40, 61
3, 207360, Note_on_c, 0, 52, 72
3, 208320, Note_on_c, 0, 52, 0
3, 208320, Note_on_c, 0, 40, 0
3, 208320, Note_on_c, 0, 52, 63
3, 208320, Note_on_c, 0, 40, 53
3, 208440, Note_on_c, 0, 40, 0
3, 208440, Note_on_c, 0, 52, 0
3, 208800, Note_on_c, 0, 38, 61
3, 208800, Note_on_c, 0, 50, 72
3, 209040, Note_on_c, 0, 50, 0
3, 209040, Note_on_c, 0, 38, 0
3, 209760, Note_on_c, 0, 62, 29
3, 210240, Note_on_c, 0, 62, 0
3, 210240, Note_on_c, 0, 60, 30
3, 210240, Note_on_c, 0, 62, 36
3, 210960, Note_on_c, 0, 62, 0
3, 210960, Note_on_c, 0, 60, 0
3, 210960, Note_on_c, 0, 62, 31
3, 210960, Note_on_c, 0, 59, 26
3, 211200, Note_on_c, 0, 59, 0
3, 211200, Note_on_c, 0, 62, 0
3, 211200, Note_on_c, 0, 57, 24
3, 211200, Note_on_c, 0, 60, 28
3, 211560, Note_on_c, 0, 60, 0
3, 211560, Note_on_c, 0, 57, 0
3, 211680, Note_on_c, 0, 55, 30
3, 211680, Note_on_c, 0, 59, 36
3, 212040, Note_on_c, 0, 59, 0
3, 212040, Note_on_c, 0, 55, 0
3, 212640, Note_on_c, 0, 55, 63
3, 212640, Note_on_c, 0, 43, 53
3, 212760, Note_on_c, 0, 43, 0
3, 212760, Note_on_c, 0, 55, 0
3, 213120, Note_on_c, 0, 43, 61
3, 213120, Note_on_c, 0, 55, 72
3, 214080, Note_on_c, 0, 55, 0
3, 214080, Note_on_c, 0, 43, 0
3, 214080, Note_on_c, 0, 43, 63
3, 214080, Note_on_c, 0, 31, 53
3, 214200, Note_on_c, 0, 31, 0
3, 214200, Note_on_c, 0, 43, 0
3, 214560, Note_on_c, 0, 30, 61
3, 214560, Note_on_c, 0, 42, 72
3, 214800, Note_on_c, 0, 42, 0
3, 214800, Note_on_c, 0, 30, 0
3, 215520, Note_on_c, 0, 66, 29
3, 216000, Note_on_c, 0, 66, 0
3, 216000, Note_on_c, 0, 64, 30
3, 216000, Note_on_c, 0, 66, 36
3, 216720, Note_on_c, 0, 66, 0
3, 216720, Note_on_c, 0, 64, 0
3, 216720, Note_on_c, 0, 66, 31
3, 216720, Note_on_c, 0, 62, 26
3, 216960, Note_on_c, 0, 62, 0
3, 216960, Note_on_c, 0, 66, 0
3, 216960, Note_on_c, 0, 61, 24
3, 216960, Note_on_c, 0, 64, 28
3, 217320, Note_on_c, 0, 64, 0
3, 217320, Note_on_c, 0, 61, 0
3, 217440, Note_on_c, 0, 59, 30
3, 217440, Note_on_c, 0, 62, 36
3, 217800, Note_on_c, 0, 62, 0
3, 217800, Note_on_c, 0, 59, 0
3, 218880, Note_on_c, 0, 62, 38
3, 218880, Note_on_c, 0, 59, 38
3, 218880, Note_on_c, 0, 67, 45
3, 219840, Note_on_c, 0, 62, 0
3, 219840, Note_on_c, 0, 64, 50
3, 220320, Note_on_c, 0, 59, 0
3, 220320, Note_on_c, 0, 57, 39
3, 221280, Note_on_c, 0, 57, 0
3, 221280, Note_on_c, 0, 64, 0
3, 221280, Note_on_c, 0, 67, 0
3, 221280, Note_on_c, 0, 66, 38
3, 221280, Note_on_c, 0, 63, 32
3, 221760, Note_on_c, 0, 63, 0
3, 221760, Note_on_c, 0, 62, 34
3, 222720, Note_on_c, 0, 62, 0
3, 222720, Note_on_c, 0, 66, 0
3, 222720, Note_on_c, 0, 66, 46
3, 223200, Note_on_c, 0, 66, 0
3, 223200, Note_on_c, 0, 67, 46
3, 224160, Note_on_c, 0, 67, 0
3, 224160, Note_on_c, 0, 55, 45
3, 224640, Note_on_c, 0, 55, 0
3, 224640, Note_on_c, 0, 52, 49
3, 225600, Note_on_c, 0, 52, 0
3, 225600, Note_on_c, 0, 64, 41
3, 226080, Note_on_c, 0, 64, 0
3, 226080, Note_on_c, 0, 60, 40
3, 227040, Note_on_c, 0, 60, 0
3, 227040, Note_on_c, 0, 48, 28
3, 227520, Note_on_c, 0, 36, 28
3, 228960, Note_on_c, 0, 36, 0
3, 228960, Note_on_c, 0, 48, 0
3, 228960, Note_on_c, 0, 47, 28
3, 228960, Note_on_c, 0, 35, 24
3, 229824, Note_on_c, 0, 35, 0
3, 229824, Note_on_c, 0, 47, 0
3, 230400, Note_on_c, 0, 59, 34
3, 230400, Note_on_c, 0, 43, 28
3, 230400, Note_on_c, 0, 52, 28
3, 231840, Note_on_c, 0, 43, 0
3, 231840, Note_on_c, 0, 59, 0
3, 231840, Note_on_c, 0, 45, 39
3, 232800, Note_on_c, 0, 45, 0
3, 232800, Note_on_c, 0, 46, 43
3, 233280, Note_on_c, 0, 46, 0
3, 233280, Note_on_c, 0, 52, 0
3, 233280, Note_on_c, 0, 47, 49
3, 234720, Note_on_c, 0, 47, 0
3, 234720, Note_on_c, 0, 55, 29
3, 234720, Note_on_c, 0, 48, 24
3, 235680, Note_on_c, 0, 48, 0
3, 235680, Note_on_c, 0, 55, 0
3, 235680, Note_on_c, 0, 47, 32
3, 235920, Note_on_c, 0, 47, 0
3, 235920, Note_on_c, 0, 45, 35
3, 236160, Note_on_c, 0, 45, 0
3, 236160, Note_on_c, 0, 52, 39
3, 236160, Note_on_c, 0, 43, 39
3, 236160, Note_on_c, 0, 59, 39
3, 237120, Note_on_c, 0, 43, 0
3, 237120, Note_on_c, 0, 44, 37
3, 237600, Note_on_c, 0, 44, 0
3, 237600, Note_on_c, 0, 59, 0
3, 237600, Note_on_c, 0, 45, 39
3, 238560, Note_on_c, 0, 45, 0
3, 238560, Note_on_c, 0, 46, 34
3, 239040, Note_on_c, 0, 46, 0
3, 239040, Note_on_c, 0, 52, 0
3, 239040, Note_on_c, 0, 35, 29
3, 239040, Note_on_c, 0, 47, 38
3, 240480, Note_on_c, 0, 47, 0
3, 240480, Note_on_c, 0, 35, 0
3, 240480, Note_on_c, 0, 52, 22
3, 240480, Note_on_c, 0, 40, 18
3, 240960, Note_on_c, 0, 40, 0
3, 240960, Note_on_c, 0, 52, 0
3, 241440, Note_on_c, 0, 31, 25
3, 241440, Note_on_c, 0, 43, 30
3, 241560, Note_on_c, 0, 43, 0
3, 241560, Note_on_c, 0, 31, 0
3, 241920, Note_on_c, 0, 31, 28
3, 241920, Note_on_c, 0, 43, 34
3, 242880, Note_on_c, 0, 43, 0
3, 242880, Note_on_c, 0, 31, 0
3, 242880, Note_on_c, 0, 36, 25
3, 242880, Note_on_c, 0, 48, 30
3, 243000, Note_on_c, 0, 48, 0
3, 243000, Note_on_c, 0, 36, 0
3, 243360, Note_on_c, 0, 36, 28
3, 243360, Note_on_c, 0, 48, 34
3, 244320, Note_on_c, 0, 48, 0
3, 244320, Note_on_c, 0, 36, 0
3, 244320, Note_on_c, 0, 43, 25
3, 244320, Note_on_c, 0, 55, 30
3, 244440, Note_on_c, 0, 55, 0
3, 244440, Note_on_c, 0, 43, 0
3, 244800, Note_on_c, 0, 43, 28
3, 244800, Note_on_c, 0, 55, 34
3, 245760, Note_on_c, 0, 55, 0
3, 245760, Note_on_c, 0, 43, 0
3, 245760, Note_on_c, 0, 48, 25
3, 245760, Note_on_c, 0, 60, 30
3, 245880, Note_on_c, 0, 60, 0
3, 245880, Note_on_c, 0, 48, 0
3, 246240, Note_on_c, 0, 48, 28
3, 246240, Note_on_c, 0, 60, 34
3, 247200, Note_on_c, 0, 60, 0
3, 247200, Note_on_c, 0, 48, 0
3, 247200, Note_on_c, 0, 59, 54
3, 247200, Note_on_c, 0, 62, 54
3, 247200, Note_on_c, 0, 65, 54
3, 247200, Note_on_c, 0, 67, 65
3, 247320, Note_on_c, 0, 67, 0
3, 247320, Note_on_c, 0, 59, 0
3, 247320, Note_on_c, 0, 62, 0
3, 247320, Note_on_c, 0, 65, 0
3, 247680, Note_on_c, 0, 59, 59
3, 247680, Note_on_c, 0, 62, 59
3, 247680, Note_on_c, 0, 65, 59
3, 247680, Note_on_c, 0, 67, 71
3, 248400, Note_on_c, 0, 67, 0
3, 248400, Note_on_c, 0, 59, 0
3, 248400, Note_on_c, 0, 62, 0
3, 248400, Note_on_c, 0, 65, 0
3, 251520, Note_on_c, 0, 47, 29
3, 251520, Note_on_c, 0, 35, 24
3, 251640, Note_on_c, 0, 35, 0
3, 251640, Note_on_c, 0, 47, 0
3, 252000, Note_on_c, 0, 36, 29
3, 252000, Note_on_c, 0, 48, 35
3, 252240, Note_on_c, 0, 48, 0
3, 252240, Note_on_c, 0, 36, 0
3, 252960, Note_on_c, 0, 52, 59
3, 252960, Note_on_c, 0, 56, 59
3, 252960, Note_on_c, 0, 59, 59
3, 252960, Note_on_c, 0, 62, 71
3, 253080, Note_on_c, 0, 62, 0
3, 253080, Note_on_c, 0, 52, 0
3, 253080, Note_on_c, 0, 56, 0
3, 253080, Note_on_c, 0, 59, 0
3, 253440, Note_on_c, 0, 52, 65
3, 253440, Note_on_c, 0, 56, 65
3, 253440, Note_on_c, 0, 59, 65
3, 253440, Note_on_c, 0, 62, 77
3, 254160, Note_on_c, 0, 62, 0
3, 254160, Note_on_c, 0, 52, 0
3, 254160, Note_on_c, 0, 56, 0
3, 254160, Note_on_c, 0, 59, 0
3, 257280, Note_on_c, 0, 44, 29
3, 257280, Note_on_c, 0, 32, 24
3, 257400, Note_on_c, 0, 32, 0
3, 257400, Note_on_c, 0, 44, 0
3, 257760, Note_on_c, 0, 33, 29
3, 257760, Note_on_c, 0, 45, 35
3, 258000, Note_on_c, 0, 45, 0
3, 258000, Note_on_c, 0, 33, 0
3, 258720, Note_on_c, 0, 41, 31
3, 258720, Note_on_c, 0, 48, 31
3, 258720, Note_on_c, 0, 57, 37
3, 258960, Note_on_c, 0, 57, 0
3, 258960, Note_on_c, 0, 48, 0
3, 258960, Note_on_c, 0, 41, 0
3, 259200, Note_on_c, 0, 41, 31
3, 259200, Note_on_c, 0, 48, 31
3, 259200, Note_on_c, 0, 57, 37
3, 261590, Note_on_c, 0, 57, 0
3, 261590, Note_on_c, 0, 48, 0
3, 261590, Note_on_c, 0, 41, 0
3, 261600, Note_on_c, 0, 41, 31
3, 261600, Note_on_c, 0, 48, 36
3, 262080, Note_on_c, 0, 48, 0
3, 262080, Note_on_c, 0, 41, 0
3, 262080, Note_on_c, 0, 41, 31
3, 262080, Note_on_c, 0, 48, 36
3, 263040, Note_on_c, 0, 48, 0
3, 263040, Note_on_c, 0, 41, 0
3, 263040, Note_on_c, 0, 48, 40
3, 263040, Note_on_c, 0, 41, 34
3, 263472, Note_on_c, 0, 41, 0
3, 263472, Note_on_c, 0, 48, 0
3, 263520, Note_on_c, 0, 41, 39
3, 263520, Note_on_c, 0, 48, 46
3, 264480, Note_on_c, 0, 48, 0
3, 264480, Note_on_c, 0, 41, 0
3, 264480, Note_on_c, 0, 42, 45
3, 264480, Note_on_c, 0, 48, 45
3, 264480, Note_on_c, 0, 57, 53
3, 264912, Note_on_c, 0, 57, 0
3, 264912, Note_on_c, 0, 48, 0
3, 264912, Note_on_c, 0, 42, 0
3, 264960, Note_on_c, 0, 42, 50
3, 264960, Note_on_c, 0, 57, 59
3, 264960, Note_on_c, 0, 48, 50
3, 265920, Note_on_c, 0, 48, 0
3, 265920, Note_on_c, 0, 57, 0
3, 265920, Note_on_c, 0, 42, 0
3, 265920, Note_on_c, 0, 42, 45
3, 265920, Note_on_c, 0, 48, 45
3, 265920, Note_on_c, 0, 57, 53
3, 266352, Note_on_c, 0, 57, 0
3, 266352, Note_on_c, 0, 48, 0
3, 266352, Note_on_c, 0, 42, 0
3, 266400, Note_on_c, 0, 42, 54
3, 266400, Note_on_c, 0, 57, 64
3, 266400, Note_on_c, 0, 48, 54
3, 267360, Note_on_c, 0, 48, 0
3, 267360, Note_on_c, 0, 57, 0
3, 267360, Note_on_c, 0, 42, 0
3, 267360, Note_on_c, 0, 42, 49
3, 267360, Note_on_c, 0, 48, 49
3, 267360, Note_on_c, 0, 57, 59
3, 267792, Note_on_c, 0, 57, 0
3, 267792, Note_on_c, 0, 48, 0
3, 267792, Note_on_c, 0, 42, 0
3, 267840, Note_on_c, 0, 42, 58
3, 267840, Note_on_c, 0, 47, 58
3, 267840, Note_on_c, 0, 57, 58
3, 270240, Note_on_c, 0, 57, 0
3, 270240, Note_on_c, 0, 47, 0
3, 270240, Note_on_c, 0, 42, 0
3, 270240, Note_on_c, 0, 57, 75
3, 270240, Note_on_c, 0, 47, 63
3, 270240, Note_on_c, 0, 42, 63
3, 270672, Note_on_c, 0, 42, 0
3, 270672, Note_on_c, 0, 47, 0
3, 270672, Note_on_c, 0, 57, 0
3, 270720, Note_on_c, 0, 55, 48
3, 270720, Note_on_c, 0, 47, 40
3, 270720, Note_on_c, 0, 43, 40
3, 270840, Note_on_c, 0, 43, 0
3, 270840, Note_on_c, 0, 47, 0
3, 270840, Note_on_c, 0, 55, 0
3, 270960, Note_on_c, 0, 55, 33
3, 270960, Note_on_c, 0, 59, 40
3, 271080, Note_on_c, 0, 59, 0
3, 271080, Note_on_c, 0, 55, 0
3, 271200, Note_on_c, 0, 55, 33
3, 271200, Note_on_c, 0, 59, 40
3, 271320, Note_on_c, 0, 59, 0
3, 271320, Note_on_c, 0, 55, 0
3, 271440, Note_on_c, 0, 55, 33
3, 271440, Note_on_c, 0, 59, 40
3, 271560, Note_on_c, 0, 59, 0
3, 271560, Note_on_c, 0, 55, 0
3, 271680, Note_on_c, 0, 55, 33
3, 271680, Note_on_c, 0, 59, 40
3, 271800, Note_on_c, 0, 59, 0
3, 271800, Note_on_c, 0, 55, 0
3, 271920, Note_on_c, 0, 55, 33
3, 271920, Note_on_c, 0, 59, 40
3, 272040, Note_on_c, 0, 59, 0
3, 272040, Note_on_c, 0, 55, 0
3, 272160, Note_on_c, 0, 59, 48
3, 272160, Note_on_c, 0, 56, 40
3, 272280, Note_on_c, 0, 56, 0
3, 272280, Note_on_c, 0, 59, 0
3, 272400, Note_on_c, 0, 56, 34
3, 272400, Note_on_c, 0, 59, 41
3, 272520, Note_on_c, 0, 59, 0
3, 272520, Note_on_c, 0, 56, 0
3, 272640, Note_on_c, 0, 56, 34
3, 272640, Note_on_c, 0, 59, 41
3, 272760, Note_on_c, 0, 59, 0
3, 272760, Note_on_c, 0, 56, 0
3, 272880, Note_on_c, 0, 56, 34
3, 272880, Note_on_c, 0, 59, 41
3, 273000, Note_on_c, 0, 59, 0
3, 273000, Note_on_c, 0, 56, 0
3, 273120, Note_on_c, 0, 56, 34
3, 273120, Note_on_c, 0, 59, 41
3, 273240, Note_on_c, 0, 59, 0
3, 273240, Note_on_c, 0, 56, 0
3, 273360, Note_on_c, 0, 56, 34
3, 273360, Note_on_c, 0, 59, 41
3, 273480, Note_on_c, 0, 59, 0
3, 273480, Note_on_c, 0, 56, 0
3, 273600, Note_on_c, 0, 62, 44
3, 273600, Note_on_c, 0, 59, 37
3, 273600, Note_on_c, 0, 56, 37
3, 273720, Note_on_c, 0, 56, 0
3, 273720, Note_on_c, 0, 59, 0
3, 273720, Note_on_c, 0, 62, 0
3, 273835, Note_on_c, 0, 62, 34
3, 273840, Note_on_c, 0, 56, 28
3, 273840, Note_on_c, 0, 59, 28
3, 273955, Note_on_c, 0, 62, 0
3, 273960, Note_on_c, 0, 59, 0
3, 273960, Note_on_c, 0, 56, 0
3, 274080, Note_on_c, 0, 60, 44
3, 274080, Note_on_c, 0, 57, 37
3, 274200, Note_on_c, 0, 57, 0
3, 274200, Note_on_c, 0, 60, 0
3, 274320, Note_on_c, 0, 60, 37
3, 274320, Note_on_c, 0, 57, 30
3, 274440, Note_on_c, 0, 57, 0
3, 274440, Note_on_c, 0, 60, 0
3, 274560, Note_on_c, 0, 60, 37
3, 274560, Note_on_c, 0, 57, 30
3, 274680, Note_on_c, 0, 57, 0
3, 274680, Note_on_c, 0, 60, 0
3, 274800, Note_on_c, 0, 60, 37
3, 274800, Note_on_c, 0, 57, 30
3, 274920, Note_on_c, 0, 57, 0
3, 274920, Note_on_c, 0, 60, 0
3, 275040, Note_on_c, 0, 64, 45
3, 275040, Note_on_c, 0, 60, 37
3, 275040, Note_on_c, 0, 57, 37
3, 275160, Note_on_c, 0, 57, 0
3, 275160, Note_on_c, 0, 60, 0
3, 275160, Note_on_c, 0, 64, 0
3, 275280, Note_on_c, 0, 64, 37
3, 275280, Note_on_c, 0, 60, 30
3, 275280, Note_on_c, 0, 57, 30
3, 275400, Note_on_c, 0, 57, 0
3, 275400, Note_on_c, 0, 60, 0
3, 275400, Note_on_c, 0, 64, 0
3, 275520, Note_on_c, 0, 62, 44
3, 275520, Note_on_c, 0, 59, 37
3, 275640, Note_on_c, 0, 59, 0
3, 275640, Note_on_c, 0, 62, 0
3, 275760, Note_on_c, 0, 59, 31
3, 275760, Note_on_c, 0, 62, 38
3, 275880, Note_on_c, 0, 62, 0
3, 275880, Note_on_c, 0, 59, 0
3, 276000, Note_on_c, 0, 59, 31
3, 276000, Note_on_c, 0, 62, 38
3, 276120, Note_on_c, 0, 62, 0
3, 276120, Note_on_c, 0, 59, 0
3, 276240, Note_on_c, 0, 59, 31
3, 276240, Note_on_c, 0, 62, 38
3, 276360, Note_on_c, 0, 62, 0
3, 276360, Note_on_c, 0, 59, 0
3, 276480, Note_on_c, 0, 64, 44
3, 276480, Note_on_c, 0, 62, 37
3, 276480, Note_on_c, 0, 59, 37
3, 276600, Note_on_c, 0, 59, 0
3, 276600, Note_on_c, 0, 62, 0
3, 276600, Note_on_c, 0, 64, 0
3, 276720, Note_on_c, 0, 59, 30
3, 276720, Note_on_c, 0, 62, 30
3, 276720, Note_on_c, 0, 64, 37
3, 276840, Note_on_c, 0, 64, 0
3, 276840, Note_on_c, 0, 62, 0
3, 276840, Note_on_c, 0, 59, 0
3, 276960, Note_on_c, 0, 64, 44
3, 276960, Note_on_c, 0, 60, 37
3, 277080, Note_on_c, 0, 60, 0
3, 277080, Note_on_c, 0, 64, 0
3, 277200, Note_on_c, 0, 60, 33
3, 277200, Note_on_c, 0, 64, 39
3, 277320, Note_on_c, 0, 64, 0
3, 277320, Note_on_c, 0, 60, 0
3, 277440, Note_on_c, 0, 60, 33
3, 277440, Note_on_c, 0, 64, 39
3, 277560, Note_on_c, 0, 64, 0
3, 277560, Note_on_c, 0, 60, 0
3, 277680, Note_on_c, 0, 60, 33
3, 277680, Note_on_c, 0, 64, 39
3, 277800, Note_on_c, 0, 64, 0
3, 277800, Note_on_c, 0, 60, 0
3, 277920, Note_on_c, 0, 60, 41
3, 277920, Note_on_c, 0, 64, 49
3, 278040, Note_on_c, 0, 64, 0
3, 278040, Note_on_c, 0, 60, 0
3, 278160, Note_on_c, 0, 61, 37
3, 278160, Note_on_c, 0, 64, 44
3, 278280, Note_on_c, 0, 64, 0
3, 278280, Note_on_c, 0, 61, 0
3, 278400, Note_on_c, 0, 61, 39
3, 278400, Note_on_c, 0, 64, 47
3, 278520, Note_on_c, 0, 64, 0
3, 278520, Note_on_c, 0, 61, 0
3, 278640, Note_on_c, 0, 61, 35
3, 278640, Note_on_c, 0, 64, 41
3, 278760, Note_on_c, 0, 64, 0
3, 278760, Note_on_c, 0, 61, 0
3, 278880, Note_on_c, 0, 61, 36
3, 278880, Note_on_c, 0, 64, 42
3, 279000, Note_on_c, 0, 64, 0
3, 279000, Note_on_c, 0, 61, 0
3, 279120, Note_on_c, 0, 61, 36
3, 279120, Note_on_c, 0, 64, 42
3, 279240, Note_on_c, 0, 64, 0
3, 279240, Note_on_c, 0, 61, 0
3, 279360, Note_on_c, 0, 66, 34
3, 279480, Note_on_c, 0, 66, 0
3, 279600, Note_on_c, 0, 66, 32
3, 279720, Note_on_c, 0, 66, 0
3, 279840, Note_on_c, 0, 66, 32
3, 279960, Note_on_c, 0, 66, 0
3, 280080, Note_on_c, 0, 66, 32
3, 280200, Note_on_c, 0, 66, 0
3, 280320, Note_on_c, 0, 66, 32
3, 280440, Note_on_c, 0, 66, 0
3, 280560, Note_on_c, 0, 66, 32
3, 280680, Note_on_c, 0, 66, 0
3, 280800, Note_on_c, 0, 66, 40
3, 280920, Note_on_c, 0, 66, 0
3, 281040, Note_on_c, 0, 66, 45
3, 281160, Note_on_c, 0, 66, 0
3, 281280, Note_on_c, 0, 66, 49
3, 281400, Note_on_c, 0, 66, 0
3, 281520, Note_on_c, 0, 66, 52
3, 281640, Note_on_c, 0, 66, 0
3, 281760, Note_on_c, 0, 66, 56
3, 281880, Note_on_c, 0, 66, 0
3, 282000, Note_on_c, 0, 66, 58
3, 282120, Note_on_c, 0, 66, 0
3, 282240, Note_on_c, 0, 59, 60
3, 282240, Note_on_c, 0, 63, 60
3, 282240, Note_on_c, 0, 66, 60
3, 282240, Note_on_c, 0, 69, 71
3, 282360, Note_on_c, 0, 69, 0
3, 282360, Note_on_c, 0, 59, 0
3, 282360, Note_on_c, 0, 63, 0
3, 282360, Note_on_c, 0, 66, 0
3, 282480, Note_on_c, 0, 69, 59
3, 282480, Note_on_c, 0, 66, 49
3, 282480, Note_on_c, 0, 63, 49
3, 282480, Note_on_c, 0, 59, 49
3, 282600, Note_on_c, 0, 59, 0
3, 282600, Note_on_c, 0, 69, 0
3, 282600, Note_on_c, 0, 66, 0
3, 282600, Note_on_c, 0, 63, 0
3, 282720, Note_on_c, 0, 69, 59
3, 282720, Note_on_c, 0, 66, 49
3, 282720, Note_on_c, 0, 63, 49
3, 282720, Note_on_c, 0, 59, 49
3, 282840, Note_on_c, 0, 59, 0
3, 282840, Note_on_c, 0, 69, 0
3, 282840, Note_on_c, 0, 66, 0
3, 282840, Note_on_c, 0, 63, 0
3, 282960, Note_on_c, 0, 69, 59
3, 282960, Note_on_c, 0, 66, 49
3, 282960, Note_on_c, 0, 63, 49
3, 282960, Note_on_c, 0, 59, 49
3, 283080, Note_on_c, 0, 59, 0
3, 283080, Note_on_c, 0, 69, 0
3, 283080, Note_on_c, 0, 66, 0
3, 283080, Note_on_c, 0, 63, 0
3, 283200, Note_on_c, 0, 69, 59
3, 283200, Note_on_c, 0, 66, 49
3, 283200, Note_on_c, 0, 63, 49
3, 283200, Note_on_c, 0, 59, 49
3, 283320, Note_on_c, 0, 59, 0
3, 283320, Note_on_c, 0, 69, 0
3, 283320, Note_on_c, 0, 66, 0
3, 283320, Note_on_c, 0, 63, 0
3, 283440, Note_on_c, 0, 69, 59
3, 283440, Note_on_c, 0, 66, 49
3, 283440, Note_on_c, 0, 63, 49
3, 283440, Note_on_c, 0, 59, 49
3, 283560, Note_on_c, 0, 59, 0
3, 283560, Note_on_c, 0, 69, 0
3, 283560, Note_on_c, 0, 66, 0
3, 283560, Note_on_c, 0, 63, 0
3, 283680, Note_on_c, 0, 69, 64
3, 283680, Note_on_c, 0, 66, 53
3, 283680, Note_on_c, 0, 63, 53
3, 283680, Note_on_c, 0, 59, 53
3, 283800, Note_on_c, 0, 59, 0
3, 283800, Note_on_c, 0, 69, 0
3, 283800, Note_on_c, 0, 66, 0
3, 283800, Note_on_c, 0, 63, 0
3, 283920, Note_on_c, 0, 59, 51
3, 283920, Note_on_c, 0, 63, 51
3, 283920, Note_on_c, 0, 66, 51
3, 283920, Note_on_c, 0, 69, 60
3, 284040, Note_on_c, 0, 69, 0
3, 284040, Note_on_c, 0, 59, 0
3, 284040, Note_on_c, 0, 63, 0
3, 284040, Note_on_c, 0, 66, 0
3, 284160, Note_on_c, 0, 59, 47
3, 284160, Note_on_c, 0, 63, 47
3, 284160, Note_on_c, 0, 66, 47
3, 284160, Note_on_c, 0, 69, 57
3, 284280, Note_on_c, 0, 69, 0
3, 284280, Note_on_c, 0, 59, 0
3, 284280, Note_on_c, 0, 63, 0
3, 284280, Note_on_c, 0, 66, 0
3, 284400, Note_on_c, 0, 59, 44
3, 284400, Note_on_c, 0, 63, 44
3, 284400, Note_on_c, 0, 66, 44
3, 284400, Note_on_c, 0, 69, 52
3, 284520, Note_on_c, 0, 69, 0
3, 284520, Note_on_c, 0, 59, 0
3, 284520, Note_on_c, 0, 63, 0
3, 284520, Note_on_c, 0, 66, 0
3, 284640, Note_on_c, 0, 59, 39
3, 284640, Note_on_c, 0, 63, 39
3, 284640, Note_on_c, 0, 66, 39
3, 284640, Note_on_c, 0, 69, 47
3, 284760, Note_on_c, 0, 69, 0
3, 284760, Note_on_c, 0, 59, 0
3, 284760, Note_on_c, 0, 63, 0
3, 284760, Note_on_c, 0, 66, 0
3, 284880, Note_on_c, 0, 59, 39
3, 284880, Note_on_c, 0, 63, 39
3, 284880, Note_on_c, 0, 66, 39
3, 284880, Note_on_c, 0, 69, 46
3, 285000, Note_on_c, 0, 69, 0
3, 285000, Note_on_c, 0, 59, 0
3, 285000, Note_on_c, 0, 63, 0
3, 285000, Note_on_c, 0, 66, 0
3, 285120, Note_on_c, 0, 52, 40
3, 285240, Note_on_c, 0, 52, 0
3, 285240, Note_on_c, 0, 67, 34
3, 285360, Note_on_c, 0, 67, 0
3, 285360, Note_on_c, 0, 59, 37
3, 285480, Note_on_c, 0, 59, 0
3, 285480, Note_on_c, 0, 67, 34
3, 285600, Note_on_c, 0, 67, 0
3, 285600, Note_on_c, 0, 54, 40
3, 285720, Note_on_c, 0, 54, 0
3, 285720, Note_on_c, 0, 69, 34
3, 285840, Note_on_c, 0, 69, 0
3, 285840, Note_on_c, 0, 59, 37
3, 285960, Note_on_c, 0, 59, 0
3, 285960, Note_on_c, 0, 69, 34
3, 286080, Note_on_c, 0, 69, 0
3, 286080, Note_on_c, 0, 55, 40
3, 286200, Note_on_c, 0, 55, 0
3, 286200, Note_on_c, 0, 71, 35
3, 286320, Note_on_c, 0, 71, 0
3, 286320, Note_on_c, 0, 59, 38
3, 286440, Note_on_c, 0, 59, 0
3, 286440, Note_on_c, 0, 71, 35
3, 286560, Note_on_c, 0, 71, 0
3, 286560, Note_on_c, 0, 52, 40
3, 286680, Note_on_c, 0, 52, 0
3, 286680, Note_on_c, 0, 67, 34
3, 286800, Note_on_c, 0, 67, 0
3, 286800, Note_on_c, 0, 59, 37
3, 286920, Note_on_c, 0, 59, 0
3, 286920, Note_on_c, 0, 67, 34
3, 287040, Note_on_c, 0, 67, 0
3, 287040, Note_on_c, 0, 54, 40
3, 287160, Note_on_c, 0, 54, 0
3, 287160, Note_on_c, 0, 69, 34
3, 287280, Note_on_c, 0, 69, 0
3, 287280, Note_on_c, 0, 59, 37
3, 287400, Note_on_c, 0, 59, 0
3, 287400, Note_on_c, 0, 69, 34
3, 287520, Note_on_c, 0, 69, 0
3, 287520, Note_on_c, 0, 55, 40
3, 287640, Note_on_c, 0, 55, 0
3, 287640, Note_on_c, 0, 71, 35
3, 287760, Note_on_c, 0, 71, 0
3, 287760, Note_on_c, 0, 59, 38
3, 287880, Note_on_c, 0, 59, 0
3, 287880, Note_on_c, 0, 71, 35
3, 288000, Note_on_c, 0, 71, 0
3, 288000, Note_on_c, 0, 52, 40
3, 288120, Note_on_c, 0, 52, 0
3, 288120, Note_on_c, 0, 67, 34
3, 288240, Note_on_c, 0, 67, 0
3, 288240, Note_on_c, 0, 59, 37
3, 288360, Note_on_c, 0, 59, 0
3, 288360, Note_on_c, 0, 67, 34
3, 288480, Note_on_c, 0, 67, 0
3, 288480, Note_on_c, 0, 54, 40
3, 288600, Note_on_c, 0, 54, 0
3, 288600, Note_on_c, 0, 69, 34
3, 288720, Note_on_c, 0, 69, 0
3, 288720, Note_on_c, 0, 59, 37
3, 288840, Note_on_c, 0, 59, 0
3, 288840, Note_on_c, 0, 69, 34
3, 288960, Note_on_c, 0, 69, 0
3, 288960, Note_on_c, 0, 55, 40
3, 289080, Note_on_c, 0, 55, 0
3, 289080, Note_on_c, 0, 71, 35
3, 289200, Note_on_c, 0, 71, 0
3, 289200, Note_on_c, 0, 59, 38
3, 289320, Note_on_c, 0, 59, 0
3, 289320, Note_on_c, 0, 71, 35
3, 289440, Note_on_c, 0, 71, 0
3, 289440, Note_on_c, 0, 52, 40
3, 289560, Note_on_c, 0, 52, 0
3, 289560, Note_on_c, 0, 67, 34
3, 289680, Note_on_c, 0, 67, 0
3, 289680, Note_on_c, 0, 59, 37
3, 289800, Note_on_c, 0, 59, 0
3, 289800, Note_on_c, 0, 67, 34
3, 289920, Note_on_c, 0, 67, 0
3, 289920, Note_on_c, 0, 54, 40
3, 290040, Note_on_c, 0, 54, 0
3, 290040, Note_on_c, 0, 69, 34
3, 290160, Note_on_c, 0, 69, 0
3, 290160, Note_on_c, 0, 59, 37
3, 290280, Note_on_c, 0, 59, 0
3, 290280, Note_on_c, 0, 69, 34
3, 290400, Note_on_c, 0, 69, 0
3, 290400, Note_on_c, 0, 55, 40
3, 290520, Note_on_c, 0, 55, 0
3, 290520, Note_on_c, 0, 71, 35
3, 290640, Note_on_c, 0, 71, 0
3, 290640, Note_on_c, 0, 59, 38
3, 290760, Note_on_c, 0, 59, 0
3, 290760, Note_on_c, 0, 71, 35
3, 290880, Note_on_c, 0, 71, 0
3, 290880, Note_on_c, 0, 57, 40
3, 291000, Note_on_c, 0, 57, 0
3, 291000, Note_on_c, 0, 67, 34
3, 291120, Note_on_c, 0, 67, 0
3, 291120, Note_on_c, 0, 64, 37
3, 291240, Note_on_c, 0, 64, 0
3, 291240, Note_on_c, 0, 67, 34
3, 291360, Note_on_c, 0, 67, 0
3, 291360, Note_on_c, 0, 58, 49
3, 291480, Note_on_c, 0, 58, 0
3, 291480, Note_on_c, 0, 67, 34
3, 291600, Note_on_c, 0, 67, 0
3, 291600, Note_on_c, 0, 64, 42
3, 291720, Note_on_c, 0, 64, 0
3, 291720, Note_on_c, 0, 67, 34
3, 291840, Note_on_c, 0, 67, 0
3, 291840, Note_on_c, 0, 59, 48
3, 291960, Note_on_c, 0, 59, 0
3, 291960, Note_on_c, 0, 67, 35
3, 292080, Note_on_c, 0, 67, 0
3, 292080, Note_on_c, 0, 64, 38
3, 292200, Note_on_c, 0, 64, 0
3, 292200, Note_on_c, 0, 67, 38
3, 292320, Note_on_c, 0, 67, 0
3, 292320, Note_on_c, 0, 59, 51
3, 292440, Note_on_c, 0, 59, 0
3, 292440, Note_on_c, 0, 67, 39
3, 292560, Note_on_c, 0, 67, 0
3, 292560, Note_on_c, 0, 64, 42
3, 292680, Note_on_c, 0, 64, 0
3, 292680, Note_on_c, 0, 67, 39
3, 292800, Note_on_c, 0, 67, 0
3, 292800, Note_on_c, 0, 59, 48
3, 292920, Note_on_c, 0, 59, 0
3, 292920, Note_on_c, 0, 67, 38
3, 293040, Note_on_c, 0, 67, 0
3, 293040, Note_on_c, 0, 64, 39
3, 293160, Note_on_c, 0, 64, 0
3, 293160, Note_on_c, 0, 67, 38
3, 293280, Note_on_c, 0, 67, 0
3, 293280, Note_on_c, 0, 59, 45
3, 293400, Note_on_c, 0, 59, 0
3, 293400, Note_on_c, 0, 69, 41
3, 293520, Note_on_c, 0, 69, 0
3, 293520, Note_on_c, 0, 66, 45
3, 293640, Note_on_c, 0, 66, 0
3, 293640, Note_on_c, 0, 69, 36
3, 293760, Note_on_c, 0, 69, 0
3, 293760, Note_on_c, 0, 40, 36
3, 293880, Note_on_c, 0, 40, 0
3, 293880, Note_on_c, 0, 55, 31
3, 294000, Note_on_c, 0, 55, 0
3, 294000, Note_on_c, 0, 47, 36
3, 294120, Note_on_c, 0, 47, 0
3, 294120, Note_on_c, 0, 55, 35
3, 294240, Note_on_c, 0, 55, 0
3, 294240, Note_on_c, 0, 42, 45
3, 294360, Note_on_c, 0, 42, 0
3, 294360, Note_on_c, 0, 57, 36
3, 294480, Note_on_c, 0, 57, 0
3, 294480, Note_on_c, 0, 47, 39
3, 294600, Note_on_c, 0, 47, 0
3, 294600, Note_on_c, 0, 57, 34
3, 294720, Note_on_c, 0, 57, 0
3, 294720, Note_on_c, 0, 43, 40
3, 294840, Note_on_c, 0, 43, 0
3, 294840, Note_on_c, 0, 59, 34
3, 294960, Note_on_c, 0, 59, 0
3, 294960, Note_on_c, 0, 47, 36
3, 295080, Note_on_c, 0, 47, 0
3, 295080, Note_on_c, 0, 59, 32
3, 295200, Note_on_c, 0, 59, 0
3, 295200, Note_on_c, 0, 40, 36
3, 295320, Note_on_c, 0, 40, 0
3, 295320, Note_on_c, 0, 55, 31
3, 295440, Note_on_c, 0, 55, 0
3, 295440, Note_on_c, 0, 47, 36
3, 295560, Note_on_c, 0, 47, 0
3, 295560, Note_on_c, 0, 55, 35
3, 295680, Note_on_c, 0, 55, 0
3, 295680, Note_on_c, 0, 42, 45
3, 295800, Note_on_c, 0, 42, 0
3, 295800, Note_on_c, 0, 57, 36
3, 295920, Note_on_c, 0, 57, 0
3, 295920, Note_on_c, 0, 47, 39
3, 296040, Note_on_c, 0, 47, 0
3, 296040, Note_on_c, 0, 57, 34
3, 296160, Note_on_c, 0, 57, 0
3, 296160, Note_on_c, 0, 43, 40
3, 296280, Note_on_c, 0, 43, 0
3, 296280, Note_on_c, 0, 59, 34
3, 296400, Note_on_c, 0, 59, 0
3, 296400, Note_on_c, 0, 47, 36
3, 296520, Note_on_c, 0, 47, 0
3, 296520, Note_on_c, 0, 59, 32
3, 296640, Note_on_c, 0, 59, 0
3, 296640, Note_on_c, 0, 40, 36
3, 296760, Note_on_c, 0, 40, 0
3, 296760, Note_on_c, 0, 55, 31
3, 296880, Note_on_c, 0, 55, 0
3, 296880, Note_on_c, 0, 47, 36
3, 297000, Note_on_c, 0, 47, 0
3, 297000, Note_on_c, 0, 55, 35
3, 297120, Note_on_c, 0, 55, 0
3, 297120, Note_on_c, 0, 42, 45
3, 297240, Note_on_c, 0, 42, 0
3, 297240, Note_on_c, 0, 57, 36
3, 297360, Note_on_c, 0, 57, 0
3, 297360, Note_on_c, 0, 47, 39
3, 297480, Note_on_c, 0, 47, 0
3, 297480, Note_on_c, 0, 57, 34
3, 297600, Note_on_c, 0, 57, 0
3, 297600, Note_on_c, 0, 43, 40
3, 297720, Note_on_c, 0, 43, 0
3, 297720, Note_on_c, 0, 59, 34
3, 297840, Note_on_c, 0, 59, 0
3, 297840, Note_on_c, 0, 47, 36
3, 297960, Note_on_c, 0, 47, 0
3, 297960, Note_on_c, 0, 59, 32
3, 298080, Note_on_c, 0, 59, 0
3, 298080, Note_on_c, 0, 40, 36
3, 298200, Note_on_c, 0, 40, 0
3, 298200, Note_on_c, 0, 55, 30
3, 298320, Note_on_c, 0, 55, 0
3, 298320, Note_on_c, 0, 47, 33
3, 298440, Note_on_c, 0, 47, 0
3, 298440, Note_on_c, 0, 55, 30
3, 298560, Note_on_c, 0, 55, 0
3, 298560, Note_on_c, 0, 42, 36
3, 298680, Note_on_c, 0, 42, 0
3, 298680, Note_on_c, 0, 57, 30
3, 298800, Note_on_c, 0, 57, 0
3, 298800, Note_on_c, 0, 47, 33
3, 298920, Note_on_c, 0, 47, 0
3, 298920, Note_on_c, 0, 57, 30
3, 299040, Note_on_c, 0, 57, 0
3, 299040, Note_on_c, 0, 43, 36
3, 299160, Note_on_c, 0, 43, 0
3, 299160, Note_on_c, 0, 59, 31
3, 299280, Note_on_c, 0, 59, 0
3, 299280, Note_on_c, 0, 47, 34
3, 299400, Note_on_c, 0, 47, 0
3, 299400, Note_on_c, 0, 59, 31
3, 299520, Note_on_c, 0, 59, 0
3, 299520, Note_on_c, 0, 45, 40
3, 299640, Note_on_c, 0, 45, 0
3, 299640, Note_on_c, 0, 55, 34
3, 299760, Note_on_c, 0, 55, 0
3, 299760, Note_on_c, 0, 52, 37
3, 299880, Note_on_c, 0, 52, 0
3, 299880, Note_on_c, 0, 55, 34
3, 300000, Note_on_c, 0, 55, 0
3, 300000, Note_on_c, 0, 46, 49
3, 300120, Note_on_c, 0, 46, 0
3, 300120, Note_on_c, 0, 55, 34
3, 300240, Note_on_c, 0, 55, 0
3, 300240, Note_on_c, 0, 52, 42
3, 300360, Note_on_c, 0, 52, 0
3, 300360, Note_on_c, 0, 55, 34
3, 300480, Note_on_c, 0, 55, 0
3, 300480, Note_on_c, 0, 47, 48
3, 300600, Note_on_c, 0, 47, 0
3, 300600, Note_on_c, 0, 55, 35
3, 300720, Note_on_c, 0, 55, 0
3, 300720, Note_on_c, 0, 52, 38
3, 300840, Note_on_c, 0, 52, 0
3, 300840, Note_on_c, 0, 55, 38
3, 300960, Note_on_c, 0, 55, 0
3, 300960, Note_on_c, 0, 47, 53
3, 301910, Note_on_c, 0, 47, 0
3, 301920, Note_on_c, 0, 35, 57
3, 302400, Note_on_c, 0, 35, 0
3, 302400, Note_on_c, 0, 40, 79
3, 302520, Note_on_c, 0, 40, 0
3, 302640, Note_on_c, 0, 54, 81
3, 302640, Note_on_c, 0, 42, 69
3, 302760, Note_on_c, 0, 42, 0
3, 302760, Note_on_c, 0, 54, 0
3, 302880, Note_on_c, 0, 55, 81
3, 302880, Note_on_c, 0, 43, 69
3, 303000, Note_on_c, 0, 43, 0
3, 303000, Note_on_c, 0, 55, 0
3, 303120, Note_on_c, 0, 57, 88
3, 303120, Note_on_c, 0, 45, 72
3, 303240, Note_on_c, 0, 45, 0
3, 303240, Note_on_c, 0, 57, 0
3, 303360, Note_on_c, 0, 59, 94
3, 303360, Note_on_c, 0, 47, 80
3, 305280, Note_on_c, 0, 47, 0
3, 305280, Note_on_c, 0, 59, 0
3, 305280, Note_on_c, 0, 45, 37
3, 305280, Note_on_c, 0, 57, 44
3, 306720, Note_on_c, 0, 57, 0
3, 306720, Note_on_c, 0, 45, 0
3, 306720, Note_on_c, 0, 59, 43
3, 306720, Note_on_c, 0, 47, 36
3, 308160, Note_on_c, 0, 47, 0
3, 308160, Note_on_c, 0, 59, 0
3, 308160, Note_on_c, 0, 40, 93
3, 308160, Note_on_c, 0, 28, 79
3, 308280, Note_on_c, 0, 28, 0
3, 308280, Note_on_c, 0, 40, 0
3, 308400, Note_on_c, 0, 42, 81
3, 308400, Note_on_c, 0, 30, 69
3, 308520, Note_on_c, 0, 30, 0
3, 308520, Note_on_c, 0, 42, 0
3, 308640, Note_on_c, 0, 43, 81
3, 308640, Note_on_c, 0, 31, 69
3, 308760, Note_on_c, 0, 31, 0
3, 308760, Note_on_c, 0, 43, 0
3, 308880, Note_on_c, 0, 45, 88
3, 308880, Note_on_c, 0, 33, 72
3, 309000, Note_on_c, 0, 33, 0
3, 309000, Note_on_c, 0, 45, 0
3, 309120, Note_on_c, 0, 47, 94
3, 309120, Note_on_c, 0, 35, 80
3, 311040, Note_on_c, 0, 35, 0
3, 311040, Note_on_c, 0, 47, 0
3, 311040, Note_on_c, 0, 33, 37
3, 311040, Note_on_c, 0, 45, 44
3, 312480, Note_on_c, 0, 45, 0
3, 312480, Note_on_c, 0, 33, 0
3, 312480, Note_on_c, 0, 35, 24
3, 312480, Note_on_c, 0, 47, 29
3, 313920, Note_on_c, 0, 47, 0
3, 313920, Note_on_c, 0, 35, 0
3, 315360, Note_on_c, 0, 47, 23
3, 315360, Note_on_c, 0, 40, 19
3, 316800, Note_on_c, 0, 40, 0
3, 316800, Note_on_c, 0, 47, 0
3, 318240, Note_on_c, 0, 47, 23
3, 318240, Note_on_c, 0, 35, 19
3, 319680, Note_on_c, 0, 35, 0
3, 319680, Note_on_c, 0, 47, 0
3, 319680, Note_on_c, 0, 40, 23
3, 320160, Note_on_c, 0, 40, 0
3, 321120, Note_on_c, 0, 59, 20
3, 321120, Note_on_c, 0, 47, 17
3, 322560, Note_on_c, 0, 47, 0
3, 322560, Note_on_c, 0, 59, 0
3, 324000, Note_on_c, 0, 59, 20
3, 324000, Note_on_c, 0, 52, 17
3, 325440, Note_on_c, 0, 52, 0
3, 325440, Note_on_c, 0, 59, 0
3, 326880, Note_on_c, 0, 59, 20
3, 326880, Note_on_c, 0, 47, 17
3, 328320, Note_on_c, 0, 47, 0
3, 328320, Note_on_c, 0, 59, 0
3, 328320, Note_on_c, 0, 52, 20
3, 328800, Note_on_c, 0, 52, 0
3, 329760, Note_on_c, 0, 71, 20
3, 331200, Note_on_c, 0, 71, 0
3, 332160, Note_on_c, 0, 72, 29
3, 333120, Note_on_c, 0, 72, 0
3, 333120, Note_on_c, 0, 71, 38
3, 333600, Note_on_c, 0, 71, 0
3, 333600, Note_on_c, 0, 69, 24
3, 333600, Note_on_c, 0, 66, 19
3, 334080, Note_on_c, 0, 66, 0
3, 334080, Note_on_c, 0, 69, 0
3, 334080, Note_on_c, 0, 64, 25
3, 334080, Note_on_c, 0, 67, 30
3, 334800, Note_on_c, 0, 67, 0
3, 334800, Note_on_c, 0, 64, 0
3, 334800, Note_on_c, 0, 69, 26
3, 334800, Note_on_c, 0, 66, 22
3, 335040, Note_on_c, 0, 66, 0
3, 335040, Note_on_c, 0, 69, 0
3, 335040, Note_on_c, 0, 67, 23
3, 335400, Note_on_c, 0, 67, 0
3, 335520, Note_on_c, 0, 62, 25
3, 335520, Note_on_c, 0, 66, 25
3, 335520, Note_on_c, 0, 69, 30
3, 335880, Note_on_c, 0, 69, 0
3, 335880, Note_on_c, 0, 66, 0
3, 335880, Note_on_c, 0, 62, 0
3, 336480, Note_on_c, 0, 74, 24
3, 336936, Note_on_c, 0, 74, 0
3, 336960, Note_on_c, 0, 72, 25
3, 336960, Note_on_c, 0, 74, 30
3, 337680, Note_on_c, 0, 74, 0
3, 337680, Note_on_c, 0, 72, 0
3, 337680, Note_on_c, 0, 74, 26
3, 337680, Note_on_c, 0, 71, 22
3, 337920, Note_on_c, 0, 71, 0
3, 337920, Note_on_c, 0, 74, 0
3, 337920, Note_on_c, 0, 69, 20
3, 337920, Note_on_c, 0, 72, 23
3, 338280, Note_on_c, 0, 72, 0
3, 338280, Note_on_c, 0, 69, 0
3, 338400, Note_on_c, 0, 67, 25
3, 338400, Note_on_c, 0, 71, 30
3, 338760, Note_on_c, 0, 71, 0
3, 338760, Note_on_c, 0, 67, 0
3, 339360, Note_on_c, 0, 79, 21
3, 339816, Note_on_c, 0, 79, 0
3, 339840, Note_on_c, 0, 79, 27
3, 340560, Note_on_c, 0, 79, 0
3, 340560, Note_on_c, 0, 78, 23
3, 340800, Note_on_c, 0, 78, 0
3, 340800, Note_on_c, 0, 76, 20
3, 341160, Note_on_c, 0, 76, 0
3, 341280, Note_on_c, 0, 75, 27
3, 341640, Note_on_c, 0, 75, 0
3, 342720, Note_on_c, 0, 59, 34
3, 342720, Note_on_c, 0, 43, 28
3, 342720, Note_on_c, 0, 52, 28
3, 344160, Note_on_c, 0, 52, 0
3, 344160, Note_on_c, 0, 43, 0
3, 344160, Note_on_c, 0, 59, 0
3, 344160, Note_on_c, 0, 45, 35
3, 345120, Note_on_c, 0, 45, 0
3, 345120, Note_on_c, 0, 46, 43
3, 345600, Note_on_c, 0, 46, 0
3, 345600, Note_on_c, 0, 47, 49
3, 347040, Note_on_c, 0, 47, 0
3, 347040, Note_on_c, 0, 55, 29
3, 347040, Note_on_c, 0, 48, 24
3, 348000, Note_on_c, 0, 48, 0
3, 348000, Note_on_c, 0, 55, 0
3, 348000, Note_on_c, 0, 35, 31
3, 348000, Note_on_c, 0, 47, 36
3, 348240, Note_on_c, 0, 47, 0
3, 348240, Note_on_c, 0, 35, 0
3, 348240, Note_on_c, 0, 33, 33
3, 348240, Note_on_c, 0, 45, 40
3, 348480, Note_on_c, 0, 45, 0
3, 348480, Note_on_c, 0, 33, 0
3, 348480, Note_on_c, 0, 31, 37
3, 348480, Note_on_c, 0, 43, 44
3, 349440, Note_on_c, 0, 43, 0
3, 349440, Note_on_c, 0, 31, 0
3, 349440, Note_on_c, 0, 32, 31
3, 349440, Note_on_c, 0, 44, 37
3, 349920, Note_on_c, 0, 44, 0
3, 349920, Note_on_c, 0, 32, 0
3, 349920, Note_on_c, 0, 33, 26
3, 349920, Note_on_c, 0, 45, 31
3, 350880, Note_on_c, 0, 45, 0
3, 350880, Note_on_c, 0, 33, 0
3, 350880, Note_on_c, 0, 34, 22
3, 350880, Note_on_c, 0, 46, 26
3, 351360, Note_on_c, 0, 46, 0
3, 351360, Note_on_c, 0, 34, 0
3, 351360, Note_on_c, 0, 35, 22
3, 351360, Note_on_c, 0, 47, 28
3, 352800, Note_on_c, 0, 47, 0
3, 352800, Note_on_c, 0, 35, 0
3, 352800, Note_on_c, 0, 40, 14
3, 353280, Note_on_c, 0, 40, 0
3, 353280, End_track
4, 0, Start_track
4, 0, Title_t, "Pedale"
4, 0, Program_c, 0, 0
4, 18080, Control_c, 0, 64, 127
4, 19690, Control_c, 0, 64, 0
4, 19974, Control_c, 0, 64, 127
4, 21135, Control_c, 0, 64, 0
4, 21267, Control_c, 0, 64, 127
4, 23048, Control_c, 0, 64, 0
4, 23227, Control_c, 0, 64, 127
4, 23831, Control_c, 0, 64, 0
4, 26020, Control_c, 0, 64, 127
4, 26895, Control_c, 0, 64, 0
4, 27029, Control_c, 0, 64, 127
4, 27370, Control_c, 0, 64, 0
4, 31813, Control_c, 0, 64, 127
4, 32651, Control_c, 0, 64, 0
4, 32789, Control_c, 0, 64, 127
4, 33128, Control_c, 0, 64, 0
4, 36113, Control_c, 0, 64, 127
4, 36973, Control_c, 0, 64, 0
4, 37532, Control_c, 0, 64, 127
4, 38419, Control_c, 0, 64, 0
4, 38951, Control_c, 0, 64, 127
4, 39858, Control_c, 0, 64, 0
4, 40383, Control_c, 0, 64, 127
4, 41293, Control_c, 0, 64, 0
4, 55800, Control_c, 0, 64, 127
4, 57133, Control_c, 0, 64, 0
4, 57184, Control_c, 0, 64, 127
4, 58573, Control_c, 0, 64, 0
4, 58648, Control_c, 0, 64, 127
4, 60014, Control_c, 0, 64, 0
4, 60067, Control_c, 0, 64, 127
4, 61454, Control_c, 0, 64, 0
4, 61497, Control_c, 0, 64, 127
4, 61928, Control_c, 0, 64, 0
4, 62187, Control_c, 0, 64, 127
4, 62896, Control_c, 0, 64, 0
4, 63067, Control_c, 0, 64, 127
4, 63372, Control_c, 0, 64, 0
4, 63395, Control_c, 0, 64, 127
4, 64341, Control_c, 0, 64, 0
4, 64383, Control_c, 0, 64, 127
4, 64807, Control_c, 0, 64, 0
4, 65094, Control_c, 0, 64, 127
4, 66249, Control_c, 0, 64, 0
4, 66297, Control_c, 0, 64, 127
4, 67680, Control_c, 0, 64, 0
4, 73492, Control_c, 0, 64, 127
4, 73693, Control_c, 0, 64, 0
4, 73783, Control_c, 0, 64, 127
4, 74886, Control_c, 0, 64, 0
4, 74932, Control_c, 0, 64, 127
4, 76320, Control_c, 0, 64, 0
4, 76610, Control_c, 0, 64, 127
4, 79200, Control_c, 0, 64, 0
4, 79252, Control_c, 0, 64, 127
4, 79686, Control_c, 0, 64, 0
4, 79732, Control_c, 0, 64, 127
4, 80177, Control_c, 0, 64, 0
4, 80223, Control_c, 0, 64, 127
4, 81172, Control_c, 0, 64, 0
4, 81235, Control_c, 0, 64, 127
4, 81612, Control_c, 0, 64, 0
4, 81669, Control_c, 0, 64, 127
4, 82569, Control_c, 0, 64, 0
4, 82663, Control_c, 0, 64, 127
4, 83055, Control_c, 0, 64, 0
4, 83137, Control_c, 0, 64, 127
4, 84017, Control_c, 0, 64, 0
4, 84069, Control_c, 0, 64, 127
4, 84499, Control_c, 0, 64, 0
4, 84566, Control_c, 0, 64, 127
4, 84960, Control_c, 0, 64, 0
4, 85035, Control_c, 0, 64, 127
4, 85459, Control_c, 0, 64, 0
4, 85503, Control_c, 0, 64, 127
4, 85939, Control_c, 0, 64, 0
4, 86000, Control_c, 0, 64, 127
4, 86415, Control_c, 0, 64, 0
4, 86440, Control_c, 0, 64, 127
4, 87374, Control_c, 0, 64, 0
4, 87423, Control_c, 0, 64, 127
4, 87852, Control_c, 0, 64, 0
4, 87915, Control_c, 0, 64, 127
4, 88331, Control_c, 0, 64, 0
4, 88389, Control_c, 0, 64, 127
4, 89280, Control_c, 0, 64, 0
4, 89355, Control_c, 0, 64, 127
4, 89777, Control_c, 0, 64, 0
4, 89829, Control_c, 0, 64, 127
4, 90729, Control_c, 0, 64, 0
4, 90795, Control_c, 0, 64, 127
4, 91219, Control_c, 0, 64, 0
4, 91280, Control_c, 0, 64, 127
4, 92168, Control_c, 0, 64, 0
4, 92217, Control_c, 0, 64, 127
4, 92659, Control_c, 0, 64, 0
4, 92717, Control_c, 0, 64, 127
4, 93612, Control_c, 0, 64, 0
4, 93669, Control_c, 0, 64, 127
4, 94099, Control_c, 0, 64, 0
4, 94155, Control_c, 0, 64, 127
4, 94573, Control_c, 0, 64, 0
4, 94623, Control_c, 0, 64, 127
4, 95047, Control_c, 0, 64, 0
4, 95189, Control_c, 0, 64, 127
4, 96480, Control_c, 0, 64, 0
4, 98294, Control_c, 0, 64, 127
4, 99368, Control_c, 0, 64, 0
4, 99600, Control_c, 0, 64, 127
4, 100809, Control_c, 0, 64, 0
4, 101094, Control_c, 0, 64, 127
4, 101777, Control_c, 0, 64, 0
4, 103974, Control_c, 0, 64, 127
4, 105133, Control_c, 0, 64, 0
4, 105414, Control_c, 0, 64, 127
4, 106572, Control_c, 0, 64, 0
4, 106880, Control_c, 0, 64, 127
4, 108012, Control_c, 0, 64, 0
4, 109174, Control_c, 0, 64, 127
4, 110880, Control_c, 0, 64, 0
4, 112054, Control_c, 0, 64, 127
4, 113764, Control_c, 0, 64, 0
4, 114000, Control_c, 0, 64, 127
4, 114347, Control_c, 0, 64, 0
4, 115200, Control_c, 0, 64, 127
4, 115707, Control_c, 0, 64, 0
4, 116640, Control_c, 0, 64, 127
4, 117134, Control_c, 0, 64, 0
4, 118374, Control_c, 0, 64, 127
4, 121928, Control_c, 0, 64, 0
4, 122570, Control_c, 0, 64, 127
4, 123438, Control_c, 0, 64, 0
4, 125344, Control_c, 0, 64, 127
4, 126257, Control_c, 0, 64, 0
4, 128330, Control_c, 0, 64, 127
4, 129198, Control_c, 0, 64, 0
4, 131148, Control_c, 0, 64, 127
4, 132078, Control_c, 0, 64, 0
4, 132515, Control_c, 0, 64, 127
4, 133459, Control_c, 0, 64, 0
4, 133955, Control_c, 0, 64, 127
4, 134899, Control_c, 0, 64, 0
4, 135395, Control_c, 0, 64, 127
4, 136339, Control_c, 0, 64, 0
4, 136835, Control_c, 0, 64, 127
4, 137779, Control_c, 0, 64, 0
4, 138275, Control_c, 0, 64, 127
4, 139219, Control_c, 0, 64, 0
4, 139715, Control_c, 0, 64, 127
4, 140659, Control_c, 0, 64, 0
4, 141155, Control_c, 0, 64, 127
4, 142099, Control_c, 0, 64, 0
4, 142595, Control_c, 0, 64, 127
4, 143539, Control_c, 0, 64, 0
4, 144057, Control_c, 0, 64, 127
4, 144650, Control_c, 0, 64, 0
4, 145737, Control_c, 0, 64, 127
4, 146052, Control_c, 0, 64, 0
4, 147200, Control_c, 0, 64, 127
4, 147400, Control_c, 0, 64, 0
4, 163744, Control_c, 0, 64, 127
4, 164171, Control_c, 0, 64, 0
4, 164223, Control_c, 0, 64, 127
4, 165131, Control_c, 0, 64, 0
4, 165200, Control_c, 0, 64, 127
4, 165608, Control_c, 0, 64, 0
4, 165686, Control_c, 0, 64, 127
4, 166095, Control_c, 0, 64, 0
4, 166183, Control_c, 0, 64, 127
4, 166573, Control_c, 0, 64, 0
4, 166629, Control_c, 0, 64, 127
4, 167061, Control_c, 0, 64, 0
4, 167103, Control_c, 0, 64, 127
4, 167535, Control_c, 0, 64, 0
4, 167589, Control_c, 0, 64, 127
4, 168509, Control_c, 0, 64, 0
4, 168526, Control_c, 0, 64, 127
4, 168979, Control_c, 0, 64, 0
4, 169035, Control_c, 0, 64, 127
4, 169926, Control_c, 0, 64, 0
4, 169983, Control_c, 0, 64, 127
4, 170897, Control_c, 0, 64, 0
4, 170960, Control_c, 0, 64, 127
4, 171368, Control_c, 0, 64, 0
4, 171438, Control_c, 0, 64, 127
4, 171853, Control_c, 0, 64, 0
4, 171918, Control_c, 0, 64, 127
4, 174247, Control_c, 0, 64, 0
4, 174311, Control_c, 0, 64, 127
4, 174739, Control_c, 0, 64, 0
4, 174805, Control_c, 0, 64, 127
4, 175686, Control_c, 0, 64, 0
4, 175743, Control_c, 0, 64, 127
4, 176179, Control_c, 0, 64, 0
4, 176223, Control_c, 0, 64, 127
4, 177126, Control_c, 0, 64, 0
4, 177189, Control_c, 0, 64, 127
4, 178569, Control_c, 0, 64, 0
4, 178638, Control_c, 0, 64, 127
4, 180018, Control_c, 0, 64, 0
4, 180106, Control_c, 0, 64, 127
4, 181447, Control_c, 0, 64, 0
4, 181518, Control_c, 0, 64, 127
4, 182889, Control_c, 0, 64, 0
4, 182979, Control_c, 0, 64, 127
4, 184331, Control_c, 0, 64, 0
4, 184412, Control_c, 0, 64, 127
4, 185769, Control_c, 0, 64, 0
4, 185835, Control_c, 0, 64, 127
4, 187207, Control_c, 0, 64, 0
4, 187269, Control_c, 0, 64, 127
4, 190080, Control_c, 0, 64, 0
4, 190137, Control_c, 0, 64, 127
4, 190577, Control_c, 0, 64, 0
4, 190646, Control_c, 0, 64, 127
4, 191052, Control_c, 0, 64, 0
4, 224214, Control_c, 0, 64, 127
4, 225614, Control_c, 0, 64, 0
4, 225894, Control_c, 0, 64, 127
4, 227052, Control_c, 0, 64, 0
4, 227254, Control_c, 0, 64, 127
4, 228974, Control_c, 0, 64, 0
4, 229147, Control_c, 0, 64, 127
4, 229913, Control_c, 0, 64, 0
4, 231956, Control_c, 0, 64, 127
4, 232814, Control_c, 0, 64, 0
4, 232949, Control_c, 0, 64, 127
4, 233289, Control_c, 0, 64, 0
4, 237782, Control_c, 0, 64, 127
4, 238568, Control_c, 0, 64, 0
4, 238676, Control_c, 0, 64, 127
4, 239050, Control_c, 0, 64, 0
4, 242005, Control_c, 0, 64, 127
4, 242894, Control_c, 0, 64, 0
4, 243516, Control_c, 0, 64, 127
4, 244335, Control_c, 0, 64, 0
4, 244920, Control_c, 0, 64, 127
4, 245768, Control_c, 0, 64, 0
4, 246321, Control_c, 0, 64, 127
4, 247213, Control_c, 0, 64, 0
4, 262080, Control_c, 0, 64, 127
4, 263053, Control_c, 0, 64, 0
4, 263104, Control_c, 0, 64, 127
4, 264493, Control_c, 0, 64, 0
4, 264568, Control_c, 0, 64, 127
4, 265934, Control_c, 0, 64, 0
4, 265987, Control_c, 0, 64, 127
4, 267374, Control_c, 0, 64, 0
4, 267417, Control_c, 0, 64, 127
4, 267848, Control_c, 0, 64, 0
4, 268107, Control_c, 0, 64, 127
4, 268816, Control_c, 0, 64, 0
4, 268997, Control_c, 0, 64, 127
4, 269292, Control_c, 0, 64, 0
4, 269413, Control_c, 0, 64, 127
4, 270261, Control_c, 0, 64, 0
4, 270303, Control_c, 0, 64, 127
4, 270727, Control_c, 0, 64, 0
4, 270840, Control_c, 0, 64, 127
4, 272169, Control_c, 0, 64, 0
4, 272217, Control_c, 0, 64, 127
4, 273600, Control_c, 0, 64, 0
4, 279412, Control_c, 0, 64, 127
4, 279613, Control_c, 0, 64, 0
4, 279703, Control_c, 0, 64, 127
4, 280806, Control_c, 0, 64, 0
4, 280852, Control_c, 0, 64, 127
4, 282240, Control_c, 0, 64, 0
4, 282530, Control_c, 0, 64, 127
4, 285120, Control_c, 0, 64, 0
4, 285172, Control_c, 0, 64, 127
4, 285606, Control_c, 0, 64, 0
4, 285652, Control_c, 0, 64, 127
4, 286097, Control_c, 0, 64, 0
4, 286143, Control_c, 0, 64, 127
4, 287092, Control_c, 0, 64, 0
4, 287155, Control_c, 0, 64, 127
4, 287532, Control_c, 0, 64, 0
4, 287589, Control_c, 0, 64, 127
4, 288489, Control_c, 0, 64, 0
4, 288583, Control_c, 0, 64, 127
4, 288975, Control_c, 0, 64, 0
4, 289057, Control_c, 0, 64, 127
4, 289937, Control_c, 0, 64, 0
4, 289989, Control_c, 0, 64, 127
4, 290419, Control_c, 0, 64, 0
4, 290486, Control_c, 0, 64, 127
4, 290880, Control_c, 0, 64, 0
4, 290955, Control_c, 0, 64, 127
4, 291379, Control_c, 0, 64, 0
4, 291423, Control_c, 0, 64, 127
4, 291859, Control_c, 0, 64, 0
4, 291920, Control_c, 0, 64, 127
4, 292335, Control_c, 0, 64, 0
4, 292360, Control_c, 0, 64, 127
4, 293294, Control_c, 0, 64, 0
4, 293343, Control_c, 0, 64, 127
4, 293772, Control_c, 0, 64, 0
4, 293835, Control_c, 0, 64, 127
4, 294251, Control_c, 0, 64, 0
4, 294309, Control_c, 0, 64, 127
4, 295200, Control_c, 0, 64, 0
4, 295275, Control_c, 0, 64, 127
4, 295697, Control_c, 0, 64, 0
4, 295749, Control_c, 0, 64, 127
4, 296649, Control_c, 0, 64, 0
4, 296715, Control_c, 0, 64, 127
4, 297139, Control_c, 0, 64, 0
4, 297200, Control_c, 0, 64, 127
4, 298088, Control_c, 0, 64, 0
4, 298137, Control_c, 0, 64, 127
4, 298579, Control_c, 0, 64, 0
4, 298637, Control_c, 0, 64, 127
4, 299532, Control_c, 0, 64, 0
4, 299589, Control_c, 0, 64, 127
4, 300019, Control_c, 0, 64, 0
4, 300075, Control_c, 0, 64, 127
4, 300493, Control_c, 0, 64, 0
4, 300543, Control_c, 0, 64, 127
4, 300967, Control_c, 0, 64, 0
4, 301109, Control_c, 0, 64, 127
4, 302400, Control_c, 0, 64, 0
4, 304214, Control_c, 0, 64, 127
4, 305288, Control_c, 0, 64, 0
4, 305520, Control_c, 0, 64, 127
4, 306729, Control_c, 0, 64, 0
4, 307014, Control_c, 0, 64, 127
4, 307697, Control_c, 0, 64, 0
4, 309894, Control_c, 0, 64, 127
4, 311053, Control_c, 0, 64, 0
4, 311334, Control_c, 0, 64, 127
4, 312492, Control_c, 0, 64, 0
4, 312800, Control_c, 0, 64, 127
4, 313932, Control_c, 0, 64, 0
4, 315094, Control_c, 0, 64, 127
4, 316800, Control_c, 0, 64, 0
4, 317974, Control_c, 0, 64, 127
4, 319684, Control_c, 0, 64, 0
4, 319920, Control_c, 0, 64, 127
4, 320267, Control_c, 0, 64, 0
4, 320854, Control_c, 0, 64, 127
4, 322560, Control_c, 0, 64, 0
4, 323707, Control_c, 0, 64, 127
4, 325440, Control_c, 0, 64, 0
4, 326614, Control_c, 0, 64, 127
4, 328324, Control_c, 0, 64, 0
4, 328560, Control_c, 0, 64, 127
4, 328820, Control_c, 0, 64, 0
4, 329494, Control_c, 0, 64, 127
4, 331200, Control_c, 0, 64, 0
4, 344442, Control_c, 0, 64, 127
4, 345131, Control_c, 0, 64, 0
4, 345302, Control_c, 0, 64, 127
4, 345606, Control_c, 0, 64, 0
4, 350218, Control_c, 0, 64, 127
4, 350898, Control_c, 0, 64, 0
4, 351046, Control_c, 0, 64, 127
4, 351368, Control_c, 0, 64, 0
4, 351516, Control_c, 0, 64, 127
4, 352335, Control_c, 0, 64, 0
4, 352433, Control_c, 0, 64, 127
4, 352813, Control_c, 0, 64, 0
4, 352987, Control_c, 0, 64, 127
4, 353360, Control_c, 0, 64, 0
4, 353360, End_track
5, 0, Start_track
5, 0, Title_t, "Beethoven: Sonatea Opus 90, 1. movement"
5, 0, End_track
6, 0, Start_track
6, 0, Title_t, "Copyright © 2010 by Bernd Krueger"
6, 0, End_track
7, 0, Start_track
7, 0, Title_t, "http://www.piano-midi.de/"
7, 0, End_track
8, 0, Start_track
8, 0, Title_t, "Edition: 2014-02-05"
8, 0, End_track
9, 0, Start_track
9, 0, Title_t, "Spur 8"
9, 0, End_track
10, 0, Start_track
10, 0, Title_t, "Spur 9"
10, 0, End_track
11, 0, Start_track
11, 0, Title_t, "Spur 10"
11, 0, End_track
12, 0, Start_track
12, 0, Title_t, "Spur 11"
12, 0, End_track
13, 0, Start_track
13, 0, Title_t, "Spur 12"
13, 0, End_track
14, 0, Start_track
14, 0, Title_t, "Spur 13"
14, 0, End_track
15, 0, Start_track
15, 0, Title_t, "Spur 14"
15, 0, End_track
16, 0, Start_track
16, 0, Title_t, "Spur 15"
16, 0, End_track
17, 0, Start_track
17, 0, Title_t, "Spur 16"
17, 0, End_track
0, 0, End_of_file
