0, 0, Header, 1, 17, 480
1, 0, Start_track
1, 0, Title_t, "Grande Sonata Opus 22 2. movement"
1, 0, Copyright_t, "Copyright © 2009 by Bernd Krueger"
1, 0, Text_t, "Ludwig van Beethoven"
1, 0, Text_t, "Adagio con molta espressione"
1, 0, Text_t, "Erstellt: 18.10.2009\012"
1, 0, Text_t, "Update: 28.5.2012\012"
1, 0, Text_t, "Dauer: 5:21 Minuten\012"
1, 0, Time_signature, 9, 3, 12, 8
1, 0, Key_signature, -3, "major"
1, 0, Tempo, 921659
1, 2040, Tempo, 998336
1, 2160, Tempo, 914634
1, 3840, Tempo, 887574
1, 4200, Tempo, 981997
1, 4320, Tempo, 907716
1, 4680, Tempo, 881057
1, 5040, Tempo, 914634
1, 6360, Tempo, 966184
1, 6480, Tempo, 907716
1, 7800, Tempo, 894188
1, 8520, Tempo, 998336
1, 8640, Tempo, 907716
1, 10200, Tempo, 881057
1, 10680, Tempo, 974026
1, 10800, Tempo, 900901
1, 12720, Tempo, 923077
1, 12960, Tempo, 895522
1, 13440, Tempo, 930233
1, 13680, Tempo, 888889
1, 15000, Tempo, 1043478
1, 15120, Tempo, 916031
1, 15360, Tempo, 882353
1, 16560, Tempo, 916031
1, 16800, Tempo, 875912
1, 17040, Tempo, 952381
1, 17280, Tempo, 902256
1, 17520, Tempo, 875912
1, 18480, Tempo, 888889
1, 18720, Tempo, 869565
1, 19200, Tempo, 909091
1, 19440, Tempo, 930233
1, 19680, Tempo, 882353
1, 20160, Tempo, 916031
1, 20400, Tempo, 875912
1, 20872, Tempo, 882353
1, 20875, Tempo, 916031
1, 21115, Tempo, 875912
1, 21360, Tempo, 916031
1, 21600, Tempo, 916031
1, 22080, Tempo, 967742
1, 22320, Tempo, 909091
1, 22800, Tempo, 952381
1, 23040, Tempo, 916031
1, 23520, Tempo, 1363636
1, 23760, Tempo, 1263158
1, 25200, Tempo, 967742
1, 26160, Tempo, 937500
1, 26400, Tempo, 960000
1, 26640, Tempo, 967742
1, 26880, Tempo, 944882
1, 27120, Tempo, 967742
1, 27360, Tempo, 909091
1, 27600, Tempo, 960000
1, 27835, Tempo, 875912
1, 27840, Tempo, 1153846
1, 28080, Tempo, 952381
1, 29520, Tempo, 967742
1, 30480, Tempo, 937500
1, 30720, Tempo, 960000
1, 30960, Tempo, 967742
1, 31200, Tempo, 944882
1, 31440, Tempo, 967742
1, 31680, Tempo, 944882
1, 31920, Tempo, 960000
1, 32155, Tempo, 875912
1, 32160, Tempo, 983607
1, 32400, Tempo, 952381
1, 33120, Tempo, 930233
1, 33360, Tempo, 896861
1, 33600, Tempo, 909091
1, 33840, Tempo, 930233
1, 34080, Tempo, 896861
1, 34320, Tempo, 902256
1, 34560, Tempo, 937500
1, 34800, Tempo, 890208
1, 35040, Tempo, 902256
1, 35280, Tempo, 923077
1, 35520, Tempo, 888889
1, 35760, Tempo, 895522
1, 36000, Tempo, 930233
1, 36240, Tempo, 890208
1, 36480, Tempo, 923077
1, 37920, Tempo, 952381
1, 38160, Tempo, 916031
1, 38640, Tempo, 869565
1, 38760, Tempo, 960000
1, 38880, Tempo, 916031
1, 39360, Tempo, 882353
1, 39480, Tempo, 930233
1, 39600, Tempo, 916031
1, 40080, Tempo, 888889
1, 40200, Tempo, 944882
1, 40320, Tempo, 923077
1, 40920, Tempo, 937500
1, 41040, Tempo, 916031
1, 41640, Tempo, 952381
1, 41760, Tempo, 916031
1, 43080, Tempo, 960000
1, 43200, Tempo, 916031
1, 43680, Tempo, 882353
1, 43800, Tempo, 952381
1, 43920, Tempo, 923077
1, 44400, Tempo, 895522
1, 44520, Tempo, 944882
1, 44640, Tempo, 923077
1, 45240, Tempo, 960000
1, 45360, Tempo, 923077
1, 45600, Tempo, 952381
1, 46080, Tempo, 923077
1, 46320, Tempo, 952381
1, 46800, Tempo, 916031
1, 47040, Tempo, 930233
1, 47520, Tempo, 923077
1, 47760, Tempo, 944882
1, 48240, Tempo, 923077
1, 48480, Tempo, 952381
1, 48960, Tempo, 923077
1, 49200, Tempo, 944882
1, 49680, Tempo, 923077
1, 50396, Tempo, 944882
1, 50473, Tempo, 937500
1, 50531, Tempo, 930233
1, 50607, Tempo, 923077
1, 50665, Tempo, 916031
1, 50742, Tempo, 909091
1, 50799, Tempo, 902256
1, 50857, Tempo, 895522
1, 50880, Tempo, 916031
1, 51360, Tempo, 930233
1, 51600, Tempo, 944882
1, 51840, Tempo, 916031
1, 52239, Tempo, 869565
1, 52316, Tempo, 875912
1, 52374, Tempo, 882353
1, 52431, Tempo, 888889
1, 52489, Tempo, 895522
1, 52547, Tempo, 902256
1, 52604, Tempo, 909091
1, 52662, Tempo, 857143
1, 52681, Tempo, 869565
1, 52739, Tempo, 875912
1, 52796, Tempo, 882353
1, 52854, Tempo, 888889
1, 52911, Tempo, 895522
1, 52969, Tempo, 902256
1, 53027, Tempo, 909091
1, 53084, Tempo, 916031
1, 53142, Tempo, 923077
1, 53199, Tempo, 857143
1, 53257, Tempo, 863309
1, 53315, Tempo, 869565
1, 53372, Tempo, 875912
1, 53411, Tempo, 882353
1, 53468, Tempo, 888889
1, 53526, Tempo, 895522
1, 53583, Tempo, 902256
1, 53622, Tempo, 909091
1, 53679, Tempo, 869565
1, 53737, Tempo, 875912
1, 53775, Tempo, 882353
1, 53814, Tempo, 888889
1, 53852, Tempo, 895522
1, 53891, Tempo, 902256
1, 53929, Tempo, 909091
1, 53967, Tempo, 916031
1, 53987, Tempo, 975610
1, 54140, Tempo, 967742
1, 54294, Tempo, 960000
1, 54447, Tempo, 952381
1, 54601, Tempo, 944882
1, 54755, Tempo, 937500
1, 54908, Tempo, 930233
1, 55062, Tempo, 923077
1, 55196, Tempo, 909091
1, 55235, Tempo, 916031
1, 55273, Tempo, 923077
1, 55311, Tempo, 930233
1, 55350, Tempo, 937500
1, 55380, Tempo, 1333333
1, 55440, Tempo, 902256
1, 55680, Tempo, 909091
1, 55920, Tempo, 983607
1, 56160, Tempo, 902256
1, 57360, Tempo, 895522
1, 57600, Tempo, 875912
1, 57840, Tempo, 902256
1, 58080, Tempo, 937500
1, 58320, Tempo, 902256
1, 59520, Tempo, 895522
1, 59760, Tempo, 875912
1, 60000, Tempo, 902256
1, 60240, Tempo, 937500
1, 60420, Tempo, 944882
1, 60480, Tempo, 944882
1, 60720, Tempo, 895522
1, 61200, Tempo, 967742
1, 61440, Tempo, 916031
1, 61920, Tempo, 1000000
1, 62160, Tempo, 937500
1, 62400, Tempo, 960000
1, 62520, Tempo, 1176471
1, 62640, Tempo, 1318681
1, 62760, Tempo, 1212121
1, 64080, Tempo, 983607
1, 64800, Tempo, 944882
1, 66480, Tempo, 909091
1, 66720, Tempo, 952381
1, 66840, Tempo, 991736
1, 66960, Tempo, 952381
1, 68580, Tempo, 944882
1, 68640, Tempo, 909091
1, 68880, Tempo, 923077
1, 69000, Tempo, 975610
1, 69120, Tempo, 944882
1, 70740, Tempo, 944882
1, 70800, Tempo, 916031
1, 71040, Tempo, 930233
1, 71160, Tempo, 975610
1, 71280, Tempo, 937500
1, 72240, Tempo, 923077
1, 72480, Tempo, 902256
1, 72720, Tempo, 888889
1, 72960, Tempo, 888889
1, 73080, Tempo, 960000
1, 73200, Tempo, 916031
1, 73320, Tempo, 960000
1, 73440, Tempo, 937500
1, 74400, Tempo, 923077
1, 74640, Tempo, 902256
1, 74880, Tempo, 888889
1, 75120, Tempo, 888889
1, 75240, Tempo, 960000
1, 75360, Tempo, 916031
1, 75480, Tempo, 960000
1, 75600, Tempo, 937500
1, 76560, Tempo, 923077
1, 76800, Tempo, 902256
1, 77040, Tempo, 888889
1, 77280, Tempo, 888889
1, 77400, Tempo, 960000
1, 77520, Tempo, 916031
1, 77640, Tempo, 960000
1, 77760, Tempo, 937500
1, 78720, Tempo, 923077
1, 78960, Tempo, 902256
1, 79200, Tempo, 888889
1, 79440, Tempo, 888889
1, 79560, Tempo, 960000
1, 79680, Tempo, 916031
1, 79800, Tempo, 960000
1, 79920, Tempo, 937500
1, 80880, Tempo, 923077
1, 81120, Tempo, 902256
1, 81360, Tempo, 888889
1, 81600, Tempo, 888889
1, 81720, Tempo, 960000
1, 81840, Tempo, 916031
1, 81960, Tempo, 960000
1, 82080, Tempo, 909091
1, 82320, Tempo, 888889
1, 82680, Tempo, 937500
1, 82800, Tempo, 909091
1, 83040, Tempo, 888889
1, 83400, Tempo, 930233
1, 83520, Tempo, 902256
1, 83760, Tempo, 888889
1, 84120, Tempo, 937500
1, 84240, Tempo, 909091
1, 84480, Tempo, 888889
1, 84840, Tempo, 937500
1, 84960, Tempo, 909091
1, 85200, Tempo, 888889
1, 85560, Tempo, 930233
1, 85680, Tempo, 902256
1, 85920, Tempo, 888889
1, 86280, Tempo, 937500
1, 86400, Tempo, 909091
1, 86640, Tempo, 888889
1, 87000, Tempo, 937500
1, 87120, Tempo, 909091
1, 87360, Tempo, 888889
1, 87720, Tempo, 930233
1, 87840, Tempo, 902256
1, 88080, Tempo, 888889
1, 88440, Tempo, 937500
1, 88560, Tempo, 909091
1, 88800, Tempo, 888889
1, 89160, Tempo, 937500
1, 89280, Tempo, 909091
1, 89520, Tempo, 888889
1, 89880, Tempo, 930233
1, 90000, Tempo, 902256
1, 90240, Tempo, 888889
1, 90600, Tempo, 937500
1, 90720, Tempo, 909091
1, 90960, Tempo, 888889
1, 91320, Tempo, 937500
1, 91440, Tempo, 909091
1, 91680, Tempo, 888889
1, 92040, Tempo, 930233
1, 92160, Tempo, 902256
1, 92400, Tempo, 888889
1, 92760, Tempo, 937500
1, 92880, Tempo, 909091
1, 93120, Tempo, 888889
1, 93480, Tempo, 937500
1, 93600, Tempo, 909091
1, 93840, Tempo, 888889
1, 94200, Tempo, 930233
1, 94320, Tempo, 902256
1, 94560, Tempo, 888889
1, 94920, Tempo, 937500
1, 95040, Tempo, 923077
1, 95640, Tempo, 952381
1, 95760, Tempo, 923077
1, 96360, Tempo, 944882
1, 96480, Tempo, 916031
1, 97080, Tempo, 991736
1, 97200, Tempo, 902256
1, 97560, Tempo, 944882
1, 97680, Tempo, 902256
1, 98520, Tempo, 930233
1, 98640, Tempo, 909091
1, 98760, Tempo, 937500
1, 98880, Tempo, 923077
1, 99120, Tempo, 937500
1, 99240, Tempo, 1016949
1, 99360, Tempo, 921659
1, 101400, Tempo, 998336
1, 101520, Tempo, 914634
1, 103200, Tempo, 887574
1, 103560, Tempo, 981997
1, 103680, Tempo, 907716
1, 104040, Tempo, 881057
1, 104400, Tempo, 914634
1, 105720, Tempo, 966184
1, 105840, Tempo, 907716
1, 107160, Tempo, 894188
1, 107880, Tempo, 998336
1, 108000, Tempo, 907716
1, 109560, Tempo, 881057
1, 110040, Tempo, 974026
1, 110160, Tempo, 900901
1, 112080, Tempo, 923077
1, 112560, Tempo, 888889
1, 112920, Tempo, 930233
1, 113040, Tempo, 882353
1, 114001, Tempo, 839161
1, 114031, Tempo, 845070
1, 114061, Tempo, 851064
1, 114091, Tempo, 857143
1, 114121, Tempo, 863309
1, 114151, Tempo, 869565
1, 114181, Tempo, 875912
1, 114211, Tempo, 882353
1, 114241, Tempo, 888889
1, 114271, Tempo, 895522
1, 114301, Tempo, 902256
1, 114331, Tempo, 909091
1, 114360, Tempo, 960000
1, 114480, Tempo, 916031
1, 114720, Tempo, 882353
1, 115920, Tempo, 916031
1, 116160, Tempo, 875912
1, 116400, Tempo, 952381
1, 116640, Tempo, 902256
1, 116880, Tempo, 875912
1, 117840, Tempo, 888889
1, 118080, Tempo, 869565
1, 118560, Tempo, 909091
1, 118800, Tempo, 930233
1, 119040, Tempo, 882353
1, 119520, Tempo, 916031
1, 119760, Tempo, 875912
1, 120232, Tempo, 882353
1, 120235, Tempo, 916031
1, 120475, Tempo, 875912
1, 120720, Tempo, 916031
1, 120960, Tempo, 896861
1, 121440, Tempo, 923077
1, 121680, Tempo, 916031
1, 122160, Tempo, 937500
1, 122400, Tempo, 896861
1, 122880, Tempo, 924499
1, 123120, Tempo, 902256
1, 123360, Tempo, 924499
1, 123600, Tempo, 938967
1, 123840, Tempo, 967742
1, 124080, Tempo, 930233
1, 124320, Tempo, 967742
1, 124560, Tempo, 909091
1, 124800, Tempo, 960000
1, 125035, Tempo, 875912
1, 125040, Tempo, 1153846
1, 125280, Tempo, 924499
1, 126720, Tempo, 938967
1, 127680, Tempo, 917431
1, 127920, Tempo, 938967
1, 128160, Tempo, 953895
1, 128400, Tempo, 924499
1, 128640, Tempo, 967742
1, 128880, Tempo, 931677
1, 129120, Tempo, 960000
1, 129355, Tempo, 875912
1, 129360, Tempo, 983607
1, 129600, Tempo, 952381
1, 130320, Tempo, 930233
1, 130560, Tempo, 890208
1, 130800, Tempo, 909091
1, 131040, Tempo, 930233
1, 131280, Tempo, 890208
1, 131520, Tempo, 902256
1, 131760, Tempo, 930233
1, 132000, Tempo, 890208
1, 132240, Tempo, 902256
1, 132480, Tempo, 930233
1, 132720, Tempo, 890208
1, 132960, Tempo, 902256
1, 133200, Tempo, 930233
1, 133440, Tempo, 888889
1, 133680, Tempo, 902256
1, 133920, Tempo, 952381
1, 134640, Tempo, 930233
1, 134880, Tempo, 890208
1, 135120, Tempo, 909091
1, 135360, Tempo, 930233
1, 135600, Tempo, 890208
1, 135840, Tempo, 902256
1, 136080, Tempo, 930233
1, 136320, Tempo, 883652
1, 136560, Tempo, 902256
1, 136800, Tempo, 930233
1, 137040, Tempo, 883652
1, 137280, Tempo, 902256
1, 137520, Tempo, 930233
1, 137760, Tempo, 888889
1, 138000, Tempo, 902256
1, 138240, Tempo, 923077
1, 139440, Tempo, 952381
1, 139680, Tempo, 916031
1, 140160, Tempo, 869565
1, 140280, Tempo, 960000
1, 140400, Tempo, 916031
1, 140880, Tempo, 882353
1, 141000, Tempo, 930233
1, 141120, Tempo, 916031
1, 141600, Tempo, 888889
1, 141720, Tempo, 944882
1, 141840, Tempo, 923077
1, 142440, Tempo, 937500
1, 142560, Tempo, 916031
1, 143160, Tempo, 952381
1, 143280, Tempo, 916031
1, 144000, Tempo, 924499
1, 144120, Tempo, 903614
1, 144600, Tempo, 960000
1, 144720, Tempo, 916031
1, 145200, Tempo, 882353
1, 145320, Tempo, 952381
1, 145440, Tempo, 923077
1, 145920, Tempo, 895522
1, 146040, Tempo, 944882
1, 146160, Tempo, 923077
1, 146760, Tempo, 960000
1, 146880, Tempo, 923077
1, 147120, Tempo, 952381
1, 147600, Tempo, 923077
1, 147840, Tempo, 952381
1, 148320, Tempo, 916031
1, 148560, Tempo, 930233
1, 149040, Tempo, 923077
1, 149280, Tempo, 944882
1, 149760, Tempo, 923077
1, 150000, Tempo, 952381
1, 150480, Tempo, 923077
1, 150720, Tempo, 944882
1, 151200, Tempo, 923077
1, 151916, Tempo, 944882
1, 151993, Tempo, 937500
1, 152051, Tempo, 930233
1, 152127, Tempo, 923077
1, 152185, Tempo, 916031
1, 152262, Tempo, 909091
1, 152319, Tempo, 902256
1, 152377, Tempo, 895522
1, 152400, Tempo, 916031
1, 152880, Tempo, 930233
1, 153120, Tempo, 944882
1, 153360, Tempo, 916031
1, 153759, Tempo, 869565
1, 153836, Tempo, 875912
1, 153894, Tempo, 882353
1, 153951, Tempo, 888889
1, 154009, Tempo, 895522
1, 154067, Tempo, 902256
1, 154124, Tempo, 909091
1, 154182, Tempo, 857143
1, 154201, Tempo, 869565
1, 154259, Tempo, 875912
1, 154316, Tempo, 882353
1, 154374, Tempo, 888889
1, 154431, Tempo, 895522
1, 154489, Tempo, 902256
1, 154547, Tempo, 909091
1, 154604, Tempo, 916031
1, 154662, Tempo, 923077
1, 154719, Tempo, 857143
1, 154777, Tempo, 863309
1, 154835, Tempo, 869565
1, 154892, Tempo, 875912
1, 154931, Tempo, 882353
1, 154988, Tempo, 888889
1, 155046, Tempo, 895522
1, 155103, Tempo, 902256
1, 155142, Tempo, 909091
1, 155199, Tempo, 869565
1, 155257, Tempo, 875912
1, 155295, Tempo, 882353
1, 155334, Tempo, 888889
1, 155372, Tempo, 895522
1, 155411, Tempo, 902256
1, 155449, Tempo, 909091
1, 155487, Tempo, 916031
1, 155507, Tempo, 975610
1, 155660, Tempo, 967742
1, 155814, Tempo, 960000
1, 155967, Tempo, 952381
1, 156121, Tempo, 944882
1, 156275, Tempo, 937500
1, 156428, Tempo, 930233
1, 156582, Tempo, 923077
1, 156716, Tempo, 909091
1, 156755, Tempo, 916031
1, 156793, Tempo, 923077
1, 156831, Tempo, 930233
1, 156870, Tempo, 937500
1, 156900, Tempo, 1333333
1, 156960, Tempo, 902256
1, 157200, Tempo, 909091
1, 157440, Tempo, 983607
1, 157680, Tempo, 902256
1, 158880, Tempo, 895522
1, 159120, Tempo, 875912
1, 159360, Tempo, 902256
1, 159600, Tempo, 937500
1, 159840, Tempo, 902256
1, 161040, Tempo, 895522
1, 161280, Tempo, 875912
1, 161520, Tempo, 902256
1, 161760, Tempo, 937500
1, 161940, Tempo, 944882
1, 162000, Tempo, 944882
1, 162240, Tempo, 895522
1, 162720, Tempo, 967742
1, 162960, Tempo, 916031
1, 163440, Tempo, 1000000
1, 163680, Tempo, 967742
1, 163920, Tempo, 1034483
1, 164040, Tempo, 1411765
1, 164160, Tempo, 1481481
1, 164280, Tempo, 1739130
1, 164280, End_track
2, 0, Start_track
2, 0, Title_t, "Piano right"
2, 0, Program_c, 0, 0
2, 1440, Note_on_c, 0, 67, 38
2, 1620, Note_on_c, 0, 67, 0
2, 1620, Note_on_c, 0, 68, 36
2, 1680, Note_on_c, 0, 68, 0
2, 1680, Note_on_c, 0, 67, 39
2, 1800, Note_on_c, 0, 67, 0
2, 1800, Note_on_c, 0, 65, 36
2, 1920, Note_on_c, 0, 65, 0
2, 1920, Note_on_c, 0, 67, 40
2, 2040, Note_on_c, 0, 67, 0
2, 2040, Note_on_c, 0, 68, 36
2, 2160, Note_on_c, 0, 68, 0
2, 2160, Note_on_c, 0, 69, 44
2, 2880, Note_on_c, 0, 69, 0
2, 2880, Note_on_c, 0, 70, 51
2, 3780, Note_on_c, 0, 70, 0
2, 3780, Note_on_c, 0, 72, 39
2, 3840, Note_on_c, 0, 72, 0
2, 3840, Note_on_c, 0, 70, 49
2, 3960, Note_on_c, 0, 70, 0
2, 3960, Note_on_c, 0, 69, 42
2, 4080, Note_on_c, 0, 69, 0
2, 4080, Note_on_c, 0, 70, 51
2, 4200, Note_on_c, 0, 70, 0
2, 4200, Note_on_c, 0, 71, 46
2, 4320, Note_on_c, 0, 71, 0
2, 4320, Note_on_c, 0, 71, 50
2, 4680, Note_on_c, 0, 72, 39
2, 4710, Note_on_c, 0, 72, 0
2, 4710, Note_on_c, 0, 71, 33
2, 4740, Note_on_c, 0, 71, 0
2, 4740, Note_on_c, 0, 71, 0
2, 4740, Note_on_c, 0, 69, 41
2, 4770, Note_on_c, 0, 69, 0
2, 4770, Note_on_c, 0, 71, 37
2, 4800, Note_on_c, 0, 71, 0
2, 4800, Note_on_c, 0, 74, 53
2, 4980, Note_on_c, 0, 74, 0
2, 4980, Note_on_c, 0, 72, 44
2, 5040, Note_on_c, 0, 72, 0
2, 5040, Note_on_c, 0, 65, 55
2, 5940, Note_on_c, 0, 65, 0
2, 5940, Note_on_c, 0, 67, 39
2, 6000, Note_on_c, 0, 67, 0
2, 6000, Note_on_c, 0, 65, 46
2, 6120, Note_on_c, 0, 65, 0
2, 6120, Note_on_c, 0, 64, 42
2, 6240, Note_on_c, 0, 64, 0
2, 6240, Note_on_c, 0, 65, 49
2, 6360, Note_on_c, 0, 65, 0
2, 6360, Note_on_c, 0, 67, 46
2, 6480, Note_on_c, 0, 67, 0
2, 6480, Note_on_c, 0, 68, 55
2, 7320, Note_on_c, 0, 68, 0
2, 7320, Note_on_c, 0, 67, 47
2, 7440, Note_on_c, 0, 67, 0
2, 7440, Note_on_c, 0, 65, 48
2, 7560, Note_on_c, 0, 65, 0
2, 7560, Note_on_c, 0, 64, 44
2, 7680, Note_on_c, 0, 64, 0
2, 7680, Note_on_c, 0, 65, 49
2, 7800, Note_on_c, 0, 65, 0
2, 7800, Note_on_c, 0, 67, 44
2, 7920, Note_on_c, 0, 67, 0
2, 7920, Note_on_c, 0, 68, 50
2, 8040, Note_on_c, 0, 68, 0
2, 8040, Note_on_c, 0, 70, 45
2, 8160, Note_on_c, 0, 70, 0
2, 8160, Note_on_c, 0, 72, 54
2, 8280, Note_on_c, 0, 72, 0
2, 8280, Note_on_c, 0, 71, 45
2, 8400, Note_on_c, 0, 71, 0
2, 8400, Note_on_c, 0, 72, 48
2, 8520, Note_on_c, 0, 72, 0
2, 8520, Note_on_c, 0, 68, 39
2, 8640, Note_on_c, 0, 68, 0
2, 8640, Note_on_c, 0, 66, 58
2, 9360, Note_on_c, 0, 66, 0
2, 9360, Note_on_c, 0, 67, 55
2, 10200, Note_on_c, 0, 67, 0
2, 10200, Note_on_c, 0, 63, 55
2, 10320, Note_on_c, 0, 63, 0
2, 10320, Note_on_c, 0, 67, 59
2, 10440, Note_on_c, 0, 67, 0
2, 10440, Note_on_c, 0, 70, 62
2, 10560, Note_on_c, 0, 70, 0
2, 10560, Note_on_c, 0, 75, 66
2, 10680, Note_on_c, 0, 75, 0
2, 10680, Note_on_c, 0, 79, 69
2, 10800, Note_on_c, 0, 79, 0
2, 10800, Note_on_c, 0, 82, 72
2, 11760, Note_on_c, 0, 82, 0
2, 11760, Note_on_c, 0, 79, 69
2, 12000, Note_on_c, 0, 79, 0
2, 12000, Note_on_c, 0, 75, 65
2, 12240, Note_on_c, 0, 75, 0
2, 12240, Note_on_c, 0, 70, 65
2, 12480, Note_on_c, 0, 70, 0
2, 12480, Note_on_c, 0, 67, 68
2, 12720, Note_on_c, 0, 67, 0
2, 12720, Note_on_c, 0, 63, 66
2, 12960, Note_on_c, 0, 63, 0
2, 12960, Note_on_c, 0, 60, 72
2, 13680, Note_on_c, 0, 60, 0
2, 13680, Note_on_c, 0, 84, 72
2, 14640, Note_on_c, 0, 84, 0
2, 14640, Note_on_c, 0, 82, 67
2, 14760, Note_on_c, 0, 82, 0
2, 14760, Note_on_c, 0, 80, 61
2, 14880, Note_on_c, 0, 80, 0
2, 14880, Note_on_c, 0, 79, 67
2, 15000, Note_on_c, 0, 79, 0
2, 15000, Note_on_c, 0, 77, 60
2, 15110, Note_on_c, 0, 77, 0
2, 15120, Note_on_c, 0, 77, 67
2, 15360, Note_on_c, 0, 77, 0
2, 15360, Note_on_c, 0, 75, 60
2, 16080, Note_on_c, 0, 75, 0
2, 16080, Note_on_c, 0, 75, 56
2, 16320, Note_on_c, 0, 75, 0
2, 16320, Note_on_c, 0, 75, 54
2, 16560, Note_on_c, 0, 75, 0
2, 16560, Note_on_c, 0, 75, 53
2, 16590, Note_on_c, 0, 75, 0
2, 16590, Note_on_c, 0, 77, 43
2, 16620, Note_on_c, 0, 77, 0
2, 16620, Note_on_c, 0, 75, 54
2, 16650, Note_on_c, 0, 75, 0
2, 16650, Note_on_c, 0, 77, 46
2, 16680, Note_on_c, 0, 77, 0
2, 16680, Note_on_c, 0, 75, 52
2, 16710, Note_on_c, 0, 75, 0
2, 16710, Note_on_c, 0, 77, 44
2, 16740, Note_on_c, 0, 77, 0
2, 16740, Note_on_c, 0, 75, 51
2, 16760, Note_on_c, 0, 75, 0
2, 16760, Note_on_c, 0, 74, 43
2, 16780, Note_on_c, 0, 74, 0
2, 16780, Note_on_c, 0, 75, 43
2, 16800, Note_on_c, 0, 75, 0
2, 16800, Note_on_c, 0, 77, 54
2, 17040, Note_on_c, 0, 77, 0
2, 17040, Note_on_c, 0, 74, 47
2, 17280, Note_on_c, 0, 74, 0
2, 17280, Note_on_c, 0, 75, 47
2, 17520, Note_on_c, 0, 75, 0
2, 17520, Note_on_c, 0, 70, 43
2, 17736, Note_on_c, 0, 70, 0
2, 17760, Note_on_c, 0, 70, 43
2, 17976, Note_on_c, 0, 70, 0
2, 18000, Note_on_c, 0, 70, 49
2, 18240, Note_on_c, 0, 70, 0
2, 18240, Note_on_c, 0, 72, 41
2, 18480, Note_on_c, 0, 72, 0
2, 18480, Note_on_c, 0, 68, 32
2, 18720, Note_on_c, 0, 68, 0
2, 18720, Note_on_c, 0, 63, 36
2, 18720, Note_on_c, 0, 67, 43
2, 18960, Note_on_c, 0, 67, 0
2, 18960, Note_on_c, 0, 68, 37
2, 19200, Note_on_c, 0, 68, 0
2, 19200, Note_on_c, 0, 63, 0
2, 19200, Note_on_c, 0, 62, 27
2, 19200, Note_on_c, 0, 65, 32
2, 19440, Note_on_c, 0, 65, 0
2, 19440, Note_on_c, 0, 62, 0
2, 19440, Note_on_c, 0, 63, 47
2, 19680, Note_on_c, 0, 63, 0
2, 19680, Note_on_c, 0, 58, 38
2, 19896, Note_on_c, 0, 58, 0
2, 19920, Note_on_c, 0, 58, 38
2, 20136, Note_on_c, 0, 58, 0
2, 20160, Note_on_c, 0, 58, 34
2, 20190, Note_on_c, 0, 58, 0
2, 20190, Note_on_c, 0, 60, 27
2, 20220, Note_on_c, 0, 60, 0
2, 20220, Note_on_c, 0, 58, 34
2, 20250, Note_on_c, 0, 58, 0
2, 20250, Note_on_c, 0, 60, 29
2, 20280, Note_on_c, 0, 60, 0
2, 20280, Note_on_c, 0, 58, 33
2, 20310, Note_on_c, 0, 58, 0
2, 20310, Note_on_c, 0, 60, 27
2, 20340, Note_on_c, 0, 60, 0
2, 20340, Note_on_c, 0, 58, 32
2, 20360, Note_on_c, 0, 58, 0
2, 20360, Note_on_c, 0, 57, 27
2, 20380, Note_on_c, 0, 57, 0
2, 20380, Note_on_c, 0, 58, 27
2, 20400, Note_on_c, 0, 58, 0
2, 20400, Note_on_c, 0, 60, 34
2, 20640, Note_on_c, 0, 60, 0
2, 20640, Note_on_c, 0, 56, 28
2, 20880, Note_on_c, 0, 56, 0
2, 20880, Note_on_c, 0, 51, 28
2, 20880, Note_on_c, 0, 55, 34
2, 20910, Note_on_c, 0, 55, 0
2, 20910, Note_on_c, 0, 56, 27
2, 20940, Note_on_c, 0, 56, 0
2, 20940, Note_on_c, 0, 55, 34
2, 20970, Note_on_c, 0, 55, 0
2, 20970, Note_on_c, 0, 56, 29
2, 21000, Note_on_c, 0, 56, 0
2, 21000, Note_on_c, 0, 55, 33
2, 21030, Note_on_c, 0, 55, 0
2, 21030, Note_on_c, 0, 56, 27
2, 21060, Note_on_c, 0, 56, 0
2, 21060, Note_on_c, 0, 55, 32
2, 21080, Note_on_c, 0, 55, 0
2, 21080, Note_on_c, 0, 53, 27
2, 21100, Note_on_c, 0, 53, 0
2, 21100, Note_on_c, 0, 55, 27
2, 21120, Note_on_c, 0, 55, 0
2, 21120, Note_on_c, 0, 56, 34
2, 21355, Note_on_c, 0, 53, 28
2, 21360, Note_on_c, 0, 56, 0
2, 21360, Note_on_c, 0, 51, 0
2, 21595, Note_on_c, 0, 53, 0
2, 21600, Note_on_c, 0, 51, 28
2, 22080, Note_on_c, 0, 51, 0
2, 22080, Note_on_c, 0, 50, 33
2, 22080, Note_on_c, 0, 53, 39
2, 22320, Note_on_c, 0, 53, 0
2, 22320, Note_on_c, 0, 50, 0
2, 22320, Note_on_c, 0, 51, 28
2, 22800, Note_on_c, 0, 51, 0
2, 22800, Note_on_c, 0, 50, 34
2, 22800, Note_on_c, 0, 53, 40
2, 23040, Note_on_c, 0, 53, 0
2, 23040, Note_on_c, 0, 50, 0
2, 23040, Note_on_c, 0, 51, 28
2, 23520, Note_on_c, 0, 51, 0
2, 23520, Note_on_c, 0, 50, 36
2, 23520, Note_on_c, 0, 53, 36
2, 23520, Note_on_c, 0, 58, 43
2, 23740, Note_on_c, 0, 58, 0
2, 23740, Note_on_c, 0, 53, 0
2, 23740, Note_on_c, 0, 50, 0
2, 23760, Note_on_c, 0, 50, 23
2, 23760, Note_on_c, 0, 53, 23
2, 23760, Note_on_c, 0, 58, 28
2, 24480, Note_on_c, 0, 58, 0
2, 24480, Note_on_c, 0, 53, 0
2, 24480, Note_on_c, 0, 50, 0
2, 24480, Note_on_c, 0, 51, 25
2, 24960, Note_on_c, 0, 51, 0
2, 25200, Note_on_c, 0, 55, 32
2, 25440, Note_on_c, 0, 55, 0
2, 25440, Note_on_c, 0, 58, 37
2, 25680, Note_on_c, 0, 58, 0
2, 25680, Note_on_c, 0, 63, 42
2, 25910, Note_on_c, 0, 63, 0
2, 25920, Note_on_c, 0, 55, 38
2, 25920, Note_on_c, 0, 58, 38
2, 25920, Note_on_c, 0, 63, 38
2, 25920, Note_on_c, 0, 67, 45
2, 26870, Note_on_c, 0, 67, 0
2, 26870, Note_on_c, 0, 55, 0
2, 26870, Note_on_c, 0, 58, 0
2, 26870, Note_on_c, 0, 63, 0
2, 26880, Note_on_c, 0, 58, 36
2, 26880, Note_on_c, 0, 63, 36
2, 26880, Note_on_c, 0, 67, 43
2, 27110, Note_on_c, 0, 67, 0
2, 27110, Note_on_c, 0, 63, 0
2, 27110, Note_on_c, 0, 58, 0
2, 27120, Note_on_c, 0, 63, 35
2, 27120, Note_on_c, 0, 67, 42
2, 27350, Note_on_c, 0, 67, 0
2, 27350, Note_on_c, 0, 63, 0
2, 27360, Note_on_c, 0, 63, 23
2, 27360, Note_on_c, 0, 67, 34
2, 27390, Note_on_c, 0, 67, 0
2, 27390, Note_on_c, 0, 68, 27
2, 27420, Note_on_c, 0, 68, 0
2, 27420, Note_on_c, 0, 67, 34
2, 27450, Note_on_c, 0, 67, 0
2, 27450, Note_on_c, 0, 68, 29
2, 27480, Note_on_c, 0, 68, 0
2, 27480, Note_on_c, 0, 67, 33
2, 27510, Note_on_c, 0, 67, 0
2, 27510, Note_on_c, 0, 68, 27
2, 27540, Note_on_c, 0, 68, 0
2, 27540, Note_on_c, 0, 67, 32
2, 27560, Note_on_c, 0, 67, 0
2, 27560, Note_on_c, 0, 65, 27
2, 27580, Note_on_c, 0, 65, 0
2, 27580, Note_on_c, 0, 67, 27
2, 27600, Note_on_c, 0, 67, 0
2, 27600, Note_on_c, 0, 65, 38
2, 27600, Note_on_c, 0, 68, 45
2, 27840, Note_on_c, 0, 68, 0
2, 27840, Note_on_c, 0, 65, 0
2, 27840, Note_on_c, 0, 63, 0
2, 27840, Note_on_c, 0, 58, 32
2, 27840, Note_on_c, 0, 62, 32
2, 27840, Note_on_c, 0, 65, 38
2, 28070, Note_on_c, 0, 65, 0
2, 28070, Note_on_c, 0, 62, 0
2, 28070, Note_on_c, 0, 58, 0
2, 28080, Note_on_c, 0, 58, 28
2, 28080, Note_on_c, 0, 62, 28
2, 28080, Note_on_c, 0, 65, 34
2, 28800, Note_on_c, 0, 65, 0
2, 28800, Note_on_c, 0, 62, 0
2, 28800, Note_on_c, 0, 63, 32
2, 29040, Note_on_c, 0, 63, 0
2, 29040, Note_on_c, 0, 58, 0
2, 29520, Note_on_c, 0, 55, 36
2, 29520, Note_on_c, 0, 58, 43
2, 29760, Note_on_c, 0, 58, 0
2, 29760, Note_on_c, 0, 55, 0
2, 29760, Note_on_c, 0, 58, 40
2, 29760, Note_on_c, 0, 63, 48
2, 30000, Note_on_c, 0, 63, 0
2, 30000, Note_on_c, 0, 58, 0
2, 30000, Note_on_c, 0, 63, 45
2, 30000, Note_on_c, 0, 67, 54
2, 30230, Note_on_c, 0, 67, 0
2, 30240, Note_on_c, 0, 63, 0
2, 30240, Note_on_c, 0, 67, 51
2, 30240, Note_on_c, 0, 70, 60
2, 31200, Note_on_c, 0, 75, 70
2, 31419, Note_on_c, 0, 75, 0
2, 31440, Note_on_c, 0, 75, 64
2, 31659, Note_on_c, 0, 75, 0
2, 31680, Note_on_c, 0, 75, 67
2, 31908, Note_on_c, 0, 75, 0
2, 31920, Note_on_c, 0, 70, 0
2, 31920, Note_on_c, 0, 67, 0
2, 31920, Note_on_c, 0, 66, 44
2, 31920, Note_on_c, 0, 69, 44
2, 31920, Note_on_c, 0, 75, 57
2, 32148, Note_on_c, 0, 75, 0
2, 32160, Note_on_c, 0, 69, 0
2, 32160, Note_on_c, 0, 66, 0
2, 32160, Note_on_c, 0, 75, 64
2, 32160, Note_on_c, 0, 66, 50
2, 32160, Note_on_c, 0, 70, 50
2, 32388, Note_on_c, 0, 75, 0
2, 32390, Note_on_c, 0, 70, 0
2, 32390, Note_on_c, 0, 66, 0
2, 32400, Note_on_c, 0, 66, 45
2, 32400, Note_on_c, 0, 72, 45
2, 32400, Note_on_c, 0, 75, 68
2, 32880, Note_on_c, 0, 66, 0
2, 32880, Note_on_c, 0, 65, 38
2, 33120, Note_on_c, 0, 65, 0
2, 33120, Note_on_c, 0, 75, 0
2, 33120, Note_on_c, 0, 72, 0
2, 33360, Note_on_c, 0, 66, 34
2, 33360, Note_on_c, 0, 72, 34
2, 33360, Note_on_c, 0, 75, 40
2, 33600, Note_on_c, 0, 66, 0
2, 33600, Note_on_c, 0, 65, 29
2, 33840, Note_on_c, 0, 65, 0
2, 33840, Note_on_c, 0, 75, 0
2, 33840, Note_on_c, 0, 72, 0
2, 34080, Note_on_c, 0, 66, 34
2, 34080, Note_on_c, 0, 70, 34
2, 34080, Note_on_c, 0, 73, 40
2, 34320, Note_on_c, 0, 66, 0
2, 34320, Note_on_c, 0, 65, 27
2, 34560, Note_on_c, 0, 65, 0
2, 34560, Note_on_c, 0, 73, 0
2, 34560, Note_on_c, 0, 70, 0
2, 34800, Note_on_c, 0, 73, 34
2, 34800, Note_on_c, 0, 63, 34
2, 34800, Note_on_c, 0, 66, 40
2, 35040, Note_on_c, 0, 73, 0
2, 35040, Note_on_c, 0, 71, 34
2, 35280, Note_on_c, 0, 71, 0
2, 35280, Note_on_c, 0, 66, 0
2, 35280, Note_on_c, 0, 63, 0
2, 35520, Note_on_c, 0, 71, 34
2, 35520, Note_on_c, 0, 61, 34
2, 35520, Note_on_c, 0, 67, 40
2, 35760, Note_on_c, 0, 71, 0
2, 35760, Note_on_c, 0, 70, 34
2, 36000, Note_on_c, 0, 70, 0
2, 36000, Note_on_c, 0, 67, 0
2, 36000, Note_on_c, 0, 61, 0
2, 36240, Note_on_c, 0, 70, 34
2, 36240, Note_on_c, 0, 60, 34
2, 36240, Note_on_c, 0, 63, 40
2, 36480, Note_on_c, 0, 70, 0
2, 36480, Note_on_c, 0, 69, 34
2, 36720, Note_on_c, 0, 69, 0
2, 36720, Note_on_c, 0, 63, 0
2, 36720, Note_on_c, 0, 60, 0
2, 36720, Note_on_c, 0, 62, 34
2, 36720, Note_on_c, 0, 70, 34
2, 37200, Note_on_c, 0, 70, 0
2, 37200, Note_on_c, 0, 62, 0
2, 38160, Note_on_c, 0, 74, 57
2, 38640, Note_on_c, 0, 74, 0
2, 38640, Note_on_c, 0, 72, 48
2, 38760, Note_on_c, 0, 72, 0
2, 38760, Note_on_c, 0, 70, 47
2, 38880, Note_on_c, 0, 70, 0
2, 38880, Note_on_c, 0, 60, 30
2, 38880, Note_on_c, 0, 63, 35
2, 38880, Note_on_c, 0, 70, 54
2, 39120, Note_on_c, 0, 70, 0
2, 39120, Note_on_c, 0, 69, 47
2, 39350, Note_on_c, 0, 63, 0
2, 39360, Note_on_c, 0, 69, 0
2, 39360, Note_on_c, 0, 60, 0
2, 39360, Note_on_c, 0, 58, 43
2, 39360, Note_on_c, 0, 63, 37
2, 39360, Note_on_c, 0, 67, 51
2, 39480, Note_on_c, 0, 67, 0
2, 39480, Note_on_c, 0, 58, 0
2, 39480, Note_on_c, 0, 57, 36
2, 39480, Note_on_c, 0, 65, 43
2, 39590, Note_on_c, 0, 65, 0
2, 39590, Note_on_c, 0, 57, 0
2, 39590, Note_on_c, 0, 63, 0
2, 39600, Note_on_c, 0, 57, 48
2, 39600, Note_on_c, 0, 63, 35
2, 39600, Note_on_c, 0, 65, 50
2, 40080, Note_on_c, 0, 57, 0
2, 40080, Note_on_c, 0, 55, 45
2, 40200, Note_on_c, 0, 55, 0
2, 40200, Note_on_c, 0, 53, 38
2, 40310, Note_on_c, 0, 53, 0
2, 40320, Note_on_c, 0, 53, 51
2, 40560, Note_on_c, 0, 65, 0
2, 40560, Note_on_c, 0, 67, 44
2, 40680, Note_on_c, 0, 53, 0
2, 40680, Note_on_c, 0, 51, 38
2, 40800, Note_on_c, 0, 51, 0
2, 40800, Note_on_c, 0, 67, 0
2, 40800, Note_on_c, 0, 50, 38
2, 40800, Note_on_c, 0, 69, 46
2, 40920, Note_on_c, 0, 50, 0
2, 40920, Note_on_c, 0, 51, 38
2, 41040, Note_on_c, 0, 51, 0
2, 41040, Note_on_c, 0, 69, 0
2, 41040, Note_on_c, 0, 63, 0
2, 41040, Note_on_c, 0, 70, 51
2, 41040, Note_on_c, 0, 50, 51
2, 41160, Note_on_c, 0, 70, 0
2, 41160, Note_on_c, 0, 72, 44
2, 41200, Note_on_c, 0, 72, 0
2, 41200, Note_on_c, 0, 70, 38
2, 41240, Note_on_c, 0, 70, 0
2, 41240, Note_on_c, 0, 69, 38
2, 41280, Note_on_c, 0, 69, 0
2, 41280, Note_on_c, 0, 70, 51
2, 41400, Note_on_c, 0, 70, 0
2, 41400, Note_on_c, 0, 72, 47
2, 41520, Note_on_c, 0, 72, 0
2, 41520, Note_on_c, 0, 50, 0
2, 41520, Note_on_c, 0, 74, 49
2, 41640, Note_on_c, 0, 74, 0
2, 41640, Note_on_c, 0, 75, 50
2, 41730, Note_on_c, 0, 75, 0
2, 41730, Note_on_c, 0, 74, 48
2, 41760, Note_on_c, 0, 74, 0
2, 41760, Note_on_c, 0, 77, 57
2, 42480, Note_on_c, 0, 77, 0
2, 42480, Note_on_c, 0, 76, 47
2, 42600, Note_on_c, 0, 76, 0
2, 42600, Note_on_c, 0, 77, 52
2, 42720, Note_on_c, 0, 77, 0
2, 42720, Note_on_c, 0, 79, 53
2, 42840, Note_on_c, 0, 79, 0
2, 42840, Note_on_c, 0, 77, 51
2, 42960, Note_on_c, 0, 77, 0
2, 42960, Note_on_c, 0, 75, 53
2, 43080, Note_on_c, 0, 75, 0
2, 43080, Note_on_c, 0, 74, 51
2, 43190, Note_on_c, 0, 74, 0
2, 43200, Note_on_c, 0, 63, 30
2, 43200, Note_on_c, 0, 67, 35
2, 43200, Note_on_c, 0, 74, 57
2, 43440, Note_on_c, 0, 74, 0
2, 43440, Note_on_c, 0, 72, 47
2, 43670, Note_on_c, 0, 67, 0
2, 43680, Note_on_c, 0, 72, 0
2, 43680, Note_on_c, 0, 63, 0
2, 43680, Note_on_c, 0, 62, 36
2, 43680, Note_on_c, 0, 70, 51
2, 43680, Note_on_c, 0, 65, 43
2, 43800, Note_on_c, 0, 65, 0
2, 43800, Note_on_c, 0, 70, 0
2, 43800, Note_on_c, 0, 62, 0
2, 43800, Note_on_c, 0, 60, 30
2, 43800, Note_on_c, 0, 69, 43
2, 43800, Note_on_c, 0, 63, 36
2, 43910, Note_on_c, 0, 63, 0
2, 43910, Note_on_c, 0, 69, 0
2, 43910, Note_on_c, 0, 60, 0
2, 43920, Note_on_c, 0, 60, 40
2, 43920, Note_on_c, 0, 69, 50
2, 43920, Note_on_c, 0, 63, 35
2, 44390, Note_on_c, 0, 63, 0
2, 44400, Note_on_c, 0, 69, 0
2, 44400, Note_on_c, 0, 60, 0
2, 44400, Note_on_c, 0, 63, 35
2, 44400, Note_on_c, 0, 58, 45
2, 44400, Note_on_c, 0, 67, 51
2, 44520, Note_on_c, 0, 67, 0
2, 44520, Note_on_c, 0, 58, 0
2, 44520, Note_on_c, 0, 65, 43
2, 44520, Note_on_c, 0, 57, 38
2, 44630, Note_on_c, 0, 57, 0
2, 44630, Note_on_c, 0, 63, 0
2, 44640, Note_on_c, 0, 65, 0
2, 44640, Note_on_c, 0, 63, 35
2, 44640, Note_on_c, 0, 65, 54
2, 44640, Note_on_c, 0, 57, 51
2, 44760, Note_on_c, 0, 57, 0
2, 44760, Note_on_c, 0, 55, 38
2, 44880, Note_on_c, 0, 55, 0
2, 44880, Note_on_c, 0, 65, 0
2, 44880, Note_on_c, 0, 53, 38
2, 44880, Note_on_c, 0, 67, 44
2, 45000, Note_on_c, 0, 53, 0
2, 45000, Note_on_c, 0, 51, 38
2, 45120, Note_on_c, 0, 51, 0
2, 45120, Note_on_c, 0, 67, 0
2, 45120, Note_on_c, 0, 50, 38
2, 45120, Note_on_c, 0, 69, 46
2, 45240, Note_on_c, 0, 50, 0
2, 45240, Note_on_c, 0, 48, 38
2, 45360, Note_on_c, 0, 48, 0
2, 45360, Note_on_c, 0, 69, 0
2, 45360, Note_on_c, 0, 63, 0
2, 45360, Note_on_c, 0, 62, 54
2, 45360, Note_on_c, 0, 70, 54
2, 45600, Note_on_c, 0, 70, 0
2, 45600, Note_on_c, 0, 62, 0
2, 45600, Note_on_c, 0, 73, 40
2, 45840, Note_on_c, 0, 73, 0
2, 45840, Note_on_c, 0, 74, 44
2, 46080, Note_on_c, 0, 74, 0
2, 46320, Note_on_c, 0, 76, 41
2, 46560, Note_on_c, 0, 76, 0
2, 46560, Note_on_c, 0, 77, 44
2, 46800, Note_on_c, 0, 77, 0
2, 47040, Note_on_c, 0, 81, 40
2, 47280, Note_on_c, 0, 81, 0
2, 47280, Note_on_c, 0, 82, 44
2, 47520, Note_on_c, 0, 82, 0
2, 47760, Note_on_c, 0, 78, 41
2, 48000, Note_on_c, 0, 78, 0
2, 48000, Note_on_c, 0, 79, 44
2, 48240, Note_on_c, 0, 79, 0
2, 48480, Note_on_c, 0, 74, 40
2, 48720, Note_on_c, 0, 74, 0
2, 48720, Note_on_c, 0, 75, 42
2, 48960, Note_on_c, 0, 75, 0
2, 49200, Note_on_c, 0, 71, 38
2, 49440, Note_on_c, 0, 71, 0
2, 49440, Note_on_c, 0, 72, 42
2, 49680, Note_on_c, 0, 72, 0
2, 49920, Note_on_c, 0, 77, 59
2, 50520, Note_on_c, 0, 77, 0
2, 50520, Note_on_c, 0, 79, 60
2, 50580, Note_on_c, 0, 79, 0
2, 50580, Note_on_c, 0, 81, 62
2, 50640, Note_on_c, 0, 81, 0
2, 50640, Note_on_c, 0, 82, 64
2, 50700, Note_on_c, 0, 82, 0
2, 50700, Note_on_c, 0, 84, 66
2, 50760, Note_on_c, 0, 84, 0
2, 50760, Note_on_c, 0, 86, 68
2, 50820, Note_on_c, 0, 86, 0
2, 50820, Note_on_c, 0, 87, 70
2, 50880, Note_on_c, 0, 87, 0
2, 50880, Note_on_c, 0, 89, 72
2, 51360, Note_on_c, 0, 89, 0
2, 51360, Note_on_c, 0, 87, 70
2, 51600, Note_on_c, 0, 87, 0
2, 51600, Note_on_c, 0, 84, 66
2, 51840, Note_on_c, 0, 84, 0
2, 51840, Note_on_c, 0, 82, 58
2, 52140, Note_on_c, 0, 82, 0
2, 52140, Note_on_c, 0, 81, 50
2, 52200, Note_on_c, 0, 81, 0
2, 52200, Note_on_c, 0, 86, 57
2, 52260, Note_on_c, 0, 84, 54
2, 52266, Note_on_c, 0, 86, 0
2, 52320, Note_on_c, 0, 82, 53
2, 52326, Note_on_c, 0, 84, 0
2, 52380, Note_on_c, 0, 81, 51
2, 52386, Note_on_c, 0, 82, 0
2, 52440, Note_on_c, 0, 79, 49
2, 52446, Note_on_c, 0, 81, 0
2, 52500, Note_on_c, 0, 77, 47
2, 52506, Note_on_c, 0, 79, 0
2, 52560, Note_on_c, 0, 76, 53
2, 52566, Note_on_c, 0, 77, 0
2, 52620, Note_on_c, 0, 77, 51
2, 52626, Note_on_c, 0, 76, 0
2, 52680, Note_on_c, 0, 82, 59
2, 52686, Note_on_c, 0, 77, 0
2, 52740, Note_on_c, 0, 81, 54
2, 52746, Note_on_c, 0, 82, 0
2, 52800, Note_on_c, 0, 79, 54
2, 52806, Note_on_c, 0, 81, 0
2, 52860, Note_on_c, 0, 77, 52
2, 52866, Note_on_c, 0, 79, 0
2, 52920, Note_on_c, 0, 75, 50
2, 52926, Note_on_c, 0, 77, 0
2, 52980, Note_on_c, 0, 74, 50
2, 52986, Note_on_c, 0, 75, 0
2, 53040, Note_on_c, 0, 73, 52
2, 53046, Note_on_c, 0, 74, 0
2, 53100, Note_on_c, 0, 74, 46
2, 53106, Note_on_c, 0, 73, 0
2, 53160, Note_on_c, 0, 79, 56
2, 53166, Note_on_c, 0, 74, 0
2, 53220, Note_on_c, 0, 77, 55
2, 53226, Note_on_c, 0, 79, 0
2, 53280, Note_on_c, 0, 75, 54
2, 53286, Note_on_c, 0, 77, 0
2, 53340, Note_on_c, 0, 74, 52
2, 53346, Note_on_c, 0, 75, 0
2, 53400, Note_on_c, 0, 72, 50
2, 53406, Note_on_c, 0, 74, 0
2, 53460, Note_on_c, 0, 70, 48
2, 53466, Note_on_c, 0, 72, 0
2, 53520, Note_on_c, 0, 69, 46
2, 53526, Note_on_c, 0, 70, 0
2, 53580, Note_on_c, 0, 70, 45
2, 53586, Note_on_c, 0, 69, 0
2, 53640, Note_on_c, 0, 75, 52
2, 53646, Note_on_c, 0, 70, 0
2, 53700, Note_on_c, 0, 74, 51
2, 53706, Note_on_c, 0, 75, 0
2, 53760, Note_on_c, 0, 72, 49
2, 53766, Note_on_c, 0, 74, 0
2, 53820, Note_on_c, 0, 70, 47
2, 53826, Note_on_c, 0, 72, 0
2, 53880, Note_on_c, 0, 69, 44
2, 53886, Note_on_c, 0, 70, 0
2, 53940, Note_on_c, 0, 67, 42
2, 53946, Note_on_c, 0, 69, 0
2, 54000, Note_on_c, 0, 64, 39
2, 54006, Note_on_c, 0, 67, 0
2, 54060, Note_on_c, 0, 64, 0
2, 54060, Note_on_c, 0, 65, 39
2, 54120, Note_on_c, 0, 65, 0
2, 54120, Note_on_c, 0, 66, 40
2, 54180, Note_on_c, 0, 66, 0
2, 54180, Note_on_c, 0, 67, 41
2, 54240, Note_on_c, 0, 67, 0
2, 54240, Note_on_c, 0, 68, 42
2, 54300, Note_on_c, 0, 68, 0
2, 54300, Note_on_c, 0, 69, 42
2, 54360, Note_on_c, 0, 69, 0
2, 54360, Note_on_c, 0, 70, 43
2, 54420, Note_on_c, 0, 70, 0
2, 54420, Note_on_c, 0, 71, 44
2, 54480, Note_on_c, 0, 71, 0
2, 54480, Note_on_c, 0, 72, 45
2, 54540, Note_on_c, 0, 72, 0
2, 54540, Note_on_c, 0, 73, 45
2, 54600, Note_on_c, 0, 73, 0
2, 54600, Note_on_c, 0, 74, 46
2, 54660, Note_on_c, 0, 74, 0
2, 54660, Note_on_c, 0, 75, 47
2, 54720, Note_on_c, 0, 75, 0
2, 54720, Note_on_c, 0, 76, 49
2, 54780, Note_on_c, 0, 76, 0
2, 54780, Note_on_c, 0, 77, 50
2, 54840, Note_on_c, 0, 77, 0
2, 54840, Note_on_c, 0, 78, 52
2, 54900, Note_on_c, 0, 78, 0
2, 54900, Note_on_c, 0, 79, 54
2, 54960, Note_on_c, 0, 79, 0
2, 54960, Note_on_c, 0, 80, 56
2, 55020, Note_on_c, 0, 80, 0
2, 55020, Note_on_c, 0, 81, 58
2, 55080, Note_on_c, 0, 81, 0
2, 55080, Note_on_c, 0, 82, 60
2, 55140, Note_on_c, 0, 82, 0
2, 55140, Note_on_c, 0, 83, 61
2, 55200, Note_on_c, 0, 83, 0
2, 55200, Note_on_c, 0, 84, 64
2, 55248, Note_on_c, 0, 84, 0
2, 55248, Note_on_c, 0, 85, 65
2, 55296, Note_on_c, 0, 85, 0
2, 55296, Note_on_c, 0, 86, 67
2, 55344, Note_on_c, 0, 86, 0
2, 55344, Note_on_c, 0, 87, 69
2, 55392, Note_on_c, 0, 87, 0
2, 55392, Note_on_c, 0, 88, 70
2, 55440, Note_on_c, 0, 88, 0
2, 55440, Note_on_c, 0, 89, 80
2, 55740, Note_on_c, 0, 89, 0
2, 55740, Note_on_c, 0, 87, 69
2, 55800, Note_on_c, 0, 87, 0
2, 55800, Note_on_c, 0, 84, 66
2, 55860, Note_on_c, 0, 84, 0
2, 55860, Note_on_c, 0, 81, 63
2, 55920, Note_on_c, 0, 81, 0
2, 55920, Note_on_c, 0, 77, 60
2, 55980, Note_on_c, 0, 77, 0
2, 55980, Note_on_c, 0, 75, 57
2, 56040, Note_on_c, 0, 75, 0
2, 56040, Note_on_c, 0, 72, 54
2, 56100, Note_on_c, 0, 72, 0
2, 56100, Note_on_c, 0, 69, 51
2, 56160, Note_on_c, 0, 69, 0
2, 56160, Note_on_c, 0, 70, 56
2, 56640, Note_on_c, 0, 70, 0
2, 57360, Note_on_c, 0, 70, 56
2, 57360, Note_on_c, 0, 73, 67
2, 57840, Note_on_c, 0, 73, 0
2, 57840, Note_on_c, 0, 74, 54
2, 58080, Note_on_c, 0, 74, 0
2, 58080, Note_on_c, 0, 70, 0
2, 58080, Note_on_c, 0, 69, 50
2, 58080, Note_on_c, 0, 75, 59
2, 58260, Note_on_c, 0, 75, 0
2, 58260, Note_on_c, 0, 72, 53
2, 58320, Note_on_c, 0, 72, 0
2, 58320, Note_on_c, 0, 69, 0
2, 58320, Note_on_c, 0, 62, 46
2, 58320, Note_on_c, 0, 70, 56
2, 58800, Note_on_c, 0, 70, 0
2, 58800, Note_on_c, 0, 62, 0
2, 59520, Note_on_c, 0, 61, 60
2, 59520, Note_on_c, 0, 58, 50
2, 60000, Note_on_c, 0, 61, 0
2, 60000, Note_on_c, 0, 62, 48
2, 60240, Note_on_c, 0, 62, 0
2, 60240, Note_on_c, 0, 58, 0
2, 60240, Note_on_c, 0, 63, 53
2, 60240, Note_on_c, 0, 57, 45
2, 60420, Note_on_c, 0, 63, 0
2, 60420, Note_on_c, 0, 60, 43
2, 60480, Note_on_c, 0, 60, 0
2, 60480, Note_on_c, 0, 57, 0
2, 60480, Note_on_c, 0, 58, 48
2, 60720, Note_on_c, 0, 58, 0
2, 60720, Note_on_c, 0, 57, 43
2, 60720, Note_on_c, 0, 63, 51
2, 61080, Note_on_c, 0, 63, 0
2, 61080, Note_on_c, 0, 60, 44
2, 61200, Note_on_c, 0, 60, 0
2, 61200, Note_on_c, 0, 57, 0
2, 61200, Note_on_c, 0, 58, 48
2, 61440, Note_on_c, 0, 58, 0
2, 61440, Note_on_c, 0, 57, 43
2, 61440, Note_on_c, 0, 63, 51
2, 61800, Note_on_c, 0, 63, 0
2, 61800, Note_on_c, 0, 60, 44
2, 61920, Note_on_c, 0, 60, 0
2, 61920, Note_on_c, 0, 57, 0
2, 61920, Note_on_c, 0, 58, 48
2, 62160, Note_on_c, 0, 58, 0
2, 62160, Note_on_c, 0, 63, 59
2, 62160, Note_on_c, 0, 57, 50
2, 62280, Note_on_c, 0, 63, 0
2, 62280, Note_on_c, 0, 62, 55
2, 62400, Note_on_c, 0, 62, 0
2, 62400, Note_on_c, 0, 57, 0
2, 62400, Note_on_c, 0, 63, 69
2, 62400, Note_on_c, 0, 57, 51
2, 62520, Note_on_c, 0, 63, 0
2, 62520, Note_on_c, 0, 60, 62
2, 62640, Note_on_c, 0, 60, 0
2, 62640, Note_on_c, 0, 57, 0
2, 62640, Note_on_c, 0, 59, 39
2, 62680, Note_on_c, 0, 59, 0
2, 62680, Note_on_c, 0, 60, 38
2, 62720, Note_on_c, 0, 60, 0
2, 62720, Note_on_c, 0, 62, 32
2, 62760, Note_on_c, 0, 62, 0
2, 62760, Note_on_c, 0, 60, 42
2, 62760, Note_on_c, 0, 57, 35
2, 63360, Note_on_c, 0, 57, 0
2, 63360, Note_on_c, 0, 60, 0
2, 63360, Note_on_c, 0, 58, 39
2, 63840, Note_on_c, 0, 58, 0
2, 66240, Note_on_c, 0, 59, 33
2, 66420, Note_on_c, 0, 59, 0
2, 66420, Note_on_c, 0, 60, 28
2, 66480, Note_on_c, 0, 60, 0
2, 66480, Note_on_c, 0, 59, 34
2, 66600, Note_on_c, 0, 59, 0
2, 66600, Note_on_c, 0, 57, 29
2, 66720, Note_on_c, 0, 57, 0
2, 66720, Note_on_c, 0, 59, 38
2, 66840, Note_on_c, 0, 59, 0
2, 66840, Note_on_c, 0, 60, 37
2, 66960, Note_on_c, 0, 60, 0
2, 66960, Note_on_c, 0, 53, 25
2, 66960, Note_on_c, 0, 61, 34
2, 66960, Note_on_c, 0, 56, 25
2, 66960, Note_on_c, 0, 59, 25
2, 67680, Note_on_c, 0, 61, 0
2, 67680, Note_on_c, 0, 62, 34
2, 68160, Note_on_c, 0, 62, 0
2, 68160, Note_on_c, 0, 59, 0
2, 68160, Note_on_c, 0, 56, 0
2, 68160, Note_on_c, 0, 53, 0
2, 68580, Note_on_c, 0, 63, 28
2, 68640, Note_on_c, 0, 63, 0
2, 68640, Note_on_c, 0, 62, 38
2, 68760, Note_on_c, 0, 62, 0
2, 68760, Note_on_c, 0, 61, 33
2, 68880, Note_on_c, 0, 61, 0
2, 68880, Note_on_c, 0, 62, 39
2, 69000, Note_on_c, 0, 62, 0
2, 69000, Note_on_c, 0, 63, 41
2, 69120, Note_on_c, 0, 63, 0
2, 69120, Note_on_c, 0, 62, 25
2, 69120, Note_on_c, 0, 64, 34
2, 69120, Note_on_c, 0, 56, 25
2, 69120, Note_on_c, 0, 59, 25
2, 69840, Note_on_c, 0, 64, 0
2, 69840, Note_on_c, 0, 65, 34
2, 70320, Note_on_c, 0, 65, 0
2, 70320, Note_on_c, 0, 59, 0
2, 70320, Note_on_c, 0, 56, 0
2, 70320, Note_on_c, 0, 62, 0
2, 70740, Note_on_c, 0, 72, 45
2, 70740, Note_on_c, 0, 60, 38
2, 70800, Note_on_c, 0, 60, 0
2, 70800, Note_on_c, 0, 72, 0
2, 70800, Note_on_c, 0, 59, 44
2, 70800, Note_on_c, 0, 71, 52
2, 70920, Note_on_c, 0, 71, 0
2, 70920, Note_on_c, 0, 59, 0
2, 70920, Note_on_c, 0, 57, 43
2, 70920, Note_on_c, 0, 69, 51
2, 71040, Note_on_c, 0, 69, 0
2, 71040, Note_on_c, 0, 57, 0
2, 71040, Note_on_c, 0, 59, 50
2, 71040, Note_on_c, 0, 71, 59
2, 71160, Note_on_c, 0, 71, 0
2, 71160, Note_on_c, 0, 59, 0
2, 71160, Note_on_c, 0, 72, 61
2, 71160, Note_on_c, 0, 60, 51
2, 71280, Note_on_c, 0, 60, 0
2, 71280, Note_on_c, 0, 72, 0
2, 71280, Note_on_c, 0, 73, 70
2, 71280, Note_on_c, 0, 61, 59
2, 72000, Note_on_c, 0, 61, 0
2, 72000, Note_on_c, 0, 73, 0
2, 72000, Note_on_c, 0, 62, 41
2, 72000, Note_on_c, 0, 74, 49
2, 72180, Note_on_c, 0, 74, 0
2, 72180, Note_on_c, 0, 62, 0
2, 72180, Note_on_c, 0, 75, 52
2, 72240, Note_on_c, 0, 75, 0
2, 72240, Note_on_c, 0, 74, 57
2, 72360, Note_on_c, 0, 74, 0
2, 72360, Note_on_c, 0, 73, 52
2, 72480, Note_on_c, 0, 73, 0
2, 72480, Note_on_c, 0, 74, 52
2, 72600, Note_on_c, 0, 74, 0
2, 72600, Note_on_c, 0, 75, 52
2, 72720, Note_on_c, 0, 75, 0
2, 72720, Note_on_c, 0, 77, 58
2, 72840, Note_on_c, 0, 77, 0
2, 72840, Note_on_c, 0, 79, 55
2, 72960, Note_on_c, 0, 79, 0
2, 72960, Note_on_c, 0, 80, 62
2, 73080, Note_on_c, 0, 80, 0
2, 73080, Note_on_c, 0, 79, 55
2, 73200, Note_on_c, 0, 79, 0
2, 73200, Note_on_c, 0, 80, 66
2, 73320, Note_on_c, 0, 80, 0
2, 73320, Note_on_c, 0, 77, 60
2, 73440, Note_on_c, 0, 77, 0
2, 73440, Note_on_c, 0, 77, 70
2, 74160, Note_on_c, 0, 77, 0
2, 74160, Note_on_c, 0, 67, 41
2, 74160, Note_on_c, 0, 76, 49
2, 74340, Note_on_c, 0, 76, 0
2, 74340, Note_on_c, 0, 67, 0
2, 74340, Note_on_c, 0, 68, 48
2, 74400, Note_on_c, 0, 68, 0
2, 74400, Note_on_c, 0, 67, 52
2, 74520, Note_on_c, 0, 67, 0
2, 74520, Note_on_c, 0, 66, 48
2, 74640, Note_on_c, 0, 66, 0
2, 74640, Note_on_c, 0, 67, 48
2, 74760, Note_on_c, 0, 67, 0
2, 74760, Note_on_c, 0, 69, 48
2, 74880, Note_on_c, 0, 69, 0
2, 74880, Note_on_c, 0, 70, 55
2, 75000, Note_on_c, 0, 70, 0
2, 75000, Note_on_c, 0, 72, 50
2, 75120, Note_on_c, 0, 72, 0
2, 75120, Note_on_c, 0, 73, 64
2, 75240, Note_on_c, 0, 73, 0
2, 75240, Note_on_c, 0, 72, 60
2, 75360, Note_on_c, 0, 72, 0
2, 75360, Note_on_c, 0, 73, 68
2, 75480, Note_on_c, 0, 73, 0
2, 75480, Note_on_c, 0, 70, 64
2, 75600, Note_on_c, 0, 70, 0
2, 75600, Note_on_c, 0, 70, 70
2, 76320, Note_on_c, 0, 70, 0
2, 76320, Note_on_c, 0, 72, 49
2, 76320, Note_on_c, 0, 69, 41
2, 76500, Note_on_c, 0, 69, 0
2, 76500, Note_on_c, 0, 72, 0
2, 76500, Note_on_c, 0, 73, 48
2, 76560, Note_on_c, 0, 73, 0
2, 76560, Note_on_c, 0, 72, 52
2, 76680, Note_on_c, 0, 72, 0
2, 76680, Note_on_c, 0, 71, 48
2, 76800, Note_on_c, 0, 71, 0
2, 76800, Note_on_c, 0, 72, 48
2, 76920, Note_on_c, 0, 72, 0
2, 76920, Note_on_c, 0, 74, 48
2, 77040, Note_on_c, 0, 74, 0
2, 77040, Note_on_c, 0, 75, 60
2, 77160, Note_on_c, 0, 75, 0
2, 77160, Note_on_c, 0, 77, 56
2, 77280, Note_on_c, 0, 77, 0
2, 77280, Note_on_c, 0, 78, 64
2, 77400, Note_on_c, 0, 78, 0
2, 77400, Note_on_c, 0, 77, 58
2, 77520, Note_on_c, 0, 77, 0
2, 77520, Note_on_c, 0, 78, 67
2, 77640, Note_on_c, 0, 78, 0
2, 77640, Note_on_c, 0, 75, 64
2, 77760, Note_on_c, 0, 75, 0
2, 77760, Note_on_c, 0, 75, 70
2, 78480, Note_on_c, 0, 75, 0
2, 78480, Note_on_c, 0, 65, 41
2, 78480, Note_on_c, 0, 74, 49
2, 78660, Note_on_c, 0, 74, 0
2, 78660, Note_on_c, 0, 65, 0
2, 78660, Note_on_c, 0, 66, 48
2, 78720, Note_on_c, 0, 66, 0
2, 78720, Note_on_c, 0, 65, 52
2, 78840, Note_on_c, 0, 65, 0
2, 78840, Note_on_c, 0, 64, 48
2, 78960, Note_on_c, 0, 64, 0
2, 78960, Note_on_c, 0, 65, 48
2, 79080, Note_on_c, 0, 65, 0
2, 79080, Note_on_c, 0, 67, 48
2, 79200, Note_on_c, 0, 67, 0
2, 79200, Note_on_c, 0, 68, 60
2, 79320, Note_on_c, 0, 68, 0
2, 79320, Note_on_c, 0, 70, 54
2, 79440, Note_on_c, 0, 70, 0
2, 79440, Note_on_c, 0, 71, 64
2, 79560, Note_on_c, 0, 71, 0
2, 79560, Note_on_c, 0, 70, 56
2, 79680, Note_on_c, 0, 70, 0
2, 79680, Note_on_c, 0, 71, 67
2, 79800, Note_on_c, 0, 71, 0
2, 79800, Note_on_c, 0, 68, 59
2, 79920, Note_on_c, 0, 68, 0
2, 79920, Note_on_c, 0, 68, 70
2, 80640, Note_on_c, 0, 68, 0
2, 80640, Note_on_c, 0, 67, 41
2, 80640, Note_on_c, 0, 70, 49
2, 80820, Note_on_c, 0, 70, 0
2, 80820, Note_on_c, 0, 71, 48
2, 80880, Note_on_c, 0, 71, 0
2, 80880, Note_on_c, 0, 70, 53
2, 81000, Note_on_c, 0, 70, 0
2, 81000, Note_on_c, 0, 69, 49
2, 81120, Note_on_c, 0, 69, 0
2, 81120, Note_on_c, 0, 70, 50
2, 81240, Note_on_c, 0, 70, 0
2, 81240, Note_on_c, 0, 71, 50
2, 81360, Note_on_c, 0, 71, 0
2, 81360, Note_on_c, 0, 73, 64
2, 81480, Note_on_c, 0, 73, 0
2, 81480, Note_on_c, 0, 75, 60
2, 81590, Note_on_c, 0, 67, 0
2, 81600, Note_on_c, 0, 75, 0
2, 81600, Note_on_c, 0, 76, 70
2, 81600, Note_on_c, 0, 67, 45
2, 81720, Note_on_c, 0, 76, 0
2, 81720, Note_on_c, 0, 75, 64
2, 81816, Note_on_c, 0, 67, 0
2, 81840, Note_on_c, 0, 75, 0
2, 81840, Note_on_c, 0, 67, 45
2, 81840, Note_on_c, 0, 76, 75
2, 81960, Note_on_c, 0, 76, 0
2, 81960, Note_on_c, 0, 73, 69
2, 82080, Note_on_c, 0, 73, 0
2, 82080, Note_on_c, 0, 67, 0
2, 82080, Note_on_c, 0, 68, 49
2, 82080, Note_on_c, 0, 71, 49
2, 82200, Note_on_c, 0, 71, 0
2, 82200, Note_on_c, 0, 73, 46
2, 82320, Note_on_c, 0, 73, 0
2, 82320, Note_on_c, 0, 75, 52
2, 82440, Note_on_c, 0, 75, 0
2, 82440, Note_on_c, 0, 73, 45
2, 82560, Note_on_c, 0, 73, 0
2, 82560, Note_on_c, 0, 68, 0
2, 82560, Note_on_c, 0, 75, 51
2, 82680, Note_on_c, 0, 75, 0
2, 82680, Note_on_c, 0, 71, 48
2, 82800, Note_on_c, 0, 71, 0
2, 82800, Note_on_c, 0, 70, 49
2, 82920, Note_on_c, 0, 70, 0
2, 82920, Note_on_c, 0, 71, 44
2, 83040, Note_on_c, 0, 71, 0
2, 83040, Note_on_c, 0, 73, 52
2, 83160, Note_on_c, 0, 73, 0
2, 83160, Note_on_c, 0, 71, 46
2, 83280, Note_on_c, 0, 71, 0
2, 83280, Note_on_c, 0, 73, 49
2, 83400, Note_on_c, 0, 73, 0
2, 83400, Note_on_c, 0, 70, 42
2, 83520, Note_on_c, 0, 70, 0
2, 83520, Note_on_c, 0, 68, 49
2, 83640, Note_on_c, 0, 68, 0
2, 83640, Note_on_c, 0, 70, 45
2, 83760, Note_on_c, 0, 70, 0
2, 83760, Note_on_c, 0, 71, 49
2, 83760, Note_on_c, 0, 75, 60
2, 83880, Note_on_c, 0, 71, 0
2, 83880, Note_on_c, 0, 70, 45
2, 83990, Note_on_c, 0, 75, 0
2, 84000, Note_on_c, 0, 70, 0
2, 84000, Note_on_c, 0, 71, 49
2, 84000, Note_on_c, 0, 75, 60
2, 84120, Note_on_c, 0, 71, 0
2, 84120, Note_on_c, 0, 68, 45
2, 84240, Note_on_c, 0, 68, 0
2, 84240, Note_on_c, 0, 75, 0
2, 84240, Note_on_c, 0, 76, 65
2, 84240, Note_on_c, 0, 67, 44
2, 84360, Note_on_c, 0, 67, 0
2, 84360, Note_on_c, 0, 68, 41
2, 84480, Note_on_c, 0, 68, 0
2, 84480, Note_on_c, 0, 70, 46
2, 84600, Note_on_c, 0, 70, 0
2, 84600, Note_on_c, 0, 68, 40
2, 84720, Note_on_c, 0, 68, 0
2, 84720, Note_on_c, 0, 76, 0
2, 84720, Note_on_c, 0, 70, 45
2, 84720, Note_on_c, 0, 75, 60
2, 84840, Note_on_c, 0, 70, 0
2, 84840, Note_on_c, 0, 67, 43
2, 84960, Note_on_c, 0, 67, 0
2, 84960, Note_on_c, 0, 75, 0
2, 84960, Note_on_c, 0, 68, 44
2, 85080, Note_on_c, 0, 68, 0
2, 85080, Note_on_c, 0, 70, 39
2, 85200, Note_on_c, 0, 70, 0
2, 85200, Note_on_c, 0, 71, 46
2, 85320, Note_on_c, 0, 71, 0
2, 85320, Note_on_c, 0, 70, 41
2, 85440, Note_on_c, 0, 70, 0
2, 85440, Note_on_c, 0, 71, 44
2, 85560, Note_on_c, 0, 71, 0
2, 85560, Note_on_c, 0, 68, 37
2, 85680, Note_on_c, 0, 68, 0
2, 85680, Note_on_c, 0, 65, 44
2, 85800, Note_on_c, 0, 65, 0
2, 85800, Note_on_c, 0, 66, 40
2, 85920, Note_on_c, 0, 66, 0
2, 85920, Note_on_c, 0, 74, 60
2, 85920, Note_on_c, 0, 68, 44
2, 86040, Note_on_c, 0, 68, 0
2, 86040, Note_on_c, 0, 66, 40
2, 86150, Note_on_c, 0, 74, 0
2, 86160, Note_on_c, 0, 66, 0
2, 86160, Note_on_c, 0, 74, 60
2, 86160, Note_on_c, 0, 68, 44
2, 86280, Note_on_c, 0, 68, 0
2, 86280, Note_on_c, 0, 65, 40
2, 86400, Note_on_c, 0, 65, 0
2, 86400, Note_on_c, 0, 74, 0
2, 86400, Note_on_c, 0, 75, 65
2, 86400, Note_on_c, 0, 63, 44
2, 86520, Note_on_c, 0, 63, 0
2, 86520, Note_on_c, 0, 65, 41
2, 86640, Note_on_c, 0, 65, 0
2, 86640, Note_on_c, 0, 66, 46
2, 86760, Note_on_c, 0, 66, 0
2, 86760, Note_on_c, 0, 65, 40
2, 86880, Note_on_c, 0, 65, 0
2, 86880, Note_on_c, 0, 75, 0
2, 86880, Note_on_c, 0, 70, 60
2, 86880, Note_on_c, 0, 66, 45
2, 87000, Note_on_c, 0, 66, 0
2, 87000, Note_on_c, 0, 63, 43
2, 87120, Note_on_c, 0, 63, 0
2, 87120, Note_on_c, 0, 70, 0
2, 87120, Note_on_c, 0, 62, 44
2, 87240, Note_on_c, 0, 62, 0
2, 87240, Note_on_c, 0, 63, 39
2, 87360, Note_on_c, 0, 63, 0
2, 87360, Note_on_c, 0, 65, 46
2, 87480, Note_on_c, 0, 65, 0
2, 87480, Note_on_c, 0, 63, 41
2, 87600, Note_on_c, 0, 63, 0
2, 87600, Note_on_c, 0, 65, 44
2, 87720, Note_on_c, 0, 65, 0
2, 87720, Note_on_c, 0, 62, 37
2, 87840, Note_on_c, 0, 62, 0
2, 87840, Note_on_c, 0, 63, 44
2, 87960, Note_on_c, 0, 63, 0
2, 87960, Note_on_c, 0, 65, 40
2, 88080, Note_on_c, 0, 65, 0
2, 88080, Note_on_c, 0, 66, 44
2, 88080, Note_on_c, 0, 70, 60
2, 88200, Note_on_c, 0, 66, 0
2, 88200, Note_on_c, 0, 65, 40
2, 88310, Note_on_c, 0, 70, 0
2, 88320, Note_on_c, 0, 65, 0
2, 88320, Note_on_c, 0, 70, 60
2, 88320, Note_on_c, 0, 66, 44
2, 88440, Note_on_c, 0, 66, 0
2, 88440, Note_on_c, 0, 63, 40
2, 88560, Note_on_c, 0, 63, 0
2, 88560, Note_on_c, 0, 70, 0
2, 88560, Note_on_c, 0, 71, 65
2, 88560, Note_on_c, 0, 65, 44
2, 88680, Note_on_c, 0, 65, 0
2, 88680, Note_on_c, 0, 66, 41
2, 88800, Note_on_c, 0, 66, 0
2, 88800, Note_on_c, 0, 68, 46
2, 88920, Note_on_c, 0, 68, 0
2, 88920, Note_on_c, 0, 66, 40
2, 89040, Note_on_c, 0, 66, 0
2, 89040, Note_on_c, 0, 71, 0
2, 89040, Note_on_c, 0, 70, 60
2, 89040, Note_on_c, 0, 68, 45
2, 89160, Note_on_c, 0, 68, 0
2, 89160, Note_on_c, 0, 65, 43
2, 89280, Note_on_c, 0, 65, 0
2, 89280, Note_on_c, 0, 70, 0
2, 89280, Note_on_c, 0, 66, 44
2, 89400, Note_on_c, 0, 66, 0
2, 89400, Note_on_c, 0, 68, 39
2, 89520, Note_on_c, 0, 68, 0
2, 89520, Note_on_c, 0, 70, 46
2, 89640, Note_on_c, 0, 70, 0
2, 89640, Note_on_c, 0, 68, 41
2, 89760, Note_on_c, 0, 68, 0
2, 89760, Note_on_c, 0, 70, 44
2, 89880, Note_on_c, 0, 70, 0
2, 89880, Note_on_c, 0, 66, 37
2, 90000, Note_on_c, 0, 66, 0
2, 90000, Note_on_c, 0, 63, 44
2, 90120, Note_on_c, 0, 63, 0
2, 90120, Note_on_c, 0, 65, 40
2, 90240, Note_on_c, 0, 65, 0
2, 90240, Note_on_c, 0, 66, 44
2, 90240, Note_on_c, 0, 69, 60
2, 90360, Note_on_c, 0, 66, 0
2, 90360, Note_on_c, 0, 65, 40
2, 90470, Note_on_c, 0, 69, 0
2, 90480, Note_on_c, 0, 65, 0
2, 90480, Note_on_c, 0, 66, 44
2, 90480, Note_on_c, 0, 69, 60
2, 90600, Note_on_c, 0, 66, 0
2, 90600, Note_on_c, 0, 63, 40
2, 90720, Note_on_c, 0, 63, 0
2, 90720, Note_on_c, 0, 69, 0
2, 90720, Note_on_c, 0, 70, 65
2, 90720, Note_on_c, 0, 62, 44
2, 90840, Note_on_c, 0, 62, 0
2, 90840, Note_on_c, 0, 63, 41
2, 90960, Note_on_c, 0, 63, 0
2, 90960, Note_on_c, 0, 65, 46
2, 91080, Note_on_c, 0, 65, 0
2, 91080, Note_on_c, 0, 63, 40
2, 91200, Note_on_c, 0, 63, 0
2, 91200, Note_on_c, 0, 62, 45
2, 91320, Note_on_c, 0, 62, 0
2, 91320, Note_on_c, 0, 63, 43
2, 91440, Note_on_c, 0, 63, 0
2, 91440, Note_on_c, 0, 65, 44
2, 91560, Note_on_c, 0, 65, 0
2, 91560, Note_on_c, 0, 66, 39
2, 91680, Note_on_c, 0, 66, 0
2, 91680, Note_on_c, 0, 68, 46
2, 91800, Note_on_c, 0, 68, 0
2, 91800, Note_on_c, 0, 66, 41
2, 91920, Note_on_c, 0, 66, 0
2, 91920, Note_on_c, 0, 65, 44
2, 92040, Note_on_c, 0, 65, 0
2, 92040, Note_on_c, 0, 68, 37
2, 92160, Note_on_c, 0, 68, 0
2, 92160, Note_on_c, 0, 66, 44
2, 92280, Note_on_c, 0, 66, 0
2, 92280, Note_on_c, 0, 65, 40
2, 92400, Note_on_c, 0, 65, 0
2, 92400, Note_on_c, 0, 70, 0
2, 92400, Note_on_c, 0, 69, 60
2, 92400, Note_on_c, 0, 63, 44
2, 92520, Note_on_c, 0, 63, 0
2, 92520, Note_on_c, 0, 65, 40
2, 92630, Note_on_c, 0, 69, 0
2, 92640, Note_on_c, 0, 65, 0
2, 92640, Note_on_c, 0, 69, 60
2, 92640, Note_on_c, 0, 66, 44
2, 92760, Note_on_c, 0, 66, 0
2, 92760, Note_on_c, 0, 63, 40
2, 92880, Note_on_c, 0, 63, 0
2, 92880, Note_on_c, 0, 69, 0
2, 92880, Note_on_c, 0, 58, 44
2, 92880, Note_on_c, 0, 70, 65
2, 93000, Note_on_c, 0, 58, 0
2, 93000, Note_on_c, 0, 60, 41
2, 93120, Note_on_c, 0, 60, 0
2, 93120, Note_on_c, 0, 62, 46
2, 93240, Note_on_c, 0, 62, 0
2, 93240, Note_on_c, 0, 60, 40
2, 93360, Note_on_c, 0, 60, 0
2, 93360, Note_on_c, 0, 58, 45
2, 93480, Note_on_c, 0, 58, 0
2, 93480, Note_on_c, 0, 60, 43
2, 93600, Note_on_c, 0, 60, 0
2, 93600, Note_on_c, 0, 62, 44
2, 93720, Note_on_c, 0, 62, 0
2, 93720, Note_on_c, 0, 63, 39
2, 93840, Note_on_c, 0, 63, 0
2, 93840, Note_on_c, 0, 65, 46
2, 93960, Note_on_c, 0, 65, 0
2, 93960, Note_on_c, 0, 63, 41
2, 94080, Note_on_c, 0, 63, 0
2, 94080, Note_on_c, 0, 62, 44
2, 94200, Note_on_c, 0, 62, 0
2, 94200, Note_on_c, 0, 65, 37
2, 94320, Note_on_c, 0, 65, 0
2, 94320, Note_on_c, 0, 63, 44
2, 94440, Note_on_c, 0, 63, 0
2, 94440, Note_on_c, 0, 62, 40
2, 94560, Note_on_c, 0, 62, 0
2, 94560, Note_on_c, 0, 70, 0
2, 94560, Note_on_c, 0, 69, 60
2, 94560, Note_on_c, 0, 60, 44
2, 94680, Note_on_c, 0, 60, 0
2, 94680, Note_on_c, 0, 62, 40
2, 94790, Note_on_c, 0, 69, 0
2, 94800, Note_on_c, 0, 62, 0
2, 94800, Note_on_c, 0, 63, 44
2, 94800, Note_on_c, 0, 69, 60
2, 94920, Note_on_c, 0, 63, 0
2, 94920, Note_on_c, 0, 60, 40
2, 95040, Note_on_c, 0, 60, 0
2, 95040, Note_on_c, 0, 69, 0
2, 95040, Note_on_c, 0, 58, 44
2, 95160, Note_on_c, 0, 58, 0
2, 95160, Note_on_c, 0, 60, 37
2, 95280, Note_on_c, 0, 60, 0
2, 95280, Note_on_c, 0, 62, 44
2, 95400, Note_on_c, 0, 62, 0
2, 95400, Note_on_c, 0, 61, 38
2, 95520, Note_on_c, 0, 61, 0
2, 95520, Note_on_c, 0, 62, 41
2, 95640, Note_on_c, 0, 62, 0
2, 95640, Note_on_c, 0, 58, 34
2, 95760, Note_on_c, 0, 58, 0
2, 95760, Note_on_c, 0, 62, 44
2, 95880, Note_on_c, 0, 64, 39
2, 95892, Note_on_c, 0, 62, 0
2, 96000, Note_on_c, 0, 65, 40
2, 96012, Note_on_c, 0, 64, 0
2, 96120, Note_on_c, 0, 64, 33
2, 96132, Note_on_c, 0, 65, 0
2, 96240, Note_on_c, 0, 65, 39
2, 96252, Note_on_c, 0, 64, 0
2, 96360, Note_on_c, 0, 62, 34
2, 96372, Note_on_c, 0, 65, 0
2, 96480, Note_on_c, 0, 65, 47
2, 96492, Note_on_c, 0, 62, 0
2, 96600, Note_on_c, 0, 67, 43
2, 96612, Note_on_c, 0, 65, 0
2, 96720, Note_on_c, 0, 68, 50
2, 96732, Note_on_c, 0, 67, 0
2, 96840, Note_on_c, 0, 67, 42
2, 96852, Note_on_c, 0, 68, 0
2, 96960, Note_on_c, 0, 68, 53
2, 96972, Note_on_c, 0, 67, 0
2, 97080, Note_on_c, 0, 65, 37
2, 97092, Note_on_c, 0, 68, 0
2, 97200, Note_on_c, 0, 68, 41
2, 97212, Note_on_c, 0, 65, 0
2, 97320, Note_on_c, 0, 71, 36
2, 97332, Note_on_c, 0, 68, 0
2, 97440, Note_on_c, 0, 72, 41
2, 97452, Note_on_c, 0, 71, 0
2, 97560, Note_on_c, 0, 71, 37
2, 97572, Note_on_c, 0, 72, 0
2, 97680, Note_on_c, 0, 74, 41
2, 97692, Note_on_c, 0, 71, 0
2, 97800, Note_on_c, 0, 72, 36
2, 97812, Note_on_c, 0, 74, 0
2, 97920, Note_on_c, 0, 70, 41
2, 97932, Note_on_c, 0, 72, 0
2, 98040, Note_on_c, 0, 68, 36
2, 98052, Note_on_c, 0, 70, 0
2, 98160, Note_on_c, 0, 67, 41
2, 98172, Note_on_c, 0, 68, 0
2, 98280, Note_on_c, 0, 65, 35
2, 98292, Note_on_c, 0, 67, 0
2, 98400, Note_on_c, 0, 64, 35
2, 98412, Note_on_c, 0, 65, 0
2, 98520, Note_on_c, 0, 65, 29
2, 98532, Note_on_c, 0, 64, 0
2, 98640, Note_on_c, 0, 67, 41
2, 98652, Note_on_c, 0, 65, 0
2, 98760, Note_on_c, 0, 65, 36
2, 98772, Note_on_c, 0, 67, 0
2, 98880, Note_on_c, 0, 68, 41
2, 98892, Note_on_c, 0, 65, 0
2, 99000, Note_on_c, 0, 65, 32
2, 99012, Note_on_c, 0, 68, 0
2, 99120, Note_on_c, 0, 60, 38
2, 99132, Note_on_c, 0, 65, 0
2, 99240, Note_on_c, 0, 62, 32
2, 99252, Note_on_c, 0, 60, 0
2, 99360, Note_on_c, 0, 62, 0
2, 99360, Note_on_c, 0, 63, 38
2, 99840, Note_on_c, 0, 63, 0
2, 100800, Note_on_c, 0, 67, 38
2, 100980, Note_on_c, 0, 67, 0
2, 100980, Note_on_c, 0, 68, 36
2, 101040, Note_on_c, 0, 68, 0
2, 101040, Note_on_c, 0, 67, 39
2, 101160, Note_on_c, 0, 67, 0
2, 101160, Note_on_c, 0, 65, 36
2, 101280, Note_on_c, 0, 65, 0
2, 101280, Note_on_c, 0, 67, 40
2, 101400, Note_on_c, 0, 67, 0
2, 101400, Note_on_c, 0, 68, 36
2, 101520, Note_on_c, 0, 68, 0
2, 101520, Note_on_c, 0, 69, 44
2, 102240, Note_on_c, 0, 69, 0
2, 102240, Note_on_c, 0, 70, 51
2, 103140, Note_on_c, 0, 70, 0
2, 103140, Note_on_c, 0, 72, 39
2, 103200, Note_on_c, 0, 72, 0
2, 103200, Note_on_c, 0, 70, 49
2, 103320, Note_on_c, 0, 70, 0
2, 103320, Note_on_c, 0, 69, 42
2, 103440, Note_on_c, 0, 69, 0
2, 103440, Note_on_c, 0, 70, 51
2, 103560, Note_on_c, 0, 70, 0
2, 103560, Note_on_c, 0, 71, 46
2, 103680, Note_on_c, 0, 71, 0
2, 103680, Note_on_c, 0, 71, 50
2, 104040, Note_on_c, 0, 72, 39
2, 104070, Note_on_c, 0, 72, 0
2, 104070, Note_on_c, 0, 71, 33
2, 104100, Note_on_c, 0, 71, 0
2, 104100, Note_on_c, 0, 71, 0
2, 104100, Note_on_c, 0, 69, 41
2, 104130, Note_on_c, 0, 69, 0
2, 104130, Note_on_c, 0, 71, 37
2, 104160, Note_on_c, 0, 71, 0
2, 104160, Note_on_c, 0, 74, 53
2, 104340, Note_on_c, 0, 74, 0
2, 104340, Note_on_c, 0, 72, 44
2, 104400, Note_on_c, 0, 72, 0
2, 104400, Note_on_c, 0, 65, 55
2, 105300, Note_on_c, 0, 65, 0
2, 105300, Note_on_c, 0, 67, 39
2, 105360, Note_on_c, 0, 67, 0
2, 105360, Note_on_c, 0, 65, 46
2, 105480, Note_on_c, 0, 65, 0
2, 105480, Note_on_c, 0, 64, 42
2, 105600, Note_on_c, 0, 64, 0
2, 105600, Note_on_c, 0, 65, 49
2, 105720, Note_on_c, 0, 65, 0
2, 105720, Note_on_c, 0, 67, 46
2, 105840, Note_on_c, 0, 67, 0
2, 105840, Note_on_c, 0, 68, 55
2, 106620, Note_on_c, 0, 68, 0
2, 106620, Note_on_c, 0, 67, 47
2, 106680, Note_on_c, 0, 67, 0
2, 106680, Note_on_c, 0, 65, 48
2, 106740, Note_on_c, 0, 65, 0
2, 106740, Note_on_c, 0, 64, 48
2, 106800, Note_on_c, 0, 64, 0
2, 106800, Note_on_c, 0, 65, 49
2, 106860, Note_on_c, 0, 65, 0
2, 106860, Note_on_c, 0, 67, 50
2, 106920, Note_on_c, 0, 67, 0
2, 106920, Note_on_c, 0, 68, 50
2, 106980, Note_on_c, 0, 68, 0
2, 106980, Note_on_c, 0, 70, 51
2, 107040, Note_on_c, 0, 70, 0
2, 107040, Note_on_c, 0, 72, 52
2, 107100, Note_on_c, 0, 72, 0
2, 107100, Note_on_c, 0, 74, 51
2, 107160, Note_on_c, 0, 74, 0
2, 107160, Note_on_c, 0, 75, 53
2, 107220, Note_on_c, 0, 75, 0
2, 107220, Note_on_c, 0, 76, 54
2, 107280, Note_on_c, 0, 76, 0
2, 107280, Note_on_c, 0, 77, 56
2, 107340, Note_on_c, 0, 77, 0
2, 107340, Note_on_c, 0, 79, 57
2, 107400, Note_on_c, 0, 79, 0
2, 107400, Note_on_c, 0, 80, 59
2, 107460, Note_on_c, 0, 80, 0
2, 107460, Note_on_c, 0, 82, 60
2, 107520, Note_on_c, 0, 82, 0
2, 107520, Note_on_c, 0, 84, 63
2, 107580, Note_on_c, 0, 84, 0
2, 107580, Note_on_c, 0, 83, 59
2, 107640, Note_on_c, 0, 83, 0
2, 107640, Note_on_c, 0, 86, 63
2, 107700, Note_on_c, 0, 86, 0
2, 107700, Note_on_c, 0, 84, 61
2, 107760, Note_on_c, 0, 84, 0
2, 107760, Note_on_c, 0, 82, 60
2, 107820, Note_on_c, 0, 82, 0
2, 107820, Note_on_c, 0, 80, 58
2, 107880, Note_on_c, 0, 80, 0
2, 107880, Note_on_c, 0, 79, 56
2, 107940, Note_on_c, 0, 79, 0
2, 107940, Note_on_c, 0, 77, 53
2, 108000, Note_on_c, 0, 77, 0
2, 108000, Note_on_c, 0, 78, 58
2, 108720, Note_on_c, 0, 78, 0
2, 108720, Note_on_c, 0, 79, 55
2, 109560, Note_on_c, 0, 79, 0
2, 109560, Note_on_c, 0, 63, 55
2, 109680, Note_on_c, 0, 63, 0
2, 109680, Note_on_c, 0, 67, 59
2, 109800, Note_on_c, 0, 67, 0
2, 109800, Note_on_c, 0, 70, 62
2, 109920, Note_on_c, 0, 70, 0
2, 109920, Note_on_c, 0, 75, 66
2, 110040, Note_on_c, 0, 75, 0
2, 110040, Note_on_c, 0, 79, 69
2, 110160, Note_on_c, 0, 79, 0
2, 110160, Note_on_c, 0, 82, 72
2, 111000, Note_on_c, 0, 82, 0
2, 111000, Note_on_c, 0, 78, 55
2, 111120, Note_on_c, 0, 78, 0
2, 111120, Note_on_c, 0, 79, 62
2, 111240, Note_on_c, 0, 79, 0
2, 111240, Note_on_c, 0, 74, 57
2, 111360, Note_on_c, 0, 74, 0
2, 111360, Note_on_c, 0, 75, 64
2, 111480, Note_on_c, 0, 75, 0
2, 111480, Note_on_c, 0, 69, 57
2, 111600, Note_on_c, 0, 69, 0
2, 111600, Note_on_c, 0, 70, 66
2, 111720, Note_on_c, 0, 70, 0
2, 111720, Note_on_c, 0, 66, 57
2, 111840, Note_on_c, 0, 66, 0
2, 111840, Note_on_c, 0, 67, 68
2, 111960, Note_on_c, 0, 67, 0
2, 111960, Note_on_c, 0, 62, 59
2, 112080, Note_on_c, 0, 62, 0
2, 112080, Note_on_c, 0, 63, 69
2, 112200, Note_on_c, 0, 63, 0
2, 112200, Note_on_c, 0, 67, 57
2, 112320, Note_on_c, 0, 67, 0
2, 112320, Note_on_c, 0, 67, 69
2, 112560, Note_on_c, 0, 67, 0
2, 112560, Note_on_c, 0, 60, 63
2, 113280, Note_on_c, 0, 60, 0
2, 113280, Note_on_c, 0, 72, 69
2, 114000, Note_on_c, 0, 72, 0
2, 114000, Note_on_c, 0, 84, 69
2, 114060, Note_on_c, 0, 84, 0
2, 114060, Note_on_c, 0, 83, 62
2, 114120, Note_on_c, 0, 83, 0
2, 114120, Note_on_c, 0, 86, 69
2, 114180, Note_on_c, 0, 86, 0
2, 114180, Note_on_c, 0, 84, 68
2, 114240, Note_on_c, 0, 84, 0
2, 114240, Note_on_c, 0, 82, 67
2, 114300, Note_on_c, 0, 82, 0
2, 114300, Note_on_c, 0, 80, 65
2, 114360, Note_on_c, 0, 80, 0
2, 114360, Note_on_c, 0, 79, 64
2, 114420, Note_on_c, 0, 79, 0
2, 114420, Note_on_c, 0, 77, 62
2, 114470, Note_on_c, 0, 77, 0
2, 114480, Note_on_c, 0, 77, 67
2, 114720, Note_on_c, 0, 77, 0
2, 114720, Note_on_c, 0, 75, 60
2, 115440, Note_on_c, 0, 75, 0
2, 115440, Note_on_c, 0, 75, 56
2, 115680, Note_on_c, 0, 75, 0
2, 115680, Note_on_c, 0, 75, 54
2, 115920, Note_on_c, 0, 75, 0
2, 115920, Note_on_c, 0, 75, 53
2, 115950, Note_on_c, 0, 75, 0
2, 115950, Note_on_c, 0, 77, 43
2, 115980, Note_on_c, 0, 77, 0
2, 115980, Note_on_c, 0, 75, 54
2, 116010, Note_on_c, 0, 75, 0
2, 116010, Note_on_c, 0, 77, 46
2, 116040, Note_on_c, 0, 77, 0
2, 116040, Note_on_c, 0, 75, 52
2, 116070, Note_on_c, 0, 75, 0
2, 116070, Note_on_c, 0, 77, 44
2, 116100, Note_on_c, 0, 77, 0
2, 116100, Note_on_c, 0, 75, 51
2, 116120, Note_on_c, 0, 75, 0
2, 116120, Note_on_c, 0, 74, 43
2, 116140, Note_on_c, 0, 74, 0
2, 116140, Note_on_c, 0, 75, 43
2, 116160, Note_on_c, 0, 75, 0
2, 116160, Note_on_c, 0, 77, 54
2, 116400, Note_on_c, 0, 77, 0
2, 116400, Note_on_c, 0, 74, 47
2, 116640, Note_on_c, 0, 74, 0
2, 116640, Note_on_c, 0, 75, 47
2, 116880, Note_on_c, 0, 75, 0
2, 116880, Note_on_c, 0, 70, 43
2, 117096, Note_on_c, 0, 70, 0
2, 117120, Note_on_c, 0, 70, 43
2, 117336, Note_on_c, 0, 70, 0
2, 117360, Note_on_c, 0, 70, 49
2, 117600, Note_on_c, 0, 70, 0
2, 117600, Note_on_c, 0, 72, 41
2, 117840, Note_on_c, 0, 72, 0
2, 117840, Note_on_c, 0, 68, 32
2, 118080, Note_on_c, 0, 68, 0
2, 118080, Note_on_c, 0, 67, 43
2, 118080, Note_on_c, 0, 63, 36
2, 118320, Note_on_c, 0, 67, 0
2, 118320, Note_on_c, 0, 68, 37
2, 118560, Note_on_c, 0, 68, 0
2, 118560, Note_on_c, 0, 63, 0
2, 118560, Note_on_c, 0, 65, 32
2, 118560, Note_on_c, 0, 62, 27
2, 118800, Note_on_c, 0, 62, 0
2, 118800, Note_on_c, 0, 65, 0
2, 118800, Note_on_c, 0, 63, 47
2, 119040, Note_on_c, 0, 63, 0
2, 119040, Note_on_c, 0, 58, 38
2, 119256, Note_on_c, 0, 58, 0
2, 119280, Note_on_c, 0, 58, 38
2, 119496, Note_on_c, 0, 58, 0
2, 119520, Note_on_c, 0, 58, 34
2, 119550, Note_on_c, 0, 58, 0
2, 119550, Note_on_c, 0, 60, 27
2, 119580, Note_on_c, 0, 60, 0
2, 119580, Note_on_c, 0, 58, 34
2, 119610, Note_on_c, 0, 58, 0
2, 119610, Note_on_c, 0, 60, 29
2, 119640, Note_on_c, 0, 60, 0
2, 119640, Note_on_c, 0, 58, 33
2, 119670, Note_on_c, 0, 58, 0
2, 119670, Note_on_c, 0, 60, 27
2, 119700, Note_on_c, 0, 60, 0
2, 119700, Note_on_c, 0, 58, 32
2, 119720, Note_on_c, 0, 58, 0
2, 119720, Note_on_c, 0, 57, 27
2, 119740, Note_on_c, 0, 57, 0
2, 119740, Note_on_c, 0, 58, 27
2, 119760, Note_on_c, 0, 58, 0
2, 119760, Note_on_c, 0, 60, 34
2, 120000, Note_on_c, 0, 60, 0
2, 120000, Note_on_c, 0, 56, 28
2, 120240, Note_on_c, 0, 56, 0
2, 120240, Note_on_c, 0, 51, 28
2, 120240, Note_on_c, 0, 55, 34
2, 120270, Note_on_c, 0, 55, 0
2, 120270, Note_on_c, 0, 56, 27
2, 120300, Note_on_c, 0, 56, 0
2, 120300, Note_on_c, 0, 55, 34
2, 120330, Note_on_c, 0, 55, 0
2, 120330, Note_on_c, 0, 56, 29
2, 120360, Note_on_c, 0, 56, 0
2, 120360, Note_on_c, 0, 55, 33
2, 120390, Note_on_c, 0, 55, 0
2, 120390, Note_on_c, 0, 56, 27
2, 120420, Note_on_c, 0, 56, 0
2, 120420, Note_on_c, 0, 55, 32
2, 120440, Note_on_c, 0, 55, 0
2, 120440, Note_on_c, 0, 53, 27
2, 120460, Note_on_c, 0, 53, 0
2, 120460, Note_on_c, 0, 55, 27
2, 120480, Note_on_c, 0, 55, 0
2, 120480, Note_on_c, 0, 56, 34
2, 120715, Note_on_c, 0, 53, 28
2, 120720, Note_on_c, 0, 56, 0
2, 120720, Note_on_c, 0, 51, 0
2, 120955, Note_on_c, 0, 53, 0
2, 120960, Note_on_c, 0, 51, 30
2, 121200, Note_on_c, 0, 51, 0
2, 121200, Note_on_c, 0, 55, 28
2, 121440, Note_on_c, 0, 55, 0
2, 121440, Note_on_c, 0, 58, 29
2, 121680, Note_on_c, 0, 58, 0
2, 121680, Note_on_c, 0, 55, 34
2, 121920, Note_on_c, 0, 55, 0
2, 121920, Note_on_c, 0, 58, 31
2, 122160, Note_on_c, 0, 58, 0
2, 122160, Note_on_c, 0, 63, 31
2, 122400, Note_on_c, 0, 63, 0
2, 122400, Note_on_c, 0, 58, 32
2, 122640, Note_on_c, 0, 58, 0
2, 122640, Note_on_c, 0, 63, 37
2, 122880, Note_on_c, 0, 63, 0
2, 122880, Note_on_c, 0, 67, 42
2, 123110, Note_on_c, 0, 67, 0
2, 123120, Note_on_c, 0, 67, 45
2, 123120, Note_on_c, 0, 58, 38
2, 123120, Note_on_c, 0, 63, 38
2, 123120, Note_on_c, 0, 55, 38
2, 124070, Note_on_c, 0, 55, 0
2, 124070, Note_on_c, 0, 67, 0
2, 124070, Note_on_c, 0, 58, 0
2, 124070, Note_on_c, 0, 63, 0
2, 124080, Note_on_c, 0, 67, 43
2, 124080, Note_on_c, 0, 63, 36
2, 124080, Note_on_c, 0, 58, 36
2, 124310, Note_on_c, 0, 58, 0
2, 124310, Note_on_c, 0, 63, 0
2, 124310, Note_on_c, 0, 67, 0
2, 124320, Note_on_c, 0, 63, 35
2, 124320, Note_on_c, 0, 67, 42
2, 124550, Note_on_c, 0, 67, 0
2, 124550, Note_on_c, 0, 63, 0
2, 124560, Note_on_c, 0, 63, 23
2, 124560, Note_on_c, 0, 67, 34
2, 124590, Note_on_c, 0, 67, 0
2, 124590, Note_on_c, 0, 68, 27
2, 124620, Note_on_c, 0, 68, 0
2, 124620, Note_on_c, 0, 67, 34
2, 124650, Note_on_c, 0, 67, 0
2, 124650, Note_on_c, 0, 68, 29
2, 124680, Note_on_c, 0, 68, 0
2, 124680, Note_on_c, 0, 67, 33
2, 124710, Note_on_c, 0, 67, 0
2, 124710, Note_on_c, 0, 68, 27
2, 124740, Note_on_c, 0, 68, 0
2, 124740, Note_on_c, 0, 67, 32
2, 124760, Note_on_c, 0, 67, 0
2, 124760, Note_on_c, 0, 65, 27
2, 124780, Note_on_c, 0, 65, 0
2, 124780, Note_on_c, 0, 67, 27
2, 124800, Note_on_c, 0, 67, 0
2, 124800, Note_on_c, 0, 65, 38
2, 124800, Note_on_c, 0, 68, 45
2, 125040, Note_on_c, 0, 68, 0
2, 125040, Note_on_c, 0, 65, 0
2, 125040, Note_on_c, 0, 63, 0
2, 125040, Note_on_c, 0, 62, 32
2, 125040, Note_on_c, 0, 65, 38
2, 125040, Note_on_c, 0, 58, 32
2, 125270, Note_on_c, 0, 58, 0
2, 125270, Note_on_c, 0, 65, 0
2, 125270, Note_on_c, 0, 62, 0
2, 125280, Note_on_c, 0, 62, 28
2, 125280, Note_on_c, 0, 65, 34
2, 125280, Note_on_c, 0, 58, 28
2, 126000, Note_on_c, 0, 65, 0
2, 126000, Note_on_c, 0, 62, 0
2, 126000, Note_on_c, 0, 63, 32
2, 126240, Note_on_c, 0, 63, 0
2, 126240, Note_on_c, 0, 58, 0
2, 126720, Note_on_c, 0, 58, 43
2, 126720, Note_on_c, 0, 54, 36
2, 126960, Note_on_c, 0, 54, 0
2, 126960, Note_on_c, 0, 58, 0
2, 126960, Note_on_c, 0, 58, 40
2, 126960, Note_on_c, 0, 63, 48
2, 127200, Note_on_c, 0, 63, 0
2, 127200, Note_on_c, 0, 58, 0
2, 127200, Note_on_c, 0, 66, 54
2, 127200, Note_on_c, 0, 63, 45
2, 127430, Note_on_c, 0, 66, 0
2, 127440, Note_on_c, 0, 63, 0
2, 127440, Note_on_c, 0, 66, 51
2, 127440, Note_on_c, 0, 70, 60
2, 128400, Note_on_c, 0, 75, 70
2, 128619, Note_on_c, 0, 75, 0
2, 128640, Note_on_c, 0, 75, 64
2, 128859, Note_on_c, 0, 75, 0
2, 128880, Note_on_c, 0, 75, 67
2, 129108, Note_on_c, 0, 75, 0
2, 129120, Note_on_c, 0, 70, 0
2, 129120, Note_on_c, 0, 66, 0
2, 129120, Note_on_c, 0, 68, 44
2, 129120, Note_on_c, 0, 75, 57
2, 129348, Note_on_c, 0, 75, 0
2, 129360, Note_on_c, 0, 68, 0
2, 129360, Note_on_c, 0, 70, 50
2, 129360, Note_on_c, 0, 66, 50
2, 129360, Note_on_c, 0, 75, 64
2, 129588, Note_on_c, 0, 75, 0
2, 129590, Note_on_c, 0, 66, 0
2, 129590, Note_on_c, 0, 70, 0
2, 129600, Note_on_c, 0, 75, 68
2, 129600, Note_on_c, 0, 71, 45
2, 129600, Note_on_c, 0, 65, 45
2, 130080, Note_on_c, 0, 75, 0
2, 130080, Note_on_c, 0, 73, 38
2, 130320, Note_on_c, 0, 73, 0
2, 130320, Note_on_c, 0, 65, 0
2, 130320, Note_on_c, 0, 71, 0
2, 130560, Note_on_c, 0, 68, 34
2, 130560, Note_on_c, 0, 75, 40
2, 130560, Note_on_c, 0, 71, 34
2, 130800, Note_on_c, 0, 75, 0
2, 130800, Note_on_c, 0, 73, 29
2, 131040, Note_on_c, 0, 73, 0
2, 131040, Note_on_c, 0, 71, 0
2, 131040, Note_on_c, 0, 68, 0
2, 131280, Note_on_c, 0, 75, 40
2, 131280, Note_on_c, 0, 66, 34
2, 131280, Note_on_c, 0, 70, 34
2, 131520, Note_on_c, 0, 75, 0
2, 131520, Note_on_c, 0, 73, 27
2, 131760, Note_on_c, 0, 73, 0
2, 131760, Note_on_c, 0, 70, 0
2, 131760, Note_on_c, 0, 66, 0
2, 132000, Note_on_c, 0, 73, 40
2, 132000, Note_on_c, 0, 68, 34
2, 132000, Note_on_c, 0, 63, 34
2, 132240, Note_on_c, 0, 73, 0
2, 132240, Note_on_c, 0, 71, 27
2, 132480, Note_on_c, 0, 71, 0
2, 132480, Note_on_c, 0, 63, 0
2, 132480, Note_on_c, 0, 68, 0
2, 132720, Note_on_c, 0, 61, 34
2, 132720, Note_on_c, 0, 71, 40
2, 132720, Note_on_c, 0, 66, 34
2, 132960, Note_on_c, 0, 71, 0
2, 132960, Note_on_c, 0, 70, 27
2, 133200, Note_on_c, 0, 70, 0
2, 133200, Note_on_c, 0, 66, 0
2, 133200, Note_on_c, 0, 61, 0
2, 133440, Note_on_c, 0, 70, 40
2, 133440, Note_on_c, 0, 65, 34
2, 133440, Note_on_c, 0, 59, 34
2, 133680, Note_on_c, 0, 70, 0
2, 133680, Note_on_c, 0, 68, 27
2, 133910, Note_on_c, 0, 65, 0
2, 133920, Note_on_c, 0, 68, 0
2, 133920, Note_on_c, 0, 59, 0
2, 133920, Note_on_c, 0, 68, 45
2, 133920, Note_on_c, 0, 59, 68
2, 133920, Note_on_c, 0, 65, 45
2, 134400, Note_on_c, 0, 59, 0
2, 134400, Note_on_c, 0, 58, 38
2, 134640, Note_on_c, 0, 58, 0
2, 134640, Note_on_c, 0, 65, 0
2, 134640, Note_on_c, 0, 68, 0
2, 134880, Note_on_c, 0, 68, 34
2, 134880, Note_on_c, 0, 59, 40
2, 134880, Note_on_c, 0, 65, 34
2, 135120, Note_on_c, 0, 59, 0
2, 135120, Note_on_c, 0, 58, 29
2, 135360, Note_on_c, 0, 58, 0
2, 135360, Note_on_c, 0, 65, 0
2, 135360, Note_on_c, 0, 68, 0
2, 135600, Note_on_c, 0, 66, 34
2, 135600, Note_on_c, 0, 59, 40
2, 135600, Note_on_c, 0, 63, 34
2, 135840, Note_on_c, 0, 59, 0
2, 135840, Note_on_c, 0, 58, 27
2, 136080, Note_on_c, 0, 58, 0
2, 136080, Note_on_c, 0, 63, 0
2, 136080, Note_on_c, 0, 66, 0
2, 136320, Note_on_c, 0, 66, 40
2, 136320, Note_on_c, 0, 56, 34
2, 136320, Note_on_c, 0, 59, 34
2, 136560, Note_on_c, 0, 66, 0
2, 136560, Note_on_c, 0, 64, 27
2, 136800, Note_on_c, 0, 64, 0
2, 136800, Note_on_c, 0, 59, 0
2, 136800, Note_on_c, 0, 56, 0
2, 137040, Note_on_c, 0, 54, 34
2, 137040, Note_on_c, 0, 64, 40
2, 137040, Note_on_c, 0, 60, 34
2, 137280, Note_on_c, 0, 64, 0
2, 137280, Note_on_c, 0, 63, 27
2, 137520, Note_on_c, 0, 63, 0
2, 137520, Note_on_c, 0, 60, 0
2, 137520, Note_on_c, 0, 54, 0
2, 137760, Note_on_c, 0, 53, 34
2, 137760, Note_on_c, 0, 63, 40
2, 137760, Note_on_c, 0, 56, 34
2, 138000, Note_on_c, 0, 63, 0
2, 138000, Note_on_c, 0, 62, 27
2, 138240, Note_on_c, 0, 62, 0
2, 138240, Note_on_c, 0, 56, 0
2, 138240, Note_on_c, 0, 53, 0
2, 138240, Note_on_c, 0, 63, 34
2, 138240, Note_on_c, 0, 55, 34
2, 138720, Note_on_c, 0, 55, 0
2, 138720, Note_on_c, 0, 63, 0
2, 139680, Note_on_c, 0, 79, 57
2, 140160, Note_on_c, 0, 79, 0
2, 140160, Note_on_c, 0, 77, 48
2, 140280, Note_on_c, 0, 77, 0
2, 140280, Note_on_c, 0, 75, 47
2, 140400, Note_on_c, 0, 75, 0
2, 140400, Note_on_c, 0, 65, 30
2, 140400, Note_on_c, 0, 75, 54
2, 140400, Note_on_c, 0, 68, 35
2, 140640, Note_on_c, 0, 75, 0
2, 140640, Note_on_c, 0, 74, 47
2, 140870, Note_on_c, 0, 68, 0
2, 140880, Note_on_c, 0, 74, 0
2, 140880, Note_on_c, 0, 65, 0
2, 140880, Note_on_c, 0, 72, 51
2, 140880, Note_on_c, 0, 68, 37
2, 140880, Note_on_c, 0, 63, 43
2, 141000, Note_on_c, 0, 63, 0
2, 141000, Note_on_c, 0, 72, 0
2, 141000, Note_on_c, 0, 70, 43
2, 141000, Note_on_c, 0, 62, 36
2, 141110, Note_on_c, 0, 62, 0
2, 141110, Note_on_c, 0, 70, 0
2, 141110, Note_on_c, 0, 68, 0
2, 141120, Note_on_c, 0, 68, 35
2, 141120, Note_on_c, 0, 70, 50
2, 141120, Note_on_c, 0, 62, 48
2, 141600, Note_on_c, 0, 62, 0
2, 141600, Note_on_c, 0, 60, 45
2, 141720, Note_on_c, 0, 60, 0
2, 141720, Note_on_c, 0, 58, 38
2, 141830, Note_on_c, 0, 58, 0
2, 141840, Note_on_c, 0, 58, 51
2, 142080, Note_on_c, 0, 70, 0
2, 142080, Note_on_c, 0, 72, 44
2, 142200, Note_on_c, 0, 58, 0
2, 142200, Note_on_c, 0, 56, 38
2, 142320, Note_on_c, 0, 56, 0
2, 142320, Note_on_c, 0, 72, 0
2, 142320, Note_on_c, 0, 55, 38
2, 142320, Note_on_c, 0, 74, 46
2, 142440, Note_on_c, 0, 55, 0
2, 142440, Note_on_c, 0, 56, 38
2, 142560, Note_on_c, 0, 56, 0
2, 142560, Note_on_c, 0, 74, 0
2, 142560, Note_on_c, 0, 68, 0
2, 142560, Note_on_c, 0, 55, 51
2, 142560, Note_on_c, 0, 75, 51
2, 142680, Note_on_c, 0, 75, 0
2, 142680, Note_on_c, 0, 77, 44
2, 142720, Note_on_c, 0, 77, 0
2, 142720, Note_on_c, 0, 75, 38
2, 142760, Note_on_c, 0, 75, 0
2, 142760, Note_on_c, 0, 74, 38
2, 142800, Note_on_c, 0, 74, 0
2, 142800, Note_on_c, 0, 75, 51
2, 142920, Note_on_c, 0, 75, 0
2, 142920, Note_on_c, 0, 77, 47
2, 143040, Note_on_c, 0, 77, 0
2, 143040, Note_on_c, 0, 55, 0
2, 143040, Note_on_c, 0, 79, 49
2, 143160, Note_on_c, 0, 79, 0
2, 143160, Note_on_c, 0, 80, 50
2, 143250, Note_on_c, 0, 80, 0
2, 143250, Note_on_c, 0, 79, 48
2, 143280, Note_on_c, 0, 79, 0
2, 143280, Note_on_c, 0, 82, 57
2, 144000, Note_on_c, 0, 82, 0
2, 144000, Note_on_c, 0, 81, 47
2, 144120, Note_on_c, 0, 81, 0
2, 144120, Note_on_c, 0, 82, 52
2, 144240, Note_on_c, 0, 82, 0
2, 144240, Note_on_c, 0, 84, 53
2, 144360, Note_on_c, 0, 84, 0
2, 144360, Note_on_c, 0, 82, 51
2, 144480, Note_on_c, 0, 82, 0
2, 144480, Note_on_c, 0, 80, 53
2, 144600, Note_on_c, 0, 80, 0
2, 144600, Note_on_c, 0, 79, 51
2, 144710, Note_on_c, 0, 79, 0
2, 144720, Note_on_c, 0, 68, 30
2, 144720, Note_on_c, 0, 72, 35
2, 144720, Note_on_c, 0, 79, 57
2, 144960, Note_on_c, 0, 79, 0
2, 144960, Note_on_c, 0, 77, 47
2, 145190, Note_on_c, 0, 72, 0
2, 145200, Note_on_c, 0, 77, 0
2, 145200, Note_on_c, 0, 68, 0
2, 145200, Note_on_c, 0, 70, 43
2, 145200, Note_on_c, 0, 75, 51
2, 145200, Note_on_c, 0, 67, 36
2, 145320, Note_on_c, 0, 67, 0
2, 145320, Note_on_c, 0, 75, 0
2, 145320, Note_on_c, 0, 70, 0
2, 145320, Note_on_c, 0, 74, 43
2, 145320, Note_on_c, 0, 65, 30
2, 145320, Note_on_c, 0, 68, 36
2, 145430, Note_on_c, 0, 68, 0
2, 145440, Note_on_c, 0, 65, 0
2, 145440, Note_on_c, 0, 74, 0
2, 145440, Note_on_c, 0, 65, 40
2, 145440, Note_on_c, 0, 74, 50
2, 145440, Note_on_c, 0, 68, 35
2, 145910, Note_on_c, 0, 68, 0
2, 145920, Note_on_c, 0, 74, 0
2, 145920, Note_on_c, 0, 65, 0
2, 145920, Note_on_c, 0, 63, 45
2, 145920, Note_on_c, 0, 72, 51
2, 145920, Note_on_c, 0, 68, 35
2, 146040, Note_on_c, 0, 72, 0
2, 146040, Note_on_c, 0, 63, 0
2, 146040, Note_on_c, 0, 70, 43
2, 146040, Note_on_c, 0, 62, 38
2, 146150, Note_on_c, 0, 62, 0
2, 146150, Note_on_c, 0, 68, 0
2, 146160, Note_on_c, 0, 70, 0
2, 146160, Note_on_c, 0, 68, 35
2, 146160, Note_on_c, 0, 62, 51
2, 146160, Note_on_c, 0, 70, 54
2, 146280, Note_on_c, 0, 62, 0
2, 146280, Note_on_c, 0, 60, 38
2, 146400, Note_on_c, 0, 60, 0
2, 146400, Note_on_c, 0, 70, 0
2, 146400, Note_on_c, 0, 58, 38
2, 146400, Note_on_c, 0, 72, 44
2, 146520, Note_on_c, 0, 58, 0
2, 146520, Note_on_c, 0, 56, 38
2, 146640, Note_on_c, 0, 56, 0
2, 146640, Note_on_c, 0, 72, 0
2, 146640, Note_on_c, 0, 74, 46
2, 146640, Note_on_c, 0, 55, 38
2, 146760, Note_on_c, 0, 55, 0
2, 146760, Note_on_c, 0, 53, 38
2, 146880, Note_on_c, 0, 53, 0
2, 146880, Note_on_c, 0, 74, 0
2, 146880, Note_on_c, 0, 68, 0
2, 146880, Note_on_c, 0, 75, 54
2, 146880, Note_on_c, 0, 67, 54
2, 147120, Note_on_c, 0, 67, 0
2, 147120, Note_on_c, 0, 75, 0
2, 147120, Note_on_c, 0, 78, 40
2, 147360, Note_on_c, 0, 78, 0
2, 147360, Note_on_c, 0, 79, 44
2, 147600, Note_on_c, 0, 79, 0
2, 147840, Note_on_c, 0, 81, 41
2, 148080, Note_on_c, 0, 81, 0
2, 148080, Note_on_c, 0, 82, 44
2, 148320, Note_on_c, 0, 82, 0
2, 148560, Note_on_c, 0, 86, 40
2, 148800, Note_on_c, 0, 86, 0
2, 148800, Note_on_c, 0, 87, 44
2, 149040, Note_on_c, 0, 87, 0
2, 149280, Note_on_c, 0, 83, 41
2, 149520, Note_on_c, 0, 83, 0
2, 149520, Note_on_c, 0, 84, 44
2, 149760, Note_on_c, 0, 84, 0
2, 150000, Note_on_c, 0, 71, 40
2, 150240, Note_on_c, 0, 71, 0
2, 150240, Note_on_c, 0, 72, 42
2, 150480, Note_on_c, 0, 72, 0
2, 150720, Note_on_c, 0, 64, 38
2, 150960, Note_on_c, 0, 64, 0
2, 150960, Note_on_c, 0, 65, 42
2, 151200, Note_on_c, 0, 65, 0
2, 151440, Note_on_c, 0, 70, 59
2, 152040, Note_on_c, 0, 70, 0
2, 152040, Note_on_c, 0, 72, 60
2, 152100, Note_on_c, 0, 72, 0
2, 152100, Note_on_c, 0, 74, 62
2, 152160, Note_on_c, 0, 74, 0
2, 152160, Note_on_c, 0, 75, 64
2, 152220, Note_on_c, 0, 75, 0
2, 152220, Note_on_c, 0, 77, 66
2, 152280, Note_on_c, 0, 77, 0
2, 152280, Note_on_c, 0, 79, 68
2, 152340, Note_on_c, 0, 79, 0
2, 152340, Note_on_c, 0, 80, 70
2, 152400, Note_on_c, 0, 80, 0
2, 152400, Note_on_c, 0, 82, 72
2, 152880, Note_on_c, 0, 82, 0
2, 152880, Note_on_c, 0, 80, 70
2, 153120, Note_on_c, 0, 80, 0
2, 153120, Note_on_c, 0, 77, 66
2, 153360, Note_on_c, 0, 77, 0
2, 153360, Note_on_c, 0, 75, 58
2, 153660, Note_on_c, 0, 75, 0
2, 153660, Note_on_c, 0, 74, 50
2, 153720, Note_on_c, 0, 74, 0
2, 153720, Note_on_c, 0, 79, 57
2, 153780, Note_on_c, 0, 77, 54
2, 153786, Note_on_c, 0, 79, 0
2, 153840, Note_on_c, 0, 75, 53
2, 153846, Note_on_c, 0, 77, 0
2, 153900, Note_on_c, 0, 74, 51
2, 153906, Note_on_c, 0, 75, 0
2, 153960, Note_on_c, 0, 72, 49
2, 153966, Note_on_c, 0, 74, 0
2, 154020, Note_on_c, 0, 70, 47
2, 154026, Note_on_c, 0, 72, 0
2, 154080, Note_on_c, 0, 69, 53
2, 154086, Note_on_c, 0, 70, 0
2, 154140, Note_on_c, 0, 70, 51
2, 154146, Note_on_c, 0, 69, 0
2, 154200, Note_on_c, 0, 75, 59
2, 154206, Note_on_c, 0, 70, 0
2, 154260, Note_on_c, 0, 74, 54
2, 154266, Note_on_c, 0, 75, 0
2, 154320, Note_on_c, 0, 72, 54
2, 154326, Note_on_c, 0, 74, 0
2, 154380, Note_on_c, 0, 70, 52
2, 154386, Note_on_c, 0, 72, 0
2, 154440, Note_on_c, 0, 68, 50
2, 154446, Note_on_c, 0, 70, 0
2, 154500, Note_on_c, 0, 67, 50
2, 154506, Note_on_c, 0, 68, 0
2, 154560, Note_on_c, 0, 66, 52
2, 154566, Note_on_c, 0, 67, 0
2, 154620, Note_on_c, 0, 67, 46
2, 154626, Note_on_c, 0, 66, 0
2, 154680, Note_on_c, 0, 72, 56
2, 154686, Note_on_c, 0, 67, 0
2, 154740, Note_on_c, 0, 70, 55
2, 154746, Note_on_c, 0, 72, 0
2, 154800, Note_on_c, 0, 68, 54
2, 154806, Note_on_c, 0, 70, 0
2, 154860, Note_on_c, 0, 67, 52
2, 154866, Note_on_c, 0, 68, 0
2, 154920, Note_on_c, 0, 65, 50
2, 154926, Note_on_c, 0, 67, 0
2, 154980, Note_on_c, 0, 63, 48
2, 154986, Note_on_c, 0, 65, 0
2, 155040, Note_on_c, 0, 62, 46
2, 155046, Note_on_c, 0, 63, 0
2, 155100, Note_on_c, 0, 63, 45
2, 155106, Note_on_c, 0, 62, 0
2, 155160, Note_on_c, 0, 68, 52
2, 155166, Note_on_c, 0, 63, 0
2, 155220, Note_on_c, 0, 67, 51
2, 155226, Note_on_c, 0, 68, 0
2, 155280, Note_on_c, 0, 65, 49
2, 155286, Note_on_c, 0, 67, 0
2, 155340, Note_on_c, 0, 63, 47
2, 155346, Note_on_c, 0, 65, 0
2, 155400, Note_on_c, 0, 62, 44
2, 155406, Note_on_c, 0, 63, 0
2, 155460, Note_on_c, 0, 60, 42
2, 155466, Note_on_c, 0, 62, 0
2, 155520, Note_on_c, 0, 57, 39
2, 155526, Note_on_c, 0, 60, 0
2, 155580, Note_on_c, 0, 57, 0
2, 155580, Note_on_c, 0, 58, 39
2, 155640, Note_on_c, 0, 58, 0
2, 155640, Note_on_c, 0, 59, 40
2, 155700, Note_on_c, 0, 59, 0
2, 155700, Note_on_c, 0, 60, 41
2, 155760, Note_on_c, 0, 60, 0
2, 155760, Note_on_c, 0, 61, 42
2, 155820, Note_on_c, 0, 61, 0
2, 155820, Note_on_c, 0, 62, 42
2, 155880, Note_on_c, 0, 62, 0
2, 155880, Note_on_c, 0, 63, 43
2, 155940, Note_on_c, 0, 63, 0
2, 155940, Note_on_c, 0, 64, 44
2, 156000, Note_on_c, 0, 64, 0
2, 156000, Note_on_c, 0, 65, 45
2, 156060, Note_on_c, 0, 65, 0
2, 156060, Note_on_c, 0, 66, 45
2, 156120, Note_on_c, 0, 66, 0
2, 156120, Note_on_c, 0, 67, 46
2, 156180, Note_on_c, 0, 67, 0
2, 156180, Note_on_c, 0, 68, 47
2, 156240, Note_on_c, 0, 68, 0
2, 156240, Note_on_c, 0, 69, 49
2, 156300, Note_on_c, 0, 69, 0
2, 156300, Note_on_c, 0, 70, 50
2, 156360, Note_on_c, 0, 70, 0
2, 156360, Note_on_c, 0, 71, 52
2, 156420, Note_on_c, 0, 71, 0
2, 156420, Note_on_c, 0, 72, 54
2, 156480, Note_on_c, 0, 72, 0
2, 156480, Note_on_c, 0, 73, 56
2, 156540, Note_on_c, 0, 73, 0
2, 156540, Note_on_c, 0, 74, 58
2, 156600, Note_on_c, 0, 74, 0
2, 156600, Note_on_c, 0, 75, 60
2, 156660, Note_on_c, 0, 75, 0
2, 156660, Note_on_c, 0, 76, 61
2, 156720, Note_on_c, 0, 76, 0
2, 156720, Note_on_c, 0, 77, 64
2, 156768, Note_on_c, 0, 77, 0
2, 156768, Note_on_c, 0, 78, 65
2, 156816, Note_on_c, 0, 78, 0
2, 156816, Note_on_c, 0, 79, 67
2, 156864, Note_on_c, 0, 79, 0
2, 156864, Note_on_c, 0, 80, 69
2, 156912, Note_on_c, 0, 80, 0
2, 156912, Note_on_c, 0, 81, 70
2, 156960, Note_on_c, 0, 81, 0
2, 156960, Note_on_c, 0, 82, 80
2, 157260, Note_on_c, 0, 82, 0
2, 157260, Note_on_c, 0, 80, 69
2, 157320, Note_on_c, 0, 80, 0
2, 157320, Note_on_c, 0, 77, 66
2, 157380, Note_on_c, 0, 77, 0
2, 157380, Note_on_c, 0, 74, 63
2, 157440, Note_on_c, 0, 74, 0
2, 157440, Note_on_c, 0, 70, 60
2, 157500, Note_on_c, 0, 70, 0
2, 157500, Note_on_c, 0, 68, 57
2, 157560, Note_on_c, 0, 68, 0
2, 157560, Note_on_c, 0, 65, 54
2, 157620, Note_on_c, 0, 65, 0
2, 157620, Note_on_c, 0, 62, 51
2, 157680, Note_on_c, 0, 62, 0
2, 157680, Note_on_c, 0, 63, 56
2, 158160, Note_on_c, 0, 63, 0
2, 158880, Note_on_c, 0, 75, 56
2, 158880, Note_on_c, 0, 78, 67
2, 159360, Note_on_c, 0, 78, 0
2, 159360, Note_on_c, 0, 79, 54
2, 159600, Note_on_c, 0, 79, 0
2, 159600, Note_on_c, 0, 75, 0
2, 159600, Note_on_c, 0, 80, 59
2, 159600, Note_on_c, 0, 74, 50
2, 159780, Note_on_c, 0, 80, 0
2, 159780, Note_on_c, 0, 77, 53
2, 159840, Note_on_c, 0, 77, 0
2, 159840, Note_on_c, 0, 74, 0
2, 159840, Note_on_c, 0, 67, 48
2, 159840, Note_on_c, 0, 75, 56
2, 160320, Note_on_c, 0, 75, 0
2, 160320, Note_on_c, 0, 67, 0
2, 161040, Note_on_c, 0, 66, 60
2, 161040, Note_on_c, 0, 63, 50
2, 161520, Note_on_c, 0, 66, 0
2, 161520, Note_on_c, 0, 67, 48
2, 161760, Note_on_c, 0, 67, 0
2, 161760, Note_on_c, 0, 63, 0
2, 161760, Note_on_c, 0, 68, 53
2, 161760, Note_on_c, 0, 62, 45
2, 161940, Note_on_c, 0, 68, 0
2, 161940, Note_on_c, 0, 65, 43
2, 162000, Note_on_c, 0, 65, 0
2, 162000, Note_on_c, 0, 62, 0
2, 162000, Note_on_c, 0, 63, 48
2, 162240, Note_on_c, 0, 63, 0
2, 162240, Note_on_c, 0, 68, 51
2, 162240, Note_on_c, 0, 62, 43
2, 162600, Note_on_c, 0, 68, 0
2, 162600, Note_on_c, 0, 65, 44
2, 162720, Note_on_c, 0, 65, 0
2, 162720, Note_on_c, 0, 62, 0
2, 162720, Note_on_c, 0, 63, 48
2, 162960, Note_on_c, 0, 63, 0
2, 162960, Note_on_c, 0, 68, 51
2, 162960, Note_on_c, 0, 62, 43
2, 163320, Note_on_c, 0, 68, 0
2, 163320, Note_on_c, 0, 65, 44
2, 163440, Note_on_c, 0, 65, 0
2, 163440, Note_on_c, 0, 62, 0
2, 163440, Note_on_c, 0, 63, 48
2, 163680, Note_on_c, 0, 63, 0
2, 163680, Note_on_c, 0, 68, 60
2, 163680, Note_on_c, 0, 56, 50
2, 163800, Note_on_c, 0, 68, 0
2, 163800, Note_on_c, 0, 67, 56
2, 163910, Note_on_c, 0, 56, 0
2, 163920, Note_on_c, 0, 67, 0
2, 163920, Note_on_c, 0, 56, 49
2, 163920, Note_on_c, 0, 68, 66
2, 164040, Note_on_c, 0, 68, 0
2, 164040, Note_on_c, 0, 65, 61
2, 164150, Note_on_c, 0, 56, 0
2, 164160, Note_on_c, 0, 65, 0
2, 164160, Note_on_c, 0, 64, 35
2, 164200, Note_on_c, 0, 64, 0
2, 164200, Note_on_c, 0, 65, 34
2, 164240, Note_on_c, 0, 65, 0
2, 164240, Note_on_c, 0, 67, 28
2, 164280, Note_on_c, 0, 67, 0
2, 164280, Note_on_c, 0, 56, 31
2, 164280, Note_on_c, 0, 65, 37
2, 164880, Note_on_c, 0, 65, 0
2, 164880, Note_on_c, 0, 56, 0
2, 164880, Note_on_c, 0, 55, 27
2, 164880, Note_on_c, 0, 63, 27
2, 165360, Note_on_c, 0, 63, 0
2, 165360, Note_on_c, 0, 55, 0
2, 165360, End_track
3, 0, Start_track
3, 0, Title_t, "Piano left"
3, 0, Program_c, 0, 0
3, 0, Note_on_c, 0, 51, 18
3, 0, Note_on_c, 0, 55, 18
3, 0, Note_on_c, 0, 58, 22
3, 216, Note_on_c, 0, 58, 0
3, 216, Note_on_c, 0, 55, 0
3, 216, Note_on_c, 0, 51, 0
3, 240, Note_on_c, 0, 51, 15
3, 240, Note_on_c, 0, 55, 15
3, 240, Note_on_c, 0, 58, 18
3, 456, Note_on_c, 0, 58, 0
3, 456, Note_on_c, 0, 55, 0
3, 456, Note_on_c, 0, 51, 0
3, 480, Note_on_c, 0, 51, 15
3, 480, Note_on_c, 0, 55, 15
3, 480, Note_on_c, 0, 58, 18
3, 696, Note_on_c, 0, 58, 0
3, 696, Note_on_c, 0, 55, 0
3, 696, Note_on_c, 0, 51, 0
3, 720, Note_on_c, 0, 51, 17
3, 720, Note_on_c, 0, 55, 17
3, 720, Note_on_c, 0, 58, 20
3, 936, Note_on_c, 0, 58, 0
3, 936, Note_on_c, 0, 55, 0
3, 936, Note_on_c, 0, 51, 0
3, 960, Note_on_c, 0, 51, 15
3, 960, Note_on_c, 0, 55, 15
3, 960, Note_on_c, 0, 58, 18
3, 1176, Note_on_c, 0, 58, 0
3, 1176, Note_on_c, 0, 55, 0
3, 1176, Note_on_c, 0, 51, 0
3, 1200, Note_on_c, 0, 51, 15
3, 1200, Note_on_c, 0, 55, 15
3, 1200, Note_on_c, 0, 58, 18
3, 1416, Note_on_c, 0, 58, 0
3, 1416, Note_on_c, 0, 55, 0
3, 1416, Note_on_c, 0, 51, 0
3, 1440, Note_on_c, 0, 51, 18
3, 1440, Note_on_c, 0, 55, 18
3, 1440, Note_on_c, 0, 58, 21
3, 1656, Note_on_c, 0, 58, 0
3, 1656, Note_on_c, 0, 55, 0
3, 1656, Note_on_c, 0, 51, 0
3, 1680, Note_on_c, 0, 51, 15
3, 1680, Note_on_c, 0, 55, 15
3, 1680, Note_on_c, 0, 58, 18
3, 1896, Note_on_c, 0, 58, 0
3, 1896, Note_on_c, 0, 55, 0
3, 1896, Note_on_c, 0, 51, 0
3, 1920, Note_on_c, 0, 51, 15
3, 1920, Note_on_c, 0, 55, 15
3, 1920, Note_on_c, 0, 58, 18
3, 2136, Note_on_c, 0, 58, 0
3, 2136, Note_on_c, 0, 55, 0
3, 2136, Note_on_c, 0, 51, 0
3, 2160, Note_on_c, 0, 51, 18
3, 2160, Note_on_c, 0, 55, 18
3, 2160, Note_on_c, 0, 58, 22
3, 2376, Note_on_c, 0, 58, 0
3, 2376, Note_on_c, 0, 55, 0
3, 2376, Note_on_c, 0, 51, 0
3, 2400, Note_on_c, 0, 51, 15
3, 2400, Note_on_c, 0, 55, 15
3, 2400, Note_on_c, 0, 58, 18
3, 2616, Note_on_c, 0, 58, 0
3, 2616, Note_on_c, 0, 55, 0
3, 2616, Note_on_c, 0, 51, 0
3, 2640, Note_on_c, 0, 51, 15
3, 2640, Note_on_c, 0, 55, 15
3, 2640, Note_on_c, 0, 58, 18
3, 2856, Note_on_c, 0, 58, 0
3, 2856, Note_on_c, 0, 55, 0
3, 2856, Note_on_c, 0, 51, 0
3, 2880, Note_on_c, 0, 51, 17
3, 2880, Note_on_c, 0, 55, 17
3, 2880, Note_on_c, 0, 58, 20
3, 3096, Note_on_c, 0, 58, 0
3, 3096, Note_on_c, 0, 55, 0
3, 3096, Note_on_c, 0, 51, 0
3, 3120, Note_on_c, 0, 51, 15
3, 3120, Note_on_c, 0, 55, 15
3, 3120, Note_on_c, 0, 58, 18
3, 3336, Note_on_c, 0, 58, 0
3, 3336, Note_on_c, 0, 55, 0
3, 3336, Note_on_c, 0, 51, 0
3, 3360, Note_on_c, 0, 51, 15
3, 3360, Note_on_c, 0, 55, 15
3, 3360, Note_on_c, 0, 58, 18
3, 3576, Note_on_c, 0, 58, 0
3, 3576, Note_on_c, 0, 55, 0
3, 3576, Note_on_c, 0, 51, 0
3, 3600, Note_on_c, 0, 51, 18
3, 3600, Note_on_c, 0, 55, 18
3, 3600, Note_on_c, 0, 58, 21
3, 3816, Note_on_c, 0, 58, 0
3, 3816, Note_on_c, 0, 55, 0
3, 3816, Note_on_c, 0, 51, 0
3, 3840, Note_on_c, 0, 51, 15
3, 3840, Note_on_c, 0, 55, 15
3, 3840, Note_on_c, 0, 58, 18
3, 4056, Note_on_c, 0, 58, 0
3, 4056, Note_on_c, 0, 55, 0
3, 4056, Note_on_c, 0, 51, 0
3, 4080, Note_on_c, 0, 51, 15
3, 4080, Note_on_c, 0, 55, 15
3, 4080, Note_on_c, 0, 58, 18
3, 4296, Note_on_c, 0, 58, 0
3, 4296, Note_on_c, 0, 55, 0
3, 4296, Note_on_c, 0, 51, 0
3, 4320, Note_on_c, 0, 50, 18
3, 4320, Note_on_c, 0, 56, 18
3, 4320, Note_on_c, 0, 58, 22
3, 4536, Note_on_c, 0, 58, 0
3, 4536, Note_on_c, 0, 56, 0
3, 4536, Note_on_c, 0, 50, 0
3, 4560, Note_on_c, 0, 50, 15
3, 4560, Note_on_c, 0, 56, 15
3, 4560, Note_on_c, 0, 58, 18
3, 4776, Note_on_c, 0, 58, 0
3, 4776, Note_on_c, 0, 56, 0
3, 4776, Note_on_c, 0, 50, 0
3, 4800, Note_on_c, 0, 50, 15
3, 4800, Note_on_c, 0, 56, 15
3, 4800, Note_on_c, 0, 58, 18
3, 5016, Note_on_c, 0, 58, 0
3, 5016, Note_on_c, 0, 56, 0
3, 5016, Note_on_c, 0, 50, 0
3, 5040, Note_on_c, 0, 50, 17
3, 5040, Note_on_c, 0, 56, 17
3, 5040, Note_on_c, 0, 58, 20
3, 5256, Note_on_c, 0, 58, 0
3, 5256, Note_on_c, 0, 56, 0
3, 5256, Note_on_c, 0, 50, 0
3, 5280, Note_on_c, 0, 50, 15
3, 5280, Note_on_c, 0, 56, 15
3, 5280, Note_on_c, 0, 58, 18
3, 5496, Note_on_c, 0, 58, 0
3, 5496, Note_on_c, 0, 56, 0
3, 5496, Note_on_c, 0, 50, 0
3, 5520, Note_on_c, 0, 50, 15
3, 5520, Note_on_c, 0, 56, 15
3, 5520, Note_on_c, 0, 58, 18
3, 5736, Note_on_c, 0, 58, 0
3, 5736, Note_on_c, 0, 56, 0
3, 5736, Note_on_c, 0, 50, 0
3, 5760, Note_on_c, 0, 50, 18
3, 5760, Note_on_c, 0, 56, 18
3, 5760, Note_on_c, 0, 58, 21
3, 5976, Note_on_c, 0, 58, 0
3, 5976, Note_on_c, 0, 56, 0
3, 5976, Note_on_c, 0, 50, 0
3, 6000, Note_on_c, 0, 50, 15
3, 6000, Note_on_c, 0, 56, 15
3, 6000, Note_on_c, 0, 58, 18
3, 6216, Note_on_c, 0, 58, 0
3, 6216, Note_on_c, 0, 56, 0
3, 6216, Note_on_c, 0, 50, 0
3, 6240, Note_on_c, 0, 50, 15
3, 6240, Note_on_c, 0, 56, 15
3, 6240, Note_on_c, 0, 58, 18
3, 6456, Note_on_c, 0, 58, 0
3, 6456, Note_on_c, 0, 56, 0
3, 6456, Note_on_c, 0, 50, 0
3, 6480, Note_on_c, 0, 53, 18
3, 6480, Note_on_c, 0, 50, 18
3, 6480, Note_on_c, 0, 56, 18
3, 6480, Note_on_c, 0, 58, 22
3, 6696, Note_on_c, 0, 58, 0
3, 6696, Note_on_c, 0, 53, 0
3, 6696, Note_on_c, 0, 50, 0
3, 6696, Note_on_c, 0, 56, 0
3, 6720, Note_on_c, 0, 53, 15
3, 6720, Note_on_c, 0, 50, 15
3, 6720, Note_on_c, 0, 56, 15
3, 6720, Note_on_c, 0, 58, 18
3, 6936, Note_on_c, 0, 58, 0
3, 6936, Note_on_c, 0, 53, 0
3, 6936, Note_on_c, 0, 50, 0
3, 6936, Note_on_c, 0, 56, 0
3, 6960, Note_on_c, 0, 53, 15
3, 6960, Note_on_c, 0, 50, 15
3, 6960, Note_on_c, 0, 56, 15
3, 6960, Note_on_c, 0, 58, 18
3, 7176, Note_on_c, 0, 58, 0
3, 7176, Note_on_c, 0, 53, 0
3, 7176, Note_on_c, 0, 50, 0
3, 7176, Note_on_c, 0, 56, 0
3, 7200, Note_on_c, 0, 53, 17
3, 7200, Note_on_c, 0, 50, 17
3, 7200, Note_on_c, 0, 56, 17
3, 7200, Note_on_c, 0, 58, 20
3, 7416, Note_on_c, 0, 58, 0
3, 7416, Note_on_c, 0, 53, 0
3, 7416, Note_on_c, 0, 50, 0
3, 7416, Note_on_c, 0, 56, 0
3, 7440, Note_on_c, 0, 53, 15
3, 7440, Note_on_c, 0, 50, 15
3, 7440, Note_on_c, 0, 56, 15
3, 7440, Note_on_c, 0, 58, 18
3, 7656, Note_on_c, 0, 58, 0
3, 7656, Note_on_c, 0, 53, 0
3, 7656, Note_on_c, 0, 50, 0
3, 7656, Note_on_c, 0, 56, 0
3, 7680, Note_on_c, 0, 53, 15
3, 7680, Note_on_c, 0, 50, 15
3, 7680, Note_on_c, 0, 56, 15
3, 7680, Note_on_c, 0, 58, 18
3, 7896, Note_on_c, 0, 58, 0
3, 7896, Note_on_c, 0, 53, 0
3, 7896, Note_on_c, 0, 50, 0
3, 7896, Note_on_c, 0, 56, 0
3, 7920, Note_on_c, 0, 53, 18
3, 7920, Note_on_c, 0, 50, 18
3, 7920, Note_on_c, 0, 56, 18
3, 7920, Note_on_c, 0, 58, 21
3, 8136, Note_on_c, 0, 58, 0
3, 8136, Note_on_c, 0, 53, 0
3, 8136, Note_on_c, 0, 50, 0
3, 8136, Note_on_c, 0, 56, 0
3, 8160, Note_on_c, 0, 53, 15
3, 8160, Note_on_c, 0, 50, 15
3, 8160, Note_on_c, 0, 56, 15
3, 8160, Note_on_c, 0, 58, 18
3, 8376, Note_on_c, 0, 58, 0
3, 8376, Note_on_c, 0, 53, 0
3, 8376, Note_on_c, 0, 50, 0
3, 8376, Note_on_c, 0, 56, 0
3, 8400, Note_on_c, 0, 53, 15
3, 8400, Note_on_c, 0, 50, 15
3, 8400, Note_on_c, 0, 56, 15
3, 8400, Note_on_c, 0, 58, 18
3, 8616, Note_on_c, 0, 58, 0
3, 8616, Note_on_c, 0, 53, 0
3, 8616, Note_on_c, 0, 50, 0
3, 8616, Note_on_c, 0, 56, 0
3, 8640, Note_on_c, 0, 51, 18
3, 8640, Note_on_c, 0, 56, 18
3, 8640, Note_on_c, 0, 58, 22
3, 8856, Note_on_c, 0, 58, 0
3, 8856, Note_on_c, 0, 56, 0
3, 8856, Note_on_c, 0, 51, 0
3, 8880, Note_on_c, 0, 51, 15
3, 8880, Note_on_c, 0, 56, 15
3, 8880, Note_on_c, 0, 58, 18
3, 9096, Note_on_c, 0, 58, 0
3, 9096, Note_on_c, 0, 56, 0
3, 9096, Note_on_c, 0, 51, 0
3, 9120, Note_on_c, 0, 51, 15
3, 9120, Note_on_c, 0, 56, 15
3, 9120, Note_on_c, 0, 58, 18
3, 9336, Note_on_c, 0, 58, 0
3, 9336, Note_on_c, 0, 56, 0
3, 9336, Note_on_c, 0, 51, 0
3, 9360, Note_on_c, 0, 51, 17
3, 9360, Note_on_c, 0, 55, 17
3, 9360, Note_on_c, 0, 58, 20
3, 9576, Note_on_c, 0, 58, 0
3, 9576, Note_on_c, 0, 55, 0
3, 9576, Note_on_c, 0, 51, 0
3, 9600, Note_on_c, 0, 51, 15
3, 9600, Note_on_c, 0, 55, 15
3, 9600, Note_on_c, 0, 58, 18
3, 9816, Note_on_c, 0, 58, 0
3, 9816, Note_on_c, 0, 55, 0
3, 9816, Note_on_c, 0, 51, 0
3, 9840, Note_on_c, 0, 51, 15
3, 9840, Note_on_c, 0, 55, 15
3, 9840, Note_on_c, 0, 58, 18
3, 10056, Note_on_c, 0, 58, 0
3, 10056, Note_on_c, 0, 55, 0
3, 10056, Note_on_c, 0, 51, 0
3, 10080, Note_on_c, 0, 51, 36
3, 10320, Note_on_c, 0, 51, 0
3, 10320, Note_on_c, 0, 46, 40
3, 10560, Note_on_c, 0, 46, 0
3, 10560, Note_on_c, 0, 44, 43
3, 10800, Note_on_c, 0, 44, 0
3, 10800, Note_on_c, 0, 43, 48
3, 11040, Note_on_c, 0, 43, 0
3, 11040, Note_on_c, 0, 43, 29
3, 11040, Note_on_c, 0, 46, 29
3, 11040, Note_on_c, 0, 51, 35
3, 11256, Note_on_c, 0, 51, 0
3, 11256, Note_on_c, 0, 46, 0
3, 11256, Note_on_c, 0, 43, 0
3, 11280, Note_on_c, 0, 43, 29
3, 11280, Note_on_c, 0, 46, 29
3, 11280, Note_on_c, 0, 51, 35
3, 11496, Note_on_c, 0, 51, 0
3, 11496, Note_on_c, 0, 46, 0
3, 11496, Note_on_c, 0, 43, 0
3, 11520, Note_on_c, 0, 43, 29
3, 11520, Note_on_c, 0, 46, 29
3, 11520, Note_on_c, 0, 51, 35
3, 11736, Note_on_c, 0, 51, 0
3, 11736, Note_on_c, 0, 46, 0
3, 11736, Note_on_c, 0, 43, 0
3, 11760, Note_on_c, 0, 43, 27
3, 11760, Note_on_c, 0, 46, 27
3, 11760, Note_on_c, 0, 51, 32
3, 11976, Note_on_c, 0, 51, 0
3, 11976, Note_on_c, 0, 46, 0
3, 11976, Note_on_c, 0, 43, 0
3, 12000, Note_on_c, 0, 43, 27
3, 12000, Note_on_c, 0, 46, 27
3, 12000, Note_on_c, 0, 51, 32
3, 12216, Note_on_c, 0, 51, 0
3, 12216, Note_on_c, 0, 46, 0
3, 12216, Note_on_c, 0, 43, 0
3, 12240, Note_on_c, 0, 43, 29
3, 12240, Note_on_c, 0, 46, 29
3, 12240, Note_on_c, 0, 51, 35
3, 12456, Note_on_c, 0, 51, 0
3, 12456, Note_on_c, 0, 46, 0
3, 12456, Note_on_c, 0, 43, 0
3, 12480, Note_on_c, 0, 43, 25
3, 12480, Note_on_c, 0, 46, 25
3, 12480, Note_on_c, 0, 51, 30
3, 12696, Note_on_c, 0, 51, 0
3, 12696, Note_on_c, 0, 46, 0
3, 12696, Note_on_c, 0, 43, 0
3, 12720, Note_on_c, 0, 43, 25
3, 12720, Note_on_c, 0, 46, 25
3, 12720, Note_on_c, 0, 51, 30
3, 12936, Note_on_c, 0, 51, 0
3, 12936, Note_on_c, 0, 46, 0
3, 12936, Note_on_c, 0, 43, 0
3, 12960, Note_on_c, 0, 44, 31
3, 12960, Note_on_c, 0, 48, 31
3, 12960, Note_on_c, 0, 51, 38
3, 13176, Note_on_c, 0, 51, 0
3, 13176, Note_on_c, 0, 48, 0
3, 13176, Note_on_c, 0, 44, 0
3, 13200, Note_on_c, 0, 44, 27
3, 13200, Note_on_c, 0, 48, 27
3, 13200, Note_on_c, 0, 51, 33
3, 13416, Note_on_c, 0, 51, 0
3, 13416, Note_on_c, 0, 48, 0
3, 13416, Note_on_c, 0, 44, 0
3, 13440, Note_on_c, 0, 44, 27
3, 13440, Note_on_c, 0, 48, 27
3, 13440, Note_on_c, 0, 51, 33
3, 13656, Note_on_c, 0, 51, 0
3, 13656, Note_on_c, 0, 48, 0
3, 13656, Note_on_c, 0, 44, 0
3, 13680, Note_on_c, 0, 44, 31
3, 13680, Note_on_c, 0, 48, 31
3, 13680, Note_on_c, 0, 52, 38
3, 13896, Note_on_c, 0, 52, 0
3, 13896, Note_on_c, 0, 48, 0
3, 13896, Note_on_c, 0, 44, 0
3, 13920, Note_on_c, 0, 44, 27
3, 13920, Note_on_c, 0, 48, 27
3, 13920, Note_on_c, 0, 52, 33
3, 14136, Note_on_c, 0, 52, 0
3, 14136, Note_on_c, 0, 48, 0
3, 14136, Note_on_c, 0, 44, 0
3, 14160, Note_on_c, 0, 44, 27
3, 14160, Note_on_c, 0, 48, 27
3, 14160, Note_on_c, 0, 52, 33
3, 14376, Note_on_c, 0, 52, 0
3, 14376, Note_on_c, 0, 48, 0
3, 14376, Note_on_c, 0, 44, 0
3, 14400, Note_on_c, 0, 44, 31
3, 14400, Note_on_c, 0, 48, 31
3, 14400, Note_on_c, 0, 53, 38
3, 14616, Note_on_c, 0, 53, 0
3, 14616, Note_on_c, 0, 48, 0
3, 14616, Note_on_c, 0, 44, 0
3, 14640, Note_on_c, 0, 44, 25
3, 14640, Note_on_c, 0, 48, 25
3, 14640, Note_on_c, 0, 53, 30
3, 14856, Note_on_c, 0, 53, 0
3, 14856, Note_on_c, 0, 48, 0
3, 14856, Note_on_c, 0, 44, 0
3, 14880, Note_on_c, 0, 44, 25
3, 14880, Note_on_c, 0, 48, 25
3, 14880, Note_on_c, 0, 53, 30
3, 15096, Note_on_c, 0, 53, 0
3, 15096, Note_on_c, 0, 48, 0
3, 15096, Note_on_c, 0, 44, 0
3, 15120, Note_on_c, 0, 46, 29
3, 15120, Note_on_c, 0, 51, 29
3, 15120, Note_on_c, 0, 55, 35
3, 15336, Note_on_c, 0, 55, 0
3, 15336, Note_on_c, 0, 51, 0
3, 15336, Note_on_c, 0, 46, 0
3, 15360, Note_on_c, 0, 46, 23
3, 15360, Note_on_c, 0, 51, 23
3, 15360, Note_on_c, 0, 55, 28
3, 15576, Note_on_c, 0, 55, 0
3, 15576, Note_on_c, 0, 51, 0
3, 15576, Note_on_c, 0, 46, 0
3, 15600, Note_on_c, 0, 46, 23
3, 15600, Note_on_c, 0, 51, 23
3, 15600, Note_on_c, 0, 55, 28
3, 15816, Note_on_c, 0, 55, 0
3, 15816, Note_on_c, 0, 51, 0
3, 15816, Note_on_c, 0, 46, 0
3, 15840, Note_on_c, 0, 46, 20
3, 15840, Note_on_c, 0, 51, 20
3, 15840, Note_on_c, 0, 55, 25
3, 16056, Note_on_c, 0, 55, 0
3, 16056, Note_on_c, 0, 51, 0
3, 16056, Note_on_c, 0, 46, 0
3, 16080, Note_on_c, 0, 46, 18
3, 16080, Note_on_c, 0, 51, 18
3, 16080, Note_on_c, 0, 55, 21
3, 16296, Note_on_c, 0, 55, 0
3, 16296, Note_on_c, 0, 51, 0
3, 16296, Note_on_c, 0, 46, 0
3, 16320, Note_on_c, 0, 46, 17
3, 16320, Note_on_c, 0, 51, 17
3, 16320, Note_on_c, 0, 55, 21
3, 16536, Note_on_c, 0, 55, 0
3, 16536, Note_on_c, 0, 51, 0
3, 16536, Note_on_c, 0, 46, 0
3, 16560, Note_on_c, 0, 46, 20
3, 16560, Note_on_c, 0, 53, 20
3, 16560, Note_on_c, 0, 56, 24
3, 16776, Note_on_c, 0, 56, 0
3, 16776, Note_on_c, 0, 53, 0
3, 16776, Note_on_c, 0, 46, 0
3, 16800, Note_on_c, 0, 46, 17
3, 16800, Note_on_c, 0, 53, 17
3, 16800, Note_on_c, 0, 56, 20
3, 17016, Note_on_c, 0, 56, 0
3, 17016, Note_on_c, 0, 53, 0
3, 17016, Note_on_c, 0, 46, 0
3, 17040, Note_on_c, 0, 46, 16
3, 17040, Note_on_c, 0, 53, 16
3, 17040, Note_on_c, 0, 56, 20
3, 17256, Note_on_c, 0, 56, 0
3, 17256, Note_on_c, 0, 53, 0
3, 17256, Note_on_c, 0, 46, 0
3, 17280, Note_on_c, 0, 51, 26
3, 17280, Note_on_c, 0, 55, 31
3, 17760, Note_on_c, 0, 55, 0
3, 17760, Note_on_c, 0, 51, 0
3, 18720, Note_on_c, 0, 46, 26
3, 18720, Note_on_c, 0, 58, 31
3, 19200, Note_on_c, 0, 58, 0
3, 19200, Note_on_c, 0, 56, 29
3, 19440, Note_on_c, 0, 56, 0
3, 19440, Note_on_c, 0, 46, 0
3, 19440, Note_on_c, 0, 51, 26
3, 19440, Note_on_c, 0, 55, 31
3, 19920, Note_on_c, 0, 55, 0
3, 19920, Note_on_c, 0, 51, 0
3, 20880, Note_on_c, 0, 46, 31
3, 20880, Note_on_c, 0, 34, 26
3, 21360, Note_on_c, 0, 46, 0
3, 21360, Note_on_c, 0, 44, 22
3, 21360, Note_on_c, 0, 53, 27
3, 21600, Note_on_c, 0, 53, 0
3, 21600, Note_on_c, 0, 44, 0
3, 21600, Note_on_c, 0, 34, 0
3, 21600, Note_on_c, 0, 39, 20
3, 21600, Note_on_c, 0, 43, 24
3, 22080, Note_on_c, 0, 43, 0
3, 22080, Note_on_c, 0, 39, 0
3, 22080, Note_on_c, 0, 34, 27
3, 22080, Note_on_c, 0, 44, 32
3, 22320, Note_on_c, 0, 44, 0
3, 22320, Note_on_c, 0, 34, 0
3, 22320, Note_on_c, 0, 39, 22
3, 22320, Note_on_c, 0, 43, 26
3, 22800, Note_on_c, 0, 43, 0
3, 22800, Note_on_c, 0, 39, 0
3, 22800, Note_on_c, 0, 34, 28
3, 22800, Note_on_c, 0, 44, 34
3, 23040, Note_on_c, 0, 44, 0
3, 23040, Note_on_c, 0, 34, 0
3, 23040, Note_on_c, 0, 39, 21
3, 23040, Note_on_c, 0, 43, 25
3, 23520, Note_on_c, 0, 43, 0
3, 23520, Note_on_c, 0, 39, 0
3, 23520, Note_on_c, 0, 34, 29
3, 23520, Note_on_c, 0, 44, 35
3, 23740, Note_on_c, 0, 44, 0
3, 23740, Note_on_c, 0, 34, 0
3, 23760, Note_on_c, 0, 39, 21
3, 23760, Note_on_c, 0, 44, 25
3, 24470, Note_on_c, 0, 39, 0
3, 24480, Note_on_c, 0, 44, 0
3, 24480, Note_on_c, 0, 39, 19
3, 24480, Note_on_c, 0, 43, 23
3, 24960, Note_on_c, 0, 43, 0
3, 24960, Note_on_c, 0, 39, 0
3, 25920, Note_on_c, 0, 39, 32
3, 26160, Note_on_c, 0, 39, 0
3, 26160, Note_on_c, 0, 43, 32
3, 26400, Note_on_c, 0, 43, 0
3, 26400, Note_on_c, 0, 46, 32
3, 26640, Note_on_c, 0, 46, 0
3, 26640, Note_on_c, 0, 51, 36
3, 26880, Note_on_c, 0, 51, 0
3, 26880, Note_on_c, 0, 55, 38
3, 27120, Note_on_c, 0, 55, 0
3, 27120, Note_on_c, 0, 58, 40
3, 27350, Note_on_c, 0, 58, 0
3, 27360, Note_on_c, 0, 46, 36
3, 27360, Note_on_c, 0, 58, 43
3, 27840, Note_on_c, 0, 58, 0
3, 27840, Note_on_c, 0, 46, 0
3, 27840, Note_on_c, 0, 46, 33
3, 27840, Note_on_c, 0, 56, 39
3, 28070, Note_on_c, 0, 56, 0
3, 28070, Note_on_c, 0, 46, 0
3, 28080, Note_on_c, 0, 51, 32
3, 28080, Note_on_c, 0, 56, 38
3, 28800, Note_on_c, 0, 56, 0
3, 28800, Note_on_c, 0, 55, 30
3, 29040, Note_on_c, 0, 55, 0
3, 29040, Note_on_c, 0, 51, 0
3, 30240, Note_on_c, 0, 39, 37
3, 30480, Note_on_c, 0, 39, 0
3, 30480, Note_on_c, 0, 43, 40
3, 30720, Note_on_c, 0, 43, 0
3, 30720, Note_on_c, 0, 46, 44
3, 30960, Note_on_c, 0, 46, 0
3, 30960, Note_on_c, 0, 51, 49
3, 31200, Note_on_c, 0, 51, 0
3, 31200, Note_on_c, 0, 55, 53
3, 31440, Note_on_c, 0, 55, 0
3, 31440, Note_on_c, 0, 58, 57
3, 31670, Note_on_c, 0, 58, 0
3, 31680, Note_on_c, 0, 63, 62
3, 31920, Note_on_c, 0, 63, 0
3, 31920, Note_on_c, 0, 60, 58
3, 32160, Note_on_c, 0, 60, 0
3, 32160, Note_on_c, 0, 58, 54
3, 32390, Note_on_c, 0, 58, 0
3, 32400, Note_on_c, 0, 57, 53
3, 33120, Note_on_c, 0, 57, 0
3, 33120, Note_on_c, 0, 56, 43
3, 33840, Note_on_c, 0, 56, 0
3, 33840, Note_on_c, 0, 58, 40
3, 34560, Note_on_c, 0, 58, 0
3, 34560, Note_on_c, 0, 51, 35
3, 35280, Note_on_c, 0, 51, 0
3, 35280, Note_on_c, 0, 52, 35
3, 36000, Note_on_c, 0, 52, 0
3, 36000, Note_on_c, 0, 53, 35
3, 36720, Note_on_c, 0, 53, 0
3, 36720, Note_on_c, 0, 34, 35
3, 36960, Note_on_c, 0, 46, 29
3, 37176, Note_on_c, 0, 46, 0
3, 37200, Note_on_c, 0, 46, 29
3, 37416, Note_on_c, 0, 46, 0
3, 37440, Note_on_c, 0, 46, 32
3, 37656, Note_on_c, 0, 46, 0
3, 37680, Note_on_c, 0, 46, 29
3, 37896, Note_on_c, 0, 46, 0
3, 37920, Note_on_c, 0, 46, 29
3, 38136, Note_on_c, 0, 46, 0
3, 38160, Note_on_c, 0, 46, 32
3, 38376, Note_on_c, 0, 46, 0
3, 38400, Note_on_c, 0, 46, 27
3, 38616, Note_on_c, 0, 46, 0
3, 38640, Note_on_c, 0, 46, 27
3, 38856, Note_on_c, 0, 46, 0
3, 38880, Note_on_c, 0, 34, 0
3, 38880, Note_on_c, 0, 46, 32
3, 39096, Note_on_c, 0, 46, 0
3, 39120, Note_on_c, 0, 46, 28
3, 39336, Note_on_c, 0, 46, 0
3, 39360, Note_on_c, 0, 46, 28
3, 39576, Note_on_c, 0, 46, 0
3, 39600, Note_on_c, 0, 46, 32
3, 39816, Note_on_c, 0, 46, 0
3, 39840, Note_on_c, 0, 46, 28
3, 40056, Note_on_c, 0, 46, 0
3, 40080, Note_on_c, 0, 46, 28
3, 40296, Note_on_c, 0, 46, 0
3, 40320, Note_on_c, 0, 46, 32
3, 40536, Note_on_c, 0, 46, 0
3, 40560, Note_on_c, 0, 46, 28
3, 40776, Note_on_c, 0, 46, 0
3, 40800, Note_on_c, 0, 46, 28
3, 41016, Note_on_c, 0, 46, 0
3, 41040, Note_on_c, 0, 46, 32
3, 41256, Note_on_c, 0, 46, 0
3, 41280, Note_on_c, 0, 46, 28
3, 41496, Note_on_c, 0, 46, 0
3, 41520, Note_on_c, 0, 46, 28
3, 41736, Note_on_c, 0, 46, 0
3, 41760, Note_on_c, 0, 46, 32
3, 41976, Note_on_c, 0, 46, 0
3, 42000, Note_on_c, 0, 46, 28
3, 42216, Note_on_c, 0, 46, 0
3, 42240, Note_on_c, 0, 46, 28
3, 42456, Note_on_c, 0, 46, 0
3, 42480, Note_on_c, 0, 46, 32
3, 42696, Note_on_c, 0, 46, 0
3, 42720, Note_on_c, 0, 46, 28
3, 42936, Note_on_c, 0, 46, 0
3, 42960, Note_on_c, 0, 46, 28
3, 43176, Note_on_c, 0, 46, 0
3, 43200, Note_on_c, 0, 46, 32
3, 43416, Note_on_c, 0, 46, 0
3, 43440, Note_on_c, 0, 46, 28
3, 43656, Note_on_c, 0, 46, 0
3, 43680, Note_on_c, 0, 46, 28
3, 43896, Note_on_c, 0, 46, 0
3, 43920, Note_on_c, 0, 46, 32
3, 44136, Note_on_c, 0, 46, 0
3, 44160, Note_on_c, 0, 46, 28
3, 44376, Note_on_c, 0, 46, 0
3, 44400, Note_on_c, 0, 46, 28
3, 44616, Note_on_c, 0, 46, 0
3, 44640, Note_on_c, 0, 46, 32
3, 44856, Note_on_c, 0, 46, 0
3, 44880, Note_on_c, 0, 46, 28
3, 45096, Note_on_c, 0, 46, 0
3, 45120, Note_on_c, 0, 46, 28
3, 45336, Note_on_c, 0, 46, 0
3, 45360, Note_on_c, 0, 46, 32
3, 45840, Note_on_c, 0, 46, 0
3, 46080, Note_on_c, 0, 58, 28
3, 46080, Note_on_c, 0, 53, 23
3, 46080, Note_on_c, 0, 50, 23
3, 46560, Note_on_c, 0, 50, 0
3, 46560, Note_on_c, 0, 53, 0
3, 46560, Note_on_c, 0, 58, 0
3, 46800, Note_on_c, 0, 62, 23
3, 46800, Note_on_c, 0, 65, 23
3, 46800, Note_on_c, 0, 70, 28
3, 47280, Note_on_c, 0, 70, 0
3, 47280, Note_on_c, 0, 65, 0
3, 47280, Note_on_c, 0, 62, 0
3, 47520, Note_on_c, 0, 63, 23
3, 47520, Note_on_c, 0, 67, 23
3, 47520, Note_on_c, 0, 70, 28
3, 48000, Note_on_c, 0, 70, 0
3, 48000, Note_on_c, 0, 67, 0
3, 48000, Note_on_c, 0, 63, 0
3, 48240, Note_on_c, 0, 63, 28
3, 48240, Note_on_c, 0, 58, 23
3, 48240, Note_on_c, 0, 55, 23
3, 48720, Note_on_c, 0, 55, 0
3, 48720, Note_on_c, 0, 58, 0
3, 48720, Note_on_c, 0, 63, 0
3, 48960, Note_on_c, 0, 52, 23
3, 48960, Note_on_c, 0, 60, 28
3, 48960, Note_on_c, 0, 58, 23
3, 49440, Note_on_c, 0, 58, 0
3, 49440, Note_on_c, 0, 60, 0
3, 49440, Note_on_c, 0, 52, 0
3, 49680, Note_on_c, 0, 53, 35
3, 49920, Note_on_c, 0, 62, 29
3, 49920, Note_on_c, 0, 58, 24
3, 50160, Note_on_c, 0, 58, 0
3, 50160, Note_on_c, 0, 62, 0
3, 50160, Note_on_c, 0, 62, 31
3, 50160, Note_on_c, 0, 58, 25
3, 50400, Note_on_c, 0, 58, 0
3, 50400, Note_on_c, 0, 62, 0
3, 50400, Note_on_c, 0, 58, 32
3, 50400, Note_on_c, 0, 62, 39
3, 50640, Note_on_c, 0, 62, 0
3, 50640, Note_on_c, 0, 58, 0
3, 50640, Note_on_c, 0, 58, 35
3, 50640, Note_on_c, 0, 62, 42
3, 50880, Note_on_c, 0, 62, 0
3, 50880, Note_on_c, 0, 58, 0
3, 50880, Note_on_c, 0, 58, 39
3, 50880, Note_on_c, 0, 62, 46
3, 51110, Note_on_c, 0, 53, 0
3, 51120, Note_on_c, 0, 62, 0
3, 51120, Note_on_c, 0, 58, 0
3, 51120, Note_on_c, 0, 53, 37
3, 51120, Note_on_c, 0, 63, 44
3, 51120, Note_on_c, 0, 57, 37
3, 51360, Note_on_c, 0, 57, 0
3, 51360, Note_on_c, 0, 63, 0
3, 51360, Note_on_c, 0, 57, 33
3, 51360, Note_on_c, 0, 63, 39
3, 51600, Note_on_c, 0, 63, 0
3, 51600, Note_on_c, 0, 57, 0
3, 51600, Note_on_c, 0, 57, 32
3, 51600, Note_on_c, 0, 63, 38
3, 51840, Note_on_c, 0, 63, 0
3, 51840, Note_on_c, 0, 57, 0
3, 51840, Note_on_c, 0, 53, 0
3, 51840, Note_on_c, 0, 62, 40
3, 51840, Note_on_c, 0, 58, 38
3, 52320, Note_on_c, 0, 58, 0
3, 52320, Note_on_c, 0, 62, 0
3, 54000, Note_on_c, 0, 41, 35
3, 54240, Note_on_c, 0, 50, 29
3, 54240, Note_on_c, 0, 46, 24
3, 54480, Note_on_c, 0, 46, 0
3, 54480, Note_on_c, 0, 50, 0
3, 54480, Note_on_c, 0, 50, 30
3, 54480, Note_on_c, 0, 46, 25
3, 54720, Note_on_c, 0, 46, 0
3, 54720, Note_on_c, 0, 50, 0
3, 54720, Note_on_c, 0, 46, 31
3, 54720, Note_on_c, 0, 50, 38
3, 54960, Note_on_c, 0, 50, 0
3, 54960, Note_on_c, 0, 46, 0
3, 54960, Note_on_c, 0, 46, 34
3, 54960, Note_on_c, 0, 50, 41
3, 55200, Note_on_c, 0, 50, 0
3, 55200, Note_on_c, 0, 46, 0
3, 55200, Note_on_c, 0, 46, 38
3, 55200, Note_on_c, 0, 50, 45
3, 55430, Note_on_c, 0, 41, 0
3, 55440, Note_on_c, 0, 50, 0
3, 55440, Note_on_c, 0, 46, 0
3, 55440, Note_on_c, 0, 41, 45
3, 55440, Note_on_c, 0, 51, 54
3, 55440, Note_on_c, 0, 45, 45
3, 55680, Note_on_c, 0, 45, 0
3, 55680, Note_on_c, 0, 51, 0
3, 55680, Note_on_c, 0, 48, 33
3, 55680, Note_on_c, 0, 51, 39
3, 55920, Note_on_c, 0, 51, 0
3, 55920, Note_on_c, 0, 48, 0
3, 55920, Note_on_c, 0, 48, 32
3, 55920, Note_on_c, 0, 51, 38
3, 56160, Note_on_c, 0, 51, 0
3, 56160, Note_on_c, 0, 48, 0
3, 56160, Note_on_c, 0, 41, 0
3, 56160, Note_on_c, 0, 46, 44
3, 56400, Note_on_c, 0, 46, 0
3, 56400, Note_on_c, 0, 50, 39
3, 56640, Note_on_c, 0, 50, 0
3, 56640, Note_on_c, 0, 53, 39
3, 56880, Note_on_c, 0, 53, 0
3, 56880, Note_on_c, 0, 58, 44
3, 57120, Note_on_c, 0, 58, 0
3, 57120, Note_on_c, 0, 62, 38
3, 57360, Note_on_c, 0, 62, 0
3, 57360, Note_on_c, 0, 64, 38
3, 57600, Note_on_c, 0, 64, 0
3, 57600, Note_on_c, 0, 65, 44
3, 58080, Note_on_c, 0, 65, 0
3, 58080, Note_on_c, 0, 60, 44
3, 58080, Note_on_c, 0, 53, 37
3, 58260, Note_on_c, 0, 60, 0
3, 58260, Note_on_c, 0, 63, 40
3, 58320, Note_on_c, 0, 63, 0
3, 58320, Note_on_c, 0, 53, 0
3, 58320, Note_on_c, 0, 34, 44
3, 58560, Note_on_c, 0, 34, 0
3, 58560, Note_on_c, 0, 38, 39
3, 58800, Note_on_c, 0, 38, 0
3, 58800, Note_on_c, 0, 41, 39
3, 59040, Note_on_c, 0, 41, 0
3, 59040, Note_on_c, 0, 46, 44
3, 59280, Note_on_c, 0, 46, 0
3, 59280, Note_on_c, 0, 50, 38
3, 59520, Note_on_c, 0, 50, 0
3, 59520, Note_on_c, 0, 52, 34
3, 59760, Note_on_c, 0, 52, 0
3, 59760, Note_on_c, 0, 53, 39
3, 60240, Note_on_c, 0, 53, 0
3, 60240, Note_on_c, 0, 48, 39
3, 60240, Note_on_c, 0, 41, 33
3, 60420, Note_on_c, 0, 48, 0
3, 60420, Note_on_c, 0, 51, 36
3, 60480, Note_on_c, 0, 51, 0
3, 60480, Note_on_c, 0, 41, 0
3, 60480, Note_on_c, 0, 46, 34
3, 60480, Note_on_c, 0, 50, 40
3, 60720, Note_on_c, 0, 50, 0
3, 60720, Note_on_c, 0, 46, 0
3, 60720, Note_on_c, 0, 41, 33
3, 60720, Note_on_c, 0, 48, 39
3, 61080, Note_on_c, 0, 48, 0
3, 61080, Note_on_c, 0, 51, 34
3, 61200, Note_on_c, 0, 51, 0
3, 61200, Note_on_c, 0, 41, 0
3, 61200, Note_on_c, 0, 46, 34
3, 61200, Note_on_c, 0, 50, 40
3, 61440, Note_on_c, 0, 50, 0
3, 61440, Note_on_c, 0, 46, 0
3, 61440, Note_on_c, 0, 41, 33
3, 61440, Note_on_c, 0, 48, 39
3, 61800, Note_on_c, 0, 48, 0
3, 61800, Note_on_c, 0, 51, 34
3, 61920, Note_on_c, 0, 51, 0
3, 61920, Note_on_c, 0, 41, 0
3, 61920, Note_on_c, 0, 46, 34
3, 61920, Note_on_c, 0, 50, 40
3, 62160, Note_on_c, 0, 50, 0
3, 62160, Note_on_c, 0, 46, 0
3, 62160, Note_on_c, 0, 41, 38
3, 62160, Note_on_c, 0, 48, 45
3, 62280, Note_on_c, 0, 48, 0
3, 62280, Note_on_c, 0, 47, 42
3, 62400, Note_on_c, 0, 47, 0
3, 62400, Note_on_c, 0, 41, 0
3, 62400, Note_on_c, 0, 41, 39
3, 62400, Note_on_c, 0, 48, 52
3, 62520, Note_on_c, 0, 48, 0
3, 62520, Note_on_c, 0, 51, 48
3, 62640, Note_on_c, 0, 51, 0
3, 62640, Note_on_c, 0, 41, 0
3, 62760, Note_on_c, 0, 46, 29
3, 62760, Note_on_c, 0, 51, 35
3, 63360, Note_on_c, 0, 51, 0
3, 63360, Note_on_c, 0, 50, 35
3, 63840, Note_on_c, 0, 50, 0
3, 63840, Note_on_c, 0, 46, 0
3, 64800, Note_on_c, 0, 43, 25
3, 64800, Note_on_c, 0, 31, 21
3, 65016, Note_on_c, 0, 31, 0
3, 65016, Note_on_c, 0, 43, 0
3, 65040, Note_on_c, 0, 31, 17
3, 65040, Note_on_c, 0, 43, 21
3, 65256, Note_on_c, 0, 43, 0
3, 65256, Note_on_c, 0, 31, 0
3, 65280, Note_on_c, 0, 31, 17
3, 65280, Note_on_c, 0, 43, 21
3, 65496, Note_on_c, 0, 43, 0
3, 65496, Note_on_c, 0, 31, 0
3, 65520, Note_on_c, 0, 31, 17
3, 65520, Note_on_c, 0, 43, 21
3, 65736, Note_on_c, 0, 43, 0
3, 65736, Note_on_c, 0, 31, 0
3, 65760, Note_on_c, 0, 31, 17
3, 65760, Note_on_c, 0, 43, 21
3, 65976, Note_on_c, 0, 43, 0
3, 65976, Note_on_c, 0, 31, 0
3, 66000, Note_on_c, 0, 31, 17
3, 66000, Note_on_c, 0, 43, 21
3, 66216, Note_on_c, 0, 43, 0
3, 66216, Note_on_c, 0, 31, 0
3, 66240, Note_on_c, 0, 31, 17
3, 66240, Note_on_c, 0, 43, 21
3, 66456, Note_on_c, 0, 43, 0
3, 66456, Note_on_c, 0, 31, 0
3, 66480, Note_on_c, 0, 31, 17
3, 66480, Note_on_c, 0, 43, 21
3, 66696, Note_on_c, 0, 43, 0
3, 66696, Note_on_c, 0, 31, 0
3, 66720, Note_on_c, 0, 31, 17
3, 66720, Note_on_c, 0, 43, 21
3, 66936, Note_on_c, 0, 43, 0
3, 66936, Note_on_c, 0, 31, 0
3, 66960, Note_on_c, 0, 43, 25
3, 66960, Note_on_c, 0, 31, 21
3, 67176, Note_on_c, 0, 31, 0
3, 67176, Note_on_c, 0, 43, 0
3, 67200, Note_on_c, 0, 31, 17
3, 67200, Note_on_c, 0, 43, 21
3, 67416, Note_on_c, 0, 43, 0
3, 67416, Note_on_c, 0, 31, 0
3, 67440, Note_on_c, 0, 31, 17
3, 67440, Note_on_c, 0, 43, 21
3, 67656, Note_on_c, 0, 43, 0
3, 67656, Note_on_c, 0, 31, 0
3, 67680, Note_on_c, 0, 31, 17
3, 67680, Note_on_c, 0, 43, 21
3, 67896, Note_on_c, 0, 43, 0
3, 67896, Note_on_c, 0, 31, 0
3, 67920, Note_on_c, 0, 31, 17
3, 67920, Note_on_c, 0, 43, 21
3, 68136, Note_on_c, 0, 43, 0
3, 68136, Note_on_c, 0, 31, 0
3, 68160, Note_on_c, 0, 31, 17
3, 68160, Note_on_c, 0, 43, 21
3, 68376, Note_on_c, 0, 43, 0
3, 68376, Note_on_c, 0, 31, 0
3, 68400, Note_on_c, 0, 31, 17
3, 68400, Note_on_c, 0, 43, 21
3, 68616, Note_on_c, 0, 43, 0
3, 68616, Note_on_c, 0, 31, 0
3, 68640, Note_on_c, 0, 31, 17
3, 68640, Note_on_c, 0, 43, 21
3, 68856, Note_on_c, 0, 43, 0
3, 68856, Note_on_c, 0, 31, 0
3, 68880, Note_on_c, 0, 31, 17
3, 68880, Note_on_c, 0, 43, 21
3, 69096, Note_on_c, 0, 43, 0
3, 69096, Note_on_c, 0, 31, 0
3, 69120, Note_on_c, 0, 43, 25
3, 69120, Note_on_c, 0, 31, 21
3, 69336, Note_on_c, 0, 31, 0
3, 69336, Note_on_c, 0, 43, 0
3, 69360, Note_on_c, 0, 31, 17
3, 69360, Note_on_c, 0, 43, 21
3, 69576, Note_on_c, 0, 43, 0
3, 69576, Note_on_c, 0, 31, 0
3, 69600, Note_on_c, 0, 31, 17
3, 69600, Note_on_c, 0, 43, 21
3, 69816, Note_on_c, 0, 43, 0
3, 69816, Note_on_c, 0, 31, 0
3, 69840, Note_on_c, 0, 31, 17
3, 69840, Note_on_c, 0, 43, 21
3, 70056, Note_on_c, 0, 43, 0
3, 70056, Note_on_c, 0, 31, 0
3, 70080, Note_on_c, 0, 31, 17
3, 70080, Note_on_c, 0, 43, 21
3, 70296, Note_on_c, 0, 43, 0
3, 70296, Note_on_c, 0, 31, 0
3, 70320, Note_on_c, 0, 31, 17
3, 70320, Note_on_c, 0, 43, 21
3, 70536, Note_on_c, 0, 43, 0
3, 70536, Note_on_c, 0, 31, 0
3, 70560, Note_on_c, 0, 31, 17
3, 70560, Note_on_c, 0, 43, 21
3, 70776, Note_on_c, 0, 43, 0
3, 70776, Note_on_c, 0, 31, 0
3, 70800, Note_on_c, 0, 31, 17
3, 70800, Note_on_c, 0, 43, 21
3, 71016, Note_on_c, 0, 43, 0
3, 71016, Note_on_c, 0, 31, 0
3, 71040, Note_on_c, 0, 31, 17
3, 71040, Note_on_c, 0, 43, 21
3, 71256, Note_on_c, 0, 43, 0
3, 71256, Note_on_c, 0, 31, 0
3, 71280, Note_on_c, 0, 31, 48
3, 71280, Note_on_c, 0, 43, 60
3, 71520, Note_on_c, 0, 43, 0
3, 71520, Note_on_c, 0, 31, 0
3, 71520, Note_on_c, 0, 43, 20
3, 71520, Note_on_c, 0, 47, 20
3, 71520, Note_on_c, 0, 50, 20
3, 71520, Note_on_c, 0, 53, 26
3, 71736, Note_on_c, 0, 53, 0
3, 71736, Note_on_c, 0, 43, 0
3, 71736, Note_on_c, 0, 47, 0
3, 71736, Note_on_c, 0, 50, 0
3, 71760, Note_on_c, 0, 43, 20
3, 71760, Note_on_c, 0, 47, 20
3, 71760, Note_on_c, 0, 50, 20
3, 71760, Note_on_c, 0, 53, 26
3, 71976, Note_on_c, 0, 53, 0
3, 71976, Note_on_c, 0, 43, 0
3, 71976, Note_on_c, 0, 47, 0
3, 71976, Note_on_c, 0, 50, 0
3, 72000, Note_on_c, 0, 43, 23
3, 72000, Note_on_c, 0, 47, 23
3, 72000, Note_on_c, 0, 50, 23
3, 72000, Note_on_c, 0, 53, 29
3, 72216, Note_on_c, 0, 53, 0
3, 72216, Note_on_c, 0, 43, 0
3, 72216, Note_on_c, 0, 47, 0
3, 72216, Note_on_c, 0, 50, 0
3, 72240, Note_on_c, 0, 43, 20
3, 72240, Note_on_c, 0, 47, 20
3, 72240, Note_on_c, 0, 50, 20
3, 72240, Note_on_c, 0, 53, 26
3, 72456, Note_on_c, 0, 53, 0
3, 72456, Note_on_c, 0, 43, 0
3, 72456, Note_on_c, 0, 47, 0
3, 72456, Note_on_c, 0, 50, 0
3, 72480, Note_on_c, 0, 43, 20
3, 72480, Note_on_c, 0, 47, 20
3, 72480, Note_on_c, 0, 50, 20
3, 72480, Note_on_c, 0, 53, 26
3, 72696, Note_on_c, 0, 53, 0
3, 72696, Note_on_c, 0, 43, 0
3, 72696, Note_on_c, 0, 47, 0
3, 72696, Note_on_c, 0, 50, 0
3, 72720, Note_on_c, 0, 43, 24
3, 72720, Note_on_c, 0, 47, 24
3, 72720, Note_on_c, 0, 50, 24
3, 72720, Note_on_c, 0, 53, 30
3, 72936, Note_on_c, 0, 53, 0
3, 72936, Note_on_c, 0, 43, 0
3, 72936, Note_on_c, 0, 47, 0
3, 72936, Note_on_c, 0, 50, 0
3, 72960, Note_on_c, 0, 43, 23
3, 72960, Note_on_c, 0, 47, 23
3, 72960, Note_on_c, 0, 50, 23
3, 72960, Note_on_c, 0, 53, 30
3, 73176, Note_on_c, 0, 53, 0
3, 73176, Note_on_c, 0, 43, 0
3, 73176, Note_on_c, 0, 47, 0
3, 73176, Note_on_c, 0, 50, 0
3, 73200, Note_on_c, 0, 43, 24
3, 73200, Note_on_c, 0, 47, 24
3, 73200, Note_on_c, 0, 50, 24
3, 73200, Note_on_c, 0, 53, 31
3, 73416, Note_on_c, 0, 53, 0
3, 73416, Note_on_c, 0, 43, 0
3, 73416, Note_on_c, 0, 47, 0
3, 73416, Note_on_c, 0, 50, 0
3, 73440, Note_on_c, 0, 36, 48
3, 73440, Note_on_c, 0, 48, 60
3, 73680, Note_on_c, 0, 48, 0
3, 73680, Note_on_c, 0, 36, 0
3, 73680, Note_on_c, 0, 48, 20
3, 73680, Note_on_c, 0, 55, 20
3, 73680, Note_on_c, 0, 58, 26
3, 73896, Note_on_c, 0, 58, 0
3, 73896, Note_on_c, 0, 55, 0
3, 73896, Note_on_c, 0, 48, 0
3, 73920, Note_on_c, 0, 48, 20
3, 73920, Note_on_c, 0, 55, 20
3, 73920, Note_on_c, 0, 58, 26
3, 74136, Note_on_c, 0, 58, 0
3, 74136, Note_on_c, 0, 55, 0
3, 74136, Note_on_c, 0, 48, 0
3, 74160, Note_on_c, 0, 48, 23
3, 74160, Note_on_c, 0, 55, 23
3, 74160, Note_on_c, 0, 58, 29
3, 74376, Note_on_c, 0, 58, 0
3, 74376, Note_on_c, 0, 55, 0
3, 74376, Note_on_c, 0, 48, 0
3, 74400, Note_on_c, 0, 48, 20
3, 74400, Note_on_c, 0, 55, 20
3, 74400, Note_on_c, 0, 58, 26
3, 74616, Note_on_c, 0, 58, 0
3, 74616, Note_on_c, 0, 55, 0
3, 74616, Note_on_c, 0, 48, 0
3, 74640, Note_on_c, 0, 48, 20
3, 74640, Note_on_c, 0, 55, 20
3, 74640, Note_on_c, 0, 58, 26
3, 74856, Note_on_c, 0, 58, 0
3, 74856, Note_on_c, 0, 55, 0
3, 74856, Note_on_c, 0, 48, 0
3, 74880, Note_on_c, 0, 48, 24
3, 74880, Note_on_c, 0, 55, 24
3, 74880, Note_on_c, 0, 58, 30
3, 75096, Note_on_c, 0, 58, 0
3, 75096, Note_on_c, 0, 55, 0
3, 75096, Note_on_c, 0, 48, 0
3, 75120, Note_on_c, 0, 48, 23
3, 75120, Note_on_c, 0, 55, 23
3, 75120, Note_on_c, 0, 58, 30
3, 75336, Note_on_c, 0, 58, 0
3, 75336, Note_on_c, 0, 55, 0
3, 75336, Note_on_c, 0, 48, 0
3, 75360, Note_on_c, 0, 48, 24
3, 75360, Note_on_c, 0, 55, 24
3, 75360, Note_on_c, 0, 58, 31
3, 75576, Note_on_c, 0, 58, 0
3, 75576, Note_on_c, 0, 55, 0
3, 75576, Note_on_c, 0, 48, 0
3, 75600, Note_on_c, 0, 41, 48
3, 75600, Note_on_c, 0, 53, 60
3, 75840, Note_on_c, 0, 53, 0
3, 75840, Note_on_c, 0, 41, 0
3, 75840, Note_on_c, 0, 53, 20
3, 75840, Note_on_c, 0, 60, 20
3, 75840, Note_on_c, 0, 63, 26
3, 76056, Note_on_c, 0, 63, 0
3, 76056, Note_on_c, 0, 60, 0
3, 76056, Note_on_c, 0, 53, 0
3, 76080, Note_on_c, 0, 53, 20
3, 76080, Note_on_c, 0, 60, 20
3, 76080, Note_on_c, 0, 63, 26
3, 76296, Note_on_c, 0, 63, 0
3, 76296, Note_on_c, 0, 60, 0
3, 76296, Note_on_c, 0, 53, 0
3, 76320, Note_on_c, 0, 53, 23
3, 76320, Note_on_c, 0, 60, 23
3, 76320, Note_on_c, 0, 63, 29
3, 76536, Note_on_c, 0, 63, 0
3, 76536, Note_on_c, 0, 60, 0
3, 76536, Note_on_c, 0, 53, 0
3, 76560, Note_on_c, 0, 53, 20
3, 76560, Note_on_c, 0, 60, 20
3, 76560, Note_on_c, 0, 63, 26
3, 76776, Note_on_c, 0, 63, 0
3, 76776, Note_on_c, 0, 60, 0
3, 76776, Note_on_c, 0, 53, 0
3, 76800, Note_on_c, 0, 53, 20
3, 76800, Note_on_c, 0, 60, 20
3, 76800, Note_on_c, 0, 63, 26
3, 77016, Note_on_c, 0, 63, 0
3, 77016, Note_on_c, 0, 60, 0
3, 77016, Note_on_c, 0, 53, 0
3, 77040, Note_on_c, 0, 53, 24
3, 77040, Note_on_c, 0, 60, 24
3, 77040, Note_on_c, 0, 63, 30
3, 77256, Note_on_c, 0, 63, 0
3, 77256, Note_on_c, 0, 60, 0
3, 77256, Note_on_c, 0, 53, 0
3, 77280, Note_on_c, 0, 53, 24
3, 77280, Note_on_c, 0, 60, 24
3, 77280, Note_on_c, 0, 63, 31
3, 77496, Note_on_c, 0, 63, 0
3, 77496, Note_on_c, 0, 60, 0
3, 77496, Note_on_c, 0, 53, 0
3, 77520, Note_on_c, 0, 53, 26
3, 77520, Note_on_c, 0, 60, 26
3, 77520, Note_on_c, 0, 63, 33
3, 77736, Note_on_c, 0, 63, 0
3, 77736, Note_on_c, 0, 60, 0
3, 77736, Note_on_c, 0, 53, 0
3, 77760, Note_on_c, 0, 34, 48
3, 77760, Note_on_c, 0, 46, 60
3, 78000, Note_on_c, 0, 46, 0
3, 78000, Note_on_c, 0, 34, 0
3, 78000, Note_on_c, 0, 46, 20
3, 78000, Note_on_c, 0, 53, 20
3, 78000, Note_on_c, 0, 56, 26
3, 78216, Note_on_c, 0, 56, 0
3, 78216, Note_on_c, 0, 53, 0
3, 78216, Note_on_c, 0, 46, 0
3, 78240, Note_on_c, 0, 46, 20
3, 78240, Note_on_c, 0, 53, 20
3, 78240, Note_on_c, 0, 56, 26
3, 78456, Note_on_c, 0, 56, 0
3, 78456, Note_on_c, 0, 53, 0
3, 78456, Note_on_c, 0, 46, 0
3, 78480, Note_on_c, 0, 46, 23
3, 78480, Note_on_c, 0, 53, 23
3, 78480, Note_on_c, 0, 56, 29
3, 78696, Note_on_c, 0, 56, 0
3, 78696, Note_on_c, 0, 53, 0
3, 78696, Note_on_c, 0, 46, 0
3, 78720, Note_on_c, 0, 46, 20
3, 78720, Note_on_c, 0, 53, 20
3, 78720, Note_on_c, 0, 56, 26
3, 78936, Note_on_c, 0, 56, 0
3, 78936, Note_on_c, 0, 53, 0
3, 78936, Note_on_c, 0, 46, 0
3, 78960, Note_on_c, 0, 46, 20
3, 78960, Note_on_c, 0, 53, 20
3, 78960, Note_on_c, 0, 56, 26
3, 79176, Note_on_c, 0, 56, 0
3, 79176, Note_on_c, 0, 53, 0
3, 79176, Note_on_c, 0, 46, 0
3, 79200, Note_on_c, 0, 46, 24
3, 79200, Note_on_c, 0, 53, 24
3, 79200, Note_on_c, 0, 56, 30
3, 79416, Note_on_c, 0, 56, 0
3, 79416, Note_on_c, 0, 53, 0
3, 79416, Note_on_c, 0, 46, 0
3, 79440, Note_on_c, 0, 46, 23
3, 79440, Note_on_c, 0, 53, 23
3, 79440, Note_on_c, 0, 56, 30
3, 79656, Note_on_c, 0, 56, 0
3, 79656, Note_on_c, 0, 53, 0
3, 79656, Note_on_c, 0, 46, 0
3, 79680, Note_on_c, 0, 46, 24
3, 79680, Note_on_c, 0, 53, 24
3, 79680, Note_on_c, 0, 56, 31
3, 79896, Note_on_c, 0, 56, 0
3, 79896, Note_on_c, 0, 53, 0
3, 79896, Note_on_c, 0, 46, 0
3, 79920, Note_on_c, 0, 39, 48
3, 79920, Note_on_c, 0, 51, 60
3, 80160, Note_on_c, 0, 51, 0
3, 80160, Note_on_c, 0, 39, 0
3, 80160, Note_on_c, 0, 51, 20
3, 80160, Note_on_c, 0, 58, 20
3, 80160, Note_on_c, 0, 61, 26
3, 80376, Note_on_c, 0, 61, 0
3, 80376, Note_on_c, 0, 58, 0
3, 80376, Note_on_c, 0, 51, 0
3, 80400, Note_on_c, 0, 51, 20
3, 80400, Note_on_c, 0, 58, 20
3, 80400, Note_on_c, 0, 61, 26
3, 80616, Note_on_c, 0, 61, 0
3, 80616, Note_on_c, 0, 58, 0
3, 80616, Note_on_c, 0, 51, 0
3, 80640, Note_on_c, 0, 51, 23
3, 80640, Note_on_c, 0, 58, 23
3, 80640, Note_on_c, 0, 61, 29
3, 80856, Note_on_c, 0, 61, 0
3, 80856, Note_on_c, 0, 58, 0
3, 80856, Note_on_c, 0, 51, 0
3, 80880, Note_on_c, 0, 51, 20
3, 80880, Note_on_c, 0, 58, 20
3, 80880, Note_on_c, 0, 61, 26
3, 81096, Note_on_c, 0, 61, 0
3, 81096, Note_on_c, 0, 58, 0
3, 81096, Note_on_c, 0, 51, 0
3, 81120, Note_on_c, 0, 51, 21
3, 81120, Note_on_c, 0, 58, 21
3, 81120, Note_on_c, 0, 61, 27
3, 81336, Note_on_c, 0, 61, 0
3, 81336, Note_on_c, 0, 58, 0
3, 81336, Note_on_c, 0, 51, 0
3, 81360, Note_on_c, 0, 51, 26
3, 81360, Note_on_c, 0, 58, 26
3, 81360, Note_on_c, 0, 61, 33
3, 81576, Note_on_c, 0, 61, 0
3, 81576, Note_on_c, 0, 58, 0
3, 81576, Note_on_c, 0, 51, 0
3, 81600, Note_on_c, 0, 51, 27
3, 81600, Note_on_c, 0, 58, 27
3, 81600, Note_on_c, 0, 61, 35
3, 81816, Note_on_c, 0, 61, 0
3, 81816, Note_on_c, 0, 58, 0
3, 81816, Note_on_c, 0, 51, 0
3, 81840, Note_on_c, 0, 51, 29
3, 81840, Note_on_c, 0, 58, 29
3, 81840, Note_on_c, 0, 61, 39
3, 82056, Note_on_c, 0, 61, 0
3, 82056, Note_on_c, 0, 58, 0
3, 82056, Note_on_c, 0, 51, 0
3, 82080, Note_on_c, 0, 51, 24
3, 82080, Note_on_c, 0, 59, 24
3, 82080, Note_on_c, 0, 63, 29
3, 82560, Note_on_c, 0, 63, 0
3, 82560, Note_on_c, 0, 59, 0
3, 82560, Note_on_c, 0, 51, 0
3, 82800, Note_on_c, 0, 61, 41
3, 82920, Note_on_c, 0, 61, 0
3, 82920, Note_on_c, 0, 63, 34
3, 83040, Note_on_c, 0, 63, 0
3, 83040, Note_on_c, 0, 64, 41
3, 83160, Note_on_c, 0, 64, 0
3, 83160, Note_on_c, 0, 63, 36
3, 83280, Note_on_c, 0, 63, 0
3, 83280, Note_on_c, 0, 64, 41
3, 83400, Note_on_c, 0, 64, 0
3, 83400, Note_on_c, 0, 61, 37
3, 83520, Note_on_c, 0, 61, 0
3, 83520, Note_on_c, 0, 59, 41
3, 83640, Note_on_c, 0, 59, 0
3, 83640, Note_on_c, 0, 61, 38
3, 83760, Note_on_c, 0, 61, 0
3, 83760, Note_on_c, 0, 63, 41
3, 83880, Note_on_c, 0, 63, 0
3, 83880, Note_on_c, 0, 61, 35
3, 84000, Note_on_c, 0, 61, 0
3, 84000, Note_on_c, 0, 63, 41
3, 84120, Note_on_c, 0, 63, 0
3, 84120, Note_on_c, 0, 59, 35
3, 84240, Note_on_c, 0, 59, 0
3, 84240, Note_on_c, 0, 58, 41
3, 84360, Note_on_c, 0, 58, 0
3, 84360, Note_on_c, 0, 59, 34
3, 84480, Note_on_c, 0, 59, 0
3, 84480, Note_on_c, 0, 61, 41
3, 84600, Note_on_c, 0, 61, 0
3, 84600, Note_on_c, 0, 59, 36
3, 84720, Note_on_c, 0, 59, 0
3, 84720, Note_on_c, 0, 61, 41
3, 84840, Note_on_c, 0, 61, 0
3, 84840, Note_on_c, 0, 58, 37
3, 84960, Note_on_c, 0, 58, 0
3, 84960, Note_on_c, 0, 59, 41
3, 85080, Note_on_c, 0, 59, 0
3, 85080, Note_on_c, 0, 61, 34
3, 85200, Note_on_c, 0, 61, 0
3, 85200, Note_on_c, 0, 63, 41
3, 85320, Note_on_c, 0, 63, 0
3, 85320, Note_on_c, 0, 61, 36
3, 85440, Note_on_c, 0, 61, 0
3, 85440, Note_on_c, 0, 63, 41
3, 85560, Note_on_c, 0, 63, 0
3, 85560, Note_on_c, 0, 59, 37
3, 85680, Note_on_c, 0, 59, 0
3, 85680, Note_on_c, 0, 56, 41
3, 85800, Note_on_c, 0, 56, 0
3, 85800, Note_on_c, 0, 58, 38
3, 85920, Note_on_c, 0, 58, 0
3, 85920, Note_on_c, 0, 59, 41
3, 86040, Note_on_c, 0, 59, 0
3, 86040, Note_on_c, 0, 58, 35
3, 86160, Note_on_c, 0, 58, 0
3, 86160, Note_on_c, 0, 59, 41
3, 86280, Note_on_c, 0, 59, 0
3, 86280, Note_on_c, 0, 56, 35
3, 86400, Note_on_c, 0, 56, 0
3, 86400, Note_on_c, 0, 54, 41
3, 86520, Note_on_c, 0, 54, 0
3, 86520, Note_on_c, 0, 56, 34
3, 86640, Note_on_c, 0, 56, 0
3, 86640, Note_on_c, 0, 58, 41
3, 86760, Note_on_c, 0, 58, 0
3, 86760, Note_on_c, 0, 56, 36
3, 86880, Note_on_c, 0, 56, 0
3, 86880, Note_on_c, 0, 58, 41
3, 87000, Note_on_c, 0, 58, 0
3, 87000, Note_on_c, 0, 54, 37
3, 87120, Note_on_c, 0, 54, 0
3, 87120, Note_on_c, 0, 53, 41
3, 87240, Note_on_c, 0, 53, 0
3, 87240, Note_on_c, 0, 54, 34
3, 87360, Note_on_c, 0, 54, 0
3, 87360, Note_on_c, 0, 56, 41
3, 87480, Note_on_c, 0, 56, 0
3, 87480, Note_on_c, 0, 54, 36
3, 87600, Note_on_c, 0, 54, 0
3, 87600, Note_on_c, 0, 56, 41
3, 87720, Note_on_c, 0, 56, 0
3, 87720, Note_on_c, 0, 53, 37
3, 87840, Note_on_c, 0, 53, 0
3, 87840, Note_on_c, 0, 54, 41
3, 87960, Note_on_c, 0, 54, 0
3, 87960, Note_on_c, 0, 56, 38
3, 88080, Note_on_c, 0, 56, 0
3, 88080, Note_on_c, 0, 58, 41
3, 88200, Note_on_c, 0, 58, 0
3, 88200, Note_on_c, 0, 56, 35
3, 88320, Note_on_c, 0, 56, 0
3, 88320, Note_on_c, 0, 58, 41
3, 88440, Note_on_c, 0, 58, 0
3, 88440, Note_on_c, 0, 54, 35
3, 88560, Note_on_c, 0, 54, 0
3, 88560, Note_on_c, 0, 50, 41
3, 88680, Note_on_c, 0, 50, 0
3, 88680, Note_on_c, 0, 51, 34
3, 88800, Note_on_c, 0, 51, 0
3, 88800, Note_on_c, 0, 53, 41
3, 88920, Note_on_c, 0, 53, 0
3, 88920, Note_on_c, 0, 51, 36
3, 89040, Note_on_c, 0, 51, 0
3, 89040, Note_on_c, 0, 53, 41
3, 89160, Note_on_c, 0, 53, 0
3, 89160, Note_on_c, 0, 50, 37
3, 89280, Note_on_c, 0, 50, 0
3, 89280, Note_on_c, 0, 51, 41
3, 89400, Note_on_c, 0, 51, 0
3, 89400, Note_on_c, 0, 53, 34
3, 89520, Note_on_c, 0, 53, 0
3, 89520, Note_on_c, 0, 54, 41
3, 89640, Note_on_c, 0, 54, 0
3, 89640, Note_on_c, 0, 53, 36
3, 89760, Note_on_c, 0, 53, 0
3, 89760, Note_on_c, 0, 54, 41
3, 89880, Note_on_c, 0, 54, 0
3, 89880, Note_on_c, 0, 51, 37
3, 90000, Note_on_c, 0, 51, 0
3, 90000, Note_on_c, 0, 48, 41
3, 90120, Note_on_c, 0, 48, 0
3, 90120, Note_on_c, 0, 50, 38
3, 90240, Note_on_c, 0, 50, 0
3, 90240, Note_on_c, 0, 51, 41
3, 90360, Note_on_c, 0, 51, 0
3, 90360, Note_on_c, 0, 50, 35
3, 90480, Note_on_c, 0, 50, 0
3, 90480, Note_on_c, 0, 51, 41
3, 90600, Note_on_c, 0, 51, 0
3, 90600, Note_on_c, 0, 47, 35
3, 90720, Note_on_c, 0, 47, 0
3, 90720, Note_on_c, 0, 46, 41
3, 90840, Note_on_c, 0, 48, 34
3, 90960, Note_on_c, 0, 48, 0
3, 90960, Note_on_c, 0, 50, 41
3, 91080, Note_on_c, 0, 50, 0
3, 91080, Note_on_c, 0, 48, 36
3, 91200, Note_on_c, 0, 48, 0
3, 91200, Note_on_c, 0, 46, 41
3, 91320, Note_on_c, 0, 46, 0
3, 91320, Note_on_c, 0, 48, 37
3, 91440, Note_on_c, 0, 48, 0
3, 91440, Note_on_c, 0, 50, 41
3, 91560, Note_on_c, 0, 50, 0
3, 91560, Note_on_c, 0, 51, 34
3, 91680, Note_on_c, 0, 51, 0
3, 91680, Note_on_c, 0, 53, 41
3, 91800, Note_on_c, 0, 53, 0
3, 91800, Note_on_c, 0, 51, 36
3, 91920, Note_on_c, 0, 51, 0
3, 91920, Note_on_c, 0, 50, 41
3, 92040, Note_on_c, 0, 50, 0
3, 92040, Note_on_c, 0, 53, 37
3, 92160, Note_on_c, 0, 53, 0
3, 92160, Note_on_c, 0, 51, 41
3, 92280, Note_on_c, 0, 51, 0
3, 92280, Note_on_c, 0, 50, 38
3, 92390, Note_on_c, 0, 46, 0
3, 92400, Note_on_c, 0, 50, 0
3, 92400, Note_on_c, 0, 46, 39
3, 92400, Note_on_c, 0, 48, 41
3, 92520, Note_on_c, 0, 48, 0
3, 92520, Note_on_c, 0, 50, 35
3, 92630, Note_on_c, 0, 46, 0
3, 92640, Note_on_c, 0, 50, 0
3, 92640, Note_on_c, 0, 46, 39
3, 92640, Note_on_c, 0, 51, 41
3, 92760, Note_on_c, 0, 51, 0
3, 92760, Note_on_c, 0, 48, 35
3, 92870, Note_on_c, 0, 46, 0
3, 92880, Note_on_c, 0, 48, 0
3, 92880, Note_on_c, 0, 50, 41
3, 92880, Note_on_c, 0, 46, 41
3, 93000, Note_on_c, 0, 50, 0
3, 93000, Note_on_c, 0, 51, 34
3, 93120, Note_on_c, 0, 51, 0
3, 93120, Note_on_c, 0, 53, 41
3, 93240, Note_on_c, 0, 53, 0
3, 93240, Note_on_c, 0, 51, 36
3, 93360, Note_on_c, 0, 51, 0
3, 93360, Note_on_c, 0, 50, 41
3, 93480, Note_on_c, 0, 50, 0
3, 93480, Note_on_c, 0, 51, 37
3, 93600, Note_on_c, 0, 51, 0
3, 93600, Note_on_c, 0, 53, 41
3, 93720, Note_on_c, 0, 53, 0
3, 93720, Note_on_c, 0, 54, 34
3, 93840, Note_on_c, 0, 54, 0
3, 93840, Note_on_c, 0, 56, 41
3, 93960, Note_on_c, 0, 56, 0
3, 93960, Note_on_c, 0, 54, 36
3, 94080, Note_on_c, 0, 54, 0
3, 94080, Note_on_c, 0, 53, 41
3, 94200, Note_on_c, 0, 53, 0
3, 94200, Note_on_c, 0, 56, 37
3, 94320, Note_on_c, 0, 56, 0
3, 94320, Note_on_c, 0, 54, 41
3, 94440, Note_on_c, 0, 54, 0
3, 94440, Note_on_c, 0, 53, 38
3, 94550, Note_on_c, 0, 46, 0
3, 94560, Note_on_c, 0, 53, 0
3, 94560, Note_on_c, 0, 46, 39
3, 94560, Note_on_c, 0, 51, 41
3, 94680, Note_on_c, 0, 51, 0
3, 94680, Note_on_c, 0, 53, 35
3, 94790, Note_on_c, 0, 46, 0
3, 94800, Note_on_c, 0, 53, 0
3, 94800, Note_on_c, 0, 46, 39
3, 94800, Note_on_c, 0, 54, 41
3, 94920, Note_on_c, 0, 54, 0
3, 94920, Note_on_c, 0, 51, 35
3, 95030, Note_on_c, 0, 46, 0
3, 95040, Note_on_c, 0, 51, 0
3, 95040, Note_on_c, 0, 46, 39
3, 95040, Note_on_c, 0, 50, 39
3, 95040, Note_on_c, 0, 53, 39
3, 95520, Note_on_c, 0, 53, 0
3, 95520, Note_on_c, 0, 50, 0
3, 95520, Note_on_c, 0, 46, 0
3, 99360, Note_on_c, 0, 39, 25
3, 99576, Note_on_c, 0, 39, 0
3, 99600, Note_on_c, 0, 58, 20
3, 99600, Note_on_c, 0, 55, 17
3, 99600, Note_on_c, 0, 51, 17
3, 99816, Note_on_c, 0, 51, 0
3, 99816, Note_on_c, 0, 55, 0
3, 99816, Note_on_c, 0, 58, 0
3, 99840, Note_on_c, 0, 51, 17
3, 99840, Note_on_c, 0, 55, 17
3, 99840, Note_on_c, 0, 58, 20
3, 100056, Note_on_c, 0, 58, 0
3, 100056, Note_on_c, 0, 55, 0
3, 100056, Note_on_c, 0, 51, 0
3, 100080, Note_on_c, 0, 51, 19
3, 100080, Note_on_c, 0, 55, 19
3, 100080, Note_on_c, 0, 58, 23
3, 100296, Note_on_c, 0, 58, 0
3, 100296, Note_on_c, 0, 55, 0
3, 100296, Note_on_c, 0, 51, 0
3, 100320, Note_on_c, 0, 55, 17
3, 100320, Note_on_c, 0, 51, 17
3, 100320, Note_on_c, 0, 58, 20
3, 100536, Note_on_c, 0, 58, 0
3, 100536, Note_on_c, 0, 51, 0
3, 100536, Note_on_c, 0, 55, 0
3, 100560, Note_on_c, 0, 51, 17
3, 100560, Note_on_c, 0, 55, 17
3, 100560, Note_on_c, 0, 58, 20
3, 100776, Note_on_c, 0, 58, 0
3, 100776, Note_on_c, 0, 55, 0
3, 100776, Note_on_c, 0, 51, 0
3, 100800, Note_on_c, 0, 58, 24
3, 100800, Note_on_c, 0, 55, 20
3, 100800, Note_on_c, 0, 51, 20
3, 101016, Note_on_c, 0, 51, 0
3, 101016, Note_on_c, 0, 55, 0
3, 101016, Note_on_c, 0, 58, 0
3, 101040, Note_on_c, 0, 51, 17
3, 101040, Note_on_c, 0, 55, 17
3, 101040, Note_on_c, 0, 58, 21
3, 101256, Note_on_c, 0, 58, 0
3, 101256, Note_on_c, 0, 55, 0
3, 101256, Note_on_c, 0, 51, 0
3, 101280, Note_on_c, 0, 51, 17
3, 101280, Note_on_c, 0, 55, 17
3, 101280, Note_on_c, 0, 58, 21
3, 101496, Note_on_c, 0, 58, 0
3, 101496, Note_on_c, 0, 55, 0
3, 101496, Note_on_c, 0, 51, 0
3, 101520, Note_on_c, 0, 55, 21
3, 101520, Note_on_c, 0, 51, 21
3, 101520, Note_on_c, 0, 58, 25
3, 101736, Note_on_c, 0, 58, 0
3, 101736, Note_on_c, 0, 51, 0
3, 101736, Note_on_c, 0, 55, 0
3, 101760, Note_on_c, 0, 51, 17
3, 101760, Note_on_c, 0, 55, 17
3, 101760, Note_on_c, 0, 58, 20
3, 101976, Note_on_c, 0, 58, 0
3, 101976, Note_on_c, 0, 55, 0
3, 101976, Note_on_c, 0, 51, 0
3, 102000, Note_on_c, 0, 58, 20
3, 102000, Note_on_c, 0, 55, 17
3, 102000, Note_on_c, 0, 51, 17
3, 102216, Note_on_c, 0, 51, 0
3, 102216, Note_on_c, 0, 55, 0
3, 102216, Note_on_c, 0, 58, 0
3, 102240, Note_on_c, 0, 51, 19
3, 102240, Note_on_c, 0, 55, 19
3, 102240, Note_on_c, 0, 58, 23
3, 102456, Note_on_c, 0, 58, 0
3, 102456, Note_on_c, 0, 55, 0
3, 102456, Note_on_c, 0, 51, 0
3, 102480, Note_on_c, 0, 51, 17
3, 102480, Note_on_c, 0, 55, 17
3, 102480, Note_on_c, 0, 58, 20
3, 102696, Note_on_c, 0, 58, 0
3, 102696, Note_on_c, 0, 55, 0
3, 102696, Note_on_c, 0, 51, 0
3, 102720, Note_on_c, 0, 55, 17
3, 102720, Note_on_c, 0, 51, 17
3, 102720, Note_on_c, 0, 58, 20
3, 102936, Note_on_c, 0, 58, 0
3, 102936, Note_on_c, 0, 51, 0
3, 102936, Note_on_c, 0, 55, 0
3, 102960, Note_on_c, 0, 51, 20
3, 102960, Note_on_c, 0, 55, 20
3, 102960, Note_on_c, 0, 58, 24
3, 103176, Note_on_c, 0, 58, 0
3, 103176, Note_on_c, 0, 55, 0
3, 103176, Note_on_c, 0, 51, 0
3, 103200, Note_on_c, 0, 58, 21
3, 103200, Note_on_c, 0, 55, 17
3, 103200, Note_on_c, 0, 51, 17
3, 103416, Note_on_c, 0, 51, 0
3, 103416, Note_on_c, 0, 55, 0
3, 103416, Note_on_c, 0, 58, 0
3, 103440, Note_on_c, 0, 51, 17
3, 103440, Note_on_c, 0, 55, 17
3, 103440, Note_on_c, 0, 58, 21
3, 103656, Note_on_c, 0, 58, 0
3, 103656, Note_on_c, 0, 55, 0
3, 103656, Note_on_c, 0, 51, 0
3, 103680, Note_on_c, 0, 50, 21
3, 103680, Note_on_c, 0, 56, 21
3, 103680, Note_on_c, 0, 58, 25
3, 103896, Note_on_c, 0, 58, 0
3, 103896, Note_on_c, 0, 56, 0
3, 103896, Note_on_c, 0, 50, 0
3, 103920, Note_on_c, 0, 56, 17
3, 103920, Note_on_c, 0, 50, 17
3, 103920, Note_on_c, 0, 58, 20
3, 104136, Note_on_c, 0, 58, 0
3, 104136, Note_on_c, 0, 50, 0
3, 104136, Note_on_c, 0, 56, 0
3, 104160, Note_on_c, 0, 50, 17
3, 104160, Note_on_c, 0, 56, 17
3, 104160, Note_on_c, 0, 58, 20
3, 104376, Note_on_c, 0, 58, 0
3, 104376, Note_on_c, 0, 56, 0
3, 104376, Note_on_c, 0, 50, 0
3, 104400, Note_on_c, 0, 58, 23
3, 104400, Note_on_c, 0, 56, 19
3, 104400, Note_on_c, 0, 50, 19
3, 104616, Note_on_c, 0, 50, 0
3, 104616, Note_on_c, 0, 56, 0
3, 104616, Note_on_c, 0, 58, 0
3, 104640, Note_on_c, 0, 50, 17
3, 104640, Note_on_c, 0, 56, 17
3, 104640, Note_on_c, 0, 58, 20
3, 104856, Note_on_c, 0, 58, 0
3, 104856, Note_on_c, 0, 56, 0
3, 104856, Note_on_c, 0, 50, 0
3, 104880, Note_on_c, 0, 50, 17
3, 104880, Note_on_c, 0, 56, 17
3, 104880, Note_on_c, 0, 58, 20
3, 105096, Note_on_c, 0, 58, 0
3, 105096, Note_on_c, 0, 56, 0
3, 105096, Note_on_c, 0, 50, 0
3, 105120, Note_on_c, 0, 56, 20
3, 105120, Note_on_c, 0, 50, 20
3, 105120, Note_on_c, 0, 58, 24
3, 105336, Note_on_c, 0, 58, 0
3, 105336, Note_on_c, 0, 50, 0
3, 105336, Note_on_c, 0, 56, 0
3, 105360, Note_on_c, 0, 50, 17
3, 105360, Note_on_c, 0, 56, 17
3, 105360, Note_on_c, 0, 58, 21
3, 105576, Note_on_c, 0, 58, 0
3, 105576, Note_on_c, 0, 56, 0
3, 105576, Note_on_c, 0, 50, 0
3, 105600, Note_on_c, 0, 58, 21
3, 105600, Note_on_c, 0, 56, 17
3, 105600, Note_on_c, 0, 50, 17
3, 105816, Note_on_c, 0, 50, 0
3, 105816, Note_on_c, 0, 56, 0
3, 105816, Note_on_c, 0, 58, 0
3, 105840, Note_on_c, 0, 53, 21
3, 105840, Note_on_c, 0, 50, 21
3, 105840, Note_on_c, 0, 56, 21
3, 105840, Note_on_c, 0, 58, 25
3, 106056, Note_on_c, 0, 58, 0
3, 106056, Note_on_c, 0, 53, 0
3, 106056, Note_on_c, 0, 50, 0
3, 106056, Note_on_c, 0, 56, 0
3, 106080, Note_on_c, 0, 58, 20
3, 106080, Note_on_c, 0, 53, 17
3, 106080, Note_on_c, 0, 50, 17
3, 106080, Note_on_c, 0, 56, 17
3, 106296, Note_on_c, 0, 56, 0
3, 106296, Note_on_c, 0, 58, 0
3, 106296, Note_on_c, 0, 53, 0
3, 106296, Note_on_c, 0, 50, 0
3, 106320, Note_on_c, 0, 53, 17
3, 106320, Note_on_c, 0, 50, 17
3, 106320, Note_on_c, 0, 56, 17
3, 106320, Note_on_c, 0, 58, 20
3, 106536, Note_on_c, 0, 58, 0
3, 106536, Note_on_c, 0, 53, 0
3, 106536, Note_on_c, 0, 50, 0
3, 106536, Note_on_c, 0, 56, 0
3, 106560, Note_on_c, 0, 56, 20
3, 106560, Note_on_c, 0, 58, 25
3, 106560, Note_on_c, 0, 53, 20
3, 106560, Note_on_c, 0, 50, 20
3, 106776, Note_on_c, 0, 50, 0
3, 106776, Note_on_c, 0, 56, 0
3, 106776, Note_on_c, 0, 58, 0
3, 106776, Note_on_c, 0, 53, 0
3, 106800, Note_on_c, 0, 53, 19
3, 106800, Note_on_c, 0, 50, 19
3, 106800, Note_on_c, 0, 56, 19
3, 106800, Note_on_c, 0, 58, 23
3, 107016, Note_on_c, 0, 58, 0
3, 107016, Note_on_c, 0, 53, 0
3, 107016, Note_on_c, 0, 50, 0
3, 107016, Note_on_c, 0, 56, 0
3, 107040, Note_on_c, 0, 56, 20
3, 107040, Note_on_c, 0, 53, 20
3, 107040, Note_on_c, 0, 50, 20
3, 107040, Note_on_c, 0, 58, 24
3, 107256, Note_on_c, 0, 58, 0
3, 107256, Note_on_c, 0, 56, 0
3, 107256, Note_on_c, 0, 53, 0
3, 107256, Note_on_c, 0, 50, 0
3, 107280, Note_on_c, 0, 53, 25
3, 107280, Note_on_c, 0, 50, 25
3, 107280, Note_on_c, 0, 58, 30
3, 107280, Note_on_c, 0, 56, 25
3, 107496, Note_on_c, 0, 56, 0
3, 107496, Note_on_c, 0, 53, 0
3, 107496, Note_on_c, 0, 50, 0
3, 107496, Note_on_c, 0, 58, 0
3, 107520, Note_on_c, 0, 56, 22
3, 107520, Note_on_c, 0, 50, 22
3, 107520, Note_on_c, 0, 53, 22
3, 107520, Note_on_c, 0, 58, 27
3, 107736, Note_on_c, 0, 58, 0
3, 107736, Note_on_c, 0, 56, 0
3, 107736, Note_on_c, 0, 50, 0
3, 107736, Note_on_c, 0, 53, 0
3, 107760, Note_on_c, 0, 53, 22
3, 107760, Note_on_c, 0, 50, 22
3, 107760, Note_on_c, 0, 56, 22
3, 107760, Note_on_c, 0, 58, 28
3, 107976, Note_on_c, 0, 58, 0
3, 107976, Note_on_c, 0, 53, 0
3, 107976, Note_on_c, 0, 50, 0
3, 107976, Note_on_c, 0, 56, 0
3, 108000, Note_on_c, 0, 56, 21
3, 108000, Note_on_c, 0, 51, 21
3, 108000, Note_on_c, 0, 58, 25
3, 108216, Note_on_c, 0, 58, 0
3, 108216, Note_on_c, 0, 51, 0
3, 108216, Note_on_c, 0, 56, 0
3, 108240, Note_on_c, 0, 51, 17
3, 108240, Note_on_c, 0, 56, 17
3, 108240, Note_on_c, 0, 58, 20
3, 108456, Note_on_c, 0, 58, 0
3, 108456, Note_on_c, 0, 56, 0
3, 108456, Note_on_c, 0, 51, 0
3, 108480, Note_on_c, 0, 58, 20
3, 108480, Note_on_c, 0, 56, 17
3, 108480, Note_on_c, 0, 51, 17
3, 108696, Note_on_c, 0, 51, 0
3, 108696, Note_on_c, 0, 56, 0
3, 108696, Note_on_c, 0, 58, 0
3, 108720, Note_on_c, 0, 51, 19
3, 108720, Note_on_c, 0, 55, 19
3, 108720, Note_on_c, 0, 58, 23
3, 108936, Note_on_c, 0, 58, 0
3, 108936, Note_on_c, 0, 55, 0
3, 108936, Note_on_c, 0, 51, 0
3, 108960, Note_on_c, 0, 51, 17
3, 108960, Note_on_c, 0, 55, 17
3, 108960, Note_on_c, 0, 58, 20
3, 109176, Note_on_c, 0, 58, 0
3, 109176, Note_on_c, 0, 55, 0
3, 109176, Note_on_c, 0, 51, 0
3, 109200, Note_on_c, 0, 55, 17
3, 109200, Note_on_c, 0, 51, 17
3, 109200, Note_on_c, 0, 58, 20
3, 109416, Note_on_c, 0, 58, 0
3, 109416, Note_on_c, 0, 51, 0
3, 109416, Note_on_c, 0, 55, 0
3, 109440, Note_on_c, 0, 51, 36
3, 109680, Note_on_c, 0, 51, 0
3, 109680, Note_on_c, 0, 46, 40
3, 109920, Note_on_c, 0, 46, 0
3, 109920, Note_on_c, 0, 44, 43
3, 110160, Note_on_c, 0, 44, 0
3, 110160, Note_on_c, 0, 43, 48
3, 110400, Note_on_c, 0, 43, 0
3, 110400, Note_on_c, 0, 51, 35
3, 110400, Note_on_c, 0, 46, 29
3, 110400, Note_on_c, 0, 43, 29
3, 110616, Note_on_c, 0, 43, 0
3, 110616, Note_on_c, 0, 46, 0
3, 110616, Note_on_c, 0, 51, 0
3, 110640, Note_on_c, 0, 43, 29
3, 110640, Note_on_c, 0, 46, 29
3, 110640, Note_on_c, 0, 51, 35
3, 110856, Note_on_c, 0, 51, 0
3, 110856, Note_on_c, 0, 46, 0
3, 110856, Note_on_c, 0, 43, 0
3, 110880, Note_on_c, 0, 51, 35
3, 110880, Note_on_c, 0, 43, 29
3, 110880, Note_on_c, 0, 46, 29
3, 111096, Note_on_c, 0, 46, 0
3, 111096, Note_on_c, 0, 43, 0
3, 111096, Note_on_c, 0, 51, 0
3, 111120, Note_on_c, 0, 43, 27
3, 111120, Note_on_c, 0, 46, 27
3, 111120, Note_on_c, 0, 51, 32
3, 111336, Note_on_c, 0, 51, 0
3, 111336, Note_on_c, 0, 46, 0
3, 111336, Note_on_c, 0, 43, 0
3, 111360, Note_on_c, 0, 43, 27
3, 111360, Note_on_c, 0, 51, 32
3, 111360, Note_on_c, 0, 46, 27
3, 111576, Note_on_c, 0, 46, 0
3, 111576, Note_on_c, 0, 51, 0
3, 111576, Note_on_c, 0, 43, 0
3, 111600, Note_on_c, 0, 51, 35
3, 111600, Note_on_c, 0, 46, 29
3, 111600, Note_on_c, 0, 43, 29
3, 111816, Note_on_c, 0, 43, 0
3, 111816, Note_on_c, 0, 46, 0
3, 111816, Note_on_c, 0, 51, 0
3, 111840, Note_on_c, 0, 43, 25
3, 111840, Note_on_c, 0, 46, 25
3, 111840, Note_on_c, 0, 51, 30
3, 112056, Note_on_c, 0, 51, 0
3, 112056, Note_on_c, 0, 46, 0
3, 112056, Note_on_c, 0, 43, 0
3, 112080, Note_on_c, 0, 51, 30
3, 112080, Note_on_c, 0, 43, 25
3, 112080, Note_on_c, 0, 46, 25
3, 112296, Note_on_c, 0, 46, 0
3, 112296, Note_on_c, 0, 43, 0
3, 112296, Note_on_c, 0, 51, 0
3, 112320, Note_on_c, 0, 44, 32
3, 112320, Note_on_c, 0, 48, 34
3, 112320, Note_on_c, 0, 51, 48
3, 112560, Note_on_c, 0, 51, 0
3, 112560, Note_on_c, 0, 48, 0
3, 112560, Note_on_c, 0, 44, 0
3, 112560, Note_on_c, 0, 44, 29
3, 112560, Note_on_c, 0, 51, 35
3, 112560, Note_on_c, 0, 48, 29
3, 112776, Note_on_c, 0, 48, 0
3, 112776, Note_on_c, 0, 51, 0
3, 112776, Note_on_c, 0, 44, 0
3, 112800, Note_on_c, 0, 51, 35
3, 112800, Note_on_c, 0, 48, 29
3, 112800, Note_on_c, 0, 44, 29
3, 113016, Note_on_c, 0, 44, 0
3, 113016, Note_on_c, 0, 48, 0
3, 113016, Note_on_c, 0, 51, 0
3, 113040, Note_on_c, 0, 44, 34
3, 113040, Note_on_c, 0, 48, 34
3, 113040, Note_on_c, 0, 52, 41
3, 113256, Note_on_c, 0, 52, 0
3, 113256, Note_on_c, 0, 48, 0
3, 113256, Note_on_c, 0, 44, 0
3, 113280, Note_on_c, 0, 52, 35
3, 113280, Note_on_c, 0, 44, 29
3, 113280, Note_on_c, 0, 48, 29
3, 113496, Note_on_c, 0, 48, 0
3, 113496, Note_on_c, 0, 44, 0
3, 113496, Note_on_c, 0, 52, 0
3, 113520, Note_on_c, 0, 44, 33
3, 113520, Note_on_c, 0, 48, 33
3, 113520, Note_on_c, 0, 52, 39
3, 113736, Note_on_c, 0, 52, 0
3, 113736, Note_on_c, 0, 48, 0
3, 113736, Note_on_c, 0, 44, 0
3, 113760, Note_on_c, 0, 44, 37
3, 113760, Note_on_c, 0, 53, 44
3, 113760, Note_on_c, 0, 48, 37
3, 113976, Note_on_c, 0, 48, 0
3, 113976, Note_on_c, 0, 53, 0
3, 113976, Note_on_c, 0, 44, 0
3, 114000, Note_on_c, 0, 53, 36
3, 114000, Note_on_c, 0, 48, 30
3, 114000, Note_on_c, 0, 44, 30
3, 114216, Note_on_c, 0, 44, 0
3, 114216, Note_on_c, 0, 48, 0
3, 114216, Note_on_c, 0, 53, 0
3, 114240, Note_on_c, 0, 44, 30
3, 114240, Note_on_c, 0, 48, 30
3, 114240, Note_on_c, 0, 53, 36
3, 114456, Note_on_c, 0, 53, 0
3, 114456, Note_on_c, 0, 48, 0
3, 114456, Note_on_c, 0, 44, 0
3, 114480, Note_on_c, 0, 55, 35
3, 114480, Note_on_c, 0, 46, 29
3, 114480, Note_on_c, 0, 51, 29
3, 114696, Note_on_c, 0, 51, 0
3, 114696, Note_on_c, 0, 46, 0
3, 114696, Note_on_c, 0, 55, 0
3, 114720, Note_on_c, 0, 46, 23
3, 114720, Note_on_c, 0, 51, 23
3, 114720, Note_on_c, 0, 55, 28
3, 114936, Note_on_c, 0, 55, 0
3, 114936, Note_on_c, 0, 51, 0
3, 114936, Note_on_c, 0, 46, 0
3, 114960, Note_on_c, 0, 46, 23
3, 114960, Note_on_c, 0, 55, 28
3, 114960, Note_on_c, 0, 51, 23
3, 115176, Note_on_c, 0, 51, 0
3, 115176, Note_on_c, 0, 55, 0
3, 115176, Note_on_c, 0, 46, 0
3, 115200, Note_on_c, 0, 55, 32
3, 115200, Note_on_c, 0, 51, 26
3, 115200, Note_on_c, 0, 46, 26
3, 115416, Note_on_c, 0, 46, 0
3, 115416, Note_on_c, 0, 51, 0
3, 115416, Note_on_c, 0, 55, 0
3, 115440, Note_on_c, 0, 46, 23
3, 115440, Note_on_c, 0, 51, 23
3, 115440, Note_on_c, 0, 55, 27
3, 115656, Note_on_c, 0, 55, 0
3, 115656, Note_on_c, 0, 51, 0
3, 115656, Note_on_c, 0, 46, 0
3, 115680, Note_on_c, 0, 55, 27
3, 115680, Note_on_c, 0, 46, 22
3, 115680, Note_on_c, 0, 51, 22
3, 115896, Note_on_c, 0, 51, 0
3, 115896, Note_on_c, 0, 46, 0
3, 115896, Note_on_c, 0, 55, 0
3, 115920, Note_on_c, 0, 46, 25
3, 115920, Note_on_c, 0, 53, 25
3, 115920, Note_on_c, 0, 56, 31
3, 116136, Note_on_c, 0, 56, 0
3, 116136, Note_on_c, 0, 53, 0
3, 116136, Note_on_c, 0, 46, 0
3, 116160, Note_on_c, 0, 46, 22
3, 116160, Note_on_c, 0, 56, 26
3, 116160, Note_on_c, 0, 53, 22
3, 116376, Note_on_c, 0, 53, 0
3, 116376, Note_on_c, 0, 56, 0
3, 116376, Note_on_c, 0, 46, 0
3, 116400, Note_on_c, 0, 56, 26
3, 116400, Note_on_c, 0, 53, 21
3, 116400, Note_on_c, 0, 46, 21
3, 116616, Note_on_c, 0, 46, 0
3, 116616, Note_on_c, 0, 53, 0
3, 116616, Note_on_c, 0, 56, 0
3, 116640, Note_on_c, 0, 51, 26
3, 116640, Note_on_c, 0, 55, 31
3, 117120, Note_on_c, 0, 55, 0
3, 117120, Note_on_c, 0, 51, 0
3, 118080, Note_on_c, 0, 46, 26
3, 118080, Note_on_c, 0, 58, 31
3, 118560, Note_on_c, 0, 58, 0
3, 118560, Note_on_c, 0, 56, 29
3, 118800, Note_on_c, 0, 56, 0
3, 118800, Note_on_c, 0, 46, 0
3, 118800, Note_on_c, 0, 55, 31
3, 118800, Note_on_c, 0, 51, 26
3, 119280, Note_on_c, 0, 51, 0
3, 119280, Note_on_c, 0, 55, 0
3, 120240, Note_on_c, 0, 46, 31
3, 120240, Note_on_c, 0, 34, 26
3, 120720, Note_on_c, 0, 46, 0
3, 120720, Note_on_c, 0, 44, 22
3, 120720, Note_on_c, 0, 53, 27
3, 120960, Note_on_c, 0, 53, 0
3, 120960, Note_on_c, 0, 44, 0
3, 120960, Note_on_c, 0, 34, 0
3, 120960, Note_on_c, 0, 39, 27
3, 120960, Note_on_c, 0, 43, 27
3, 121440, Note_on_c, 0, 43, 0
3, 121440, Note_on_c, 0, 39, 0
3, 123120, Note_on_c, 0, 39, 32
3, 123360, Note_on_c, 0, 39, 0
3, 123360, Note_on_c, 0, 43, 32
3, 123600, Note_on_c, 0, 43, 0
3, 123600, Note_on_c, 0, 46, 32
3, 123840, Note_on_c, 0, 46, 0
3, 123840, Note_on_c, 0, 51, 36
3, 124080, Note_on_c, 0, 51, 0
3, 124080, Note_on_c, 0, 55, 38
3, 124320, Note_on_c, 0, 55, 0
3, 124320, Note_on_c, 0, 58, 40
3, 124550, Note_on_c, 0, 58, 0
3, 124560, Note_on_c, 0, 46, 36
3, 124560, Note_on_c, 0, 58, 43
3, 125040, Note_on_c, 0, 58, 0
3, 125040, Note_on_c, 0, 46, 0
3, 125040, Note_on_c, 0, 46, 33
3, 125040, Note_on_c, 0, 56, 39
3, 125270, Note_on_c, 0, 56, 0
3, 125270, Note_on_c, 0, 46, 0
3, 125280, Note_on_c, 0, 56, 38
3, 125280, Note_on_c, 0, 51, 32
3, 126000, Note_on_c, 0, 56, 0
3, 126000, Note_on_c, 0, 55, 30
3, 126240, Note_on_c, 0, 55, 0
3, 126240, Note_on_c, 0, 51, 0
3, 127440, Note_on_c, 0, 39, 37
3, 127680, Note_on_c, 0, 39, 0
3, 127680, Note_on_c, 0, 42, 40
3, 127920, Note_on_c, 0, 42, 0
3, 127920, Note_on_c, 0, 46, 44
3, 128160, Note_on_c, 0, 46, 0
3, 128160, Note_on_c, 0, 51, 49
3, 128400, Note_on_c, 0, 51, 0
3, 128400, Note_on_c, 0, 54, 53
3, 128640, Note_on_c, 0, 54, 0
3, 128640, Note_on_c, 0, 58, 57
3, 128870, Note_on_c, 0, 58, 0
3, 128880, Note_on_c, 0, 63, 62
3, 129120, Note_on_c, 0, 63, 0
3, 129120, Note_on_c, 0, 59, 58
3, 129360, Note_on_c, 0, 59, 0
3, 129360, Note_on_c, 0, 58, 54
3, 129590, Note_on_c, 0, 58, 0
3, 129600, Note_on_c, 0, 56, 53
3, 130320, Note_on_c, 0, 56, 0
3, 130320, Note_on_c, 0, 53, 43
3, 131040, Note_on_c, 0, 53, 0
3, 131040, Note_on_c, 0, 54, 40
3, 131760, Note_on_c, 0, 54, 0
3, 131760, Note_on_c, 0, 47, 32
3, 132480, Note_on_c, 0, 47, 0
3, 132480, Note_on_c, 0, 49, 32
3, 133200, Note_on_c, 0, 49, 0
3, 133200, Note_on_c, 0, 37, 32
3, 133920, Note_on_c, 0, 37, 0
3, 133920, Note_on_c, 0, 38, 53
3, 134640, Note_on_c, 0, 38, 0
3, 134640, Note_on_c, 0, 50, 43
3, 135360, Note_on_c, 0, 50, 0
3, 135360, Note_on_c, 0, 51, 40
3, 136080, Note_on_c, 0, 51, 0
3, 136080, Note_on_c, 0, 44, 32
3, 136800, Note_on_c, 0, 44, 0
3, 136800, Note_on_c, 0, 45, 32
3, 137520, Note_on_c, 0, 45, 0
3, 137520, Note_on_c, 0, 46, 32
3, 138240, Note_on_c, 0, 46, 0
3, 138240, Note_on_c, 0, 39, 35
3, 138480, Note_on_c, 0, 51, 29
3, 138696, Note_on_c, 0, 51, 0
3, 138720, Note_on_c, 0, 51, 29
3, 138936, Note_on_c, 0, 51, 0
3, 138960, Note_on_c, 0, 51, 32
3, 139176, Note_on_c, 0, 51, 0
3, 139200, Note_on_c, 0, 51, 29
3, 139416, Note_on_c, 0, 51, 0
3, 139440, Note_on_c, 0, 51, 29
3, 139656, Note_on_c, 0, 51, 0
3, 139680, Note_on_c, 0, 51, 32
3, 139896, Note_on_c, 0, 51, 0
3, 139920, Note_on_c, 0, 51, 27
3, 140136, Note_on_c, 0, 51, 0
3, 140160, Note_on_c, 0, 51, 27
3, 140376, Note_on_c, 0, 51, 0
3, 140400, Note_on_c, 0, 39, 0
3, 140400, Note_on_c, 0, 51, 32
3, 140616, Note_on_c, 0, 51, 0
3, 140640, Note_on_c, 0, 51, 28
3, 140856, Note_on_c, 0, 51, 0
3, 140880, Note_on_c, 0, 51, 28
3, 141096, Note_on_c, 0, 51, 0
3, 141120, Note_on_c, 0, 51, 32
3, 141336, Note_on_c, 0, 51, 0
3, 141360, Note_on_c, 0, 51, 28
3, 141576, Note_on_c, 0, 51, 0
3, 141600, Note_on_c, 0, 51, 28
3, 141816, Note_on_c, 0, 51, 0
3, 141840, Note_on_c, 0, 51, 32
3, 142056, Note_on_c, 0, 51, 0
3, 142080, Note_on_c, 0, 51, 28
3, 142296, Note_on_c, 0, 51, 0
3, 142320, Note_on_c, 0, 51, 28
3, 142536, Note_on_c, 0, 51, 0
3, 142560, Note_on_c, 0, 51, 32
3, 142776, Note_on_c, 0, 51, 0
3, 142800, Note_on_c, 0, 51, 28
3, 143016, Note_on_c, 0, 51, 0
3, 143040, Note_on_c, 0, 51, 28
3, 143256, Note_on_c, 0, 51, 0
3, 143280, Note_on_c, 0, 51, 32
3, 143496, Note_on_c, 0, 51, 0
3, 143520, Note_on_c, 0, 51, 28
3, 143736, Note_on_c, 0, 51, 0
3, 143760, Note_on_c, 0, 51, 28
3, 143976, Note_on_c, 0, 51, 0
3, 144000, Note_on_c, 0, 51, 32
3, 144216, Note_on_c, 0, 51, 0
3, 144240, Note_on_c, 0, 51, 28
3, 144456, Note_on_c, 0, 51, 0
3, 144480, Note_on_c, 0, 51, 28
3, 144696, Note_on_c, 0, 51, 0
3, 144720, Note_on_c, 0, 51, 32
3, 144936, Note_on_c, 0, 51, 0
3, 144960, Note_on_c, 0, 51, 28
3, 145176, Note_on_c, 0, 51, 0
3, 145200, Note_on_c, 0, 51, 28
3, 145416, Note_on_c, 0, 51, 0
3, 145440, Note_on_c, 0, 51, 32
3, 145656, Note_on_c, 0, 51, 0
3, 145680, Note_on_c, 0, 51, 28
3, 145896, Note_on_c, 0, 51, 0
3, 145920, Note_on_c, 0, 51, 28
3, 146136, Note_on_c, 0, 51, 0
3, 146160, Note_on_c, 0, 51, 32
3, 146376, Note_on_c, 0, 51, 0
3, 146400, Note_on_c, 0, 51, 28
3, 146616, Note_on_c, 0, 51, 0
3, 146640, Note_on_c, 0, 51, 28
3, 146856, Note_on_c, 0, 51, 0
3, 146880, Note_on_c, 0, 51, 32
3, 147360, Note_on_c, 0, 51, 0
3, 147600, Note_on_c, 0, 63, 28
3, 147600, Note_on_c, 0, 58, 23
3, 147600, Note_on_c, 0, 55, 23
3, 148080, Note_on_c, 0, 55, 0
3, 148080, Note_on_c, 0, 58, 0
3, 148080, Note_on_c, 0, 63, 0
3, 148320, Note_on_c, 0, 67, 23
3, 148320, Note_on_c, 0, 70, 23
3, 148320, Note_on_c, 0, 75, 28
3, 148800, Note_on_c, 0, 75, 0
3, 148800, Note_on_c, 0, 70, 0
3, 148800, Note_on_c, 0, 67, 0
3, 149040, Note_on_c, 0, 68, 23
3, 149040, Note_on_c, 0, 72, 23
3, 149040, Note_on_c, 0, 75, 28
3, 149520, Note_on_c, 0, 75, 0
3, 149520, Note_on_c, 0, 72, 0
3, 149520, Note_on_c, 0, 68, 0
3, 149760, Note_on_c, 0, 63, 28
3, 149760, Note_on_c, 0, 60, 23
3, 149760, Note_on_c, 0, 56, 23
3, 150240, Note_on_c, 0, 56, 0
3, 150240, Note_on_c, 0, 60, 0
3, 150240, Note_on_c, 0, 63, 0
3, 150480, Note_on_c, 0, 57, 23
3, 150480, Note_on_c, 0, 63, 28
3, 150480, Note_on_c, 0, 60, 23
3, 150960, Note_on_c, 0, 60, 0
3, 150960, Note_on_c, 0, 63, 0
3, 150960, Note_on_c, 0, 57, 0
3, 151200, Note_on_c, 0, 58, 35
3, 151440, Note_on_c, 0, 67, 29
3, 151440, Note_on_c, 0, 63, 24
3, 151680, Note_on_c, 0, 63, 0
3, 151680, Note_on_c, 0, 67, 0
3, 151680, Note_on_c, 0, 67, 30
3, 151680, Note_on_c, 0, 63, 25
3, 151920, Note_on_c, 0, 63, 0
3, 151920, Note_on_c, 0, 67, 0
3, 151920, Note_on_c, 0, 63, 31
3, 151920, Note_on_c, 0, 67, 38
3, 152160, Note_on_c, 0, 67, 0
3, 152160, Note_on_c, 0, 63, 0
3, 152160, Note_on_c, 0, 63, 35
3, 152160, Note_on_c, 0, 67, 42
3, 152400, Note_on_c, 0, 67, 0
3, 152400, Note_on_c, 0, 63, 0
3, 152400, Note_on_c, 0, 63, 39
3, 152400, Note_on_c, 0, 67, 46
3, 152630, Note_on_c, 0, 58, 0
3, 152640, Note_on_c, 0, 67, 0
3, 152640, Note_on_c, 0, 63, 0
3, 152640, Note_on_c, 0, 58, 37
3, 152640, Note_on_c, 0, 68, 44
3, 152640, Note_on_c, 0, 62, 37
3, 152880, Note_on_c, 0, 62, 0
3, 152880, Note_on_c, 0, 68, 0
3, 152880, Note_on_c, 0, 62, 33
3, 152880, Note_on_c, 0, 68, 39
3, 153120, Note_on_c, 0, 68, 0
3, 153120, Note_on_c, 0, 62, 0
3, 153120, Note_on_c, 0, 62, 32
3, 153120, Note_on_c, 0, 68, 38
3, 153360, Note_on_c, 0, 68, 0
3, 153360, Note_on_c, 0, 62, 0
3, 153360, Note_on_c, 0, 58, 0
3, 153360, Note_on_c, 0, 67, 40
3, 153360, Note_on_c, 0, 63, 38
3, 153840, Note_on_c, 0, 63, 0
3, 153840, Note_on_c, 0, 67, 0
3, 155520, Note_on_c, 0, 46, 35
3, 155760, Note_on_c, 0, 55, 29
3, 155760, Note_on_c, 0, 51, 24
3, 156000, Note_on_c, 0, 51, 0
3, 156000, Note_on_c, 0, 55, 0
3, 156000, Note_on_c, 0, 55, 32
3, 156000, Note_on_c, 0, 51, 27
3, 156240, Note_on_c, 0, 51, 0
3, 156240, Note_on_c, 0, 55, 0
3, 156240, Note_on_c, 0, 51, 35
3, 156240, Note_on_c, 0, 55, 43
3, 156480, Note_on_c, 0, 55, 0
3, 156480, Note_on_c, 0, 51, 0
3, 156480, Note_on_c, 0, 51, 41
3, 156480, Note_on_c, 0, 55, 49
3, 156720, Note_on_c, 0, 55, 0
3, 156720, Note_on_c, 0, 51, 0
3, 156720, Note_on_c, 0, 51, 47
3, 156720, Note_on_c, 0, 55, 55
3, 156950, Note_on_c, 0, 46, 0
3, 156960, Note_on_c, 0, 55, 0
3, 156960, Note_on_c, 0, 51, 0
3, 156960, Note_on_c, 0, 46, 45
3, 156960, Note_on_c, 0, 56, 62
3, 156960, Note_on_c, 0, 50, 52
3, 157200, Note_on_c, 0, 50, 0
3, 157200, Note_on_c, 0, 56, 0
3, 157200, Note_on_c, 0, 50, 33
3, 157200, Note_on_c, 0, 56, 39
3, 157440, Note_on_c, 0, 56, 0
3, 157440, Note_on_c, 0, 50, 0
3, 157440, Note_on_c, 0, 50, 32
3, 157440, Note_on_c, 0, 56, 38
3, 157680, Note_on_c, 0, 56, 0
3, 157680, Note_on_c, 0, 50, 0
3, 157680, Note_on_c, 0, 46, 0
3, 157680, Note_on_c, 0, 51, 44
3, 157920, Note_on_c, 0, 51, 0
3, 157920, Note_on_c, 0, 55, 39
3, 158160, Note_on_c, 0, 55, 0
3, 158160, Note_on_c, 0, 58, 39
3, 158400, Note_on_c, 0, 58, 0
3, 158400, Note_on_c, 0, 63, 44
3, 158640, Note_on_c, 0, 63, 0
3, 158640, Note_on_c, 0, 67, 38
3, 158880, Note_on_c, 0, 67, 0
3, 158880, Note_on_c, 0, 69, 38
3, 159120, Note_on_c, 0, 69, 0
3, 159120, Note_on_c, 0, 70, 44
3, 159600, Note_on_c, 0, 70, 0
3, 159600, Note_on_c, 0, 65, 44
3, 159600, Note_on_c, 0, 58, 37
3, 159780, Note_on_c, 0, 65, 0
3, 159780, Note_on_c, 0, 68, 40
3, 159840, Note_on_c, 0, 68, 0
3, 159840, Note_on_c, 0, 58, 0
3, 159840, Note_on_c, 0, 39, 44
3, 160080, Note_on_c, 0, 39, 0
3, 160080, Note_on_c, 0, 43, 39
3, 160320, Note_on_c, 0, 43, 0
3, 160320, Note_on_c, 0, 46, 39
3, 160560, Note_on_c, 0, 46, 0
3, 160560, Note_on_c, 0, 51, 44
3, 160800, Note_on_c, 0, 51, 0
3, 160800, Note_on_c, 0, 55, 38
3, 161040, Note_on_c, 0, 55, 0
3, 161040, Note_on_c, 0, 57, 34
3, 161280, Note_on_c, 0, 57, 0
3, 161280, Note_on_c, 0, 58, 39
3, 161760, Note_on_c, 0, 58, 0
3, 161760, Note_on_c, 0, 53, 39
3, 161760, Note_on_c, 0, 46, 33
3, 161940, Note_on_c, 0, 53, 0
3, 161940, Note_on_c, 0, 56, 36
3, 162000, Note_on_c, 0, 56, 0
3, 162000, Note_on_c, 0, 46, 0
3, 162000, Note_on_c, 0, 51, 34
3, 162000, Note_on_c, 0, 55, 40
3, 162240, Note_on_c, 0, 55, 0
3, 162240, Note_on_c, 0, 51, 0
3, 162240, Note_on_c, 0, 46, 33
3, 162240, Note_on_c, 0, 53, 39
3, 162600, Note_on_c, 0, 53, 0
3, 162600, Note_on_c, 0, 56, 34
3, 162720, Note_on_c, 0, 56, 0
3, 162720, Note_on_c, 0, 46, 0
3, 162720, Note_on_c, 0, 51, 34
3, 162720, Note_on_c, 0, 55, 40
3, 162960, Note_on_c, 0, 55, 0
3, 162960, Note_on_c, 0, 51, 0
3, 162960, Note_on_c, 0, 46, 33
3, 162960, Note_on_c, 0, 53, 39
3, 163320, Note_on_c, 0, 53, 0
3, 163320, Note_on_c, 0, 56, 34
3, 163440, Note_on_c, 0, 56, 0
3, 163440, Note_on_c, 0, 46, 0
3, 163440, Note_on_c, 0, 51, 34
3, 163440, Note_on_c, 0, 55, 40
3, 163680, Note_on_c, 0, 55, 0
3, 163680, Note_on_c, 0, 51, 0
3, 163680, Note_on_c, 0, 46, 38
3, 163680, Note_on_c, 0, 53, 46
3, 163800, Note_on_c, 0, 53, 0
3, 163800, Note_on_c, 0, 52, 43
3, 163920, Note_on_c, 0, 52, 0
3, 163920, Note_on_c, 0, 46, 0
3, 163920, Note_on_c, 0, 46, 38
3, 163920, Note_on_c, 0, 53, 51
3, 164040, Note_on_c, 0, 53, 0
3, 164040, Note_on_c, 0, 50, 47
3, 164160, Note_on_c, 0, 50, 0
3, 164160, Note_on_c, 0, 46, 0
3, 164280, Note_on_c, 0, 39, 26
3, 164280, Note_on_c, 0, 50, 31
3, 164280, Note_on_c, 0, 46, 26
3, 164880, Note_on_c, 0, 50, 0
3, 164880, Note_on_c, 0, 51, 25
3, 165360, Note_on_c, 0, 51, 0
3, 165360, Note_on_c, 0, 46, 0
3, 165360, Note_on_c, 0, 39, 0
3, 165360, End_track
4, 0, Start_track
4, 0, Title_t, "Pedale"
4, 0, Program_c, 0, 0
4, 2217, Control_c, 0, 64, 127
4, 2916, Control_c, 0, 64, 0
4, 2968, Control_c, 0, 64, 127
4, 3621, Control_c, 0, 64, 0
4, 4356, Control_c, 0, 64, 127
4, 4805, Control_c, 0, 64, 0
4, 4836, Control_c, 0, 64, 127
4, 5057, Control_c, 0, 64, 0
4, 5112, Control_c, 0, 64, 127
4, 5775, Control_c, 0, 64, 0
4, 6560, Control_c, 0, 64, 127
4, 7218, Control_c, 0, 64, 0
4, 8718, Control_c, 0, 64, 127
4, 9375, Control_c, 0, 64, 0
4, 9480, Control_c, 0, 64, 127
4, 10095, Control_c, 0, 64, 0
4, 10193, Control_c, 0, 64, 127
4, 10800, Control_c, 0, 64, 0
4, 10998, Control_c, 0, 64, 127
4, 12966, Control_c, 0, 64, 0
4, 13052, Control_c, 0, 64, 127
4, 13695, Control_c, 0, 64, 0
4, 13814, Control_c, 0, 64, 127
4, 14416, Control_c, 0, 64, 0
4, 14534, Control_c, 0, 64, 127
4, 15120, Control_c, 0, 64, 0
4, 15408, Control_c, 0, 64, 127
4, 16595, Control_c, 0, 64, 0
4, 16649, Control_c, 0, 64, 127
4, 16838, Control_c, 0, 64, 0
4, 17379, Control_c, 0, 64, 127
4, 18015, Control_c, 0, 64, 0
4, 19539, Control_c, 0, 64, 127
4, 20175, Control_c, 0, 64, 0
4, 20198, Control_c, 0, 64, 127
4, 20407, Control_c, 0, 64, 0
4, 20890, Control_c, 0, 64, 0
4, 20913, Control_c, 0, 64, 127
4, 21122, Control_c, 0, 64, 0
4, 21685, Control_c, 0, 64, 127
4, 22088, Control_c, 0, 64, 0
4, 22207, Control_c, 0, 64, 127
4, 22330, Control_c, 0, 64, 0
4, 22476, Control_c, 0, 64, 127
4, 22812, Control_c, 0, 64, 0
4, 22941, Control_c, 0, 64, 127
4, 23050, Control_c, 0, 64, 0
4, 23167, Control_c, 0, 64, 127
4, 23534, Control_c, 0, 64, 0
4, 23619, Control_c, 0, 64, 127
4, 23760, Control_c, 0, 64, 0
4, 23916, Control_c, 0, 64, 127
4, 24494, Control_c, 0, 64, 0
4, 24621, Control_c, 0, 64, 127
4, 24974, Control_c, 0, 64, 0
4, 25440, Control_c, 0, 64, 127
4, 27373, Control_c, 0, 64, 0
4, 27420, Control_c, 0, 64, 127
4, 27610, Control_c, 0, 64, 0
4, 27648, Control_c, 0, 64, 127
4, 27850, Control_c, 0, 64, 0
4, 27894, Control_c, 0, 64, 127
4, 28080, Control_c, 0, 64, 0
4, 28334, Control_c, 0, 64, 127
4, 28815, Control_c, 0, 64, 0
4, 29760, Control_c, 0, 64, 127
4, 31693, Control_c, 0, 64, 0
4, 31740, Control_c, 0, 64, 127
4, 31930, Control_c, 0, 64, 0
4, 31968, Control_c, 0, 64, 127
4, 32170, Control_c, 0, 64, 0
4, 32214, Control_c, 0, 64, 127
4, 32400, Control_c, 0, 64, 0
4, 32654, Control_c, 0, 64, 127
4, 33135, Control_c, 0, 64, 0
4, 33290, Control_c, 0, 64, 127
4, 33843, Control_c, 0, 64, 0
4, 33953, Control_c, 0, 64, 127
4, 34567, Control_c, 0, 64, 0
4, 34709, Control_c, 0, 64, 127
4, 35294, Control_c, 0, 64, 0
4, 35429, Control_c, 0, 64, 127
4, 36015, Control_c, 0, 64, 0
4, 36137, Control_c, 0, 64, 127
4, 36720, Control_c, 0, 64, 0
4, 36833, Control_c, 0, 64, 127
4, 37461, Control_c, 0, 64, 0
4, 37560, Control_c, 0, 64, 127
4, 38645, Control_c, 0, 64, 0
4, 38718, Control_c, 0, 64, 127
4, 38886, Control_c, 0, 64, 0
4, 38960, Control_c, 0, 64, 127
4, 39130, Control_c, 0, 64, 0
4, 39183, Control_c, 0, 64, 127
4, 39379, Control_c, 0, 64, 0
4, 39440, Control_c, 0, 64, 127
4, 39490, Control_c, 0, 64, 0
4, 39675, Control_c, 0, 64, 127
4, 40087, Control_c, 0, 64, 0
4, 40143, Control_c, 0, 64, 127
4, 40337, Control_c, 0, 64, 0
4, 40417, Control_c, 0, 64, 127
4, 40575, Control_c, 0, 64, 0
4, 41066, Control_c, 0, 64, 127
4, 41290, Control_c, 0, 64, 0
4, 41335, Control_c, 0, 64, 127
4, 41531, Control_c, 0, 64, 0
4, 41563, Control_c, 0, 64, 127
4, 41774, Control_c, 0, 64, 0
4, 41829, Control_c, 0, 64, 127
4, 42485, Control_c, 0, 64, 0
4, 42515, Control_c, 0, 64, 127
4, 42738, Control_c, 0, 64, 0
4, 42783, Control_c, 0, 64, 127
4, 42968, Control_c, 0, 64, 0
4, 43012, Control_c, 0, 64, 127
4, 43220, Control_c, 0, 64, 0
4, 43269, Control_c, 0, 64, 127
4, 43454, Control_c, 0, 64, 0
4, 43520, Control_c, 0, 64, 127
4, 43705, Control_c, 0, 64, 0
4, 44000, Control_c, 0, 64, 127
4, 44420, Control_c, 0, 64, 0
4, 45475, Control_c, 0, 64, 127
4, 45855, Control_c, 0, 64, 0
4, 46195, Control_c, 0, 64, 127
4, 46575, Control_c, 0, 64, 0
4, 46903, Control_c, 0, 64, 127
4, 47297, Control_c, 0, 64, 0
4, 47566, Control_c, 0, 64, 127
4, 48018, Control_c, 0, 64, 0
4, 48389, Control_c, 0, 64, 127
4, 48737, Control_c, 0, 64, 0
4, 49166, Control_c, 0, 64, 127
4, 49454, Control_c, 0, 64, 0
4, 49709, Control_c, 0, 64, 127
4, 50429, Control_c, 0, 64, 0
4, 50463, Control_c, 0, 64, 127
4, 51131, Control_c, 0, 64, 0
4, 51189, Control_c, 0, 64, 127
4, 51840, Control_c, 0, 64, 0
4, 54028, Control_c, 0, 64, 127
4, 54729, Control_c, 0, 64, 0
4, 54751, Control_c, 0, 64, 127
4, 55449, Control_c, 0, 64, 0
4, 55474, Control_c, 0, 64, 127
4, 56160, Control_c, 0, 64, 0
4, 56263, Control_c, 0, 64, 127
4, 56649, Control_c, 0, 64, 0
4, 56706, Control_c, 0, 64, 127
4, 57366, Control_c, 0, 64, 0
4, 57420, Control_c, 0, 64, 127
4, 57607, Control_c, 0, 64, 0
4, 58117, Control_c, 0, 64, 127
4, 58320, Control_c, 0, 64, 0
4, 58423, Control_c, 0, 64, 127
4, 58809, Control_c, 0, 64, 0
4, 58866, Control_c, 0, 64, 127
4, 59526, Control_c, 0, 64, 0
4, 59580, Control_c, 0, 64, 127
4, 59767, Control_c, 0, 64, 0
4, 60277, Control_c, 0, 64, 127
4, 60501, Control_c, 0, 64, 0
4, 60852, Control_c, 0, 64, 127
4, 61218, Control_c, 0, 64, 0
4, 61549, Control_c, 0, 64, 127
4, 61939, Control_c, 0, 64, 0
4, 62246, Control_c, 0, 64, 127
4, 62415, Control_c, 0, 64, 0
4, 62457, Control_c, 0, 64, 127
4, 62640, Control_c, 0, 64, 0
4, 62789, Control_c, 0, 64, 127
4, 63371, Control_c, 0, 64, 0
4, 63401, Control_c, 0, 64, 127
4, 63853, Control_c, 0, 64, 0
4, 71294, Control_c, 0, 64, 127
4, 72028, Control_c, 0, 64, 0
4, 72078, Control_c, 0, 64, 127
4, 72254, Control_c, 0, 64, 0
4, 72297, Control_c, 0, 64, 127
4, 72489, Control_c, 0, 64, 0
4, 72533, Control_c, 0, 64, 127
4, 72737, Control_c, 0, 64, 0
4, 72787, Control_c, 0, 64, 127
4, 72975, Control_c, 0, 64, 0
4, 73024, Control_c, 0, 64, 127
4, 73221, Control_c, 0, 64, 0
4, 73264, Control_c, 0, 64, 127
4, 73440, Control_c, 0, 64, 0
4, 73497, Control_c, 0, 64, 127
4, 74167, Control_c, 0, 64, 0
4, 74220, Control_c, 0, 64, 127
4, 74409, Control_c, 0, 64, 0
4, 74471, Control_c, 0, 64, 127
4, 74652, Control_c, 0, 64, 0
4, 74693, Control_c, 0, 64, 127
4, 74899, Control_c, 0, 64, 0
4, 74937, Control_c, 0, 64, 127
4, 75135, Control_c, 0, 64, 0
4, 75184, Control_c, 0, 64, 127
4, 75372, Control_c, 0, 64, 0
4, 75420, Control_c, 0, 64, 127
4, 75615, Control_c, 0, 64, 0
4, 75649, Control_c, 0, 64, 127
4, 76334, Control_c, 0, 64, 0
4, 76366, Control_c, 0, 64, 127
4, 76571, Control_c, 0, 64, 0
4, 76612, Control_c, 0, 64, 127
4, 76817, Control_c, 0, 64, 0
4, 76846, Control_c, 0, 64, 127
4, 77055, Control_c, 0, 64, 0
4, 77086, Control_c, 0, 64, 127
4, 77299, Control_c, 0, 64, 0
4, 77332, Control_c, 0, 64, 127
4, 77531, Control_c, 0, 64, 0
4, 77572, Control_c, 0, 64, 127
4, 77760, Control_c, 0, 64, 0
4, 77797, Control_c, 0, 64, 127
4, 78491, Control_c, 0, 64, 0
4, 78520, Control_c, 0, 64, 127
4, 78729, Control_c, 0, 64, 0
4, 78760, Control_c, 0, 64, 127
4, 78969, Control_c, 0, 64, 0
4, 79015, Control_c, 0, 64, 127
4, 79214, Control_c, 0, 64, 0
4, 79266, Control_c, 0, 64, 127
4, 79448, Control_c, 0, 64, 0
4, 79483, Control_c, 0, 64, 127
4, 79688, Control_c, 0, 64, 0
4, 79726, Control_c, 0, 64, 127
4, 79935, Control_c, 0, 64, 0
4, 79969, Control_c, 0, 64, 127
4, 80654, Control_c, 0, 64, 0
4, 80686, Control_c, 0, 64, 127
4, 80891, Control_c, 0, 64, 0
4, 80932, Control_c, 0, 64, 127
4, 81137, Control_c, 0, 64, 0
4, 81166, Control_c, 0, 64, 127
4, 81375, Control_c, 0, 64, 0
4, 81406, Control_c, 0, 64, 127
4, 81619, Control_c, 0, 64, 0
4, 81652, Control_c, 0, 64, 127
4, 81851, Control_c, 0, 64, 0
4, 81892, Control_c, 0, 64, 127
4, 82080, Control_c, 0, 64, 0
4, 82155, Control_c, 0, 64, 127
4, 82568, Control_c, 0, 64, 0
4, 82623, Control_c, 0, 64, 127
4, 82807, Control_c, 0, 64, 0
4, 82857, Control_c, 0, 64, 127
4, 83048, Control_c, 0, 64, 0
4, 83109, Control_c, 0, 64, 127
4, 83294, Control_c, 0, 64, 0
4, 83366, Control_c, 0, 64, 127
4, 83538, Control_c, 0, 64, 0
4, 83583, Control_c, 0, 64, 127
4, 83771, Control_c, 0, 64, 0
4, 83823, Control_c, 0, 64, 127
4, 84007, Control_c, 0, 64, 0
4, 84069, Control_c, 0, 64, 127
4, 84240, Control_c, 0, 64, 0
4, 84315, Control_c, 0, 64, 127
4, 84488, Control_c, 0, 64, 0
4, 84537, Control_c, 0, 64, 127
4, 84728, Control_c, 0, 64, 0
4, 84783, Control_c, 0, 64, 127
4, 84967, Control_c, 0, 64, 0
4, 85017, Control_c, 0, 64, 127
4, 85208, Control_c, 0, 64, 0
4, 85269, Control_c, 0, 64, 127
4, 85454, Control_c, 0, 64, 0
4, 85526, Control_c, 0, 64, 127
4, 85698, Control_c, 0, 64, 0
4, 85743, Control_c, 0, 64, 127
4, 85931, Control_c, 0, 64, 0
4, 85983, Control_c, 0, 64, 127
4, 86167, Control_c, 0, 64, 0
4, 86229, Control_c, 0, 64, 127
4, 86400, Control_c, 0, 64, 0
4, 86475, Control_c, 0, 64, 127
4, 86648, Control_c, 0, 64, 0
4, 86697, Control_c, 0, 64, 127
4, 86888, Control_c, 0, 64, 0
4, 86943, Control_c, 0, 64, 127
4, 87127, Control_c, 0, 64, 0
4, 87177, Control_c, 0, 64, 127
4, 87368, Control_c, 0, 64, 0
4, 87429, Control_c, 0, 64, 127
4, 87614, Control_c, 0, 64, 0
4, 87686, Control_c, 0, 64, 127
4, 87858, Control_c, 0, 64, 0
4, 87903, Control_c, 0, 64, 127
4, 88091, Control_c, 0, 64, 0
4, 88143, Control_c, 0, 64, 127
4, 88327, Control_c, 0, 64, 0
4, 88389, Control_c, 0, 64, 127
4, 88560, Control_c, 0, 64, 0
4, 88635, Control_c, 0, 64, 127
4, 88808, Control_c, 0, 64, 0
4, 88857, Control_c, 0, 64, 127
4, 89048, Control_c, 0, 64, 0
4, 89103, Control_c, 0, 64, 127
4, 89287, Control_c, 0, 64, 0
4, 89337, Control_c, 0, 64, 127
4, 89528, Control_c, 0, 64, 0
4, 89589, Control_c, 0, 64, 127
4, 89774, Control_c, 0, 64, 0
4, 89846, Control_c, 0, 64, 127
4, 90018, Control_c, 0, 64, 0
4, 90063, Control_c, 0, 64, 127
4, 90251, Control_c, 0, 64, 0
4, 90303, Control_c, 0, 64, 127
4, 90487, Control_c, 0, 64, 0
4, 90549, Control_c, 0, 64, 127
4, 90720, Control_c, 0, 64, 0
4, 90795, Control_c, 0, 64, 127
4, 90968, Control_c, 0, 64, 0
4, 91017, Control_c, 0, 64, 127
4, 91208, Control_c, 0, 64, 0
4, 91263, Control_c, 0, 64, 127
4, 91447, Control_c, 0, 64, 0
4, 91497, Control_c, 0, 64, 127
4, 91688, Control_c, 0, 64, 0
4, 91749, Control_c, 0, 64, 127
4, 91934, Control_c, 0, 64, 0
4, 92006, Control_c, 0, 64, 127
4, 92178, Control_c, 0, 64, 0
4, 92223, Control_c, 0, 64, 127
4, 92411, Control_c, 0, 64, 0
4, 92463, Control_c, 0, 64, 127
4, 92647, Control_c, 0, 64, 0
4, 92709, Control_c, 0, 64, 127
4, 92880, Control_c, 0, 64, 0
4, 92955, Control_c, 0, 64, 127
4, 93128, Control_c, 0, 64, 0
4, 93177, Control_c, 0, 64, 127
4, 93368, Control_c, 0, 64, 0
4, 93423, Control_c, 0, 64, 127
4, 93607, Control_c, 0, 64, 0
4, 93657, Control_c, 0, 64, 127
4, 93848, Control_c, 0, 64, 0
4, 93909, Control_c, 0, 64, 127
4, 94094, Control_c, 0, 64, 0
4, 94166, Control_c, 0, 64, 127
4, 94338, Control_c, 0, 64, 0
4, 94383, Control_c, 0, 64, 127
4, 94571, Control_c, 0, 64, 0
4, 94623, Control_c, 0, 64, 127
4, 94807, Control_c, 0, 64, 0
4, 94869, Control_c, 0, 64, 127
4, 95040, Control_c, 0, 64, 0
4, 95097, Control_c, 0, 64, 127
4, 95295, Control_c, 0, 64, 0
4, 95355, Control_c, 0, 64, 127
4, 95535, Control_c, 0, 64, 0
4, 95595, Control_c, 0, 64, 127
4, 95720, Control_c, 0, 64, 0
4, 101577, Control_c, 0, 64, 127
4, 102276, Control_c, 0, 64, 0
4, 102328, Control_c, 0, 64, 127
4, 102981, Control_c, 0, 64, 0
4, 103716, Control_c, 0, 64, 127
4, 104165, Control_c, 0, 64, 0
4, 104196, Control_c, 0, 64, 127
4, 104417, Control_c, 0, 64, 0
4, 104472, Control_c, 0, 64, 127
4, 105135, Control_c, 0, 64, 0
4, 105920, Control_c, 0, 64, 127
4, 106578, Control_c, 0, 64, 0
4, 106612, Control_c, 0, 64, 127
4, 107288, Control_c, 0, 64, 0
4, 107329, Control_c, 0, 64, 127
4, 108000, Control_c, 0, 64, 0
4, 108134, Control_c, 0, 64, 127
4, 108735, Control_c, 0, 64, 0
4, 108840, Control_c, 0, 64, 127
4, 109455, Control_c, 0, 64, 0
4, 109553, Control_c, 0, 64, 127
4, 110160, Control_c, 0, 64, 0
4, 110358, Control_c, 0, 64, 127
4, 112320, Control_c, 0, 64, 0
4, 112377, Control_c, 0, 64, 127
4, 113040, Control_c, 0, 64, 0
4, 113117, Control_c, 0, 64, 127
4, 113776, Control_c, 0, 64, 0
4, 113826, Control_c, 0, 64, 127
4, 114486, Control_c, 0, 64, 0
4, 114768, Control_c, 0, 64, 127
4, 115955, Control_c, 0, 64, 0
4, 116009, Control_c, 0, 64, 127
4, 116198, Control_c, 0, 64, 0
4, 116739, Control_c, 0, 64, 127
4, 117375, Control_c, 0, 64, 0
4, 118899, Control_c, 0, 64, 127
4, 119535, Control_c, 0, 64, 0
4, 119558, Control_c, 0, 64, 127
4, 119767, Control_c, 0, 64, 0
4, 120250, Control_c, 0, 64, 0
4, 120273, Control_c, 0, 64, 127
4, 120482, Control_c, 0, 64, 0
4, 121200, Control_c, 0, 64, 127
4, 124573, Control_c, 0, 64, 0
4, 124620, Control_c, 0, 64, 127
4, 124810, Control_c, 0, 64, 0
4, 124848, Control_c, 0, 64, 127
4, 125050, Control_c, 0, 64, 0
4, 125094, Control_c, 0, 64, 127
4, 125280, Control_c, 0, 64, 0
4, 125534, Control_c, 0, 64, 127
4, 126015, Control_c, 0, 64, 0
4, 126960, Control_c, 0, 64, 127
4, 128893, Control_c, 0, 64, 0
4, 128940, Control_c, 0, 64, 127
4, 129130, Control_c, 0, 64, 0
4, 129168, Control_c, 0, 64, 127
4, 129370, Control_c, 0, 64, 0
4, 129414, Control_c, 0, 64, 127
4, 129600, Control_c, 0, 64, 0
4, 129854, Control_c, 0, 64, 127
4, 130335, Control_c, 0, 64, 0
4, 130490, Control_c, 0, 64, 127
4, 131043, Control_c, 0, 64, 0
4, 131153, Control_c, 0, 64, 127
4, 131763, Control_c, 0, 64, 0
4, 131873, Control_c, 0, 64, 127
4, 132483, Control_c, 0, 64, 0
4, 132593, Control_c, 0, 64, 127
4, 133203, Control_c, 0, 64, 0
4, 133313, Control_c, 0, 64, 127
4, 133920, Control_c, 0, 64, 0
4, 134174, Control_c, 0, 64, 127
4, 134415, Control_c, 0, 64, 0
4, 134810, Control_c, 0, 64, 127
4, 135363, Control_c, 0, 64, 0
4, 135473, Control_c, 0, 64, 127
4, 136083, Control_c, 0, 64, 0
4, 136193, Control_c, 0, 64, 127
4, 136803, Control_c, 0, 64, 0
4, 136913, Control_c, 0, 64, 127
4, 137523, Control_c, 0, 64, 0
4, 137633, Control_c, 0, 64, 127
4, 138240, Control_c, 0, 64, 0
4, 138353, Control_c, 0, 64, 127
4, 138981, Control_c, 0, 64, 0
4, 139080, Control_c, 0, 64, 127
4, 140165, Control_c, 0, 64, 0
4, 140238, Control_c, 0, 64, 127
4, 140406, Control_c, 0, 64, 0
4, 140480, Control_c, 0, 64, 127
4, 140650, Control_c, 0, 64, 0
4, 140703, Control_c, 0, 64, 127
4, 140899, Control_c, 0, 64, 0
4, 140960, Control_c, 0, 64, 127
4, 141010, Control_c, 0, 64, 0
4, 141195, Control_c, 0, 64, 127
4, 141607, Control_c, 0, 64, 0
4, 141663, Control_c, 0, 64, 127
4, 141857, Control_c, 0, 64, 0
4, 141937, Control_c, 0, 64, 127
4, 142095, Control_c, 0, 64, 0
4, 142586, Control_c, 0, 64, 127
4, 142810, Control_c, 0, 64, 0
4, 142855, Control_c, 0, 64, 127
4, 143051, Control_c, 0, 64, 0
4, 143083, Control_c, 0, 64, 127
4, 143294, Control_c, 0, 64, 0
4, 143349, Control_c, 0, 64, 127
4, 144005, Control_c, 0, 64, 0
4, 144035, Control_c, 0, 64, 127
4, 144258, Control_c, 0, 64, 0
4, 144303, Control_c, 0, 64, 127
4, 144488, Control_c, 0, 64, 0
4, 144532, Control_c, 0, 64, 127
4, 144740, Control_c, 0, 64, 0
4, 144789, Control_c, 0, 64, 127
4, 144974, Control_c, 0, 64, 0
4, 145040, Control_c, 0, 64, 127
4, 145225, Control_c, 0, 64, 0
4, 145520, Control_c, 0, 64, 127
4, 145940, Control_c, 0, 64, 0
4, 146995, Control_c, 0, 64, 127
4, 147375, Control_c, 0, 64, 0
4, 147715, Control_c, 0, 64, 127
4, 148095, Control_c, 0, 64, 0
4, 148423, Control_c, 0, 64, 127
4, 148817, Control_c, 0, 64, 0
4, 149086, Control_c, 0, 64, 127
4, 149538, Control_c, 0, 64, 0
4, 149909, Control_c, 0, 64, 127
4, 150257, Control_c, 0, 64, 0
4, 150686, Control_c, 0, 64, 127
4, 150974, Control_c, 0, 64, 0
4, 151229, Control_c, 0, 64, 127
4, 151949, Control_c, 0, 64, 0
4, 151983, Control_c, 0, 64, 127
4, 152651, Control_c, 0, 64, 0
4, 152709, Control_c, 0, 64, 127
4, 153360, Control_c, 0, 64, 0
4, 155532, Control_c, 0, 64, 127
4, 156249, Control_c, 0, 64, 0
4, 156271, Control_c, 0, 64, 127
4, 156969, Control_c, 0, 64, 0
4, 156994, Control_c, 0, 64, 127
4, 157680, Control_c, 0, 64, 0
4, 157775, Control_c, 0, 64, 127
4, 158169, Control_c, 0, 64, 0
4, 158226, Control_c, 0, 64, 127
4, 158886, Control_c, 0, 64, 0
4, 158940, Control_c, 0, 64, 127
4, 159127, Control_c, 0, 64, 0
4, 159637, Control_c, 0, 64, 127
4, 159840, Control_c, 0, 64, 0
4, 159940, Control_c, 0, 64, 127
4, 160329, Control_c, 0, 64, 0
4, 160386, Control_c, 0, 64, 127
4, 161046, Control_c, 0, 64, 0
4, 161100, Control_c, 0, 64, 127
4, 161287, Control_c, 0, 64, 0
4, 161797, Control_c, 0, 64, 127
4, 162021, Control_c, 0, 64, 0
4, 162372, Control_c, 0, 64, 127
4, 162738, Control_c, 0, 64, 0
4, 163069, Control_c, 0, 64, 127
4, 163459, Control_c, 0, 64, 0
4, 163766, Control_c, 0, 64, 127
4, 163935, Control_c, 0, 64, 0
4, 163977, Control_c, 0, 64, 127
4, 164160, Control_c, 0, 64, 0
4, 164309, Control_c, 0, 64, 127
4, 164891, Control_c, 0, 64, 0
4, 164921, Control_c, 0, 64, 127
4, 165373, Control_c, 0, 64, 0
4, 165373, End_track
5, 0, Start_track
5, 0, Title_t, "Beethoven: Grande Sonate Opus 22 - 2. movement"
5, 0, End_track
6, 0, Start_track
6, 0, Title_t, "Copyright © 2009 by Bernd Krueger"
6, 0, End_track
7, 0, Start_track
7, 0, Title_t, "http://www.piano-midi.de/"
7, 0, End_track
8, 0, Start_track
8, 0, Title_t, "Edition: 2012-05-28"
8, 0, End_track
9, 0, Start_track
9, 0, Title_t, "Spur 8"
9, 0, End_track
10, 0, Start_track
10, 0, Title_t, "Spur 9"
10, 0, End_track
11, 0, Start_track
11, 0, Title_t, "Spur 10"
11, 0, End_track
12, 0, Start_track
12, 0, Title_t, "Spur 11"
12, 0, End_track
13, 0, Start_track
13, 0, Title_t, "Spur 12"
13, 0, End_track
14, 0, Start_track
14, 0, Title_t, "Spur 13"
14, 0, End_track
15, 0, Start_track
15, 0, Title_t, "Spur 14"
15, 0, End_track
16, 0, Start_track
16, 0, Title_t, "Spur 15"
16, 0, End_track
17, 0, Start_track
17, 0, Title_t, "Spur 16"
17, 0, End_track
0, 0, End_of_file
