0, 0, Header, 1, 17, 480
1, 0, Start_track
1, 0, Title_t, "Sonate Les adieux 2. Satz"
1, 0, Copyright_t, "Copyright © 2008 by Bernd Krueger"
1, 0, Text_t, "Ludwig van Beethoven"
1, 0, Text_t, "Andante expressivo"
1, 0, Text_t, "Erstellt: 12.2.2008\012"
1, 0, Text_t, "Update: 7.8.2012\012"
1, 0, Text_t, "Dauer: 2:54 Minuten\012"
1, 0, Time_signature, 4, 2, 24, 8
1, 0, Key_signature, -3, "major"
1, 0, Tempo, 1066667
1, 480, Tempo, 1066667
1, 3180, Tempo, 1150086
1, 3360, Tempo, 1049685
1, 4320, Tempo, 1041486
1, 4680, Tempo, 1120867
1, 4800, Tempo, 1033236
1, 5280, Tempo, 1009591
1, 5520, Tempo, 1066667
1, 5760, Tempo, 1025290
1, 6060, Tempo, 1066667
1, 6240, Tempo, 1025290
1, 6720, Tempo, 1296737
1, 6960, Tempo, 711069
1, 7200, Tempo, 1017467
1, 7680, Tempo, 1066667
1, 8160, Tempo, 1066667
1, 10860, Tempo, 1150086
1, 11040, Tempo, 1049685
1, 12000, Tempo, 1041486
1, 12360, Tempo, 1120867
1, 12480, Tempo, 1033236
1, 12960, Tempo, 1009591
1, 13200, Tempo, 1066667
1, 13440, Tempo, 1025290
1, 13740, Tempo, 1066667
1, 13920, Tempo, 1025290
1, 14400, Tempo, 1296737
1, 14582, Tempo, 1296737
1, 14640, Tempo, 1100917
1, 14880, Tempo, 1016949
1, 15120, Tempo, 1121495
1, 15360, Tempo, 1500000
1, 15600, Tempo, 851064
1, 15840, Tempo, 1008403
1, 16080, Tempo, 1090909
1, 16320, Tempo, 1016949
1, 16800, Tempo, 1052632
1, 17040, Tempo, 1153846
1, 17280, Tempo, 1071429
1, 17760, Tempo, 1132075
1, 18720, Tempo, 1034483
1, 19200, Tempo, 991736
1, 19560, Tempo, 1111111
1, 19680, Tempo, 991736
1, 21000, Tempo, 1100917
1, 21120, Tempo, 952381
1, 21480, Tempo, 1081081
1, 21600, Tempo, 960000
1, 21960, Tempo, 1061947
1, 22080, Tempo, 944882
1, 22440, Tempo, 1081081
1, 22560, Tempo, 944882
1, 22637, Tempo, 952381
1, 22714, Tempo, 960000
1, 22772, Tempo, 967742
1, 22848, Tempo, 975610
1, 22925, Tempo, 983607
1, 22983, Tempo, 991736
1, 23040, Tempo, 960000
1, 23405, Tempo, 1034483
1, 23501, Tempo, 960000
1, 23880, Tempo, 1025641
1, 24000, Tempo, 944882
1, 24360, Tempo, 1008403
1, 24480, Tempo, 944882
1, 24840, Tempo, 1043478
1, 24960, Tempo, 937500
1, 25320, Tempo, 975610
1, 25440, Tempo, 937500
1, 25800, Tempo, 1016949
1, 25920, Tempo, 1008403
1, 26016, Tempo, 1016949
1, 26093, Tempo, 1025641
1, 26189, Tempo, 1034483
1, 26266, Tempo, 1043478
1, 26280, Tempo, 1090909
1, 26381, Tempo, 1061947
1, 26420, Tempo, 1071429
1, 26439, Tempo, 1081081
1, 26477, Tempo, 1090909
1, 26496, Tempo, 1100917
1, 26516, Tempo, 1111111
1, 26554, Tempo, 1121495
1, 26573, Tempo, 1132075
1, 26592, Tempo, 1142857
1, 26631, Tempo, 1153846
1, 26650, Tempo, 1165049
1, 26669, Tempo, 1176471
1, 26760, Tempo, 1600000
1, 26900, Tempo, 1052632
1, 26957, Tempo, 1043478
1, 26996, Tempo, 1034483
1, 27053, Tempo, 1025641
1, 27092, Tempo, 1016949
1, 27149, Tempo, 1008403
1, 27207, Tempo, 1000000
1, 27245, Tempo, 991736
1, 27303, Tempo, 983607
1, 27341, Tempo, 975610
1, 28380, Tempo, 952381
1, 28560, Tempo, 1043478
1, 28800, Tempo, 983607
1, 29040, Tempo, 944882
1, 29280, Tempo, 960000
1, 29580, Tempo, 1034483
1, 29760, Tempo, 991736
1, 30120, Tempo, 1142857
1, 30240, Tempo, 952381
1, 30360, Tempo, 1008403
1, 30480, Tempo, 944882
1, 30600, Tempo, 1008403
1, 30720, Tempo, 952381
1, 31080, Tempo, 1176471
1, 31200, Tempo, 967742
1, 31680, Tempo, 967742
1, 31740, Tempo, 983607
1, 31800, Tempo, 952381
1, 32160, Tempo, 937500
1, 32340, Tempo, 991736
1, 32520, Tempo, 1081081
1, 32640, Tempo, 967742
1, 33120, Tempo, 960000
1, 33480, Tempo, 1034483
1, 33600, Tempo, 960000
1, 34080, Tempo, 952381
1, 34200, Tempo, 1008403
1, 34320, Tempo, 944882
1, 34440, Tempo, 1034483
1, 34560, Tempo, 941176
1, 34740, Tempo, 1085973
1, 34860, Tempo, 960000
1, 35340, Tempo, 1004184
1, 35460, Tempo, 960000
1, 36360, Tempo, 1061947
1, 36420, Tempo, 991736
1, 36480, Tempo, 941176
1, 36600, Tempo, 1012658
1, 36720, Tempo, 948617
1, 36780, Tempo, 948617
1, 37320, Tempo, 979592
1, 37440, Tempo, 967742
1, 37500, Tempo, 991736
1, 37524, Tempo, 1000000
1, 37716, Tempo, 1008403
1, 37884, Tempo, 1016949
1, 38076, Tempo, 1025641
1, 38244, Tempo, 1034483
1, 38280, Tempo, 1165049
1, 38400, Tempo, 1066667
1, 38880, Tempo, 1066667
1, 41580, Tempo, 1150086
1, 41760, Tempo, 1049685
1, 42720, Tempo, 1041486
1, 43080, Tempo, 1120867
1, 43200, Tempo, 1033236
1, 43680, Tempo, 1009591
1, 43920, Tempo, 1066667
1, 44160, Tempo, 1025290
1, 44460, Tempo, 1066667
1, 44640, Tempo, 1025290
1, 45120, Tempo, 1296737
1, 45360, Tempo, 1296737
1, 45367, Tempo, 1100917
1, 45607, Tempo, 1016949
1, 45847, Tempo, 1121495
1, 46087, Tempo, 1500000
1, 46327, Tempo, 851064
1, 46567, Tempo, 1008403
1, 46807, Tempo, 1090909
1, 47047, Tempo, 1016949
1, 47527, Tempo, 1052632
1, 47767, Tempo, 1153846
1, 48007, Tempo, 1071429
1, 48487, Tempo, 1132075
1, 49447, Tempo, 1034483
1, 49927, Tempo, 991736
1, 50287, Tempo, 1111111
1, 50407, Tempo, 991736
1, 51727, Tempo, 1100917
1, 51847, Tempo, 952381
1, 52207, Tempo, 1081081
1, 52327, Tempo, 960000
1, 52687, Tempo, 1061947
1, 52807, Tempo, 944882
1, 53167, Tempo, 1081081
1, 53287, Tempo, 944882
1, 53364, Tempo, 952381
1, 53440, Tempo, 960000
1, 53498, Tempo, 967742
1, 53575, Tempo, 975610
1, 53652, Tempo, 983607
1, 53709, Tempo, 991736
1, 53767, Tempo, 960000
1, 54132, Tempo, 1034483
1, 54228, Tempo, 960000
1, 54607, Tempo, 1025641
1, 54727, Tempo, 944882
1, 55087, Tempo, 1008403
1, 55207, Tempo, 944882
1, 55567, Tempo, 1043478
1, 55687, Tempo, 937500
1, 56047, Tempo, 975610
1, 56167, Tempo, 937500
1, 56527, Tempo, 1016949
1, 56647, Tempo, 1008403
1, 56743, Tempo, 1016949
1, 56820, Tempo, 1025641
1, 56916, Tempo, 1034483
1, 56992, Tempo, 1043478
1, 57007, Tempo, 1090909
1, 57108, Tempo, 1061947
1, 57146, Tempo, 1071429
1, 57165, Tempo, 1081081
1, 57204, Tempo, 1090909
1, 57223, Tempo, 1100917
1, 57242, Tempo, 1111111
1, 57280, Tempo, 1121495
1, 57300, Tempo, 1132075
1, 57319, Tempo, 1142857
1, 57357, Tempo, 1153846
1, 57376, Tempo, 1165049
1, 57396, Tempo, 1176471
1, 57487, Tempo, 1600000
1, 57600, Tempo, 1600000
1, 57620, Tempo, 1052632
1, 57677, Tempo, 1043478
1, 57716, Tempo, 1034483
1, 57773, Tempo, 1025641
1, 57812, Tempo, 1016949
1, 57869, Tempo, 1008403
1, 57927, Tempo, 1000000
1, 57965, Tempo, 991736
1, 58023, Tempo, 983607
1, 58061, Tempo, 975610
1, 59100, Tempo, 952381
1, 59280, Tempo, 1043478
1, 59520, Tempo, 983607
1, 59760, Tempo, 944882
1, 60000, Tempo, 960000
1, 60300, Tempo, 1034483
1, 60480, Tempo, 991736
1, 60840, Tempo, 1142857
1, 60960, Tempo, 952381
1, 61080, Tempo, 1008403
1, 61200, Tempo, 944882
1, 61320, Tempo, 1008403
1, 61440, Tempo, 952381
1, 61800, Tempo, 1176471
1, 61920, Tempo, 967742
1, 62400, Tempo, 967742
1, 62460, Tempo, 983607
1, 62520, Tempo, 952381
1, 62880, Tempo, 937500
1, 63060, Tempo, 956175
1, 63240, Tempo, 1021277
1, 63300, Tempo, 1105991
1, 63360, Tempo, 967742
1, 63840, Tempo, 960000
1, 64200, Tempo, 1034483
1, 64320, Tempo, 960000
1, 64800, Tempo, 952381
1, 64920, Tempo, 1008403
1, 65040, Tempo, 944882
1, 65160, Tempo, 1034483
1, 65280, Tempo, 933852
1, 65400, Tempo, 1021277
1, 65520, Tempo, 956175
1, 65580, Tempo, 960000
1, 66060, Tempo, 1012658
1, 66180, Tempo, 960000
1, 66240, Tempo, 926641
1, 66360, Tempo, 987654
1, 66480, Tempo, 963855
1, 67080, Tempo, 1061947
1, 67140, Tempo, 991736
1, 67200, Tempo, 933852
1, 67320, Tempo, 1012658
1, 67440, Tempo, 941176
1, 68040, Tempo, 1004184
1, 68160, Tempo, 967742
1, 68220, Tempo, 991736
1, 68244, Tempo, 1000000
1, 68436, Tempo, 1008403
1, 68604, Tempo, 1016949
1, 68796, Tempo, 1025641
1, 68964, Tempo, 1034483
1, 69000, Tempo, 1165049
1, 69120, Tempo, 1066667
1, 69600, Tempo, 1066667
1, 71040, Tempo, 1048035
1, 71520, Tempo, 1066667
1, 72000, Tempo, 1057269
1, 72480, Tempo, 1066667
1, 72960, Tempo, 1048035
1, 73440, Tempo, 1066667
1, 73680, Tempo, 1038961
1, 74400, Tempo, 1066667
1, 74880, Tempo, 1057269
1, 75360, Tempo, 1066667
1, 75840, Tempo, 1057269
1, 76320, Tempo, 1066667
1, 76800, Tempo, 1057269
1, 77280, Tempo, 1066667
1, 77760, Tempo, 1085973
1, 78720, Tempo, 1116279
1, 79680, Tempo, 1206030
1, 79680, End_track
2, 0, Start_track
2, 0, Title_t, "Piano right"
2, 0, Program_c, 0, 0
2, 0, Note_on_c, 0, 67, 40
2, 360, Note_on_c, 0, 67, 0
2, 360, Note_on_c, 0, 66, 36
2, 480, Note_on_c, 0, 66, 0
2, 480, Note_on_c, 0, 69, 40
2, 1920, Note_on_c, 0, 69, 0
2, 1920, Note_on_c, 0, 67, 40
2, 2280, Note_on_c, 0, 67, 0
2, 2280, Note_on_c, 0, 66, 36
2, 2400, Note_on_c, 0, 66, 0
2, 2400, Note_on_c, 0, 69, 40
2, 3360, Note_on_c, 0, 69, 46
2, 3720, Note_on_c, 0, 69, 0
2, 3720, Note_on_c, 0, 75, 42
2, 3834, Note_on_c, 0, 75, 0
2, 3840, Note_on_c, 0, 69, 0
2, 3840, Note_on_c, 0, 75, 52
2, 4320, Note_on_c, 0, 75, 0
2, 4320, Note_on_c, 0, 62, 29
2, 4320, Note_on_c, 0, 74, 40
2, 4680, Note_on_c, 0, 74, 0
2, 4680, Note_on_c, 0, 67, 36
2, 4794, Note_on_c, 0, 67, 0
2, 4800, Note_on_c, 0, 62, 0
2, 4800, Note_on_c, 0, 67, 41
2, 5280, Note_on_c, 0, 67, 0
2, 5280, Note_on_c, 0, 60, 29
2, 5280, Note_on_c, 0, 66, 40
2, 5640, Note_on_c, 0, 66, 0
2, 5640, Note_on_c, 0, 69, 36
2, 5754, Note_on_c, 0, 69, 0
2, 5760, Note_on_c, 0, 60, 0
2, 5760, Note_on_c, 0, 69, 44
2, 6120, Note_on_c, 0, 69, 0
2, 6120, Note_on_c, 0, 71, 40
2, 6240, Note_on_c, 0, 59, 25
2, 6240, Note_on_c, 0, 62, 30
2, 6720, Note_on_c, 0, 62, 0
2, 6720, Note_on_c, 0, 59, 0
2, 6720, Note_on_c, 0, 59, 20
2, 6720, Note_on_c, 0, 62, 24
2, 6960, Note_on_c, 0, 72, 34
2, 7040, Note_on_c, 0, 72, 0
2, 7040, Note_on_c, 0, 71, 30
2, 7120, Note_on_c, 0, 71, 0
2, 7120, Note_on_c, 0, 69, 30
2, 7200, Note_on_c, 0, 69, 0
2, 7200, Note_on_c, 0, 71, 0
2, 7200, Note_on_c, 0, 59, 0
2, 7200, Note_on_c, 0, 62, 0
2, 7200, Note_on_c, 0, 71, 39
2, 7440, Note_on_c, 0, 71, 0
2, 7440, Note_on_c, 0, 72, 46
2, 7680, Note_on_c, 0, 72, 0
2, 7680, Note_on_c, 0, 75, 58
2, 8040, Note_on_c, 0, 75, 0
2, 8040, Note_on_c, 0, 74, 52
2, 8160, Note_on_c, 0, 74, 0
2, 8160, Note_on_c, 0, 77, 60
2, 9480, Note_on_c, 0, 77, 0
2, 9480, Note_on_c, 0, 74, 41
2, 9540, Note_on_c, 0, 74, 0
2, 9540, Note_on_c, 0, 77, 42
2, 9600, Note_on_c, 0, 77, 0
2, 9600, Note_on_c, 0, 75, 58
2, 9960, Note_on_c, 0, 75, 0
2, 9960, Note_on_c, 0, 74, 53
2, 10080, Note_on_c, 0, 74, 0
2, 10080, Note_on_c, 0, 77, 61
2, 11040, Note_on_c, 0, 74, 63
2, 11400, Note_on_c, 0, 74, 0
2, 11400, Note_on_c, 0, 80, 61
2, 11514, Note_on_c, 0, 80, 0
2, 11520, Note_on_c, 0, 77, 0
2, 11520, Note_on_c, 0, 80, 70
2, 12000, Note_on_c, 0, 80, 0
2, 12000, Note_on_c, 0, 67, 33
2, 12000, Note_on_c, 0, 79, 48
2, 12360, Note_on_c, 0, 79, 0
2, 12360, Note_on_c, 0, 72, 41
2, 12474, Note_on_c, 0, 72, 0
2, 12480, Note_on_c, 0, 67, 0
2, 12480, Note_on_c, 0, 72, 47
2, 12960, Note_on_c, 0, 72, 0
2, 12960, Note_on_c, 0, 65, 33
2, 12960, Note_on_c, 0, 71, 46
2, 13320, Note_on_c, 0, 71, 0
2, 13320, Note_on_c, 0, 74, 41
2, 13434, Note_on_c, 0, 74, 0
2, 13440, Note_on_c, 0, 65, 0
2, 13440, Note_on_c, 0, 74, 50
2, 13800, Note_on_c, 0, 74, 0
2, 13800, Note_on_c, 0, 75, 46
2, 13920, Note_on_c, 0, 63, 36
2, 14400, Note_on_c, 0, 63, 0
2, 14400, Note_on_c, 0, 63, 29
2, 14640, Note_on_c, 0, 63, 0
2, 14640, Note_on_c, 0, 68, 38
2, 14880, Note_on_c, 0, 68, 0
2, 14880, Note_on_c, 0, 75, 0
2, 14880, Note_on_c, 0, 67, 43
2, 15120, Note_on_c, 0, 67, 0
2, 15120, Note_on_c, 0, 68, 49
2, 15360, Note_on_c, 0, 68, 0
2, 15360, Note_on_c, 0, 72, 59
2, 15600, Note_on_c, 0, 72, 0
2, 15600, Note_on_c, 0, 70, 44
2, 15660, Note_on_c, 0, 70, 0
2, 15660, Note_on_c, 0, 72, 44
2, 15720, Note_on_c, 0, 72, 0
2, 15720, Note_on_c, 0, 70, 44
2, 15780, Note_on_c, 0, 70, 0
2, 15780, Note_on_c, 0, 69, 44
2, 15840, Note_on_c, 0, 69, 0
2, 15840, Note_on_c, 0, 70, 52
2, 16200, Note_on_c, 0, 70, 0
2, 16200, Note_on_c, 0, 72, 55
2, 16320, Note_on_c, 0, 72, 0
2, 16320, Note_on_c, 0, 73, 61
2, 16920, Note_on_c, 0, 73, 0
2, 16920, Note_on_c, 0, 72, 56
2, 17040, Note_on_c, 0, 72, 0
2, 17040, Note_on_c, 0, 82, 64
2, 17160, Note_on_c, 0, 82, 0
2, 17160, Note_on_c, 0, 79, 58
2, 17274, Note_on_c, 0, 79, 0
2, 17280, Note_on_c, 0, 79, 67
2, 18000, Note_on_c, 0, 79, 0
2, 18000, Note_on_c, 0, 82, 45
2, 18120, Note_on_c, 0, 82, 0
2, 18120, Note_on_c, 0, 80, 45
2, 18240, Note_on_c, 0, 80, 0
2, 18720, Note_on_c, 0, 68, 45
2, 18960, Note_on_c, 0, 68, 0
2, 18960, Note_on_c, 0, 67, 39
2, 19195, Note_on_c, 0, 67, 0
2, 19200, Note_on_c, 0, 57, 37
2, 19200, Note_on_c, 0, 60, 37
2, 19200, Note_on_c, 0, 67, 52
2, 19560, Note_on_c, 0, 67, 0
2, 19560, Note_on_c, 0, 66, 45
2, 19680, Note_on_c, 0, 66, 0
2, 19680, Note_on_c, 0, 69, 58
2, 20640, Note_on_c, 0, 69, 0
2, 20640, Note_on_c, 0, 60, 0
2, 20640, Note_on_c, 0, 57, 0
2, 20640, Note_on_c, 0, 62, 51
2, 20640, Note_on_c, 0, 69, 60
2, 21000, Note_on_c, 0, 69, 0
2, 21000, Note_on_c, 0, 67, 52
2, 21114, Note_on_c, 0, 67, 0
2, 21120, Note_on_c, 0, 62, 0
2, 21120, Note_on_c, 0, 60, 52
2, 21120, Note_on_c, 0, 62, 52
2, 21120, Note_on_c, 0, 67, 62
2, 21480, Note_on_c, 0, 67, 0
2, 21480, Note_on_c, 0, 66, 50
2, 21600, Note_on_c, 0, 66, 0
2, 21600, Note_on_c, 0, 62, 0
2, 21600, Note_on_c, 0, 60, 0
2, 21600, Note_on_c, 0, 58, 54
2, 21600, Note_on_c, 0, 62, 54
2, 21600, Note_on_c, 0, 69, 64
2, 21960, Note_on_c, 0, 69, 0
2, 21960, Note_on_c, 0, 67, 54
2, 22080, Note_on_c, 0, 67, 0
2, 22080, Note_on_c, 0, 62, 0
2, 22080, Note_on_c, 0, 58, 0
2, 22080, Note_on_c, 0, 57, 58
2, 22080, Note_on_c, 0, 62, 58
2, 22080, Note_on_c, 0, 70, 69
2, 22440, Note_on_c, 0, 70, 0
2, 22440, Note_on_c, 0, 69, 45
2, 22560, Note_on_c, 0, 69, 0
2, 22560, Note_on_c, 0, 62, 0
2, 22560, Note_on_c, 0, 57, 0
2, 22560, Note_on_c, 0, 66, 51
2, 22680, Note_on_c, 0, 66, 0
2, 22680, Note_on_c, 0, 69, 46
2, 22800, Note_on_c, 0, 69, 0
2, 22800, Note_on_c, 0, 72, 42
2, 22920, Note_on_c, 0, 72, 0
2, 22920, Note_on_c, 0, 75, 48
2, 23040, Note_on_c, 0, 75, 0
2, 23040, Note_on_c, 0, 74, 54
2, 23160, Note_on_c, 0, 74, 0
2, 23160, Note_on_c, 0, 72, 43
2, 23280, Note_on_c, 0, 72, 0
2, 23280, Note_on_c, 0, 70, 43
2, 23400, Note_on_c, 0, 70, 0
2, 23400, Note_on_c, 0, 69, 43
2, 23520, Note_on_c, 0, 69, 0
2, 23520, Note_on_c, 0, 72, 53
2, 23640, Note_on_c, 0, 72, 0
2, 23640, Note_on_c, 0, 78, 45
2, 23760, Note_on_c, 0, 78, 0
2, 23760, Note_on_c, 0, 81, 45
2, 23880, Note_on_c, 0, 81, 0
2, 23880, Note_on_c, 0, 84, 45
2, 24000, Note_on_c, 0, 84, 0
2, 24000, Note_on_c, 0, 82, 54
2, 24120, Note_on_c, 0, 82, 0
2, 24120, Note_on_c, 0, 81, 45
2, 24240, Note_on_c, 0, 81, 0
2, 24240, Note_on_c, 0, 79, 45
2, 24360, Note_on_c, 0, 79, 0
2, 24360, Note_on_c, 0, 78, 45
2, 24480, Note_on_c, 0, 78, 0
2, 24480, Note_on_c, 0, 81, 51
2, 24600, Note_on_c, 0, 81, 0
2, 24600, Note_on_c, 0, 84, 53
2, 24720, Note_on_c, 0, 84, 0
2, 24720, Note_on_c, 0, 86, 55
2, 24840, Note_on_c, 0, 86, 0
2, 24840, Note_on_c, 0, 87, 57
2, 24960, Note_on_c, 0, 87, 0
2, 24960, Note_on_c, 0, 86, 60
2, 25080, Note_on_c, 0, 86, 0
2, 25080, Note_on_c, 0, 84, 51
2, 25200, Note_on_c, 0, 84, 0
2, 25200, Note_on_c, 0, 82, 52
2, 25320, Note_on_c, 0, 82, 0
2, 25320, Note_on_c, 0, 81, 52
2, 25440, Note_on_c, 0, 81, 0
2, 25440, Note_on_c, 0, 84, 58
2, 25560, Note_on_c, 0, 84, 0
2, 25560, Note_on_c, 0, 81, 48
2, 25680, Note_on_c, 0, 81, 0
2, 25680, Note_on_c, 0, 79, 49
2, 25800, Note_on_c, 0, 79, 0
2, 25800, Note_on_c, 0, 78, 49
2, 25920, Note_on_c, 0, 78, 0
2, 25920, Note_on_c, 0, 84, 60
2, 26040, Note_on_c, 0, 84, 0
2, 26040, Note_on_c, 0, 81, 53
2, 26160, Note_on_c, 0, 81, 0
2, 26160, Note_on_c, 0, 79, 55
2, 26280, Note_on_c, 0, 79, 0
2, 26280, Note_on_c, 0, 78, 56
2, 26400, Note_on_c, 0, 78, 0
2, 26400, Note_on_c, 0, 81, 69
2, 26490, Note_on_c, 0, 81, 0
2, 26520, Note_on_c, 0, 78, 59
2, 26610, Note_on_c, 0, 78, 0
2, 26640, Note_on_c, 0, 75, 63
2, 26730, Note_on_c, 0, 75, 0
2, 26760, Note_on_c, 0, 74, 65
2, 26850, Note_on_c, 0, 74, 0
2, 26880, Note_on_c, 0, 74, 64
2, 27360, Note_on_c, 0, 74, 0
2, 27360, Note_on_c, 0, 69, 58
2, 28320, Note_on_c, 0, 69, 0
2, 28320, Note_on_c, 0, 71, 64
2, 28560, Note_on_c, 0, 71, 0
2, 28560, Note_on_c, 0, 67, 53
2, 28797, Note_on_c, 0, 67, 0
2, 28800, Note_on_c, 0, 67, 64
2, 29040, Note_on_c, 0, 67, 0
2, 29040, Note_on_c, 0, 66, 55
2, 29100, Note_on_c, 0, 66, 0
2, 29100, Note_on_c, 0, 67, 55
2, 29160, Note_on_c, 0, 67, 0
2, 29160, Note_on_c, 0, 66, 55
2, 29220, Note_on_c, 0, 66, 0
2, 29220, Note_on_c, 0, 64, 55
2, 29280, Note_on_c, 0, 64, 0
2, 29280, Note_on_c, 0, 66, 64
2, 29520, Note_on_c, 0, 66, 0
2, 29520, Note_on_c, 0, 67, 59
2, 29760, Note_on_c, 0, 67, 0
2, 29760, Note_on_c, 0, 69, 57
2, 30000, Note_on_c, 0, 69, 0
2, 30000, Note_on_c, 0, 71, 62
2, 30240, Note_on_c, 0, 71, 0
2, 30240, Note_on_c, 0, 72, 64
2, 30360, Note_on_c, 0, 72, 0
2, 30360, Note_on_c, 0, 73, 57
2, 30475, Note_on_c, 0, 73, 0
2, 30480, Note_on_c, 0, 73, 64
2, 30600, Note_on_c, 0, 73, 0
2, 30600, Note_on_c, 0, 74, 59
2, 30720, Note_on_c, 0, 74, 0
2, 30720, Note_on_c, 0, 73, 64
2, 30840, Note_on_c, 0, 73, 0
2, 30840, Note_on_c, 0, 74, 57
2, 30960, Note_on_c, 0, 74, 0
2, 30960, Note_on_c, 0, 76, 57
2, 31080, Note_on_c, 0, 76, 0
2, 31080, Note_on_c, 0, 74, 57
2, 31200, Note_on_c, 0, 74, 0
2, 31200, Note_on_c, 0, 69, 64
2, 31800, Note_on_c, 0, 69, 0
2, 31800, Note_on_c, 0, 71, 64
2, 31860, Note_on_c, 0, 71, 0
2, 31860, Note_on_c, 0, 69, 55
2, 31920, Note_on_c, 0, 69, 0
2, 31920, Note_on_c, 0, 71, 64
2, 31980, Note_on_c, 0, 71, 0
2, 31980, Note_on_c, 0, 69, 54
2, 32040, Note_on_c, 0, 69, 0
2, 32040, Note_on_c, 0, 72, 64
2, 32100, Note_on_c, 0, 72, 0
2, 32100, Note_on_c, 0, 71, 55
2, 32160, Note_on_c, 0, 71, 0
2, 32160, Note_on_c, 0, 72, 64
2, 32220, Note_on_c, 0, 72, 0
2, 32220, Note_on_c, 0, 71, 56
2, 32280, Note_on_c, 0, 71, 0
2, 32280, Note_on_c, 0, 74, 64
2, 32340, Note_on_c, 0, 74, 0
2, 32340, Note_on_c, 0, 73, 57
2, 32400, Note_on_c, 0, 73, 0
2, 32400, Note_on_c, 0, 74, 52
2, 32430, Note_on_c, 0, 74, 0
2, 32430, Note_on_c, 0, 73, 52
2, 32460, Note_on_c, 0, 73, 0
2, 32460, Note_on_c, 0, 76, 52
2, 32490, Note_on_c, 0, 76, 0
2, 32490, Note_on_c, 0, 74, 52
2, 32520, Note_on_c, 0, 74, 0
2, 32520, Note_on_c, 0, 67, 60
2, 32637, Note_on_c, 0, 67, 0
2, 32640, Note_on_c, 0, 67, 64
2, 33120, Note_on_c, 0, 67, 0
2, 33120, Note_on_c, 0, 66, 56
2, 33154, Note_on_c, 0, 66, 0
2, 33154, Note_on_c, 0, 67, 50
2, 33188, Note_on_c, 0, 67, 0
2, 33189, Note_on_c, 0, 66, 56
2, 33223, Note_on_c, 0, 66, 0
2, 33223, Note_on_c, 0, 67, 49
2, 33257, Note_on_c, 0, 67, 0
2, 33257, Note_on_c, 0, 66, 56
2, 33291, Note_on_c, 0, 66, 0
2, 33291, Note_on_c, 0, 64, 51
2, 33325, Note_on_c, 0, 64, 0
2, 33325, Note_on_c, 0, 66, 51
2, 33359, Note_on_c, 0, 66, 0
2, 33360, Note_on_c, 0, 67, 57
2, 33600, Note_on_c, 0, 67, 0
2, 33600, Note_on_c, 0, 69, 59
2, 33840, Note_on_c, 0, 69, 0
2, 33840, Note_on_c, 0, 70, 64
2, 34080, Note_on_c, 0, 70, 0
2, 34080, Note_on_c, 0, 72, 64
2, 34200, Note_on_c, 0, 72, 0
2, 34200, Note_on_c, 0, 73, 58
2, 34316, Note_on_c, 0, 73, 0
2, 34320, Note_on_c, 0, 73, 64
2, 34440, Note_on_c, 0, 73, 0
2, 34440, Note_on_c, 0, 74, 56
2, 34555, Note_on_c, 0, 74, 0
2, 34560, Note_on_c, 0, 74, 71
2, 34800, Note_on_c, 0, 74, 0
2, 34800, Note_on_c, 0, 82, 76
2, 34800, Note_on_c, 0, 74, 64
2, 35040, Note_on_c, 0, 74, 0
2, 35040, Note_on_c, 0, 82, 0
2, 35280, Note_on_c, 0, 82, 73
2, 35280, Note_on_c, 0, 74, 62
2, 35520, Note_on_c, 0, 74, 0
2, 35520, Note_on_c, 0, 82, 0
2, 35760, Note_on_c, 0, 81, 67
2, 35760, Note_on_c, 0, 72, 56
2, 36000, Note_on_c, 0, 72, 0
2, 36000, Note_on_c, 0, 81, 0
2, 36240, Note_on_c, 0, 79, 61
2, 36240, Note_on_c, 0, 70, 51
2, 36480, Note_on_c, 0, 70, 0
2, 36480, Note_on_c, 0, 79, 0
2, 36720, Note_on_c, 0, 79, 66
2, 36720, Note_on_c, 0, 70, 56
2, 36720, Note_on_c, 0, 67, 56
2, 36960, Note_on_c, 0, 67, 0
2, 36960, Note_on_c, 0, 70, 0
2, 36960, Note_on_c, 0, 79, 0
2, 37200, Note_on_c, 0, 79, 64
2, 37200, Note_on_c, 0, 75, 54
2, 37200, Note_on_c, 0, 67, 54
2, 37440, Note_on_c, 0, 67, 0
2, 37440, Note_on_c, 0, 75, 0
2, 37440, Note_on_c, 0, 79, 0
2, 37680, Note_on_c, 0, 77, 56
2, 37680, Note_on_c, 0, 74, 47
2, 37680, Note_on_c, 0, 67, 47
2, 37920, Note_on_c, 0, 67, 0
2, 37920, Note_on_c, 0, 74, 0
2, 37920, Note_on_c, 0, 77, 0
2, 38160, Note_on_c, 0, 75, 48
2, 38160, Note_on_c, 0, 72, 40
2, 38160, Note_on_c, 0, 67, 35
2, 38400, Note_on_c, 0, 67, 0
2, 38400, Note_on_c, 0, 72, 0
2, 38400, Note_on_c, 0, 75, 0
2, 38400, Note_on_c, 0, 73, 30
2, 38400, Note_on_c, 0, 70, 30
2, 38400, Note_on_c, 0, 67, 30
2, 38400, Note_on_c, 0, 77, 50
2, 38760, Note_on_c, 0, 77, 0
2, 38760, Note_on_c, 0, 76, 45
2, 38880, Note_on_c, 0, 76, 0
2, 38880, Note_on_c, 0, 79, 50
2, 40320, Note_on_c, 0, 79, 0
2, 40320, Note_on_c, 0, 73, 0
2, 40320, Note_on_c, 0, 70, 0
2, 40320, Note_on_c, 0, 67, 0
2, 40320, Note_on_c, 0, 73, 30
2, 40320, Note_on_c, 0, 70, 30
2, 40320, Note_on_c, 0, 67, 30
2, 40320, Note_on_c, 0, 77, 50
2, 40680, Note_on_c, 0, 77, 0
2, 40680, Note_on_c, 0, 76, 45
2, 40800, Note_on_c, 0, 76, 0
2, 40800, Note_on_c, 0, 79, 50
2, 41760, Note_on_c, 0, 67, 0
2, 41760, Note_on_c, 0, 73, 0
2, 41760, Note_on_c, 0, 70, 0
2, 41760, Note_on_c, 0, 73, 30
2, 41760, Note_on_c, 0, 79, 60
2, 42120, Note_on_c, 0, 79, 0
2, 42120, Note_on_c, 0, 85, 52
2, 42236, Note_on_c, 0, 85, 0
2, 42240, Note_on_c, 0, 73, 0
2, 42240, Note_on_c, 0, 79, 0
2, 42240, Note_on_c, 0, 85, 65
2, 42720, Note_on_c, 0, 85, 0
2, 42720, Note_on_c, 0, 72, 29
2, 42720, Note_on_c, 0, 84, 50
2, 43080, Note_on_c, 0, 84, 0
2, 43080, Note_on_c, 0, 77, 45
2, 43194, Note_on_c, 0, 77, 0
2, 43200, Note_on_c, 0, 72, 0
2, 43200, Note_on_c, 0, 77, 51
2, 43680, Note_on_c, 0, 77, 0
2, 43680, Note_on_c, 0, 70, 29
2, 43680, Note_on_c, 0, 76, 50
2, 44040, Note_on_c, 0, 76, 0
2, 44040, Note_on_c, 0, 79, 45
2, 44154, Note_on_c, 0, 79, 0
2, 44160, Note_on_c, 0, 70, 0
2, 44160, Note_on_c, 0, 79, 55
2, 44520, Note_on_c, 0, 79, 0
2, 44520, Note_on_c, 0, 80, 50
2, 44640, Note_on_c, 0, 72, 30
2, 45120, Note_on_c, 0, 72, 0
2, 45120, Note_on_c, 0, 72, 24
2, 45360, Note_on_c, 0, 72, 0
2, 45361, Note_on_c, 0, 73, 38
2, 45480, Note_on_c, 0, 80, 0
2, 45601, Note_on_c, 0, 73, 0
2, 45601, Note_on_c, 0, 72, 43
2, 45841, Note_on_c, 0, 72, 0
2, 45841, Note_on_c, 0, 73, 49
2, 46081, Note_on_c, 0, 73, 0
2, 46081, Note_on_c, 0, 77, 59
2, 46321, Note_on_c, 0, 77, 0
2, 46321, Note_on_c, 0, 75, 44
2, 46381, Note_on_c, 0, 75, 0
2, 46381, Note_on_c, 0, 77, 44
2, 46441, Note_on_c, 0, 77, 0
2, 46441, Note_on_c, 0, 75, 44
2, 46501, Note_on_c, 0, 75, 0
2, 46501, Note_on_c, 0, 74, 44
2, 46561, Note_on_c, 0, 74, 0
2, 46561, Note_on_c, 0, 75, 52
2, 46921, Note_on_c, 0, 75, 0
2, 46921, Note_on_c, 0, 77, 55
2, 47041, Note_on_c, 0, 77, 0
2, 47041, Note_on_c, 0, 78, 61
2, 47641, Note_on_c, 0, 78, 0
2, 47641, Note_on_c, 0, 77, 56
2, 47761, Note_on_c, 0, 77, 0
2, 47761, Note_on_c, 0, 87, 64
2, 47881, Note_on_c, 0, 87, 0
2, 47881, Note_on_c, 0, 84, 58
2, 47999, Note_on_c, 0, 84, 0
2, 48001, Note_on_c, 0, 84, 67
2, 48721, Note_on_c, 0, 84, 0
2, 48721, Note_on_c, 0, 87, 45
2, 48841, Note_on_c, 0, 87, 0
2, 48841, Note_on_c, 0, 85, 45
2, 48961, Note_on_c, 0, 85, 0
2, 49441, Note_on_c, 0, 66, 45
2, 49681, Note_on_c, 0, 66, 0
2, 49681, Note_on_c, 0, 65, 39
2, 49920, Note_on_c, 0, 61, 37
2, 49921, Note_on_c, 0, 65, 0
2, 49921, Note_on_c, 0, 65, 52
2, 49921, Note_on_c, 0, 55, 32
2, 49921, Note_on_c, 0, 58, 32
2, 50280, Note_on_c, 0, 64, 45
2, 50281, Note_on_c, 0, 65, 0
2, 50400, Note_on_c, 0, 64, 0
2, 50401, Note_on_c, 0, 67, 58
2, 50640, Note_on_c, 0, 61, 0
2, 50641, Note_on_c, 0, 58, 0
2, 50641, Note_on_c, 0, 55, 0
2, 51360, Note_on_c, 0, 56, 39
2, 51361, Note_on_c, 0, 67, 0
2, 51361, Note_on_c, 0, 60, 51
2, 51361, Note_on_c, 0, 67, 60
2, 51721, Note_on_c, 0, 67, 0
2, 51721, Note_on_c, 0, 65, 52
2, 51835, Note_on_c, 0, 65, 0
2, 51840, Note_on_c, 0, 56, 0
2, 51841, Note_on_c, 0, 60, 0
2, 51841, Note_on_c, 0, 58, 52
2, 51841, Note_on_c, 0, 60, 52
2, 51841, Note_on_c, 0, 65, 62
2, 52200, Note_on_c, 0, 64, 50
2, 52201, Note_on_c, 0, 65, 0
2, 52314, Note_on_c, 0, 64, 0
2, 52321, Note_on_c, 0, 60, 0
2, 52321, Note_on_c, 0, 58, 0
2, 52321, Note_on_c, 0, 56, 54
2, 52321, Note_on_c, 0, 60, 54
2, 52321, Note_on_c, 0, 67, 64
2, 52681, Note_on_c, 0, 67, 0
2, 52681, Note_on_c, 0, 65, 54
2, 52795, Note_on_c, 0, 65, 0
2, 52801, Note_on_c, 0, 60, 0
2, 52801, Note_on_c, 0, 56, 0
2, 52801, Note_on_c, 0, 55, 58
2, 52801, Note_on_c, 0, 60, 58
2, 52801, Note_on_c, 0, 68, 69
2, 53161, Note_on_c, 0, 68, 0
2, 53161, Note_on_c, 0, 67, 45
2, 53275, Note_on_c, 0, 67, 0
2, 53280, Note_on_c, 0, 64, 51
2, 53281, Note_on_c, 0, 60, 0
2, 53281, Note_on_c, 0, 55, 0
2, 53400, Note_on_c, 0, 64, 0
2, 53401, Note_on_c, 0, 67, 46
2, 53521, Note_on_c, 0, 67, 0
2, 53521, Note_on_c, 0, 70, 42
2, 53641, Note_on_c, 0, 70, 0
2, 53641, Note_on_c, 0, 73, 48
2, 53761, Note_on_c, 0, 73, 0
2, 53761, Note_on_c, 0, 72, 54
2, 53881, Note_on_c, 0, 72, 0
2, 53881, Note_on_c, 0, 70, 43
2, 54001, Note_on_c, 0, 70, 0
2, 54001, Note_on_c, 0, 68, 43
2, 54121, Note_on_c, 0, 68, 0
2, 54121, Note_on_c, 0, 67, 43
2, 54241, Note_on_c, 0, 67, 0
2, 54241, Note_on_c, 0, 70, 53
2, 54360, Note_on_c, 0, 76, 45
2, 54361, Note_on_c, 0, 70, 0
2, 54480, Note_on_c, 0, 76, 0
2, 54481, Note_on_c, 0, 79, 45
2, 54601, Note_on_c, 0, 79, 0
2, 54601, Note_on_c, 0, 82, 45
2, 54721, Note_on_c, 0, 82, 0
2, 54721, Note_on_c, 0, 80, 54
2, 54841, Note_on_c, 0, 80, 0
2, 54841, Note_on_c, 0, 79, 45
2, 54961, Note_on_c, 0, 79, 0
2, 54961, Note_on_c, 0, 77, 45
2, 55080, Note_on_c, 0, 76, 45
2, 55081, Note_on_c, 0, 77, 0
2, 55200, Note_on_c, 0, 76, 0
2, 55201, Note_on_c, 0, 79, 51
2, 55321, Note_on_c, 0, 79, 0
2, 55321, Note_on_c, 0, 82, 53
2, 55441, Note_on_c, 0, 82, 0
2, 55441, Note_on_c, 0, 84, 55
2, 55561, Note_on_c, 0, 84, 0
2, 55561, Note_on_c, 0, 85, 57
2, 55681, Note_on_c, 0, 85, 0
2, 55681, Note_on_c, 0, 84, 60
2, 55801, Note_on_c, 0, 84, 0
2, 55801, Note_on_c, 0, 82, 51
2, 55921, Note_on_c, 0, 82, 0
2, 55921, Note_on_c, 0, 80, 52
2, 56041, Note_on_c, 0, 80, 0
2, 56041, Note_on_c, 0, 79, 52
2, 56161, Note_on_c, 0, 79, 0
2, 56161, Note_on_c, 0, 82, 58
2, 56281, Note_on_c, 0, 82, 0
2, 56281, Note_on_c, 0, 79, 48
2, 56401, Note_on_c, 0, 79, 0
2, 56401, Note_on_c, 0, 77, 49
2, 56520, Note_on_c, 0, 76, 49
2, 56521, Note_on_c, 0, 77, 0
2, 56640, Note_on_c, 0, 76, 0
2, 56641, Note_on_c, 0, 82, 60
2, 56761, Note_on_c, 0, 82, 0
2, 56761, Note_on_c, 0, 79, 53
2, 56881, Note_on_c, 0, 79, 0
2, 56881, Note_on_c, 0, 77, 55
2, 57000, Note_on_c, 0, 76, 56
2, 57001, Note_on_c, 0, 77, 0
2, 57120, Note_on_c, 0, 76, 0
2, 57120, Note_on_c, 0, 91, 69
2, 57121, Note_on_c, 0, 79, 69
2, 57210, Note_on_c, 0, 91, 0
2, 57211, Note_on_c, 0, 79, 0
2, 57240, Note_on_c, 0, 88, 59
2, 57240, Note_on_c, 0, 76, 59
2, 57330, Note_on_c, 0, 76, 0
2, 57330, Note_on_c, 0, 88, 0
2, 57360, Note_on_c, 0, 85, 63
2, 57361, Note_on_c, 0, 73, 63
2, 57450, Note_on_c, 0, 85, 0
2, 57451, Note_on_c, 0, 73, 0
2, 57480, Note_on_c, 0, 84, 65
2, 57481, Note_on_c, 0, 72, 65
2, 57570, Note_on_c, 0, 84, 0
2, 57571, Note_on_c, 0, 72, 0
2, 57600, Note_on_c, 0, 84, 64
2, 57600, Note_on_c, 0, 72, 54
2, 58080, Note_on_c, 0, 72, 0
2, 58080, Note_on_c, 0, 84, 0
2, 58080, Note_on_c, 0, 79, 58
2, 58080, Note_on_c, 0, 67, 49
2, 59040, Note_on_c, 0, 67, 0
2, 59040, Note_on_c, 0, 79, 0
2, 59040, Note_on_c, 0, 81, 64
2, 59040, Note_on_c, 0, 69, 54
2, 59280, Note_on_c, 0, 69, 0
2, 59280, Note_on_c, 0, 81, 0
2, 59280, Note_on_c, 0, 77, 53
2, 59280, Note_on_c, 0, 65, 45
2, 59515, Note_on_c, 0, 65, 0
2, 59515, Note_on_c, 0, 77, 0
2, 59520, Note_on_c, 0, 77, 64
2, 59520, Note_on_c, 0, 65, 54
2, 59760, Note_on_c, 0, 77, 0
2, 59760, Note_on_c, 0, 76, 55
2, 59820, Note_on_c, 0, 76, 0
2, 59820, Note_on_c, 0, 77, 55
2, 59880, Note_on_c, 0, 77, 0
2, 59880, Note_on_c, 0, 76, 55
2, 59940, Note_on_c, 0, 76, 0
2, 59940, Note_on_c, 0, 74, 55
2, 60000, Note_on_c, 0, 74, 0
2, 60000, Note_on_c, 0, 65, 0
2, 60000, Note_on_c, 0, 76, 64
2, 60000, Note_on_c, 0, 64, 54
2, 60240, Note_on_c, 0, 64, 0
2, 60240, Note_on_c, 0, 76, 0
2, 60240, Note_on_c, 0, 77, 59
2, 60240, Note_on_c, 0, 65, 50
2, 60480, Note_on_c, 0, 65, 0
2, 60480, Note_on_c, 0, 77, 0
2, 60480, Note_on_c, 0, 79, 62
2, 60480, Note_on_c, 0, 67, 48
2, 60720, Note_on_c, 0, 67, 0
2, 60720, Note_on_c, 0, 79, 0
2, 60720, Note_on_c, 0, 81, 62
2, 60720, Note_on_c, 0, 69, 52
2, 60960, Note_on_c, 0, 69, 0
2, 60960, Note_on_c, 0, 81, 0
2, 60960, Note_on_c, 0, 82, 64
2, 60960, Note_on_c, 0, 70, 54
2, 61080, Note_on_c, 0, 70, 0
2, 61080, Note_on_c, 0, 82, 0
2, 61080, Note_on_c, 0, 83, 57
2, 61080, Note_on_c, 0, 71, 48
2, 61194, Note_on_c, 0, 71, 0
2, 61194, Note_on_c, 0, 83, 0
2, 61200, Note_on_c, 0, 83, 64
2, 61200, Note_on_c, 0, 71, 54
2, 61320, Note_on_c, 0, 71, 0
2, 61320, Note_on_c, 0, 83, 0
2, 61320, Note_on_c, 0, 84, 59
2, 61320, Note_on_c, 0, 72, 50
2, 61440, Note_on_c, 0, 72, 0
2, 61440, Note_on_c, 0, 84, 0
2, 61440, Note_on_c, 0, 83, 64
2, 61560, Note_on_c, 0, 83, 0
2, 61560, Note_on_c, 0, 84, 57
2, 61680, Note_on_c, 0, 84, 0
2, 61680, Note_on_c, 0, 86, 57
2, 61800, Note_on_c, 0, 86, 0
2, 61800, Note_on_c, 0, 84, 57
2, 61920, Note_on_c, 0, 84, 0
2, 61920, Note_on_c, 0, 79, 64
2, 62520, Note_on_c, 0, 79, 0
2, 62520, Note_on_c, 0, 81, 64
2, 62580, Note_on_c, 0, 81, 0
2, 62580, Note_on_c, 0, 79, 55
2, 62640, Note_on_c, 0, 79, 0
2, 62640, Note_on_c, 0, 81, 64
2, 62700, Note_on_c, 0, 81, 0
2, 62700, Note_on_c, 0, 79, 54
2, 62760, Note_on_c, 0, 79, 0
2, 62760, Note_on_c, 0, 82, 64
2, 62820, Note_on_c, 0, 82, 0
2, 62820, Note_on_c, 0, 81, 55
2, 62880, Note_on_c, 0, 81, 0
2, 62880, Note_on_c, 0, 82, 64
2, 62940, Note_on_c, 0, 82, 0
2, 62940, Note_on_c, 0, 81, 56
2, 63000, Note_on_c, 0, 81, 0
2, 63000, Note_on_c, 0, 84, 64
2, 63060, Note_on_c, 0, 84, 0
2, 63060, Note_on_c, 0, 83, 57
2, 63120, Note_on_c, 0, 83, 0
2, 63120, Note_on_c, 0, 84, 52
2, 63150, Note_on_c, 0, 84, 0
2, 63150, Note_on_c, 0, 83, 45
2, 63180, Note_on_c, 0, 83, 0
2, 63180, Note_on_c, 0, 86, 52
2, 63210, Note_on_c, 0, 86, 0
2, 63210, Note_on_c, 0, 84, 48
2, 63240, Note_on_c, 0, 84, 0
2, 63240, Note_on_c, 0, 89, 60
2, 63300, Note_on_c, 0, 89, 0
2, 63300, Note_on_c, 0, 77, 54
2, 63357, Note_on_c, 0, 77, 0
2, 63360, Note_on_c, 0, 77, 64
2, 63360, Note_on_c, 0, 65, 54
2, 63600, Note_on_c, 0, 77, 0
2, 63600, Note_on_c, 0, 76, 55
2, 63660, Note_on_c, 0, 76, 0
2, 63660, Note_on_c, 0, 77, 55
2, 63720, Note_on_c, 0, 77, 0
2, 63720, Note_on_c, 0, 76, 55
2, 63780, Note_on_c, 0, 76, 0
2, 63780, Note_on_c, 0, 74, 55
2, 63840, Note_on_c, 0, 74, 0
2, 63840, Note_on_c, 0, 65, 0
2, 63840, Note_on_c, 0, 76, 64
2, 63840, Note_on_c, 0, 64, 54
2, 64080, Note_on_c, 0, 64, 0
2, 64080, Note_on_c, 0, 76, 0
2, 64080, Note_on_c, 0, 77, 59
2, 64080, Note_on_c, 0, 65, 50
2, 64320, Note_on_c, 0, 65, 0
2, 64320, Note_on_c, 0, 77, 0
2, 64320, Note_on_c, 0, 79, 59
2, 64320, Note_on_c, 0, 67, 50
2, 64560, Note_on_c, 0, 67, 0
2, 64560, Note_on_c, 0, 79, 0
2, 64560, Note_on_c, 0, 80, 64
2, 64560, Note_on_c, 0, 68, 54
2, 64800, Note_on_c, 0, 68, 0
2, 64800, Note_on_c, 0, 80, 0
2, 64800, Note_on_c, 0, 82, 64
2, 64800, Note_on_c, 0, 70, 54
2, 64920, Note_on_c, 0, 70, 0
2, 64920, Note_on_c, 0, 82, 0
2, 64920, Note_on_c, 0, 83, 58
2, 64920, Note_on_c, 0, 71, 49
2, 65034, Note_on_c, 0, 71, 0
2, 65034, Note_on_c, 0, 83, 0
2, 65040, Note_on_c, 0, 83, 64
2, 65040, Note_on_c, 0, 71, 54
2, 65160, Note_on_c, 0, 71, 0
2, 65160, Note_on_c, 0, 83, 0
2, 65160, Note_on_c, 0, 84, 56
2, 65160, Note_on_c, 0, 72, 47
2, 65274, Note_on_c, 0, 72, 0
2, 65274, Note_on_c, 0, 84, 0
2, 65280, Note_on_c, 0, 84, 71
2, 65280, Note_on_c, 0, 80, 60
2, 65280, Note_on_c, 0, 72, 60
2, 65520, Note_on_c, 0, 72, 0
2, 65520, Note_on_c, 0, 80, 0
2, 65520, Note_on_c, 0, 84, 0
2, 65520, Note_on_c, 0, 84, 64
2, 65520, Note_on_c, 0, 80, 64
2, 65520, Note_on_c, 0, 92, 76
2, 65760, Note_on_c, 0, 92, 0
2, 65760, Note_on_c, 0, 80, 0
2, 65760, Note_on_c, 0, 84, 0
2, 66000, Note_on_c, 0, 80, 73
2, 66000, Note_on_c, 0, 72, 62
2, 66240, Note_on_c, 0, 72, 0
2, 66240, Note_on_c, 0, 80, 0
2, 66480, Note_on_c, 0, 79, 67
2, 66480, Note_on_c, 0, 70, 56
2, 66720, Note_on_c, 0, 70, 0
2, 66720, Note_on_c, 0, 79, 0
2, 66960, Note_on_c, 0, 68, 51
2, 66960, Note_on_c, 0, 77, 61
2, 67200, Note_on_c, 0, 77, 0
2, 67200, Note_on_c, 0, 68, 0
2, 67200, Note_on_c, 0, 77, 71
2, 67200, Note_on_c, 0, 68, 63
2, 67440, Note_on_c, 0, 68, 0
2, 67440, Note_on_c, 0, 77, 0
2, 67440, Note_on_c, 0, 80, 64
2, 67440, Note_on_c, 0, 77, 64
2, 67440, Note_on_c, 0, 89, 76
2, 67680, Note_on_c, 0, 89, 0
2, 67680, Note_on_c, 0, 77, 0
2, 67680, Note_on_c, 0, 80, 0
2, 67920, Note_on_c, 0, 65, 59
2, 67920, Note_on_c, 0, 77, 70
2, 67920, Note_on_c, 0, 68, 59
2, 68160, Note_on_c, 0, 68, 0
2, 68160, Note_on_c, 0, 77, 0
2, 68160, Note_on_c, 0, 65, 0
2, 68400, Note_on_c, 0, 65, 53
2, 68400, Note_on_c, 0, 75, 63
2, 68400, Note_on_c, 0, 72, 53
2, 68640, Note_on_c, 0, 72, 0
2, 68640, Note_on_c, 0, 75, 0
2, 68640, Note_on_c, 0, 65, 0
2, 68880, Note_on_c, 0, 65, 47
2, 68880, Note_on_c, 0, 73, 56
2, 68880, Note_on_c, 0, 70, 47
2, 69120, Note_on_c, 0, 70, 0
2, 69120, Note_on_c, 0, 73, 0
2, 69120, Note_on_c, 0, 65, 0
2, 69120, Note_on_c, 0, 68, 30
2, 69120, Note_on_c, 0, 65, 30
2, 69120, Note_on_c, 0, 62, 30
2, 69120, Note_on_c, 0, 72, 50
2, 69480, Note_on_c, 0, 72, 0
2, 69480, Note_on_c, 0, 71, 45
2, 69600, Note_on_c, 0, 71, 0
2, 69600, Note_on_c, 0, 74, 50
2, 71040, Note_on_c, 0, 74, 0
2, 71040, Note_on_c, 0, 68, 0
2, 71040, Note_on_c, 0, 65, 0
2, 71040, Note_on_c, 0, 62, 0
2, 71040, Note_on_c, 0, 72, 50
2, 71400, Note_on_c, 0, 72, 0
2, 71400, Note_on_c, 0, 71, 45
2, 71520, Note_on_c, 0, 71, 0
2, 71520, Note_on_c, 0, 74, 50
2, 71760, Note_on_c, 0, 74, 0
2, 72000, Note_on_c, 0, 74, 50
2, 72360, Note_on_c, 0, 74, 0
2, 72360, Note_on_c, 0, 72, 45
2, 72480, Note_on_c, 0, 72, 0
2, 72480, Note_on_c, 0, 75, 50
2, 72720, Note_on_c, 0, 75, 0
2, 72960, Note_on_c, 0, 68, 30
2, 72960, Note_on_c, 0, 65, 30
2, 72960, Note_on_c, 0, 75, 50
2, 73320, Note_on_c, 0, 75, 0
2, 73320, Note_on_c, 0, 74, 45
2, 73440, Note_on_c, 0, 74, 0
2, 73440, Note_on_c, 0, 77, 50
2, 74880, Note_on_c, 0, 77, 0
2, 74880, Note_on_c, 0, 65, 0
2, 74880, Note_on_c, 0, 68, 0
2, 74880, Note_on_c, 0, 75, 50
2, 75240, Note_on_c, 0, 75, 0
2, 75240, Note_on_c, 0, 74, 45
2, 75360, Note_on_c, 0, 74, 0
2, 75360, Note_on_c, 0, 77, 50
2, 75600, Note_on_c, 0, 77, 0
2, 75840, Note_on_c, 0, 77, 50
2, 76200, Note_on_c, 0, 77, 0
2, 76200, Note_on_c, 0, 75, 45
2, 76320, Note_on_c, 0, 75, 0
2, 76320, Note_on_c, 0, 79, 50
2, 76560, Note_on_c, 0, 79, 0
2, 76800, Note_on_c, 0, 68, 40
2, 76800, Note_on_c, 0, 74, 40
2, 76800, Note_on_c, 0, 79, 50
2, 77160, Note_on_c, 0, 79, 0
2, 77160, Note_on_c, 0, 74, 0
2, 77160, Note_on_c, 0, 68, 0
2, 77160, Note_on_c, 0, 77, 45
2, 77280, Note_on_c, 0, 77, 0
2, 77280, Note_on_c, 0, 80, 50
2, 78120, Note_on_c, 0, 80, 0
2, 78120, Note_on_c, 0, 77, 45
2, 78240, Note_on_c, 0, 77, 0
2, 78240, Note_on_c, 0, 86, 50
2, 79080, Note_on_c, 0, 86, 0
2, 79080, Note_on_c, 0, 80, 45
2, 79200, Note_on_c, 0, 80, 0
2, 79200, Note_on_c, 0, 89, 50
2, 80040, Note_on_c, 0, 89, 0
2, 80040, Note_on_c, 0, 86, 45
2, 80160, Note_on_c, 0, 86, 0
2, 80160, Note_on_c, 0, 92, 53
2, 80640, Note_on_c, 0, 92, 0
2, 80640, End_track
3, 0, Start_track
3, 0, Title_t, "Piano left"
3, 0, Program_c, 0, 0
3, 0, Note_on_c, 0, 48, 30
3, 0, Note_on_c, 0, 63, 30
3, 480, Note_on_c, 0, 54, 23
3, 960, Note_on_c, 0, 54, 0
3, 960, Note_on_c, 0, 57, 29
3, 1440, Note_on_c, 0, 57, 0
3, 1440, Note_on_c, 0, 54, 23
3, 1920, Note_on_c, 0, 54, 0
3, 1920, Note_on_c, 0, 63, 0
3, 1920, Note_on_c, 0, 48, 0
3, 1920, Note_on_c, 0, 48, 30
3, 1920, Note_on_c, 0, 63, 30
3, 2400, Note_on_c, 0, 54, 23
3, 2880, Note_on_c, 0, 54, 0
3, 2880, Note_on_c, 0, 57, 29
3, 3360, Note_on_c, 0, 57, 0
3, 3360, Note_on_c, 0, 54, 23
3, 3840, Note_on_c, 0, 54, 0
3, 3840, Note_on_c, 0, 63, 0
3, 3840, Note_on_c, 0, 48, 0
3, 4320, Note_on_c, 0, 47, 24
3, 4320, Note_on_c, 0, 55, 29
3, 4800, Note_on_c, 0, 55, 0
3, 4800, Note_on_c, 0, 47, 0
3, 5280, Note_on_c, 0, 50, 24
3, 5280, Note_on_c, 0, 57, 29
3, 5760, Note_on_c, 0, 57, 0
3, 5760, Note_on_c, 0, 50, 0
3, 6240, Note_on_c, 0, 43, 20
3, 6240, Note_on_c, 0, 55, 24
3, 6720, Note_on_c, 0, 55, 0
3, 6720, Note_on_c, 0, 43, 0
3, 6720, Note_on_c, 0, 43, 20
3, 6720, Note_on_c, 0, 55, 24
3, 7200, Note_on_c, 0, 55, 0
3, 7200, Note_on_c, 0, 43, 0
3, 7680, Note_on_c, 0, 53, 30
3, 7680, Note_on_c, 0, 68, 30
3, 8160, Note_on_c, 0, 59, 31
3, 8640, Note_on_c, 0, 59, 0
3, 8640, Note_on_c, 0, 62, 36
3, 9120, Note_on_c, 0, 62, 0
3, 9120, Note_on_c, 0, 59, 32
3, 9600, Note_on_c, 0, 59, 0
3, 9600, Note_on_c, 0, 68, 0
3, 9600, Note_on_c, 0, 53, 0
3, 9600, Note_on_c, 0, 53, 34
3, 9600, Note_on_c, 0, 68, 34
3, 10080, Note_on_c, 0, 59, 36
3, 10560, Note_on_c, 0, 59, 0
3, 10560, Note_on_c, 0, 62, 40
3, 11040, Note_on_c, 0, 62, 0
3, 11040, Note_on_c, 0, 59, 34
3, 11520, Note_on_c, 0, 59, 0
3, 11520, Note_on_c, 0, 68, 0
3, 11520, Note_on_c, 0, 53, 0
3, 12000, Note_on_c, 0, 51, 27
3, 12000, Note_on_c, 0, 60, 33
3, 12480, Note_on_c, 0, 60, 0
3, 12480, Note_on_c, 0, 51, 0
3, 12960, Note_on_c, 0, 55, 27
3, 12960, Note_on_c, 0, 62, 33
3, 13440, Note_on_c, 0, 62, 0
3, 13440, Note_on_c, 0, 55, 0
3, 13920, Note_on_c, 0, 48, 24
3, 13920, Note_on_c, 0, 60, 29
3, 14400, Note_on_c, 0, 60, 0
3, 14400, Note_on_c, 0, 48, 0
3, 14400, Note_on_c, 0, 48, 33
3, 14400, Note_on_c, 0, 60, 33
3, 14640, Note_on_c, 0, 60, 0
3, 14640, Note_on_c, 0, 48, 0
3, 14640, Note_on_c, 0, 63, 35
3, 14640, Note_on_c, 0, 60, 29
3, 14880, Note_on_c, 0, 60, 0
3, 14880, Note_on_c, 0, 63, 0
3, 14880, Note_on_c, 0, 58, 31
3, 14880, Note_on_c, 0, 61, 31
3, 14880, Note_on_c, 0, 63, 37
3, 15120, Note_on_c, 0, 63, 0
3, 15120, Note_on_c, 0, 61, 0
3, 15120, Note_on_c, 0, 58, 0
3, 15120, Note_on_c, 0, 63, 40
3, 15120, Note_on_c, 0, 60, 34
3, 15120, Note_on_c, 0, 56, 34
3, 15360, Note_on_c, 0, 56, 0
3, 15360, Note_on_c, 0, 60, 0
3, 15360, Note_on_c, 0, 63, 0
3, 15360, Note_on_c, 0, 55, 38
3, 15360, Note_on_c, 0, 58, 38
3, 15360, Note_on_c, 0, 63, 46
3, 15840, Note_on_c, 0, 63, 0
3, 15840, Note_on_c, 0, 58, 0
3, 15840, Note_on_c, 0, 55, 0
3, 15840, Note_on_c, 0, 55, 36
3, 15840, Note_on_c, 0, 58, 36
3, 15840, Note_on_c, 0, 64, 43
3, 16560, Note_on_c, 0, 64, 0
3, 16560, Note_on_c, 0, 58, 0
3, 16560, Note_on_c, 0, 55, 0
3, 16560, Note_on_c, 0, 53, 34
3, 16560, Note_on_c, 0, 56, 34
3, 16560, Note_on_c, 0, 61, 40
3, 16800, Note_on_c, 0, 61, 0
3, 16800, Note_on_c, 0, 56, 0
3, 16800, Note_on_c, 0, 53, 0
3, 16800, Note_on_c, 0, 52, 42
3, 16800, Note_on_c, 0, 55, 42
3, 16800, Note_on_c, 0, 60, 50
3, 17040, Note_on_c, 0, 60, 0
3, 17040, Note_on_c, 0, 55, 0
3, 17040, Note_on_c, 0, 52, 0
3, 17040, Note_on_c, 0, 52, 34
3, 17040, Note_on_c, 0, 55, 34
3, 17040, Note_on_c, 0, 60, 40
3, 17280, Note_on_c, 0, 60, 0
3, 17280, Note_on_c, 0, 55, 0
3, 17280, Note_on_c, 0, 52, 0
3, 17280, Note_on_c, 0, 52, 34
3, 17280, Note_on_c, 0, 55, 34
3, 17280, Note_on_c, 0, 60, 40
3, 17760, Note_on_c, 0, 60, 0
3, 17760, Note_on_c, 0, 55, 0
3, 17760, Note_on_c, 0, 52, 0
3, 17760, Note_on_c, 0, 53, 24
3, 17760, Note_on_c, 0, 56, 24
3, 17760, Note_on_c, 0, 60, 29
3, 18240, Note_on_c, 0, 60, 0
3, 18240, Note_on_c, 0, 56, 0
3, 18240, Note_on_c, 0, 53, 0
3, 19200, Note_on_c, 0, 38, 27
3, 19200, Note_on_c, 0, 51, 38
3, 19680, Note_on_c, 0, 51, 0
3, 19680, Note_on_c, 0, 42, 43
3, 20160, Note_on_c, 0, 42, 0
3, 20160, Note_on_c, 0, 45, 43
3, 20640, Note_on_c, 0, 45, 0
3, 20640, Note_on_c, 0, 38, 0
3, 20640, Note_on_c, 0, 46, 32
3, 20640, Note_on_c, 0, 50, 32
3, 20640, Note_on_c, 0, 58, 45
3, 21120, Note_on_c, 0, 58, 0
3, 21120, Note_on_c, 0, 50, 0
3, 21120, Note_on_c, 0, 46, 0
3, 21120, Note_on_c, 0, 45, 32
3, 21120, Note_on_c, 0, 50, 32
3, 21120, Note_on_c, 0, 57, 45
3, 21600, Note_on_c, 0, 57, 0
3, 21600, Note_on_c, 0, 50, 0
3, 21600, Note_on_c, 0, 45, 0
3, 21600, Note_on_c, 0, 43, 32
3, 21600, Note_on_c, 0, 50, 32
3, 21600, Note_on_c, 0, 55, 45
3, 22080, Note_on_c, 0, 55, 0
3, 22080, Note_on_c, 0, 50, 0
3, 22080, Note_on_c, 0, 43, 0
3, 22080, Note_on_c, 0, 42, 32
3, 22080, Note_on_c, 0, 50, 32
3, 22080, Note_on_c, 0, 54, 45
3, 22560, Note_on_c, 0, 54, 0
3, 22560, Note_on_c, 0, 50, 0
3, 22560, Note_on_c, 0, 42, 0
3, 26880, Note_on_c, 0, 54, 38
3, 26880, Note_on_c, 0, 57, 45
3, 27000, Note_on_c, 0, 57, 0
3, 27000, Note_on_c, 0, 54, 0
3, 27000, Note_on_c, 0, 62, 31
3, 27120, Note_on_c, 0, 62, 0
3, 27120, Note_on_c, 0, 54, 26
3, 27120, Note_on_c, 0, 57, 31
3, 27240, Note_on_c, 0, 57, 0
3, 27240, Note_on_c, 0, 54, 0
3, 27240, Note_on_c, 0, 62, 31
3, 27360, Note_on_c, 0, 62, 0
3, 27360, Note_on_c, 0, 54, 36
3, 27360, Note_on_c, 0, 57, 43
3, 27480, Note_on_c, 0, 57, 0
3, 27480, Note_on_c, 0, 54, 0
3, 27480, Note_on_c, 0, 62, 32
3, 27600, Note_on_c, 0, 62, 0
3, 27600, Note_on_c, 0, 54, 27
3, 27600, Note_on_c, 0, 57, 32
3, 27720, Note_on_c, 0, 57, 0
3, 27720, Note_on_c, 0, 54, 0
3, 27720, Note_on_c, 0, 62, 32
3, 27840, Note_on_c, 0, 62, 0
3, 27840, Note_on_c, 0, 54, 35
3, 27840, Note_on_c, 0, 57, 42
3, 27960, Note_on_c, 0, 57, 0
3, 27960, Note_on_c, 0, 54, 0
3, 27960, Note_on_c, 0, 62, 33
3, 28080, Note_on_c, 0, 62, 0
3, 28080, Note_on_c, 0, 54, 28
3, 28080, Note_on_c, 0, 57, 33
3, 28200, Note_on_c, 0, 57, 0
3, 28200, Note_on_c, 0, 54, 0
3, 28200, Note_on_c, 0, 62, 33
3, 28320, Note_on_c, 0, 62, 0
3, 28320, Note_on_c, 0, 55, 36
3, 28320, Note_on_c, 0, 59, 43
3, 28440, Note_on_c, 0, 59, 0
3, 28440, Note_on_c, 0, 55, 0
3, 28440, Note_on_c, 0, 62, 30
3, 28560, Note_on_c, 0, 62, 0
3, 28560, Note_on_c, 0, 55, 25
3, 28560, Note_on_c, 0, 59, 30
3, 28680, Note_on_c, 0, 59, 0
3, 28680, Note_on_c, 0, 55, 0
3, 28680, Note_on_c, 0, 62, 30
3, 28800, Note_on_c, 0, 62, 0
3, 28800, Note_on_c, 0, 57, 38
3, 28800, Note_on_c, 0, 60, 45
3, 28920, Note_on_c, 0, 60, 0
3, 28920, Note_on_c, 0, 57, 0
3, 28920, Note_on_c, 0, 62, 32
3, 29040, Note_on_c, 0, 62, 0
3, 29040, Note_on_c, 0, 57, 27
3, 29040, Note_on_c, 0, 60, 32
3, 29160, Note_on_c, 0, 60, 0
3, 29160, Note_on_c, 0, 57, 0
3, 29160, Note_on_c, 0, 62, 32
3, 29280, Note_on_c, 0, 62, 0
3, 29280, Note_on_c, 0, 57, 38
3, 29280, Note_on_c, 0, 60, 45
3, 29400, Note_on_c, 0, 60, 0
3, 29400, Note_on_c, 0, 57, 0
3, 29400, Note_on_c, 0, 62, 31
3, 29520, Note_on_c, 0, 62, 0
3, 29520, Note_on_c, 0, 57, 26
3, 29520, Note_on_c, 0, 60, 31
3, 29640, Note_on_c, 0, 60, 0
3, 29640, Note_on_c, 0, 57, 0
3, 29640, Note_on_c, 0, 62, 31
3, 29760, Note_on_c, 0, 62, 0
3, 29760, Note_on_c, 0, 57, 38
3, 29760, Note_on_c, 0, 60, 45
3, 29880, Note_on_c, 0, 60, 0
3, 29880, Note_on_c, 0, 57, 0
3, 29880, Note_on_c, 0, 62, 33
3, 30000, Note_on_c, 0, 62, 0
3, 30000, Note_on_c, 0, 55, 28
3, 30000, Note_on_c, 0, 59, 33
3, 30120, Note_on_c, 0, 59, 0
3, 30120, Note_on_c, 0, 55, 0
3, 30120, Note_on_c, 0, 62, 33
3, 30240, Note_on_c, 0, 62, 0
3, 30240, Note_on_c, 0, 54, 38
3, 30240, Note_on_c, 0, 57, 45
3, 30360, Note_on_c, 0, 57, 0
3, 30360, Note_on_c, 0, 54, 0
3, 30360, Note_on_c, 0, 62, 33
3, 30480, Note_on_c, 0, 62, 0
3, 30480, Note_on_c, 0, 54, 28
3, 30480, Note_on_c, 0, 57, 33
3, 30600, Note_on_c, 0, 57, 0
3, 30600, Note_on_c, 0, 54, 0
3, 30600, Note_on_c, 0, 62, 33
3, 30720, Note_on_c, 0, 62, 0
3, 30720, Note_on_c, 0, 54, 38
3, 30720, Note_on_c, 0, 57, 45
3, 30840, Note_on_c, 0, 57, 0
3, 30840, Note_on_c, 0, 54, 0
3, 30840, Note_on_c, 0, 62, 34
3, 30960, Note_on_c, 0, 62, 0
3, 30960, Note_on_c, 0, 54, 28
3, 30960, Note_on_c, 0, 57, 34
3, 31080, Note_on_c, 0, 57, 0
3, 31080, Note_on_c, 0, 54, 0
3, 31080, Note_on_c, 0, 62, 34
3, 31200, Note_on_c, 0, 62, 0
3, 31200, Note_on_c, 0, 54, 37
3, 31200, Note_on_c, 0, 57, 44
3, 31320, Note_on_c, 0, 57, 0
3, 31320, Note_on_c, 0, 54, 0
3, 31320, Note_on_c, 0, 62, 33
3, 31440, Note_on_c, 0, 62, 0
3, 31440, Note_on_c, 0, 54, 28
3, 31440, Note_on_c, 0, 57, 33
3, 31560, Note_on_c, 0, 57, 0
3, 31560, Note_on_c, 0, 54, 0
3, 31560, Note_on_c, 0, 62, 33
3, 31680, Note_on_c, 0, 62, 0
3, 31680, Note_on_c, 0, 54, 38
3, 31680, Note_on_c, 0, 57, 45
3, 31800, Note_on_c, 0, 57, 0
3, 31800, Note_on_c, 0, 54, 0
3, 31800, Note_on_c, 0, 62, 34
3, 31920, Note_on_c, 0, 62, 0
3, 31920, Note_on_c, 0, 54, 28
3, 31920, Note_on_c, 0, 57, 34
3, 32040, Note_on_c, 0, 57, 0
3, 32040, Note_on_c, 0, 54, 0
3, 32040, Note_on_c, 0, 62, 34
3, 32160, Note_on_c, 0, 62, 0
3, 32160, Note_on_c, 0, 55, 38
3, 32160, Note_on_c, 0, 59, 45
3, 32280, Note_on_c, 0, 59, 0
3, 32280, Note_on_c, 0, 55, 0
3, 32280, Note_on_c, 0, 62, 34
3, 32400, Note_on_c, 0, 62, 0
3, 32400, Note_on_c, 0, 55, 28
3, 32400, Note_on_c, 0, 59, 34
3, 32520, Note_on_c, 0, 59, 0
3, 32520, Note_on_c, 0, 55, 0
3, 32520, Note_on_c, 0, 62, 34
3, 32640, Note_on_c, 0, 62, 0
3, 32640, Note_on_c, 0, 57, 38
3, 32640, Note_on_c, 0, 60, 45
3, 32760, Note_on_c, 0, 60, 0
3, 32760, Note_on_c, 0, 57, 0
3, 32760, Note_on_c, 0, 62, 33
3, 32880, Note_on_c, 0, 62, 0
3, 32880, Note_on_c, 0, 57, 28
3, 32880, Note_on_c, 0, 60, 33
3, 33000, Note_on_c, 0, 60, 0
3, 33000, Note_on_c, 0, 57, 0
3, 33000, Note_on_c, 0, 62, 34
3, 33120, Note_on_c, 0, 62, 0
3, 33120, Note_on_c, 0, 57, 39
3, 33120, Note_on_c, 0, 60, 46
3, 33240, Note_on_c, 0, 60, 0
3, 33240, Note_on_c, 0, 57, 0
3, 33240, Note_on_c, 0, 62, 35
3, 33360, Note_on_c, 0, 62, 0
3, 33360, Note_on_c, 0, 57, 29
3, 33360, Note_on_c, 0, 60, 35
3, 33480, Note_on_c, 0, 60, 0
3, 33480, Note_on_c, 0, 57, 0
3, 33480, Note_on_c, 0, 62, 35
3, 33600, Note_on_c, 0, 62, 0
3, 33600, Note_on_c, 0, 57, 38
3, 33600, Note_on_c, 0, 60, 45
3, 33720, Note_on_c, 0, 60, 0
3, 33720, Note_on_c, 0, 57, 0
3, 33720, Note_on_c, 0, 62, 35
3, 33840, Note_on_c, 0, 62, 0
3, 33840, Note_on_c, 0, 55, 29
3, 33840, Note_on_c, 0, 58, 35
3, 33960, Note_on_c, 0, 58, 0
3, 33960, Note_on_c, 0, 55, 0
3, 33960, Note_on_c, 0, 62, 35
3, 34080, Note_on_c, 0, 62, 0
3, 34080, Note_on_c, 0, 54, 39
3, 34080, Note_on_c, 0, 57, 47
3, 34200, Note_on_c, 0, 57, 0
3, 34200, Note_on_c, 0, 54, 0
3, 34200, Note_on_c, 0, 62, 36
3, 34320, Note_on_c, 0, 62, 0
3, 34320, Note_on_c, 0, 54, 30
3, 34320, Note_on_c, 0, 57, 36
3, 34440, Note_on_c, 0, 57, 0
3, 34440, Note_on_c, 0, 54, 0
3, 34440, Note_on_c, 0, 62, 36
3, 34560, Note_on_c, 0, 62, 0
3, 34560, Note_on_c, 0, 58, 56
3, 34560, Note_on_c, 0, 55, 56
3, 34620, Note_on_c, 0, 55, 0
3, 34620, Note_on_c, 0, 58, 0
3, 34680, Note_on_c, 0, 62, 47
3, 34740, Note_on_c, 0, 62, 0
3, 34800, Note_on_c, 0, 66, 47
3, 34860, Note_on_c, 0, 66, 0
3, 34920, Note_on_c, 0, 67, 47
3, 34980, Note_on_c, 0, 67, 0
3, 35040, Note_on_c, 0, 62, 56
3, 35100, Note_on_c, 0, 62, 0
3, 35160, Note_on_c, 0, 58, 42
3, 35220, Note_on_c, 0, 58, 0
3, 35280, Note_on_c, 0, 57, 42
3, 35340, Note_on_c, 0, 57, 0
3, 35400, Note_on_c, 0, 55, 42
3, 35460, Note_on_c, 0, 55, 0
3, 35520, Note_on_c, 0, 50, 47
3, 35520, Note_on_c, 0, 54, 56
3, 35580, Note_on_c, 0, 54, 0
3, 35580, Note_on_c, 0, 50, 0
3, 35640, Note_on_c, 0, 57, 40
3, 35700, Note_on_c, 0, 57, 0
3, 35760, Note_on_c, 0, 60, 40
3, 35820, Note_on_c, 0, 60, 0
3, 35880, Note_on_c, 0, 50, 40
3, 35940, Note_on_c, 0, 50, 0
3, 36000, Note_on_c, 0, 51, 52
3, 36060, Note_on_c, 0, 51, 0
3, 36120, Note_on_c, 0, 55, 36
3, 36180, Note_on_c, 0, 55, 0
3, 36240, Note_on_c, 0, 58, 36
3, 36300, Note_on_c, 0, 58, 0
3, 36360, Note_on_c, 0, 55, 36
3, 36420, Note_on_c, 0, 55, 0
3, 36480, Note_on_c, 0, 51, 44
3, 36480, Note_on_c, 0, 55, 48
3, 36540, Note_on_c, 0, 55, 0
3, 36540, Note_on_c, 0, 51, 0
3, 36600, Note_on_c, 0, 58, 36
3, 36660, Note_on_c, 0, 58, 0
3, 36720, Note_on_c, 0, 62, 35
3, 36780, Note_on_c, 0, 62, 0
3, 36840, Note_on_c, 0, 63, 35
3, 36900, Note_on_c, 0, 63, 0
3, 36960, Note_on_c, 0, 58, 43
3, 37020, Note_on_c, 0, 58, 0
3, 37080, Note_on_c, 0, 55, 30
3, 37140, Note_on_c, 0, 55, 0
3, 37200, Note_on_c, 0, 53, 30
3, 37260, Note_on_c, 0, 53, 0
3, 37320, Note_on_c, 0, 51, 30
3, 37380, Note_on_c, 0, 51, 0
3, 37440, Note_on_c, 0, 43, 39
3, 37440, Note_on_c, 0, 47, 39
3, 37500, Note_on_c, 0, 47, 0
3, 37500, Note_on_c, 0, 43, 0
3, 37560, Note_on_c, 0, 50, 29
3, 37620, Note_on_c, 0, 50, 0
3, 37680, Note_on_c, 0, 55, 29
3, 37740, Note_on_c, 0, 55, 0
3, 37800, Note_on_c, 0, 47, 29
3, 37860, Note_on_c, 0, 47, 0
3, 37920, Note_on_c, 0, 48, 38
3, 37980, Note_on_c, 0, 48, 0
3, 38040, Note_on_c, 0, 51, 28
3, 38100, Note_on_c, 0, 51, 0
3, 38160, Note_on_c, 0, 55, 29
3, 38220, Note_on_c, 0, 55, 0
3, 38280, Note_on_c, 0, 48, 26
3, 38340, Note_on_c, 0, 48, 0
3, 38400, Note_on_c, 0, 46, 30
3, 38400, Note_on_c, 0, 61, 30
3, 38880, Note_on_c, 0, 52, 23
3, 39360, Note_on_c, 0, 52, 0
3, 39360, Note_on_c, 0, 55, 29
3, 39840, Note_on_c, 0, 55, 0
3, 39840, Note_on_c, 0, 52, 23
3, 40320, Note_on_c, 0, 52, 0
3, 40320, Note_on_c, 0, 61, 0
3, 40320, Note_on_c, 0, 46, 0
3, 40320, Note_on_c, 0, 46, 30
3, 40320, Note_on_c, 0, 61, 30
3, 40800, Note_on_c, 0, 52, 23
3, 41280, Note_on_c, 0, 52, 0
3, 41280, Note_on_c, 0, 55, 29
3, 41760, Note_on_c, 0, 55, 0
3, 41760, Note_on_c, 0, 46, 0
3, 41760, Note_on_c, 0, 46, 30
3, 41760, Note_on_c, 0, 52, 23
3, 42240, Note_on_c, 0, 52, 0
3, 42240, Note_on_c, 0, 46, 0
3, 42240, Note_on_c, 0, 61, 0
3, 42720, Note_on_c, 0, 48, 24
3, 42720, Note_on_c, 0, 44, 24
3, 42720, Note_on_c, 0, 53, 29
3, 43200, Note_on_c, 0, 53, 0
3, 43200, Note_on_c, 0, 44, 0
3, 43200, Note_on_c, 0, 48, 0
3, 43680, Note_on_c, 0, 64, 29
3, 43680, Note_on_c, 0, 48, 24
3, 43680, Note_on_c, 0, 55, 29
3, 44160, Note_on_c, 0, 55, 0
3, 44160, Note_on_c, 0, 48, 0
3, 44160, Note_on_c, 0, 64, 0
3, 44640, Note_on_c, 0, 53, 20
3, 44640, Note_on_c, 0, 65, 24
3, 45120, Note_on_c, 0, 65, 0
3, 45120, Note_on_c, 0, 53, 0
3, 45120, Note_on_c, 0, 53, 20
3, 45120, Note_on_c, 0, 65, 24
3, 45360, Note_on_c, 0, 65, 0
3, 45360, Note_on_c, 0, 53, 0
3, 45361, Note_on_c, 0, 68, 35
3, 45361, Note_on_c, 0, 65, 29
3, 45601, Note_on_c, 0, 65, 0
3, 45601, Note_on_c, 0, 68, 0
3, 45601, Note_on_c, 0, 63, 31
3, 45601, Note_on_c, 0, 66, 31
3, 45601, Note_on_c, 0, 68, 37
3, 45841, Note_on_c, 0, 68, 0
3, 45841, Note_on_c, 0, 66, 0
3, 45841, Note_on_c, 0, 63, 0
3, 45841, Note_on_c, 0, 68, 40
3, 45841, Note_on_c, 0, 65, 34
3, 45841, Note_on_c, 0, 61, 34
3, 46081, Note_on_c, 0, 61, 0
3, 46081, Note_on_c, 0, 65, 0
3, 46081, Note_on_c, 0, 68, 0
3, 46081, Note_on_c, 0, 60, 38
3, 46081, Note_on_c, 0, 63, 38
3, 46081, Note_on_c, 0, 68, 46
3, 46561, Note_on_c, 0, 68, 0
3, 46561, Note_on_c, 0, 63, 0
3, 46561, Note_on_c, 0, 60, 0
3, 46561, Note_on_c, 0, 60, 36
3, 46561, Note_on_c, 0, 63, 36
3, 46561, Note_on_c, 0, 69, 43
3, 47281, Note_on_c, 0, 69, 0
3, 47281, Note_on_c, 0, 63, 0
3, 47281, Note_on_c, 0, 60, 0
3, 47281, Note_on_c, 0, 58, 34
3, 47281, Note_on_c, 0, 61, 34
3, 47281, Note_on_c, 0, 66, 40
3, 47521, Note_on_c, 0, 66, 0
3, 47521, Note_on_c, 0, 61, 0
3, 47521, Note_on_c, 0, 58, 0
3, 47521, Note_on_c, 0, 57, 42
3, 47521, Note_on_c, 0, 60, 42
3, 47521, Note_on_c, 0, 65, 50
3, 47761, Note_on_c, 0, 65, 0
3, 47761, Note_on_c, 0, 60, 0
3, 47761, Note_on_c, 0, 57, 0
3, 47761, Note_on_c, 0, 57, 34
3, 47761, Note_on_c, 0, 60, 34
3, 47761, Note_on_c, 0, 65, 40
3, 48001, Note_on_c, 0, 65, 0
3, 48001, Note_on_c, 0, 60, 0
3, 48001, Note_on_c, 0, 57, 0
3, 48001, Note_on_c, 0, 57, 34
3, 48001, Note_on_c, 0, 60, 34
3, 48001, Note_on_c, 0, 65, 40
3, 48481, Note_on_c, 0, 65, 0
3, 48481, Note_on_c, 0, 60, 0
3, 48481, Note_on_c, 0, 57, 0
3, 48481, Note_on_c, 0, 58, 24
3, 48481, Note_on_c, 0, 61, 24
3, 48481, Note_on_c, 0, 65, 29
3, 48961, Note_on_c, 0, 65, 0
3, 48961, Note_on_c, 0, 61, 0
3, 48961, Note_on_c, 0, 58, 0
3, 49921, Note_on_c, 0, 36, 32
3, 49921, Note_on_c, 0, 49, 38
3, 50400, Note_on_c, 0, 40, 43
3, 50401, Note_on_c, 0, 49, 0
3, 50880, Note_on_c, 0, 40, 0
3, 50881, Note_on_c, 0, 43, 43
3, 51361, Note_on_c, 0, 43, 0
3, 51361, Note_on_c, 0, 36, 0
3, 51361, Note_on_c, 0, 32, 32
3, 51361, Note_on_c, 0, 36, 32
3, 51361, Note_on_c, 0, 44, 45
3, 51841, Note_on_c, 0, 44, 0
3, 51841, Note_on_c, 0, 36, 0
3, 51841, Note_on_c, 0, 32, 0
3, 51841, Note_on_c, 0, 31, 32
3, 51841, Note_on_c, 0, 36, 32
3, 51841, Note_on_c, 0, 43, 45
3, 52321, Note_on_c, 0, 43, 0
3, 52321, Note_on_c, 0, 36, 0
3, 52321, Note_on_c, 0, 31, 0
3, 52321, Note_on_c, 0, 29, 32
3, 52321, Note_on_c, 0, 36, 32
3, 52321, Note_on_c, 0, 41, 45
3, 52800, Note_on_c, 0, 40, 45
3, 52800, Note_on_c, 0, 28, 32
3, 52801, Note_on_c, 0, 41, 0
3, 52801, Note_on_c, 0, 29, 0
3, 52801, Note_on_c, 0, 36, 0
3, 52801, Note_on_c, 0, 36, 32
3, 53280, Note_on_c, 0, 40, 0
3, 53280, Note_on_c, 0, 28, 0
3, 53281, Note_on_c, 0, 36, 0
3, 57600, Note_on_c, 0, 52, 38
3, 57600, Note_on_c, 0, 55, 45
3, 57720, Note_on_c, 0, 55, 0
3, 57720, Note_on_c, 0, 52, 0
3, 57720, Note_on_c, 0, 60, 31
3, 57840, Note_on_c, 0, 60, 0
3, 57840, Note_on_c, 0, 52, 26
3, 57840, Note_on_c, 0, 55, 31
3, 57960, Note_on_c, 0, 55, 0
3, 57960, Note_on_c, 0, 52, 0
3, 57960, Note_on_c, 0, 60, 31
3, 58080, Note_on_c, 0, 60, 0
3, 58080, Note_on_c, 0, 52, 36
3, 58080, Note_on_c, 0, 55, 43
3, 58200, Note_on_c, 0, 55, 0
3, 58200, Note_on_c, 0, 52, 0
3, 58200, Note_on_c, 0, 60, 32
3, 58320, Note_on_c, 0, 60, 0
3, 58320, Note_on_c, 0, 52, 27
3, 58320, Note_on_c, 0, 55, 32
3, 58440, Note_on_c, 0, 55, 0
3, 58440, Note_on_c, 0, 52, 0
3, 58440, Note_on_c, 0, 60, 32
3, 58560, Note_on_c, 0, 60, 0
3, 58560, Note_on_c, 0, 52, 35
3, 58560, Note_on_c, 0, 55, 42
3, 58680, Note_on_c, 0, 55, 0
3, 58680, Note_on_c, 0, 52, 0
3, 58680, Note_on_c, 0, 60, 33
3, 58800, Note_on_c, 0, 60, 0
3, 58800, Note_on_c, 0, 52, 28
3, 58800, Note_on_c, 0, 55, 33
3, 58920, Note_on_c, 0, 55, 0
3, 58920, Note_on_c, 0, 52, 0
3, 58920, Note_on_c, 0, 60, 33
3, 59040, Note_on_c, 0, 60, 0
3, 59040, Note_on_c, 0, 53, 36
3, 59040, Note_on_c, 0, 57, 43
3, 59160, Note_on_c, 0, 57, 0
3, 59160, Note_on_c, 0, 53, 0
3, 59160, Note_on_c, 0, 60, 30
3, 59280, Note_on_c, 0, 60, 0
3, 59280, Note_on_c, 0, 53, 25
3, 59280, Note_on_c, 0, 57, 30
3, 59400, Note_on_c, 0, 57, 0
3, 59400, Note_on_c, 0, 53, 0
3, 59400, Note_on_c, 0, 60, 30
3, 59520, Note_on_c, 0, 60, 0
3, 59520, Note_on_c, 0, 55, 38
3, 59520, Note_on_c, 0, 58, 45
3, 59640, Note_on_c, 0, 58, 0
3, 59640, Note_on_c, 0, 55, 0
3, 59640, Note_on_c, 0, 60, 32
3, 59760, Note_on_c, 0, 60, 0
3, 59760, Note_on_c, 0, 55, 27
3, 59760, Note_on_c, 0, 58, 32
3, 59880, Note_on_c, 0, 58, 0
3, 59880, Note_on_c, 0, 55, 0
3, 59880, Note_on_c, 0, 60, 32
3, 60000, Note_on_c, 0, 60, 0
3, 60000, Note_on_c, 0, 55, 38
3, 60000, Note_on_c, 0, 58, 45
3, 60120, Note_on_c, 0, 58, 0
3, 60120, Note_on_c, 0, 55, 0
3, 60120, Note_on_c, 0, 60, 31
3, 60240, Note_on_c, 0, 60, 0
3, 60240, Note_on_c, 0, 55, 26
3, 60240, Note_on_c, 0, 58, 31
3, 60360, Note_on_c, 0, 58, 0
3, 60360, Note_on_c, 0, 55, 0
3, 60360, Note_on_c, 0, 60, 31
3, 60480, Note_on_c, 0, 60, 0
3, 60480, Note_on_c, 0, 55, 38
3, 60480, Note_on_c, 0, 58, 45
3, 60600, Note_on_c, 0, 58, 0
3, 60600, Note_on_c, 0, 55, 0
3, 60600, Note_on_c, 0, 60, 33
3, 60720, Note_on_c, 0, 60, 0
3, 60720, Note_on_c, 0, 53, 28
3, 60720, Note_on_c, 0, 57, 33
3, 60840, Note_on_c, 0, 57, 0
3, 60840, Note_on_c, 0, 53, 0
3, 60840, Note_on_c, 0, 60, 33
3, 60960, Note_on_c, 0, 60, 0
3, 60960, Note_on_c, 0, 52, 38
3, 60960, Note_on_c, 0, 55, 45
3, 61080, Note_on_c, 0, 55, 0
3, 61080, Note_on_c, 0, 52, 0
3, 61080, Note_on_c, 0, 60, 33
3, 61200, Note_on_c, 0, 60, 0
3, 61200, Note_on_c, 0, 52, 28
3, 61200, Note_on_c, 0, 55, 33
3, 61320, Note_on_c, 0, 55, 0
3, 61320, Note_on_c, 0, 52, 0
3, 61320, Note_on_c, 0, 60, 33
3, 61440, Note_on_c, 0, 60, 0
3, 61440, Note_on_c, 0, 52, 38
3, 61440, Note_on_c, 0, 55, 45
3, 61560, Note_on_c, 0, 55, 0
3, 61560, Note_on_c, 0, 52, 0
3, 61560, Note_on_c, 0, 60, 34
3, 61680, Note_on_c, 0, 60, 0
3, 61680, Note_on_c, 0, 52, 28
3, 61680, Note_on_c, 0, 55, 34
3, 61800, Note_on_c, 0, 55, 0
3, 61800, Note_on_c, 0, 52, 0
3, 61800, Note_on_c, 0, 60, 34
3, 61920, Note_on_c, 0, 60, 0
3, 61920, Note_on_c, 0, 52, 37
3, 61920, Note_on_c, 0, 55, 44
3, 62040, Note_on_c, 0, 55, 0
3, 62040, Note_on_c, 0, 52, 0
3, 62040, Note_on_c, 0, 60, 33
3, 62160, Note_on_c, 0, 60, 0
3, 62160, Note_on_c, 0, 52, 28
3, 62160, Note_on_c, 0, 55, 33
3, 62280, Note_on_c, 0, 55, 0
3, 62280, Note_on_c, 0, 52, 0
3, 62280, Note_on_c, 0, 60, 33
3, 62400, Note_on_c, 0, 60, 0
3, 62400, Note_on_c, 0, 52, 38
3, 62400, Note_on_c, 0, 55, 45
3, 62520, Note_on_c, 0, 55, 0
3, 62520, Note_on_c, 0, 52, 0
3, 62520, Note_on_c, 0, 60, 34
3, 62640, Note_on_c, 0, 60, 0
3, 62640, Note_on_c, 0, 52, 28
3, 62640, Note_on_c, 0, 55, 34
3, 62760, Note_on_c, 0, 55, 0
3, 62760, Note_on_c, 0, 52, 0
3, 62760, Note_on_c, 0, 60, 34
3, 62880, Note_on_c, 0, 60, 0
3, 62880, Note_on_c, 0, 53, 38
3, 62880, Note_on_c, 0, 57, 45
3, 63000, Note_on_c, 0, 57, 0
3, 63000, Note_on_c, 0, 53, 0
3, 63000, Note_on_c, 0, 60, 34
3, 63120, Note_on_c, 0, 60, 0
3, 63120, Note_on_c, 0, 53, 28
3, 63120, Note_on_c, 0, 57, 34
3, 63240, Note_on_c, 0, 57, 0
3, 63240, Note_on_c, 0, 53, 0
3, 63240, Note_on_c, 0, 60, 34
3, 63360, Note_on_c, 0, 60, 0
3, 63360, Note_on_c, 0, 55, 38
3, 63360, Note_on_c, 0, 58, 45
3, 63480, Note_on_c, 0, 58, 0
3, 63480, Note_on_c, 0, 55, 0
3, 63480, Note_on_c, 0, 60, 33
3, 63600, Note_on_c, 0, 60, 0
3, 63600, Note_on_c, 0, 55, 28
3, 63600, Note_on_c, 0, 58, 33
3, 63720, Note_on_c, 0, 58, 0
3, 63720, Note_on_c, 0, 55, 0
3, 63720, Note_on_c, 0, 60, 34
3, 63840, Note_on_c, 0, 60, 0
3, 63840, Note_on_c, 0, 55, 39
3, 63840, Note_on_c, 0, 58, 46
3, 63960, Note_on_c, 0, 58, 0
3, 63960, Note_on_c, 0, 55, 0
3, 63960, Note_on_c, 0, 60, 35
3, 64080, Note_on_c, 0, 60, 0
3, 64080, Note_on_c, 0, 55, 29
3, 64080, Note_on_c, 0, 58, 35
3, 64200, Note_on_c, 0, 58, 0
3, 64200, Note_on_c, 0, 55, 0
3, 64200, Note_on_c, 0, 60, 35
3, 64320, Note_on_c, 0, 60, 0
3, 64320, Note_on_c, 0, 55, 38
3, 64320, Note_on_c, 0, 58, 45
3, 64440, Note_on_c, 0, 58, 0
3, 64440, Note_on_c, 0, 55, 0
3, 64440, Note_on_c, 0, 60, 35
3, 64560, Note_on_c, 0, 60, 0
3, 64560, Note_on_c, 0, 53, 29
3, 64560, Note_on_c, 0, 56, 35
3, 64680, Note_on_c, 0, 56, 0
3, 64680, Note_on_c, 0, 53, 0
3, 64680, Note_on_c, 0, 60, 35
3, 64800, Note_on_c, 0, 60, 0
3, 64800, Note_on_c, 0, 52, 39
3, 64800, Note_on_c, 0, 55, 47
3, 64920, Note_on_c, 0, 55, 0
3, 64920, Note_on_c, 0, 52, 0
3, 64920, Note_on_c, 0, 60, 36
3, 65040, Note_on_c, 0, 60, 0
3, 65040, Note_on_c, 0, 52, 30
3, 65040, Note_on_c, 0, 55, 36
3, 65160, Note_on_c, 0, 55, 0
3, 65160, Note_on_c, 0, 52, 0
3, 65160, Note_on_c, 0, 60, 36
3, 65280, Note_on_c, 0, 60, 0
3, 65280, Note_on_c, 0, 56, 56
3, 65280, Note_on_c, 0, 53, 56
3, 65340, Note_on_c, 0, 53, 0
3, 65340, Note_on_c, 0, 56, 0
3, 65400, Note_on_c, 0, 60, 47
3, 65460, Note_on_c, 0, 60, 0
3, 65520, Note_on_c, 0, 64, 47
3, 65580, Note_on_c, 0, 64, 0
3, 65640, Note_on_c, 0, 65, 47
3, 65700, Note_on_c, 0, 65, 0
3, 65760, Note_on_c, 0, 60, 56
3, 65820, Note_on_c, 0, 60, 0
3, 65880, Note_on_c, 0, 56, 42
3, 65940, Note_on_c, 0, 56, 0
3, 66000, Note_on_c, 0, 55, 42
3, 66060, Note_on_c, 0, 55, 0
3, 66120, Note_on_c, 0, 53, 42
3, 66180, Note_on_c, 0, 53, 0
3, 66240, Note_on_c, 0, 48, 56
3, 66240, Note_on_c, 0, 52, 56
3, 66300, Note_on_c, 0, 52, 0
3, 66300, Note_on_c, 0, 48, 0
3, 66360, Note_on_c, 0, 55, 40
3, 66420, Note_on_c, 0, 55, 0
3, 66480, Note_on_c, 0, 58, 40
3, 66540, Note_on_c, 0, 58, 0
3, 66600, Note_on_c, 0, 48, 40
3, 66660, Note_on_c, 0, 48, 0
3, 66720, Note_on_c, 0, 49, 52
3, 66780, Note_on_c, 0, 49, 0
3, 66840, Note_on_c, 0, 53, 36
3, 66900, Note_on_c, 0, 53, 0
3, 66960, Note_on_c, 0, 56, 36
3, 67020, Note_on_c, 0, 56, 0
3, 67080, Note_on_c, 0, 53, 36
3, 67140, Note_on_c, 0, 53, 0
3, 67200, Note_on_c, 0, 49, 51
3, 67200, Note_on_c, 0, 53, 51
3, 67260, Note_on_c, 0, 53, 0
3, 67260, Note_on_c, 0, 49, 0
3, 67320, Note_on_c, 0, 56, 38
3, 67380, Note_on_c, 0, 56, 0
3, 67440, Note_on_c, 0, 60, 38
3, 67500, Note_on_c, 0, 60, 0
3, 67560, Note_on_c, 0, 61, 38
3, 67620, Note_on_c, 0, 61, 0
3, 67680, Note_on_c, 0, 56, 47
3, 67740, Note_on_c, 0, 56, 0
3, 67800, Note_on_c, 0, 53, 33
3, 67860, Note_on_c, 0, 53, 0
3, 67920, Note_on_c, 0, 51, 33
3, 67980, Note_on_c, 0, 51, 0
3, 68040, Note_on_c, 0, 49, 33
3, 68100, Note_on_c, 0, 49, 0
3, 68160, Note_on_c, 0, 41, 44
3, 68160, Note_on_c, 0, 45, 44
3, 68220, Note_on_c, 0, 45, 0
3, 68220, Note_on_c, 0, 41, 0
3, 68280, Note_on_c, 0, 48, 33
3, 68340, Note_on_c, 0, 48, 0
3, 68400, Note_on_c, 0, 53, 33
3, 68460, Note_on_c, 0, 53, 0
3, 68520, Note_on_c, 0, 45, 33
3, 68580, Note_on_c, 0, 45, 0
3, 68640, Note_on_c, 0, 46, 44
3, 68700, Note_on_c, 0, 46, 0
3, 68760, Note_on_c, 0, 49, 33
3, 68820, Note_on_c, 0, 49, 0
3, 68880, Note_on_c, 0, 53, 34
3, 68940, Note_on_c, 0, 53, 0
3, 69000, Note_on_c, 0, 46, 34
3, 69060, Note_on_c, 0, 46, 0
3, 69120, Note_on_c, 0, 43, 30
3, 69120, Note_on_c, 0, 56, 30
3, 69600, Note_on_c, 0, 56, 0
3, 69600, Note_on_c, 0, 47, 23
3, 70080, Note_on_c, 0, 47, 0
3, 70080, Note_on_c, 0, 50, 29
3, 70560, Note_on_c, 0, 50, 0
3, 70560, Note_on_c, 0, 47, 23
3, 71040, Note_on_c, 0, 47, 0
3, 71040, Note_on_c, 0, 43, 0
3, 72960, Note_on_c, 0, 47, 30
3, 72960, Note_on_c, 0, 62, 30
3, 73440, Note_on_c, 0, 62, 0
3, 73440, Note_on_c, 0, 53, 23
3, 73920, Note_on_c, 0, 53, 0
3, 73920, Note_on_c, 0, 56, 29
3, 74400, Note_on_c, 0, 56, 0
3, 74400, Note_on_c, 0, 53, 23
3, 74880, Note_on_c, 0, 53, 0
3, 74880, Note_on_c, 0, 47, 0
3, 76740, Note_on_c, 0, 46, 33
3, 76800, Note_on_c, 0, 46, 0
3, 76800, Note_on_c, 0, 62, 33
3, 77280, Note_on_c, 0, 62, 0
3, 77280, Note_on_c, 0, 53, 26
3, 77760, Note_on_c, 0, 53, 0
3, 77760, Note_on_c, 0, 62, 31
3, 78240, Note_on_c, 0, 62, 0
3, 78240, Note_on_c, 0, 53, 25
3, 78720, Note_on_c, 0, 53, 0
3, 78720, Note_on_c, 0, 65, 33
3, 79200, Note_on_c, 0, 65, 0
3, 79200, Note_on_c, 0, 62, 28
3, 79680, Note_on_c, 0, 62, 0
3, 79680, Note_on_c, 0, 68, 28
3, 80160, Note_on_c, 0, 68, 0
3, 80160, Note_on_c, 0, 65, 28
3, 80640, Note_on_c, 0, 65, 0
3, 80640, End_track
4, 0, Start_track
4, 0, Title_t, "Pedale"
4, 0, Program_c, 0, 0
4, 406, Control_c, 0, 64, 127
4, 1943, Control_c, 0, 64, 0
4, 2337, Control_c, 0, 64, 127
4, 4330, Control_c, 0, 64, 0
4, 4423, Control_c, 0, 64, 127
4, 5290, Control_c, 0, 64, 0
4, 5400, Control_c, 0, 64, 127
4, 6125, Control_c, 0, 64, 0
4, 6183, Control_c, 0, 64, 127
4, 7208, Control_c, 0, 64, 0
4, 8114, Control_c, 0, 64, 127
4, 9623, Control_c, 0, 64, 0
4, 10193, Control_c, 0, 64, 127
4, 12010, Control_c, 0, 64, 0
4, 12103, Control_c, 0, 64, 127
4, 12970, Control_c, 0, 64, 0
4, 13080, Control_c, 0, 64, 127
4, 13805, Control_c, 0, 64, 0
4, 13863, Control_c, 0, 64, 127
4, 14640, Control_c, 0, 64, 0
4, 14725, Control_c, 0, 64, 127
4, 14892, Control_c, 0, 64, 0
4, 14971, Control_c, 0, 64, 127
4, 15126, Control_c, 0, 64, 0
4, 15205, Control_c, 0, 64, 127
4, 15360, Control_c, 0, 64, 0
4, 15480, Control_c, 0, 64, 127
4, 15851, Control_c, 0, 64, 0
4, 15917, Control_c, 0, 64, 127
4, 16326, Control_c, 0, 64, 0
4, 16383, Control_c, 0, 64, 127
4, 16573, Control_c, 0, 64, 0
4, 16620, Control_c, 0, 64, 127
4, 16812, Control_c, 0, 64, 0
4, 16863, Control_c, 0, 64, 127
4, 17294, Control_c, 0, 64, 0
4, 17393, Control_c, 0, 64, 127
4, 17773, Control_c, 0, 64, 0
4, 17880, Control_c, 0, 64, 127
4, 18252, Control_c, 0, 64, 0
4, 18699, Control_c, 0, 64, 127
4, 19200, Control_c, 0, 64, 0
4, 19320, Control_c, 0, 64, 127
4, 19687, Control_c, 0, 64, 0
4, 19823, Control_c, 0, 64, 127
4, 20651, Control_c, 0, 64, 0
4, 20749, Control_c, 0, 64, 127
4, 21131, Control_c, 0, 64, 0
4, 21206, Control_c, 0, 64, 127
4, 21613, Control_c, 0, 64, 0
4, 21715, Control_c, 0, 64, 127
4, 22087, Control_c, 0, 64, 0
4, 22189, Control_c, 0, 64, 127
4, 22573, Control_c, 0, 64, 0
4, 22646, Control_c, 0, 64, 127
4, 23040, Control_c, 0, 64, 0
4, 23137, Control_c, 0, 64, 127
4, 23530, Control_c, 0, 64, 0
4, 23617, Control_c, 0, 64, 127
4, 24013, Control_c, 0, 64, 0
4, 24092, Control_c, 0, 64, 127
4, 24493, Control_c, 0, 64, 0
4, 24577, Control_c, 0, 64, 127
4, 24963, Control_c, 0, 64, 0
4, 25046, Control_c, 0, 64, 127
4, 25453, Control_c, 0, 64, 0
4, 25526, Control_c, 0, 64, 127
4, 25933, Control_c, 0, 64, 0
4, 26052, Control_c, 0, 64, 127
4, 26413, Control_c, 0, 64, 0
4, 26497, Control_c, 0, 64, 127
4, 26880, Control_c, 0, 64, 0
4, 27006, Control_c, 0, 64, 127
4, 28333, Control_c, 0, 64, 0
4, 28400, Control_c, 0, 64, 127
4, 28811, Control_c, 0, 64, 0
4, 28852, Control_c, 0, 64, 127
4, 29285, Control_c, 0, 64, 0
4, 29323, Control_c, 0, 64, 127
4, 29768, Control_c, 0, 64, 0
4, 29820, Control_c, 0, 64, 127
4, 30008, Control_c, 0, 64, 0
4, 30060, Control_c, 0, 64, 127
4, 30251, Control_c, 0, 64, 0
4, 30300, Control_c, 0, 64, 127
4, 30732, Control_c, 0, 64, 0
4, 30766, Control_c, 0, 64, 127
4, 31203, Control_c, 0, 64, 0
4, 31257, Control_c, 0, 64, 127
4, 32173, Control_c, 0, 64, 0
4, 32215, Control_c, 0, 64, 127
4, 32649, Control_c, 0, 64, 0
4, 32682, Control_c, 0, 64, 127
4, 33130, Control_c, 0, 64, 0
4, 33164, Control_c, 0, 64, 127
4, 33609, Control_c, 0, 64, 0
4, 33644, Control_c, 0, 64, 127
4, 34089, Control_c, 0, 64, 0
4, 34119, Control_c, 0, 64, 127
4, 34539, Control_c, 0, 64, 0
4, 34792, Control_c, 0, 64, 127
4, 35023, Control_c, 0, 64, 0
4, 35289, Control_c, 0, 64, 127
4, 35555, Control_c, 0, 64, 0
4, 35797, Control_c, 0, 64, 127
4, 36015, Control_c, 0, 64, 0
4, 36266, Control_c, 0, 64, 127
4, 36480, Control_c, 0, 64, 0
4, 36766, Control_c, 0, 64, 127
4, 36972, Control_c, 0, 64, 0
4, 37257, Control_c, 0, 64, 127
4, 37455, Control_c, 0, 64, 0
4, 37749, Control_c, 0, 64, 127
4, 37963, Control_c, 0, 64, 0
4, 38223, Control_c, 0, 64, 127
4, 38400, Control_c, 0, 64, 0
4, 38846, Control_c, 0, 64, 127
4, 40343, Control_c, 0, 64, 0
4, 40783, Control_c, 0, 64, 127
4, 42730, Control_c, 0, 64, 0
4, 42823, Control_c, 0, 64, 127
4, 43690, Control_c, 0, 64, 0
4, 43800, Control_c, 0, 64, 127
4, 44525, Control_c, 0, 64, 0
4, 44583, Control_c, 0, 64, 127
4, 45361, Control_c, 0, 64, 0
4, 45445, Control_c, 0, 64, 127
4, 45613, Control_c, 0, 64, 0
4, 45692, Control_c, 0, 64, 127
4, 45847, Control_c, 0, 64, 0
4, 45925, Control_c, 0, 64, 127
4, 46081, Control_c, 0, 64, 0
4, 46118, Control_c, 0, 64, 127
4, 46572, Control_c, 0, 64, 0
4, 46638, Control_c, 0, 64, 127
4, 47047, Control_c, 0, 64, 0
4, 47104, Control_c, 0, 64, 127
4, 47294, Control_c, 0, 64, 0
4, 47341, Control_c, 0, 64, 127
4, 47533, Control_c, 0, 64, 0
4, 47584, Control_c, 0, 64, 127
4, 48015, Control_c, 0, 64, 0
4, 48114, Control_c, 0, 64, 127
4, 48494, Control_c, 0, 64, 0
4, 48601, Control_c, 0, 64, 127
4, 48973, Control_c, 0, 64, 0
4, 49420, Control_c, 0, 64, 127
4, 49921, Control_c, 0, 64, 0
4, 49995, Control_c, 0, 64, 127
4, 50408, Control_c, 0, 64, 0
4, 50544, Control_c, 0, 64, 127
4, 51372, Control_c, 0, 64, 0
4, 51469, Control_c, 0, 64, 127
4, 51852, Control_c, 0, 64, 0
4, 51926, Control_c, 0, 64, 127
4, 52334, Control_c, 0, 64, 0
4, 52435, Control_c, 0, 64, 127
4, 52808, Control_c, 0, 64, 0
4, 52909, Control_c, 0, 64, 127
4, 53294, Control_c, 0, 64, 0
4, 53366, Control_c, 0, 64, 127
4, 53761, Control_c, 0, 64, 0
4, 53858, Control_c, 0, 64, 127
4, 54251, Control_c, 0, 64, 0
4, 54338, Control_c, 0, 64, 127
4, 54734, Control_c, 0, 64, 0
4, 54812, Control_c, 0, 64, 127
4, 55214, Control_c, 0, 64, 0
4, 55298, Control_c, 0, 64, 127
4, 55684, Control_c, 0, 64, 0
4, 55766, Control_c, 0, 64, 127
4, 56174, Control_c, 0, 64, 0
4, 56246, Control_c, 0, 64, 127
4, 56654, Control_c, 0, 64, 0
4, 56772, Control_c, 0, 64, 127
4, 57134, Control_c, 0, 64, 0
4, 57218, Control_c, 0, 64, 127
4, 57600, Control_c, 0, 64, 0
4, 57726, Control_c, 0, 64, 127
4, 59053, Control_c, 0, 64, 0
4, 59120, Control_c, 0, 64, 127
4, 59531, Control_c, 0, 64, 0
4, 59572, Control_c, 0, 64, 127
4, 60005, Control_c, 0, 64, 0
4, 60043, Control_c, 0, 64, 127
4, 60488, Control_c, 0, 64, 0
4, 60540, Control_c, 0, 64, 127
4, 60728, Control_c, 0, 64, 0
4, 60780, Control_c, 0, 64, 127
4, 60971, Control_c, 0, 64, 0
4, 61020, Control_c, 0, 64, 127
4, 61452, Control_c, 0, 64, 0
4, 61486, Control_c, 0, 64, 127
4, 61923, Control_c, 0, 64, 0
4, 61977, Control_c, 0, 64, 127
4, 62893, Control_c, 0, 64, 0
4, 62935, Control_c, 0, 64, 127
4, 63369, Control_c, 0, 64, 0
4, 63402, Control_c, 0, 64, 127
4, 63850, Control_c, 0, 64, 0
4, 63884, Control_c, 0, 64, 127
4, 64329, Control_c, 0, 64, 0
4, 64364, Control_c, 0, 64, 127
4, 64809, Control_c, 0, 64, 0
4, 64839, Control_c, 0, 64, 127
4, 65259, Control_c, 0, 64, 0
4, 65512, Control_c, 0, 64, 127
4, 65743, Control_c, 0, 64, 0
4, 66009, Control_c, 0, 64, 127
4, 66275, Control_c, 0, 64, 0
4, 66517, Control_c, 0, 64, 127
4, 66735, Control_c, 0, 64, 0
4, 66986, Control_c, 0, 64, 127
4, 67200, Control_c, 0, 64, 0
4, 67486, Control_c, 0, 64, 127
4, 67692, Control_c, 0, 64, 0
4, 67977, Control_c, 0, 64, 127
4, 68175, Control_c, 0, 64, 0
4, 68469, Control_c, 0, 64, 127
4, 68683, Control_c, 0, 64, 0
4, 68943, Control_c, 0, 64, 127
4, 69120, Control_c, 0, 64, 0
4, 69490, Control_c, 0, 64, 127
4, 71040, Control_c, 0, 64, 0
4, 71160, Control_c, 0, 64, 127
4, 71529, Control_c, 0, 64, 0
4, 72097, Control_c, 0, 64, 127
4, 72492, Control_c, 0, 64, 0
4, 72960, Control_c, 0, 64, 0
4, 73377, Control_c, 0, 64, 127
4, 74880, Control_c, 0, 64, 0
4, 75000, Control_c, 0, 64, 127
4, 75369, Control_c, 0, 64, 0
4, 75937, Control_c, 0, 64, 127
4, 76332, Control_c, 0, 64, 0
4, 76740, Control_c, 0, 64, 127
4, 80880, Control_c, 0, 64, 0
4, 80880, End_track
5, 0, Start_track
5, 0, Title_t, "Beethoven: Sonate Les adieux No. 2"
5, 0, End_track
6, 0, Start_track
6, 0, Title_t, "Copyright © 2008 by Bernd Krueger"
6, 0, End_track
7, 0, Start_track
7, 0, Title_t, "http://www.piano-midi.de/"
7, 0, End_track
8, 0, Start_track
8, 0, Title_t, "Edition: 20012-08-07"
8, 0, End_track
9, 0, Start_track
9, 0, Title_t, "Spur 8"
9, 0, End_track
10, 0, Start_track
10, 0, Title_t, "Spur 9"
10, 0, End_track
11, 0, Start_track
11, 0, Title_t, "Spur 10"
11, 0, End_track
12, 0, Start_track
12, 0, Title_t, "Spur 11"
12, 0, End_track
13, 0, Start_track
13, 0, Title_t, "Spur 12"
13, 0, End_track
14, 0, Start_track
14, 0, Title_t, "Spur 13"
14, 0, End_track
15, 0, Start_track
15, 0, Title_t, "Spur 14"
15, 0, End_track
16, 0, Start_track
16, 0, Title_t, "Spur 15"
16, 0, End_track
17, 0, Start_track
17, 0, Title_t, "Spur 16"
17, 0, End_track
0, 0, End_of_file
