0, 0, Header, 1, 9, 480
1, 0, Start_track
1, 0, Title_t, "Sonata No.14 in cis-Moll, Op. 27/2 - 1. Satz"
1, 0, Title_t, "Mondscheinsonate; der Gräfin Giulietta Guiccardi gewidmet"
1, 0, Copyright_t, "Coypright Bernd Krueger http://www.piano-midi.de"
1, 0, Text_t, "Ludwig van Beethoven"
1, 0, Text_t, "Fertiggestellt am 25.10.97\012"
1, 0, Text_t, "Pan's auf Standard am 18.1.98\012"
1, 0, Text_t, "Tempoänderungen am 31.1.98\012"
1, 0, Text_t, "Update am 17.8.99\012"
1, 0, Text_t, "Update am 8.1.00\012"
1, 0, Text_t, "Update am 27.10.01\012"
1, 0, Text_t, "Normierung: 23.12.2002\012"
1, 0, Text_t, "Update am 3.6.2012\012"
1, 0, Text_t, "Dauer: 6:02 Minuten\012"
1, 0, Time_signature, 4, 2, 24, 8
1, 0, Key_signature, 4, "major"
1, 0, Tempo, 1212366
1, 0, Marker_t, "Adagio Sostenuto"
1, 480, Tempo, 1196649
1, 600, Tempo, 1184366
1, 720, Tempo, 1172333
1, 840, Tempo, 1160542
1, 960, Tempo, 1148985
1, 1760, Tempo, 1241979
1, 1920, Tempo, 1179014
1, 2400, Tempo, 1158972
1, 2640, Tempo, 1142857
1, 2880, Tempo, 1176471
1, 3040, Tempo, 1132075
1, 3360, Tempo, 1165049
1, 3520, Tempo, 1132075
1, 3680, Tempo, 1276867
1, 3840, Tempo, 1209190
1, 3860, Tempo, 1209190
1, 3980, Tempo, 1196649
1, 4100, Tempo, 1184366
1, 4220, Tempo, 1172333
1, 4320, Tempo, 1160542
1, 4640, Tempo, 1336005
1, 4800, Tempo, 1209190
1, 4960, Tempo, 1209190
1, 5040, Tempo, 1196649
1, 5120, Tempo, 1184366
1, 5200, Tempo, 1172333
1, 5280, Tempo, 1160542
1, 5600, Tempo, 1268767
1, 5760, Tempo, 1221996
1, 6720, Tempo, 1251043
1, 7200, Tempo, 1367677
1, 7680, Tempo, 1276867
1, 7840, Tempo, 1235839
1, 8160, Tempo, 1209190
1, 8640, Tempo, 1262626
1, 9120, Tempo, 1500000
1, 9440, Tempo, 1764706
1, 9600, Tempo, 1318681
1, 9660, Tempo, 1304348
1, 9700, Tempo, 1290323
1, 9760, Tempo, 1276596
1, 9800, Tempo, 1263158
1, 9840, Tempo, 1250000
1, 9900, Tempo, 1237113
1, 9940, Tempo, 1224490
1, 10000, Tempo, 1212121
1, 10040, Tempo, 1200000
1, 10080, Tempo, 1188119
1, 10240, Tempo, 1148985
1, 10560, Tempo, 1184366
1, 11040, Tempo, 1445783
1, 11360, Tempo, 1740644
1, 11520, Tempo, 1262626
1, 11840, Tempo, 1196649
1, 12000, Tempo, 1172333
1, 12160, Tempo, 1137656
1, 12320, Tempo, 1221996
1, 12480, Tempo, 1320713
1, 12640, Tempo, 1262626
1, 12800, Tempo, 1248959
1, 12960, Tempo, 1184366
1, 13440, Tempo, 1320713
1, 13500, Tempo, 1305767
1, 13560, Tempo, 1290878
1, 13620, Tempo, 1276867
1, 13680, Tempo, 1262626
1, 13740, Tempo, 1248959
1, 13800, Tempo, 1235839
1, 13860, Tempo, 1221996
1, 13900, Tempo, 1209190
1, 13920, Tempo, 1196649
1, 14240, Tempo, 1320713
1, 14400, Tempo, 1384402
1, 14720, Tempo, 1423825
1, 14880, Tempo, 1336005
1, 15360, Tempo, 1320713
1, 15520, Tempo, 1276867
1, 15840, Tempo, 1248959
1, 16000, Tempo, 1221996
1, 16800, Tempo, 1305767
1, 17120, Tempo, 1418775
1, 17280, Tempo, 1305767
1, 17760, Tempo, 1248959
1, 17920, Tempo, 1196649
1, 18720, Tempo, 1463415
1, 19040, Tempo, 1689665
1, 19200, Tempo, 1262626
1, 19280, Tempo, 1248959
1, 19360, Tempo, 1235839
1, 19440, Tempo, 1221996
1, 19520, Tempo, 1209190
1, 19600, Tempo, 1196649
1, 19680, Tempo, 1184366
1, 20480, Tempo, 1248959
1, 20640, Tempo, 1445783
1, 20960, Tempo, 1641138
1, 21120, Tempo, 1320713
1, 21280, Tempo, 1262626
1, 21600, Tempo, 1336005
1, 21760, Tempo, 1248959
1, 22080, Tempo, 1367677
1, 22240, Tempo, 1367677
1, 22260, Tempo, 1290878
1, 22560, Tempo, 1436438
1, 22720, Tempo, 1367677
1, 22880, Tempo, 1418775
1, 23040, Tempo, 1384402
1, 23200, Tempo, 1320713
1, 23220, Tempo, 1248959
1, 23520, Tempo, 1351656
1, 23680, Tempo, 1320713
1, 23700, Tempo, 1248959
1, 24000, Tempo, 1290878
1, 24160, Tempo, 1305767
1, 24320, Tempo, 1320713
1, 24480, Tempo, 1336005
1, 24640, Tempo, 1351656
1, 24780, Tempo, 1367677
1, 24800, Tempo, 1552795
1, 24960, Tempo, 1367677
1, 25120, Tempo, 1248959
1, 25440, Tempo, 1336005
1, 25600, Tempo, 1235839
1, 25920, Tempo, 1320713
1, 26400, Tempo, 1401542
1, 26720, Tempo, 1595745
1, 26880, Tempo, 1532176
1, 26920, Tempo, 1511716
1, 26940, Tempo, 1492537
1, 26960, Tempo, 1473116
1, 26980, Tempo, 1454545
1, 27000, Tempo, 1436438
1, 27020, Tempo, 1418775
1, 27060, Tempo, 1401542
1, 27080, Tempo, 1384402
1, 27100, Tempo, 1367677
1, 27120, Tempo, 1351656
1, 27140, Tempo, 1336005
1, 27160, Tempo, 1320713
1, 27180, Tempo, 1305767
1, 27220, Tempo, 1290878
1, 27240, Tempo, 1276867
1, 27260, Tempo, 1262626
1, 27280, Tempo, 1248959
1, 27300, Tempo, 1235839
1, 27320, Tempo, 1221996
1, 27340, Tempo, 1209190
1, 27360, Tempo, 1196649
1, 27520, Tempo, 1148985
1, 27840, Tempo, 1248959
1, 28160, Tempo, 1384402
1, 28320, Tempo, 1276867
1, 28640, Tempo, 1384402
1, 28780, Tempo, 1384402
1, 28800, Tempo, 1262626
1, 28900, Tempo, 1248959
1, 28980, Tempo, 1235839
1, 29060, Tempo, 1221996
1, 29140, Tempo, 1209190
1, 29220, Tempo, 1196649
1, 29300, Tempo, 1184366
1, 29600, Tempo, 1248959
1, 29760, Tempo, 1290323
1, 29920, Tempo, 1196649
1, 29940, Tempo, 1196649
1, 30040, Tempo, 1209190
1, 30120, Tempo, 1221996
1, 30200, Tempo, 1235839
1, 30220, Tempo, 1250000
1, 30260, Tempo, 1263158
1, 30280, Tempo, 1276596
1, 30320, Tempo, 1290323
1, 30340, Tempo, 1304348
1, 30380, Tempo, 1318681
1, 30400, Tempo, 1333333
1, 30440, Tempo, 1348315
1, 30460, Tempo, 1363636
1, 30500, Tempo, 1379310
1, 30520, Tempo, 1395349
1, 30680, Tempo, 1641138
1, 30720, Tempo, 1367677
1, 30880, Tempo, 1262626
1, 31040, Tempo, 1212121
1, 31200, Tempo, 1276867
1, 31360, Tempo, 1184366
1, 31680, Tempo, 1305767
1, 31840, Tempo, 1221996
1, 32000, Tempo, 1408120
1, 32160, Tempo, 1384402
1, 32480, Tempo, 1481481
1, 32640, Tempo, 1401542
1, 32800, Tempo, 1290878
1, 32820, Tempo, 1276867
1, 32880, Tempo, 1262626
1, 32920, Tempo, 1248959
1, 32980, Tempo, 1235839
1, 33020, Tempo, 1221996
1, 33080, Tempo, 1209190
1, 33120, Tempo, 1196649
1, 33440, Tempo, 1262626
1, 33600, Tempo, 1209190
1, 33760, Tempo, 1184366
1, 33920, Tempo, 1305767
1, 34080, Tempo, 1436438
1, 34240, Tempo, 1305767
1, 34560, Tempo, 1248959
1, 35360, Tempo, 1497753
1, 35520, Tempo, 1320713
1, 35680, Tempo, 1248959
1, 36000, Tempo, 1320713
1, 36160, Tempo, 1262626
1, 36320, Tempo, 1573564
1, 36480, Tempo, 1384402
1, 36960, Tempo, 1290878
1, 37120, Tempo, 1263158
1, 37440, Tempo, 1248959
1, 37600, Tempo, 1209190
1, 37920, Tempo, 1196649
1, 38080, Tempo, 1235839
1, 38240, Tempo, 1449626
1, 38400, Tempo, 1262626
1, 39200, Tempo, 1454545
1, 39360, Tempo, 1436438
1, 39400, Tempo, 1418775
1, 39440, Tempo, 1401542
1, 39480, Tempo, 1384402
1, 39520, Tempo, 1367677
1, 39560, Tempo, 1351656
1, 39600, Tempo, 1336005
1, 39640, Tempo, 1320713
1, 39680, Tempo, 1305767
1, 39720, Tempo, 1290878
1, 39760, Tempo, 1276867
1, 39800, Tempo, 1262626
1, 39840, Tempo, 1305767
1, 40160, Tempo, 1641138
1, 40320, Tempo, 1336005
1, 40800, Tempo, 1290878
1, 41280, Tempo, 1320713
1, 41600, Tempo, 1552795
1, 41760, Tempo, 1454545
1, 41920, Tempo, 1618123
1, 42080, Tempo, 1883830
1, 42240, Tempo, 1618123
1, 42400, Tempo, 1492537
1, 42560, Tempo, 1418775
1, 42720, Tempo, 1290878
1, 42880, Tempo, 1209190
1, 43200, Tempo, 1248959
1, 43520, Tempo, 1384402
1, 43680, Tempo, 1518987
1, 44000, Tempo, 1715266
1, 44140, Tempo, 1305767
1, 44220, Tempo, 1290878
1, 44280, Tempo, 1276867
1, 44340, Tempo, 1262626
1, 44400, Tempo, 1248959
1, 44460, Tempo, 1235839
1, 44520, Tempo, 1221996
1, 44580, Tempo, 1209190
1, 44640, Tempo, 1196649
1, 45120, Tempo, 1248959
1, 45440, Tempo, 1318681
1, 45600, Tempo, 1445783
1, 45920, Tempo, 1689665
1, 46080, Tempo, 1268767
1, 46160, Tempo, 1256018
1, 46220, Tempo, 1244039
1, 46300, Tempo, 1232033
1, 46360, Tempo, 1220256
1, 46440, Tempo, 1208703
1, 46500, Tempo, 1197605
1, 46560, Tempo, 1186240
1, 46880, Tempo, 1290323
1, 47040, Tempo, 1235839
1, 47520, Tempo, 1305767
1, 47840, Tempo, 1595745
1, 48000, Tempo, 1336005
1, 48160, Tempo, 1262626
1, 48480, Tempo, 1209190
1, 48640, Tempo, 1172333
1, 48960, Tempo, 1221996
1, 49120, Tempo, 1196649
1, 49280, Tempo, 1384402
1, 49440, Tempo, 1320713
1, 49760, Tempo, 1665279
1, 49920, Tempo, 1320713
1, 50080, Tempo, 1221996
1, 50400, Tempo, 1290323
1, 50560, Tempo, 1262626
1, 50720, Tempo, 1532176
1, 50880, Tempo, 1436438
1, 51000, Tempo, 1351656
1, 51360, Tempo, 1573564
1, 51520, Tempo, 1418775
1, 51680, Tempo, 1552795
1, 51840, Tempo, 1454545
1, 52000, Tempo, 1351656
1, 52060, Tempo, 1336005
1, 52120, Tempo, 1320713
1, 52160, Tempo, 1305767
1, 52220, Tempo, 1290878
1, 52280, Tempo, 1276867
1, 52320, Tempo, 1262626
1, 52640, Tempo, 1367677
1, 52800, Tempo, 1248959
1, 53280, Tempo, 1305767
1, 53760, Tempo, 1248959
1, 53920, Tempo, 1196649
1, 54240, Tempo, 1290878
1, 54400, Tempo, 1209190
1, 54560, Tempo, 1411765
1, 54720, Tempo, 1384402
1, 54800, Tempo, 1367677
1, 54860, Tempo, 1351656
1, 54940, Tempo, 1336005
1, 55000, Tempo, 1320713
1, 55080, Tempo, 1305767
1, 55140, Tempo, 1290878
1, 55200, Tempo, 1276867
1, 55520, Tempo, 1401542
1, 55680, Tempo, 1305767
1, 55760, Tempo, 1290878
1, 55820, Tempo, 1276867
1, 55900, Tempo, 1262626
1, 55960, Tempo, 1248959
1, 56040, Tempo, 1235839
1, 56100, Tempo, 1221996
1, 56160, Tempo, 1209190
1, 56480, Tempo, 1276596
1, 56640, Tempo, 1235839
1, 56800, Tempo, 1263158
1, 57120, Tempo, 1318681
1, 57280, Tempo, 1248959
1, 57600, Tempo, 1209190
1, 57920, Tempo, 1235839
1, 58080, Tempo, 1248959
1, 58400, Tempo, 1384402
1, 58560, Tempo, 1305767
1, 59040, Tempo, 1418775
1, 59360, Tempo, 1767826
1, 59520, Tempo, 1595745
1, 59680, Tempo, 1436438
1, 59840, Tempo, 1221996
1, 60000, Tempo, 1148985
1, 60320, Tempo, 1142204
1, 60460, Tempo, 1132717
1, 60580, Tempo, 1123175
1, 60700, Tempo, 1113999
1, 60820, Tempo, 1104566
1, 60940, Tempo, 1095890
1, 60960, Tempo, 1305767
1, 61120, Tempo, 1379310
1, 61280, Tempo, 1463415
1, 61440, Tempo, 1305767
1, 61600, Tempo, 1209190
1, 61620, Tempo, 1196649
1, 61820, Tempo, 1184366
1, 61920, Tempo, 1188119
1, 62020, Tempo, 1172333
1, 62080, Tempo, 1121495
1, 62220, Tempo, 1160542
1, 62240, Tempo, 1160542
1, 62340, Tempo, 1172333
1, 62400, Tempo, 1132075
1, 62540, Tempo, 1196649
1, 62560, Tempo, 1188119
1, 62640, Tempo, 1209190
1, 62740, Tempo, 1221996
1, 62840, Tempo, 1235839
1, 62880, Tempo, 1351656
1, 63040, Tempo, 1305767
1, 63200, Tempo, 1665279
1, 63320, Tempo, 1209190
1, 63400, Tempo, 1196649
1, 63460, Tempo, 1184366
1, 63520, Tempo, 1172333
1, 63580, Tempo, 1160542
1, 63640, Tempo, 1148985
1, 63700, Tempo, 1137656
1, 63760, Tempo, 1126549
1, 63820, Tempo, 1115449
1, 63840, Tempo, 1115449
1, 64000, Tempo, 1061947
1, 64160, Tempo, 1111111
1, 64320, Tempo, 1148985
1, 64800, Tempo, 1276867
1, 65120, Tempo, 1853568
1, 65272, Tempo, 1158972
1, 65280, Tempo, 1235839
1, 65440, Tempo, 1137656
1, 65600, Tempo, 1061947
1, 65760, Tempo, 1083815
1, 65920, Tempo, 1043478
1, 66080, Tempo, 1081081
1, 66240, Tempo, 1052632
1, 66400, Tempo, 1121495
1, 66560, Tempo, 1081081
1, 66720, Tempo, 1176471
1, 66880, Tempo, 1121495
1, 67040, Tempo, 1318681
1, 67200, Tempo, 1363636
1, 67360, Tempo, 1104566
1, 67520, Tempo, 1061947
1, 67680, Tempo, 1115449
1, 67840, Tempo, 1071429
1, 68000, Tempo, 1121495
1, 68160, Tempo, 1081081
1, 68320, Tempo, 1142857
1, 68480, Tempo, 1090909
1, 68640, Tempo, 1148985
1, 68800, Tempo, 1100917
1, 69000, Tempo, 1160542
1, 69120, Tempo, 1132075
1, 69340, Tempo, 1172333
1, 69480, Tempo, 1132075
1, 69600, Tempo, 1142857
1, 69720, Tempo, 1221996
1, 70200, Tempo, 1320713
1, 70880, Tempo, 1200000
1, 71040, Tempo, 1235839
1, 71200, Tempo, 1142857
1, 71360, Tempo, 1100917
1, 71520, Tempo, 1153846
1, 71640, Tempo, 1196649
1, 72000, Tempo, 1305767
1, 72160, Tempo, 1184366
1, 72640, Tempo, 1160542
1, 72800, Tempo, 1473116
1, 72952, Tempo, 1168907
1, 72960, Tempo, 1262626
1, 73120, Tempo, 1104566
1, 73440, Tempo, 1148985
1, 73500, Tempo, 1160542
1, 73560, Tempo, 1172333
1, 73620, Tempo, 1184366
1, 73680, Tempo, 1196649
1, 73740, Tempo, 1209190
1, 73760, Tempo, 1511716
1, 73920, Tempo, 1367677
1, 74080, Tempo, 1320713
1, 74100, Tempo, 1248959
1, 74240, Tempo, 1304348
1, 74400, Tempo, 1336005
1, 74560, Tempo, 1248959
1, 74720, Tempo, 1445783
1, 74880, Tempo, 1304348
1, 75040, Tempo, 1212121
1, 75200, Tempo, 1160542
1, 75360, Tempo, 1200000
1, 75520, Tempo, 1290878
1, 75840, Tempo, 1248959
1, 76000, Tempo, 1184366
1, 76160, Tempo, 1305767
1, 76320, Tempo, 1248959
1, 76640, Tempo, 1379310
1, 76800, Tempo, 1248959
1, 77120, Tempo, 1176471
1, 77280, Tempo, 1250000
1, 77600, Tempo, 1532176
1, 77760, Tempo, 1320713
1, 78080, Tempo, 1263158
1, 78240, Tempo, 1318681
1, 78560, Tempo, 1689665
1, 78720, Tempo, 1384402
1, 78780, Tempo, 1367677
1, 78840, Tempo, 1351656
1, 78900, Tempo, 1336005
1, 78960, Tempo, 1320713
1, 79020, Tempo, 1305767
1, 79080, Tempo, 1290878
1, 79140, Tempo, 1276867
1, 79200, Tempo, 1262626
1, 79360, Tempo, 1188119
1, 79520, Tempo, 1250000
1, 79680, Tempo, 1351656
1, 79840, Tempo, 1212121
1, 80000, Tempo, 1263158
1, 80160, Tempo, 1500000
1, 80480, Tempo, 1715266
1, 80640, Tempo, 1348315
1, 80720, Tempo, 1333333
1, 80780, Tempo, 1318681
1, 80840, Tempo, 1304348
1, 80920, Tempo, 1290323
1, 80980, Tempo, 1276596
1, 81040, Tempo, 1263158
1, 81100, Tempo, 1250000
1, 81120, Tempo, 1235839
1, 81440, Tempo, 1153846
1, 81600, Tempo, 1224490
1, 81920, Tempo, 1142857
1, 82080, Tempo, 1445783
1, 82400, Tempo, 1665279
1, 82560, Tempo, 1305767
1, 82720, Tempo, 1209190
1, 83040, Tempo, 1172333
1, 83360, Tempo, 1392758
1, 83520, Tempo, 1336005
1, 83840, Tempo, 1276867
1, 84000, Tempo, 1235839
1, 84320, Tempo, 1445783
1, 84480, Tempo, 1367677
1, 84640, Tempo, 1276867
1, 84960, Tempo, 1196649
1, 85120, Tempo, 1290878
1, 85280, Tempo, 1473116
1, 85440, Tempo, 1321295
1, 85760, Tempo, 1481481
1, 85920, Tempo, 1404166
1, 86240, Tempo, 1586043
1, 86400, Tempo, 1336005
1, 86560, Tempo, 1276867
1, 86880, Tempo, 1172333
1, 87360, Tempo, 1196649
1, 87680, Tempo, 1401542
1, 87840, Tempo, 1418775
1, 88160, Tempo, 1767826
1, 88320, Tempo, 1367677
1, 88640, Tempo, 1276867
1, 88800, Tempo, 1209190
1, 88960, Tempo, 1196649
1, 89100, Tempo, 1184366
1, 89220, Tempo, 1172333
1, 89340, Tempo, 1160542
1, 89460, Tempo, 1148985
1, 89580, Tempo, 1137656
1, 89600, Tempo, 1363636
1, 89760, Tempo, 1445783
1, 90080, Tempo, 1641138
1, 90240, Tempo, 1196649
1, 90720, Tempo, 1235839
1, 91040, Tempo, 1389854
1, 91200, Tempo, 1235839
1, 91680, Tempo, 1308330
1, 91840, Tempo, 1389854
1, 92000, Tempo, 1643836
1, 92160, Tempo, 1367677
1, 92320, Tempo, 1276867
1, 92640, Tempo, 1235839
1, 92800, Tempo, 1235839
1, 93040, Tempo, 1248959
1, 93060, Tempo, 1290323
1, 93140, Tempo, 1235839
1, 93600, Tempo, 1320713
1, 93760, Tempo, 1367677
1, 93920, Tempo, 1573564
1, 94080, Tempo, 1320713
1, 94240, Tempo, 1262626
1, 94560, Tempo, 1351656
1, 94880, Tempo, 1573564
1, 95040, Tempo, 1290878
1, 95520, Tempo, 1367677
1, 95680, Tempo, 1320713
1, 95840, Tempo, 1623816
1, 96000, Tempo, 1511716
1, 96160, Tempo, 1401542
1, 96320, Tempo, 1305767
1, 96480, Tempo, 1221996
1, 96640, Tempo, 1172333
1, 96800, Tempo, 1290878
1, 96960, Tempo, 1196649
1, 97280, Tempo, 1262626
1, 97440, Tempo, 1248959
1, 97600, Tempo, 1305767
1, 97760, Tempo, 1595745
1, 97920, Tempo, 1401542
1, 98080, Tempo, 1336005
1, 98240, Tempo, 1262626
1, 98400, Tempo, 1209190
1, 98560, Tempo, 1172333
1, 98720, Tempo, 1248959
1, 98880, Tempo, 1235839
1, 99040, Tempo, 1196649
1, 99200, Tempo, 1348315
1, 99360, Tempo, 1320713
1, 99520, Tempo, 1262626
1, 99680, Tempo, 1552795
1, 99840, Tempo, 1320713
1, 100160, Tempo, 1248959
1, 100320, Tempo, 1165049
1, 100800, Tempo, 1235839
1, 101280, Tempo, 1262626
1, 101600, Tempo, 1481481
1, 101760, Tempo, 1336005
1, 101920, Tempo, 1276867
1, 102240, Tempo, 1221996
1, 102560, Tempo, 1165049
1, 102720, Tempo, 1262626
1, 103040, Tempo, 1348315
1, 103200, Tempo, 1320713
1, 103520, Tempo, 1600000
1, 103680, Tempo, 1367677
1, 104000, Tempo, 1290878
1, 104160, Tempo, 1160542
1, 104480, Tempo, 1384402
1, 104640, Tempo, 1351656
1, 104800, Tempo, 1290878
1, 105120, Tempo, 1184366
1, 105440, Tempo, 1492537
1, 105600, Tempo, 1276867
1, 105760, Tempo, 1184366
1, 106080, Tempo, 1209190
1, 106400, Tempo, 1132075
1, 106560, Tempo, 1200000
1, 106880, Tempo, 1305767
1, 107040, Tempo, 1184366
1, 107200, Tempo, 1148985
1, 107360, Tempo, 1367677
1, 107520, Tempo, 1235839
1, 107680, Tempo, 1172333
1, 107840, Tempo, 1290878
1, 108000, Tempo, 1184366
1, 108320, Tempo, 1237113
1, 108480, Tempo, 1196649
1, 108800, Tempo, 1276596
1, 108960, Tempo, 1248959
1, 109280, Tempo, 1384402
1, 109440, Tempo, 1248959
1, 109600, Tempo, 1172333
1, 110240, Tempo, 1336005
1, 110400, Tempo, 1320713
1, 110720, Tempo, 1473116
1, 110880, Tempo, 1401542
1, 111200, Tempo, 1689665
1, 111360, Tempo, 1595745
1, 111520, Tempo, 1492537
1, 111680, Tempo, 1454545
1, 111840, Tempo, 1384402
1, 112000, Tempo, 1336005
1, 112320, Tempo, 1351656
1, 112640, Tempo, 1532176
1, 112800, Tempo, 1411765
1, 113120, Tempo, 1914486
1, 113280, Tempo, 1715266
1, 113440, Tempo, 1436438
1, 113600, Tempo, 1305767
1, 113760, Tempo, 1235839
1, 113920, Tempo, 1209190
1, 114080, Tempo, 1320713
1, 114240, Tempo, 1262626
1, 114720, Tempo, 1492537
1, 115040, Tempo, 1715266
1, 115200, Tempo, 1290878
1, 115280, Tempo, 1276867
1, 115340, Tempo, 1262626
1, 115400, Tempo, 1248959
1, 115480, Tempo, 1235839
1, 115540, Tempo, 1221996
1, 115600, Tempo, 1209190
1, 115660, Tempo, 1196649
1, 115680, Tempo, 1172333
1, 116160, Tempo, 1248959
1, 116640, Tempo, 1473116
1, 116960, Tempo, 1883830
1, 117120, Tempo, 1248959
1, 117180, Tempo, 1235839
1, 117220, Tempo, 1221996
1, 117280, Tempo, 1209190
1, 117320, Tempo, 1196649
1, 117360, Tempo, 1184366
1, 117420, Tempo, 1172333
1, 117460, Tempo, 1160542
1, 117520, Tempo, 1148985
1, 117560, Tempo, 1137656
1, 117600, Tempo, 1126549
1, 118080, Tempo, 1148985
1, 118560, Tempo, 1320713
1, 118880, Tempo, 1795870
1, 119040, Tempo, 1454545
1, 119200, Tempo, 1221996
1, 119280, Tempo, 1209190
1, 119340, Tempo, 1196649
1, 119400, Tempo, 1184366
1, 119460, Tempo, 1172333
1, 119520, Tempo, 1160542
1, 119580, Tempo, 1148985
1, 119640, Tempo, 1137656
1, 119680, Tempo, 1126549
1, 119840, Tempo, 1160542
1, 120320, Tempo, 1665279
1, 120480, Tempo, 1552795
1, 120640, Tempo, 1454545
1, 120800, Tempo, 1853568
1, 120960, Tempo, 1262626
1, 121120, Tempo, 1132075
1, 121440, Tempo, 1148985
1, 121600, Tempo, 1209190
1, 122240, Tempo, 1473116
1, 122400, Tempo, 1262626
1, 122560, Tempo, 1367677
1, 122720, Tempo, 1665279
1, 122880, Tempo, 1511716
1, 123040, Tempo, 1221996
1, 123360, Tempo, 1153846
1, 123520, Tempo, 1224490
1, 123680, Tempo, 1142857
1, 123840, Tempo, 1224490
1, 124000, Tempo, 1165049
1, 124160, Tempo, 1532176
1, 124320, Tempo, 1665279
1, 124640, Tempo, 2016129
1, 124800, Tempo, 1511716
1, 124960, Tempo, 1320713
1, 125120, Tempo, 1184366
1, 126080, Tempo, 1276867
1, 126560, Tempo, 1511716
1, 126720, Tempo, 1305767
1, 126880, Tempo, 1236603
1, 127040, Tempo, 1172333
1, 127200, Tempo, 1305767
1, 127800, Tempo, 1210654
1, 128040, Tempo, 1221996
1, 128160, Tempo, 1276867
1, 128320, Tempo, 1595745
1, 128480, Tempo, 2253944
1, 128640, Tempo, 1641138
1, 130552, Tempo, 2321981
1, 132000, Tempo, 1914486
1, 132000, End_track
2, 0, Start_track
2, 0, Title_t, "Piano right first"
2, 0, Program_c, 0, 0
2, 0, Control_c, 0, 7, 100
2, 0, Control_c, 0, 10, 64
2, 9120, Control_c, 0, 91, 127
2, 9120, Note_on_c, 0, 68, 56
2, 9480, Note_on_c, 0, 68, 0
2, 9480, Note_on_c, 0, 68, 50
2, 9600, Note_on_c, 0, 68, 0
2, 9600, Note_on_c, 0, 68, 50
2, 11040, Note_on_c, 0, 68, 0
2, 11040, Note_on_c, 0, 68, 56
2, 11400, Note_on_c, 0, 68, 0
2, 11400, Note_on_c, 0, 68, 53
2, 11520, Note_on_c, 0, 68, 0
2, 11520, Note_on_c, 0, 68, 53
2, 12480, Note_on_c, 0, 68, 0
2, 12480, Note_on_c, 0, 69, 56
2, 13440, Note_on_c, 0, 69, 0
2, 13440, Note_on_c, 0, 68, 56
2, 14400, Note_on_c, 0, 68, 0
2, 14400, Note_on_c, 0, 66, 53
2, 14880, Note_on_c, 0, 66, 0
2, 14880, Note_on_c, 0, 71, 50
2, 15360, Note_on_c, 0, 71, 0
2, 15360, Note_on_c, 0, 64, 47
2, 15670, Note_on_c, 0, 64, 0
2, 18720, Note_on_c, 0, 67, 46
2, 19080, Note_on_c, 0, 67, 0
2, 19080, Note_on_c, 0, 67, 45
2, 19200, Note_on_c, 0, 67, 0
2, 19200, Note_on_c, 0, 67, 45
2, 20640, Note_on_c, 0, 67, 0
2, 20640, Note_on_c, 0, 67, 50
2, 21000, Note_on_c, 0, 67, 0
2, 21000, Note_on_c, 0, 67, 50
2, 21120, Note_on_c, 0, 67, 0
2, 21120, Note_on_c, 0, 67, 57
2, 22560, Note_on_c, 0, 67, 0
2, 22560, Note_on_c, 0, 66, 56
2, 23040, Note_on_c, 0, 66, 0
2, 23040, Note_on_c, 0, 66, 65
2, 24000, Note_on_c, 0, 66, 0
2, 24000, Note_on_c, 0, 67, 56
2, 24480, Note_on_c, 0, 67, 0
2, 24480, Note_on_c, 0, 64, 47
2, 24960, Note_on_c, 0, 64, 0
2, 24960, Note_on_c, 0, 66, 53
2, 25920, Note_on_c, 0, 66, 0
2, 25920, Note_on_c, 0, 66, 47
2, 26880, Note_on_c, 0, 66, 0
2, 28320, Note_on_c, 0, 71, 56
2, 28800, Note_on_c, 0, 71, 0
2, 28800, Note_on_c, 0, 72, 63
2, 30240, Note_on_c, 0, 72, 0
2, 30240, Note_on_c, 0, 70, 56
2, 30720, Note_on_c, 0, 70, 0
2, 30720, Note_on_c, 0, 71, 56
2, 32160, Note_on_c, 0, 71, 0
2, 32160, Note_on_c, 0, 71, 56
2, 32640, Note_on_c, 0, 71, 0
2, 32640, Note_on_c, 0, 72, 63
2, 34080, Note_on_c, 0, 72, 0
2, 34080, Note_on_c, 0, 70, 56
2, 34560, Note_on_c, 0, 70, 0
2, 34560, Note_on_c, 0, 71, 56
2, 35520, Note_on_c, 0, 71, 0
2, 35520, Note_on_c, 0, 71, 47
2, 36480, Note_on_c, 0, 71, 0
2, 36480, Note_on_c, 0, 71, 47
2, 37440, Note_on_c, 0, 71, 0
2, 37440, Note_on_c, 0, 69, 52
2, 38400, Note_on_c, 0, 69, 0
2, 38400, Note_on_c, 0, 67, 56
2, 39360, Note_on_c, 0, 67, 0
2, 39360, Note_on_c, 0, 66, 52
2, 40320, Note_on_c, 0, 66, 0
2, 40320, Note_on_c, 0, 61, 47
2, 41280, Note_on_c, 0, 61, 0
2, 41280, Note_on_c, 0, 61, 47
2, 41760, Note_on_c, 0, 61, 0
2, 41760, Note_on_c, 0, 61, 41
2, 42240, Note_on_c, 0, 61, 0
2, 43680, Note_on_c, 0, 73, 56
2, 44040, Note_on_c, 0, 73, 0
2, 44040, Note_on_c, 0, 73, 56
2, 44160, Note_on_c, 0, 73, 0
2, 44160, Note_on_c, 0, 73, 61
2, 45600, Note_on_c, 0, 73, 0
2, 45600, Note_on_c, 0, 73, 56
2, 45960, Note_on_c, 0, 73, 0
2, 45960, Note_on_c, 0, 73, 56
2, 46080, Note_on_c, 0, 73, 0
2, 46080, Note_on_c, 0, 73, 65
2, 47040, Note_on_c, 0, 73, 0
2, 47040, Note_on_c, 0, 72, 61
2, 47520, Note_on_c, 0, 72, 0
2, 47520, Note_on_c, 0, 73, 63
2, 48000, Note_on_c, 0, 73, 0
2, 48000, Note_on_c, 0, 75, 65
2, 49440, Note_on_c, 0, 75, 0
2, 49440, Note_on_c, 0, 75, 72
2, 49920, Note_on_c, 0, 75, 0
2, 49920, Note_on_c, 0, 76, 86
2, 50880, Note_on_c, 0, 76, 0
2, 50880, Note_on_c, 0, 75, 65
2, 51360, Note_on_c, 0, 75, 0
2, 51360, Note_on_c, 0, 73, 56
2, 51840, Note_on_c, 0, 73, 0
2, 80160, Note_on_c, 0, 68, 56
2, 80520, Note_on_c, 0, 68, 0
2, 80520, Note_on_c, 0, 68, 56
2, 80640, Note_on_c, 0, 68, 0
2, 80640, Note_on_c, 0, 68, 56
2, 82080, Note_on_c, 0, 68, 0
2, 82080, Note_on_c, 0, 68, 56
2, 82440, Note_on_c, 0, 68, 0
2, 82440, Note_on_c, 0, 68, 56
2, 82560, Note_on_c, 0, 68, 0
2, 82560, Note_on_c, 0, 68, 56
2, 83520, Note_on_c, 0, 68, 0
2, 83520, Note_on_c, 0, 69, 56
2, 84480, Note_on_c, 0, 69, 0
2, 84480, Note_on_c, 0, 68, 56
2, 85440, Note_on_c, 0, 68, 0
2, 85440, Note_on_c, 0, 66, 56
2, 85920, Note_on_c, 0, 66, 0
2, 85920, Note_on_c, 0, 71, 56
2, 86400, Note_on_c, 0, 71, 0
2, 86400, Note_on_c, 0, 64, 56
2, 86710, Note_on_c, 0, 64, 0
2, 87840, Note_on_c, 0, 71, 61
2, 88200, Note_on_c, 0, 71, 0
2, 88200, Note_on_c, 0, 71, 56
2, 88320, Note_on_c, 0, 71, 0
2, 88320, Note_on_c, 0, 71, 61
2, 89760, Note_on_c, 0, 71, 0
2, 89760, Note_on_c, 0, 71, 63
2, 90120, Note_on_c, 0, 71, 0
2, 90120, Note_on_c, 0, 71, 56
2, 90240, Note_on_c, 0, 71, 0
2, 90240, Note_on_c, 0, 71, 63
2, 91200, Note_on_c, 0, 71, 0
2, 91200, Note_on_c, 0, 72, 65
2, 91680, Note_on_c, 0, 72, 0
2, 91680, Note_on_c, 0, 73, 72
2, 92160, Note_on_c, 0, 73, 0
2, 92160, Note_on_c, 0, 75, 75
2, 93120, Note_on_c, 0, 75, 0
2, 93120, Note_on_c, 0, 76, 56
2, 94080, Note_on_c, 0, 76, 0
2, 94080, Note_on_c, 0, 74, 56
2, 95040, Note_on_c, 0, 74, 0
2, 95040, Note_on_c, 0, 72, 56
2, 96000, Note_on_c, 0, 72, 0
2, 96000, Note_on_c, 0, 73, 56
2, 97440, Note_on_c, 0, 73, 0
2, 97440, Note_on_c, 0, 73, 56
2, 97920, Note_on_c, 0, 73, 0
2, 97920, Note_on_c, 0, 74, 71
2, 99360, Note_on_c, 0, 74, 0
2, 99360, Note_on_c, 0, 72, 56
2, 99840, Note_on_c, 0, 72, 0
2, 99840, Note_on_c, 0, 73, 56
2, 101280, Note_on_c, 0, 73, 0
2, 101280, Note_on_c, 0, 73, 56
2, 101760, Note_on_c, 0, 73, 0
2, 101760, Note_on_c, 0, 74, 68
2, 103200, Note_on_c, 0, 74, 0
2, 103200, Note_on_c, 0, 72, 56
2, 103680, Note_on_c, 0, 72, 0
2, 103680, Note_on_c, 0, 73, 61
2, 104640, Note_on_c, 0, 73, 0
2, 104640, Note_on_c, 0, 73, 56
2, 105600, Note_on_c, 0, 73, 0
2, 105600, Note_on_c, 0, 71, 56
2, 107040, Note_on_c, 0, 71, 0
2, 107040, Note_on_c, 0, 71, 56
2, 107520, Note_on_c, 0, 71, 0
2, 107520, Note_on_c, 0, 69, 56
2, 108000, Note_on_c, 0, 69, 0
2, 108000, Note_on_c, 0, 69, 56
2, 108480, Note_on_c, 0, 69, 0
2, 108480, Note_on_c, 0, 68, 56
2, 108960, Note_on_c, 0, 68, 0
2, 108960, Note_on_c, 0, 68, 56
2, 109440, Note_on_c, 0, 68, 0
2, 109440, Note_on_c, 0, 66, 56
2, 110400, Note_on_c, 0, 66, 0
2, 110400, Note_on_c, 0, 68, 67
2, 110880, Note_on_c, 0, 68, 0
2, 110880, Note_on_c, 0, 69, 77
2, 111360, Note_on_c, 0, 69, 0
2, 111360, Note_on_c, 0, 68, 56
2, 112320, Note_on_c, 0, 68, 0
2, 112320, Note_on_c, 0, 68, 47
2, 113280, Note_on_c, 0, 68, 0
2, 113280, Note_on_c, 0, 44, 53
2, 113280, Note_on_c, 0, 61, 41
2, 113760, Note_on_c, 0, 61, 0
2, 114720, Note_on_c, 0, 44, 0
2, 114720, Note_on_c, 0, 44, 53
2, 115080, Note_on_c, 0, 44, 0
2, 115080, Note_on_c, 0, 44, 53
2, 115200, Note_on_c, 0, 44, 0
2, 115200, Note_on_c, 0, 44, 53
2, 116640, Note_on_c, 0, 44, 0
2, 116640, Note_on_c, 0, 44, 53
2, 117000, Note_on_c, 0, 44, 0
2, 117000, Note_on_c, 0, 44, 53
2, 117120, Note_on_c, 0, 44, 0
2, 117120, Note_on_c, 0, 44, 53
2, 118560, Note_on_c, 0, 44, 0
2, 118560, Note_on_c, 0, 44, 53
2, 118920, Note_on_c, 0, 44, 0
2, 118920, Note_on_c, 0, 44, 60
2, 119040, Note_on_c, 0, 44, 0
2, 119040, Note_on_c, 0, 44, 63
2, 120480, Note_on_c, 0, 44, 0
2, 120480, Note_on_c, 0, 44, 62
2, 120840, Note_on_c, 0, 44, 0
2, 120840, Note_on_c, 0, 44, 60
2, 120960, Note_on_c, 0, 44, 0
2, 120960, Note_on_c, 0, 44, 53
2, 122400, Note_on_c, 0, 44, 0
2, 122400, Note_on_c, 0, 44, 53
2, 122760, Note_on_c, 0, 44, 0
2, 122760, Note_on_c, 0, 44, 56
2, 122880, Note_on_c, 0, 44, 0
2, 122880, Note_on_c, 0, 44, 63
2, 124320, Note_on_c, 0, 44, 0
2, 124320, Note_on_c, 0, 44, 61
2, 124680, Note_on_c, 0, 44, 0
2, 124680, Note_on_c, 0, 44, 53
2, 124800, Note_on_c, 0, 44, 0
2, 124800, Note_on_c, 0, 44, 53
2, 125760, Note_on_c, 0, 44, 0
2, 125760, Note_on_c, 0, 49, 53
2, 126720, Note_on_c, 0, 49, 0
2, 126720, Note_on_c, 0, 44, 50
2, 127675, Note_on_c, 0, 44, 0
2, 127675, End_track
3, 0, Start_track
3, 0, Title_t, "PIano right second"
3, 0, Program_c, 0, 0
3, 0, Control_c, 0, 7, 100
3, 0, Control_c, 0, 10, 64
3, 0, Control_c, 0, 91, 127
3, 0, Note_on_c, 0, 56, 33
3, 0, Control_c, 0, 91, 127
3, 0, Text_t, "bdca426d104a26ac9dcb070447587523"
3, 160, Note_on_c, 0, 56, 0
3, 160, Note_on_c, 0, 61, 26
3, 320, Note_on_c, 0, 61, 0
3, 320, Note_on_c, 0, 64, 26
3, 480, Note_on_c, 0, 64, 0
3, 480, Note_on_c, 0, 56, 33
3, 640, Note_on_c, 0, 56, 0
3, 640, Note_on_c, 0, 61, 26
3, 800, Note_on_c, 0, 61, 0
3, 800, Note_on_c, 0, 64, 26
3, 960, Note_on_c, 0, 64, 0
3, 960, Note_on_c, 0, 56, 32
3, 1120, Note_on_c, 0, 56, 0
3, 1120, Note_on_c, 0, 61, 26
3, 1280, Note_on_c, 0, 61, 0
3, 1280, Note_on_c, 0, 64, 26
3, 1440, Note_on_c, 0, 64, 0
3, 1440, Note_on_c, 0, 56, 35
3, 1600, Note_on_c, 0, 56, 0
3, 1600, Note_on_c, 0, 61, 26
3, 1760, Note_on_c, 0, 61, 0
3, 1760, Note_on_c, 0, 64, 26
3, 1920, Note_on_c, 0, 64, 0
3, 1920, Note_on_c, 0, 56, 33
3, 2080, Note_on_c, 0, 56, 0
3, 2080, Note_on_c, 0, 61, 26
3, 2240, Note_on_c, 0, 61, 0
3, 2240, Note_on_c, 0, 64, 23
3, 2400, Note_on_c, 0, 64, 0
3, 2400, Note_on_c, 0, 56, 30
3, 2560, Note_on_c, 0, 56, 0
3, 2560, Note_on_c, 0, 61, 26
3, 2720, Note_on_c, 0, 61, 0
3, 2720, Note_on_c, 0, 64, 23
3, 2880, Note_on_c, 0, 64, 0
3, 2880, Note_on_c, 0, 56, 33
3, 3040, Note_on_c, 0, 56, 0
3, 3040, Note_on_c, 0, 61, 26
3, 3200, Note_on_c, 0, 61, 0
3, 3200, Note_on_c, 0, 64, 23
3, 3360, Note_on_c, 0, 64, 0
3, 3360, Note_on_c, 0, 56, 32
3, 3520, Note_on_c, 0, 56, 0
3, 3520, Note_on_c, 0, 61, 26
3, 3680, Note_on_c, 0, 61, 0
3, 3680, Note_on_c, 0, 64, 23
3, 3840, Note_on_c, 0, 64, 0
3, 3840, Note_on_c, 0, 57, 45
3, 4000, Note_on_c, 0, 57, 0
3, 4000, Note_on_c, 0, 61, 38
3, 4160, Note_on_c, 0, 61, 0
3, 4160, Note_on_c, 0, 64, 38
3, 4320, Note_on_c, 0, 64, 0
3, 4320, Note_on_c, 0, 57, 35
3, 4480, Note_on_c, 0, 57, 0
3, 4480, Note_on_c, 0, 61, 32
3, 4640, Note_on_c, 0, 61, 0
3, 4640, Note_on_c, 0, 64, 32
3, 4800, Note_on_c, 0, 64, 0
3, 4800, Note_on_c, 0, 57, 41
3, 4960, Note_on_c, 0, 57, 0
3, 4960, Note_on_c, 0, 62, 33
3, 5120, Note_on_c, 0, 62, 0
3, 5120, Note_on_c, 0, 66, 28
3, 5280, Note_on_c, 0, 66, 0
3, 5280, Note_on_c, 0, 57, 38
3, 5440, Note_on_c, 0, 57, 0
3, 5440, Note_on_c, 0, 62, 33
3, 5600, Note_on_c, 0, 62, 0
3, 5600, Note_on_c, 0, 66, 30
3, 5760, Note_on_c, 0, 66, 0
3, 5760, Note_on_c, 0, 56, 38
3, 5920, Note_on_c, 0, 56, 0
3, 5920, Note_on_c, 0, 60, 31
3, 6080, Note_on_c, 0, 60, 0
3, 6080, Note_on_c, 0, 66, 31
3, 6240, Note_on_c, 0, 66, 0
3, 6240, Note_on_c, 0, 56, 35
3, 6400, Note_on_c, 0, 56, 0
3, 6400, Note_on_c, 0, 61, 30
3, 6560, Note_on_c, 0, 61, 0
3, 6560, Note_on_c, 0, 64, 30
3, 6720, Note_on_c, 0, 64, 0
3, 6720, Note_on_c, 0, 56, 35
3, 6880, Note_on_c, 0, 56, 0
3, 6880, Note_on_c, 0, 61, 27
3, 7040, Note_on_c, 0, 61, 0
3, 7040, Note_on_c, 0, 63, 25
3, 7200, Note_on_c, 0, 63, 0
3, 7200, Note_on_c, 0, 54, 35
3, 7360, Note_on_c, 0, 54, 0
3, 7360, Note_on_c, 0, 60, 30
3, 7520, Note_on_c, 0, 60, 0
3, 7520, Note_on_c, 0, 63, 30
3, 7680, Note_on_c, 0, 63, 0
3, 7680, Note_on_c, 0, 52, 32
3, 7840, Note_on_c, 0, 52, 0
3, 7840, Note_on_c, 0, 56, 26
3, 8000, Note_on_c, 0, 56, 0
3, 8000, Note_on_c, 0, 61, 26
3, 8160, Note_on_c, 0, 61, 0
3, 8160, Note_on_c, 0, 56, 32
3, 8320, Note_on_c, 0, 56, 0
3, 8320, Note_on_c, 0, 61, 26
3, 8480, Note_on_c, 0, 61, 0
3, 8480, Note_on_c, 0, 64, 26
3, 8640, Note_on_c, 0, 64, 0
3, 8640, Note_on_c, 0, 56, 31
3, 8800, Note_on_c, 0, 56, 0
3, 8800, Note_on_c, 0, 61, 25
3, 8960, Note_on_c, 0, 61, 0
3, 8960, Note_on_c, 0, 64, 25
3, 9120, Note_on_c, 0, 64, 0
3, 9120, Note_on_c, 0, 56, 31
3, 9280, Note_on_c, 0, 56, 0
3, 9280, Note_on_c, 0, 61, 25
3, 9440, Note_on_c, 0, 61, 0
3, 9440, Note_on_c, 0, 64, 22
3, 9600, Note_on_c, 0, 64, 0
3, 9600, Note_on_c, 0, 56, 31
3, 9760, Note_on_c, 0, 56, 0
3, 9760, Note_on_c, 0, 63, 26
3, 9920, Note_on_c, 0, 63, 0
3, 9920, Note_on_c, 0, 66, 23
3, 10080, Note_on_c, 0, 66, 0
3, 10080, Note_on_c, 0, 56, 31
3, 10240, Note_on_c, 0, 56, 0
3, 10240, Note_on_c, 0, 63, 26
3, 10400, Note_on_c, 0, 63, 0
3, 10400, Note_on_c, 0, 66, 25
3, 10560, Note_on_c, 0, 66, 0
3, 10560, Note_on_c, 0, 56, 31
3, 10720, Note_on_c, 0, 56, 0
3, 10720, Note_on_c, 0, 63, 26
3, 10880, Note_on_c, 0, 63, 0
3, 10880, Note_on_c, 0, 66, 25
3, 11040, Note_on_c, 0, 66, 0
3, 11040, Note_on_c, 0, 56, 31
3, 11200, Note_on_c, 0, 56, 0
3, 11200, Note_on_c, 0, 63, 25
3, 11360, Note_on_c, 0, 63, 0
3, 11360, Note_on_c, 0, 66, 23
3, 11520, Note_on_c, 0, 66, 0
3, 11520, Note_on_c, 0, 56, 31
3, 11680, Note_on_c, 0, 56, 0
3, 11680, Note_on_c, 0, 61, 26
3, 11840, Note_on_c, 0, 61, 0
3, 11840, Note_on_c, 0, 64, 25
3, 12000, Note_on_c, 0, 64, 0
3, 12000, Note_on_c, 0, 56, 31
3, 12160, Note_on_c, 0, 56, 0
3, 12160, Note_on_c, 0, 61, 26
3, 12320, Note_on_c, 0, 61, 0
3, 12320, Note_on_c, 0, 64, 23
3, 12480, Note_on_c, 0, 64, 0
3, 12480, Note_on_c, 0, 57, 31
3, 12640, Note_on_c, 0, 57, 0
3, 12640, Note_on_c, 0, 61, 25
3, 12800, Note_on_c, 0, 61, 0
3, 12800, Note_on_c, 0, 66, 25
3, 12960, Note_on_c, 0, 66, 0
3, 12960, Note_on_c, 0, 57, 27
3, 13120, Note_on_c, 0, 57, 0
3, 13120, Note_on_c, 0, 61, 25
3, 13280, Note_on_c, 0, 61, 0
3, 13280, Note_on_c, 0, 66, 25
3, 13440, Note_on_c, 0, 66, 0
3, 13440, Note_on_c, 0, 56, 33
3, 13600, Note_on_c, 0, 56, 0
3, 13600, Note_on_c, 0, 59, 23
3, 13760, Note_on_c, 0, 59, 0
3, 13760, Note_on_c, 0, 64, 23
3, 13920, Note_on_c, 0, 64, 0
3, 13920, Note_on_c, 0, 56, 33
3, 14080, Note_on_c, 0, 56, 0
3, 14080, Note_on_c, 0, 59, 26
3, 14240, Note_on_c, 0, 59, 0
3, 14240, Note_on_c, 0, 64, 26
3, 14400, Note_on_c, 0, 64, 0
3, 14400, Note_on_c, 0, 57, 33
3, 14560, Note_on_c, 0, 57, 0
3, 14560, Note_on_c, 0, 59, 27
3, 14720, Note_on_c, 0, 59, 0
3, 14720, Note_on_c, 0, 63, 25
3, 14880, Note_on_c, 0, 63, 0
3, 14880, Note_on_c, 0, 57, 30
3, 15040, Note_on_c, 0, 57, 0
3, 15040, Note_on_c, 0, 59, 26
3, 15200, Note_on_c, 0, 59, 0
3, 15200, Note_on_c, 0, 63, 27
3, 15360, Note_on_c, 0, 63, 0
3, 15360, Note_on_c, 0, 56, 33
3, 15520, Note_on_c, 0, 56, 0
3, 15520, Note_on_c, 0, 59, 26
3, 15680, Note_on_c, 0, 59, 0
3, 15680, Note_on_c, 0, 64, 26
3, 15840, Note_on_c, 0, 64, 0
3, 15840, Note_on_c, 0, 56, 27
3, 16000, Note_on_c, 0, 56, 0
3, 16000, Note_on_c, 0, 59, 26
3, 16160, Note_on_c, 0, 59, 0
3, 16160, Note_on_c, 0, 64, 26
3, 16320, Note_on_c, 0, 64, 0
3, 16320, Note_on_c, 0, 56, 27
3, 16480, Note_on_c, 0, 56, 0
3, 16480, Note_on_c, 0, 59, 26
3, 16640, Note_on_c, 0, 59, 0
3, 16640, Note_on_c, 0, 64, 23
3, 16800, Note_on_c, 0, 64, 0
3, 16800, Note_on_c, 0, 56, 27
3, 16960, Note_on_c, 0, 56, 0
3, 16960, Note_on_c, 0, 59, 26
3, 17120, Note_on_c, 0, 59, 0
3, 17120, Note_on_c, 0, 64, 23
3, 17280, Note_on_c, 0, 64, 0
3, 17280, Note_on_c, 0, 55, 32
3, 17440, Note_on_c, 0, 55, 0
3, 17440, Note_on_c, 0, 59, 25
3, 17600, Note_on_c, 0, 59, 0
3, 17600, Note_on_c, 0, 64, 23
3, 17760, Note_on_c, 0, 64, 0
3, 17760, Note_on_c, 0, 55, 27
3, 17920, Note_on_c, 0, 55, 0
3, 17920, Note_on_c, 0, 59, 26
3, 18080, Note_on_c, 0, 59, 0
3, 18080, Note_on_c, 0, 64, 23
3, 18240, Note_on_c, 0, 64, 0
3, 18240, Note_on_c, 0, 55, 27
3, 18400, Note_on_c, 0, 55, 0
3, 18400, Note_on_c, 0, 59, 26
3, 18560, Note_on_c, 0, 59, 0
3, 18560, Note_on_c, 0, 64, 22
3, 18720, Note_on_c, 0, 64, 0
3, 18720, Note_on_c, 0, 55, 26
3, 18880, Note_on_c, 0, 55, 0
3, 18880, Note_on_c, 0, 59, 25
3, 19040, Note_on_c, 0, 59, 0
3, 19040, Note_on_c, 0, 64, 21
3, 19200, Note_on_c, 0, 64, 0
3, 19200, Note_on_c, 0, 55, 32
3, 19360, Note_on_c, 0, 55, 0
3, 19360, Note_on_c, 0, 59, 26
3, 19520, Note_on_c, 0, 59, 0
3, 19520, Note_on_c, 0, 65, 26
3, 19680, Note_on_c, 0, 65, 0
3, 19680, Note_on_c, 0, 55, 32
3, 19840, Note_on_c, 0, 55, 0
3, 19840, Note_on_c, 0, 59, 27
3, 20000, Note_on_c, 0, 59, 0
3, 20000, Note_on_c, 0, 65, 25
3, 20160, Note_on_c, 0, 65, 0
3, 20160, Note_on_c, 0, 55, 31
3, 20320, Note_on_c, 0, 55, 0
3, 20320, Note_on_c, 0, 59, 27
3, 20480, Note_on_c, 0, 59, 0
3, 20480, Note_on_c, 0, 65, 25
3, 20640, Note_on_c, 0, 65, 0
3, 20640, Note_on_c, 0, 55, 30
3, 20800, Note_on_c, 0, 55, 0
3, 20800, Note_on_c, 0, 59, 25
3, 20960, Note_on_c, 0, 59, 0
3, 20960, Note_on_c, 0, 65, 22
3, 21120, Note_on_c, 0, 65, 0
3, 21120, Note_on_c, 0, 55, 33
3, 21280, Note_on_c, 0, 55, 0
3, 21280, Note_on_c, 0, 60, 27
3, 21440, Note_on_c, 0, 60, 0
3, 21440, Note_on_c, 0, 64, 27
3, 21600, Note_on_c, 0, 64, 0
3, 21600, Note_on_c, 0, 55, 40
3, 21760, Note_on_c, 0, 55, 0
3, 21760, Note_on_c, 0, 59, 33
3, 21920, Note_on_c, 0, 59, 0
3, 21920, Note_on_c, 0, 64, 33
3, 22080, Note_on_c, 0, 64, 0
3, 22080, Note_on_c, 0, 55, 38
3, 22240, Note_on_c, 0, 55, 0
3, 22240, Note_on_c, 0, 61, 42
3, 22400, Note_on_c, 0, 61, 0
3, 22400, Note_on_c, 0, 64, 47
3, 22560, Note_on_c, 0, 64, 0
3, 22560, Note_on_c, 0, 54, 41
3, 22720, Note_on_c, 0, 54, 0
3, 22720, Note_on_c, 0, 61, 35
3, 22880, Note_on_c, 0, 61, 0
3, 22880, Note_on_c, 0, 64, 27
3, 23040, Note_on_c, 0, 64, 0
3, 23040, Note_on_c, 0, 54, 38
3, 23200, Note_on_c, 0, 54, 0
3, 23200, Note_on_c, 0, 59, 32
3, 23360, Note_on_c, 0, 59, 0
3, 23360, Note_on_c, 0, 62, 27
3, 23520, Note_on_c, 0, 62, 0
3, 23520, Note_on_c, 0, 54, 33
3, 23680, Note_on_c, 0, 54, 0
3, 23680, Note_on_c, 0, 59, 27
3, 23840, Note_on_c, 0, 59, 0
3, 23840, Note_on_c, 0, 62, 27
3, 24000, Note_on_c, 0, 62, 0
3, 24000, Note_on_c, 0, 55, 35
3, 24160, Note_on_c, 0, 55, 0
3, 24160, Note_on_c, 0, 59, 27
3, 24320, Note_on_c, 0, 59, 0
3, 24320, Note_on_c, 0, 61, 27
3, 24480, Note_on_c, 0, 61, 0
3, 24480, Note_on_c, 0, 52, 35
3, 24640, Note_on_c, 0, 52, 0
3, 24640, Note_on_c, 0, 59, 27
3, 24800, Note_on_c, 0, 59, 0
3, 24800, Note_on_c, 0, 61, 23
3, 24960, Note_on_c, 0, 61, 0
3, 24960, Note_on_c, 0, 54, 41
3, 25120, Note_on_c, 0, 54, 0
3, 25120, Note_on_c, 0, 59, 35
3, 25280, Note_on_c, 0, 59, 0
3, 25280, Note_on_c, 0, 62, 32
3, 25440, Note_on_c, 0, 62, 0
3, 25440, Note_on_c, 0, 54, 38
3, 25600, Note_on_c, 0, 54, 0
3, 25600, Note_on_c, 0, 59, 31
3, 25760, Note_on_c, 0, 59, 0
3, 25760, Note_on_c, 0, 62, 28
3, 25920, Note_on_c, 0, 62, 0
3, 25920, Note_on_c, 0, 54, 31
3, 26080, Note_on_c, 0, 54, 0
3, 26080, Note_on_c, 0, 58, 26
3, 26240, Note_on_c, 0, 58, 0
3, 26240, Note_on_c, 0, 61, 23
3, 26400, Note_on_c, 0, 61, 0
3, 26400, Note_on_c, 0, 54, 31
3, 26560, Note_on_c, 0, 54, 0
3, 26560, Note_on_c, 0, 58, 26
3, 26720, Note_on_c, 0, 58, 0
3, 26720, Note_on_c, 0, 61, 23
3, 26880, Note_on_c, 0, 61, 0
3, 26880, Note_on_c, 0, 59, 32
3, 27040, Note_on_c, 0, 59, 0
3, 27040, Note_on_c, 0, 62, 27
3, 27200, Note_on_c, 0, 62, 0
3, 27200, Note_on_c, 0, 66, 25
3, 27360, Note_on_c, 0, 66, 0
3, 27360, Note_on_c, 0, 59, 27
3, 27520, Note_on_c, 0, 59, 0
3, 27520, Note_on_c, 0, 62, 26
3, 27680, Note_on_c, 0, 62, 0
3, 27680, Note_on_c, 0, 66, 26
3, 27840, Note_on_c, 0, 66, 0
3, 27840, Note_on_c, 0, 59, 41
3, 28000, Note_on_c, 0, 59, 0
3, 28000, Note_on_c, 0, 63, 38
3, 28160, Note_on_c, 0, 63, 0
3, 28160, Note_on_c, 0, 66, 38
3, 28320, Note_on_c, 0, 66, 0
3, 28320, Note_on_c, 0, 59, 41
3, 28480, Note_on_c, 0, 59, 0
3, 28480, Note_on_c, 0, 63, 38
3, 28640, Note_on_c, 0, 63, 0
3, 28640, Note_on_c, 0, 66, 35
3, 28800, Note_on_c, 0, 66, 0
3, 28800, Note_on_c, 0, 59, 41
3, 28960, Note_on_c, 0, 59, 0
3, 28960, Note_on_c, 0, 64, 41
3, 29120, Note_on_c, 0, 64, 0
3, 29120, Note_on_c, 0, 67, 45
3, 29280, Note_on_c, 0, 67, 0
3, 29280, Note_on_c, 0, 59, 47
3, 29440, Note_on_c, 0, 59, 0
3, 29440, Note_on_c, 0, 64, 53
3, 29600, Note_on_c, 0, 64, 0
3, 29600, Note_on_c, 0, 67, 56
3, 29760, Note_on_c, 0, 67, 0
3, 29760, Note_on_c, 0, 59, 61
3, 29920, Note_on_c, 0, 59, 0
3, 29920, Note_on_c, 0, 64, 60
3, 30080, Note_on_c, 0, 64, 0
3, 30080, Note_on_c, 0, 67, 56
3, 30240, Note_on_c, 0, 67, 0
3, 30240, Note_on_c, 0, 59, 52
3, 30400, Note_on_c, 0, 59, 0
3, 30400, Note_on_c, 0, 64, 46
3, 30560, Note_on_c, 0, 64, 0
3, 30560, Note_on_c, 0, 67, 31
3, 30720, Note_on_c, 0, 67, 0
3, 30720, Note_on_c, 0, 59, 37
3, 30880, Note_on_c, 0, 59, 0
3, 30880, Note_on_c, 0, 63, 35
3, 31040, Note_on_c, 0, 63, 0
3, 31040, Note_on_c, 0, 66, 35
3, 31200, Note_on_c, 0, 66, 0
3, 31200, Note_on_c, 0, 59, 40
3, 31360, Note_on_c, 0, 59, 0
3, 31360, Note_on_c, 0, 63, 35
3, 31520, Note_on_c, 0, 63, 0
3, 31520, Note_on_c, 0, 66, 35
3, 31680, Note_on_c, 0, 66, 0
3, 31680, Note_on_c, 0, 59, 41
3, 31840, Note_on_c, 0, 59, 0
3, 31840, Note_on_c, 0, 63, 37
3, 32000, Note_on_c, 0, 63, 0
3, 32000, Note_on_c, 0, 66, 33
3, 32160, Note_on_c, 0, 66, 0
3, 32160, Note_on_c, 0, 59, 41
3, 32320, Note_on_c, 0, 59, 0
3, 32320, Note_on_c, 0, 63, 37
3, 32480, Note_on_c, 0, 63, 0
3, 32480, Note_on_c, 0, 66, 37
3, 32640, Note_on_c, 0, 66, 0
3, 32640, Note_on_c, 0, 59, 41
3, 32800, Note_on_c, 0, 59, 0
3, 32800, Note_on_c, 0, 64, 45
3, 32960, Note_on_c, 0, 64, 0
3, 32960, Note_on_c, 0, 67, 52
3, 33120, Note_on_c, 0, 67, 0
3, 33120, Note_on_c, 0, 59, 55
3, 33280, Note_on_c, 0, 59, 0
3, 33280, Note_on_c, 0, 64, 56
3, 33440, Note_on_c, 0, 64, 0
3, 33440, Note_on_c, 0, 67, 57
3, 33600, Note_on_c, 0, 67, 0
3, 33600, Note_on_c, 0, 59, 60
3, 33760, Note_on_c, 0, 59, 0
3, 33760, Note_on_c, 0, 64, 60
3, 33920, Note_on_c, 0, 64, 0
3, 33920, Note_on_c, 0, 67, 56
3, 34080, Note_on_c, 0, 67, 0
3, 34080, Note_on_c, 0, 59, 52
3, 34240, Note_on_c, 0, 59, 0
3, 34240, Note_on_c, 0, 64, 41
3, 34400, Note_on_c, 0, 64, 0
3, 34400, Note_on_c, 0, 67, 35
3, 34560, Note_on_c, 0, 67, 0
3, 34560, Note_on_c, 0, 59, 41
3, 34720, Note_on_c, 0, 59, 0
3, 34720, Note_on_c, 0, 63, 35
3, 34880, Note_on_c, 0, 63, 0
3, 34880, Note_on_c, 0, 66, 33
3, 35040, Note_on_c, 0, 66, 0
3, 35040, Note_on_c, 0, 59, 35
3, 35200, Note_on_c, 0, 59, 0
3, 35200, Note_on_c, 0, 63, 30
3, 35360, Note_on_c, 0, 63, 0
3, 35360, Note_on_c, 0, 66, 30
3, 35520, Note_on_c, 0, 66, 0
3, 35520, Note_on_c, 0, 59, 35
3, 35680, Note_on_c, 0, 59, 0
3, 35680, Note_on_c, 0, 62, 27
3, 35840, Note_on_c, 0, 62, 0
3, 35840, Note_on_c, 0, 65, 27
3, 36000, Note_on_c, 0, 65, 0
3, 36000, Note_on_c, 0, 59, 30
3, 36160, Note_on_c, 0, 59, 0
3, 36160, Note_on_c, 0, 62, 25
3, 36320, Note_on_c, 0, 62, 0
3, 36320, Note_on_c, 0, 65, 25
3, 36480, Note_on_c, 0, 65, 0
3, 36480, Note_on_c, 0, 59, 30
3, 36640, Note_on_c, 0, 59, 0
3, 36640, Note_on_c, 0, 61, 27
3, 36800, Note_on_c, 0, 61, 0
3, 36800, Note_on_c, 0, 68, 25
3, 36960, Note_on_c, 0, 68, 0
3, 36960, Note_on_c, 0, 59, 30
3, 37120, Note_on_c, 0, 59, 0
3, 37120, Note_on_c, 0, 61, 26
3, 37280, Note_on_c, 0, 61, 0
3, 37280, Note_on_c, 0, 68, 26
3, 37440, Note_on_c, 0, 68, 0
3, 37440, Note_on_c, 0, 57, 30
3, 37600, Note_on_c, 0, 57, 0
3, 37600, Note_on_c, 0, 61, 26
3, 37760, Note_on_c, 0, 61, 0
3, 37760, Note_on_c, 0, 66, 26
3, 37920, Note_on_c, 0, 66, 0
3, 37920, Note_on_c, 0, 57, 35
3, 38080, Note_on_c, 0, 57, 0
3, 38080, Note_on_c, 0, 61, 31
3, 38240, Note_on_c, 0, 61, 0
3, 38240, Note_on_c, 0, 66, 31
3, 38400, Note_on_c, 0, 66, 0
3, 38400, Note_on_c, 0, 55, 41
3, 38560, Note_on_c, 0, 55, 0
3, 38560, Note_on_c, 0, 59, 38
3, 38720, Note_on_c, 0, 59, 0
3, 38720, Note_on_c, 0, 62, 38
3, 38880, Note_on_c, 0, 62, 0
3, 38880, Note_on_c, 0, 55, 41
3, 39040, Note_on_c, 0, 55, 0
3, 39040, Note_on_c, 0, 59, 38
3, 39200, Note_on_c, 0, 59, 0
3, 39200, Note_on_c, 0, 62, 38
3, 39360, Note_on_c, 0, 62, 0
3, 39360, Note_on_c, 0, 54, 41
3, 39520, Note_on_c, 0, 54, 0
3, 39520, Note_on_c, 0, 57, 38
3, 39680, Note_on_c, 0, 57, 0
3, 39680, Note_on_c, 0, 63, 38
3, 39840, Note_on_c, 0, 63, 0
3, 39840, Note_on_c, 0, 54, 35
3, 40000, Note_on_c, 0, 54, 0
3, 40000, Note_on_c, 0, 57, 31
3, 40160, Note_on_c, 0, 57, 0
3, 40160, Note_on_c, 0, 63, 26
3, 40320, Note_on_c, 0, 63, 0
3, 40320, Note_on_c, 0, 49, 30
3, 40480, Note_on_c, 0, 49, 0
3, 40480, Note_on_c, 0, 54, 27
3, 40640, Note_on_c, 0, 54, 0
3, 40640, Note_on_c, 0, 57, 27
3, 40800, Note_on_c, 0, 57, 0
3, 40800, Note_on_c, 0, 49, 30
3, 40960, Note_on_c, 0, 49, 0
3, 40960, Note_on_c, 0, 54, 27
3, 41120, Note_on_c, 0, 54, 0
3, 41120, Note_on_c, 0, 57, 27
3, 41280, Note_on_c, 0, 57, 0
3, 41280, Note_on_c, 0, 49, 30
3, 41440, Note_on_c, 0, 49, 0
3, 41440, Note_on_c, 0, 54, 26
3, 41600, Note_on_c, 0, 54, 0
3, 41600, Note_on_c, 0, 56, 26
3, 41760, Note_on_c, 0, 56, 0
3, 41760, Note_on_c, 0, 49, 30
3, 41920, Note_on_c, 0, 49, 0
3, 41920, Note_on_c, 0, 53, 26
3, 42080, Note_on_c, 0, 53, 0
3, 42080, Note_on_c, 0, 56, 22
3, 42240, Note_on_c, 0, 56, 0
3, 42240, Note_on_c, 0, 54, 32
3, 42400, Note_on_c, 0, 54, 0
3, 42400, Note_on_c, 0, 57, 26
3, 42560, Note_on_c, 0, 57, 0
3, 42560, Note_on_c, 0, 61, 26
3, 42720, Note_on_c, 0, 61, 0
3, 42720, Note_on_c, 0, 57, 30
3, 42880, Note_on_c, 0, 57, 0
3, 42880, Note_on_c, 0, 61, 26
3, 43040, Note_on_c, 0, 61, 0
3, 43040, Note_on_c, 0, 66, 26
3, 43200, Note_on_c, 0, 66, 0
3, 43200, Note_on_c, 0, 61, 30
3, 43360, Note_on_c, 0, 61, 0
3, 43360, Note_on_c, 0, 66, 26
3, 43520, Note_on_c, 0, 66, 0
3, 43520, Note_on_c, 0, 69, 26
3, 43680, Note_on_c, 0, 69, 0
3, 43680, Note_on_c, 0, 61, 41
3, 43840, Note_on_c, 0, 61, 0
3, 43840, Note_on_c, 0, 66, 33
3, 44000, Note_on_c, 0, 66, 0
3, 44000, Note_on_c, 0, 69, 26
3, 44160, Note_on_c, 0, 69, 0
3, 44160, Note_on_c, 0, 61, 37
3, 44320, Note_on_c, 0, 61, 0
3, 44320, Note_on_c, 0, 68, 32
3, 44480, Note_on_c, 0, 68, 0
3, 44480, Note_on_c, 0, 71, 32
3, 44640, Note_on_c, 0, 71, 0
3, 44640, Note_on_c, 0, 61, 41
3, 44800, Note_on_c, 0, 61, 0
3, 44800, Note_on_c, 0, 68, 35
3, 44960, Note_on_c, 0, 68, 0
3, 44960, Note_on_c, 0, 71, 35
3, 45120, Note_on_c, 0, 71, 0
3, 45120, Note_on_c, 0, 61, 41
3, 45280, Note_on_c, 0, 61, 0
3, 45280, Note_on_c, 0, 68, 35
3, 45440, Note_on_c, 0, 68, 0
3, 45440, Note_on_c, 0, 71, 35
3, 45600, Note_on_c, 0, 71, 0
3, 45600, Note_on_c, 0, 61, 41
3, 45760, Note_on_c, 0, 61, 0
3, 45760, Note_on_c, 0, 68, 35
3, 45920, Note_on_c, 0, 68, 0
3, 45920, Note_on_c, 0, 71, 35
3, 46080, Note_on_c, 0, 71, 0
3, 46080, Note_on_c, 0, 61, 41
3, 46240, Note_on_c, 0, 61, 0
3, 46240, Note_on_c, 0, 66, 38
3, 46400, Note_on_c, 0, 66, 0
3, 46400, Note_on_c, 0, 69, 38
3, 46560, Note_on_c, 0, 69, 0
3, 46560, Note_on_c, 0, 61, 41
3, 46720, Note_on_c, 0, 61, 0
3, 46720, Note_on_c, 0, 66, 42
3, 46880, Note_on_c, 0, 66, 0
3, 46880, Note_on_c, 0, 69, 45
3, 47040, Note_on_c, 0, 69, 0
3, 47040, Note_on_c, 0, 60, 46
3, 47200, Note_on_c, 0, 60, 0
3, 47200, Note_on_c, 0, 66, 42
3, 47360, Note_on_c, 0, 66, 0
3, 47360, Note_on_c, 0, 69, 41
3, 47520, Note_on_c, 0, 69, 0
3, 47520, Note_on_c, 0, 61, 47
3, 47680, Note_on_c, 0, 61, 0
3, 47680, Note_on_c, 0, 66, 42
3, 47840, Note_on_c, 0, 66, 0
3, 47840, Note_on_c, 0, 69, 42
3, 48000, Note_on_c, 0, 69, 0
3, 48000, Note_on_c, 0, 63, 52
3, 48160, Note_on_c, 0, 63, 0
3, 48160, Note_on_c, 0, 66, 50
3, 48320, Note_on_c, 0, 66, 0
3, 48320, Note_on_c, 0, 68, 48
3, 48480, Note_on_c, 0, 68, 0
3, 48480, Note_on_c, 0, 63, 53
3, 48640, Note_on_c, 0, 63, 0
3, 48640, Note_on_c, 0, 66, 50
3, 48800, Note_on_c, 0, 66, 0
3, 48800, Note_on_c, 0, 68, 50
3, 48960, Note_on_c, 0, 68, 0
3, 48960, Note_on_c, 0, 63, 56
3, 49120, Note_on_c, 0, 63, 0
3, 49120, Note_on_c, 0, 66, 52
3, 49280, Note_on_c, 0, 66, 0
3, 49280, Note_on_c, 0, 68, 52
3, 49440, Note_on_c, 0, 68, 0
3, 49440, Note_on_c, 0, 63, 57
3, 49600, Note_on_c, 0, 63, 0
3, 49600, Note_on_c, 0, 66, 56
3, 49760, Note_on_c, 0, 66, 0
3, 49760, Note_on_c, 0, 68, 56
3, 49920, Note_on_c, 0, 68, 0
3, 49920, Note_on_c, 0, 64, 61
3, 50080, Note_on_c, 0, 64, 0
3, 50080, Note_on_c, 0, 68, 57
3, 50240, Note_on_c, 0, 68, 0
3, 50240, Note_on_c, 0, 73, 55
3, 50400, Note_on_c, 0, 73, 0
3, 50400, Note_on_c, 0, 64, 52
3, 50560, Note_on_c, 0, 64, 0
3, 50560, Note_on_c, 0, 68, 48
3, 50720, Note_on_c, 0, 68, 0
3, 50720, Note_on_c, 0, 73, 48
3, 50880, Note_on_c, 0, 73, 0
3, 50880, Note_on_c, 0, 63, 45
3, 51040, Note_on_c, 0, 63, 0
3, 51040, Note_on_c, 0, 66, 41
3, 51200, Note_on_c, 0, 66, 0
3, 51200, Note_on_c, 0, 69, 41
3, 51360, Note_on_c, 0, 69, 0
3, 51360, Note_on_c, 0, 61, 40
3, 51520, Note_on_c, 0, 61, 0
3, 51520, Note_on_c, 0, 64, 38
3, 51680, Note_on_c, 0, 64, 0
3, 51680, Note_on_c, 0, 70, 33
3, 51840, Note_on_c, 0, 70, 0
3, 51840, Note_on_c, 0, 72, 52
3, 52000, Note_on_c, 0, 72, 0
3, 52000, Note_on_c, 0, 60, 52
3, 52160, Note_on_c, 0, 60, 0
3, 52160, Note_on_c, 0, 63, 52
3, 52320, Note_on_c, 0, 63, 0
3, 52320, Note_on_c, 0, 68, 65
3, 52480, Note_on_c, 0, 60, 52
3, 52640, Note_on_c, 0, 60, 0
3, 52640, Note_on_c, 0, 63, 53
3, 52800, Note_on_c, 0, 63, 0
3, 52800, Note_on_c, 0, 68, 0
3, 52800, Note_on_c, 0, 69, 77
3, 52960, Note_on_c, 0, 60, 52
3, 53120, Note_on_c, 0, 60, 0
3, 53120, Note_on_c, 0, 63, 52
3, 53280, Note_on_c, 0, 63, 0
3, 53280, Note_on_c, 0, 69, 0
3, 53280, Note_on_c, 0, 66, 65
3, 53440, Note_on_c, 0, 60, 52
3, 53600, Note_on_c, 0, 60, 0
3, 53600, Note_on_c, 0, 63, 53
3, 53760, Note_on_c, 0, 63, 0
3, 53760, Note_on_c, 0, 66, 0
3, 53920, Note_on_c, 0, 60, 52
3, 54080, Note_on_c, 0, 60, 0
3, 54080, Note_on_c, 0, 63, 52
3, 54240, Note_on_c, 0, 63, 0
3, 54240, Note_on_c, 0, 56, 65
3, 54400, Note_on_c, 0, 60, 53
3, 54560, Note_on_c, 0, 60, 0
3, 54560, Note_on_c, 0, 63, 53
3, 54720, Note_on_c, 0, 63, 0
3, 54720, Note_on_c, 0, 56, 0
3, 54720, Note_on_c, 0, 57, 76
3, 54880, Note_on_c, 0, 60, 53
3, 55040, Note_on_c, 0, 60, 0
3, 55040, Note_on_c, 0, 63, 53
3, 55200, Note_on_c, 0, 63, 0
3, 55200, Note_on_c, 0, 57, 0
3, 55200, Note_on_c, 0, 54, 60
3, 55360, Note_on_c, 0, 60, 52
3, 55520, Note_on_c, 0, 60, 0
3, 55520, Note_on_c, 0, 63, 46
3, 55680, Note_on_c, 0, 63, 0
3, 55680, Note_on_c, 0, 54, 0
3, 55680, Note_on_c, 0, 52, 52
3, 55840, Note_on_c, 0, 52, 0
3, 55840, Note_on_c, 0, 64, 52
3, 56000, Note_on_c, 0, 64, 0
3, 56000, Note_on_c, 0, 68, 52
3, 56160, Note_on_c, 0, 68, 0
3, 56160, Note_on_c, 0, 73, 65
3, 56320, Note_on_c, 0, 64, 52
3, 56480, Note_on_c, 0, 64, 0
3, 56480, Note_on_c, 0, 68, 47
3, 56640, Note_on_c, 0, 68, 0
3, 56640, Note_on_c, 0, 73, 0
3, 56640, Note_on_c, 0, 76, 76
3, 56800, Note_on_c, 0, 64, 65
3, 56960, Note_on_c, 0, 64, 0
3, 56960, Note_on_c, 0, 68, 65
3, 57120, Note_on_c, 0, 68, 0
3, 57120, Note_on_c, 0, 76, 0
3, 57120, Note_on_c, 0, 73, 65
3, 57280, Note_on_c, 0, 64, 53
3, 57440, Note_on_c, 0, 64, 0
3, 57440, Note_on_c, 0, 68, 50
3, 57600, Note_on_c, 0, 68, 0
3, 57600, Note_on_c, 0, 73, 0
3, 57760, Note_on_c, 0, 52, 52
3, 57920, Note_on_c, 0, 52, 0
3, 57920, Note_on_c, 0, 56, 52
3, 58080, Note_on_c, 0, 56, 0
3, 58080, Note_on_c, 0, 61, 61
3, 58240, Note_on_c, 0, 52, 52
3, 58400, Note_on_c, 0, 52, 0
3, 58400, Note_on_c, 0, 56, 52
3, 58560, Note_on_c, 0, 56, 0
3, 58560, Note_on_c, 0, 61, 0
3, 58560, Note_on_c, 0, 64, 75
3, 58720, Note_on_c, 0, 52, 48
3, 58880, Note_on_c, 0, 52, 0
3, 58880, Note_on_c, 0, 56, 48
3, 59040, Note_on_c, 0, 56, 0
3, 59040, Note_on_c, 0, 64, 0
3, 59040, Note_on_c, 0, 61, 65
3, 59200, Note_on_c, 0, 52, 53
3, 59360, Note_on_c, 0, 52, 0
3, 59360, Note_on_c, 0, 56, 50
3, 59520, Note_on_c, 0, 56, 0
3, 59520, Note_on_c, 0, 61, 0
3, 59520, Note_on_c, 0, 51, 65
3, 59680, Note_on_c, 0, 51, 0
3, 59680, Note_on_c, 0, 57, 52
3, 59840, Note_on_c, 0, 57, 0
3, 59840, Note_on_c, 0, 54, 52
3, 60000, Note_on_c, 0, 54, 0
3, 60000, Note_on_c, 0, 60, 53
3, 60160, Note_on_c, 0, 60, 0
3, 60160, Note_on_c, 0, 57, 52
3, 60320, Note_on_c, 0, 57, 0
3, 60320, Note_on_c, 0, 63, 52
3, 60480, Note_on_c, 0, 63, 0
3, 60480, Note_on_c, 0, 60, 52
3, 60640, Note_on_c, 0, 60, 0
3, 60640, Note_on_c, 0, 66, 52
3, 60800, Note_on_c, 0, 66, 0
3, 60800, Note_on_c, 0, 63, 52
3, 60960, Note_on_c, 0, 63, 0
3, 60960, Note_on_c, 0, 69, 52
3, 61120, Note_on_c, 0, 69, 0
3, 61120, Note_on_c, 0, 66, 52
3, 61280, Note_on_c, 0, 66, 0
3, 61280, Note_on_c, 0, 72, 52
3, 61440, Note_on_c, 0, 72, 0
3, 61440, Note_on_c, 0, 52, 65
3, 61600, Note_on_c, 0, 52, 0
3, 61600, Note_on_c, 0, 61, 52
3, 61760, Note_on_c, 0, 61, 0
3, 61760, Note_on_c, 0, 56, 52
3, 61920, Note_on_c, 0, 56, 0
3, 61920, Note_on_c, 0, 64, 48
3, 62080, Note_on_c, 0, 64, 0
3, 62080, Note_on_c, 0, 61, 52
3, 62240, Note_on_c, 0, 61, 0
3, 62240, Note_on_c, 0, 68, 52
3, 62400, Note_on_c, 0, 68, 0
3, 62400, Note_on_c, 0, 64, 53
3, 62560, Note_on_c, 0, 64, 0
3, 62560, Note_on_c, 0, 73, 52
3, 62720, Note_on_c, 0, 73, 0
3, 62720, Note_on_c, 0, 68, 52
3, 62880, Note_on_c, 0, 68, 0
3, 62880, Note_on_c, 0, 76, 53
3, 63040, Note_on_c, 0, 76, 0
3, 63040, Note_on_c, 0, 73, 52
3, 63200, Note_on_c, 0, 73, 0
3, 63200, Note_on_c, 0, 68, 52
3, 63360, Note_on_c, 0, 68, 0
3, 63360, Note_on_c, 0, 61, 65
3, 63520, Note_on_c, 0, 61, 0
3, 63520, Note_on_c, 0, 67, 55
3, 63680, Note_on_c, 0, 67, 0
3, 63680, Note_on_c, 0, 64, 55
3, 63840, Note_on_c, 0, 64, 0
3, 63840, Note_on_c, 0, 70, 56
3, 64000, Note_on_c, 0, 70, 0
3, 64000, Note_on_c, 0, 67, 56
3, 64160, Note_on_c, 0, 67, 0
3, 64160, Note_on_c, 0, 73, 62
3, 64320, Note_on_c, 0, 73, 0
3, 64320, Note_on_c, 0, 70, 62
3, 64480, Note_on_c, 0, 70, 0
3, 64480, Note_on_c, 0, 76, 68
3, 64640, Note_on_c, 0, 76, 0
3, 64640, Note_on_c, 0, 73, 67
3, 64800, Note_on_c, 0, 73, 0
3, 64800, Note_on_c, 0, 79, 71
3, 64960, Note_on_c, 0, 79, 0
3, 64960, Note_on_c, 0, 76, 68
3, 65120, Note_on_c, 0, 76, 0
3, 65120, Note_on_c, 0, 82, 68
3, 65280, Note_on_c, 0, 82, 0
3, 65280, Note_on_c, 0, 66, 76
3, 65440, Note_on_c, 0, 66, 0
3, 65440, Note_on_c, 0, 72, 72
3, 65600, Note_on_c, 0, 72, 0
3, 65600, Note_on_c, 0, 69, 70
3, 65760, Note_on_c, 0, 69, 0
3, 65760, Note_on_c, 0, 75, 78
3, 65920, Note_on_c, 0, 75, 0
3, 65920, Note_on_c, 0, 72, 76
3, 66080, Note_on_c, 0, 72, 0
3, 66080, Note_on_c, 0, 78, 82
3, 66240, Note_on_c, 0, 78, 0
3, 66240, Note_on_c, 0, 75, 80
3, 66400, Note_on_c, 0, 75, 0
3, 66400, Note_on_c, 0, 81, 83
3, 66560, Note_on_c, 0, 81, 0
3, 66560, Note_on_c, 0, 78, 81
3, 66720, Note_on_c, 0, 78, 0
3, 66720, Note_on_c, 0, 84, 88
3, 66880, Note_on_c, 0, 84, 0
3, 66880, Note_on_c, 0, 81, 83
3, 67040, Note_on_c, 0, 81, 0
3, 67040, Note_on_c, 0, 87, 92
3, 67200, Note_on_c, 0, 87, 0
3, 67200, Note_on_c, 0, 84, 97
3, 67360, Note_on_c, 0, 84, 0
3, 67360, Note_on_c, 0, 78, 90
3, 67520, Note_on_c, 0, 78, 0
3, 67520, Note_on_c, 0, 81, 82
3, 67680, Note_on_c, 0, 81, 0
3, 67680, Note_on_c, 0, 75, 90
3, 67840, Note_on_c, 0, 75, 0
3, 67840, Note_on_c, 0, 78, 83
3, 68000, Note_on_c, 0, 78, 0
3, 68000, Note_on_c, 0, 72, 90
3, 68160, Note_on_c, 0, 72, 0
3, 68160, Note_on_c, 0, 75, 82
3, 68320, Note_on_c, 0, 75, 0
3, 68320, Note_on_c, 0, 69, 90
3, 68480, Note_on_c, 0, 69, 0
3, 68480, Note_on_c, 0, 72, 82
3, 68640, Note_on_c, 0, 72, 0
3, 68640, Note_on_c, 0, 66, 90
3, 68800, Note_on_c, 0, 66, 0
3, 68800, Note_on_c, 0, 69, 82
3, 68960, Note_on_c, 0, 69, 0
3, 68960, Note_on_c, 0, 63, 88
3, 69120, Note_on_c, 0, 63, 0
3, 69120, Note_on_c, 0, 66, 82
3, 69280, Note_on_c, 0, 66, 0
3, 69280, Note_on_c, 0, 60, 87
3, 69440, Note_on_c, 0, 60, 0
3, 69440, Note_on_c, 0, 63, 81
3, 69600, Note_on_c, 0, 63, 0
3, 69600, Note_on_c, 0, 57, 85
3, 69760, Note_on_c, 0, 57, 0
3, 69760, Note_on_c, 0, 60, 77
3, 69920, Note_on_c, 0, 60, 0
3, 69920, Note_on_c, 0, 54, 85
3, 70080, Note_on_c, 0, 54, 0
3, 70080, Note_on_c, 0, 57, 80
3, 70240, Note_on_c, 0, 57, 0
3, 70240, Note_on_c, 0, 51, 82
3, 70400, Note_on_c, 0, 54, 75
3, 70560, Note_on_c, 0, 54, 0
3, 70560, Note_on_c, 0, 51, 0
3, 70560, Note_on_c, 0, 49, 83
3, 70720, Note_on_c, 0, 54, 75
3, 70880, Note_on_c, 0, 54, 0
3, 70880, Note_on_c, 0, 57, 71
3, 71040, Note_on_c, 0, 57, 0
3, 71040, Note_on_c, 0, 49, 0
3, 71040, Note_on_c, 0, 48, 80
3, 71200, Note_on_c, 0, 54, 70
3, 71360, Note_on_c, 0, 54, 0
3, 71360, Note_on_c, 0, 56, 70
3, 71520, Note_on_c, 0, 56, 0
3, 71520, Note_on_c, 0, 57, 70
3, 71680, Note_on_c, 0, 57, 0
3, 71680, Note_on_c, 0, 56, 67
3, 71840, Note_on_c, 0, 56, 0
3, 71840, Note_on_c, 0, 54, 67
3, 72000, Note_on_c, 0, 54, 0
3, 72000, Note_on_c, 0, 48, 0
3, 72000, Note_on_c, 0, 51, 78
3, 72160, Note_on_c, 0, 54, 68
3, 72320, Note_on_c, 0, 54, 0
3, 72320, Note_on_c, 0, 57, 68
3, 72480, Note_on_c, 0, 57, 0
3, 72480, Note_on_c, 0, 51, 0
3, 72480, Note_on_c, 0, 49, 78
3, 72640, Note_on_c, 0, 54, 65
3, 72800, Note_on_c, 0, 54, 0
3, 72800, Note_on_c, 0, 57, 65
3, 72960, Note_on_c, 0, 57, 0
3, 72960, Note_on_c, 0, 49, 0
3, 72960, Note_on_c, 0, 48, 77
3, 73120, Note_on_c, 0, 54, 65
3, 73280, Note_on_c, 0, 54, 0
3, 73280, Note_on_c, 0, 56, 65
3, 73440, Note_on_c, 0, 56, 0
3, 73440, Note_on_c, 0, 57, 63
3, 73600, Note_on_c, 0, 57, 0
3, 73600, Note_on_c, 0, 56, 62
3, 73760, Note_on_c, 0, 56, 0
3, 73760, Note_on_c, 0, 54, 62
3, 73920, Note_on_c, 0, 54, 0
3, 73920, Note_on_c, 0, 48, 0
3, 73920, Note_on_c, 0, 50, 78
3, 74080, Note_on_c, 0, 54, 70
3, 74240, Note_on_c, 0, 54, 0
3, 74240, Note_on_c, 0, 57, 71
3, 74400, Note_on_c, 0, 57, 0
3, 74400, Note_on_c, 0, 50, 0
3, 74400, Note_on_c, 0, 49, 76
3, 74560, Note_on_c, 0, 54, 65
3, 74720, Note_on_c, 0, 54, 0
3, 74720, Note_on_c, 0, 57, 65
3, 74880, Note_on_c, 0, 57, 0
3, 74880, Note_on_c, 0, 49, 0
3, 74880, Note_on_c, 0, 48, 78
3, 75040, Note_on_c, 0, 54, 68
3, 75200, Note_on_c, 0, 54, 0
3, 75200, Note_on_c, 0, 56, 68
3, 75360, Note_on_c, 0, 56, 0
3, 75360, Note_on_c, 0, 57, 66
3, 75520, Note_on_c, 0, 57, 0
3, 75520, Note_on_c, 0, 56, 65
3, 75680, Note_on_c, 0, 56, 0
3, 75680, Note_on_c, 0, 54, 63
3, 75840, Note_on_c, 0, 54, 0
3, 75840, Note_on_c, 0, 48, 0
3, 75840, Note_on_c, 0, 49, 68
3, 76000, Note_on_c, 0, 49, 0
3, 76000, Note_on_c, 0, 52, 63
3, 76160, Note_on_c, 0, 52, 0
3, 76160, Note_on_c, 0, 61, 62
3, 76320, Note_on_c, 0, 61, 0
3, 76320, Note_on_c, 0, 49, 68
3, 76480, Note_on_c, 0, 49, 0
3, 76480, Note_on_c, 0, 52, 62
3, 76640, Note_on_c, 0, 52, 0
3, 76640, Note_on_c, 0, 61, 62
3, 76800, Note_on_c, 0, 61, 0
3, 76800, Note_on_c, 0, 51, 76
3, 76960, Note_on_c, 0, 51, 0
3, 76960, Note_on_c, 0, 57, 65
3, 77120, Note_on_c, 0, 57, 0
3, 77120, Note_on_c, 0, 61, 61
3, 77280, Note_on_c, 0, 61, 0
3, 77280, Note_on_c, 0, 51, 65
3, 77440, Note_on_c, 0, 51, 0
3, 77440, Note_on_c, 0, 57, 57
3, 77600, Note_on_c, 0, 57, 0
3, 77600, Note_on_c, 0, 61, 56
3, 77760, Note_on_c, 0, 61, 0
3, 77760, Note_on_c, 0, 51, 60
3, 77920, Note_on_c, 0, 51, 0
3, 77920, Note_on_c, 0, 56, 52
3, 78080, Note_on_c, 0, 56, 0
3, 78080, Note_on_c, 0, 60, 52
3, 78240, Note_on_c, 0, 60, 0
3, 78240, Note_on_c, 0, 51, 47
3, 78400, Note_on_c, 0, 51, 0
3, 78400, Note_on_c, 0, 54, 45
3, 78560, Note_on_c, 0, 54, 0
3, 78560, Note_on_c, 0, 60, 40
3, 78720, Note_on_c, 0, 60, 0
3, 78720, Note_on_c, 0, 52, 41
3, 78880, Note_on_c, 0, 52, 0
3, 78880, Note_on_c, 0, 56, 38
3, 79040, Note_on_c, 0, 56, 0
3, 79040, Note_on_c, 0, 61, 37
3, 79200, Note_on_c, 0, 61, 0
3, 79200, Note_on_c, 0, 56, 41
3, 79360, Note_on_c, 0, 56, 0
3, 79360, Note_on_c, 0, 61, 38
3, 79520, Note_on_c, 0, 61, 0
3, 79520, Note_on_c, 0, 64, 38
3, 79680, Note_on_c, 0, 64, 0
3, 79680, Note_on_c, 0, 56, 41
3, 79840, Note_on_c, 0, 56, 0
3, 79840, Note_on_c, 0, 61, 38
3, 80000, Note_on_c, 0, 61, 0
3, 80000, Note_on_c, 0, 64, 38
3, 80160, Note_on_c, 0, 64, 0
3, 80160, Note_on_c, 0, 56, 41
3, 80320, Note_on_c, 0, 56, 0
3, 80320, Note_on_c, 0, 61, 37
3, 80480, Note_on_c, 0, 61, 0
3, 80480, Note_on_c, 0, 64, 33
3, 80640, Note_on_c, 0, 64, 0
3, 80640, Note_on_c, 0, 56, 41
3, 80800, Note_on_c, 0, 56, 0
3, 80800, Note_on_c, 0, 63, 37
3, 80960, Note_on_c, 0, 63, 0
3, 80960, Note_on_c, 0, 66, 37
3, 81120, Note_on_c, 0, 66, 0
3, 81120, Note_on_c, 0, 56, 40
3, 81280, Note_on_c, 0, 56, 0
3, 81280, Note_on_c, 0, 63, 38
3, 81440, Note_on_c, 0, 63, 0
3, 81440, Note_on_c, 0, 66, 38
3, 81600, Note_on_c, 0, 66, 0
3, 81600, Note_on_c, 0, 56, 41
3, 81760, Note_on_c, 0, 56, 0
3, 81760, Note_on_c, 0, 63, 38
3, 81920, Note_on_c, 0, 63, 0
3, 81920, Note_on_c, 0, 66, 37
3, 82080, Note_on_c, 0, 66, 0
3, 82080, Note_on_c, 0, 56, 41
3, 82240, Note_on_c, 0, 56, 0
3, 82240, Note_on_c, 0, 63, 38
3, 82400, Note_on_c, 0, 63, 0
3, 82400, Note_on_c, 0, 66, 35
3, 82560, Note_on_c, 0, 66, 0
3, 82560, Note_on_c, 0, 56, 41
3, 82720, Note_on_c, 0, 56, 0
3, 82720, Note_on_c, 0, 61, 40
3, 82880, Note_on_c, 0, 61, 0
3, 82880, Note_on_c, 0, 64, 40
3, 83040, Note_on_c, 0, 64, 0
3, 83040, Note_on_c, 0, 56, 41
3, 83200, Note_on_c, 0, 56, 0
3, 83200, Note_on_c, 0, 61, 38
3, 83360, Note_on_c, 0, 61, 0
3, 83360, Note_on_c, 0, 64, 37
3, 83520, Note_on_c, 0, 64, 0
3, 83520, Note_on_c, 0, 57, 41
3, 83680, Note_on_c, 0, 57, 0
3, 83680, Note_on_c, 0, 61, 40
3, 83840, Note_on_c, 0, 61, 0
3, 83840, Note_on_c, 0, 66, 38
3, 84000, Note_on_c, 0, 66, 0
3, 84000, Note_on_c, 0, 57, 41
3, 84160, Note_on_c, 0, 57, 0
3, 84160, Note_on_c, 0, 61, 38
3, 84320, Note_on_c, 0, 61, 0
3, 84320, Note_on_c, 0, 66, 36
3, 84480, Note_on_c, 0, 66, 0
3, 84480, Note_on_c, 0, 56, 41
3, 84640, Note_on_c, 0, 56, 0
3, 84640, Note_on_c, 0, 59, 37
3, 84800, Note_on_c, 0, 59, 0
3, 84800, Note_on_c, 0, 64, 37
3, 84960, Note_on_c, 0, 64, 0
3, 84960, Note_on_c, 0, 56, 40
3, 85120, Note_on_c, 0, 56, 0
3, 85120, Note_on_c, 0, 59, 37
3, 85280, Note_on_c, 0, 59, 0
3, 85280, Note_on_c, 0, 64, 37
3, 85440, Note_on_c, 0, 64, 0
3, 85440, Note_on_c, 0, 57, 40
3, 85600, Note_on_c, 0, 57, 0
3, 85600, Note_on_c, 0, 59, 35
3, 85760, Note_on_c, 0, 59, 0
3, 85760, Note_on_c, 0, 63, 35
3, 85920, Note_on_c, 0, 63, 0
3, 85920, Note_on_c, 0, 57, 40
3, 86080, Note_on_c, 0, 57, 0
3, 86080, Note_on_c, 0, 59, 35
3, 86240, Note_on_c, 0, 59, 0
3, 86240, Note_on_c, 0, 63, 32
3, 86400, Note_on_c, 0, 63, 0
3, 86400, Note_on_c, 0, 56, 40
3, 86560, Note_on_c, 0, 56, 0
3, 86560, Note_on_c, 0, 59, 37
3, 86720, Note_on_c, 0, 59, 0
3, 86720, Note_on_c, 0, 64, 37
3, 86880, Note_on_c, 0, 64, 0
3, 86880, Note_on_c, 0, 59, 40
3, 87040, Note_on_c, 0, 59, 0
3, 87040, Note_on_c, 0, 64, 37
3, 87200, Note_on_c, 0, 64, 0
3, 87200, Note_on_c, 0, 68, 37
3, 87360, Note_on_c, 0, 68, 0
3, 87360, Note_on_c, 0, 59, 40
3, 87520, Note_on_c, 0, 59, 0
3, 87520, Note_on_c, 0, 64, 37
3, 87680, Note_on_c, 0, 64, 0
3, 87680, Note_on_c, 0, 68, 37
3, 87840, Note_on_c, 0, 68, 0
3, 87840, Note_on_c, 0, 59, 40
3, 88000, Note_on_c, 0, 59, 0
3, 88000, Note_on_c, 0, 64, 37
3, 88160, Note_on_c, 0, 64, 0
3, 88160, Note_on_c, 0, 68, 32
3, 88320, Note_on_c, 0, 68, 0
3, 88320, Note_on_c, 0, 59, 40
3, 88480, Note_on_c, 0, 59, 0
3, 88480, Note_on_c, 0, 66, 33
3, 88640, Note_on_c, 0, 66, 0
3, 88640, Note_on_c, 0, 69, 31
3, 88800, Note_on_c, 0, 69, 0
3, 88800, Note_on_c, 0, 59, 40
3, 88960, Note_on_c, 0, 59, 0
3, 88960, Note_on_c, 0, 66, 32
3, 89120, Note_on_c, 0, 66, 0
3, 89120, Note_on_c, 0, 69, 32
3, 89280, Note_on_c, 0, 69, 0
3, 89280, Note_on_c, 0, 59, 40
3, 89440, Note_on_c, 0, 59, 0
3, 89440, Note_on_c, 0, 66, 32
3, 89600, Note_on_c, 0, 66, 0
3, 89600, Note_on_c, 0, 69, 32
3, 89760, Note_on_c, 0, 69, 0
3, 89760, Note_on_c, 0, 59, 40
3, 89920, Note_on_c, 0, 59, 0
3, 89920, Note_on_c, 0, 66, 33
3, 90080, Note_on_c, 0, 66, 0
3, 90080, Note_on_c, 0, 69, 33
3, 90240, Note_on_c, 0, 69, 0
3, 90240, Note_on_c, 0, 59, 40
3, 90400, Note_on_c, 0, 59, 0
3, 90400, Note_on_c, 0, 64, 35
3, 90560, Note_on_c, 0, 64, 0
3, 90560, Note_on_c, 0, 68, 35
3, 90720, Note_on_c, 0, 68, 0
3, 90720, Note_on_c, 0, 59, 40
3, 90880, Note_on_c, 0, 59, 0
3, 90880, Note_on_c, 0, 64, 35
3, 91040, Note_on_c, 0, 64, 0
3, 91040, Note_on_c, 0, 68, 35
3, 91200, Note_on_c, 0, 68, 0
3, 91200, Note_on_c, 0, 60, 40
3, 91360, Note_on_c, 0, 60, 0
3, 91360, Note_on_c, 0, 66, 46
3, 91520, Note_on_c, 0, 66, 0
3, 91520, Note_on_c, 0, 68, 50
3, 91680, Note_on_c, 0, 68, 0
3, 91680, Note_on_c, 0, 61, 55
3, 91840, Note_on_c, 0, 61, 0
3, 91840, Note_on_c, 0, 64, 60
3, 92000, Note_on_c, 0, 64, 0
3, 92000, Note_on_c, 0, 68, 60
3, 92160, Note_on_c, 0, 68, 0
3, 92160, Note_on_c, 0, 63, 60
3, 92320, Note_on_c, 0, 63, 0
3, 92320, Note_on_c, 0, 66, 52
3, 92480, Note_on_c, 0, 66, 0
3, 92480, Note_on_c, 0, 68, 52
3, 92640, Note_on_c, 0, 68, 0
3, 92640, Note_on_c, 0, 63, 53
3, 92800, Note_on_c, 0, 63, 0
3, 92800, Note_on_c, 0, 66, 50
3, 92960, Note_on_c, 0, 66, 0
3, 92960, Note_on_c, 0, 68, 50
3, 93120, Note_on_c, 0, 68, 0
3, 93120, Note_on_c, 0, 64, 48
3, 93280, Note_on_c, 0, 64, 0
3, 93280, Note_on_c, 0, 68, 40
3, 93440, Note_on_c, 0, 68, 0
3, 93440, Note_on_c, 0, 73, 40
3, 93600, Note_on_c, 0, 73, 0
3, 93600, Note_on_c, 0, 64, 40
3, 93760, Note_on_c, 0, 64, 0
3, 93760, Note_on_c, 0, 68, 33
3, 93920, Note_on_c, 0, 68, 0
3, 93920, Note_on_c, 0, 73, 33
3, 94080, Note_on_c, 0, 73, 0
3, 94080, Note_on_c, 0, 62, 40
3, 94240, Note_on_c, 0, 62, 0
3, 94240, Note_on_c, 0, 66, 37
3, 94400, Note_on_c, 0, 66, 0
3, 94400, Note_on_c, 0, 69, 37
3, 94560, Note_on_c, 0, 69, 0
3, 94560, Note_on_c, 0, 62, 40
3, 94720, Note_on_c, 0, 62, 0
3, 94720, Note_on_c, 0, 66, 37
3, 94880, Note_on_c, 0, 66, 0
3, 94880, Note_on_c, 0, 69, 37
3, 95040, Note_on_c, 0, 69, 0
3, 95040, Note_on_c, 0, 60, 40
3, 95200, Note_on_c, 0, 60, 0
3, 95200, Note_on_c, 0, 66, 37
3, 95360, Note_on_c, 0, 66, 0
3, 95360, Note_on_c, 0, 68, 37
3, 95520, Note_on_c, 0, 68, 0
3, 95520, Note_on_c, 0, 60, 40
3, 95680, Note_on_c, 0, 60, 0
3, 95680, Note_on_c, 0, 66, 37
3, 95840, Note_on_c, 0, 66, 0
3, 95840, Note_on_c, 0, 68, 35
3, 96000, Note_on_c, 0, 68, 0
3, 96000, Note_on_c, 0, 61, 40
3, 96160, Note_on_c, 0, 61, 0
3, 96160, Note_on_c, 0, 64, 33
3, 96320, Note_on_c, 0, 64, 0
3, 96320, Note_on_c, 0, 68, 30
3, 96480, Note_on_c, 0, 68, 0
3, 96480, Note_on_c, 0, 61, 40
3, 96640, Note_on_c, 0, 61, 0
3, 96640, Note_on_c, 0, 64, 33
3, 96800, Note_on_c, 0, 64, 0
3, 96800, Note_on_c, 0, 68, 31
3, 96960, Note_on_c, 0, 68, 0
3, 96960, Note_on_c, 0, 61, 40
3, 97120, Note_on_c, 0, 61, 0
3, 97120, Note_on_c, 0, 65, 33
3, 97280, Note_on_c, 0, 65, 0
3, 97280, Note_on_c, 0, 68, 33
3, 97440, Note_on_c, 0, 68, 0
3, 97440, Note_on_c, 0, 61, 40
3, 97600, Note_on_c, 0, 61, 0
3, 97600, Note_on_c, 0, 65, 31
3, 97760, Note_on_c, 0, 65, 0
3, 97760, Note_on_c, 0, 68, 30
3, 97920, Note_on_c, 0, 68, 0
3, 97920, Note_on_c, 0, 61, 40
3, 98080, Note_on_c, 0, 61, 0
3, 98080, Note_on_c, 0, 66, 42
3, 98240, Note_on_c, 0, 66, 0
3, 98240, Note_on_c, 0, 69, 40
3, 98400, Note_on_c, 0, 69, 0
3, 98400, Note_on_c, 0, 61, 46
3, 98560, Note_on_c, 0, 61, 0
3, 98560, Note_on_c, 0, 66, 47
3, 98720, Note_on_c, 0, 66, 0
3, 98720, Note_on_c, 0, 69, 47
3, 98880, Note_on_c, 0, 69, 0
3, 98880, Note_on_c, 0, 61, 53
3, 99040, Note_on_c, 0, 61, 0
3, 99040, Note_on_c, 0, 66, 55
3, 99200, Note_on_c, 0, 66, 0
3, 99200, Note_on_c, 0, 69, 53
3, 99360, Note_on_c, 0, 69, 0
3, 99360, Note_on_c, 0, 61, 61
3, 99520, Note_on_c, 0, 61, 0
3, 99520, Note_on_c, 0, 66, 60
3, 99680, Note_on_c, 0, 66, 0
3, 99680, Note_on_c, 0, 69, 52
3, 99840, Note_on_c, 0, 69, 0
3, 99840, Note_on_c, 0, 61, 45
3, 100000, Note_on_c, 0, 61, 0
3, 100000, Note_on_c, 0, 65, 37
3, 100160, Note_on_c, 0, 65, 0
3, 100160, Note_on_c, 0, 68, 36
3, 100320, Note_on_c, 0, 68, 0
3, 100320, Note_on_c, 0, 61, 40
3, 100480, Note_on_c, 0, 61, 0
3, 100480, Note_on_c, 0, 65, 35
3, 100640, Note_on_c, 0, 65, 0
3, 100640, Note_on_c, 0, 68, 35
3, 100800, Note_on_c, 0, 68, 0
3, 100800, Note_on_c, 0, 61, 40
3, 100960, Note_on_c, 0, 61, 0
3, 100960, Note_on_c, 0, 65, 33
3, 101120, Note_on_c, 0, 65, 0
3, 101120, Note_on_c, 0, 68, 33
3, 101280, Note_on_c, 0, 68, 0
3, 101280, Note_on_c, 0, 61, 40
3, 101440, Note_on_c, 0, 61, 0
3, 101440, Note_on_c, 0, 65, 33
3, 101600, Note_on_c, 0, 65, 0
3, 101600, Note_on_c, 0, 68, 28
3, 101760, Note_on_c, 0, 68, 0
3, 101760, Note_on_c, 0, 61, 40
3, 101920, Note_on_c, 0, 61, 0
3, 101920, Note_on_c, 0, 66, 42
3, 102080, Note_on_c, 0, 66, 0
3, 102080, Note_on_c, 0, 69, 46
3, 102240, Note_on_c, 0, 69, 0
3, 102240, Note_on_c, 0, 61, 47
3, 102400, Note_on_c, 0, 61, 0
3, 102400, Note_on_c, 0, 66, 48
3, 102560, Note_on_c, 0, 66, 0
3, 102560, Note_on_c, 0, 69, 55
3, 102720, Note_on_c, 0, 69, 0
3, 102720, Note_on_c, 0, 61, 57
3, 102880, Note_on_c, 0, 61, 0
3, 102880, Note_on_c, 0, 66, 56
3, 103040, Note_on_c, 0, 66, 0
3, 103040, Note_on_c, 0, 69, 55
3, 103200, Note_on_c, 0, 69, 0
3, 103200, Note_on_c, 0, 61, 61
3, 103360, Note_on_c, 0, 61, 0
3, 103360, Note_on_c, 0, 66, 55
3, 103520, Note_on_c, 0, 66, 0
3, 103520, Note_on_c, 0, 69, 37
3, 103680, Note_on_c, 0, 69, 0
3, 103680, Note_on_c, 0, 61, 46
3, 103840, Note_on_c, 0, 61, 0
3, 103840, Note_on_c, 0, 65, 38
3, 104000, Note_on_c, 0, 65, 0
3, 104000, Note_on_c, 0, 68, 38
3, 104160, Note_on_c, 0, 68, 0
3, 104160, Note_on_c, 0, 61, 40
3, 104320, Note_on_c, 0, 61, 0
3, 104320, Note_on_c, 0, 65, 37
3, 104480, Note_on_c, 0, 65, 0
3, 104480, Note_on_c, 0, 68, 37
3, 104640, Note_on_c, 0, 68, 0
3, 104640, Note_on_c, 0, 61, 42
3, 104800, Note_on_c, 0, 61, 0
3, 104800, Note_on_c, 0, 66, 37
3, 104960, Note_on_c, 0, 66, 0
3, 104960, Note_on_c, 0, 69, 37
3, 105120, Note_on_c, 0, 69, 0
3, 105120, Note_on_c, 0, 61, 40
3, 105280, Note_on_c, 0, 61, 0
3, 105280, Note_on_c, 0, 66, 37
3, 105440, Note_on_c, 0, 66, 0
3, 105440, Note_on_c, 0, 69, 37
3, 105600, Note_on_c, 0, 69, 0
3, 105600, Note_on_c, 0, 59, 47
3, 105760, Note_on_c, 0, 59, 0
3, 105760, Note_on_c, 0, 66, 40
3, 105920, Note_on_c, 0, 66, 0
3, 105920, Note_on_c, 0, 69, 40
3, 106080, Note_on_c, 0, 69, 0
3, 106080, Note_on_c, 0, 59, 40
3, 106240, Note_on_c, 0, 59, 0
3, 106240, Note_on_c, 0, 66, 38
3, 106400, Note_on_c, 0, 66, 0
3, 106400, Note_on_c, 0, 69, 37
3, 106560, Note_on_c, 0, 69, 0
3, 106560, Note_on_c, 0, 59, 40
3, 106720, Note_on_c, 0, 59, 0
3, 106720, Note_on_c, 0, 66, 38
3, 106880, Note_on_c, 0, 66, 0
3, 106880, Note_on_c, 0, 69, 37
3, 107040, Note_on_c, 0, 69, 0
3, 107040, Note_on_c, 0, 59, 40
3, 107200, Note_on_c, 0, 59, 0
3, 107200, Note_on_c, 0, 64, 38
3, 107360, Note_on_c, 0, 64, 0
3, 107360, Note_on_c, 0, 68, 33
3, 107520, Note_on_c, 0, 68, 0
3, 107520, Note_on_c, 0, 57, 40
3, 107680, Note_on_c, 0, 57, 0
3, 107680, Note_on_c, 0, 64, 37
3, 107840, Note_on_c, 0, 64, 0
3, 107840, Note_on_c, 0, 68, 37
3, 108000, Note_on_c, 0, 68, 0
3, 108000, Note_on_c, 0, 57, 40
3, 108160, Note_on_c, 0, 57, 0
3, 108160, Note_on_c, 0, 63, 37
3, 108320, Note_on_c, 0, 63, 0
3, 108320, Note_on_c, 0, 66, 37
3, 108480, Note_on_c, 0, 66, 0
3, 108480, Note_on_c, 0, 56, 40
3, 108640, Note_on_c, 0, 56, 0
3, 108640, Note_on_c, 0, 63, 37
3, 108800, Note_on_c, 0, 63, 0
3, 108800, Note_on_c, 0, 66, 37
3, 108960, Note_on_c, 0, 66, 0
3, 108960, Note_on_c, 0, 56, 40
3, 109120, Note_on_c, 0, 56, 0
3, 109120, Note_on_c, 0, 61, 37
3, 109280, Note_on_c, 0, 61, 0
3, 109280, Note_on_c, 0, 64, 37
3, 109440, Note_on_c, 0, 64, 0
3, 109440, Note_on_c, 0, 54, 40
3, 109600, Note_on_c, 0, 54, 0
3, 109600, Note_on_c, 0, 61, 42
3, 109760, Note_on_c, 0, 61, 0
3, 109760, Note_on_c, 0, 63, 46
3, 109920, Note_on_c, 0, 63, 0
3, 109920, Note_on_c, 0, 54, 46
3, 110080, Note_on_c, 0, 54, 0
3, 110080, Note_on_c, 0, 61, 47
3, 110240, Note_on_c, 0, 61, 0
3, 110240, Note_on_c, 0, 63, 50
3, 110400, Note_on_c, 0, 63, 0
3, 110400, Note_on_c, 0, 56, 53
3, 110560, Note_on_c, 0, 56, 0
3, 110560, Note_on_c, 0, 61, 53
3, 110720, Note_on_c, 0, 61, 0
3, 110720, Note_on_c, 0, 63, 53
3, 110880, Note_on_c, 0, 63, 0
3, 110880, Note_on_c, 0, 57, 60
3, 111040, Note_on_c, 0, 57, 0
3, 111040, Note_on_c, 0, 61, 57
3, 111200, Note_on_c, 0, 61, 0
3, 111200, Note_on_c, 0, 63, 55
3, 111360, Note_on_c, 0, 63, 0
3, 111360, Note_on_c, 0, 56, 40
3, 111520, Note_on_c, 0, 56, 0
3, 111520, Note_on_c, 0, 61, 37
3, 111680, Note_on_c, 0, 61, 0
3, 111680, Note_on_c, 0, 64, 35
3, 111840, Note_on_c, 0, 64, 0
3, 111840, Note_on_c, 0, 56, 40
3, 112000, Note_on_c, 0, 56, 0
3, 112000, Note_on_c, 0, 61, 37
3, 112160, Note_on_c, 0, 61, 0
3, 112160, Note_on_c, 0, 64, 37
3, 112320, Note_on_c, 0, 64, 0
3, 112320, Note_on_c, 0, 54, 40
3, 112480, Note_on_c, 0, 54, 0
3, 112480, Note_on_c, 0, 60, 35
3, 112640, Note_on_c, 0, 60, 0
3, 112640, Note_on_c, 0, 63, 31
3, 112800, Note_on_c, 0, 63, 0
3, 112800, Note_on_c, 0, 54, 30
3, 112960, Note_on_c, 0, 54, 0
3, 112960, Note_on_c, 0, 60, 26
3, 113120, Note_on_c, 0, 60, 0
3, 113120, Note_on_c, 0, 63, 26
3, 113280, Note_on_c, 0, 63, 0
3, 113280, Note_on_c, 0, 52, 37
3, 113440, Note_on_c, 0, 52, 0
3, 113440, Note_on_c, 0, 56, 32
3, 113600, Note_on_c, 0, 56, 0
3, 113600, Note_on_c, 0, 61, 32
3, 113760, Note_on_c, 0, 61, 0
3, 113760, Note_on_c, 0, 56, 37
3, 113920, Note_on_c, 0, 56, 0
3, 113920, Note_on_c, 0, 61, 32
3, 114080, Note_on_c, 0, 61, 0
3, 114080, Note_on_c, 0, 64, 32
3, 114240, Note_on_c, 0, 64, 0
3, 114240, Note_on_c, 0, 56, 37
3, 114400, Note_on_c, 0, 56, 0
3, 114400, Note_on_c, 0, 61, 31
3, 114560, Note_on_c, 0, 61, 0
3, 114560, Note_on_c, 0, 64, 31
3, 114720, Note_on_c, 0, 64, 0
3, 114720, Note_on_c, 0, 56, 37
3, 114880, Note_on_c, 0, 56, 0
3, 114880, Note_on_c, 0, 61, 30
3, 115040, Note_on_c, 0, 61, 0
3, 115040, Note_on_c, 0, 64, 30
3, 115200, Note_on_c, 0, 64, 0
3, 115200, Note_on_c, 0, 56, 37
3, 115360, Note_on_c, 0, 56, 0
3, 115360, Note_on_c, 0, 63, 33
3, 115520, Note_on_c, 0, 63, 0
3, 115520, Note_on_c, 0, 66, 33
3, 115680, Note_on_c, 0, 66, 0
3, 115680, Note_on_c, 0, 56, 37
3, 115840, Note_on_c, 0, 56, 0
3, 115840, Note_on_c, 0, 63, 30
3, 116000, Note_on_c, 0, 63, 0
3, 116000, Note_on_c, 0, 66, 30
3, 116160, Note_on_c, 0, 66, 0
3, 116160, Note_on_c, 0, 56, 37
3, 116320, Note_on_c, 0, 56, 0
3, 116320, Note_on_c, 0, 63, 30
3, 116480, Note_on_c, 0, 63, 0
3, 116480, Note_on_c, 0, 66, 30
3, 116640, Note_on_c, 0, 66, 0
3, 116640, Note_on_c, 0, 56, 37
3, 116800, Note_on_c, 0, 56, 0
3, 116800, Note_on_c, 0, 63, 30
3, 116960, Note_on_c, 0, 63, 0
3, 116960, Note_on_c, 0, 66, 30
3, 117120, Note_on_c, 0, 66, 0
3, 117120, Note_on_c, 0, 56, 37
3, 117280, Note_on_c, 0, 56, 0
3, 117280, Note_on_c, 0, 64, 35
3, 117440, Note_on_c, 0, 64, 0
3, 117440, Note_on_c, 0, 61, 40
3, 117600, Note_on_c, 0, 61, 0
3, 117600, Note_on_c, 0, 68, 45
3, 117760, Note_on_c, 0, 68, 0
3, 117760, Note_on_c, 0, 64, 48
3, 117920, Note_on_c, 0, 64, 0
3, 117920, Note_on_c, 0, 73, 50
3, 118080, Note_on_c, 0, 73, 0
3, 118080, Note_on_c, 0, 68, 48
3, 118240, Note_on_c, 0, 68, 0
3, 118240, Note_on_c, 0, 76, 53
3, 118400, Note_on_c, 0, 76, 0
3, 118400, Note_on_c, 0, 73, 60
3, 118560, Note_on_c, 0, 73, 0
3, 118560, Note_on_c, 0, 80, 62
3, 118720, Note_on_c, 0, 80, 0
3, 118720, Note_on_c, 0, 76, 65
3, 118880, Note_on_c, 0, 76, 0
3, 118880, Note_on_c, 0, 73, 71
3, 119040, Note_on_c, 0, 73, 0
3, 119040, Note_on_c, 0, 72, 75
3, 119200, Note_on_c, 0, 72, 0
3, 119200, Note_on_c, 0, 75, 75
3, 119360, Note_on_c, 0, 75, 0
3, 119360, Note_on_c, 0, 69, 75
3, 119520, Note_on_c, 0, 69, 0
3, 119520, Note_on_c, 0, 72, 70
3, 119680, Note_on_c, 0, 72, 0
3, 119680, Note_on_c, 0, 66, 65
3, 119840, Note_on_c, 0, 66, 0
3, 119840, Note_on_c, 0, 69, 63
3, 120000, Note_on_c, 0, 69, 0
3, 120000, Note_on_c, 0, 63, 61
3, 120160, Note_on_c, 0, 63, 0
3, 120160, Note_on_c, 0, 66, 57
3, 120320, Note_on_c, 0, 66, 0
3, 120320, Note_on_c, 0, 57, 52
3, 120480, Note_on_c, 0, 60, 50
3, 120640, Note_on_c, 0, 57, 0
3, 120640, Note_on_c, 0, 56, 47
3, 120800, Note_on_c, 0, 56, 0
3, 120800, Note_on_c, 0, 54, 47
3, 120960, Note_on_c, 0, 54, 0
3, 120960, Note_on_c, 0, 60, 0
3, 120960, Note_on_c, 0, 52, 42
3, 120960, Note_on_c, 0, 61, 42
3, 121120, Note_on_c, 0, 61, 0
3, 121120, Note_on_c, 0, 52, 0
3, 121120, Note_on_c, 0, 64, 40
3, 121280, Note_on_c, 0, 64, 0
3, 121280, Note_on_c, 0, 61, 45
3, 121440, Note_on_c, 0, 61, 0
3, 121440, Note_on_c, 0, 68, 48
3, 121600, Note_on_c, 0, 68, 0
3, 121600, Note_on_c, 0, 64, 53
3, 121760, Note_on_c, 0, 64, 0
3, 121760, Note_on_c, 0, 73, 60
3, 121920, Note_on_c, 0, 73, 0
3, 121920, Note_on_c, 0, 68, 61
3, 122080, Note_on_c, 0, 68, 0
3, 122080, Note_on_c, 0, 76, 63
3, 122240, Note_on_c, 0, 76, 0
3, 122240, Note_on_c, 0, 73, 65
3, 122400, Note_on_c, 0, 73, 0
3, 122400, Note_on_c, 0, 80, 67
3, 122560, Note_on_c, 0, 80, 0
3, 122560, Note_on_c, 0, 76, 68
3, 122720, Note_on_c, 0, 76, 0
3, 122720, Note_on_c, 0, 73, 70
3, 122880, Note_on_c, 0, 73, 0
3, 122880, Note_on_c, 0, 72, 75
3, 123040, Note_on_c, 0, 72, 0
3, 123040, Note_on_c, 0, 75, 68
3, 123200, Note_on_c, 0, 75, 0
3, 123200, Note_on_c, 0, 69, 65
3, 123360, Note_on_c, 0, 69, 0
3, 123360, Note_on_c, 0, 72, 61
3, 123520, Note_on_c, 0, 72, 0
3, 123520, Note_on_c, 0, 66, 60
3, 123680, Note_on_c, 0, 66, 0
3, 123680, Note_on_c, 0, 69, 53
3, 123840, Note_on_c, 0, 69, 0
3, 123840, Note_on_c, 0, 63, 50
3, 124000, Note_on_c, 0, 63, 0
3, 124000, Note_on_c, 0, 66, 48
3, 124160, Note_on_c, 0, 66, 0
3, 124160, Note_on_c, 0, 57, 46
3, 124320, Note_on_c, 0, 60, 41
3, 124480, Note_on_c, 0, 57, 0
3, 124480, Note_on_c, 0, 56, 37
3, 124640, Note_on_c, 0, 56, 0
3, 124640, Note_on_c, 0, 54, 35
3, 124800, Note_on_c, 0, 54, 0
3, 124800, Note_on_c, 0, 60, 0
3, 124800, Note_on_c, 0, 61, 50
3, 124800, Note_on_c, 0, 52, 50
3, 124960, Note_on_c, 0, 52, 0
3, 124960, Note_on_c, 0, 61, 0
3, 124960, Note_on_c, 0, 56, 50
3, 125120, Note_on_c, 0, 56, 0
3, 125120, Note_on_c, 0, 61, 50
3, 125280, Note_on_c, 0, 61, 0
3, 125280, Note_on_c, 0, 64, 48
3, 125440, Note_on_c, 0, 64, 0
3, 125440, Note_on_c, 0, 61, 48
3, 125600, Note_on_c, 0, 61, 0
3, 125600, Note_on_c, 0, 56, 47
3, 125760, Note_on_c, 0, 56, 0
3, 125920, Note_on_c, 0, 52, 47
3, 126080, Note_on_c, 0, 52, 0
3, 126080, Note_on_c, 0, 56, 47
3, 126240, Note_on_c, 0, 56, 0
3, 126240, Note_on_c, 0, 61, 47
3, 126400, Note_on_c, 0, 61, 0
3, 126400, Note_on_c, 0, 56, 46
3, 126560, Note_on_c, 0, 56, 0
3, 126560, Note_on_c, 0, 52, 46
3, 126720, Note_on_c, 0, 52, 0
3, 126880, Note_on_c, 0, 49, 45
3, 127020, Note_on_c, 0, 52, 45
3, 127040, Note_on_c, 0, 49, 0
3, 127180, Note_on_c, 0, 52, 0
3, 127200, Note_on_c, 0, 56, 42
3, 127360, Note_on_c, 0, 56, 0
3, 127360, Note_on_c, 0, 52, 42
3, 127520, Note_on_c, 0, 52, 0
3, 127520, Note_on_c, 0, 49, 41
3, 127680, Note_on_c, 0, 49, 0
3, 127680, Note_on_c, 0, 44, 41
3, 127840, Note_on_c, 0, 44, 0
3, 127840, Note_on_c, 0, 49, 41
3, 128000, Note_on_c, 0, 49, 0
3, 128000, Note_on_c, 0, 44, 40
3, 128160, Note_on_c, 0, 44, 0
3, 128160, Note_on_c, 0, 40, 40
3, 128320, Note_on_c, 0, 40, 0
3, 128320, Note_on_c, 0, 44, 38
3, 128480, Note_on_c, 0, 44, 0
3, 128480, Note_on_c, 0, 40, 37
3, 128640, Note_on_c, 0, 40, 0
3, 128640, Note_on_c, 0, 37, 38
3, 129600, Note_on_c, 0, 37, 0
3, 129600, Note_on_c, 0, 61, 37
3, 129600, Note_on_c, 0, 52, 31
3, 129600, Note_on_c, 0, 56, 31
3, 130560, Note_on_c, 0, 56, 0
3, 130560, Note_on_c, 0, 52, 0
3, 130560, Note_on_c, 0, 61, 0
3, 130560, Note_on_c, 0, 61, 37
3, 130560, Note_on_c, 0, 52, 31
3, 130560, Note_on_c, 0, 56, 31
3, 132480, Note_on_c, 0, 56, 0
3, 132480, Note_on_c, 0, 52, 0
3, 132480, Note_on_c, 0, 61, 0
3, 132480, End_track
4, 0, Start_track
4, 0, Title_t, "Piano left"
4, 0, Program_c, 0, 0
4, 0, Control_c, 0, 7, 100
4, 0, Control_c, 0, 10, 64
4, 0, Control_c, 0, 91, 127
4, 0, Note_on_c, 0, 37, 35
4, 0, Note_on_c, 0, 49, 35
4, 1920, Note_on_c, 0, 49, 0
4, 1920, Note_on_c, 0, 37, 0
4, 1920, Note_on_c, 0, 35, 35
4, 1920, Note_on_c, 0, 47, 35
4, 3840, Note_on_c, 0, 47, 0
4, 3840, Note_on_c, 0, 35, 0
4, 3840, Note_on_c, 0, 45, 41
4, 3840, Note_on_c, 0, 33, 41
4, 4800, Note_on_c, 0, 33, 0
4, 4800, Note_on_c, 0, 45, 0
4, 4800, Note_on_c, 0, 30, 38
4, 4800, Note_on_c, 0, 42, 38
4, 5760, Note_on_c, 0, 42, 0
4, 5760, Note_on_c, 0, 30, 0
4, 5760, Note_on_c, 0, 32, 41
4, 5760, Note_on_c, 0, 44, 41
4, 6720, Note_on_c, 0, 44, 0
4, 6720, Note_on_c, 0, 32, 0
4, 6720, Note_on_c, 0, 44, 35
4, 6720, Note_on_c, 0, 32, 35
4, 7680, Note_on_c, 0, 32, 0
4, 7680, Note_on_c, 0, 44, 0
4, 7680, Note_on_c, 0, 37, 35
4, 7680, Note_on_c, 0, 49, 35
4, 7680, Note_on_c, 0, 44, 35
4, 9600, Note_on_c, 0, 44, 0
4, 9600, Note_on_c, 0, 49, 0
4, 9600, Note_on_c, 0, 37, 0
4, 9600, Note_on_c, 0, 36, 38
4, 9600, Note_on_c, 0, 44, 38
4, 9600, Note_on_c, 0, 48, 38
4, 11520, Note_on_c, 0, 48, 0
4, 11520, Note_on_c, 0, 44, 0
4, 11520, Note_on_c, 0, 36, 0
4, 11520, Note_on_c, 0, 37, 35
4, 11520, Note_on_c, 0, 49, 35
4, 12480, Note_on_c, 0, 49, 0
4, 12480, Note_on_c, 0, 37, 0
4, 12480, Note_on_c, 0, 42, 32
4, 12480, Note_on_c, 0, 30, 32
4, 13440, Note_on_c, 0, 30, 0
4, 13440, Note_on_c, 0, 42, 0
4, 13440, Note_on_c, 0, 35, 41
4, 13440, Note_on_c, 0, 47, 41
4, 14400, Note_on_c, 0, 47, 0
4, 14400, Note_on_c, 0, 35, 0
4, 14400, Note_on_c, 0, 35, 41
4, 14400, Note_on_c, 0, 47, 41
4, 15360, Note_on_c, 0, 47, 0
4, 15360, Note_on_c, 0, 35, 0
4, 15360, Note_on_c, 0, 52, 35
4, 15360, Note_on_c, 0, 40, 35
4, 17280, Note_on_c, 0, 40, 0
4, 17280, Note_on_c, 0, 52, 0
4, 17280, Note_on_c, 0, 52, 38
4, 17280, Note_on_c, 0, 40, 38
4, 19200, Note_on_c, 0, 40, 0
4, 19200, Note_on_c, 0, 52, 0
4, 19200, Note_on_c, 0, 38, 35
4, 19200, Note_on_c, 0, 50, 35
4, 21120, Note_on_c, 0, 50, 0
4, 21120, Note_on_c, 0, 38, 0
4, 21120, Note_on_c, 0, 36, 40
4, 21120, Note_on_c, 0, 48, 40
4, 21600, Note_on_c, 0, 48, 0
4, 21600, Note_on_c, 0, 36, 0
4, 21600, Note_on_c, 0, 47, 46
4, 21600, Note_on_c, 0, 35, 46
4, 22080, Note_on_c, 0, 35, 0
4, 22080, Note_on_c, 0, 47, 0
4, 22080, Note_on_c, 0, 34, 53
4, 22080, Note_on_c, 0, 46, 53
4, 23040, Note_on_c, 0, 46, 0
4, 23040, Note_on_c, 0, 34, 0
4, 23040, Note_on_c, 0, 35, 42
4, 23040, Note_on_c, 0, 47, 42
4, 24000, Note_on_c, 0, 47, 0
4, 24000, Note_on_c, 0, 35, 0
4, 24000, Note_on_c, 0, 40, 41
4, 24480, Note_on_c, 0, 40, 0
4, 24480, Note_on_c, 0, 43, 40
4, 24960, Note_on_c, 0, 43, 0
4, 24960, Note_on_c, 0, 42, 46
4, 25920, Note_on_c, 0, 42, 0
4, 25920, Note_on_c, 0, 30, 35
4, 25920, Note_on_c, 0, 42, 35
4, 26880, Note_on_c, 0, 42, 0
4, 26880, Note_on_c, 0, 30, 0
4, 26880, Note_on_c, 0, 35, 35
4, 26880, Note_on_c, 0, 47, 35
4, 29280, Note_on_c, 0, 47, 0
4, 29280, Note_on_c, 0, 35, 0
4, 29280, Note_on_c, 0, 52, 53
4, 29280, Note_on_c, 0, 40, 53
4, 29760, Note_on_c, 0, 40, 0
4, 29760, Note_on_c, 0, 52, 0
4, 29760, Note_on_c, 0, 43, 60
4, 29760, Note_on_c, 0, 55, 60
4, 30240, Note_on_c, 0, 55, 0
4, 30240, Note_on_c, 0, 43, 0
4, 30240, Note_on_c, 0, 40, 48
4, 30240, Note_on_c, 0, 52, 48
4, 30720, Note_on_c, 0, 52, 0
4, 30720, Note_on_c, 0, 40, 0
4, 30720, Note_on_c, 0, 47, 42
4, 30720, Note_on_c, 0, 35, 42
4, 33120, Note_on_c, 0, 35, 0
4, 33120, Note_on_c, 0, 47, 0
4, 33120, Note_on_c, 0, 52, 50
4, 33120, Note_on_c, 0, 40, 50
4, 33600, Note_on_c, 0, 40, 0
4, 33600, Note_on_c, 0, 52, 0
4, 33600, Note_on_c, 0, 43, 55
4, 33600, Note_on_c, 0, 55, 55
4, 34080, Note_on_c, 0, 55, 0
4, 34080, Note_on_c, 0, 43, 0
4, 34080, Note_on_c, 0, 52, 41
4, 34080, Note_on_c, 0, 40, 41
4, 34560, Note_on_c, 0, 40, 0
4, 34560, Note_on_c, 0, 52, 0
4, 34560, Note_on_c, 0, 35, 37
4, 34560, Note_on_c, 0, 47, 37
4, 35520, Note_on_c, 0, 47, 0
4, 35520, Note_on_c, 0, 35, 0
4, 35520, Note_on_c, 0, 32, 35
4, 35520, Note_on_c, 0, 44, 35
4, 36480, Note_on_c, 0, 44, 0
4, 36480, Note_on_c, 0, 32, 0
4, 36480, Note_on_c, 0, 41, 35
4, 36480, Note_on_c, 0, 29, 35
4, 37440, Note_on_c, 0, 29, 0
4, 37440, Note_on_c, 0, 41, 0
4, 37440, Note_on_c, 0, 30, 41
4, 37440, Note_on_c, 0, 42, 41
4, 38400, Note_on_c, 0, 42, 0
4, 38400, Note_on_c, 0, 30, 0
4, 38400, Note_on_c, 0, 47, 41
4, 38400, Note_on_c, 0, 35, 41
4, 39360, Note_on_c, 0, 35, 0
4, 39360, Note_on_c, 0, 47, 0
4, 39360, Note_on_c, 0, 36, 45
4, 39360, Note_on_c, 0, 48, 45
4, 40320, Note_on_c, 0, 48, 0
4, 40320, Note_on_c, 0, 36, 0
4, 40320, Note_on_c, 0, 37, 35
4, 41280, Note_on_c, 0, 37, 0
4, 41280, Note_on_c, 0, 37, 35
4, 42240, Note_on_c, 0, 37, 0
4, 42240, Note_on_c, 0, 37, 35
4, 42240, Note_on_c, 0, 42, 35
4, 42240, Note_on_c, 0, 30, 35
4, 44160, Note_on_c, 0, 30, 0
4, 44160, Note_on_c, 0, 42, 0
4, 44160, Note_on_c, 0, 37, 0
4, 44160, Note_on_c, 0, 49, 33
4, 44160, Note_on_c, 0, 53, 33
4, 44160, Note_on_c, 0, 41, 33
4, 46080, Note_on_c, 0, 41, 0
4, 46080, Note_on_c, 0, 53, 0
4, 46080, Note_on_c, 0, 49, 0
4, 46080, Note_on_c, 0, 54, 40
4, 46080, Note_on_c, 0, 42, 40
4, 47040, Note_on_c, 0, 42, 0
4, 47040, Note_on_c, 0, 54, 0
4, 47040, Note_on_c, 0, 51, 46
4, 47040, Note_on_c, 0, 39, 46
4, 47520, Note_on_c, 0, 39, 0
4, 47520, Note_on_c, 0, 51, 0
4, 47520, Note_on_c, 0, 37, 46
4, 47520, Note_on_c, 0, 49, 46
4, 48000, Note_on_c, 0, 49, 0
4, 48000, Note_on_c, 0, 37, 0
4, 48000, Note_on_c, 0, 36, 50
4, 48000, Note_on_c, 0, 44, 50
4, 48000, Note_on_c, 0, 48, 50
4, 49440, Note_on_c, 0, 48, 0
4, 49440, Note_on_c, 0, 44, 0
4, 49440, Note_on_c, 0, 36, 0
4, 49440, Note_on_c, 0, 36, 48
4, 49440, Note_on_c, 0, 44, 48
4, 49440, Note_on_c, 0, 48, 48
4, 49920, Note_on_c, 0, 48, 0
4, 49920, Note_on_c, 0, 44, 0
4, 49920, Note_on_c, 0, 36, 0
4, 49920, Note_on_c, 0, 37, 55
4, 49920, Note_on_c, 0, 44, 55
4, 49920, Note_on_c, 0, 49, 55
4, 50880, Note_on_c, 0, 49, 0
4, 50880, Note_on_c, 0, 44, 0
4, 50880, Note_on_c, 0, 37, 0
4, 50880, Note_on_c, 0, 42, 46
4, 50880, Note_on_c, 0, 30, 46
4, 51360, Note_on_c, 0, 30, 0
4, 51360, Note_on_c, 0, 42, 0
4, 51360, Note_on_c, 0, 31, 45
4, 51360, Note_on_c, 0, 43, 45
4, 51840, Note_on_c, 0, 43, 0
4, 51840, Note_on_c, 0, 31, 0
4, 51840, Note_on_c, 0, 32, 41
4, 51840, Note_on_c, 0, 44, 41
4, 53760, Note_on_c, 0, 44, 0
4, 53760, Note_on_c, 0, 32, 0
4, 53760, Note_on_c, 0, 44, 53
4, 53760, Note_on_c, 0, 32, 53
4, 55680, Note_on_c, 0, 32, 0
4, 55680, Note_on_c, 0, 44, 0
4, 55680, Note_on_c, 0, 32, 46
4, 55680, Note_on_c, 0, 44, 46
4, 57600, Note_on_c, 0, 44, 0
4, 57600, Note_on_c, 0, 32, 0
4, 57600, Note_on_c, 0, 32, 52
4, 57600, Note_on_c, 0, 44, 52
4, 59520, Note_on_c, 0, 44, 0
4, 59520, Note_on_c, 0, 32, 0
4, 59520, Note_on_c, 0, 44, 46
4, 59520, Note_on_c, 0, 32, 46
4, 61440, Note_on_c, 0, 32, 0
4, 61440, Note_on_c, 0, 44, 0
4, 61440, Note_on_c, 0, 44, 46
4, 61440, Note_on_c, 0, 32, 46
4, 63360, Note_on_c, 0, 32, 0
4, 63360, Note_on_c, 0, 44, 0
4, 63360, Note_on_c, 0, 32, 45
4, 63360, Note_on_c, 0, 44, 45
4, 65280, Note_on_c, 0, 44, 0
4, 65280, Note_on_c, 0, 32, 0
4, 65280, Note_on_c, 0, 32, 46
4, 65280, Note_on_c, 0, 44, 46
4, 71040, Note_on_c, 0, 44, 0
4, 71040, Note_on_c, 0, 32, 0
4, 71040, Note_on_c, 0, 32, 56
4, 71040, Note_on_c, 0, 44, 56
4, 72960, Note_on_c, 0, 44, 0
4, 72960, Note_on_c, 0, 32, 0
4, 72960, Note_on_c, 0, 32, 47
4, 72960, Note_on_c, 0, 44, 47
4, 74880, Note_on_c, 0, 44, 0
4, 74880, Note_on_c, 0, 32, 0
4, 74880, Note_on_c, 0, 32, 42
4, 74880, Note_on_c, 0, 44, 42
4, 75840, Note_on_c, 0, 44, 0
4, 75840, Note_on_c, 0, 32, 0
4, 75840, Note_on_c, 0, 45, 41
4, 75840, Note_on_c, 0, 33, 41
4, 76800, Note_on_c, 0, 33, 0
4, 76800, Note_on_c, 0, 45, 0
4, 76800, Note_on_c, 0, 30, 35
4, 76800, Note_on_c, 0, 42, 35
4, 77760, Note_on_c, 0, 42, 0
4, 77760, Note_on_c, 0, 30, 0
4, 77760, Note_on_c, 0, 44, 46
4, 77760, Note_on_c, 0, 32, 46
4, 78720, Note_on_c, 0, 32, 0
4, 78720, Note_on_c, 0, 44, 0
4, 78720, Note_on_c, 0, 37, 41
4, 78720, Note_on_c, 0, 49, 41
4, 78720, Note_on_c, 0, 44, 41
4, 80640, Note_on_c, 0, 44, 0
4, 80640, Note_on_c, 0, 49, 0
4, 80640, Note_on_c, 0, 37, 0
4, 80640, Note_on_c, 0, 36, 46
4, 80640, Note_on_c, 0, 48, 46
4, 80640, Note_on_c, 0, 44, 46
4, 82560, Note_on_c, 0, 44, 0
4, 82560, Note_on_c, 0, 48, 0
4, 82560, Note_on_c, 0, 36, 0
4, 82560, Note_on_c, 0, 37, 46
4, 82560, Note_on_c, 0, 49, 46
4, 83520, Note_on_c, 0, 49, 0
4, 83520, Note_on_c, 0, 37, 0
4, 83520, Note_on_c, 0, 42, 46
4, 83520, Note_on_c, 0, 30, 46
4, 84480, Note_on_c, 0, 30, 0
4, 84480, Note_on_c, 0, 42, 0
4, 84480, Note_on_c, 0, 35, 46
4, 84480, Note_on_c, 0, 47, 46
4, 85440, Note_on_c, 0, 47, 0
4, 85440, Note_on_c, 0, 35, 0
4, 85440, Note_on_c, 0, 47, 46
4, 85440, Note_on_c, 0, 35, 46
4, 86400, Note_on_c, 0, 35, 0
4, 86400, Note_on_c, 0, 47, 0
4, 86400, Note_on_c, 0, 40, 45
4, 86400, Note_on_c, 0, 52, 45
4, 88320, Note_on_c, 0, 52, 0
4, 88320, Note_on_c, 0, 40, 0
4, 88320, Note_on_c, 0, 39, 35
4, 88320, Note_on_c, 0, 51, 35
4, 90240, Note_on_c, 0, 51, 0
4, 90240, Note_on_c, 0, 39, 0
4, 90240, Note_on_c, 0, 52, 37
4, 90240, Note_on_c, 0, 40, 37
4, 91200, Note_on_c, 0, 40, 0
4, 91200, Note_on_c, 0, 52, 0
4, 91200, Note_on_c, 0, 39, 37
4, 91200, Note_on_c, 0, 51, 37
4, 91680, Note_on_c, 0, 51, 0
4, 91680, Note_on_c, 0, 39, 0
4, 91680, Note_on_c, 0, 49, 40
4, 91680, Note_on_c, 0, 37, 40
4, 92160, Note_on_c, 0, 37, 0
4, 92160, Note_on_c, 0, 49, 0
4, 92160, Note_on_c, 0, 36, 45
4, 92160, Note_on_c, 0, 48, 45
4, 92160, Note_on_c, 0, 44, 45
4, 93120, Note_on_c, 0, 44, 0
4, 93120, Note_on_c, 0, 48, 0
4, 93120, Note_on_c, 0, 36, 0
4, 93120, Note_on_c, 0, 37, 38
4, 93120, Note_on_c, 0, 49, 38
4, 93120, Note_on_c, 0, 44, 38
4, 94080, Note_on_c, 0, 44, 0
4, 94080, Note_on_c, 0, 49, 0
4, 94080, Note_on_c, 0, 37, 0
4, 94080, Note_on_c, 0, 30, 41
4, 94080, Note_on_c, 0, 42, 41
4, 95040, Note_on_c, 0, 42, 0
4, 95040, Note_on_c, 0, 30, 0
4, 95040, Note_on_c, 0, 32, 41
4, 95040, Note_on_c, 0, 44, 41
4, 96000, Note_on_c, 0, 44, 0
4, 96000, Note_on_c, 0, 32, 0
4, 96000, Note_on_c, 0, 49, 38
4, 96000, Note_on_c, 0, 37, 38
4, 98400, Note_on_c, 0, 37, 0
4, 98400, Note_on_c, 0, 49, 0
4, 98400, Note_on_c, 0, 54, 47
4, 98400, Note_on_c, 0, 42, 47
4, 98880, Note_on_c, 0, 42, 0
4, 98880, Note_on_c, 0, 54, 0
4, 98880, Note_on_c, 0, 45, 56
4, 98880, Note_on_c, 0, 57, 56
4, 99360, Note_on_c, 0, 57, 0
4, 99360, Note_on_c, 0, 45, 0
4, 99360, Note_on_c, 0, 54, 50
4, 99360, Note_on_c, 0, 42, 50
4, 99840, Note_on_c, 0, 42, 0
4, 99840, Note_on_c, 0, 54, 0
4, 99840, Note_on_c, 0, 37, 41
4, 99840, Note_on_c, 0, 49, 41
4, 102240, Note_on_c, 0, 49, 0
4, 102240, Note_on_c, 0, 37, 0
4, 102240, Note_on_c, 0, 42, 48
4, 102240, Note_on_c, 0, 54, 48
4, 102720, Note_on_c, 0, 54, 0
4, 102720, Note_on_c, 0, 42, 0
4, 102720, Note_on_c, 0, 57, 57
4, 102720, Note_on_c, 0, 45, 57
4, 103200, Note_on_c, 0, 45, 0
4, 103200, Note_on_c, 0, 57, 0
4, 103200, Note_on_c, 0, 42, 48
4, 103200, Note_on_c, 0, 54, 48
4, 103680, Note_on_c, 0, 54, 0
4, 103680, Note_on_c, 0, 42, 0
4, 103680, Note_on_c, 0, 49, 40
4, 103680, Note_on_c, 0, 37, 40
4, 104640, Note_on_c, 0, 37, 0
4, 104640, Note_on_c, 0, 49, 0
4, 104640, Note_on_c, 0, 30, 42
4, 104640, Note_on_c, 0, 42, 42
4, 105600, Note_on_c, 0, 42, 0
4, 105600, Note_on_c, 0, 30, 0
4, 105600, Note_on_c, 0, 39, 45
4, 105600, Note_on_c, 0, 51, 45
4, 107040, Note_on_c, 0, 51, 0
4, 107040, Note_on_c, 0, 39, 0
4, 107040, Note_on_c, 0, 40, 41
4, 107040, Note_on_c, 0, 52, 41
4, 107520, Note_on_c, 0, 52, 0
4, 107520, Note_on_c, 0, 40, 0
4, 107520, Note_on_c, 0, 37, 46
4, 107520, Note_on_c, 0, 49, 46
4, 108000, Note_on_c, 0, 49, 0
4, 108000, Note_on_c, 0, 37, 0
4, 108000, Note_on_c, 0, 39, 40
4, 108000, Note_on_c, 0, 51, 40
4, 108480, Note_on_c, 0, 51, 0
4, 108480, Note_on_c, 0, 39, 0
4, 108480, Note_on_c, 0, 48, 46
4, 108480, Note_on_c, 0, 36, 46
4, 108960, Note_on_c, 0, 36, 0
4, 108960, Note_on_c, 0, 48, 0
4, 108960, Note_on_c, 0, 49, 40
4, 108960, Note_on_c, 0, 37, 40
4, 109440, Note_on_c, 0, 37, 0
4, 109440, Note_on_c, 0, 49, 0
4, 109440, Note_on_c, 0, 33, 46
4, 109440, Note_on_c, 0, 45, 46
4, 110400, Note_on_c, 0, 45, 0
4, 110400, Note_on_c, 0, 33, 0
4, 110400, Note_on_c, 0, 32, 50
4, 110400, Note_on_c, 0, 44, 50
4, 110880, Note_on_c, 0, 44, 0
4, 110880, Note_on_c, 0, 32, 0
4, 110880, Note_on_c, 0, 42, 57
4, 110880, Note_on_c, 0, 30, 57
4, 111360, Note_on_c, 0, 30, 0
4, 111360, Note_on_c, 0, 42, 0
4, 111360, Note_on_c, 0, 32, 46
4, 111360, Note_on_c, 0, 44, 46
4, 112320, Note_on_c, 0, 44, 0
4, 112320, Note_on_c, 0, 32, 0
4, 112320, Note_on_c, 0, 32, 46
4, 112320, Note_on_c, 0, 44, 46
4, 113280, Note_on_c, 0, 44, 0
4, 113280, Note_on_c, 0, 32, 0
4, 113280, Note_on_c, 0, 37, 37
4, 115200, Note_on_c, 0, 37, 0
4, 115200, Note_on_c, 0, 36, 37
4, 117120, Note_on_c, 0, 36, 0
4, 117120, Note_on_c, 0, 37, 37
4, 119040, Note_on_c, 0, 37, 0
4, 119040, Note_on_c, 0, 32, 37
4, 120960, Note_on_c, 0, 32, 0
4, 120960, Note_on_c, 0, 37, 37
4, 122880, Note_on_c, 0, 37, 0
4, 122880, Note_on_c, 0, 32, 37
4, 124800, Note_on_c, 0, 32, 0
4, 124800, Note_on_c, 0, 37, 37
4, 127680, Note_on_c, 0, 37, 0
4, 129600, Note_on_c, 0, 44, 26
4, 129600, Note_on_c, 0, 49, 31
4, 129600, Note_on_c, 0, 37, 26
4, 130560, Note_on_c, 0, 37, 0
4, 130560, Note_on_c, 0, 49, 0
4, 130560, Note_on_c, 0, 44, 0
4, 130560, Note_on_c, 0, 44, 26
4, 130560, Note_on_c, 0, 49, 31
4, 130560, Note_on_c, 0, 37, 26
4, 132480, Note_on_c, 0, 37, 0
4, 132480, Note_on_c, 0, 49, 0
4, 132480, Note_on_c, 0, 44, 0
4, 132480, End_track
5, 0, Start_track
5, 0, Title_t, "Pedal"
5, 113, Control_c, 0, 64, 127
5, 1930, Control_c, 0, 64, 0
5, 2047, Control_c, 0, 64, 127
5, 3850, Control_c, 0, 64, 0
5, 3937, Control_c, 0, 64, 127
5, 4818, Control_c, 0, 64, 0
5, 4897, Control_c, 0, 64, 127
5, 5777, Control_c, 0, 64, 0
5, 5857, Control_c, 0, 64, 127
5, 6277, Control_c, 0, 64, 0
5, 6332, Control_c, 0, 64, 127
5, 6734, Control_c, 0, 64, 0
5, 6823, Control_c, 0, 64, 127
5, 7212, Control_c, 0, 64, 0
5, 7292, Control_c, 0, 64, 127
5, 7697, Control_c, 0, 64, 0
5, 7800, Control_c, 0, 64, 127
5, 9611, Control_c, 0, 64, 0
5, 9727, Control_c, 0, 64, 127
5, 11531, Control_c, 0, 64, 0
5, 11605, Control_c, 0, 64, 127
5, 12498, Control_c, 0, 64, 0
5, 12614, Control_c, 0, 64, 127
5, 13457, Control_c, 0, 64, 0
5, 13539, Control_c, 0, 64, 127
5, 14413, Control_c, 0, 64, 0
5, 14513, Control_c, 0, 64, 127
5, 15376, Control_c, 0, 64, 0
5, 15473, Control_c, 0, 64, 127
5, 15857, Control_c, 0, 64, 0
5, 15953, Control_c, 0, 64, 127
5, 17289, Control_c, 0, 64, 0
5, 17355, Control_c, 0, 64, 127
5, 19212, Control_c, 0, 64, 0
5, 19292, Control_c, 0, 64, 127
5, 21136, Control_c, 0, 64, 0
5, 21200, Control_c, 0, 64, 127
5, 21615, Control_c, 0, 64, 0
5, 21680, Control_c, 0, 64, 127
5, 22100, Control_c, 0, 64, 0
5, 22189, Control_c, 0, 64, 127
5, 22573, Control_c, 0, 64, 0
5, 22635, Control_c, 0, 64, 127
5, 23055, Control_c, 0, 64, 0
5, 23132, Control_c, 0, 64, 127
5, 24013, Control_c, 0, 64, 0
5, 24092, Control_c, 0, 64, 127
5, 24976, Control_c, 0, 64, 0
5, 25029, Control_c, 0, 64, 127
5, 25937, Control_c, 0, 64, 0
5, 26017, Control_c, 0, 64, 127
5, 26892, Control_c, 0, 64, 0
5, 26960, Control_c, 0, 64, 127
5, 27856, Control_c, 0, 64, 0
5, 27897, Control_c, 0, 64, 127
5, 28817, Control_c, 0, 64, 0
5, 28857, Control_c, 0, 64, 127
5, 30259, Control_c, 0, 64, 0
5, 30320, Control_c, 0, 64, 127
5, 30738, Control_c, 0, 64, 0
5, 30847, Control_c, 0, 64, 127
5, 32656, Control_c, 0, 64, 0
5, 32697, Control_c, 0, 64, 127
5, 34098, Control_c, 0, 64, 0
5, 34160, Control_c, 0, 64, 127
5, 34575, Control_c, 0, 64, 0
5, 34617, Control_c, 0, 64, 127
5, 35536, Control_c, 0, 64, 0
5, 35635, Control_c, 0, 64, 127
5, 36494, Control_c, 0, 64, 0
5, 36586, Control_c, 0, 64, 127
5, 37453, Control_c, 0, 64, 0
5, 37546, Control_c, 0, 64, 127
5, 38409, Control_c, 0, 64, 0
5, 38497, Control_c, 0, 64, 127
5, 39375, Control_c, 0, 64, 0
5, 39457, Control_c, 0, 64, 127
5, 40333, Control_c, 0, 64, 0
5, 40412, Control_c, 0, 64, 127
5, 41295, Control_c, 0, 64, 0
5, 41366, Control_c, 0, 64, 127
5, 41773, Control_c, 0, 64, 0
5, 41829, Control_c, 0, 64, 127
5, 42254, Control_c, 0, 64, 0
5, 42353, Control_c, 0, 64, 127
5, 44179, Control_c, 0, 64, 0
5, 44252, Control_c, 0, 64, 127
5, 46093, Control_c, 0, 64, 0
5, 46160, Control_c, 0, 64, 127
5, 47056, Control_c, 0, 64, 0
5, 47126, Control_c, 0, 64, 127
5, 47538, Control_c, 0, 64, 0
5, 47629, Control_c, 0, 64, 127
5, 48016, Control_c, 0, 64, 0
5, 48106, Control_c, 0, 64, 127
5, 49936, Control_c, 0, 64, 0
5, 49983, Control_c, 0, 64, 127
5, 50903, Control_c, 0, 64, 0
5, 51006, Control_c, 0, 64, 127
5, 51378, Control_c, 0, 64, 0
5, 51452, Control_c, 0, 64, 127
5, 51858, Control_c, 0, 64, 0
5, 51926, Control_c, 0, 64, 127
5, 52336, Control_c, 0, 64, 0
5, 52406, Control_c, 0, 64, 127
5, 52813, Control_c, 0, 64, 0
5, 52886, Control_c, 0, 64, 127
5, 53292, Control_c, 0, 64, 0
5, 53355, Control_c, 0, 64, 127
5, 53775, Control_c, 0, 64, 0
5, 53852, Control_c, 0, 64, 127
5, 54260, Control_c, 0, 64, 0
5, 54332, Control_c, 0, 64, 127
5, 54739, Control_c, 0, 64, 0
5, 54800, Control_c, 0, 64, 127
5, 55212, Control_c, 0, 64, 0
5, 55286, Control_c, 0, 64, 127
5, 55694, Control_c, 0, 64, 0
5, 55814, Control_c, 0, 64, 127
5, 56178, Control_c, 0, 64, 0
5, 56259, Control_c, 0, 64, 127
5, 56658, Control_c, 0, 64, 0
5, 56746, Control_c, 0, 64, 127
5, 57137, Control_c, 0, 64, 0
5, 57247, Control_c, 0, 64, 127
5, 57614, Control_c, 0, 64, 0
5, 57685, Control_c, 0, 64, 127
5, 58096, Control_c, 0, 64, 0
5, 58179, Control_c, 0, 64, 127
5, 58577, Control_c, 0, 64, 0
5, 58631, Control_c, 0, 64, 127
5, 59060, Control_c, 0, 64, 0
5, 59132, Control_c, 0, 64, 127
5, 59540, Control_c, 0, 64, 0
5, 59600, Control_c, 0, 64, 127
5, 60017, Control_c, 0, 64, 0
5, 60075, Control_c, 0, 64, 127
5, 60338, Control_c, 0, 64, 0
5, 60406, Control_c, 0, 64, 127
5, 60660, Control_c, 0, 64, 0
5, 60726, Control_c, 0, 64, 127
5, 60976, Control_c, 0, 64, 0
5, 61029, Control_c, 0, 64, 127
5, 61297, Control_c, 0, 64, 0
5, 61349, Control_c, 0, 64, 127
5, 61444, Control_c, 0, 64, 0
5, 61560, Control_c, 0, 64, 127
5, 63360, Control_c, 0, 64, 0
5, 63429, Control_c, 0, 64, 127
5, 63536, Control_c, 0, 64, 0
5, 63595, Control_c, 0, 64, 127
5, 63857, Control_c, 0, 64, 0
5, 63903, Control_c, 0, 64, 127
5, 64173, Control_c, 0, 64, 0
5, 64240, Control_c, 0, 64, 127
5, 64497, Control_c, 0, 64, 0
5, 64577, Control_c, 0, 64, 127
5, 64815, Control_c, 0, 64, 0
5, 64863, Control_c, 0, 64, 127
5, 65132, Control_c, 0, 64, 0
5, 65183, Control_c, 0, 64, 127
5, 65295, Control_c, 0, 64, 0
5, 65360, Control_c, 0, 64, 127
5, 65462, Control_c, 0, 64, 0
5, 65515, Control_c, 0, 64, 127
5, 65775, Control_c, 0, 64, 0
5, 65829, Control_c, 0, 64, 127
5, 66098, Control_c, 0, 64, 0
5, 66137, Control_c, 0, 64, 127
5, 66413, Control_c, 0, 64, 0
5, 66463, Control_c, 0, 64, 127
5, 66735, Control_c, 0, 64, 0
5, 66795, Control_c, 0, 64, 127
5, 67056, Control_c, 0, 64, 0
5, 67115, Control_c, 0, 64, 127
5, 67208, Control_c, 0, 64, 0
5, 67286, Control_c, 0, 64, 127
5, 68010, Control_c, 0, 64, 0
5, 68086, Control_c, 0, 64, 127
5, 68978, Control_c, 0, 64, 0
5, 69063, Control_c, 0, 64, 127
5, 69939, Control_c, 0, 64, 0
5, 69978, Control_c, 0, 64, 127
5, 70257, Control_c, 0, 64, 0
5, 70303, Control_c, 0, 64, 127
5, 70576, Control_c, 0, 64, 0
5, 70617, Control_c, 0, 64, 127
5, 71080, Control_c, 0, 64, 0
5, 71137, Control_c, 0, 64, 127
5, 71538, Control_c, 0, 64, 0
5, 71595, Control_c, 0, 64, 127
5, 72015, Control_c, 0, 64, 0
5, 72075, Control_c, 0, 64, 127
5, 72492, Control_c, 0, 64, 0
5, 72549, Control_c, 0, 64, 127
5, 72977, Control_c, 0, 64, 0
5, 73040, Control_c, 0, 64, 127
5, 73457, Control_c, 0, 64, 0
5, 73555, Control_c, 0, 64, 127
5, 73936, Control_c, 0, 64, 0
5, 74006, Control_c, 0, 64, 127
5, 74419, Control_c, 0, 64, 0
5, 74475, Control_c, 0, 64, 127
5, 74898, Control_c, 0, 64, 0
5, 74949, Control_c, 0, 64, 127
5, 75372, Control_c, 0, 64, 0
5, 75452, Control_c, 0, 64, 127
5, 75852, Control_c, 0, 64, 0
5, 75920, Control_c, 0, 64, 127
5, 76820, Control_c, 0, 64, 0
5, 76903, Control_c, 0, 64, 127
5, 77780, Control_c, 0, 64, 0
5, 77869, Control_c, 0, 64, 127
5, 78257, Control_c, 0, 64, 0
5, 78320, Control_c, 0, 64, 127
5, 78733, Control_c, 0, 64, 0
5, 78812, Control_c, 0, 64, 127
5, 80656, Control_c, 0, 64, 0
5, 80718, Control_c, 0, 64, 127
5, 82571, Control_c, 0, 64, 0
5, 82673, Control_c, 0, 64, 127
5, 83538, Control_c, 0, 64, 0
5, 83612, Control_c, 0, 64, 127
5, 84492, Control_c, 0, 64, 0
5, 84558, Control_c, 0, 64, 127
5, 85456, Control_c, 0, 64, 0
5, 85532, Control_c, 0, 64, 127
5, 86418, Control_c, 0, 64, 0
5, 86471, Control_c, 0, 64, 127
5, 86891, Control_c, 0, 64, 0
5, 87000, Control_c, 0, 64, 127
5, 88341, Control_c, 0, 64, 0
5, 88405, Control_c, 0, 64, 127
5, 90250, Control_c, 0, 64, 0
5, 90326, Control_c, 0, 64, 127
5, 91219, Control_c, 0, 64, 0
5, 91280, Control_c, 0, 64, 127
5, 91695, Control_c, 0, 64, 0
5, 91749, Control_c, 0, 64, 127
5, 92168, Control_c, 0, 64, 0
5, 92273, Control_c, 0, 64, 127
5, 93138, Control_c, 0, 64, 0
5, 93233, Control_c, 0, 64, 127
5, 94099, Control_c, 0, 64, 0
5, 94155, Control_c, 0, 64, 127
5, 95059, Control_c, 0, 64, 0
5, 95155, Control_c, 0, 64, 127
5, 96018, Control_c, 0, 64, 0
5, 96069, Control_c, 0, 64, 127
5, 96977, Control_c, 0, 64, 0
5, 97057, Control_c, 0, 64, 127
5, 97930, Control_c, 0, 64, 0
5, 97998, Control_c, 0, 64, 127
5, 99859, Control_c, 0, 64, 0
5, 99937, Control_c, 0, 64, 127
5, 101771, Control_c, 0, 64, 0
5, 101873, Control_c, 0, 64, 127
5, 103697, Control_c, 0, 64, 0
5, 103760, Control_c, 0, 64, 127
5, 104657, Control_c, 0, 64, 0
5, 104743, Control_c, 0, 64, 127
5, 105615, Control_c, 0, 64, 0
5, 105671, Control_c, 0, 64, 127
5, 107057, Control_c, 0, 64, 0
5, 107125, Control_c, 0, 64, 127
5, 107528, Control_c, 0, 64, 0
5, 107591, Control_c, 0, 64, 127
5, 108016, Control_c, 0, 64, 0
5, 108099, Control_c, 0, 64, 127
5, 108498, Control_c, 0, 64, 0
5, 108572, Control_c, 0, 64, 127
5, 108973, Control_c, 0, 64, 0
5, 109045, Control_c, 0, 64, 127
5, 109449, Control_c, 0, 64, 0
5, 109504, Control_c, 0, 64, 127
5, 110415, Control_c, 0, 64, 0
5, 110492, Control_c, 0, 64, 127
5, 110898, Control_c, 0, 64, 0
5, 110972, Control_c, 0, 64, 127
5, 111378, Control_c, 0, 64, 0
5, 111412, Control_c, 0, 64, 127
5, 112335, Control_c, 0, 64, 0
5, 112412, Control_c, 0, 64, 127
5, 112807, Control_c, 0, 64, 0
5, 112892, Control_c, 0, 64, 127
5, 113291, Control_c, 0, 64, 0
5, 113393, Control_c, 0, 64, 127
5, 113779, Control_c, 0, 64, 0
5, 113852, Control_c, 0, 64, 127
5, 115209, Control_c, 0, 64, 0
5, 115278, Control_c, 0, 64, 127
5, 117137, Control_c, 0, 64, 0
5, 117191, Control_c, 0, 64, 127
5, 119048, Control_c, 0, 64, 0
5, 119100, Control_c, 0, 64, 127
5, 120978, Control_c, 0, 64, 0
5, 121052, Control_c, 0, 64, 127
5, 122888, Control_c, 0, 64, 0
5, 122944, Control_c, 0, 64, 127
5, 124814, Control_c, 0, 64, 0
5, 124892, Control_c, 0, 64, 127
5, 125779, Control_c, 0, 64, 0
5, 125852, Control_c, 0, 64, 127
5, 126736, Control_c, 0, 64, 0
5, 126791, Control_c, 0, 64, 127
5, 127696, Control_c, 0, 64, 0
5, 127779, Control_c, 0, 64, 127
5, 133707, Control_c, 0, 64, 0
5, 133707, End_track
6, 0, Start_track
6, 0, Title_t, "Beethoven: Sonate Nr. 14 cis-moll, Op. 27/2 - 1. Satz"
6, 0, End_track
7, 0, Start_track
7, 0, Title_t, "Copyright © 1998 by Bernd Krueger"
7, 0, End_track
8, 0, Start_track
8, 0, Title_t, "http://www.piano-midi.de"
8, 0, End_track
9, 0, Start_track
9, 0, Title_t, "Edition: 2012-06-03"
9, 0, End_track
0, 0, End_of_file
