0, 0, Header, 1, 10, 480
1, 0, Start_track
1, 0, Title_t, "Beethoven Sonata No. 8 in C minor ""Pathetique"""
1, 0, Title_t, "2. Movement"
1, 0, Copyright_t, "Copyright © 2003 by Bernd Krueger "
1, 0, Text_t, "Ludwig van Beethoven"
1, 0, Text_t, "Adagio cantabile"
1, 0, Text_t, "Fertiggestellt am 30.12.2003\012"
1, 0, Text_t, "Update am 18.12.2011\012"
1, 0, Text_t, "Update am 17.5.2012\012"
1, 0, Text_t, "Dauer: 5:12 Minuten\012"
1, 0, SMPTE_offset, 96, 0, 3, 0, 0
1, 0, Time_signature, 2, 2, 24, 8
1, 0, Key_signature, -4, "major"
1, 0, Tempo, 2249719
1, 360, Tempo, 2315708
1, 480, Tempo, 2290076
1, 600, Tempo, 2155947
1, 720, Tempo, 2242152
1, 840, Tempo, 2315708
1, 960, Tempo, 2249719
1, 1080, Tempo, 2120141
1, 1200, Tempo, 2186589
1, 1440, Tempo, 2149767
1, 1800, Tempo, 2290076
1, 1920, Tempo, 2249719
1, 2040, Tempo, 2120141
1, 2160, Tempo, 2178649
1, 2400, Tempo, 2218115
1, 2520, Tempo, 2256487
1, 2640, Tempo, 2306805
1, 2760, Tempo, 2358491
1, 2880, Tempo, 2249719
1, 3000, Tempo, 2209945
1, 3120, Tempo, 2142092
1, 3360, Tempo, 2171553
1, 3480, Tempo, 2178649
1, 3600, Tempo, 2290076
1, 3720, Tempo, 2350176
1, 3840, Tempo, 2249719
1, 3960, Tempo, 2112676
1, 4080, Tempo, 2186589
1, 4200, Tempo, 2315708
1, 4320, Tempo, 2249719
1, 4440, Tempo, 2106002
1, 4560, Tempo, 2171553
1, 4680, Tempo, 2315708
1, 4800, Tempo, 2249719
1, 4920, Tempo, 2098636
1, 5040, Tempo, 2186589
1, 5160, Tempo, 2341007
1, 5280, Tempo, 2249719
1, 5400, Tempo, 2106002
1, 5520, Tempo, 2194587
1, 5640, Tempo, 2324680
1, 5760, Tempo, 2249719
1, 5880, Tempo, 2106002
1, 6000, Tempo, 2194587
1, 6120, Tempo, 2315708
1, 6240, Tempo, 2265006
1, 6350, Tempo, 2249719
1, 6360, Tempo, 2209945
1, 6480, Tempo, 2315708
1, 6600, Tempo, 2384738
1, 6720, Tempo, 2358491
1, 6840, Tempo, 2315708
1, 6960, Tempo, 2358491
1, 7080, Tempo, 2469136
1, 7600, Tempo, 2772643
1, 7680, Tempo, 2249719
1, 8040, Tempo, 2315708
1, 8160, Tempo, 2249719
1, 8280, Tempo, 2120141
1, 8400, Tempo, 2194587
1, 8520, Tempo, 2315708
1, 8640, Tempo, 2249719
1, 8760, Tempo, 2120141
1, 8880, Tempo, 2186589
1, 9120, Tempo, 2149767
1, 9480, Tempo, 2290076
1, 9600, Tempo, 2249719
1, 9720, Tempo, 2120141
1, 9840, Tempo, 2178649
1, 10080, Tempo, 2218115
1, 10200, Tempo, 2256487
1, 10320, Tempo, 2306805
1, 10440, Tempo, 2358491
1, 10560, Tempo, 2249719
1, 10680, Tempo, 2209945
1, 10800, Tempo, 2142092
1, 11040, Tempo, 2171553
1, 11160, Tempo, 2178649
1, 11280, Tempo, 2290076
1, 11400, Tempo, 2350176
1, 11520, Tempo, 2249719
1, 11640, Tempo, 2112676
1, 11760, Tempo, 2186589
1, 11880, Tempo, 2315708
1, 12000, Tempo, 2249719
1, 12120, Tempo, 2106002
1, 12240, Tempo, 2171553
1, 12360, Tempo, 2315708
1, 12480, Tempo, 2249719
1, 12600, Tempo, 2098636
1, 12720, Tempo, 2186589
1, 12840, Tempo, 2341007
1, 12960, Tempo, 2249719
1, 13080, Tempo, 2106002
1, 13200, Tempo, 2194587
1, 13320, Tempo, 2324680
1, 13440, Tempo, 2249719
1, 13560, Tempo, 2106002
1, 13680, Tempo, 2194587
1, 13800, Tempo, 2315708
1, 13920, Tempo, 2265006
1, 14030, Tempo, 2249719
1, 14040, Tempo, 2209945
1, 14160, Tempo, 2315708
1, 14280, Tempo, 2384738
1, 14400, Tempo, 2358491
1, 14520, Tempo, 2315708
1, 14640, Tempo, 2358491
1, 14760, Tempo, 2469136
1, 15120, Tempo, 2142092
1, 15360, Tempo, 2249719
1, 15480, Tempo, 2142092
1, 15840, Tempo, 2249719
1, 15960, Tempo, 2149767
1, 16200, Tempo, 2358491
1, 16320, Tempo, 2194587
1, 16440, Tempo, 2155947
1, 16800, Tempo, 2249719
1, 16920, Tempo, 2163722
1, 17160, Tempo, 2358491
1, 17280, Tempo, 2249719
1, 17400, Tempo, 2163722
1, 17760, Tempo, 2201835
1, 17880, Tempo, 2163722
1, 18120, Tempo, 2350176
1, 18240, Tempo, 2273588
1, 18360, Tempo, 2209945
1, 18480, Tempo, 2163722
1, 18600, Tempo, 2371542
1, 18720, Tempo, 2218115
1, 18840, Tempo, 2394254
1, 18960, Tempo, 2290076
1, 19140, Tempo, 2508361
1, 19200, Time_signature, 9, 4, 6, 8
1, 19200, Tempo, 2249719
1, 19680, Tempo, 2186589
1, 19800, Tempo, 2265006
1, 19920, Tempo, 2214022
1, 20040, Tempo, 2163722
1, 20100, Tempo, 1974334
1, 20160, Tempo, 2209945
1, 20170, Tempo, 2225519
1, 20180, Tempo, 2249719
1, 20190, Tempo, 2273588
1, 20200, Tempo, 2298851
1, 20210, Tempo, 2324680
1, 20220, Tempo, 2350176
1, 20230, Tempo, 2376238
1, 20240, Tempo, 2403846
1, 20250, Tempo, 2432104
1, 20260, Tempo, 2461034
1, 20270, Tempo, 2488594
1, 20280, Time_signature, 2, 2, 24, 8
1, 20280, Tempo, 2324680
1, 20330, Tempo, 2479339
1, 20400, Tempo, 2332815
1, 20520, Tempo, 2249719
1, 21120, Tempo, 2332815
1, 21240, Tempo, 2249719
1, 21720, Tempo, 2194587
1, 22080, Tempo, 2315708
1, 22200, Tempo, 2218115
1, 22560, Tempo, 2256487
1, 22680, Tempo, 2218115
1, 23040, Tempo, 2341007
1, 23160, Tempo, 2242152
1, 23640, Tempo, 2194587
1, 24000, Tempo, 2315708
1, 24120, Tempo, 2218115
1, 24480, Tempo, 2256487
1, 24600, Tempo, 2218115
1, 24960, Tempo, 2341007
1, 25080, Tempo, 2273588
1, 25920, Tempo, 2412545
1, 26040, Tempo, 2265006
1, 26400, Tempo, 2341007
1, 26520, Tempo, 2390438
1, 26540, Tempo, 2400000
1, 26560, Tempo, 2409639
1, 26580, Tempo, 2419355
1, 26600, Tempo, 2429150
1, 26620, Tempo, 2439024
1, 26640, Tempo, 2448980
1, 26660, Tempo, 2459016
1, 26680, Tempo, 2469136
1, 26700, Tempo, 2479339
1, 26720, Tempo, 2489627
1, 26740, Tempo, 2500000
1, 26760, Tempo, 2510460
1, 26780, Tempo, 2521008
1, 26800, Tempo, 2531646
1, 26820, Tempo, 2542373
1, 26840, Tempo, 2553191
1, 26860, Tempo, 2564103
1, 26870, Tempo, 2850356
1, 26880, Tempo, 3092784
1, 27000, Tempo, 2306805
1, 27360, Tempo, 2315708
1, 27480, Tempo, 2298851
1, 27600, Tempo, 2155947
1, 27720, Tempo, 2233805
1, 27840, Tempo, 2315708
1, 27960, Tempo, 2249719
1, 28080, Tempo, 2120141
1, 28200, Tempo, 2186589
1, 28440, Tempo, 2149767
1, 28800, Tempo, 2290076
1, 28920, Tempo, 2249719
1, 29040, Tempo, 2120141
1, 29160, Tempo, 2178649
1, 29400, Tempo, 2218115
1, 29520, Tempo, 2256487
1, 29640, Tempo, 2306805
1, 29760, Tempo, 2358491
1, 29880, Tempo, 2249719
1, 30000, Tempo, 2209945
1, 30120, Tempo, 2142092
1, 30360, Tempo, 2171553
1, 30480, Tempo, 2178649
1, 30600, Tempo, 2290076
1, 30720, Tempo, 2350176
1, 30840, Tempo, 2249719
1, 30960, Tempo, 2112676
1, 31080, Tempo, 2186589
1, 31200, Tempo, 2315708
1, 31320, Tempo, 2249719
1, 31440, Tempo, 2106002
1, 31560, Tempo, 2171553
1, 31680, Tempo, 2315708
1, 31800, Tempo, 2249719
1, 31920, Tempo, 2098636
1, 32040, Tempo, 2186589
1, 32160, Tempo, 2341007
1, 32280, Tempo, 2249719
1, 32400, Tempo, 2106002
1, 32520, Tempo, 2194587
1, 32640, Tempo, 2324680
1, 32760, Tempo, 2249719
1, 32880, Tempo, 2106002
1, 33000, Tempo, 2194587
1, 33120, Tempo, 2315708
1, 33240, Tempo, 2265006
1, 33350, Tempo, 2249719
1, 33360, Tempo, 2209945
1, 33480, Tempo, 2315708
1, 33600, Tempo, 2384738
1, 33720, Tempo, 2358491
1, 33840, Tempo, 2315708
1, 33960, Tempo, 2358491
1, 34080, Tempo, 2469136
1, 34440, Tempo, 1910828
1, 34680, Tempo, 1699717
1, 35160, Tempo, 1662050
1, 35400, Tempo, 1604278
1, 35880, Tempo, 1566580
1, 36120, Tempo, 1566580
1, 36180, Tempo, 1543607
1, 36600, Tempo, 1600427
1, 37800, Tempo, 1566580
1, 38040, Tempo, 1566580
1, 38100, Tempo, 1543607
1, 38520, Tempo, 1600427
1, 39480, Tempo, 1602564
1, 39720, Tempo, 1625135
1, 39960, Tempo, 1598721
1, 40200, Tempo, 1629992
1, 40440, Tempo, 1598721
1, 40680, Tempo, 1629992
1, 41400, Tempo, 1622499
1, 41480, Tempo, 1618123
1, 41520, Tempo, 1613771
1, 41600, Tempo, 1622499
1, 41640, Tempo, 1631321
1, 41680, Tempo, 1635769
1, 41720, Tempo, 1631321
1, 41760, Tempo, 1626898
1, 41800, Tempo, 1622499
1, 41880, Tempo, 1613771
1, 42040, Tempo, 1622499
1, 42080, Tempo, 1631321
1, 42120, Tempo, 1635769
1, 42200, Tempo, 1631321
1, 42240, Tempo, 1622499
1, 42360, Tempo, 1646091
1, 42840, Tempo, 1600427
1, 43560, Tempo, 1566580
1, 43800, Tempo, 1566580
1, 43860, Tempo, 1543607
1, 44280, Tempo, 1646091
1, 44760, Tempo, 1600427
1, 45240, Tempo, 1648352
1, 45720, Tempo, 1602992
1, 45960, Tempo, 1643385
1, 46200, Tempo, 1646542
1, 46680, Tempo, 1607286
1, 46920, Tempo, 1643385
1, 47160, Tempo, 1648352
1, 47640, Tempo, 1615944
1, 47880, Tempo, 1665741
1, 47890, Tempo, 1670844
1, 47900, Tempo, 1675978
1, 47910, Tempo, 1680672
1, 47920, Tempo, 1685393
1, 47930, Tempo, 1690617
1, 47940, Tempo, 1694915
1, 47950, Tempo, 1699717
1, 47960, Tempo, 1705030
1, 47970, Tempo, 1709889
1, 47980, Tempo, 1714776
1, 47990, Tempo, 1720183
1, 48000, Tempo, 1729605
1, 48010, Tempo, 1735107
1, 48020, Tempo, 1739635
1, 48030, Tempo, 1745201
1, 48040, Tempo, 2148228
1, 48110, Tempo, 1787310
1, 48120, Tempo, 1817631
1, 48480, Tempo, 1870324
1, 48600, Tempo, 1849568
1, 48720, Tempo, 1741655
1, 48840, Tempo, 1810501
1, 48960, Tempo, 1870324
1, 49080, Tempo, 1817631
1, 49200, Tempo, 1712818
1, 49320, Tempo, 1765745
1, 49560, Tempo, 1736111
1, 49920, Tempo, 1849568
1, 50040, Tempo, 1817631
1, 50160, Tempo, 1712818
1, 50280, Tempo, 1760047
1, 50520, Tempo, 1791045
1, 50640, Tempo, 1823708
1, 50760, Tempo, 1863354
1, 50880, Tempo, 1905367
1, 51000, Tempo, 1817631
1, 51120, Tempo, 1784652
1, 51240, Tempo, 1730603
1, 51480, Tempo, 1754386
1, 51600, Tempo, 1760047
1, 51720, Tempo, 1849568
1, 51840, Tempo, 1898734
1, 51960, Tempo, 1817631
1, 52080, Tempo, 1706485
1, 52200, Tempo, 1765745
1, 52320, Tempo, 1870324
1, 52440, Tempo, 1817631
1, 52560, Tempo, 1701162
1, 52680, Tempo, 1754386
1, 52800, Tempo, 1870324
1, 52920, Tempo, 1817631
1, 53040, Tempo, 1696353
1, 53160, Tempo, 1765745
1, 53280, Tempo, 1891551
1, 53400, Tempo, 1817631
1, 53520, Tempo, 1701162
1, 53640, Tempo, 1772526
1, 53760, Tempo, 1876759
1, 53880, Tempo, 1817631
1, 54000, Tempo, 1701162
1, 54120, Tempo, 1772526
1, 54240, Tempo, 1870324
1, 54360, Tempo, 1829268
1, 54470, Tempo, 1817631
1, 54480, Tempo, 1784652
1, 54600, Tempo, 1870324
1, 54720, Tempo, 1927401
1, 54840, Tempo, 1905367
1, 54960, Tempo, 1870324
1, 55080, Tempo, 1905367
1, 55200, Tempo, 1994681
1, 55720, Tempo, 2241315
1, 55800, Tempo, 1851852
1, 55880, Tempo, 1801802
1, 56160, Tempo, 1870324
1, 56280, Tempo, 1817631
1, 56400, Tempo, 1734104
1, 56520, Tempo, 1796407
1, 56640, Tempo, 1870324
1, 56760, Tempo, 1817631
1, 56880, Tempo, 1712818
1, 57000, Tempo, 1765745
1, 57240, Tempo, 1736111
1, 57600, Tempo, 1849568
1, 57720, Tempo, 1817631
1, 57840, Tempo, 1712818
1, 57960, Tempo, 1760047
1, 58200, Tempo, 1791045
1, 58320, Tempo, 1823708
1, 58440, Tempo, 1863354
1, 58560, Tempo, 1905367
1, 58680, Tempo, 1817631
1, 58800, Tempo, 1784652
1, 58920, Tempo, 1730603
1, 59160, Tempo, 1754386
1, 59280, Tempo, 1760047
1, 59400, Tempo, 1849568
1, 59520, Tempo, 1898734
1, 59640, Tempo, 1817631
1, 59760, Tempo, 1706485
1, 59880, Tempo, 1765745
1, 60000, Tempo, 1870324
1, 60120, Tempo, 1817631
1, 60240, Tempo, 1701162
1, 60360, Tempo, 1754386
1, 60480, Tempo, 1870324
1, 60600, Tempo, 1817631
1, 60720, Tempo, 1696353
1, 60840, Tempo, 1765745
1, 60960, Tempo, 1891551
1, 61080, Tempo, 1817631
1, 61200, Tempo, 1701162
1, 61320, Tempo, 1772526
1, 61440, Tempo, 1876759
1, 61560, Tempo, 1817631
1, 61680, Tempo, 1701162
1, 61800, Tempo, 1772526
1, 61920, Tempo, 1870324
1, 62040, Tempo, 1829268
1, 62150, Tempo, 1817631
1, 62160, Tempo, 1784652
1, 62280, Tempo, 1870324
1, 62400, Tempo, 1927401
1, 62520, Tempo, 2358491
1, 62640, Tempo, 2315708
1, 62760, Tempo, 2358491
1, 62880, Tempo, 2422285
1, 63000, Tempo, 2358491
1, 63240, Tempo, 2358491
1, 63360, Tempo, 2441009
1, 63480, Tempo, 2358491
1, 63660, Tempo, 2450980
1, 63720, Tempo, 2358491
1, 63960, Tempo, 2358491
1, 64000, Tempo, 2366864
1, 64040, Tempo, 2376238
1, 64080, Tempo, 2384738
1, 64120, Tempo, 2394254
1, 64160, Tempo, 2403846
1, 64190, Tempo, 2412545
1, 64200, Tempo, 2358491
1, 64440, Tempo, 2358491
1, 64600, Tempo, 2419355
1, 64660, Tempo, 2643172
1, 64680, Tempo, 2352941
1, 64920, Tempo, 2358491
1, 65160, Tempo, 2358491
1, 65280, Tempo, 2441009
1, 65400, Tempo, 2358491
1, 65580, Tempo, 2450980
1, 65640, Tempo, 2358491
1, 65880, Tempo, 2358491
1, 65920, Tempo, 2366864
1, 65960, Tempo, 2376238
1, 66000, Tempo, 2384738
1, 66040, Tempo, 2394254
1, 66080, Tempo, 2403846
1, 66110, Tempo, 2412545
1, 66120, Tempo, 2358491
1, 66360, Tempo, 2358491
1, 67080, Tempo, 2358491
1, 67090, Tempo, 2366864
1, 67100, Tempo, 2376238
1, 67110, Tempo, 2384738
1, 67120, Tempo, 2394254
1, 67130, Tempo, 2403846
1, 67140, Tempo, 2412545
1, 67150, Tempo, 2422285
1, 67160, Tempo, 2432104
1, 67170, Tempo, 2441009
1, 67180, Tempo, 2450980
1, 67190, Tempo, 2461034
1, 67200, Tempo, 2469136
1, 67210, Tempo, 2479339
1, 67220, Tempo, 2488594
1, 67230, Tempo, 2498959
1, 67240, Tempo, 2518892
1, 67320, Tempo, 2358491
1, 68040, Tempo, 2358491
1, 68050, Tempo, 2366864
1, 68060, Tempo, 2384738
1, 68070, Tempo, 2394254
1, 68080, Tempo, 2412545
1, 68090, Tempo, 2422285
1, 68100, Tempo, 2441009
1, 68110, Tempo, 2461034
1, 68120, Tempo, 2469136
1, 68130, Tempo, 2488594
1, 68140, Tempo, 2498959
1, 68150, Tempo, 2518892
1, 68160, Tempo, 2529511
1, 68170, Tempo, 2549936
1, 68180, Tempo, 2570694
1, 68280, Tempo, 2358491
1, 69000, Tempo, 2350176
1, 69010, Tempo, 2358491
1, 69020, Tempo, 2366864
1, 69030, Tempo, 2384738
1, 69040, Tempo, 2394254
1, 69050, Tempo, 2403846
1, 69060, Tempo, 2422285
1, 69070, Tempo, 2432104
1, 69080, Tempo, 2450980
1, 69090, Tempo, 2461034
1, 69100, Tempo, 2469136
1, 69110, Tempo, 2488594
1, 69120, Tempo, 2498959
1, 69130, Tempo, 2508361
1, 69140, Tempo, 2529511
1, 69150, Tempo, 2539145
1, 69160, Tempo, 2560819
1, 69170, Tempo, 2570694
1, 69180, Tempo, 2581756
1, 69190, Tempo, 2603037
1, 69200, Tempo, 2613240
1, 69210, Tempo, 2624672
1, 69220, Tempo, 2646670
1, 69230, Tempo, 2658396
1, 69240, Tempo, 3500583
1, 69720, Tempo, 5253940
1, 70202, Tempo, 5000000
1, 70680, Tempo, 4285714
1, 70680, End_track
2, 0, Start_track
2, 0, Title_t, "Piano right"
2, 0, Program_c, 0, 1
2, 0, Control_c, 0, 7, 100
2, 0, Control_c, 0, 10, 64
2, 0, Note_on_c, 0, 60, 50
2, 0, Control_c, 0, 91, 127
2, 0, Text_t, "bdca426d104a26ac9dcb070447587523"
2, 480, Note_on_c, 0, 60, 0
2, 480, Note_on_c, 0, 58, 46
2, 960, Note_on_c, 0, 58, 0
2, 960, Note_on_c, 0, 63, 50
2, 1680, Note_on_c, 0, 63, 0
2, 1680, Note_on_c, 0, 61, 48
2, 1920, Note_on_c, 0, 61, 0
2, 1920, Note_on_c, 0, 60, 47
2, 2160, Note_on_c, 0, 60, 0
2, 2160, Note_on_c, 0, 63, 49
2, 2400, Note_on_c, 0, 63, 0
2, 2400, Note_on_c, 0, 68, 51
2, 2640, Note_on_c, 0, 68, 0
2, 2640, Note_on_c, 0, 70, 56
2, 2880, Note_on_c, 0, 70, 0
2, 2880, Note_on_c, 0, 63, 50
2, 3600, Note_on_c, 0, 63, 0
2, 3600, Note_on_c, 0, 64, 46
2, 3840, Note_on_c, 0, 64, 0
2, 3840, Note_on_c, 0, 65, 50
2, 4320, Note_on_c, 0, 65, 0
2, 4320, Note_on_c, 0, 58, 50
2, 4680, Note_on_c, 0, 58, 0
2, 4680, Note_on_c, 0, 60, 46
2, 4740, Note_on_c, 0, 60, 0
2, 4740, Note_on_c, 0, 61, 46
2, 4800, Note_on_c, 0, 61, 0
2, 4800, Note_on_c, 0, 63, 50
2, 5280, Note_on_c, 0, 63, 0
2, 5280, Note_on_c, 0, 57, 48
2, 5760, Note_on_c, 0, 57, 0
2, 5760, Note_on_c, 0, 61, 50
2, 6240, Note_on_c, 0, 61, 0
2, 6240, Note_on_c, 0, 60, 48
2, 6360, Note_on_c, 0, 60, 0
2, 6360, Note_on_c, 0, 58, 48
2, 6480, Note_on_c, 0, 58, 0
2, 6480, Note_on_c, 0, 56, 48
2, 6600, Note_on_c, 0, 56, 0
2, 6600, Note_on_c, 0, 55, 48
2, 6720, Note_on_c, 0, 55, 0
2, 6720, Note_on_c, 0, 55, 40
2, 6720, Note_on_c, 0, 58, 50
2, 7200, Note_on_c, 0, 58, 0
2, 7200, Note_on_c, 0, 55, 0
2, 7200, Note_on_c, 0, 56, 50
2, 7440, Note_on_c, 0, 56, 0
2, 7440, Note_on_c, 0, 60, 36
2, 7500, Note_on_c, 0, 60, 0
2, 7520, Note_on_c, 0, 63, 35
2, 7580, Note_on_c, 0, 63, 0
2, 7600, Note_on_c, 0, 68, 35
2, 7660, Note_on_c, 0, 68, 0
2, 7680, Note_on_c, 0, 72, 50
2, 7680, Control_c, 0, 91, 127
2, 7680, Text_t, "bdca426d104a26ac9dcb070447587523"
2, 8160, Note_on_c, 0, 72, 0
2, 8160, Note_on_c, 0, 70, 46
2, 8640, Note_on_c, 0, 70, 0
2, 8640, Note_on_c, 0, 75, 50
2, 9360, Note_on_c, 0, 75, 0
2, 9360, Note_on_c, 0, 73, 48
2, 9600, Note_on_c, 0, 73, 0
2, 9600, Note_on_c, 0, 72, 47
2, 9840, Note_on_c, 0, 72, 0
2, 9840, Note_on_c, 0, 75, 49
2, 10080, Note_on_c, 0, 75, 0
2, 10080, Note_on_c, 0, 80, 51
2, 10320, Note_on_c, 0, 80, 0
2, 10320, Note_on_c, 0, 82, 56
2, 10560, Note_on_c, 0, 82, 0
2, 10560, Note_on_c, 0, 75, 50
2, 11280, Note_on_c, 0, 75, 0
2, 11280, Note_on_c, 0, 76, 46
2, 11520, Note_on_c, 0, 76, 0
2, 11520, Note_on_c, 0, 77, 50
2, 12000, Note_on_c, 0, 77, 0
2, 12000, Note_on_c, 0, 70, 50
2, 12360, Note_on_c, 0, 70, 0
2, 12360, Note_on_c, 0, 72, 46
2, 12420, Note_on_c, 0, 72, 0
2, 12420, Note_on_c, 0, 73, 46
2, 12480, Note_on_c, 0, 73, 0
2, 12480, Note_on_c, 0, 75, 50
2, 12960, Note_on_c, 0, 75, 0
2, 12960, Note_on_c, 0, 69, 48
2, 13440, Note_on_c, 0, 69, 0
2, 13440, Note_on_c, 0, 73, 50
2, 13920, Note_on_c, 0, 73, 0
2, 13920, Note_on_c, 0, 72, 48
2, 14040, Note_on_c, 0, 72, 0
2, 14040, Note_on_c, 0, 70, 48
2, 14160, Note_on_c, 0, 70, 0
2, 14160, Note_on_c, 0, 68, 48
2, 14280, Note_on_c, 0, 68, 0
2, 14280, Note_on_c, 0, 67, 48
2, 14400, Note_on_c, 0, 67, 0
2, 14400, Note_on_c, 0, 70, 50
2, 14880, Note_on_c, 0, 70, 0
2, 14880, Note_on_c, 0, 68, 50
2, 15120, Note_on_c, 0, 68, 0
2, 15300, Note_on_c, 0, 60, 45
2, 15360, Note_on_c, 0, 60, 0
2, 15360, Note_on_c, 0, 72, 50
2, 15960, Note_on_c, 0, 72, 0
2, 15960, Note_on_c, 0, 80, 50
2, 16080, Note_on_c, 0, 80, 0
2, 16080, Note_on_c, 0, 79, 51
2, 16200, Note_on_c, 0, 79, 0
2, 16200, Note_on_c, 0, 77, 48
2, 16320, Note_on_c, 0, 77, 0
2, 16320, Note_on_c, 0, 84, 54
2, 16920, Note_on_c, 0, 84, 0
2, 16920, Note_on_c, 0, 80, 50
2, 17040, Note_on_c, 0, 80, 0
2, 17040, Note_on_c, 0, 79, 50
2, 17160, Note_on_c, 0, 79, 0
2, 17160, Note_on_c, 0, 77, 48
2, 17280, Note_on_c, 0, 77, 0
2, 17280, Note_on_c, 0, 72, 52
2, 17880, Note_on_c, 0, 72, 0
2, 17880, Note_on_c, 0, 80, 46
2, 18000, Note_on_c, 0, 80, 0
2, 18000, Note_on_c, 0, 79, 49
2, 18120, Note_on_c, 0, 79, 0
2, 18120, Note_on_c, 0, 77, 51
2, 18240, Note_on_c, 0, 77, 0
2, 18240, Note_on_c, 0, 75, 57
2, 18480, Note_on_c, 0, 75, 0
2, 18480, Note_on_c, 0, 74, 53
2, 18840, Note_on_c, 0, 74, 0
2, 18840, Note_on_c, 0, 75, 55
2, 18870, Note_on_c, 0, 75, 0
2, 18870, Note_on_c, 0, 74, 55
2, 18900, Note_on_c, 0, 74, 0
2, 18900, Note_on_c, 0, 72, 54
2, 18930, Note_on_c, 0, 72, 0
2, 18930, Note_on_c, 0, 74, 54
2, 18960, Note_on_c, 0, 74, 0
2, 18960, Note_on_c, 0, 77, 63
2, 19140, Note_on_c, 0, 77, 0
2, 19140, Note_on_c, 0, 75, 55
2, 19200, Note_on_c, 0, 75, 0
2, 19200, Note_on_c, 0, 75, 62
2, 19680, Note_on_c, 0, 75, 0
2, 19680, Note_on_c, 0, 65, 55
2, 19920, Note_on_c, 0, 67, 54
2, 19950, Note_on_c, 0, 67, 0
2, 19950, Note_on_c, 0, 65, 54
2, 19980, Note_on_c, 0, 65, 0
2, 19980, Note_on_c, 0, 64, 53
2, 20010, Note_on_c, 0, 64, 0
2, 20010, Note_on_c, 0, 65, 53
2, 20040, Note_on_c, 0, 65, 0
2, 20040, Note_on_c, 0, 65, 0
2, 20040, Note_on_c, 0, 68, 58
2, 20100, Note_on_c, 0, 68, 0
2, 20100, Note_on_c, 0, 72, 51
2, 20160, Note_on_c, 0, 72, 0
2, 20160, Note_on_c, 0, 71, 45
2, 20200, Note_on_c, 0, 71, 0
2, 20200, Note_on_c, 0, 72, 45
2, 20240, Note_on_c, 0, 72, 0
2, 20240, Note_on_c, 0, 74, 45
2, 20280, Note_on_c, 0, 74, 0
2, 20280, Note_on_c, 0, 72, 49
2, 20340, Note_on_c, 0, 72, 0
2, 20340, Note_on_c, 0, 70, 45
2, 20400, Note_on_c, 0, 70, 0
2, 20400, Note_on_c, 0, 79, 52
2, 20640, Note_on_c, 0, 79, 0
2, 20640, Note_on_c, 0, 77, 50
2, 20700, Note_on_c, 0, 77, 0
2, 20700, Note_on_c, 0, 75, 49
2, 20760, Note_on_c, 0, 75, 0
2, 20760, Note_on_c, 0, 74, 47
2, 20820, Note_on_c, 0, 74, 0
2, 20820, Note_on_c, 0, 72, 46
2, 20880, Note_on_c, 0, 72, 0
2, 20880, Note_on_c, 0, 70, 44
2, 20940, Note_on_c, 0, 70, 0
2, 20940, Note_on_c, 0, 69, 43
2, 21000, Note_on_c, 0, 69, 0
2, 21000, Note_on_c, 0, 72, 47
2, 21060, Note_on_c, 0, 72, 0
2, 21060, Note_on_c, 0, 70, 46
2, 21120, Note_on_c, 0, 70, 0
2, 21120, Note_on_c, 0, 68, 45
2, 21180, Note_on_c, 0, 68, 0
2, 21180, Note_on_c, 0, 65, 43
2, 21240, Note_on_c, 0, 65, 0
2, 21240, Note_on_c, 0, 63, 49
2, 21480, Note_on_c, 0, 63, 0
2, 21600, Note_on_c, 0, 58, 44
2, 21720, Note_on_c, 0, 58, 0
2, 21720, Note_on_c, 0, 55, 49
2, 21840, Note_on_c, 0, 55, 0
2, 21840, Note_on_c, 0, 58, 45
2, 21960, Note_on_c, 0, 58, 0
2, 21960, Note_on_c, 0, 55, 49
2, 22080, Note_on_c, 0, 55, 0
2, 22080, Note_on_c, 0, 51, 45
2, 22200, Note_on_c, 0, 51, 0
2, 22200, Note_on_c, 0, 53, 38
2, 22200, Note_on_c, 0, 56, 45
2, 22435, Note_on_c, 0, 56, 0
2, 22435, Note_on_c, 0, 53, 0
2, 22440, Note_on_c, 0, 53, 39
2, 22440, Note_on_c, 0, 56, 47
2, 22675, Note_on_c, 0, 56, 0
2, 22675, Note_on_c, 0, 53, 0
2, 22680, Note_on_c, 0, 53, 42
2, 22680, Note_on_c, 0, 56, 50
2, 22915, Note_on_c, 0, 56, 0
2, 22915, Note_on_c, 0, 53, 0
2, 22920, Note_on_c, 0, 50, 36
2, 22920, Note_on_c, 0, 53, 41
2, 22920, Note_on_c, 0, 56, 49
2, 23155, Note_on_c, 0, 56, 0
2, 23155, Note_on_c, 0, 53, 0
2, 23155, Note_on_c, 0, 50, 0
2, 23160, Note_on_c, 0, 46, 36
2, 23160, Note_on_c, 0, 51, 41
2, 23160, Note_on_c, 0, 55, 49
2, 23400, Note_on_c, 0, 55, 0
2, 23400, Note_on_c, 0, 51, 0
2, 23400, Note_on_c, 0, 46, 0
2, 23880, Note_on_c, 0, 58, 49
2, 24060, Note_on_c, 0, 58, 0
2, 24060, Note_on_c, 0, 63, 49
2, 24120, Note_on_c, 0, 63, 0
2, 24120, Note_on_c, 0, 63, 49
2, 24240, Note_on_c, 0, 63, 0
2, 24240, Note_on_c, 0, 62, 44
2, 24355, Note_on_c, 0, 62, 0
2, 24360, Note_on_c, 0, 62, 49
2, 24480, Note_on_c, 0, 62, 0
2, 24480, Note_on_c, 0, 60, 45
2, 24595, Note_on_c, 0, 60, 0
2, 24600, Note_on_c, 0, 60, 53
2, 24720, Note_on_c, 0, 60, 0
2, 24720, Note_on_c, 0, 59, 47
2, 24835, Note_on_c, 0, 59, 0
2, 24840, Note_on_c, 0, 59, 53
2, 24960, Note_on_c, 0, 59, 0
2, 24960, Note_on_c, 0, 58, 49
2, 25075, Note_on_c, 0, 58, 0
2, 25080, Note_on_c, 0, 55, 50
2, 25080, Note_on_c, 0, 58, 50
2, 27000, Note_on_c, 0, 58, 0
2, 27000, Note_on_c, 0, 55, 0
2, 27000, Note_on_c, 0, 60, 47
2, 27000, Control_c, 0, 91, 127
2, 27000, Text_t, "bdca426d104a26ac9dcb070447587523"
2, 27480, Note_on_c, 0, 60, 0
2, 27480, Note_on_c, 0, 58, 46
2, 27960, Note_on_c, 0, 58, 0
2, 27960, Note_on_c, 0, 63, 50
2, 28680, Note_on_c, 0, 63, 0
2, 28680, Note_on_c, 0, 61, 48
2, 28920, Note_on_c, 0, 61, 0
2, 28920, Note_on_c, 0, 60, 47
2, 29160, Note_on_c, 0, 60, 0
2, 29160, Note_on_c, 0, 63, 49
2, 29400, Note_on_c, 0, 63, 0
2, 29400, Note_on_c, 0, 68, 51
2, 29640, Note_on_c, 0, 68, 0
2, 29640, Note_on_c, 0, 70, 56
2, 29880, Note_on_c, 0, 70, 0
2, 29880, Note_on_c, 0, 63, 50
2, 30600, Note_on_c, 0, 63, 0
2, 30600, Note_on_c, 0, 64, 46
2, 30840, Note_on_c, 0, 64, 0
2, 30840, Note_on_c, 0, 65, 50
2, 31320, Note_on_c, 0, 65, 0
2, 31320, Note_on_c, 0, 58, 50
2, 31680, Note_on_c, 0, 58, 0
2, 31680, Note_on_c, 0, 60, 46
2, 31740, Note_on_c, 0, 60, 0
2, 31740, Note_on_c, 0, 61, 46
2, 31800, Note_on_c, 0, 61, 0
2, 31800, Note_on_c, 0, 63, 50
2, 32280, Note_on_c, 0, 63, 0
2, 32280, Note_on_c, 0, 57, 48
2, 32760, Note_on_c, 0, 57, 0
2, 32760, Note_on_c, 0, 61, 50
2, 33240, Note_on_c, 0, 61, 0
2, 33240, Note_on_c, 0, 60, 48
2, 33360, Note_on_c, 0, 60, 0
2, 33360, Note_on_c, 0, 58, 48
2, 33480, Note_on_c, 0, 58, 0
2, 33480, Note_on_c, 0, 56, 48
2, 33600, Note_on_c, 0, 56, 0
2, 33600, Note_on_c, 0, 55, 48
2, 33720, Note_on_c, 0, 55, 0
2, 33720, Note_on_c, 0, 55, 40
2, 33720, Note_on_c, 0, 58, 50
2, 34200, Note_on_c, 0, 58, 0
2, 34200, Note_on_c, 0, 55, 0
2, 34200, Note_on_c, 0, 56, 50
2, 34440, Note_on_c, 0, 56, 0
2, 34440, Note_on_c, 0, 63, 47
2, 34680, Note_on_c, 0, 63, 0
2, 34680, Note_on_c, 0, 68, 50
2, 34920, Note_on_c, 0, 68, 0
2, 34920, Note_on_c, 0, 71, 47
2, 35160, Note_on_c, 0, 71, 0
2, 35160, Note_on_c, 0, 70, 47
2, 35400, Note_on_c, 0, 70, 0
2, 35400, Note_on_c, 0, 68, 46
2, 35640, Note_on_c, 0, 68, 0
2, 35640, Note_on_c, 0, 67, 51
2, 35880, Note_on_c, 0, 67, 0
2, 35880, Note_on_c, 0, 73, 47
2, 36120, Note_on_c, 0, 73, 0
2, 36600, Note_on_c, 0, 68, 50
2, 36840, Note_on_c, 0, 68, 0
2, 36840, Note_on_c, 0, 71, 47
2, 37080, Note_on_c, 0, 71, 0
2, 37080, Note_on_c, 0, 70, 47
2, 37320, Note_on_c, 0, 70, 0
2, 37320, Note_on_c, 0, 68, 46
2, 37560, Note_on_c, 0, 68, 0
2, 37560, Note_on_c, 0, 68, 51
2, 37800, Note_on_c, 0, 68, 0
2, 37800, Note_on_c, 0, 67, 47
2, 38040, Note_on_c, 0, 67, 0
2, 38520, Note_on_c, 0, 68, 55
2, 38760, Note_on_c, 0, 68, 0
2, 38760, Note_on_c, 0, 71, 56
2, 39000, Note_on_c, 0, 71, 0
2, 39000, Note_on_c, 0, 70, 61
2, 39240, Note_on_c, 0, 70, 0
2, 39240, Note_on_c, 0, 68, 65
2, 39480, Note_on_c, 0, 68, 0
2, 39480, Note_on_c, 0, 66, 73
2, 39480, Note_on_c, 0, 78, 86
2, 39720, Note_on_c, 0, 66, 0
2, 39800, Note_on_c, 0, 78, 0
2, 39800, Note_on_c, 0, 75, 85
2, 39880, Note_on_c, 0, 75, 0
2, 39880, Note_on_c, 0, 71, 85
2, 39960, Note_on_c, 0, 71, 0
2, 39960, Note_on_c, 0, 71, 81
2, 39960, Note_on_c, 0, 83, 96
2, 40200, Note_on_c, 0, 71, 0
2, 40280, Note_on_c, 0, 83, 0
2, 40280, Note_on_c, 0, 80, 93
2, 40360, Note_on_c, 0, 80, 0
2, 40360, Note_on_c, 0, 76, 93
2, 40440, Note_on_c, 0, 76, 0
2, 40440, Note_on_c, 0, 76, 88
2, 40440, Note_on_c, 0, 88, 104
2, 40680, Note_on_c, 0, 76, 0
2, 40760, Note_on_c, 0, 88, 0
2, 40760, Note_on_c, 0, 85, 92
2, 40840, Note_on_c, 0, 85, 0
2, 40840, Note_on_c, 0, 82, 92
2, 40920, Note_on_c, 0, 82, 0
2, 40920, Note_on_c, 0, 71, 81
2, 40920, Note_on_c, 0, 83, 96
2, 41040, Note_on_c, 0, 83, 0
2, 41040, Note_on_c, 0, 71, 0
2, 41160, Note_on_c, 0, 54, 73
2, 41160, Note_on_c, 0, 57, 73
2, 41160, Note_on_c, 0, 59, 86
2, 41160, Note_on_c, 0, 63, 86
2, 41280, Note_on_c, 0, 63, 0
2, 41280, Note_on_c, 0, 54, 0
2, 41280, Note_on_c, 0, 57, 0
2, 41280, Note_on_c, 0, 59, 0
2, 41400, Note_on_c, 0, 64, 86
2, 41520, Note_on_c, 0, 64, 0
2, 42360, Note_on_c, 0, 64, 50
2, 42600, Note_on_c, 0, 64, 0
2, 42600, Note_on_c, 0, 68, 47
2, 42840, Note_on_c, 0, 68, 0
2, 42840, Note_on_c, 0, 66, 47
2, 43080, Note_on_c, 0, 66, 0
2, 43080, Note_on_c, 0, 64, 46
2, 43320, Note_on_c, 0, 64, 0
2, 43320, Note_on_c, 0, 63, 51
2, 43560, Note_on_c, 0, 63, 0
2, 43560, Note_on_c, 0, 69, 47
2, 43800, Note_on_c, 0, 69, 0
2, 44280, Note_on_c, 0, 64, 50
2, 44520, Note_on_c, 0, 64, 0
2, 44520, Note_on_c, 0, 68, 47
2, 44760, Note_on_c, 0, 68, 0
2, 44760, Note_on_c, 0, 64, 47
2, 45000, Note_on_c, 0, 64, 0
2, 45000, Note_on_c, 0, 63, 46
2, 45240, Note_on_c, 0, 63, 0
2, 45240, Note_on_c, 0, 62, 54
2, 45960, Note_on_c, 0, 62, 0
2, 45960, Note_on_c, 0, 62, 51
2, 46200, Note_on_c, 0, 62, 0
2, 46200, Note_on_c, 0, 62, 56
2, 46920, Note_on_c, 0, 62, 0
2, 46920, Note_on_c, 0, 62, 53
2, 47160, Note_on_c, 0, 62, 0
2, 47160, Note_on_c, 0, 61, 59
2, 47880, Note_on_c, 0, 61, 0
2, 47880, Note_on_c, 0, 61, 72
2, 48120, Note_on_c, 0, 61, 0
2, 48120, Note_on_c, 0, 60, 50
2, 48120, Control_c, 0, 91, 127
2, 48120, Text_t, "bdca426d104a26ac9dcb070447587523"
2, 48600, Note_on_c, 0, 60, 0
2, 48600, Note_on_c, 0, 58, 46
2, 49080, Note_on_c, 0, 58, 0
2, 49080, Note_on_c, 0, 63, 50
2, 49800, Note_on_c, 0, 63, 0
2, 49800, Note_on_c, 0, 61, 48
2, 50040, Note_on_c, 0, 61, 0
2, 50040, Note_on_c, 0, 60, 47
2, 50280, Note_on_c, 0, 60, 0
2, 50280, Note_on_c, 0, 63, 49
2, 50520, Note_on_c, 0, 63, 0
2, 50520, Note_on_c, 0, 68, 51
2, 50760, Note_on_c, 0, 68, 0
2, 50760, Note_on_c, 0, 70, 56
2, 51000, Note_on_c, 0, 70, 0
2, 51000, Note_on_c, 0, 63, 50
2, 51720, Note_on_c, 0, 63, 0
2, 51720, Note_on_c, 0, 64, 46
2, 51960, Note_on_c, 0, 64, 0
2, 51960, Note_on_c, 0, 65, 50
2, 52440, Note_on_c, 0, 65, 0
2, 52440, Note_on_c, 0, 58, 50
2, 52800, Note_on_c, 0, 58, 0
2, 52800, Note_on_c, 0, 60, 46
2, 52860, Note_on_c, 0, 60, 0
2, 52860, Note_on_c, 0, 61, 46
2, 52920, Note_on_c, 0, 61, 0
2, 52920, Note_on_c, 0, 63, 50
2, 53400, Note_on_c, 0, 63, 0
2, 53400, Note_on_c, 0, 57, 48
2, 53880, Note_on_c, 0, 57, 0
2, 53880, Note_on_c, 0, 61, 50
2, 54360, Note_on_c, 0, 61, 0
2, 54360, Note_on_c, 0, 61, 52
2, 54440, Note_on_c, 0, 61, 0
2, 54440, Note_on_c, 0, 60, 46
2, 54520, Note_on_c, 0, 60, 0
2, 54520, Note_on_c, 0, 58, 46
2, 54600, Note_on_c, 0, 58, 0
2, 54600, Note_on_c, 0, 58, 51
2, 54680, Note_on_c, 0, 58, 0
2, 54680, Note_on_c, 0, 56, 47
2, 54760, Note_on_c, 0, 56, 0
2, 54760, Note_on_c, 0, 55, 47
2, 54840, Note_on_c, 0, 55, 0
2, 54840, Note_on_c, 0, 55, 40
2, 54840, Note_on_c, 0, 58, 50
2, 55320, Note_on_c, 0, 58, 0
2, 55320, Note_on_c, 0, 55, 0
2, 55320, Note_on_c, 0, 56, 50
2, 55560, Note_on_c, 0, 56, 0
2, 55560, Note_on_c, 0, 60, 36
2, 55620, Note_on_c, 0, 60, 0
2, 55640, Note_on_c, 0, 63, 35
2, 55700, Note_on_c, 0, 63, 0
2, 55720, Note_on_c, 0, 68, 35
2, 55780, Note_on_c, 0, 68, 0
2, 55800, Note_on_c, 0, 72, 50
2, 55800, Control_c, 0, 91, 127
2, 55800, Text_t, "bdca426d104a26ac9dcb070447587523"
2, 56280, Note_on_c, 0, 72, 0
2, 56280, Note_on_c, 0, 70, 46
2, 56760, Note_on_c, 0, 70, 0
2, 56760, Note_on_c, 0, 75, 50
2, 57480, Note_on_c, 0, 75, 0
2, 57480, Note_on_c, 0, 73, 48
2, 57720, Note_on_c, 0, 73, 0
2, 57720, Note_on_c, 0, 72, 47
2, 57960, Note_on_c, 0, 72, 0
2, 57960, Note_on_c, 0, 75, 49
2, 58200, Note_on_c, 0, 75, 0
2, 58200, Note_on_c, 0, 80, 51
2, 58440, Note_on_c, 0, 80, 0
2, 58440, Note_on_c, 0, 82, 56
2, 58680, Note_on_c, 0, 82, 0
2, 58680, Note_on_c, 0, 75, 50
2, 59400, Note_on_c, 0, 75, 0
2, 59400, Note_on_c, 0, 76, 55
2, 59640, Note_on_c, 0, 76, 0
2, 59640, Note_on_c, 0, 77, 59
2, 60120, Note_on_c, 0, 77, 0
2, 60120, Note_on_c, 0, 70, 57
2, 60480, Note_on_c, 0, 70, 0
2, 60480, Note_on_c, 0, 72, 56
2, 60540, Note_on_c, 0, 72, 0
2, 60540, Note_on_c, 0, 73, 58
2, 60600, Note_on_c, 0, 73, 0
2, 60600, Note_on_c, 0, 75, 60
2, 61080, Note_on_c, 0, 75, 0
2, 61080, Note_on_c, 0, 69, 48
2, 61560, Note_on_c, 0, 69, 0
2, 61560, Note_on_c, 0, 73, 50
2, 62040, Note_on_c, 0, 73, 0
2, 62040, Note_on_c, 0, 73, 48
2, 62120, Note_on_c, 0, 73, 0
2, 62120, Note_on_c, 0, 72, 47
2, 62200, Note_on_c, 0, 72, 0
2, 62200, Note_on_c, 0, 70, 47
2, 62260, Note_on_c, 0, 70, 0
2, 62280, Note_on_c, 0, 70, 48
2, 62360, Note_on_c, 0, 70, 0
2, 62360, Note_on_c, 0, 68, 46
2, 62440, Note_on_c, 0, 68, 0
2, 62440, Note_on_c, 0, 67, 46
2, 62520, Note_on_c, 0, 67, 0
2, 62520, Note_on_c, 0, 60, 52
2, 62520, Note_on_c, 0, 68, 52
2, 62760, Note_on_c, 0, 68, 0
2, 62760, Note_on_c, 0, 60, 0
2, 63240, Note_on_c, 0, 75, 50
2, 63420, Note_on_c, 0, 75, 0
2, 63420, Note_on_c, 0, 76, 50
2, 63480, Note_on_c, 0, 76, 0
2, 63480, Note_on_c, 0, 77, 55
2, 63800, Note_on_c, 0, 77, 0
2, 63800, Note_on_c, 0, 75, 51
2, 63880, Note_on_c, 0, 75, 0
2, 63880, Note_on_c, 0, 73, 51
2, 63960, Note_on_c, 0, 73, 0
2, 63960, Note_on_c, 0, 72, 52
2, 64040, Note_on_c, 0, 72, 0
2, 64040, Note_on_c, 0, 70, 53
2, 64120, Note_on_c, 0, 70, 0
2, 64120, Note_on_c, 0, 68, 54
2, 64200, Note_on_c, 0, 68, 0
2, 64200, Note_on_c, 0, 67, 58
2, 64260, Note_on_c, 0, 67, 0
2, 64260, Note_on_c, 0, 73, 53
2, 64320, Note_on_c, 0, 73, 0
2, 64320, Note_on_c, 0, 70, 51
2, 64380, Note_on_c, 0, 70, 0
2, 64380, Note_on_c, 0, 67, 50
2, 64440, Note_on_c, 0, 67, 0
2, 64440, Note_on_c, 0, 68, 52
2, 64520, Note_on_c, 0, 68, 0
2, 64520, Note_on_c, 0, 70, 45
2, 64546, Note_on_c, 0, 70, 0
2, 64546, Note_on_c, 0, 68, 39
2, 64572, Note_on_c, 0, 68, 0
2, 64572, Note_on_c, 0, 67, 39
2, 64598, Note_on_c, 0, 67, 0
2, 64600, Note_on_c, 0, 68, 44
2, 64660, Note_on_c, 0, 68, 0
2, 64660, Note_on_c, 0, 72, 46
2, 64680, Note_on_c, 0, 72, 0
2, 64680, Note_on_c, 0, 63, 46
2, 64920, Note_on_c, 0, 63, 0
2, 65160, Note_on_c, 0, 87, 50
2, 65160, Note_on_c, 0, 75, 42
2, 65340, Note_on_c, 0, 75, 0
2, 65340, Note_on_c, 0, 87, 0
2, 65340, Note_on_c, 0, 88, 50
2, 65340, Note_on_c, 0, 76, 42
2, 65400, Note_on_c, 0, 76, 0
2, 65400, Note_on_c, 0, 88, 0
2, 65400, Note_on_c, 0, 89, 55
2, 65400, Note_on_c, 0, 77, 46
2, 65720, Note_on_c, 0, 77, 0
2, 65720, Note_on_c, 0, 89, 0
2, 65720, Note_on_c, 0, 87, 51
2, 65720, Note_on_c, 0, 75, 43
2, 65800, Note_on_c, 0, 75, 0
2, 65800, Note_on_c, 0, 87, 0
2, 65800, Note_on_c, 0, 85, 53
2, 65800, Note_on_c, 0, 73, 45
2, 65880, Note_on_c, 0, 73, 0
2, 65880, Note_on_c, 0, 85, 0
2, 65880, Note_on_c, 0, 84, 53
2, 65880, Note_on_c, 0, 72, 45
2, 65960, Note_on_c, 0, 72, 0
2, 65960, Note_on_c, 0, 84, 0
2, 65960, Note_on_c, 0, 82, 52
2, 65960, Note_on_c, 0, 70, 44
2, 66040, Note_on_c, 0, 70, 0
2, 66040, Note_on_c, 0, 82, 0
2, 66040, Note_on_c, 0, 80, 50
2, 66040, Note_on_c, 0, 68, 42
2, 66120, Note_on_c, 0, 68, 0
2, 66120, Note_on_c, 0, 80, 0
2, 66120, Note_on_c, 0, 67, 43
2, 66120, Note_on_c, 0, 79, 51
2, 66200, Note_on_c, 0, 79, 0
2, 66200, Note_on_c, 0, 67, 0
2, 66200, Note_on_c, 0, 73, 42
2, 66200, Note_on_c, 0, 85, 50
2, 66280, Note_on_c, 0, 85, 0
2, 66280, Note_on_c, 0, 73, 0
2, 66280, Note_on_c, 0, 67, 44
2, 66280, Note_on_c, 0, 79, 52
2, 66360, Note_on_c, 0, 79, 0
2, 66360, Note_on_c, 0, 67, 0
2, 66360, Note_on_c, 0, 80, 52
2, 66360, Note_on_c, 0, 68, 44
2, 66600, Note_on_c, 0, 68, 0
2, 66600, Note_on_c, 0, 80, 0
2, 66810, Note_on_c, 0, 75, 52
2, 66840, Note_on_c, 0, 75, 0
2, 66840, Note_on_c, 0, 73, 63
2, 66920, Note_on_c, 0, 73, 0
2, 66920, Note_on_c, 0, 72, 55
2, 67000, Note_on_c, 0, 72, 0
2, 67000, Note_on_c, 0, 73, 55
2, 67080, Note_on_c, 0, 73, 0
2, 67080, Note_on_c, 0, 77, 58
2, 67160, Note_on_c, 0, 77, 0
2, 67160, Note_on_c, 0, 75, 55
2, 67240, Note_on_c, 0, 75, 0
2, 67240, Note_on_c, 0, 73, 54
2, 67320, Note_on_c, 0, 73, 0
2, 67320, Note_on_c, 0, 72, 52
2, 67560, Note_on_c, 0, 72, 0
2, 67770, Note_on_c, 0, 72, 54
2, 67800, Note_on_c, 0, 72, 0
2, 67800, Note_on_c, 0, 67, 47
2, 67800, Note_on_c, 0, 70, 64
2, 67880, Note_on_c, 0, 70, 0
2, 67880, Note_on_c, 0, 69, 52
2, 67960, Note_on_c, 0, 69, 0
2, 67960, Note_on_c, 0, 70, 52
2, 68040, Note_on_c, 0, 70, 0
2, 68040, Note_on_c, 0, 73, 54
2, 68120, Note_on_c, 0, 73, 0
2, 68120, Note_on_c, 0, 72, 52
2, 68200, Note_on_c, 0, 72, 0
2, 68200, Note_on_c, 0, 70, 52
2, 68280, Note_on_c, 0, 70, 0
2, 68280, Note_on_c, 0, 67, 0
2, 68280, Note_on_c, 0, 68, 46
2, 68520, Note_on_c, 0, 68, 0
2, 68730, Note_on_c, 0, 60, 54
2, 68760, Note_on_c, 0, 60, 0
2, 68760, Note_on_c, 0, 58, 64
2, 68840, Note_on_c, 0, 58, 0
2, 68840, Note_on_c, 0, 57, 48
2, 68920, Note_on_c, 0, 57, 0
2, 68920, Note_on_c, 0, 58, 48
2, 69000, Note_on_c, 0, 58, 0
2, 69000, Note_on_c, 0, 61, 50
2, 69080, Note_on_c, 0, 61, 0
2, 69080, Note_on_c, 0, 60, 47
2, 69160, Note_on_c, 0, 60, 0
2, 69160, Note_on_c, 0, 58, 44
2, 69240, Note_on_c, 0, 58, 0
2, 69240, Note_on_c, 0, 56, 35
2, 69360, Note_on_c, 0, 56, 0
2, 69480, Note_on_c, 0, 48, 28
2, 69480, Note_on_c, 0, 51, 28
2, 69480, Note_on_c, 0, 56, 35
2, 69600, Note_on_c, 0, 56, 0
2, 69600, Note_on_c, 0, 51, 0
2, 69600, Note_on_c, 0, 48, 0
2, 69720, Note_on_c, 0, 44, 28
2, 69720, Note_on_c, 0, 48, 28
2, 69720, Note_on_c, 0, 56, 35
2, 70200, Note_on_c, 0, 56, 0
2, 70200, Note_on_c, 0, 48, 0
2, 70200, Note_on_c, 0, 44, 0
2, 70200, End_track
3, 0, Start_track
3, 0, Title_t, "Accompaniment right"
3, 0, Program_c, 0, 1
3, 0, Control_c, 0, 7, 100
3, 0, Control_c, 0, 10, 64
3, 7680, Note_on_c, 0, 60, 28
3, 7800, Note_on_c, 0, 60, 0
3, 7800, Note_on_c, 0, 63, 24
3, 7920, Note_on_c, 0, 63, 0
3, 7920, Note_on_c, 0, 60, 26
3, 8040, Note_on_c, 0, 60, 0
3, 8040, Note_on_c, 0, 63, 23
3, 8160, Note_on_c, 0, 63, 0
3, 8160, Note_on_c, 0, 58, 28
3, 8280, Note_on_c, 0, 58, 0
3, 8280, Note_on_c, 0, 63, 24
3, 8400, Note_on_c, 0, 63, 0
3, 8400, Note_on_c, 0, 58, 26
3, 8520, Note_on_c, 0, 58, 0
3, 8520, Note_on_c, 0, 63, 24
3, 8640, Note_on_c, 0, 63, 0
3, 8640, Note_on_c, 0, 63, 28
3, 8760, Note_on_c, 0, 63, 0
3, 8760, Note_on_c, 0, 68, 25
3, 8880, Note_on_c, 0, 68, 0
3, 8880, Note_on_c, 0, 63, 25
3, 9000, Note_on_c, 0, 63, 0
3, 9000, Note_on_c, 0, 68, 25
3, 9120, Note_on_c, 0, 68, 0
3, 9120, Note_on_c, 0, 63, 28
3, 9240, Note_on_c, 0, 63, 0
3, 9240, Note_on_c, 0, 70, 25
3, 9360, Note_on_c, 0, 70, 0
3, 9360, Note_on_c, 0, 63, 25
3, 9480, Note_on_c, 0, 63, 0
3, 9480, Note_on_c, 0, 70, 25
3, 9600, Note_on_c, 0, 70, 0
3, 9600, Note_on_c, 0, 63, 31
3, 9720, Note_on_c, 0, 63, 0
3, 9720, Note_on_c, 0, 68, 31
3, 9840, Note_on_c, 0, 68, 0
3, 9840, Note_on_c, 0, 63, 32
3, 9960, Note_on_c, 0, 63, 0
3, 9960, Note_on_c, 0, 70, 33
3, 10080, Note_on_c, 0, 70, 0
3, 10080, Note_on_c, 0, 68, 33
3, 10200, Note_on_c, 0, 68, 0
3, 10200, Note_on_c, 0, 72, 34
3, 10320, Note_on_c, 0, 72, 0
3, 10320, Note_on_c, 0, 68, 35
3, 10440, Note_on_c, 0, 68, 0
3, 10440, Note_on_c, 0, 74, 35
3, 10560, Note_on_c, 0, 74, 0
3, 10560, Note_on_c, 0, 67, 33
3, 10680, Note_on_c, 0, 67, 0
3, 10680, Note_on_c, 0, 70, 25
3, 10800, Note_on_c, 0, 70, 0
3, 10800, Note_on_c, 0, 67, 25
3, 10920, Note_on_c, 0, 67, 0
3, 10920, Note_on_c, 0, 70, 25
3, 11040, Note_on_c, 0, 70, 0
3, 11040, Note_on_c, 0, 67, 29
3, 11160, Note_on_c, 0, 67, 0
3, 11160, Note_on_c, 0, 70, 30
3, 11280, Note_on_c, 0, 70, 0
3, 11280, Note_on_c, 0, 67, 33
3, 11400, Note_on_c, 0, 67, 0
3, 11400, Note_on_c, 0, 70, 34
3, 11520, Note_on_c, 0, 70, 0
3, 11520, Note_on_c, 0, 67, 30
3, 11640, Note_on_c, 0, 67, 0
3, 11640, Note_on_c, 0, 70, 24
3, 11760, Note_on_c, 0, 70, 0
3, 11760, Note_on_c, 0, 67, 26
3, 11880, Note_on_c, 0, 67, 0
3, 11880, Note_on_c, 0, 70, 23
3, 11998, Note_on_c, 0, 70, 0
3, 12000, Note_on_c, 0, 67, 28
3, 12120, Note_on_c, 0, 67, 0
3, 12120, Note_on_c, 0, 63, 24
3, 12240, Note_on_c, 0, 63, 0
3, 12240, Note_on_c, 0, 67, 24
3, 12360, Note_on_c, 0, 67, 0
3, 12360, Note_on_c, 0, 63, 24
3, 12480, Note_on_c, 0, 63, 0
3, 12480, Note_on_c, 0, 68, 30
3, 12600, Note_on_c, 0, 68, 0
3, 12600, Note_on_c, 0, 63, 27
3, 12720, Note_on_c, 0, 63, 0
3, 12720, Note_on_c, 0, 68, 27
3, 12840, Note_on_c, 0, 68, 0
3, 12840, Note_on_c, 0, 63, 25
3, 12930, Note_on_c, 0, 63, 0
3, 12960, Note_on_c, 0, 63, 28
3, 13080, Note_on_c, 0, 63, 0
3, 13080, Note_on_c, 0, 60, 24
3, 13200, Note_on_c, 0, 60, 0
3, 13200, Note_on_c, 0, 63, 26
3, 13320, Note_on_c, 0, 63, 0
3, 13320, Note_on_c, 0, 60, 24
3, 13440, Note_on_c, 0, 60, 0
3, 13440, Note_on_c, 0, 65, 29
3, 13560, Note_on_c, 0, 65, 0
3, 13560, Note_on_c, 0, 61, 25
3, 13680, Note_on_c, 0, 61, 0
3, 13680, Note_on_c, 0, 65, 27
3, 13800, Note_on_c, 0, 65, 0
3, 13800, Note_on_c, 0, 61, 24
3, 13890, Note_on_c, 0, 61, 0
3, 13920, Note_on_c, 0, 61, 30
3, 14010, Note_on_c, 0, 61, 0
3, 14040, Note_on_c, 0, 61, 26
3, 14130, Note_on_c, 0, 61, 0
3, 14160, Note_on_c, 0, 61, 28
3, 14250, Note_on_c, 0, 61, 0
3, 14280, Note_on_c, 0, 61, 26
3, 14370, Note_on_c, 0, 61, 0
3, 14400, Note_on_c, 0, 61, 30
3, 14520, Note_on_c, 0, 61, 0
3, 14520, Note_on_c, 0, 63, 26
3, 14640, Note_on_c, 0, 63, 0
3, 14640, Note_on_c, 0, 61, 28
3, 14760, Note_on_c, 0, 61, 0
3, 14760, Note_on_c, 0, 63, 24
3, 14880, Note_on_c, 0, 63, 0
3, 14880, Note_on_c, 0, 60, 36
3, 15120, Note_on_c, 0, 60, 0
3, 34680, Note_on_c, 0, 59, 24
3, 34680, Note_on_c, 0, 63, 29
3, 34740, Note_on_c, 0, 63, 0
3, 34740, Note_on_c, 0, 59, 0
3, 34760, Note_on_c, 0, 59, 24
3, 34760, Note_on_c, 0, 63, 29
3, 34820, Note_on_c, 0, 63, 0
3, 34820, Note_on_c, 0, 59, 0
3, 34840, Note_on_c, 0, 59, 24
3, 34840, Note_on_c, 0, 63, 29
3, 34900, Note_on_c, 0, 63, 0
3, 34900, Note_on_c, 0, 59, 0
3, 34920, Note_on_c, 0, 59, 24
3, 34920, Note_on_c, 0, 63, 29
3, 34980, Note_on_c, 0, 63, 0
3, 34980, Note_on_c, 0, 59, 0
3, 35000, Note_on_c, 0, 59, 25
3, 35000, Note_on_c, 0, 63, 30
3, 35060, Note_on_c, 0, 63, 0
3, 35060, Note_on_c, 0, 59, 0
3, 35080, Note_on_c, 0, 59, 25
3, 35080, Note_on_c, 0, 63, 30
3, 35140, Note_on_c, 0, 63, 0
3, 35140, Note_on_c, 0, 59, 0
3, 35160, Note_on_c, 0, 59, 25
3, 35160, Note_on_c, 0, 63, 30
3, 35220, Note_on_c, 0, 63, 0
3, 35220, Note_on_c, 0, 59, 0
3, 35240, Note_on_c, 0, 59, 25
3, 35240, Note_on_c, 0, 63, 30
3, 35300, Note_on_c, 0, 63, 0
3, 35300, Note_on_c, 0, 59, 0
3, 35320, Note_on_c, 0, 59, 25
3, 35320, Note_on_c, 0, 63, 30
3, 35380, Note_on_c, 0, 63, 0
3, 35380, Note_on_c, 0, 59, 0
3, 35400, Note_on_c, 0, 59, 25
3, 35400, Note_on_c, 0, 63, 30
3, 35460, Note_on_c, 0, 63, 0
3, 35460, Note_on_c, 0, 59, 0
3, 35480, Note_on_c, 0, 59, 25
3, 35480, Note_on_c, 0, 63, 30
3, 35540, Note_on_c, 0, 63, 0
3, 35540, Note_on_c, 0, 59, 0
3, 35560, Note_on_c, 0, 59, 25
3, 35560, Note_on_c, 0, 63, 30
3, 35620, Note_on_c, 0, 63, 0
3, 35620, Note_on_c, 0, 59, 0
3, 35640, Note_on_c, 0, 61, 25
3, 35640, Note_on_c, 0, 63, 30
3, 35700, Note_on_c, 0, 63, 0
3, 35700, Note_on_c, 0, 61, 0
3, 35720, Note_on_c, 0, 61, 25
3, 35720, Note_on_c, 0, 63, 30
3, 35780, Note_on_c, 0, 63, 0
3, 35780, Note_on_c, 0, 61, 0
3, 35800, Note_on_c, 0, 61, 25
3, 35800, Note_on_c, 0, 63, 30
3, 35860, Note_on_c, 0, 63, 0
3, 35860, Note_on_c, 0, 61, 0
3, 35880, Note_on_c, 0, 61, 25
3, 35880, Note_on_c, 0, 63, 30
3, 35940, Note_on_c, 0, 63, 0
3, 35940, Note_on_c, 0, 61, 0
3, 35960, Note_on_c, 0, 61, 25
3, 35960, Note_on_c, 0, 63, 30
3, 36020, Note_on_c, 0, 63, 0
3, 36020, Note_on_c, 0, 61, 0
3, 36040, Note_on_c, 0, 61, 25
3, 36040, Note_on_c, 0, 63, 30
3, 36100, Note_on_c, 0, 63, 0
3, 36100, Note_on_c, 0, 61, 0
3, 36120, Note_on_c, 0, 61, 25
3, 36120, Note_on_c, 0, 63, 30
3, 36180, Note_on_c, 0, 63, 0
3, 36180, Note_on_c, 0, 61, 0
3, 36200, Note_on_c, 0, 61, 25
3, 36200, Note_on_c, 0, 63, 30
3, 36260, Note_on_c, 0, 63, 0
3, 36260, Note_on_c, 0, 61, 0
3, 36280, Note_on_c, 0, 61, 25
3, 36280, Note_on_c, 0, 63, 30
3, 36340, Note_on_c, 0, 63, 0
3, 36340, Note_on_c, 0, 61, 0
3, 36360, Note_on_c, 0, 61, 25
3, 36360, Note_on_c, 0, 63, 30
3, 36420, Note_on_c, 0, 63, 0
3, 36420, Note_on_c, 0, 61, 0
3, 36440, Note_on_c, 0, 61, 25
3, 36440, Note_on_c, 0, 63, 30
3, 36500, Note_on_c, 0, 63, 0
3, 36500, Note_on_c, 0, 61, 0
3, 36520, Note_on_c, 0, 61, 25
3, 36520, Note_on_c, 0, 63, 30
3, 36580, Note_on_c, 0, 63, 0
3, 36580, Note_on_c, 0, 61, 0
3, 36600, Note_on_c, 0, 59, 24
3, 36600, Note_on_c, 0, 63, 29
3, 36660, Note_on_c, 0, 63, 0
3, 36660, Note_on_c, 0, 59, 0
3, 36680, Note_on_c, 0, 59, 24
3, 36680, Note_on_c, 0, 63, 29
3, 36740, Note_on_c, 0, 63, 0
3, 36740, Note_on_c, 0, 59, 0
3, 36760, Note_on_c, 0, 59, 24
3, 36760, Note_on_c, 0, 63, 29
3, 36820, Note_on_c, 0, 63, 0
3, 36820, Note_on_c, 0, 59, 0
3, 36840, Note_on_c, 0, 59, 24
3, 36840, Note_on_c, 0, 63, 29
3, 36900, Note_on_c, 0, 63, 0
3, 36900, Note_on_c, 0, 59, 0
3, 36920, Note_on_c, 0, 59, 25
3, 36920, Note_on_c, 0, 63, 30
3, 36980, Note_on_c, 0, 63, 0
3, 36980, Note_on_c, 0, 59, 0
3, 37000, Note_on_c, 0, 59, 25
3, 37000, Note_on_c, 0, 63, 30
3, 37060, Note_on_c, 0, 63, 0
3, 37060, Note_on_c, 0, 59, 0
3, 37080, Note_on_c, 0, 59, 25
3, 37080, Note_on_c, 0, 63, 30
3, 37140, Note_on_c, 0, 63, 0
3, 37140, Note_on_c, 0, 59, 0
3, 37160, Note_on_c, 0, 59, 25
3, 37160, Note_on_c, 0, 63, 30
3, 37220, Note_on_c, 0, 63, 0
3, 37220, Note_on_c, 0, 59, 0
3, 37240, Note_on_c, 0, 59, 25
3, 37240, Note_on_c, 0, 63, 30
3, 37300, Note_on_c, 0, 63, 0
3, 37300, Note_on_c, 0, 59, 0
3, 37320, Note_on_c, 0, 59, 25
3, 37320, Note_on_c, 0, 63, 30
3, 37380, Note_on_c, 0, 63, 0
3, 37380, Note_on_c, 0, 59, 0
3, 37400, Note_on_c, 0, 59, 25
3, 37400, Note_on_c, 0, 63, 30
3, 37460, Note_on_c, 0, 63, 0
3, 37460, Note_on_c, 0, 59, 0
3, 37480, Note_on_c, 0, 59, 25
3, 37480, Note_on_c, 0, 63, 30
3, 37540, Note_on_c, 0, 63, 0
3, 37540, Note_on_c, 0, 59, 0
3, 37560, Note_on_c, 0, 58, 25
3, 37560, Note_on_c, 0, 63, 30
3, 37620, Note_on_c, 0, 63, 0
3, 37620, Note_on_c, 0, 58, 0
3, 37640, Note_on_c, 0, 58, 25
3, 37640, Note_on_c, 0, 63, 30
3, 37700, Note_on_c, 0, 63, 0
3, 37700, Note_on_c, 0, 58, 0
3, 37720, Note_on_c, 0, 58, 25
3, 37720, Note_on_c, 0, 63, 30
3, 37780, Note_on_c, 0, 63, 0
3, 37780, Note_on_c, 0, 58, 0
3, 37800, Note_on_c, 0, 58, 25
3, 37800, Note_on_c, 0, 63, 30
3, 37860, Note_on_c, 0, 63, 0
3, 37860, Note_on_c, 0, 58, 0
3, 37880, Note_on_c, 0, 58, 25
3, 37880, Note_on_c, 0, 63, 30
3, 37940, Note_on_c, 0, 63, 0
3, 37940, Note_on_c, 0, 58, 0
3, 37960, Note_on_c, 0, 58, 25
3, 37960, Note_on_c, 0, 63, 30
3, 38020, Note_on_c, 0, 63, 0
3, 38020, Note_on_c, 0, 58, 0
3, 38040, Note_on_c, 0, 55, 25
3, 38040, Note_on_c, 0, 58, 25
3, 38040, Note_on_c, 0, 63, 30
3, 38100, Note_on_c, 0, 63, 0
3, 38100, Note_on_c, 0, 58, 0
3, 38100, Note_on_c, 0, 55, 0
3, 38120, Note_on_c, 0, 55, 25
3, 38120, Note_on_c, 0, 58, 25
3, 38120, Note_on_c, 0, 63, 30
3, 38180, Note_on_c, 0, 63, 0
3, 38180, Note_on_c, 0, 58, 0
3, 38180, Note_on_c, 0, 55, 0
3, 38200, Note_on_c, 0, 55, 25
3, 38200, Note_on_c, 0, 58, 25
3, 38200, Note_on_c, 0, 63, 30
3, 38260, Note_on_c, 0, 63, 0
3, 38260, Note_on_c, 0, 58, 0
3, 38260, Note_on_c, 0, 55, 0
3, 38280, Note_on_c, 0, 55, 25
3, 38280, Note_on_c, 0, 58, 25
3, 38280, Note_on_c, 0, 63, 30
3, 38340, Note_on_c, 0, 63, 0
3, 38340, Note_on_c, 0, 58, 0
3, 38340, Note_on_c, 0, 55, 0
3, 38360, Note_on_c, 0, 55, 25
3, 38360, Note_on_c, 0, 58, 25
3, 38360, Note_on_c, 0, 63, 30
3, 38420, Note_on_c, 0, 63, 0
3, 38420, Note_on_c, 0, 58, 0
3, 38420, Note_on_c, 0, 55, 0
3, 38440, Note_on_c, 0, 55, 25
3, 38440, Note_on_c, 0, 58, 25
3, 38440, Note_on_c, 0, 63, 30
3, 38500, Note_on_c, 0, 63, 0
3, 38500, Note_on_c, 0, 58, 0
3, 38500, Note_on_c, 0, 55, 0
3, 38520, Note_on_c, 0, 59, 26
3, 38520, Note_on_c, 0, 63, 31
3, 38580, Note_on_c, 0, 63, 0
3, 38580, Note_on_c, 0, 59, 0
3, 38600, Note_on_c, 0, 59, 26
3, 38600, Note_on_c, 0, 63, 32
3, 38660, Note_on_c, 0, 63, 0
3, 38660, Note_on_c, 0, 59, 0
3, 38680, Note_on_c, 0, 59, 27
3, 38680, Note_on_c, 0, 63, 32
3, 38740, Note_on_c, 0, 63, 0
3, 38740, Note_on_c, 0, 59, 0
3, 38760, Note_on_c, 0, 59, 28
3, 38760, Note_on_c, 0, 63, 34
3, 38820, Note_on_c, 0, 63, 0
3, 38820, Note_on_c, 0, 59, 0
3, 38840, Note_on_c, 0, 59, 30
3, 38840, Note_on_c, 0, 63, 36
3, 38900, Note_on_c, 0, 63, 0
3, 38900, Note_on_c, 0, 59, 0
3, 38920, Note_on_c, 0, 59, 31
3, 38920, Note_on_c, 0, 63, 37
3, 38980, Note_on_c, 0, 63, 0
3, 38980, Note_on_c, 0, 59, 0
3, 39000, Note_on_c, 0, 59, 33
3, 39000, Note_on_c, 0, 63, 39
3, 39060, Note_on_c, 0, 63, 0
3, 39060, Note_on_c, 0, 59, 0
3, 39080, Note_on_c, 0, 59, 33
3, 39080, Note_on_c, 0, 63, 39
3, 39140, Note_on_c, 0, 63, 0
3, 39140, Note_on_c, 0, 59, 0
3, 39160, Note_on_c, 0, 59, 33
3, 39160, Note_on_c, 0, 63, 40
3, 39220, Note_on_c, 0, 63, 0
3, 39220, Note_on_c, 0, 59, 0
3, 39240, Note_on_c, 0, 59, 35
3, 39240, Note_on_c, 0, 63, 42
3, 39300, Note_on_c, 0, 63, 0
3, 39300, Note_on_c, 0, 59, 0
3, 39320, Note_on_c, 0, 59, 35
3, 39320, Note_on_c, 0, 63, 42
3, 39380, Note_on_c, 0, 63, 0
3, 39380, Note_on_c, 0, 59, 0
3, 39400, Note_on_c, 0, 59, 37
3, 39400, Note_on_c, 0, 63, 44
3, 39460, Note_on_c, 0, 63, 0
3, 39460, Note_on_c, 0, 59, 0
3, 41400, Note_on_c, 0, 56, 58
3, 41400, Note_on_c, 0, 59, 58
3, 41460, Note_on_c, 0, 59, 0
3, 41460, Note_on_c, 0, 56, 0
3, 41480, Note_on_c, 0, 56, 35
3, 41480, Note_on_c, 0, 59, 35
3, 41540, Note_on_c, 0, 59, 0
3, 41540, Note_on_c, 0, 56, 0
3, 41560, Note_on_c, 0, 56, 35
3, 41560, Note_on_c, 0, 59, 35
3, 41620, Note_on_c, 0, 59, 0
3, 41620, Note_on_c, 0, 56, 0
3, 41640, Note_on_c, 0, 56, 35
3, 41640, Note_on_c, 0, 59, 35
3, 41700, Note_on_c, 0, 59, 0
3, 41700, Note_on_c, 0, 56, 0
3, 41720, Note_on_c, 0, 56, 35
3, 41720, Note_on_c, 0, 59, 35
3, 41780, Note_on_c, 0, 59, 0
3, 41780, Note_on_c, 0, 56, 0
3, 41800, Note_on_c, 0, 56, 35
3, 41800, Note_on_c, 0, 59, 35
3, 41860, Note_on_c, 0, 59, 0
3, 41860, Note_on_c, 0, 56, 0
3, 41880, Note_on_c, 0, 56, 33
3, 41880, Note_on_c, 0, 59, 33
3, 41940, Note_on_c, 0, 59, 0
3, 41940, Note_on_c, 0, 56, 0
3, 41960, Note_on_c, 0, 56, 33
3, 41960, Note_on_c, 0, 59, 33
3, 42020, Note_on_c, 0, 59, 0
3, 42020, Note_on_c, 0, 56, 0
3, 42040, Note_on_c, 0, 56, 32
3, 42040, Note_on_c, 0, 59, 32
3, 42100, Note_on_c, 0, 59, 0
3, 42100, Note_on_c, 0, 56, 0
3, 42120, Note_on_c, 0, 56, 31
3, 42120, Note_on_c, 0, 59, 31
3, 42180, Note_on_c, 0, 59, 0
3, 42180, Note_on_c, 0, 56, 0
3, 42200, Note_on_c, 0, 56, 30
3, 42200, Note_on_c, 0, 59, 30
3, 42260, Note_on_c, 0, 59, 0
3, 42260, Note_on_c, 0, 56, 0
3, 42280, Note_on_c, 0, 56, 29
3, 42280, Note_on_c, 0, 59, 29
3, 42340, Note_on_c, 0, 59, 0
3, 42340, Note_on_c, 0, 56, 0
3, 42360, Note_on_c, 0, 56, 24
3, 42360, Note_on_c, 0, 59, 29
3, 42420, Note_on_c, 0, 59, 0
3, 42420, Note_on_c, 0, 56, 0
3, 42440, Note_on_c, 0, 56, 24
3, 42440, Note_on_c, 0, 59, 29
3, 42500, Note_on_c, 0, 59, 0
3, 42500, Note_on_c, 0, 56, 0
3, 42520, Note_on_c, 0, 56, 24
3, 42520, Note_on_c, 0, 59, 29
3, 42580, Note_on_c, 0, 59, 0
3, 42580, Note_on_c, 0, 56, 0
3, 42600, Note_on_c, 0, 56, 24
3, 42600, Note_on_c, 0, 59, 29
3, 42660, Note_on_c, 0, 59, 0
3, 42660, Note_on_c, 0, 56, 0
3, 42680, Note_on_c, 0, 56, 25
3, 42680, Note_on_c, 0, 59, 30
3, 42740, Note_on_c, 0, 59, 0
3, 42740, Note_on_c, 0, 56, 0
3, 42760, Note_on_c, 0, 56, 25
3, 42760, Note_on_c, 0, 59, 30
3, 42820, Note_on_c, 0, 59, 0
3, 42820, Note_on_c, 0, 56, 0
3, 42840, Note_on_c, 0, 56, 25
3, 42840, Note_on_c, 0, 59, 30
3, 42900, Note_on_c, 0, 59, 0
3, 42900, Note_on_c, 0, 56, 0
3, 42920, Note_on_c, 0, 56, 25
3, 42920, Note_on_c, 0, 59, 30
3, 42980, Note_on_c, 0, 59, 0
3, 42980, Note_on_c, 0, 56, 0
3, 43000, Note_on_c, 0, 56, 25
3, 43000, Note_on_c, 0, 59, 30
3, 43060, Note_on_c, 0, 59, 0
3, 43060, Note_on_c, 0, 56, 0
3, 43080, Note_on_c, 0, 56, 25
3, 43080, Note_on_c, 0, 59, 30
3, 43140, Note_on_c, 0, 59, 0
3, 43140, Note_on_c, 0, 56, 0
3, 43160, Note_on_c, 0, 56, 25
3, 43160, Note_on_c, 0, 59, 30
3, 43220, Note_on_c, 0, 59, 0
3, 43220, Note_on_c, 0, 56, 0
3, 43240, Note_on_c, 0, 56, 25
3, 43240, Note_on_c, 0, 59, 30
3, 43300, Note_on_c, 0, 59, 0
3, 43300, Note_on_c, 0, 56, 0
3, 43320, Note_on_c, 0, 57, 25
3, 43320, Note_on_c, 0, 59, 30
3, 43380, Note_on_c, 0, 59, 0
3, 43380, Note_on_c, 0, 57, 0
3, 43400, Note_on_c, 0, 57, 25
3, 43400, Note_on_c, 0, 59, 30
3, 43460, Note_on_c, 0, 59, 0
3, 43460, Note_on_c, 0, 57, 0
3, 43480, Note_on_c, 0, 57, 25
3, 43480, Note_on_c, 0, 59, 30
3, 43540, Note_on_c, 0, 59, 0
3, 43540, Note_on_c, 0, 57, 0
3, 43560, Note_on_c, 0, 57, 25
3, 43560, Note_on_c, 0, 59, 30
3, 43620, Note_on_c, 0, 59, 0
3, 43620, Note_on_c, 0, 57, 0
3, 43640, Note_on_c, 0, 57, 25
3, 43640, Note_on_c, 0, 59, 30
3, 43700, Note_on_c, 0, 59, 0
3, 43700, Note_on_c, 0, 57, 0
3, 43720, Note_on_c, 0, 57, 25
3, 43720, Note_on_c, 0, 59, 30
3, 43780, Note_on_c, 0, 59, 0
3, 43780, Note_on_c, 0, 57, 0
3, 43800, Note_on_c, 0, 57, 25
3, 43800, Note_on_c, 0, 59, 30
3, 43860, Note_on_c, 0, 59, 0
3, 43860, Note_on_c, 0, 57, 0
3, 43880, Note_on_c, 0, 57, 25
3, 43880, Note_on_c, 0, 59, 30
3, 43940, Note_on_c, 0, 59, 0
3, 43940, Note_on_c, 0, 57, 0
3, 43960, Note_on_c, 0, 57, 25
3, 43960, Note_on_c, 0, 59, 30
3, 44020, Note_on_c, 0, 59, 0
3, 44020, Note_on_c, 0, 57, 0
3, 44040, Note_on_c, 0, 57, 25
3, 44040, Note_on_c, 0, 59, 30
3, 44100, Note_on_c, 0, 59, 0
3, 44100, Note_on_c, 0, 57, 0
3, 44120, Note_on_c, 0, 57, 25
3, 44120, Note_on_c, 0, 59, 30
3, 44180, Note_on_c, 0, 59, 0
3, 44180, Note_on_c, 0, 57, 0
3, 44200, Note_on_c, 0, 57, 25
3, 44200, Note_on_c, 0, 59, 30
3, 44260, Note_on_c, 0, 59, 0
3, 44260, Note_on_c, 0, 57, 0
3, 44280, Note_on_c, 0, 56, 24
3, 44280, Note_on_c, 0, 59, 29
3, 44340, Note_on_c, 0, 59, 0
3, 44340, Note_on_c, 0, 56, 0
3, 44360, Note_on_c, 0, 56, 24
3, 44360, Note_on_c, 0, 59, 29
3, 44420, Note_on_c, 0, 59, 0
3, 44420, Note_on_c, 0, 56, 0
3, 44440, Note_on_c, 0, 56, 24
3, 44440, Note_on_c, 0, 59, 29
3, 44500, Note_on_c, 0, 59, 0
3, 44500, Note_on_c, 0, 56, 0
3, 44520, Note_on_c, 0, 56, 24
3, 44520, Note_on_c, 0, 59, 29
3, 44580, Note_on_c, 0, 59, 0
3, 44580, Note_on_c, 0, 56, 0
3, 44600, Note_on_c, 0, 56, 25
3, 44600, Note_on_c, 0, 59, 30
3, 44660, Note_on_c, 0, 59, 0
3, 44660, Note_on_c, 0, 56, 0
3, 44680, Note_on_c, 0, 56, 25
3, 44680, Note_on_c, 0, 59, 30
3, 44740, Note_on_c, 0, 59, 0
3, 44740, Note_on_c, 0, 56, 0
3, 44760, Note_on_c, 0, 56, 25
3, 44760, Note_on_c, 0, 59, 30
3, 44820, Note_on_c, 0, 59, 0
3, 44820, Note_on_c, 0, 56, 0
3, 44840, Note_on_c, 0, 56, 25
3, 44840, Note_on_c, 0, 59, 30
3, 44900, Note_on_c, 0, 59, 0
3, 44900, Note_on_c, 0, 56, 0
3, 44920, Note_on_c, 0, 56, 25
3, 44920, Note_on_c, 0, 59, 30
3, 44980, Note_on_c, 0, 59, 0
3, 44980, Note_on_c, 0, 56, 0
3, 45000, Note_on_c, 0, 56, 25
3, 45000, Note_on_c, 0, 59, 30
3, 45060, Note_on_c, 0, 59, 0
3, 45060, Note_on_c, 0, 56, 0
3, 45080, Note_on_c, 0, 56, 25
3, 45080, Note_on_c, 0, 59, 30
3, 45140, Note_on_c, 0, 59, 0
3, 45140, Note_on_c, 0, 56, 0
3, 45160, Note_on_c, 0, 56, 25
3, 45160, Note_on_c, 0, 59, 30
3, 45220, Note_on_c, 0, 59, 0
3, 45220, Note_on_c, 0, 56, 0
3, 45240, Note_on_c, 0, 50, 24
3, 45240, Note_on_c, 0, 56, 24
3, 45240, Note_on_c, 0, 59, 29
3, 45300, Note_on_c, 0, 59, 0
3, 45300, Note_on_c, 0, 56, 0
3, 45300, Note_on_c, 0, 50, 0
3, 45320, Note_on_c, 0, 50, 24
3, 45320, Note_on_c, 0, 56, 24
3, 45320, Note_on_c, 0, 59, 29
3, 45380, Note_on_c, 0, 59, 0
3, 45380, Note_on_c, 0, 56, 0
3, 45380, Note_on_c, 0, 50, 0
3, 45400, Note_on_c, 0, 50, 24
3, 45400, Note_on_c, 0, 56, 24
3, 45400, Note_on_c, 0, 59, 29
3, 45460, Note_on_c, 0, 59, 0
3, 45460, Note_on_c, 0, 56, 0
3, 45460, Note_on_c, 0, 50, 0
3, 45480, Note_on_c, 0, 50, 24
3, 45480, Note_on_c, 0, 56, 24
3, 45480, Note_on_c, 0, 59, 29
3, 45540, Note_on_c, 0, 59, 0
3, 45540, Note_on_c, 0, 56, 0
3, 45540, Note_on_c, 0, 50, 0
3, 45560, Note_on_c, 0, 50, 24
3, 45560, Note_on_c, 0, 56, 25
3, 45560, Note_on_c, 0, 59, 30
3, 45620, Note_on_c, 0, 59, 0
3, 45620, Note_on_c, 0, 56, 0
3, 45620, Note_on_c, 0, 50, 0
3, 45640, Note_on_c, 0, 50, 24
3, 45640, Note_on_c, 0, 56, 25
3, 45640, Note_on_c, 0, 59, 30
3, 45700, Note_on_c, 0, 59, 0
3, 45700, Note_on_c, 0, 56, 0
3, 45700, Note_on_c, 0, 50, 0
3, 45720, Note_on_c, 0, 50, 24
3, 45720, Note_on_c, 0, 56, 25
3, 45720, Note_on_c, 0, 59, 30
3, 45780, Note_on_c, 0, 59, 0
3, 45780, Note_on_c, 0, 56, 0
3, 45780, Note_on_c, 0, 50, 0
3, 45800, Note_on_c, 0, 50, 24
3, 45800, Note_on_c, 0, 56, 25
3, 45800, Note_on_c, 0, 59, 30
3, 45860, Note_on_c, 0, 59, 0
3, 45860, Note_on_c, 0, 56, 0
3, 45860, Note_on_c, 0, 50, 0
3, 45880, Note_on_c, 0, 50, 24
3, 45880, Note_on_c, 0, 56, 25
3, 45880, Note_on_c, 0, 59, 30
3, 45940, Note_on_c, 0, 59, 0
3, 45940, Note_on_c, 0, 56, 0
3, 45940, Note_on_c, 0, 50, 0
3, 45960, Note_on_c, 0, 50, 24
3, 45960, Note_on_c, 0, 56, 25
3, 45960, Note_on_c, 0, 59, 30
3, 46020, Note_on_c, 0, 59, 0
3, 46020, Note_on_c, 0, 56, 0
3, 46020, Note_on_c, 0, 50, 0
3, 46040, Note_on_c, 0, 50, 24
3, 46040, Note_on_c, 0, 56, 25
3, 46040, Note_on_c, 0, 59, 30
3, 46100, Note_on_c, 0, 59, 0
3, 46100, Note_on_c, 0, 56, 0
3, 46100, Note_on_c, 0, 50, 0
3, 46120, Note_on_c, 0, 50, 24
3, 46120, Note_on_c, 0, 56, 25
3, 46120, Note_on_c, 0, 59, 30
3, 46180, Note_on_c, 0, 59, 0
3, 46180, Note_on_c, 0, 56, 0
3, 46180, Note_on_c, 0, 50, 0
3, 46200, Note_on_c, 0, 50, 25
3, 46200, Note_on_c, 0, 56, 25
3, 46200, Note_on_c, 0, 59, 30
3, 46260, Note_on_c, 0, 59, 0
3, 46260, Note_on_c, 0, 56, 0
3, 46260, Note_on_c, 0, 50, 0
3, 46280, Note_on_c, 0, 50, 25
3, 46280, Note_on_c, 0, 56, 25
3, 46280, Note_on_c, 0, 59, 30
3, 46340, Note_on_c, 0, 59, 0
3, 46340, Note_on_c, 0, 56, 0
3, 46340, Note_on_c, 0, 50, 0
3, 46360, Note_on_c, 0, 50, 25
3, 46360, Note_on_c, 0, 56, 25
3, 46360, Note_on_c, 0, 59, 30
3, 46420, Note_on_c, 0, 59, 0
3, 46420, Note_on_c, 0, 56, 0
3, 46420, Note_on_c, 0, 50, 0
3, 46440, Note_on_c, 0, 50, 25
3, 46440, Note_on_c, 0, 56, 25
3, 46440, Note_on_c, 0, 59, 30
3, 46500, Note_on_c, 0, 59, 0
3, 46500, Note_on_c, 0, 56, 0
3, 46500, Note_on_c, 0, 50, 0
3, 46520, Note_on_c, 0, 50, 25
3, 46520, Note_on_c, 0, 56, 26
3, 46520, Note_on_c, 0, 59, 31
3, 46580, Note_on_c, 0, 59, 0
3, 46580, Note_on_c, 0, 56, 0
3, 46580, Note_on_c, 0, 50, 0
3, 46600, Note_on_c, 0, 50, 25
3, 46600, Note_on_c, 0, 56, 26
3, 46600, Note_on_c, 0, 59, 31
3, 46660, Note_on_c, 0, 59, 0
3, 46660, Note_on_c, 0, 56, 0
3, 46660, Note_on_c, 0, 50, 0
3, 46680, Note_on_c, 0, 50, 25
3, 46680, Note_on_c, 0, 56, 26
3, 46680, Note_on_c, 0, 59, 31
3, 46740, Note_on_c, 0, 59, 0
3, 46740, Note_on_c, 0, 56, 0
3, 46740, Note_on_c, 0, 50, 0
3, 46760, Note_on_c, 0, 50, 25
3, 46760, Note_on_c, 0, 56, 26
3, 46760, Note_on_c, 0, 59, 31
3, 46820, Note_on_c, 0, 59, 0
3, 46820, Note_on_c, 0, 56, 0
3, 46820, Note_on_c, 0, 50, 0
3, 46840, Note_on_c, 0, 50, 25
3, 46840, Note_on_c, 0, 56, 26
3, 46840, Note_on_c, 0, 59, 31
3, 46900, Note_on_c, 0, 59, 0
3, 46900, Note_on_c, 0, 56, 0
3, 46900, Note_on_c, 0, 50, 0
3, 46920, Note_on_c, 0, 50, 25
3, 46920, Note_on_c, 0, 56, 26
3, 46920, Note_on_c, 0, 59, 31
3, 46980, Note_on_c, 0, 59, 0
3, 46980, Note_on_c, 0, 56, 0
3, 46980, Note_on_c, 0, 50, 0
3, 47000, Note_on_c, 0, 50, 25
3, 47000, Note_on_c, 0, 56, 26
3, 47000, Note_on_c, 0, 59, 31
3, 47060, Note_on_c, 0, 59, 0
3, 47060, Note_on_c, 0, 56, 0
3, 47060, Note_on_c, 0, 50, 0
3, 47080, Note_on_c, 0, 50, 25
3, 47080, Note_on_c, 0, 56, 26
3, 47080, Note_on_c, 0, 59, 31
3, 47140, Note_on_c, 0, 59, 0
3, 47140, Note_on_c, 0, 56, 0
3, 47140, Note_on_c, 0, 50, 0
3, 47160, Note_on_c, 0, 49, 26
3, 47160, Note_on_c, 0, 56, 26
3, 47160, Note_on_c, 0, 58, 31
3, 47220, Note_on_c, 0, 58, 0
3, 47220, Note_on_c, 0, 56, 0
3, 47220, Note_on_c, 0, 49, 0
3, 47240, Note_on_c, 0, 49, 26
3, 47240, Note_on_c, 0, 56, 26
3, 47240, Note_on_c, 0, 58, 31
3, 47300, Note_on_c, 0, 58, 0
3, 47300, Note_on_c, 0, 56, 0
3, 47300, Note_on_c, 0, 49, 0
3, 47320, Note_on_c, 0, 49, 26
3, 47320, Note_on_c, 0, 56, 26
3, 47320, Note_on_c, 0, 58, 32
3, 47380, Note_on_c, 0, 58, 0
3, 47380, Note_on_c, 0, 56, 0
3, 47380, Note_on_c, 0, 49, 0
3, 47400, Note_on_c, 0, 49, 26
3, 47400, Note_on_c, 0, 56, 26
3, 47400, Note_on_c, 0, 58, 32
3, 47460, Note_on_c, 0, 58, 0
3, 47460, Note_on_c, 0, 56, 0
3, 47460, Note_on_c, 0, 49, 0
3, 47480, Note_on_c, 0, 49, 27
3, 47480, Note_on_c, 0, 56, 28
3, 47480, Note_on_c, 0, 58, 33
3, 47540, Note_on_c, 0, 58, 0
3, 47540, Note_on_c, 0, 56, 0
3, 47540, Note_on_c, 0, 49, 0
3, 47560, Note_on_c, 0, 49, 27
3, 47560, Note_on_c, 0, 56, 28
3, 47560, Note_on_c, 0, 58, 34
3, 47620, Note_on_c, 0, 58, 0
3, 47620, Note_on_c, 0, 56, 0
3, 47620, Note_on_c, 0, 49, 0
3, 47640, Note_on_c, 0, 49, 27
3, 47640, Note_on_c, 0, 55, 28
3, 47640, Note_on_c, 0, 58, 34
3, 47700, Note_on_c, 0, 58, 0
3, 47700, Note_on_c, 0, 55, 0
3, 47700, Note_on_c, 0, 49, 0
3, 47720, Note_on_c, 0, 49, 27
3, 47720, Note_on_c, 0, 55, 28
3, 47720, Note_on_c, 0, 58, 34
3, 47780, Note_on_c, 0, 58, 0
3, 47780, Note_on_c, 0, 55, 0
3, 47780, Note_on_c, 0, 49, 0
3, 47800, Note_on_c, 0, 49, 27
3, 47800, Note_on_c, 0, 55, 29
3, 47800, Note_on_c, 0, 58, 34
3, 47860, Note_on_c, 0, 58, 0
3, 47860, Note_on_c, 0, 55, 0
3, 47860, Note_on_c, 0, 49, 0
3, 47880, Note_on_c, 0, 51, 28
3, 47880, Note_on_c, 0, 49, 23
3, 47880, Note_on_c, 0, 55, 29
3, 47880, Note_on_c, 0, 58, 35
3, 47940, Note_on_c, 0, 58, 0
3, 47940, Note_on_c, 0, 51, 0
3, 47940, Note_on_c, 0, 49, 0
3, 47940, Note_on_c, 0, 55, 0
3, 47960, Note_on_c, 0, 51, 28
3, 47960, Note_on_c, 0, 49, 23
3, 47960, Note_on_c, 0, 55, 29
3, 47960, Note_on_c, 0, 58, 35
3, 48020, Note_on_c, 0, 58, 0
3, 48020, Note_on_c, 0, 51, 0
3, 48020, Note_on_c, 0, 49, 0
3, 48020, Note_on_c, 0, 55, 0
3, 48040, Note_on_c, 0, 51, 28
3, 48040, Note_on_c, 0, 49, 23
3, 48040, Note_on_c, 0, 55, 29
3, 48040, Note_on_c, 0, 58, 35
3, 48100, Note_on_c, 0, 58, 0
3, 48100, Note_on_c, 0, 51, 0
3, 48100, Note_on_c, 0, 49, 0
3, 48100, Note_on_c, 0, 55, 0
3, 55800, Note_on_c, 0, 60, 28
3, 55880, Note_on_c, 0, 60, 0
3, 55880, Note_on_c, 0, 63, 26
3, 55940, Note_on_c, 0, 63, 0
3, 55960, Note_on_c, 0, 63, 26
3, 56020, Note_on_c, 0, 63, 0
3, 56040, Note_on_c, 0, 60, 26
3, 56120, Note_on_c, 0, 60, 0
3, 56120, Note_on_c, 0, 63, 26
3, 56180, Note_on_c, 0, 63, 0
3, 56200, Note_on_c, 0, 63, 26
3, 56260, Note_on_c, 0, 63, 0
3, 56280, Note_on_c, 0, 58, 28
3, 56360, Note_on_c, 0, 58, 0
3, 56360, Note_on_c, 0, 63, 26
3, 56420, Note_on_c, 0, 63, 0
3, 56440, Note_on_c, 0, 63, 26
3, 56500, Note_on_c, 0, 63, 0
3, 56520, Note_on_c, 0, 58, 26
3, 56600, Note_on_c, 0, 58, 0
3, 56600, Note_on_c, 0, 63, 26
3, 56660, Note_on_c, 0, 63, 0
3, 56680, Note_on_c, 0, 63, 26
3, 56740, Note_on_c, 0, 63, 0
3, 56760, Note_on_c, 0, 63, 28
3, 56840, Note_on_c, 0, 63, 0
3, 56840, Note_on_c, 0, 68, 26
3, 56900, Note_on_c, 0, 68, 0
3, 56920, Note_on_c, 0, 68, 26
3, 56980, Note_on_c, 0, 68, 0
3, 57000, Note_on_c, 0, 63, 25
3, 57080, Note_on_c, 0, 63, 0
3, 57080, Note_on_c, 0, 68, 25
3, 57140, Note_on_c, 0, 68, 0
3, 57160, Note_on_c, 0, 68, 25
3, 57220, Note_on_c, 0, 68, 0
3, 57240, Note_on_c, 0, 63, 28
3, 57320, Note_on_c, 0, 63, 0
3, 57320, Note_on_c, 0, 70, 26
3, 57380, Note_on_c, 0, 70, 0
3, 57400, Note_on_c, 0, 70, 26
3, 57460, Note_on_c, 0, 70, 0
3, 57480, Note_on_c, 0, 63, 25
3, 57560, Note_on_c, 0, 63, 0
3, 57560, Note_on_c, 0, 70, 25
3, 57620, Note_on_c, 0, 70, 0
3, 57640, Note_on_c, 0, 70, 25
3, 57700, Note_on_c, 0, 70, 0
3, 57720, Note_on_c, 0, 63, 29
3, 57800, Note_on_c, 0, 63, 0
3, 57800, Note_on_c, 0, 68, 27
3, 57860, Note_on_c, 0, 68, 0
3, 57880, Note_on_c, 0, 68, 26
3, 57940, Note_on_c, 0, 68, 0
3, 57960, Note_on_c, 0, 63, 26
3, 58040, Note_on_c, 0, 63, 0
3, 58040, Note_on_c, 0, 70, 26
3, 58100, Note_on_c, 0, 70, 0
3, 58120, Note_on_c, 0, 70, 26
3, 58180, Note_on_c, 0, 70, 0
3, 58200, Note_on_c, 0, 68, 30
3, 58280, Note_on_c, 0, 68, 0
3, 58280, Note_on_c, 0, 72, 28
3, 58340, Note_on_c, 0, 72, 0
3, 58360, Note_on_c, 0, 72, 28
3, 58420, Note_on_c, 0, 72, 0
3, 58440, Note_on_c, 0, 68, 27
3, 58520, Note_on_c, 0, 68, 0
3, 58520, Note_on_c, 0, 74, 27
3, 58580, Note_on_c, 0, 74, 0
3, 58600, Note_on_c, 0, 74, 27
3, 58660, Note_on_c, 0, 74, 0
3, 58680, Note_on_c, 0, 67, 30
3, 58760, Note_on_c, 0, 67, 0
3, 58760, Note_on_c, 0, 70, 28
3, 58820, Note_on_c, 0, 70, 0
3, 58840, Note_on_c, 0, 70, 28
3, 58900, Note_on_c, 0, 70, 0
3, 58920, Note_on_c, 0, 67, 27
3, 59000, Note_on_c, 0, 67, 0
3, 59000, Note_on_c, 0, 70, 23
3, 59060, Note_on_c, 0, 70, 0
3, 59080, Note_on_c, 0, 70, 23
3, 59140, Note_on_c, 0, 70, 0
3, 59160, Note_on_c, 0, 67, 32
3, 59240, Note_on_c, 0, 67, 0
3, 59240, Note_on_c, 0, 70, 28
3, 59300, Note_on_c, 0, 70, 0
3, 59320, Note_on_c, 0, 70, 28
3, 59380, Note_on_c, 0, 70, 0
3, 59400, Note_on_c, 0, 67, 33
3, 59480, Note_on_c, 0, 67, 0
3, 59480, Note_on_c, 0, 70, 29
3, 59540, Note_on_c, 0, 70, 0
3, 59560, Note_on_c, 0, 70, 28
3, 59620, Note_on_c, 0, 70, 0
3, 59640, Note_on_c, 0, 67, 35
3, 59720, Note_on_c, 0, 67, 0
3, 59720, Note_on_c, 0, 70, 28
3, 59780, Note_on_c, 0, 70, 0
3, 59800, Note_on_c, 0, 70, 28
3, 59860, Note_on_c, 0, 70, 0
3, 59880, Note_on_c, 0, 67, 32
3, 59960, Note_on_c, 0, 67, 0
3, 59960, Note_on_c, 0, 70, 26
3, 60020, Note_on_c, 0, 70, 0
3, 60040, Note_on_c, 0, 70, 26
3, 60099, Note_on_c, 0, 70, 0
3, 60120, Note_on_c, 0, 67, 34
3, 60200, Note_on_c, 0, 67, 0
3, 60200, Note_on_c, 0, 63, 27
3, 60260, Note_on_c, 0, 63, 0
3, 60280, Note_on_c, 0, 63, 27
3, 60340, Note_on_c, 0, 63, 0
3, 60360, Note_on_c, 0, 67, 33
3, 60440, Note_on_c, 0, 67, 0
3, 60440, Note_on_c, 0, 63, 27
3, 60500, Note_on_c, 0, 63, 0
3, 60520, Note_on_c, 0, 63, 25
3, 60580, Note_on_c, 0, 63, 0
3, 60600, Note_on_c, 0, 68, 30
3, 60680, Note_on_c, 0, 68, 0
3, 60680, Note_on_c, 0, 63, 28
3, 60740, Note_on_c, 0, 63, 0
3, 60760, Note_on_c, 0, 63, 28
3, 60820, Note_on_c, 0, 63, 0
3, 60840, Note_on_c, 0, 68, 27
3, 60920, Note_on_c, 0, 68, 0
3, 60920, Note_on_c, 0, 63, 23
3, 60980, Note_on_c, 0, 63, 0
3, 61000, Note_on_c, 0, 63, 23
3, 61060, Note_on_c, 0, 63, 0
3, 61080, Note_on_c, 0, 63, 28
3, 61160, Note_on_c, 0, 63, 0
3, 61160, Note_on_c, 0, 60, 26
3, 61220, Note_on_c, 0, 60, 0
3, 61240, Note_on_c, 0, 60, 26
3, 61300, Note_on_c, 0, 60, 0
3, 61320, Note_on_c, 0, 63, 28
3, 61400, Note_on_c, 0, 63, 0
3, 61400, Note_on_c, 0, 60, 25
3, 61460, Note_on_c, 0, 60, 0
3, 61480, Note_on_c, 0, 60, 25
3, 61540, Note_on_c, 0, 60, 0
3, 61560, Note_on_c, 0, 65, 29
3, 61640, Note_on_c, 0, 65, 0
3, 61640, Note_on_c, 0, 61, 28
3, 61700, Note_on_c, 0, 61, 0
3, 61720, Note_on_c, 0, 61, 27
3, 61780, Note_on_c, 0, 61, 0
3, 61800, Note_on_c, 0, 65, 27
3, 61880, Note_on_c, 0, 65, 0
3, 61880, Note_on_c, 0, 61, 27
3, 61940, Note_on_c, 0, 61, 0
3, 61960, Note_on_c, 0, 61, 27
3, 62020, Note_on_c, 0, 61, 0
3, 62040, Note_on_c, 0, 67, 30
3, 62120, Note_on_c, 0, 67, 0
3, 62120, Note_on_c, 0, 61, 28
3, 62180, Note_on_c, 0, 61, 0
3, 62200, Note_on_c, 0, 61, 28
3, 62260, Note_on_c, 0, 61, 0
3, 62280, Note_on_c, 0, 61, 28
3, 62340, Note_on_c, 0, 61, 0
3, 62360, Note_on_c, 0, 61, 28
3, 62420, Note_on_c, 0, 61, 0
3, 62440, Note_on_c, 0, 61, 28
3, 62500, Note_on_c, 0, 61, 0
3, 62500, End_track
4, 0, Start_track
4, 0, Title_t, "Piano left"
4, 0, Program_c, 0, 1
4, 0, Control_c, 0, 7, 100
4, 0, Control_c, 0, 10, 64
4, 0, Note_on_c, 0, 44, 40
4, 480, Note_on_c, 0, 44, 0
4, 480, Note_on_c, 0, 49, 35
4, 960, Note_on_c, 0, 49, 0
4, 960, Note_on_c, 0, 48, 40
4, 1440, Note_on_c, 0, 48, 0
4, 1440, Note_on_c, 0, 43, 37
4, 1920, Note_on_c, 0, 43, 0
4, 1920, Note_on_c, 0, 44, 33
4, 2160, Note_on_c, 0, 44, 0
4, 2160, Note_on_c, 0, 43, 35
4, 2400, Note_on_c, 0, 43, 0
4, 2400, Note_on_c, 0, 41, 38
4, 2640, Note_on_c, 0, 41, 0
4, 2640, Note_on_c, 0, 53, 40
4, 2880, Note_on_c, 0, 53, 0
4, 2880, Note_on_c, 0, 51, 36
4, 3360, Note_on_c, 0, 51, 0
4, 3360, Note_on_c, 0, 39, 35
4, 3840, Note_on_c, 0, 39, 0
4, 3840, Note_on_c, 0, 37, 40
4, 4320, Note_on_c, 0, 37, 0
4, 4320, Note_on_c, 0, 49, 36
4, 4800, Note_on_c, 0, 49, 0
4, 4800, Note_on_c, 0, 48, 40
4, 5280, Note_on_c, 0, 48, 0
4, 5280, Note_on_c, 0, 41, 36
4, 5760, Note_on_c, 0, 41, 0
4, 5760, Note_on_c, 0, 34, 40
4, 6240, Note_on_c, 0, 34, 0
4, 6240, Note_on_c, 0, 39, 34
4, 6720, Note_on_c, 0, 39, 0
4, 6720, Note_on_c, 0, 32, 37
4, 6960, Note_on_c, 0, 32, 0
4, 6960, Note_on_c, 0, 44, 29
4, 7200, Note_on_c, 0, 44, 0
4, 7200, Note_on_c, 0, 48, 36
4, 7200, Note_on_c, 0, 32, 36
4, 7260, Note_on_c, 0, 48, 0
4, 7280, Note_on_c, 0, 51, 34
4, 7340, Note_on_c, 0, 51, 0
4, 7360, Note_on_c, 0, 56, 34
4, 7420, Note_on_c, 0, 56, 0
4, 7440, Note_on_c, 0, 32, 0
4, 7680, Note_on_c, 0, 44, 40
4, 8160, Note_on_c, 0, 44, 0
4, 8160, Note_on_c, 0, 49, 35
4, 8640, Note_on_c, 0, 49, 0
4, 8640, Note_on_c, 0, 48, 40
4, 9120, Note_on_c, 0, 48, 0
4, 9120, Note_on_c, 0, 43, 37
4, 9600, Note_on_c, 0, 43, 0
4, 9600, Note_on_c, 0, 44, 41
4, 9840, Note_on_c, 0, 44, 0
4, 9840, Note_on_c, 0, 43, 44
4, 10080, Note_on_c, 0, 43, 0
4, 10080, Note_on_c, 0, 41, 46
4, 10320, Note_on_c, 0, 41, 0
4, 10320, Note_on_c, 0, 41, 49
4, 10560, Note_on_c, 0, 41, 0
4, 12960, Note_on_c, 0, 41, 36
4, 13440, Note_on_c, 0, 41, 0
4, 13440, Note_on_c, 0, 46, 40
4, 13920, Note_on_c, 0, 46, 0
4, 13920, Note_on_c, 0, 39, 34
4, 14400, Note_on_c, 0, 39, 0
4, 14400, Note_on_c, 0, 44, 37
4, 14880, Note_on_c, 0, 56, 36
4, 15120, Note_on_c, 0, 56, 0
4, 15120, Note_on_c, 0, 44, 0
4, 21240, Note_on_c, 0, 51, 25
4, 21240, Note_on_c, 0, 55, 33
4, 21480, Note_on_c, 0, 55, 0
4, 21480, Note_on_c, 0, 51, 0
4, 22200, Note_on_c, 0, 51, 49
4, 22200, Note_on_c, 0, 34, 33
4, 22320, Note_on_c, 0, 51, 0
4, 22320, Note_on_c, 0, 50, 44
4, 22410, Note_on_c, 0, 50, 0
4, 22440, Note_on_c, 0, 50, 49
4, 22560, Note_on_c, 0, 50, 0
4, 22560, Note_on_c, 0, 48, 45
4, 22650, Note_on_c, 0, 48, 0
4, 22680, Note_on_c, 0, 48, 53
4, 22800, Note_on_c, 0, 48, 0
4, 22800, Note_on_c, 0, 47, 47
4, 22890, Note_on_c, 0, 47, 0
4, 22920, Note_on_c, 0, 47, 53
4, 23040, Note_on_c, 0, 47, 0
4, 23040, Note_on_c, 0, 46, 49
4, 23160, Note_on_c, 0, 46, 0
4, 23160, Note_on_c, 0, 34, 0
4, 23160, Note_on_c, 0, 39, 36
4, 23400, Note_on_c, 0, 39, 0
4, 23520, Note_on_c, 0, 46, 44
4, 23640, Note_on_c, 0, 46, 0
4, 23640, Note_on_c, 0, 43, 49
4, 23760, Note_on_c, 0, 43, 0
4, 23760, Note_on_c, 0, 46, 45
4, 23880, Note_on_c, 0, 46, 0
4, 23880, Note_on_c, 0, 43, 41
4, 24000, Note_on_c, 0, 43, 0
4, 24000, Note_on_c, 0, 39, 38
4, 24120, Note_on_c, 0, 39, 0
4, 24120, Note_on_c, 0, 53, 38
4, 24120, Note_on_c, 0, 34, 33
4, 24120, Note_on_c, 0, 56, 45
4, 24600, Note_on_c, 0, 56, 0
4, 24600, Note_on_c, 0, 34, 0
4, 24600, Note_on_c, 0, 53, 0
4, 24600, Note_on_c, 0, 46, 33
4, 24600, Note_on_c, 0, 53, 42
4, 24600, Note_on_c, 0, 56, 50
4, 25080, Note_on_c, 0, 56, 0
4, 25080, Note_on_c, 0, 53, 0
4, 25080, Note_on_c, 0, 46, 0
4, 25080, Note_on_c, 0, 39, 51
4, 25080, Note_on_c, 0, 53, 51
4, 25200, Note_on_c, 0, 53, 0
4, 25200, Note_on_c, 0, 52, 48
4, 25290, Note_on_c, 0, 52, 0
4, 25320, Note_on_c, 0, 52, 53
4, 25440, Note_on_c, 0, 52, 0
4, 25440, Note_on_c, 0, 51, 48
4, 25530, Note_on_c, 0, 51, 0
4, 25560, Note_on_c, 0, 51, 53
4, 25680, Note_on_c, 0, 51, 0
4, 25680, Note_on_c, 0, 50, 49
4, 25770, Note_on_c, 0, 50, 0
4, 25800, Note_on_c, 0, 50, 55
4, 25920, Note_on_c, 0, 50, 0
4, 25920, Note_on_c, 0, 51, 50
4, 26010, Note_on_c, 0, 51, 0
4, 26040, Note_on_c, 0, 51, 55
4, 26160, Note_on_c, 0, 51, 0
4, 26160, Note_on_c, 0, 52, 40
4, 26250, Note_on_c, 0, 52, 0
4, 26280, Note_on_c, 0, 52, 44
4, 26400, Note_on_c, 0, 52, 0
4, 26400, Note_on_c, 0, 51, 37
4, 26490, Note_on_c, 0, 51, 0
4, 26520, Note_on_c, 0, 51, 44
4, 26640, Note_on_c, 0, 51, 0
4, 26640, Note_on_c, 0, 50, 31
4, 26730, Note_on_c, 0, 50, 0
4, 26760, Note_on_c, 0, 50, 37
4, 26880, Note_on_c, 0, 50, 0
4, 26880, Note_on_c, 0, 49, 29
4, 27000, Note_on_c, 0, 49, 0
4, 27000, Note_on_c, 0, 39, 0
4, 27000, Note_on_c, 0, 32, 33
4, 27000, Note_on_c, 0, 44, 37
4, 27480, Note_on_c, 0, 44, 0
4, 27480, Note_on_c, 0, 32, 0
4, 27480, Note_on_c, 0, 49, 35
4, 27960, Note_on_c, 0, 49, 0
4, 27960, Note_on_c, 0, 48, 40
4, 28440, Note_on_c, 0, 48, 0
4, 28440, Note_on_c, 0, 43, 37
4, 28920, Note_on_c, 0, 43, 0
4, 28920, Note_on_c, 0, 44, 33
4, 29160, Note_on_c, 0, 44, 0
4, 29160, Note_on_c, 0, 43, 36
4, 29400, Note_on_c, 0, 43, 0
4, 29400, Note_on_c, 0, 41, 40
4, 29640, Note_on_c, 0, 41, 0
4, 29640, Note_on_c, 0, 53, 44
4, 29880, Note_on_c, 0, 53, 0
4, 29880, Note_on_c, 0, 51, 36
4, 30360, Note_on_c, 0, 51, 0
4, 30360, Note_on_c, 0, 39, 35
4, 30840, Note_on_c, 0, 39, 0
4, 30840, Note_on_c, 0, 37, 40
4, 31320, Note_on_c, 0, 37, 0
4, 31320, Note_on_c, 0, 49, 36
4, 31800, Note_on_c, 0, 49, 0
4, 31800, Note_on_c, 0, 48, 40
4, 32280, Note_on_c, 0, 48, 0
4, 32280, Note_on_c, 0, 41, 36
4, 32760, Note_on_c, 0, 41, 0
4, 32760, Note_on_c, 0, 34, 40
4, 33240, Note_on_c, 0, 34, 0
4, 33240, Note_on_c, 0, 39, 34
4, 33720, Note_on_c, 0, 39, 0
4, 33720, Note_on_c, 0, 32, 37
4, 33960, Note_on_c, 0, 32, 0
4, 33960, Note_on_c, 0, 44, 29
4, 34200, Note_on_c, 0, 44, 0
4, 34200, Note_on_c, 0, 32, 36
4, 34440, Note_on_c, 0, 32, 0
4, 34680, Note_on_c, 0, 44, 33
4, 34680, Note_on_c, 0, 56, 33
4, 35160, Note_on_c, 0, 56, 0
4, 35160, Note_on_c, 0, 44, 0
4, 35640, Note_on_c, 0, 58, 36
4, 35960, Note_on_c, 0, 58, 0
4, 35960, Note_on_c, 0, 58, 36
4, 36040, Note_on_c, 0, 58, 0
4, 36040, Note_on_c, 0, 57, 36
4, 36120, Note_on_c, 0, 57, 0
4, 36120, Note_on_c, 0, 58, 36
4, 36180, Note_on_c, 0, 58, 0
4, 36200, Note_on_c, 0, 58, 36
4, 36260, Note_on_c, 0, 58, 0
4, 36280, Note_on_c, 0, 56, 33
4, 36340, Note_on_c, 0, 56, 0
4, 36360, Note_on_c, 0, 55, 36
4, 36420, Note_on_c, 0, 55, 0
4, 36440, Note_on_c, 0, 53, 32
4, 36500, Note_on_c, 0, 53, 0
4, 36520, Note_on_c, 0, 51, 32
4, 36580, Note_on_c, 0, 51, 0
4, 36600, Note_on_c, 0, 44, 33
4, 36600, Note_on_c, 0, 56, 33
4, 37080, Note_on_c, 0, 56, 0
4, 37080, Note_on_c, 0, 44, 0
4, 37560, Note_on_c, 0, 51, 36
4, 37880, Note_on_c, 0, 51, 0
4, 37880, Note_on_c, 0, 51, 36
4, 37960, Note_on_c, 0, 51, 0
4, 37960, Note_on_c, 0, 50, 36
4, 38040, Note_on_c, 0, 50, 0
4, 38040, Note_on_c, 0, 51, 36
4, 38100, Note_on_c, 0, 51, 0
4, 38120, Note_on_c, 0, 52, 36
4, 38180, Note_on_c, 0, 52, 0
4, 38200, Note_on_c, 0, 51, 33
4, 38260, Note_on_c, 0, 51, 0
4, 38280, Note_on_c, 0, 49, 36
4, 38340, Note_on_c, 0, 49, 0
4, 38360, Note_on_c, 0, 47, 32
4, 38420, Note_on_c, 0, 47, 0
4, 38440, Note_on_c, 0, 46, 32
4, 38500, Note_on_c, 0, 46, 0
4, 38520, Note_on_c, 0, 44, 36
4, 38520, Note_on_c, 0, 56, 36
4, 39000, Note_on_c, 0, 56, 0
4, 39000, Note_on_c, 0, 44, 0
4, 42360, Note_on_c, 0, 40, 33
4, 42360, Note_on_c, 0, 52, 33
4, 42840, Note_on_c, 0, 52, 0
4, 42840, Note_on_c, 0, 40, 0
4, 43320, Note_on_c, 0, 54, 36
4, 43640, Note_on_c, 0, 54, 0
4, 43640, Note_on_c, 0, 54, 36
4, 43720, Note_on_c, 0, 54, 0
4, 43720, Note_on_c, 0, 53, 36
4, 43800, Note_on_c, 0, 53, 0
4, 43800, Note_on_c, 0, 54, 36
4, 43860, Note_on_c, 0, 54, 0
4, 43880, Note_on_c, 0, 54, 36
4, 43940, Note_on_c, 0, 54, 0
4, 43960, Note_on_c, 0, 52, 33
4, 44020, Note_on_c, 0, 52, 0
4, 44040, Note_on_c, 0, 51, 36
4, 44100, Note_on_c, 0, 51, 0
4, 44120, Note_on_c, 0, 49, 32
4, 44180, Note_on_c, 0, 49, 0
4, 44200, Note_on_c, 0, 47, 32
4, 44260, Note_on_c, 0, 47, 0
4, 44280, Note_on_c, 0, 52, 33
4, 44760, Note_on_c, 0, 52, 0
4, 45320, Note_on_c, 0, 29, 41
4, 45360, Note_on_c, 0, 29, 0
4, 45400, Note_on_c, 0, 32, 44
4, 45440, Note_on_c, 0, 32, 0
4, 45480, Note_on_c, 0, 35, 46
4, 45520, Note_on_c, 0, 35, 0
4, 45560, Note_on_c, 0, 38, 47
4, 45600, Note_on_c, 0, 38, 0
4, 45640, Note_on_c, 0, 41, 49
4, 45680, Note_on_c, 0, 41, 0
4, 45720, Note_on_c, 0, 44, 51
4, 45960, Note_on_c, 0, 44, 0
4, 46280, Note_on_c, 0, 29, 42
4, 46320, Note_on_c, 0, 29, 0
4, 46360, Note_on_c, 0, 32, 46
4, 46400, Note_on_c, 0, 32, 0
4, 46440, Note_on_c, 0, 35, 48
4, 46480, Note_on_c, 0, 35, 0
4, 46520, Note_on_c, 0, 38, 49
4, 46560, Note_on_c, 0, 38, 0
4, 46600, Note_on_c, 0, 41, 51
4, 46640, Note_on_c, 0, 41, 0
4, 46680, Note_on_c, 0, 44, 53
4, 46920, Note_on_c, 0, 44, 0
4, 47240, Note_on_c, 0, 40, 45
4, 47280, Note_on_c, 0, 40, 0
4, 47320, Note_on_c, 0, 44, 48
4, 47360, Note_on_c, 0, 44, 0
4, 47400, Note_on_c, 0, 46, 51
4, 47520, Note_on_c, 0, 46, 0
4, 47720, Note_on_c, 0, 39, 57
4, 47760, Note_on_c, 0, 39, 0
4, 47800, Note_on_c, 0, 43, 60
4, 47840, Note_on_c, 0, 43, 0
4, 47880, Note_on_c, 0, 46, 64
4, 48000, Note_on_c, 0, 46, 0
4, 48120, Note_on_c, 0, 32, 34
4, 48120, Note_on_c, 0, 44, 40
4, 48600, Note_on_c, 0, 44, 0
4, 48600, Note_on_c, 0, 32, 0
4, 48600, Note_on_c, 0, 49, 35
4, 49080, Note_on_c, 0, 49, 0
4, 49080, Note_on_c, 0, 48, 40
4, 49560, Note_on_c, 0, 48, 0
4, 49560, Note_on_c, 0, 43, 37
4, 50040, Note_on_c, 0, 43, 0
4, 50040, Note_on_c, 0, 44, 33
4, 50280, Note_on_c, 0, 44, 0
4, 50280, Note_on_c, 0, 43, 35
4, 50520, Note_on_c, 0, 43, 0
4, 50520, Note_on_c, 0, 41, 38
4, 50760, Note_on_c, 0, 41, 0
4, 50760, Note_on_c, 0, 53, 40
4, 51000, Note_on_c, 0, 53, 0
4, 51000, Note_on_c, 0, 51, 36
4, 51480, Note_on_c, 0, 51, 0
4, 51480, Note_on_c, 0, 39, 35
4, 51960, Note_on_c, 0, 39, 0
4, 51960, Note_on_c, 0, 37, 40
4, 52440, Note_on_c, 0, 37, 0
4, 52440, Note_on_c, 0, 49, 36
4, 52920, Note_on_c, 0, 49, 0
4, 52920, Note_on_c, 0, 48, 40
4, 53400, Note_on_c, 0, 48, 0
4, 53400, Note_on_c, 0, 41, 36
4, 53880, Note_on_c, 0, 41, 0
4, 53880, Note_on_c, 0, 34, 40
4, 54360, Note_on_c, 0, 34, 0
4, 54360, Note_on_c, 0, 39, 34
4, 54840, Note_on_c, 0, 39, 0
4, 54840, Note_on_c, 0, 32, 37
4, 55080, Note_on_c, 0, 32, 0
4, 55080, Note_on_c, 0, 44, 29
4, 55320, Note_on_c, 0, 44, 0
4, 55320, Note_on_c, 0, 48, 36
4, 55320, Note_on_c, 0, 32, 36
4, 55380, Note_on_c, 0, 48, 0
4, 55400, Note_on_c, 0, 51, 34
4, 55460, Note_on_c, 0, 51, 0
4, 55480, Note_on_c, 0, 56, 34
4, 55540, Note_on_c, 0, 56, 0
4, 55560, Note_on_c, 0, 32, 0
4, 55800, Note_on_c, 0, 44, 40
4, 56280, Note_on_c, 0, 44, 0
4, 56280, Note_on_c, 0, 49, 35
4, 56760, Note_on_c, 0, 49, 0
4, 56760, Note_on_c, 0, 48, 40
4, 57240, Note_on_c, 0, 48, 0
4, 57240, Note_on_c, 0, 43, 37
4, 57720, Note_on_c, 0, 43, 0
4, 57720, Note_on_c, 0, 44, 33
4, 57960, Note_on_c, 0, 44, 0
4, 57960, Note_on_c, 0, 43, 35
4, 58200, Note_on_c, 0, 43, 0
4, 58200, Note_on_c, 0, 41, 38
4, 58440, Note_on_c, 0, 41, 0
4, 58440, Note_on_c, 0, 41, 40
4, 58680, Note_on_c, 0, 41, 0
4, 58680, Note_on_c, 0, 39, 50
4, 58720, Note_on_c, 0, 39, 0
4, 58760, Note_on_c, 0, 43, 44
4, 58800, Note_on_c, 0, 43, 0
4, 58840, Note_on_c, 0, 46, 45
4, 58880, Note_on_c, 0, 46, 0
4, 58920, Note_on_c, 0, 51, 47
4, 58960, Note_on_c, 0, 51, 0
4, 59000, Note_on_c, 0, 55, 49
4, 59040, Note_on_c, 0, 55, 0
4, 59080, Note_on_c, 0, 58, 50
4, 59120, Note_on_c, 0, 58, 0
4, 59160, Note_on_c, 0, 63, 52
4, 59640, Note_on_c, 0, 63, 0
4, 59640, Note_on_c, 0, 37, 50
4, 59680, Note_on_c, 0, 37, 0
4, 59720, Note_on_c, 0, 43, 43
4, 59760, Note_on_c, 0, 43, 0
4, 59800, Note_on_c, 0, 46, 44
4, 59840, Note_on_c, 0, 46, 0
4, 59880, Note_on_c, 0, 49, 46
4, 59920, Note_on_c, 0, 49, 0
4, 59960, Note_on_c, 0, 55, 47
4, 60000, Note_on_c, 0, 55, 0
4, 60040, Note_on_c, 0, 58, 49
4, 60080, Note_on_c, 0, 58, 0
4, 60120, Note_on_c, 0, 61, 50
4, 60600, Note_on_c, 0, 61, 0
4, 60600, Note_on_c, 0, 60, 40
4, 61080, Note_on_c, 0, 60, 0
4, 61080, Note_on_c, 0, 53, 36
4, 61560, Note_on_c, 0, 53, 0
4, 61560, Note_on_c, 0, 46, 40
4, 62040, Note_on_c, 0, 46, 0
4, 66840, Note_on_c, 0, 63, 44
4, 66840, Note_on_c, 0, 67, 47
4, 67320, Note_on_c, 0, 67, 0
4, 67320, Note_on_c, 0, 63, 0
4, 67320, Note_on_c, 0, 56, 44
4, 67320, Note_on_c, 0, 68, 44
4, 67560, Note_on_c, 0, 68, 0
4, 67560, Note_on_c, 0, 56, 0
4, 67800, Note_on_c, 0, 51, 43
4, 67800, Note_on_c, 0, 61, 45
4, 68280, Note_on_c, 0, 61, 0
4, 68280, Note_on_c, 0, 51, 0
4, 68280, Note_on_c, 0, 56, 33
4, 68280, Note_on_c, 0, 60, 39
4, 68520, Note_on_c, 0, 60, 0
4, 68520, Note_on_c, 0, 56, 0
4, 68760, Note_on_c, 0, 55, 44
4, 68760, Note_on_c, 0, 39, 37
4, 68760, Note_on_c, 0, 49, 37
4, 69240, Note_on_c, 0, 49, 0
4, 69240, Note_on_c, 0, 39, 0
4, 69240, Note_on_c, 0, 55, 0
4, 69240, Note_on_c, 0, 44, 25
4, 69240, Note_on_c, 0, 48, 30
4, 69360, Note_on_c, 0, 48, 0
4, 69360, Note_on_c, 0, 44, 0
4, 69480, Note_on_c, 0, 32, 30
4, 69600, Note_on_c, 0, 32, 0
4, 69720, Note_on_c, 0, 32, 30
4, 70200, Note_on_c, 0, 32, 0
4, 70200, End_track
5, 0, Start_track
5, 0, Title_t, "Accompaniment left"
5, 0, Program_c, 0, 1
5, 0, Control_c, 0, 7, 100
5, 0, Control_c, 0, 10, 64
5, 0, Note_on_c, 0, 56, 28
5, 120, Note_on_c, 0, 56, 0
5, 120, Note_on_c, 0, 51, 24
5, 240, Note_on_c, 0, 51, 0
5, 240, Note_on_c, 0, 56, 26
5, 360, Note_on_c, 0, 56, 0
5, 360, Note_on_c, 0, 51, 23
5, 480, Note_on_c, 0, 51, 0
5, 480, Note_on_c, 0, 55, 28
5, 600, Note_on_c, 0, 55, 0
5, 600, Note_on_c, 0, 51, 24
5, 720, Note_on_c, 0, 51, 0
5, 720, Note_on_c, 0, 55, 26
5, 840, Note_on_c, 0, 55, 0
5, 840, Note_on_c, 0, 51, 24
5, 960, Note_on_c, 0, 51, 0
5, 960, Note_on_c, 0, 56, 28
5, 1080, Note_on_c, 0, 56, 0
5, 1080, Note_on_c, 0, 51, 25
5, 1200, Note_on_c, 0, 51, 0
5, 1200, Note_on_c, 0, 56, 25
5, 1320, Note_on_c, 0, 56, 0
5, 1320, Note_on_c, 0, 51, 25
5, 1440, Note_on_c, 0, 51, 0
5, 1440, Note_on_c, 0, 58, 28
5, 1560, Note_on_c, 0, 58, 0
5, 1560, Note_on_c, 0, 51, 25
5, 1680, Note_on_c, 0, 51, 0
5, 1680, Note_on_c, 0, 58, 25
5, 1800, Note_on_c, 0, 58, 0
5, 1800, Note_on_c, 0, 51, 25
5, 1920, Note_on_c, 0, 51, 0
5, 1920, Note_on_c, 0, 56, 29
5, 2040, Note_on_c, 0, 56, 0
5, 2040, Note_on_c, 0, 51, 25
5, 2160, Note_on_c, 0, 51, 0
5, 2160, Note_on_c, 0, 58, 26
5, 2280, Note_on_c, 0, 58, 0
5, 2280, Note_on_c, 0, 51, 23
5, 2400, Note_on_c, 0, 51, 0
5, 2400, Note_on_c, 0, 60, 30
5, 2520, Note_on_c, 0, 60, 0
5, 2520, Note_on_c, 0, 56, 25
5, 2640, Note_on_c, 0, 56, 0
5, 2640, Note_on_c, 0, 62, 27
5, 2760, Note_on_c, 0, 62, 0
5, 2760, Note_on_c, 0, 56, 22
5, 2880, Note_on_c, 0, 56, 0
5, 2880, Note_on_c, 0, 55, 28
5, 3000, Note_on_c, 0, 55, 0
5, 3000, Note_on_c, 0, 58, 23
5, 3120, Note_on_c, 0, 58, 0
5, 3120, Note_on_c, 0, 55, 23
5, 3240, Note_on_c, 0, 55, 0
5, 3240, Note_on_c, 0, 58, 23
5, 3360, Note_on_c, 0, 58, 0
5, 3360, Note_on_c, 0, 55, 28
5, 3480, Note_on_c, 0, 55, 0
5, 3480, Note_on_c, 0, 58, 23
5, 3600, Note_on_c, 0, 58, 0
5, 3600, Note_on_c, 0, 55, 25
5, 3720, Note_on_c, 0, 55, 0
5, 3720, Note_on_c, 0, 58, 24
5, 3840, Note_on_c, 0, 58, 0
5, 3840, Note_on_c, 0, 55, 28
5, 3960, Note_on_c, 0, 55, 0
5, 3960, Note_on_c, 0, 58, 24
5, 4080, Note_on_c, 0, 58, 0
5, 4080, Note_on_c, 0, 55, 26
5, 4200, Note_on_c, 0, 55, 0
5, 4200, Note_on_c, 0, 58, 23
5, 4318, Note_on_c, 0, 58, 0
5, 4320, Note_on_c, 0, 55, 28
5, 4440, Note_on_c, 0, 55, 0
5, 4440, Note_on_c, 0, 51, 24
5, 4560, Note_on_c, 0, 51, 0
5, 4560, Note_on_c, 0, 55, 24
5, 4680, Note_on_c, 0, 55, 0
5, 4680, Note_on_c, 0, 51, 24
5, 4800, Note_on_c, 0, 51, 0
5, 4800, Note_on_c, 0, 56, 28
5, 4920, Note_on_c, 0, 56, 0
5, 4920, Note_on_c, 0, 51, 27
5, 5040, Note_on_c, 0, 51, 0
5, 5040, Note_on_c, 0, 56, 27
5, 5160, Note_on_c, 0, 56, 0
5, 5160, Note_on_c, 0, 51, 25
5, 5280, Note_on_c, 0, 51, 0
5, 5280, Note_on_c, 0, 51, 28
5, 5400, Note_on_c, 0, 51, 0
5, 5400, Note_on_c, 0, 48, 24
5, 5520, Note_on_c, 0, 48, 0
5, 5520, Note_on_c, 0, 51, 26
5, 5640, Note_on_c, 0, 51, 0
5, 5640, Note_on_c, 0, 48, 24
5, 5760, Note_on_c, 0, 48, 0
5, 5760, Note_on_c, 0, 53, 29
5, 5880, Note_on_c, 0, 53, 0
5, 5880, Note_on_c, 0, 49, 25
5, 6000, Note_on_c, 0, 49, 0
5, 6000, Note_on_c, 0, 53, 27
5, 6120, Note_on_c, 0, 53, 0
5, 6120, Note_on_c, 0, 49, 24
5, 6228, Note_on_c, 0, 49, 0
5, 6240, Note_on_c, 0, 49, 30
5, 6348, Note_on_c, 0, 49, 0
5, 6360, Note_on_c, 0, 49, 26
5, 6468, Note_on_c, 0, 49, 0
5, 6480, Note_on_c, 0, 49, 28
5, 6588, Note_on_c, 0, 49, 0
5, 6600, Note_on_c, 0, 49, 26
5, 6708, Note_on_c, 0, 49, 0
5, 6720, Note_on_c, 0, 49, 31
5, 6840, Note_on_c, 0, 49, 0
5, 6840, Note_on_c, 0, 51, 26
5, 6960, Note_on_c, 0, 51, 0
5, 6960, Note_on_c, 0, 49, 28
5, 7080, Note_on_c, 0, 49, 0
5, 7080, Note_on_c, 0, 51, 24
5, 7200, Note_on_c, 0, 51, 0
5, 7680, Note_on_c, 0, 56, 25
5, 7800, Note_on_c, 0, 56, 0
5, 7800, Note_on_c, 0, 51, 21
5, 7920, Note_on_c, 0, 51, 0
5, 7920, Note_on_c, 0, 56, 23
5, 8040, Note_on_c, 0, 56, 0
5, 8040, Note_on_c, 0, 51, 20
5, 8160, Note_on_c, 0, 51, 0
5, 8160, Note_on_c, 0, 55, 25
5, 8280, Note_on_c, 0, 55, 0
5, 8280, Note_on_c, 0, 51, 21
5, 8400, Note_on_c, 0, 51, 0
5, 8400, Note_on_c, 0, 55, 23
5, 8520, Note_on_c, 0, 55, 0
5, 8520, Note_on_c, 0, 51, 21
5, 8640, Note_on_c, 0, 51, 0
5, 8640, Note_on_c, 0, 56, 25
5, 8760, Note_on_c, 0, 56, 0
5, 8760, Note_on_c, 0, 51, 22
5, 8880, Note_on_c, 0, 51, 0
5, 8880, Note_on_c, 0, 56, 22
5, 9000, Note_on_c, 0, 56, 0
5, 9000, Note_on_c, 0, 51, 22
5, 9120, Note_on_c, 0, 51, 0
5, 9120, Note_on_c, 0, 55, 25
5, 9240, Note_on_c, 0, 55, 0
5, 9240, Note_on_c, 0, 51, 22
5, 9360, Note_on_c, 0, 51, 0
5, 9360, Note_on_c, 0, 55, 22
5, 9480, Note_on_c, 0, 55, 0
5, 9480, Note_on_c, 0, 51, 22
5, 9600, Note_on_c, 0, 51, 0
5, 9600, Note_on_c, 0, 56, 30
5, 9720, Note_on_c, 0, 56, 0
5, 9720, Note_on_c, 0, 51, 30
5, 9840, Note_on_c, 0, 51, 0
5, 9840, Note_on_c, 0, 55, 30
5, 9960, Note_on_c, 0, 55, 0
5, 9960, Note_on_c, 0, 51, 31
5, 10080, Note_on_c, 0, 51, 0
5, 10080, Note_on_c, 0, 53, 31
5, 10200, Note_on_c, 0, 53, 0
5, 10200, Note_on_c, 0, 44, 32
5, 10320, Note_on_c, 0, 44, 0
5, 10320, Note_on_c, 0, 53, 32
5, 10440, Note_on_c, 0, 53, 0
5, 10440, Note_on_c, 0, 44, 32
5, 10560, Note_on_c, 0, 44, 0
5, 10560, Note_on_c, 0, 39, 46
5, 10680, Note_on_c, 0, 39, 0
5, 10680, Note_on_c, 0, 43, 25
5, 10800, Note_on_c, 0, 43, 0
5, 10800, Note_on_c, 0, 46, 25
5, 10920, Note_on_c, 0, 46, 0
5, 10920, Note_on_c, 0, 51, 25
5, 11040, Note_on_c, 0, 51, 0
5, 11040, Note_on_c, 0, 55, 28
5, 11160, Note_on_c, 0, 55, 0
5, 11160, Note_on_c, 0, 58, 30
5, 11280, Note_on_c, 0, 58, 0
5, 11280, Note_on_c, 0, 55, 33
5, 11400, Note_on_c, 0, 55, 0
5, 11400, Note_on_c, 0, 58, 35
5, 11520, Note_on_c, 0, 58, 0
5, 11520, Note_on_c, 0, 37, 40
5, 11640, Note_on_c, 0, 37, 0
5, 11640, Note_on_c, 0, 43, 24
5, 11760, Note_on_c, 0, 43, 0
5, 11760, Note_on_c, 0, 46, 26
5, 11880, Note_on_c, 0, 46, 0
5, 11880, Note_on_c, 0, 49, 23
5, 12000, Note_on_c, 0, 49, 0
5, 12000, Note_on_c, 0, 55, 25
5, 12120, Note_on_c, 0, 55, 0
5, 12120, Note_on_c, 0, 58, 21
5, 12240, Note_on_c, 0, 58, 0
5, 12240, Note_on_c, 0, 55, 21
5, 12360, Note_on_c, 0, 55, 0
5, 12360, Note_on_c, 0, 49, 21
5, 12480, Note_on_c, 0, 49, 0
5, 12480, Note_on_c, 0, 48, 40
5, 12600, Note_on_c, 0, 51, 27
5, 12720, Note_on_c, 0, 51, 0
5, 12720, Note_on_c, 0, 48, 0
5, 12720, Note_on_c, 0, 48, 27
5, 12840, Note_on_c, 0, 51, 25
5, 12960, Note_on_c, 0, 51, 0
5, 12960, Note_on_c, 0, 48, 0
5, 12960, Note_on_c, 0, 48, 25
5, 13080, Note_on_c, 0, 48, 0
5, 13080, Note_on_c, 0, 53, 21
5, 13200, Note_on_c, 0, 53, 0
5, 13200, Note_on_c, 0, 48, 23
5, 13320, Note_on_c, 0, 48, 0
5, 13320, Note_on_c, 0, 53, 21
5, 13440, Note_on_c, 0, 53, 0
5, 13440, Note_on_c, 0, 49, 26
5, 13560, Note_on_c, 0, 49, 0
5, 13560, Note_on_c, 0, 53, 22
5, 13680, Note_on_c, 0, 53, 0
5, 13680, Note_on_c, 0, 49, 24
5, 13800, Note_on_c, 0, 49, 0
5, 13800, Note_on_c, 0, 53, 21
5, 13920, Note_on_c, 0, 53, 0
5, 13920, Note_on_c, 0, 46, 27
5, 14040, Note_on_c, 0, 46, 0
5, 14040, Note_on_c, 0, 51, 23
5, 14160, Note_on_c, 0, 51, 0
5, 14160, Note_on_c, 0, 46, 25
5, 14280, Note_on_c, 0, 46, 0
5, 14280, Note_on_c, 0, 51, 23
5, 14400, Note_on_c, 0, 51, 0
5, 14520, Note_on_c, 0, 51, 23
5, 14640, Note_on_c, 0, 51, 0
5, 14640, Note_on_c, 0, 55, 25
5, 14760, Note_on_c, 0, 55, 0
5, 14760, Note_on_c, 0, 51, 21
5, 14880, Note_on_c, 0, 51, 0
5, 15480, Note_on_c, 0, 60, 25
5, 15588, Note_on_c, 0, 60, 0
5, 15600, Note_on_c, 0, 60, 25
5, 15708, Note_on_c, 0, 60, 0
5, 15720, Note_on_c, 0, 60, 25
5, 15828, Note_on_c, 0, 60, 0
5, 15840, Note_on_c, 0, 60, 29
5, 15948, Note_on_c, 0, 60, 0
5, 15960, Note_on_c, 0, 60, 25
5, 16068, Note_on_c, 0, 60, 0
5, 16080, Note_on_c, 0, 60, 25
5, 16188, Note_on_c, 0, 60, 0
5, 16200, Note_on_c, 0, 60, 25
5, 16308, Note_on_c, 0, 60, 0
5, 16320, Note_on_c, 0, 52, 24
5, 16320, Note_on_c, 0, 55, 24
5, 16320, Note_on_c, 0, 60, 29
5, 16428, Note_on_c, 0, 60, 0
5, 16428, Note_on_c, 0, 55, 0
5, 16428, Note_on_c, 0, 52, 0
5, 16440, Note_on_c, 0, 52, 21
5, 16440, Note_on_c, 0, 55, 21
5, 16440, Note_on_c, 0, 60, 25
5, 16548, Note_on_c, 0, 60, 0
5, 16548, Note_on_c, 0, 55, 0
5, 16548, Note_on_c, 0, 52, 0
5, 16560, Note_on_c, 0, 52, 21
5, 16560, Note_on_c, 0, 55, 21
5, 16560, Note_on_c, 0, 60, 25
5, 16668, Note_on_c, 0, 60, 0
5, 16668, Note_on_c, 0, 55, 0
5, 16668, Note_on_c, 0, 52, 0
5, 16680, Note_on_c, 0, 52, 21
5, 16680, Note_on_c, 0, 55, 21
5, 16680, Note_on_c, 0, 60, 25
5, 16788, Note_on_c, 0, 60, 0
5, 16788, Note_on_c, 0, 55, 0
5, 16788, Note_on_c, 0, 52, 0
5, 16800, Note_on_c, 0, 53, 24
5, 16800, Note_on_c, 0, 56, 24
5, 16800, Note_on_c, 0, 60, 29
5, 16908, Note_on_c, 0, 60, 0
5, 16908, Note_on_c, 0, 56, 0
5, 16908, Note_on_c, 0, 53, 0
5, 16920, Note_on_c, 0, 53, 21
5, 16920, Note_on_c, 0, 56, 21
5, 16920, Note_on_c, 0, 60, 25
5, 17028, Note_on_c, 0, 60, 0
5, 17028, Note_on_c, 0, 56, 0
5, 17028, Note_on_c, 0, 53, 0
5, 17040, Note_on_c, 0, 53, 21
5, 17040, Note_on_c, 0, 56, 21
5, 17040, Note_on_c, 0, 60, 25
5, 17148, Note_on_c, 0, 60, 0
5, 17148, Note_on_c, 0, 56, 0
5, 17148, Note_on_c, 0, 53, 0
5, 17160, Note_on_c, 0, 53, 21
5, 17160, Note_on_c, 0, 56, 21
5, 17160, Note_on_c, 0, 60, 25
5, 17268, Note_on_c, 0, 60, 0
5, 17268, Note_on_c, 0, 56, 0
5, 17268, Note_on_c, 0, 53, 0
5, 17280, Note_on_c, 0, 55, 24
5, 17280, Note_on_c, 0, 58, 24
5, 17280, Note_on_c, 0, 64, 29
5, 17388, Note_on_c, 0, 64, 0
5, 17388, Note_on_c, 0, 58, 0
5, 17388, Note_on_c, 0, 55, 0
5, 17400, Note_on_c, 0, 55, 21
5, 17400, Note_on_c, 0, 58, 21
5, 17400, Note_on_c, 0, 64, 25
5, 17508, Note_on_c, 0, 64, 0
5, 17508, Note_on_c, 0, 58, 0
5, 17508, Note_on_c, 0, 55, 0
5, 17520, Note_on_c, 0, 55, 21
5, 17520, Note_on_c, 0, 58, 21
5, 17520, Note_on_c, 0, 64, 25
5, 17628, Note_on_c, 0, 64, 0
5, 17628, Note_on_c, 0, 58, 0
5, 17628, Note_on_c, 0, 55, 0
5, 17640, Note_on_c, 0, 55, 21
5, 17640, Note_on_c, 0, 58, 21
5, 17640, Note_on_c, 0, 64, 25
5, 17748, Note_on_c, 0, 64, 0
5, 17748, Note_on_c, 0, 58, 0
5, 17748, Note_on_c, 0, 55, 0
5, 17760, Note_on_c, 0, 56, 26
5, 17760, Note_on_c, 0, 60, 26
5, 17760, Note_on_c, 0, 65, 31
5, 17868, Note_on_c, 0, 65, 0
5, 17868, Note_on_c, 0, 60, 0
5, 17868, Note_on_c, 0, 56, 0
5, 17880, Note_on_c, 0, 56, 23
5, 17880, Note_on_c, 0, 60, 23
5, 17880, Note_on_c, 0, 65, 28
5, 17988, Note_on_c, 0, 65, 0
5, 17988, Note_on_c, 0, 60, 0
5, 17988, Note_on_c, 0, 56, 0
5, 18000, Note_on_c, 0, 56, 24
5, 18000, Note_on_c, 0, 60, 24
5, 18000, Note_on_c, 0, 65, 29
5, 18108, Note_on_c, 0, 65, 0
5, 18108, Note_on_c, 0, 60, 0
5, 18108, Note_on_c, 0, 56, 0
5, 18120, Note_on_c, 0, 56, 24
5, 18120, Note_on_c, 0, 60, 24
5, 18120, Note_on_c, 0, 65, 29
5, 18228, Note_on_c, 0, 65, 0
5, 18228, Note_on_c, 0, 60, 0
5, 18228, Note_on_c, 0, 56, 0
5, 18240, Note_on_c, 0, 58, 25
5, 18240, Note_on_c, 0, 65, 25
5, 18240, Note_on_c, 0, 68, 30
5, 18348, Note_on_c, 0, 68, 0
5, 18348, Note_on_c, 0, 65, 0
5, 18348, Note_on_c, 0, 58, 0
5, 18360, Note_on_c, 0, 58, 26
5, 18360, Note_on_c, 0, 65, 26
5, 18360, Note_on_c, 0, 68, 31
5, 18468, Note_on_c, 0, 68, 0
5, 18468, Note_on_c, 0, 65, 0
5, 18468, Note_on_c, 0, 58, 0
5, 18480, Note_on_c, 0, 58, 28
5, 18480, Note_on_c, 0, 65, 28
5, 18480, Note_on_c, 0, 68, 33
5, 18588, Note_on_c, 0, 68, 0
5, 18588, Note_on_c, 0, 65, 0
5, 18588, Note_on_c, 0, 58, 0
5, 18600, Note_on_c, 0, 58, 30
5, 18600, Note_on_c, 0, 65, 30
5, 18600, Note_on_c, 0, 68, 35
5, 18708, Note_on_c, 0, 68, 0
5, 18708, Note_on_c, 0, 65, 0
5, 18708, Note_on_c, 0, 58, 0
5, 18720, Note_on_c, 0, 59, 32
5, 18720, Note_on_c, 0, 65, 32
5, 18720, Note_on_c, 0, 68, 38
5, 18828, Note_on_c, 0, 68, 0
5, 18828, Note_on_c, 0, 65, 0
5, 18828, Note_on_c, 0, 59, 0
5, 18840, Note_on_c, 0, 59, 27
5, 18840, Note_on_c, 0, 65, 27
5, 18840, Note_on_c, 0, 68, 33
5, 18948, Note_on_c, 0, 68, 0
5, 18948, Note_on_c, 0, 65, 0
5, 18948, Note_on_c, 0, 59, 0
5, 18960, Note_on_c, 0, 59, 27
5, 18960, Note_on_c, 0, 62, 27
5, 18960, Note_on_c, 0, 68, 33
5, 19068, Note_on_c, 0, 68, 0
5, 19068, Note_on_c, 0, 62, 0
5, 19068, Note_on_c, 0, 59, 0
5, 19080, Note_on_c, 0, 59, 25
5, 19080, Note_on_c, 0, 62, 25
5, 19080, Note_on_c, 0, 68, 30
5, 19188, Note_on_c, 0, 68, 0
5, 19188, Note_on_c, 0, 62, 0
5, 19188, Note_on_c, 0, 59, 0
5, 19200, Note_on_c, 0, 60, 27
5, 19200, Note_on_c, 0, 63, 27
5, 19200, Note_on_c, 0, 67, 32
5, 19308, Note_on_c, 0, 67, 0
5, 19308, Note_on_c, 0, 63, 0
5, 19308, Note_on_c, 0, 60, 0
5, 19320, Note_on_c, 0, 60, 22
5, 19320, Note_on_c, 0, 63, 22
5, 19320, Note_on_c, 0, 67, 27
5, 19428, Note_on_c, 0, 67, 0
5, 19428, Note_on_c, 0, 63, 0
5, 19428, Note_on_c, 0, 60, 0
5, 19440, Note_on_c, 0, 60, 22
5, 19440, Note_on_c, 0, 63, 22
5, 19440, Note_on_c, 0, 67, 27
5, 19548, Note_on_c, 0, 67, 0
5, 19548, Note_on_c, 0, 63, 0
5, 19548, Note_on_c, 0, 60, 0
5, 19560, Note_on_c, 0, 60, 22
5, 19560, Note_on_c, 0, 63, 22
5, 19560, Note_on_c, 0, 67, 27
5, 19668, Note_on_c, 0, 67, 0
5, 19668, Note_on_c, 0, 63, 0
5, 19668, Note_on_c, 0, 60, 0
5, 19680, Note_on_c, 0, 56, 28
5, 19680, Note_on_c, 0, 63, 33
5, 19788, Note_on_c, 0, 63, 0
5, 19788, Note_on_c, 0, 56, 0
5, 19800, Note_on_c, 0, 56, 25
5, 19800, Note_on_c, 0, 63, 30
5, 19908, Note_on_c, 0, 63, 0
5, 19908, Note_on_c, 0, 56, 0
5, 19920, Note_on_c, 0, 56, 25
5, 19920, Note_on_c, 0, 63, 30
5, 20028, Note_on_c, 0, 63, 0
5, 20028, Note_on_c, 0, 56, 0
5, 20040, Note_on_c, 0, 56, 25
5, 20040, Note_on_c, 0, 63, 30
5, 20148, Note_on_c, 0, 63, 0
5, 20148, Note_on_c, 0, 56, 0
5, 20400, Note_on_c, 0, 58, 25
5, 20400, Note_on_c, 0, 63, 25
5, 20400, Note_on_c, 0, 67, 30
5, 20508, Note_on_c, 0, 67, 0
5, 20508, Note_on_c, 0, 63, 0
5, 20508, Note_on_c, 0, 58, 0
5, 20520, Note_on_c, 0, 58, 25
5, 20520, Note_on_c, 0, 63, 25
5, 20520, Note_on_c, 0, 67, 30
5, 20628, Note_on_c, 0, 67, 0
5, 20628, Note_on_c, 0, 63, 0
5, 20628, Note_on_c, 0, 58, 0
5, 20640, Note_on_c, 0, 58, 25
5, 20640, Note_on_c, 0, 63, 25
5, 20640, Note_on_c, 0, 67, 30
5, 20748, Note_on_c, 0, 67, 0
5, 20748, Note_on_c, 0, 63, 0
5, 20748, Note_on_c, 0, 58, 0
5, 20880, Note_on_c, 0, 46, 25
5, 20880, Note_on_c, 0, 50, 25
5, 20880, Note_on_c, 0, 56, 30
5, 20988, Note_on_c, 0, 56, 0
5, 20988, Note_on_c, 0, 50, 0
5, 20988, Note_on_c, 0, 46, 0
5, 21000, Note_on_c, 0, 46, 25
5, 21000, Note_on_c, 0, 50, 25
5, 21000, Note_on_c, 0, 56, 30
5, 21108, Note_on_c, 0, 56, 0
5, 21108, Note_on_c, 0, 50, 0
5, 21108, Note_on_c, 0, 46, 0
5, 21120, Note_on_c, 0, 46, 25
5, 21120, Note_on_c, 0, 50, 25
5, 21120, Note_on_c, 0, 56, 30
5, 21228, Note_on_c, 0, 56, 0
5, 21228, Note_on_c, 0, 50, 0
5, 21228, Note_on_c, 0, 46, 0
5, 27000, Note_on_c, 0, 56, 28
5, 27120, Note_on_c, 0, 56, 0
5, 27120, Note_on_c, 0, 51, 24
5, 27240, Note_on_c, 0, 51, 0
5, 27240, Note_on_c, 0, 56, 26
5, 27360, Note_on_c, 0, 56, 0
5, 27360, Note_on_c, 0, 51, 23
5, 27480, Note_on_c, 0, 51, 0
5, 27480, Note_on_c, 0, 55, 28
5, 27600, Note_on_c, 0, 55, 0
5, 27600, Note_on_c, 0, 51, 24
5, 27720, Note_on_c, 0, 51, 0
5, 27720, Note_on_c, 0, 55, 26
5, 27840, Note_on_c, 0, 55, 0
5, 27840, Note_on_c, 0, 51, 24
5, 27960, Note_on_c, 0, 51, 0
5, 27960, Note_on_c, 0, 56, 28
5, 28080, Note_on_c, 0, 56, 0
5, 28080, Note_on_c, 0, 51, 25
5, 28200, Note_on_c, 0, 51, 0
5, 28200, Note_on_c, 0, 56, 25
5, 28320, Note_on_c, 0, 56, 0
5, 28320, Note_on_c, 0, 51, 25
5, 28440, Note_on_c, 0, 51, 0
5, 28440, Note_on_c, 0, 58, 28
5, 28560, Note_on_c, 0, 58, 0
5, 28560, Note_on_c, 0, 51, 25
5, 28680, Note_on_c, 0, 51, 0
5, 28680, Note_on_c, 0, 58, 25
5, 28800, Note_on_c, 0, 58, 0
5, 28800, Note_on_c, 0, 51, 25
5, 28920, Note_on_c, 0, 51, 0
5, 28920, Note_on_c, 0, 56, 29
5, 29040, Note_on_c, 0, 56, 0
5, 29040, Note_on_c, 0, 51, 25
5, 29160, Note_on_c, 0, 51, 0
5, 29160, Note_on_c, 0, 58, 27
5, 29280, Note_on_c, 0, 58, 0
5, 29280, Note_on_c, 0, 51, 24
5, 29400, Note_on_c, 0, 51, 0
5, 29400, Note_on_c, 0, 60, 33
5, 29520, Note_on_c, 0, 60, 0
5, 29520, Note_on_c, 0, 56, 28
5, 29640, Note_on_c, 0, 56, 0
5, 29640, Note_on_c, 0, 62, 31
5, 29760, Note_on_c, 0, 62, 0
5, 29760, Note_on_c, 0, 56, 26
5, 29880, Note_on_c, 0, 56, 0
5, 29880, Note_on_c, 0, 55, 28
5, 30000, Note_on_c, 0, 55, 0
5, 30000, Note_on_c, 0, 58, 23
5, 30120, Note_on_c, 0, 58, 0
5, 30120, Note_on_c, 0, 55, 23
5, 30240, Note_on_c, 0, 55, 0
5, 30240, Note_on_c, 0, 58, 23
5, 30360, Note_on_c, 0, 58, 0
5, 30360, Note_on_c, 0, 55, 28
5, 30480, Note_on_c, 0, 55, 0
5, 30480, Note_on_c, 0, 58, 23
5, 30600, Note_on_c, 0, 58, 0
5, 30600, Note_on_c, 0, 55, 25
5, 30720, Note_on_c, 0, 55, 0
5, 30720, Note_on_c, 0, 58, 24
5, 30840, Note_on_c, 0, 58, 0
5, 30840, Note_on_c, 0, 55, 28
5, 30960, Note_on_c, 0, 55, 0
5, 30960, Note_on_c, 0, 58, 24
5, 31080, Note_on_c, 0, 58, 0
5, 31080, Note_on_c, 0, 55, 26
5, 31200, Note_on_c, 0, 55, 0
5, 31200, Note_on_c, 0, 58, 23
5, 31318, Note_on_c, 0, 58, 0
5, 31320, Note_on_c, 0, 55, 28
5, 31440, Note_on_c, 0, 55, 0
5, 31440, Note_on_c, 0, 51, 24
5, 31560, Note_on_c, 0, 51, 0
5, 31560, Note_on_c, 0, 55, 24
5, 31680, Note_on_c, 0, 55, 0
5, 31680, Note_on_c, 0, 51, 24
5, 31800, Note_on_c, 0, 51, 0
5, 31800, Note_on_c, 0, 56, 28
5, 31920, Note_on_c, 0, 56, 0
5, 31920, Note_on_c, 0, 51, 27
5, 32040, Note_on_c, 0, 51, 0
5, 32040, Note_on_c, 0, 56, 27
5, 32160, Note_on_c, 0, 56, 0
5, 32160, Note_on_c, 0, 51, 25
5, 32280, Note_on_c, 0, 51, 0
5, 32280, Note_on_c, 0, 51, 28
5, 32400, Note_on_c, 0, 51, 0
5, 32400, Note_on_c, 0, 48, 24
5, 32520, Note_on_c, 0, 48, 0
5, 32520, Note_on_c, 0, 51, 26
5, 32640, Note_on_c, 0, 51, 0
5, 32640, Note_on_c, 0, 48, 24
5, 32760, Note_on_c, 0, 48, 0
5, 32760, Note_on_c, 0, 53, 29
5, 32880, Note_on_c, 0, 53, 0
5, 32880, Note_on_c, 0, 49, 25
5, 33000, Note_on_c, 0, 49, 0
5, 33000, Note_on_c, 0, 53, 27
5, 33120, Note_on_c, 0, 53, 0
5, 33120, Note_on_c, 0, 49, 24
5, 33210, Note_on_c, 0, 49, 0
5, 33240, Note_on_c, 0, 49, 30
5, 33330, Note_on_c, 0, 49, 0
5, 33360, Note_on_c, 0, 49, 26
5, 33450, Note_on_c, 0, 49, 0
5, 33480, Note_on_c, 0, 49, 28
5, 33570, Note_on_c, 0, 49, 0
5, 33600, Note_on_c, 0, 49, 26
5, 33690, Note_on_c, 0, 49, 0
5, 33720, Note_on_c, 0, 49, 31
5, 33840, Note_on_c, 0, 49, 0
5, 33840, Note_on_c, 0, 51, 26
5, 33960, Note_on_c, 0, 51, 0
5, 33960, Note_on_c, 0, 49, 28
5, 34080, Note_on_c, 0, 49, 0
5, 34080, Note_on_c, 0, 51, 24
5, 34200, Note_on_c, 0, 51, 0
5, 39480, Note_on_c, 0, 45, 45
5, 39480, Note_on_c, 0, 47, 50
5, 39480, Note_on_c, 0, 51, 54
5, 39480, Note_on_c, 0, 54, 64
5, 39540, Note_on_c, 0, 54, 0
5, 39540, Note_on_c, 0, 45, 0
5, 39540, Note_on_c, 0, 47, 0
5, 39540, Note_on_c, 0, 51, 0
5, 39560, Note_on_c, 0, 45, 42
5, 39560, Note_on_c, 0, 47, 50
5, 39560, Note_on_c, 0, 51, 50
5, 39560, Note_on_c, 0, 54, 60
5, 39620, Note_on_c, 0, 54, 0
5, 39620, Note_on_c, 0, 45, 0
5, 39620, Note_on_c, 0, 47, 0
5, 39620, Note_on_c, 0, 51, 0
5, 39640, Note_on_c, 0, 45, 42
5, 39640, Note_on_c, 0, 47, 50
5, 39640, Note_on_c, 0, 51, 50
5, 39640, Note_on_c, 0, 54, 60
5, 39700, Note_on_c, 0, 54, 0
5, 39700, Note_on_c, 0, 45, 0
5, 39700, Note_on_c, 0, 47, 0
5, 39700, Note_on_c, 0, 51, 0
5, 39720, Note_on_c, 0, 45, 42
5, 39720, Note_on_c, 0, 47, 50
5, 39720, Note_on_c, 0, 51, 50
5, 39720, Note_on_c, 0, 54, 60
5, 39780, Note_on_c, 0, 54, 0
5, 39780, Note_on_c, 0, 45, 0
5, 39780, Note_on_c, 0, 47, 0
5, 39780, Note_on_c, 0, 51, 0
5, 39800, Note_on_c, 0, 45, 42
5, 39800, Note_on_c, 0, 47, 50
5, 39800, Note_on_c, 0, 51, 50
5, 39800, Note_on_c, 0, 54, 60
5, 39860, Note_on_c, 0, 54, 0
5, 39860, Note_on_c, 0, 45, 0
5, 39860, Note_on_c, 0, 47, 0
5, 39860, Note_on_c, 0, 51, 0
5, 39880, Note_on_c, 0, 45, 42
5, 39880, Note_on_c, 0, 47, 50
5, 39880, Note_on_c, 0, 51, 50
5, 39880, Note_on_c, 0, 54, 60
5, 39940, Note_on_c, 0, 54, 0
5, 39940, Note_on_c, 0, 45, 0
5, 39940, Note_on_c, 0, 47, 0
5, 39940, Note_on_c, 0, 51, 0
5, 39960, Note_on_c, 0, 44, 46
5, 39960, Note_on_c, 0, 47, 55
5, 39960, Note_on_c, 0, 52, 55
5, 39960, Note_on_c, 0, 56, 66
5, 40020, Note_on_c, 0, 56, 0
5, 40020, Note_on_c, 0, 44, 0
5, 40020, Note_on_c, 0, 47, 0
5, 40020, Note_on_c, 0, 52, 0
5, 40040, Note_on_c, 0, 44, 42
5, 40040, Note_on_c, 0, 47, 50
5, 40040, Note_on_c, 0, 52, 50
5, 40040, Note_on_c, 0, 56, 60
5, 40100, Note_on_c, 0, 56, 0
5, 40100, Note_on_c, 0, 44, 0
5, 40100, Note_on_c, 0, 47, 0
5, 40100, Note_on_c, 0, 52, 0
5, 40120, Note_on_c, 0, 44, 42
5, 40120, Note_on_c, 0, 47, 50
5, 40120, Note_on_c, 0, 52, 50
5, 40120, Note_on_c, 0, 56, 60
5, 40180, Note_on_c, 0, 56, 0
5, 40180, Note_on_c, 0, 44, 0
5, 40180, Note_on_c, 0, 47, 0
5, 40180, Note_on_c, 0, 52, 0
5, 40200, Note_on_c, 0, 44, 42
5, 40200, Note_on_c, 0, 47, 50
5, 40200, Note_on_c, 0, 52, 50
5, 40200, Note_on_c, 0, 56, 60
5, 40260, Note_on_c, 0, 56, 0
5, 40260, Note_on_c, 0, 44, 0
5, 40260, Note_on_c, 0, 47, 0
5, 40260, Note_on_c, 0, 52, 0
5, 40280, Note_on_c, 0, 44, 42
5, 40280, Note_on_c, 0, 47, 49
5, 40280, Note_on_c, 0, 52, 49
5, 40280, Note_on_c, 0, 56, 58
5, 40340, Note_on_c, 0, 56, 0
5, 40340, Note_on_c, 0, 44, 0
5, 40340, Note_on_c, 0, 47, 0
5, 40340, Note_on_c, 0, 52, 0
5, 40360, Note_on_c, 0, 44, 42
5, 40360, Note_on_c, 0, 47, 49
5, 40360, Note_on_c, 0, 52, 49
5, 40360, Note_on_c, 0, 56, 58
5, 40420, Note_on_c, 0, 56, 0
5, 40420, Note_on_c, 0, 44, 0
5, 40420, Note_on_c, 0, 47, 0
5, 40420, Note_on_c, 0, 52, 0
5, 40440, Note_on_c, 0, 49, 46
5, 40440, Note_on_c, 0, 52, 55
5, 40440, Note_on_c, 0, 54, 55
5, 40440, Note_on_c, 0, 58, 66
5, 40500, Note_on_c, 0, 58, 0
5, 40500, Note_on_c, 0, 49, 0
5, 40500, Note_on_c, 0, 52, 0
5, 40500, Note_on_c, 0, 54, 0
5, 40520, Note_on_c, 0, 49, 40
5, 40520, Note_on_c, 0, 52, 48
5, 40520, Note_on_c, 0, 54, 48
5, 40520, Note_on_c, 0, 58, 57
5, 40580, Note_on_c, 0, 58, 0
5, 40580, Note_on_c, 0, 49, 0
5, 40580, Note_on_c, 0, 52, 0
5, 40580, Note_on_c, 0, 54, 0
5, 40600, Note_on_c, 0, 49, 40
5, 40600, Note_on_c, 0, 52, 48
5, 40600, Note_on_c, 0, 54, 48
5, 40600, Note_on_c, 0, 58, 57
5, 40660, Note_on_c, 0, 58, 0
5, 40660, Note_on_c, 0, 49, 0
5, 40660, Note_on_c, 0, 52, 0
5, 40660, Note_on_c, 0, 54, 0
5, 40680, Note_on_c, 0, 49, 40
5, 40680, Note_on_c, 0, 52, 48
5, 40680, Note_on_c, 0, 54, 48
5, 40680, Note_on_c, 0, 58, 57
5, 40740, Note_on_c, 0, 58, 0
5, 40740, Note_on_c, 0, 49, 0
5, 40740, Note_on_c, 0, 52, 0
5, 40740, Note_on_c, 0, 54, 0
5, 40760, Note_on_c, 0, 49, 40
5, 40760, Note_on_c, 0, 52, 48
5, 40760, Note_on_c, 0, 54, 48
5, 40760, Note_on_c, 0, 58, 57
5, 40820, Note_on_c, 0, 58, 0
5, 40820, Note_on_c, 0, 49, 0
5, 40820, Note_on_c, 0, 52, 0
5, 40820, Note_on_c, 0, 54, 0
5, 40840, Note_on_c, 0, 49, 40
5, 40840, Note_on_c, 0, 52, 48
5, 40840, Note_on_c, 0, 54, 48
5, 40840, Note_on_c, 0, 58, 57
5, 40900, Note_on_c, 0, 58, 0
5, 40900, Note_on_c, 0, 49, 0
5, 40900, Note_on_c, 0, 52, 0
5, 40900, Note_on_c, 0, 54, 0
5, 40920, Note_on_c, 0, 47, 51
5, 40920, Note_on_c, 0, 52, 61
5, 40920, Note_on_c, 0, 56, 61
5, 40920, Note_on_c, 0, 59, 73
5, 40980, Note_on_c, 0, 59, 0
5, 40980, Note_on_c, 0, 47, 0
5, 40980, Note_on_c, 0, 52, 0
5, 40980, Note_on_c, 0, 56, 0
5, 41000, Note_on_c, 0, 47, 46
5, 41000, Note_on_c, 0, 52, 55
5, 41000, Note_on_c, 0, 56, 55
5, 41000, Note_on_c, 0, 59, 66
5, 41060, Note_on_c, 0, 59, 0
5, 41060, Note_on_c, 0, 47, 0
5, 41060, Note_on_c, 0, 52, 0
5, 41060, Note_on_c, 0, 56, 0
5, 41080, Note_on_c, 0, 47, 46
5, 41080, Note_on_c, 0, 52, 55
5, 41080, Note_on_c, 0, 56, 55
5, 41080, Note_on_c, 0, 59, 66
5, 41140, Note_on_c, 0, 59, 0
5, 41140, Note_on_c, 0, 47, 0
5, 41140, Note_on_c, 0, 52, 0
5, 41140, Note_on_c, 0, 56, 0
5, 41160, Note_on_c, 0, 35, 55
5, 41160, Note_on_c, 0, 47, 66
5, 41220, Note_on_c, 0, 47, 0
5, 41220, Note_on_c, 0, 35, 0
5, 41240, Note_on_c, 0, 35, 55
5, 41240, Note_on_c, 0, 47, 66
5, 41300, Note_on_c, 0, 47, 0
5, 41300, Note_on_c, 0, 35, 0
5, 41320, Note_on_c, 0, 35, 55
5, 41320, Note_on_c, 0, 47, 66
5, 41380, Note_on_c, 0, 47, 0
5, 41380, Note_on_c, 0, 35, 0
5, 41400, Note_on_c, 0, 40, 55
5, 41400, Note_on_c, 0, 52, 55
5, 41640, Note_on_c, 0, 52, 0
5, 41640, Note_on_c, 0, 40, 0
5, 48120, Note_on_c, 0, 48, 28
5, 48200, Note_on_c, 0, 48, 0
5, 48200, Note_on_c, 0, 51, 26
5, 48260, Note_on_c, 0, 51, 0
5, 48280, Note_on_c, 0, 51, 26
5, 48340, Note_on_c, 0, 51, 0
5, 48360, Note_on_c, 0, 56, 28
5, 48440, Note_on_c, 0, 56, 0
5, 48440, Note_on_c, 0, 51, 26
5, 48500, Note_on_c, 0, 51, 0
5, 48520, Note_on_c, 0, 51, 26
5, 48580, Note_on_c, 0, 51, 0
5, 48600, Note_on_c, 0, 55, 28
5, 48680, Note_on_c, 0, 55, 0
5, 48680, Note_on_c, 0, 51, 26
5, 48740, Note_on_c, 0, 51, 0
5, 48760, Note_on_c, 0, 51, 26
5, 48820, Note_on_c, 0, 51, 0
5, 48840, Note_on_c, 0, 55, 28
5, 48920, Note_on_c, 0, 55, 0
5, 48920, Note_on_c, 0, 51, 27
5, 48980, Note_on_c, 0, 51, 0
5, 49000, Note_on_c, 0, 51, 27
5, 49060, Note_on_c, 0, 51, 0
5, 49080, Note_on_c, 0, 56, 28
5, 49160, Note_on_c, 0, 56, 0
5, 49160, Note_on_c, 0, 51, 26
5, 49220, Note_on_c, 0, 51, 0
5, 49240, Note_on_c, 0, 51, 26
5, 49300, Note_on_c, 0, 51, 0
5, 49320, Note_on_c, 0, 56, 28
5, 49400, Note_on_c, 0, 56, 0
5, 49400, Note_on_c, 0, 51, 26
5, 49460, Note_on_c, 0, 51, 0
5, 49480, Note_on_c, 0, 51, 26
5, 49540, Note_on_c, 0, 51, 0
5, 49560, Note_on_c, 0, 58, 28
5, 49640, Note_on_c, 0, 58, 0
5, 49640, Note_on_c, 0, 51, 25
5, 49700, Note_on_c, 0, 51, 0
5, 49720, Note_on_c, 0, 51, 25
5, 49780, Note_on_c, 0, 51, 0
5, 49800, Note_on_c, 0, 58, 25
5, 49880, Note_on_c, 0, 58, 0
5, 49880, Note_on_c, 0, 51, 25
5, 49940, Note_on_c, 0, 51, 0
5, 49960, Note_on_c, 0, 51, 25
5, 50020, Note_on_c, 0, 51, 0
5, 50040, Note_on_c, 0, 56, 29
5, 50120, Note_on_c, 0, 56, 0
5, 50120, Note_on_c, 0, 51, 27
5, 50180, Note_on_c, 0, 51, 0
5, 50200, Note_on_c, 0, 51, 27
5, 50260, Note_on_c, 0, 51, 0
5, 50280, Note_on_c, 0, 58, 26
5, 50360, Note_on_c, 0, 58, 0
5, 50360, Note_on_c, 0, 51, 26
5, 50420, Note_on_c, 0, 51, 0
5, 50440, Note_on_c, 0, 51, 26
5, 50500, Note_on_c, 0, 51, 0
5, 50520, Note_on_c, 0, 60, 30
5, 50600, Note_on_c, 0, 60, 0
5, 50600, Note_on_c, 0, 56, 27
5, 50660, Note_on_c, 0, 56, 0
5, 50680, Note_on_c, 0, 56, 27
5, 50740, Note_on_c, 0, 56, 0
5, 50760, Note_on_c, 0, 62, 27
5, 50840, Note_on_c, 0, 62, 0
5, 50840, Note_on_c, 0, 56, 27
5, 50900, Note_on_c, 0, 56, 0
5, 50920, Note_on_c, 0, 56, 25
5, 50980, Note_on_c, 0, 56, 0
5, 51000, Note_on_c, 0, 55, 28
5, 51080, Note_on_c, 0, 55, 0
5, 51080, Note_on_c, 0, 58, 27
5, 51140, Note_on_c, 0, 58, 0
5, 51160, Note_on_c, 0, 58, 27
5, 51220, Note_on_c, 0, 58, 0
5, 51240, Note_on_c, 0, 55, 23
5, 51320, Note_on_c, 0, 55, 0
5, 51320, Note_on_c, 0, 58, 23
5, 51380, Note_on_c, 0, 58, 0
5, 51400, Note_on_c, 0, 58, 23
5, 51460, Note_on_c, 0, 58, 0
5, 51480, Note_on_c, 0, 55, 28
5, 51560, Note_on_c, 0, 55, 0
5, 51560, Note_on_c, 0, 58, 26
5, 51620, Note_on_c, 0, 58, 0
5, 51640, Note_on_c, 0, 58, 26
5, 51700, Note_on_c, 0, 58, 0
5, 51720, Note_on_c, 0, 55, 25
5, 51800, Note_on_c, 0, 55, 0
5, 51800, Note_on_c, 0, 58, 25
5, 51860, Note_on_c, 0, 58, 0
5, 51880, Note_on_c, 0, 58, 25
5, 51940, Note_on_c, 0, 58, 0
5, 51960, Note_on_c, 0, 55, 28
5, 52040, Note_on_c, 0, 55, 0
5, 52040, Note_on_c, 0, 58, 25
5, 52100, Note_on_c, 0, 58, 0
5, 52120, Note_on_c, 0, 58, 25
5, 52180, Note_on_c, 0, 58, 0
5, 52200, Note_on_c, 0, 55, 26
5, 52280, Note_on_c, 0, 55, 0
5, 52280, Note_on_c, 0, 58, 26
5, 52340, Note_on_c, 0, 58, 0
5, 52360, Note_on_c, 0, 58, 26
5, 52419, Note_on_c, 0, 58, 0
5, 52440, Note_on_c, 0, 55, 28
5, 52520, Note_on_c, 0, 55, 0
5, 52520, Note_on_c, 0, 51, 26
5, 52580, Note_on_c, 0, 51, 0
5, 52600, Note_on_c, 0, 51, 26
5, 52660, Note_on_c, 0, 51, 0
5, 52680, Note_on_c, 0, 55, 24
5, 52760, Note_on_c, 0, 55, 0
5, 52760, Note_on_c, 0, 51, 24
5, 52820, Note_on_c, 0, 51, 0
5, 52840, Note_on_c, 0, 51, 24
5, 52900, Note_on_c, 0, 51, 0
5, 52920, Note_on_c, 0, 56, 28
5, 53000, Note_on_c, 0, 56, 0
5, 53000, Note_on_c, 0, 51, 26
5, 53060, Note_on_c, 0, 51, 0
5, 53080, Note_on_c, 0, 51, 26
5, 53140, Note_on_c, 0, 51, 0
5, 53160, Note_on_c, 0, 56, 27
5, 53240, Note_on_c, 0, 56, 0
5, 53240, Note_on_c, 0, 51, 25
5, 53300, Note_on_c, 0, 51, 0
5, 53320, Note_on_c, 0, 51, 25
5, 53380, Note_on_c, 0, 51, 0
5, 53400, Note_on_c, 0, 51, 28
5, 53480, Note_on_c, 0, 51, 0
5, 53480, Note_on_c, 0, 48, 25
5, 53540, Note_on_c, 0, 48, 0
5, 53560, Note_on_c, 0, 48, 25
5, 53620, Note_on_c, 0, 48, 0
5, 53640, Note_on_c, 0, 51, 26
5, 53720, Note_on_c, 0, 51, 0
5, 53720, Note_on_c, 0, 48, 26
5, 53780, Note_on_c, 0, 48, 0
5, 53800, Note_on_c, 0, 48, 26
5, 53860, Note_on_c, 0, 48, 0
5, 53880, Note_on_c, 0, 53, 29
5, 53960, Note_on_c, 0, 53, 0
5, 53960, Note_on_c, 0, 49, 26
5, 54020, Note_on_c, 0, 49, 0
5, 54040, Note_on_c, 0, 49, 26
5, 54100, Note_on_c, 0, 49, 0
5, 54120, Note_on_c, 0, 53, 27
5, 54200, Note_on_c, 0, 53, 0
5, 54200, Note_on_c, 0, 49, 25
5, 54260, Note_on_c, 0, 49, 0
5, 54280, Note_on_c, 0, 49, 25
5, 54340, Note_on_c, 0, 49, 0
5, 54360, Note_on_c, 0, 55, 30
5, 54440, Note_on_c, 0, 55, 0
5, 54440, Note_on_c, 0, 49, 28
5, 54500, Note_on_c, 0, 49, 0
5, 54520, Note_on_c, 0, 49, 28
5, 54580, Note_on_c, 0, 49, 0
5, 54600, Note_on_c, 0, 49, 28
5, 54660, Note_on_c, 0, 49, 0
5, 54680, Note_on_c, 0, 49, 25
5, 54740, Note_on_c, 0, 49, 0
5, 54760, Note_on_c, 0, 49, 25
5, 54820, Note_on_c, 0, 49, 0
5, 54840, Note_on_c, 0, 49, 31
5, 54920, Note_on_c, 0, 49, 0
5, 54920, Note_on_c, 0, 51, 28
5, 54980, Note_on_c, 0, 51, 0
5, 55000, Note_on_c, 0, 51, 28
5, 55060, Note_on_c, 0, 51, 0
5, 55080, Note_on_c, 0, 49, 28
5, 55160, Note_on_c, 0, 49, 0
5, 55160, Note_on_c, 0, 51, 25
5, 55220, Note_on_c, 0, 51, 0
5, 55240, Note_on_c, 0, 51, 25
5, 55300, Note_on_c, 0, 51, 0
5, 55800, Note_on_c, 0, 56, 28
5, 55880, Note_on_c, 0, 56, 0
5, 55880, Note_on_c, 0, 51, 26
5, 55940, Note_on_c, 0, 51, 0
5, 55960, Note_on_c, 0, 51, 26
5, 56020, Note_on_c, 0, 51, 0
5, 56040, Note_on_c, 0, 56, 28
5, 56120, Note_on_c, 0, 56, 0
5, 56120, Note_on_c, 0, 51, 26
5, 56180, Note_on_c, 0, 51, 0
5, 56200, Note_on_c, 0, 51, 26
5, 56260, Note_on_c, 0, 51, 0
5, 56280, Note_on_c, 0, 55, 28
5, 56360, Note_on_c, 0, 55, 0
5, 56360, Note_on_c, 0, 51, 26
5, 56420, Note_on_c, 0, 51, 0
5, 56440, Note_on_c, 0, 51, 26
5, 56500, Note_on_c, 0, 51, 0
5, 56520, Note_on_c, 0, 55, 28
5, 56600, Note_on_c, 0, 55, 0
5, 56600, Note_on_c, 0, 51, 27
5, 56660, Note_on_c, 0, 51, 0
5, 56680, Note_on_c, 0, 51, 27
5, 56740, Note_on_c, 0, 51, 0
5, 56760, Note_on_c, 0, 56, 28
5, 56840, Note_on_c, 0, 56, 0
5, 56840, Note_on_c, 0, 51, 26
5, 56900, Note_on_c, 0, 51, 0
5, 56920, Note_on_c, 0, 51, 26
5, 56980, Note_on_c, 0, 51, 0
5, 57000, Note_on_c, 0, 56, 28
5, 57080, Note_on_c, 0, 56, 0
5, 57080, Note_on_c, 0, 51, 26
5, 57140, Note_on_c, 0, 51, 0
5, 57160, Note_on_c, 0, 51, 26
5, 57220, Note_on_c, 0, 51, 0
5, 57240, Note_on_c, 0, 55, 28
5, 57320, Note_on_c, 0, 55, 0
5, 57320, Note_on_c, 0, 51, 25
5, 57380, Note_on_c, 0, 51, 0
5, 57400, Note_on_c, 0, 51, 25
5, 57460, Note_on_c, 0, 51, 0
5, 57480, Note_on_c, 0, 55, 25
5, 57560, Note_on_c, 0, 55, 0
5, 57560, Note_on_c, 0, 51, 25
5, 57620, Note_on_c, 0, 51, 0
5, 57640, Note_on_c, 0, 51, 25
5, 57700, Note_on_c, 0, 51, 0
5, 57720, Note_on_c, 0, 56, 29
5, 57800, Note_on_c, 0, 56, 0
5, 57800, Note_on_c, 0, 51, 27
5, 57860, Note_on_c, 0, 51, 0
5, 57880, Note_on_c, 0, 51, 27
5, 57940, Note_on_c, 0, 51, 0
5, 57960, Note_on_c, 0, 55, 26
5, 58040, Note_on_c, 0, 55, 0
5, 58040, Note_on_c, 0, 51, 26
5, 58100, Note_on_c, 0, 51, 0
5, 58120, Note_on_c, 0, 51, 26
5, 58180, Note_on_c, 0, 51, 0
5, 58200, Note_on_c, 0, 53, 30
5, 58280, Note_on_c, 0, 53, 0
5, 58280, Note_on_c, 0, 44, 27
5, 58340, Note_on_c, 0, 44, 0
5, 58360, Note_on_c, 0, 44, 27
5, 58420, Note_on_c, 0, 44, 0
5, 58440, Note_on_c, 0, 53, 27
5, 58520, Note_on_c, 0, 53, 0
5, 58520, Note_on_c, 0, 44, 27
5, 58580, Note_on_c, 0, 44, 0
5, 58600, Note_on_c, 0, 44, 25
5, 58660, Note_on_c, 0, 44, 0
5, 62040, Note_on_c, 0, 39, 34
5, 62040, Note_on_c, 0, 46, 27
5, 62120, Note_on_c, 0, 46, 0
5, 62120, Note_on_c, 0, 51, 25
5, 62180, Note_on_c, 0, 51, 0
5, 62200, Note_on_c, 0, 51, 25
5, 62260, Note_on_c, 0, 51, 0
5, 62280, Note_on_c, 0, 39, 0
5, 62280, Note_on_c, 0, 39, 30
5, 62360, Note_on_c, 0, 51, 25
5, 62420, Note_on_c, 0, 51, 0
5, 62440, Note_on_c, 0, 51, 25
5, 62500, Note_on_c, 0, 51, 0
5, 62520, Note_on_c, 0, 39, 0
5, 62520, Note_on_c, 0, 44, 29
5, 62600, Note_on_c, 0, 44, 0
5, 62600, Note_on_c, 0, 51, 25
5, 62660, Note_on_c, 0, 51, 0
5, 62680, Note_on_c, 0, 51, 25
5, 62740, Note_on_c, 0, 51, 0
5, 62760, Note_on_c, 0, 51, 25
5, 62820, Note_on_c, 0, 51, 0
5, 62840, Note_on_c, 0, 51, 25
5, 62900, Note_on_c, 0, 51, 0
5, 62920, Note_on_c, 0, 51, 25
5, 62980, Note_on_c, 0, 51, 0
5, 63000, Note_on_c, 0, 51, 25
5, 63072, Note_on_c, 0, 51, 0
5, 63080, Note_on_c, 0, 51, 25
5, 63152, Note_on_c, 0, 51, 0
5, 63160, Note_on_c, 0, 51, 25
5, 63232, Note_on_c, 0, 51, 0
5, 63240, Note_on_c, 0, 51, 26
5, 63312, Note_on_c, 0, 51, 0
5, 63320, Note_on_c, 0, 51, 27
5, 63392, Note_on_c, 0, 51, 0
5, 63400, Note_on_c, 0, 51, 28
5, 63472, Note_on_c, 0, 51, 0
5, 63480, Note_on_c, 0, 39, 24
5, 63480, Note_on_c, 0, 49, 24
5, 63480, Note_on_c, 0, 51, 30
5, 63552, Note_on_c, 0, 51, 0
5, 63552, Note_on_c, 0, 49, 0
5, 63552, Note_on_c, 0, 39, 0
5, 63560, Note_on_c, 0, 39, 20
5, 63560, Note_on_c, 0, 49, 20
5, 63560, Note_on_c, 0, 51, 25
5, 63632, Note_on_c, 0, 51, 0
5, 63632, Note_on_c, 0, 49, 0
5, 63632, Note_on_c, 0, 39, 0
5, 63640, Note_on_c, 0, 39, 20
5, 63640, Note_on_c, 0, 49, 20
5, 63640, Note_on_c, 0, 51, 25
5, 63712, Note_on_c, 0, 51, 0
5, 63712, Note_on_c, 0, 49, 0
5, 63712, Note_on_c, 0, 39, 0
5, 63720, Note_on_c, 0, 39, 20
5, 63720, Note_on_c, 0, 49, 20
5, 63720, Note_on_c, 0, 51, 25
5, 63792, Note_on_c, 0, 51, 0
5, 63792, Note_on_c, 0, 49, 0
5, 63792, Note_on_c, 0, 39, 0
5, 63800, Note_on_c, 0, 39, 20
5, 63800, Note_on_c, 0, 49, 20
5, 63800, Note_on_c, 0, 51, 25
5, 63872, Note_on_c, 0, 51, 0
5, 63872, Note_on_c, 0, 49, 0
5, 63872, Note_on_c, 0, 39, 0
5, 63880, Note_on_c, 0, 39, 20
5, 63880, Note_on_c, 0, 49, 20
5, 63880, Note_on_c, 0, 51, 26
5, 63952, Note_on_c, 0, 51, 0
5, 63952, Note_on_c, 0, 49, 0
5, 63952, Note_on_c, 0, 39, 0
5, 63960, Note_on_c, 0, 39, 21
5, 63960, Note_on_c, 0, 49, 21
5, 63960, Note_on_c, 0, 51, 26
5, 64032, Note_on_c, 0, 51, 0
5, 64032, Note_on_c, 0, 49, 0
5, 64032, Note_on_c, 0, 39, 0
5, 64040, Note_on_c, 0, 39, 21
5, 64040, Note_on_c, 0, 49, 21
5, 64040, Note_on_c, 0, 51, 27
5, 64112, Note_on_c, 0, 51, 0
5, 64112, Note_on_c, 0, 49, 0
5, 64112, Note_on_c, 0, 39, 0
5, 64120, Note_on_c, 0, 39, 22
5, 64120, Note_on_c, 0, 49, 22
5, 64120, Note_on_c, 0, 51, 27
5, 64192, Note_on_c, 0, 51, 0
5, 64192, Note_on_c, 0, 49, 0
5, 64192, Note_on_c, 0, 39, 0
5, 64200, Note_on_c, 0, 39, 20
5, 64200, Note_on_c, 0, 49, 20
5, 64200, Note_on_c, 0, 51, 25
5, 64272, Note_on_c, 0, 51, 0
5, 64272, Note_on_c, 0, 49, 0
5, 64272, Note_on_c, 0, 39, 0
5, 64280, Note_on_c, 0, 39, 20
5, 64280, Note_on_c, 0, 49, 20
5, 64280, Note_on_c, 0, 51, 25
5, 64352, Note_on_c, 0, 51, 0
5, 64352, Note_on_c, 0, 49, 0
5, 64352, Note_on_c, 0, 39, 0
5, 64360, Note_on_c, 0, 39, 20
5, 64360, Note_on_c, 0, 49, 20
5, 64360, Note_on_c, 0, 51, 25
5, 64432, Note_on_c, 0, 51, 0
5, 64432, Note_on_c, 0, 49, 0
5, 64432, Note_on_c, 0, 39, 0
5, 64440, Note_on_c, 0, 44, 20
5, 64440, Note_on_c, 0, 48, 20
5, 64440, Note_on_c, 0, 51, 25
5, 64512, Note_on_c, 0, 51, 0
5, 64512, Note_on_c, 0, 48, 0
5, 64512, Note_on_c, 0, 44, 0
5, 64520, Note_on_c, 0, 51, 25
5, 64592, Note_on_c, 0, 51, 0
5, 64600, Note_on_c, 0, 51, 25
5, 64672, Note_on_c, 0, 51, 0
5, 64680, Note_on_c, 0, 51, 25
5, 64752, Note_on_c, 0, 51, 0
5, 64760, Note_on_c, 0, 51, 25
5, 64832, Note_on_c, 0, 51, 0
5, 64840, Note_on_c, 0, 51, 25
5, 64912, Note_on_c, 0, 51, 0
5, 64920, Note_on_c, 0, 51, 25
5, 64992, Note_on_c, 0, 51, 0
5, 65000, Note_on_c, 0, 51, 25
5, 65072, Note_on_c, 0, 51, 0
5, 65080, Note_on_c, 0, 51, 25
5, 65152, Note_on_c, 0, 51, 0
5, 65160, Note_on_c, 0, 51, 26
5, 65232, Note_on_c, 0, 51, 0
5, 65240, Note_on_c, 0, 51, 27
5, 65312, Note_on_c, 0, 51, 0
5, 65320, Note_on_c, 0, 51, 28
5, 65392, Note_on_c, 0, 51, 0
5, 65400, Note_on_c, 0, 39, 24
5, 65400, Note_on_c, 0, 49, 24
5, 65400, Note_on_c, 0, 51, 30
5, 65472, Note_on_c, 0, 51, 0
5, 65472, Note_on_c, 0, 49, 0
5, 65472, Note_on_c, 0, 39, 0
5, 65480, Note_on_c, 0, 39, 20
5, 65480, Note_on_c, 0, 49, 20
5, 65480, Note_on_c, 0, 51, 25
5, 65552, Note_on_c, 0, 51, 0
5, 65552, Note_on_c, 0, 49, 0
5, 65552, Note_on_c, 0, 39, 0
5, 65560, Note_on_c, 0, 39, 20
5, 65560, Note_on_c, 0, 49, 20
5, 65560, Note_on_c, 0, 51, 25
5, 65632, Note_on_c, 0, 51, 0
5, 65632, Note_on_c, 0, 49, 0
5, 65632, Note_on_c, 0, 39, 0
5, 65640, Note_on_c, 0, 39, 20
5, 65640, Note_on_c, 0, 49, 20
5, 65640, Note_on_c, 0, 51, 25
5, 65712, Note_on_c, 0, 51, 0
5, 65712, Note_on_c, 0, 49, 0
5, 65712, Note_on_c, 0, 39, 0
5, 65720, Note_on_c, 0, 39, 20
5, 65720, Note_on_c, 0, 49, 20
5, 65720, Note_on_c, 0, 51, 25
5, 65792, Note_on_c, 0, 51, 0
5, 65792, Note_on_c, 0, 49, 0
5, 65792, Note_on_c, 0, 39, 0
5, 65800, Note_on_c, 0, 39, 20
5, 65800, Note_on_c, 0, 49, 20
5, 65800, Note_on_c, 0, 51, 26
5, 65872, Note_on_c, 0, 51, 0
5, 65872, Note_on_c, 0, 49, 0
5, 65872, Note_on_c, 0, 39, 0
5, 65880, Note_on_c, 0, 39, 21
5, 65880, Note_on_c, 0, 49, 21
5, 65880, Note_on_c, 0, 51, 26
5, 65952, Note_on_c, 0, 51, 0
5, 65952, Note_on_c, 0, 49, 0
5, 65952, Note_on_c, 0, 39, 0
5, 65960, Note_on_c, 0, 39, 21
5, 65960, Note_on_c, 0, 49, 21
5, 65960, Note_on_c, 0, 51, 27
5, 66032, Note_on_c, 0, 51, 0
5, 66032, Note_on_c, 0, 49, 0
5, 66032, Note_on_c, 0, 39, 0
5, 66040, Note_on_c, 0, 39, 22
5, 66040, Note_on_c, 0, 49, 22
5, 66040, Note_on_c, 0, 51, 27
5, 66112, Note_on_c, 0, 51, 0
5, 66112, Note_on_c, 0, 49, 0
5, 66112, Note_on_c, 0, 39, 0
5, 66120, Note_on_c, 0, 39, 20
5, 66120, Note_on_c, 0, 49, 20
5, 66120, Note_on_c, 0, 51, 25
5, 66192, Note_on_c, 0, 51, 0
5, 66192, Note_on_c, 0, 49, 0
5, 66192, Note_on_c, 0, 39, 0
5, 66200, Note_on_c, 0, 39, 20
5, 66200, Note_on_c, 0, 49, 20
5, 66200, Note_on_c, 0, 51, 25
5, 66272, Note_on_c, 0, 51, 0
5, 66272, Note_on_c, 0, 49, 0
5, 66272, Note_on_c, 0, 39, 0
5, 66280, Note_on_c, 0, 39, 20
5, 66280, Note_on_c, 0, 49, 20
5, 66280, Note_on_c, 0, 51, 25
5, 66352, Note_on_c, 0, 51, 0
5, 66352, Note_on_c, 0, 49, 0
5, 66352, Note_on_c, 0, 39, 0
5, 66360, Note_on_c, 0, 44, 20
5, 66360, Note_on_c, 0, 48, 20
5, 66360, Note_on_c, 0, 51, 25
5, 66600, Note_on_c, 0, 51, 0
5, 66600, Note_on_c, 0, 48, 0
5, 66600, Note_on_c, 0, 44, 0
5, 66600, End_track
6, 0, Start_track
6, 0, Title_t, "Pedale"
6, 0, Control_c, 0, 64, 0
6, 64, Control_c, 0, 64, 127
6, 485, Control_c, 0, 64, 0
6, 536, Control_c, 0, 64, 127
6, 965, Control_c, 0, 64, 0
6, 1016, Control_c, 0, 64, 127
6, 1448, Control_c, 0, 64, 0
6, 1532, Control_c, 0, 64, 127
6, 1923, Control_c, 0, 64, 0
6, 1966, Control_c, 0, 64, 127
6, 2170, Control_c, 0, 64, 0
6, 2223, Control_c, 0, 64, 127
6, 2403, Control_c, 0, 64, 0
6, 2451, Control_c, 0, 64, 127
6, 2643, Control_c, 0, 64, 0
6, 2703, Control_c, 0, 64, 127
6, 2885, Control_c, 0, 64, 0
6, 2958, Control_c, 0, 64, 127
6, 3362, Control_c, 0, 64, 0
6, 3445, Control_c, 0, 64, 127
6, 3843, Control_c, 0, 64, 0
6, 3875, Control_c, 0, 64, 127
6, 4325, Control_c, 0, 64, 0
6, 4362, Control_c, 0, 64, 127
6, 4803, Control_c, 0, 64, 0
6, 4864, Control_c, 0, 64, 127
6, 5288, Control_c, 0, 64, 0
6, 5344, Control_c, 0, 64, 127
6, 5767, Control_c, 0, 64, 0
6, 5824, Control_c, 0, 64, 127
6, 6247, Control_c, 0, 64, 0
6, 6318, Control_c, 0, 64, 127
6, 6726, Control_c, 0, 64, 0
6, 6833, Control_c, 0, 64, 127
6, 7208, Control_c, 0, 64, 0
6, 7242, Control_c, 0, 64, 127
6, 7685, Control_c, 0, 64, 0
6, 7744, Control_c, 0, 64, 127
6, 8167, Control_c, 0, 64, 0
6, 8216, Control_c, 0, 64, 127
6, 8645, Control_c, 0, 64, 0
6, 8696, Control_c, 0, 64, 127
6, 9128, Control_c, 0, 64, 0
6, 9212, Control_c, 0, 64, 127
6, 9605, Control_c, 0, 64, 0
6, 9646, Control_c, 0, 64, 127
6, 9844, Control_c, 0, 64, 0
6, 9903, Control_c, 0, 64, 127
6, 10087, Control_c, 0, 64, 0
6, 10171, Control_c, 0, 64, 127
6, 10323, Control_c, 0, 64, 0
6, 10429, Control_c, 0, 64, 127
6, 10565, Control_c, 0, 64, 0
6, 10638, Control_c, 0, 64, 127
6, 11045, Control_c, 0, 64, 0
6, 11125, Control_c, 0, 64, 127
6, 11526, Control_c, 0, 64, 0
6, 11555, Control_c, 0, 64, 127
6, 12007, Control_c, 0, 64, 0
6, 12056, Control_c, 0, 64, 127
6, 12484, Control_c, 0, 64, 0
6, 12544, Control_c, 0, 64, 127
6, 12966, Control_c, 0, 64, 0
6, 13024, Control_c, 0, 64, 127
6, 13444, Control_c, 0, 64, 0
6, 13504, Control_c, 0, 64, 127
6, 13924, Control_c, 0, 64, 0
6, 13998, Control_c, 0, 64, 127
6, 14404, Control_c, 0, 64, 0
6, 14449, Control_c, 0, 64, 127
6, 14886, Control_c, 0, 64, 0
6, 27000, Control_c, 0, 64, 0
6, 27064, Control_c, 0, 64, 127
6, 27487, Control_c, 0, 64, 0
6, 27536, Control_c, 0, 64, 127
6, 27962, Control_c, 0, 64, 0
6, 28016, Control_c, 0, 64, 127
6, 28447, Control_c, 0, 64, 0
6, 28532, Control_c, 0, 64, 127
6, 28924, Control_c, 0, 64, 0
6, 28966, Control_c, 0, 64, 127
6, 29163, Control_c, 0, 64, 0
6, 29223, Control_c, 0, 64, 127
6, 29405, Control_c, 0, 64, 0
6, 29457, Control_c, 0, 64, 127
6, 29643, Control_c, 0, 64, 0
6, 29700, Control_c, 0, 64, 127
6, 29884, Control_c, 0, 64, 0
6, 29952, Control_c, 0, 64, 127
6, 30367, Control_c, 0, 64, 0
6, 30445, Control_c, 0, 64, 127
6, 30843, Control_c, 0, 64, 0
6, 30875, Control_c, 0, 64, 127
6, 31328, Control_c, 0, 64, 0
6, 31362, Control_c, 0, 64, 127
6, 31803, Control_c, 0, 64, 0
6, 31864, Control_c, 0, 64, 127
6, 32285, Control_c, 0, 64, 0
6, 32344, Control_c, 0, 64, 127
6, 32764, Control_c, 0, 64, 0
6, 32824, Control_c, 0, 64, 127
6, 33246, Control_c, 0, 64, 0
6, 33318, Control_c, 0, 64, 127
6, 33724, Control_c, 0, 64, 0
6, 33805, Control_c, 0, 64, 127
6, 34209, Control_c, 0, 64, 0
6, 34292, Control_c, 0, 64, 127
6, 34398, Control_c, 0, 64, 0
6, 48123, Control_c, 0, 64, 0
6, 48159, Control_c, 0, 64, 127
6, 48605, Control_c, 0, 64, 0
6, 48646, Control_c, 0, 64, 127
6, 49084, Control_c, 0, 64, 0
6, 49112, Control_c, 0, 64, 127
6, 49567, Control_c, 0, 64, 0
6, 49609, Control_c, 0, 64, 127
6, 50043, Control_c, 0, 64, 0
6, 50074, Control_c, 0, 64, 127
6, 50283, Control_c, 0, 64, 0
6, 50314, Control_c, 0, 64, 127
6, 50529, Control_c, 0, 64, 0
6, 50554, Control_c, 0, 64, 127
6, 50767, Control_c, 0, 64, 0
6, 50791, Control_c, 0, 64, 127
6, 51005, Control_c, 0, 64, 0
6, 51042, Control_c, 0, 64, 127
6, 51486, Control_c, 0, 64, 0
6, 51526, Control_c, 0, 64, 127
6, 51964, Control_c, 0, 64, 0
6, 51995, Control_c, 0, 64, 127
6, 52448, Control_c, 0, 64, 0
6, 52482, Control_c, 0, 64, 127
6, 52924, Control_c, 0, 64, 0
6, 52984, Control_c, 0, 64, 127
6, 53409, Control_c, 0, 64, 0
6, 53464, Control_c, 0, 64, 127
6, 53884, Control_c, 0, 64, 0
6, 53944, Control_c, 0, 64, 127
6, 54367, Control_c, 0, 64, 0
6, 54395, Control_c, 0, 64, 127
6, 54845, Control_c, 0, 64, 0
6, 54953, Control_c, 0, 64, 127
6, 55327, Control_c, 0, 64, 0
6, 55362, Control_c, 0, 64, 127
6, 55803, Control_c, 0, 64, 0
6, 55835, Control_c, 0, 64, 127
6, 56283, Control_c, 0, 64, 0
6, 56326, Control_c, 0, 64, 127
6, 56772, Control_c, 0, 64, 0
6, 56799, Control_c, 0, 64, 127
6, 57247, Control_c, 0, 64, 0
6, 57293, Control_c, 0, 64, 127
6, 57738, Control_c, 0, 64, 0
6, 57752, Control_c, 0, 64, 127
6, 57963, Control_c, 0, 64, 0
6, 57994, Control_c, 0, 64, 127
6, 58205, Control_c, 0, 64, 0
6, 58254, Control_c, 0, 64, 127
6, 58442, Control_c, 0, 64, 0
6, 58503, Control_c, 0, 64, 127
6, 58683, Control_c, 0, 64, 0
6, 58722, Control_c, 0, 64, 127
6, 59169, Control_c, 0, 64, 0
6, 59213, Control_c, 0, 64, 127
6, 59643, Control_c, 0, 64, 0
6, 59675, Control_c, 0, 64, 127
6, 60126, Control_c, 0, 64, 0
6, 60162, Control_c, 0, 64, 127
6, 60603, Control_c, 0, 64, 0
6, 60660, Control_c, 0, 64, 127
6, 61088, Control_c, 0, 64, 0
6, 61140, Control_c, 0, 64, 127
6, 61563, Control_c, 0, 64, 0
6, 61618, Control_c, 0, 64, 127
6, 62043, Control_c, 0, 64, 0
6, 62079, Control_c, 0, 64, 127
6, 62527, Control_c, 0, 64, 0
6, 62557, Control_c, 0, 64, 127
6, 63049, Control_c, 0, 64, 0
6, 64969, Control_c, 0, 64, 0
6, 69819, Control_c, 0, 64, 127
6, 70627, Control_c, 0, 64, 0
6, 70627, End_track
7, 0, Start_track
7, 0, Title_t, "Beethoven Sonata No. 8 C minor, Grand Sonate pathétique 2. Movement"
7, 0, End_track
8, 0, Start_track
8, 0, Title_t, "Copyright © 2003 by Bernd Krueger"
8, 0, End_track
9, 0, Start_track
9, 0, Title_t, "http://www.piano-midi.de"
9, 0, End_track
10, 0, Start_track
10, 0, Title_t, "Edition: 2012-05-17"
10, 0, End_track
0, 0, End_of_file
